<svg width="93" height="32" viewBox="0 0 93 32" fill="none" xmlns="http://www.w3.org/2000/svg">
<rect x="0.5" y="0.5" width="92" height="31" rx="3.5" fill="white"/>
<path d="M15.5559 7H7V15.5608H15.5559V7Z" fill="#F25022"/>
<path d="M25.0001 7H16.4442V15.5608H25.0001V7Z" fill="#7FBA00"/>
<path d="M15.5559 16.4395H7V25.0002H15.5559V16.4395Z" fill="#00A4EF"/>
<path d="M25.0002 16.4395H16.4443V25.0002H25.0002V16.4395Z" fill="#FFB900"/>
<path d="M30.4883 13H29.7734V7.39844H34.0469V13H33.3359V8.05469H30.4883V13ZM37.2344 13.0977C36.6224 13.0977 36.1341 12.9062 35.7695 12.5234C35.4076 12.138 35.2266 11.6276 35.2266 10.9922C35.2266 10.3073 35.4141 9.77214 35.7891 9.38672C36.1641 9.0013 36.6758 8.80729 37.3242 8.80469C37.9388 8.80208 38.4193 8.99089 38.7656 9.37109C39.1146 9.7487 39.2891 10.2682 39.2891 10.9297C39.2891 11.5885 39.1029 12.1146 38.7305 12.5078C38.3581 12.901 37.8594 13.0977 37.2344 13.0977ZM37.2812 12.5195C37.6979 12.5195 38.0169 12.3841 38.2383 12.1133C38.4622 11.8398 38.5742 11.4531 38.5742 10.9531C38.5742 10.4479 38.4622 10.0599 38.2383 9.78906C38.0143 9.51823 37.6953 9.38281 37.2812 9.38281C36.8672 9.38281 36.5391 9.52474 36.2969 9.80859C36.0573 10.0898 35.9375 10.4779 35.9375 10.9727C35.9375 11.4544 36.0586 11.8333 36.3008 12.1094C36.543 12.3828 36.8698 12.5195 37.2812 12.5195ZM43.4492 13H42.7539V9.47656H41.2422V10.7734C41.2422 11.362 41.2109 11.8138 41.1484 12.1289C41.0885 12.4414 40.9857 12.6706 40.8398 12.8164C40.7383 12.9154 40.6289 12.9857 40.5117 13.0273C40.3945 13.0716 40.2487 13.0938 40.0742 13.0938C40.0117 13.0938 39.9557 13.0898 39.9062 13.082C39.8568 13.0768 39.8034 13.0664 39.7461 13.0508L39.8555 12.4766C39.8815 12.4844 39.9089 12.4909 39.9375 12.4961C39.9661 12.4987 40.0013 12.5 40.043 12.5C40.1107 12.5 40.1693 12.4896 40.2188 12.4688C40.2708 12.4479 40.3203 12.4154 40.3672 12.3711C40.4505 12.2878 40.5104 12.1198 40.5469 11.8672C40.5833 11.6146 40.6003 11.2318 40.5977 10.7188V8.90234H43.4492V13ZM48.1211 8.90234L46.2109 13.7344C46.0599 14.1198 45.8672 14.4089 45.6328 14.6016C45.3984 14.7943 45.1211 14.8906 44.8008 14.8906C44.7148 14.8906 44.6341 14.8854 44.5586 14.875C44.4857 14.8646 44.4167 14.8503 44.3516 14.832L44.4844 14.25C44.5365 14.2682 44.5846 14.2812 44.6289 14.2891C44.6758 14.2969 44.7227 14.3008 44.7695 14.3008C44.9414 14.3008 45.0859 14.2552 45.2031 14.1641C45.3203 14.0729 45.4154 13.944 45.4883 13.7773L45.8203 12.9922L44.2148 8.90234H44.9844L46.0703 12.0078C46.0781 12.0339 46.0885 12.0755 46.1016 12.1328C46.1172 12.1875 46.1354 12.2565 46.1562 12.3398H46.1797C46.1875 12.3034 46.1979 12.2591 46.2109 12.207C46.2266 12.1523 46.2448 12.0885 46.2656 12.0156L47.4062 8.90234H48.1211ZM52.2031 13H51.5117V11.3789C51.2826 11.5091 51.0703 11.6029 50.875 11.6602C50.6823 11.7174 50.4779 11.7461 50.2617 11.7461C49.7591 11.7461 49.3971 11.6393 49.1758 11.4258C48.957 11.2122 48.8477 10.8555 48.8477 10.3555V8.90234H49.5391V10.2891C49.5391 10.5938 49.6016 10.8112 49.7266 10.9414C49.8516 11.0716 50.0573 11.1367 50.3438 11.1367C50.5547 11.1367 50.7487 11.1133 50.9258 11.0664C51.1055 11.0169 51.3008 10.9336 51.5117 10.8164V8.90234H52.2031V13ZM56.5078 13H55.8164V12.3555H55.8008C55.6602 12.6003 55.4857 12.7852 55.2773 12.9102C55.069 13.0352 54.8268 13.0977 54.5508 13.0977C54.1654 13.0977 53.8542 12.9857 53.6172 12.7617C53.3802 12.5378 53.2617 12.2422 53.2617 11.875C53.2617 11.5182 53.3815 11.2253 53.6211 10.9961C53.8607 10.7669 54.2057 10.6198 54.6562 10.5547L55.8203 10.3984V10.3047C55.8203 9.97396 55.7409 9.73568 55.582 9.58984C55.4258 9.44401 55.2148 9.37109 54.9492 9.37109C54.7383 9.37109 54.5326 9.41146 54.332 9.49219C54.1315 9.57292 53.9414 9.69401 53.7617 9.85547L53.3828 9.43359C53.6146 9.22005 53.862 9.0625 54.125 8.96094C54.3906 8.85677 54.681 8.80469 54.9961 8.80469C55.4961 8.80469 55.8724 8.93359 56.125 9.19141C56.3802 9.44922 56.5078 9.83594 56.5078 10.3516V13ZM55.8203 11.3281V10.9336L54.8438 11.0664C54.5443 11.1081 54.3203 11.1836 54.1719 11.293C54.0234 11.4023 53.9492 11.5742 53.9492 11.8086C53.9492 12.0404 54.0182 12.2201 54.1562 12.3477C54.2969 12.4753 54.4714 12.5391 54.6797 12.5391C55.0234 12.5391 55.2995 12.4258 55.5078 12.1992C55.7161 11.9701 55.8203 11.6797 55.8203 11.3281ZM57.8008 13V8.90234H59.6172C60.0286 8.90234 60.3503 8.99089 60.582 9.16797C60.8164 9.34505 60.9336 9.58984 60.9336 9.90234C60.9336 10.1628 60.8672 10.375 60.7344 10.5391C60.6016 10.7005 60.4049 10.8099 60.1445 10.8672C60.457 10.9062 60.6914 11.0052 60.8477 11.1641C61.0065 11.3229 61.0859 11.5404 61.0859 11.8164C61.0859 12.1523 60.957 12.4336 60.6992 12.6602C60.444 12.8867 60.1224 13 59.7344 13H57.8008ZM58.4922 9.46875V10.6133H59.4492C59.7096 10.6133 59.9049 10.5625 60.0352 10.4609C60.1654 10.3594 60.2305 10.207 60.2305 10.0039C60.2305 9.82422 60.1719 9.6901 60.0547 9.60156C59.9375 9.51302 59.7617 9.46875 59.5273 9.46875H58.4922ZM58.4922 11.1797V12.4297H59.6016C59.862 12.4297 60.0573 12.3763 60.1875 12.2695C60.3203 12.1628 60.3867 12.0026 60.3867 11.7891C60.3867 11.5859 60.3125 11.4336 60.1641 11.332C60.0182 11.2305 59.7995 11.1797 59.5078 11.1797H58.4922ZM65.1641 13H64.4727V12.3555H64.457C64.3164 12.6003 64.1419 12.7852 63.9336 12.9102C63.7253 13.0352 63.4831 13.0977 63.207 13.0977C62.8216 13.0977 62.5104 12.9857 62.2734 12.7617C62.0365 12.5378 61.918 12.2422 61.918 11.875C61.918 11.5182 62.0378 11.2253 62.2773 10.9961C62.5169 10.7669 62.862 10.6198 63.3125 10.5547L64.4766 10.3984V10.3047C64.4766 9.97396 64.3971 9.73568 64.2383 9.58984C64.082 9.44401 63.8711 9.37109 63.6055 9.37109C63.3945 9.37109 63.1888 9.41146 62.9883 9.49219C62.7878 9.57292 62.5977 9.69401 62.418 9.85547L62.0391 9.43359C62.2708 9.22005 62.5182 9.0625 62.7812 8.96094C63.0469 8.85677 63.3372 8.80469 63.6523 8.80469C64.1523 8.80469 64.5286 8.93359 64.7812 9.19141C65.0365 9.44922 65.1641 9.83594 65.1641 10.3516V13ZM64.4766 11.3281V10.9336L63.5 11.0664C63.2005 11.1081 62.9766 11.1836 62.8281 11.293C62.6797 11.4023 62.6055 11.5742 62.6055 11.8086C62.6055 12.0404 62.6745 12.2201 62.8125 12.3477C62.9531 12.4753 63.1276 12.5391 63.3359 12.5391C63.6797 12.5391 63.9557 12.4258 64.1641 12.1992C64.3724 11.9701 64.4766 11.6797 64.4766 11.3281ZM66.457 13V8.90234H67.1523V10.6172H69.1992V8.90234H69.8945V13H69.1992V11.1875H67.1523V13H66.457ZM74.5703 11.1094H71.6875C71.7005 11.5625 71.8216 11.9115 72.0508 12.1562C72.2799 12.3984 72.6016 12.5195 73.0156 12.5195C73.1953 12.5195 73.3789 12.4922 73.5664 12.4375C73.7565 12.3802 73.9466 12.2878 74.1367 12.1602L74.4531 12.6445C74.2161 12.8008 73.9779 12.9154 73.7383 12.9883C73.4987 13.0612 73.2357 13.0977 72.9492 13.0977C72.3294 13.0977 71.8464 12.9141 71.5 12.5469C71.1536 12.1771 70.9792 11.6615 70.9766 11C70.974 10.3411 71.1484 9.8112 71.5 9.41016C71.8542 9.00651 72.3125 8.80469 72.875 8.80469C73.4115 8.80469 73.8281 8.97917 74.125 9.32812C74.4219 9.67448 74.5703 10.1576 74.5703 10.7773V11.1094ZM73.8711 10.5625C73.8685 10.1849 73.7773 9.89193 73.5977 9.68359C73.4206 9.47526 73.1758 9.37109 72.8633 9.37109C72.556 9.37109 72.2956 9.47917 72.082 9.69531C71.8711 9.90885 71.7422 10.1979 71.6953 10.5625H73.8711ZM79.5312 13.0977C78.9193 13.0977 78.431 12.9062 78.0664 12.5234C77.7044 12.138 77.5234 11.6276 77.5234 10.9922C77.5234 10.3073 77.7109 9.77214 78.0859 9.38672C78.4609 9.0013 78.9727 8.80729 79.6211 8.80469C80.2357 8.80208 80.7161 8.99089 81.0625 9.37109C81.4115 9.7487 81.5859 10.2682 81.5859 10.9297C81.5859 11.5885 81.3997 12.1146 81.0273 12.5078C80.6549 12.901 80.1562 13.0977 79.5312 13.0977ZM79.5781 12.5195C79.9948 12.5195 80.3138 12.3841 80.5352 12.1133C80.7591 11.8398 80.8711 11.4531 80.8711 10.9531C80.8711 10.4479 80.7591 10.0599 80.5352 9.78906C80.3112 9.51823 79.9922 9.38281 79.5781 9.38281C79.1641 9.38281 78.8359 9.52474 78.5938 9.80859C78.3542 10.0898 78.2344 10.4779 78.2344 10.9727C78.2344 11.4544 78.3555 11.8333 78.5977 12.1094C78.8398 12.3828 79.1667 12.5195 79.5781 12.5195ZM84.0078 13H83.3125V9.48828H82.0703V8.90234H85.25V9.48828H84.0078V13Z" fill="black" fill-opacity="0.8956"/>
<path d="M41.1489 16.6123C41.1489 16.3559 41.2412 16.1508 41.4259 15.9764C41.6105 15.8021 41.8258 15.72 42.0823 15.72C42.3489 15.72 42.5746 15.8123 42.7489 15.9867C42.9233 16.161 43.0156 16.3764 43.0156 16.6123C43.0156 16.8585 42.9233 17.0738 42.7387 17.238C42.5541 17.4123 42.3387 17.4944 42.072 17.4944C41.8053 17.4944 41.59 17.4123 41.4053 17.238C41.2412 17.0636 41.1489 16.8585 41.1489 16.6123ZM42.8412 25.0021H41.313V18.4892H42.8412V25.0021Z" fill="black" fill-opacity="0.8956"/>
<path d="M47.4975 23.8887C47.7231 23.8887 47.9795 23.8375 48.2565 23.7349C48.5334 23.6323 48.7795 23.4887 49.0154 23.3144V24.74C48.7693 24.8836 48.4924 24.9862 48.1847 25.058C47.877 25.1298 47.5282 25.1708 47.159 25.1708C46.2052 25.1708 45.4257 24.8631 44.8205 24.258C44.2154 23.6528 43.918 22.8734 43.918 21.94C43.918 20.8939 44.2257 20.0323 44.8411 19.3554C45.4564 18.6785 46.318 18.34 47.4462 18.34C47.7334 18.34 48.0206 18.3811 48.318 18.4528C48.6154 18.5246 48.8411 18.6169 49.0154 18.7093V20.1759C48.7795 20.0016 48.5334 19.8682 48.2872 19.7759C48.0411 19.6836 47.7847 19.6323 47.5282 19.6323C46.9231 19.6323 46.4411 19.8272 46.0616 20.217C45.6923 20.6067 45.5077 21.14 45.5077 21.8067C45.5077 22.4631 45.6821 22.9759 46.0411 23.3452C46.4 23.7144 46.8821 23.8887 47.4975 23.8887Z" fill="black" fill-opacity="0.8956"/>
<path d="M53.3738 18.39C53.4969 18.39 53.6097 18.4003 53.702 18.4105C53.7943 18.431 53.8866 18.4516 53.9482 18.4721V20.0208C53.8661 19.9592 53.7533 19.908 53.5995 19.8567C53.4456 19.8054 53.261 19.7746 53.0354 19.7746C52.6559 19.7746 52.3379 19.9285 52.0815 20.2464C51.8251 20.5644 51.6918 21.0464 51.6918 21.7131V25.0054H50.1636V18.4926H51.6918V19.5182H51.7123C51.8559 19.1592 52.061 18.8823 52.3482 18.6874C52.6354 18.4926 52.9738 18.39 53.3738 18.39Z" fill="black" fill-opacity="0.8956"/>
<path d="M54.0308 21.8477C54.0308 20.7708 54.3385 19.9195 54.9436 19.2836C55.5487 18.658 56.4 18.34 57.4769 18.34C58.4923 18.34 59.2923 18.6477 59.8667 19.2528C60.441 19.858 60.7282 20.6785 60.7282 21.7041C60.7282 22.7605 60.4205 23.6016 59.8154 24.2272C59.2102 24.8528 58.3795 25.1605 57.3333 25.1605C56.3282 25.1605 55.5179 24.8631 54.9333 24.2682C54.3282 23.6836 54.0308 22.8734 54.0308 21.8477ZM55.6308 21.7964C55.6308 22.4734 55.7846 22.9964 56.0923 23.3554C56.4 23.7144 56.841 23.8887 57.4154 23.8887C57.9692 23.8887 58.4 23.7144 58.6872 23.3554C58.9743 22.9964 59.1282 22.4631 59.1282 21.7554C59.1282 21.058 58.9743 20.5246 58.6769 20.1657C58.3795 19.8067 57.9487 19.6323 57.4051 19.6323C56.841 19.6323 56.4102 19.8169 56.0923 20.1964C55.7846 20.5759 55.6308 21.099 55.6308 21.7964Z" fill="black" fill-opacity="0.8956"/>
<path d="M63.0053 20.2069C63.0053 20.4223 63.0771 20.5967 63.2104 20.7198C63.354 20.8428 63.6617 20.9967 64.1335 21.1916C64.7489 21.4377 65.1796 21.7146 65.4258 22.0223C65.6719 22.33 65.795 22.6993 65.795 23.13C65.795 23.7454 65.5591 24.2377 65.0873 24.607C64.6155 24.9762 63.9796 25.1608 63.1796 25.1608C62.913 25.1608 62.6155 25.13 62.2873 25.0582C61.9591 24.9967 61.6822 24.9044 61.4565 24.8121V23.3044C61.7335 23.4993 62.0309 23.6531 62.3591 23.7659C62.6771 23.8787 62.9745 23.9403 63.2309 23.9403C63.5796 23.9403 63.836 23.889 64.0001 23.7967C64.1642 23.7044 64.2463 23.5403 64.2463 23.3044C64.2463 23.089 64.1642 22.9146 63.9899 22.7711C63.8155 22.6275 63.4976 22.4531 63.0155 22.2685C62.4514 22.0326 62.0514 21.7659 61.8155 21.4685C61.5796 21.171 61.4565 20.7916 61.4565 20.3403C61.4565 19.7557 61.6924 19.2736 62.154 18.8941C62.6155 18.5146 63.2206 18.33 63.9694 18.33C64.195 18.33 64.4514 18.3505 64.7386 18.4018C65.0258 18.4531 65.2617 18.5146 65.4463 18.5967V20.0531C65.2412 19.9198 65.0053 19.8069 64.7386 19.7044C64.4719 19.6121 64.195 19.5608 63.9386 19.5608C63.6514 19.5608 63.4155 19.6223 63.2617 19.7351C63.0873 19.848 63.0053 20.0121 63.0053 20.2069Z" fill="black" fill-opacity="0.8956"/>
<path d="M66.4717 21.8477C66.4717 20.7708 66.7794 19.9195 67.3845 19.2836C67.9896 18.658 68.8409 18.34 69.9178 18.34C70.9332 18.34 71.7332 18.6477 72.3076 19.2528C72.8819 19.858 73.1691 20.6785 73.1691 21.7041C73.1691 22.7605 72.8614 23.6016 72.2563 24.2272C71.6512 24.8528 70.8204 25.1605 69.7742 25.1605C68.7691 25.1605 67.9589 24.8631 67.3742 24.2682C66.7691 23.6836 66.4717 22.8734 66.4717 21.8477ZM68.0614 21.7964C68.0614 22.4734 68.2153 22.9964 68.523 23.3554C68.8307 23.7144 69.2717 23.8887 69.846 23.8887C70.3999 23.8887 70.8307 23.7144 71.1178 23.3554C71.405 22.9964 71.5589 22.4631 71.5589 21.7554C71.5589 21.058 71.405 20.5246 71.1076 20.1657C70.8101 19.8067 70.3794 19.6323 69.8358 19.6323C69.2717 19.6323 68.8409 19.8169 68.523 20.1964C68.2153 20.5759 68.0614 21.099 68.0614 21.7964Z" fill="black" fill-opacity="0.8956"/>
<path d="M78.2258 19.7523V23.0959C78.2258 23.7933 78.3899 24.3062 78.7079 24.6549C79.0258 25.0036 79.5181 25.1677 80.1643 25.1677C80.3797 25.1677 80.6053 25.1472 80.8309 25.0959C81.0566 25.0446 81.2207 25.0036 81.313 24.9421V23.6703C81.2207 23.7318 81.1079 23.7831 80.9848 23.8241C80.8617 23.8651 80.7489 23.8857 80.6668 23.8857C80.3591 23.8857 80.1232 23.8036 79.9797 23.6395C79.8361 23.4754 79.7643 23.1882 79.7643 22.7882V19.7421H81.3232V18.4908H79.7745V16.5626L78.2361 17.0344V18.501H75.9489V17.7113C75.9489 17.3215 76.0309 17.0241 76.2053 16.819C76.3796 16.6139 76.6258 16.5215 76.9438 16.5215C77.1079 16.5215 77.2514 16.5421 77.3848 16.5831C77.5079 16.6241 77.6002 16.6651 77.6514 16.6959V15.3728C77.5386 15.3318 77.4155 15.3113 77.272 15.2908C77.1284 15.2703 76.9643 15.26 76.7797 15.26C76.0822 15.26 75.5079 15.4754 75.0668 15.9164C74.6258 16.3574 74.4002 16.9113 74.4002 17.5985V18.501H73.313V19.7523H74.4002V25.0139H75.9489V19.7523H78.2258V19.7523Z" fill="black" fill-opacity="0.8956"/>
<path d="M39.8359 15.92V25.0072H38.2564V17.8892H38.2359L35.4154 25.0072H34.3692L31.4769 17.8892H31.4564V25.0072H30V15.92H32.2564L34.8718 22.6585H34.9128L37.6718 15.92H39.8359Z" fill="black" fill-opacity="0.8956"/>
<rect x="0.5" y="0.5" width="92" height="31" rx="3.5" stroke="url(#paint0_linear_1602_26757)"/>
<defs>
<linearGradient id="paint0_linear_1602_26757" x1="46.5" y1="1" x2="46.5" y2="31" gradientUnits="userSpaceOnUse">
<stop offset="0.905762" stop-opacity="0.0578"/>
<stop offset="1" stop-opacity="0.1622"/>
</linearGradient>
</defs>
</svg>
