<svg width="116" height="34" viewBox="0 0 116 34" fill="none" xmlns="http://www.w3.org/2000/svg">
<rect x="1" y="1" width="114" height="32" rx="4" fill="#202020"/>
<rect x="0.5" y="0.5" width="115" height="33" rx="4.5" stroke="black" stroke-opacity="0.1"/>
<g clip-path="url(#clip0_974_1726)">
<g clip-path="url(#clip1_974_1726)">
<path d="M8.28125 11C8.28125 10.5858 8.61704 10.25 9.03125 10.25H24.9687C25.383 10.25 25.7188 10.5858 25.7188 11V22.3438C25.7188 24.0524 24.3336 25.4375 22.625 25.4375H11.375C9.66637 25.4375 8.28125 24.0524 8.28125 22.3438V11Z" fill="url(#paint0_linear_974_1726)"/>
<mask id="mask0_974_1726" style="mask-type:alpha" maskUnits="userSpaceOnUse" x="8" y="10" width="18" height="16">
<path d="M8.28125 11C8.28125 10.5858 8.61704 10.25 9.03125 10.25H24.9687C25.383 10.25 25.7188 10.5858 25.7188 11V22.3438C25.7188 24.0524 24.3336 25.4375 22.625 25.4375H11.375C9.66637 25.4375 8.28125 24.0524 8.28125 22.3438V11Z" fill="url(#paint1_linear_974_1726)"/>
</mask>
<g mask="url(#mask0_974_1726)">
<g filter="url(#filter0_dd_974_1726)">
<path d="M12.7812 10.8125V8.5625H21.2187V10.8125" stroke="url(#paint2_linear_974_1726)" stroke-width="1.125" stroke-linecap="round"/>
</g>
</g>
<g filter="url(#filter1_dd_974_1726)">
<path d="M16.719 14.1875H13.344V17.5625H16.719V14.1875Z" fill="#F25022"/>
<path d="M20.6562 14.1875H17.2812V17.5625H20.6562V14.1875Z" fill="#7FBA00"/>
<path d="M20.6562 18.125H17.2812V21.5H20.6562V18.125Z" fill="#FFB900"/>
<path d="M16.7188 18.125H13.3438V21.5H16.7188V18.125Z" fill="#00A4EF"/>
</g>
<path d="M12.7812 10.8125V9.125C12.7812 8.81434 13.0331 8.5625 13.3438 8.5625H20.6563C20.9669 8.5625 21.2188 8.81434 21.2188 9.125V10.8125" stroke="url(#paint3_linear_974_1726)" stroke-width="1.125" stroke-linecap="round"/>
<rect x="13.3438" y="8" width="7.3125" height="1.125" fill="url(#paint4_linear_974_1726)"/>
<mask id="mask1_974_1726" style="mask-type:alpha" maskUnits="userSpaceOnUse" x="13" y="8" width="8" height="2">
<rect x="13.3438" y="8" width="7.3125" height="1.125" fill="url(#paint5_linear_974_1726)"/>
</mask>
<g mask="url(#mask1_974_1726)">
<g filter="url(#filter2_dd_974_1726)">
<rect x="11.7189" y="8.56274" width="1.625" height="2.8125" fill="#C4C4C4"/>
</g>
</g>
</g>
</g>
<path d="M30.2188 12.624L30.499 12.1934C30.6995 12.3232 30.9001 12.4178 31.1006 12.4771C31.3011 12.5363 31.5347 12.5659 31.8013 12.5659C32.0998 12.5659 32.3447 12.4964 32.5361 12.3574C32.7298 12.2161 32.8267 12.0111 32.8267 11.7422C32.8267 11.5029 32.7446 11.3115 32.5806 11.168C32.4188 11.0244 32.1522 10.8854 31.7808 10.751C31.3205 10.5846 30.9787 10.3978 30.7554 10.1904C30.5343 9.98079 30.4238 9.70508 30.4238 9.36328C30.4238 8.96224 30.5674 8.63753 30.8545 8.38916C31.1439 8.14079 31.5233 8.0166 31.9927 8.0166C32.2114 8.0166 32.4256 8.04053 32.6353 8.08838C32.8449 8.13395 33.0614 8.20915 33.2847 8.31396L33.0693 8.77539C32.8825 8.6888 32.7002 8.62614 32.5225 8.5874C32.347 8.54867 32.1567 8.5293 31.9517 8.5293C31.6577 8.5293 31.4253 8.5988 31.2544 8.73779C31.0835 8.87451 30.998 9.06478 30.998 9.30859C30.998 9.52279 31.0767 9.69368 31.2339 9.82129C31.3911 9.94889 31.6532 10.0788 32.02 10.2109C32.5122 10.3887 32.8654 10.5869 33.0796 10.8057C33.2938 11.0244 33.4009 11.3195 33.4009 11.6909C33.4009 12.0874 33.2573 12.4189 32.9702 12.6855C32.6831 12.9499 32.2798 13.082 31.7603 13.082C31.4686 13.082 31.1997 13.0456 30.9536 12.9727C30.7075 12.8997 30.4626 12.7835 30.2188 12.624ZM35.7285 12.959C35.6328 12.9977 35.5382 13.0262 35.4448 13.0444C35.3537 13.0649 35.25 13.0752 35.1338 13.0752C34.8558 13.0752 34.637 12.9943 34.4775 12.8325C34.3203 12.6685 34.2417 12.4269 34.2417 12.1079V9.97852H33.6401V9.5H34.2417V8.64551L34.8022 8.46436V9.5H35.6841V9.97852H34.8022V12.043C34.8022 12.2435 34.8376 12.3882 34.9082 12.4771C34.9811 12.5659 35.0894 12.6104 35.2329 12.6104C35.3013 12.6104 35.3674 12.6024 35.4312 12.5864C35.495 12.5705 35.5485 12.5522 35.5918 12.5317L35.7285 12.959ZM38.9106 13H38.3501V12.4531H38.3364C38.2157 12.6628 38.0664 12.82 37.8887 12.9248C37.7132 13.0296 37.5081 13.082 37.2734 13.082C36.9453 13.082 36.6799 12.9863 36.4771 12.7949C36.2743 12.6035 36.1729 12.3494 36.1729 12.0327C36.1729 11.7342 36.2754 11.487 36.4805 11.291C36.6855 11.0951 36.9761 10.9697 37.3521 10.915L38.3501 10.7817V10.7031C38.3501 10.4092 38.2817 10.2007 38.145 10.0776C38.0083 9.95231 37.826 9.88965 37.5981 9.88965C37.4159 9.88965 37.2404 9.92383 37.0718 9.99219C36.9032 10.0605 36.7448 10.1654 36.5967 10.3066L36.2686 9.96826C36.4645 9.77913 36.673 9.64014 36.894 9.55127C37.1151 9.4624 37.3612 9.41797 37.6323 9.41797C38.0562 9.41797 38.3752 9.52734 38.5894 9.74609C38.8035 9.96257 38.9106 10.2884 38.9106 10.7236V13ZM38.3501 11.5781V11.2295L37.5059 11.3457C37.2484 11.3822 37.0547 11.4471 36.9248 11.5405C36.7949 11.634 36.73 11.7809 36.73 11.9814C36.73 12.1911 36.7904 12.3517 36.9111 12.4634C37.0342 12.5728 37.1834 12.6274 37.3589 12.6274C37.6619 12.6274 37.9023 12.5283 38.0801 12.3301C38.2601 12.1318 38.3501 11.8812 38.3501 11.5781ZM37.6494 8.83691H37.2153L37.9775 7.71582H38.5449L37.6494 8.83691ZM42.8994 13H42.3389V10.9834C42.3389 10.6188 42.2705 10.3454 42.1338 10.1631C41.9993 9.98079 41.7965 9.88965 41.5254 9.88965C41.252 9.88965 41.0218 9.99561 40.835 10.2075C40.6481 10.4172 40.5547 10.6872 40.5547 11.0176V13H39.9941V7.81836H40.5547V10.0811H40.5684C40.7028 9.86003 40.8657 9.69482 41.0571 9.58545C41.2485 9.4738 41.4684 9.41797 41.7168 9.41797C42.111 9.41797 42.4061 9.53646 42.6021 9.77344C42.8003 10.0104 42.8994 10.367 42.8994 10.8433V13ZM46.8643 13H46.3037V11.0039C46.3037 10.6325 46.2354 10.3545 46.0986 10.1699C45.9642 9.98307 45.7614 9.88965 45.4902 9.88965C45.21 9.88965 44.9775 9.99561 44.793 10.2075C44.6107 10.4172 44.5195 10.6826 44.5195 11.0039V13H43.959V9.5H44.5195V10.0811H44.5332C44.6654 9.86003 44.8271 9.69482 45.0186 9.58545C45.21 9.4738 45.431 9.41797 45.6816 9.41797C46.0645 9.41797 46.3573 9.54215 46.5601 9.79053C46.7629 10.0366 46.8643 10.3932 46.8643 10.8604V13ZM50.7368 11.3765H48.2622C48.2713 11.7707 48.375 12.0749 48.5732 12.2891C48.7738 12.501 49.054 12.6069 49.4141 12.6069C49.5713 12.6069 49.7285 12.5841 49.8857 12.5386C50.0452 12.4907 50.2025 12.4155 50.3574 12.313L50.6172 12.7129C50.4189 12.8405 50.2207 12.9339 50.0225 12.9932C49.8242 13.0524 49.6066 13.082 49.3696 13.082C48.841 13.082 48.4285 12.9248 48.1323 12.6104C47.8361 12.2959 47.6868 11.8573 47.6846 11.2944C47.6823 10.7316 47.8304 10.2782 48.1289 9.93408C48.4297 9.59001 48.8193 9.41797 49.2979 9.41797C49.7536 9.41797 50.1068 9.56722 50.3574 9.86572C50.6104 10.1619 50.7368 10.5732 50.7368 11.0996V11.3765ZM50.1626 10.9185C50.1603 10.5949 50.0817 10.3431 49.9268 10.1631C49.7718 9.98079 49.5588 9.88965 49.2876 9.88965C49.021 9.88965 48.7943 9.98307 48.6074 10.1699C48.4229 10.3545 48.3101 10.604 48.269 10.9185H50.1626ZM49.5234 8.83691H49.0723L48.334 7.70898H48.7271L49.2876 8.4917L49.8481 7.70898H50.2549L49.5234 8.83691ZM53.2559 12.959C53.1602 12.9977 53.0656 13.0262 52.9722 13.0444C52.881 13.0649 52.7773 13.0752 52.6611 13.0752C52.3831 13.0752 52.1644 12.9943 52.0049 12.8325C51.8477 12.6685 51.769 12.4269 51.769 12.1079V9.97852H51.1675V9.5H51.769V8.64551L52.3296 8.46436V9.5H53.2114V9.97852H52.3296V12.043C52.3296 12.2435 52.3649 12.3882 52.4355 12.4771C52.5085 12.5659 52.6167 12.6104 52.7603 12.6104C52.8286 12.6104 52.8947 12.6024 52.9585 12.5864C53.0223 12.5705 53.0758 12.5522 53.1191 12.5317L53.2559 12.959ZM56.7729 11.3765H54.2983C54.3075 11.7707 54.4111 12.0749 54.6094 12.2891C54.8099 12.501 55.0902 12.6069 55.4502 12.6069C55.6074 12.6069 55.7646 12.5841 55.9219 12.5386C56.0814 12.4907 56.2386 12.4155 56.3936 12.313L56.6533 12.7129C56.4551 12.8405 56.2568 12.9339 56.0586 12.9932C55.8604 13.0524 55.6427 13.082 55.4058 13.082C54.8771 13.082 54.4647 12.9248 54.1685 12.6104C53.8722 12.2959 53.723 11.8573 53.7207 11.2944C53.7184 10.7316 53.8665 10.2782 54.165 9.93408C54.4658 9.59001 54.8555 9.41797 55.334 9.41797C55.7897 9.41797 56.1429 9.56722 56.3936 9.86572C56.6465 10.1619 56.7729 10.5732 56.7729 11.0996V11.3765ZM56.1987 10.9185C56.1965 10.5949 56.1178 10.3431 55.9629 10.1631C55.8079 9.98079 55.5949 9.88965 55.3237 9.88965C55.0571 9.88965 54.8304 9.98307 54.6436 10.1699C54.459 10.3545 54.3462 10.604 54.3052 10.9185H56.1987ZM59.2168 12.7368L59.4834 12.3062C59.6361 12.4064 59.7853 12.4827 59.9312 12.5352C60.077 12.5853 60.2342 12.6104 60.4028 12.6104C60.6421 12.6104 60.8232 12.5659 60.9463 12.4771C61.0716 12.3882 61.1343 12.2549 61.1343 12.0771C61.1343 11.9336 61.0785 11.8128 60.9668 11.7148C60.8574 11.6146 60.6854 11.5348 60.4507 11.4756C60.0132 11.3639 59.7135 11.2238 59.5518 11.0552C59.39 10.8843 59.3091 10.6746 59.3091 10.4263C59.3091 10.1392 59.4173 9.8999 59.6338 9.7085C59.8503 9.51481 60.1522 9.41797 60.5396 9.41797C60.7264 9.41797 60.9041 9.44189 61.0728 9.48975C61.2414 9.5376 61.4134 9.61963 61.5889 9.73584L61.3394 10.1597C61.1799 10.0594 61.0363 9.98991 60.9087 9.95117C60.7834 9.91016 60.6558 9.88965 60.5259 9.88965C60.3003 9.88965 60.1283 9.9318 60.0098 10.0161C59.8913 10.0981 59.832 10.2178 59.832 10.375C59.832 10.5322 59.8924 10.6507 60.0132 10.7305C60.1362 10.8102 60.3333 10.8854 60.6045 10.9561C60.96 11.0518 61.2254 11.1862 61.4009 11.3594C61.5786 11.5303 61.6675 11.7547 61.6675 12.0327C61.6675 12.3563 61.5524 12.6126 61.3223 12.8018C61.0944 12.9886 60.7811 13.082 60.3823 13.082C60.1681 13.082 59.9619 13.0524 59.7637 12.9932C59.5677 12.9339 59.3854 12.8485 59.2168 12.7368ZM62.8057 8.6626C62.6917 8.6626 62.596 8.625 62.5186 8.5498C62.4411 8.47233 62.4023 8.37777 62.4023 8.26611C62.4023 8.15446 62.4411 8.06104 62.5186 7.98584C62.596 7.90837 62.6917 7.86963 62.8057 7.86963C62.9196 7.86963 63.0153 7.90837 63.0928 7.98584C63.1702 8.06104 63.209 8.15446 63.209 8.26611C63.209 8.37777 63.1702 8.47233 63.0928 8.5498C63.0153 8.625 62.9196 8.6626 62.8057 8.6626ZM63.0791 13H62.5186V9.5H63.0791V13ZM68.5752 9.66064L66.5039 12.5215H68.5547V13H65.6802V12.8257L67.7515 9.97852H65.875V9.5H68.5752V9.66064ZM72.6836 13.082C72.1663 13.082 71.7528 12.9191 71.4429 12.5933C71.1353 12.2651 70.9814 11.8311 70.9814 11.291C70.9814 10.7054 71.141 10.2474 71.46 9.91699C71.779 9.58659 72.2142 9.42025 72.7656 9.41797C73.2874 9.41569 73.6942 9.57633 73.9858 9.8999C74.2798 10.2235 74.4268 10.6689 74.4268 11.2363C74.4268 11.7969 74.2684 12.2446 73.9517 12.5796C73.6372 12.9146 73.2145 13.082 72.6836 13.082ZM72.7246 12.6104C73.0869 12.6104 73.3649 12.493 73.5586 12.2583C73.7546 12.0213 73.8525 11.6875 73.8525 11.2568C73.8525 10.8171 73.7546 10.4798 73.5586 10.2451C73.3626 10.0081 73.0846 9.88965 72.7246 9.88965C72.3646 9.88965 72.0798 10.0127 71.8701 10.2588C71.6605 10.5049 71.5557 10.8421 71.5557 11.2705C71.5557 11.6852 71.6616 12.0122 71.8735 12.2515C72.0854 12.4907 72.3691 12.6104 72.7246 12.6104ZM75.8965 12.5488H75.8828V13H75.3223V7.81836H75.8828V10.1152H75.8965C76.0355 9.88281 76.2052 9.7085 76.4058 9.59229C76.6086 9.47607 76.8421 9.41797 77.1064 9.41797C77.5553 9.41797 77.9062 9.5752 78.1592 9.88965C78.4144 10.2018 78.542 10.6211 78.542 11.1475C78.542 11.7331 78.3996 12.2025 78.1147 12.5557C77.8299 12.9066 77.4403 13.082 76.9458 13.082C76.7157 13.082 76.5129 13.0376 76.3374 12.9487C76.1619 12.8599 76.015 12.7266 75.8965 12.5488ZM75.8828 11.0825V11.5713C75.8828 11.8607 75.9762 12.1068 76.1631 12.3096C76.3522 12.5101 76.5915 12.6104 76.8809 12.6104C77.2204 12.6104 77.4858 12.4805 77.6772 12.2207C77.8709 11.9609 77.9678 11.5998 77.9678 11.1372C77.9678 10.7476 77.8778 10.4422 77.6978 10.2212C77.5177 10.0002 77.2739 9.88965 76.9663 9.88965C76.6405 9.88965 76.3784 10.0036 76.1802 10.2314C75.9819 10.457 75.8828 10.7407 75.8828 11.0825ZM81.8984 12.7915C81.7367 12.8918 81.5749 12.9647 81.4131 13.0103C81.2513 13.0581 81.0747 13.082 80.8833 13.082C80.3911 13.082 79.9867 12.9294 79.6699 12.624C79.3555 12.3187 79.1982 11.8857 79.1982 11.3252C79.1982 10.7555 79.3566 10.2952 79.6733 9.94434C79.9924 9.59342 80.4299 9.41797 80.9858 9.41797C81.1659 9.41797 81.3368 9.43962 81.4985 9.48291C81.6626 9.5262 81.8278 9.59684 81.9941 9.69482L81.7583 10.105C81.6284 10.0321 81.5008 9.97852 81.3755 9.94434C81.2502 9.91016 81.1134 9.89307 80.9653 9.89307C80.5802 9.89307 80.2852 10.0218 80.0801 10.2793C79.875 10.5368 79.7725 10.8638 79.7725 11.2603C79.7725 11.6978 79.8796 12.0316 80.0938 12.2617C80.3102 12.4919 80.5894 12.6069 80.9312 12.6069C81.0428 12.6069 81.159 12.5898 81.2798 12.5557C81.4028 12.5192 81.5259 12.4634 81.6489 12.3882L81.8984 12.7915ZM85.5762 13H85.0156V10.9834C85.0156 10.6188 84.9473 10.3454 84.8105 10.1631C84.6761 9.98079 84.4733 9.88965 84.2021 9.88965C83.9287 9.88965 83.6986 9.99561 83.5117 10.2075C83.3249 10.4172 83.2314 10.6872 83.2314 11.0176V13H82.6709V7.81836H83.2314V10.0811H83.2451C83.3796 9.86003 83.5425 9.69482 83.7339 9.58545C83.9253 9.4738 84.1452 9.41797 84.3936 9.41797C84.7878 9.41797 85.0828 9.53646 85.2788 9.77344C85.4771 10.0104 85.5762 10.367 85.5762 10.8433V13ZM88.0986 13.082C87.5814 13.082 87.1678 12.9191 86.8579 12.5933C86.5503 12.2651 86.3965 11.8311 86.3965 11.291C86.3965 10.7054 86.556 10.2474 86.875 9.91699C87.194 9.58659 87.6292 9.42025 88.1807 9.41797C88.7025 9.41569 89.1092 9.57633 89.4009 9.8999C89.6948 10.2235 89.8418 10.6689 89.8418 11.2363C89.8418 11.7969 89.6834 12.2446 89.3667 12.5796C89.0522 12.9146 88.6296 13.082 88.0986 13.082ZM88.1396 12.6104C88.502 12.6104 88.7799 12.493 88.9736 12.2583C89.1696 12.0213 89.2676 11.6875 89.2676 11.2568C89.2676 10.8171 89.1696 10.4798 88.9736 10.2451C88.7777 10.0081 88.4997 9.88965 88.1396 9.88965C87.7796 9.88965 87.4948 10.0127 87.2852 10.2588C87.0755 10.5049 86.9707 10.8421 86.9707 11.2705C86.9707 11.6852 87.0767 12.0122 87.2886 12.2515C87.5005 12.4907 87.7842 12.6104 88.1396 12.6104ZM93.1504 12.4053C93.0205 12.6309 92.8553 12.8006 92.6548 12.9146C92.4565 13.0262 92.2207 13.082 91.9473 13.082C91.5075 13.082 91.1554 12.9259 90.8911 12.6138C90.6291 12.2993 90.498 11.8721 90.498 11.332C90.498 10.7533 90.6439 10.2896 90.9355 9.94092C91.2272 9.59229 91.6157 9.41797 92.1011 9.41797C92.3426 9.41797 92.55 9.46582 92.7231 9.56152C92.8986 9.65495 93.041 9.79622 93.1504 9.98535H93.1641V7.81836H93.7246V13H93.1641V12.4053H93.1504ZM91.0723 11.3047C91.0723 11.708 91.1657 12.027 91.3525 12.2617C91.5417 12.4941 91.7946 12.6104 92.1113 12.6104C92.4258 12.6104 92.6799 12.4976 92.8735 12.272C93.0672 12.0464 93.1641 11.7616 93.1641 11.4175V10.9014C93.1641 10.6188 93.0695 10.3796 92.8804 10.1836C92.6935 9.98763 92.4577 9.88965 92.1729 9.88965C91.8311 9.88965 91.5622 10.015 91.3662 10.2656C91.1702 10.5163 91.0723 10.8626 91.0723 11.3047ZM97.6895 13H97.1289V12.4463H97.1152C96.999 12.6582 96.8509 12.8177 96.6709 12.9248C96.4909 13.0296 96.279 13.082 96.0352 13.082C95.6182 13.082 95.3049 12.9578 95.0952 12.7095C94.8879 12.4611 94.7842 12.0885 94.7842 11.5918V9.5H95.3413V11.5029C95.3413 11.8721 95.4119 12.1489 95.5532 12.3335C95.6945 12.5181 95.9064 12.6104 96.189 12.6104C96.4624 12.6104 96.6868 12.5101 96.8623 12.3096C97.04 12.1068 97.1289 11.8424 97.1289 11.5166V9.5H97.6895V13Z" fill="white" fill-opacity="0.786"/>
<path d="M39.2275 25H37.96V20.0854C37.96 19.8634 37.9653 19.6217 37.9761 19.3604C37.9904 19.0954 38.0083 18.8143 38.0298 18.5171H37.9976C37.9546 18.7212 37.9134 18.8966 37.874 19.0435C37.8382 19.1867 37.8024 19.3013 37.7666 19.3872L35.5054 25H34.6245L32.3525 19.4355C32.3239 19.3568 32.2881 19.2404 32.2451 19.0864C32.2057 18.9325 32.1628 18.7427 32.1162 18.5171H32.084C32.1055 18.7749 32.1198 19.0488 32.127 19.3389C32.1341 19.6253 32.1377 19.9279 32.1377 20.2466V25H30.9561V17.2979H32.7607L34.7642 22.3037C34.8429 22.4935 34.9074 22.6689 34.9575 22.8301C35.0112 22.9876 35.0524 23.1344 35.0811 23.2705H35.1133C35.1777 23.0664 35.2386 22.882 35.2959 22.7173C35.3532 22.5526 35.4069 22.4093 35.457 22.2876L37.4873 17.2979H39.2275V25ZM41.6177 18.4365C41.3885 18.4365 41.1987 18.3631 41.0483 18.2163C40.8979 18.0695 40.8228 17.8887 40.8228 17.6738C40.8228 17.4518 40.8979 17.2692 41.0483 17.126C41.1987 16.9827 41.3885 16.9111 41.6177 16.9111C41.8504 16.9111 42.042 16.9827 42.1924 17.126C42.3428 17.2692 42.418 17.4518 42.418 17.6738C42.418 17.8923 42.3428 18.0749 42.1924 18.2217C42.042 18.3649 41.8504 18.4365 41.6177 18.4365ZM42.2354 25H40.9839V19.5H42.2354V25ZM47.9824 24.6616C47.7103 24.8263 47.4399 24.9445 47.1714 25.0161C46.9028 25.0913 46.611 25.1289 46.2959 25.1289C45.4508 25.1289 44.7741 24.8818 44.2656 24.3877C43.7607 23.8936 43.5083 23.2222 43.5083 22.3735C43.5083 21.4604 43.7697 20.7318 44.2925 20.1875C44.8188 19.6432 45.5278 19.3711 46.4194 19.3711C46.731 19.3711 47.0138 19.4051 47.2681 19.4731C47.5259 19.5376 47.7873 19.645 48.0522 19.7954L47.5635 20.6655C47.3773 20.5617 47.1947 20.4865 47.0156 20.4399C46.8366 20.3898 46.6414 20.3647 46.4302 20.3647C45.9038 20.3647 45.4974 20.5384 45.2109 20.8857C44.9245 21.2331 44.7812 21.6932 44.7812 22.2661C44.7812 22.8677 44.9352 23.3296 45.2432 23.6519C45.5547 23.9741 45.945 24.1353 46.4141 24.1353C46.5573 24.1353 46.722 24.1102 46.9082 24.0601C47.0944 24.0063 47.2824 23.9222 47.4722 23.8076L47.9824 24.6616ZM52.1021 20.5474C52.034 20.5295 51.9678 20.5169 51.9033 20.5098C51.8424 20.499 51.7708 20.4937 51.6885 20.4937C51.2409 20.4937 50.8971 20.6584 50.6572 20.9878C50.4173 21.3172 50.2974 21.7469 50.2974 22.2769V25H49.0459V19.5H50.2974V20.5581H50.3188C50.4478 20.1785 50.6375 19.8921 50.8882 19.6987C51.1388 19.5018 51.4342 19.4033 51.7744 19.4033C51.8711 19.4033 51.957 19.4087 52.0322 19.4194C52.111 19.4302 52.1862 19.4463 52.2578 19.4678L52.1021 20.5474ZM55.5557 25.1289C54.6963 25.1289 54.0142 24.8729 53.5093 24.3608C53.008 23.8452 52.7573 23.1559 52.7573 22.293C52.7609 21.3799 53.0223 20.6655 53.5415 20.1499C54.0607 19.6307 54.7679 19.3711 55.6631 19.3711C56.526 19.3675 57.1992 19.6217 57.6826 20.1338C58.1696 20.6423 58.4131 21.3315 58.4131 22.2017C58.4131 23.0968 58.1553 23.8094 57.6396 24.3394C57.1276 24.8657 56.4329 25.1289 55.5557 25.1289ZM55.6147 24.1353C56.1125 24.1353 56.4902 23.9723 56.748 23.6465C57.0094 23.3206 57.1401 22.8498 57.1401 22.2339C57.1401 21.6252 57.0094 21.1615 56.748 20.8428C56.4867 20.5241 56.1071 20.3647 55.6094 20.3647C55.1188 20.3647 54.7321 20.533 54.4492 20.8696C54.1699 21.2062 54.0303 21.6717 54.0303 22.2661C54.0303 22.8641 54.1699 23.326 54.4492 23.6519C54.7285 23.9741 55.117 24.1353 55.6147 24.1353ZM59.1543 24.5596L59.6968 23.6787C59.9116 23.8291 60.139 23.9508 60.3789 24.0439C60.6224 24.1335 60.8856 24.1782 61.1685 24.1782C61.4764 24.1782 61.7145 24.1227 61.8828 24.0117C62.0547 23.8971 62.1406 23.7271 62.1406 23.5015C62.1406 23.3224 62.069 23.1738 61.9258 23.0557C61.7861 22.9339 61.5462 22.8337 61.2061 22.7549C60.5186 22.5938 60.0352 22.3807 59.7559 22.1157C59.4801 21.8507 59.3423 21.5016 59.3423 21.0684C59.3423 20.5706 59.5356 20.1642 59.9224 19.8491C60.3091 19.5304 60.8158 19.3711 61.4424 19.3711C61.7539 19.3711 62.0511 19.4123 62.334 19.4946C62.6169 19.5734 62.8926 19.7005 63.1611 19.876L62.6562 20.7354C62.4199 20.585 62.2033 20.4775 62.0063 20.4131C61.8094 20.3486 61.6071 20.3164 61.3994 20.3164C61.1058 20.3164 60.8766 20.3719 60.7119 20.4829C60.5508 20.5903 60.4702 20.7407 60.4702 20.9341C60.4702 21.1382 60.5526 21.2904 60.7173 21.3906C60.8856 21.4873 61.1667 21.5822 61.5605 21.6753C62.1549 21.8185 62.59 22.0262 62.8657 22.2983C63.1414 22.5669 63.2793 22.9268 63.2793 23.3779C63.2793 23.9115 63.0841 24.3376 62.6938 24.6562C62.3071 24.9714 61.7826 25.1289 61.1201 25.1289C60.762 25.1289 60.4183 25.0824 60.0889 24.9893C59.763 24.8926 59.4515 24.7493 59.1543 24.5596ZM66.8779 25.1289C66.0186 25.1289 65.3364 24.8729 64.8315 24.3608C64.3302 23.8452 64.0796 23.1559 64.0796 22.293C64.0832 21.3799 64.3446 20.6655 64.8638 20.1499C65.383 19.6307 66.0902 19.3711 66.9854 19.3711C67.8483 19.3675 68.5215 19.6217 69.0049 20.1338C69.4919 20.6423 69.7354 21.3315 69.7354 22.2017C69.7354 23.0968 69.4775 23.8094 68.9619 24.3394C68.4499 24.8657 67.7552 25.1289 66.8779 25.1289ZM66.937 24.1353C67.4347 24.1353 67.8125 23.9723 68.0703 23.6465C68.3317 23.3206 68.4624 22.8498 68.4624 22.2339C68.4624 21.6252 68.3317 21.1615 68.0703 20.8428C67.8089 20.5241 67.4294 20.3647 66.9316 20.3647C66.4411 20.3647 66.0544 20.533 65.7715 20.8696C65.4922 21.2062 65.3525 21.6717 65.3525 22.2661C65.3525 22.8641 65.4922 23.326 65.7715 23.6519C66.0508 23.9741 66.4393 24.1353 66.937 24.1353ZM73.9839 17.8403C73.8836 17.8009 73.7923 17.7741 73.71 17.7598C73.6276 17.7419 73.5381 17.7329 73.4414 17.7329C73.1764 17.7329 72.9759 17.8099 72.8398 17.9639C72.7074 18.1143 72.6411 18.3327 72.6411 18.6191V19.5H73.9141V20.4775H72.6411V25H71.395V20.4775H70.4604V19.5H71.395V18.5547C71.395 17.9961 71.5741 17.5539 71.9321 17.228C72.2938 16.8986 72.7718 16.7339 73.3662 16.7339C73.5524 16.7339 73.7135 16.7464 73.8496 16.7715C73.9857 16.7965 74.1271 16.8324 74.2739 16.8789L73.9839 17.8403ZM77.7974 24.9248C77.6362 24.9928 77.4679 25.043 77.2925 25.0752C77.117 25.1074 76.929 25.1235 76.7285 25.1235C76.2201 25.1235 75.828 24.9893 75.5522 24.7207C75.2801 24.4486 75.144 24.0439 75.144 23.5068V20.4775H74.2202V19.5H75.144V18.1626L76.3901 17.7866V19.5H77.7061V20.4775H76.3901V23.4048C76.3901 23.6733 76.4385 23.8667 76.5352 23.9849C76.6354 24.103 76.7894 24.1621 76.9971 24.1621C77.0973 24.1621 77.1922 24.1514 77.2817 24.1299C77.3748 24.1048 77.4572 24.0744 77.5288 24.0386L77.7974 24.9248ZM81.2939 24.4468L81.8633 23.4639C82.2106 23.6787 82.5347 23.8309 82.8354 23.9204C83.1362 24.0063 83.4728 24.0493 83.8452 24.0493C84.2892 24.0493 84.6383 23.9544 84.8926 23.7646C85.1504 23.5713 85.2793 23.2956 85.2793 22.9375C85.2793 22.6117 85.1719 22.3556 84.957 22.1694C84.7458 21.9797 84.3859 21.806 83.8774 21.6484C83.0933 21.4157 82.5168 21.1274 82.1479 20.7837C81.7791 20.4399 81.5947 19.9744 81.5947 19.3872C81.5947 18.7498 81.8328 18.2217 82.3091 17.8027C82.7853 17.3802 83.4316 17.1689 84.248 17.1689C84.6061 17.1689 84.9588 17.2083 85.3062 17.2871C85.6535 17.3659 85.9972 17.4876 86.3374 17.6523L85.8594 18.6729C85.5622 18.5189 85.2775 18.4097 85.0054 18.3452C84.7368 18.2808 84.4629 18.2485 84.1836 18.2485C83.7754 18.2485 83.4531 18.3381 83.2168 18.5171C82.984 18.6961 82.8677 18.9486 82.8677 19.2744C82.8677 19.5645 82.9751 19.7936 83.1899 19.9619C83.4048 20.1266 83.7736 20.2896 84.2964 20.4507C85.0985 20.6906 85.675 20.9896 86.0259 21.3477C86.3804 21.7057 86.5576 22.1981 86.5576 22.8247C86.5576 23.4979 86.3177 24.0511 85.8379 24.4844C85.3581 24.9141 84.6742 25.1289 83.7861 25.1289C83.3421 25.1289 82.9089 25.0734 82.4863 24.9624C82.0638 24.8478 81.6663 24.6759 81.2939 24.4468ZM90.4409 24.9248C90.2798 24.9928 90.1115 25.043 89.936 25.0752C89.7606 25.1074 89.5726 25.1235 89.3721 25.1235C88.8636 25.1235 88.4715 24.9893 88.1958 24.7207C87.9237 24.4486 87.7876 24.0439 87.7876 23.5068V20.4775H86.8638V19.5H87.7876V18.1626L89.0337 17.7866V19.5H90.3496V20.4775H89.0337V23.4048C89.0337 23.6733 89.082 23.8667 89.1787 23.9849C89.279 24.103 89.4329 24.1621 89.6406 24.1621C89.7409 24.1621 89.8358 24.1514 89.9253 24.1299C90.0184 24.1048 90.1007 24.0744 90.1724 24.0386L90.4409 24.9248ZM93.8623 25.1289C93.0029 25.1289 92.3208 24.8729 91.8159 24.3608C91.3146 23.8452 91.064 23.1559 91.064 22.293C91.0675 21.3799 91.3289 20.6655 91.8481 20.1499C92.3674 19.6307 93.0745 19.3711 93.9697 19.3711C94.8327 19.3675 95.5059 19.6217 95.9893 20.1338C96.4762 20.6423 96.7197 21.3315 96.7197 22.2017C96.7197 23.0968 96.4619 23.8094 95.9463 24.3394C95.4342 24.8657 94.7396 25.1289 93.8623 25.1289ZM93.9214 24.1353C94.4191 24.1353 94.7969 23.9723 95.0547 23.6465C95.3161 23.3206 95.4468 22.8498 95.4468 22.2339C95.4468 21.6252 95.3161 21.1615 95.0547 20.8428C94.7933 20.5241 94.4137 20.3647 93.916 20.3647C93.4255 20.3647 93.0387 20.533 92.7559 20.8696C92.4766 21.2062 92.3369 21.6717 92.3369 22.2661C92.3369 22.8641 92.4766 23.326 92.7559 23.6519C93.0352 23.9741 93.4237 24.1353 93.9214 24.1353ZM101.054 20.5474C100.986 20.5295 100.92 20.5169 100.855 20.5098C100.795 20.499 100.723 20.4937 100.641 20.4937C100.193 20.4937 99.8493 20.6584 99.6094 20.9878C99.3695 21.3172 99.2495 21.7469 99.2495 22.2769V25H97.998V19.5H99.2495V20.5581H99.271C99.3999 20.1785 99.5897 19.8921 99.8403 19.6987C100.091 19.5018 100.386 19.4033 100.727 19.4033C100.823 19.4033 100.909 19.4087 100.984 19.4194C101.063 19.4302 101.138 19.4463 101.21 19.4678L101.054 20.5474ZM106.721 22.5776H102.966C102.988 23.0968 103.138 23.4925 103.417 23.7646C103.697 24.0332 104.087 24.1675 104.588 24.1675C104.792 24.1675 105.025 24.1263 105.287 24.0439C105.548 23.9616 105.806 23.8291 106.06 23.6465L106.624 24.4253C106.284 24.6724 105.938 24.8514 105.587 24.9624C105.236 25.0734 104.85 25.1289 104.427 25.1289C103.571 25.1289 102.905 24.8836 102.429 24.3931C101.953 23.8989 101.713 23.2096 101.709 22.3252C101.709 21.4443 101.955 20.7318 102.445 20.1875C102.939 19.6432 103.571 19.3711 104.341 19.3711C105.079 19.3711 105.659 19.6038 106.082 20.0693C106.508 20.5312 106.721 21.1865 106.721 22.0352V22.5776ZM105.512 21.7129C105.512 21.2402 105.408 20.8857 105.201 20.6494C104.997 20.4095 104.707 20.2896 104.331 20.2896C103.976 20.2896 103.674 20.4185 103.423 20.6763C103.176 20.9305 103.024 21.276 102.966 21.7129H105.512Z" fill="white"/>
<defs>
<filter id="filter0_dd_974_1726" x="11.0938" y="7.25" width="11.8125" height="5.625" filterUnits="userSpaceOnUse" color-interpolation-filters="sRGB">
<feFlood flood-opacity="0" result="BackgroundImageFix"/>
<feColorMatrix in="SourceAlpha" type="matrix" values="0 0 0 0 0 0 0 0 0 0 0 0 0 0 0 0 0 0 127 0" result="hardAlpha"/>
<feOffset dy="0.1875"/>
<feGaussianBlur stdDeviation="0.1875"/>
<feColorMatrix type="matrix" values="0 0 0 0 0 0 0 0 0 0 0 0 0 0 0 0 0 0 0.1 0"/>
<feBlend mode="normal" in2="BackgroundImageFix" result="effect1_dropShadow_974_1726"/>
<feColorMatrix in="SourceAlpha" type="matrix" values="0 0 0 0 0 0 0 0 0 0 0 0 0 0 0 0 0 0 127 0" result="hardAlpha"/>
<feOffset dy="0.375"/>
<feGaussianBlur stdDeviation="0.5625"/>
<feColorMatrix type="matrix" values="0 0 0 0 0 0 0 0 0 0 0 0 0 0 0 0 0 0 0.2 0"/>
<feBlend mode="normal" in2="effect1_dropShadow_974_1726" result="effect2_dropShadow_974_1726"/>
<feBlend mode="normal" in="SourceGraphic" in2="effect2_dropShadow_974_1726" result="shape"/>
</filter>
<filter id="filter1_dd_974_1726" x="12.2188" y="13.4375" width="9.5625" height="9.5625" filterUnits="userSpaceOnUse" color-interpolation-filters="sRGB">
<feFlood flood-opacity="0" result="BackgroundImageFix"/>
<feColorMatrix in="SourceAlpha" type="matrix" values="0 0 0 0 0 0 0 0 0 0 0 0 0 0 0 0 0 0 127 0" result="hardAlpha"/>
<feOffset dy="0.1875"/>
<feGaussianBlur stdDeviation="0.1875"/>
<feColorMatrix type="matrix" values="0 0 0 0 1 0 0 0 0 1 0 0 0 0 1 0 0 0 0.6 0"/>
<feBlend mode="normal" in2="BackgroundImageFix" result="effect1_dropShadow_974_1726"/>
<feColorMatrix in="SourceAlpha" type="matrix" values="0 0 0 0 0 0 0 0 0 0 0 0 0 0 0 0 0 0 127 0" result="hardAlpha"/>
<feOffset dy="0.375"/>
<feGaussianBlur stdDeviation="0.5625"/>
<feColorMatrix type="matrix" values="0 0 0 0 1 0 0 0 0 1 0 0 0 0 1 0 0 0 0.6 0"/>
<feBlend mode="normal" in2="effect1_dropShadow_974_1726" result="effect2_dropShadow_974_1726"/>
<feBlend mode="normal" in="SourceGraphic" in2="effect2_dropShadow_974_1726" result="shape"/>
</filter>
<filter id="filter2_dd_974_1726" x="10.5939" y="6.6875" width="12.8124" height="5.06274" filterUnits="userSpaceOnUse" color-interpolation-filters="sRGB">
<feFlood flood-opacity="0" result="BackgroundImageFix"/>
<feColorMatrix in="SourceAlpha" type="matrix" values="0 0 0 0 0 0 0 0 0 0 0 0 0 0 0 0 0 0 127 0" result="hardAlpha"/>
<feOffset dy="-0.75"/>
<feGaussianBlur stdDeviation="0.1875"/>
<feColorMatrix type="matrix" values="0 0 0 0 0 0 0 0 0 0 0 0 0 0 0 0 0 0 0.1 0"/>
<feBlend mode="normal" in2="BackgroundImageFix" result="effect1_dropShadow_974_1726"/>
<feColorMatrix in="SourceAlpha" type="matrix" values="0 0 0 0 0 0 0 0 0 0 0 0 0 0 0 0 0 0 127 0" result="hardAlpha"/>
<feOffset dy="-0.75"/>
<feGaussianBlur stdDeviation="0.5625"/>
<feColorMatrix type="matrix" values="0 0 0 0 0 0 0 0 0 0 0 0 0 0 0 0 0 0 0.2 0"/>
<feBlend mode="normal" in2="effect1_dropShadow_974_1726" result="effect2_dropShadow_974_1726"/>
<feBlend mode="normal" in="SourceGraphic" in2="effect2_dropShadow_974_1726" result="shape"/>
</filter>
<linearGradient id="paint0_linear_974_1726" x1="12.2443" y1="8.00639" x2="15.9039" y2="24.8132" gradientUnits="userSpaceOnUse">
<stop offset="0.270833" stop-color="white"/>
<stop offset="1" stop-color="#DFDFDF"/>
</linearGradient>
<linearGradient id="paint1_linear_974_1726" x1="17" y1="10.25" x2="20.3514" y2="25.9624" gradientUnits="userSpaceOnUse">
<stop stop-color="#0078D4"/>
<stop offset="1" stop-color="#114A8B"/>
</linearGradient>
<linearGradient id="paint2_linear_974_1726" x1="17" y1="8.5625" x2="17.1583" y2="10.9858" gradientUnits="userSpaceOnUse">
<stop stop-color="#28AFEA"/>
<stop offset="1" stop-color="#0078D4"/>
</linearGradient>
<linearGradient id="paint3_linear_974_1726" x1="17" y1="8.5625" x2="17.1583" y2="10.9858" gradientUnits="userSpaceOnUse">
<stop stop-color="#30DAFF"/>
<stop offset="1" stop-color="#0094D4"/>
</linearGradient>
<linearGradient id="paint4_linear_974_1726" x1="16.5938" y1="8" x2="16.5937" y2="9.125" gradientUnits="userSpaceOnUse">
<stop stop-color="#22BCFF"/>
<stop offset="1" stop-color="#0088F0"/>
</linearGradient>
<linearGradient id="paint5_linear_974_1726" x1="16.5938" y1="8" x2="16.5937" y2="9.125" gradientUnits="userSpaceOnUse">
<stop stop-color="#28AFEA"/>
<stop offset="1" stop-color="#3CCBF4"/>
</linearGradient>
<clipPath id="clip0_974_1726">
<rect width="18" height="18" fill="white" transform="translate(8 8)"/>
</clipPath>
<clipPath id="clip1_974_1726">
<rect width="18" height="18" fill="white" transform="translate(8 8)"/>
</clipPath>
</defs>
</svg>
