<svg width="90" height="32" viewBox="0 0 90 32" fill="none" xmlns="http://www.w3.org/2000/svg">
<rect x="0.5" y="0.5" width="89" height="31" rx="3.5" fill="white"/>
<path d="M15.5559 7H7V15.5608H15.5559V7Z" fill="#F25022"/>
<path d="M25.0001 7H16.4442V15.5608H25.0001V7Z" fill="#7FBA00"/>
<path d="M15.5559 16.4395H7V25.0002H15.5559V16.4395Z" fill="#00A4EF"/>
<path d="M25.0002 16.4395H16.4443V25.0002H25.0002V16.4395Z" fill="#FFB900"/>
<path d="M33.7344 12.7148C33.4635 12.8477 33.1979 12.944 32.9375 13.0039C32.6771 13.0638 32.3945 13.0938 32.0898 13.0938C31.2409 13.0938 30.5794 12.8385 30.1055 12.3281C29.6341 11.8177 29.3984 11.1419 29.3984 10.3008C29.3984 9.39193 29.6615 8.66536 30.1875 8.12109C30.7161 7.57682 31.4036 7.30469 32.25 7.30469C32.5208 7.30469 32.7734 7.32943 33.0078 7.37891C33.2422 7.42839 33.4805 7.50781 33.7227 7.61719L33.4609 8.20312C33.2604 8.11198 33.0638 8.04688 32.8711 8.00781C32.6784 7.96615 32.4714 7.94531 32.25 7.94531C31.612 7.94531 31.1016 8.15234 30.7188 8.56641C30.3385 8.98047 30.1484 9.54427 30.1484 10.2578C30.1484 10.9323 30.3294 11.4674 30.6914 11.8633C31.0534 12.2591 31.5378 12.457 32.1445 12.457C32.3659 12.457 32.5833 12.4323 32.7969 12.3828C33.013 12.3307 33.2305 12.2487 33.4492 12.1367L33.7344 12.7148ZM37.6875 13H36.9961V12.3555H36.9805C36.8398 12.6003 36.6654 12.7852 36.457 12.9102C36.2487 13.0352 36.0065 13.0977 35.7305 13.0977C35.3451 13.0977 35.0339 12.9857 34.7969 12.7617C34.5599 12.5378 34.4414 12.2422 34.4414 11.875C34.4414 11.5182 34.5612 11.2253 34.8008 10.9961C35.0404 10.7669 35.3854 10.6198 35.8359 10.5547L37 10.3984V10.3047C37 9.97396 36.9206 9.73568 36.7617 9.58984C36.6055 9.44401 36.3945 9.37109 36.1289 9.37109C35.918 9.37109 35.7122 9.41146 35.5117 9.49219C35.3112 9.57292 35.1211 9.69401 34.9414 9.85547L34.5625 9.43359C34.7943 9.22005 35.0417 9.0625 35.3047 8.96094C35.5703 8.85677 35.8607 8.80469 36.1758 8.80469C36.6758 8.80469 37.0521 8.93359 37.3047 9.19141C37.5599 9.44922 37.6875 9.83594 37.6875 10.3516V13ZM37 11.3281V10.9336L36.0234 11.0664C35.724 11.1081 35.5 11.1836 35.3516 11.293C35.2031 11.4023 35.1289 11.5742 35.1289 11.8086C35.1289 12.0404 35.1979 12.2201 35.3359 12.3477C35.4766 12.4753 35.651 12.5391 35.8594 12.5391C36.2031 12.5391 36.4792 12.4258 36.6875 12.1992C36.8958 11.9701 37 11.6797 37 11.3281ZM42.3047 11.1094H39.4219C39.4349 11.5625 39.556 11.9115 39.7852 12.1562C40.0143 12.3984 40.3359 12.5195 40.75 12.5195C40.9297 12.5195 41.1133 12.4922 41.3008 12.4375C41.4909 12.3802 41.681 12.2878 41.8711 12.1602L42.1875 12.6445C41.9505 12.8008 41.7122 12.9154 41.4727 12.9883C41.2331 13.0612 40.9701 13.0977 40.6836 13.0977C40.0638 13.0977 39.5807 12.9141 39.2344 12.5469C38.888 12.1771 38.7135 11.6615 38.7109 11C38.7083 10.3411 38.8828 9.8112 39.2344 9.41016C39.5885 9.00651 40.0469 8.80469 40.6094 8.80469C41.1458 8.80469 41.5625 8.97917 41.8594 9.32812C42.1562 9.67448 42.3047 10.1576 42.3047 10.7773V11.1094ZM41.6055 10.5625C41.6029 10.1849 41.5117 9.89193 41.332 9.68359C41.1549 9.47526 40.9102 9.37109 40.5977 9.37109C40.2904 9.37109 40.0299 9.47917 39.8164 9.69531C39.6055 9.90885 39.4766 10.1979 39.4297 10.5625H41.6055ZM43.332 13V7.07812H44.0273V13H43.332ZM49.3125 13.0977C48.7005 13.0977 48.2122 12.9062 47.8477 12.5234C47.4857 12.138 47.3047 11.6276 47.3047 10.9922C47.3047 10.3073 47.4922 9.77214 47.8672 9.38672C48.2422 9.0013 48.7539 8.80729 49.4023 8.80469C50.0169 8.80208 50.4974 8.99089 50.8438 9.37109C51.1927 9.7487 51.3672 10.2682 51.3672 10.9297C51.3672 11.5885 51.181 12.1146 50.8086 12.5078C50.4362 12.901 49.9375 13.0977 49.3125 13.0977ZM49.3594 12.5195C49.776 12.5195 50.0951 12.3841 50.3164 12.1133C50.5404 11.8398 50.6523 11.4531 50.6523 10.9531C50.6523 10.4479 50.5404 10.0599 50.3164 9.78906C50.0924 9.51823 49.7734 9.38281 49.3594 9.38281C48.9453 9.38281 48.6172 9.52474 48.375 9.80859C48.1354 10.0898 48.0156 10.4779 48.0156 10.9727C48.0156 11.4544 48.1367 11.8333 48.3789 12.1094C48.6211 12.3828 48.9479 12.5195 49.3594 12.5195Z" fill="black" fill-opacity="0.8956"/>
<path d="M41.1489 16.6123C41.1489 16.3559 41.2412 16.1508 41.4259 15.9764C41.6105 15.8021 41.8258 15.72 42.0823 15.72C42.3489 15.72 42.5746 15.8123 42.7489 15.9867C42.9233 16.1611 43.0156 16.3764 43.0156 16.6123C43.0156 16.8585 42.9233 17.0739 42.7387 17.238C42.5541 17.4123 42.3387 17.4944 42.072 17.4944C41.8053 17.4944 41.59 17.4123 41.4053 17.238C41.2412 17.0636 41.1489 16.8585 41.1489 16.6123ZM42.8412 25.0021H41.313V18.4893H42.8412V25.0021Z" fill="black" fill-opacity="0.8956"/>
<path d="M47.4975 23.8887C47.7231 23.8887 47.9795 23.8375 48.2565 23.7349C48.5334 23.6323 48.7795 23.4887 49.0154 23.3144V24.74C48.7693 24.8836 48.4924 24.9862 48.1847 25.058C47.877 25.1298 47.5282 25.1708 47.159 25.1708C46.2052 25.1708 45.4257 24.8631 44.8205 24.258C44.2154 23.6528 43.918 22.8734 43.918 21.94C43.918 20.8939 44.2257 20.0323 44.8411 19.3554C45.4564 18.6785 46.318 18.34 47.4462 18.34C47.7334 18.34 48.0206 18.3811 48.318 18.4528C48.6154 18.5246 48.8411 18.6169 49.0154 18.7093V20.1759C48.7795 20.0016 48.5334 19.8682 48.2872 19.7759C48.0411 19.6836 47.7847 19.6323 47.5282 19.6323C46.9231 19.6323 46.4411 19.8272 46.0616 20.217C45.6923 20.6067 45.5077 21.14 45.5077 21.8067C45.5077 22.4631 45.6821 22.9759 46.0411 23.3452C46.4 23.7144 46.8821 23.8887 47.4975 23.8887Z" fill="black" fill-opacity="0.8956"/>
<path d="M53.3738 18.39C53.4969 18.39 53.6097 18.4003 53.702 18.4105C53.7943 18.431 53.8866 18.4516 53.9482 18.4721V20.0208C53.8661 19.9592 53.7533 19.908 53.5995 19.8567C53.4456 19.8054 53.261 19.7746 53.0354 19.7746C52.6559 19.7746 52.3379 19.9285 52.0815 20.2464C51.8251 20.5644 51.6918 21.0464 51.6918 21.7131V25.0054H50.1636V18.4926H51.6918V19.5182H51.7123C51.8559 19.1592 52.061 18.8823 52.3482 18.6874C52.6354 18.4926 52.9738 18.39 53.3738 18.39Z" fill="black" fill-opacity="0.8956"/>
<path d="M54.0308 21.8477C54.0308 20.7708 54.3385 19.9195 54.9436 19.2836C55.5487 18.658 56.4 18.34 57.4769 18.34C58.4923 18.34 59.2923 18.6477 59.8667 19.2528C60.441 19.858 60.7282 20.6785 60.7282 21.7041C60.7282 22.7605 60.4205 23.6016 59.8154 24.2272C59.2102 24.8528 58.3795 25.1605 57.3333 25.1605C56.3282 25.1605 55.5179 24.8631 54.9333 24.2682C54.3282 23.6836 54.0308 22.8734 54.0308 21.8477ZM55.6308 21.7964C55.6308 22.4734 55.7846 22.9964 56.0923 23.3554C56.4 23.7144 56.841 23.8887 57.4154 23.8887C57.9692 23.8887 58.4 23.7144 58.6872 23.3554C58.9743 22.9964 59.1282 22.4631 59.1282 21.7554C59.1282 21.058 58.9743 20.5246 58.6769 20.1657C58.3795 19.8067 57.9487 19.6323 57.4051 19.6323C56.841 19.6323 56.4102 19.8169 56.0923 20.1964C55.7846 20.5759 55.6308 21.099 55.6308 21.7964Z" fill="black" fill-opacity="0.8956"/>
<path d="M63.0053 20.2069C63.0053 20.4223 63.0771 20.5967 63.2104 20.7198C63.354 20.8428 63.6617 20.9967 64.1335 21.1916C64.7489 21.4377 65.1796 21.7146 65.4258 22.0223C65.6719 22.33 65.795 22.6993 65.795 23.13C65.795 23.7454 65.5591 24.2377 65.0873 24.607C64.6155 24.9762 63.9796 25.1608 63.1796 25.1608C62.913 25.1608 62.6155 25.13 62.2873 25.0582C61.9591 24.9967 61.6822 24.9044 61.4565 24.8121V23.3044C61.7335 23.4993 62.0309 23.6531 62.3591 23.7659C62.6771 23.8787 62.9745 23.9403 63.2309 23.9403C63.5796 23.9403 63.836 23.889 64.0001 23.7967C64.1642 23.7044 64.2463 23.5403 64.2463 23.3044C64.2463 23.089 64.1642 22.9146 63.9899 22.7711C63.8155 22.6275 63.4976 22.4531 63.0155 22.2685C62.4514 22.0326 62.0514 21.7659 61.8155 21.4685C61.5796 21.171 61.4565 20.7916 61.4565 20.3403C61.4565 19.7557 61.6924 19.2736 62.154 18.8941C62.6155 18.5146 63.2206 18.33 63.9694 18.33C64.195 18.33 64.4514 18.3505 64.7386 18.4018C65.0258 18.4531 65.2617 18.5146 65.4463 18.5967V20.0531C65.2412 19.9198 65.0053 19.8069 64.7386 19.7044C64.4719 19.6121 64.195 19.5608 63.9386 19.5608C63.6514 19.5608 63.4155 19.6223 63.2617 19.7351C63.0873 19.848 63.0053 20.0121 63.0053 20.2069Z" fill="black" fill-opacity="0.8956"/>
<path d="M66.4717 21.8477C66.4717 20.7708 66.7794 19.9195 67.3845 19.2836C67.9896 18.658 68.8409 18.34 69.9178 18.34C70.9332 18.34 71.7332 18.6477 72.3076 19.2528C72.8819 19.858 73.1691 20.6785 73.1691 21.7041C73.1691 22.7605 72.8614 23.6016 72.2563 24.2272C71.6512 24.8528 70.8204 25.1605 69.7742 25.1605C68.7691 25.1605 67.9589 24.8631 67.3742 24.2682C66.7691 23.6836 66.4717 22.8734 66.4717 21.8477ZM68.0614 21.7964C68.0614 22.4734 68.2153 22.9964 68.523 23.3554C68.8307 23.7144 69.2717 23.8887 69.846 23.8887C70.3999 23.8887 70.8307 23.7144 71.1178 23.3554C71.405 22.9964 71.5589 22.4631 71.5589 21.7554C71.5589 21.058 71.405 20.5246 71.1076 20.1657C70.8101 19.8067 70.3794 19.6323 69.8358 19.6323C69.2717 19.6323 68.8409 19.8169 68.523 20.1964C68.2153 20.5759 68.0614 21.099 68.0614 21.7964Z" fill="black" fill-opacity="0.8956"/>
<path d="M78.2258 19.7523V23.0959C78.2258 23.7933 78.3899 24.3062 78.7079 24.6549C79.0258 25.0036 79.5181 25.1677 80.1643 25.1677C80.3797 25.1677 80.6053 25.1472 80.8309 25.0959C81.0566 25.0446 81.2207 25.0036 81.313 24.9421V23.6703C81.2207 23.7318 81.1079 23.7831 80.9848 23.8241C80.8617 23.8651 80.7489 23.8857 80.6668 23.8857C80.3591 23.8857 80.1232 23.8036 79.9797 23.6395C79.8361 23.4754 79.7643 23.1882 79.7643 22.7882V19.7421H81.3232V18.4908H79.7745V16.5626L78.2361 17.0344V18.501H75.9489V17.7113C75.9489 17.3215 76.0309 17.0241 76.2053 16.819C76.3796 16.6139 76.6258 16.5215 76.9438 16.5215C77.1079 16.5215 77.2514 16.5421 77.3848 16.5831C77.5079 16.6241 77.6002 16.6651 77.6514 16.6959V15.3728C77.5386 15.3318 77.4155 15.3113 77.272 15.2908C77.1284 15.2703 76.9643 15.26 76.7797 15.26C76.0822 15.26 75.5079 15.4754 75.0668 15.9164C74.6258 16.3574 74.4002 16.9113 74.4002 17.5985V18.501H73.313V19.7523H74.4002V25.0139H75.9489V19.7523H78.2258V19.7523Z" fill="black" fill-opacity="0.8956"/>
<path d="M39.8359 15.92V25.0072H38.2564V17.8892H38.2359L35.4154 25.0072H34.3692L31.4769 17.8892H31.4564V25.0072H30V15.92H32.2564L34.8718 22.6585H34.9128L37.6718 15.92H39.8359Z" fill="black" fill-opacity="0.8956"/>
<rect x="0.5" y="0.5" width="89" height="31" rx="3.5" stroke="url(#paint0_linear_1602_26909)"/>
<defs>
<linearGradient id="paint0_linear_1602_26909" x1="45" y1="1" x2="45" y2="31" gradientUnits="userSpaceOnUse">
<stop offset="0.905762" stop-opacity="0.0578"/>
<stop offset="1" stop-opacity="0.1622"/>
</linearGradient>
</defs>
</svg>
