<svg width="132" height="34" viewBox="0 0 132 34" fill="none" xmlns="http://www.w3.org/2000/svg">
<rect x="1" y="1" width="130" height="32" rx="4" fill="#202020"/>
<rect x="0.5" y="0.5" width="131" height="33" rx="4.5" stroke="black" stroke-opacity="0.1"/>
<g clip-path="url(#clip0_974_1792)">
<g clip-path="url(#clip1_974_1792)">
<path d="M8.28125 11C8.28125 10.5858 8.61704 10.25 9.03125 10.25H24.9687C25.383 10.25 25.7188 10.5858 25.7188 11V22.3438C25.7188 24.0524 24.3336 25.4375 22.625 25.4375H11.375C9.66637 25.4375 8.28125 24.0524 8.28125 22.3438V11Z" fill="url(#paint0_linear_974_1792)"/>
<mask id="mask0_974_1792" style="mask-type:alpha" maskUnits="userSpaceOnUse" x="8" y="10" width="18" height="16">
<path d="M8.28125 11C8.28125 10.5858 8.61704 10.25 9.03125 10.25H24.9687C25.383 10.25 25.7188 10.5858 25.7188 11V22.3438C25.7188 24.0524 24.3336 25.4375 22.625 25.4375H11.375C9.66637 25.4375 8.28125 24.0524 8.28125 22.3438V11Z" fill="url(#paint1_linear_974_1792)"/>
</mask>
<g mask="url(#mask0_974_1792)">
<g filter="url(#filter0_dd_974_1792)">
<path d="M12.7812 10.8125V8.5625H21.2187V10.8125" stroke="url(#paint2_linear_974_1792)" stroke-width="1.125" stroke-linecap="round"/>
</g>
</g>
<g filter="url(#filter1_dd_974_1792)">
<path d="M16.719 14.1875H13.344V17.5625H16.719V14.1875Z" fill="#F25022"/>
<path d="M20.6562 14.1875H17.2812V17.5625H20.6562V14.1875Z" fill="#7FBA00"/>
<path d="M20.6562 18.125H17.2812V21.5H20.6562V18.125Z" fill="#FFB900"/>
<path d="M16.7188 18.125H13.3438V21.5H16.7188V18.125Z" fill="#00A4EF"/>
</g>
<path d="M12.7812 10.8125V9.125C12.7812 8.81434 13.0331 8.5625 13.3438 8.5625H20.6563C20.9669 8.5625 21.2188 8.81434 21.2188 9.125V10.8125" stroke="url(#paint3_linear_974_1792)" stroke-width="1.125" stroke-linecap="round"/>
<rect x="13.3438" y="8" width="7.3125" height="1.125" fill="url(#paint4_linear_974_1792)"/>
<mask id="mask1_974_1792" style="mask-type:alpha" maskUnits="userSpaceOnUse" x="13" y="8" width="8" height="2">
<rect x="13.3438" y="8" width="7.3125" height="1.125" fill="url(#paint5_linear_974_1792)"/>
</mask>
<g mask="url(#mask1_974_1792)">
<g filter="url(#filter2_dd_974_1792)">
<rect x="11.7189" y="8.56274" width="1.625" height="2.8125" fill="#C4C4C4"/>
</g>
</g>
</g>
</g>
<path d="M34.2861 11.0986L32.4712 16H31.8389L30.0615 11.0986H30.7007L32.0576 14.9849C32.0804 15.0464 32.0998 15.1136 32.1157 15.1865C32.1317 15.2594 32.1453 15.3369 32.1567 15.4189H32.1704C32.1795 15.3506 32.1932 15.2799 32.2114 15.207C32.2319 15.1318 32.2559 15.0555 32.2832 14.978L33.6675 11.0986H34.2861ZM35.9336 16.082C35.4163 16.082 35.0028 15.9191 34.6929 15.5933C34.3853 15.2651 34.2314 14.8311 34.2314 14.291C34.2314 13.7054 34.391 13.2474 34.71 12.917C35.029 12.5866 35.4642 12.4202 36.0156 12.418C36.5374 12.4157 36.9442 12.5763 37.2358 12.8999C37.5298 13.2235 37.6768 13.6689 37.6768 14.2363C37.6768 14.7969 37.5184 15.2446 37.2017 15.5796C36.8872 15.9146 36.4645 16.082 35.9336 16.082ZM35.9746 15.6104C36.3369 15.6104 36.6149 15.493 36.8086 15.2583C37.0046 15.0213 37.1025 14.6875 37.1025 14.2568C37.1025 13.8171 37.0046 13.4798 36.8086 13.2451C36.6126 13.0081 36.3346 12.8896 35.9746 12.8896C35.6146 12.8896 35.3298 13.0127 35.1201 13.2588C34.9105 13.5049 34.8057 13.8421 34.8057 14.2705C34.8057 14.6852 34.9116 15.0122 35.1235 15.2515C35.3354 15.4907 35.6191 15.6104 35.9746 15.6104ZM43.542 16H42.9814V13.9902C42.9814 13.6029 42.9211 13.3226 42.8003 13.1494C42.6818 12.9762 42.4813 12.8896 42.1987 12.8896C41.9595 12.8896 41.7555 12.999 41.5869 13.2178C41.4206 13.4365 41.3374 13.6986 41.3374 14.0039V16H40.7769V13.9219C40.7769 13.5778 40.7108 13.3203 40.5786 13.1494C40.4465 12.9762 40.2471 12.8896 39.9805 12.8896C39.7344 12.8896 39.5316 12.9933 39.3721 13.2007C39.2126 13.4058 39.1328 13.6735 39.1328 14.0039V16H38.5723V12.5H39.1328V13.0537H39.1465C39.2718 12.8418 39.4245 12.6834 39.6045 12.5786C39.7868 12.4715 39.9964 12.418 40.2334 12.418C40.4727 12.418 40.6812 12.4852 40.8589 12.6196C41.0366 12.7518 41.1585 12.9261 41.2246 13.1426C41.3545 12.901 41.5163 12.7199 41.71 12.5991C41.9036 12.4784 42.1292 12.418 42.3867 12.418C42.7718 12.418 43.0601 12.5365 43.2515 12.7734C43.4451 13.0104 43.542 13.367 43.542 13.8433V16Z" fill="white" fill-opacity="0.786"/>
<path d="M55.1826 16H53.915V11.0854C53.915 10.8634 53.9204 10.6217 53.9312 10.3604C53.9455 10.0954 53.9634 9.81429 53.9849 9.51709H53.9526C53.9097 9.72119 53.8685 9.89665 53.8291 10.0435C53.7933 10.1867 53.7575 10.3013 53.7217 10.3872L51.4604 16H50.5796L48.3076 10.4355C48.279 10.3568 48.2432 10.2404 48.2002 10.0864C48.1608 9.93245 48.1178 9.74268 48.0713 9.51709H48.0391C48.0605 9.7749 48.0749 10.0488 48.082 10.3389C48.0892 10.6253 48.0928 10.9279 48.0928 11.2466V16H46.9111V8.29785H48.7158L50.7192 13.3037C50.798 13.4935 50.8625 13.6689 50.9126 13.8301C50.9663 13.9876 51.0075 14.1344 51.0361 14.2705H51.0684C51.1328 14.0664 51.1937 13.882 51.251 13.7173C51.3083 13.5526 51.362 13.4093 51.4121 13.2876L53.4424 8.29785H55.1826V16ZM57.5728 9.43652C57.3436 9.43652 57.1538 9.36312 57.0034 9.21631C56.853 9.0695 56.7778 8.88867 56.7778 8.67383C56.7778 8.45182 56.853 8.26921 57.0034 8.12598C57.1538 7.98275 57.3436 7.91113 57.5728 7.91113C57.8055 7.91113 57.9971 7.98275 58.1475 8.12598C58.2979 8.26921 58.373 8.45182 58.373 8.67383C58.373 8.89225 58.2979 9.07487 58.1475 9.22168C57.9971 9.36491 57.8055 9.43652 57.5728 9.43652ZM58.1904 16H56.939V10.5H58.1904V16ZM63.9375 15.6616C63.6654 15.8263 63.395 15.9445 63.1265 16.0161C62.8579 16.0913 62.5661 16.1289 62.251 16.1289C61.4059 16.1289 60.7292 15.8818 60.2207 15.3877C59.7158 14.8936 59.4634 14.2222 59.4634 13.3735C59.4634 12.4604 59.7248 11.7318 60.2476 11.1875C60.7739 10.6432 61.4829 10.3711 62.3745 10.3711C62.686 10.3711 62.9689 10.4051 63.2231 10.4731C63.481 10.5376 63.7424 10.645 64.0073 10.7954L63.5186 11.6655C63.3324 11.5617 63.1497 11.4865 62.9707 11.4399C62.7917 11.3898 62.5965 11.3647 62.3853 11.3647C61.8589 11.3647 61.4525 11.5384 61.166 11.8857C60.8796 12.2331 60.7363 12.6932 60.7363 13.2661C60.7363 13.8677 60.8903 14.3296 61.1982 14.6519C61.5098 14.9741 61.9001 15.1353 62.3691 15.1353C62.5124 15.1353 62.6771 15.1102 62.8633 15.0601C63.0495 15.0063 63.2375 14.9222 63.4272 14.8076L63.9375 15.6616ZM68.0571 11.5474C67.9891 11.5295 67.9229 11.5169 67.8584 11.5098C67.7975 11.499 67.7259 11.4937 67.6436 11.4937C67.196 11.4937 66.8522 11.6584 66.6123 11.9878C66.3724 12.3172 66.2524 12.7469 66.2524 13.2769V16H65.001V10.5H66.2524V11.5581H66.2739C66.4028 11.1785 66.5926 10.8921 66.8433 10.6987C67.0939 10.5018 67.3893 10.4033 67.7295 10.4033C67.8262 10.4033 67.9121 10.4087 67.9873 10.4194C68.0661 10.4302 68.1413 10.4463 68.2129 10.4678L68.0571 11.5474ZM71.5107 16.1289C70.6514 16.1289 69.9692 15.8729 69.4644 15.3608C68.9631 14.8452 68.7124 14.1559 68.7124 13.293C68.716 12.3799 68.9774 11.6655 69.4966 11.1499C70.0158 10.6307 70.723 10.3711 71.6182 10.3711C72.4811 10.3675 73.1543 10.6217 73.6377 11.1338C74.1247 11.6423 74.3682 12.3315 74.3682 13.2017C74.3682 14.0968 74.1104 14.8094 73.5947 15.3394C73.0827 15.8657 72.388 16.1289 71.5107 16.1289ZM71.5698 15.1353C72.0675 15.1353 72.4453 14.9723 72.7031 14.6465C72.9645 14.3206 73.0952 13.8498 73.0952 13.2339C73.0952 12.6252 72.9645 12.1615 72.7031 11.8428C72.4417 11.5241 72.0622 11.3647 71.5645 11.3647C71.0739 11.3647 70.6872 11.533 70.4043 11.8696C70.125 12.2062 69.9854 12.6717 69.9854 13.2661C69.9854 13.8641 70.125 14.326 70.4043 14.6519C70.6836 14.9741 71.0721 15.1353 71.5698 15.1353ZM75.1094 15.5596L75.6519 14.6787C75.8667 14.8291 76.0941 14.9508 76.334 15.0439C76.5775 15.1335 76.8407 15.1782 77.1235 15.1782C77.4315 15.1782 77.6696 15.1227 77.8379 15.0117C78.0098 14.8971 78.0957 14.7271 78.0957 14.5015C78.0957 14.3224 78.0241 14.1738 77.8809 14.0557C77.7412 13.9339 77.5013 13.8337 77.1611 13.7549C76.4736 13.5938 75.9902 13.3807 75.7109 13.1157C75.4352 12.8507 75.2974 12.5016 75.2974 12.0684C75.2974 11.5706 75.4907 11.1642 75.8774 10.8491C76.2642 10.5304 76.7708 10.3711 77.3975 10.3711C77.709 10.3711 78.0062 10.4123 78.2891 10.4946C78.5719 10.5734 78.8477 10.7005 79.1162 10.876L78.6113 11.7354C78.375 11.585 78.1584 11.4775 77.9614 11.4131C77.7645 11.3486 77.5622 11.3164 77.3545 11.3164C77.0609 11.3164 76.8317 11.3719 76.667 11.4829C76.5059 11.5903 76.4253 11.7407 76.4253 11.9341C76.4253 12.1382 76.5076 12.2904 76.6724 12.3906C76.8407 12.4873 77.1217 12.5822 77.5156 12.6753C78.11 12.8185 78.5451 13.0262 78.8208 13.2983C79.0965 13.5669 79.2344 13.9268 79.2344 14.3779C79.2344 14.9115 79.0392 15.3376 78.6489 15.6562C78.2622 15.9714 77.7376 16.1289 77.0752 16.1289C76.7171 16.1289 76.3734 16.0824 76.0439 15.9893C75.7181 15.8926 75.4066 15.7493 75.1094 15.5596ZM82.833 16.1289C81.9736 16.1289 81.2915 15.8729 80.7866 15.3608C80.2853 14.8452 80.0347 14.1559 80.0347 13.293C80.0382 12.3799 80.2996 11.6655 80.8188 11.1499C81.3381 10.6307 82.0452 10.3711 82.9404 10.3711C83.8034 10.3675 84.4766 10.6217 84.96 11.1338C85.4469 11.6423 85.6904 12.3315 85.6904 13.2017C85.6904 14.0968 85.4326 14.8094 84.917 15.3394C84.4049 15.8657 83.7103 16.1289 82.833 16.1289ZM82.8921 15.1353C83.3898 15.1353 83.7676 14.9723 84.0254 14.6465C84.2868 14.3206 84.4175 13.8498 84.4175 13.2339C84.4175 12.6252 84.2868 12.1615 84.0254 11.8428C83.764 11.5241 83.3844 11.3647 82.8867 11.3647C82.3962 11.3647 82.0094 11.533 81.7266 11.8696C81.4473 12.2062 81.3076 12.6717 81.3076 13.2661C81.3076 13.8641 81.4473 14.326 81.7266 14.6519C82.0059 14.9741 82.3944 15.1353 82.8921 15.1353ZM89.939 8.84033C89.8387 8.80094 89.7474 8.77409 89.665 8.75977C89.5827 8.74186 89.4932 8.73291 89.3965 8.73291C89.1315 8.73291 88.931 8.8099 88.7949 8.96387C88.6624 9.11426 88.5962 9.33268 88.5962 9.61914V10.5H89.8691V11.4775H88.5962V16H87.3501V11.4775H86.4155V10.5H87.3501V9.55469C87.3501 8.99609 87.5291 8.55387 87.8872 8.22803C88.2489 7.8986 88.7269 7.73389 89.3213 7.73389C89.5075 7.73389 89.6686 7.74642 89.8047 7.77148C89.9408 7.79655 90.0822 7.83236 90.229 7.87891L89.939 8.84033ZM93.7524 15.9248C93.5913 15.9928 93.423 16.043 93.2476 16.0752C93.0721 16.1074 92.8841 16.1235 92.6836 16.1235C92.1751 16.1235 91.783 15.9893 91.5073 15.7207C91.2352 15.4486 91.0991 15.0439 91.0991 14.5068V11.4775H90.1753V10.5H91.0991V9.1626L92.3452 8.78662V10.5H93.6611V11.4775H92.3452V14.4048C92.3452 14.6733 92.3936 14.8667 92.4902 14.9849C92.5905 15.103 92.7445 15.1621 92.9521 15.1621C93.0524 15.1621 93.1473 15.1514 93.2368 15.1299C93.3299 15.1048 93.4123 15.0744 93.4839 15.0386L93.7524 15.9248ZM97.249 15.4468L97.8184 14.4639C98.1657 14.6787 98.4897 14.8309 98.7905 14.9204C99.0913 15.0063 99.4279 15.0493 99.8003 15.0493C100.244 15.0493 100.593 14.9544 100.848 14.7646C101.105 14.5713 101.234 14.2956 101.234 13.9375C101.234 13.6117 101.127 13.3556 100.912 13.1694C100.701 12.9797 100.341 12.806 99.8325 12.6484C99.0483 12.4157 98.4718 12.1274 98.103 11.7837C97.7342 11.4399 97.5498 10.9744 97.5498 10.3872C97.5498 9.74984 97.7879 9.22168 98.2642 8.80273C98.7404 8.38021 99.3867 8.16895 100.203 8.16895C100.561 8.16895 100.914 8.20833 101.261 8.28711C101.609 8.36589 101.952 8.48763 102.292 8.65234L101.814 9.67285C101.517 9.51888 101.233 9.40967 100.96 9.34521C100.692 9.28076 100.418 9.24854 100.139 9.24854C99.7305 9.24854 99.4082 9.33805 99.1719 9.51709C98.9391 9.69613 98.8228 9.94857 98.8228 10.2744C98.8228 10.5645 98.9302 10.7936 99.145 10.9619C99.3599 11.1266 99.7287 11.2896 100.251 11.4507C101.054 11.6906 101.63 11.9896 101.981 12.3477C102.335 12.7057 102.513 13.1981 102.513 13.8247C102.513 14.4979 102.273 15.0511 101.793 15.4844C101.313 15.9141 100.629 16.1289 99.7412 16.1289C99.2972 16.1289 98.8639 16.0734 98.4414 15.9624C98.0189 15.8478 97.6214 15.6759 97.249 15.4468ZM106.396 15.9248C106.235 15.9928 106.067 16.043 105.891 16.0752C105.716 16.1074 105.528 16.1235 105.327 16.1235C104.819 16.1235 104.427 15.9893 104.151 15.7207C103.879 15.4486 103.743 15.0439 103.743 14.5068V11.4775H102.819V10.5H103.743V9.1626L104.989 8.78662V10.5H106.305V11.4775H104.989V14.4048C104.989 14.6733 105.037 14.8667 105.134 14.9849C105.234 15.103 105.388 15.1621 105.596 15.1621C105.696 15.1621 105.791 15.1514 105.88 15.1299C105.973 15.1048 106.056 15.0744 106.127 15.0386L106.396 15.9248ZM109.817 16.1289C108.958 16.1289 108.276 15.8729 107.771 15.3608C107.27 14.8452 107.019 14.1559 107.019 13.293C107.023 12.3799 107.284 11.6655 107.803 11.1499C108.322 10.6307 109.03 10.3711 109.925 10.3711C110.788 10.3675 111.461 10.6217 111.944 11.1338C112.431 11.6423 112.675 12.3315 112.675 13.2017C112.675 14.0968 112.417 14.8094 111.901 15.3394C111.389 15.8657 110.695 16.1289 109.817 16.1289ZM109.876 15.1353C110.374 15.1353 110.752 14.9723 111.01 14.6465C111.271 14.3206 111.402 13.8498 111.402 13.2339C111.402 12.6252 111.271 12.1615 111.01 11.8428C110.748 11.5241 110.369 11.3647 109.871 11.3647C109.381 11.3647 108.994 11.533 108.711 11.8696C108.432 12.2062 108.292 12.6717 108.292 13.2661C108.292 13.8641 108.432 14.326 108.711 14.6519C108.99 14.9741 109.379 15.1353 109.876 15.1353ZM117.009 11.5474C116.941 11.5295 116.875 11.5169 116.811 11.5098C116.75 11.499 116.678 11.4937 116.596 11.4937C116.148 11.4937 115.804 11.6584 115.564 11.9878C115.325 12.3172 115.205 12.7469 115.205 13.2769V16H113.953V10.5H115.205V11.5581H115.226C115.355 11.1785 115.545 10.8921 115.795 10.6987C116.046 10.5018 116.341 10.4033 116.682 10.4033C116.778 10.4033 116.864 10.4087 116.939 10.4194C117.018 10.4302 117.093 10.4463 117.165 10.4678L117.009 11.5474ZM122.676 13.5776H118.921C118.943 14.0968 119.093 14.4925 119.373 14.7646C119.652 15.0332 120.042 15.1675 120.543 15.1675C120.748 15.1675 120.98 15.1263 121.242 15.0439C121.503 14.9616 121.761 14.8291 122.015 14.6465L122.579 15.4253C122.239 15.6724 121.893 15.8514 121.542 15.9624C121.192 16.0734 120.805 16.1289 120.382 16.1289C119.527 16.1289 118.861 15.8836 118.384 15.3931C117.908 14.8989 117.668 14.2096 117.665 13.3252C117.665 12.4443 117.91 11.7318 118.4 11.1875C118.895 10.6432 119.527 10.3711 120.296 10.3711C121.034 10.3711 121.614 10.6038 122.037 11.0693C122.463 11.5312 122.676 12.1865 122.676 13.0352V13.5776ZM121.467 12.7129C121.467 12.2402 121.363 11.8857 121.156 11.6494C120.952 11.4095 120.662 11.2896 120.286 11.2896C119.931 11.2896 119.629 11.4185 119.378 11.6763C119.131 11.9305 118.979 12.276 118.921 12.7129H121.467Z" fill="white"/>
<path d="M33.4727 26H32.9121V23.9834C32.9121 23.6188 32.8438 23.3454 32.707 23.1631C32.5726 22.9808 32.3698 22.8896 32.0986 22.8896C31.8252 22.8896 31.5951 22.9956 31.4082 23.2075C31.2214 23.4172 31.1279 23.6872 31.1279 24.0176V26H30.5674V20.8184H31.1279V23.0811H31.1416C31.276 22.86 31.439 22.6948 31.6304 22.5854C31.8218 22.4738 32.0417 22.418 32.29 22.418C32.6842 22.418 32.9793 22.5365 33.1753 22.7734C33.3735 23.0104 33.4727 23.367 33.4727 23.8433V26ZM37.3452 24.3765H34.8706C34.8797 24.7707 34.9834 25.0749 35.1816 25.2891C35.3822 25.501 35.6624 25.6069 36.0225 25.6069C36.1797 25.6069 36.3369 25.5841 36.4941 25.5386C36.6536 25.4907 36.8109 25.4155 36.9658 25.313L37.2256 25.7129C37.0273 25.8405 36.8291 25.9339 36.6309 25.9932C36.4326 26.0524 36.215 26.082 35.978 26.082C35.4494 26.082 35.0369 25.9248 34.7407 25.6104C34.4445 25.2959 34.2952 24.8573 34.293 24.2944C34.2907 23.7316 34.4388 23.2782 34.7373 22.9341C35.0381 22.59 35.4277 22.418 35.9062 22.418C36.362 22.418 36.7152 22.5672 36.9658 22.8657C37.2188 23.1619 37.3452 23.5732 37.3452 24.0996V24.3765ZM36.771 23.9185C36.7687 23.5949 36.6901 23.3431 36.5352 23.1631C36.3802 22.9808 36.1672 22.8896 35.896 22.8896C35.6294 22.8896 35.4027 22.9831 35.2158 23.1699C35.0312 23.3545 34.9185 23.604 34.8774 23.9185H36.771ZM39.9224 22.9785C39.8791 22.9648 39.8403 22.9557 39.8062 22.9512C39.772 22.9443 39.7287 22.9409 39.6763 22.9409C39.3914 22.9409 39.167 23.0628 39.0029 23.3066C38.8389 23.5482 38.7568 23.8512 38.7568 24.2158V26H38.1963V22.5H38.7568V23.1938H38.7705C38.8503 22.9478 38.9722 22.7609 39.1362 22.6333C39.3003 22.5034 39.4894 22.4385 39.7036 22.4385C39.7743 22.4385 39.8335 22.4419 39.8813 22.4487C39.9315 22.4556 39.9759 22.4658 40.0146 22.4795L39.9224 22.9785ZM43.46 26H42.8994V25.4463H42.8857C42.7695 25.6582 42.6214 25.8177 42.4414 25.9248C42.2614 26.0296 42.0495 26.082 41.8057 26.082C41.3887 26.082 41.0754 25.9578 40.8657 25.7095C40.6584 25.4611 40.5547 25.0885 40.5547 24.5918V22.5H41.1118V24.5029C41.1118 24.8721 41.1825 25.1489 41.3237 25.3335C41.465 25.5181 41.6769 25.6104 41.9595 25.6104C42.2329 25.6104 42.4574 25.5101 42.6328 25.3096C42.8105 25.1068 42.8994 24.8424 42.8994 24.5166V22.5H43.46V26ZM47.5 26H46.9395V24.0039C46.9395 23.6325 46.8711 23.3545 46.7344 23.1699C46.5999 22.9831 46.3971 22.8896 46.126 22.8896C45.8457 22.8896 45.6133 22.9956 45.4287 23.2075C45.2464 23.4172 45.1553 23.6826 45.1553 24.0039V26H44.5947V22.5H45.1553V23.0811H45.1689C45.3011 22.86 45.4629 22.6948 45.6543 22.5854C45.8457 22.4738 46.0667 22.418 46.3174 22.418C46.7002 22.418 46.993 22.5422 47.1958 22.7905C47.3986 23.0366 47.5 23.3932 47.5 23.8604V26ZM50.2275 25.959C50.1318 25.9977 50.0373 26.0262 49.9438 26.0444C49.8527 26.0649 49.749 26.0752 49.6328 26.0752C49.3548 26.0752 49.1361 25.9943 48.9766 25.8325C48.8193 25.6685 48.7407 25.4269 48.7407 25.1079V22.9785H48.1392V22.5H48.7407V21.6455L49.3013 21.4644V22.5H50.1831V22.9785H49.3013V25.043C49.3013 25.2435 49.3366 25.3882 49.4072 25.4771C49.4801 25.5659 49.5884 25.6104 49.7319 25.6104C49.8003 25.6104 49.8664 25.6024 49.9302 25.5864C49.994 25.5705 50.0475 25.5522 50.0908 25.5317L50.2275 25.959ZM53.7446 24.3765H51.27C51.2791 24.7707 51.3828 25.0749 51.5811 25.2891C51.7816 25.501 52.0618 25.6069 52.4219 25.6069C52.5791 25.6069 52.7363 25.5841 52.8936 25.5386C53.0531 25.4907 53.2103 25.4155 53.3652 25.313L53.625 25.7129C53.4268 25.8405 53.2285 25.9339 53.0303 25.9932C52.832 26.0524 52.6144 26.082 52.3774 26.082C51.8488 26.082 51.4364 25.9248 51.1401 25.6104C50.8439 25.2959 50.6947 24.8573 50.6924 24.2944C50.6901 23.7316 50.8382 23.2782 51.1367 22.9341C51.4375 22.59 51.8271 22.418 52.3057 22.418C52.7614 22.418 53.1146 22.5672 53.3652 22.8657C53.6182 23.1619 53.7446 23.5732 53.7446 24.0996V24.3765ZM53.1704 23.9185C53.1681 23.5949 53.0895 23.3431 52.9346 23.1631C52.7796 22.9808 52.5666 22.8896 52.2954 22.8896C52.0288 22.8896 51.8021 22.9831 51.6152 23.1699C51.4307 23.3545 51.3179 23.604 51.2769 23.9185H53.1704ZM56.3218 22.9785C56.2785 22.9648 56.2397 22.9557 56.2056 22.9512C56.1714 22.9443 56.1281 22.9409 56.0757 22.9409C55.7909 22.9409 55.5664 23.0628 55.4023 23.3066C55.2383 23.5482 55.1562 23.8512 55.1562 24.2158V26H54.5957V22.5H55.1562V23.1938H55.1699C55.2497 22.9478 55.3716 22.7609 55.5356 22.6333C55.6997 22.5034 55.8888 22.4385 56.103 22.4385C56.1737 22.4385 56.2329 22.4419 56.2808 22.4487C56.3309 22.4556 56.3753 22.4658 56.4141 22.4795L56.3218 22.9785ZM57.0293 26V20.8184H57.5898V26H57.0293ZM61.2026 26H60.6421V25.4531H60.6284C60.5076 25.6628 60.3584 25.82 60.1807 25.9248C60.0052 26.0296 59.8001 26.082 59.5654 26.082C59.2373 26.082 58.9718 25.9863 58.769 25.7949C58.5662 25.6035 58.4648 25.3494 58.4648 25.0327C58.4648 24.7342 58.5674 24.487 58.7725 24.291C58.9775 24.0951 59.2681 23.9697 59.644 23.915L60.6421 23.7817V23.7031C60.6421 23.4092 60.5737 23.2007 60.437 23.0776C60.3003 22.9523 60.118 22.8896 59.8901 22.8896C59.7078 22.8896 59.5324 22.9238 59.3638 22.9922C59.1951 23.0605 59.0368 23.1654 58.8887 23.3066L58.5605 22.9683C58.7565 22.7791 58.965 22.6401 59.186 22.5513C59.4071 22.4624 59.6532 22.418 59.9243 22.418C60.3481 22.418 60.6672 22.5273 60.8813 22.7461C61.0955 22.9626 61.2026 23.2884 61.2026 23.7236V26ZM60.6421 24.5781V24.2295L59.7979 24.3457C59.5404 24.3822 59.3467 24.4471 59.2168 24.5405C59.0869 24.634 59.022 24.7809 59.022 24.9814C59.022 25.1911 59.0824 25.3517 59.2031 25.4634C59.3262 25.5728 59.4754 25.6274 59.6509 25.6274C59.9539 25.6274 60.1943 25.5283 60.3721 25.3301C60.5521 25.1318 60.6421 24.8812 60.6421 24.5781ZM64.6992 25.4053C64.5693 25.6309 64.4041 25.8006 64.2036 25.9146C64.0054 26.0262 63.7695 26.082 63.4961 26.082C63.0563 26.082 62.7043 25.9259 62.4399 25.6138C62.1779 25.2993 62.0469 24.8721 62.0469 24.332C62.0469 23.7533 62.1927 23.2896 62.4844 22.9409C62.776 22.5923 63.1646 22.418 63.6499 22.418C63.8914 22.418 64.0988 22.4658 64.272 22.5615C64.4474 22.6549 64.5898 22.7962 64.6992 22.9854H64.7129V20.8184H65.2734V26H64.7129V25.4053H64.6992ZM62.6211 24.3047C62.6211 24.708 62.7145 25.027 62.9014 25.2617C63.0905 25.4941 63.3434 25.6104 63.6602 25.6104C63.9746 25.6104 64.2287 25.4976 64.4224 25.272C64.616 25.0464 64.7129 24.7616 64.7129 24.4175V23.9014C64.7129 23.6188 64.6183 23.3796 64.4292 23.1836C64.2424 22.9876 64.0065 22.8896 63.7217 22.8896C63.3799 22.8896 63.111 23.015 62.915 23.2656C62.7191 23.5163 62.6211 23.8626 62.6211 24.3047ZM69.2212 24.3765H66.7466C66.7557 24.7707 66.8594 25.0749 67.0576 25.2891C67.2581 25.501 67.5384 25.6069 67.8984 25.6069C68.0557 25.6069 68.2129 25.5841 68.3701 25.5386C68.5296 25.4907 68.6868 25.4155 68.8418 25.313L69.1016 25.7129C68.9033 25.8405 68.7051 25.9339 68.5068 25.9932C68.3086 26.0524 68.091 26.082 67.854 26.082C67.3254 26.082 66.9129 25.9248 66.6167 25.6104C66.3205 25.2959 66.1712 24.8573 66.1689 24.2944C66.1667 23.7316 66.3148 23.2782 66.6133 22.9341C66.9141 22.59 67.3037 22.418 67.7822 22.418C68.238 22.418 68.5911 22.5672 68.8418 22.8657C69.0947 23.1619 69.2212 23.5732 69.2212 24.0996V24.3765ZM68.647 23.9185C68.6447 23.5949 68.5661 23.3431 68.4111 23.1631C68.2562 22.9808 68.0431 22.8896 67.772 22.8896C67.5054 22.8896 67.2786 22.9831 67.0918 23.1699C66.9072 23.3545 66.7944 23.604 66.7534 23.9185H68.647ZM72.9775 26H72.417V24.0039C72.417 23.6325 72.3486 23.3545 72.2119 23.1699C72.0775 22.9831 71.8747 22.8896 71.6035 22.8896C71.3232 22.8896 71.0908 22.9956 70.9062 23.2075C70.724 23.4172 70.6328 23.6826 70.6328 24.0039V26H70.0723V22.5H70.6328V23.0811H70.6465C70.7786 22.86 70.9404 22.6948 71.1318 22.5854C71.3232 22.4738 71.5443 22.418 71.7949 22.418C72.1777 22.418 72.4705 22.5422 72.6733 22.7905C72.8761 23.0366 72.9775 23.3932 72.9775 23.8604V26Z" fill="white" fill-opacity="0.786"/>
<defs>
<filter id="filter0_dd_974_1792" x="11.0938" y="7.25" width="11.8125" height="5.625" filterUnits="userSpaceOnUse" color-interpolation-filters="sRGB">
<feFlood flood-opacity="0" result="BackgroundImageFix"/>
<feColorMatrix in="SourceAlpha" type="matrix" values="0 0 0 0 0 0 0 0 0 0 0 0 0 0 0 0 0 0 127 0" result="hardAlpha"/>
<feOffset dy="0.1875"/>
<feGaussianBlur stdDeviation="0.1875"/>
<feColorMatrix type="matrix" values="0 0 0 0 0 0 0 0 0 0 0 0 0 0 0 0 0 0 0.1 0"/>
<feBlend mode="normal" in2="BackgroundImageFix" result="effect1_dropShadow_974_1792"/>
<feColorMatrix in="SourceAlpha" type="matrix" values="0 0 0 0 0 0 0 0 0 0 0 0 0 0 0 0 0 0 127 0" result="hardAlpha"/>
<feOffset dy="0.375"/>
<feGaussianBlur stdDeviation="0.5625"/>
<feColorMatrix type="matrix" values="0 0 0 0 0 0 0 0 0 0 0 0 0 0 0 0 0 0 0.2 0"/>
<feBlend mode="normal" in2="effect1_dropShadow_974_1792" result="effect2_dropShadow_974_1792"/>
<feBlend mode="normal" in="SourceGraphic" in2="effect2_dropShadow_974_1792" result="shape"/>
</filter>
<filter id="filter1_dd_974_1792" x="12.2188" y="13.4375" width="9.5625" height="9.5625" filterUnits="userSpaceOnUse" color-interpolation-filters="sRGB">
<feFlood flood-opacity="0" result="BackgroundImageFix"/>
<feColorMatrix in="SourceAlpha" type="matrix" values="0 0 0 0 0 0 0 0 0 0 0 0 0 0 0 0 0 0 127 0" result="hardAlpha"/>
<feOffset dy="0.1875"/>
<feGaussianBlur stdDeviation="0.1875"/>
<feColorMatrix type="matrix" values="0 0 0 0 1 0 0 0 0 1 0 0 0 0 1 0 0 0 0.6 0"/>
<feBlend mode="normal" in2="BackgroundImageFix" result="effect1_dropShadow_974_1792"/>
<feColorMatrix in="SourceAlpha" type="matrix" values="0 0 0 0 0 0 0 0 0 0 0 0 0 0 0 0 0 0 127 0" result="hardAlpha"/>
<feOffset dy="0.375"/>
<feGaussianBlur stdDeviation="0.5625"/>
<feColorMatrix type="matrix" values="0 0 0 0 1 0 0 0 0 1 0 0 0 0 1 0 0 0 0.6 0"/>
<feBlend mode="normal" in2="effect1_dropShadow_974_1792" result="effect2_dropShadow_974_1792"/>
<feBlend mode="normal" in="SourceGraphic" in2="effect2_dropShadow_974_1792" result="shape"/>
</filter>
<filter id="filter2_dd_974_1792" x="10.5939" y="6.6875" width="12.8124" height="5.06274" filterUnits="userSpaceOnUse" color-interpolation-filters="sRGB">
<feFlood flood-opacity="0" result="BackgroundImageFix"/>
<feColorMatrix in="SourceAlpha" type="matrix" values="0 0 0 0 0 0 0 0 0 0 0 0 0 0 0 0 0 0 127 0" result="hardAlpha"/>
<feOffset dy="-0.75"/>
<feGaussianBlur stdDeviation="0.1875"/>
<feColorMatrix type="matrix" values="0 0 0 0 0 0 0 0 0 0 0 0 0 0 0 0 0 0 0.1 0"/>
<feBlend mode="normal" in2="BackgroundImageFix" result="effect1_dropShadow_974_1792"/>
<feColorMatrix in="SourceAlpha" type="matrix" values="0 0 0 0 0 0 0 0 0 0 0 0 0 0 0 0 0 0 127 0" result="hardAlpha"/>
<feOffset dy="-0.75"/>
<feGaussianBlur stdDeviation="0.5625"/>
<feColorMatrix type="matrix" values="0 0 0 0 0 0 0 0 0 0 0 0 0 0 0 0 0 0 0.2 0"/>
<feBlend mode="normal" in2="effect1_dropShadow_974_1792" result="effect2_dropShadow_974_1792"/>
<feBlend mode="normal" in="SourceGraphic" in2="effect2_dropShadow_974_1792" result="shape"/>
</filter>
<linearGradient id="paint0_linear_974_1792" x1="12.2443" y1="8.00639" x2="15.9039" y2="24.8132" gradientUnits="userSpaceOnUse">
<stop offset="0.270833" stop-color="white"/>
<stop offset="1" stop-color="#DFDFDF"/>
</linearGradient>
<linearGradient id="paint1_linear_974_1792" x1="17" y1="10.25" x2="20.3514" y2="25.9624" gradientUnits="userSpaceOnUse">
<stop stop-color="#0078D4"/>
<stop offset="1" stop-color="#114A8B"/>
</linearGradient>
<linearGradient id="paint2_linear_974_1792" x1="17" y1="8.5625" x2="17.1583" y2="10.9858" gradientUnits="userSpaceOnUse">
<stop stop-color="#28AFEA"/>
<stop offset="1" stop-color="#0078D4"/>
</linearGradient>
<linearGradient id="paint3_linear_974_1792" x1="17" y1="8.5625" x2="17.1583" y2="10.9858" gradientUnits="userSpaceOnUse">
<stop stop-color="#30DAFF"/>
<stop offset="1" stop-color="#0094D4"/>
</linearGradient>
<linearGradient id="paint4_linear_974_1792" x1="16.5938" y1="8" x2="16.5937" y2="9.125" gradientUnits="userSpaceOnUse">
<stop stop-color="#22BCFF"/>
<stop offset="1" stop-color="#0088F0"/>
</linearGradient>
<linearGradient id="paint5_linear_974_1792" x1="16.5938" y1="8" x2="16.5937" y2="9.125" gradientUnits="userSpaceOnUse">
<stop stop-color="#28AFEA"/>
<stop offset="1" stop-color="#3CCBF4"/>
</linearGradient>
<clipPath id="clip0_974_1792">
<rect width="18" height="18" fill="white" transform="translate(8 8)"/>
</clipPath>
<clipPath id="clip1_974_1792">
<rect width="18" height="18" fill="white" transform="translate(8 8)"/>
</clipPath>
</defs>
</svg>
