<svg width="90" height="32" viewBox="0 0 90 32" fill="none" xmlns="http://www.w3.org/2000/svg">
<rect x="0.5" y="0.5" width="89" height="31" rx="3.5" fill="black"/>
<path d="M15.5559 7H7V15.5608H15.5559V7Z" fill="#F25022"/>
<path d="M25.0001 7H16.4442V15.5608H25.0001V7Z" fill="#7FBA00"/>
<path d="M15.5559 16.4395H7V25.0002H15.5559V16.4395Z" fill="#00A4EF"/>
<path d="M25.0002 16.4395H16.4443V25.0002H25.0002V16.4395Z" fill="#FFB900"/>
<path d="M32.0312 13.0938C31.237 13.0938 30.599 12.832 30.1172 12.3086C29.638 11.7852 29.3984 11.1042 29.3984 10.2656C29.3984 9.36719 29.6432 8.64974 30.1328 8.11328C30.6224 7.57422 31.2865 7.30469 32.125 7.30469C32.901 7.30469 33.526 7.5651 34 8.08594C34.4766 8.60677 34.7148 9.28906 34.7148 10.1328C34.7148 11.0443 34.4701 11.7656 33.9805 12.2969C33.4935 12.8281 32.8438 13.0938 32.0312 13.0938ZM32.0352 12.457C32.6341 12.457 33.1055 12.2617 33.4492 11.8711C33.793 11.4779 33.9648 10.9271 33.9648 10.2188C33.9648 9.49479 33.7969 8.9349 33.4609 8.53906C33.1276 8.14323 32.6667 7.94531 32.0781 7.94531C31.5052 7.94531 31.0404 8.15365 30.6836 8.57031C30.3268 8.98438 30.1484 9.52995 30.1484 10.207C30.1484 10.8841 30.3216 11.4284 30.668 11.8398C31.0169 12.2513 31.4727 12.457 32.0352 12.457ZM36.4961 12.4609H36.4805V13H35.7852V7.07812H36.4805V9.61719H36.4961C36.6576 9.34635 36.8568 9.14323 37.0938 9.00781C37.3307 8.8724 37.6042 8.80469 37.9141 8.80469C38.4375 8.80469 38.8477 8.98828 39.1445 9.35547C39.4414 9.72005 39.5898 10.2109 39.5898 10.8281C39.5898 11.5156 39.4219 12.0664 39.0859 12.4805C38.7526 12.8919 38.2982 13.0977 37.7227 13.0977C37.4518 13.0977 37.2135 13.0456 37.0078 12.9414C36.8047 12.8346 36.6341 12.6745 36.4961 12.4609ZM36.4766 10.7578V11.3125C36.4766 11.651 36.5846 11.9375 36.8008 12.1719C37.0169 12.4036 37.293 12.5195 37.6289 12.5195C38.0169 12.5195 38.3216 12.3698 38.543 12.0703C38.7643 11.7708 38.875 11.3542 38.875 10.8203C38.875 10.3724 38.7721 10.0208 38.5664 9.76562C38.3607 9.51042 38.0807 9.38281 37.7266 9.38281C37.349 9.38281 37.0456 9.51432 36.8164 9.77734C36.5898 10.0378 36.4766 10.3646 36.4766 10.7578ZM42.6758 12.9492C42.5638 12.9961 42.4518 13.0299 42.3398 13.0508C42.2305 13.0742 42.1068 13.0859 41.9688 13.0859C41.6328 13.0859 41.3698 12.9896 41.1797 12.7969C40.9922 12.6042 40.8984 12.319 40.8984 11.9414V9.48047H40.1992V8.90234H40.8984V7.96484L41.5977 7.74219V8.90234H42.6211V9.48047H41.5977V11.8672C41.5977 12.099 41.6393 12.2656 41.7227 12.3672C41.806 12.4688 41.931 12.5195 42.0977 12.5195C42.1758 12.5195 42.2513 12.5104 42.3242 12.4922C42.3971 12.474 42.4596 12.4518 42.5117 12.4258L42.6758 12.9492ZM46.875 11.1094H43.9922C44.0052 11.5625 44.1263 11.9115 44.3555 12.1562C44.5846 12.3984 44.9062 12.5195 45.3203 12.5195C45.5 12.5195 45.6836 12.4922 45.8711 12.4375C46.0612 12.3802 46.2513 12.2878 46.4414 12.1602L46.7578 12.6445C46.5208 12.8008 46.2826 12.9154 46.043 12.9883C45.8034 13.0612 45.5404 13.0977 45.2539 13.0977C44.6341 13.0977 44.151 12.9141 43.8047 12.5469C43.4583 12.1771 43.2839 11.6615 43.2812 11C43.2786 10.3411 43.4531 9.8112 43.8047 9.41016C44.1589 9.00651 44.6172 8.80469 45.1797 8.80469C45.7161 8.80469 46.1328 8.97917 46.4297 9.32812C46.7266 9.67448 46.875 10.1576 46.875 10.7773V11.1094ZM46.1758 10.5625C46.1732 10.1849 46.082 9.89193 45.9023 9.68359C45.7253 9.47526 45.4805 9.37109 45.168 9.37109C44.8607 9.37109 44.6003 9.47917 44.3867 9.69531C44.1758 9.90885 44.0469 10.1979 44 10.5625H46.1758ZM51.3398 13H50.6445V10.6641C50.6445 10.237 50.5664 9.91667 50.4102 9.70312C50.2539 9.48958 50.0208 9.38281 49.7109 9.38281C49.388 9.38281 49.1211 9.50391 48.9102 9.74609C48.7018 9.98568 48.5977 10.2904 48.5977 10.6602V13H47.9023V8.90234H48.5977V9.58203H48.6133C48.7669 9.32161 48.9557 9.1276 49.1797 9C49.4036 8.86979 49.6628 8.80469 49.957 8.80469C50.4049 8.80469 50.7474 8.94922 50.9844 9.23828C51.2214 9.52734 51.3398 9.94531 51.3398 10.4922V13ZM55.9297 11.1094H53.0469C53.0599 11.5625 53.181 11.9115 53.4102 12.1562C53.6393 12.3984 53.9609 12.5195 54.375 12.5195C54.5547 12.5195 54.7383 12.4922 54.9258 12.4375C55.1159 12.3802 55.306 12.2878 55.4961 12.1602L55.8125 12.6445C55.5755 12.8008 55.3372 12.9154 55.0977 12.9883C54.8581 13.0612 54.5951 13.0977 54.3086 13.0977C53.6888 13.0977 53.2057 12.9141 52.8594 12.5469C52.513 12.1771 52.3385 11.6615 52.3359 11C52.3333 10.3411 52.5078 9.8112 52.8594 9.41016C53.2135 9.00651 53.6719 8.80469 54.2344 8.80469C54.7708 8.80469 55.1875 8.97917 55.4844 9.32812C55.7812 9.67448 55.9297 10.1576 55.9297 10.7773V11.1094ZM55.2305 10.5625C55.2279 10.1849 55.1367 9.89193 54.957 9.68359C54.7799 9.47526 54.5352 9.37109 54.2227 9.37109C53.9154 9.37109 53.6549 9.47917 53.4414 9.69531C53.2305 9.90885 53.1016 10.1979 53.0547 10.5625H55.2305ZM59.0234 9.49609C58.9714 9.48047 58.9232 9.46875 58.8789 9.46094C58.8346 9.45312 58.7812 9.44922 58.7188 9.44922C58.388 9.44922 58.1276 9.58984 57.9375 9.87109C57.7474 10.1497 57.6523 10.5026 57.6523 10.9297V13H56.957V8.90234H57.6523V9.71484H57.668C57.7617 9.42578 57.9036 9.20703 58.0938 9.05859C58.2865 8.90755 58.5091 8.83203 58.7617 8.83203C58.8424 8.83203 58.9115 8.83594 58.9688 8.84375C59.0286 8.85156 59.0833 8.86328 59.1328 8.87891L59.0234 9.49609ZM59.9023 13V7.07812H60.5977V13H59.9023ZM63.6875 13.0977C63.0755 13.0977 62.5872 12.9062 62.2227 12.5234C61.8607 12.138 61.6797 11.6276 61.6797 10.9922C61.6797 10.3073 61.8672 9.77214 62.2422 9.38672C62.6172 9.0013 63.1289 8.80729 63.7773 8.80469C64.3919 8.80208 64.8724 8.99089 65.2188 9.37109C65.5677 9.7487 65.7422 10.2682 65.7422 10.9297C65.7422 11.5885 65.556 12.1146 65.1836 12.5078C64.8112 12.901 64.3125 13.0977 63.6875 13.0977ZM63.7344 12.5195C64.151 12.5195 64.4701 12.3841 64.6914 12.1133C64.9154 11.8398 65.0273 11.4531 65.0273 10.9531C65.0273 10.4479 64.9154 10.0599 64.6914 9.78906C64.4674 9.51823 64.1484 9.38281 63.7344 9.38281C63.3203 9.38281 62.9922 9.52474 62.75 9.80859C62.5104 10.0898 62.3906 10.4779 62.3906 10.9727C62.3906 11.4544 62.5117 11.8333 62.7539 12.1094C62.9961 12.3828 63.3229 12.5195 63.7344 12.5195ZM71.8477 12.3125C71.6966 12.5729 71.5039 12.7695 71.2695 12.9023C71.0378 13.0326 70.7643 13.0977 70.4492 13.0977C69.9336 13.0977 69.5208 12.9141 69.2109 12.5469C68.9036 12.1797 68.75 11.6797 68.75 11.0469C68.75 10.3672 68.9206 9.82422 69.2617 9.41797C69.6029 9.00911 70.0573 8.80469 70.625 8.80469C70.9062 8.80469 71.1484 8.85938 71.3516 8.96875C71.5547 9.07812 71.7201 9.24349 71.8477 9.46484H71.8633V7.07812H72.5586V13H71.8633V12.3125H71.8477ZM69.4609 11.0117C69.4609 11.4805 69.569 11.849 69.7852 12.1172C70.0013 12.3854 70.2904 12.5195 70.6523 12.5195C71.0169 12.5195 71.3099 12.3893 71.5312 12.1289C71.7526 11.8685 71.8633 11.5391 71.8633 11.1406V10.5547C71.8633 10.2266 71.7552 9.94922 71.5391 9.72266C71.3255 9.49609 71.0547 9.38281 70.7266 9.38281C70.3333 9.38281 70.0234 9.52734 69.7969 9.81641C69.5729 10.1055 69.4609 10.5039 69.4609 11.0117ZM77.2344 11.1094H74.3516C74.3646 11.5625 74.4857 11.9115 74.7148 12.1562C74.944 12.3984 75.2656 12.5195 75.6797 12.5195C75.8594 12.5195 76.043 12.4922 76.2305 12.4375C76.4206 12.3802 76.6107 12.2878 76.8008 12.1602L77.1172 12.6445C76.8802 12.8008 76.6419 12.9154 76.4023 12.9883C76.1628 13.0612 75.8997 13.0977 75.6133 13.0977C74.9935 13.0977 74.5104 12.9141 74.1641 12.5469C73.8177 12.1771 73.6432 11.6615 73.6406 11C73.638 10.3411 73.8125 9.8112 74.1641 9.41016C74.5182 9.00651 74.9766 8.80469 75.5391 8.80469C76.0755 8.80469 76.4922 8.97917 76.7891 9.32812C77.0859 9.67448 77.2344 10.1576 77.2344 10.7773V11.1094ZM76.5352 10.5625C76.5326 10.1849 76.4414 9.89193 76.2617 9.68359C76.0846 9.47526 75.8398 9.37109 75.5273 9.37109C75.2201 9.37109 74.9596 9.47917 74.7461 9.69531C74.5352 9.90885 74.4062 10.1979 74.3594 10.5625H76.5352Z" fill="white"/>
<path d="M41.1489 16.6123C41.1489 16.3559 41.2412 16.1508 41.4259 15.9764C41.6105 15.8021 41.8258 15.72 42.0823 15.72C42.3489 15.72 42.5746 15.8123 42.7489 15.9867C42.9233 16.1611 43.0156 16.3764 43.0156 16.6123C43.0156 16.8585 42.9233 17.0739 42.7387 17.238C42.5541 17.4123 42.3387 17.4944 42.072 17.4944C41.8053 17.4944 41.59 17.4123 41.4053 17.238C41.2412 17.0636 41.1489 16.8585 41.1489 16.6123ZM42.8412 25.0021H41.313V18.4893H42.8412V25.0021Z" fill="white"/>
<path d="M47.4975 23.8887C47.7231 23.8887 47.9795 23.8375 48.2565 23.7349C48.5334 23.6323 48.7795 23.4887 49.0154 23.3144V24.74C48.7693 24.8836 48.4924 24.9862 48.1847 25.058C47.877 25.1298 47.5282 25.1708 47.159 25.1708C46.2052 25.1708 45.4257 24.8631 44.8205 24.258C44.2154 23.6528 43.918 22.8734 43.918 21.94C43.918 20.8939 44.2257 20.0323 44.8411 19.3554C45.4564 18.6785 46.318 18.34 47.4462 18.34C47.7334 18.34 48.0206 18.3811 48.318 18.4528C48.6154 18.5246 48.8411 18.6169 49.0154 18.7093V20.1759C48.7795 20.0016 48.5334 19.8682 48.2872 19.7759C48.0411 19.6836 47.7847 19.6323 47.5282 19.6323C46.9231 19.6323 46.4411 19.8272 46.0616 20.217C45.6923 20.6067 45.5077 21.14 45.5077 21.8067C45.5077 22.4631 45.6821 22.9759 46.0411 23.3452C46.4 23.7144 46.8821 23.8887 47.4975 23.8887Z" fill="white"/>
<path d="M53.3738 18.39C53.4969 18.39 53.6097 18.4003 53.702 18.4105C53.7943 18.431 53.8866 18.4516 53.9482 18.4721V20.0208C53.8661 19.9592 53.7533 19.908 53.5995 19.8567C53.4456 19.8054 53.261 19.7746 53.0354 19.7746C52.6559 19.7746 52.3379 19.9285 52.0815 20.2464C51.8251 20.5644 51.6918 21.0464 51.6918 21.7131V25.0054H50.1636V18.4926H51.6918V19.5182H51.7123C51.8559 19.1592 52.061 18.8823 52.3482 18.6874C52.6354 18.4926 52.9738 18.39 53.3738 18.39Z" fill="white"/>
<path d="M54.0308 21.8477C54.0308 20.7708 54.3385 19.9195 54.9436 19.2836C55.5487 18.658 56.4 18.34 57.4769 18.34C58.4923 18.34 59.2923 18.6477 59.8667 19.2528C60.441 19.858 60.7282 20.6785 60.7282 21.7041C60.7282 22.7605 60.4205 23.6016 59.8154 24.2272C59.2102 24.8528 58.3795 25.1605 57.3333 25.1605C56.3282 25.1605 55.5179 24.8631 54.9333 24.2682C54.3282 23.6836 54.0308 22.8734 54.0308 21.8477ZM55.6308 21.7964C55.6308 22.4734 55.7846 22.9964 56.0923 23.3554C56.4 23.7144 56.841 23.8887 57.4154 23.8887C57.9692 23.8887 58.4 23.7144 58.6872 23.3554C58.9743 22.9964 59.1282 22.4631 59.1282 21.7554C59.1282 21.058 58.9743 20.5246 58.6769 20.1657C58.3795 19.8067 57.9487 19.6323 57.4051 19.6323C56.841 19.6323 56.4102 19.8169 56.0923 20.1964C55.7846 20.5759 55.6308 21.099 55.6308 21.7964Z" fill="white"/>
<path d="M63.0053 20.2069C63.0053 20.4223 63.0771 20.5967 63.2104 20.7198C63.354 20.8428 63.6617 20.9967 64.1335 21.1916C64.7489 21.4377 65.1796 21.7146 65.4258 22.0223C65.6719 22.33 65.795 22.6993 65.795 23.13C65.795 23.7454 65.5591 24.2377 65.0873 24.607C64.6155 24.9762 63.9796 25.1608 63.1796 25.1608C62.913 25.1608 62.6155 25.13 62.2873 25.0582C61.9591 24.9967 61.6822 24.9044 61.4565 24.8121V23.3044C61.7335 23.4993 62.0309 23.6531 62.3591 23.7659C62.6771 23.8787 62.9745 23.9403 63.2309 23.9403C63.5796 23.9403 63.836 23.889 64.0001 23.7967C64.1642 23.7044 64.2463 23.5403 64.2463 23.3044C64.2463 23.089 64.1642 22.9146 63.9899 22.7711C63.8155 22.6275 63.4976 22.4531 63.0155 22.2685C62.4514 22.0326 62.0514 21.7659 61.8155 21.4685C61.5796 21.171 61.4565 20.7916 61.4565 20.3403C61.4565 19.7557 61.6924 19.2736 62.154 18.8941C62.6155 18.5146 63.2206 18.33 63.9694 18.33C64.195 18.33 64.4514 18.3505 64.7386 18.4018C65.0258 18.4531 65.2617 18.5146 65.4463 18.5967V20.0531C65.2412 19.9198 65.0053 19.8069 64.7386 19.7044C64.4719 19.6121 64.195 19.5608 63.9386 19.5608C63.6514 19.5608 63.4155 19.6223 63.2617 19.7351C63.0873 19.848 63.0053 20.0121 63.0053 20.2069Z" fill="white"/>
<path d="M66.4717 21.8477C66.4717 20.7708 66.7794 19.9195 67.3845 19.2836C67.9896 18.658 68.8409 18.34 69.9178 18.34C70.9332 18.34 71.7332 18.6477 72.3076 19.2528C72.8819 19.858 73.1691 20.6785 73.1691 21.7041C73.1691 22.7605 72.8614 23.6016 72.2563 24.2272C71.6512 24.8528 70.8204 25.1605 69.7742 25.1605C68.7691 25.1605 67.9589 24.8631 67.3742 24.2682C66.7691 23.6836 66.4717 22.8734 66.4717 21.8477ZM68.0614 21.7964C68.0614 22.4734 68.2153 22.9964 68.523 23.3554C68.8307 23.7144 69.2717 23.8887 69.846 23.8887C70.3999 23.8887 70.8307 23.7144 71.1178 23.3554C71.405 22.9964 71.5589 22.4631 71.5589 21.7554C71.5589 21.058 71.405 20.5246 71.1076 20.1657C70.8101 19.8067 70.3794 19.6323 69.8358 19.6323C69.2717 19.6323 68.8409 19.8169 68.523 20.1964C68.2153 20.5759 68.0614 21.099 68.0614 21.7964Z" fill="white"/>
<path d="M78.2258 19.7523V23.0959C78.2258 23.7933 78.3899 24.3062 78.7079 24.6549C79.0258 25.0036 79.5181 25.1677 80.1643 25.1677C80.3797 25.1677 80.6053 25.1472 80.8309 25.0959C81.0566 25.0446 81.2207 25.0036 81.313 24.9421V23.6703C81.2207 23.7318 81.1079 23.7831 80.9848 23.8241C80.8617 23.8651 80.7489 23.8857 80.6668 23.8857C80.3591 23.8857 80.1232 23.8036 79.9797 23.6395C79.8361 23.4754 79.7643 23.1882 79.7643 22.7882V19.7421H81.3232V18.4908H79.7745V16.5626L78.2361 17.0344V18.501H75.9489V17.7113C75.9489 17.3215 76.0309 17.0241 76.2053 16.819C76.3796 16.6139 76.6258 16.5215 76.9438 16.5215C77.1079 16.5215 77.2514 16.5421 77.3848 16.5831C77.5079 16.6241 77.6002 16.6651 77.6514 16.6959V15.3728C77.5386 15.3318 77.4155 15.3113 77.272 15.2908C77.1284 15.2703 76.9643 15.26 76.7797 15.26C76.0822 15.26 75.5079 15.4754 75.0668 15.9164C74.6258 16.3574 74.4002 16.9113 74.4002 17.5985V18.501H73.313V19.7523H74.4002V25.0139H75.9489V19.7523H78.2258V19.7523Z" fill="white"/>
<path d="M39.8359 15.92V25.0072H38.2564V17.8892H38.2359L35.4154 25.0072H34.3692L31.4769 17.8892H31.4564V25.0072H30V15.92H32.2564L34.8718 22.6585H34.9128L37.6718 15.92H39.8359Z" fill="white"/>
<rect x="0.5" y="0.5" width="89" height="31" rx="3.5" stroke="black"/>
</svg>
