<svg width="124" height="34" viewBox="0 0 124 34" fill="none" xmlns="http://www.w3.org/2000/svg">
<rect x="1" y="1" width="122" height="32" rx="4" fill="#202020"/>
<rect x="0.5" y="0.5" width="123" height="33" rx="4.5" stroke="black" stroke-opacity="0.1"/>
<g clip-path="url(#clip0_974_1778)">
<g clip-path="url(#clip1_974_1778)">
<path d="M8.28125 11C8.28125 10.5858 8.61704 10.25 9.03125 10.25H24.9687C25.383 10.25 25.7188 10.5858 25.7188 11V22.3438C25.7188 24.0524 24.3336 25.4375 22.625 25.4375H11.375C9.66637 25.4375 8.28125 24.0524 8.28125 22.3438V11Z" fill="url(#paint0_linear_974_1778)"/>
<mask id="mask0_974_1778" style="mask-type:alpha" maskUnits="userSpaceOnUse" x="8" y="10" width="18" height="16">
<path d="M8.28125 11C8.28125 10.5858 8.61704 10.25 9.03125 10.25H24.9687C25.383 10.25 25.7188 10.5858 25.7188 11V22.3438C25.7188 24.0524 24.3336 25.4375 22.625 25.4375H11.375C9.66637 25.4375 8.28125 24.0524 8.28125 22.3438V11Z" fill="url(#paint1_linear_974_1778)"/>
</mask>
<g mask="url(#mask0_974_1778)">
<g filter="url(#filter0_dd_974_1778)">
<path d="M12.7812 10.8125V8.5625H21.2187V10.8125" stroke="url(#paint2_linear_974_1778)" stroke-width="1.125" stroke-linecap="round"/>
</g>
</g>
<g filter="url(#filter1_dd_974_1778)">
<path d="M16.719 14.1875H13.344V17.5625H16.719V14.1875Z" fill="#F25022"/>
<path d="M20.6562 14.1875H17.2812V17.5625H20.6562V14.1875Z" fill="#7FBA00"/>
<path d="M20.6562 18.125H17.2812V21.5H20.6562V18.125Z" fill="#FFB900"/>
<path d="M16.7188 18.125H13.3438V21.5H16.7188V18.125Z" fill="#00A4EF"/>
</g>
<path d="M12.7812 10.8125V9.125C12.7812 8.81434 13.0331 8.5625 13.3438 8.5625H20.6563C20.9669 8.5625 21.2188 8.81434 21.2188 9.125V10.8125" stroke="url(#paint3_linear_974_1778)" stroke-width="1.125" stroke-linecap="round"/>
<rect x="13.3438" y="8" width="7.3125" height="1.125" fill="url(#paint4_linear_974_1778)"/>
<mask id="mask1_974_1778" style="mask-type:alpha" maskUnits="userSpaceOnUse" x="13" y="8" width="8" height="2">
<rect x="13.3438" y="8" width="7.3125" height="1.125" fill="url(#paint5_linear_974_1778)"/>
</mask>
<g mask="url(#mask1_974_1778)">
<g filter="url(#filter2_dd_974_1778)">
<rect x="11.7189" y="8.56274" width="1.625" height="2.8125" fill="#C4C4C4"/>
</g>
</g>
</g>
</g>
<path d="M33.1855 13H30.6426V8.09863H31.2168V12.4805H33.1855V13ZM36.3403 13H35.7798V12.4531H35.7661C35.6453 12.6628 35.4961 12.82 35.3184 12.9248C35.1429 13.0296 34.9378 13.082 34.7031 13.082C34.375 13.082 34.1095 12.9863 33.9067 12.7949C33.7039 12.6035 33.6025 12.3494 33.6025 12.0327C33.6025 11.7342 33.7051 11.487 33.9102 11.291C34.1152 11.0951 34.4058 10.9697 34.7817 10.915L35.7798 10.7817V10.7031C35.7798 10.4092 35.7114 10.2007 35.5747 10.0776C35.438 9.95231 35.2557 9.88965 35.0278 9.88965C34.8455 9.88965 34.6701 9.92383 34.5015 9.99219C34.3328 10.0605 34.1745 10.1654 34.0264 10.3066L33.6982 9.96826C33.8942 9.77913 34.1027 9.64014 34.3237 9.55127C34.5448 9.4624 34.7909 9.41797 35.062 9.41797C35.4858 9.41797 35.8049 9.52734 36.019 9.74609C36.2332 9.96257 36.3403 10.2884 36.3403 10.7236V13ZM35.7798 11.5781V11.2295L34.9355 11.3457C34.6781 11.3822 34.4844 11.4471 34.3545 11.5405C34.2246 11.634 34.1597 11.7809 34.1597 11.9814C34.1597 12.1911 34.2201 12.3517 34.3408 12.4634C34.4639 12.5728 34.6131 12.6274 34.7886 12.6274C35.0916 12.6274 35.332 12.5283 35.5098 12.3301C35.6898 12.1318 35.7798 11.8812 35.7798 11.5781ZM39.9019 13H39.3413V12.4531H39.3276C39.2069 12.6628 39.0576 12.82 38.8799 12.9248C38.7044 13.0296 38.4993 13.082 38.2646 13.082C37.9365 13.082 37.6711 12.9863 37.4683 12.7949C37.2655 12.6035 37.1641 12.3494 37.1641 12.0327C37.1641 11.7342 37.2666 11.487 37.4717 11.291C37.6768 11.0951 37.9673 10.9697 38.3433 10.915L39.3413 10.7817V10.7031C39.3413 10.4092 39.2729 10.2007 39.1362 10.0776C38.9995 9.95231 38.8172 9.88965 38.5894 9.88965C38.4071 9.88965 38.2316 9.92383 38.063 9.99219C37.8944 10.0605 37.736 10.1654 37.5879 10.3066L37.2598 9.96826C37.4557 9.77913 37.6642 9.64014 37.8853 9.55127C38.1063 9.4624 38.3524 9.41797 38.6235 9.41797C39.0474 9.41797 39.3664 9.52734 39.5806 9.74609C39.7948 9.96257 39.9019 10.2884 39.9019 10.7236V13ZM39.3413 11.5781V11.2295L38.4971 11.3457C38.2396 11.3822 38.0459 11.4471 37.916 11.5405C37.7861 11.634 37.7212 11.7809 37.7212 11.9814C37.7212 12.1911 37.7816 12.3517 37.9023 12.4634C38.0254 12.5728 38.1746 12.6274 38.3501 12.6274C38.6532 12.6274 38.8936 12.5283 39.0713 12.3301C39.2513 12.1318 39.3413 11.8812 39.3413 11.5781ZM43.3984 12.4053C43.2686 12.6309 43.1034 12.8006 42.9028 12.9146C42.7046 13.0262 42.4688 13.082 42.1953 13.082C41.7555 13.082 41.4035 12.9259 41.1392 12.6138C40.8771 12.2993 40.7461 11.8721 40.7461 11.332C40.7461 10.7533 40.8919 10.2896 41.1836 9.94092C41.4753 9.59229 41.8638 9.41797 42.3491 9.41797C42.5907 9.41797 42.798 9.46582 42.9712 9.56152C43.1466 9.65495 43.2891 9.79622 43.3984 9.98535H43.4121V7.81836H43.9727V13H43.4121V12.4053H43.3984ZM41.3203 11.3047C41.3203 11.708 41.4137 12.027 41.6006 12.2617C41.7897 12.4941 42.0426 12.6104 42.3594 12.6104C42.6738 12.6104 42.9279 12.4976 43.1216 12.272C43.3153 12.0464 43.4121 11.7616 43.4121 11.4175V10.9014C43.4121 10.6188 43.3175 10.3796 43.1284 10.1836C42.9416 9.98763 42.7057 9.88965 42.4209 9.88965C42.0791 9.88965 41.8102 10.015 41.6143 10.2656C41.4183 10.5163 41.3203 10.8626 41.3203 11.3047ZM45.3945 8.6626C45.2806 8.6626 45.1849 8.625 45.1074 8.5498C45.0299 8.47233 44.9912 8.37777 44.9912 8.26611C44.9912 8.15446 45.0299 8.06104 45.1074 7.98584C45.1849 7.90837 45.2806 7.86963 45.3945 7.86963C45.5085 7.86963 45.6042 7.90837 45.6816 7.98584C45.7591 8.06104 45.7979 8.15446 45.7979 8.26611C45.7979 8.37777 45.7591 8.47233 45.6816 8.5498C45.6042 8.625 45.5085 8.6626 45.3945 8.6626ZM45.668 13H45.1074V9.5H45.668V13ZM51.2017 13H50.6411V12.4531H50.6274C50.5067 12.6628 50.3574 12.82 50.1797 12.9248C50.0042 13.0296 49.7992 13.082 49.5645 13.082C49.2363 13.082 48.9709 12.9863 48.7681 12.7949C48.5653 12.6035 48.4639 12.3494 48.4639 12.0327C48.4639 11.7342 48.5664 11.487 48.7715 11.291C48.9766 11.0951 49.2671 10.9697 49.6431 10.915L50.6411 10.7817V10.7031C50.6411 10.4092 50.5728 10.2007 50.436 10.0776C50.2993 9.95231 50.117 9.88965 49.8892 9.88965C49.7069 9.88965 49.5314 9.92383 49.3628 9.99219C49.1942 10.0605 49.0358 10.1654 48.8877 10.3066L48.5596 9.96826C48.7555 9.77913 48.964 9.64014 49.1851 9.55127C49.4061 9.4624 49.6522 9.41797 49.9233 9.41797C50.3472 9.41797 50.6662 9.52734 50.8804 9.74609C51.0946 9.96257 51.2017 10.2884 51.2017 10.7236V13ZM50.6411 11.5781V11.2295L49.7969 11.3457C49.5394 11.3822 49.3457 11.4471 49.2158 11.5405C49.0859 11.634 49.021 11.7809 49.021 11.9814C49.021 12.1911 49.0814 12.3517 49.2021 12.4634C49.3252 12.5728 49.4744 12.6274 49.6499 12.6274C49.953 12.6274 50.1934 12.5283 50.3711 12.3301C50.5511 12.1318 50.6411 11.8812 50.6411 11.5781ZM52.2852 13V7.81836H52.8457V13H52.2852ZM53.9805 13V7.81836H54.541V13H53.9805ZM58.1538 13H57.5933V12.4531H57.5796C57.4588 12.6628 57.3096 12.82 57.1318 12.9248C56.9564 13.0296 56.7513 13.082 56.5166 13.082C56.1885 13.082 55.923 12.9863 55.7202 12.7949C55.5174 12.6035 55.416 12.3494 55.416 12.0327C55.416 11.7342 55.5186 11.487 55.7236 11.291C55.9287 11.0951 56.2192 10.9697 56.5952 10.915L57.5933 10.7817V10.7031C57.5933 10.4092 57.5249 10.2007 57.3882 10.0776C57.2515 9.95231 57.0692 9.88965 56.8413 9.88965C56.659 9.88965 56.4836 9.92383 56.3149 9.99219C56.1463 10.0605 55.988 10.1654 55.8398 10.3066L55.5117 9.96826C55.7077 9.77913 55.9162 9.64014 56.1372 9.55127C56.3582 9.4624 56.6043 9.41797 56.8755 9.41797C57.2993 9.41797 57.6183 9.52734 57.8325 9.74609C58.0467 9.96257 58.1538 10.2884 58.1538 10.7236V13ZM57.5933 11.5781V11.2295L56.749 11.3457C56.4915 11.3822 56.2979 11.4471 56.168 11.5405C56.0381 11.634 55.9731 11.7809 55.9731 11.9814C55.9731 12.1911 56.0335 12.3517 56.1543 12.4634C56.2773 12.5728 56.4266 12.6274 56.6021 12.6274C56.9051 12.6274 57.1455 12.5283 57.3232 12.3301C57.5033 12.1318 57.5933 11.8812 57.5933 11.5781Z" fill="white" fill-opacity="0.786"/>
<path d="M39.2275 25H37.96V20.0854C37.96 19.8634 37.9653 19.6217 37.9761 19.3604C37.9904 19.0954 38.0083 18.8143 38.0298 18.5171H37.9976C37.9546 18.7212 37.9134 18.8966 37.874 19.0435C37.8382 19.1867 37.8024 19.3013 37.7666 19.3872L35.5054 25H34.6245L32.3525 19.4355C32.3239 19.3568 32.2881 19.2404 32.2451 19.0864C32.2057 18.9325 32.1628 18.7427 32.1162 18.5171H32.084C32.1055 18.7749 32.1198 19.0488 32.127 19.3389C32.1341 19.6253 32.1377 19.9279 32.1377 20.2466V25H30.9561V17.2979H32.7607L34.7642 22.3037C34.8429 22.4935 34.9074 22.6689 34.9575 22.8301C35.0112 22.9876 35.0524 23.1344 35.0811 23.2705H35.1133C35.1777 23.0664 35.2386 22.882 35.2959 22.7173C35.3532 22.5526 35.4069 22.4093 35.457 22.2876L37.4873 17.2979H39.2275V25ZM41.6177 18.4365C41.3885 18.4365 41.1987 18.3631 41.0483 18.2163C40.8979 18.0695 40.8228 17.8887 40.8228 17.6738C40.8228 17.4518 40.8979 17.2692 41.0483 17.126C41.1987 16.9827 41.3885 16.9111 41.6177 16.9111C41.8504 16.9111 42.042 16.9827 42.1924 17.126C42.3428 17.2692 42.418 17.4518 42.418 17.6738C42.418 17.8923 42.3428 18.0749 42.1924 18.2217C42.042 18.3649 41.8504 18.4365 41.6177 18.4365ZM42.2354 25H40.9839V19.5H42.2354V25ZM47.9824 24.6616C47.7103 24.8263 47.4399 24.9445 47.1714 25.0161C46.9028 25.0913 46.611 25.1289 46.2959 25.1289C45.4508 25.1289 44.7741 24.8818 44.2656 24.3877C43.7607 23.8936 43.5083 23.2222 43.5083 22.3735C43.5083 21.4604 43.7697 20.7318 44.2925 20.1875C44.8188 19.6432 45.5278 19.3711 46.4194 19.3711C46.731 19.3711 47.0138 19.4051 47.2681 19.4731C47.5259 19.5376 47.7873 19.645 48.0522 19.7954L47.5635 20.6655C47.3773 20.5617 47.1947 20.4865 47.0156 20.4399C46.8366 20.3898 46.6414 20.3647 46.4302 20.3647C45.9038 20.3647 45.4974 20.5384 45.2109 20.8857C44.9245 21.2331 44.7812 21.6932 44.7812 22.2661C44.7812 22.8677 44.9352 23.3296 45.2432 23.6519C45.5547 23.9741 45.945 24.1353 46.4141 24.1353C46.5573 24.1353 46.722 24.1102 46.9082 24.0601C47.0944 24.0063 47.2824 23.9222 47.4722 23.8076L47.9824 24.6616ZM52.1021 20.5474C52.034 20.5295 51.9678 20.5169 51.9033 20.5098C51.8424 20.499 51.7708 20.4937 51.6885 20.4937C51.2409 20.4937 50.8971 20.6584 50.6572 20.9878C50.4173 21.3172 50.2974 21.7469 50.2974 22.2769V25H49.0459V19.5H50.2974V20.5581H50.3188C50.4478 20.1785 50.6375 19.8921 50.8882 19.6987C51.1388 19.5018 51.4342 19.4033 51.7744 19.4033C51.8711 19.4033 51.957 19.4087 52.0322 19.4194C52.111 19.4302 52.1862 19.4463 52.2578 19.4678L52.1021 20.5474ZM55.5557 25.1289C54.6963 25.1289 54.0142 24.8729 53.5093 24.3608C53.008 23.8452 52.7573 23.1559 52.7573 22.293C52.7609 21.3799 53.0223 20.6655 53.5415 20.1499C54.0607 19.6307 54.7679 19.3711 55.6631 19.3711C56.526 19.3675 57.1992 19.6217 57.6826 20.1338C58.1696 20.6423 58.4131 21.3315 58.4131 22.2017C58.4131 23.0968 58.1553 23.8094 57.6396 24.3394C57.1276 24.8657 56.4329 25.1289 55.5557 25.1289ZM55.6147 24.1353C56.1125 24.1353 56.4902 23.9723 56.748 23.6465C57.0094 23.3206 57.1401 22.8498 57.1401 22.2339C57.1401 21.6252 57.0094 21.1615 56.748 20.8428C56.4867 20.5241 56.1071 20.3647 55.6094 20.3647C55.1188 20.3647 54.7321 20.533 54.4492 20.8696C54.1699 21.2062 54.0303 21.6717 54.0303 22.2661C54.0303 22.8641 54.1699 23.326 54.4492 23.6519C54.7285 23.9741 55.117 24.1353 55.6147 24.1353ZM59.1543 24.5596L59.6968 23.6787C59.9116 23.8291 60.139 23.9508 60.3789 24.0439C60.6224 24.1335 60.8856 24.1782 61.1685 24.1782C61.4764 24.1782 61.7145 24.1227 61.8828 24.0117C62.0547 23.8971 62.1406 23.7271 62.1406 23.5015C62.1406 23.3224 62.069 23.1738 61.9258 23.0557C61.7861 22.9339 61.5462 22.8337 61.2061 22.7549C60.5186 22.5938 60.0352 22.3807 59.7559 22.1157C59.4801 21.8507 59.3423 21.5016 59.3423 21.0684C59.3423 20.5706 59.5356 20.1642 59.9224 19.8491C60.3091 19.5304 60.8158 19.3711 61.4424 19.3711C61.7539 19.3711 62.0511 19.4123 62.334 19.4946C62.6169 19.5734 62.8926 19.7005 63.1611 19.876L62.6562 20.7354C62.4199 20.585 62.2033 20.4775 62.0063 20.4131C61.8094 20.3486 61.6071 20.3164 61.3994 20.3164C61.1058 20.3164 60.8766 20.3719 60.7119 20.4829C60.5508 20.5903 60.4702 20.7407 60.4702 20.9341C60.4702 21.1382 60.5526 21.2904 60.7173 21.3906C60.8856 21.4873 61.1667 21.5822 61.5605 21.6753C62.1549 21.8185 62.59 22.0262 62.8657 22.2983C63.1414 22.5669 63.2793 22.9268 63.2793 23.3779C63.2793 23.9115 63.0841 24.3376 62.6938 24.6562C62.3071 24.9714 61.7826 25.1289 61.1201 25.1289C60.762 25.1289 60.4183 25.0824 60.0889 24.9893C59.763 24.8926 59.4515 24.7493 59.1543 24.5596ZM66.8779 25.1289C66.0186 25.1289 65.3364 24.8729 64.8315 24.3608C64.3302 23.8452 64.0796 23.1559 64.0796 22.293C64.0832 21.3799 64.3446 20.6655 64.8638 20.1499C65.383 19.6307 66.0902 19.3711 66.9854 19.3711C67.8483 19.3675 68.5215 19.6217 69.0049 20.1338C69.4919 20.6423 69.7354 21.3315 69.7354 22.2017C69.7354 23.0968 69.4775 23.8094 68.9619 24.3394C68.4499 24.8657 67.7552 25.1289 66.8779 25.1289ZM66.937 24.1353C67.4347 24.1353 67.8125 23.9723 68.0703 23.6465C68.3317 23.3206 68.4624 22.8498 68.4624 22.2339C68.4624 21.6252 68.3317 21.1615 68.0703 20.8428C67.8089 20.5241 67.4294 20.3647 66.9316 20.3647C66.4411 20.3647 66.0544 20.533 65.7715 20.8696C65.4922 21.2062 65.3525 21.6717 65.3525 22.2661C65.3525 22.8641 65.4922 23.326 65.7715 23.6519C66.0508 23.9741 66.4393 24.1353 66.937 24.1353ZM73.9839 17.8403C73.8836 17.8009 73.7923 17.7741 73.71 17.7598C73.6276 17.7419 73.5381 17.7329 73.4414 17.7329C73.1764 17.7329 72.9759 17.8099 72.8398 17.9639C72.7074 18.1143 72.6411 18.3327 72.6411 18.6191V19.5H73.9141V20.4775H72.6411V25H71.395V20.4775H70.4604V19.5H71.395V18.5547C71.395 17.9961 71.5741 17.5539 71.9321 17.228C72.2938 16.8986 72.7718 16.7339 73.3662 16.7339C73.5524 16.7339 73.7135 16.7464 73.8496 16.7715C73.9857 16.7965 74.1271 16.8324 74.2739 16.8789L73.9839 17.8403ZM77.7974 24.9248C77.6362 24.9928 77.4679 25.043 77.2925 25.0752C77.117 25.1074 76.929 25.1235 76.7285 25.1235C76.2201 25.1235 75.828 24.9893 75.5522 24.7207C75.2801 24.4486 75.144 24.0439 75.144 23.5068V20.4775H74.2202V19.5H75.144V18.1626L76.3901 17.7866V19.5H77.7061V20.4775H76.3901V23.4048C76.3901 23.6733 76.4385 23.8667 76.5352 23.9849C76.6354 24.103 76.7894 24.1621 76.9971 24.1621C77.0973 24.1621 77.1922 24.1514 77.2817 24.1299C77.3748 24.1048 77.4572 24.0744 77.5288 24.0386L77.7974 24.9248ZM81.2939 24.4468L81.8633 23.4639C82.2106 23.6787 82.5347 23.8309 82.8354 23.9204C83.1362 24.0063 83.4728 24.0493 83.8452 24.0493C84.2892 24.0493 84.6383 23.9544 84.8926 23.7646C85.1504 23.5713 85.2793 23.2956 85.2793 22.9375C85.2793 22.6117 85.1719 22.3556 84.957 22.1694C84.7458 21.9797 84.3859 21.806 83.8774 21.6484C83.0933 21.4157 82.5168 21.1274 82.1479 20.7837C81.7791 20.4399 81.5947 19.9744 81.5947 19.3872C81.5947 18.7498 81.8328 18.2217 82.3091 17.8027C82.7853 17.3802 83.4316 17.1689 84.248 17.1689C84.6061 17.1689 84.9588 17.2083 85.3062 17.2871C85.6535 17.3659 85.9972 17.4876 86.3374 17.6523L85.8594 18.6729C85.5622 18.5189 85.2775 18.4097 85.0054 18.3452C84.7368 18.2808 84.4629 18.2485 84.1836 18.2485C83.7754 18.2485 83.4531 18.3381 83.2168 18.5171C82.984 18.6961 82.8677 18.9486 82.8677 19.2744C82.8677 19.5645 82.9751 19.7936 83.1899 19.9619C83.4048 20.1266 83.7736 20.2896 84.2964 20.4507C85.0985 20.6906 85.675 20.9896 86.0259 21.3477C86.3804 21.7057 86.5576 22.1981 86.5576 22.8247C86.5576 23.4979 86.3177 24.0511 85.8379 24.4844C85.3581 24.9141 84.6742 25.1289 83.7861 25.1289C83.3421 25.1289 82.9089 25.0734 82.4863 24.9624C82.0638 24.8478 81.6663 24.6759 81.2939 24.4468ZM90.4409 24.9248C90.2798 24.9928 90.1115 25.043 89.936 25.0752C89.7606 25.1074 89.5726 25.1235 89.3721 25.1235C88.8636 25.1235 88.4715 24.9893 88.1958 24.7207C87.9237 24.4486 87.7876 24.0439 87.7876 23.5068V20.4775H86.8638V19.5H87.7876V18.1626L89.0337 17.7866V19.5H90.3496V20.4775H89.0337V23.4048C89.0337 23.6733 89.082 23.8667 89.1787 23.9849C89.279 24.103 89.4329 24.1621 89.6406 24.1621C89.7409 24.1621 89.8358 24.1514 89.9253 24.1299C90.0184 24.1048 90.1007 24.0744 90.1724 24.0386L90.4409 24.9248ZM93.8623 25.1289C93.0029 25.1289 92.3208 24.8729 91.8159 24.3608C91.3146 23.8452 91.064 23.1559 91.064 22.293C91.0675 21.3799 91.3289 20.6655 91.8481 20.1499C92.3674 19.6307 93.0745 19.3711 93.9697 19.3711C94.8327 19.3675 95.5059 19.6217 95.9893 20.1338C96.4762 20.6423 96.7197 21.3315 96.7197 22.2017C96.7197 23.0968 96.4619 23.8094 95.9463 24.3394C95.4342 24.8657 94.7396 25.1289 93.8623 25.1289ZM93.9214 24.1353C94.4191 24.1353 94.7969 23.9723 95.0547 23.6465C95.3161 23.3206 95.4468 22.8498 95.4468 22.2339C95.4468 21.6252 95.3161 21.1615 95.0547 20.8428C94.7933 20.5241 94.4137 20.3647 93.916 20.3647C93.4255 20.3647 93.0387 20.533 92.7559 20.8696C92.4766 21.2062 92.3369 21.6717 92.3369 22.2661C92.3369 22.8641 92.4766 23.326 92.7559 23.6519C93.0352 23.9741 93.4237 24.1353 93.9214 24.1353ZM101.054 20.5474C100.986 20.5295 100.92 20.5169 100.855 20.5098C100.795 20.499 100.723 20.4937 100.641 20.4937C100.193 20.4937 99.8493 20.6584 99.6094 20.9878C99.3695 21.3172 99.2495 21.7469 99.2495 22.2769V25H97.998V19.5H99.2495V20.5581H99.271C99.3999 20.1785 99.5897 19.8921 99.8403 19.6987C100.091 19.5018 100.386 19.4033 100.727 19.4033C100.823 19.4033 100.909 19.4087 100.984 19.4194C101.063 19.4302 101.138 19.4463 101.21 19.4678L101.054 20.5474ZM106.721 22.5776H102.966C102.988 23.0968 103.138 23.4925 103.417 23.7646C103.697 24.0332 104.087 24.1675 104.588 24.1675C104.792 24.1675 105.025 24.1263 105.287 24.0439C105.548 23.9616 105.806 23.8291 106.06 23.6465L106.624 24.4253C106.284 24.6724 105.938 24.8514 105.587 24.9624C105.236 25.0734 104.85 25.1289 104.427 25.1289C103.571 25.1289 102.905 24.8836 102.429 24.3931C101.953 23.8989 101.713 23.2096 101.709 22.3252C101.709 21.4443 101.955 20.7318 102.445 20.1875C102.939 19.6432 103.571 19.3711 104.341 19.3711C105.079 19.3711 105.659 19.6038 106.082 20.0693C106.508 20.5312 106.721 21.1865 106.721 22.0352V22.5776ZM105.512 21.7129C105.512 21.2402 105.408 20.8857 105.201 20.6494C104.997 20.4095 104.707 20.2896 104.331 20.2896C103.976 20.2896 103.674 20.4185 103.423 20.6763C103.176 20.9305 103.024 21.276 102.966 21.7129H105.512Z" fill="white"/>
<path d="M108.354 20.0166L107.876 21.541H107.473L107.852 20.0166H108.354ZM109.558 20.6626C109.444 20.6626 109.348 20.625 109.271 20.5498C109.193 20.4723 109.154 20.3778 109.154 20.2661C109.154 20.1545 109.193 20.061 109.271 19.9858C109.348 19.9084 109.444 19.8696 109.558 19.8696C109.672 19.8696 109.767 19.9084 109.845 19.9858C109.922 20.061 109.961 20.1545 109.961 20.2661C109.961 20.3778 109.922 20.4723 109.845 20.5498C109.767 20.625 109.672 20.6626 109.558 20.6626ZM109.831 25H109.271V21.5H109.831V25ZM110.638 24.7368L110.904 24.3062C111.057 24.4064 111.206 24.4827 111.352 24.5352C111.498 24.5853 111.655 24.6104 111.824 24.6104C112.063 24.6104 112.244 24.5659 112.367 24.4771C112.493 24.3882 112.555 24.2549 112.555 24.0771C112.555 23.9336 112.499 23.8128 112.388 23.7148C112.278 23.6146 112.106 23.5348 111.872 23.4756C111.434 23.3639 111.134 23.2238 110.973 23.0552C110.811 22.8843 110.73 22.6746 110.73 22.4263C110.73 22.1392 110.838 21.8999 111.055 21.7085C111.271 21.5148 111.573 21.418 111.96 21.418C112.147 21.418 112.325 21.4419 112.494 21.4897C112.662 21.5376 112.834 21.6196 113.01 21.7358L112.76 22.1597C112.601 22.0594 112.457 21.9899 112.33 21.9512C112.204 21.9102 112.077 21.8896 111.947 21.8896C111.721 21.8896 111.549 21.9318 111.431 22.0161C111.312 22.0981 111.253 22.2178 111.253 22.375C111.253 22.5322 111.313 22.6507 111.434 22.7305C111.557 22.8102 111.754 22.8854 112.025 22.9561C112.381 23.0518 112.646 23.1862 112.822 23.3594C113 23.5303 113.088 23.7547 113.088 24.0327C113.088 24.3563 112.973 24.6126 112.743 24.8018C112.515 24.9886 112.202 25.082 111.803 25.082C111.589 25.082 111.383 25.0524 111.185 24.9932C110.989 24.9339 110.806 24.8485 110.638 24.7368ZM115.607 24.959C115.512 24.9977 115.417 25.0262 115.324 25.0444C115.233 25.0649 115.129 25.0752 115.013 25.0752C114.735 25.0752 114.516 24.9943 114.356 24.8325C114.199 24.6685 114.121 24.4269 114.121 24.1079V21.9785H113.519V21.5H114.121V20.6455L114.681 20.4644V21.5H115.563V21.9785H114.681V24.043C114.681 24.2435 114.716 24.3882 114.787 24.4771C114.86 24.5659 114.968 24.6104 115.112 24.6104C115.18 24.6104 115.246 24.6024 115.31 24.5864C115.374 24.5705 115.427 24.5522 115.471 24.5317L115.607 24.959Z" fill="white" fill-opacity="0.786"/>
<defs>
<filter id="filter0_dd_974_1778" x="11.0938" y="7.25" width="11.8125" height="5.625" filterUnits="userSpaceOnUse" color-interpolation-filters="sRGB">
<feFlood flood-opacity="0" result="BackgroundImageFix"/>
<feColorMatrix in="SourceAlpha" type="matrix" values="0 0 0 0 0 0 0 0 0 0 0 0 0 0 0 0 0 0 127 0" result="hardAlpha"/>
<feOffset dy="0.1875"/>
<feGaussianBlur stdDeviation="0.1875"/>
<feColorMatrix type="matrix" values="0 0 0 0 0 0 0 0 0 0 0 0 0 0 0 0 0 0 0.1 0"/>
<feBlend mode="normal" in2="BackgroundImageFix" result="effect1_dropShadow_974_1778"/>
<feColorMatrix in="SourceAlpha" type="matrix" values="0 0 0 0 0 0 0 0 0 0 0 0 0 0 0 0 0 0 127 0" result="hardAlpha"/>
<feOffset dy="0.375"/>
<feGaussianBlur stdDeviation="0.5625"/>
<feColorMatrix type="matrix" values="0 0 0 0 0 0 0 0 0 0 0 0 0 0 0 0 0 0 0.2 0"/>
<feBlend mode="normal" in2="effect1_dropShadow_974_1778" result="effect2_dropShadow_974_1778"/>
<feBlend mode="normal" in="SourceGraphic" in2="effect2_dropShadow_974_1778" result="shape"/>
</filter>
<filter id="filter1_dd_974_1778" x="12.2188" y="13.4375" width="9.5625" height="9.5625" filterUnits="userSpaceOnUse" color-interpolation-filters="sRGB">
<feFlood flood-opacity="0" result="BackgroundImageFix"/>
<feColorMatrix in="SourceAlpha" type="matrix" values="0 0 0 0 0 0 0 0 0 0 0 0 0 0 0 0 0 0 127 0" result="hardAlpha"/>
<feOffset dy="0.1875"/>
<feGaussianBlur stdDeviation="0.1875"/>
<feColorMatrix type="matrix" values="0 0 0 0 1 0 0 0 0 1 0 0 0 0 1 0 0 0 0.6 0"/>
<feBlend mode="normal" in2="BackgroundImageFix" result="effect1_dropShadow_974_1778"/>
<feColorMatrix in="SourceAlpha" type="matrix" values="0 0 0 0 0 0 0 0 0 0 0 0 0 0 0 0 0 0 127 0" result="hardAlpha"/>
<feOffset dy="0.375"/>
<feGaussianBlur stdDeviation="0.5625"/>
<feColorMatrix type="matrix" values="0 0 0 0 1 0 0 0 0 1 0 0 0 0 1 0 0 0 0.6 0"/>
<feBlend mode="normal" in2="effect1_dropShadow_974_1778" result="effect2_dropShadow_974_1778"/>
<feBlend mode="normal" in="SourceGraphic" in2="effect2_dropShadow_974_1778" result="shape"/>
</filter>
<filter id="filter2_dd_974_1778" x="10.5939" y="6.6875" width="12.8124" height="5.06274" filterUnits="userSpaceOnUse" color-interpolation-filters="sRGB">
<feFlood flood-opacity="0" result="BackgroundImageFix"/>
<feColorMatrix in="SourceAlpha" type="matrix" values="0 0 0 0 0 0 0 0 0 0 0 0 0 0 0 0 0 0 127 0" result="hardAlpha"/>
<feOffset dy="-0.75"/>
<feGaussianBlur stdDeviation="0.1875"/>
<feColorMatrix type="matrix" values="0 0 0 0 0 0 0 0 0 0 0 0 0 0 0 0 0 0 0.1 0"/>
<feBlend mode="normal" in2="BackgroundImageFix" result="effect1_dropShadow_974_1778"/>
<feColorMatrix in="SourceAlpha" type="matrix" values="0 0 0 0 0 0 0 0 0 0 0 0 0 0 0 0 0 0 127 0" result="hardAlpha"/>
<feOffset dy="-0.75"/>
<feGaussianBlur stdDeviation="0.5625"/>
<feColorMatrix type="matrix" values="0 0 0 0 0 0 0 0 0 0 0 0 0 0 0 0 0 0 0.2 0"/>
<feBlend mode="normal" in2="effect1_dropShadow_974_1778" result="effect2_dropShadow_974_1778"/>
<feBlend mode="normal" in="SourceGraphic" in2="effect2_dropShadow_974_1778" result="shape"/>
</filter>
<linearGradient id="paint0_linear_974_1778" x1="12.2443" y1="8.00639" x2="15.9039" y2="24.8132" gradientUnits="userSpaceOnUse">
<stop offset="0.270833" stop-color="white"/>
<stop offset="1" stop-color="#DFDFDF"/>
</linearGradient>
<linearGradient id="paint1_linear_974_1778" x1="17" y1="10.25" x2="20.3514" y2="25.9624" gradientUnits="userSpaceOnUse">
<stop stop-color="#0078D4"/>
<stop offset="1" stop-color="#114A8B"/>
</linearGradient>
<linearGradient id="paint2_linear_974_1778" x1="17" y1="8.5625" x2="17.1583" y2="10.9858" gradientUnits="userSpaceOnUse">
<stop stop-color="#28AFEA"/>
<stop offset="1" stop-color="#0078D4"/>
</linearGradient>
<linearGradient id="paint3_linear_974_1778" x1="17" y1="8.5625" x2="17.1583" y2="10.9858" gradientUnits="userSpaceOnUse">
<stop stop-color="#30DAFF"/>
<stop offset="1" stop-color="#0094D4"/>
</linearGradient>
<linearGradient id="paint4_linear_974_1778" x1="16.5938" y1="8" x2="16.5937" y2="9.125" gradientUnits="userSpaceOnUse">
<stop stop-color="#22BCFF"/>
<stop offset="1" stop-color="#0088F0"/>
</linearGradient>
<linearGradient id="paint5_linear_974_1778" x1="16.5938" y1="8" x2="16.5937" y2="9.125" gradientUnits="userSpaceOnUse">
<stop stop-color="#28AFEA"/>
<stop offset="1" stop-color="#3CCBF4"/>
</linearGradient>
<clipPath id="clip0_974_1778">
<rect width="18" height="18" fill="white" transform="translate(8 8)"/>
</clipPath>
<clipPath id="clip1_974_1778">
<rect width="18" height="18" fill="white" transform="translate(8 8)"/>
</clipPath>
</defs>
</svg>
