<svg width="116" height="34" viewBox="0 0 116 34" fill="none" xmlns="http://www.w3.org/2000/svg">
<rect x="1" y="1" width="114" height="32" rx="4" fill="#202020"/>
<rect x="0.5" y="0.5" width="115" height="33" rx="4.5" stroke="black" stroke-opacity="0.1"/>
<path d="M64.2487 14.61L64.0457 14.078C64.517 13.9287 64.8787 13.749 65.1307 13.539C65.3874 13.3337 65.5624 13.119 65.6557 12.895C65.7537 12.671 65.8027 12.4563 65.8027 12.251C65.8027 12.1203 65.7887 11.9943 65.7607 11.873C65.7327 11.7517 65.6837 11.614 65.6137 11.46C65.5437 11.306 65.4457 11.1147 65.3197 10.886L65.8307 10.627C66.008 10.9303 66.134 11.2173 66.2087 11.488C66.288 11.7587 66.3277 11.9967 66.3277 12.202C66.3277 12.496 66.2787 12.762 66.1807 13C66.0874 13.238 65.9614 13.448 65.8027 13.63C65.6487 13.8167 65.4784 13.9753 65.2917 14.106C65.1097 14.2367 64.9254 14.344 64.7387 14.428C64.5567 14.512 64.3934 14.5727 64.2487 14.61ZM65.4597 9.822C65.3617 9.822 65.2777 9.78933 65.2077 9.724C65.1424 9.654 65.1097 9.57233 65.1097 9.479C65.1097 9.38567 65.1424 9.304 65.2077 9.234C65.2777 9.164 65.3617 9.129 65.4597 9.129C65.553 9.129 65.6324 9.164 65.6977 9.234C65.7677 9.304 65.8027 9.38567 65.8027 9.479C65.8027 9.57233 65.7677 9.654 65.6977 9.724C65.6324 9.78933 65.553 9.822 65.4597 9.822ZM67.435 13L67.295 8.002H67.862L68.002 13H67.435ZM70.6249 12.685L70.9049 12.202C70.9982 12.2627 71.1289 12.321 71.2969 12.377C71.4649 12.433 71.6609 12.461 71.8849 12.461C72.1182 12.461 72.3025 12.4377 72.4379 12.391C72.5779 12.3443 72.6782 12.2767 72.7389 12.188C72.8042 12.0947 72.8369 11.9873 72.8369 11.866C72.8369 11.7727 72.8159 11.6583 72.7739 11.523C72.7365 11.383 72.6525 11.1963 72.5219 10.963C72.3912 10.725 72.1905 10.4147 71.9199 10.032L72.4029 9.717C72.6502 10.0577 72.8462 10.3657 72.9909 10.641C73.1402 10.9163 73.2452 11.159 73.3059 11.369C73.3712 11.5743 73.4039 11.7517 73.4039 11.901C73.4039 12.0877 73.3572 12.2697 73.2639 12.447C73.1705 12.6197 73.0142 12.762 72.7949 12.874C72.5755 12.986 72.2722 13.042 71.8849 13.042C71.7169 13.042 71.5535 13.028 71.3949 13C71.2409 12.972 71.0985 12.9323 70.9679 12.881C70.8372 12.825 70.7229 12.7597 70.6249 12.685ZM74.1218 14.61L73.9958 14.036C74.2758 13.9987 74.5325 13.945 74.7658 13.875C75.0038 13.8097 75.2068 13.714 75.3748 13.588C75.5475 13.462 75.6805 13.2963 75.7738 13.091C75.8672 12.8857 75.9138 12.629 75.9138 12.321C75.9138 12.0037 75.8555 11.74 75.7388 11.53C75.6222 11.32 75.4705 11.215 75.2838 11.215C75.1858 11.215 75.0948 11.2523 75.0108 11.327C74.9268 11.4017 74.8568 11.502 74.8008 11.628C74.7495 11.754 74.7238 11.8917 74.7238 12.041C74.7238 12.125 74.7425 12.195 74.7798 12.251C74.8172 12.3023 74.8708 12.3443 74.9408 12.377C75.0155 12.405 75.1088 12.426 75.2208 12.44C75.3328 12.454 75.4635 12.461 75.6128 12.461H77.0898C77.1878 12.461 77.2578 12.489 77.2998 12.545C77.3465 12.5963 77.3698 12.6593 77.3698 12.734C77.3698 12.8087 77.3372 12.8787 77.2718 12.944C77.2065 13.0047 77.1225 13.035 77.0198 13.035H75.3468C75.1368 13.035 74.9408 13.0047 74.7588 12.944C74.5815 12.8833 74.4368 12.79 74.3248 12.664C74.2175 12.5333 74.1638 12.363 74.1638 12.153C74.1638 11.957 74.1942 11.7703 74.2548 11.593C74.3155 11.411 74.3972 11.25 74.4998 11.11C74.6072 10.9653 74.7308 10.851 74.8708 10.767C75.0155 10.683 75.1718 10.641 75.3398 10.641C75.5545 10.641 75.7458 10.704 75.9138 10.83C76.0818 10.956 76.2148 11.1473 76.3128 11.404C76.4108 11.656 76.4598 11.9757 76.4598 12.363C76.4598 12.797 76.3712 13.1703 76.1938 13.483C76.0212 13.8003 75.7598 14.0523 75.4098 14.239C75.0645 14.4257 74.6352 14.5493 74.1218 14.61ZM77.0176 13.035L77.0806 12.461C77.3466 12.461 77.5332 12.4353 77.6406 12.384C77.7479 12.3327 77.8086 12.2417 77.8226 12.111C77.8412 11.9803 77.8459 11.7983 77.8366 11.565L77.7176 8.002H78.2986L78.4106 11.551C78.4199 11.789 78.4572 11.9757 78.5226 12.111C78.5926 12.2417 78.6859 12.3327 78.8026 12.384C78.9192 12.4353 79.0476 12.461 79.1876 12.461C79.2856 12.461 79.3556 12.489 79.3976 12.545C79.4442 12.5963 79.4676 12.6593 79.4676 12.734C79.4676 12.8087 79.4349 12.8787 79.3696 12.944C79.3042 13.0047 79.2202 13.035 79.1176 13.035C78.9216 13.035 78.7582 13.0047 78.6276 12.944C78.5016 12.8787 78.4012 12.797 78.3266 12.699C78.2566 12.5963 78.2099 12.489 78.1866 12.377L78.3336 12.391C78.2869 12.531 78.2099 12.65 78.1026 12.748C77.9999 12.8413 77.8599 12.9137 77.6826 12.965C77.5052 13.0117 77.2836 13.035 77.0176 13.035ZM79.1162 13.035L79.1862 12.461C79.4149 12.461 79.5969 12.447 79.7322 12.419C79.8675 12.391 79.9655 12.335 80.0262 12.251C80.0869 12.1623 80.1172 12.0317 80.1172 11.859C80.1172 11.7423 80.0985 11.6047 80.0612 11.446C80.0239 11.2827 79.9749 11.11 79.9142 10.928C79.8535 10.746 79.7882 10.5663 79.7182 10.389L80.2852 10.179C80.3459 10.3283 80.4019 10.4987 80.4532 10.69C80.5092 10.8813 80.5559 11.0703 80.5932 11.257C80.6305 11.4437 80.6492 11.607 80.6492 11.747C80.6492 11.9337 80.6282 12.0993 80.5862 12.244C80.5489 12.384 80.4905 12.5053 80.4112 12.608C80.3319 12.706 80.2292 12.7877 80.1032 12.853C79.9819 12.9137 79.8395 12.9603 79.6762 12.993C79.5129 13.021 79.3262 13.035 79.1162 13.035ZM80.0122 9.451C79.9142 9.451 79.8302 9.41833 79.7602 9.353C79.6949 9.283 79.6622 9.20133 79.6622 9.108C79.6622 9.01467 79.6949 8.933 79.7602 8.863C79.8302 8.793 79.9142 8.758 80.0122 8.758C80.1055 8.758 80.1849 8.793 80.2502 8.863C80.3202 8.933 80.3552 9.01467 80.3552 9.108C80.3552 9.20133 80.3202 9.283 80.2502 9.353C80.1849 9.41833 80.1055 9.451 80.0122 9.451ZM81.6401 13L81.5001 8.002H82.0671L82.2071 13H81.6401ZM82.9091 12.685L83.1891 12.202C83.2824 12.2627 83.4131 12.321 83.5811 12.377C83.7491 12.433 83.9451 12.461 84.1691 12.461C84.4024 12.461 84.5867 12.4377 84.7221 12.391C84.8621 12.3443 84.9624 12.2767 85.0231 12.188C85.0884 12.0947 85.1211 11.9873 85.1211 11.866C85.1211 11.7727 85.1001 11.6583 85.0581 11.523C85.0207 11.383 84.9367 11.1963 84.8061 10.963C84.6754 10.725 84.4747 10.4147 84.2041 10.032L84.6871 9.717C84.9344 10.0577 85.1304 10.3657 85.2751 10.641C85.4244 10.9163 85.5294 11.159 85.5901 11.369C85.6554 11.5743 85.6881 11.7517 85.6881 11.901C85.6881 12.0877 85.6414 12.2697 85.5481 12.447C85.4547 12.6197 85.2984 12.762 85.0791 12.874C84.8597 12.986 84.5564 13.042 84.1691 13.042C84.0011 13.042 83.8377 13.028 83.6791 13C83.5251 12.972 83.3827 12.9323 83.2521 12.881C83.1214 12.825 83.0071 12.7597 82.9091 12.685Z" fill="white" fill-opacity="0.786"/>
<path d="M17.2275 25H15.96V20.0854C15.96 19.8634 15.9653 19.6217 15.9761 19.3604C15.9904 19.0954 16.0083 18.8143 16.0298 18.5171H15.9976C15.9546 18.7212 15.9134 18.8966 15.874 19.0435C15.8382 19.1867 15.8024 19.3013 15.7666 19.3872L13.5054 25H12.6245L10.3525 19.4355C10.3239 19.3568 10.2881 19.2404 10.2451 19.0864C10.2057 18.9325 10.1628 18.7427 10.1162 18.5171H10.084C10.1055 18.7749 10.1198 19.0488 10.127 19.3389C10.1341 19.6253 10.1377 19.9279 10.1377 20.2466V25H8.95605V17.2979H10.7607L12.7642 22.3037C12.8429 22.4935 12.9074 22.6689 12.9575 22.8301C13.0112 22.9876 13.0524 23.1344 13.0811 23.2705H13.1133C13.1777 23.0664 13.2386 22.882 13.2959 22.7173C13.3532 22.5526 13.4069 22.4093 13.457 22.2876L15.4873 17.2979H17.2275V25ZM19.6177 18.4365C19.3885 18.4365 19.1987 18.3631 19.0483 18.2163C18.8979 18.0695 18.8228 17.8887 18.8228 17.6738C18.8228 17.4518 18.8979 17.2692 19.0483 17.126C19.1987 16.9827 19.3885 16.9111 19.6177 16.9111C19.8504 16.9111 20.042 16.9827 20.1924 17.126C20.3428 17.2692 20.418 17.4518 20.418 17.6738C20.418 17.8923 20.3428 18.0749 20.1924 18.2217C20.042 18.3649 19.8504 18.4365 19.6177 18.4365ZM20.2354 25H18.9839V19.5H20.2354V25ZM25.9824 24.6616C25.7103 24.8263 25.4399 24.9445 25.1714 25.0161C24.9028 25.0913 24.611 25.1289 24.2959 25.1289C23.4508 25.1289 22.7741 24.8818 22.2656 24.3877C21.7607 23.8936 21.5083 23.2222 21.5083 22.3735C21.5083 21.4604 21.7697 20.7318 22.2925 20.1875C22.8188 19.6432 23.5278 19.3711 24.4194 19.3711C24.731 19.3711 25.0138 19.4051 25.2681 19.4731C25.5259 19.5376 25.7873 19.645 26.0522 19.7954L25.5635 20.6655C25.3773 20.5617 25.1947 20.4865 25.0156 20.4399C24.8366 20.3898 24.6414 20.3647 24.4302 20.3647C23.9038 20.3647 23.4974 20.5384 23.2109 20.8857C22.9245 21.2331 22.7812 21.6932 22.7812 22.2661C22.7812 22.8677 22.9352 23.3296 23.2432 23.6519C23.5547 23.9741 23.945 24.1353 24.4141 24.1353C24.5573 24.1353 24.722 24.1102 24.9082 24.0601C25.0944 24.0063 25.2824 23.9222 25.4722 23.8076L25.9824 24.6616ZM30.1021 20.5474C30.034 20.5295 29.9678 20.5169 29.9033 20.5098C29.8424 20.499 29.7708 20.4937 29.6885 20.4937C29.2409 20.4937 28.8971 20.6584 28.6572 20.9878C28.4173 21.3172 28.2974 21.7469 28.2974 22.2769V25H27.0459V19.5H28.2974V20.5581H28.3188C28.4478 20.1785 28.6375 19.8921 28.8882 19.6987C29.1388 19.5018 29.4342 19.4033 29.7744 19.4033C29.8711 19.4033 29.957 19.4087 30.0322 19.4194C30.111 19.4302 30.1862 19.4463 30.2578 19.4678L30.1021 20.5474ZM33.5557 25.1289C32.6963 25.1289 32.0142 24.8729 31.5093 24.3608C31.008 23.8452 30.7573 23.1559 30.7573 22.293C30.7609 21.3799 31.0223 20.6655 31.5415 20.1499C32.0607 19.6307 32.7679 19.3711 33.6631 19.3711C34.526 19.3675 35.1992 19.6217 35.6826 20.1338C36.1696 20.6423 36.4131 21.3315 36.4131 22.2017C36.4131 23.0968 36.1553 23.8094 35.6396 24.3394C35.1276 24.8657 34.4329 25.1289 33.5557 25.1289ZM33.6147 24.1353C34.1125 24.1353 34.4902 23.9723 34.748 23.6465C35.0094 23.3206 35.1401 22.8498 35.1401 22.2339C35.1401 21.6252 35.0094 21.1615 34.748 20.8428C34.4867 20.5241 34.1071 20.3647 33.6094 20.3647C33.1188 20.3647 32.7321 20.533 32.4492 20.8696C32.1699 21.2062 32.0303 21.6717 32.0303 22.2661C32.0303 22.8641 32.1699 23.326 32.4492 23.6519C32.7285 23.9741 33.117 24.1353 33.6147 24.1353ZM37.1543 24.5596L37.6968 23.6787C37.9116 23.8291 38.139 23.9508 38.3789 24.0439C38.6224 24.1335 38.8856 24.1782 39.1685 24.1782C39.4764 24.1782 39.7145 24.1227 39.8828 24.0117C40.0547 23.8971 40.1406 23.7271 40.1406 23.5015C40.1406 23.3224 40.069 23.1738 39.9258 23.0557C39.7861 22.9339 39.5462 22.8337 39.2061 22.7549C38.5186 22.5938 38.0352 22.3807 37.7559 22.1157C37.4801 21.8507 37.3423 21.5016 37.3423 21.0684C37.3423 20.5706 37.5356 20.1642 37.9224 19.8491C38.3091 19.5304 38.8158 19.3711 39.4424 19.3711C39.7539 19.3711 40.0511 19.4123 40.334 19.4946C40.6169 19.5734 40.8926 19.7005 41.1611 19.876L40.6562 20.7354C40.4199 20.585 40.2033 20.4775 40.0063 20.4131C39.8094 20.3486 39.6071 20.3164 39.3994 20.3164C39.1058 20.3164 38.8766 20.3719 38.7119 20.4829C38.5508 20.5903 38.4702 20.7407 38.4702 20.9341C38.4702 21.1382 38.5526 21.2904 38.7173 21.3906C38.8856 21.4873 39.1667 21.5822 39.5605 21.6753C40.1549 21.8185 40.59 22.0262 40.8657 22.2983C41.1414 22.5669 41.2793 22.9268 41.2793 23.3779C41.2793 23.9115 41.0841 24.3376 40.6938 24.6562C40.3071 24.9714 39.7826 25.1289 39.1201 25.1289C38.762 25.1289 38.4183 25.0824 38.0889 24.9893C37.763 24.8926 37.4515 24.7493 37.1543 24.5596ZM44.8779 25.1289C44.0186 25.1289 43.3364 24.8729 42.8315 24.3608C42.3302 23.8452 42.0796 23.1559 42.0796 22.293C42.0832 21.3799 42.3446 20.6655 42.8638 20.1499C43.383 19.6307 44.0902 19.3711 44.9854 19.3711C45.8483 19.3675 46.5215 19.6217 47.0049 20.1338C47.4919 20.6423 47.7354 21.3315 47.7354 22.2017C47.7354 23.0968 47.4775 23.8094 46.9619 24.3394C46.4499 24.8657 45.7552 25.1289 44.8779 25.1289ZM44.937 24.1353C45.4347 24.1353 45.8125 23.9723 46.0703 23.6465C46.3317 23.3206 46.4624 22.8498 46.4624 22.2339C46.4624 21.6252 46.3317 21.1615 46.0703 20.8428C45.8089 20.5241 45.4294 20.3647 44.9316 20.3647C44.4411 20.3647 44.0544 20.533 43.7715 20.8696C43.4922 21.2062 43.3525 21.6717 43.3525 22.2661C43.3525 22.8641 43.4922 23.326 43.7715 23.6519C44.0508 23.9741 44.4393 24.1353 44.937 24.1353ZM51.9839 17.8403C51.8836 17.8009 51.7923 17.7741 51.71 17.7598C51.6276 17.7419 51.5381 17.7329 51.4414 17.7329C51.1764 17.7329 50.9759 17.8099 50.8398 17.9639C50.7074 18.1143 50.6411 18.3327 50.6411 18.6191V19.5H51.9141V20.4775H50.6411V25H49.395V20.4775H48.4604V19.5H49.395V18.5547C49.395 17.9961 49.5741 17.5539 49.9321 17.228C50.2938 16.8986 50.7718 16.7339 51.3662 16.7339C51.5524 16.7339 51.7135 16.7464 51.8496 16.7715C51.9857 16.7965 52.1271 16.8324 52.2739 16.8789L51.9839 17.8403ZM55.7974 24.9248C55.6362 24.9928 55.4679 25.043 55.2925 25.0752C55.117 25.1074 54.929 25.1235 54.7285 25.1235C54.2201 25.1235 53.828 24.9893 53.5522 24.7207C53.2801 24.4486 53.144 24.0439 53.144 23.5068V20.4775H52.2202V19.5H53.144V18.1626L54.3901 17.7866V19.5H55.7061V20.4775H54.3901V23.4048C54.3901 23.6733 54.4385 23.8667 54.5352 23.9849C54.6354 24.103 54.7894 24.1621 54.9971 24.1621C55.0973 24.1621 55.1922 24.1514 55.2817 24.1299C55.3748 24.1048 55.4572 24.0744 55.5288 24.0386L55.7974 24.9248ZM59.2939 24.4468L59.8633 23.4639C60.2106 23.6787 60.5347 23.8309 60.8354 23.9204C61.1362 24.0063 61.4728 24.0493 61.8452 24.0493C62.2892 24.0493 62.6383 23.9544 62.8926 23.7646C63.1504 23.5713 63.2793 23.2956 63.2793 22.9375C63.2793 22.6117 63.1719 22.3556 62.957 22.1694C62.7458 21.9797 62.3859 21.806 61.8774 21.6484C61.0933 21.4157 60.5168 21.1274 60.1479 20.7837C59.7791 20.4399 59.5947 19.9744 59.5947 19.3872C59.5947 18.7498 59.8328 18.2217 60.3091 17.8027C60.7853 17.3802 61.4316 17.1689 62.248 17.1689C62.6061 17.1689 62.9588 17.2083 63.3062 17.2871C63.6535 17.3659 63.9972 17.4876 64.3374 17.6523L63.8594 18.6729C63.5622 18.5189 63.2775 18.4097 63.0054 18.3452C62.7368 18.2808 62.4629 18.2485 62.1836 18.2485C61.7754 18.2485 61.4531 18.3381 61.2168 18.5171C60.984 18.6961 60.8677 18.9486 60.8677 19.2744C60.8677 19.5645 60.9751 19.7936 61.1899 19.9619C61.4048 20.1266 61.7736 20.2896 62.2964 20.4507C63.0985 20.6906 63.675 20.9896 64.0259 21.3477C64.3804 21.7057 64.5576 22.1981 64.5576 22.8247C64.5576 23.4979 64.3177 24.0511 63.8379 24.4844C63.3581 24.9141 62.6742 25.1289 61.7861 25.1289C61.3421 25.1289 60.9089 25.0734 60.4863 24.9624C60.0638 24.8478 59.6663 24.6759 59.2939 24.4468ZM68.4409 24.9248C68.2798 24.9928 68.1115 25.043 67.936 25.0752C67.7606 25.1074 67.5726 25.1235 67.3721 25.1235C66.8636 25.1235 66.4715 24.9893 66.1958 24.7207C65.9237 24.4486 65.7876 24.0439 65.7876 23.5068V20.4775H64.8638V19.5H65.7876V18.1626L67.0337 17.7866V19.5H68.3496V20.4775H67.0337V23.4048C67.0337 23.6733 67.082 23.8667 67.1787 23.9849C67.279 24.103 67.4329 24.1621 67.6406 24.1621C67.7409 24.1621 67.8358 24.1514 67.9253 24.1299C68.0184 24.1048 68.1007 24.0744 68.1724 24.0386L68.4409 24.9248ZM71.8623 25.1289C71.0029 25.1289 70.3208 24.8729 69.8159 24.3608C69.3146 23.8452 69.064 23.1559 69.064 22.293C69.0675 21.3799 69.3289 20.6655 69.8481 20.1499C70.3674 19.6307 71.0745 19.3711 71.9697 19.3711C72.8327 19.3675 73.5059 19.6217 73.9893 20.1338C74.4762 20.6423 74.7197 21.3315 74.7197 22.2017C74.7197 23.0968 74.4619 23.8094 73.9463 24.3394C73.4342 24.8657 72.7396 25.1289 71.8623 25.1289ZM71.9214 24.1353C72.4191 24.1353 72.7969 23.9723 73.0547 23.6465C73.3161 23.3206 73.4468 22.8498 73.4468 22.2339C73.4468 21.6252 73.3161 21.1615 73.0547 20.8428C72.7933 20.5241 72.4137 20.3647 71.916 20.3647C71.4255 20.3647 71.0387 20.533 70.7559 20.8696C70.4766 21.2062 70.3369 21.6717 70.3369 22.2661C70.3369 22.8641 70.4766 23.326 70.7559 23.6519C71.0352 23.9741 71.4237 24.1353 71.9214 24.1353ZM79.0542 20.5474C78.9862 20.5295 78.9199 20.5169 78.8555 20.5098C78.7946 20.499 78.723 20.4937 78.6406 20.4937C78.193 20.4937 77.8493 20.6584 77.6094 20.9878C77.3695 21.3172 77.2495 21.7469 77.2495 22.2769V25H75.998V19.5H77.2495V20.5581H77.271C77.3999 20.1785 77.5897 19.8921 77.8403 19.6987C78.091 19.5018 78.3864 19.4033 78.7266 19.4033C78.8232 19.4033 78.9092 19.4087 78.9844 19.4194C79.0632 19.4302 79.1383 19.4463 79.21 19.4678L79.0542 20.5474ZM84.7207 22.5776H80.9663C80.9878 23.0968 81.1382 23.4925 81.4175 23.7646C81.6968 24.0332 82.0871 24.1675 82.5884 24.1675C82.7925 24.1675 83.0252 24.1263 83.2866 24.0439C83.548 23.9616 83.8058 23.8291 84.0601 23.6465L84.624 24.4253C84.2839 24.6724 83.9383 24.8514 83.5874 24.9624C83.2365 25.0734 82.8498 25.1289 82.4272 25.1289C81.5715 25.1289 80.9054 24.8836 80.4292 24.3931C79.953 23.8989 79.7131 23.2096 79.7095 22.3252C79.7095 21.4443 79.9548 20.7318 80.4453 20.1875C80.9395 19.6432 81.5715 19.3711 82.3413 19.3711C83.0789 19.3711 83.659 19.6038 84.0815 20.0693C84.5076 20.5312 84.7207 21.1865 84.7207 22.0352V22.5776ZM83.5122 21.7129C83.5122 21.2402 83.4084 20.8857 83.2007 20.6494C82.9966 20.4095 82.7065 20.2896 82.3306 20.2896C81.9761 20.2896 81.6735 20.4185 81.4229 20.6763C81.1758 20.9305 81.0236 21.276 80.9663 21.7129H83.5122Z" fill="white"/>
<g clip-path="url(#clip0_976_1863)">
<g clip-path="url(#clip1_976_1863)">
<path d="M90.2812 11C90.2812 10.5858 90.617 10.25 91.0312 10.25H106.969C107.383 10.25 107.719 10.5858 107.719 11V22.3438C107.719 24.0524 106.334 25.4375 104.625 25.4375H93.375C91.6664 25.4375 90.2812 24.0524 90.2812 22.3438V11Z" fill="url(#paint0_linear_976_1863)"/>
<mask id="mask0_976_1863" style="mask-type:alpha" maskUnits="userSpaceOnUse" x="90" y="10" width="18" height="16">
<path d="M90.2812 11C90.2812 10.5858 90.617 10.25 91.0312 10.25H106.969C107.383 10.25 107.719 10.5858 107.719 11V22.3438C107.719 24.0524 106.334 25.4375 104.625 25.4375H93.375C91.6664 25.4375 90.2812 24.0524 90.2812 22.3438V11Z" fill="url(#paint1_linear_976_1863)"/>
</mask>
<g mask="url(#mask0_976_1863)">
<g filter="url(#filter0_dd_976_1863)">
<path d="M94.7812 10.8125V8.5625H103.219V10.8125" stroke="url(#paint2_linear_976_1863)" stroke-width="1.125" stroke-linecap="round"/>
</g>
</g>
<g filter="url(#filter1_dd_976_1863)">
<path d="M98.719 14.1875H95.344V17.5625H98.719V14.1875Z" fill="#F25022"/>
<path d="M102.656 14.1875H99.2812V17.5625H102.656V14.1875Z" fill="#7FBA00"/>
<path d="M102.656 18.125H99.2812V21.5H102.656V18.125Z" fill="#FFB900"/>
<path d="M98.7188 18.125H95.3438V21.5H98.7188V18.125Z" fill="#00A4EF"/>
</g>
<path d="M94.7812 10.8125V9.125C94.7812 8.81434 95.0331 8.5625 95.3438 8.5625H102.656C102.967 8.5625 103.219 8.81434 103.219 9.125V10.8125" stroke="url(#paint3_linear_976_1863)" stroke-width="1.125" stroke-linecap="round"/>
<rect x="95.3438" y="8" width="7.3125" height="1.125" fill="url(#paint4_linear_976_1863)"/>
<mask id="mask1_976_1863" style="mask-type:alpha" maskUnits="userSpaceOnUse" x="95" y="8" width="8" height="2">
<rect x="95.3438" y="8" width="7.3125" height="1.125" fill="url(#paint5_linear_976_1863)"/>
</mask>
<g mask="url(#mask1_976_1863)">
<g filter="url(#filter2_dd_976_1863)">
<rect x="93.7189" y="8.56274" width="1.625" height="2.8125" fill="#C4C4C4"/>
</g>
</g>
</g>
</g>
<defs>
<filter id="filter0_dd_976_1863" x="93.0938" y="7.25" width="11.8125" height="5.625" filterUnits="userSpaceOnUse" color-interpolation-filters="sRGB">
<feFlood flood-opacity="0" result="BackgroundImageFix"/>
<feColorMatrix in="SourceAlpha" type="matrix" values="0 0 0 0 0 0 0 0 0 0 0 0 0 0 0 0 0 0 127 0" result="hardAlpha"/>
<feOffset dy="0.1875"/>
<feGaussianBlur stdDeviation="0.1875"/>
<feColorMatrix type="matrix" values="0 0 0 0 0 0 0 0 0 0 0 0 0 0 0 0 0 0 0.1 0"/>
<feBlend mode="normal" in2="BackgroundImageFix" result="effect1_dropShadow_976_1863"/>
<feColorMatrix in="SourceAlpha" type="matrix" values="0 0 0 0 0 0 0 0 0 0 0 0 0 0 0 0 0 0 127 0" result="hardAlpha"/>
<feOffset dy="0.375"/>
<feGaussianBlur stdDeviation="0.5625"/>
<feColorMatrix type="matrix" values="0 0 0 0 0 0 0 0 0 0 0 0 0 0 0 0 0 0 0.2 0"/>
<feBlend mode="normal" in2="effect1_dropShadow_976_1863" result="effect2_dropShadow_976_1863"/>
<feBlend mode="normal" in="SourceGraphic" in2="effect2_dropShadow_976_1863" result="shape"/>
</filter>
<filter id="filter1_dd_976_1863" x="94.2188" y="13.4375" width="9.5625" height="9.5625" filterUnits="userSpaceOnUse" color-interpolation-filters="sRGB">
<feFlood flood-opacity="0" result="BackgroundImageFix"/>
<feColorMatrix in="SourceAlpha" type="matrix" values="0 0 0 0 0 0 0 0 0 0 0 0 0 0 0 0 0 0 127 0" result="hardAlpha"/>
<feOffset dy="0.1875"/>
<feGaussianBlur stdDeviation="0.1875"/>
<feColorMatrix type="matrix" values="0 0 0 0 1 0 0 0 0 1 0 0 0 0 1 0 0 0 0.6 0"/>
<feBlend mode="normal" in2="BackgroundImageFix" result="effect1_dropShadow_976_1863"/>
<feColorMatrix in="SourceAlpha" type="matrix" values="0 0 0 0 0 0 0 0 0 0 0 0 0 0 0 0 0 0 127 0" result="hardAlpha"/>
<feOffset dy="0.375"/>
<feGaussianBlur stdDeviation="0.5625"/>
<feColorMatrix type="matrix" values="0 0 0 0 1 0 0 0 0 1 0 0 0 0 1 0 0 0 0.6 0"/>
<feBlend mode="normal" in2="effect1_dropShadow_976_1863" result="effect2_dropShadow_976_1863"/>
<feBlend mode="normal" in="SourceGraphic" in2="effect2_dropShadow_976_1863" result="shape"/>
</filter>
<filter id="filter2_dd_976_1863" x="92.5939" y="6.6875" width="12.8124" height="5.06274" filterUnits="userSpaceOnUse" color-interpolation-filters="sRGB">
<feFlood flood-opacity="0" result="BackgroundImageFix"/>
<feColorMatrix in="SourceAlpha" type="matrix" values="0 0 0 0 0 0 0 0 0 0 0 0 0 0 0 0 0 0 127 0" result="hardAlpha"/>
<feOffset dy="-0.75"/>
<feGaussianBlur stdDeviation="0.1875"/>
<feColorMatrix type="matrix" values="0 0 0 0 0 0 0 0 0 0 0 0 0 0 0 0 0 0 0.1 0"/>
<feBlend mode="normal" in2="BackgroundImageFix" result="effect1_dropShadow_976_1863"/>
<feColorMatrix in="SourceAlpha" type="matrix" values="0 0 0 0 0 0 0 0 0 0 0 0 0 0 0 0 0 0 127 0" result="hardAlpha"/>
<feOffset dy="-0.75"/>
<feGaussianBlur stdDeviation="0.5625"/>
<feColorMatrix type="matrix" values="0 0 0 0 0 0 0 0 0 0 0 0 0 0 0 0 0 0 0.2 0"/>
<feBlend mode="normal" in2="effect1_dropShadow_976_1863" result="effect2_dropShadow_976_1863"/>
<feBlend mode="normal" in="SourceGraphic" in2="effect2_dropShadow_976_1863" result="shape"/>
</filter>
<linearGradient id="paint0_linear_976_1863" x1="94.2443" y1="8.00639" x2="97.9039" y2="24.8132" gradientUnits="userSpaceOnUse">
<stop offset="0.270833" stop-color="white"/>
<stop offset="1" stop-color="#DFDFDF"/>
</linearGradient>
<linearGradient id="paint1_linear_976_1863" x1="99" y1="10.25" x2="102.351" y2="25.9624" gradientUnits="userSpaceOnUse">
<stop stop-color="#0078D4"/>
<stop offset="1" stop-color="#114A8B"/>
</linearGradient>
<linearGradient id="paint2_linear_976_1863" x1="99" y1="8.5625" x2="99.1583" y2="10.9858" gradientUnits="userSpaceOnUse">
<stop stop-color="#28AFEA"/>
<stop offset="1" stop-color="#0078D4"/>
</linearGradient>
<linearGradient id="paint3_linear_976_1863" x1="99" y1="8.5625" x2="99.1583" y2="10.9858" gradientUnits="userSpaceOnUse">
<stop stop-color="#30DAFF"/>
<stop offset="1" stop-color="#0094D4"/>
</linearGradient>
<linearGradient id="paint4_linear_976_1863" x1="98.5938" y1="8" x2="98.5937" y2="9.125" gradientUnits="userSpaceOnUse">
<stop stop-color="#22BCFF"/>
<stop offset="1" stop-color="#0088F0"/>
</linearGradient>
<linearGradient id="paint5_linear_976_1863" x1="98.5938" y1="8" x2="98.5937" y2="9.125" gradientUnits="userSpaceOnUse">
<stop stop-color="#28AFEA"/>
<stop offset="1" stop-color="#3CCBF4"/>
</linearGradient>
<clipPath id="clip0_976_1863">
<rect width="18" height="18" fill="white" transform="translate(90 8)"/>
</clipPath>
<clipPath id="clip1_976_1863">
<rect width="18" height="18" fill="white" transform="translate(90 8)"/>
</clipPath>
</defs>
</svg>
