<svg width="100" height="32" viewBox="0 0 100 32" fill="none" xmlns="http://www.w3.org/2000/svg">
<rect x="0.5" y="0.5" width="99" height="31" rx="3.5" fill="black"/>
<path d="M15.5559 7H7V15.5608H15.5559V7Z" fill="#F25022"/>
<path d="M25.0001 7H16.4442V15.5608H25.0001V7Z" fill="#7FBA00"/>
<path d="M15.5559 16.4395H7V25.0002H15.5559V16.4395Z" fill="#00A4EF"/>
<path d="M25.0002 16.4395H16.4443V25.0002H25.0002V16.4395Z" fill="#FFB900"/>
<path d="M33.7305 13H32.7578L30.6406 10.4531C30.6042 10.4062 30.5729 10.3659 30.5469 10.332C30.5234 10.2982 30.5052 10.2695 30.4922 10.2461H30.4766V13H29.7656V7.39844H30.4766V10.0273H30.4922C30.5104 9.9987 30.5312 9.96745 30.5547 9.93359C30.5807 9.89974 30.6094 9.86328 30.6406 9.82422L32.6875 7.39844H33.5625L31.2031 10.082L33.7305 13ZM37.8047 13H37.1094V12.3477H37.0938C36.9557 12.5977 36.7799 12.7852 36.5664 12.9102C36.3555 13.0352 36.1081 13.0977 35.8242 13.0977C35.3372 13.0977 34.9714 12.9518 34.7266 12.6602C34.4844 12.3685 34.3633 11.9323 34.3633 11.3516V8.90234H35.0586V11.2461C35.0586 11.6706 35.1393 11.9896 35.3008 12.2031C35.4622 12.4141 35.7057 12.5195 36.0312 12.5195C36.3464 12.5195 36.6042 12.4036 36.8047 12.1719C37.0078 11.9401 37.1094 11.6354 37.1094 11.2578V8.90234H37.8047V13ZM42.5898 13H41.8945V10.6641C41.8945 10.237 41.8164 9.91667 41.6602 9.70312C41.5039 9.48958 41.2708 9.38281 40.9609 9.38281C40.638 9.38281 40.3711 9.50391 40.1602 9.74609C39.9518 9.98568 39.8477 10.2904 39.8477 10.6602V13H39.1523V8.90234H39.8477V9.58203H39.8633C40.0169 9.32161 40.2057 9.1276 40.4297 9C40.6536 8.86979 40.9128 8.80469 41.207 8.80469C41.6549 8.80469 41.9974 8.94922 42.2344 9.23828C42.4714 9.52734 42.5898 9.94531 42.5898 10.4922V13ZM44.2109 8.03516C44.0729 8.03516 43.9583 7.98958 43.8672 7.89844C43.776 7.80729 43.7305 7.69661 43.7305 7.56641C43.7305 7.43099 43.776 7.31901 43.8672 7.23047C43.9583 7.13932 44.0729 7.09375 44.2109 7.09375C44.349 7.09375 44.4635 7.13932 44.5547 7.23047C44.6484 7.31901 44.6953 7.43099 44.6953 7.56641C44.6953 7.69661 44.6484 7.80729 44.5547 7.89844C44.4635 7.98958 44.349 8.03516 44.2109 8.03516ZM44.5508 13H43.8555V8.90234H44.5508V13ZM49.3867 13H48.6914V10.6641C48.6914 10.237 48.6133 9.91667 48.457 9.70312C48.3008 9.48958 48.0677 9.38281 47.7578 9.38281C47.4349 9.38281 47.168 9.50391 46.957 9.74609C46.7487 9.98568 46.6445 10.2904 46.6445 10.6602V13H45.9492V8.90234H46.6445V9.58203H46.6602C46.8138 9.32161 47.0026 9.1276 47.2266 9C47.4505 8.86979 47.7096 8.80469 48.0039 8.80469C48.4518 8.80469 48.7943 8.94922 49.0312 9.23828C49.2682 9.52734 49.3867 9.94531 49.3867 10.4922V13ZM53.2031 8.03516C53.0651 8.03516 52.9505 7.98958 52.8594 7.89844C52.7682 7.80729 52.7227 7.69661 52.7227 7.56641C52.7227 7.43099 52.7682 7.31901 52.8594 7.23047C52.9505 7.13932 53.0651 7.09375 53.2031 7.09375C53.3411 7.09375 53.4557 7.13932 53.5469 7.23047C53.6406 7.31901 53.6875 7.43099 53.6875 7.56641C53.6875 7.69661 53.6406 7.80729 53.5469 7.89844C53.4557 7.98958 53.3411 8.03516 53.2031 8.03516ZM53.543 13H52.8477V8.90234H53.543V13ZM56.9492 12.9492C56.8372 12.9961 56.7253 13.0299 56.6133 13.0508C56.5039 13.0742 56.3802 13.0859 56.2422 13.0859C55.9062 13.0859 55.6432 12.9896 55.4531 12.7969C55.2656 12.6042 55.1719 12.319 55.1719 11.9414V9.48047H54.4727V8.90234H55.1719V7.96484L55.8711 7.74219V8.90234H56.8945V9.48047H55.8711V11.8672C55.8711 12.099 55.9128 12.2656 55.9961 12.3672C56.0794 12.4688 56.2044 12.5195 56.3711 12.5195C56.4492 12.5195 56.5247 12.5104 56.5977 12.4922C56.6706 12.474 56.7331 12.4518 56.7852 12.4258L56.9492 12.9492ZM59.5625 13.0977C58.9505 13.0977 58.4622 12.9062 58.0977 12.5234C57.7357 12.138 57.5547 11.6276 57.5547 10.9922C57.5547 10.3073 57.7422 9.77214 58.1172 9.38672C58.4922 9.0013 59.0039 8.80729 59.6523 8.80469C60.2669 8.80208 60.7474 8.99089 61.0938 9.37109C61.4427 9.7487 61.6172 10.2682 61.6172 10.9297C61.6172 11.5885 61.431 12.1146 61.0586 12.5078C60.6862 12.901 60.1875 13.0977 59.5625 13.0977ZM59.6094 12.5195C60.026 12.5195 60.3451 12.3841 60.5664 12.1133C60.7904 11.8398 60.9023 11.4531 60.9023 10.9531C60.9023 10.4479 60.7904 10.0599 60.5664 9.78906C60.3424 9.51823 60.0234 9.38281 59.6094 9.38281C59.1953 9.38281 58.8672 9.52474 58.625 9.80859C58.3854 10.0898 58.2656 10.4779 58.2656 10.9727C58.2656 11.4544 58.3867 11.8333 58.6289 12.1094C58.8711 12.3828 59.1979 12.5195 59.6094 12.5195ZM70.7617 13H70.0625V10.6445C70.0625 10.1992 69.9935 9.8776 69.8555 9.67969C69.7174 9.48177 69.487 9.38281 69.1641 9.38281C68.888 9.38281 68.6536 9.50781 68.4609 9.75781C68.2708 10.0078 68.1758 10.3099 68.1758 10.6641V13H67.4805V10.5703C67.4805 10.1745 67.4036 9.8776 67.25 9.67969C67.099 9.48177 66.8711 9.38281 66.5664 9.38281C66.2826 9.38281 66.0482 9.5013 65.8633 9.73828C65.681 9.97526 65.5898 10.2852 65.5898 10.668V13H64.8945V8.90234H65.5898V9.55078H65.6055C65.7513 9.30339 65.931 9.11719 66.1445 8.99219C66.3581 8.86719 66.6042 8.80469 66.8828 8.80469C67.1641 8.80469 67.4076 8.88151 67.6133 9.03516C67.8216 9.1888 67.9661 9.39323 68.0469 9.64844C68.1979 9.36719 68.3867 9.15625 68.6133 9.01562C68.8424 8.875 69.1068 8.80469 69.4062 8.80469C69.8568 8.80469 70.1953 8.94401 70.4219 9.22266C70.6484 9.4987 70.7617 9.91536 70.7617 10.4727V13ZM75.3828 13H74.6875V12.3477H74.6719C74.5339 12.5977 74.3581 12.7852 74.1445 12.9102C73.9336 13.0352 73.6862 13.0977 73.4023 13.0977C72.9154 13.0977 72.5495 12.9518 72.3047 12.6602C72.0625 12.3685 71.9414 11.9323 71.9414 11.3516V8.90234H72.6367V11.2461C72.6367 11.6706 72.7174 11.9896 72.8789 12.2031C73.0404 12.4141 73.2839 12.5195 73.6094 12.5195C73.9245 12.5195 74.1823 12.4036 74.3828 12.1719C74.5859 11.9401 74.6875 11.6354 74.6875 11.2578V8.90234H75.3828V13ZM76.7305 13V7.07812H77.4258V13H76.7305ZM81.7266 13H81.0352V12.3555H81.0195C80.8789 12.6003 80.7044 12.7852 80.4961 12.9102C80.2878 13.0352 80.0456 13.0977 79.7695 13.0977C79.3841 13.0977 79.0729 12.9857 78.8359 12.7617C78.599 12.5378 78.4805 12.2422 78.4805 11.875C78.4805 11.5182 78.6003 11.2253 78.8398 10.9961C79.0794 10.7669 79.4245 10.6198 79.875 10.5547L81.0391 10.3984V10.3047C81.0391 9.97396 80.9596 9.73568 80.8008 9.58984C80.6445 9.44401 80.4336 9.37109 80.168 9.37109C79.957 9.37109 79.7513 9.41146 79.5508 9.49219C79.3503 9.57292 79.1602 9.69401 78.9805 9.85547L78.6016 9.43359C78.8333 9.22005 79.0807 9.0625 79.3438 8.96094C79.6094 8.85677 79.8997 8.80469 80.2148 8.80469C80.7148 8.80469 81.0911 8.93359 81.3438 9.19141C81.599 9.44922 81.7266 9.83594 81.7266 10.3516V13ZM81.0391 11.3281V10.9336L80.0625 11.0664C79.763 11.1081 79.5391 11.1836 79.3906 11.293C79.2422 11.4023 79.168 11.5742 79.168 11.8086C79.168 12.0404 79.237 12.2201 79.375 12.3477C79.5156 12.4753 79.6901 12.5391 79.8984 12.5391C80.2422 12.5391 80.5182 12.4258 80.7266 12.1992C80.9349 11.9701 81.0391 11.6797 81.0391 11.3281ZM84.8516 12.6953L85.1758 12.1719C85.3477 12.2865 85.5182 12.3737 85.6875 12.4336C85.8568 12.4935 86.043 12.5234 86.2461 12.5234C86.5195 12.5234 86.7279 12.474 86.8711 12.375C87.0143 12.2734 87.0859 12.1224 87.0859 11.9219C87.0859 11.7552 87.0221 11.6172 86.8945 11.5078C86.7695 11.3958 86.5716 11.3047 86.3008 11.2344C85.793 11.1068 85.444 10.944 85.2539 10.7461C85.0638 10.5456 84.9688 10.2969 84.9688 10C84.9688 9.65625 85.099 9.37109 85.3594 9.14453C85.6224 8.91797 85.9805 8.80469 86.4336 8.80469C86.6523 8.80469 86.8594 8.83333 87.0547 8.89062C87.2526 8.94531 87.4518 9.03776 87.6523 9.16797L87.3516 9.68359C87.1693 9.56901 87.0052 9.48958 86.8594 9.44531C86.7135 9.39844 86.5651 9.375 86.4141 9.375C86.1562 9.375 85.9583 9.42318 85.8203 9.51953C85.6823 9.61589 85.6133 9.75521 85.6133 9.9375C85.6133 10.1146 85.681 10.25 85.8164 10.3438C85.9518 10.4349 86.1771 10.5208 86.4922 10.6016C86.9115 10.7135 87.224 10.8698 87.4297 11.0703C87.638 11.2682 87.7422 11.5326 87.7422 11.8633C87.7422 12.2409 87.6055 12.5417 87.332 12.7656C87.0612 12.987 86.6914 13.0977 86.2227 13.0977C85.9674 13.0977 85.724 13.0638 85.4922 12.9961C85.263 12.9258 85.0495 12.8255 84.8516 12.6953ZM91.7109 13H91.0195V12.3555H91.0039C90.8633 12.6003 90.6888 12.7852 90.4805 12.9102C90.2721 13.0352 90.0299 13.0977 89.7539 13.0977C89.3685 13.0977 89.0573 12.9857 88.8203 12.7617C88.5833 12.5378 88.4648 12.2422 88.4648 11.875C88.4648 11.5182 88.5846 11.2253 88.8242 10.9961C89.0638 10.7669 89.4089 10.6198 89.8594 10.5547L91.0234 10.3984V10.3047C91.0234 9.97396 90.944 9.73568 90.7852 9.58984C90.6289 9.44401 90.418 9.37109 90.1523 9.37109C89.9414 9.37109 89.7357 9.41146 89.5352 9.49219C89.3346 9.57292 89.1445 9.69401 88.9648 9.85547L88.5859 9.43359C88.8177 9.22005 89.0651 9.0625 89.3281 8.96094C89.5938 8.85677 89.8841 8.80469 90.1992 8.80469C90.6992 8.80469 91.0755 8.93359 91.3281 9.19141C91.5833 9.44922 91.7109 9.83594 91.7109 10.3516V13ZM91.0234 11.3281V10.9336L90.0469 11.0664C89.7474 11.1081 89.5234 11.1836 89.375 11.293C89.2266 11.4023 89.1523 11.5742 89.1523 11.8086C89.1523 12.0404 89.2214 12.2201 89.3594 12.3477C89.5 12.4753 89.6745 12.5391 89.8828 12.5391C90.2266 12.5391 90.5026 12.4258 90.7109 12.1992C90.9193 11.9701 91.0234 11.6797 91.0234 11.3281Z" fill="white"/>
<path d="M41.1489 16.6123C41.1489 16.3559 41.2412 16.1507 41.4259 15.9764C41.6105 15.802 41.8258 15.72 42.0823 15.72C42.3489 15.72 42.5746 15.8123 42.7489 15.9866C42.9233 16.161 43.0156 16.3764 43.0156 16.6123C43.0156 16.8584 42.9233 17.0738 42.7387 17.2379C42.5541 17.4123 42.3387 17.4943 42.072 17.4943C41.8053 17.4943 41.59 17.4123 41.4053 17.2379C41.2412 17.0636 41.1489 16.8584 41.1489 16.6123ZM42.8412 25.002H41.313V18.4892H42.8412V25.002Z" fill="white"/>
<path d="M47.4975 23.8888C47.7231 23.8888 47.9795 23.8375 48.2565 23.735C48.5334 23.6324 48.7795 23.4888 49.0154 23.3144V24.7401C48.7693 24.8837 48.4924 24.9862 48.1847 25.058C47.877 25.1298 47.5282 25.1709 47.159 25.1709C46.2052 25.1709 45.4257 24.8632 44.8205 24.258C44.2154 23.6529 43.918 22.8734 43.918 21.9401C43.918 20.8939 44.2257 20.0324 44.8411 19.3555C45.4564 18.6785 46.318 18.3401 47.4462 18.3401C47.7334 18.3401 48.0206 18.3811 48.318 18.4529C48.6154 18.5247 48.8411 18.617 49.0154 18.7093V20.176C48.7795 20.0016 48.5334 19.8683 48.2872 19.776C48.0411 19.6837 47.7847 19.6324 47.5282 19.6324C46.9231 19.6324 46.4411 19.8273 46.0616 20.217C45.6923 20.6068 45.5077 21.1401 45.5077 21.8068C45.5077 22.4632 45.6821 22.976 46.0411 23.3452C46.4 23.7144 46.8821 23.8888 47.4975 23.8888Z" fill="white"/>
<path d="M53.3738 18.3899C53.4969 18.3899 53.6097 18.4001 53.702 18.4104C53.7943 18.4309 53.8866 18.4514 53.9482 18.4719V20.0207C53.8661 19.9591 53.7533 19.9078 53.5995 19.8566C53.4456 19.8053 53.261 19.7745 53.0354 19.7745C52.6559 19.7745 52.3379 19.9284 52.0815 20.2463C51.8251 20.5643 51.6918 21.0463 51.6918 21.713V25.0053H50.1636V18.4925H51.6918V19.5181H51.7123C51.8559 19.1591 52.061 18.8822 52.3482 18.6873C52.6354 18.4925 52.9738 18.3899 53.3738 18.3899Z" fill="white"/>
<path d="M54.0308 21.8478C54.0308 20.7709 54.3385 19.9196 54.9436 19.2837C55.5487 18.658 56.4 18.3401 57.4769 18.3401C58.4923 18.3401 59.2923 18.6478 59.8667 19.2529C60.441 19.858 60.7282 20.6785 60.7282 21.7042C60.7282 22.7606 60.4205 23.6016 59.8154 24.2273C59.2102 24.8529 58.3795 25.1606 57.3333 25.1606C56.3282 25.1606 55.5179 24.8632 54.9333 24.2683C54.3282 23.6837 54.0308 22.8734 54.0308 21.8478ZM55.6308 21.7965C55.6308 22.4734 55.7846 22.9965 56.0923 23.3555C56.4 23.7144 56.841 23.8888 57.4154 23.8888C57.9692 23.8888 58.4 23.7144 58.6872 23.3555C58.9743 22.9965 59.1282 22.4632 59.1282 21.7555C59.1282 21.058 58.9743 20.5247 58.6769 20.1657C58.3795 19.8068 57.9487 19.6324 57.4051 19.6324C56.841 19.6324 56.4102 19.817 56.0923 20.1965C55.7846 20.576 55.6308 21.0991 55.6308 21.7965Z" fill="white"/>
<path d="M63.0053 20.207C63.0053 20.4224 63.0771 20.5967 63.2104 20.7198C63.354 20.8429 63.6617 20.9968 64.1335 21.1916C64.7489 21.4378 65.1796 21.7147 65.4258 22.0224C65.6719 22.3301 65.795 22.6993 65.795 23.1301C65.795 23.7455 65.5591 24.2378 65.0873 24.607C64.6155 24.9762 63.9796 25.1609 63.1796 25.1609C62.913 25.1609 62.6155 25.1301 62.2873 25.0583C61.9591 24.9968 61.6822 24.9045 61.4565 24.8121V23.3044C61.7335 23.4993 62.0309 23.6532 62.3591 23.766C62.6771 23.8788 62.9745 23.9403 63.2309 23.9403C63.5796 23.9403 63.836 23.8891 64.0001 23.7968C64.1642 23.7044 64.2463 23.5403 64.2463 23.3044C64.2463 23.0891 64.1642 22.9147 63.9899 22.7711C63.8155 22.6275 63.4976 22.4532 63.0155 22.2685C62.4514 22.0327 62.0514 21.766 61.8155 21.4685C61.5796 21.1711 61.4565 20.7916 61.4565 20.3403C61.4565 19.7557 61.6924 19.2737 62.154 18.8942C62.6155 18.5147 63.2206 18.3301 63.9694 18.3301C64.195 18.3301 64.4514 18.3506 64.7386 18.4019C65.0258 18.4532 65.2617 18.5147 65.4463 18.5967V20.0532C65.2412 19.9198 65.0053 19.807 64.7386 19.7044C64.4719 19.6121 64.195 19.5608 63.9386 19.5608C63.6514 19.5608 63.4155 19.6224 63.2617 19.7352C63.0873 19.848 63.0053 20.0121 63.0053 20.207Z" fill="white"/>
<path d="M66.4717 21.8478C66.4717 20.7709 66.7794 19.9196 67.3845 19.2837C67.9896 18.658 68.8409 18.3401 69.9178 18.3401C70.9332 18.3401 71.7332 18.6478 72.3076 19.2529C72.8819 19.858 73.1691 20.6785 73.1691 21.7042C73.1691 22.7606 72.8614 23.6016 72.2563 24.2273C71.6512 24.8529 70.8204 25.1606 69.7742 25.1606C68.7691 25.1606 67.9589 24.8632 67.3742 24.2683C66.7691 23.6837 66.4717 22.8734 66.4717 21.8478ZM68.0614 21.7965C68.0614 22.4734 68.2153 22.9965 68.523 23.3555C68.8307 23.7144 69.2717 23.8888 69.846 23.8888C70.3999 23.8888 70.8307 23.7144 71.1178 23.3555C71.405 22.9965 71.5589 22.4632 71.5589 21.7555C71.5589 21.058 71.405 20.5247 71.1076 20.1657C70.8101 19.8068 70.3794 19.6324 69.8358 19.6324C69.2717 19.6324 68.8409 19.817 68.523 20.1965C68.2153 20.576 68.0614 21.0991 68.0614 21.7965Z" fill="white"/>
<path d="M78.2258 19.7523V23.0959C78.2258 23.7933 78.3899 24.3062 78.7079 24.6549C79.0258 25.0036 79.5181 25.1677 80.1643 25.1677C80.3797 25.1677 80.6053 25.1472 80.8309 25.0959C81.0566 25.0446 81.2207 25.0036 81.313 24.9421V23.6703C81.2207 23.7318 81.1079 23.7831 80.9848 23.8241C80.8617 23.8651 80.7489 23.8857 80.6668 23.8857C80.3591 23.8857 80.1232 23.8036 79.9797 23.6395C79.8361 23.4754 79.7643 23.1882 79.7643 22.7882V19.7421H81.3232V18.4908H79.7745V16.5626L78.2361 17.0344V18.501H75.9489V17.7113C75.9489 17.3215 76.0309 17.0241 76.2053 16.819C76.3796 16.6139 76.6258 16.5215 76.9438 16.5215C77.1079 16.5215 77.2514 16.5421 77.3848 16.5831C77.5079 16.6241 77.6002 16.6651 77.6514 16.6959V15.3728C77.5386 15.3318 77.4155 15.3113 77.272 15.2908C77.1284 15.2703 76.9643 15.26 76.7797 15.26C76.0822 15.26 75.5079 15.4754 75.0668 15.9164C74.6258 16.3574 74.4002 16.9113 74.4002 17.5985V18.501H73.313V19.7523H74.4002V25.0139H75.9489V19.7523H78.2258Z" fill="white"/>
<path d="M39.8359 15.9199V25.0071H38.2564V17.8892H38.2359L35.4154 25.0071H34.3692L31.4769 17.8892H31.4564V25.0071H30V15.9199H32.2564L34.8718 22.6584H34.9128L37.6718 15.9199H39.8359Z" fill="white"/>
<rect x="0.5" y="0.5" width="99" height="31" rx="3.5" stroke="black"/>
</svg>
