<svg width="119" height="32" viewBox="0 0 119 32" fill="none" xmlns="http://www.w3.org/2000/svg">
<rect x="0.5" y="0.5" width="118" height="31" rx="3.5" fill="white"/>
<path d="M15.5559 7H7V15.5608H15.5559V7Z" fill="#F25022"/>
<path d="M25.0001 7H16.4442V15.5608H25.0001V7Z" fill="#7FBA00"/>
<path d="M15.5559 16.4395H7V25.0002H15.5559V16.4395Z" fill="#00A4EF"/>
<path d="M25.0002 16.4395H16.4443V25.0002H25.0002V16.4395Z" fill="#FFB900"/>
<path d="M33.1289 8.03125H31.5117V13H30.8008V8.03125H29.1875V7.39844H33.1289V8.03125ZM36.5391 11.1094H33.6562C33.6693 11.5625 33.7904 11.9115 34.0195 12.1562C34.2487 12.3984 34.5703 12.5195 34.9844 12.5195C35.1641 12.5195 35.3477 12.4922 35.5352 12.4375C35.7253 12.3802 35.9154 12.2878 36.1055 12.1602L36.4219 12.6445C36.1849 12.8008 35.9466 12.9154 35.707 12.9883C35.4674 13.0612 35.2044 13.0977 34.918 13.0977C34.2982 13.0977 33.8151 12.9141 33.4688 12.5469C33.1224 12.1771 32.9479 11.6615 32.9453 11C32.9427 10.3411 33.1172 9.8112 33.4688 9.41016C33.8229 9.00651 34.2812 8.80469 34.8438 8.80469C35.3802 8.80469 35.7969 8.97917 36.0938 9.32812C36.3906 9.67448 36.5391 10.1576 36.5391 10.7773V11.1094ZM35.8398 10.5625C35.8372 10.1849 35.7461 9.89193 35.5664 9.68359C35.3893 9.47526 35.1445 9.37109 34.832 9.37109C34.5247 9.37109 34.2643 9.47917 34.0508 9.69531C33.8398 9.90885 33.7109 10.1979 33.6641 10.5625H35.8398ZM34.8281 8.17188H34.293L35.1797 6.89062H35.8711L34.8281 8.17188ZM37.5664 13V7.07812H38.2617V13H37.5664ZM42.9375 11.1094H40.0547C40.0677 11.5625 40.1888 11.9115 40.418 12.1562C40.6471 12.3984 40.9688 12.5195 41.3828 12.5195C41.5625 12.5195 41.7461 12.4922 41.9336 12.4375C42.1237 12.3802 42.3138 12.2878 42.5039 12.1602L42.8203 12.6445C42.5833 12.8008 42.3451 12.9154 42.1055 12.9883C41.8659 13.0612 41.6029 13.0977 41.3164 13.0977C40.6966 13.0977 40.2135 12.9141 39.8672 12.5469C39.5208 12.1771 39.3464 11.6615 39.3438 11C39.3411 10.3411 39.5156 9.8112 39.8672 9.41016C40.2214 9.00651 40.6797 8.80469 41.2422 8.80469C41.7786 8.80469 42.1953 8.97917 42.4922 9.32812C42.7891 9.67448 42.9375 10.1576 42.9375 10.7773V11.1094ZM42.2383 10.5625C42.2357 10.1849 42.1445 9.89193 41.9648 9.68359C41.7878 9.47526 41.543 9.37109 41.2305 9.37109C40.9232 9.37109 40.6628 9.47917 40.4492 9.69531C40.2383 9.90885 40.1094 10.1979 40.0625 10.5625H42.2383ZM41.2266 8.17188H40.6914L41.5781 6.89062H42.2695L41.2266 8.17188ZM46.8984 12.7422C46.7031 12.8672 46.5078 12.957 46.3125 13.0117C46.1172 13.069 45.9076 13.0977 45.6836 13.0977C45.0977 13.0977 44.6198 12.918 44.25 12.5586C43.8802 12.1966 43.6953 11.6914 43.6953 11.043C43.6953 10.3711 43.8828 9.83073 44.2578 9.42188C44.6354 9.01042 45.151 8.80469 45.8047 8.80469C46.0156 8.80469 46.2161 8.83073 46.4062 8.88281C46.5964 8.93229 46.7878 9.01302 46.9805 9.125L46.6875 9.63281C46.5391 9.54427 46.3932 9.48177 46.25 9.44531C46.1068 9.40625 45.9531 9.38672 45.7891 9.38672C45.3438 9.38672 45.0013 9.53516 44.7617 9.83203C44.5247 10.1263 44.4062 10.5052 44.4062 10.9688C44.4062 11.4688 44.5299 11.8516 44.7773 12.1172C45.0273 12.3828 45.349 12.5156 45.7422 12.5156C45.875 12.5156 46.0117 12.4961 46.1523 12.457C46.2956 12.4154 46.4427 12.3464 46.5938 12.25L46.8984 12.7422ZM51.2852 13H50.5898V10.6367C50.5898 10.2174 50.5117 9.90365 50.3555 9.69531C50.1992 9.48698 49.9661 9.38281 49.6562 9.38281C49.3411 9.38281 49.0768 9.50391 48.8633 9.74609C48.6497 9.98568 48.543 10.2969 48.543 10.6797V13H47.8477V7.07812H48.543V9.57812H48.5586C48.7148 9.32031 48.9049 9.1276 49.1289 9C49.3529 8.86979 49.6094 8.80469 49.8984 8.80469C50.3594 8.80469 50.7057 8.94401 50.9375 9.22266C51.1693 9.5013 51.2852 9.91927 51.2852 10.4766V13ZM55.5 13H54.8086V12.3555H54.793C54.6523 12.6003 54.4779 12.7852 54.2695 12.9102C54.0612 13.0352 53.819 13.0977 53.543 13.0977C53.1576 13.0977 52.8464 12.9857 52.6094 12.7617C52.3724 12.5378 52.2539 12.2422 52.2539 11.875C52.2539 11.5182 52.3737 11.2253 52.6133 10.9961C52.8529 10.7669 53.1979 10.6198 53.6484 10.5547L54.8125 10.3984V10.3047C54.8125 9.97396 54.7331 9.73568 54.5742 9.58984C54.418 9.44401 54.207 9.37109 53.9414 9.37109C53.7305 9.37109 53.5247 9.41146 53.3242 9.49219C53.1237 9.57292 52.9336 9.69401 52.7539 9.85547L52.375 9.43359C52.6068 9.22005 52.8542 9.0625 53.1172 8.96094C53.3828 8.85677 53.6732 8.80469 53.9883 8.80469C54.4883 8.80469 54.8646 8.93359 55.1172 9.19141C55.3724 9.44922 55.5 9.83594 55.5 10.3516V13ZM54.8125 11.3281V10.9336L53.8359 11.0664C53.5365 11.1081 53.3125 11.1836 53.1641 11.293C53.0156 11.4023 52.9414 11.5742 52.9414 11.8086C52.9414 12.0404 53.0104 12.2201 53.1484 12.3477C53.2891 12.4753 53.4635 12.5391 53.6719 12.5391C54.0156 12.5391 54.2917 12.4258 54.5 12.1992C54.7083 11.9701 54.8125 11.6797 54.8125 11.3281ZM58.8594 9.49609C58.8073 9.48047 58.7591 9.46875 58.7148 9.46094C58.6706 9.45312 58.6172 9.44922 58.5547 9.44922C58.224 9.44922 57.9635 9.58984 57.7734 9.87109C57.5833 10.1497 57.4883 10.5026 57.4883 10.9297V13H56.793V8.90234H57.4883V9.71484H57.5039C57.5977 9.42578 57.7396 9.20703 57.9297 9.05859C58.1224 8.90755 58.3451 8.83203 58.5977 8.83203C58.6784 8.83203 58.7474 8.83594 58.8047 8.84375C58.8646 8.85156 58.9193 8.86328 58.9688 8.87891L58.8594 9.49609ZM63.2773 12.7031C63.2773 13.4245 63.0911 13.9674 62.7188 14.332C62.349 14.6992 61.8333 14.8828 61.1719 14.8828C60.888 14.8828 60.625 14.8542 60.3828 14.7969C60.1406 14.7422 59.8958 14.6562 59.6484 14.5391L59.8984 14.0117C60.112 14.1133 60.319 14.1862 60.5195 14.2305C60.7201 14.2773 60.9362 14.3008 61.168 14.3008C61.6107 14.3008 61.957 14.1745 62.207 13.9219C62.457 13.6693 62.582 13.293 62.582 12.793V12.3164H62.5664C62.4128 12.5768 62.2188 12.7721 61.9844 12.9023C61.75 13.0326 61.4779 13.0977 61.168 13.0977C60.6576 13.0977 60.2461 12.9154 59.9336 12.5508C59.6237 12.1836 59.4688 11.6927 59.4688 11.0781C59.4688 10.4036 59.6393 9.85677 59.9805 9.4375C60.3242 9.01562 60.7786 8.80469 61.3438 8.80469C61.6198 8.80469 61.8594 8.85938 62.0625 8.96875C62.2656 9.07812 62.4336 9.24349 62.5664 9.46484H62.582V8.90234H63.2773V12.7031ZM62.582 11.1445V10.5547C62.582 10.2318 62.474 9.95573 62.2578 9.72656C62.0443 9.4974 61.776 9.38281 61.4531 9.38281C61.0573 9.38281 60.7461 9.52083 60.5195 9.79688C60.293 10.0729 60.1797 10.4857 60.1797 11.0352C60.1797 11.5091 60.2852 11.875 60.4961 12.1328C60.707 12.3906 60.9961 12.5195 61.3633 12.5195C61.7253 12.5195 62.0182 12.3906 62.2422 12.1328C62.4688 11.875 62.582 11.5456 62.582 11.1445ZM67.9531 11.1094H65.0703C65.0833 11.5625 65.2044 11.9115 65.4336 12.1562C65.6628 12.3984 65.9844 12.5195 66.3984 12.5195C66.5781 12.5195 66.7617 12.4922 66.9492 12.4375C67.1393 12.3802 67.3294 12.2878 67.5195 12.1602L67.8359 12.6445C67.599 12.8008 67.3607 12.9154 67.1211 12.9883C66.8815 13.0612 66.6185 13.0977 66.332 13.0977C65.7122 13.0977 65.2292 12.9141 64.8828 12.5469C64.5365 12.1771 64.362 11.6615 64.3594 11C64.3568 10.3411 64.5312 9.8112 64.8828 9.41016C65.237 9.00651 65.6953 8.80469 66.2578 8.80469C66.7943 8.80469 67.2109 8.97917 67.5078 9.32812C67.8047 9.67448 67.9531 10.1576 67.9531 10.7773V11.1094ZM67.2539 10.5625C67.2513 10.1849 67.1602 9.89193 66.9805 9.68359C66.8034 9.47526 66.5586 9.37109 66.2461 9.37109C65.9388 9.37109 65.6784 9.47917 65.4648 9.69531C65.2539 9.90885 65.125 10.1979 65.0781 10.5625H67.2539ZM71.0469 9.49609C70.9948 9.48047 70.9466 9.46875 70.9023 9.46094C70.8581 9.45312 70.8047 9.44922 70.7422 9.44922C70.4115 9.44922 70.151 9.58984 69.9609 9.87109C69.7708 10.1497 69.6758 10.5026 69.6758 10.9297V13H68.9805V8.90234H69.6758V9.71484H69.6914C69.7852 9.42578 69.9271 9.20703 70.1172 9.05859C70.3099 8.90755 70.5326 8.83203 70.7852 8.83203C70.8659 8.83203 70.9349 8.83594 70.9922 8.84375C71.0521 8.85156 71.1068 8.86328 71.1562 8.87891L71.0469 9.49609ZM77.0703 13H76.3789V12.3555H76.3633C76.2227 12.6003 76.0482 12.7852 75.8398 12.9102C75.6315 13.0352 75.3893 13.0977 75.1133 13.0977C74.7279 13.0977 74.4167 12.9857 74.1797 12.7617C73.9427 12.5378 73.8242 12.2422 73.8242 11.875C73.8242 11.5182 73.944 11.2253 74.1836 10.9961C74.4232 10.7669 74.7682 10.6198 75.2188 10.5547L76.3828 10.3984V10.3047C76.3828 9.97396 76.3034 9.73568 76.1445 9.58984C75.9883 9.44401 75.7773 9.37109 75.5117 9.37109C75.3008 9.37109 75.0951 9.41146 74.8945 9.49219C74.694 9.57292 74.5039 9.69401 74.3242 9.85547L73.9453 9.43359C74.1771 9.22005 74.4245 9.0625 74.6875 8.96094C74.9531 8.85677 75.2435 8.80469 75.5586 8.80469C76.0586 8.80469 76.4349 8.93359 76.6875 9.19141C76.9427 9.44922 77.0703 9.83594 77.0703 10.3516V13ZM76.3828 11.3281V10.9336L75.4062 11.0664C75.1068 11.1081 74.8828 11.1836 74.7344 11.293C74.5859 11.4023 74.5117 11.5742 74.5117 11.8086C74.5117 12.0404 74.5807 12.2201 74.7188 12.3477C74.8594 12.4753 75.0339 12.5391 75.2422 12.5391C75.5859 12.5391 75.862 12.4258 76.0703 12.1992C76.2786 11.9701 76.3828 11.6797 76.3828 11.3281ZM76.0977 8.17188H75.5625L74.5195 6.89062H75.2188L76.0977 8.17188ZM81.2695 12.4102H81.2539V14.8398H80.5586V8.90234H81.2539V9.61719H81.2695C81.431 9.34635 81.6302 9.14323 81.8672 9.00781C82.1042 8.8724 82.3763 8.80469 82.6836 8.80469C83.2122 8.80469 83.6237 8.98828 83.918 9.35547C84.2148 9.72266 84.3633 10.2135 84.3633 10.8281C84.3633 11.5156 84.1953 12.0664 83.8594 12.4805C83.526 12.8919 83.0716 13.0977 82.4961 13.0977C82.2305 13.0977 81.9948 13.0404 81.7891 12.9258C81.5859 12.8112 81.4128 12.6393 81.2695 12.4102ZM81.25 10.7617V11.3086C81.25 11.6471 81.3581 11.9336 81.5742 12.168C81.7904 12.4023 82.0664 12.5195 82.4023 12.5195C82.7904 12.5195 83.0951 12.3698 83.3164 12.0703C83.5378 11.7708 83.6484 11.3542 83.6484 10.8203C83.6484 10.3698 83.5456 10.0182 83.3398 9.76562C83.1341 9.51042 82.8542 9.38281 82.5 9.38281C82.1224 9.38281 81.819 9.51432 81.5898 9.77734C81.3633 10.0378 81.25 10.3659 81.25 10.7617ZM88.3906 13H87.6992V12.3555H87.6836C87.543 12.6003 87.3685 12.7852 87.1602 12.9102C86.9518 13.0352 86.7096 13.0977 86.4336 13.0977C86.0482 13.0977 85.737 12.9857 85.5 12.7617C85.263 12.5378 85.1445 12.2422 85.1445 11.875C85.1445 11.5182 85.2643 11.2253 85.5039 10.9961C85.7435 10.7669 86.0885 10.6198 86.5391 10.5547L87.7031 10.3984V10.3047C87.7031 9.97396 87.6237 9.73568 87.4648 9.58984C87.3086 9.44401 87.0977 9.37109 86.832 9.37109C86.6211 9.37109 86.4154 9.41146 86.2148 9.49219C86.0143 9.57292 85.8242 9.69401 85.6445 9.85547L85.2656 9.43359C85.4974 9.22005 85.7448 9.0625 86.0078 8.96094C86.2734 8.85677 86.5638 8.80469 86.8789 8.80469C87.3789 8.80469 87.7552 8.93359 88.0078 9.19141C88.263 9.44922 88.3906 9.83594 88.3906 10.3516V13ZM87.7031 11.3281V10.9336L86.7266 11.0664C86.4271 11.1081 86.2031 11.1836 86.0547 11.293C85.9062 11.4023 85.832 11.5742 85.832 11.8086C85.832 12.0404 85.901 12.2201 86.0391 12.3477C86.1797 12.4753 86.3542 12.5391 86.5625 12.5391C86.9062 12.5391 87.1823 12.4258 87.3906 12.1992C87.599 11.9701 87.7031 11.6797 87.7031 11.3281ZM91.75 9.49609C91.6979 9.48047 91.6497 9.46875 91.6055 9.46094C91.5612 9.45312 91.5078 9.44922 91.4453 9.44922C91.1146 9.44922 90.8542 9.58984 90.6641 9.87109C90.474 10.1497 90.3789 10.5026 90.3789 10.9297V13H89.6836V8.90234H90.3789V9.71484H90.3945C90.4883 9.42578 90.6302 9.20703 90.8203 9.05859C91.013 8.90755 91.2357 8.83203 91.4883 8.83203C91.569 8.83203 91.638 8.83594 91.6953 8.84375C91.7552 8.85156 91.8099 8.86328 91.8594 8.87891L91.75 9.49609ZM94.6367 12.9492C94.5247 12.9961 94.4128 13.0299 94.3008 13.0508C94.1914 13.0742 94.0677 13.0859 93.9297 13.0859C93.5938 13.0859 93.3307 12.9896 93.1406 12.7969C92.9531 12.6042 92.8594 12.319 92.8594 11.9414V9.48047H92.1602V8.90234H92.8594V7.96484L93.5586 7.74219V8.90234H94.582V9.48047H93.5586V11.8672C93.5586 12.099 93.6003 12.2656 93.6836 12.3672C93.7669 12.4688 93.8919 12.5195 94.0586 12.5195C94.1367 12.5195 94.2122 12.5104 94.2852 12.4922C94.3581 12.474 94.4206 12.4518 94.4727 12.4258L94.6367 12.9492ZM95.8672 8.03516C95.7292 8.03516 95.6146 7.98958 95.5234 7.89844C95.4323 7.80729 95.3867 7.69661 95.3867 7.56641C95.3867 7.43099 95.4323 7.31901 95.5234 7.23047C95.6146 7.13932 95.7292 7.09375 95.8672 7.09375C96.0052 7.09375 96.1198 7.13932 96.2109 7.23047C96.3047 7.31901 96.3516 7.43099 96.3516 7.56641C96.3516 7.69661 96.3047 7.80729 96.2109 7.89844C96.1198 7.98958 96.0052 8.03516 95.8672 8.03516ZM96.207 13H95.5117V8.90234H96.207V13ZM99.6719 9.49609C99.6198 9.48047 99.5716 9.46875 99.5273 9.46094C99.4831 9.45312 99.4297 9.44922 99.3672 9.44922C99.0365 9.44922 98.776 9.58984 98.5859 9.87109C98.3958 10.1497 98.3008 10.5026 98.3008 10.9297V13H97.6055V8.90234H98.3008V9.71484H98.3164C98.4102 9.42578 98.5521 9.20703 98.7422 9.05859C98.9349 8.90755 99.1576 8.83203 99.4102 8.83203C99.4909 8.83203 99.5599 8.83594 99.6172 8.84375C99.6771 8.85156 99.7318 8.86328 99.7812 8.87891L99.6719 9.49609ZM105.574 12.3125C105.423 12.5729 105.23 12.7695 104.996 12.9023C104.764 13.0326 104.491 13.0977 104.176 13.0977C103.66 13.0977 103.247 12.9141 102.938 12.5469C102.63 12.1797 102.477 11.6797 102.477 11.0469C102.477 10.3672 102.647 9.82422 102.988 9.41797C103.329 9.00911 103.784 8.80469 104.352 8.80469C104.633 8.80469 104.875 8.85938 105.078 8.96875C105.281 9.07812 105.447 9.24349 105.574 9.46484H105.59V7.07812H106.285V13H105.59V12.3125H105.574ZM103.188 11.0117C103.188 11.4805 103.296 11.849 103.512 12.1172C103.728 12.3854 104.017 12.5195 104.379 12.5195C104.743 12.5195 105.036 12.3893 105.258 12.1289C105.479 11.8685 105.59 11.5391 105.59 11.1406V10.5547C105.59 10.2266 105.482 9.94922 105.266 9.72266C105.052 9.49609 104.781 9.38281 104.453 9.38281C104.06 9.38281 103.75 9.52734 103.523 9.81641C103.299 10.1055 103.188 10.5039 103.188 11.0117ZM110.961 11.1094H108.078C108.091 11.5625 108.212 11.9115 108.441 12.1562C108.671 12.3984 108.992 12.5195 109.406 12.5195C109.586 12.5195 109.77 12.4922 109.957 12.4375C110.147 12.3802 110.337 12.2878 110.527 12.1602L110.844 12.6445C110.607 12.8008 110.368 12.9154 110.129 12.9883C109.889 13.0612 109.626 13.0977 109.34 13.0977C108.72 13.0977 108.237 12.9141 107.891 12.5469C107.544 12.1771 107.37 11.6615 107.367 11C107.365 10.3411 107.539 9.8112 107.891 9.41016C108.245 9.00651 108.703 8.80469 109.266 8.80469C109.802 8.80469 110.219 8.97917 110.516 9.32812C110.812 9.67448 110.961 10.1576 110.961 10.7773V11.1094ZM110.262 10.5625C110.259 10.1849 110.168 9.89193 109.988 9.68359C109.811 9.47526 109.566 9.37109 109.254 9.37109C108.947 9.37109 108.686 9.47917 108.473 9.69531C108.262 9.90885 108.133 10.1979 108.086 10.5625H110.262Z" fill="black" fill-opacity="0.8956"/>
<path d="M41.1489 16.6123C41.1489 16.3559 41.2412 16.1507 41.4259 15.9764C41.6105 15.802 41.8258 15.72 42.0823 15.72C42.3489 15.72 42.5746 15.8123 42.7489 15.9866C42.9233 16.161 43.0156 16.3764 43.0156 16.6123C43.0156 16.8584 42.9233 17.0738 42.7387 17.2379C42.5541 17.4123 42.3387 17.4943 42.072 17.4943C41.8053 17.4943 41.59 17.4123 41.4053 17.2379C41.2412 17.0636 41.1489 16.8584 41.1489 16.6123ZM42.8412 25.002H41.313V18.4892H42.8412V25.002Z" fill="black" fill-opacity="0.8956"/>
<path d="M47.4975 23.8887C47.7231 23.8887 47.9795 23.8374 48.2565 23.7348C48.5334 23.6323 48.7795 23.4887 49.0154 23.3143V24.74C48.7693 24.8836 48.4924 24.9861 48.1847 25.0579C47.877 25.1297 47.5282 25.1707 47.159 25.1707C46.2052 25.1707 45.4257 24.863 44.8205 24.2579C44.2154 23.6528 43.918 22.8733 43.918 21.94C43.918 20.8938 44.2257 20.0323 44.8411 19.3553C45.4564 18.6784 46.318 18.34 47.4462 18.34C47.7334 18.34 48.0206 18.381 48.318 18.4528C48.6154 18.5246 48.8411 18.6169 49.0154 18.7092V20.1759C48.7795 20.0015 48.5334 19.8682 48.2872 19.7759C48.0411 19.6836 47.7847 19.6323 47.5282 19.6323C46.9231 19.6323 46.4411 19.8271 46.0616 20.2169C45.6923 20.6066 45.5077 21.14 45.5077 21.8066C45.5077 22.463 45.6821 22.9759 46.0411 23.3451C46.4 23.7143 46.8821 23.8887 47.4975 23.8887Z" fill="black" fill-opacity="0.8956"/>
<path d="M53.3738 18.39C53.4969 18.39 53.6097 18.4003 53.702 18.4105C53.7943 18.431 53.8866 18.4516 53.9482 18.4721V20.0208C53.8661 19.9592 53.7533 19.908 53.5995 19.8567C53.4456 19.8054 53.261 19.7746 53.0354 19.7746C52.6559 19.7746 52.3379 19.9285 52.0815 20.2464C51.8251 20.5644 51.6918 21.0464 51.6918 21.7131V25.0054H50.1636V18.4926H51.6918V19.5182H51.7123C51.8559 19.1592 52.061 18.8823 52.3482 18.6874C52.6354 18.4926 52.9738 18.39 53.3738 18.39Z" fill="black" fill-opacity="0.8956"/>
<path d="M54.0308 21.8477C54.0308 20.7707 54.3385 19.9195 54.9436 19.2836C55.5487 18.6579 56.4 18.34 57.4769 18.34C58.4923 18.34 59.2923 18.6477 59.8667 19.2528C60.441 19.8579 60.7282 20.6784 60.7282 21.7041C60.7282 22.7605 60.4205 23.6015 59.8154 24.2271C59.2102 24.8528 58.3795 25.1605 57.3333 25.1605C56.3282 25.1605 55.5179 24.863 54.9333 24.2682C54.3282 23.6836 54.0308 22.8733 54.0308 21.8477ZM55.6308 21.7964C55.6308 22.4733 55.7846 22.9964 56.0923 23.3553C56.4 23.7143 56.841 23.8887 57.4154 23.8887C57.9692 23.8887 58.4 23.7143 58.6872 23.3553C58.9743 22.9964 59.1282 22.463 59.1282 21.7554C59.1282 21.0579 58.9743 20.5246 58.6769 20.1656C58.3795 19.8066 57.9487 19.6323 57.4051 19.6323C56.841 19.6323 56.4102 19.8169 56.0923 20.1964C55.7846 20.5759 55.6308 21.0989 55.6308 21.7964Z" fill="black" fill-opacity="0.8956"/>
<path d="M63.0053 20.2069C63.0053 20.4223 63.0771 20.5966 63.2104 20.7197C63.354 20.8428 63.6617 20.9966 64.1335 21.1915C64.7489 21.4377 65.1796 21.7146 65.4258 22.0223C65.6719 22.33 65.795 22.6992 65.795 23.13C65.795 23.7454 65.5591 24.2377 65.0873 24.6069C64.6155 24.9761 63.9796 25.1607 63.1796 25.1607C62.913 25.1607 62.6155 25.13 62.2873 25.0582C61.9591 24.9966 61.6822 24.9043 61.4565 24.812V23.3043C61.7335 23.4992 62.0309 23.653 62.3591 23.7659C62.6771 23.8787 62.9745 23.9402 63.2309 23.9402C63.5796 23.9402 63.836 23.8889 64.0001 23.7966C64.1642 23.7043 64.2463 23.5402 64.2463 23.3043C64.2463 23.0889 64.1642 22.9146 63.9899 22.771C63.8155 22.6274 63.4976 22.453 63.0155 22.2684C62.4514 22.0325 62.0514 21.7659 61.8155 21.4684C61.5796 21.171 61.4565 20.7915 61.4565 20.3402C61.4565 19.7556 61.6924 19.2735 62.154 18.8941C62.6155 18.5146 63.2206 18.33 63.9694 18.33C64.195 18.33 64.4514 18.3505 64.7386 18.4018C65.0258 18.453 65.2617 18.5146 65.4463 18.5966V20.053C65.2412 19.9197 65.0053 19.8069 64.7386 19.7043C64.4719 19.612 64.195 19.5607 63.9386 19.5607C63.6514 19.5607 63.4155 19.6223 63.2617 19.7351C63.0873 19.8479 63.0053 20.012 63.0053 20.2069Z" fill="black" fill-opacity="0.8956"/>
<path d="M66.4717 21.8477C66.4717 20.7707 66.7794 19.9195 67.3845 19.2836C67.9896 18.6579 68.8409 18.34 69.9178 18.34C70.9332 18.34 71.7332 18.6477 72.3076 19.2528C72.8819 19.8579 73.1691 20.6784 73.1691 21.7041C73.1691 22.7605 72.8614 23.6015 72.2563 24.2271C71.6512 24.8528 70.8204 25.1605 69.7742 25.1605C68.7691 25.1605 67.9589 24.863 67.3742 24.2682C66.7691 23.6836 66.4717 22.8733 66.4717 21.8477ZM68.0614 21.7964C68.0614 22.4733 68.2153 22.9964 68.523 23.3554C68.8307 23.7143 69.2717 23.8887 69.846 23.8887C70.3999 23.8887 70.8307 23.7143 71.1178 23.3554C71.405 22.9964 71.5589 22.463 71.5589 21.7554C71.5589 21.0579 71.405 20.5246 71.1076 20.1656C70.8101 19.8066 70.3794 19.6323 69.8358 19.6323C69.2717 19.6323 68.8409 19.8169 68.523 20.1964C68.2153 20.5759 68.0614 21.0989 68.0614 21.7964Z" fill="black" fill-opacity="0.8956"/>
<path d="M78.2258 19.7523V23.0959C78.2258 23.7933 78.3899 24.3062 78.7079 24.6549C79.0258 25.0036 79.5181 25.1677 80.1643 25.1677C80.3797 25.1677 80.6053 25.1472 80.8309 25.0959C81.0566 25.0446 81.2207 25.0036 81.313 24.9421V23.6703C81.2207 23.7318 81.1079 23.7831 80.9848 23.8241C80.8617 23.8651 80.7489 23.8857 80.6668 23.8857C80.3591 23.8857 80.1232 23.8036 79.9797 23.6395C79.8361 23.4754 79.7643 23.1882 79.7643 22.7882V19.7421H81.3232V18.4908H79.7745V16.5626L78.2361 17.0344V18.501H75.9489V17.7113C75.9489 17.3215 76.0309 17.0241 76.2053 16.819C76.3796 16.6139 76.6258 16.5215 76.9438 16.5215C77.1079 16.5215 77.2514 16.5421 77.3848 16.5831C77.5079 16.6241 77.6002 16.6651 77.6514 16.6959V15.3728C77.5386 15.3318 77.4155 15.3113 77.272 15.2908C77.1284 15.2703 76.9643 15.26 76.7797 15.26C76.0822 15.26 75.5079 15.4754 75.0668 15.9164C74.6258 16.3574 74.4002 16.9113 74.4002 17.5985V18.501H73.313V19.7523H74.4002V25.0139H75.9489V19.7523H78.2258V19.7523Z" fill="black" fill-opacity="0.8956"/>
<path d="M39.8359 15.92V25.0072H38.2564V17.8893H38.2359L35.4154 25.0072H34.3692L31.4769 17.8893H31.4564V25.0072H30V15.92H32.2564L34.8718 22.6585H34.9128L37.6718 15.92H39.8359Z" fill="black" fill-opacity="0.8956"/>
<rect x="0.5" y="0.5" width="118" height="31" rx="3.5" stroke="url(#paint0_linear_1603_28827)"/>
<defs>
<linearGradient id="paint0_linear_1603_28827" x1="59.5" y1="1" x2="59.5" y2="31" gradientUnits="userSpaceOnUse">
<stop offset="0.905762" stop-opacity="0.0578"/>
<stop offset="1" stop-opacity="0.1622"/>
</linearGradient>
</defs>
</svg>
