<svg width="116" height="34" viewBox="0 0 116 34" fill="none" xmlns="http://www.w3.org/2000/svg">
<rect x="1" y="1" width="114" height="32" rx="4" fill="#202020"/>
<rect x="0.5" y="0.5" width="115" height="33" rx="4.5" stroke="black" stroke-opacity="0.1"/>
<path d="M17.2275 18H15.96V13.0854C15.96 12.8634 15.9653 12.6217 15.9761 12.3604C15.9904 12.0954 16.0083 11.8143 16.0298 11.5171H15.9976C15.9546 11.7212 15.9134 11.8966 15.874 12.0435C15.8382 12.1867 15.8024 12.3013 15.7666 12.3872L13.5054 18H12.6245L10.3525 12.4355C10.3239 12.3568 10.2881 12.2404 10.2451 12.0864C10.2057 11.9325 10.1628 11.7427 10.1162 11.5171H10.084C10.1055 11.7749 10.1198 12.0488 10.127 12.3389C10.1341 12.6253 10.1377 12.9279 10.1377 13.2466V18H8.95605V10.2979H10.7607L12.7642 15.3037C12.8429 15.4935 12.9074 15.6689 12.9575 15.8301C13.0112 15.9876 13.0524 16.1344 13.0811 16.2705H13.1133C13.1777 16.0664 13.2386 15.882 13.2959 15.7173C13.3532 15.5526 13.4069 15.4093 13.457 15.2876L15.4873 10.2979H17.2275V18ZM19.6177 11.4365C19.3885 11.4365 19.1987 11.3631 19.0483 11.2163C18.8979 11.0695 18.8228 10.8887 18.8228 10.6738C18.8228 10.4518 18.8979 10.2692 19.0483 10.126C19.1987 9.98275 19.3885 9.91113 19.6177 9.91113C19.8504 9.91113 20.042 9.98275 20.1924 10.126C20.3428 10.2692 20.418 10.4518 20.418 10.6738C20.418 10.8923 20.3428 11.0749 20.1924 11.2217C20.042 11.3649 19.8504 11.4365 19.6177 11.4365ZM20.2354 18H18.9839V12.5H20.2354V18ZM25.9824 17.6616C25.7103 17.8263 25.4399 17.9445 25.1714 18.0161C24.9028 18.0913 24.611 18.1289 24.2959 18.1289C23.4508 18.1289 22.7741 17.8818 22.2656 17.3877C21.7607 16.8936 21.5083 16.2222 21.5083 15.3735C21.5083 14.4604 21.7697 13.7318 22.2925 13.1875C22.8188 12.6432 23.5278 12.3711 24.4194 12.3711C24.731 12.3711 25.0138 12.4051 25.2681 12.4731C25.5259 12.5376 25.7873 12.645 26.0522 12.7954L25.5635 13.6655C25.3773 13.5617 25.1947 13.4865 25.0156 13.4399C24.8366 13.3898 24.6414 13.3647 24.4302 13.3647C23.9038 13.3647 23.4974 13.5384 23.2109 13.8857C22.9245 14.2331 22.7812 14.6932 22.7812 15.2661C22.7812 15.8677 22.9352 16.3296 23.2432 16.6519C23.5547 16.9741 23.945 17.1353 24.4141 17.1353C24.5573 17.1353 24.722 17.1102 24.9082 17.0601C25.0944 17.0063 25.2824 16.9222 25.4722 16.8076L25.9824 17.6616ZM30.1021 13.5474C30.034 13.5295 29.9678 13.5169 29.9033 13.5098C29.8424 13.499 29.7708 13.4937 29.6885 13.4937C29.2409 13.4937 28.8971 13.6584 28.6572 13.9878C28.4173 14.3172 28.2974 14.7469 28.2974 15.2769V18H27.0459V12.5H28.2974V13.5581H28.3188C28.4478 13.1785 28.6375 12.8921 28.8882 12.6987C29.1388 12.5018 29.4342 12.4033 29.7744 12.4033C29.8711 12.4033 29.957 12.4087 30.0322 12.4194C30.111 12.4302 30.1862 12.4463 30.2578 12.4678L30.1021 13.5474ZM33.5557 18.1289C32.6963 18.1289 32.0142 17.8729 31.5093 17.3608C31.008 16.8452 30.7573 16.1559 30.7573 15.293C30.7609 14.3799 31.0223 13.6655 31.5415 13.1499C32.0607 12.6307 32.7679 12.3711 33.6631 12.3711C34.526 12.3675 35.1992 12.6217 35.6826 13.1338C36.1696 13.6423 36.4131 14.3315 36.4131 15.2017C36.4131 16.0968 36.1553 16.8094 35.6396 17.3394C35.1276 17.8657 34.4329 18.1289 33.5557 18.1289ZM33.6147 17.1353C34.1125 17.1353 34.4902 16.9723 34.748 16.6465C35.0094 16.3206 35.1401 15.8498 35.1401 15.2339C35.1401 14.6252 35.0094 14.1615 34.748 13.8428C34.4867 13.5241 34.1071 13.3647 33.6094 13.3647C33.1188 13.3647 32.7321 13.533 32.4492 13.8696C32.1699 14.2062 32.0303 14.6717 32.0303 15.2661C32.0303 15.8641 32.1699 16.326 32.4492 16.6519C32.7285 16.9741 33.117 17.1353 33.6147 17.1353ZM37.1543 17.5596L37.6968 16.6787C37.9116 16.8291 38.139 16.9508 38.3789 17.0439C38.6224 17.1335 38.8856 17.1782 39.1685 17.1782C39.4764 17.1782 39.7145 17.1227 39.8828 17.0117C40.0547 16.8971 40.1406 16.7271 40.1406 16.5015C40.1406 16.3224 40.069 16.1738 39.9258 16.0557C39.7861 15.9339 39.5462 15.8337 39.2061 15.7549C38.5186 15.5938 38.0352 15.3807 37.7559 15.1157C37.4801 14.8507 37.3423 14.5016 37.3423 14.0684C37.3423 13.5706 37.5356 13.1642 37.9224 12.8491C38.3091 12.5304 38.8158 12.3711 39.4424 12.3711C39.7539 12.3711 40.0511 12.4123 40.334 12.4946C40.6169 12.5734 40.8926 12.7005 41.1611 12.876L40.6562 13.7354C40.4199 13.585 40.2033 13.4775 40.0063 13.4131C39.8094 13.3486 39.6071 13.3164 39.3994 13.3164C39.1058 13.3164 38.8766 13.3719 38.7119 13.4829C38.5508 13.5903 38.4702 13.7407 38.4702 13.9341C38.4702 14.1382 38.5526 14.2904 38.7173 14.3906C38.8856 14.4873 39.1667 14.5822 39.5605 14.6753C40.1549 14.8185 40.59 15.0262 40.8657 15.2983C41.1414 15.5669 41.2793 15.9268 41.2793 16.3779C41.2793 16.9115 41.0841 17.3376 40.6938 17.6562C40.3071 17.9714 39.7826 18.1289 39.1201 18.1289C38.762 18.1289 38.4183 18.0824 38.0889 17.9893C37.763 17.8926 37.4515 17.7493 37.1543 17.5596ZM44.8779 18.1289C44.0186 18.1289 43.3364 17.8729 42.8315 17.3608C42.3302 16.8452 42.0796 16.1559 42.0796 15.293C42.0832 14.3799 42.3446 13.6655 42.8638 13.1499C43.383 12.6307 44.0902 12.3711 44.9854 12.3711C45.8483 12.3675 46.5215 12.6217 47.0049 13.1338C47.4919 13.6423 47.7354 14.3315 47.7354 15.2017C47.7354 16.0968 47.4775 16.8094 46.9619 17.3394C46.4499 17.8657 45.7552 18.1289 44.8779 18.1289ZM44.937 17.1353C45.4347 17.1353 45.8125 16.9723 46.0703 16.6465C46.3317 16.3206 46.4624 15.8498 46.4624 15.2339C46.4624 14.6252 46.3317 14.1615 46.0703 13.8428C45.8089 13.5241 45.4294 13.3647 44.9316 13.3647C44.4411 13.3647 44.0544 13.533 43.7715 13.8696C43.4922 14.2062 43.3525 14.6717 43.3525 15.2661C43.3525 15.8641 43.4922 16.326 43.7715 16.6519C44.0508 16.9741 44.4393 17.1353 44.937 17.1353ZM51.9839 10.8403C51.8836 10.8009 51.7923 10.7741 51.71 10.7598C51.6276 10.7419 51.5381 10.7329 51.4414 10.7329C51.1764 10.7329 50.9759 10.8099 50.8398 10.9639C50.7074 11.1143 50.6411 11.3327 50.6411 11.6191V12.5H51.9141V13.4775H50.6411V18H49.395V13.4775H48.4604V12.5H49.395V11.5547C49.395 10.9961 49.5741 10.5539 49.9321 10.228C50.2938 9.8986 50.7718 9.73389 51.3662 9.73389C51.5524 9.73389 51.7135 9.74642 51.8496 9.77148C51.9857 9.79655 52.1271 9.83236 52.2739 9.87891L51.9839 10.8403ZM55.7974 17.9248C55.6362 17.9928 55.4679 18.043 55.2925 18.0752C55.117 18.1074 54.929 18.1235 54.7285 18.1235C54.2201 18.1235 53.828 17.9893 53.5522 17.7207C53.2801 17.4486 53.144 17.0439 53.144 16.5068V13.4775H52.2202V12.5H53.144V11.1626L54.3901 10.7866V12.5H55.7061V13.4775H54.3901V16.4048C54.3901 16.6733 54.4385 16.8667 54.5352 16.9849C54.6354 17.103 54.7894 17.1621 54.9971 17.1621C55.0973 17.1621 55.1922 17.1514 55.2817 17.1299C55.3748 17.1048 55.4572 17.0744 55.5288 17.0386L55.7974 17.9248ZM59.2939 17.4468L59.8633 16.4639C60.2106 16.6787 60.5347 16.8309 60.8354 16.9204C61.1362 17.0063 61.4728 17.0493 61.8452 17.0493C62.2892 17.0493 62.6383 16.9544 62.8926 16.7646C63.1504 16.5713 63.2793 16.2956 63.2793 15.9375C63.2793 15.6117 63.1719 15.3556 62.957 15.1694C62.7458 14.9797 62.3859 14.806 61.8774 14.6484C61.0933 14.4157 60.5168 14.1274 60.1479 13.7837C59.7791 13.4399 59.5947 12.9744 59.5947 12.3872C59.5947 11.7498 59.8328 11.2217 60.3091 10.8027C60.7853 10.3802 61.4316 10.1689 62.248 10.1689C62.6061 10.1689 62.9588 10.2083 63.3062 10.2871C63.6535 10.3659 63.9972 10.4876 64.3374 10.6523L63.8594 11.6729C63.5622 11.5189 63.2775 11.4097 63.0054 11.3452C62.7368 11.2808 62.4629 11.2485 62.1836 11.2485C61.7754 11.2485 61.4531 11.3381 61.2168 11.5171C60.984 11.6961 60.8677 11.9486 60.8677 12.2744C60.8677 12.5645 60.9751 12.7936 61.1899 12.9619C61.4048 13.1266 61.7736 13.2896 62.2964 13.4507C63.0985 13.6906 63.675 13.9896 64.0259 14.3477C64.3804 14.7057 64.5576 15.1981 64.5576 15.8247C64.5576 16.4979 64.3177 17.0511 63.8379 17.4844C63.3581 17.9141 62.6742 18.1289 61.7861 18.1289C61.3421 18.1289 60.9089 18.0734 60.4863 17.9624C60.0638 17.8478 59.6663 17.6759 59.2939 17.4468ZM68.4409 17.9248C68.2798 17.9928 68.1115 18.043 67.936 18.0752C67.7606 18.1074 67.5726 18.1235 67.3721 18.1235C66.8636 18.1235 66.4715 17.9893 66.1958 17.7207C65.9237 17.4486 65.7876 17.0439 65.7876 16.5068V13.4775H64.8638V12.5H65.7876V11.1626L67.0337 10.7866V12.5H68.3496V13.4775H67.0337V16.4048C67.0337 16.6733 67.082 16.8667 67.1787 16.9849C67.279 17.103 67.4329 17.1621 67.6406 17.1621C67.7409 17.1621 67.8358 17.1514 67.9253 17.1299C68.0184 17.1048 68.1007 17.0744 68.1724 17.0386L68.4409 17.9248ZM71.8623 18.1289C71.0029 18.1289 70.3208 17.8729 69.8159 17.3608C69.3146 16.8452 69.064 16.1559 69.064 15.293C69.0675 14.3799 69.3289 13.6655 69.8481 13.1499C70.3674 12.6307 71.0745 12.3711 71.9697 12.3711C72.8327 12.3675 73.5059 12.6217 73.9893 13.1338C74.4762 13.6423 74.7197 14.3315 74.7197 15.2017C74.7197 16.0968 74.4619 16.8094 73.9463 17.3394C73.4342 17.8657 72.7396 18.1289 71.8623 18.1289ZM71.9214 17.1353C72.4191 17.1353 72.7969 16.9723 73.0547 16.6465C73.3161 16.3206 73.4468 15.8498 73.4468 15.2339C73.4468 14.6252 73.3161 14.1615 73.0547 13.8428C72.7933 13.5241 72.4137 13.3647 71.916 13.3647C71.4255 13.3647 71.0387 13.533 70.7559 13.8696C70.4766 14.2062 70.3369 14.6717 70.3369 15.2661C70.3369 15.8641 70.4766 16.326 70.7559 16.6519C71.0352 16.9741 71.4237 17.1353 71.9214 17.1353ZM79.0542 13.5474C78.9862 13.5295 78.9199 13.5169 78.8555 13.5098C78.7946 13.499 78.723 13.4937 78.6406 13.4937C78.193 13.4937 77.8493 13.6584 77.6094 13.9878C77.3695 14.3172 77.2495 14.7469 77.2495 15.2769V18H75.998V12.5H77.2495V13.5581H77.271C77.3999 13.1785 77.5897 12.8921 77.8403 12.6987C78.091 12.5018 78.3864 12.4033 78.7266 12.4033C78.8232 12.4033 78.9092 12.4087 78.9844 12.4194C79.0632 12.4302 79.1383 12.4463 79.21 12.4678L79.0542 13.5474ZM84.7207 15.5776H80.9663C80.9878 16.0968 81.1382 16.4925 81.4175 16.7646C81.6968 17.0332 82.0871 17.1675 82.5884 17.1675C82.7925 17.1675 83.0252 17.1263 83.2866 17.0439C83.548 16.9616 83.8058 16.8291 84.0601 16.6465L84.624 17.4253C84.2839 17.6724 83.9383 17.8514 83.5874 17.9624C83.2365 18.0734 82.8498 18.1289 82.4272 18.1289C81.5715 18.1289 80.9054 17.8836 80.4292 17.3931C79.953 16.8989 79.7131 16.2096 79.7095 15.3252C79.7095 14.4443 79.9548 13.7318 80.4453 13.1875C80.9395 12.6432 81.5715 12.3711 82.3413 12.3711C83.0789 12.3711 83.659 12.6038 84.0815 13.0693C84.5076 13.5312 84.7207 14.1865 84.7207 15.0352V15.5776ZM83.5122 14.7129C83.5122 14.2402 83.4084 13.8857 83.2007 13.6494C82.9966 13.4095 82.7065 13.2896 82.3306 13.2896C81.9761 13.2896 81.6735 13.4185 81.4229 13.6763C81.1758 13.9305 81.0236 14.276 80.9663 14.7129H83.5122Z" fill="white"/>
<path d="M62.4922 24.2705V23.8296H64.3584V24.2705H62.4922ZM67.4619 21.7378C68.0133 21.7378 68.4155 21.9064 68.6685 22.2437C68.9237 22.5786 69.0513 23.1118 69.0513 23.8433V26H66.9937V25.4189H68.4155V23.9219C68.4155 23.3636 68.3438 22.958 68.2002 22.7051C68.0566 22.4521 67.8128 22.3257 67.4688 22.3257C67.1611 22.3257 66.9082 22.4647 66.71 22.7427C66.5094 23.0252 66.326 23.5163 66.1597 24.2158L65.7324 26H65.0557L65.5239 24.1646C65.5763 23.9504 65.6299 23.7567 65.6846 23.5835C65.7393 23.4103 65.7928 23.2565 65.8452 23.1221L64.9907 21.8062H65.7324L66.1597 22.5C66.3374 22.2311 66.5277 22.0374 66.7305 21.9189C66.9333 21.7982 67.1771 21.7378 67.4619 21.7378ZM74.7012 22.3872V26H74.0688V22.3872H71.6763V21.8062H75.2241V22.3872H74.7012ZM78.5977 23.5425V26H77.9653V23.5356C77.9653 23.1209 77.881 22.8258 77.7124 22.6504C77.5461 22.4749 77.2533 22.3872 76.834 22.3872H75.5522V21.8062H76.8408C77.2601 21.8062 77.5985 21.8654 77.856 21.9839C78.1134 22.1001 78.3014 22.2858 78.4199 22.541C78.5384 22.7939 78.5977 23.1278 78.5977 23.5425ZM80.3818 21.8062V26H79.7529V21.8062H80.3818ZM84.856 23.5425V26H84.2236V23.5356C84.2236 23.1164 84.1382 22.8201 83.9673 22.647C83.7987 22.4738 83.5059 22.3872 83.0889 22.3872H81.4961V21.8062H83.0991C83.5184 21.8062 83.8568 21.8654 84.1143 21.9839C84.3717 22.1001 84.5597 22.2858 84.6782 22.541C84.7967 22.7939 84.856 23.1278 84.856 23.5425ZM82.1934 23.2759V26H81.5645V23.2759H82.1934Z" fill="white" fill-opacity="0.786"/>
<g clip-path="url(#clip0_974_1798)">
<g clip-path="url(#clip1_974_1798)">
<path d="M90.2812 11C90.2812 10.5858 90.617 10.25 91.0312 10.25H106.969C107.383 10.25 107.719 10.5858 107.719 11V22.3438C107.719 24.0524 106.334 25.4375 104.625 25.4375H93.375C91.6664 25.4375 90.2812 24.0524 90.2812 22.3438V11Z" fill="url(#paint0_linear_974_1798)"/>
<mask id="mask0_974_1798" style="mask-type:alpha" maskUnits="userSpaceOnUse" x="90" y="10" width="18" height="16">
<path d="M90.2812 11C90.2812 10.5858 90.617 10.25 91.0312 10.25H106.969C107.383 10.25 107.719 10.5858 107.719 11V22.3438C107.719 24.0524 106.334 25.4375 104.625 25.4375H93.375C91.6664 25.4375 90.2812 24.0524 90.2812 22.3438V11Z" fill="url(#paint1_linear_974_1798)"/>
</mask>
<g mask="url(#mask0_974_1798)">
<g filter="url(#filter0_dd_974_1798)">
<path d="M94.7812 10.8125V8.5625H103.219V10.8125" stroke="url(#paint2_linear_974_1798)" stroke-width="1.125" stroke-linecap="round"/>
</g>
</g>
<g filter="url(#filter1_dd_974_1798)">
<path d="M98.719 14.1875H95.344V17.5625H98.719V14.1875Z" fill="#F25022"/>
<path d="M102.656 14.1875H99.2812V17.5625H102.656V14.1875Z" fill="#7FBA00"/>
<path d="M102.656 18.125H99.2812V21.5H102.656V18.125Z" fill="#FFB900"/>
<path d="M98.7188 18.125H95.3438V21.5H98.7188V18.125Z" fill="#00A4EF"/>
</g>
<path d="M94.7812 10.8125V9.125C94.7812 8.81434 95.0331 8.5625 95.3438 8.5625H102.656C102.967 8.5625 103.219 8.81434 103.219 9.125V10.8125" stroke="url(#paint3_linear_974_1798)" stroke-width="1.125" stroke-linecap="round"/>
<rect x="95.3438" y="8" width="7.3125" height="1.125" fill="url(#paint4_linear_974_1798)"/>
<mask id="mask1_974_1798" style="mask-type:alpha" maskUnits="userSpaceOnUse" x="95" y="8" width="8" height="2">
<rect x="95.3438" y="8" width="7.3125" height="1.125" fill="url(#paint5_linear_974_1798)"/>
</mask>
<g mask="url(#mask1_974_1798)">
<g filter="url(#filter2_dd_974_1798)">
<rect x="93.7189" y="8.56274" width="1.625" height="2.8125" fill="#C4C4C4"/>
</g>
</g>
</g>
</g>
<defs>
<filter id="filter0_dd_974_1798" x="93.0938" y="7.25" width="11.8125" height="5.625" filterUnits="userSpaceOnUse" color-interpolation-filters="sRGB">
<feFlood flood-opacity="0" result="BackgroundImageFix"/>
<feColorMatrix in="SourceAlpha" type="matrix" values="0 0 0 0 0 0 0 0 0 0 0 0 0 0 0 0 0 0 127 0" result="hardAlpha"/>
<feOffset dy="0.1875"/>
<feGaussianBlur stdDeviation="0.1875"/>
<feColorMatrix type="matrix" values="0 0 0 0 0 0 0 0 0 0 0 0 0 0 0 0 0 0 0.1 0"/>
<feBlend mode="normal" in2="BackgroundImageFix" result="effect1_dropShadow_974_1798"/>
<feColorMatrix in="SourceAlpha" type="matrix" values="0 0 0 0 0 0 0 0 0 0 0 0 0 0 0 0 0 0 127 0" result="hardAlpha"/>
<feOffset dy="0.375"/>
<feGaussianBlur stdDeviation="0.5625"/>
<feColorMatrix type="matrix" values="0 0 0 0 0 0 0 0 0 0 0 0 0 0 0 0 0 0 0.2 0"/>
<feBlend mode="normal" in2="effect1_dropShadow_974_1798" result="effect2_dropShadow_974_1798"/>
<feBlend mode="normal" in="SourceGraphic" in2="effect2_dropShadow_974_1798" result="shape"/>
</filter>
<filter id="filter1_dd_974_1798" x="94.2188" y="13.4375" width="9.5625" height="9.5625" filterUnits="userSpaceOnUse" color-interpolation-filters="sRGB">
<feFlood flood-opacity="0" result="BackgroundImageFix"/>
<feColorMatrix in="SourceAlpha" type="matrix" values="0 0 0 0 0 0 0 0 0 0 0 0 0 0 0 0 0 0 127 0" result="hardAlpha"/>
<feOffset dy="0.1875"/>
<feGaussianBlur stdDeviation="0.1875"/>
<feColorMatrix type="matrix" values="0 0 0 0 1 0 0 0 0 1 0 0 0 0 1 0 0 0 0.6 0"/>
<feBlend mode="normal" in2="BackgroundImageFix" result="effect1_dropShadow_974_1798"/>
<feColorMatrix in="SourceAlpha" type="matrix" values="0 0 0 0 0 0 0 0 0 0 0 0 0 0 0 0 0 0 127 0" result="hardAlpha"/>
<feOffset dy="0.375"/>
<feGaussianBlur stdDeviation="0.5625"/>
<feColorMatrix type="matrix" values="0 0 0 0 1 0 0 0 0 1 0 0 0 0 1 0 0 0 0.6 0"/>
<feBlend mode="normal" in2="effect1_dropShadow_974_1798" result="effect2_dropShadow_974_1798"/>
<feBlend mode="normal" in="SourceGraphic" in2="effect2_dropShadow_974_1798" result="shape"/>
</filter>
<filter id="filter2_dd_974_1798" x="92.5939" y="6.6875" width="12.8124" height="5.06274" filterUnits="userSpaceOnUse" color-interpolation-filters="sRGB">
<feFlood flood-opacity="0" result="BackgroundImageFix"/>
<feColorMatrix in="SourceAlpha" type="matrix" values="0 0 0 0 0 0 0 0 0 0 0 0 0 0 0 0 0 0 127 0" result="hardAlpha"/>
<feOffset dy="-0.75"/>
<feGaussianBlur stdDeviation="0.1875"/>
<feColorMatrix type="matrix" values="0 0 0 0 0 0 0 0 0 0 0 0 0 0 0 0 0 0 0.1 0"/>
<feBlend mode="normal" in2="BackgroundImageFix" result="effect1_dropShadow_974_1798"/>
<feColorMatrix in="SourceAlpha" type="matrix" values="0 0 0 0 0 0 0 0 0 0 0 0 0 0 0 0 0 0 127 0" result="hardAlpha"/>
<feOffset dy="-0.75"/>
<feGaussianBlur stdDeviation="0.5625"/>
<feColorMatrix type="matrix" values="0 0 0 0 0 0 0 0 0 0 0 0 0 0 0 0 0 0 0.2 0"/>
<feBlend mode="normal" in2="effect1_dropShadow_974_1798" result="effect2_dropShadow_974_1798"/>
<feBlend mode="normal" in="SourceGraphic" in2="effect2_dropShadow_974_1798" result="shape"/>
</filter>
<linearGradient id="paint0_linear_974_1798" x1="94.2443" y1="8.00639" x2="97.9039" y2="24.8132" gradientUnits="userSpaceOnUse">
<stop offset="0.270833" stop-color="white"/>
<stop offset="1" stop-color="#DFDFDF"/>
</linearGradient>
<linearGradient id="paint1_linear_974_1798" x1="99" y1="10.25" x2="102.351" y2="25.9624" gradientUnits="userSpaceOnUse">
<stop stop-color="#0078D4"/>
<stop offset="1" stop-color="#114A8B"/>
</linearGradient>
<linearGradient id="paint2_linear_974_1798" x1="99" y1="8.5625" x2="99.1583" y2="10.9858" gradientUnits="userSpaceOnUse">
<stop stop-color="#28AFEA"/>
<stop offset="1" stop-color="#0078D4"/>
</linearGradient>
<linearGradient id="paint3_linear_974_1798" x1="99" y1="8.5625" x2="99.1583" y2="10.9858" gradientUnits="userSpaceOnUse">
<stop stop-color="#30DAFF"/>
<stop offset="1" stop-color="#0094D4"/>
</linearGradient>
<linearGradient id="paint4_linear_974_1798" x1="98.5938" y1="8" x2="98.5937" y2="9.125" gradientUnits="userSpaceOnUse">
<stop stop-color="#22BCFF"/>
<stop offset="1" stop-color="#0088F0"/>
</linearGradient>
<linearGradient id="paint5_linear_974_1798" x1="98.5938" y1="8" x2="98.5937" y2="9.125" gradientUnits="userSpaceOnUse">
<stop stop-color="#28AFEA"/>
<stop offset="1" stop-color="#3CCBF4"/>
</linearGradient>
<clipPath id="clip0_974_1798">
<rect width="18" height="18" fill="white" transform="translate(90 8)"/>
</clipPath>
<clipPath id="clip1_974_1798">
<rect width="18" height="18" fill="white" transform="translate(90 8)"/>
</clipPath>
</defs>
</svg>
