<svg width="116" height="34" viewBox="0 0 116 34" fill="none" xmlns="http://www.w3.org/2000/svg">
<rect x="1" y="1" width="114" height="32" rx="4" fill="#202020"/>
<rect x="0.5" y="0.5" width="115" height="33" rx="4.5" stroke="black" stroke-opacity="0.1"/>
<g clip-path="url(#clip0_974_1800)">
<g clip-path="url(#clip1_974_1800)">
<path d="M8.28125 11C8.28125 10.5858 8.61704 10.25 9.03125 10.25H24.9687C25.383 10.25 25.7188 10.5858 25.7188 11V22.3438C25.7188 24.0524 24.3336 25.4375 22.625 25.4375H11.375C9.66637 25.4375 8.28125 24.0524 8.28125 22.3438V11Z" fill="url(#paint0_linear_974_1800)"/>
<mask id="mask0_974_1800" style="mask-type:alpha" maskUnits="userSpaceOnUse" x="8" y="10" width="18" height="16">
<path d="M8.28125 11C8.28125 10.5858 8.61704 10.25 9.03125 10.25H24.9687C25.383 10.25 25.7188 10.5858 25.7188 11V22.3438C25.7188 24.0524 24.3336 25.4375 22.625 25.4375H11.375C9.66637 25.4375 8.28125 24.0524 8.28125 22.3438V11Z" fill="url(#paint1_linear_974_1800)"/>
</mask>
<g mask="url(#mask0_974_1800)">
<g filter="url(#filter0_dd_974_1800)">
<path d="M12.7812 10.8125V8.5625H21.2187V10.8125" stroke="url(#paint2_linear_974_1800)" stroke-width="1.125" stroke-linecap="round"/>
</g>
</g>
<g filter="url(#filter1_dd_974_1800)">
<path d="M16.719 14.1875H13.344V17.5625H16.719V14.1875Z" fill="#F25022"/>
<path d="M20.6562 14.1875H17.2812V17.5625H20.6562V14.1875Z" fill="#7FBA00"/>
<path d="M20.6562 18.125H17.2812V21.5H20.6562V18.125Z" fill="#FFB900"/>
<path d="M16.7188 18.125H13.3438V21.5H16.7188V18.125Z" fill="#00A4EF"/>
</g>
<path d="M12.7812 10.8125V9.125C12.7812 8.81434 13.0331 8.5625 13.3438 8.5625H20.6563C20.9669 8.5625 21.2188 8.81434 21.2188 9.125V10.8125" stroke="url(#paint3_linear_974_1800)" stroke-width="1.125" stroke-linecap="round"/>
<rect x="13.3438" y="8" width="7.3125" height="1.125" fill="url(#paint4_linear_974_1800)"/>
<mask id="mask1_974_1800" style="mask-type:alpha" maskUnits="userSpaceOnUse" x="13" y="8" width="8" height="2">
<rect x="13.3438" y="8" width="7.3125" height="1.125" fill="url(#paint5_linear_974_1800)"/>
</mask>
<g mask="url(#mask1_974_1800)">
<g filter="url(#filter2_dd_974_1800)">
<rect x="11.7189" y="8.56274" width="1.625" height="2.8125" fill="#C4C4C4"/>
</g>
</g>
</g>
</g>
<path d="M39.2275 16H37.96V11.0854C37.96 10.8634 37.9653 10.6217 37.9761 10.3604C37.9904 10.0954 38.0083 9.81429 38.0298 9.51709H37.9976C37.9546 9.72119 37.9134 9.89665 37.874 10.0435C37.8382 10.1867 37.8024 10.3013 37.7666 10.3872L35.5054 16H34.6245L32.3525 10.4355C32.3239 10.3568 32.2881 10.2404 32.2451 10.0864C32.2057 9.93245 32.1628 9.74268 32.1162 9.51709H32.084C32.1055 9.7749 32.1198 10.0488 32.127 10.3389C32.1341 10.6253 32.1377 10.9279 32.1377 11.2466V16H30.9561V8.29785H32.7607L34.7642 13.3037C34.8429 13.4935 34.9074 13.6689 34.9575 13.8301C35.0112 13.9876 35.0524 14.1344 35.0811 14.2705H35.1133C35.1777 14.0664 35.2386 13.882 35.2959 13.7173C35.3532 13.5526 35.4069 13.4093 35.457 13.2876L37.4873 8.29785H39.2275V16ZM41.6177 9.43652C41.3885 9.43652 41.1987 9.36312 41.0483 9.21631C40.8979 9.0695 40.8228 8.88867 40.8228 8.67383C40.8228 8.45182 40.8979 8.26921 41.0483 8.12598C41.1987 7.98275 41.3885 7.91113 41.6177 7.91113C41.8504 7.91113 42.042 7.98275 42.1924 8.12598C42.3428 8.26921 42.418 8.45182 42.418 8.67383C42.418 8.89225 42.3428 9.07487 42.1924 9.22168C42.042 9.36491 41.8504 9.43652 41.6177 9.43652ZM42.2354 16H40.9839V10.5H42.2354V16ZM47.9824 15.6616C47.7103 15.8263 47.4399 15.9445 47.1714 16.0161C46.9028 16.0913 46.611 16.1289 46.2959 16.1289C45.4508 16.1289 44.7741 15.8818 44.2656 15.3877C43.7607 14.8936 43.5083 14.2222 43.5083 13.3735C43.5083 12.4604 43.7697 11.7318 44.2925 11.1875C44.8188 10.6432 45.5278 10.3711 46.4194 10.3711C46.731 10.3711 47.0138 10.4051 47.2681 10.4731C47.5259 10.5376 47.7873 10.645 48.0522 10.7954L47.5635 11.6655C47.3773 11.5617 47.1947 11.4865 47.0156 11.4399C46.8366 11.3898 46.6414 11.3647 46.4302 11.3647C45.9038 11.3647 45.4974 11.5384 45.2109 11.8857C44.9245 12.2331 44.7812 12.6932 44.7812 13.2661C44.7812 13.8677 44.9352 14.3296 45.2432 14.6519C45.5547 14.9741 45.945 15.1353 46.4141 15.1353C46.5573 15.1353 46.722 15.1102 46.9082 15.0601C47.0944 15.0063 47.2824 14.9222 47.4722 14.8076L47.9824 15.6616ZM52.1021 11.5474C52.034 11.5295 51.9678 11.5169 51.9033 11.5098C51.8424 11.499 51.7708 11.4937 51.6885 11.4937C51.2409 11.4937 50.8971 11.6584 50.6572 11.9878C50.4173 12.3172 50.2974 12.7469 50.2974 13.2769V16H49.0459V10.5H50.2974V11.5581H50.3188C50.4478 11.1785 50.6375 10.8921 50.8882 10.6987C51.1388 10.5018 51.4342 10.4033 51.7744 10.4033C51.8711 10.4033 51.957 10.4087 52.0322 10.4194C52.111 10.4302 52.1862 10.4463 52.2578 10.4678L52.1021 11.5474ZM55.5557 16.1289C54.6963 16.1289 54.0142 15.8729 53.5093 15.3608C53.008 14.8452 52.7573 14.1559 52.7573 13.293C52.7609 12.3799 53.0223 11.6655 53.5415 11.1499C54.0607 10.6307 54.7679 10.3711 55.6631 10.3711C56.526 10.3675 57.1992 10.6217 57.6826 11.1338C58.1696 11.6423 58.4131 12.3315 58.4131 13.2017C58.4131 14.0968 58.1553 14.8094 57.6396 15.3394C57.1276 15.8657 56.4329 16.1289 55.5557 16.1289ZM55.6147 15.1353C56.1125 15.1353 56.4902 14.9723 56.748 14.6465C57.0094 14.3206 57.1401 13.8498 57.1401 13.2339C57.1401 12.6252 57.0094 12.1615 56.748 11.8428C56.4867 11.5241 56.1071 11.3647 55.6094 11.3647C55.1188 11.3647 54.7321 11.533 54.4492 11.8696C54.1699 12.2062 54.0303 12.6717 54.0303 13.2661C54.0303 13.8641 54.1699 14.326 54.4492 14.6519C54.7285 14.9741 55.117 15.1353 55.6147 15.1353ZM59.1543 15.5596L59.6968 14.6787C59.9116 14.8291 60.139 14.9508 60.3789 15.0439C60.6224 15.1335 60.8856 15.1782 61.1685 15.1782C61.4764 15.1782 61.7145 15.1227 61.8828 15.0117C62.0547 14.8971 62.1406 14.7271 62.1406 14.5015C62.1406 14.3224 62.069 14.1738 61.9258 14.0557C61.7861 13.9339 61.5462 13.8337 61.2061 13.7549C60.5186 13.5938 60.0352 13.3807 59.7559 13.1157C59.4801 12.8507 59.3423 12.5016 59.3423 12.0684C59.3423 11.5706 59.5356 11.1642 59.9224 10.8491C60.3091 10.5304 60.8158 10.3711 61.4424 10.3711C61.7539 10.3711 62.0511 10.4123 62.334 10.4946C62.6169 10.5734 62.8926 10.7005 63.1611 10.876L62.6562 11.7354C62.4199 11.585 62.2033 11.4775 62.0063 11.4131C61.8094 11.3486 61.6071 11.3164 61.3994 11.3164C61.1058 11.3164 60.8766 11.3719 60.7119 11.4829C60.5508 11.5903 60.4702 11.7407 60.4702 11.9341C60.4702 12.1382 60.5526 12.2904 60.7173 12.3906C60.8856 12.4873 61.1667 12.5822 61.5605 12.6753C62.1549 12.8185 62.59 13.0262 62.8657 13.2983C63.1414 13.5669 63.2793 13.9268 63.2793 14.3779C63.2793 14.9115 63.0841 15.3376 62.6938 15.6562C62.3071 15.9714 61.7826 16.1289 61.1201 16.1289C60.762 16.1289 60.4183 16.0824 60.0889 15.9893C59.763 15.8926 59.4515 15.7493 59.1543 15.5596ZM66.8779 16.1289C66.0186 16.1289 65.3364 15.8729 64.8315 15.3608C64.3302 14.8452 64.0796 14.1559 64.0796 13.293C64.0832 12.3799 64.3446 11.6655 64.8638 11.1499C65.383 10.6307 66.0902 10.3711 66.9854 10.3711C67.8483 10.3675 68.5215 10.6217 69.0049 11.1338C69.4919 11.6423 69.7354 12.3315 69.7354 13.2017C69.7354 14.0968 69.4775 14.8094 68.9619 15.3394C68.4499 15.8657 67.7552 16.1289 66.8779 16.1289ZM66.937 15.1353C67.4347 15.1353 67.8125 14.9723 68.0703 14.6465C68.3317 14.3206 68.4624 13.8498 68.4624 13.2339C68.4624 12.6252 68.3317 12.1615 68.0703 11.8428C67.8089 11.5241 67.4294 11.3647 66.9316 11.3647C66.4411 11.3647 66.0544 11.533 65.7715 11.8696C65.4922 12.2062 65.3525 12.6717 65.3525 13.2661C65.3525 13.8641 65.4922 14.326 65.7715 14.6519C66.0508 14.9741 66.4393 15.1353 66.937 15.1353ZM73.9839 8.84033C73.8836 8.80094 73.7923 8.77409 73.71 8.75977C73.6276 8.74186 73.5381 8.73291 73.4414 8.73291C73.1764 8.73291 72.9759 8.8099 72.8398 8.96387C72.7074 9.11426 72.6411 9.33268 72.6411 9.61914V10.5H73.9141V11.4775H72.6411V16H71.395V11.4775H70.4604V10.5H71.395V9.55469C71.395 8.99609 71.5741 8.55387 71.9321 8.22803C72.2938 7.8986 72.7718 7.73389 73.3662 7.73389C73.5524 7.73389 73.7135 7.74642 73.8496 7.77148C73.9857 7.79655 74.1271 7.83236 74.2739 7.87891L73.9839 8.84033ZM77.7974 15.9248C77.6362 15.9928 77.4679 16.043 77.2925 16.0752C77.117 16.1074 76.929 16.1235 76.7285 16.1235C76.2201 16.1235 75.828 15.9893 75.5522 15.7207C75.2801 15.4486 75.144 15.0439 75.144 14.5068V11.4775H74.2202V10.5H75.144V9.1626L76.3901 8.78662V10.5H77.7061V11.4775H76.3901V14.4048C76.3901 14.6733 76.4385 14.8667 76.5352 14.9849C76.6354 15.103 76.7894 15.1621 76.9971 15.1621C77.0973 15.1621 77.1922 15.1514 77.2817 15.1299C77.3748 15.1048 77.4572 15.0744 77.5288 15.0386L77.7974 15.9248ZM81.2939 15.4468L81.8633 14.4639C82.2106 14.6787 82.5347 14.8309 82.8354 14.9204C83.1362 15.0063 83.4728 15.0493 83.8452 15.0493C84.2892 15.0493 84.6383 14.9544 84.8926 14.7646C85.1504 14.5713 85.2793 14.2956 85.2793 13.9375C85.2793 13.6117 85.1719 13.3556 84.957 13.1694C84.7458 12.9797 84.3859 12.806 83.8774 12.6484C83.0933 12.4157 82.5168 12.1274 82.1479 11.7837C81.7791 11.4399 81.5947 10.9744 81.5947 10.3872C81.5947 9.74984 81.8328 9.22168 82.3091 8.80273C82.7853 8.38021 83.4316 8.16895 84.248 8.16895C84.6061 8.16895 84.9588 8.20833 85.3062 8.28711C85.6535 8.36589 85.9972 8.48763 86.3374 8.65234L85.8594 9.67285C85.5622 9.51888 85.2775 9.40967 85.0054 9.34521C84.7368 9.28076 84.4629 9.24854 84.1836 9.24854C83.7754 9.24854 83.4531 9.33805 83.2168 9.51709C82.984 9.69613 82.8677 9.94857 82.8677 10.2744C82.8677 10.5645 82.9751 10.7936 83.1899 10.9619C83.4048 11.1266 83.7736 11.2896 84.2964 11.4507C85.0985 11.6906 85.675 11.9896 86.0259 12.3477C86.3804 12.7057 86.5576 13.1981 86.5576 13.8247C86.5576 14.4979 86.3177 15.0511 85.8379 15.4844C85.3581 15.9141 84.6742 16.1289 83.7861 16.1289C83.3421 16.1289 82.9089 16.0734 82.4863 15.9624C82.0638 15.8478 81.6663 15.6759 81.2939 15.4468ZM90.4409 15.9248C90.2798 15.9928 90.1115 16.043 89.936 16.0752C89.7606 16.1074 89.5726 16.1235 89.3721 16.1235C88.8636 16.1235 88.4715 15.9893 88.1958 15.7207C87.9237 15.4486 87.7876 15.0439 87.7876 14.5068V11.4775H86.8638V10.5H87.7876V9.1626L89.0337 8.78662V10.5H90.3496V11.4775H89.0337V14.4048C89.0337 14.6733 89.082 14.8667 89.1787 14.9849C89.279 15.103 89.4329 15.1621 89.6406 15.1621C89.7409 15.1621 89.8358 15.1514 89.9253 15.1299C90.0184 15.1048 90.1007 15.0744 90.1724 15.0386L90.4409 15.9248ZM93.8623 16.1289C93.0029 16.1289 92.3208 15.8729 91.8159 15.3608C91.3146 14.8452 91.064 14.1559 91.064 13.293C91.0675 12.3799 91.3289 11.6655 91.8481 11.1499C92.3674 10.6307 93.0745 10.3711 93.9697 10.3711C94.8327 10.3675 95.5059 10.6217 95.9893 11.1338C96.4762 11.6423 96.7197 12.3315 96.7197 13.2017C96.7197 14.0968 96.4619 14.8094 95.9463 15.3394C95.4342 15.8657 94.7396 16.1289 93.8623 16.1289ZM93.9214 15.1353C94.4191 15.1353 94.7969 14.9723 95.0547 14.6465C95.3161 14.3206 95.4468 13.8498 95.4468 13.2339C95.4468 12.6252 95.3161 12.1615 95.0547 11.8428C94.7933 11.5241 94.4137 11.3647 93.916 11.3647C93.4255 11.3647 93.0387 11.533 92.7559 11.8696C92.4766 12.2062 92.3369 12.6717 92.3369 13.2661C92.3369 13.8641 92.4766 14.326 92.7559 14.6519C93.0352 14.9741 93.4237 15.1353 93.9214 15.1353ZM101.054 11.5474C100.986 11.5295 100.92 11.5169 100.855 11.5098C100.795 11.499 100.723 11.4937 100.641 11.4937C100.193 11.4937 99.8493 11.6584 99.6094 11.9878C99.3695 12.3172 99.2495 12.7469 99.2495 13.2769V16H97.998V10.5H99.2495V11.5581H99.271C99.3999 11.1785 99.5897 10.8921 99.8403 10.6987C100.091 10.5018 100.386 10.4033 100.727 10.4033C100.823 10.4033 100.909 10.4087 100.984 10.4194C101.063 10.4302 101.138 10.4463 101.21 10.4678L101.054 11.5474ZM106.721 13.5776H102.966C102.988 14.0968 103.138 14.4925 103.417 14.7646C103.697 15.0332 104.087 15.1675 104.588 15.1675C104.792 15.1675 105.025 15.1263 105.287 15.0439C105.548 14.9616 105.806 14.8291 106.06 14.6465L106.624 15.4253C106.284 15.6724 105.938 15.8514 105.587 15.9624C105.236 16.0734 104.85 16.1289 104.427 16.1289C103.571 16.1289 102.905 15.8836 102.429 15.3931C101.953 14.8989 101.713 14.2096 101.709 13.3252C101.709 12.4443 101.955 11.7318 102.445 11.1875C102.939 10.6432 103.571 10.3711 104.341 10.3711C105.079 10.3711 105.659 10.6038 106.082 11.0693C106.508 11.5312 106.721 12.1865 106.721 13.0352V13.5776ZM105.512 12.7129C105.512 12.2402 105.408 11.8857 105.201 11.6494C104.997 11.4095 104.707 11.2896 104.331 11.2896C103.976 11.2896 103.674 11.4185 103.423 11.6763C103.176 11.9305 103.024 12.276 102.966 12.7129H105.512Z" fill="white"/>
<path d="M35.1611 20.9038V21.4062H34.4434V26H33.876V23.7031H31.897C31.7762 23.7829 31.6315 23.8307 31.4629 23.8467L31.4561 23.8638C31.6771 24.2101 31.9198 24.5326 32.1841 24.8311C32.4484 25.1296 32.7492 25.4064 33.0864 25.6616L32.7207 26.082C32.527 25.9385 32.3424 25.7835 32.167 25.6172C31.9938 25.4508 31.8298 25.2788 31.6748 25.1011C31.5221 24.9211 31.3786 24.7399 31.2441 24.5576C31.1097 24.373 30.9867 24.1919 30.875 24.0142C30.7633 23.8364 30.6631 23.6655 30.5742 23.5015C30.4854 23.3351 30.4079 23.1813 30.3418 23.04L30.8101 22.7871C30.8534 22.8874 30.8955 22.9717 30.9365 23.04C30.9798 23.1061 31.0231 23.1597 31.0664 23.2007C31.1097 23.2394 31.1553 23.2679 31.2031 23.2861C31.251 23.3021 31.3022 23.3101 31.3569 23.3101C31.5142 23.3101 31.6292 23.2485 31.7021 23.1255C31.7773 23.0024 31.8149 22.8407 31.8149 22.6401C31.8149 22.5216 31.8035 22.4054 31.7808 22.2915C31.758 22.1753 31.7284 22.0648 31.6919 21.96C31.6577 21.8529 31.6201 21.7526 31.5791 21.6592C31.5381 21.5658 31.4993 21.4814 31.4629 21.4062H29.8804V20.9038H35.1611ZM33.876 21.4062H32.0542C32.1499 21.6136 32.2251 21.8221 32.2798 22.0317C32.3345 22.2414 32.3618 22.4499 32.3618 22.6572C32.3618 22.7529 32.3538 22.8475 32.3379 22.9409C32.3242 23.0321 32.3003 23.1187 32.2661 23.2007L32.2729 23.2075H33.876V21.4062ZM34.3955 20.9995H33.8999L33.5889 20.415C33.4567 20.1667 33.3371 19.9696 33.23 19.8237C33.1206 19.6779 33.0181 19.5674 32.9224 19.4922C32.8244 19.4147 32.7287 19.3657 32.6353 19.3452C32.5418 19.3224 32.4438 19.311 32.3413 19.311H31.6782V18.7573H32.3037C32.4359 18.7573 32.5555 18.7687 32.6626 18.7915C32.7697 18.812 32.8722 18.8507 32.9702 18.9077C33.0659 18.9624 33.1605 19.0399 33.2539 19.1401C33.3451 19.2381 33.443 19.3657 33.5479 19.5229C33.6527 19.6779 33.7677 19.8647 33.8931 20.0835C34.0161 20.3 34.1574 20.5563 34.3169 20.8525L34.3955 20.9995ZM42.0928 21.4062H41.0742V22.6675H39.3618C39.1932 22.6675 39.0758 22.6914 39.0098 22.7393C38.946 22.7871 38.9141 22.8646 38.9141 22.9717C38.9141 23.0264 38.9209 23.0833 38.9346 23.1426C38.9482 23.2018 38.9733 23.2576 39.0098 23.3101C39.0462 23.3602 39.0952 23.4023 39.1567 23.4365C39.2205 23.4684 39.3014 23.4844 39.3994 23.4844H40.3667C40.5672 23.4844 40.7358 23.5117 40.8726 23.5664C41.0116 23.6211 41.1221 23.6963 41.2041 23.792C41.2884 23.8877 41.3488 24.0005 41.3853 24.1304C41.4217 24.2603 41.4399 24.3993 41.4399 24.5474C41.4399 24.7502 41.4058 24.9438 41.3374 25.1284C41.2713 25.313 41.1722 25.4759 41.04 25.6172C40.9079 25.7585 40.7427 25.8713 40.5444 25.9556C40.3485 26.0399 40.1195 26.082 39.8574 26.082C39.5726 26.082 39.2992 26.0296 39.0371 25.9248C38.7773 25.8177 38.5381 25.6696 38.3193 25.4805C38.1029 25.2913 37.9115 25.0669 37.7451 24.8071C37.5811 24.5474 37.4523 24.2625 37.3589 23.9526L37.834 23.7646C37.9137 23.9993 38.0197 24.2249 38.1519 24.4414C38.284 24.6579 38.4367 24.8493 38.6099 25.0156C38.7853 25.182 38.9779 25.3153 39.1875 25.4155C39.3971 25.5135 39.6182 25.5625 39.8506 25.5625C40.0146 25.5625 40.1605 25.5386 40.2881 25.4907C40.418 25.4429 40.5285 25.3745 40.6196 25.2856C40.7108 25.1968 40.7803 25.0908 40.8281 24.9678C40.876 24.8424 40.8999 24.7023 40.8999 24.5474C40.8999 24.438 40.8874 24.3491 40.8623 24.2808C40.8372 24.2101 40.7974 24.1554 40.7427 24.1167C40.6903 24.078 40.623 24.0518 40.541 24.0381C40.459 24.0221 40.361 24.0142 40.2471 24.0142H39.3516C39.1829 24.0142 39.0371 23.9777 38.9141 23.9048C38.791 23.8319 38.6885 23.7396 38.6064 23.6279C38.5267 23.5163 38.4674 23.3932 38.4287 23.2588C38.39 23.1221 38.3706 22.991 38.3706 22.8657C38.3706 22.7313 38.3923 22.6196 38.4355 22.5308C38.4788 22.4396 38.5381 22.3678 38.6133 22.3154C38.6885 22.2607 38.7773 22.222 38.8799 22.1992C38.9847 22.1764 39.0975 22.165 39.2183 22.165H40.5137V21.4062H36.8462V20.9038H42.0928V21.4062ZM43.9146 21.4062H43.1968V26H42.6362V21.4062H41.8569V20.9038H43.9146V21.4062ZM48.8467 21.4062H47.7324C47.7985 21.5316 47.8486 21.6592 47.8828 21.7891C47.9193 21.9189 47.9375 22.0488 47.9375 22.1787C47.9375 22.2881 47.9238 22.3952 47.8965 22.5C47.8691 22.6048 47.8293 22.7039 47.7769 22.7974C47.7244 22.8908 47.6584 22.9762 47.5786 23.0537C47.4989 23.1312 47.4066 23.1973 47.3018 23.252V23.2725C47.5387 23.4115 47.7267 23.5949 47.8657 23.8228C48.007 24.0506 48.0776 24.3218 48.0776 24.6362C48.0776 24.8208 48.0503 25.0008 47.9956 25.1763C47.9409 25.3494 47.8555 25.5033 47.7393 25.6377C47.6253 25.7721 47.4784 25.8804 47.2983 25.9624C47.1183 26.0422 46.9041 26.082 46.6558 26.082C46.3846 26.082 46.1374 26.0342 45.9141 25.9385C45.693 25.8428 45.4937 25.7163 45.3159 25.5591C45.1405 25.4019 44.9855 25.2218 44.8511 25.019C44.7166 24.8162 44.6016 24.6077 44.5059 24.3936C44.4124 24.1771 44.3361 23.964 44.2769 23.7544C44.2176 23.5448 44.1743 23.3545 44.147 23.1836L44.5947 22.9785C44.6266 23.1699 44.6733 23.367 44.7349 23.5698C44.7987 23.7726 44.875 23.9697 44.9639 24.1611C45.055 24.3525 45.1587 24.5337 45.2749 24.7046C45.3911 24.8755 45.5187 25.0247 45.6577 25.1523C45.799 25.2799 45.9505 25.3813 46.1123 25.4565C46.2764 25.5295 46.4495 25.5659 46.6318 25.5659C46.7412 25.5659 46.8494 25.5511 46.9565 25.5215C47.0636 25.4896 47.1582 25.4372 47.2402 25.3643C47.3245 25.2891 47.3929 25.1899 47.4453 25.0669C47.4977 24.9438 47.5239 24.7912 47.5239 24.6089C47.5239 24.2466 47.418 23.9743 47.2061 23.792C46.9964 23.6074 46.6842 23.5151 46.2695 23.5151C46.2308 23.5151 46.1875 23.5163 46.1396 23.5186C46.0918 23.5208 46.0428 23.5243 45.9927 23.5288V23.0093C46.0109 23.0093 46.036 23.0104 46.0679 23.0127C46.1021 23.015 46.1476 23.0161 46.2046 23.0161C46.4188 23.0161 46.6011 22.9933 46.7515 22.9478C46.9019 22.9022 47.0238 22.8395 47.1172 22.7598C47.2129 22.6777 47.2824 22.5832 47.3257 22.4761C47.369 22.369 47.3906 22.2539 47.3906 22.1309C47.3906 21.9941 47.3678 21.8654 47.3223 21.7446C47.279 21.6239 47.2209 21.5111 47.1479 21.4062H43.6753V20.9038H48.8467V21.4062ZM53.1021 21.4062H52.3843V26H51.8203V23.3647H50.2207C50.2207 23.5151 50.2184 23.6439 50.2139 23.751C50.2116 23.8581 50.2025 23.9469 50.1865 24.0176C50.1706 24.0859 50.1466 24.1361 50.1147 24.168C50.0828 24.1999 50.0384 24.2158 49.9814 24.2158C49.863 24.2158 49.7502 24.1771 49.6431 24.0996C49.5382 24.0221 49.4448 23.9287 49.3628 23.8193C49.283 23.71 49.2192 23.596 49.1714 23.4775C49.1235 23.359 49.0996 23.2588 49.0996 23.1768C49.0996 23.1038 49.1156 23.0469 49.1475 23.0059C49.1794 22.9648 49.2215 22.9341 49.2739 22.9136C49.3263 22.8931 49.3856 22.8805 49.4517 22.876C49.52 22.8714 49.5884 22.8691 49.6567 22.8691H51.8203V21.4062H48.6108V20.9038H53.1021V21.4062ZM58.1025 21.4062H57.3848V26.0034H56.8242V22.8008C56.7035 22.7575 56.5895 22.7358 56.4824 22.7358C56.3753 22.7358 56.2819 22.7563 56.2021 22.7974C56.1224 22.8361 56.0552 22.8885 56.0005 22.9546C55.9481 23.0207 55.9082 23.0981 55.8809 23.187C55.8535 23.2759 55.8398 23.3693 55.8398 23.4673C55.8398 23.506 55.841 23.5459 55.8433 23.5869C55.8478 23.6257 55.8524 23.6644 55.8569 23.7031H55.334C55.3158 23.571 55.2941 23.4445 55.269 23.3237C55.2463 23.203 55.2121 23.097 55.1665 23.0059C55.1232 22.9147 55.0662 22.8429 54.9956 22.7905C54.925 22.7358 54.8338 22.7085 54.7222 22.7085C54.6151 22.7085 54.5228 22.7301 54.4453 22.7734C54.3701 22.8167 54.3075 22.8771 54.2573 22.9546C54.2072 23.0321 54.1696 23.1232 54.1445 23.228C54.1217 23.3306 54.1104 23.4422 54.1104 23.563C54.1104 23.8228 54.1548 24.0563 54.2437 24.2637C54.3325 24.4688 54.4521 24.6533 54.6025 24.8174C54.7552 24.9814 54.9307 25.1284 55.1289 25.2583C55.3294 25.3859 55.5402 25.5033 55.7612 25.6104L55.4844 26.082C55.4023 26.0456 55.2964 25.9909 55.1665 25.918C55.0389 25.8451 54.9022 25.755 54.7563 25.6479C54.6128 25.5409 54.4681 25.4155 54.3223 25.272C54.1764 25.1284 54.0443 24.9678 53.9258 24.79C53.8096 24.6123 53.715 24.4163 53.6421 24.2021C53.5692 23.988 53.5327 23.7567 53.5327 23.5083C53.5327 23.3169 53.5601 23.1392 53.6147 22.9751C53.6694 22.8088 53.7469 22.6652 53.8472 22.5444C53.9497 22.4214 54.0728 22.3257 54.2163 22.2573C54.3599 22.1867 54.5194 22.1514 54.6948 22.1514C54.827 22.1514 54.9409 22.1707 55.0366 22.2095C55.1323 22.2459 55.2144 22.2926 55.2827 22.3496C55.3534 22.4043 55.4115 22.4647 55.457 22.5308C55.5026 22.5946 55.5425 22.6549 55.5767 22.7119L55.5938 22.7085C55.637 22.6128 55.6883 22.5319 55.7476 22.4658C55.8091 22.3997 55.8752 22.3462 55.9458 22.3052C56.0187 22.2642 56.0951 22.2345 56.1748 22.2163C56.2546 22.1958 56.3343 22.1855 56.4141 22.1855C56.4847 22.1855 56.5542 22.1924 56.6226 22.2061C56.6932 22.2174 56.7604 22.2345 56.8242 22.2573V21.4062H52.8628V20.9038H58.1025V21.4062ZM59.9243 21.4062H59.2065V26H58.646V21.4062H57.8667V20.9038H59.9243V21.4062ZM59.1587 20.9995H58.6631L58.3521 20.415C58.2199 20.1667 58.0991 19.9696 57.9897 19.8237C57.8826 19.6779 57.7812 19.5674 57.6855 19.4922C57.5876 19.4147 57.4919 19.3657 57.3984 19.3452C57.305 19.3224 57.207 19.311 57.1045 19.311H56.4414V18.7573H57.0669C57.1991 18.7573 57.3187 18.7687 57.4258 18.7915C57.5329 18.812 57.6354 18.8507 57.7334 18.9077C57.8291 18.9624 57.9225 19.0399 58.0137 19.1401C58.1071 19.2381 58.2062 19.3657 58.311 19.5229C58.4159 19.6779 58.5298 19.8647 58.6528 20.0835C58.7782 20.3 58.9206 20.5563 59.0801 20.8525L59.1587 20.9995ZM64.9316 21.4062H63.9131V22.6675H62.2007C62.0321 22.6675 61.9147 22.6914 61.8486 22.7393C61.7848 22.7871 61.7529 22.8646 61.7529 22.9717C61.7529 23.0264 61.7598 23.0833 61.7734 23.1426C61.7871 23.2018 61.8122 23.2576 61.8486 23.3101C61.8851 23.3602 61.9341 23.4023 61.9956 23.4365C62.0594 23.4684 62.1403 23.4844 62.2383 23.4844H63.2056C63.4061 23.4844 63.5747 23.5117 63.7114 23.5664C63.8504 23.6211 63.9609 23.6963 64.043 23.792C64.1273 23.8877 64.1877 24.0005 64.2241 24.1304C64.2606 24.2603 64.2788 24.3993 64.2788 24.5474C64.2788 24.7502 64.2446 24.9438 64.1763 25.1284C64.1102 25.313 64.0111 25.4759 63.8789 25.6172C63.7467 25.7585 63.5815 25.8713 63.3833 25.9556C63.1873 26.0399 62.9583 26.082 62.6963 26.082C62.4115 26.082 62.138 26.0296 61.876 25.9248C61.6162 25.8177 61.377 25.6696 61.1582 25.4805C60.9417 25.2913 60.7503 25.0669 60.584 24.8071C60.4199 24.5474 60.2912 24.2625 60.1978 23.9526L60.6729 23.7646C60.7526 23.9993 60.8586 24.2249 60.9907 24.4414C61.1229 24.6579 61.2756 24.8493 61.4487 25.0156C61.6242 25.182 61.8167 25.3153 62.0264 25.4155C62.236 25.5135 62.457 25.5625 62.6895 25.5625C62.8535 25.5625 62.9993 25.5386 63.127 25.4907C63.2568 25.4429 63.3674 25.3745 63.4585 25.2856C63.5496 25.1968 63.6191 25.0908 63.667 24.9678C63.7148 24.8424 63.7388 24.7023 63.7388 24.5474C63.7388 24.438 63.7262 24.3491 63.7012 24.2808C63.6761 24.2101 63.6362 24.1554 63.5815 24.1167C63.5291 24.078 63.4619 24.0518 63.3799 24.0381C63.2979 24.0221 63.1999 24.0142 63.0859 24.0142H62.1904C62.0218 24.0142 61.876 23.9777 61.7529 23.9048C61.6299 23.8319 61.5273 23.7396 61.4453 23.6279C61.3656 23.5163 61.3063 23.3932 61.2676 23.2588C61.2288 23.1221 61.2095 22.991 61.2095 22.8657C61.2095 22.7313 61.2311 22.6196 61.2744 22.5308C61.3177 22.4396 61.377 22.3678 61.4521 22.3154C61.5273 22.2607 61.6162 22.222 61.7188 22.1992C61.8236 22.1764 61.9364 22.165 62.0571 22.165H63.3525V21.4062H59.6851V20.9038H64.9316V21.4062ZM72.8989 21.4062H70.0107V22.7529L70.0278 22.7598C70.144 22.6003 70.2887 22.4727 70.4619 22.377C70.6351 22.279 70.8254 22.23 71.0327 22.23C71.1968 22.23 71.3483 22.2642 71.4873 22.3325C71.6286 22.3986 71.7505 22.4909 71.853 22.6094C71.9556 22.7256 72.0353 22.8634 72.0923 23.0229C72.1515 23.1825 72.1812 23.3545 72.1812 23.5391C72.1812 23.7487 72.1447 23.9424 72.0718 24.1201C71.9989 24.2956 71.9054 24.4551 71.7915 24.5986C71.6776 24.7422 71.5488 24.8698 71.4053 24.9814C71.2617 25.0908 71.1204 25.1842 70.9814 25.2617L70.6772 24.7354C70.7228 24.7103 70.7786 24.6772 70.8447 24.6362C70.9108 24.5952 70.9792 24.5474 71.0498 24.4927C71.1227 24.438 71.1934 24.3765 71.2617 24.3081C71.3324 24.2375 71.395 24.1611 71.4497 24.0791C71.5067 23.9971 71.5522 23.9082 71.5864 23.8125C71.6206 23.7168 71.6377 23.6154 71.6377 23.5083C71.6377 23.4103 71.6217 23.3169 71.5898 23.228C71.5602 23.1392 71.5181 23.0617 71.4634 22.9956C71.4087 22.9295 71.3426 22.8771 71.2651 22.8384C71.1899 22.7996 71.1068 22.7803 71.0156 22.7803C70.8971 22.7803 70.7821 22.811 70.6704 22.8726C70.5588 22.9341 70.4574 23.0116 70.3662 23.105C70.2751 23.1961 70.1976 23.2941 70.1338 23.3989C70.0723 23.5037 70.0312 23.6006 70.0107 23.6895V26H69.4502V24.6909L69.4365 24.6841C69.4023 24.7137 69.359 24.7502 69.3066 24.7935C69.2542 24.8345 69.1904 24.8743 69.1152 24.9131C69.0423 24.9518 68.9569 24.9849 68.8589 25.0122C68.7632 25.0396 68.6549 25.0532 68.5342 25.0532C68.3337 25.0532 68.1479 25.0145 67.9771 24.937C67.8084 24.8595 67.6615 24.7547 67.5361 24.6226C67.4131 24.4881 67.3162 24.3309 67.2456 24.1509C67.175 23.9709 67.1396 23.7783 67.1396 23.5732C67.1396 23.3773 67.1715 23.1961 67.2354 23.0298C67.3014 22.8634 67.3903 22.721 67.502 22.6025C67.6159 22.4818 67.748 22.3883 67.8984 22.3223C68.0511 22.2539 68.2152 22.2197 68.3906 22.2197C68.5137 22.2197 68.6276 22.2357 68.7324 22.2676C68.8395 22.2972 68.9364 22.3348 69.0229 22.3804C69.1118 22.4237 69.1904 22.4715 69.2588 22.5239C69.3294 22.5741 69.3887 22.6196 69.4365 22.6606L69.4502 22.6572V21.4062H66.6167V20.9038H72.8989V21.4062ZM68.4727 22.7529C68.3428 22.7529 68.2277 22.7803 68.1274 22.835C68.0295 22.8874 67.9474 22.9557 67.8813 23.04C67.8153 23.1221 67.7651 23.2155 67.731 23.3203C67.6991 23.4229 67.6831 23.5243 67.6831 23.6245C67.6831 23.7339 67.7025 23.8433 67.7412 23.9526C67.7799 24.0597 67.8346 24.1566 67.9053 24.2432C67.9782 24.3298 68.0648 24.4004 68.165 24.4551C68.2653 24.5075 68.3758 24.5337 68.4966 24.5337C68.5991 24.5337 68.7062 24.5132 68.8179 24.4722C68.9318 24.4289 69.0355 24.3628 69.1289 24.2739C69.2246 24.1851 69.3032 24.0723 69.3647 23.9355C69.4263 23.7965 69.457 23.6313 69.457 23.4399V23.2725C69.4023 23.2041 69.3374 23.1392 69.2622 23.0776C69.1893 23.0138 69.1095 22.958 69.0229 22.9102C68.9386 22.8623 68.8498 22.8247 68.7563 22.7974C68.6629 22.7677 68.5684 22.7529 68.4727 22.7529ZM76.3203 21.4062H75.0317C75.1479 21.6068 75.2414 21.8118 75.312 22.0215C75.3849 22.2288 75.4214 22.4396 75.4214 22.6538C75.4214 22.8156 75.3963 22.9717 75.3462 23.1221C75.2983 23.2702 75.2266 23.4035 75.1309 23.522C75.0374 23.6382 74.9201 23.7339 74.7788 23.8091C74.6398 23.882 74.4792 23.923 74.2969 23.9321L74.29 23.9492C74.4951 24.2682 74.7253 24.5701 74.9805 24.855C75.2357 25.1375 75.5308 25.4064 75.8657 25.6616L75.5 26.082C75.3063 25.9385 75.1217 25.7835 74.9463 25.6172C74.7731 25.4486 74.609 25.2754 74.4541 25.0977C74.2992 24.9176 74.1545 24.7365 74.02 24.5542C73.8879 24.3696 73.766 24.1908 73.6543 24.0176C73.5449 23.8421 73.4469 23.6746 73.3604 23.5151C73.2738 23.3534 73.1997 23.2064 73.1382 23.0742L73.6064 22.8213C73.6885 22.999 73.7808 23.1392 73.8833 23.2417C73.9881 23.342 74.1089 23.3921 74.2456 23.3921C74.3436 23.3921 74.4313 23.367 74.5088 23.3169C74.5863 23.2668 74.6512 23.203 74.7036 23.1255C74.756 23.0457 74.7959 22.9591 74.8232 22.8657C74.8506 22.77 74.8643 22.6766 74.8643 22.5854C74.8643 22.4784 74.8506 22.3735 74.8232 22.271C74.7959 22.1662 74.7606 22.0648 74.7173 21.9668C74.674 21.8665 74.625 21.7697 74.5703 21.6763C74.5179 21.5828 74.4666 21.4928 74.4165 21.4062H72.6597V20.9038H76.3203V21.4062ZM74.9531 20.9995H74.4575L74.1465 20.415C74.0143 20.1667 73.8947 19.9696 73.7876 19.8237C73.6782 19.6779 73.5757 19.5674 73.48 19.4922C73.382 19.4147 73.2863 19.3657 73.1929 19.3452C73.0994 19.3224 73.0015 19.311 72.8989 19.311H72.2358V18.7573H72.8613C72.9935 18.7573 73.1131 18.7687 73.2202 18.7915C73.3273 18.812 73.4299 18.8507 73.5278 18.9077C73.6235 18.9624 73.7181 19.0399 73.8115 19.1401C73.9027 19.2381 74.0007 19.3657 74.1055 19.5229C74.2103 19.6779 74.3254 19.8647 74.4507 20.0835C74.5737 20.3 74.715 20.5563 74.8745 20.8525L74.9531 20.9995ZM74.8813 19.8613C74.8813 19.7314 74.9201 19.6266 74.9976 19.5469C75.0728 19.4648 75.1719 19.4238 75.2949 19.4238C75.3519 19.4238 75.4054 19.4352 75.4556 19.458C75.508 19.4808 75.5535 19.5127 75.5923 19.5537C75.631 19.5924 75.6606 19.6392 75.6812 19.6938C75.7039 19.7463 75.7153 19.8044 75.7153 19.8682C75.7153 19.998 75.6766 20.1029 75.5991 20.1826C75.5239 20.2624 75.4248 20.3022 75.3018 20.3022C75.2425 20.3022 75.1878 20.292 75.1377 20.2715C75.0853 20.2487 75.0409 20.2179 75.0044 20.1792C74.9657 20.1382 74.936 20.0915 74.9155 20.0391C74.8927 19.9844 74.8813 19.9251 74.8813 19.8613Z" fill="white" fill-opacity="0.786"/>
<defs>
<filter id="filter0_dd_974_1800" x="11.0938" y="7.25" width="11.8125" height="5.625" filterUnits="userSpaceOnUse" color-interpolation-filters="sRGB">
<feFlood flood-opacity="0" result="BackgroundImageFix"/>
<feColorMatrix in="SourceAlpha" type="matrix" values="0 0 0 0 0 0 0 0 0 0 0 0 0 0 0 0 0 0 127 0" result="hardAlpha"/>
<feOffset dy="0.1875"/>
<feGaussianBlur stdDeviation="0.1875"/>
<feColorMatrix type="matrix" values="0 0 0 0 0 0 0 0 0 0 0 0 0 0 0 0 0 0 0.1 0"/>
<feBlend mode="normal" in2="BackgroundImageFix" result="effect1_dropShadow_974_1800"/>
<feColorMatrix in="SourceAlpha" type="matrix" values="0 0 0 0 0 0 0 0 0 0 0 0 0 0 0 0 0 0 127 0" result="hardAlpha"/>
<feOffset dy="0.375"/>
<feGaussianBlur stdDeviation="0.5625"/>
<feColorMatrix type="matrix" values="0 0 0 0 0 0 0 0 0 0 0 0 0 0 0 0 0 0 0.2 0"/>
<feBlend mode="normal" in2="effect1_dropShadow_974_1800" result="effect2_dropShadow_974_1800"/>
<feBlend mode="normal" in="SourceGraphic" in2="effect2_dropShadow_974_1800" result="shape"/>
</filter>
<filter id="filter1_dd_974_1800" x="12.2188" y="13.4375" width="9.5625" height="9.5625" filterUnits="userSpaceOnUse" color-interpolation-filters="sRGB">
<feFlood flood-opacity="0" result="BackgroundImageFix"/>
<feColorMatrix in="SourceAlpha" type="matrix" values="0 0 0 0 0 0 0 0 0 0 0 0 0 0 0 0 0 0 127 0" result="hardAlpha"/>
<feOffset dy="0.1875"/>
<feGaussianBlur stdDeviation="0.1875"/>
<feColorMatrix type="matrix" values="0 0 0 0 1 0 0 0 0 1 0 0 0 0 1 0 0 0 0.6 0"/>
<feBlend mode="normal" in2="BackgroundImageFix" result="effect1_dropShadow_974_1800"/>
<feColorMatrix in="SourceAlpha" type="matrix" values="0 0 0 0 0 0 0 0 0 0 0 0 0 0 0 0 0 0 127 0" result="hardAlpha"/>
<feOffset dy="0.375"/>
<feGaussianBlur stdDeviation="0.5625"/>
<feColorMatrix type="matrix" values="0 0 0 0 1 0 0 0 0 1 0 0 0 0 1 0 0 0 0.6 0"/>
<feBlend mode="normal" in2="effect1_dropShadow_974_1800" result="effect2_dropShadow_974_1800"/>
<feBlend mode="normal" in="SourceGraphic" in2="effect2_dropShadow_974_1800" result="shape"/>
</filter>
<filter id="filter2_dd_974_1800" x="10.5939" y="6.6875" width="12.8124" height="5.06274" filterUnits="userSpaceOnUse" color-interpolation-filters="sRGB">
<feFlood flood-opacity="0" result="BackgroundImageFix"/>
<feColorMatrix in="SourceAlpha" type="matrix" values="0 0 0 0 0 0 0 0 0 0 0 0 0 0 0 0 0 0 127 0" result="hardAlpha"/>
<feOffset dy="-0.75"/>
<feGaussianBlur stdDeviation="0.1875"/>
<feColorMatrix type="matrix" values="0 0 0 0 0 0 0 0 0 0 0 0 0 0 0 0 0 0 0.1 0"/>
<feBlend mode="normal" in2="BackgroundImageFix" result="effect1_dropShadow_974_1800"/>
<feColorMatrix in="SourceAlpha" type="matrix" values="0 0 0 0 0 0 0 0 0 0 0 0 0 0 0 0 0 0 127 0" result="hardAlpha"/>
<feOffset dy="-0.75"/>
<feGaussianBlur stdDeviation="0.5625"/>
<feColorMatrix type="matrix" values="0 0 0 0 0 0 0 0 0 0 0 0 0 0 0 0 0 0 0.2 0"/>
<feBlend mode="normal" in2="effect1_dropShadow_974_1800" result="effect2_dropShadow_974_1800"/>
<feBlend mode="normal" in="SourceGraphic" in2="effect2_dropShadow_974_1800" result="shape"/>
</filter>
<linearGradient id="paint0_linear_974_1800" x1="12.2443" y1="8.00639" x2="15.9039" y2="24.8132" gradientUnits="userSpaceOnUse">
<stop offset="0.270833" stop-color="white"/>
<stop offset="1" stop-color="#DFDFDF"/>
</linearGradient>
<linearGradient id="paint1_linear_974_1800" x1="17" y1="10.25" x2="20.3514" y2="25.9624" gradientUnits="userSpaceOnUse">
<stop stop-color="#0078D4"/>
<stop offset="1" stop-color="#114A8B"/>
</linearGradient>
<linearGradient id="paint2_linear_974_1800" x1="17" y1="8.5625" x2="17.1583" y2="10.9858" gradientUnits="userSpaceOnUse">
<stop stop-color="#28AFEA"/>
<stop offset="1" stop-color="#0078D4"/>
</linearGradient>
<linearGradient id="paint3_linear_974_1800" x1="17" y1="8.5625" x2="17.1583" y2="10.9858" gradientUnits="userSpaceOnUse">
<stop stop-color="#30DAFF"/>
<stop offset="1" stop-color="#0094D4"/>
</linearGradient>
<linearGradient id="paint4_linear_974_1800" x1="16.5938" y1="8" x2="16.5937" y2="9.125" gradientUnits="userSpaceOnUse">
<stop stop-color="#22BCFF"/>
<stop offset="1" stop-color="#0088F0"/>
</linearGradient>
<linearGradient id="paint5_linear_974_1800" x1="16.5938" y1="8" x2="16.5937" y2="9.125" gradientUnits="userSpaceOnUse">
<stop stop-color="#28AFEA"/>
<stop offset="1" stop-color="#3CCBF4"/>
</linearGradient>
<clipPath id="clip0_974_1800">
<rect width="18" height="18" fill="white" transform="translate(8 8)"/>
</clipPath>
<clipPath id="clip1_974_1800">
<rect width="18" height="18" fill="white" transform="translate(8 8)"/>
</clipPath>
</defs>
</svg>
