<svg width="112" height="32" viewBox="0 0 112 32" fill="none" xmlns="http://www.w3.org/2000/svg">
<rect x="0.5" y="0.5" width="111" height="31" rx="3.5" fill="white"/>
<path d="M15.56 6.99988H7V15.5606H15.56V6.99988Z" fill="#F25022"/>
<path d="M25.0021 6.99988H16.4421V15.5606H25.0021V6.99988Z" fill="#7FBA00"/>
<path d="M15.56 16.4392H7V24.9999H15.56V16.4392Z" fill="#00A4EF"/>
<path d="M25.0022 16.4392H16.4422V24.9999H25.0022V16.4392Z" fill="#FFB900"/>
<path d="M33.4244 19.6318V20.0625H32.8091V24H32.3228V22.0312H30.6265C30.523 22.0996 30.399 22.1406 30.2544 22.1543L30.2486 22.1689C30.438 22.4658 30.646 22.7422 30.8726 22.998C31.0992 23.2539 31.357 23.4912 31.646 23.71L31.3326 24.0703C31.1665 23.9473 31.0083 23.8145 30.8579 23.6719C30.7095 23.5293 30.5689 23.3818 30.4361 23.2295C30.3052 23.0752 30.1822 22.9199 30.0669 22.7637C29.9517 22.6055 29.8462 22.4502 29.7505 22.2979C29.6548 22.1455 29.5689 21.999 29.4927 21.8584C29.4165 21.7158 29.3501 21.584 29.2935 21.4629L29.6949 21.2461C29.732 21.332 29.7681 21.4043 29.8033 21.4629C29.8404 21.5195 29.8775 21.5654 29.9146 21.6006C29.9517 21.6338 29.9908 21.6582 30.0318 21.6738C30.0728 21.6875 30.1167 21.6943 30.1636 21.6943C30.2984 21.6943 30.397 21.6416 30.4595 21.5361C30.524 21.4307 30.5562 21.292 30.5562 21.1201C30.5562 21.0186 30.5464 20.9189 30.5269 20.8213C30.5074 20.7217 30.482 20.627 30.4507 20.5371C30.4214 20.4453 30.3892 20.3594 30.354 20.2793C30.3189 20.1992 30.2857 20.127 30.2544 20.0625H28.898V19.6318H33.4244ZM32.3228 20.0625H30.7613C30.8433 20.2402 30.9078 20.4189 30.9546 20.5986C31.0015 20.7783 31.0249 20.957 31.0249 21.1348C31.0249 21.2168 31.0181 21.2979 31.0044 21.3779C30.9927 21.4561 30.9722 21.5303 30.9429 21.6006L30.9488 21.6064H32.3228V20.0625ZM32.7681 19.7139H32.3433L32.0767 19.2129C31.9634 19 31.8609 18.8311 31.7691 18.7061C31.6753 18.5811 31.5874 18.4863 31.5054 18.4219C31.4214 18.3555 31.3394 18.3135 31.2593 18.2959C31.1792 18.2764 31.0953 18.2666 31.0074 18.2666H30.439V17.792H30.9751C31.0884 17.792 31.191 17.8018 31.2828 17.8213C31.3745 17.8389 31.4624 17.8721 31.5464 17.9209C31.6285 17.9678 31.7095 18.0342 31.7896 18.1201C31.8677 18.2041 31.9517 18.3135 32.0415 18.4482C32.1314 18.5811 32.23 18.7412 32.3374 18.9287C32.4429 19.1143 32.564 19.334 32.7007 19.5879L32.7681 19.7139ZM38.6861 20.0625H38.0708V24H37.5874V22.6934L37.5757 22.6904L35.7886 24.0352L35.4869 23.6689L36.5269 22.9219L36.524 22.9102C36.3736 22.8984 36.2369 22.8652 36.1138 22.8105C35.9908 22.7559 35.8853 22.6787 35.7974 22.5791C35.7095 22.4795 35.6412 22.3564 35.5923 22.21C35.5454 22.0635 35.522 21.8926 35.522 21.6973V20.0625H34.8687V19.6318H38.6861V20.0625ZM37.5874 20.0625H35.9966V21.6709C35.9966 21.7939 36.0064 21.9043 36.0259 22.002C36.0474 22.0996 36.0826 22.1826 36.1314 22.251C36.1822 22.3193 36.2486 22.3721 36.3306 22.4092C36.4126 22.4443 36.5152 22.4619 36.6382 22.4619C36.8394 22.4619 37.021 22.418 37.1831 22.3301C37.3453 22.2402 37.48 22.1221 37.5874 21.9756V20.0625ZM40.2476 20.0625H39.6324V24H39.1519V20.0625H38.4839V19.6318H40.2476V20.0625ZM42.8433 22.0605L42.9283 22.4736C42.8306 22.5654 42.732 22.6406 42.6324 22.6992C42.5347 22.7578 42.439 22.8037 42.3453 22.8369C42.2515 22.8701 42.1607 22.8926 42.0728 22.9043C41.9849 22.916 41.9038 22.9219 41.8296 22.9219C41.6617 22.9219 41.5083 22.8975 41.3697 22.8486C41.231 22.7998 41.1119 22.7256 41.0122 22.626C40.9126 22.5244 40.8345 22.3975 40.7779 22.2451C40.7232 22.0908 40.6958 21.9082 40.6958 21.6973V20.0625H40.0425V19.6318H42.7144V20.0625H41.1704V21.6709C41.1704 21.7939 41.1802 21.9043 41.1997 22.002C41.2212 22.0996 41.2564 22.1826 41.3052 22.251C41.356 22.3193 41.4224 22.3721 41.5044 22.4092C41.5865 22.4443 41.689 22.4619 41.812 22.4619C41.9722 22.4619 42.1343 22.4268 42.2984 22.3564C42.4624 22.2861 42.6089 22.1865 42.7378 22.0576L42.8433 22.0605ZM45.8521 20.0625H45.2369V24H44.7593V21.4277H43.8072C43.6763 21.4277 43.5581 21.4365 43.4527 21.4541C43.3472 21.4697 43.2574 21.5029 43.1831 21.5537C43.1089 21.6025 43.0513 21.6719 43.0103 21.7617C42.9712 21.8496 42.9517 21.9658 42.9517 22.1104C42.9517 22.2979 42.982 22.4707 43.0425 22.6289C43.105 22.7871 43.1841 22.9326 43.2798 23.0654C43.3755 23.1963 43.481 23.3174 43.5962 23.4287C43.7134 23.54 43.8257 23.6426 43.9331 23.7363L43.6402 24.0703C43.6226 24.0605 43.5806 24.0322 43.5142 23.9854C43.4497 23.9365 43.3736 23.8711 43.2857 23.7891C43.1997 23.707 43.1079 23.6074 43.0103 23.4902C42.9146 23.373 42.8257 23.2412 42.7437 23.0947C42.6636 22.9463 42.5962 22.7832 42.5415 22.6055C42.4888 22.4277 42.4624 22.2363 42.4624 22.0312C42.4624 21.8281 42.4908 21.6602 42.5474 21.5273C42.606 21.3926 42.688 21.2861 42.7935 21.208C42.899 21.1279 43.0269 21.0723 43.1773 21.041C43.3277 21.0098 43.4956 20.9941 43.6812 20.9941H44.7593V20.0625H41.9761V19.6318H45.8521V20.0625ZM52.6812 20.0625H50.2056V21.2168L50.2203 21.2227C50.3199 21.0859 50.4439 20.9766 50.5923 20.8945C50.7408 20.8105 50.9038 20.7686 51.0816 20.7686C51.2222 20.7686 51.3521 20.7979 51.4712 20.8564C51.5923 20.9131 51.6968 20.9922 51.7847 21.0938C51.8726 21.1934 51.941 21.3115 51.9898 21.4482C52.0406 21.585 52.066 21.7324 52.066 21.8906C52.066 22.0703 52.0347 22.2363 51.9722 22.3887C51.9097 22.5391 51.8296 22.6758 51.732 22.7988C51.6343 22.9219 51.524 23.0312 51.4009 23.127C51.2779 23.2207 51.1568 23.3008 51.0376 23.3672L50.7769 22.916C50.816 22.8945 50.8638 22.8662 50.9204 22.8311C50.9771 22.7959 51.0357 22.7549 51.0962 22.708C51.1587 22.6611 51.2193 22.6084 51.2779 22.5498C51.3384 22.4893 51.3921 22.4238 51.439 22.3535C51.4878 22.2832 51.5269 22.207 51.5562 22.125C51.5855 22.043 51.6001 21.9561 51.6001 21.8643C51.6001 21.7803 51.5865 21.7002 51.5591 21.624C51.5337 21.5479 51.4976 21.4814 51.4507 21.4248C51.4038 21.3682 51.3472 21.3232 51.2808 21.29C51.2163 21.2568 51.1451 21.2402 51.0669 21.2402C50.9654 21.2402 50.8667 21.2666 50.771 21.3193C50.6753 21.3721 50.5884 21.4385 50.5103 21.5186C50.4322 21.5967 50.3658 21.6807 50.3111 21.7705C50.2583 21.8604 50.2232 21.9434 50.2056 22.0195V24H49.7251V22.8779L49.7134 22.8721C49.6841 22.8975 49.647 22.9287 49.6021 22.9658C49.5572 23.001 49.5025 23.0352 49.438 23.0684C49.3755 23.1016 49.3023 23.1299 49.2183 23.1533C49.1363 23.1768 49.0435 23.1885 48.94 23.1885C48.7681 23.1885 48.6089 23.1553 48.4624 23.0889C48.3179 23.0225 48.1919 22.9326 48.0845 22.8193C47.979 22.7041 47.896 22.5693 47.8355 22.415C47.7749 22.2607 47.7447 22.0957 47.7447 21.9199C47.7447 21.752 47.772 21.5967 47.8267 21.4541C47.8833 21.3115 47.9595 21.1895 48.0552 21.0879C48.1529 20.9844 48.2662 20.9043 48.3951 20.8477C48.5259 20.7891 48.6665 20.7598 48.8169 20.7598C48.9224 20.7598 49.0201 20.7734 49.1099 20.8008C49.2017 20.8262 49.2847 20.8584 49.3589 20.8975C49.4351 20.9346 49.5025 20.9756 49.5611 21.0205C49.6216 21.0635 49.6724 21.1025 49.7134 21.1377L49.7251 21.1348V20.0625H47.2964V19.6318H52.6812V20.0625ZM48.8872 21.2168C48.7759 21.2168 48.6773 21.2402 48.5913 21.2871C48.5074 21.332 48.437 21.3906 48.3804 21.4629C48.3238 21.5332 48.2808 21.6133 48.2515 21.7031C48.2242 21.791 48.2105 21.8779 48.2105 21.9639C48.2105 22.0576 48.2271 22.1514 48.2603 22.2451C48.2935 22.3369 48.3404 22.4199 48.4009 22.4941C48.4634 22.5684 48.5376 22.6289 48.6236 22.6758C48.7095 22.7207 48.8042 22.7432 48.9078 22.7432C48.9956 22.7432 49.0874 22.7256 49.1831 22.6904C49.2808 22.6533 49.3697 22.5967 49.4497 22.5205C49.5318 22.4443 49.5992 22.3477 49.6519 22.2305C49.7046 22.1113 49.731 21.9697 49.731 21.8057V21.6621C49.6841 21.6035 49.6285 21.5479 49.564 21.4951C49.5015 21.4404 49.4331 21.3926 49.3589 21.3516C49.2867 21.3105 49.2105 21.2783 49.1304 21.2549C49.0503 21.2295 48.9693 21.2168 48.8872 21.2168ZM55.6138 20.0625H54.5093C54.6089 20.2344 54.689 20.4102 54.7495 20.5898C54.812 20.7676 54.8433 20.9482 54.8433 21.1318C54.8433 21.2705 54.8218 21.4043 54.7788 21.5332C54.7378 21.6602 54.6763 21.7744 54.5943 21.876C54.5142 21.9756 54.4136 22.0576 54.2925 22.1221C54.1734 22.1846 54.0357 22.2197 53.8794 22.2275L53.8736 22.2422C54.0494 22.5156 54.2466 22.7744 54.4654 23.0186C54.6841 23.2607 54.937 23.4912 55.2242 23.71L54.9107 24.0703C54.7447 23.9473 54.5865 23.8145 54.4361 23.6719C54.2876 23.5273 54.147 23.3789 54.0142 23.2266C53.8814 23.0723 53.7574 22.917 53.6421 22.7607C53.5288 22.6025 53.4244 22.4492 53.3287 22.3008C53.2349 22.1504 53.1509 22.0068 53.0767 21.8701C53.0025 21.7314 52.939 21.6055 52.8863 21.4922L53.2876 21.2754C53.3579 21.4277 53.437 21.5479 53.5249 21.6357C53.6148 21.7217 53.7183 21.7646 53.8355 21.7646C53.9195 21.7646 53.9947 21.7432 54.0611 21.7002C54.1275 21.6572 54.1831 21.6025 54.2281 21.5361C54.273 21.4678 54.3072 21.3936 54.3306 21.3135C54.354 21.2314 54.3658 21.1514 54.3658 21.0732C54.3658 20.9814 54.354 20.8916 54.3306 20.8037C54.3072 20.7139 54.2769 20.627 54.2398 20.543C54.2027 20.457 54.1607 20.374 54.1138 20.2939C54.0689 20.2139 54.0249 20.1367 53.982 20.0625H52.4761V19.6318H55.6138V20.0625ZM54.4419 19.7139H54.0171L53.7505 19.2129C53.6372 19 53.5347 18.8311 53.4429 18.7061C53.3492 18.5811 53.2613 18.4863 53.1792 18.4219C53.0953 18.3555 53.0132 18.3135 52.9331 18.2959C52.8531 18.2764 52.7691 18.2666 52.6812 18.2666H52.1128V17.792H52.649C52.7622 17.792 52.8648 17.8018 52.9566 17.8213C53.0484 17.8389 53.1363 17.8721 53.2203 17.9209C53.3023 17.9678 53.3833 18.0342 53.4634 18.1201C53.5415 18.2041 53.6255 18.3135 53.7154 18.4482C53.8052 18.5811 53.9038 18.7412 54.0113 18.9287C54.1167 19.1143 54.2378 19.334 54.3745 19.5879L54.4419 19.7139ZM54.3804 18.7383C54.3804 18.627 54.4136 18.5371 54.48 18.4688C54.5445 18.3984 54.6294 18.3633 54.7349 18.3633C54.7837 18.3633 54.8296 18.373 54.8726 18.3926C54.9175 18.4121 54.9566 18.4395 54.9898 18.4746C55.023 18.5078 55.0484 18.5479 55.066 18.5947C55.0855 18.6396 55.0953 18.6895 55.0953 18.7441C55.0953 18.8555 55.062 18.9453 54.9956 19.0137C54.9312 19.082 54.8462 19.1162 54.7408 19.1162C54.69 19.1162 54.6431 19.1074 54.6001 19.0898C54.5552 19.0703 54.5171 19.0439 54.4859 19.0107C54.4527 18.9756 54.4273 18.9355 54.4097 18.8906C54.3902 18.8438 54.3804 18.793 54.3804 18.7383Z" fill="black" fill-opacity="0.8956"/>
<path d="M32.2529 16.4922V16.5239C32.4476 16.7355 32.6528 16.9281 32.8687 17.1016C33.0845 17.2793 33.2918 17.4359 33.4907 17.5713C33.6938 17.7067 33.88 17.821 34.0493 17.9141C34.2228 18.0072 34.3646 18.077 34.4746 18.1235L34.0239 18.917C33.7573 18.7773 33.4907 18.6144 33.2241 18.4282C32.9618 18.242 32.7057 18.0474 32.4561 17.8442C32.2106 17.6411 31.9779 17.4338 31.7578 17.2222C31.542 17.0106 31.3473 16.8096 31.1738 16.6191C30.8099 16.5853 30.501 16.5197 30.2471 16.4224C29.9974 16.325 29.7922 16.2087 29.6313 16.0732C29.4748 15.9378 29.3605 15.7918 29.2886 15.6353C29.2166 15.4787 29.1807 15.3263 29.1807 15.1782C29.1807 15.0724 29.1976 14.9709 29.2314 14.8735C29.2695 14.7762 29.3224 14.6916 29.3901 14.6196C29.4621 14.5477 29.5488 14.4906 29.6504 14.4482C29.7562 14.4059 29.8768 14.3848 30.0122 14.3848C30.1561 14.3848 30.3084 14.4102 30.4692 14.4609C30.6343 14.5117 30.7951 14.5879 30.9517 14.6895C31.1082 14.791 31.2585 14.9201 31.4023 15.0767C31.5462 15.229 31.6732 15.4089 31.7832 15.6162C32.3122 15.5273 32.7121 15.3496 32.9829 15.083C33.2537 14.8122 33.3892 14.4588 33.3892 14.0229C33.3892 13.8537 33.3659 13.7161 33.3193 13.6104C33.277 13.5046 33.2114 13.422 33.1226 13.3628C33.0337 13.3035 32.9215 13.2655 32.7861 13.2485C32.6549 13.2274 32.5005 13.2168 32.3228 13.2168H30.5771C30.264 13.2168 29.9932 13.1512 29.7646 13.02C29.5361 12.8846 29.3457 12.7153 29.1934 12.5122C29.0452 12.3049 28.9352 12.0785 28.8633 11.833C28.7913 11.5833 28.7554 11.3442 28.7554 11.1157C28.7554 10.866 28.7956 10.6587 28.876 10.4937C28.9564 10.3244 29.0664 10.1911 29.2061 10.0938C29.3457 9.99219 29.5107 9.92025 29.7012 9.87793C29.8958 9.83561 30.1053 9.81445 30.3296 9.81445H32.5449V8.46875H27.7715V7.53564H35.5854V8.46875H33.5859V10.7476H30.5962C30.2788 10.7476 30.0609 10.792 29.9424 10.8809C29.8239 10.9697 29.7646 11.1136 29.7646 11.3125C29.7646 11.4056 29.7773 11.5072 29.8027 11.6172C29.8281 11.723 29.8747 11.8224 29.9424 11.9155C30.0101 12.0044 30.1011 12.0806 30.2153 12.144C30.3338 12.2033 30.484 12.2329 30.666 12.2329H32.437C32.8009 12.2329 33.1077 12.2773 33.3574 12.3662C33.6071 12.4551 33.8081 12.5799 33.9604 12.7407C34.1128 12.8973 34.2228 13.0856 34.2905 13.3057C34.3582 13.5257 34.3921 13.7648 34.3921 14.0229C34.3921 14.3234 34.3498 14.6048 34.2651 14.8672C34.1805 15.1296 34.0514 15.3687 33.8779 15.5845C33.7044 15.7961 33.4823 15.9801 33.2114 16.1367C32.9448 16.2891 32.6253 16.4076 32.2529 16.4922ZM44.9482 7.53564V8.46875H43.6152V17H42.5615V12.7344H38.8862C38.6619 12.8825 38.3932 12.9714 38.0801 13.001L38.0674 13.0327C38.4779 13.6759 38.9285 14.2747 39.4194 14.8291C39.9103 15.3835 40.4689 15.8976 41.0952 16.3716L40.416 17.1523C40.0563 16.8857 39.7135 16.598 39.3877 16.2891C39.0661 15.9801 38.7614 15.6606 38.4736 15.3306C38.1901 14.9963 37.9235 14.6598 37.6738 14.3213C37.4242 13.9785 37.1956 13.6421 36.9883 13.312C36.7809 12.9819 36.5947 12.6646 36.4297 12.3599C36.2646 12.0509 36.1208 11.7653 35.998 11.5029L36.8677 11.0332C36.9481 11.2194 37.0264 11.376 37.1025 11.5029C37.1829 11.6257 37.2633 11.7251 37.3438 11.8013C37.4242 11.8732 37.5088 11.9261 37.5977 11.96C37.6865 11.9896 37.7817 12.0044 37.8833 12.0044C38.1753 12.0044 38.389 11.8901 38.5244 11.6616C38.6641 11.4331 38.7339 11.1326 38.7339 10.7603C38.7339 10.5402 38.7127 10.3244 38.6704 10.1128C38.6281 9.89697 38.5731 9.69173 38.5054 9.49707C38.4419 9.29818 38.3721 9.11198 38.2959 8.93848C38.2197 8.76497 38.1478 8.6084 38.0801 8.46875H35.1411V7.53564H44.9482ZM42.5615 8.46875H39.1782C39.356 8.85384 39.4956 9.24105 39.5972 9.63037C39.6987 10.0197 39.7495 10.4069 39.7495 10.792C39.7495 10.9697 39.7347 11.1453 39.7051 11.3188C39.6797 11.4881 39.6353 11.6489 39.5718 11.8013L39.5845 11.814H42.5615V8.46875ZM43.5264 7.71338H42.606L42.0283 6.62793C41.7829 6.16667 41.5607 5.80062 41.3618 5.52979C41.1587 5.25895 40.9683 5.05371 40.7905 4.91406C40.6086 4.77018 40.4308 4.6792 40.2573 4.64111C40.0838 4.5988 39.9019 4.57764 39.7114 4.57764H38.48V3.54932H39.6416C39.887 3.54932 40.1092 3.57048 40.3081 3.61279C40.507 3.65088 40.6974 3.72282 40.8794 3.82861C41.0571 3.93018 41.2327 4.07406 41.4062 4.26025C41.5755 4.44222 41.7575 4.6792 41.9521 4.97119C42.1468 5.25895 42.3605 5.60596 42.5933 6.01221C42.8218 6.41423 43.0841 6.8903 43.3804 7.44043L43.5264 7.71338ZM59.1987 17H57.7007V11.1094C57.7007 10.627 57.7303 10.0366 57.7896 9.33838H57.7642C57.6711 9.73617 57.5885 10.0218 57.5166 10.1953L54.7998 17H53.7588L51.0356 10.2461C50.9595 10.0472 50.8791 9.74463 50.7944 9.33838H50.769C50.8029 9.70231 50.8198 10.2969 50.8198 11.1221V17H49.4233V7.89746H51.5498L53.9429 13.9595C54.1248 14.425 54.2433 14.772 54.2983 15.0005H54.3301C54.4867 14.5223 54.6136 14.1668 54.7109 13.9341L57.1484 7.89746H59.1987V17ZM62.0039 9.13525C61.7627 9.13525 61.5554 9.05697 61.3819 8.90039C61.2126 8.74382 61.128 8.54492 61.128 8.30371C61.128 8.0625 61.2126 7.86149 61.3819 7.70068C61.5554 7.53988 61.7627 7.45947 62.0039 7.45947C62.2536 7.45947 62.4652 7.53988 62.6387 7.70068C62.8122 7.86149 62.899 8.0625 62.899 8.30371C62.899 8.53223 62.8122 8.729 62.6387 8.89404C62.4652 9.05485 62.2536 9.13525 62.0039 9.13525ZM62.7339 17H61.2613V10.5H62.7339V17ZM69.2969 16.7017C68.7764 17.0021 68.1607 17.1523 67.4498 17.1523C66.4849 17.1523 65.7063 16.8519 65.1138 16.251C64.5214 15.6458 64.2252 14.863 64.2252 13.9023C64.2252 12.8317 64.5425 11.9727 65.1773 11.3252C65.8163 10.6735 66.669 10.3477 67.7354 10.3477C68.3279 10.3477 68.8505 10.4513 69.3033 10.6587V12.0298C68.8505 11.6912 68.3681 11.522 67.856 11.522C67.2339 11.522 66.724 11.7336 66.3262 12.1567C65.9284 12.5757 65.7296 13.1258 65.7296 13.8071C65.7296 14.48 65.9158 15.0111 66.2881 15.4004C66.6648 15.7897 67.1684 15.9844 67.7989 15.9844C68.3279 15.9844 68.8272 15.7961 69.2969 15.4194V16.7017ZM74.5143 11.9028C74.3365 11.7632 74.0805 11.6934 73.7462 11.6934C73.3103 11.6934 72.9464 11.8901 72.6544 12.2837C72.3624 12.6772 72.2164 13.2126 72.2164 13.8896V17H70.7437V10.5H72.2164V11.8394H72.2418C72.3857 11.3823 72.6057 11.0269 72.902 10.7729C73.2024 10.5148 73.5367 10.3857 73.9049 10.3857C74.1715 10.3857 74.3746 10.4259 74.5143 10.5063V11.9028ZM78.3033 17.1523C77.3004 17.1523 76.4985 16.8498 75.8976 16.2446C75.3009 15.6353 75.0026 14.8291 75.0026 13.8262C75.0026 12.7344 75.3136 11.8817 75.9357 11.2681C76.562 10.6545 77.4041 10.3477 78.462 10.3477C79.4777 10.3477 80.269 10.646 80.8361 11.2427C81.4031 11.8394 81.6866 12.6667 81.6866 13.7246C81.6866 14.7614 81.3798 15.5929 80.7662 16.2192C80.1569 16.8413 79.3359 17.1523 78.3033 17.1523ZM78.3732 11.522C77.7977 11.522 77.3427 11.723 77.0084 12.125C76.6741 12.527 76.507 13.0814 76.507 13.7881C76.507 14.4694 76.6762 15.0068 77.0148 15.4004C77.3533 15.7897 77.8061 15.9844 78.3732 15.9844C78.9529 15.9844 79.3973 15.7918 79.7062 15.4067C80.0193 15.0216 80.1759 14.4736 80.1759 13.7627C80.1759 13.0475 80.0193 12.4953 79.7062 12.106C79.3973 11.7166 78.9529 11.522 78.3732 11.522ZM82.7653 16.7969V15.4321C83.3154 15.8511 83.9227 16.0605 84.5871 16.0605C85.4757 16.0605 85.9201 15.7982 85.9201 15.2734C85.9201 15.1253 85.882 15.0005 85.8058 14.8989C85.7296 14.7931 85.626 14.7 85.4948 14.6196C85.3678 14.5392 85.2155 14.4673 85.0378 14.4038C84.8643 14.3403 84.6696 14.2684 84.4538 14.188C84.1872 14.0822 83.946 13.9701 83.7301 13.8516C83.5185 13.7331 83.3408 13.5998 83.1969 13.4517C83.0573 13.2993 82.9515 13.1279 82.8796 12.9375C82.8076 12.7471 82.7716 12.5249 82.7716 12.271C82.7716 11.9578 82.8457 11.6828 82.9938 11.4458C83.1419 11.2046 83.3408 11.0036 83.5905 10.8428C83.8402 10.6777 84.1237 10.555 84.4411 10.4746C84.7585 10.39 85.0864 10.3477 85.425 10.3477C86.0259 10.3477 86.5633 10.4386 87.0373 10.6206V11.9092C86.5802 11.596 86.0555 11.4395 85.463 11.4395C85.2768 11.4395 85.1076 11.4585 84.9552 11.4966C84.8071 11.5347 84.6802 11.5876 84.5744 11.6553C84.4686 11.723 84.3861 11.8055 84.3268 11.9028C84.2676 11.9959 84.2379 12.0996 84.2379 12.2139C84.2379 12.3535 84.2676 12.472 84.3268 12.5693C84.3861 12.6667 84.4728 12.7534 84.5871 12.8296C84.7056 12.9015 84.8452 12.9692 85.006 13.0327C85.1711 13.092 85.3594 13.1576 85.571 13.2295C85.8503 13.3438 86.0999 13.4601 86.32 13.5786C86.5443 13.6971 86.7347 13.8325 86.8913 13.9849C87.0478 14.133 87.1685 14.3065 87.2531 14.5054C87.3377 14.7 87.38 14.9328 87.38 15.2036C87.38 15.5337 87.3039 15.8215 87.1515 16.0669C86.9992 16.3123 86.7961 16.5155 86.5421 16.6763C86.2882 16.8371 85.9941 16.9556 85.6598 17.0317C85.3297 17.1121 84.9806 17.1523 84.6125 17.1523C83.9015 17.1523 83.2858 17.0339 82.7653 16.7969ZM91.6452 17.1523C90.6423 17.1523 89.8404 16.8498 89.2394 16.2446C88.6428 15.6353 88.3444 14.8291 88.3444 13.8262C88.3444 12.7344 88.6555 11.8817 89.2775 11.2681C89.9038 10.6545 90.746 10.3477 91.8039 10.3477C92.8195 10.3477 93.6109 10.646 94.1779 11.2427C94.745 11.8394 95.0285 12.6667 95.0285 13.7246C95.0285 14.7614 94.7217 15.5929 94.1081 16.2192C93.4987 16.8413 92.6778 17.1523 91.6452 17.1523ZM91.715 11.522C91.1395 11.522 90.6846 11.723 90.3503 12.125C90.016 12.527 89.8488 13.0814 89.8488 13.7881C89.8488 14.4694 90.0181 15.0068 90.3566 15.4004C90.6952 15.7897 91.148 15.9844 91.715 15.9844C92.2948 15.9844 92.7391 15.7918 93.048 15.4067C93.3612 15.0216 93.5178 14.4736 93.5178 13.7627C93.5178 13.0475 93.3612 12.4953 93.048 12.106C92.7391 11.7166 92.2948 11.522 91.715 11.522ZM99.9729 8.57666C99.774 8.4624 99.5476 8.40527 99.2937 8.40527C98.5785 8.40527 98.2209 8.80941 98.2209 9.61768V10.5H99.7317V11.6553H98.2273V17H96.7546V11.6553H95.6438V10.5H96.7546V9.44629C96.7546 8.76074 96.9789 8.22119 97.4275 7.82764C97.876 7.42985 98.4367 7.23096 99.1096 7.23096C99.4735 7.23096 99.7613 7.27116 99.9729 7.35156V8.57666ZM104.428 16.9302C104.141 17.0741 103.762 17.146 103.292 17.146C102.031 17.146 101.401 16.5409 101.401 15.3306V11.6553H100.315V10.5H101.401V8.99561L102.873 8.57666V10.5H104.428V11.6553H102.873V14.9053C102.873 15.2904 102.943 15.5654 103.083 15.7305C103.222 15.8955 103.455 15.978 103.781 15.978C104.031 15.978 104.247 15.9061 104.428 15.7622V16.9302Z" fill="black" fill-opacity="0.8956"/>
<rect x="0.5" y="0.5" width="111" height="31" rx="3.5" stroke="url(#paint0_linear_1640_30111)"/>
<defs>
<linearGradient id="paint0_linear_1640_30111" x1="56" y1="1" x2="56" y2="31" gradientUnits="userSpaceOnUse">
<stop offset="0.905762" stop-opacity="0.0578"/>
<stop offset="1" stop-opacity="0.1622"/>
</linearGradient>
</defs>
</svg>
