<svg width="116" height="34" viewBox="0 0 116 34" fill="none" xmlns="http://www.w3.org/2000/svg">
<rect x="1" y="1" width="114" height="32" rx="4" fill="#FDFDFD"/>
<rect x="0.5" y="0.5" width="115" height="33" rx="4.5" stroke="black" stroke-opacity="0.0578"/>
<g clip-path="url(#clip0_974_1803)">
<g clip-path="url(#clip1_974_1803)">
<path d="M8.28125 11C8.28125 10.5858 8.61704 10.25 9.03125 10.25H24.9687C25.383 10.25 25.7188 10.5858 25.7188 11V22.3438C25.7188 24.0524 24.3336 25.4375 22.625 25.4375H11.375C9.66637 25.4375 8.28125 24.0524 8.28125 22.3438V11Z" fill="url(#paint0_linear_974_1803)"/>
<mask id="mask0_974_1803" style="mask-type:alpha" maskUnits="userSpaceOnUse" x="8" y="10" width="18" height="16">
<path d="M8.28125 11C8.28125 10.5858 8.61704 10.25 9.03125 10.25H24.9687C25.383 10.25 25.7188 10.5858 25.7188 11V22.3438C25.7188 24.0524 24.3336 25.4375 22.625 25.4375H11.375C9.66637 25.4375 8.28125 24.0524 8.28125 22.3438V11Z" fill="url(#paint1_linear_974_1803)"/>
</mask>
<g mask="url(#mask0_974_1803)">
<g filter="url(#filter0_dd_974_1803)">
<path d="M12.7812 10.8125V8.5625H21.2187V10.8125" stroke="url(#paint2_linear_974_1803)" stroke-width="1.125" stroke-linecap="round"/>
</g>
</g>
<g filter="url(#filter1_dd_974_1803)">
<path d="M16.719 14.1875H13.344V17.5625H16.719V14.1875Z" fill="#F25022"/>
<path d="M20.6562 14.1875H17.2812V17.5625H20.6562V14.1875Z" fill="#7FBA00"/>
<path d="M20.6562 18.125H17.2812V21.5H20.6562V18.125Z" fill="#FFB900"/>
<path d="M16.7188 18.125H13.3438V21.5H16.7188V18.125Z" fill="#00A4EF"/>
</g>
<path d="M12.7812 10.8125V9.125C12.7812 8.81434 13.0331 8.5625 13.3438 8.5625H20.6563C20.9669 8.5625 21.2188 8.81434 21.2188 9.125V10.8125" stroke="url(#paint3_linear_974_1803)" stroke-width="1.125" stroke-linecap="round"/>
<rect x="13.3438" y="8" width="7.3125" height="1.125" fill="url(#paint4_linear_974_1803)"/>
<mask id="mask1_974_1803" style="mask-type:alpha" maskUnits="userSpaceOnUse" x="13" y="8" width="8" height="2">
<rect x="13.3438" y="8" width="7.3125" height="1.125" fill="url(#paint5_linear_974_1803)"/>
</mask>
<g mask="url(#mask1_974_1803)">
<g filter="url(#filter2_dd_974_1803)">
<rect x="11.7189" y="8.56274" width="1.625" height="2.8125" fill="#C4C4C4"/>
</g>
</g>
</g>
</g>
<path d="M30.2188 12.624L30.499 12.1934C30.6995 12.3232 30.9001 12.4178 31.1006 12.4771C31.3011 12.5363 31.5347 12.5659 31.8013 12.5659C32.0998 12.5659 32.3447 12.4964 32.5361 12.3574C32.7298 12.2161 32.8267 12.0111 32.8267 11.7422C32.8267 11.5029 32.7446 11.3115 32.5806 11.168C32.4188 11.0244 32.1522 10.8854 31.7808 10.751C31.3205 10.5846 30.9787 10.3978 30.7554 10.1904C30.5343 9.98079 30.4238 9.70508 30.4238 9.36328C30.4238 8.96224 30.5674 8.63753 30.8545 8.38916C31.1439 8.14079 31.5233 8.0166 31.9927 8.0166C32.2114 8.0166 32.4256 8.04053 32.6353 8.08838C32.8449 8.13395 33.0614 8.20915 33.2847 8.31396L33.0693 8.77539C32.8825 8.6888 32.7002 8.62614 32.5225 8.5874C32.347 8.54867 32.1567 8.5293 31.9517 8.5293C31.6577 8.5293 31.4253 8.5988 31.2544 8.73779C31.0835 8.87451 30.998 9.06478 30.998 9.30859C30.998 9.52279 31.0767 9.69368 31.2339 9.82129C31.3911 9.94889 31.6532 10.0788 32.02 10.2109C32.5122 10.3887 32.8654 10.5869 33.0796 10.8057C33.2938 11.0244 33.4009 11.3195 33.4009 11.6909C33.4009 12.0874 33.2573 12.4189 32.9702 12.6855C32.6831 12.9499 32.2798 13.082 31.7603 13.082C31.4686 13.082 31.1997 13.0456 30.9536 12.9727C30.7075 12.8997 30.4626 12.7835 30.2188 12.624ZM39.1807 12.6753C38.9801 12.8166 38.7773 12.9202 38.5723 12.9863C38.3672 13.0501 38.1416 13.082 37.8955 13.082C37.5195 13.082 37.2222 13.0171 37.0034 12.8872C36.7869 12.755 36.6138 12.5591 36.4839 12.2993H36.4702C36.3062 12.5591 36.1136 12.755 35.8926 12.8872C35.6715 13.0171 35.4232 13.082 35.1475 13.082C34.7988 13.082 34.5243 12.9909 34.3237 12.8086C34.1255 12.624 34.0264 12.3779 34.0264 12.0703C34.0264 11.7285 34.1357 11.4653 34.3545 11.2808C34.5732 11.0962 34.9002 10.9902 35.3354 10.9629L36.231 10.9082C36.231 10.5687 36.1694 10.3146 36.0464 10.146C35.9256 9.9751 35.7274 9.88965 35.4517 9.88965C35.2694 9.88965 35.0928 9.92155 34.9219 9.98535C34.7533 10.0492 34.5915 10.1483 34.4365 10.2827L34.1255 9.92725C34.326 9.75179 34.5356 9.62305 34.7544 9.54102C34.9754 9.45898 35.2192 9.41797 35.4858 9.41797C35.798 9.41797 36.0396 9.47493 36.2104 9.58887C36.3813 9.7028 36.5055 9.8737 36.583 10.1016H36.5967C36.7288 9.8737 36.8963 9.7028 37.0991 9.58887C37.3019 9.47493 37.54 9.41797 37.8135 9.41797C38.2738 9.41797 38.6304 9.56722 38.8833 9.86572C39.1362 10.1619 39.2627 10.5744 39.2627 11.103V11.3901H36.7847C36.7915 11.7798 36.8952 12.0806 37.0957 12.2925C37.2962 12.5044 37.5776 12.6092 37.9399 12.6069C38.104 12.6069 38.2669 12.5819 38.4287 12.5317C38.5905 12.4793 38.75 12.3984 38.9072 12.2891L39.1807 12.6753ZM36.7915 10.915H38.6885C38.6839 10.5869 38.6053 10.334 38.4526 10.1562C38.3022 9.97852 38.0915 9.88965 37.8203 9.88965C37.556 9.88965 37.3293 9.98307 37.1401 10.1699C36.951 10.3568 36.8348 10.6051 36.7915 10.915ZM36.231 11.3833L35.5371 11.4243C35.2204 11.4425 34.9834 11.4984 34.8262 11.5918C34.6712 11.6852 34.5938 11.8402 34.5938 12.0566C34.5938 12.223 34.6541 12.3574 34.7749 12.46C34.8957 12.5602 35.0586 12.6104 35.2637 12.6104C35.5348 12.6104 35.7638 12.5146 35.9507 12.3232C36.1375 12.1296 36.231 11.888 36.231 11.5986V11.3833ZM43.0156 13H42.2295L40.6846 11.3184H40.6709V13H40.1104V7.81836H40.6709V11.103H40.6846L42.1543 9.5H42.8892L41.2656 11.1885L43.0156 13ZM43.877 8.6626C43.763 8.6626 43.6673 8.625 43.5898 8.5498C43.5124 8.47233 43.4736 8.37777 43.4736 8.26611C43.4736 8.15446 43.5124 8.06104 43.5898 7.98584C43.6673 7.90837 43.763 7.86963 43.877 7.86963C43.9909 7.86963 44.0866 7.90837 44.1641 7.98584C44.2415 8.06104 44.2803 8.15446 44.2803 8.26611C44.2803 8.37777 44.2415 8.47233 44.1641 8.5498C44.0866 8.625 43.9909 8.6626 43.877 8.6626ZM44.1436 13.0991C44.1436 13.6483 44.0444 14.0436 43.8462 14.2852C43.6479 14.5267 43.3449 14.6475 42.937 14.6475C42.8481 14.6475 42.7673 14.6418 42.6943 14.6304C42.6191 14.619 42.5394 14.6007 42.4551 14.5757L42.5747 14.1006C42.6453 14.1257 42.7091 14.1427 42.7661 14.1519C42.8231 14.1632 42.8812 14.1689 42.9404 14.1689C43.1797 14.1689 43.346 14.0892 43.4395 13.9297C43.5352 13.7725 43.583 13.5081 43.583 13.1367V9.5H44.1436V13.0991ZM47.7632 13H47.2026V12.4531H47.189C47.0682 12.6628 46.9189 12.82 46.7412 12.9248C46.5658 13.0296 46.3607 13.082 46.126 13.082C45.7979 13.082 45.5324 12.9863 45.3296 12.7949C45.1268 12.6035 45.0254 12.3494 45.0254 12.0327C45.0254 11.7342 45.1279 11.487 45.333 11.291C45.5381 11.0951 45.8286 10.9697 46.2046 10.915L47.2026 10.7817V10.7031C47.2026 10.4092 47.1343 10.2007 46.9976 10.0776C46.8608 9.95231 46.6785 9.88965 46.4507 9.88965C46.2684 9.88965 46.0929 9.92383 45.9243 9.99219C45.7557 10.0605 45.5973 10.1654 45.4492 10.3066L45.1211 9.96826C45.3171 9.77913 45.5256 9.64014 45.7466 9.55127C45.9676 9.4624 46.2137 9.41797 46.4849 9.41797C46.9087 9.41797 47.2277 9.52734 47.4419 9.74609C47.6561 9.96257 47.7632 10.2884 47.7632 10.7236V13ZM47.2026 11.5781V11.2295L46.3584 11.3457C46.1009 11.3822 45.9072 11.4471 45.7773 11.5405C45.6475 11.634 45.5825 11.7809 45.5825 11.9814C45.5825 12.1911 45.6429 12.3517 45.7637 12.4634C45.8867 12.5728 46.036 12.6274 46.2114 12.6274C46.5145 12.6274 46.7549 12.5283 46.9326 12.3301C47.1126 12.1318 47.2026 11.8812 47.2026 11.5781ZM53.5977 13H53.0371V12.4463H53.0234C52.9072 12.6582 52.7591 12.8177 52.5791 12.9248C52.3991 13.0296 52.1872 13.082 51.9434 13.082C51.5264 13.082 51.2131 12.9578 51.0034 12.7095C50.7961 12.4611 50.6924 12.0885 50.6924 11.5918V9.5H51.2495V11.5029C51.2495 11.8721 51.3201 12.1489 51.4614 12.3335C51.6027 12.5181 51.8146 12.6104 52.0972 12.6104C52.3706 12.6104 52.5951 12.5101 52.7705 12.3096C52.9482 12.1068 53.0371 11.8424 53.0371 11.5166V9.5H53.5977V13ZM52.186 8.83691H51.752L52.5142 7.71582H53.0815L52.186 8.83691ZM56.4585 9.97852C56.4152 9.96484 56.3765 9.95573 56.3423 9.95117C56.3081 9.94434 56.2648 9.94092 56.2124 9.94092C55.9276 9.94092 55.7031 10.0628 55.5391 10.3066C55.375 10.5482 55.293 10.8512 55.293 11.2158V13H54.7324V9.5H55.293V10.1938H55.3066C55.3864 9.94775 55.5083 9.7609 55.6724 9.6333C55.8364 9.50342 56.0256 9.43848 56.2397 9.43848C56.3104 9.43848 56.3696 9.44189 56.4175 9.44873C56.4676 9.45557 56.512 9.46582 56.5508 9.47949L56.4585 9.97852Z" fill="black" fill-opacity="0.6063"/>
<path d="M39.2275 25H37.96V20.0854C37.96 19.8634 37.9653 19.6217 37.9761 19.3604C37.9904 19.0954 38.0083 18.8143 38.0298 18.5171H37.9976C37.9546 18.7212 37.9134 18.8966 37.874 19.0435C37.8382 19.1867 37.8024 19.3013 37.7666 19.3872L35.5054 25H34.6245L32.3525 19.4355C32.3239 19.3568 32.2881 19.2404 32.2451 19.0864C32.2057 18.9325 32.1628 18.7427 32.1162 18.5171H32.084C32.1055 18.7749 32.1198 19.0488 32.127 19.3389C32.1341 19.6253 32.1377 19.9279 32.1377 20.2466V25H30.9561V17.2979H32.7607L34.7642 22.3037C34.8429 22.4935 34.9074 22.6689 34.9575 22.8301C35.0112 22.9876 35.0524 23.1344 35.0811 23.2705H35.1133C35.1777 23.0664 35.2386 22.882 35.2959 22.7173C35.3532 22.5526 35.4069 22.4093 35.457 22.2876L37.4873 17.2979H39.2275V25ZM41.6177 18.4365C41.3885 18.4365 41.1987 18.3631 41.0483 18.2163C40.8979 18.0695 40.8228 17.8887 40.8228 17.6738C40.8228 17.4518 40.8979 17.2692 41.0483 17.126C41.1987 16.9827 41.3885 16.9111 41.6177 16.9111C41.8504 16.9111 42.042 16.9827 42.1924 17.126C42.3428 17.2692 42.418 17.4518 42.418 17.6738C42.418 17.8923 42.3428 18.0749 42.1924 18.2217C42.042 18.3649 41.8504 18.4365 41.6177 18.4365ZM42.2354 25H40.9839V19.5H42.2354V25ZM47.9824 24.6616C47.7103 24.8263 47.4399 24.9445 47.1714 25.0161C46.9028 25.0913 46.611 25.1289 46.2959 25.1289C45.4508 25.1289 44.7741 24.8818 44.2656 24.3877C43.7607 23.8936 43.5083 23.2222 43.5083 22.3735C43.5083 21.4604 43.7697 20.7318 44.2925 20.1875C44.8188 19.6432 45.5278 19.3711 46.4194 19.3711C46.731 19.3711 47.0138 19.4051 47.2681 19.4731C47.5259 19.5376 47.7873 19.645 48.0522 19.7954L47.5635 20.6655C47.3773 20.5617 47.1947 20.4865 47.0156 20.4399C46.8366 20.3898 46.6414 20.3647 46.4302 20.3647C45.9038 20.3647 45.4974 20.5384 45.2109 20.8857C44.9245 21.2331 44.7812 21.6932 44.7812 22.2661C44.7812 22.8677 44.9352 23.3296 45.2432 23.6519C45.5547 23.9741 45.945 24.1353 46.4141 24.1353C46.5573 24.1353 46.722 24.1102 46.9082 24.0601C47.0944 24.0063 47.2824 23.9222 47.4722 23.8076L47.9824 24.6616ZM52.1021 20.5474C52.034 20.5295 51.9678 20.5169 51.9033 20.5098C51.8424 20.499 51.7708 20.4937 51.6885 20.4937C51.2409 20.4937 50.8971 20.6584 50.6572 20.9878C50.4173 21.3172 50.2974 21.7469 50.2974 22.2769V25H49.0459V19.5H50.2974V20.5581H50.3188C50.4478 20.1785 50.6375 19.8921 50.8882 19.6987C51.1388 19.5018 51.4342 19.4033 51.7744 19.4033C51.8711 19.4033 51.957 19.4087 52.0322 19.4194C52.111 19.4302 52.1862 19.4463 52.2578 19.4678L52.1021 20.5474ZM55.5557 25.1289C54.6963 25.1289 54.0142 24.8729 53.5093 24.3608C53.008 23.8452 52.7573 23.1559 52.7573 22.293C52.7609 21.3799 53.0223 20.6655 53.5415 20.1499C54.0607 19.6307 54.7679 19.3711 55.6631 19.3711C56.526 19.3675 57.1992 19.6217 57.6826 20.1338C58.1696 20.6423 58.4131 21.3315 58.4131 22.2017C58.4131 23.0968 58.1553 23.8094 57.6396 24.3394C57.1276 24.8657 56.4329 25.1289 55.5557 25.1289ZM55.6147 24.1353C56.1125 24.1353 56.4902 23.9723 56.748 23.6465C57.0094 23.3206 57.1401 22.8498 57.1401 22.2339C57.1401 21.6252 57.0094 21.1615 56.748 20.8428C56.4867 20.5241 56.1071 20.3647 55.6094 20.3647C55.1188 20.3647 54.7321 20.533 54.4492 20.8696C54.1699 21.2062 54.0303 21.6717 54.0303 22.2661C54.0303 22.8641 54.1699 23.326 54.4492 23.6519C54.7285 23.9741 55.117 24.1353 55.6147 24.1353ZM59.1543 24.5596L59.6968 23.6787C59.9116 23.8291 60.139 23.9508 60.3789 24.0439C60.6224 24.1335 60.8856 24.1782 61.1685 24.1782C61.4764 24.1782 61.7145 24.1227 61.8828 24.0117C62.0547 23.8971 62.1406 23.7271 62.1406 23.5015C62.1406 23.3224 62.069 23.1738 61.9258 23.0557C61.7861 22.9339 61.5462 22.8337 61.2061 22.7549C60.5186 22.5938 60.0352 22.3807 59.7559 22.1157C59.4801 21.8507 59.3423 21.5016 59.3423 21.0684C59.3423 20.5706 59.5356 20.1642 59.9224 19.8491C60.3091 19.5304 60.8158 19.3711 61.4424 19.3711C61.7539 19.3711 62.0511 19.4123 62.334 19.4946C62.6169 19.5734 62.8926 19.7005 63.1611 19.876L62.6562 20.7354C62.4199 20.585 62.2033 20.4775 62.0063 20.4131C61.8094 20.3486 61.6071 20.3164 61.3994 20.3164C61.1058 20.3164 60.8766 20.3719 60.7119 20.4829C60.5508 20.5903 60.4702 20.7407 60.4702 20.9341C60.4702 21.1382 60.5526 21.2904 60.7173 21.3906C60.8856 21.4873 61.1667 21.5822 61.5605 21.6753C62.1549 21.8185 62.59 22.0262 62.8657 22.2983C63.1414 22.5669 63.2793 22.9268 63.2793 23.3779C63.2793 23.9115 63.0841 24.3376 62.6938 24.6562C62.3071 24.9714 61.7826 25.1289 61.1201 25.1289C60.762 25.1289 60.4183 25.0824 60.0889 24.9893C59.763 24.8926 59.4515 24.7493 59.1543 24.5596ZM66.8779 25.1289C66.0186 25.1289 65.3364 24.8729 64.8315 24.3608C64.3302 23.8452 64.0796 23.1559 64.0796 22.293C64.0832 21.3799 64.3446 20.6655 64.8638 20.1499C65.383 19.6307 66.0902 19.3711 66.9854 19.3711C67.8483 19.3675 68.5215 19.6217 69.0049 20.1338C69.4919 20.6423 69.7354 21.3315 69.7354 22.2017C69.7354 23.0968 69.4775 23.8094 68.9619 24.3394C68.4499 24.8657 67.7552 25.1289 66.8779 25.1289ZM66.937 24.1353C67.4347 24.1353 67.8125 23.9723 68.0703 23.6465C68.3317 23.3206 68.4624 22.8498 68.4624 22.2339C68.4624 21.6252 68.3317 21.1615 68.0703 20.8428C67.8089 20.5241 67.4294 20.3647 66.9316 20.3647C66.4411 20.3647 66.0544 20.533 65.7715 20.8696C65.4922 21.2062 65.3525 21.6717 65.3525 22.2661C65.3525 22.8641 65.4922 23.326 65.7715 23.6519C66.0508 23.9741 66.4393 24.1353 66.937 24.1353ZM73.9839 17.8403C73.8836 17.8009 73.7923 17.7741 73.71 17.7598C73.6276 17.7419 73.5381 17.7329 73.4414 17.7329C73.1764 17.7329 72.9759 17.8099 72.8398 17.9639C72.7074 18.1143 72.6411 18.3327 72.6411 18.6191V19.5H73.9141V20.4775H72.6411V25H71.395V20.4775H70.4604V19.5H71.395V18.5547C71.395 17.9961 71.5741 17.5539 71.9321 17.228C72.2938 16.8986 72.7718 16.7339 73.3662 16.7339C73.5524 16.7339 73.7135 16.7464 73.8496 16.7715C73.9857 16.7965 74.1271 16.8324 74.2739 16.8789L73.9839 17.8403ZM77.7974 24.9248C77.6362 24.9928 77.4679 25.043 77.2925 25.0752C77.117 25.1074 76.929 25.1235 76.7285 25.1235C76.2201 25.1235 75.828 24.9893 75.5522 24.7207C75.2801 24.4486 75.144 24.0439 75.144 23.5068V20.4775H74.2202V19.5H75.144V18.1626L76.3901 17.7866V19.5H77.7061V20.4775H76.3901V23.4048C76.3901 23.6733 76.4385 23.8667 76.5352 23.9849C76.6354 24.103 76.7894 24.1621 76.9971 24.1621C77.0973 24.1621 77.1922 24.1514 77.2817 24.1299C77.3748 24.1048 77.4572 24.0744 77.5288 24.0386L77.7974 24.9248ZM81.2939 24.4468L81.8633 23.4639C82.2106 23.6787 82.5347 23.8309 82.8354 23.9204C83.1362 24.0063 83.4728 24.0493 83.8452 24.0493C84.2892 24.0493 84.6383 23.9544 84.8926 23.7646C85.1504 23.5713 85.2793 23.2956 85.2793 22.9375C85.2793 22.6117 85.1719 22.3556 84.957 22.1694C84.7458 21.9797 84.3859 21.806 83.8774 21.6484C83.0933 21.4157 82.5168 21.1274 82.1479 20.7837C81.7791 20.4399 81.5947 19.9744 81.5947 19.3872C81.5947 18.7498 81.8328 18.2217 82.3091 17.8027C82.7853 17.3802 83.4316 17.1689 84.248 17.1689C84.6061 17.1689 84.9588 17.2083 85.3062 17.2871C85.6535 17.3659 85.9972 17.4876 86.3374 17.6523L85.8594 18.6729C85.5622 18.5189 85.2775 18.4097 85.0054 18.3452C84.7368 18.2808 84.4629 18.2485 84.1836 18.2485C83.7754 18.2485 83.4531 18.3381 83.2168 18.5171C82.984 18.6961 82.8677 18.9486 82.8677 19.2744C82.8677 19.5645 82.9751 19.7936 83.1899 19.9619C83.4048 20.1266 83.7736 20.2896 84.2964 20.4507C85.0985 20.6906 85.675 20.9896 86.0259 21.3477C86.3804 21.7057 86.5576 22.1981 86.5576 22.8247C86.5576 23.4979 86.3177 24.0511 85.8379 24.4844C85.3581 24.9141 84.6742 25.1289 83.7861 25.1289C83.3421 25.1289 82.9089 25.0734 82.4863 24.9624C82.0638 24.8478 81.6663 24.6759 81.2939 24.4468ZM90.4409 24.9248C90.2798 24.9928 90.1115 25.043 89.936 25.0752C89.7606 25.1074 89.5726 25.1235 89.3721 25.1235C88.8636 25.1235 88.4715 24.9893 88.1958 24.7207C87.9237 24.4486 87.7876 24.0439 87.7876 23.5068V20.4775H86.8638V19.5H87.7876V18.1626L89.0337 17.7866V19.5H90.3496V20.4775H89.0337V23.4048C89.0337 23.6733 89.082 23.8667 89.1787 23.9849C89.279 24.103 89.4329 24.1621 89.6406 24.1621C89.7409 24.1621 89.8358 24.1514 89.9253 24.1299C90.0184 24.1048 90.1007 24.0744 90.1724 24.0386L90.4409 24.9248ZM93.8623 25.1289C93.0029 25.1289 92.3208 24.8729 91.8159 24.3608C91.3146 23.8452 91.064 23.1559 91.064 22.293C91.0675 21.3799 91.3289 20.6655 91.8481 20.1499C92.3674 19.6307 93.0745 19.3711 93.9697 19.3711C94.8327 19.3675 95.5059 19.6217 95.9893 20.1338C96.4762 20.6423 96.7197 21.3315 96.7197 22.2017C96.7197 23.0968 96.4619 23.8094 95.9463 24.3394C95.4342 24.8657 94.7396 25.1289 93.8623 25.1289ZM93.9214 24.1353C94.4191 24.1353 94.7969 23.9723 95.0547 23.6465C95.3161 23.3206 95.4468 22.8498 95.4468 22.2339C95.4468 21.6252 95.3161 21.1615 95.0547 20.8428C94.7933 20.5241 94.4137 20.3647 93.916 20.3647C93.4255 20.3647 93.0387 20.533 92.7559 20.8696C92.4766 21.2062 92.3369 21.6717 92.3369 22.2661C92.3369 22.8641 92.4766 23.326 92.7559 23.6519C93.0352 23.9741 93.4237 24.1353 93.9214 24.1353ZM101.054 20.5474C100.986 20.5295 100.92 20.5169 100.855 20.5098C100.795 20.499 100.723 20.4937 100.641 20.4937C100.193 20.4937 99.8493 20.6584 99.6094 20.9878C99.3695 21.3172 99.2495 21.7469 99.2495 22.2769V25H97.998V19.5H99.2495V20.5581H99.271C99.3999 20.1785 99.5897 19.8921 99.8403 19.6987C100.091 19.5018 100.386 19.4033 100.727 19.4033C100.823 19.4033 100.909 19.4087 100.984 19.4194C101.063 19.4302 101.138 19.4463 101.21 19.4678L101.054 20.5474ZM106.721 22.5776H102.966C102.988 23.0968 103.138 23.4925 103.417 23.7646C103.697 24.0332 104.087 24.1675 104.588 24.1675C104.792 24.1675 105.025 24.1263 105.287 24.0439C105.548 23.9616 105.806 23.8291 106.06 23.6465L106.624 24.4253C106.284 24.6724 105.938 24.8514 105.587 24.9624C105.236 25.0734 104.85 25.1289 104.427 25.1289C103.571 25.1289 102.905 24.8836 102.429 24.3931C101.953 23.8989 101.713 23.2096 101.709 22.3252C101.709 21.4443 101.955 20.7318 102.445 20.1875C102.939 19.6432 103.571 19.3711 104.341 19.3711C105.079 19.3711 105.659 19.6038 106.082 20.0693C106.508 20.5312 106.721 21.1865 106.721 22.0352V22.5776ZM105.512 21.7129C105.512 21.2402 105.408 20.8857 105.201 20.6494C104.997 20.4095 104.707 20.2896 104.331 20.2896C103.976 20.2896 103.674 20.4185 103.423 20.6763C103.176 20.9305 103.024 21.276 102.966 21.7129H105.512Z" fill="black" fill-opacity="0.8956"/>
<defs>
<filter id="filter0_dd_974_1803" x="11.0938" y="7.25" width="11.8125" height="5.625" filterUnits="userSpaceOnUse" color-interpolation-filters="sRGB">
<feFlood flood-opacity="0" result="BackgroundImageFix"/>
<feColorMatrix in="SourceAlpha" type="matrix" values="0 0 0 0 0 0 0 0 0 0 0 0 0 0 0 0 0 0 127 0" result="hardAlpha"/>
<feOffset dy="0.1875"/>
<feGaussianBlur stdDeviation="0.1875"/>
<feColorMatrix type="matrix" values="0 0 0 0 0 0 0 0 0 0 0 0 0 0 0 0 0 0 0.1 0"/>
<feBlend mode="normal" in2="BackgroundImageFix" result="effect1_dropShadow_974_1803"/>
<feColorMatrix in="SourceAlpha" type="matrix" values="0 0 0 0 0 0 0 0 0 0 0 0 0 0 0 0 0 0 127 0" result="hardAlpha"/>
<feOffset dy="0.375"/>
<feGaussianBlur stdDeviation="0.5625"/>
<feColorMatrix type="matrix" values="0 0 0 0 0 0 0 0 0 0 0 0 0 0 0 0 0 0 0.2 0"/>
<feBlend mode="normal" in2="effect1_dropShadow_974_1803" result="effect2_dropShadow_974_1803"/>
<feBlend mode="normal" in="SourceGraphic" in2="effect2_dropShadow_974_1803" result="shape"/>
</filter>
<filter id="filter1_dd_974_1803" x="12.2188" y="13.4375" width="9.5625" height="9.5625" filterUnits="userSpaceOnUse" color-interpolation-filters="sRGB">
<feFlood flood-opacity="0" result="BackgroundImageFix"/>
<feColorMatrix in="SourceAlpha" type="matrix" values="0 0 0 0 0 0 0 0 0 0 0 0 0 0 0 0 0 0 127 0" result="hardAlpha"/>
<feOffset dy="0.1875"/>
<feGaussianBlur stdDeviation="0.1875"/>
<feColorMatrix type="matrix" values="0 0 0 0 0 0 0 0 0 0 0 0 0 0 0 0 0 0 0.1 0"/>
<feBlend mode="normal" in2="BackgroundImageFix" result="effect1_dropShadow_974_1803"/>
<feColorMatrix in="SourceAlpha" type="matrix" values="0 0 0 0 0 0 0 0 0 0 0 0 0 0 0 0 0 0 127 0" result="hardAlpha"/>
<feOffset dy="0.375"/>
<feGaussianBlur stdDeviation="0.5625"/>
<feColorMatrix type="matrix" values="0 0 0 0 0 0 0 0 0 0 0 0 0 0 0 0 0 0 0.2 0"/>
<feBlend mode="normal" in2="effect1_dropShadow_974_1803" result="effect2_dropShadow_974_1803"/>
<feBlend mode="normal" in="SourceGraphic" in2="effect2_dropShadow_974_1803" result="shape"/>
</filter>
<filter id="filter2_dd_974_1803" x="10.5939" y="6.6875" width="12.8124" height="5.06274" filterUnits="userSpaceOnUse" color-interpolation-filters="sRGB">
<feFlood flood-opacity="0" result="BackgroundImageFix"/>
<feColorMatrix in="SourceAlpha" type="matrix" values="0 0 0 0 0 0 0 0 0 0 0 0 0 0 0 0 0 0 127 0" result="hardAlpha"/>
<feOffset dy="-0.75"/>
<feGaussianBlur stdDeviation="0.1875"/>
<feColorMatrix type="matrix" values="0 0 0 0 0 0 0 0 0 0 0 0 0 0 0 0 0 0 0.1 0"/>
<feBlend mode="normal" in2="BackgroundImageFix" result="effect1_dropShadow_974_1803"/>
<feColorMatrix in="SourceAlpha" type="matrix" values="0 0 0 0 0 0 0 0 0 0 0 0 0 0 0 0 0 0 127 0" result="hardAlpha"/>
<feOffset dy="-0.75"/>
<feGaussianBlur stdDeviation="0.5625"/>
<feColorMatrix type="matrix" values="0 0 0 0 0 0 0 0 0 0 0 0 0 0 0 0 0 0 0.2 0"/>
<feBlend mode="normal" in2="effect1_dropShadow_974_1803" result="effect2_dropShadow_974_1803"/>
<feBlend mode="normal" in="SourceGraphic" in2="effect2_dropShadow_974_1803" result="shape"/>
</filter>
<linearGradient id="paint0_linear_974_1803" x1="17" y1="10.25" x2="20.3514" y2="25.9624" gradientUnits="userSpaceOnUse">
<stop stop-color="#0669BC"/>
<stop offset="1" stop-color="#243A5F"/>
</linearGradient>
<linearGradient id="paint1_linear_974_1803" x1="17" y1="10.25" x2="20.3514" y2="25.9624" gradientUnits="userSpaceOnUse">
<stop stop-color="#0078D4"/>
<stop offset="1" stop-color="#114A8B"/>
</linearGradient>
<linearGradient id="paint2_linear_974_1803" x1="17" y1="8.5625" x2="17.1583" y2="10.9858" gradientUnits="userSpaceOnUse">
<stop stop-color="#28AFEA"/>
<stop offset="1" stop-color="#0078D4"/>
</linearGradient>
<linearGradient id="paint3_linear_974_1803" x1="17" y1="8.5625" x2="17.1583" y2="10.9858" gradientUnits="userSpaceOnUse">
<stop stop-color="#30DAFF"/>
<stop offset="1" stop-color="#0094D4"/>
</linearGradient>
<linearGradient id="paint4_linear_974_1803" x1="16.5938" y1="8" x2="16.5937" y2="9.125" gradientUnits="userSpaceOnUse">
<stop stop-color="#22BCFF"/>
<stop offset="1" stop-color="#0088F0"/>
</linearGradient>
<linearGradient id="paint5_linear_974_1803" x1="16.5938" y1="8" x2="16.5937" y2="9.125" gradientUnits="userSpaceOnUse">
<stop stop-color="#28AFEA"/>
<stop offset="1" stop-color="#3CCBF4"/>
</linearGradient>
<clipPath id="clip0_974_1803">
<rect width="18" height="18" fill="white" transform="translate(8 8)"/>
</clipPath>
<clipPath id="clip1_974_1803">
<rect width="18" height="18" fill="white" transform="translate(8 8)"/>
</clipPath>
</defs>
</svg>
