<svg width="116" height="34" viewBox="0 0 116 34" fill="none" xmlns="http://www.w3.org/2000/svg">
<rect x="1" y="1" width="114" height="32" rx="4" fill="#FDFDFD"/>
<rect x="0.5" y="0.5" width="115" height="33" rx="4.5" stroke="black" stroke-opacity="0.0578"/>
<g clip-path="url(#clip0_974_1810)">
<g clip-path="url(#clip1_974_1810)">
<path d="M8.28125 11C8.28125 10.5858 8.61704 10.25 9.03125 10.25H24.9687C25.383 10.25 25.7188 10.5858 25.7188 11V22.3438C25.7188 24.0524 24.3336 25.4375 22.625 25.4375H11.375C9.66637 25.4375 8.28125 24.0524 8.28125 22.3438V11Z" fill="url(#paint0_linear_974_1810)"/>
<mask id="mask0_974_1810" style="mask-type:alpha" maskUnits="userSpaceOnUse" x="8" y="10" width="18" height="16">
<path d="M8.28125 11C8.28125 10.5858 8.61704 10.25 9.03125 10.25H24.9687C25.383 10.25 25.7188 10.5858 25.7188 11V22.3438C25.7188 24.0524 24.3336 25.4375 22.625 25.4375H11.375C9.66637 25.4375 8.28125 24.0524 8.28125 22.3438V11Z" fill="url(#paint1_linear_974_1810)"/>
</mask>
<g mask="url(#mask0_974_1810)">
<g filter="url(#filter0_dd_974_1810)">
<path d="M12.7812 10.8125V8.5625H21.2187V10.8125" stroke="url(#paint2_linear_974_1810)" stroke-width="1.125" stroke-linecap="round"/>
</g>
</g>
<g filter="url(#filter1_dd_974_1810)">
<path d="M16.719 14.1875H13.344V17.5625H16.719V14.1875Z" fill="#F25022"/>
<path d="M20.6562 14.1875H17.2812V17.5625H20.6562V14.1875Z" fill="#7FBA00"/>
<path d="M20.6562 18.125H17.2812V21.5H20.6562V18.125Z" fill="#FFB900"/>
<path d="M16.7188 18.125H13.3438V21.5H16.7188V18.125Z" fill="#00A4EF"/>
</g>
<path d="M12.7812 10.8125V9.125C12.7812 8.81434 13.0331 8.5625 13.3438 8.5625H20.6563C20.9669 8.5625 21.2188 8.81434 21.2188 9.125V10.8125" stroke="url(#paint3_linear_974_1810)" stroke-width="1.125" stroke-linecap="round"/>
<rect x="13.3438" y="8" width="7.3125" height="1.125" fill="url(#paint4_linear_974_1810)"/>
<mask id="mask1_974_1810" style="mask-type:alpha" maskUnits="userSpaceOnUse" x="13" y="8" width="8" height="2">
<rect x="13.3438" y="8" width="7.3125" height="1.125" fill="url(#paint5_linear_974_1810)"/>
</mask>
<g mask="url(#mask1_974_1810)">
<g filter="url(#filter2_dd_974_1810)">
<rect x="11.7189" y="8.56274" width="1.625" height="2.8125" fill="#C4C4C4"/>
</g>
</g>
</g>
</g>
<path d="M30.2188 12.624L30.499 12.1934C30.6995 12.3232 30.9001 12.4178 31.1006 12.4771C31.3011 12.5363 31.5347 12.5659 31.8013 12.5659C32.0998 12.5659 32.3447 12.4964 32.5361 12.3574C32.7298 12.2161 32.8267 12.0111 32.8267 11.7422C32.8267 11.5029 32.7446 11.3115 32.5806 11.168C32.4188 11.0244 32.1522 10.8854 31.7808 10.751C31.3205 10.5846 30.9787 10.3978 30.7554 10.1904C30.5343 9.98079 30.4238 9.70508 30.4238 9.36328C30.4238 8.96224 30.5674 8.63753 30.8545 8.38916C31.1439 8.14079 31.5233 8.0166 31.9927 8.0166C32.2114 8.0166 32.4256 8.04053 32.6353 8.08838C32.8449 8.13395 33.0614 8.20915 33.2847 8.31396L33.0693 8.77539C32.8825 8.6888 32.7002 8.62614 32.5225 8.5874C32.347 8.54867 32.1567 8.5293 31.9517 8.5293C31.6577 8.5293 31.4253 8.5988 31.2544 8.73779C31.0835 8.87451 30.998 9.06478 30.998 9.30859C30.998 9.52279 31.0767 9.69368 31.2339 9.82129C31.3911 9.94889 31.6532 10.0788 32.02 10.2109C32.5122 10.3887 32.8654 10.5869 33.0796 10.8057C33.2938 11.0244 33.4009 11.3195 33.4009 11.6909C33.4009 12.0874 33.2573 12.4189 32.9702 12.6855C32.6831 12.9499 32.2798 13.082 31.7603 13.082C31.4686 13.082 31.1997 13.0456 30.9536 12.9727C30.7075 12.8997 30.4626 12.7835 30.2188 12.624ZM36.7471 12.7915C36.5853 12.8918 36.4235 12.9647 36.2617 13.0103C36.0999 13.0581 35.9233 13.082 35.7319 13.082C35.2397 13.082 34.8353 12.9294 34.5186 12.624C34.2041 12.3187 34.0469 11.8857 34.0469 11.3252C34.0469 10.7555 34.2052 10.2952 34.522 9.94434C34.841 9.59342 35.2785 9.41797 35.8345 9.41797C36.0145 9.41797 36.1854 9.43962 36.3472 9.48291C36.5112 9.5262 36.6764 9.59684 36.8428 9.69482L36.6069 10.105C36.4771 10.0321 36.3494 9.97852 36.2241 9.94434C36.0988 9.91016 35.9621 9.89307 35.814 9.89307C35.4289 9.89307 35.1338 10.0218 34.9287 10.2793C34.7236 10.5368 34.6211 10.8638 34.6211 11.2603C34.6211 11.6978 34.7282 12.0316 34.9424 12.2617C35.1589 12.4919 35.438 12.6069 35.7798 12.6069C35.8914 12.6069 36.0076 12.5898 36.1284 12.5557C36.2515 12.5192 36.3745 12.4634 36.4976 12.3882L36.7471 12.7915ZM39.9976 13H39.437V12.4531H39.4233C39.3026 12.6628 39.1533 12.82 38.9756 12.9248C38.8001 13.0296 38.5951 13.082 38.3604 13.082C38.0322 13.082 37.7668 12.9863 37.564 12.7949C37.3612 12.6035 37.2598 12.3494 37.2598 12.0327C37.2598 11.7342 37.3623 11.487 37.5674 11.291C37.7725 11.0951 38.063 10.9697 38.439 10.915L39.437 10.7817V10.7031C39.437 10.4092 39.3687 10.2007 39.2319 10.0776C39.0952 9.95231 38.9129 9.88965 38.6851 9.88965C38.5028 9.88965 38.3273 9.92383 38.1587 9.99219C37.9901 10.0605 37.8317 10.1654 37.6836 10.3066L37.3555 9.96826C37.5514 9.77913 37.7599 9.64014 37.981 9.55127C38.202 9.4624 38.4481 9.41797 38.7192 9.41797C39.1431 9.41797 39.4621 9.52734 39.6763 9.74609C39.8905 9.96257 39.9976 10.2884 39.9976 10.7236V13ZM39.437 11.5781V11.2295L38.5928 11.3457C38.3353 11.3822 38.1416 11.4471 38.0117 11.5405C37.8818 11.634 37.8169 11.7809 37.8169 11.9814C37.8169 12.1911 37.8773 12.3517 37.998 12.4634C38.1211 12.5728 38.2703 12.6274 38.4458 12.6274C38.7489 12.6274 38.9893 12.5283 39.167 12.3301C39.347 12.1318 39.437 11.8812 39.437 11.5781ZM42.8071 9.97852C42.7638 9.96484 42.7251 9.95573 42.6909 9.95117C42.6567 9.94434 42.6134 9.94092 42.561 9.94092C42.2762 9.94092 42.0518 10.0628 41.8877 10.3066C41.7236 10.5482 41.6416 10.8512 41.6416 11.2158V13H41.0811V9.5H41.6416V10.1938H41.6553C41.735 9.94775 41.8569 9.7609 42.021 9.6333C42.1851 9.50342 42.3742 9.43848 42.5884 9.43848C42.659 9.43848 42.7183 9.44189 42.7661 9.44873C42.8162 9.45557 42.8607 9.46582 42.8994 9.47949L42.8071 9.97852ZM43.8018 8.6626C43.6878 8.6626 43.5921 8.625 43.5146 8.5498C43.4372 8.47233 43.3984 8.37777 43.3984 8.26611C43.3984 8.15446 43.4372 8.06104 43.5146 7.98584C43.5921 7.90837 43.6878 7.86963 43.8018 7.86963C43.9157 7.86963 44.0114 7.90837 44.0889 7.98584C44.1663 8.06104 44.2051 8.15446 44.2051 8.26611C44.2051 8.37777 44.1663 8.47233 44.0889 8.5498C44.0114 8.625 43.9157 8.6626 43.8018 8.6626ZM44.0752 13H43.5146V9.5H44.0752V13ZM47.6709 12.7915C47.5091 12.8918 47.3473 12.9647 47.1855 13.0103C47.0238 13.0581 46.8472 13.082 46.6558 13.082C46.1636 13.082 45.7591 12.9294 45.4424 12.624C45.1279 12.3187 44.9707 11.8857 44.9707 11.3252C44.9707 10.7555 45.1291 10.2952 45.4458 9.94434C45.7648 9.59342 46.2023 9.41797 46.7583 9.41797C46.9383 9.41797 47.1092 9.43962 47.271 9.48291C47.4351 9.5262 47.6003 9.59684 47.7666 9.69482L47.5308 10.105C47.4009 10.0321 47.2733 9.97852 47.1479 9.94434C47.0226 9.91016 46.8859 9.89307 46.7378 9.89307C46.3527 9.89307 46.0576 10.0218 45.8525 10.2793C45.6475 10.5368 45.5449 10.8638 45.5449 11.2603C45.5449 11.6978 45.652 12.0316 45.8662 12.2617C46.0827 12.4919 46.3618 12.6069 46.7036 12.6069C46.8153 12.6069 46.9315 12.5898 47.0522 12.5557C47.1753 12.5192 47.2983 12.4634 47.4214 12.3882L47.6709 12.7915ZM50.9214 13H50.3608V12.4531H50.3472C50.2264 12.6628 50.0771 12.82 49.8994 12.9248C49.724 13.0296 49.5189 13.082 49.2842 13.082C48.9561 13.082 48.6906 12.9863 48.4878 12.7949C48.285 12.6035 48.1836 12.3494 48.1836 12.0327C48.1836 11.7342 48.2861 11.487 48.4912 11.291C48.6963 11.0951 48.9868 10.9697 49.3628 10.915L50.3608 10.7817V10.7031C50.3608 10.4092 50.2925 10.2007 50.1558 10.0776C50.019 9.95231 49.8368 9.88965 49.6089 9.88965C49.4266 9.88965 49.2511 9.92383 49.0825 9.99219C48.9139 10.0605 48.7555 10.1654 48.6074 10.3066L48.2793 9.96826C48.4753 9.77913 48.6838 9.64014 48.9048 9.55127C49.1258 9.4624 49.3719 9.41797 49.6431 9.41797C50.0669 9.41797 50.3859 9.52734 50.6001 9.74609C50.8143 9.96257 50.9214 10.2884 50.9214 10.7236V13ZM50.3608 11.5781V11.2295L49.5166 11.3457C49.2591 11.3822 49.0654 11.4471 48.9355 11.5405C48.8057 11.634 48.7407 11.7809 48.7407 11.9814C48.7407 12.1911 48.8011 12.3517 48.9219 12.4634C49.0449 12.5728 49.1942 12.6274 49.3696 12.6274C49.6727 12.6274 49.9131 12.5283 50.0908 12.3301C50.2708 12.1318 50.3608 11.8812 50.3608 11.5781ZM56.3389 12.4053C56.209 12.6309 56.0438 12.8006 55.8433 12.9146C55.645 13.0262 55.4092 13.082 55.1357 13.082C54.696 13.082 54.3439 12.9259 54.0796 12.6138C53.8175 12.2993 53.6865 11.8721 53.6865 11.332C53.6865 10.7533 53.8324 10.2896 54.124 9.94092C54.4157 9.59229 54.8042 9.41797 55.2896 9.41797C55.5311 9.41797 55.7384 9.46582 55.9116 9.56152C56.0871 9.65495 56.2295 9.79622 56.3389 9.98535H56.3525V7.81836H56.9131V13H56.3525V12.4053H56.3389ZM54.2607 11.3047C54.2607 11.708 54.3542 12.027 54.541 12.2617C54.7301 12.4941 54.9831 12.6104 55.2998 12.6104C55.6143 12.6104 55.8683 12.4976 56.062 12.272C56.2557 12.0464 56.3525 11.7616 56.3525 11.4175V10.9014C56.3525 10.6188 56.258 10.3796 56.0688 10.1836C55.882 9.98763 55.6462 9.88965 55.3613 9.88965C55.0195 9.88965 54.7507 10.015 54.5547 10.2656C54.3587 10.5163 54.2607 10.8626 54.2607 11.3047ZM60.5259 13H59.9653V12.4531H59.9517C59.8309 12.6628 59.6816 12.82 59.5039 12.9248C59.3285 13.0296 59.1234 13.082 58.8887 13.082C58.5605 13.082 58.2951 12.9863 58.0923 12.7949C57.8895 12.6035 57.7881 12.3494 57.7881 12.0327C57.7881 11.7342 57.8906 11.487 58.0957 11.291C58.3008 11.0951 58.5913 10.9697 58.9673 10.915L59.9653 10.7817V10.7031C59.9653 10.4092 59.897 10.2007 59.7603 10.0776C59.6235 9.95231 59.4412 9.88965 59.2134 9.88965C59.0311 9.88965 58.8556 9.92383 58.687 9.99219C58.5184 10.0605 58.36 10.1654 58.2119 10.3066L57.8838 9.96826C58.0798 9.77913 58.2882 9.64014 58.5093 9.55127C58.7303 9.4624 58.9764 9.41797 59.2476 9.41797C59.6714 9.41797 59.9904 9.52734 60.2046 9.74609C60.4188 9.96257 60.5259 10.2884 60.5259 10.7236V13ZM59.9653 11.5781V11.2295L59.1211 11.3457C58.8636 11.3822 58.6699 11.4471 58.54 11.5405C58.4102 11.634 58.3452 11.7809 58.3452 11.9814C58.3452 12.1911 58.4056 12.3517 58.5264 12.4634C58.6494 12.5728 58.7987 12.6274 58.9741 12.6274C59.2772 12.6274 59.5176 12.5283 59.6953 12.3301C59.8753 12.1318 59.9653 11.8812 59.9653 11.5781Z" fill="black" fill-opacity="0.6063"/>
<path d="M39.2275 25H37.96V20.0854C37.96 19.8634 37.9653 19.6217 37.9761 19.3604C37.9904 19.0954 38.0083 18.8143 38.0298 18.5171H37.9976C37.9546 18.7212 37.9134 18.8966 37.874 19.0435C37.8382 19.1867 37.8024 19.3013 37.7666 19.3872L35.5054 25H34.6245L32.3525 19.4355C32.3239 19.3568 32.2881 19.2404 32.2451 19.0864C32.2057 18.9325 32.1628 18.7427 32.1162 18.5171H32.084C32.1055 18.7749 32.1198 19.0488 32.127 19.3389C32.1341 19.6253 32.1377 19.9279 32.1377 20.2466V25H30.9561V17.2979H32.7607L34.7642 22.3037C34.8429 22.4935 34.9074 22.6689 34.9575 22.8301C35.0112 22.9876 35.0524 23.1344 35.0811 23.2705H35.1133C35.1777 23.0664 35.2386 22.882 35.2959 22.7173C35.3532 22.5526 35.4069 22.4093 35.457 22.2876L37.4873 17.2979H39.2275V25ZM41.6177 18.4365C41.3885 18.4365 41.1987 18.3631 41.0483 18.2163C40.8979 18.0695 40.8228 17.8887 40.8228 17.6738C40.8228 17.4518 40.8979 17.2692 41.0483 17.126C41.1987 16.9827 41.3885 16.9111 41.6177 16.9111C41.8504 16.9111 42.042 16.9827 42.1924 17.126C42.3428 17.2692 42.418 17.4518 42.418 17.6738C42.418 17.8923 42.3428 18.0749 42.1924 18.2217C42.042 18.3649 41.8504 18.4365 41.6177 18.4365ZM42.2354 25H40.9839V19.5H42.2354V25ZM47.9824 24.6616C47.7103 24.8263 47.4399 24.9445 47.1714 25.0161C46.9028 25.0913 46.611 25.1289 46.2959 25.1289C45.4508 25.1289 44.7741 24.8818 44.2656 24.3877C43.7607 23.8936 43.5083 23.2222 43.5083 22.3735C43.5083 21.4604 43.7697 20.7318 44.2925 20.1875C44.8188 19.6432 45.5278 19.3711 46.4194 19.3711C46.731 19.3711 47.0138 19.4051 47.2681 19.4731C47.5259 19.5376 47.7873 19.645 48.0522 19.7954L47.5635 20.6655C47.3773 20.5617 47.1947 20.4865 47.0156 20.4399C46.8366 20.3898 46.6414 20.3647 46.4302 20.3647C45.9038 20.3647 45.4974 20.5384 45.2109 20.8857C44.9245 21.2331 44.7812 21.6932 44.7812 22.2661C44.7812 22.8677 44.9352 23.3296 45.2432 23.6519C45.5547 23.9741 45.945 24.1353 46.4141 24.1353C46.5573 24.1353 46.722 24.1102 46.9082 24.0601C47.0944 24.0063 47.2824 23.9222 47.4722 23.8076L47.9824 24.6616ZM52.1021 20.5474C52.034 20.5295 51.9678 20.5169 51.9033 20.5098C51.8424 20.499 51.7708 20.4937 51.6885 20.4937C51.2409 20.4937 50.8971 20.6584 50.6572 20.9878C50.4173 21.3172 50.2974 21.7469 50.2974 22.2769V25H49.0459V19.5H50.2974V20.5581H50.3188C50.4478 20.1785 50.6375 19.8921 50.8882 19.6987C51.1388 19.5018 51.4342 19.4033 51.7744 19.4033C51.8711 19.4033 51.957 19.4087 52.0322 19.4194C52.111 19.4302 52.1862 19.4463 52.2578 19.4678L52.1021 20.5474ZM55.5557 25.1289C54.6963 25.1289 54.0142 24.8729 53.5093 24.3608C53.008 23.8452 52.7573 23.1559 52.7573 22.293C52.7609 21.3799 53.0223 20.6655 53.5415 20.1499C54.0607 19.6307 54.7679 19.3711 55.6631 19.3711C56.526 19.3675 57.1992 19.6217 57.6826 20.1338C58.1696 20.6423 58.4131 21.3315 58.4131 22.2017C58.4131 23.0968 58.1553 23.8094 57.6396 24.3394C57.1276 24.8657 56.4329 25.1289 55.5557 25.1289ZM55.6147 24.1353C56.1125 24.1353 56.4902 23.9723 56.748 23.6465C57.0094 23.3206 57.1401 22.8498 57.1401 22.2339C57.1401 21.6252 57.0094 21.1615 56.748 20.8428C56.4867 20.5241 56.1071 20.3647 55.6094 20.3647C55.1188 20.3647 54.7321 20.533 54.4492 20.8696C54.1699 21.2062 54.0303 21.6717 54.0303 22.2661C54.0303 22.8641 54.1699 23.326 54.4492 23.6519C54.7285 23.9741 55.117 24.1353 55.6147 24.1353ZM59.1543 24.5596L59.6968 23.6787C59.9116 23.8291 60.139 23.9508 60.3789 24.0439C60.6224 24.1335 60.8856 24.1782 61.1685 24.1782C61.4764 24.1782 61.7145 24.1227 61.8828 24.0117C62.0547 23.8971 62.1406 23.7271 62.1406 23.5015C62.1406 23.3224 62.069 23.1738 61.9258 23.0557C61.7861 22.9339 61.5462 22.8337 61.2061 22.7549C60.5186 22.5938 60.0352 22.3807 59.7559 22.1157C59.4801 21.8507 59.3423 21.5016 59.3423 21.0684C59.3423 20.5706 59.5356 20.1642 59.9224 19.8491C60.3091 19.5304 60.8158 19.3711 61.4424 19.3711C61.7539 19.3711 62.0511 19.4123 62.334 19.4946C62.6169 19.5734 62.8926 19.7005 63.1611 19.876L62.6562 20.7354C62.4199 20.585 62.2033 20.4775 62.0063 20.4131C61.8094 20.3486 61.6071 20.3164 61.3994 20.3164C61.1058 20.3164 60.8766 20.3719 60.7119 20.4829C60.5508 20.5903 60.4702 20.7407 60.4702 20.9341C60.4702 21.1382 60.5526 21.2904 60.7173 21.3906C60.8856 21.4873 61.1667 21.5822 61.5605 21.6753C62.1549 21.8185 62.59 22.0262 62.8657 22.2983C63.1414 22.5669 63.2793 22.9268 63.2793 23.3779C63.2793 23.9115 63.0841 24.3376 62.6938 24.6562C62.3071 24.9714 61.7826 25.1289 61.1201 25.1289C60.762 25.1289 60.4183 25.0824 60.0889 24.9893C59.763 24.8926 59.4515 24.7493 59.1543 24.5596ZM66.8779 25.1289C66.0186 25.1289 65.3364 24.8729 64.8315 24.3608C64.3302 23.8452 64.0796 23.1559 64.0796 22.293C64.0832 21.3799 64.3446 20.6655 64.8638 20.1499C65.383 19.6307 66.0902 19.3711 66.9854 19.3711C67.8483 19.3675 68.5215 19.6217 69.0049 20.1338C69.4919 20.6423 69.7354 21.3315 69.7354 22.2017C69.7354 23.0968 69.4775 23.8094 68.9619 24.3394C68.4499 24.8657 67.7552 25.1289 66.8779 25.1289ZM66.937 24.1353C67.4347 24.1353 67.8125 23.9723 68.0703 23.6465C68.3317 23.3206 68.4624 22.8498 68.4624 22.2339C68.4624 21.6252 68.3317 21.1615 68.0703 20.8428C67.8089 20.5241 67.4294 20.3647 66.9316 20.3647C66.4411 20.3647 66.0544 20.533 65.7715 20.8696C65.4922 21.2062 65.3525 21.6717 65.3525 22.2661C65.3525 22.8641 65.4922 23.326 65.7715 23.6519C66.0508 23.9741 66.4393 24.1353 66.937 24.1353ZM73.9839 17.8403C73.8836 17.8009 73.7923 17.7741 73.71 17.7598C73.6276 17.7419 73.5381 17.7329 73.4414 17.7329C73.1764 17.7329 72.9759 17.8099 72.8398 17.9639C72.7074 18.1143 72.6411 18.3327 72.6411 18.6191V19.5H73.9141V20.4775H72.6411V25H71.395V20.4775H70.4604V19.5H71.395V18.5547C71.395 17.9961 71.5741 17.5539 71.9321 17.228C72.2938 16.8986 72.7718 16.7339 73.3662 16.7339C73.5524 16.7339 73.7135 16.7464 73.8496 16.7715C73.9857 16.7965 74.1271 16.8324 74.2739 16.8789L73.9839 17.8403ZM77.7974 24.9248C77.6362 24.9928 77.4679 25.043 77.2925 25.0752C77.117 25.1074 76.929 25.1235 76.7285 25.1235C76.2201 25.1235 75.828 24.9893 75.5522 24.7207C75.2801 24.4486 75.144 24.0439 75.144 23.5068V20.4775H74.2202V19.5H75.144V18.1626L76.3901 17.7866V19.5H77.7061V20.4775H76.3901V23.4048C76.3901 23.6733 76.4385 23.8667 76.5352 23.9849C76.6354 24.103 76.7894 24.1621 76.9971 24.1621C77.0973 24.1621 77.1922 24.1514 77.2817 24.1299C77.3748 24.1048 77.4572 24.0744 77.5288 24.0386L77.7974 24.9248ZM81.2939 24.4468L81.8633 23.4639C82.2106 23.6787 82.5347 23.8309 82.8354 23.9204C83.1362 24.0063 83.4728 24.0493 83.8452 24.0493C84.2892 24.0493 84.6383 23.9544 84.8926 23.7646C85.1504 23.5713 85.2793 23.2956 85.2793 22.9375C85.2793 22.6117 85.1719 22.3556 84.957 22.1694C84.7458 21.9797 84.3859 21.806 83.8774 21.6484C83.0933 21.4157 82.5168 21.1274 82.1479 20.7837C81.7791 20.4399 81.5947 19.9744 81.5947 19.3872C81.5947 18.7498 81.8328 18.2217 82.3091 17.8027C82.7853 17.3802 83.4316 17.1689 84.248 17.1689C84.6061 17.1689 84.9588 17.2083 85.3062 17.2871C85.6535 17.3659 85.9972 17.4876 86.3374 17.6523L85.8594 18.6729C85.5622 18.5189 85.2775 18.4097 85.0054 18.3452C84.7368 18.2808 84.4629 18.2485 84.1836 18.2485C83.7754 18.2485 83.4531 18.3381 83.2168 18.5171C82.984 18.6961 82.8677 18.9486 82.8677 19.2744C82.8677 19.5645 82.9751 19.7936 83.1899 19.9619C83.4048 20.1266 83.7736 20.2896 84.2964 20.4507C85.0985 20.6906 85.675 20.9896 86.0259 21.3477C86.3804 21.7057 86.5576 22.1981 86.5576 22.8247C86.5576 23.4979 86.3177 24.0511 85.8379 24.4844C85.3581 24.9141 84.6742 25.1289 83.7861 25.1289C83.3421 25.1289 82.9089 25.0734 82.4863 24.9624C82.0638 24.8478 81.6663 24.6759 81.2939 24.4468ZM90.4409 24.9248C90.2798 24.9928 90.1115 25.043 89.936 25.0752C89.7606 25.1074 89.5726 25.1235 89.3721 25.1235C88.8636 25.1235 88.4715 24.9893 88.1958 24.7207C87.9237 24.4486 87.7876 24.0439 87.7876 23.5068V20.4775H86.8638V19.5H87.7876V18.1626L89.0337 17.7866V19.5H90.3496V20.4775H89.0337V23.4048C89.0337 23.6733 89.082 23.8667 89.1787 23.9849C89.279 24.103 89.4329 24.1621 89.6406 24.1621C89.7409 24.1621 89.8358 24.1514 89.9253 24.1299C90.0184 24.1048 90.1007 24.0744 90.1724 24.0386L90.4409 24.9248ZM93.8623 25.1289C93.0029 25.1289 92.3208 24.8729 91.8159 24.3608C91.3146 23.8452 91.064 23.1559 91.064 22.293C91.0675 21.3799 91.3289 20.6655 91.8481 20.1499C92.3674 19.6307 93.0745 19.3711 93.9697 19.3711C94.8327 19.3675 95.5059 19.6217 95.9893 20.1338C96.4762 20.6423 96.7197 21.3315 96.7197 22.2017C96.7197 23.0968 96.4619 23.8094 95.9463 24.3394C95.4342 24.8657 94.7396 25.1289 93.8623 25.1289ZM93.9214 24.1353C94.4191 24.1353 94.7969 23.9723 95.0547 23.6465C95.3161 23.3206 95.4468 22.8498 95.4468 22.2339C95.4468 21.6252 95.3161 21.1615 95.0547 20.8428C94.7933 20.5241 94.4137 20.3647 93.916 20.3647C93.4255 20.3647 93.0387 20.533 92.7559 20.8696C92.4766 21.2062 92.3369 21.6717 92.3369 22.2661C92.3369 22.8641 92.4766 23.326 92.7559 23.6519C93.0352 23.9741 93.4237 24.1353 93.9214 24.1353ZM101.054 20.5474C100.986 20.5295 100.92 20.5169 100.855 20.5098C100.795 20.499 100.723 20.4937 100.641 20.4937C100.193 20.4937 99.8493 20.6584 99.6094 20.9878C99.3695 21.3172 99.2495 21.7469 99.2495 22.2769V25H97.998V19.5H99.2495V20.5581H99.271C99.3999 20.1785 99.5897 19.8921 99.8403 19.6987C100.091 19.5018 100.386 19.4033 100.727 19.4033C100.823 19.4033 100.909 19.4087 100.984 19.4194C101.063 19.4302 101.138 19.4463 101.21 19.4678L101.054 20.5474ZM106.721 22.5776H102.966C102.988 23.0968 103.138 23.4925 103.417 23.7646C103.697 24.0332 104.087 24.1675 104.588 24.1675C104.792 24.1675 105.025 24.1263 105.287 24.0439C105.548 23.9616 105.806 23.8291 106.06 23.6465L106.624 24.4253C106.284 24.6724 105.938 24.8514 105.587 24.9624C105.236 25.0734 104.85 25.1289 104.427 25.1289C103.571 25.1289 102.905 24.8836 102.429 24.3931C101.953 23.8989 101.713 23.2096 101.709 22.3252C101.709 21.4443 101.955 20.7318 102.445 20.1875C102.939 19.6432 103.571 19.3711 104.341 19.3711C105.079 19.3711 105.659 19.6038 106.082 20.0693C106.508 20.5312 106.721 21.1865 106.721 22.0352V22.5776ZM105.512 21.7129C105.512 21.2402 105.408 20.8857 105.201 20.6494C104.997 20.4095 104.707 20.2896 104.331 20.2896C103.976 20.2896 103.674 20.4185 103.423 20.6763C103.176 20.9305 103.024 21.276 102.966 21.7129H105.512Z" fill="black" fill-opacity="0.8956"/>
<defs>
<filter id="filter0_dd_974_1810" x="11.0938" y="7.25" width="11.8125" height="5.625" filterUnits="userSpaceOnUse" color-interpolation-filters="sRGB">
<feFlood flood-opacity="0" result="BackgroundImageFix"/>
<feColorMatrix in="SourceAlpha" type="matrix" values="0 0 0 0 0 0 0 0 0 0 0 0 0 0 0 0 0 0 127 0" result="hardAlpha"/>
<feOffset dy="0.1875"/>
<feGaussianBlur stdDeviation="0.1875"/>
<feColorMatrix type="matrix" values="0 0 0 0 0 0 0 0 0 0 0 0 0 0 0 0 0 0 0.1 0"/>
<feBlend mode="normal" in2="BackgroundImageFix" result="effect1_dropShadow_974_1810"/>
<feColorMatrix in="SourceAlpha" type="matrix" values="0 0 0 0 0 0 0 0 0 0 0 0 0 0 0 0 0 0 127 0" result="hardAlpha"/>
<feOffset dy="0.375"/>
<feGaussianBlur stdDeviation="0.5625"/>
<feColorMatrix type="matrix" values="0 0 0 0 0 0 0 0 0 0 0 0 0 0 0 0 0 0 0.2 0"/>
<feBlend mode="normal" in2="effect1_dropShadow_974_1810" result="effect2_dropShadow_974_1810"/>
<feBlend mode="normal" in="SourceGraphic" in2="effect2_dropShadow_974_1810" result="shape"/>
</filter>
<filter id="filter1_dd_974_1810" x="12.2188" y="13.4375" width="9.5625" height="9.5625" filterUnits="userSpaceOnUse" color-interpolation-filters="sRGB">
<feFlood flood-opacity="0" result="BackgroundImageFix"/>
<feColorMatrix in="SourceAlpha" type="matrix" values="0 0 0 0 0 0 0 0 0 0 0 0 0 0 0 0 0 0 127 0" result="hardAlpha"/>
<feOffset dy="0.1875"/>
<feGaussianBlur stdDeviation="0.1875"/>
<feColorMatrix type="matrix" values="0 0 0 0 0 0 0 0 0 0 0 0 0 0 0 0 0 0 0.1 0"/>
<feBlend mode="normal" in2="BackgroundImageFix" result="effect1_dropShadow_974_1810"/>
<feColorMatrix in="SourceAlpha" type="matrix" values="0 0 0 0 0 0 0 0 0 0 0 0 0 0 0 0 0 0 127 0" result="hardAlpha"/>
<feOffset dy="0.375"/>
<feGaussianBlur stdDeviation="0.5625"/>
<feColorMatrix type="matrix" values="0 0 0 0 0 0 0 0 0 0 0 0 0 0 0 0 0 0 0.2 0"/>
<feBlend mode="normal" in2="effect1_dropShadow_974_1810" result="effect2_dropShadow_974_1810"/>
<feBlend mode="normal" in="SourceGraphic" in2="effect2_dropShadow_974_1810" result="shape"/>
</filter>
<filter id="filter2_dd_974_1810" x="10.5939" y="6.6875" width="12.8124" height="5.06274" filterUnits="userSpaceOnUse" color-interpolation-filters="sRGB">
<feFlood flood-opacity="0" result="BackgroundImageFix"/>
<feColorMatrix in="SourceAlpha" type="matrix" values="0 0 0 0 0 0 0 0 0 0 0 0 0 0 0 0 0 0 127 0" result="hardAlpha"/>
<feOffset dy="-0.75"/>
<feGaussianBlur stdDeviation="0.1875"/>
<feColorMatrix type="matrix" values="0 0 0 0 0 0 0 0 0 0 0 0 0 0 0 0 0 0 0.1 0"/>
<feBlend mode="normal" in2="BackgroundImageFix" result="effect1_dropShadow_974_1810"/>
<feColorMatrix in="SourceAlpha" type="matrix" values="0 0 0 0 0 0 0 0 0 0 0 0 0 0 0 0 0 0 127 0" result="hardAlpha"/>
<feOffset dy="-0.75"/>
<feGaussianBlur stdDeviation="0.5625"/>
<feColorMatrix type="matrix" values="0 0 0 0 0 0 0 0 0 0 0 0 0 0 0 0 0 0 0.2 0"/>
<feBlend mode="normal" in2="effect1_dropShadow_974_1810" result="effect2_dropShadow_974_1810"/>
<feBlend mode="normal" in="SourceGraphic" in2="effect2_dropShadow_974_1810" result="shape"/>
</filter>
<linearGradient id="paint0_linear_974_1810" x1="17" y1="10.25" x2="20.3514" y2="25.9624" gradientUnits="userSpaceOnUse">
<stop stop-color="#0669BC"/>
<stop offset="1" stop-color="#243A5F"/>
</linearGradient>
<linearGradient id="paint1_linear_974_1810" x1="17" y1="10.25" x2="20.3514" y2="25.9624" gradientUnits="userSpaceOnUse">
<stop stop-color="#0078D4"/>
<stop offset="1" stop-color="#114A8B"/>
</linearGradient>
<linearGradient id="paint2_linear_974_1810" x1="17" y1="8.5625" x2="17.1583" y2="10.9858" gradientUnits="userSpaceOnUse">
<stop stop-color="#28AFEA"/>
<stop offset="1" stop-color="#0078D4"/>
</linearGradient>
<linearGradient id="paint3_linear_974_1810" x1="17" y1="8.5625" x2="17.1583" y2="10.9858" gradientUnits="userSpaceOnUse">
<stop stop-color="#30DAFF"/>
<stop offset="1" stop-color="#0094D4"/>
</linearGradient>
<linearGradient id="paint4_linear_974_1810" x1="16.5938" y1="8" x2="16.5937" y2="9.125" gradientUnits="userSpaceOnUse">
<stop stop-color="#22BCFF"/>
<stop offset="1" stop-color="#0088F0"/>
</linearGradient>
<linearGradient id="paint5_linear_974_1810" x1="16.5938" y1="8" x2="16.5937" y2="9.125" gradientUnits="userSpaceOnUse">
<stop stop-color="#28AFEA"/>
<stop offset="1" stop-color="#3CCBF4"/>
</linearGradient>
<clipPath id="clip0_974_1810">
<rect width="18" height="18" fill="white" transform="translate(8 8)"/>
</clipPath>
<clipPath id="clip1_974_1810">
<rect width="18" height="18" fill="white" transform="translate(8 8)"/>
</clipPath>
</defs>
</svg>
