<svg width="116" height="37" viewBox="0 0 116 37" fill="none" xmlns="http://www.w3.org/2000/svg">
<rect x="1" y="1" width="114" height="35" rx="4" fill="#202020"/>
<rect x="0.5" y="0.5" width="115" height="36" rx="4.5" stroke="black" stroke-opacity="0.1"/>
<g clip-path="url(#clip0_976_1819)">
<g clip-path="url(#clip1_976_1819)">
<path d="M8.28125 12.5C8.28125 12.0858 8.61704 11.75 9.03125 11.75H24.9687C25.383 11.75 25.7188 12.0858 25.7188 12.5V23.8438C25.7188 25.5524 24.3336 26.9375 22.625 26.9375H11.375C9.66637 26.9375 8.28125 25.5524 8.28125 23.8438V12.5Z" fill="url(#paint0_linear_976_1819)"/>
<mask id="mask0_976_1819" style="mask-type:alpha" maskUnits="userSpaceOnUse" x="8" y="11" width="18" height="16">
<path d="M8.28125 12.5C8.28125 12.0858 8.61704 11.75 9.03125 11.75H24.9687C25.383 11.75 25.7188 12.0858 25.7188 12.5V23.8438C25.7188 25.5524 24.3336 26.9375 22.625 26.9375H11.375C9.66637 26.9375 8.28125 25.5524 8.28125 23.8438V12.5Z" fill="url(#paint1_linear_976_1819)"/>
</mask>
<g mask="url(#mask0_976_1819)">
<g filter="url(#filter0_dd_976_1819)">
<path d="M12.7812 12.3125V10.0625H21.2187V12.3125" stroke="url(#paint2_linear_976_1819)" stroke-width="1.125" stroke-linecap="round"/>
</g>
</g>
<g filter="url(#filter1_dd_976_1819)">
<path d="M16.719 15.6875H13.344V19.0625H16.719V15.6875Z" fill="#F25022"/>
<path d="M20.6562 15.6875H17.2812V19.0625H20.6562V15.6875Z" fill="#7FBA00"/>
<path d="M20.6562 19.625H17.2812V23H20.6562V19.625Z" fill="#FFB900"/>
<path d="M16.7188 19.625H13.3438V23H16.7188V19.625Z" fill="#00A4EF"/>
</g>
<path d="M12.7812 12.3125V10.625C12.7812 10.3143 13.0331 10.0625 13.3438 10.0625H20.6563C20.9669 10.0625 21.2188 10.3143 21.2188 10.625V12.3125" stroke="url(#paint3_linear_976_1819)" stroke-width="1.125" stroke-linecap="round"/>
<rect x="13.3438" y="9.5" width="7.3125" height="1.125" fill="url(#paint4_linear_976_1819)"/>
<mask id="mask1_976_1819" style="mask-type:alpha" maskUnits="userSpaceOnUse" x="13" y="9" width="8" height="2">
<rect x="13.3438" y="9.5" width="7.3125" height="1.125" fill="url(#paint5_linear_976_1819)"/>
</mask>
<g mask="url(#mask1_976_1819)">
<g filter="url(#filter2_dd_976_1819)">
<rect x="11.7189" y="10.0627" width="1.625" height="2.8125" fill="#C4C4C4"/>
</g>
</g>
</g>
</g>
<path d="M33.6777 10.2129C33.6777 9.99414 33.5923 9.83008 33.4214 9.7207C33.2482 9.61133 32.9907 9.55664 32.6489 9.55664C32.3071 9.55664 32.0508 9.61133 31.8799 9.7207C31.709 9.83008 31.6235 9.99414 31.6235 10.2129V11.0093C31.6235 11.2759 31.709 11.4764 31.8799 11.6108C32.0531 11.743 32.3105 11.8091 32.6523 11.8091H32.8608C32.8608 11.6268 32.9281 11.4901 33.0625 11.3989C33.1969 11.3078 33.3975 11.2622 33.6641 11.2622C33.8669 11.2622 34.0184 11.2998 34.1187 11.375C34.2212 11.4479 34.2725 11.5573 34.2725 11.7031C34.2725 11.8535 34.2212 11.9652 34.1187 12.0381C34.0184 12.1133 33.8669 12.1509 33.6641 12.1509H33.459V12.9678C33.459 13.3118 33.3849 13.5705 33.2368 13.7437C33.0864 13.9146 32.862 14 32.5635 14C32.2513 14 32.0166 13.9499 31.8594 13.8496C31.7021 13.7516 31.6235 13.6024 31.6235 13.4019V12.9712C31.6235 12.8573 31.5392 12.8003 31.3706 12.8003C31.3706 12.6864 31.4082 12.6009 31.4834 12.5439C31.5609 12.487 31.6771 12.4585 31.832 12.4585C31.9619 12.4585 32.0599 12.5018 32.126 12.5884C32.1898 12.6727 32.2217 12.8003 32.2217 12.9712V13.4019C32.2217 13.4862 32.2502 13.55 32.3071 13.5933C32.3641 13.6343 32.4495 13.6548 32.5635 13.6548C32.6637 13.6548 32.7389 13.5978 32.7891 13.4839C32.8369 13.37 32.8608 13.1991 32.8608 12.9712V12.1509H32.6523C32.11 12.1509 31.7033 12.0563 31.4321 11.8672C31.161 11.6758 31.0254 11.3898 31.0254 11.0093V10.2129C31.0254 9.88021 31.161 9.6307 31.4321 9.46436C31.7033 9.29801 32.1089 9.21484 32.6489 9.21484C33.189 9.21484 33.5946 9.29801 33.8657 9.46436C33.9865 9.53955 34.0799 9.6307 34.146 9.73779L35.2979 9.21484L36.9214 9.94971V14H36.3232V10.3359L34.9902 9.73096L34.2622 10.0591C34.269 10.1069 34.2725 10.1582 34.2725 10.2129C34.2725 10.5729 34.0355 10.7529 33.5615 10.7529C33.2402 10.7529 33.0796 10.6675 33.0796 10.4966C33.0796 10.3257 33.1924 10.2402 33.418 10.2402C33.418 10.3519 33.4613 10.4077 33.5479 10.4077C33.6344 10.4077 33.6777 10.3428 33.6777 10.2129ZM33.6641 11.6074C33.5273 11.6074 33.459 11.6746 33.459 11.8091H33.6641C33.8418 11.8091 33.9307 11.7749 33.9307 11.7065C33.9307 11.6405 33.8418 11.6074 33.6641 11.6074ZM44.8716 15.0254C44.8716 15.3672 44.7702 15.6235 44.5674 15.7944C44.3646 15.9653 44.0592 16.0508 43.6514 16.0508C43.2686 16.0508 42.9302 16.0075 42.6362 15.9209C42.3423 15.8366 42.0939 15.709 41.8911 15.5381C41.62 15.3102 41.3431 15.1393 41.0605 15.0254C40.778 14.9115 40.4897 14.8545 40.1958 14.8545C39.9588 14.8545 39.7389 14.8796 39.5361 14.9297C39.3311 14.9821 39.1442 15.0596 38.9756 15.1621V14.9912C38.9756 14.8773 39.0177 14.7941 39.1021 14.7417C39.1864 14.6916 39.3311 14.6403 39.5361 14.5879C39.7389 14.5378 39.9588 14.5127 40.1958 14.5127C40.6561 14.5127 41.0776 14.5765 41.4604 14.7041C41.8433 14.8317 42.1873 15.0243 42.4927 15.2817C42.6613 15.4253 42.8424 15.5324 43.0361 15.603C43.2298 15.6737 43.4349 15.709 43.6514 15.709C43.8587 15.709 44.0148 15.652 44.1196 15.5381C44.2244 15.4242 44.2769 15.2533 44.2769 15.0254C44.2769 14.9115 44.2404 14.826 44.1675 14.769C44.0968 14.7121 43.9909 14.6836 43.8496 14.6836C43.8496 14.5697 43.8849 14.4842 43.9556 14.4272C44.0262 14.3703 44.1333 14.3418 44.2769 14.3418C44.4751 14.3418 44.6232 14.3988 44.7212 14.5127C44.8215 14.6266 44.8716 14.7975 44.8716 15.0254ZM39.5737 13.5181L39.7993 13.2959C39.8654 13.2275 39.9155 13.1603 39.9497 13.0942C39.9839 13.0259 40.001 12.9575 40.001 12.8892C40.001 12.8322 39.9793 12.79 39.936 12.7627C39.8927 12.7331 39.8289 12.7183 39.7446 12.7183H39.5737V13.5181ZM44.8716 14H44.2734V10.4727L42.9917 9.7583L42.2227 10.1855V14H41.6245V10.0522L41.2212 9.69336L40.6025 10.3018L39.9805 9.69336L39.5737 10.0488V12.3765H39.7446C39.9429 12.3765 40.0921 12.4186 40.1924 12.5029C40.2926 12.5895 40.3428 12.7183 40.3428 12.8892C40.3428 13.0054 40.32 13.1159 40.2744 13.2207C40.2288 13.3255 40.1605 13.4224 40.0693 13.5112L39.5737 14H38.9756V10.124L39.9907 9.21484L40.6025 9.81299L41.2109 9.21484L41.9902 9.92578L43.248 9.21484L44.8716 10.1309V14ZM47.5239 13.5181L47.7495 13.2959C47.8156 13.2275 47.8657 13.1603 47.8999 13.0942C47.9341 13.0259 47.9512 12.9575 47.9512 12.8892C47.9512 12.8322 47.9295 12.79 47.8862 12.7627C47.8429 12.7331 47.7791 12.7183 47.6948 12.7183H47.5239V13.5181ZM50.1729 14H49.5747V10.0522L49.1714 9.69336L48.5527 10.3018L47.9307 9.69336L47.5239 10.0488V12.3765H47.6948C47.8931 12.3765 48.0423 12.4186 48.1426 12.5029C48.2428 12.5895 48.293 12.7183 48.293 12.8892C48.293 13.0054 48.2702 13.1159 48.2246 13.2207C48.179 13.3255 48.1107 13.4224 48.0195 13.5112L47.5239 14H46.9258V10.124L47.9409 9.21484L48.5527 9.81299L49.1611 9.21484L50.1729 10.1377V14ZM47.4385 8.00488C47.4385 7.70866 47.5194 7.48649 47.6812 7.33838C47.8452 7.19027 48.0902 7.11621 48.416 7.11621C48.6074 7.11621 48.8171 7.16634 49.0449 7.2666C49.2705 7.36686 49.5166 7.51497 49.7832 7.71094V6.99316H50.1729V8.36035H48.0229C47.8293 8.36035 47.6834 8.33073 47.5854 8.27148C47.4875 8.21224 47.4385 8.12337 47.4385 8.00488ZM48.416 7.65283C48.2861 7.65283 48.1882 7.68132 48.1221 7.73828C48.056 7.7998 48.0229 7.88867 48.0229 8.00488H49.5474C49.3924 7.88867 49.2204 7.7998 49.0312 7.73828C48.8444 7.68132 48.6393 7.65283 48.416 7.65283Z" fill="white" fill-opacity="0.786"/>
<path d="M39.2275 28H37.96V23.0854C37.96 22.8634 37.9653 22.6217 37.9761 22.3604C37.9904 22.0954 38.0083 21.8143 38.0298 21.5171H37.9976C37.9546 21.7212 37.9134 21.8966 37.874 22.0435C37.8382 22.1867 37.8024 22.3013 37.7666 22.3872L35.5054 28H34.6245L32.3525 22.4355C32.3239 22.3568 32.2881 22.2404 32.2451 22.0864C32.2057 21.9325 32.1628 21.7427 32.1162 21.5171H32.084C32.1055 21.7749 32.1198 22.0488 32.127 22.3389C32.1341 22.6253 32.1377 22.9279 32.1377 23.2466V28H30.9561V20.2979H32.7607L34.7642 25.3037C34.8429 25.4935 34.9074 25.6689 34.9575 25.8301C35.0112 25.9876 35.0524 26.1344 35.0811 26.2705H35.1133C35.1777 26.0664 35.2386 25.882 35.2959 25.7173C35.3532 25.5526 35.4069 25.4093 35.457 25.2876L37.4873 20.2979H39.2275V28ZM41.6177 21.4365C41.3885 21.4365 41.1987 21.3631 41.0483 21.2163C40.8979 21.0695 40.8228 20.8887 40.8228 20.6738C40.8228 20.4518 40.8979 20.2692 41.0483 20.126C41.1987 19.9827 41.3885 19.9111 41.6177 19.9111C41.8504 19.9111 42.042 19.9827 42.1924 20.126C42.3428 20.2692 42.418 20.4518 42.418 20.6738C42.418 20.8923 42.3428 21.0749 42.1924 21.2217C42.042 21.3649 41.8504 21.4365 41.6177 21.4365ZM42.2354 28H40.9839V22.5H42.2354V28ZM47.9824 27.6616C47.7103 27.8263 47.4399 27.9445 47.1714 28.0161C46.9028 28.0913 46.611 28.1289 46.2959 28.1289C45.4508 28.1289 44.7741 27.8818 44.2656 27.3877C43.7607 26.8936 43.5083 26.2222 43.5083 25.3735C43.5083 24.4604 43.7697 23.7318 44.2925 23.1875C44.8188 22.6432 45.5278 22.3711 46.4194 22.3711C46.731 22.3711 47.0138 22.4051 47.2681 22.4731C47.5259 22.5376 47.7873 22.645 48.0522 22.7954L47.5635 23.6655C47.3773 23.5617 47.1947 23.4865 47.0156 23.4399C46.8366 23.3898 46.6414 23.3647 46.4302 23.3647C45.9038 23.3647 45.4974 23.5384 45.2109 23.8857C44.9245 24.2331 44.7812 24.6932 44.7812 25.2661C44.7812 25.8677 44.9352 26.3296 45.2432 26.6519C45.5547 26.9741 45.945 27.1353 46.4141 27.1353C46.5573 27.1353 46.722 27.1102 46.9082 27.0601C47.0944 27.0063 47.2824 26.9222 47.4722 26.8076L47.9824 27.6616ZM52.1021 23.5474C52.034 23.5295 51.9678 23.5169 51.9033 23.5098C51.8424 23.499 51.7708 23.4937 51.6885 23.4937C51.2409 23.4937 50.8971 23.6584 50.6572 23.9878C50.4173 24.3172 50.2974 24.7469 50.2974 25.2769V28H49.0459V22.5H50.2974V23.5581H50.3188C50.4478 23.1785 50.6375 22.8921 50.8882 22.6987C51.1388 22.5018 51.4342 22.4033 51.7744 22.4033C51.8711 22.4033 51.957 22.4087 52.0322 22.4194C52.111 22.4302 52.1862 22.4463 52.2578 22.4678L52.1021 23.5474ZM55.5557 28.1289C54.6963 28.1289 54.0142 27.8729 53.5093 27.3608C53.008 26.8452 52.7573 26.1559 52.7573 25.293C52.7609 24.3799 53.0223 23.6655 53.5415 23.1499C54.0607 22.6307 54.7679 22.3711 55.6631 22.3711C56.526 22.3675 57.1992 22.6217 57.6826 23.1338C58.1696 23.6423 58.4131 24.3315 58.4131 25.2017C58.4131 26.0968 58.1553 26.8094 57.6396 27.3394C57.1276 27.8657 56.4329 28.1289 55.5557 28.1289ZM55.6147 27.1353C56.1125 27.1353 56.4902 26.9723 56.748 26.6465C57.0094 26.3206 57.1401 25.8498 57.1401 25.2339C57.1401 24.6252 57.0094 24.1615 56.748 23.8428C56.4867 23.5241 56.1071 23.3647 55.6094 23.3647C55.1188 23.3647 54.7321 23.533 54.4492 23.8696C54.1699 24.2062 54.0303 24.6717 54.0303 25.2661C54.0303 25.8641 54.1699 26.326 54.4492 26.6519C54.7285 26.9741 55.117 27.1353 55.6147 27.1353ZM59.1543 27.5596L59.6968 26.6787C59.9116 26.8291 60.139 26.9508 60.3789 27.0439C60.6224 27.1335 60.8856 27.1782 61.1685 27.1782C61.4764 27.1782 61.7145 27.1227 61.8828 27.0117C62.0547 26.8971 62.1406 26.7271 62.1406 26.5015C62.1406 26.3224 62.069 26.1738 61.9258 26.0557C61.7861 25.9339 61.5462 25.8337 61.2061 25.7549C60.5186 25.5938 60.0352 25.3807 59.7559 25.1157C59.4801 24.8507 59.3423 24.5016 59.3423 24.0684C59.3423 23.5706 59.5356 23.1642 59.9224 22.8491C60.3091 22.5304 60.8158 22.3711 61.4424 22.3711C61.7539 22.3711 62.0511 22.4123 62.334 22.4946C62.6169 22.5734 62.8926 22.7005 63.1611 22.876L62.6562 23.7354C62.4199 23.585 62.2033 23.4775 62.0063 23.4131C61.8094 23.3486 61.6071 23.3164 61.3994 23.3164C61.1058 23.3164 60.8766 23.3719 60.7119 23.4829C60.5508 23.5903 60.4702 23.7407 60.4702 23.9341C60.4702 24.1382 60.5526 24.2904 60.7173 24.3906C60.8856 24.4873 61.1667 24.5822 61.5605 24.6753C62.1549 24.8185 62.59 25.0262 62.8657 25.2983C63.1414 25.5669 63.2793 25.9268 63.2793 26.3779C63.2793 26.9115 63.0841 27.3376 62.6938 27.6562C62.3071 27.9714 61.7826 28.1289 61.1201 28.1289C60.762 28.1289 60.4183 28.0824 60.0889 27.9893C59.763 27.8926 59.4515 27.7493 59.1543 27.5596ZM66.8779 28.1289C66.0186 28.1289 65.3364 27.8729 64.8315 27.3608C64.3302 26.8452 64.0796 26.1559 64.0796 25.293C64.0832 24.3799 64.3446 23.6655 64.8638 23.1499C65.383 22.6307 66.0902 22.3711 66.9854 22.3711C67.8483 22.3675 68.5215 22.6217 69.0049 23.1338C69.4919 23.6423 69.7354 24.3315 69.7354 25.2017C69.7354 26.0968 69.4775 26.8094 68.9619 27.3394C68.4499 27.8657 67.7552 28.1289 66.8779 28.1289ZM66.937 27.1353C67.4347 27.1353 67.8125 26.9723 68.0703 26.6465C68.3317 26.3206 68.4624 25.8498 68.4624 25.2339C68.4624 24.6252 68.3317 24.1615 68.0703 23.8428C67.8089 23.5241 67.4294 23.3647 66.9316 23.3647C66.4411 23.3647 66.0544 23.533 65.7715 23.8696C65.4922 24.2062 65.3525 24.6717 65.3525 25.2661C65.3525 25.8641 65.4922 26.326 65.7715 26.6519C66.0508 26.9741 66.4393 27.1353 66.937 27.1353ZM73.9839 20.8403C73.8836 20.8009 73.7923 20.7741 73.71 20.7598C73.6276 20.7419 73.5381 20.7329 73.4414 20.7329C73.1764 20.7329 72.9759 20.8099 72.8398 20.9639C72.7074 21.1143 72.6411 21.3327 72.6411 21.6191V22.5H73.9141V23.4775H72.6411V28H71.395V23.4775H70.4604V22.5H71.395V21.5547C71.395 20.9961 71.5741 20.5539 71.9321 20.228C72.2938 19.8986 72.7718 19.7339 73.3662 19.7339C73.5524 19.7339 73.7135 19.7464 73.8496 19.7715C73.9857 19.7965 74.1271 19.8324 74.2739 19.8789L73.9839 20.8403ZM77.7974 27.9248C77.6362 27.9928 77.4679 28.043 77.2925 28.0752C77.117 28.1074 76.929 28.1235 76.7285 28.1235C76.2201 28.1235 75.828 27.9893 75.5522 27.7207C75.2801 27.4486 75.144 27.0439 75.144 26.5068V23.4775H74.2202V22.5H75.144V21.1626L76.3901 20.7866V22.5H77.7061V23.4775H76.3901V26.4048C76.3901 26.6733 76.4385 26.8667 76.5352 26.9849C76.6354 27.103 76.7894 27.1621 76.9971 27.1621C77.0973 27.1621 77.1922 27.1514 77.2817 27.1299C77.3748 27.1048 77.4572 27.0744 77.5288 27.0386L77.7974 27.9248ZM81.2939 27.4468L81.8633 26.4639C82.2106 26.6787 82.5347 26.8309 82.8354 26.9204C83.1362 27.0063 83.4728 27.0493 83.8452 27.0493C84.2892 27.0493 84.6383 26.9544 84.8926 26.7646C85.1504 26.5713 85.2793 26.2956 85.2793 25.9375C85.2793 25.6117 85.1719 25.3556 84.957 25.1694C84.7458 24.9797 84.3859 24.806 83.8774 24.6484C83.0933 24.4157 82.5168 24.1274 82.1479 23.7837C81.7791 23.4399 81.5947 22.9744 81.5947 22.3872C81.5947 21.7498 81.8328 21.2217 82.3091 20.8027C82.7853 20.3802 83.4316 20.1689 84.248 20.1689C84.6061 20.1689 84.9588 20.2083 85.3062 20.2871C85.6535 20.3659 85.9972 20.4876 86.3374 20.6523L85.8594 21.6729C85.5622 21.5189 85.2775 21.4097 85.0054 21.3452C84.7368 21.2808 84.4629 21.2485 84.1836 21.2485C83.7754 21.2485 83.4531 21.3381 83.2168 21.5171C82.984 21.6961 82.8677 21.9486 82.8677 22.2744C82.8677 22.5645 82.9751 22.7936 83.1899 22.9619C83.4048 23.1266 83.7736 23.2896 84.2964 23.4507C85.0985 23.6906 85.675 23.9896 86.0259 24.3477C86.3804 24.7057 86.5576 25.1981 86.5576 25.8247C86.5576 26.4979 86.3177 27.0511 85.8379 27.4844C85.3581 27.9141 84.6742 28.1289 83.7861 28.1289C83.3421 28.1289 82.9089 28.0734 82.4863 27.9624C82.0638 27.8478 81.6663 27.6759 81.2939 27.4468ZM90.4409 27.9248C90.2798 27.9928 90.1115 28.043 89.936 28.0752C89.7606 28.1074 89.5726 28.1235 89.3721 28.1235C88.8636 28.1235 88.4715 27.9893 88.1958 27.7207C87.9237 27.4486 87.7876 27.0439 87.7876 26.5068V23.4775H86.8638V22.5H87.7876V21.1626L89.0337 20.7866V22.5H90.3496V23.4775H89.0337V26.4048C89.0337 26.6733 89.082 26.8667 89.1787 26.9849C89.279 27.103 89.4329 27.1621 89.6406 27.1621C89.7409 27.1621 89.8358 27.1514 89.9253 27.1299C90.0184 27.1048 90.1007 27.0744 90.1724 27.0386L90.4409 27.9248ZM93.8623 28.1289C93.0029 28.1289 92.3208 27.8729 91.8159 27.3608C91.3146 26.8452 91.064 26.1559 91.064 25.293C91.0675 24.3799 91.3289 23.6655 91.8481 23.1499C92.3674 22.6307 93.0745 22.3711 93.9697 22.3711C94.8327 22.3675 95.5059 22.6217 95.9893 23.1338C96.4762 23.6423 96.7197 24.3315 96.7197 25.2017C96.7197 26.0968 96.4619 26.8094 95.9463 27.3394C95.4342 27.8657 94.7396 28.1289 93.8623 28.1289ZM93.9214 27.1353C94.4191 27.1353 94.7969 26.9723 95.0547 26.6465C95.3161 26.3206 95.4468 25.8498 95.4468 25.2339C95.4468 24.6252 95.3161 24.1615 95.0547 23.8428C94.7933 23.5241 94.4137 23.3647 93.916 23.3647C93.4255 23.3647 93.0387 23.533 92.7559 23.8696C92.4766 24.2062 92.3369 24.6717 92.3369 25.2661C92.3369 25.8641 92.4766 26.326 92.7559 26.6519C93.0352 26.9741 93.4237 27.1353 93.9214 27.1353ZM101.054 23.5474C100.986 23.5295 100.92 23.5169 100.855 23.5098C100.795 23.499 100.723 23.4937 100.641 23.4937C100.193 23.4937 99.8493 23.6584 99.6094 23.9878C99.3695 24.3172 99.2495 24.7469 99.2495 25.2769V28H97.998V22.5H99.2495V23.5581H99.271C99.3999 23.1785 99.5897 22.8921 99.8403 22.6987C100.091 22.5018 100.386 22.4033 100.727 22.4033C100.823 22.4033 100.909 22.4087 100.984 22.4194C101.063 22.4302 101.138 22.4463 101.21 22.4678L101.054 23.5474ZM106.721 25.5776H102.966C102.988 26.0968 103.138 26.4925 103.417 26.7646C103.697 27.0332 104.087 27.1675 104.588 27.1675C104.792 27.1675 105.025 27.1263 105.287 27.0439C105.548 26.9616 105.806 26.8291 106.06 26.6465L106.624 27.4253C106.284 27.6724 105.938 27.8514 105.587 27.9624C105.236 28.0734 104.85 28.1289 104.427 28.1289C103.571 28.1289 102.905 27.8836 102.429 27.3931C101.953 26.8989 101.713 26.2096 101.709 25.3252C101.709 24.4443 101.955 23.7318 102.445 23.1875C102.939 22.6432 103.571 22.3711 104.341 22.3711C105.079 22.3711 105.659 22.6038 106.082 23.0693C106.508 23.5312 106.721 24.1865 106.721 25.0352V25.5776ZM105.512 24.7129C105.512 24.2402 105.408 23.8857 105.201 23.6494C104.997 23.4095 104.707 23.2896 104.331 23.2896C103.976 23.2896 103.674 23.4185 103.423 23.6763C103.176 23.9305 103.024 24.276 102.966 24.7129H105.512Z" fill="white"/>
<defs>
<filter id="filter0_dd_976_1819" x="11.0938" y="8.75" width="11.8125" height="5.625" filterUnits="userSpaceOnUse" color-interpolation-filters="sRGB">
<feFlood flood-opacity="0" result="BackgroundImageFix"/>
<feColorMatrix in="SourceAlpha" type="matrix" values="0 0 0 0 0 0 0 0 0 0 0 0 0 0 0 0 0 0 127 0" result="hardAlpha"/>
<feOffset dy="0.1875"/>
<feGaussianBlur stdDeviation="0.1875"/>
<feColorMatrix type="matrix" values="0 0 0 0 0 0 0 0 0 0 0 0 0 0 0 0 0 0 0.1 0"/>
<feBlend mode="normal" in2="BackgroundImageFix" result="effect1_dropShadow_976_1819"/>
<feColorMatrix in="SourceAlpha" type="matrix" values="0 0 0 0 0 0 0 0 0 0 0 0 0 0 0 0 0 0 127 0" result="hardAlpha"/>
<feOffset dy="0.375"/>
<feGaussianBlur stdDeviation="0.5625"/>
<feColorMatrix type="matrix" values="0 0 0 0 0 0 0 0 0 0 0 0 0 0 0 0 0 0 0.2 0"/>
<feBlend mode="normal" in2="effect1_dropShadow_976_1819" result="effect2_dropShadow_976_1819"/>
<feBlend mode="normal" in="SourceGraphic" in2="effect2_dropShadow_976_1819" result="shape"/>
</filter>
<filter id="filter1_dd_976_1819" x="12.2188" y="14.9375" width="9.5625" height="9.5625" filterUnits="userSpaceOnUse" color-interpolation-filters="sRGB">
<feFlood flood-opacity="0" result="BackgroundImageFix"/>
<feColorMatrix in="SourceAlpha" type="matrix" values="0 0 0 0 0 0 0 0 0 0 0 0 0 0 0 0 0 0 127 0" result="hardAlpha"/>
<feOffset dy="0.1875"/>
<feGaussianBlur stdDeviation="0.1875"/>
<feColorMatrix type="matrix" values="0 0 0 0 1 0 0 0 0 1 0 0 0 0 1 0 0 0 0.6 0"/>
<feBlend mode="normal" in2="BackgroundImageFix" result="effect1_dropShadow_976_1819"/>
<feColorMatrix in="SourceAlpha" type="matrix" values="0 0 0 0 0 0 0 0 0 0 0 0 0 0 0 0 0 0 127 0" result="hardAlpha"/>
<feOffset dy="0.375"/>
<feGaussianBlur stdDeviation="0.5625"/>
<feColorMatrix type="matrix" values="0 0 0 0 1 0 0 0 0 1 0 0 0 0 1 0 0 0 0.6 0"/>
<feBlend mode="normal" in2="effect1_dropShadow_976_1819" result="effect2_dropShadow_976_1819"/>
<feBlend mode="normal" in="SourceGraphic" in2="effect2_dropShadow_976_1819" result="shape"/>
</filter>
<filter id="filter2_dd_976_1819" x="10.5939" y="8.1875" width="12.8124" height="5.06274" filterUnits="userSpaceOnUse" color-interpolation-filters="sRGB">
<feFlood flood-opacity="0" result="BackgroundImageFix"/>
<feColorMatrix in="SourceAlpha" type="matrix" values="0 0 0 0 0 0 0 0 0 0 0 0 0 0 0 0 0 0 127 0" result="hardAlpha"/>
<feOffset dy="-0.75"/>
<feGaussianBlur stdDeviation="0.1875"/>
<feColorMatrix type="matrix" values="0 0 0 0 0 0 0 0 0 0 0 0 0 0 0 0 0 0 0.1 0"/>
<feBlend mode="normal" in2="BackgroundImageFix" result="effect1_dropShadow_976_1819"/>
<feColorMatrix in="SourceAlpha" type="matrix" values="0 0 0 0 0 0 0 0 0 0 0 0 0 0 0 0 0 0 127 0" result="hardAlpha"/>
<feOffset dy="-0.75"/>
<feGaussianBlur stdDeviation="0.5625"/>
<feColorMatrix type="matrix" values="0 0 0 0 0 0 0 0 0 0 0 0 0 0 0 0 0 0 0.2 0"/>
<feBlend mode="normal" in2="effect1_dropShadow_976_1819" result="effect2_dropShadow_976_1819"/>
<feBlend mode="normal" in="SourceGraphic" in2="effect2_dropShadow_976_1819" result="shape"/>
</filter>
<linearGradient id="paint0_linear_976_1819" x1="12.2443" y1="9.50639" x2="15.9039" y2="26.3132" gradientUnits="userSpaceOnUse">
<stop offset="0.270833" stop-color="white"/>
<stop offset="1" stop-color="#DFDFDF"/>
</linearGradient>
<linearGradient id="paint1_linear_976_1819" x1="17" y1="11.75" x2="20.3514" y2="27.4624" gradientUnits="userSpaceOnUse">
<stop stop-color="#0078D4"/>
<stop offset="1" stop-color="#114A8B"/>
</linearGradient>
<linearGradient id="paint2_linear_976_1819" x1="17" y1="10.0625" x2="17.1583" y2="12.4858" gradientUnits="userSpaceOnUse">
<stop stop-color="#28AFEA"/>
<stop offset="1" stop-color="#0078D4"/>
</linearGradient>
<linearGradient id="paint3_linear_976_1819" x1="17" y1="10.0625" x2="17.1583" y2="12.4858" gradientUnits="userSpaceOnUse">
<stop stop-color="#30DAFF"/>
<stop offset="1" stop-color="#0094D4"/>
</linearGradient>
<linearGradient id="paint4_linear_976_1819" x1="16.5938" y1="9.5" x2="16.5937" y2="10.625" gradientUnits="userSpaceOnUse">
<stop stop-color="#22BCFF"/>
<stop offset="1" stop-color="#0088F0"/>
</linearGradient>
<linearGradient id="paint5_linear_976_1819" x1="16.5938" y1="9.5" x2="16.5937" y2="10.625" gradientUnits="userSpaceOnUse">
<stop stop-color="#28AFEA"/>
<stop offset="1" stop-color="#3CCBF4"/>
</linearGradient>
<clipPath id="clip0_976_1819">
<rect width="18" height="18" fill="white" transform="translate(8 9.5)"/>
</clipPath>
<clipPath id="clip1_976_1819">
<rect width="18" height="18" fill="white" transform="translate(8 9.5)"/>
</clipPath>
</defs>
</svg>
