<svg width="116" height="34" viewBox="0 0 116 34" fill="none" xmlns="http://www.w3.org/2000/svg">
<rect x="1" y="1" width="114" height="32" rx="4" fill="#202020"/>
<rect x="0.5" y="0.5" width="115" height="33" rx="4.5" stroke="black" stroke-opacity="0.1"/>
<g clip-path="url(#clip0_976_1831)">
<g clip-path="url(#clip1_976_1831)">
<path d="M8.28125 11C8.28125 10.5858 8.61704 10.25 9.03125 10.25H24.9687C25.383 10.25 25.7188 10.5858 25.7188 11V22.3438C25.7188 24.0524 24.3336 25.4375 22.625 25.4375H11.375C9.66637 25.4375 8.28125 24.0524 8.28125 22.3438V11Z" fill="url(#paint0_linear_976_1831)"/>
<mask id="mask0_976_1831" style="mask-type:alpha" maskUnits="userSpaceOnUse" x="8" y="10" width="18" height="16">
<path d="M8.28125 11C8.28125 10.5858 8.61704 10.25 9.03125 10.25H24.9687C25.383 10.25 25.7188 10.5858 25.7188 11V22.3438C25.7188 24.0524 24.3336 25.4375 22.625 25.4375H11.375C9.66637 25.4375 8.28125 24.0524 8.28125 22.3438V11Z" fill="url(#paint1_linear_976_1831)"/>
</mask>
<g mask="url(#mask0_976_1831)">
<g filter="url(#filter0_dd_976_1831)">
<path d="M12.7812 10.8125V8.5625H21.2187V10.8125" stroke="url(#paint2_linear_976_1831)" stroke-width="1.125" stroke-linecap="round"/>
</g>
</g>
<g filter="url(#filter1_dd_976_1831)">
<path d="M16.719 14.1875H13.344V17.5625H16.719V14.1875Z" fill="#F25022"/>
<path d="M20.6562 14.1875H17.2812V17.5625H20.6562V14.1875Z" fill="#7FBA00"/>
<path d="M20.6562 18.125H17.2812V21.5H20.6562V18.125Z" fill="#FFB900"/>
<path d="M16.7188 18.125H13.3438V21.5H16.7188V18.125Z" fill="#00A4EF"/>
</g>
<path d="M12.7812 10.8125V9.125C12.7812 8.81434 13.0331 8.5625 13.3438 8.5625H20.6563C20.9669 8.5625 21.2188 8.81434 21.2188 9.125V10.8125" stroke="url(#paint3_linear_976_1831)" stroke-width="1.125" stroke-linecap="round"/>
<rect x="13.3438" y="8" width="7.3125" height="1.125" fill="url(#paint4_linear_976_1831)"/>
<mask id="mask1_976_1831" style="mask-type:alpha" maskUnits="userSpaceOnUse" x="13" y="8" width="8" height="2">
<rect x="13.3438" y="8" width="7.3125" height="1.125" fill="url(#paint5_linear_976_1831)"/>
</mask>
<g mask="url(#mask1_976_1831)">
<g filter="url(#filter2_dd_976_1831)">
<rect x="11.7189" y="8.56274" width="1.625" height="2.8125" fill="#C4C4C4"/>
</g>
</g>
</g>
</g>
<path d="M39.2275 16H37.96V11.0854C37.96 10.8634 37.9653 10.6217 37.9761 10.3604C37.9904 10.0954 38.0083 9.81429 38.0298 9.51709H37.9976C37.9546 9.72119 37.9134 9.89665 37.874 10.0435C37.8382 10.1867 37.8024 10.3013 37.7666 10.3872L35.5054 16H34.6245L32.3525 10.4355C32.3239 10.3568 32.2881 10.2404 32.2451 10.0864C32.2057 9.93245 32.1628 9.74268 32.1162 9.51709H32.084C32.1055 9.7749 32.1198 10.0488 32.127 10.3389C32.1341 10.6253 32.1377 10.9279 32.1377 11.2466V16H30.9561V8.29785H32.7607L34.7642 13.3037C34.8429 13.4935 34.9074 13.6689 34.9575 13.8301C35.0112 13.9876 35.0524 14.1344 35.0811 14.2705H35.1133C35.1777 14.0664 35.2386 13.882 35.2959 13.7173C35.3532 13.5526 35.4069 13.4093 35.457 13.2876L37.4873 8.29785H39.2275V16ZM41.6177 9.43652C41.3885 9.43652 41.1987 9.36312 41.0483 9.21631C40.8979 9.0695 40.8228 8.88867 40.8228 8.67383C40.8228 8.45182 40.8979 8.26921 41.0483 8.12598C41.1987 7.98275 41.3885 7.91113 41.6177 7.91113C41.8504 7.91113 42.042 7.98275 42.1924 8.12598C42.3428 8.26921 42.418 8.45182 42.418 8.67383C42.418 8.89225 42.3428 9.07487 42.1924 9.22168C42.042 9.36491 41.8504 9.43652 41.6177 9.43652ZM42.2354 16H40.9839V10.5H42.2354V16ZM47.9824 15.6616C47.7103 15.8263 47.4399 15.9445 47.1714 16.0161C46.9028 16.0913 46.611 16.1289 46.2959 16.1289C45.4508 16.1289 44.7741 15.8818 44.2656 15.3877C43.7607 14.8936 43.5083 14.2222 43.5083 13.3735C43.5083 12.4604 43.7697 11.7318 44.2925 11.1875C44.8188 10.6432 45.5278 10.3711 46.4194 10.3711C46.731 10.3711 47.0138 10.4051 47.2681 10.4731C47.5259 10.5376 47.7873 10.645 48.0522 10.7954L47.5635 11.6655C47.3773 11.5617 47.1947 11.4865 47.0156 11.4399C46.8366 11.3898 46.6414 11.3647 46.4302 11.3647C45.9038 11.3647 45.4974 11.5384 45.2109 11.8857C44.9245 12.2331 44.7812 12.6932 44.7812 13.2661C44.7812 13.8677 44.9352 14.3296 45.2432 14.6519C45.5547 14.9741 45.945 15.1353 46.4141 15.1353C46.5573 15.1353 46.722 15.1102 46.9082 15.0601C47.0944 15.0063 47.2824 14.9222 47.4722 14.8076L47.9824 15.6616ZM52.1021 11.5474C52.034 11.5295 51.9678 11.5169 51.9033 11.5098C51.8424 11.499 51.7708 11.4937 51.6885 11.4937C51.2409 11.4937 50.8971 11.6584 50.6572 11.9878C50.4173 12.3172 50.2974 12.7469 50.2974 13.2769V16H49.0459V10.5H50.2974V11.5581H50.3188C50.4478 11.1785 50.6375 10.8921 50.8882 10.6987C51.1388 10.5018 51.4342 10.4033 51.7744 10.4033C51.8711 10.4033 51.957 10.4087 52.0322 10.4194C52.111 10.4302 52.1862 10.4463 52.2578 10.4678L52.1021 11.5474ZM55.5557 16.1289C54.6963 16.1289 54.0142 15.8729 53.5093 15.3608C53.008 14.8452 52.7573 14.1559 52.7573 13.293C52.7609 12.3799 53.0223 11.6655 53.5415 11.1499C54.0607 10.6307 54.7679 10.3711 55.6631 10.3711C56.526 10.3675 57.1992 10.6217 57.6826 11.1338C58.1696 11.6423 58.4131 12.3315 58.4131 13.2017C58.4131 14.0968 58.1553 14.8094 57.6396 15.3394C57.1276 15.8657 56.4329 16.1289 55.5557 16.1289ZM55.6147 15.1353C56.1125 15.1353 56.4902 14.9723 56.748 14.6465C57.0094 14.3206 57.1401 13.8498 57.1401 13.2339C57.1401 12.6252 57.0094 12.1615 56.748 11.8428C56.4867 11.5241 56.1071 11.3647 55.6094 11.3647C55.1188 11.3647 54.7321 11.533 54.4492 11.8696C54.1699 12.2062 54.0303 12.6717 54.0303 13.2661C54.0303 13.8641 54.1699 14.326 54.4492 14.6519C54.7285 14.9741 55.117 15.1353 55.6147 15.1353ZM59.1543 15.5596L59.6968 14.6787C59.9116 14.8291 60.139 14.9508 60.3789 15.0439C60.6224 15.1335 60.8856 15.1782 61.1685 15.1782C61.4764 15.1782 61.7145 15.1227 61.8828 15.0117C62.0547 14.8971 62.1406 14.7271 62.1406 14.5015C62.1406 14.3224 62.069 14.1738 61.9258 14.0557C61.7861 13.9339 61.5462 13.8337 61.2061 13.7549C60.5186 13.5938 60.0352 13.3807 59.7559 13.1157C59.4801 12.8507 59.3423 12.5016 59.3423 12.0684C59.3423 11.5706 59.5356 11.1642 59.9224 10.8491C60.3091 10.5304 60.8158 10.3711 61.4424 10.3711C61.7539 10.3711 62.0511 10.4123 62.334 10.4946C62.6169 10.5734 62.8926 10.7005 63.1611 10.876L62.6562 11.7354C62.4199 11.585 62.2033 11.4775 62.0063 11.4131C61.8094 11.3486 61.6071 11.3164 61.3994 11.3164C61.1058 11.3164 60.8766 11.3719 60.7119 11.4829C60.5508 11.5903 60.4702 11.7407 60.4702 11.9341C60.4702 12.1382 60.5526 12.2904 60.7173 12.3906C60.8856 12.4873 61.1667 12.5822 61.5605 12.6753C62.1549 12.8185 62.59 13.0262 62.8657 13.2983C63.1414 13.5669 63.2793 13.9268 63.2793 14.3779C63.2793 14.9115 63.0841 15.3376 62.6938 15.6562C62.3071 15.9714 61.7826 16.1289 61.1201 16.1289C60.762 16.1289 60.4183 16.0824 60.0889 15.9893C59.763 15.8926 59.4515 15.7493 59.1543 15.5596ZM66.8779 16.1289C66.0186 16.1289 65.3364 15.8729 64.8315 15.3608C64.3302 14.8452 64.0796 14.1559 64.0796 13.293C64.0832 12.3799 64.3446 11.6655 64.8638 11.1499C65.383 10.6307 66.0902 10.3711 66.9854 10.3711C67.8483 10.3675 68.5215 10.6217 69.0049 11.1338C69.4919 11.6423 69.7354 12.3315 69.7354 13.2017C69.7354 14.0968 69.4775 14.8094 68.9619 15.3394C68.4499 15.8657 67.7552 16.1289 66.8779 16.1289ZM66.937 15.1353C67.4347 15.1353 67.8125 14.9723 68.0703 14.6465C68.3317 14.3206 68.4624 13.8498 68.4624 13.2339C68.4624 12.6252 68.3317 12.1615 68.0703 11.8428C67.8089 11.5241 67.4294 11.3647 66.9316 11.3647C66.4411 11.3647 66.0544 11.533 65.7715 11.8696C65.4922 12.2062 65.3525 12.6717 65.3525 13.2661C65.3525 13.8641 65.4922 14.326 65.7715 14.6519C66.0508 14.9741 66.4393 15.1353 66.937 15.1353ZM73.9839 8.84033C73.8836 8.80094 73.7923 8.77409 73.71 8.75977C73.6276 8.74186 73.5381 8.73291 73.4414 8.73291C73.1764 8.73291 72.9759 8.8099 72.8398 8.96387C72.7074 9.11426 72.6411 9.33268 72.6411 9.61914V10.5H73.9141V11.4775H72.6411V16H71.395V11.4775H70.4604V10.5H71.395V9.55469C71.395 8.99609 71.5741 8.55387 71.9321 8.22803C72.2938 7.8986 72.7718 7.73389 73.3662 7.73389C73.5524 7.73389 73.7135 7.74642 73.8496 7.77148C73.9857 7.79655 74.1271 7.83236 74.2739 7.87891L73.9839 8.84033ZM77.7974 15.9248C77.6362 15.9928 77.4679 16.043 77.2925 16.0752C77.117 16.1074 76.929 16.1235 76.7285 16.1235C76.2201 16.1235 75.828 15.9893 75.5522 15.7207C75.2801 15.4486 75.144 15.0439 75.144 14.5068V11.4775H74.2202V10.5H75.144V9.1626L76.3901 8.78662V10.5H77.7061V11.4775H76.3901V14.4048C76.3901 14.6733 76.4385 14.8667 76.5352 14.9849C76.6354 15.103 76.7894 15.1621 76.9971 15.1621C77.0973 15.1621 77.1922 15.1514 77.2817 15.1299C77.3748 15.1048 77.4572 15.0744 77.5288 15.0386L77.7974 15.9248ZM81.2939 15.4468L81.8633 14.4639C82.2106 14.6787 82.5347 14.8309 82.8354 14.9204C83.1362 15.0063 83.4728 15.0493 83.8452 15.0493C84.2892 15.0493 84.6383 14.9544 84.8926 14.7646C85.1504 14.5713 85.2793 14.2956 85.2793 13.9375C85.2793 13.6117 85.1719 13.3556 84.957 13.1694C84.7458 12.9797 84.3859 12.806 83.8774 12.6484C83.0933 12.4157 82.5168 12.1274 82.1479 11.7837C81.7791 11.4399 81.5947 10.9744 81.5947 10.3872C81.5947 9.74984 81.8328 9.22168 82.3091 8.80273C82.7853 8.38021 83.4316 8.16895 84.248 8.16895C84.6061 8.16895 84.9588 8.20833 85.3062 8.28711C85.6535 8.36589 85.9972 8.48763 86.3374 8.65234L85.8594 9.67285C85.5622 9.51888 85.2775 9.40967 85.0054 9.34521C84.7368 9.28076 84.4629 9.24854 84.1836 9.24854C83.7754 9.24854 83.4531 9.33805 83.2168 9.51709C82.984 9.69613 82.8677 9.94857 82.8677 10.2744C82.8677 10.5645 82.9751 10.7936 83.1899 10.9619C83.4048 11.1266 83.7736 11.2896 84.2964 11.4507C85.0985 11.6906 85.675 11.9896 86.0259 12.3477C86.3804 12.7057 86.5576 13.1981 86.5576 13.8247C86.5576 14.4979 86.3177 15.0511 85.8379 15.4844C85.3581 15.9141 84.6742 16.1289 83.7861 16.1289C83.3421 16.1289 82.9089 16.0734 82.4863 15.9624C82.0638 15.8478 81.6663 15.6759 81.2939 15.4468ZM90.4409 15.9248C90.2798 15.9928 90.1115 16.043 89.936 16.0752C89.7606 16.1074 89.5726 16.1235 89.3721 16.1235C88.8636 16.1235 88.4715 15.9893 88.1958 15.7207C87.9237 15.4486 87.7876 15.0439 87.7876 14.5068V11.4775H86.8638V10.5H87.7876V9.1626L89.0337 8.78662V10.5H90.3496V11.4775H89.0337V14.4048C89.0337 14.6733 89.082 14.8667 89.1787 14.9849C89.279 15.103 89.4329 15.1621 89.6406 15.1621C89.7409 15.1621 89.8358 15.1514 89.9253 15.1299C90.0184 15.1048 90.1007 15.0744 90.1724 15.0386L90.4409 15.9248ZM93.8623 16.1289C93.0029 16.1289 92.3208 15.8729 91.8159 15.3608C91.3146 14.8452 91.064 14.1559 91.064 13.293C91.0675 12.3799 91.3289 11.6655 91.8481 11.1499C92.3674 10.6307 93.0745 10.3711 93.9697 10.3711C94.8327 10.3675 95.5059 10.6217 95.9893 11.1338C96.4762 11.6423 96.7197 12.3315 96.7197 13.2017C96.7197 14.0968 96.4619 14.8094 95.9463 15.3394C95.4342 15.8657 94.7396 16.1289 93.8623 16.1289ZM93.9214 15.1353C94.4191 15.1353 94.7969 14.9723 95.0547 14.6465C95.3161 14.3206 95.4468 13.8498 95.4468 13.2339C95.4468 12.6252 95.3161 12.1615 95.0547 11.8428C94.7933 11.5241 94.4137 11.3647 93.916 11.3647C93.4255 11.3647 93.0387 11.533 92.7559 11.8696C92.4766 12.2062 92.3369 12.6717 92.3369 13.2661C92.3369 13.8641 92.4766 14.326 92.7559 14.6519C93.0352 14.9741 93.4237 15.1353 93.9214 15.1353ZM101.054 11.5474C100.986 11.5295 100.92 11.5169 100.855 11.5098C100.795 11.499 100.723 11.4937 100.641 11.4937C100.193 11.4937 99.8493 11.6584 99.6094 11.9878C99.3695 12.3172 99.2495 12.7469 99.2495 13.2769V16H97.998V10.5H99.2495V11.5581H99.271C99.3999 11.1785 99.5897 10.8921 99.8403 10.6987C100.091 10.5018 100.386 10.4033 100.727 10.4033C100.823 10.4033 100.909 10.4087 100.984 10.4194C101.063 10.4302 101.138 10.4463 101.21 10.4678L101.054 11.5474ZM106.721 13.5776H102.966C102.988 14.0968 103.138 14.4925 103.417 14.7646C103.697 15.0332 104.087 15.1675 104.588 15.1675C104.792 15.1675 105.025 15.1263 105.287 15.0439C105.548 14.9616 105.806 14.8291 106.06 14.6465L106.624 15.4253C106.284 15.6724 105.938 15.8514 105.587 15.9624C105.236 16.0734 104.85 16.1289 104.427 16.1289C103.571 16.1289 102.905 15.8836 102.429 15.3931C101.953 14.8989 101.713 14.2096 101.709 13.3252C101.709 12.4443 101.955 11.7318 102.445 11.1875C102.939 10.6432 103.571 10.3711 104.341 10.3711C105.079 10.3711 105.659 10.6038 106.082 11.0693C106.508 11.5312 106.721 12.1865 106.721 13.0352V13.5776ZM105.512 12.7129C105.512 12.2402 105.408 11.8857 105.201 11.6494C104.997 11.4095 104.707 11.2896 104.331 11.2896C103.976 11.2896 103.674 11.4185 103.423 11.6763C103.176 11.9305 103.024 12.276 102.966 12.7129H105.512Z" fill="white"/>
<path d="M33.8589 23.7031H31.897C31.7762 23.7829 31.6315 23.8307 31.4629 23.8467L31.4561 23.8638C31.6771 24.2101 31.9198 24.5326 32.1841 24.8311C32.4484 25.1296 32.7492 25.4064 33.0864 25.6616L32.7207 26.082C32.527 25.9385 32.3424 25.7835 32.167 25.6172C31.9938 25.4508 31.8298 25.2788 31.6748 25.1011C31.5221 24.9211 31.3786 24.7399 31.2441 24.5576C31.1097 24.373 30.9867 24.1919 30.875 24.0142C30.7633 23.8364 30.6631 23.6655 30.5742 23.5015C30.4854 23.3351 30.4079 23.1813 30.3418 23.04L30.8101 22.7871C30.8534 22.8874 30.8955 22.9717 30.9365 23.04C30.9798 23.1061 31.0231 23.1597 31.0664 23.2007C31.1097 23.2394 31.1553 23.2679 31.2031 23.2861C31.251 23.3021 31.3022 23.3101 31.3569 23.3101C31.5142 23.3101 31.6292 23.2485 31.7021 23.1255C31.7773 23.0024 31.8149 22.8407 31.8149 22.6401C31.8149 22.5216 31.8035 22.4054 31.7808 22.2915C31.758 22.1753 31.7284 22.0648 31.6919 21.96C31.6577 21.8529 31.6201 21.7526 31.5791 21.6592C31.5381 21.5658 31.4993 21.4814 31.4629 21.4062H29.8804V20.9038H33.7769V21.4062H32.0542C32.1499 21.6136 32.2251 21.8221 32.2798 22.0317C32.3345 22.2414 32.3618 22.4499 32.3618 22.6572C32.3618 22.7529 32.3538 22.8475 32.3379 22.9409C32.3242 23.0321 32.3003 23.1187 32.2661 23.2007L32.2729 23.2075H33.8076L33.8589 23.7031ZM36.3745 25.436C36.1899 25.5454 35.994 25.6274 35.7866 25.6821C35.5793 25.7368 35.3719 25.7642 35.1646 25.7642C34.882 25.7642 34.6257 25.7174 34.3955 25.624C34.1676 25.5283 33.9717 25.3973 33.8076 25.231C33.6458 25.0623 33.5205 24.8652 33.4316 24.6396C33.3451 24.4141 33.3018 24.1691 33.3018 23.9048C33.3018 23.6541 33.3405 23.4354 33.418 23.2485C33.4977 23.0617 33.606 22.9067 33.7427 22.7837C33.8794 22.6584 34.04 22.5649 34.2246 22.5034C34.4115 22.4419 34.612 22.4111 34.8262 22.4111H35.4927V21.4062H32.6421V20.9038H37.0171V21.4062H36.0532V22.9102H34.9492C34.7852 22.9102 34.6348 22.9329 34.498 22.9785C34.3636 23.0241 34.2474 23.0913 34.1494 23.1802C34.0537 23.269 33.9785 23.3796 33.9238 23.5117C33.8714 23.6416 33.8452 23.7931 33.8452 23.9663C33.8452 24.1554 33.876 24.3275 33.9375 24.4824C34.0013 24.6374 34.089 24.7707 34.2007 24.8823C34.3146 24.994 34.4491 25.0806 34.604 25.1421C34.7612 25.2036 34.9333 25.2344 35.1201 25.2344C35.2318 25.2344 35.3446 25.223 35.4585 25.2002C35.5724 25.1774 35.6829 25.1466 35.79 25.1079C35.8971 25.0692 35.9997 25.0247 36.0977 24.9746C36.1979 24.9245 36.2902 24.8709 36.3745 24.814V25.436ZM38.8354 21.4062H38.1177V26H37.5571V21.4062H36.7778V20.9038H38.8354V21.4062ZM38.0698 20.9995H37.5742L37.2632 20.415C37.131 20.1667 37.0103 19.9696 36.9009 19.8237C36.7938 19.6779 36.6924 19.5674 36.5967 19.4922C36.4987 19.4147 36.403 19.3657 36.3096 19.3452C36.2161 19.3224 36.1182 19.311 36.0156 19.311H35.3525V18.7573H35.978C36.1102 18.7573 36.2298 18.7687 36.3369 18.7915C36.444 18.812 36.5465 18.8507 36.6445 18.9077C36.7402 18.9624 36.8337 19.0399 36.9248 19.1401C37.0182 19.2381 37.1174 19.3657 37.2222 19.5229C37.327 19.6779 37.4409 19.8647 37.564 20.0835C37.6893 20.3 37.8317 20.5563 37.9912 20.8525L38.0698 20.9995ZM42.2568 21.4062H40.9683C41.0845 21.6068 41.1779 21.8118 41.2485 22.0215C41.3215 22.2288 41.3579 22.4396 41.3579 22.6538C41.3579 22.8156 41.3328 22.9717 41.2827 23.1221C41.2349 23.2702 41.1631 23.4035 41.0674 23.522C40.974 23.6382 40.8566 23.7339 40.7153 23.8091C40.5763 23.882 40.4157 23.923 40.2334 23.9321L40.2266 23.9492C40.4316 24.2682 40.6618 24.5701 40.917 24.855C41.1722 25.1375 41.4673 25.4064 41.8022 25.6616L41.4365 26.082C41.2428 25.9385 41.0583 25.7835 40.8828 25.6172C40.7096 25.4486 40.5456 25.2754 40.3906 25.0977C40.2357 24.9176 40.091 24.7365 39.9565 24.5542C39.8244 24.3696 39.7025 24.1908 39.5908 24.0176C39.4814 23.8421 39.3835 23.6746 39.2969 23.5151C39.2103 23.3534 39.1362 23.2064 39.0747 23.0742L39.543 22.8213C39.625 22.999 39.7173 23.1392 39.8198 23.2417C39.9246 23.342 40.0454 23.3921 40.1821 23.3921C40.2801 23.3921 40.3678 23.367 40.4453 23.3169C40.5228 23.2668 40.5877 23.203 40.6401 23.1255C40.6925 23.0457 40.7324 22.9591 40.7598 22.8657C40.7871 22.77 40.8008 22.6766 40.8008 22.5854C40.8008 22.4784 40.7871 22.3735 40.7598 22.271C40.7324 22.1662 40.6971 22.0648 40.6538 21.9668C40.6105 21.8665 40.5615 21.7697 40.5068 21.6763C40.4544 21.5828 40.4032 21.4928 40.353 21.4062H38.5962V20.9038H42.2568V21.4062ZM44.0786 21.4062H43.3608V26H42.8003V21.4062H42.021V20.9038H44.0786V21.4062ZM42.5952 19.8613C42.5952 19.7314 42.634 19.6266 42.7114 19.5469C42.7866 19.4648 42.8857 19.4238 43.0088 19.4238C43.0658 19.4238 43.1204 19.4352 43.1729 19.458C43.223 19.4808 43.2674 19.5127 43.3062 19.5537C43.3449 19.5924 43.3757 19.6392 43.3984 19.6938C43.4189 19.7463 43.4292 19.8044 43.4292 19.8682C43.4292 19.998 43.3916 20.1029 43.3164 20.1826C43.2389 20.2624 43.1387 20.3022 43.0156 20.3022C42.9564 20.3022 42.9017 20.292 42.8516 20.2715C42.7992 20.2487 42.7547 20.2179 42.7183 20.1792C42.6795 20.1382 42.6499 20.0915 42.6294 20.0391C42.6066 19.9844 42.5952 19.9251 42.5952 19.8613ZM48.3613 21.4062H47.6436V26H47.0864V22.999H45.9756C45.8229 22.999 45.6851 23.0093 45.562 23.0298C45.439 23.048 45.3341 23.0868 45.2476 23.146C45.161 23.203 45.0938 23.2839 45.0459 23.3887C45.0003 23.4912 44.9775 23.6268 44.9775 23.7954C44.9775 24.0142 45.0129 24.2158 45.0835 24.4004C45.1564 24.585 45.2487 24.7547 45.3604 24.9097C45.472 25.0623 45.5951 25.2036 45.7295 25.3335C45.8662 25.4634 45.9972 25.583 46.1226 25.6924L45.7808 26.082C45.7603 26.0706 45.7113 26.0376 45.6338 25.9829C45.5586 25.9259 45.4697 25.8496 45.3672 25.7539C45.2669 25.6582 45.1598 25.542 45.0459 25.4053C44.9342 25.2686 44.8306 25.1147 44.7349 24.9438C44.6414 24.7707 44.5628 24.5804 44.499 24.373C44.4375 24.1657 44.4067 23.9424 44.4067 23.7031C44.4067 23.4661 44.4398 23.2702 44.5059 23.1152C44.5742 22.958 44.6699 22.8338 44.793 22.7427C44.916 22.6493 45.0653 22.5843 45.2407 22.5479C45.4162 22.5114 45.6121 22.4932 45.8286 22.4932H47.0864V21.4062H43.8394V20.9038H48.3613V21.4062ZM52.2476 21.4062H48.1255V20.9038H52.2476V21.4062ZM52.3467 23.3921C52.2578 23.3237 52.1769 23.2702 52.104 23.2314C52.0311 23.1904 51.965 23.1608 51.9058 23.1426C51.8488 23.1221 51.7987 23.1095 51.7554 23.105C51.7144 23.1004 51.6813 23.0981 51.6562 23.0981C51.5492 23.0981 51.4557 23.1187 51.376 23.1597C51.2962 23.1984 51.229 23.2508 51.1743 23.3169C51.1219 23.383 51.082 23.4604 51.0547 23.5493C51.0273 23.6382 51.0137 23.7316 51.0137 23.8296C51.0137 23.8683 51.0148 23.9082 51.0171 23.9492C51.0216 23.988 51.0262 24.0267 51.0308 24.0654H50.5078C50.4919 23.9333 50.4725 23.8068 50.4497 23.686C50.4269 23.5653 50.395 23.4593 50.354 23.3682C50.313 23.277 50.2594 23.2052 50.1934 23.1528C50.1273 23.0981 50.043 23.0708 49.9404 23.0708C49.8424 23.0708 49.757 23.0902 49.6841 23.1289C49.6134 23.1676 49.5553 23.2201 49.5098 23.2861C49.4642 23.3522 49.43 23.432 49.4072 23.5254C49.3844 23.6165 49.373 23.7145 49.373 23.8193C49.373 24.0472 49.4106 24.2511 49.4858 24.4312C49.561 24.6112 49.6624 24.7729 49.79 24.9165C49.9199 25.0601 50.0692 25.1888 50.2378 25.3027C50.4064 25.4144 50.5841 25.5169 50.771 25.6104L50.4941 26.082C50.4212 26.0479 50.3289 25.9989 50.2173 25.9351C50.1056 25.869 49.9871 25.7869 49.8618 25.689C49.7365 25.591 49.61 25.4771 49.4824 25.3472C49.3571 25.2173 49.2432 25.0715 49.1406 24.9097C49.0381 24.7479 48.9549 24.5701 48.8911 24.3765C48.8273 24.1805 48.7954 23.9697 48.7954 23.7441C48.7954 23.571 48.8216 23.4092 48.874 23.2588C48.9264 23.1084 49.0005 22.9785 49.0962 22.8691C49.1942 22.7575 49.3115 22.6709 49.4482 22.6094C49.585 22.5456 49.7376 22.5137 49.9062 22.5137C50.0316 22.5137 50.1398 22.533 50.231 22.5718C50.3244 22.6082 50.4041 22.6549 50.4702 22.7119C50.5363 22.7666 50.591 22.827 50.6343 22.8931C50.6799 22.9569 50.7186 23.0173 50.7505 23.0742L50.7676 23.0708C50.8109 22.9751 50.8621 22.8942 50.9214 22.8281C50.9829 22.762 51.049 22.7085 51.1196 22.6675C51.1925 22.6265 51.2689 22.5968 51.3486 22.5786C51.4284 22.5581 51.5081 22.5479 51.5879 22.5479C51.6221 22.5479 51.6642 22.5501 51.7144 22.5547C51.7645 22.557 51.8249 22.5706 51.8955 22.5957C51.9661 22.6185 52.047 22.6561 52.1382 22.7085C52.2316 22.7586 52.3364 22.8304 52.4526 22.9238L52.3467 23.3921ZM55.9663 21.4062H55.2485V26H54.688V24.4004L54.6743 24.397C54.6128 24.4471 54.5387 24.4972 54.4521 24.5474C54.3678 24.5952 54.2733 24.6385 54.1685 24.6772C54.0636 24.7137 53.9508 24.7445 53.8301 24.7695C53.7093 24.7923 53.5828 24.8037 53.4507 24.8037C53.1864 24.8037 52.9596 24.7559 52.7705 24.6602C52.5837 24.5645 52.4264 24.4368 52.2988 24.2773C52.1735 24.1156 52.0744 23.9321 52.0015 23.7271C51.9285 23.5197 51.8761 23.3044 51.8442 23.0811C51.9946 23.0605 52.1234 23.0252 52.2305 22.9751C52.3376 22.925 52.4242 22.8657 52.4902 22.7974C52.5563 22.7267 52.6042 22.6504 52.6338 22.5684C52.6657 22.4863 52.6816 22.4043 52.6816 22.3223C52.6816 22.2676 52.6759 22.2061 52.6646 22.1377C52.6554 22.0693 52.6383 21.9964 52.6133 21.9189C52.5882 21.8392 52.5552 21.756 52.5142 21.6694C52.4731 21.5828 52.4219 21.4951 52.3604 21.4062H51.3726V20.9038H55.9663V21.4062ZM52.9653 21.4062C53.0474 21.5452 53.1112 21.6979 53.1567 21.8643C53.2046 22.0283 53.2285 22.1901 53.2285 22.3496C53.2285 22.4658 53.2126 22.5786 53.1807 22.688C53.151 22.7974 53.1043 22.8999 53.0405 22.9956C52.9767 23.089 52.897 23.1733 52.8013 23.2485C52.7078 23.3215 52.5985 23.3796 52.4731 23.4229C52.5096 23.5755 52.5597 23.7065 52.6235 23.8159C52.6873 23.923 52.7625 24.0119 52.8491 24.0825C52.9357 24.1509 53.0326 24.201 53.1396 24.2329C53.2467 24.2648 53.3618 24.2808 53.4849 24.2808C53.6034 24.2808 53.7196 24.2671 53.8335 24.2397C53.9497 24.2124 54.0591 24.1737 54.1616 24.1235C54.2664 24.0711 54.3633 24.0085 54.4521 23.9355C54.541 23.8626 54.6196 23.7806 54.688 23.6895V21.4062H52.9653ZM57.7847 21.4062H57.0669V26H56.5063V21.4062H55.7271V20.9038H57.7847V21.4062ZM62.0366 21.4062H61.3188V26H60.7549V23.3647H59.1553C59.1553 23.5151 59.153 23.6439 59.1484 23.751C59.1462 23.8581 59.137 23.9469 59.1211 24.0176C59.1051 24.0859 59.0812 24.1361 59.0493 24.168C59.0174 24.1999 58.973 24.2158 58.916 24.2158C58.7975 24.2158 58.6847 24.1771 58.5776 24.0996C58.4728 24.0221 58.3794 23.9287 58.2974 23.8193C58.2176 23.71 58.1538 23.596 58.106 23.4775C58.0581 23.359 58.0342 23.2588 58.0342 23.1768C58.0342 23.1038 58.0501 23.0469 58.082 23.0059C58.1139 22.9648 58.1561 22.9341 58.2085 22.9136C58.2609 22.8931 58.3201 22.8805 58.3862 22.876C58.4546 22.8714 58.5229 22.8691 58.5913 22.8691H60.7549V21.4062H57.5454V20.9038H62.0366V21.4062ZM68.9648 21.4062H67.9463V22.6675H66.2339C66.0653 22.6675 65.9479 22.6914 65.8818 22.7393C65.818 22.7871 65.7861 22.8646 65.7861 22.9717C65.7861 23.0264 65.793 23.0833 65.8066 23.1426C65.8203 23.2018 65.8454 23.2576 65.8818 23.3101C65.9183 23.3602 65.9673 23.4023 66.0288 23.4365C66.0926 23.4684 66.1735 23.4844 66.2715 23.4844H67.2388C67.4393 23.4844 67.6079 23.5117 67.7446 23.5664C67.8836 23.6211 67.9941 23.6963 68.0762 23.792C68.1605 23.8877 68.2209 24.0005 68.2573 24.1304C68.2938 24.2603 68.312 24.3993 68.312 24.5474C68.312 24.7502 68.2778 24.9438 68.2095 25.1284C68.1434 25.313 68.0443 25.4759 67.9121 25.6172C67.7799 25.7585 67.6147 25.8713 67.4165 25.9556C67.2205 26.0399 66.9915 26.082 66.7295 26.082C66.4447 26.082 66.1712 26.0296 65.9092 25.9248C65.6494 25.8177 65.4102 25.6696 65.1914 25.4805C64.9749 25.2913 64.7835 25.0669 64.6172 24.8071C64.4531 24.5474 64.3244 24.2625 64.231 23.9526L64.7061 23.7646C64.7858 23.9993 64.8918 24.2249 65.0239 24.4414C65.1561 24.6579 65.3088 24.8493 65.4819 25.0156C65.6574 25.182 65.8499 25.3153 66.0596 25.4155C66.2692 25.5135 66.4902 25.5625 66.7227 25.5625C66.8867 25.5625 67.0326 25.5386 67.1602 25.4907C67.29 25.4429 67.4006 25.3745 67.4917 25.2856C67.5828 25.1968 67.6523 25.0908 67.7002 24.9678C67.748 24.8424 67.772 24.7023 67.772 24.5474C67.772 24.438 67.7594 24.3491 67.7344 24.2808C67.7093 24.2101 67.6694 24.1554 67.6147 24.1167C67.5623 24.078 67.4951 24.0518 67.4131 24.0381C67.3311 24.0221 67.2331 24.0142 67.1191 24.0142H66.2236C66.055 24.0142 65.9092 23.9777 65.7861 23.9048C65.6631 23.8319 65.5605 23.7396 65.4785 23.6279C65.3988 23.5163 65.3395 23.3932 65.3008 23.2588C65.262 23.1221 65.2427 22.991 65.2427 22.8657C65.2427 22.7313 65.2643 22.6196 65.3076 22.5308C65.3509 22.4396 65.4102 22.3678 65.4854 22.3154C65.5605 22.2607 65.6494 22.222 65.752 22.1992C65.8568 22.1764 65.9696 22.165 66.0903 22.165H67.3857V21.4062H63.7183V20.9038H68.9648V21.4062ZM70.7866 21.4062H70.0688V26H69.5083V21.4062H68.729V20.9038H70.7866V21.4062ZM74.9019 21.4062H74.1841V26H73.6235V24.7798L73.6099 24.7764C73.5643 24.8197 73.5107 24.8652 73.4492 24.9131C73.3877 24.9587 73.3171 25.0008 73.2373 25.0396C73.1576 25.076 73.0675 25.1068 72.9673 25.1318C72.8693 25.1569 72.7588 25.1694 72.6357 25.1694C72.4102 25.1694 72.2039 25.1261 72.0171 25.0396C71.8325 24.953 71.673 24.8379 71.5386 24.6943C71.4041 24.5485 71.2993 24.3822 71.2241 24.1953C71.1512 24.0062 71.1147 23.8091 71.1147 23.604C71.1147 23.3989 71.1512 23.2087 71.2241 23.0332C71.2993 22.8555 71.4019 22.7017 71.5317 22.5718C71.6616 22.4419 71.8132 22.3405 71.9863 22.2676C72.1595 22.1924 72.3452 22.1548 72.5435 22.1548C72.5981 22.1548 72.6665 22.1593 72.7485 22.1685C72.8328 22.1776 72.9229 22.1981 73.0186 22.23C73.1143 22.2619 73.2134 22.3086 73.3159 22.3701C73.4185 22.4294 73.5164 22.5103 73.6099 22.6128L73.6235 22.6094V21.4062H70.5474V20.9038H74.9019V21.4062ZM73.6372 23.2485C73.4937 23.0754 73.3376 22.9364 73.1689 22.8315C73.0003 22.7244 72.8089 22.6709 72.5947 22.6709C72.4261 22.6709 72.2826 22.7028 72.1641 22.7666C72.0479 22.8304 71.9521 22.9113 71.877 23.0093C71.8018 23.105 71.7471 23.2121 71.7129 23.3306C71.6787 23.4491 71.6616 23.563 71.6616 23.6724C71.6616 23.7909 71.681 23.9082 71.7197 24.0244C71.7585 24.1406 71.8154 24.2454 71.8906 24.3389C71.9681 24.43 72.0638 24.5052 72.1777 24.5645C72.2917 24.6214 72.425 24.6499 72.5776 24.6499C72.7349 24.6499 72.8784 24.6203 73.0083 24.561C73.1382 24.4995 73.2498 24.422 73.3433 24.3286C73.4367 24.2352 73.5085 24.1304 73.5586 24.0142C73.611 23.8979 73.6372 23.7852 73.6372 23.6758V23.2485ZM79.1538 21.4062H78.436V26H77.8721V23.3647H76.2725C76.2725 23.5151 76.2702 23.6439 76.2656 23.751C76.2633 23.8581 76.2542 23.9469 76.2383 24.0176C76.2223 24.0859 76.1984 24.1361 76.1665 24.168C76.1346 24.1999 76.0902 24.2158 76.0332 24.2158C75.9147 24.2158 75.8019 24.1771 75.6948 24.0996C75.59 24.0221 75.4966 23.9287 75.4146 23.8193C75.3348 23.71 75.271 23.596 75.2231 23.4775C75.1753 23.359 75.1514 23.2588 75.1514 23.1768C75.1514 23.1038 75.1673 23.0469 75.1992 23.0059C75.2311 22.9648 75.2733 22.9341 75.3257 22.9136C75.3781 22.8931 75.4373 22.8805 75.5034 22.876C75.5718 22.8714 75.6401 22.8691 75.7085 22.8691H77.8721V21.4062H74.6626V20.9038H79.1538V21.4062ZM84.1543 21.4062H83.4365V26.0034H82.876V22.8008C82.7552 22.7575 82.6413 22.7358 82.5342 22.7358C82.4271 22.7358 82.3337 22.7563 82.2539 22.7974C82.1742 22.8361 82.1069 22.8885 82.0522 22.9546C81.9998 23.0207 81.96 23.0981 81.9326 23.187C81.9053 23.2759 81.8916 23.3693 81.8916 23.4673C81.8916 23.506 81.8927 23.5459 81.895 23.5869C81.8996 23.6257 81.9041 23.6644 81.9087 23.7031H81.3857C81.3675 23.571 81.3459 23.4445 81.3208 23.3237C81.298 23.203 81.2638 23.097 81.2183 23.0059C81.175 22.9147 81.118 22.8429 81.0474 22.7905C80.9767 22.7358 80.8856 22.7085 80.7739 22.7085C80.6668 22.7085 80.5745 22.7301 80.4971 22.7734C80.4219 22.8167 80.3592 22.8771 80.3091 22.9546C80.259 23.0321 80.2214 23.1232 80.1963 23.228C80.1735 23.3306 80.1621 23.4422 80.1621 23.563C80.1621 23.8228 80.2065 24.0563 80.2954 24.2637C80.3843 24.4688 80.5039 24.6533 80.6543 24.8174C80.807 24.9814 80.9824 25.1284 81.1807 25.2583C81.3812 25.3859 81.592 25.5033 81.813 25.6104L81.5361 26.082C81.4541 26.0456 81.3481 25.9909 81.2183 25.918C81.0907 25.8451 80.9539 25.755 80.8081 25.6479C80.6646 25.5409 80.5199 25.4155 80.374 25.272C80.2282 25.1284 80.096 24.9678 79.9775 24.79C79.8613 24.6123 79.7668 24.4163 79.6938 24.2021C79.6209 23.988 79.5845 23.7567 79.5845 23.5083C79.5845 23.3169 79.6118 23.1392 79.6665 22.9751C79.7212 22.8088 79.7987 22.6652 79.8989 22.5444C80.0015 22.4214 80.1245 22.3257 80.2681 22.2573C80.4116 22.1867 80.5711 22.1514 80.7466 22.1514C80.8787 22.1514 80.9927 22.1707 81.0884 22.2095C81.1841 22.2459 81.2661 22.2926 81.3345 22.3496C81.4051 22.4043 81.4632 22.4647 81.5088 22.5308C81.5544 22.5946 81.5942 22.6549 81.6284 22.7119L81.6455 22.7085C81.6888 22.6128 81.7401 22.5319 81.7993 22.4658C81.8608 22.3997 81.9269 22.3462 81.9976 22.3052C82.0705 22.2642 82.1468 22.2345 82.2266 22.2163C82.3063 22.1958 82.3861 22.1855 82.4658 22.1855C82.5365 22.1855 82.606 22.1924 82.6743 22.2061C82.745 22.2174 82.8122 22.2345 82.876 22.2573V21.4062H78.9146V20.9038H84.1543V21.4062ZM85.9761 21.4062H85.2583V26H84.6978V21.4062H83.9185V20.9038H85.9761V21.4062ZM85.2104 20.9995H84.7148L84.4038 20.415C84.2716 20.1667 84.1509 19.9696 84.0415 19.8237C83.9344 19.6779 83.833 19.5674 83.7373 19.4922C83.6393 19.4147 83.5436 19.3657 83.4502 19.3452C83.3568 19.3224 83.2588 19.311 83.1562 19.311H82.4932V18.7573H83.1187C83.2508 18.7573 83.3704 18.7687 83.4775 18.7915C83.5846 18.812 83.6872 18.8507 83.7852 18.9077C83.8809 18.9624 83.9743 19.0399 84.0654 19.1401C84.1589 19.2381 84.258 19.3657 84.3628 19.5229C84.4676 19.6779 84.5815 19.8647 84.7046 20.0835C84.8299 20.3 84.9723 20.5563 85.1318 20.8525L85.2104 20.9995ZM90.9834 21.4062H89.9648V22.6675H88.2524C88.0838 22.6675 87.9665 22.6914 87.9004 22.7393C87.8366 22.7871 87.8047 22.8646 87.8047 22.9717C87.8047 23.0264 87.8115 23.0833 87.8252 23.1426C87.8389 23.2018 87.8639 23.2576 87.9004 23.3101C87.9368 23.3602 87.9858 23.4023 88.0474 23.4365C88.1112 23.4684 88.1921 23.4844 88.29 23.4844H89.2573C89.4578 23.4844 89.6265 23.5117 89.7632 23.5664C89.9022 23.6211 90.0127 23.6963 90.0947 23.792C90.179 23.8877 90.2394 24.0005 90.2759 24.1304C90.3123 24.2603 90.3306 24.3993 90.3306 24.5474C90.3306 24.7502 90.2964 24.9438 90.228 25.1284C90.1619 25.313 90.0628 25.4759 89.9307 25.6172C89.7985 25.7585 89.6333 25.8713 89.4351 25.9556C89.2391 26.0399 89.0101 26.082 88.748 26.082C88.4632 26.082 88.1898 26.0296 87.9277 25.9248C87.668 25.8177 87.4287 25.6696 87.21 25.4805C86.9935 25.2913 86.8021 25.0669 86.6357 24.8071C86.4717 24.5474 86.3429 24.2625 86.2495 23.9526L86.7246 23.7646C86.8044 23.9993 86.9103 24.2249 87.0425 24.4414C87.1746 24.6579 87.3273 24.8493 87.5005 25.0156C87.6759 25.182 87.8685 25.3153 88.0781 25.4155C88.2878 25.5135 88.5088 25.5625 88.7412 25.5625C88.9053 25.5625 89.0511 25.5386 89.1787 25.4907C89.3086 25.4429 89.4191 25.3745 89.5103 25.2856C89.6014 25.1968 89.6709 25.0908 89.7188 24.9678C89.7666 24.8424 89.7905 24.7023 89.7905 24.5474C89.7905 24.438 89.778 24.3491 89.7529 24.2808C89.7279 24.2101 89.688 24.1554 89.6333 24.1167C89.5809 24.078 89.5137 24.0518 89.4316 24.0381C89.3496 24.0221 89.2516 24.0142 89.1377 24.0142H88.2422C88.0736 24.0142 87.9277 23.9777 87.8047 23.9048C87.6816 23.8319 87.5791 23.7396 87.4971 23.6279C87.4173 23.5163 87.3581 23.3932 87.3193 23.2588C87.2806 23.1221 87.2612 22.991 87.2612 22.8657C87.2612 22.7313 87.2829 22.6196 87.3262 22.5308C87.3695 22.4396 87.4287 22.3678 87.5039 22.3154C87.5791 22.2607 87.668 22.222 87.7705 22.1992C87.8753 22.1764 87.9881 22.165 88.1089 22.165H89.4043V21.4062H85.7368V20.9038H90.9834V21.4062ZM98.9507 21.4062H96.0625V22.7529L96.0796 22.7598C96.1958 22.6003 96.3405 22.4727 96.5137 22.377C96.6868 22.279 96.8771 22.23 97.0845 22.23C97.2485 22.23 97.4001 22.2642 97.5391 22.3325C97.6803 22.3986 97.8022 22.4909 97.9048 22.6094C98.0073 22.7256 98.0871 22.8634 98.144 23.0229C98.2033 23.1825 98.2329 23.3545 98.2329 23.5391C98.2329 23.7487 98.1965 23.9424 98.1235 24.1201C98.0506 24.2956 97.9572 24.4551 97.8433 24.5986C97.7293 24.7422 97.6006 24.8698 97.457 24.9814C97.3135 25.0908 97.1722 25.1842 97.0332 25.2617L96.729 24.7354C96.7746 24.7103 96.8304 24.6772 96.8965 24.6362C96.9626 24.5952 97.0309 24.5474 97.1016 24.4927C97.1745 24.438 97.2451 24.3765 97.3135 24.3081C97.3841 24.2375 97.4468 24.1611 97.5015 24.0791C97.5584 23.9971 97.604 23.9082 97.6382 23.8125C97.6724 23.7168 97.6895 23.6154 97.6895 23.5083C97.6895 23.4103 97.6735 23.3169 97.6416 23.228C97.612 23.1392 97.5698 23.0617 97.5151 22.9956C97.4604 22.9295 97.3944 22.8771 97.3169 22.8384C97.2417 22.7996 97.1585 22.7803 97.0674 22.7803C96.9489 22.7803 96.8338 22.811 96.7222 22.8726C96.6105 22.9341 96.5091 23.0116 96.418 23.105C96.3268 23.1961 96.2493 23.2941 96.1855 23.3989C96.124 23.5037 96.083 23.6006 96.0625 23.6895V26H95.502V24.6909L95.4883 24.6841C95.4541 24.7137 95.4108 24.7502 95.3584 24.7935C95.306 24.8345 95.2422 24.8743 95.167 24.9131C95.0941 24.9518 95.0086 24.9849 94.9106 25.0122C94.8149 25.0396 94.7067 25.0532 94.5859 25.0532C94.3854 25.0532 94.1997 25.0145 94.0288 24.937C93.8602 24.8595 93.7132 24.7547 93.5879 24.6226C93.4648 24.4881 93.368 24.3309 93.2974 24.1509C93.2267 23.9709 93.1914 23.7783 93.1914 23.5732C93.1914 23.3773 93.2233 23.1961 93.2871 23.0298C93.3532 22.8634 93.4421 22.721 93.5537 22.6025C93.6676 22.4818 93.7998 22.3883 93.9502 22.3223C94.1029 22.2539 94.2669 22.2197 94.4424 22.2197C94.5654 22.2197 94.6794 22.2357 94.7842 22.2676C94.8913 22.2972 94.9881 22.3348 95.0747 22.3804C95.1636 22.4237 95.2422 22.4715 95.3105 22.5239C95.3812 22.5741 95.4404 22.6196 95.4883 22.6606L95.502 22.6572V21.4062H92.6685V20.9038H98.9507V21.4062ZM94.5244 22.7529C94.3945 22.7529 94.2795 22.7803 94.1792 22.835C94.0812 22.8874 93.9992 22.9557 93.9331 23.04C93.867 23.1221 93.8169 23.2155 93.7827 23.3203C93.7508 23.4229 93.7349 23.5243 93.7349 23.6245C93.7349 23.7339 93.7542 23.8433 93.793 23.9526C93.8317 24.0597 93.8864 24.1566 93.957 24.2432C94.0299 24.3298 94.1165 24.4004 94.2168 24.4551C94.3171 24.5075 94.4276 24.5337 94.5483 24.5337C94.6509 24.5337 94.758 24.5132 94.8696 24.4722C94.9836 24.4289 95.0872 24.3628 95.1807 24.2739C95.2764 24.1851 95.355 24.0723 95.4165 23.9355C95.478 23.7965 95.5088 23.6313 95.5088 23.4399V23.2725C95.4541 23.2041 95.3892 23.1392 95.314 23.0776C95.241 23.0138 95.1613 22.958 95.0747 22.9102C94.9904 22.8623 94.9015 22.8247 94.8081 22.7974C94.7147 22.7677 94.6201 22.7529 94.5244 22.7529ZM102.372 21.4062H101.083C101.2 21.6068 101.293 21.8118 101.364 22.0215C101.437 22.2288 101.473 22.4396 101.473 22.6538C101.473 22.8156 101.448 22.9717 101.398 23.1221C101.35 23.2702 101.278 23.4035 101.183 23.522C101.089 23.6382 100.972 23.7339 100.831 23.8091C100.692 23.882 100.531 23.923 100.349 23.9321L100.342 23.9492C100.547 24.2682 100.777 24.5701 101.032 24.855C101.287 25.1375 101.583 25.4064 101.917 25.6616L101.552 26.082C101.358 25.9385 101.174 25.7835 100.998 25.6172C100.825 25.4486 100.661 25.2754 100.506 25.0977C100.351 24.9176 100.206 24.7365 100.072 24.5542C99.9396 24.3696 99.8177 24.1908 99.7061 24.0176C99.5967 23.8421 99.4987 23.6746 99.4121 23.5151C99.3255 23.3534 99.2515 23.2064 99.1899 23.0742L99.6582 22.8213C99.7402 22.999 99.8325 23.1392 99.9351 23.2417C100.04 23.342 100.161 23.3921 100.297 23.3921C100.395 23.3921 100.483 23.367 100.561 23.3169C100.638 23.2668 100.703 23.203 100.755 23.1255C100.808 23.0457 100.848 22.9591 100.875 22.8657C100.902 22.77 100.916 22.6766 100.916 22.5854C100.916 22.4784 100.902 22.3735 100.875 22.271C100.848 22.1662 100.812 22.0648 100.769 21.9668C100.726 21.8665 100.677 21.7697 100.622 21.6763C100.57 21.5828 100.518 21.4928 100.468 21.4062H98.7114V20.9038H102.372V21.4062ZM107.109 21.4062H106.392V26H105.824V24.561L105.811 24.5508C105.685 24.6647 105.562 24.7547 105.441 24.8208C105.323 24.8846 105.211 24.9336 105.106 24.9678C105.004 24.9997 104.91 25.0202 104.826 25.0293C104.742 25.0384 104.672 25.043 104.618 25.043C104.408 25.043 104.222 25.0099 104.061 24.9438C103.899 24.8778 103.763 24.7912 103.654 24.6841C103.544 24.5747 103.461 24.4505 103.404 24.3115C103.347 24.1702 103.319 24.0244 103.319 23.874C103.319 23.7168 103.351 23.5607 103.415 23.4058C103.481 23.2508 103.583 23.1118 103.722 22.9888L103.719 22.9751H102.635V22.4727H105.383V22.9751H105.031C104.797 22.9751 104.604 23.0059 104.454 23.0674C104.303 23.1289 104.185 23.2041 104.098 23.293C104.012 23.3818 103.951 23.4775 103.917 23.5801C103.885 23.6803 103.869 23.7715 103.869 23.8535C103.869 23.9219 103.881 23.9959 103.903 24.0757C103.926 24.1532 103.964 24.2249 104.016 24.291C104.071 24.3571 104.143 24.4118 104.231 24.4551C104.323 24.4984 104.437 24.52 104.573 24.52C104.717 24.52 104.85 24.4972 104.973 24.4517C105.098 24.4038 105.214 24.3423 105.318 24.2671C105.423 24.1919 105.518 24.1076 105.602 24.0142C105.689 23.9185 105.763 23.8239 105.824 23.7305V21.4062H102.136V20.9038H107.109V21.4062ZM106.344 20.9995H105.848L105.537 20.415C105.405 20.1667 105.285 19.9696 105.178 19.8237C105.069 19.6779 104.966 19.5674 104.871 19.4922C104.773 19.4147 104.677 19.3657 104.583 19.3452C104.49 19.3224 104.392 19.311 104.29 19.311H103.626V18.7573H104.252C104.384 18.7573 104.504 18.7687 104.611 18.7915C104.718 18.812 104.82 18.8507 104.918 18.9077C105.014 18.9624 105.109 19.0399 105.202 19.1401C105.293 19.2381 105.391 19.3657 105.496 19.5229C105.601 19.6779 105.716 19.8647 105.841 20.0835C105.964 20.3 106.106 20.5563 106.265 20.8525L106.344 20.9995ZM106.272 19.8613C106.272 19.7314 106.311 19.6266 106.388 19.5469C106.463 19.4648 106.562 19.4238 106.686 19.4238C106.743 19.4238 106.796 19.4352 106.846 19.458C106.899 19.4808 106.944 19.5127 106.983 19.5537C107.022 19.5924 107.051 19.6392 107.072 19.6938C107.095 19.7463 107.106 19.8044 107.106 19.8682C107.106 19.998 107.067 20.1029 106.99 20.1826C106.915 20.2624 106.815 20.3022 106.692 20.3022C106.633 20.3022 106.578 20.292 106.528 20.2715C106.476 20.2487 106.431 20.2179 106.395 20.1792C106.356 20.1382 106.327 20.0915 106.306 20.0391C106.283 19.9844 106.272 19.9251 106.272 19.8613Z" fill="white" fill-opacity="0.786"/>
<defs>
<filter id="filter0_dd_976_1831" x="11.0938" y="7.25" width="11.8125" height="5.625" filterUnits="userSpaceOnUse" color-interpolation-filters="sRGB">
<feFlood flood-opacity="0" result="BackgroundImageFix"/>
<feColorMatrix in="SourceAlpha" type="matrix" values="0 0 0 0 0 0 0 0 0 0 0 0 0 0 0 0 0 0 127 0" result="hardAlpha"/>
<feOffset dy="0.1875"/>
<feGaussianBlur stdDeviation="0.1875"/>
<feColorMatrix type="matrix" values="0 0 0 0 0 0 0 0 0 0 0 0 0 0 0 0 0 0 0.1 0"/>
<feBlend mode="normal" in2="BackgroundImageFix" result="effect1_dropShadow_976_1831"/>
<feColorMatrix in="SourceAlpha" type="matrix" values="0 0 0 0 0 0 0 0 0 0 0 0 0 0 0 0 0 0 127 0" result="hardAlpha"/>
<feOffset dy="0.375"/>
<feGaussianBlur stdDeviation="0.5625"/>
<feColorMatrix type="matrix" values="0 0 0 0 0 0 0 0 0 0 0 0 0 0 0 0 0 0 0.2 0"/>
<feBlend mode="normal" in2="effect1_dropShadow_976_1831" result="effect2_dropShadow_976_1831"/>
<feBlend mode="normal" in="SourceGraphic" in2="effect2_dropShadow_976_1831" result="shape"/>
</filter>
<filter id="filter1_dd_976_1831" x="12.2188" y="13.4375" width="9.5625" height="9.5625" filterUnits="userSpaceOnUse" color-interpolation-filters="sRGB">
<feFlood flood-opacity="0" result="BackgroundImageFix"/>
<feColorMatrix in="SourceAlpha" type="matrix" values="0 0 0 0 0 0 0 0 0 0 0 0 0 0 0 0 0 0 127 0" result="hardAlpha"/>
<feOffset dy="0.1875"/>
<feGaussianBlur stdDeviation="0.1875"/>
<feColorMatrix type="matrix" values="0 0 0 0 1 0 0 0 0 1 0 0 0 0 1 0 0 0 0.6 0"/>
<feBlend mode="normal" in2="BackgroundImageFix" result="effect1_dropShadow_976_1831"/>
<feColorMatrix in="SourceAlpha" type="matrix" values="0 0 0 0 0 0 0 0 0 0 0 0 0 0 0 0 0 0 127 0" result="hardAlpha"/>
<feOffset dy="0.375"/>
<feGaussianBlur stdDeviation="0.5625"/>
<feColorMatrix type="matrix" values="0 0 0 0 1 0 0 0 0 1 0 0 0 0 1 0 0 0 0.6 0"/>
<feBlend mode="normal" in2="effect1_dropShadow_976_1831" result="effect2_dropShadow_976_1831"/>
<feBlend mode="normal" in="SourceGraphic" in2="effect2_dropShadow_976_1831" result="shape"/>
</filter>
<filter id="filter2_dd_976_1831" x="10.5939" y="6.6875" width="12.8124" height="5.06274" filterUnits="userSpaceOnUse" color-interpolation-filters="sRGB">
<feFlood flood-opacity="0" result="BackgroundImageFix"/>
<feColorMatrix in="SourceAlpha" type="matrix" values="0 0 0 0 0 0 0 0 0 0 0 0 0 0 0 0 0 0 127 0" result="hardAlpha"/>
<feOffset dy="-0.75"/>
<feGaussianBlur stdDeviation="0.1875"/>
<feColorMatrix type="matrix" values="0 0 0 0 0 0 0 0 0 0 0 0 0 0 0 0 0 0 0.1 0"/>
<feBlend mode="normal" in2="BackgroundImageFix" result="effect1_dropShadow_976_1831"/>
<feColorMatrix in="SourceAlpha" type="matrix" values="0 0 0 0 0 0 0 0 0 0 0 0 0 0 0 0 0 0 127 0" result="hardAlpha"/>
<feOffset dy="-0.75"/>
<feGaussianBlur stdDeviation="0.5625"/>
<feColorMatrix type="matrix" values="0 0 0 0 0 0 0 0 0 0 0 0 0 0 0 0 0 0 0.2 0"/>
<feBlend mode="normal" in2="effect1_dropShadow_976_1831" result="effect2_dropShadow_976_1831"/>
<feBlend mode="normal" in="SourceGraphic" in2="effect2_dropShadow_976_1831" result="shape"/>
</filter>
<linearGradient id="paint0_linear_976_1831" x1="12.2443" y1="8.00639" x2="15.9039" y2="24.8132" gradientUnits="userSpaceOnUse">
<stop offset="0.270833" stop-color="white"/>
<stop offset="1" stop-color="#DFDFDF"/>
</linearGradient>
<linearGradient id="paint1_linear_976_1831" x1="17" y1="10.25" x2="20.3514" y2="25.9624" gradientUnits="userSpaceOnUse">
<stop stop-color="#0078D4"/>
<stop offset="1" stop-color="#114A8B"/>
</linearGradient>
<linearGradient id="paint2_linear_976_1831" x1="17" y1="8.5625" x2="17.1583" y2="10.9858" gradientUnits="userSpaceOnUse">
<stop stop-color="#28AFEA"/>
<stop offset="1" stop-color="#0078D4"/>
</linearGradient>
<linearGradient id="paint3_linear_976_1831" x1="17" y1="8.5625" x2="17.1583" y2="10.9858" gradientUnits="userSpaceOnUse">
<stop stop-color="#30DAFF"/>
<stop offset="1" stop-color="#0094D4"/>
</linearGradient>
<linearGradient id="paint4_linear_976_1831" x1="16.5938" y1="8" x2="16.5937" y2="9.125" gradientUnits="userSpaceOnUse">
<stop stop-color="#22BCFF"/>
<stop offset="1" stop-color="#0088F0"/>
</linearGradient>
<linearGradient id="paint5_linear_976_1831" x1="16.5938" y1="8" x2="16.5937" y2="9.125" gradientUnits="userSpaceOnUse">
<stop stop-color="#28AFEA"/>
<stop offset="1" stop-color="#3CCBF4"/>
</linearGradient>
<clipPath id="clip0_976_1831">
<rect width="18" height="18" fill="white" transform="translate(8 8)"/>
</clipPath>
<clipPath id="clip1_976_1831">
<rect width="18" height="18" fill="white" transform="translate(8 8)"/>
</clipPath>
</defs>
</svg>
