<svg width="116" height="34" viewBox="0 0 116 34" fill="none" xmlns="http://www.w3.org/2000/svg">
<rect x="1" y="1" width="114" height="32" rx="4" fill="#202020"/>
<rect x="0.5" y="0.5" width="115" height="33" rx="4.5" stroke="black" stroke-opacity="0.1"/>
<g clip-path="url(#clip0_976_1841)">
<g clip-path="url(#clip1_976_1841)">
<path d="M8.28125 11C8.28125 10.5858 8.61704 10.25 9.03125 10.25H24.9687C25.383 10.25 25.7188 10.5858 25.7188 11V22.3438C25.7188 24.0524 24.3336 25.4375 22.625 25.4375H11.375C9.66637 25.4375 8.28125 24.0524 8.28125 22.3438V11Z" fill="url(#paint0_linear_976_1841)"/>
<mask id="mask0_976_1841" style="mask-type:alpha" maskUnits="userSpaceOnUse" x="8" y="10" width="18" height="16">
<path d="M8.28125 11C8.28125 10.5858 8.61704 10.25 9.03125 10.25H24.9687C25.383 10.25 25.7188 10.5858 25.7188 11V22.3438C25.7188 24.0524 24.3336 25.4375 22.625 25.4375H11.375C9.66637 25.4375 8.28125 24.0524 8.28125 22.3438V11Z" fill="url(#paint1_linear_976_1841)"/>
</mask>
<g mask="url(#mask0_976_1841)">
<g filter="url(#filter0_dd_976_1841)">
<path d="M12.7812 10.8125V8.5625H21.2187V10.8125" stroke="url(#paint2_linear_976_1841)" stroke-width="1.125" stroke-linecap="round"/>
</g>
</g>
<g filter="url(#filter1_dd_976_1841)">
<path d="M16.719 14.1875H13.344V17.5625H16.719V14.1875Z" fill="#F25022"/>
<path d="M20.6562 14.1875H17.2812V17.5625H20.6562V14.1875Z" fill="#7FBA00"/>
<path d="M20.6562 18.125H17.2812V21.5H20.6562V18.125Z" fill="#FFB900"/>
<path d="M16.7188 18.125H13.3438V21.5H16.7188V18.125Z" fill="#00A4EF"/>
</g>
<path d="M12.7812 10.8125V9.125C12.7812 8.81434 13.0331 8.5625 13.3438 8.5625H20.6563C20.9669 8.5625 21.2188 8.81434 21.2188 9.125V10.8125" stroke="url(#paint3_linear_976_1841)" stroke-width="1.125" stroke-linecap="round"/>
<rect x="13.3438" y="8" width="7.3125" height="1.125" fill="url(#paint4_linear_976_1841)"/>
<mask id="mask1_976_1841" style="mask-type:alpha" maskUnits="userSpaceOnUse" x="13" y="8" width="8" height="2">
<rect x="13.3438" y="8" width="7.3125" height="1.125" fill="url(#paint5_linear_976_1841)"/>
</mask>
<g mask="url(#mask1_976_1841)">
<g filter="url(#filter2_dd_976_1841)">
<rect x="11.7189" y="8.56274" width="1.625" height="2.8125" fill="#C4C4C4"/>
</g>
</g>
</g>
</g>
<path d="M33.2402 13H30.6426V8.09863H33.1309V8.61816H31.2168V10.2485H32.9873V10.7646H31.2168V12.4805H33.2402V13ZM35.8345 9.97852C35.7912 9.96484 35.7524 9.95573 35.7183 9.95117C35.6841 9.94434 35.6408 9.94092 35.5884 9.94092C35.3035 9.94092 35.0791 10.0628 34.915 10.3066C34.751 10.5482 34.6689 10.8512 34.6689 11.2158V13H34.1084V9.5H34.6689V10.1938H34.6826C34.7624 9.94775 34.8843 9.7609 35.0483 9.6333C35.2124 9.50342 35.4015 9.43848 35.6157 9.43848C35.6864 9.43848 35.7456 9.44189 35.7935 9.44873C35.8436 9.45557 35.888 9.46582 35.9268 9.47949L35.8345 9.97852ZM38.0049 13.082C37.4876 13.082 37.0741 12.9191 36.7642 12.5933C36.4565 12.2651 36.3027 11.8311 36.3027 11.291C36.3027 10.7054 36.4622 10.2474 36.7812 9.91699C37.1003 9.58659 37.5355 9.42025 38.0869 9.41797C38.6087 9.41569 39.0155 9.57633 39.3071 9.8999C39.6011 10.2235 39.748 10.6689 39.748 11.2363C39.748 11.7969 39.5897 12.2446 39.2729 12.5796C38.9585 12.9146 38.5358 13.082 38.0049 13.082ZM38.0459 12.6104C38.4082 12.6104 38.6862 12.493 38.8799 12.2583C39.0758 12.0213 39.1738 11.6875 39.1738 11.2568C39.1738 10.8171 39.0758 10.4798 38.8799 10.2451C38.6839 10.0081 38.4059 9.88965 38.0459 9.88965C37.6859 9.88965 37.401 10.0127 37.1914 10.2588C36.9818 10.5049 36.877 10.8421 36.877 11.2705C36.877 11.6852 36.9829 12.0122 37.1948 12.2515C37.4067 12.4907 37.6904 12.6104 38.0459 12.6104ZM42.3149 8.27637C42.2511 8.25586 42.193 8.24105 42.1406 8.23193C42.0905 8.22282 42.0369 8.21826 41.98 8.21826C41.7886 8.21826 41.6462 8.26953 41.5527 8.37207C41.4593 8.47461 41.4126 8.625 41.4126 8.82324V9.5H42.2329V9.97852H41.4126V13H40.8555V9.97852H40.2573V9.5H40.8555V8.7959C40.8555 8.46549 40.9569 8.20801 41.1597 8.02344C41.3625 7.83659 41.6405 7.74316 41.9937 7.74316C42.0802 7.74316 42.1589 7.75 42.2295 7.76367C42.3001 7.77507 42.373 7.79329 42.4482 7.81836L42.3149 8.27637ZM42.8379 13V7.81836H43.3984V13H42.8379ZM47.3633 13H46.8027V12.4463H46.7891C46.6729 12.6582 46.5247 12.8177 46.3447 12.9248C46.1647 13.0296 45.9528 13.082 45.709 13.082C45.292 13.082 44.9787 12.9578 44.769 12.7095C44.5617 12.4611 44.458 12.0885 44.458 11.5918V9.5H45.0151V11.5029C45.0151 11.8721 45.0858 12.1489 45.2271 12.3335C45.3683 12.5181 45.5802 12.6104 45.8628 12.6104C46.1362 12.6104 46.3607 12.5101 46.5361 12.3096C46.7139 12.1068 46.8027 11.8424 46.8027 11.5166V9.5H47.3633V13ZM51.311 11.3765H48.8364C48.8455 11.7707 48.9492 12.0749 49.1475 12.2891C49.348 12.501 49.6283 12.6069 49.9883 12.6069C50.1455 12.6069 50.3027 12.5841 50.46 12.5386C50.6195 12.4907 50.7767 12.4155 50.9316 12.313L51.1914 12.7129C50.9932 12.8405 50.7949 12.9339 50.5967 12.9932C50.3984 13.0524 50.1808 13.082 49.9438 13.082C49.4152 13.082 49.0028 12.9248 48.7065 12.6104C48.4103 12.2959 48.2611 11.8573 48.2588 11.2944C48.2565 10.7316 48.4046 10.2782 48.7031 9.93408C49.0039 9.59001 49.3936 9.41797 49.8721 9.41797C50.3278 9.41797 50.681 9.56722 50.9316 9.86572C51.1846 10.1619 51.311 10.5732 51.311 11.0996V11.3765ZM50.7368 10.9185C50.7345 10.5949 50.6559 10.3431 50.501 10.1631C50.346 9.98079 50.133 9.88965 49.8618 9.88965C49.5952 9.88965 49.3685 9.98307 49.1816 10.1699C48.9971 10.3545 48.8843 10.604 48.8433 10.9185H50.7368ZM54.5752 12.4053C54.4453 12.6309 54.2801 12.8006 54.0796 12.9146C53.8813 13.0262 53.6455 13.082 53.3721 13.082C52.9323 13.082 52.5802 12.9259 52.3159 12.6138C52.0539 12.2993 51.9229 11.8721 51.9229 11.332C51.9229 10.7533 52.0687 10.2896 52.3604 9.94092C52.652 9.59229 53.0405 9.41797 53.5259 9.41797C53.7674 9.41797 53.9748 9.46582 54.1479 9.56152C54.3234 9.65495 54.4658 9.79622 54.5752 9.98535H54.5889V7.81836H55.1494V13H54.5889V12.4053H54.5752ZM52.4971 11.3047C52.4971 11.708 52.5905 12.027 52.7773 12.2617C52.9665 12.4941 53.2194 12.6104 53.5361 12.6104C53.8506 12.6104 54.1047 12.4976 54.2983 12.272C54.492 12.0464 54.5889 11.7616 54.5889 11.4175V10.9014C54.5889 10.6188 54.4943 10.3796 54.3052 10.1836C54.1183 9.98763 53.8825 9.88965 53.5977 9.88965C53.2559 9.88965 52.987 10.015 52.791 10.2656C52.5951 10.5163 52.4971 10.8626 52.4971 11.3047ZM59.0972 11.3765H56.6226C56.6317 11.7707 56.7354 12.0749 56.9336 12.2891C57.1341 12.501 57.4144 12.6069 57.7744 12.6069C57.9316 12.6069 58.0889 12.5841 58.2461 12.5386C58.4056 12.4907 58.5628 12.4155 58.7178 12.313L58.9775 12.7129C58.7793 12.8405 58.5811 12.9339 58.3828 12.9932C58.1846 13.0524 57.967 13.082 57.73 13.082C57.2013 13.082 56.7889 12.9248 56.4927 12.6104C56.1965 12.2959 56.0472 11.8573 56.0449 11.2944C56.0426 10.7316 56.1908 10.2782 56.4893 9.93408C56.79 9.59001 57.1797 9.41797 57.6582 9.41797C58.1139 9.41797 58.4671 9.56722 58.7178 9.86572C58.9707 10.1619 59.0972 10.5732 59.0972 11.0996V11.3765ZM58.5229 10.9185C58.5207 10.5949 58.4421 10.3431 58.2871 10.1631C58.1322 9.98079 57.9191 9.88965 57.6479 9.88965C57.3813 9.88965 57.1546 9.98307 56.9678 10.1699C56.7832 10.3545 56.6704 10.604 56.6294 10.9185H58.5229ZM62.8535 13H62.293V11.0039C62.293 10.6325 62.2246 10.3545 62.0879 10.1699C61.9535 9.98307 61.7507 9.88965 61.4795 9.88965C61.1992 9.88965 60.9668 9.99561 60.7822 10.2075C60.5999 10.4172 60.5088 10.6826 60.5088 11.0039V13H59.9482V9.5H60.5088V10.0811H60.5225C60.6546 9.86003 60.8164 9.69482 61.0078 9.58545C61.1992 9.4738 61.4202 9.41797 61.6709 9.41797C62.0537 9.41797 62.3465 9.54215 62.5493 9.79053C62.7521 10.0366 62.8535 10.3932 62.8535 10.8604V13ZM68.5854 9.5L67.1909 13H66.6406L65.3145 9.5H65.9297L66.8184 12.043C66.8503 12.1364 66.8765 12.2241 66.897 12.3062C66.9175 12.3859 66.9323 12.4611 66.9414 12.5317H66.9551C66.9665 12.4429 66.9813 12.3597 66.9995 12.2822C67.0177 12.2025 67.0394 12.1273 67.0645 12.0566L67.9941 9.5H68.5854ZM72.0205 13H71.46V12.4463H71.4463C71.3301 12.6582 71.182 12.8177 71.002 12.9248C70.8219 13.0296 70.61 13.082 70.3662 13.082C69.9492 13.082 69.6359 12.9578 69.4263 12.7095C69.2189 12.4611 69.1152 12.0885 69.1152 11.5918V9.5H69.6724V11.5029C69.6724 11.8721 69.743 12.1489 69.8843 12.3335C70.0256 12.5181 70.2375 12.6104 70.52 12.6104C70.7935 12.6104 71.0179 12.5101 71.1934 12.3096C71.3711 12.1068 71.46 11.8424 71.46 11.5166V9.5H72.0205V13ZM78.125 13H77.5645V10.9902C77.5645 10.6029 77.5041 10.3226 77.3833 10.1494C77.2648 9.97624 77.0643 9.88965 76.7817 9.88965C76.5425 9.88965 76.3385 9.99902 76.1699 10.2178C76.0036 10.4365 75.9204 10.6986 75.9204 11.0039V13H75.3599V10.9219C75.3599 10.5778 75.2938 10.3203 75.1616 10.1494C75.0295 9.97624 74.8301 9.88965 74.5635 9.88965C74.3174 9.88965 74.1146 9.99333 73.9551 10.2007C73.7956 10.4058 73.7158 10.6735 73.7158 11.0039V13H73.1553V9.5H73.7158V10.0537H73.7295C73.8548 9.8418 74.0075 9.68343 74.1875 9.57861C74.3698 9.47152 74.5794 9.41797 74.8164 9.41797C75.0557 9.41797 75.2642 9.48519 75.4419 9.61963C75.6196 9.75179 75.7415 9.92611 75.8076 10.1426C75.9375 9.90104 76.0993 9.71989 76.293 9.59912C76.4867 9.47835 76.7122 9.41797 76.9697 9.41797C77.3548 9.41797 77.6431 9.53646 77.8345 9.77344C78.0282 10.0104 78.125 10.367 78.125 10.8433V13Z" fill="white" fill-opacity="0.786"/>
<path d="M39.2275 25H37.96V20.0854C37.96 19.8634 37.9653 19.6217 37.9761 19.3604C37.9904 19.0954 38.0083 18.8143 38.0298 18.5171H37.9976C37.9546 18.7212 37.9134 18.8966 37.874 19.0435C37.8382 19.1867 37.8024 19.3013 37.7666 19.3872L35.5054 25H34.6245L32.3525 19.4355C32.3239 19.3568 32.2881 19.2404 32.2451 19.0864C32.2057 18.9325 32.1628 18.7427 32.1162 18.5171H32.084C32.1055 18.7749 32.1198 19.0488 32.127 19.3389C32.1341 19.6253 32.1377 19.9279 32.1377 20.2466V25H30.9561V17.2979H32.7607L34.7642 22.3037C34.8429 22.4935 34.9074 22.6689 34.9575 22.8301C35.0112 22.9876 35.0524 23.1344 35.0811 23.2705H35.1133C35.1777 23.0664 35.2386 22.882 35.2959 22.7173C35.3532 22.5526 35.4069 22.4093 35.457 22.2876L37.4873 17.2979H39.2275V25ZM41.6177 18.4365C41.3885 18.4365 41.1987 18.3631 41.0483 18.2163C40.8979 18.0695 40.8228 17.8887 40.8228 17.6738C40.8228 17.4518 40.8979 17.2692 41.0483 17.126C41.1987 16.9827 41.3885 16.9111 41.6177 16.9111C41.8504 16.9111 42.042 16.9827 42.1924 17.126C42.3428 17.2692 42.418 17.4518 42.418 17.6738C42.418 17.8923 42.3428 18.0749 42.1924 18.2217C42.042 18.3649 41.8504 18.4365 41.6177 18.4365ZM42.2354 25H40.9839V19.5H42.2354V25ZM47.9824 24.6616C47.7103 24.8263 47.4399 24.9445 47.1714 25.0161C46.9028 25.0913 46.611 25.1289 46.2959 25.1289C45.4508 25.1289 44.7741 24.8818 44.2656 24.3877C43.7607 23.8936 43.5083 23.2222 43.5083 22.3735C43.5083 21.4604 43.7697 20.7318 44.2925 20.1875C44.8188 19.6432 45.5278 19.3711 46.4194 19.3711C46.731 19.3711 47.0138 19.4051 47.2681 19.4731C47.5259 19.5376 47.7873 19.645 48.0522 19.7954L47.5635 20.6655C47.3773 20.5617 47.1947 20.4865 47.0156 20.4399C46.8366 20.3898 46.6414 20.3647 46.4302 20.3647C45.9038 20.3647 45.4974 20.5384 45.2109 20.8857C44.9245 21.2331 44.7812 21.6932 44.7812 22.2661C44.7812 22.8677 44.9352 23.3296 45.2432 23.6519C45.5547 23.9741 45.945 24.1353 46.4141 24.1353C46.5573 24.1353 46.722 24.1102 46.9082 24.0601C47.0944 24.0063 47.2824 23.9222 47.4722 23.8076L47.9824 24.6616ZM52.1021 20.5474C52.034 20.5295 51.9678 20.5169 51.9033 20.5098C51.8424 20.499 51.7708 20.4937 51.6885 20.4937C51.2409 20.4937 50.8971 20.6584 50.6572 20.9878C50.4173 21.3172 50.2974 21.7469 50.2974 22.2769V25H49.0459V19.5H50.2974V20.5581H50.3188C50.4478 20.1785 50.6375 19.8921 50.8882 19.6987C51.1388 19.5018 51.4342 19.4033 51.7744 19.4033C51.8711 19.4033 51.957 19.4087 52.0322 19.4194C52.111 19.4302 52.1862 19.4463 52.2578 19.4678L52.1021 20.5474ZM55.5557 25.1289C54.6963 25.1289 54.0142 24.8729 53.5093 24.3608C53.008 23.8452 52.7573 23.1559 52.7573 22.293C52.7609 21.3799 53.0223 20.6655 53.5415 20.1499C54.0607 19.6307 54.7679 19.3711 55.6631 19.3711C56.526 19.3675 57.1992 19.6217 57.6826 20.1338C58.1696 20.6423 58.4131 21.3315 58.4131 22.2017C58.4131 23.0968 58.1553 23.8094 57.6396 24.3394C57.1276 24.8657 56.4329 25.1289 55.5557 25.1289ZM55.6147 24.1353C56.1125 24.1353 56.4902 23.9723 56.748 23.6465C57.0094 23.3206 57.1401 22.8498 57.1401 22.2339C57.1401 21.6252 57.0094 21.1615 56.748 20.8428C56.4867 20.5241 56.1071 20.3647 55.6094 20.3647C55.1188 20.3647 54.7321 20.533 54.4492 20.8696C54.1699 21.2062 54.0303 21.6717 54.0303 22.2661C54.0303 22.8641 54.1699 23.326 54.4492 23.6519C54.7285 23.9741 55.117 24.1353 55.6147 24.1353ZM59.1543 24.5596L59.6968 23.6787C59.9116 23.8291 60.139 23.9508 60.3789 24.0439C60.6224 24.1335 60.8856 24.1782 61.1685 24.1782C61.4764 24.1782 61.7145 24.1227 61.8828 24.0117C62.0547 23.8971 62.1406 23.7271 62.1406 23.5015C62.1406 23.3224 62.069 23.1738 61.9258 23.0557C61.7861 22.9339 61.5462 22.8337 61.2061 22.7549C60.5186 22.5938 60.0352 22.3807 59.7559 22.1157C59.4801 21.8507 59.3423 21.5016 59.3423 21.0684C59.3423 20.5706 59.5356 20.1642 59.9224 19.8491C60.3091 19.5304 60.8158 19.3711 61.4424 19.3711C61.7539 19.3711 62.0511 19.4123 62.334 19.4946C62.6169 19.5734 62.8926 19.7005 63.1611 19.876L62.6562 20.7354C62.4199 20.585 62.2033 20.4775 62.0063 20.4131C61.8094 20.3486 61.6071 20.3164 61.3994 20.3164C61.1058 20.3164 60.8766 20.3719 60.7119 20.4829C60.5508 20.5903 60.4702 20.7407 60.4702 20.9341C60.4702 21.1382 60.5526 21.2904 60.7173 21.3906C60.8856 21.4873 61.1667 21.5822 61.5605 21.6753C62.1549 21.8185 62.59 22.0262 62.8657 22.2983C63.1414 22.5669 63.2793 22.9268 63.2793 23.3779C63.2793 23.9115 63.0841 24.3376 62.6938 24.6562C62.3071 24.9714 61.7826 25.1289 61.1201 25.1289C60.762 25.1289 60.4183 25.0824 60.0889 24.9893C59.763 24.8926 59.4515 24.7493 59.1543 24.5596ZM66.8779 25.1289C66.0186 25.1289 65.3364 24.8729 64.8315 24.3608C64.3302 23.8452 64.0796 23.1559 64.0796 22.293C64.0832 21.3799 64.3446 20.6655 64.8638 20.1499C65.383 19.6307 66.0902 19.3711 66.9854 19.3711C67.8483 19.3675 68.5215 19.6217 69.0049 20.1338C69.4919 20.6423 69.7354 21.3315 69.7354 22.2017C69.7354 23.0968 69.4775 23.8094 68.9619 24.3394C68.4499 24.8657 67.7552 25.1289 66.8779 25.1289ZM66.937 24.1353C67.4347 24.1353 67.8125 23.9723 68.0703 23.6465C68.3317 23.3206 68.4624 22.8498 68.4624 22.2339C68.4624 21.6252 68.3317 21.1615 68.0703 20.8428C67.8089 20.5241 67.4294 20.3647 66.9316 20.3647C66.4411 20.3647 66.0544 20.533 65.7715 20.8696C65.4922 21.2062 65.3525 21.6717 65.3525 22.2661C65.3525 22.8641 65.4922 23.326 65.7715 23.6519C66.0508 23.9741 66.4393 24.1353 66.937 24.1353ZM73.9839 17.8403C73.8836 17.8009 73.7923 17.7741 73.71 17.7598C73.6276 17.7419 73.5381 17.7329 73.4414 17.7329C73.1764 17.7329 72.9759 17.8099 72.8398 17.9639C72.7074 18.1143 72.6411 18.3327 72.6411 18.6191V19.5H73.9141V20.4775H72.6411V25H71.395V20.4775H70.4604V19.5H71.395V18.5547C71.395 17.9961 71.5741 17.5539 71.9321 17.228C72.2938 16.8986 72.7718 16.7339 73.3662 16.7339C73.5524 16.7339 73.7135 16.7464 73.8496 16.7715C73.9857 16.7965 74.1271 16.8324 74.2739 16.8789L73.9839 17.8403ZM77.7974 24.9248C77.6362 24.9928 77.4679 25.043 77.2925 25.0752C77.117 25.1074 76.929 25.1235 76.7285 25.1235C76.2201 25.1235 75.828 24.9893 75.5522 24.7207C75.2801 24.4486 75.144 24.0439 75.144 23.5068V20.4775H74.2202V19.5H75.144V18.1626L76.3901 17.7866V19.5H77.7061V20.4775H76.3901V23.4048C76.3901 23.6733 76.4385 23.8667 76.5352 23.9849C76.6354 24.103 76.7894 24.1621 76.9971 24.1621C77.0973 24.1621 77.1922 24.1514 77.2817 24.1299C77.3748 24.1048 77.4572 24.0744 77.5288 24.0386L77.7974 24.9248ZM81.2939 24.4468L81.8633 23.4639C82.2106 23.6787 82.5347 23.8309 82.8354 23.9204C83.1362 24.0063 83.4728 24.0493 83.8452 24.0493C84.2892 24.0493 84.6383 23.9544 84.8926 23.7646C85.1504 23.5713 85.2793 23.2956 85.2793 22.9375C85.2793 22.6117 85.1719 22.3556 84.957 22.1694C84.7458 21.9797 84.3859 21.806 83.8774 21.6484C83.0933 21.4157 82.5168 21.1274 82.1479 20.7837C81.7791 20.4399 81.5947 19.9744 81.5947 19.3872C81.5947 18.7498 81.8328 18.2217 82.3091 17.8027C82.7853 17.3802 83.4316 17.1689 84.248 17.1689C84.6061 17.1689 84.9588 17.2083 85.3062 17.2871C85.6535 17.3659 85.9972 17.4876 86.3374 17.6523L85.8594 18.6729C85.5622 18.5189 85.2775 18.4097 85.0054 18.3452C84.7368 18.2808 84.4629 18.2485 84.1836 18.2485C83.7754 18.2485 83.4531 18.3381 83.2168 18.5171C82.984 18.6961 82.8677 18.9486 82.8677 19.2744C82.8677 19.5645 82.9751 19.7936 83.1899 19.9619C83.4048 20.1266 83.7736 20.2896 84.2964 20.4507C85.0985 20.6906 85.675 20.9896 86.0259 21.3477C86.3804 21.7057 86.5576 22.1981 86.5576 22.8247C86.5576 23.4979 86.3177 24.0511 85.8379 24.4844C85.3581 24.9141 84.6742 25.1289 83.7861 25.1289C83.3421 25.1289 82.9089 25.0734 82.4863 24.9624C82.0638 24.8478 81.6663 24.6759 81.2939 24.4468ZM90.4409 24.9248C90.2798 24.9928 90.1115 25.043 89.936 25.0752C89.7606 25.1074 89.5726 25.1235 89.3721 25.1235C88.8636 25.1235 88.4715 24.9893 88.1958 24.7207C87.9237 24.4486 87.7876 24.0439 87.7876 23.5068V20.4775H86.8638V19.5H87.7876V18.1626L89.0337 17.7866V19.5H90.3496V20.4775H89.0337V23.4048C89.0337 23.6733 89.082 23.8667 89.1787 23.9849C89.279 24.103 89.4329 24.1621 89.6406 24.1621C89.7409 24.1621 89.8358 24.1514 89.9253 24.1299C90.0184 24.1048 90.1007 24.0744 90.1724 24.0386L90.4409 24.9248ZM93.8623 25.1289C93.0029 25.1289 92.3208 24.8729 91.8159 24.3608C91.3146 23.8452 91.064 23.1559 91.064 22.293C91.0675 21.3799 91.3289 20.6655 91.8481 20.1499C92.3674 19.6307 93.0745 19.3711 93.9697 19.3711C94.8327 19.3675 95.5059 19.6217 95.9893 20.1338C96.4762 20.6423 96.7197 21.3315 96.7197 22.2017C96.7197 23.0968 96.4619 23.8094 95.9463 24.3394C95.4342 24.8657 94.7396 25.1289 93.8623 25.1289ZM93.9214 24.1353C94.4191 24.1353 94.7969 23.9723 95.0547 23.6465C95.3161 23.3206 95.4468 22.8498 95.4468 22.2339C95.4468 21.6252 95.3161 21.1615 95.0547 20.8428C94.7933 20.5241 94.4137 20.3647 93.916 20.3647C93.4255 20.3647 93.0387 20.533 92.7559 20.8696C92.4766 21.2062 92.3369 21.6717 92.3369 22.2661C92.3369 22.8641 92.4766 23.326 92.7559 23.6519C93.0352 23.9741 93.4237 24.1353 93.9214 24.1353ZM101.054 20.5474C100.986 20.5295 100.92 20.5169 100.855 20.5098C100.795 20.499 100.723 20.4937 100.641 20.4937C100.193 20.4937 99.8493 20.6584 99.6094 20.9878C99.3695 21.3172 99.2495 21.7469 99.2495 22.2769V25H97.998V19.5H99.2495V20.5581H99.271C99.3999 20.1785 99.5897 19.8921 99.8403 19.6987C100.091 19.5018 100.386 19.4033 100.727 19.4033C100.823 19.4033 100.909 19.4087 100.984 19.4194C101.063 19.4302 101.138 19.4463 101.21 19.4678L101.054 20.5474ZM106.721 22.5776H102.966C102.988 23.0968 103.138 23.4925 103.417 23.7646C103.697 24.0332 104.087 24.1675 104.588 24.1675C104.792 24.1675 105.025 24.1263 105.287 24.0439C105.548 23.9616 105.806 23.8291 106.06 23.6465L106.624 24.4253C106.284 24.6724 105.938 24.8514 105.587 24.9624C105.236 25.0734 104.85 25.1289 104.427 25.1289C103.571 25.1289 102.905 24.8836 102.429 24.3931C101.953 23.8989 101.713 23.2096 101.709 22.3252C101.709 21.4443 101.955 20.7318 102.445 20.1875C102.939 19.6432 103.571 19.3711 104.341 19.3711C105.079 19.3711 105.659 19.6038 106.082 20.0693C106.508 20.5312 106.721 21.1865 106.721 22.0352V22.5776ZM105.512 21.7129C105.512 21.2402 105.408 20.8857 105.201 20.6494C104.997 20.4095 104.707 20.2896 104.331 20.2896C103.976 20.2896 103.674 20.4185 103.423 20.6763C103.176 20.9305 103.024 21.276 102.966 21.7129H105.512Z" fill="white"/>
<defs>
<filter id="filter0_dd_976_1841" x="11.0938" y="7.25" width="11.8125" height="5.625" filterUnits="userSpaceOnUse" color-interpolation-filters="sRGB">
<feFlood flood-opacity="0" result="BackgroundImageFix"/>
<feColorMatrix in="SourceAlpha" type="matrix" values="0 0 0 0 0 0 0 0 0 0 0 0 0 0 0 0 0 0 127 0" result="hardAlpha"/>
<feOffset dy="0.1875"/>
<feGaussianBlur stdDeviation="0.1875"/>
<feColorMatrix type="matrix" values="0 0 0 0 0 0 0 0 0 0 0 0 0 0 0 0 0 0 0.1 0"/>
<feBlend mode="normal" in2="BackgroundImageFix" result="effect1_dropShadow_976_1841"/>
<feColorMatrix in="SourceAlpha" type="matrix" values="0 0 0 0 0 0 0 0 0 0 0 0 0 0 0 0 0 0 127 0" result="hardAlpha"/>
<feOffset dy="0.375"/>
<feGaussianBlur stdDeviation="0.5625"/>
<feColorMatrix type="matrix" values="0 0 0 0 0 0 0 0 0 0 0 0 0 0 0 0 0 0 0.2 0"/>
<feBlend mode="normal" in2="effect1_dropShadow_976_1841" result="effect2_dropShadow_976_1841"/>
<feBlend mode="normal" in="SourceGraphic" in2="effect2_dropShadow_976_1841" result="shape"/>
</filter>
<filter id="filter1_dd_976_1841" x="12.2188" y="13.4375" width="9.5625" height="9.5625" filterUnits="userSpaceOnUse" color-interpolation-filters="sRGB">
<feFlood flood-opacity="0" result="BackgroundImageFix"/>
<feColorMatrix in="SourceAlpha" type="matrix" values="0 0 0 0 0 0 0 0 0 0 0 0 0 0 0 0 0 0 127 0" result="hardAlpha"/>
<feOffset dy="0.1875"/>
<feGaussianBlur stdDeviation="0.1875"/>
<feColorMatrix type="matrix" values="0 0 0 0 1 0 0 0 0 1 0 0 0 0 1 0 0 0 0.6 0"/>
<feBlend mode="normal" in2="BackgroundImageFix" result="effect1_dropShadow_976_1841"/>
<feColorMatrix in="SourceAlpha" type="matrix" values="0 0 0 0 0 0 0 0 0 0 0 0 0 0 0 0 0 0 127 0" result="hardAlpha"/>
<feOffset dy="0.375"/>
<feGaussianBlur stdDeviation="0.5625"/>
<feColorMatrix type="matrix" values="0 0 0 0 1 0 0 0 0 1 0 0 0 0 1 0 0 0 0.6 0"/>
<feBlend mode="normal" in2="effect1_dropShadow_976_1841" result="effect2_dropShadow_976_1841"/>
<feBlend mode="normal" in="SourceGraphic" in2="effect2_dropShadow_976_1841" result="shape"/>
</filter>
<filter id="filter2_dd_976_1841" x="10.5939" y="6.6875" width="12.8124" height="5.06274" filterUnits="userSpaceOnUse" color-interpolation-filters="sRGB">
<feFlood flood-opacity="0" result="BackgroundImageFix"/>
<feColorMatrix in="SourceAlpha" type="matrix" values="0 0 0 0 0 0 0 0 0 0 0 0 0 0 0 0 0 0 127 0" result="hardAlpha"/>
<feOffset dy="-0.75"/>
<feGaussianBlur stdDeviation="0.1875"/>
<feColorMatrix type="matrix" values="0 0 0 0 0 0 0 0 0 0 0 0 0 0 0 0 0 0 0.1 0"/>
<feBlend mode="normal" in2="BackgroundImageFix" result="effect1_dropShadow_976_1841"/>
<feColorMatrix in="SourceAlpha" type="matrix" values="0 0 0 0 0 0 0 0 0 0 0 0 0 0 0 0 0 0 127 0" result="hardAlpha"/>
<feOffset dy="-0.75"/>
<feGaussianBlur stdDeviation="0.5625"/>
<feColorMatrix type="matrix" values="0 0 0 0 0 0 0 0 0 0 0 0 0 0 0 0 0 0 0.2 0"/>
<feBlend mode="normal" in2="effect1_dropShadow_976_1841" result="effect2_dropShadow_976_1841"/>
<feBlend mode="normal" in="SourceGraphic" in2="effect2_dropShadow_976_1841" result="shape"/>
</filter>
<linearGradient id="paint0_linear_976_1841" x1="12.2443" y1="8.00639" x2="15.9039" y2="24.8132" gradientUnits="userSpaceOnUse">
<stop offset="0.270833" stop-color="white"/>
<stop offset="1" stop-color="#DFDFDF"/>
</linearGradient>
<linearGradient id="paint1_linear_976_1841" x1="17" y1="10.25" x2="20.3514" y2="25.9624" gradientUnits="userSpaceOnUse">
<stop stop-color="#0078D4"/>
<stop offset="1" stop-color="#114A8B"/>
</linearGradient>
<linearGradient id="paint2_linear_976_1841" x1="17" y1="8.5625" x2="17.1583" y2="10.9858" gradientUnits="userSpaceOnUse">
<stop stop-color="#28AFEA"/>
<stop offset="1" stop-color="#0078D4"/>
</linearGradient>
<linearGradient id="paint3_linear_976_1841" x1="17" y1="8.5625" x2="17.1583" y2="10.9858" gradientUnits="userSpaceOnUse">
<stop stop-color="#30DAFF"/>
<stop offset="1" stop-color="#0094D4"/>
</linearGradient>
<linearGradient id="paint4_linear_976_1841" x1="16.5938" y1="8" x2="16.5937" y2="9.125" gradientUnits="userSpaceOnUse">
<stop stop-color="#22BCFF"/>
<stop offset="1" stop-color="#0088F0"/>
</linearGradient>
<linearGradient id="paint5_linear_976_1841" x1="16.5938" y1="8" x2="16.5937" y2="9.125" gradientUnits="userSpaceOnUse">
<stop stop-color="#28AFEA"/>
<stop offset="1" stop-color="#3CCBF4"/>
</linearGradient>
<clipPath id="clip0_976_1841">
<rect width="18" height="18" fill="white" transform="translate(8 8)"/>
</clipPath>
<clipPath id="clip1_976_1841">
<rect width="18" height="18" fill="white" transform="translate(8 8)"/>
</clipPath>
</defs>
</svg>
