<svg width="90" height="32" viewBox="0 0 90 32" fill="none" xmlns="http://www.w3.org/2000/svg">
<rect x="0.5" y="0.5" width="89" height="31" rx="3.5" fill="white"/>
<path d="M15.5559 7H7V15.5608H15.5559V7Z" fill="#F25022"/>
<path d="M25.0001 7H16.4442V15.5608H25.0001V7Z" fill="#7FBA00"/>
<path d="M15.5559 16.4395H7V25.0002H15.5559V16.4395Z" fill="#00A4EF"/>
<path d="M25.0002 16.4395H16.4443V25.0002H25.0002V16.4395Z" fill="#FFB900"/>
<path d="M33.9922 12.6133C33.7109 12.7721 33.4128 12.8919 33.0977 12.9727C32.7826 13.0534 32.4505 13.0938 32.1016 13.0938C31.2734 13.0938 30.6159 12.8477 30.1289 12.3555C29.6419 11.8633 29.3984 11.1693 29.3984 10.2734C29.3984 9.36979 29.668 8.64974 30.207 8.11328C30.7487 7.57422 31.4466 7.30469 32.3008 7.30469C32.6185 7.30469 32.9102 7.33724 33.1758 7.40234C33.444 7.46484 33.7148 7.5651 33.9883 7.70312L33.7031 8.27734C33.474 8.15755 33.2487 8.07161 33.0273 8.01953C32.806 7.96745 32.5625 7.94141 32.2969 7.94141C31.6693 7.94141 31.1536 8.14062 30.75 8.53906C30.349 8.9375 30.1484 9.5 30.1484 10.2266C30.1484 10.9635 30.3255 11.5208 30.6797 11.8984C31.0365 12.2734 31.5365 12.4609 32.1797 12.4609C32.3906 12.4609 32.5872 12.4401 32.7695 12.3984C32.9544 12.3568 33.1237 12.2943 33.2773 12.2109V10.6875H32.0586V10.0547H33.9922V12.6133ZM38.2109 13H37.5195V12.3555H37.5039C37.3633 12.6003 37.1888 12.7852 36.9805 12.9102C36.7721 13.0352 36.5299 13.0977 36.2539 13.0977C35.8685 13.0977 35.5573 12.9857 35.3203 12.7617C35.0833 12.5378 34.9648 12.2422 34.9648 11.875C34.9648 11.5182 35.0846 11.2253 35.3242 10.9961C35.5638 10.7669 35.9089 10.6198 36.3594 10.5547L37.5234 10.3984V10.3047C37.5234 9.97396 37.444 9.73568 37.2852 9.58984C37.1289 9.44401 36.918 9.37109 36.6523 9.37109C36.4414 9.37109 36.2357 9.41146 36.0352 9.49219C35.8346 9.57292 35.6445 9.69401 35.4648 9.85547L35.0859 9.43359C35.3177 9.22005 35.5651 9.0625 35.8281 8.96094C36.0938 8.85677 36.3841 8.80469 36.6992 8.80469C37.1992 8.80469 37.5755 8.93359 37.8281 9.19141C38.0833 9.44922 38.2109 9.83594 38.2109 10.3516V13ZM37.5234 11.3281V10.9336L36.5469 11.0664C36.2474 11.1081 36.0234 11.1836 35.875 11.293C35.7266 11.4023 35.6523 11.5742 35.6523 11.8086C35.6523 12.0404 35.7214 12.2201 35.8594 12.3477C36 12.4753 36.1745 12.5391 36.3828 12.5391C36.7266 12.5391 37.0026 12.4258 37.2109 12.1992C37.4193 11.9701 37.5234 11.6797 37.5234 11.3281ZM42.8594 13H42.1641V12.3477H42.1484C42.0104 12.5977 41.8346 12.7852 41.6211 12.9102C41.4102 13.0352 41.1628 13.0977 40.8789 13.0977C40.3919 13.0977 40.026 12.9518 39.7812 12.6602C39.5391 12.3685 39.418 11.9323 39.418 11.3516V8.90234H40.1133V11.2461C40.1133 11.6706 40.194 11.9896 40.3555 12.2031C40.5169 12.4141 40.7604 12.5195 41.0859 12.5195C41.401 12.5195 41.6589 12.4036 41.8594 12.1719C42.0625 11.9401 42.1641 11.6354 42.1641 11.2578V8.90234H42.8594V13ZM47.6445 13H46.6914L44.918 11.0234H44.9023V13H44.207V7.07812H44.9023V10.7812H44.918L46.6016 8.90234H47.5L45.6367 10.875L47.6445 13ZM48.7188 8.03516C48.5807 8.03516 48.4661 7.98958 48.375 7.89844C48.2839 7.80729 48.2383 7.69661 48.2383 7.56641C48.2383 7.43099 48.2839 7.31901 48.375 7.23047C48.4661 7.13932 48.5807 7.09375 48.7188 7.09375C48.8568 7.09375 48.9714 7.13932 49.0625 7.23047C49.1562 7.31901 49.2031 7.43099 49.2031 7.56641C49.2031 7.69661 49.1562 7.80729 49.0625 7.89844C48.9714 7.98958 48.8568 8.03516 48.7188 8.03516ZM49.0586 13H48.3633V8.90234H49.0586V13ZM52.4648 12.9492C52.3529 12.9961 52.2409 13.0299 52.1289 13.0508C52.0195 13.0742 51.8958 13.0859 51.7578 13.0859C51.4219 13.0859 51.1589 12.9896 50.9688 12.7969C50.7812 12.6042 50.6875 12.319 50.6875 11.9414V9.48047H49.9883V8.90234H50.6875V7.96484L51.3867 7.74219V8.90234H52.4102V9.48047H51.3867V11.8672C51.3867 12.099 51.4284 12.2656 51.5117 12.3672C51.5951 12.4688 51.7201 12.5195 51.8867 12.5195C51.9648 12.5195 52.0404 12.5104 52.1133 12.4922C52.1862 12.474 52.2487 12.4518 52.3008 12.4258L52.4648 12.9492ZM56.6641 11.1094H53.7812C53.7943 11.5625 53.9154 11.9115 54.1445 12.1562C54.3737 12.3984 54.6953 12.5195 55.1094 12.5195C55.2891 12.5195 55.4727 12.4922 55.6602 12.4375C55.8503 12.3802 56.0404 12.2878 56.2305 12.1602L56.5469 12.6445C56.3099 12.8008 56.0716 12.9154 55.832 12.9883C55.5924 13.0612 55.3294 13.0977 55.043 13.0977C54.4232 13.0977 53.9401 12.9141 53.5938 12.5469C53.2474 12.1771 53.0729 11.6615 53.0703 11C53.0677 10.3411 53.2422 9.8112 53.5938 9.41016C53.9479 9.00651 54.4062 8.80469 54.9688 8.80469C55.5052 8.80469 55.9219 8.97917 56.2188 9.32812C56.5156 9.67448 56.6641 10.1576 56.6641 10.7773V11.1094ZM55.9648 10.5625C55.9622 10.1849 55.8711 9.89193 55.6914 9.68359C55.5143 9.47526 55.2695 9.37109 54.957 9.37109C54.6497 9.37109 54.3893 9.47917 54.1758 9.69531C53.9648 9.90885 53.8359 10.1979 53.7891 10.5625H55.9648ZM60.2422 8.03516C60.1042 8.03516 59.9896 7.98958 59.8984 7.89844C59.8073 7.80729 59.7617 7.69661 59.7617 7.56641C59.7617 7.43099 59.8073 7.31901 59.8984 7.23047C59.9896 7.13932 60.1042 7.09375 60.2422 7.09375C60.3802 7.09375 60.4948 7.13932 60.5859 7.23047C60.6797 7.31901 60.7266 7.43099 60.7266 7.56641C60.7266 7.69661 60.6797 7.80729 60.5859 7.89844C60.4948 7.98958 60.3802 8.03516 60.2422 8.03516ZM60.582 13H59.8867V8.90234H60.582V13ZM61.6172 12.6953L61.9414 12.1719C62.1133 12.2865 62.2839 12.3737 62.4531 12.4336C62.6224 12.4935 62.8086 12.5234 63.0117 12.5234C63.2852 12.5234 63.4935 12.474 63.6367 12.375C63.7799 12.2734 63.8516 12.1224 63.8516 11.9219C63.8516 11.7552 63.7878 11.6172 63.6602 11.5078C63.5352 11.3958 63.3372 11.3047 63.0664 11.2344C62.5586 11.1068 62.2096 10.944 62.0195 10.7461C61.8294 10.5456 61.7344 10.2969 61.7344 10C61.7344 9.65625 61.8646 9.37109 62.125 9.14453C62.388 8.91797 62.7461 8.80469 63.1992 8.80469C63.418 8.80469 63.625 8.83333 63.8203 8.89062C64.0182 8.94531 64.2174 9.03776 64.418 9.16797L64.1172 9.68359C63.9349 9.56901 63.7708 9.48958 63.625 9.44531C63.4792 9.39844 63.3307 9.375 63.1797 9.375C62.9219 9.375 62.724 9.42318 62.5859 9.51953C62.4479 9.61589 62.3789 9.75521 62.3789 9.9375C62.3789 10.1146 62.4466 10.25 62.582 10.3438C62.7174 10.4349 62.9427 10.5208 63.2578 10.6016C63.6771 10.7135 63.9896 10.8698 64.1953 11.0703C64.4036 11.2682 64.5078 11.5326 64.5078 11.8633C64.5078 12.2409 64.3711 12.5417 64.0977 12.7656C63.8268 12.987 63.457 13.0977 62.9883 13.0977C62.7331 13.0977 62.4896 13.0638 62.2578 12.9961C62.0286 12.9258 61.8151 12.8255 61.6172 12.6953ZM63.3789 8.17188H62.8203L61.9727 6.88281H62.4531L63.0898 7.76562L63.7266 6.88281H64.2227L63.3789 8.17188Z" fill="black" fill-opacity="0.8956"/>
<path d="M41.1489 16.6123C41.1489 16.3559 41.2412 16.1507 41.4259 15.9764C41.6105 15.802 41.8258 15.72 42.0823 15.72C42.3489 15.72 42.5746 15.8123 42.7489 15.9866C42.9233 16.161 43.0156 16.3764 43.0156 16.6123C43.0156 16.8584 42.9233 17.0738 42.7387 17.2379C42.5541 17.4123 42.3387 17.4943 42.072 17.4943C41.8053 17.4943 41.59 17.4123 41.4053 17.2379C41.2412 17.0636 41.1489 16.8584 41.1489 16.6123ZM42.8412 25.002H41.313V18.4892H42.8412V25.002Z" fill="black" fill-opacity="0.8956"/>
<path d="M47.4975 23.8887C47.7231 23.8887 47.9795 23.8374 48.2565 23.7348C48.5334 23.6323 48.7795 23.4887 49.0154 23.3143V24.74C48.7693 24.8836 48.4924 24.9861 48.1847 25.0579C47.877 25.1297 47.5282 25.1707 47.159 25.1707C46.2052 25.1707 45.4257 24.863 44.8205 24.2579C44.2154 23.6528 43.918 22.8733 43.918 21.94C43.918 20.8938 44.2257 20.0323 44.8411 19.3553C45.4564 18.6784 46.318 18.34 47.4462 18.34C47.7334 18.34 48.0206 18.381 48.318 18.4528C48.6154 18.5246 48.8411 18.6169 49.0154 18.7092V20.1759C48.7795 20.0015 48.5334 19.8682 48.2872 19.7759C48.0411 19.6836 47.7847 19.6323 47.5282 19.6323C46.9231 19.6323 46.4411 19.8271 46.0616 20.2169C45.6923 20.6066 45.5077 21.14 45.5077 21.8066C45.5077 22.463 45.6821 22.9759 46.0411 23.3451C46.4 23.7143 46.8821 23.8887 47.4975 23.8887Z" fill="black" fill-opacity="0.8956"/>
<path d="M53.3738 18.39C53.4969 18.39 53.6097 18.4003 53.702 18.4105C53.7943 18.431 53.8866 18.4516 53.9482 18.4721V20.0208C53.8661 19.9592 53.7533 19.908 53.5995 19.8567C53.4456 19.8054 53.261 19.7746 53.0354 19.7746C52.6559 19.7746 52.3379 19.9285 52.0815 20.2464C51.8251 20.5644 51.6918 21.0464 51.6918 21.7131V25.0054H50.1636V18.4926H51.6918V19.5182H51.7123C51.8559 19.1592 52.061 18.8823 52.3482 18.6874C52.6354 18.4926 52.9738 18.39 53.3738 18.39Z" fill="black" fill-opacity="0.8956"/>
<path d="M54.0308 21.8477C54.0308 20.7707 54.3385 19.9195 54.9436 19.2836C55.5487 18.6579 56.4 18.34 57.4769 18.34C58.4923 18.34 59.2923 18.6477 59.8667 19.2528C60.441 19.8579 60.7282 20.6784 60.7282 21.7041C60.7282 22.7605 60.4205 23.6015 59.8154 24.2271C59.2102 24.8528 58.3795 25.1605 57.3333 25.1605C56.3282 25.1605 55.5179 24.863 54.9333 24.2682C54.3282 23.6836 54.0308 22.8733 54.0308 21.8477ZM55.6308 21.7964C55.6308 22.4733 55.7846 22.9964 56.0923 23.3553C56.4 23.7143 56.841 23.8887 57.4154 23.8887C57.9692 23.8887 58.4 23.7143 58.6872 23.3553C58.9743 22.9964 59.1282 22.463 59.1282 21.7554C59.1282 21.0579 58.9743 20.5246 58.6769 20.1656C58.3795 19.8066 57.9487 19.6323 57.4051 19.6323C56.841 19.6323 56.4102 19.8169 56.0923 20.1964C55.7846 20.5759 55.6308 21.0989 55.6308 21.7964Z" fill="black" fill-opacity="0.8956"/>
<path d="M63.0053 20.2069C63.0053 20.4223 63.0771 20.5966 63.2104 20.7197C63.354 20.8428 63.6617 20.9966 64.1335 21.1915C64.7489 21.4377 65.1796 21.7146 65.4258 22.0223C65.6719 22.33 65.795 22.6992 65.795 23.13C65.795 23.7454 65.5591 24.2377 65.0873 24.6069C64.6155 24.9761 63.9796 25.1607 63.1796 25.1607C62.913 25.1607 62.6155 25.13 62.2873 25.0582C61.9591 24.9966 61.6822 24.9043 61.4565 24.812V23.3043C61.7335 23.4992 62.0309 23.653 62.3591 23.7659C62.6771 23.8787 62.9745 23.9402 63.2309 23.9402C63.5796 23.9402 63.836 23.8889 64.0001 23.7966C64.1642 23.7043 64.2463 23.5402 64.2463 23.3043C64.2463 23.0889 64.1642 22.9146 63.9899 22.771C63.8155 22.6274 63.4976 22.453 63.0155 22.2684C62.4514 22.0325 62.0514 21.7659 61.8155 21.4684C61.5796 21.171 61.4565 20.7915 61.4565 20.3402C61.4565 19.7556 61.6924 19.2735 62.154 18.8941C62.6155 18.5146 63.2206 18.33 63.9694 18.33C64.195 18.33 64.4514 18.3505 64.7386 18.4018C65.0258 18.453 65.2617 18.5146 65.4463 18.5966V20.053C65.2412 19.9197 65.0053 19.8069 64.7386 19.7043C64.4719 19.612 64.195 19.5607 63.9386 19.5607C63.6514 19.5607 63.4155 19.6223 63.2617 19.7351C63.0873 19.8479 63.0053 20.012 63.0053 20.2069Z" fill="black" fill-opacity="0.8956"/>
<path d="M66.4717 21.8477C66.4717 20.7707 66.7794 19.9195 67.3845 19.2836C67.9896 18.6579 68.8409 18.34 69.9178 18.34C70.9332 18.34 71.7332 18.6477 72.3076 19.2528C72.8819 19.8579 73.1691 20.6784 73.1691 21.7041C73.1691 22.7605 72.8614 23.6015 72.2563 24.2271C71.6512 24.8528 70.8204 25.1605 69.7742 25.1605C68.7691 25.1605 67.9589 24.863 67.3742 24.2682C66.7691 23.6836 66.4717 22.8733 66.4717 21.8477ZM68.0614 21.7964C68.0614 22.4733 68.2153 22.9964 68.523 23.3554C68.8307 23.7143 69.2717 23.8887 69.846 23.8887C70.3999 23.8887 70.8307 23.7143 71.1178 23.3554C71.405 22.9964 71.5589 22.463 71.5589 21.7554C71.5589 21.0579 71.405 20.5246 71.1076 20.1656C70.8101 19.8066 70.3794 19.6323 69.8358 19.6323C69.2717 19.6323 68.8409 19.8169 68.523 20.1964C68.2153 20.5759 68.0614 21.0989 68.0614 21.7964Z" fill="black" fill-opacity="0.8956"/>
<path d="M78.2258 19.7523V23.0959C78.2258 23.7933 78.3899 24.3062 78.7079 24.6549C79.0258 25.0036 79.5181 25.1677 80.1643 25.1677C80.3797 25.1677 80.6053 25.1472 80.8309 25.0959C81.0566 25.0446 81.2207 25.0036 81.313 24.9421V23.6703C81.2207 23.7318 81.1079 23.7831 80.9848 23.8241C80.8617 23.8651 80.7489 23.8857 80.6668 23.8857C80.3591 23.8857 80.1232 23.8036 79.9797 23.6395C79.8361 23.4754 79.7643 23.1882 79.7643 22.7882V19.7421H81.3232V18.4908H79.7745V16.5626L78.2361 17.0344V18.501H75.9489V17.7113C75.9489 17.3215 76.0309 17.0241 76.2053 16.819C76.3796 16.6139 76.6258 16.5215 76.9438 16.5215C77.1079 16.5215 77.2514 16.5421 77.3848 16.5831C77.5079 16.6241 77.6002 16.6651 77.6514 16.6959V15.3728C77.5386 15.3318 77.4155 15.3113 77.272 15.2908C77.1284 15.2703 76.9643 15.26 76.7797 15.26C76.0822 15.26 75.5079 15.4754 75.0668 15.9164C74.6258 16.3574 74.4002 16.9113 74.4002 17.5985V18.501H73.313V19.7523H74.4002V25.0139H75.9489V19.7523H78.2258V19.7523Z" fill="black" fill-opacity="0.8956"/>
<path d="M39.8359 15.92V25.0072H38.2564V17.8893H38.2359L35.4154 25.0072H34.3692L31.4769 17.8893H31.4564V25.0072H30V15.92H32.2564L34.8718 22.6585H34.9128L37.6718 15.92H39.8359Z" fill="black" fill-opacity="0.8956"/>
<rect x="0.5" y="0.5" width="89" height="31" rx="3.5" stroke="url(#paint0_linear_1602_27650)"/>
<defs>
<linearGradient id="paint0_linear_1602_27650" x1="45" y1="1" x2="45" y2="31" gradientUnits="userSpaceOnUse">
<stop offset="0.905762" stop-opacity="0.0578"/>
<stop offset="1" stop-opacity="0.1622"/>
</linearGradient>
</defs>
</svg>
