<svg width="116" height="34" viewBox="0 0 116 34" fill="none" xmlns="http://www.w3.org/2000/svg">
<rect x="1" y="1" width="114" height="32" rx="4" fill="#FDFDFD"/>
<rect x="0.5" y="0.5" width="115" height="33" rx="4.5" stroke="black" stroke-opacity="0.0578"/>
<g clip-path="url(#clip0_976_1850)">
<g clip-path="url(#clip1_976_1850)">
<path d="M8.28125 11C8.28125 10.5858 8.61704 10.25 9.03125 10.25H24.9687C25.383 10.25 25.7188 10.5858 25.7188 11V22.3438C25.7188 24.0524 24.3336 25.4375 22.625 25.4375H11.375C9.66637 25.4375 8.28125 24.0524 8.28125 22.3438V11Z" fill="url(#paint0_linear_976_1850)"/>
<mask id="mask0_976_1850" style="mask-type:alpha" maskUnits="userSpaceOnUse" x="8" y="10" width="18" height="16">
<path d="M8.28125 11C8.28125 10.5858 8.61704 10.25 9.03125 10.25H24.9687C25.383 10.25 25.7188 10.5858 25.7188 11V22.3438C25.7188 24.0524 24.3336 25.4375 22.625 25.4375H11.375C9.66637 25.4375 8.28125 24.0524 8.28125 22.3438V11Z" fill="url(#paint1_linear_976_1850)"/>
</mask>
<g mask="url(#mask0_976_1850)">
<g filter="url(#filter0_dd_976_1850)">
<path d="M12.7812 10.8125V8.5625H21.2187V10.8125" stroke="url(#paint2_linear_976_1850)" stroke-width="1.125" stroke-linecap="round"/>
</g>
</g>
<g filter="url(#filter1_dd_976_1850)">
<path d="M16.719 14.1875H13.344V17.5625H16.719V14.1875Z" fill="#F25022"/>
<path d="M20.6562 14.1875H17.2812V17.5625H20.6562V14.1875Z" fill="#7FBA00"/>
<path d="M20.6562 18.125H17.2812V21.5H20.6562V18.125Z" fill="#FFB900"/>
<path d="M16.7188 18.125H13.3438V21.5H16.7188V18.125Z" fill="#00A4EF"/>
</g>
<path d="M12.7812 10.8125V9.125C12.7812 8.81434 13.0331 8.5625 13.3438 8.5625H20.6563C20.9669 8.5625 21.2188 8.81434 21.2188 9.125V10.8125" stroke="url(#paint3_linear_976_1850)" stroke-width="1.125" stroke-linecap="round"/>
<rect x="13.3438" y="8" width="7.3125" height="1.125" fill="url(#paint4_linear_976_1850)"/>
<mask id="mask1_976_1850" style="mask-type:alpha" maskUnits="userSpaceOnUse" x="13" y="8" width="8" height="2">
<rect x="13.3438" y="8" width="7.3125" height="1.125" fill="url(#paint5_linear_976_1850)"/>
</mask>
<g mask="url(#mask1_976_1850)">
<g filter="url(#filter2_dd_976_1850)">
<rect x="11.7189" y="8.56274" width="1.625" height="2.8125" fill="#C4C4C4"/>
</g>
</g>
</g>
</g>
<path d="M33.5342 8.61816H32.1191V13H31.5449V8.61816H30.1333V8.09863H33.5342V8.61816ZM34.4092 13V9.5H34.9697V13H34.4092ZM35.5405 8.83691H33.8384V8.42676H35.5405V8.83691ZM39.0098 13H38.2236L36.6787 11.3184H36.665V13H36.1045V7.81836H36.665V11.103H36.6787L38.1484 9.5H38.8833L37.2598 11.1885L39.0098 13ZM39.8711 8.6626C39.7572 8.6626 39.6615 8.625 39.584 8.5498C39.5065 8.47233 39.4678 8.37777 39.4678 8.26611C39.4678 8.15446 39.5065 8.06104 39.584 7.98584C39.6615 7.90837 39.7572 7.86963 39.8711 7.86963C39.985 7.86963 40.0807 7.90837 40.1582 7.98584C40.2357 8.06104 40.2744 8.15446 40.2744 8.26611C40.2744 8.37777 40.2357 8.47233 40.1582 8.5498C40.0807 8.625 39.985 8.6626 39.8711 8.6626ZM40.1445 13H39.584V9.5H40.1445V13ZM44.1846 13H43.624V11.0039C43.624 10.6325 43.5557 10.3545 43.4189 10.1699C43.2845 9.98307 43.0817 9.88965 42.8105 9.88965C42.5303 9.88965 42.2979 9.99561 42.1133 10.2075C41.931 10.4172 41.8398 10.6826 41.8398 11.0039V13H41.2793V9.5H41.8398V10.0811H41.8535C41.9857 9.86003 42.1475 9.69482 42.3389 9.58545C42.5303 9.4738 42.7513 9.41797 43.002 9.41797C43.3848 9.41797 43.6776 9.54215 43.8804 9.79053C44.0832 10.0366 44.1846 10.3932 44.1846 10.8604V13ZM47.7222 13H47.1616V12.4531H47.1479C47.0272 12.6628 46.8779 12.82 46.7002 12.9248C46.5247 13.0296 46.3197 13.082 46.085 13.082C45.7568 13.082 45.4914 12.9863 45.2886 12.7949C45.0858 12.6035 44.9844 12.3494 44.9844 12.0327C44.9844 11.7342 45.0869 11.487 45.292 11.291C45.4971 11.0951 45.7876 10.9697 46.1636 10.915L47.1616 10.7817V10.7031C47.1616 10.4092 47.0933 10.2007 46.9565 10.0776C46.8198 9.95231 46.6375 9.88965 46.4097 9.88965C46.2274 9.88965 46.0519 9.92383 45.8833 9.99219C45.7147 10.0605 45.5563 10.1654 45.4082 10.3066L45.0801 9.96826C45.276 9.77913 45.4845 9.64014 45.7056 9.55127C45.9266 9.4624 46.1727 9.41797 46.4438 9.41797C46.8677 9.41797 47.1867 9.52734 47.4009 9.74609C47.6151 9.96257 47.7222 10.2884 47.7222 10.7236V13ZM47.1616 11.5781V11.2295L46.3174 11.3457C46.0599 11.3822 45.8662 11.4471 45.7363 11.5405C45.6064 11.634 45.5415 11.7809 45.5415 11.9814C45.5415 12.1911 45.6019 12.3517 45.7227 12.4634C45.8457 12.5728 45.995 12.6274 46.1704 12.6274C46.4735 12.6274 46.7139 12.5283 46.8916 12.3301C47.0716 12.1318 47.1616 11.8812 47.1616 11.5781ZM53.2046 13H52.644V12.4531H52.6304C52.5096 12.6628 52.3604 12.82 52.1826 12.9248C52.0072 13.0296 51.8021 13.082 51.5674 13.082C51.2393 13.082 50.9738 12.9863 50.771 12.7949C50.5682 12.6035 50.4668 12.3494 50.4668 12.0327C50.4668 11.7342 50.5693 11.487 50.7744 11.291C50.9795 11.0951 51.27 10.9697 51.646 10.915L52.644 10.7817V10.7031C52.644 10.4092 52.5757 10.2007 52.439 10.0776C52.3022 9.95231 52.12 9.88965 51.8921 9.88965C51.7098 9.88965 51.5343 9.92383 51.3657 9.99219C51.1971 10.0605 51.0387 10.1654 50.8906 10.3066L50.5625 9.96826C50.7585 9.77913 50.967 9.64014 51.188 9.55127C51.409 9.4624 51.6551 9.41797 51.9263 9.41797C52.3501 9.41797 52.6691 9.52734 52.8833 9.74609C53.0975 9.96257 53.2046 10.2884 53.2046 10.7236V13ZM52.644 11.5781V11.2295L51.7998 11.3457C51.5423 11.3822 51.3486 11.4471 51.2188 11.5405C51.0889 11.634 51.0239 11.7809 51.0239 11.9814C51.0239 12.1911 51.0843 12.3517 51.2051 12.4634C51.3281 12.5728 51.4774 12.6274 51.6528 12.6274C51.9559 12.6274 52.1963 12.5283 52.374 12.3301C52.554 12.1318 52.644 11.8812 52.644 11.5781ZM57.1934 13H56.4072L54.8623 11.3184H54.8486V13H54.2881V7.81836H54.8486V11.103H54.8623L56.332 9.5H57.0669L55.4434 11.1885L57.1934 13ZM60.5806 11.3765H58.106C58.1151 11.7707 58.2188 12.0749 58.417 12.2891C58.6175 12.501 58.8978 12.6069 59.2578 12.6069C59.415 12.6069 59.5723 12.5841 59.7295 12.5386C59.889 12.4907 60.0462 12.4155 60.2012 12.313L60.4609 12.7129C60.2627 12.8405 60.0645 12.9339 59.8662 12.9932C59.668 13.0524 59.4504 13.082 59.2134 13.082C58.6847 13.082 58.2723 12.9248 57.9761 12.6104C57.6799 12.2959 57.5306 11.8573 57.5283 11.2944C57.526 10.7316 57.6742 10.2782 57.9727 9.93408C58.2734 9.59001 58.6631 9.41797 59.1416 9.41797C59.5973 9.41797 59.9505 9.56722 60.2012 9.86572C60.4541 10.1619 60.5806 10.5732 60.5806 11.0996V11.3765ZM60.0063 10.9185C60.0041 10.5949 59.9255 10.3431 59.7705 10.1631C59.6156 9.98079 59.4025 9.88965 59.1313 9.88965C58.8647 9.88965 58.638 9.98307 58.4512 10.1699C58.2666 10.3545 58.1538 10.604 58.1128 10.9185H60.0063ZM68.3223 13H67.7617V10.9902C67.7617 10.6029 67.7013 10.3226 67.5806 10.1494C67.4621 9.97624 67.2616 9.88965 66.979 9.88965C66.7397 9.88965 66.5358 9.99902 66.3672 10.2178C66.2008 10.4365 66.1177 10.6986 66.1177 11.0039V13H65.5571V10.9219C65.5571 10.5778 65.491 10.3203 65.3589 10.1494C65.2267 9.97624 65.0273 9.88965 64.7607 9.88965C64.5146 9.88965 64.3118 9.99333 64.1523 10.2007C63.9928 10.4058 63.9131 10.6735 63.9131 11.0039V13H63.3525V9.5H63.9131V10.0537H63.9268C64.0521 9.8418 64.2048 9.68343 64.3848 9.57861C64.5671 9.47152 64.7767 9.41797 65.0137 9.41797C65.2529 9.41797 65.4614 9.48519 65.6392 9.61963C65.8169 9.75179 65.9388 9.92611 66.0049 10.1426C66.1348 9.90104 66.2965 9.71989 66.4902 9.59912C66.6839 9.47835 66.9095 9.41797 67.167 9.41797C67.5521 9.41797 67.8403 9.53646 68.0317 9.77344C68.2254 10.0104 68.3223 10.367 68.3223 10.8433V13ZM71.8599 13H71.2993V12.4531H71.2856C71.1649 12.6628 71.0156 12.82 70.8379 12.9248C70.6624 13.0296 70.4574 13.082 70.2227 13.082C69.8945 13.082 69.6291 12.9863 69.4263 12.7949C69.2235 12.6035 69.1221 12.3494 69.1221 12.0327C69.1221 11.7342 69.2246 11.487 69.4297 11.291C69.6348 11.0951 69.9253 10.9697 70.3013 10.915L71.2993 10.7817V10.7031C71.2993 10.4092 71.231 10.2007 71.0942 10.0776C70.9575 9.95231 70.7752 9.88965 70.5474 9.88965C70.3651 9.88965 70.1896 9.92383 70.021 9.99219C69.8524 10.0605 69.694 10.1654 69.5459 10.3066L69.2178 9.96826C69.4137 9.77913 69.6222 9.64014 69.8433 9.55127C70.0643 9.4624 70.3104 9.41797 70.5815 9.41797C71.0054 9.41797 71.3244 9.52734 71.5386 9.74609C71.7528 9.96257 71.8599 10.2884 71.8599 10.7236V13ZM71.2993 11.5781V11.2295L70.4551 11.3457C70.1976 11.3822 70.0039 11.4471 69.874 11.5405C69.7441 11.634 69.6792 11.7809 69.6792 11.9814C69.6792 12.1911 69.7396 12.3517 69.8604 12.4634C69.9834 12.5728 70.1326 12.6274 70.3081 12.6274C70.6112 12.6274 70.8516 12.5283 71.0293 12.3301C71.2093 12.1318 71.2993 11.8812 71.2993 11.5781ZM73.2305 8.6626C73.1165 8.6626 73.0208 8.625 72.9434 8.5498C72.8659 8.47233 72.8271 8.37777 72.8271 8.26611C72.8271 8.15446 72.8659 8.06104 72.9434 7.98584C73.0208 7.90837 73.1165 7.86963 73.2305 7.86963C73.3444 7.86963 73.4401 7.90837 73.5176 7.98584C73.5951 8.06104 73.6338 8.15446 73.6338 8.26611C73.6338 8.37777 73.5951 8.47233 73.5176 8.5498C73.4401 8.625 73.3444 8.6626 73.2305 8.6626ZM73.5039 13H72.9434V9.5H73.5039V13ZM76.8467 8.6626C76.7327 8.6626 76.637 8.625 76.5596 8.5498C76.4821 8.47233 76.4434 8.37777 76.4434 8.26611C76.4434 8.15446 76.4821 8.06104 76.5596 7.98584C76.637 7.90837 76.7327 7.86963 76.8467 7.86963C76.9606 7.86963 77.0563 7.90837 77.1338 7.98584C77.2113 8.06104 77.25 8.15446 77.25 8.26611C77.25 8.37777 77.2113 8.47233 77.1338 8.5498C77.0563 8.625 76.9606 8.6626 76.8467 8.6626ZM77.1201 13H76.5596V9.5H77.1201V13ZM81.8438 12.959C81.748 12.9977 81.6535 13.0262 81.5601 13.0444C81.4689 13.0649 81.3652 13.0752 81.249 13.0752C80.971 13.0752 80.7523 12.9943 80.5928 12.8325C80.4355 12.6685 80.3569 12.4269 80.3569 12.1079V9.97852H79.7554V9.5H80.3569V8.64551L80.9175 8.46436V9.5H81.7993V9.97852H80.9175V12.043C80.9175 12.2435 80.9528 12.3882 81.0234 12.4771C81.0964 12.5659 81.2046 12.6104 81.3481 12.6104C81.4165 12.6104 81.4826 12.6024 81.5464 12.5864C81.6102 12.5705 81.6637 12.5522 81.707 12.5317L81.8438 12.959ZM85.3608 11.3765H82.8862C82.8953 11.7707 82.999 12.0749 83.1973 12.2891C83.3978 12.501 83.6781 12.6069 84.0381 12.6069C84.1953 12.6069 84.3525 12.5841 84.5098 12.5386C84.6693 12.4907 84.8265 12.4155 84.9814 12.313L85.2412 12.7129C85.043 12.8405 84.8447 12.9339 84.6465 12.9932C84.4482 13.0524 84.2306 13.082 83.9937 13.082C83.465 13.082 83.0526 12.9248 82.7563 12.6104C82.4601 12.2959 82.3109 11.8573 82.3086 11.2944C82.3063 10.7316 82.4544 10.2782 82.7529 9.93408C83.0537 9.59001 83.4434 9.41797 83.9219 9.41797C84.3776 9.41797 84.7308 9.56722 84.9814 9.86572C85.2344 10.1619 85.3608 10.5732 85.3608 11.0996V11.3765ZM84.7866 10.9185C84.7843 10.5949 84.7057 10.3431 84.5508 10.1631C84.3958 9.98079 84.1828 9.88965 83.9116 9.88965C83.645 9.88965 83.4183 9.98307 83.2314 10.1699C83.0469 10.3545 82.9341 10.604 82.8931 10.9185H84.7866Z" fill="black" fill-opacity="0.6063"/>
<path d="M39.2275 25H37.96V20.0854C37.96 19.8634 37.9653 19.6217 37.9761 19.3604C37.9904 19.0954 38.0083 18.8143 38.0298 18.5171H37.9976C37.9546 18.7212 37.9134 18.8966 37.874 19.0435C37.8382 19.1867 37.8024 19.3013 37.7666 19.3872L35.5054 25H34.6245L32.3525 19.4355C32.3239 19.3568 32.2881 19.2404 32.2451 19.0864C32.2057 18.9325 32.1628 18.7427 32.1162 18.5171H32.084C32.1055 18.7749 32.1198 19.0488 32.127 19.3389C32.1341 19.6253 32.1377 19.9279 32.1377 20.2466V25H30.9561V17.2979H32.7607L34.7642 22.3037C34.8429 22.4935 34.9074 22.6689 34.9575 22.8301C35.0112 22.9876 35.0524 23.1344 35.0811 23.2705H35.1133C35.1777 23.0664 35.2386 22.882 35.2959 22.7173C35.3532 22.5526 35.4069 22.4093 35.457 22.2876L37.4873 17.2979H39.2275V25ZM41.6177 18.4365C41.3885 18.4365 41.1987 18.3631 41.0483 18.2163C40.8979 18.0695 40.8228 17.8887 40.8228 17.6738C40.8228 17.4518 40.8979 17.2692 41.0483 17.126C41.1987 16.9827 41.3885 16.9111 41.6177 16.9111C41.8504 16.9111 42.042 16.9827 42.1924 17.126C42.3428 17.2692 42.418 17.4518 42.418 17.6738C42.418 17.8923 42.3428 18.0749 42.1924 18.2217C42.042 18.3649 41.8504 18.4365 41.6177 18.4365ZM42.2354 25H40.9839V19.5H42.2354V25ZM47.9824 24.6616C47.7103 24.8263 47.4399 24.9445 47.1714 25.0161C46.9028 25.0913 46.611 25.1289 46.2959 25.1289C45.4508 25.1289 44.7741 24.8818 44.2656 24.3877C43.7607 23.8936 43.5083 23.2222 43.5083 22.3735C43.5083 21.4604 43.7697 20.7318 44.2925 20.1875C44.8188 19.6432 45.5278 19.3711 46.4194 19.3711C46.731 19.3711 47.0138 19.4051 47.2681 19.4731C47.5259 19.5376 47.7873 19.645 48.0522 19.7954L47.5635 20.6655C47.3773 20.5617 47.1947 20.4865 47.0156 20.4399C46.8366 20.3898 46.6414 20.3647 46.4302 20.3647C45.9038 20.3647 45.4974 20.5384 45.2109 20.8857C44.9245 21.2331 44.7812 21.6932 44.7812 22.2661C44.7812 22.8677 44.9352 23.3296 45.2432 23.6519C45.5547 23.9741 45.945 24.1353 46.4141 24.1353C46.5573 24.1353 46.722 24.1102 46.9082 24.0601C47.0944 24.0063 47.2824 23.9222 47.4722 23.8076L47.9824 24.6616ZM52.1021 20.5474C52.034 20.5295 51.9678 20.5169 51.9033 20.5098C51.8424 20.499 51.7708 20.4937 51.6885 20.4937C51.2409 20.4937 50.8971 20.6584 50.6572 20.9878C50.4173 21.3172 50.2974 21.7469 50.2974 22.2769V25H49.0459V19.5H50.2974V20.5581H50.3188C50.4478 20.1785 50.6375 19.8921 50.8882 19.6987C51.1388 19.5018 51.4342 19.4033 51.7744 19.4033C51.8711 19.4033 51.957 19.4087 52.0322 19.4194C52.111 19.4302 52.1862 19.4463 52.2578 19.4678L52.1021 20.5474ZM55.5557 25.1289C54.6963 25.1289 54.0142 24.8729 53.5093 24.3608C53.008 23.8452 52.7573 23.1559 52.7573 22.293C52.7609 21.3799 53.0223 20.6655 53.5415 20.1499C54.0607 19.6307 54.7679 19.3711 55.6631 19.3711C56.526 19.3675 57.1992 19.6217 57.6826 20.1338C58.1696 20.6423 58.4131 21.3315 58.4131 22.2017C58.4131 23.0968 58.1553 23.8094 57.6396 24.3394C57.1276 24.8657 56.4329 25.1289 55.5557 25.1289ZM55.6147 24.1353C56.1125 24.1353 56.4902 23.9723 56.748 23.6465C57.0094 23.3206 57.1401 22.8498 57.1401 22.2339C57.1401 21.6252 57.0094 21.1615 56.748 20.8428C56.4867 20.5241 56.1071 20.3647 55.6094 20.3647C55.1188 20.3647 54.7321 20.533 54.4492 20.8696C54.1699 21.2062 54.0303 21.6717 54.0303 22.2661C54.0303 22.8641 54.1699 23.326 54.4492 23.6519C54.7285 23.9741 55.117 24.1353 55.6147 24.1353ZM59.1543 24.5596L59.6968 23.6787C59.9116 23.8291 60.139 23.9508 60.3789 24.0439C60.6224 24.1335 60.8856 24.1782 61.1685 24.1782C61.4764 24.1782 61.7145 24.1227 61.8828 24.0117C62.0547 23.8971 62.1406 23.7271 62.1406 23.5015C62.1406 23.3224 62.069 23.1738 61.9258 23.0557C61.7861 22.9339 61.5462 22.8337 61.2061 22.7549C60.5186 22.5938 60.0352 22.3807 59.7559 22.1157C59.4801 21.8507 59.3423 21.5016 59.3423 21.0684C59.3423 20.5706 59.5356 20.1642 59.9224 19.8491C60.3091 19.5304 60.8158 19.3711 61.4424 19.3711C61.7539 19.3711 62.0511 19.4123 62.334 19.4946C62.6169 19.5734 62.8926 19.7005 63.1611 19.876L62.6562 20.7354C62.4199 20.585 62.2033 20.4775 62.0063 20.4131C61.8094 20.3486 61.6071 20.3164 61.3994 20.3164C61.1058 20.3164 60.8766 20.3719 60.7119 20.4829C60.5508 20.5903 60.4702 20.7407 60.4702 20.9341C60.4702 21.1382 60.5526 21.2904 60.7173 21.3906C60.8856 21.4873 61.1667 21.5822 61.5605 21.6753C62.1549 21.8185 62.59 22.0262 62.8657 22.2983C63.1414 22.5669 63.2793 22.9268 63.2793 23.3779C63.2793 23.9115 63.0841 24.3376 62.6938 24.6562C62.3071 24.9714 61.7826 25.1289 61.1201 25.1289C60.762 25.1289 60.4183 25.0824 60.0889 24.9893C59.763 24.8926 59.4515 24.7493 59.1543 24.5596ZM66.8779 25.1289C66.0186 25.1289 65.3364 24.8729 64.8315 24.3608C64.3302 23.8452 64.0796 23.1559 64.0796 22.293C64.0832 21.3799 64.3446 20.6655 64.8638 20.1499C65.383 19.6307 66.0902 19.3711 66.9854 19.3711C67.8483 19.3675 68.5215 19.6217 69.0049 20.1338C69.4919 20.6423 69.7354 21.3315 69.7354 22.2017C69.7354 23.0968 69.4775 23.8094 68.9619 24.3394C68.4499 24.8657 67.7552 25.1289 66.8779 25.1289ZM66.937 24.1353C67.4347 24.1353 67.8125 23.9723 68.0703 23.6465C68.3317 23.3206 68.4624 22.8498 68.4624 22.2339C68.4624 21.6252 68.3317 21.1615 68.0703 20.8428C67.8089 20.5241 67.4294 20.3647 66.9316 20.3647C66.4411 20.3647 66.0544 20.533 65.7715 20.8696C65.4922 21.2062 65.3525 21.6717 65.3525 22.2661C65.3525 22.8641 65.4922 23.326 65.7715 23.6519C66.0508 23.9741 66.4393 24.1353 66.937 24.1353ZM73.9839 17.8403C73.8836 17.8009 73.7923 17.7741 73.71 17.7598C73.6276 17.7419 73.5381 17.7329 73.4414 17.7329C73.1764 17.7329 72.9759 17.8099 72.8398 17.9639C72.7074 18.1143 72.6411 18.3327 72.6411 18.6191V19.5H73.9141V20.4775H72.6411V25H71.395V20.4775H70.4604V19.5H71.395V18.5547C71.395 17.9961 71.5741 17.5539 71.9321 17.228C72.2938 16.8986 72.7718 16.7339 73.3662 16.7339C73.5524 16.7339 73.7135 16.7464 73.8496 16.7715C73.9857 16.7965 74.1271 16.8324 74.2739 16.8789L73.9839 17.8403ZM77.7974 24.9248C77.6362 24.9928 77.4679 25.043 77.2925 25.0752C77.117 25.1074 76.929 25.1235 76.7285 25.1235C76.2201 25.1235 75.828 24.9893 75.5522 24.7207C75.2801 24.4486 75.144 24.0439 75.144 23.5068V20.4775H74.2202V19.5H75.144V18.1626L76.3901 17.7866V19.5H77.7061V20.4775H76.3901V23.4048C76.3901 23.6733 76.4385 23.8667 76.5352 23.9849C76.6354 24.103 76.7894 24.1621 76.9971 24.1621C77.0973 24.1621 77.1922 24.1514 77.2817 24.1299C77.3748 24.1048 77.4572 24.0744 77.5288 24.0386L77.7974 24.9248ZM81.2939 24.4468L81.8633 23.4639C82.2106 23.6787 82.5347 23.8309 82.8354 23.9204C83.1362 24.0063 83.4728 24.0493 83.8452 24.0493C84.2892 24.0493 84.6383 23.9544 84.8926 23.7646C85.1504 23.5713 85.2793 23.2956 85.2793 22.9375C85.2793 22.6117 85.1719 22.3556 84.957 22.1694C84.7458 21.9797 84.3859 21.806 83.8774 21.6484C83.0933 21.4157 82.5168 21.1274 82.1479 20.7837C81.7791 20.4399 81.5947 19.9744 81.5947 19.3872C81.5947 18.7498 81.8328 18.2217 82.3091 17.8027C82.7853 17.3802 83.4316 17.1689 84.248 17.1689C84.6061 17.1689 84.9588 17.2083 85.3062 17.2871C85.6535 17.3659 85.9972 17.4876 86.3374 17.6523L85.8594 18.6729C85.5622 18.5189 85.2775 18.4097 85.0054 18.3452C84.7368 18.2808 84.4629 18.2485 84.1836 18.2485C83.7754 18.2485 83.4531 18.3381 83.2168 18.5171C82.984 18.6961 82.8677 18.9486 82.8677 19.2744C82.8677 19.5645 82.9751 19.7936 83.1899 19.9619C83.4048 20.1266 83.7736 20.2896 84.2964 20.4507C85.0985 20.6906 85.675 20.9896 86.0259 21.3477C86.3804 21.7057 86.5576 22.1981 86.5576 22.8247C86.5576 23.4979 86.3177 24.0511 85.8379 24.4844C85.3581 24.9141 84.6742 25.1289 83.7861 25.1289C83.3421 25.1289 82.9089 25.0734 82.4863 24.9624C82.0638 24.8478 81.6663 24.6759 81.2939 24.4468ZM90.4409 24.9248C90.2798 24.9928 90.1115 25.043 89.936 25.0752C89.7606 25.1074 89.5726 25.1235 89.3721 25.1235C88.8636 25.1235 88.4715 24.9893 88.1958 24.7207C87.9237 24.4486 87.7876 24.0439 87.7876 23.5068V20.4775H86.8638V19.5H87.7876V18.1626L89.0337 17.7866V19.5H90.3496V20.4775H89.0337V23.4048C89.0337 23.6733 89.082 23.8667 89.1787 23.9849C89.279 24.103 89.4329 24.1621 89.6406 24.1621C89.7409 24.1621 89.8358 24.1514 89.9253 24.1299C90.0184 24.1048 90.1007 24.0744 90.1724 24.0386L90.4409 24.9248ZM93.8623 25.1289C93.0029 25.1289 92.3208 24.8729 91.8159 24.3608C91.3146 23.8452 91.064 23.1559 91.064 22.293C91.0675 21.3799 91.3289 20.6655 91.8481 20.1499C92.3674 19.6307 93.0745 19.3711 93.9697 19.3711C94.8327 19.3675 95.5059 19.6217 95.9893 20.1338C96.4762 20.6423 96.7197 21.3315 96.7197 22.2017C96.7197 23.0968 96.4619 23.8094 95.9463 24.3394C95.4342 24.8657 94.7396 25.1289 93.8623 25.1289ZM93.9214 24.1353C94.4191 24.1353 94.7969 23.9723 95.0547 23.6465C95.3161 23.3206 95.4468 22.8498 95.4468 22.2339C95.4468 21.6252 95.3161 21.1615 95.0547 20.8428C94.7933 20.5241 94.4137 20.3647 93.916 20.3647C93.4255 20.3647 93.0387 20.533 92.7559 20.8696C92.4766 21.2062 92.3369 21.6717 92.3369 22.2661C92.3369 22.8641 92.4766 23.326 92.7559 23.6519C93.0352 23.9741 93.4237 24.1353 93.9214 24.1353ZM101.054 20.5474C100.986 20.5295 100.92 20.5169 100.855 20.5098C100.795 20.499 100.723 20.4937 100.641 20.4937C100.193 20.4937 99.8493 20.6584 99.6094 20.9878C99.3695 21.3172 99.2495 21.7469 99.2495 22.2769V25H97.998V19.5H99.2495V20.5581H99.271C99.3999 20.1785 99.5897 19.8921 99.8403 19.6987C100.091 19.5018 100.386 19.4033 100.727 19.4033C100.823 19.4033 100.909 19.4087 100.984 19.4194C101.063 19.4302 101.138 19.4463 101.21 19.4678L101.054 20.5474ZM106.721 22.5776H102.966C102.988 23.0968 103.138 23.4925 103.417 23.7646C103.697 24.0332 104.087 24.1675 104.588 24.1675C104.792 24.1675 105.025 24.1263 105.287 24.0439C105.548 23.9616 105.806 23.8291 106.06 23.6465L106.624 24.4253C106.284 24.6724 105.938 24.8514 105.587 24.9624C105.236 25.0734 104.85 25.1289 104.427 25.1289C103.571 25.1289 102.905 24.8836 102.429 24.3931C101.953 23.8989 101.713 23.2096 101.709 22.3252C101.709 21.4443 101.955 20.7318 102.445 20.1875C102.939 19.6432 103.571 19.3711 104.341 19.3711C105.079 19.3711 105.659 19.6038 106.082 20.0693C106.508 20.5312 106.721 21.1865 106.721 22.0352V22.5776ZM105.512 21.7129C105.512 21.2402 105.408 20.8857 105.201 20.6494C104.997 20.4095 104.707 20.2896 104.331 20.2896C103.976 20.2896 103.674 20.4185 103.423 20.6763C103.176 20.9305 103.024 21.276 102.966 21.7129H105.512Z" fill="black" fill-opacity="0.8956"/>
<defs>
<filter id="filter0_dd_976_1850" x="11.0938" y="7.25" width="11.8125" height="5.625" filterUnits="userSpaceOnUse" color-interpolation-filters="sRGB">
<feFlood flood-opacity="0" result="BackgroundImageFix"/>
<feColorMatrix in="SourceAlpha" type="matrix" values="0 0 0 0 0 0 0 0 0 0 0 0 0 0 0 0 0 0 127 0" result="hardAlpha"/>
<feOffset dy="0.1875"/>
<feGaussianBlur stdDeviation="0.1875"/>
<feColorMatrix type="matrix" values="0 0 0 0 0 0 0 0 0 0 0 0 0 0 0 0 0 0 0.1 0"/>
<feBlend mode="normal" in2="BackgroundImageFix" result="effect1_dropShadow_976_1850"/>
<feColorMatrix in="SourceAlpha" type="matrix" values="0 0 0 0 0 0 0 0 0 0 0 0 0 0 0 0 0 0 127 0" result="hardAlpha"/>
<feOffset dy="0.375"/>
<feGaussianBlur stdDeviation="0.5625"/>
<feColorMatrix type="matrix" values="0 0 0 0 0 0 0 0 0 0 0 0 0 0 0 0 0 0 0.2 0"/>
<feBlend mode="normal" in2="effect1_dropShadow_976_1850" result="effect2_dropShadow_976_1850"/>
<feBlend mode="normal" in="SourceGraphic" in2="effect2_dropShadow_976_1850" result="shape"/>
</filter>
<filter id="filter1_dd_976_1850" x="12.2188" y="13.4375" width="9.5625" height="9.5625" filterUnits="userSpaceOnUse" color-interpolation-filters="sRGB">
<feFlood flood-opacity="0" result="BackgroundImageFix"/>
<feColorMatrix in="SourceAlpha" type="matrix" values="0 0 0 0 0 0 0 0 0 0 0 0 0 0 0 0 0 0 127 0" result="hardAlpha"/>
<feOffset dy="0.1875"/>
<feGaussianBlur stdDeviation="0.1875"/>
<feColorMatrix type="matrix" values="0 0 0 0 0 0 0 0 0 0 0 0 0 0 0 0 0 0 0.1 0"/>
<feBlend mode="normal" in2="BackgroundImageFix" result="effect1_dropShadow_976_1850"/>
<feColorMatrix in="SourceAlpha" type="matrix" values="0 0 0 0 0 0 0 0 0 0 0 0 0 0 0 0 0 0 127 0" result="hardAlpha"/>
<feOffset dy="0.375"/>
<feGaussianBlur stdDeviation="0.5625"/>
<feColorMatrix type="matrix" values="0 0 0 0 0 0 0 0 0 0 0 0 0 0 0 0 0 0 0.2 0"/>
<feBlend mode="normal" in2="effect1_dropShadow_976_1850" result="effect2_dropShadow_976_1850"/>
<feBlend mode="normal" in="SourceGraphic" in2="effect2_dropShadow_976_1850" result="shape"/>
</filter>
<filter id="filter2_dd_976_1850" x="10.5939" y="6.6875" width="12.8124" height="5.06274" filterUnits="userSpaceOnUse" color-interpolation-filters="sRGB">
<feFlood flood-opacity="0" result="BackgroundImageFix"/>
<feColorMatrix in="SourceAlpha" type="matrix" values="0 0 0 0 0 0 0 0 0 0 0 0 0 0 0 0 0 0 127 0" result="hardAlpha"/>
<feOffset dy="-0.75"/>
<feGaussianBlur stdDeviation="0.1875"/>
<feColorMatrix type="matrix" values="0 0 0 0 0 0 0 0 0 0 0 0 0 0 0 0 0 0 0.1 0"/>
<feBlend mode="normal" in2="BackgroundImageFix" result="effect1_dropShadow_976_1850"/>
<feColorMatrix in="SourceAlpha" type="matrix" values="0 0 0 0 0 0 0 0 0 0 0 0 0 0 0 0 0 0 127 0" result="hardAlpha"/>
<feOffset dy="-0.75"/>
<feGaussianBlur stdDeviation="0.5625"/>
<feColorMatrix type="matrix" values="0 0 0 0 0 0 0 0 0 0 0 0 0 0 0 0 0 0 0.2 0"/>
<feBlend mode="normal" in2="effect1_dropShadow_976_1850" result="effect2_dropShadow_976_1850"/>
<feBlend mode="normal" in="SourceGraphic" in2="effect2_dropShadow_976_1850" result="shape"/>
</filter>
<linearGradient id="paint0_linear_976_1850" x1="17" y1="10.25" x2="20.3514" y2="25.9624" gradientUnits="userSpaceOnUse">
<stop stop-color="#0669BC"/>
<stop offset="1" stop-color="#243A5F"/>
</linearGradient>
<linearGradient id="paint1_linear_976_1850" x1="17" y1="10.25" x2="20.3514" y2="25.9624" gradientUnits="userSpaceOnUse">
<stop stop-color="#0078D4"/>
<stop offset="1" stop-color="#114A8B"/>
</linearGradient>
<linearGradient id="paint2_linear_976_1850" x1="17" y1="8.5625" x2="17.1583" y2="10.9858" gradientUnits="userSpaceOnUse">
<stop stop-color="#28AFEA"/>
<stop offset="1" stop-color="#0078D4"/>
</linearGradient>
<linearGradient id="paint3_linear_976_1850" x1="17" y1="8.5625" x2="17.1583" y2="10.9858" gradientUnits="userSpaceOnUse">
<stop stop-color="#30DAFF"/>
<stop offset="1" stop-color="#0094D4"/>
</linearGradient>
<linearGradient id="paint4_linear_976_1850" x1="16.5938" y1="8" x2="16.5937" y2="9.125" gradientUnits="userSpaceOnUse">
<stop stop-color="#22BCFF"/>
<stop offset="1" stop-color="#0088F0"/>
</linearGradient>
<linearGradient id="paint5_linear_976_1850" x1="16.5938" y1="8" x2="16.5937" y2="9.125" gradientUnits="userSpaceOnUse">
<stop stop-color="#28AFEA"/>
<stop offset="1" stop-color="#3CCBF4"/>
</linearGradient>
<clipPath id="clip0_976_1850">
<rect width="18" height="18" fill="white" transform="translate(8 8)"/>
</clipPath>
<clipPath id="clip1_976_1850">
<rect width="18" height="18" fill="white" transform="translate(8 8)"/>
</clipPath>
</defs>
</svg>
