<svg width="119" height="32" viewBox="0 0 119 32" fill="none" xmlns="http://www.w3.org/2000/svg">
<rect x="0.5" y="0.5" width="118" height="31" rx="3.5" fill="black"/>
<path d="M15.5559 7H7V15.5608H15.5559V7Z" fill="#F25022"/>
<path d="M25.0001 7H16.4442V15.5608H25.0001V7Z" fill="#7FBA00"/>
<path d="M15.5559 16.4395H7V25.0002H15.5559V16.4395Z" fill="#00A4EF"/>
<path d="M25.0002 16.4395H16.4443V25.0002H25.0002V16.4395Z" fill="#FFB900"/>
<path d="M29.7656 13V7.39844H31.3516C32.3411 7.39844 33.082 7.6263 33.5742 8.08203C34.069 8.53516 34.3164 9.21745 34.3164 10.1289C34.3164 10.9935 34.0417 11.6888 33.4922 12.2148C32.9453 12.7383 32.2135 13 31.2969 13H29.7656ZM30.4766 8.03125V12.3672H31.293C32.0091 12.3672 32.5664 12.1745 32.9648 11.7891C33.3659 11.401 33.5664 10.8529 33.5664 10.1445C33.5664 9.44401 33.3789 8.91667 33.0039 8.5625C32.6315 8.20833 32.0729 8.03125 31.3281 8.03125H30.4766ZM38.3438 13H37.6523V12.3555H37.6367C37.4961 12.6003 37.3216 12.7852 37.1133 12.9102C36.9049 13.0352 36.6628 13.0977 36.3867 13.0977C36.0013 13.0977 35.6901 12.9857 35.4531 12.7617C35.2161 12.5378 35.0977 12.2422 35.0977 11.875C35.0977 11.5182 35.2174 11.2253 35.457 10.9961C35.6966 10.7669 36.0417 10.6198 36.4922 10.5547L37.6562 10.3984V10.3047C37.6562 9.97396 37.5768 9.73568 37.418 9.58984C37.2617 9.44401 37.0508 9.37109 36.7852 9.37109C36.5742 9.37109 36.3685 9.41146 36.168 9.49219C35.9674 9.57292 35.7773 9.69401 35.5977 9.85547L35.2188 9.43359C35.4505 9.22005 35.6979 9.0625 35.9609 8.96094C36.2266 8.85677 36.5169 8.80469 36.832 8.80469C37.332 8.80469 37.7083 8.93359 37.9609 9.19141C38.2161 9.44922 38.3438 9.83594 38.3438 10.3516V13ZM37.6562 11.3281V10.9336L36.6797 11.0664C36.3802 11.1081 36.1562 11.1836 36.0078 11.293C35.8594 11.4023 35.7852 11.5742 35.7852 11.8086C35.7852 12.0404 35.8542 12.2201 35.9922 12.3477C36.1328 12.4753 36.3073 12.5391 36.5156 12.5391C36.8594 12.5391 37.1354 12.4258 37.3438 12.1992C37.5521 11.9701 37.6562 11.6797 37.6562 11.3281ZM40.3477 12.4102H40.332V14.8398H39.6367V8.90234H40.332V9.61719H40.3477C40.5091 9.34635 40.7083 9.14323 40.9453 9.00781C41.1823 8.8724 41.4544 8.80469 41.7617 8.80469C42.2904 8.80469 42.7018 8.98828 42.9961 9.35547C43.293 9.72266 43.4414 10.2135 43.4414 10.8281C43.4414 11.5156 43.2734 12.0664 42.9375 12.4805C42.6042 12.8919 42.1497 13.0977 41.5742 13.0977C41.3086 13.0977 41.0729 13.0404 40.8672 12.9258C40.6641 12.8112 40.4909 12.6393 40.3477 12.4102ZM40.3281 10.7617V11.3086C40.3281 11.6471 40.4362 11.9336 40.6523 12.168C40.8685 12.4023 41.1445 12.5195 41.4805 12.5195C41.8685 12.5195 42.1732 12.3698 42.3945 12.0703C42.6159 11.7708 42.7266 11.3542 42.7266 10.8203C42.7266 10.3698 42.6237 10.0182 42.418 9.76562C42.2122 9.51042 41.9323 9.38281 41.5781 9.38281C41.2005 9.38281 40.8971 9.51432 40.668 9.77734C40.4414 10.0378 40.3281 10.3659 40.3281 10.7617ZM47.4688 13H46.7773V12.3555H46.7617C46.6211 12.6003 46.4466 12.7852 46.2383 12.9102C46.0299 13.0352 45.7878 13.0977 45.5117 13.0977C45.1263 13.0977 44.8151 12.9857 44.5781 12.7617C44.3411 12.5378 44.2227 12.2422 44.2227 11.875C44.2227 11.5182 44.3424 11.2253 44.582 10.9961C44.8216 10.7669 45.1667 10.6198 45.6172 10.5547L46.7812 10.3984V10.3047C46.7812 9.97396 46.7018 9.73568 46.543 9.58984C46.3867 9.44401 46.1758 9.37109 45.9102 9.37109C45.6992 9.37109 45.4935 9.41146 45.293 9.49219C45.0924 9.57292 44.9023 9.69401 44.7227 9.85547L44.3438 9.43359C44.5755 9.22005 44.8229 9.0625 45.0859 8.96094C45.3516 8.85677 45.6419 8.80469 45.957 8.80469C46.457 8.80469 46.8333 8.93359 47.0859 9.19141C47.3411 9.44922 47.4688 9.83594 47.4688 10.3516V13ZM46.7812 11.3281V10.9336L45.8047 11.0664C45.5052 11.1081 45.2812 11.1836 45.1328 11.293C44.9844 11.4023 44.9102 11.5742 44.9102 11.8086C44.9102 12.0404 44.9792 12.2201 45.1172 12.3477C45.2578 12.4753 45.4323 12.5391 45.6406 12.5391C45.9844 12.5391 46.2604 12.4258 46.4688 12.1992C46.6771 11.9701 46.7812 11.6797 46.7812 11.3281ZM50.7695 12.9492C50.6576 12.9961 50.5456 13.0299 50.4336 13.0508C50.3242 13.0742 50.2005 13.0859 50.0625 13.0859C49.7266 13.0859 49.4635 12.9896 49.2734 12.7969C49.0859 12.6042 48.9922 12.319 48.9922 11.9414V9.48047H48.293V8.90234H48.9922V7.96484L49.6914 7.74219V8.90234H50.7148V9.48047H49.6914V11.8672C49.6914 12.099 49.7331 12.2656 49.8164 12.3672C49.8997 12.4688 50.0247 12.5195 50.1914 12.5195C50.2695 12.5195 50.3451 12.5104 50.418 12.4922C50.4909 12.474 50.5534 12.4518 50.6055 12.4258L50.7695 12.9492ZM55.082 13H54.1289L52.3555 11.0234H52.3398V13H51.6445V7.07812H52.3398V10.7812H52.3555L54.0391 8.90234H54.9375L53.0742 10.875L55.082 13ZM58.75 13H58.0586V12.3555H58.043C57.9023 12.6003 57.7279 12.7852 57.5195 12.9102C57.3112 13.0352 57.069 13.0977 56.793 13.0977C56.4076 13.0977 56.0964 12.9857 55.8594 12.7617C55.6224 12.5378 55.5039 12.2422 55.5039 11.875C55.5039 11.5182 55.6237 11.2253 55.8633 10.9961C56.1029 10.7669 56.4479 10.6198 56.8984 10.5547L58.0625 10.3984V10.3047C58.0625 9.97396 57.9831 9.73568 57.8242 9.58984C57.668 9.44401 57.457 9.37109 57.1914 9.37109C56.9805 9.37109 56.7747 9.41146 56.5742 9.49219C56.3737 9.57292 56.1836 9.69401 56.0039 9.85547L55.625 9.43359C55.8568 9.22005 56.1042 9.0625 56.3672 8.96094C56.6328 8.85677 56.9232 8.80469 57.2383 8.80469C57.7383 8.80469 58.1146 8.93359 58.3672 9.19141C58.6224 9.44922 58.75 9.83594 58.75 10.3516V13ZM58.0625 11.3281V10.9336L57.0859 11.0664C56.7865 11.1081 56.5625 11.1836 56.4141 11.293C56.2656 11.4023 56.1914 11.5742 56.1914 11.8086C56.1914 12.0404 56.2604 12.2201 56.3984 12.3477C56.5391 12.4753 56.7135 12.5391 56.9219 12.5391C57.2656 12.5391 57.5417 12.4258 57.75 12.1992C57.9583 11.9701 58.0625 11.6797 58.0625 11.3281ZM63.4805 13H62.7852V10.6641C62.7852 10.237 62.707 9.91667 62.5508 9.70312C62.3945 9.48958 62.1615 9.38281 61.8516 9.38281C61.5286 9.38281 61.2617 9.50391 61.0508 9.74609C60.8424 9.98568 60.7383 10.2904 60.7383 10.6602V13H60.043V8.90234H60.7383V9.58203H60.7539C60.9076 9.32161 61.0964 9.1276 61.3203 9C61.5443 8.86979 61.8034 8.80469 62.0977 8.80469C62.5456 8.80469 62.888 8.94922 63.125 9.23828C63.362 9.52734 63.4805 9.94531 63.4805 10.4922V13ZM68.1836 13H67.4883V10.6641C67.4883 10.237 67.4102 9.91667 67.2539 9.70312C67.0977 9.48958 66.8646 9.38281 66.5547 9.38281C66.2318 9.38281 65.9648 9.50391 65.7539 9.74609C65.5456 9.98568 65.4414 10.2904 65.4414 10.6602V13H64.7461V8.90234H65.4414V9.58203H65.457C65.6107 9.32161 65.7995 9.1276 66.0234 9C66.2474 8.86979 66.5065 8.80469 66.8008 8.80469C67.2487 8.80469 67.5911 8.94922 67.8281 9.23828C68.0651 9.52734 68.1836 9.94531 68.1836 10.4922V13ZM72.7695 8.90234L70.8594 13.7344C70.7083 14.1198 70.5156 14.4089 70.2812 14.6016C70.0469 14.7943 69.7695 14.8906 69.4492 14.8906C69.3633 14.8906 69.2826 14.8854 69.207 14.875C69.1341 14.8646 69.0651 14.8503 69 14.832L69.1328 14.25C69.1849 14.2682 69.2331 14.2812 69.2773 14.2891C69.3242 14.2969 69.3711 14.3008 69.418 14.3008C69.5898 14.3008 69.7344 14.2552 69.8516 14.1641C69.9688 14.0729 70.0638 13.944 70.1367 13.7773L70.4688 12.9922L68.8633 8.90234H69.6328L70.7188 12.0078C70.7266 12.0339 70.737 12.0755 70.75 12.1328C70.7656 12.1875 70.7839 12.2565 70.8047 12.3398H70.8281C70.8359 12.3034 70.8464 12.2591 70.8594 12.207C70.875 12.1523 70.8932 12.0885 70.9141 12.0156L72.0547 8.90234H72.7695ZM76.4688 13H75.7773V12.3555H75.7617C75.6211 12.6003 75.4466 12.7852 75.2383 12.9102C75.0299 13.0352 74.7878 13.0977 74.5117 13.0977C74.1263 13.0977 73.8151 12.9857 73.5781 12.7617C73.3411 12.5378 73.2227 12.2422 73.2227 11.875C73.2227 11.5182 73.3424 11.2253 73.582 10.9961C73.8216 10.7669 74.1667 10.6198 74.6172 10.5547L75.7812 10.3984V10.3047C75.7812 9.97396 75.7018 9.73568 75.543 9.58984C75.3867 9.44401 75.1758 9.37109 74.9102 9.37109C74.6992 9.37109 74.4935 9.41146 74.293 9.49219C74.0924 9.57292 73.9023 9.69401 73.7227 9.85547L73.3438 9.43359C73.5755 9.22005 73.8229 9.0625 74.0859 8.96094C74.3516 8.85677 74.6419 8.80469 74.957 8.80469C75.457 8.80469 75.8333 8.93359 76.0859 9.19141C76.3411 9.44922 76.4688 9.83594 76.4688 10.3516V13ZM75.7812 11.3281V10.9336L74.8047 11.0664C74.5052 11.1081 74.2812 11.1836 74.1328 11.293C73.9844 11.4023 73.9102 11.5742 73.9102 11.8086C73.9102 12.0404 73.9792 12.2201 74.1172 12.3477C74.2578 12.4753 74.4323 12.5391 74.6406 12.5391C74.9844 12.5391 75.2604 12.4258 75.4688 12.1992C75.6771 11.9701 75.7812 11.6797 75.7812 11.3281ZM82.7852 12.3125C82.6341 12.5729 82.4414 12.7695 82.207 12.9023C81.9753 13.0326 81.7018 13.0977 81.3867 13.0977C80.8711 13.0977 80.4583 12.9141 80.1484 12.5469C79.8411 12.1797 79.6875 11.6797 79.6875 11.0469C79.6875 10.3672 79.8581 9.82422 80.1992 9.41797C80.5404 9.00911 80.9948 8.80469 81.5625 8.80469C81.8438 8.80469 82.0859 8.85938 82.2891 8.96875C82.4922 9.07812 82.6576 9.24349 82.7852 9.46484H82.8008V7.07812H83.4961V13H82.8008V12.3125H82.7852ZM80.3984 11.0117C80.3984 11.4805 80.5065 11.849 80.7227 12.1172C80.9388 12.3854 81.2279 12.5195 81.5898 12.5195C81.9544 12.5195 82.2474 12.3893 82.4688 12.1289C82.6901 11.8685 82.8008 11.5391 82.8008 11.1406V10.5547C82.8008 10.2266 82.6927 9.94922 82.4766 9.72266C82.263 9.49609 81.9922 9.38281 81.6641 9.38281C81.2708 9.38281 80.9609 9.52734 80.7344 9.81641C80.5104 10.1055 80.3984 10.5039 80.3984 11.0117ZM87.7969 13H87.1055V12.3555H87.0898C86.9492 12.6003 86.7747 12.7852 86.5664 12.9102C86.3581 13.0352 86.1159 13.0977 85.8398 13.0977C85.4544 13.0977 85.1432 12.9857 84.9062 12.7617C84.6693 12.5378 84.5508 12.2422 84.5508 11.875C84.5508 11.5182 84.6706 11.2253 84.9102 10.9961C85.1497 10.7669 85.4948 10.6198 85.9453 10.5547L87.1094 10.3984V10.3047C87.1094 9.97396 87.0299 9.73568 86.8711 9.58984C86.7148 9.44401 86.5039 9.37109 86.2383 9.37109C86.0273 9.37109 85.8216 9.41146 85.6211 9.49219C85.4206 9.57292 85.2305 9.69401 85.0508 9.85547L84.6719 9.43359C84.9036 9.22005 85.151 9.0625 85.4141 8.96094C85.6797 8.85677 85.9701 8.80469 86.2852 8.80469C86.7852 8.80469 87.1615 8.93359 87.4141 9.19141C87.6693 9.44922 87.7969 9.83594 87.7969 10.3516V13ZM87.1094 11.3281V10.9336L86.1328 11.0664C85.8333 11.1081 85.6094 11.1836 85.4609 11.293C85.3125 11.4023 85.2383 11.5742 85.2383 11.8086C85.2383 12.0404 85.3073 12.2201 85.4453 12.3477C85.5859 12.4753 85.7604 12.5391 85.9688 12.5391C86.3125 12.5391 86.5885 12.4258 86.7969 12.1992C87.0052 11.9701 87.1094 11.6797 87.1094 11.3281ZM91.1562 9.49609C91.1042 9.48047 91.056 9.46875 91.0117 9.46094C90.9674 9.45312 90.9141 9.44922 90.8516 9.44922C90.5208 9.44922 90.2604 9.58984 90.0703 9.87109C89.8802 10.1497 89.7852 10.5026 89.7852 10.9297V13H89.0898V8.90234H89.7852V9.71484H89.8008C89.8945 9.42578 90.0365 9.20703 90.2266 9.05859C90.4193 8.90755 90.6419 8.83203 90.8945 8.83203C90.9753 8.83203 91.0443 8.83594 91.1016 8.84375C91.1615 8.85156 91.2161 8.86328 91.2656 8.87891L91.1562 9.49609ZM92.3906 8.03516C92.2526 8.03516 92.138 7.98958 92.0469 7.89844C91.9557 7.80729 91.9102 7.69661 91.9102 7.56641C91.9102 7.43099 91.9557 7.31901 92.0469 7.23047C92.138 7.13932 92.2526 7.09375 92.3906 7.09375C92.5286 7.09375 92.6432 7.13932 92.7344 7.23047C92.8281 7.31901 92.875 7.43099 92.875 7.56641C92.875 7.69661 92.8281 7.80729 92.7344 7.89844C92.6432 7.98958 92.5286 8.03516 92.3906 8.03516ZM92.7305 13H92.0352V8.90234H92.7305V13ZM94.8398 12.4102H94.8242V14.8398H94.1289V8.90234H94.8242V9.61719H94.8398C95.0013 9.34635 95.2005 9.14323 95.4375 9.00781C95.6745 8.8724 95.9466 8.80469 96.2539 8.80469C96.7826 8.80469 97.194 8.98828 97.4883 9.35547C97.7852 9.72266 97.9336 10.2135 97.9336 10.8281C97.9336 11.5156 97.7656 12.0664 97.4297 12.4805C97.0964 12.8919 96.6419 13.0977 96.0664 13.0977C95.8008 13.0977 95.5651 13.0404 95.3594 12.9258C95.1562 12.8112 94.9831 12.6393 94.8398 12.4102ZM94.8203 10.7617V11.3086C94.8203 11.6471 94.9284 11.9336 95.1445 12.168C95.3607 12.4023 95.6367 12.5195 95.9727 12.5195C96.3607 12.5195 96.6654 12.3698 96.8867 12.0703C97.1081 11.7708 97.2188 11.3542 97.2188 10.8203C97.2188 10.3698 97.1159 10.0182 96.9102 9.76562C96.7044 9.51042 96.4245 9.38281 96.0703 9.38281C95.6927 9.38281 95.3893 9.51432 95.1602 9.77734C94.9336 10.0378 94.8203 10.3659 94.8203 10.7617ZM101.961 13H101.27V12.3555H101.254C101.113 12.6003 100.939 12.7852 100.73 12.9102C100.522 13.0352 100.28 13.0977 100.004 13.0977C99.6185 13.0977 99.3073 12.9857 99.0703 12.7617C98.8333 12.5378 98.7148 12.2422 98.7148 11.875C98.7148 11.5182 98.8346 11.2253 99.0742 10.9961C99.3138 10.7669 99.6589 10.6198 100.109 10.5547L101.273 10.3984V10.3047C101.273 9.97396 101.194 9.73568 101.035 9.58984C100.879 9.44401 100.668 9.37109 100.402 9.37109C100.191 9.37109 99.9857 9.41146 99.7852 9.49219C99.5846 9.57292 99.3945 9.69401 99.2148 9.85547L98.8359 9.43359C99.0677 9.22005 99.3151 9.0625 99.5781 8.96094C99.8438 8.85677 100.134 8.80469 100.449 8.80469C100.949 8.80469 101.326 8.93359 101.578 9.19141C101.833 9.44922 101.961 9.83594 101.961 10.3516V13ZM101.273 11.3281V10.9336L100.297 11.0664C99.9974 11.1081 99.7734 11.1836 99.625 11.293C99.4766 11.4023 99.4023 11.5742 99.4023 11.8086C99.4023 12.0404 99.4714 12.2201 99.6094 12.3477C99.75 12.4753 99.9245 12.5391 100.133 12.5391C100.477 12.5391 100.753 12.4258 100.961 12.1992C101.169 11.9701 101.273 11.6797 101.273 11.3281ZM106.082 12.3125C105.931 12.5729 105.738 12.7695 105.504 12.9023C105.272 13.0326 104.999 13.0977 104.684 13.0977C104.168 13.0977 103.755 12.9141 103.445 12.5469C103.138 12.1797 102.984 11.6797 102.984 11.0469C102.984 10.3672 103.155 9.82422 103.496 9.41797C103.837 9.00911 104.292 8.80469 104.859 8.80469C105.141 8.80469 105.383 8.85938 105.586 8.96875C105.789 9.07812 105.954 9.24349 106.082 9.46484H106.098V7.07812H106.793V13H106.098V12.3125H106.082ZM103.695 11.0117C103.695 11.4805 103.803 11.849 104.02 12.1172C104.236 12.3854 104.525 12.5195 104.887 12.5195C105.251 12.5195 105.544 12.3893 105.766 12.1289C105.987 11.8685 106.098 11.5391 106.098 11.1406V10.5547C106.098 10.2266 105.99 9.94922 105.773 9.72266C105.56 9.49609 105.289 9.38281 104.961 9.38281C104.568 9.38281 104.258 9.52734 104.031 9.81641C103.807 10.1055 103.695 10.5039 103.695 11.0117ZM111.094 13H110.402V12.3555H110.387C110.246 12.6003 110.072 12.7852 109.863 12.9102C109.655 13.0352 109.413 13.0977 109.137 13.0977C108.751 13.0977 108.44 12.9857 108.203 12.7617C107.966 12.5378 107.848 12.2422 107.848 11.875C107.848 11.5182 107.967 11.2253 108.207 10.9961C108.447 10.7669 108.792 10.6198 109.242 10.5547L110.406 10.3984V10.3047C110.406 9.97396 110.327 9.73568 110.168 9.58984C110.012 9.44401 109.801 9.37109 109.535 9.37109C109.324 9.37109 109.118 9.41146 108.918 9.49219C108.717 9.57292 108.527 9.69401 108.348 9.85547L107.969 9.43359C108.201 9.22005 108.448 9.0625 108.711 8.96094C108.977 8.85677 109.267 8.80469 109.582 8.80469C110.082 8.80469 110.458 8.93359 110.711 9.19141C110.966 9.44922 111.094 9.83594 111.094 10.3516V13ZM110.406 11.3281V10.9336L109.43 11.0664C109.13 11.1081 108.906 11.1836 108.758 11.293C108.609 11.4023 108.535 11.5742 108.535 11.8086C108.535 12.0404 108.604 12.2201 108.742 12.3477C108.883 12.4753 109.057 12.5391 109.266 12.5391C109.609 12.5391 109.885 12.4258 110.094 12.1992C110.302 11.9701 110.406 11.6797 110.406 11.3281Z" fill="white"/>
<path d="M41.1489 16.6123C41.1489 16.3559 41.2412 16.1507 41.4259 15.9764C41.6105 15.802 41.8258 15.72 42.0823 15.72C42.3489 15.72 42.5746 15.8123 42.7489 15.9866C42.9233 16.161 43.0156 16.3764 43.0156 16.6123C43.0156 16.8584 42.9233 17.0738 42.7387 17.2379C42.5541 17.4123 42.3387 17.4943 42.072 17.4943C41.8053 17.4943 41.59 17.4123 41.4053 17.2379C41.2412 17.0636 41.1489 16.8584 41.1489 16.6123ZM42.8412 25.002H41.313V18.4892H42.8412V25.002Z" fill="white"/>
<path d="M47.4975 23.8887C47.7231 23.8887 47.9795 23.8374 48.2565 23.7348C48.5334 23.6323 48.7795 23.4887 49.0154 23.3143V24.74C48.7693 24.8836 48.4924 24.9861 48.1847 25.0579C47.877 25.1297 47.5282 25.1707 47.159 25.1707C46.2052 25.1707 45.4257 24.863 44.8205 24.2579C44.2154 23.6528 43.918 22.8733 43.918 21.94C43.918 20.8938 44.2257 20.0323 44.8411 19.3553C45.4564 18.6784 46.318 18.34 47.4462 18.34C47.7334 18.34 48.0206 18.381 48.318 18.4528C48.6154 18.5246 48.8411 18.6169 49.0154 18.7092V20.1759C48.7795 20.0015 48.5334 19.8682 48.2872 19.7759C48.0411 19.6836 47.7847 19.6323 47.5282 19.6323C46.9231 19.6323 46.4411 19.8271 46.0616 20.2169C45.6923 20.6066 45.5077 21.14 45.5077 21.8066C45.5077 22.463 45.6821 22.9759 46.0411 23.3451C46.4 23.7143 46.8821 23.8887 47.4975 23.8887Z" fill="white"/>
<path d="M53.3738 18.39C53.4969 18.39 53.6097 18.4003 53.702 18.4105C53.7943 18.431 53.8866 18.4516 53.9482 18.4721V20.0208C53.8661 19.9592 53.7533 19.908 53.5995 19.8567C53.4456 19.8054 53.261 19.7746 53.0354 19.7746C52.6559 19.7746 52.3379 19.9285 52.0815 20.2464C51.8251 20.5644 51.6918 21.0464 51.6918 21.7131V25.0054H50.1636V18.4926H51.6918V19.5182H51.7123C51.8559 19.1592 52.061 18.8823 52.3482 18.6874C52.6354 18.4926 52.9738 18.39 53.3738 18.39Z" fill="white"/>
<path d="M54.0308 21.8477C54.0308 20.7707 54.3385 19.9195 54.9436 19.2836C55.5487 18.6579 56.4 18.34 57.4769 18.34C58.4923 18.34 59.2923 18.6477 59.8667 19.2528C60.441 19.8579 60.7282 20.6784 60.7282 21.7041C60.7282 22.7605 60.4205 23.6015 59.8154 24.2271C59.2102 24.8528 58.3795 25.1605 57.3333 25.1605C56.3282 25.1605 55.5179 24.863 54.9333 24.2682C54.3282 23.6836 54.0308 22.8733 54.0308 21.8477ZM55.6308 21.7964C55.6308 22.4733 55.7846 22.9964 56.0923 23.3553C56.4 23.7143 56.841 23.8887 57.4154 23.8887C57.9692 23.8887 58.4 23.7143 58.6872 23.3553C58.9743 22.9964 59.1282 22.463 59.1282 21.7554C59.1282 21.0579 58.9743 20.5246 58.6769 20.1656C58.3795 19.8066 57.9487 19.6323 57.4051 19.6323C56.841 19.6323 56.4102 19.8169 56.0923 20.1964C55.7846 20.5759 55.6308 21.0989 55.6308 21.7964Z" fill="white"/>
<path d="M63.0053 20.2069C63.0053 20.4223 63.0771 20.5966 63.2104 20.7197C63.354 20.8428 63.6617 20.9966 64.1335 21.1915C64.7489 21.4377 65.1796 21.7146 65.4258 22.0223C65.6719 22.33 65.795 22.6992 65.795 23.13C65.795 23.7454 65.5591 24.2377 65.0873 24.6069C64.6155 24.9761 63.9796 25.1607 63.1796 25.1607C62.913 25.1607 62.6155 25.13 62.2873 25.0582C61.9591 24.9966 61.6822 24.9043 61.4565 24.812V23.3043C61.7335 23.4992 62.0309 23.653 62.3591 23.7659C62.6771 23.8787 62.9745 23.9402 63.2309 23.9402C63.5796 23.9402 63.836 23.8889 64.0001 23.7966C64.1642 23.7043 64.2463 23.5402 64.2463 23.3043C64.2463 23.0889 64.1642 22.9146 63.9899 22.771C63.8155 22.6274 63.4976 22.453 63.0155 22.2684C62.4514 22.0325 62.0514 21.7659 61.8155 21.4684C61.5796 21.171 61.4565 20.7915 61.4565 20.3402C61.4565 19.7556 61.6924 19.2735 62.154 18.8941C62.6155 18.5146 63.2206 18.33 63.9694 18.33C64.195 18.33 64.4514 18.3505 64.7386 18.4018C65.0258 18.453 65.2617 18.5146 65.4463 18.5966V20.053C65.2412 19.9197 65.0053 19.8069 64.7386 19.7043C64.4719 19.612 64.195 19.5607 63.9386 19.5607C63.6514 19.5607 63.4155 19.6223 63.2617 19.7351C63.0873 19.8479 63.0053 20.012 63.0053 20.2069Z" fill="white"/>
<path d="M66.4717 21.8477C66.4717 20.7707 66.7794 19.9195 67.3845 19.2836C67.9896 18.6579 68.8409 18.34 69.9178 18.34C70.9332 18.34 71.7332 18.6477 72.3076 19.2528C72.8819 19.8579 73.1691 20.6784 73.1691 21.7041C73.1691 22.7605 72.8614 23.6015 72.2563 24.2271C71.6512 24.8528 70.8204 25.1605 69.7742 25.1605C68.7691 25.1605 67.9589 24.863 67.3742 24.2682C66.7691 23.6836 66.4717 22.8733 66.4717 21.8477ZM68.0614 21.7964C68.0614 22.4733 68.2153 22.9964 68.523 23.3554C68.8307 23.7143 69.2717 23.8887 69.846 23.8887C70.3999 23.8887 70.8307 23.7143 71.1178 23.3554C71.405 22.9964 71.5589 22.463 71.5589 21.7554C71.5589 21.0579 71.405 20.5246 71.1076 20.1656C70.8101 19.8066 70.3794 19.6323 69.8358 19.6323C69.2717 19.6323 68.8409 19.8169 68.523 20.1964C68.2153 20.5759 68.0614 21.0989 68.0614 21.7964Z" fill="white"/>
<path d="M78.2258 19.7523V23.0959C78.2258 23.7933 78.3899 24.3062 78.7079 24.6549C79.0258 25.0036 79.5181 25.1677 80.1643 25.1677C80.3797 25.1677 80.6053 25.1472 80.8309 25.0959C81.0566 25.0446 81.2207 25.0036 81.313 24.9421V23.6703C81.2207 23.7318 81.1079 23.7831 80.9848 23.8241C80.8617 23.8651 80.7489 23.8857 80.6668 23.8857C80.3591 23.8857 80.1232 23.8036 79.9797 23.6395C79.8361 23.4754 79.7643 23.1882 79.7643 22.7882V19.7421H81.3232V18.4908H79.7745V16.5626L78.2361 17.0344V18.501H75.9489V17.7113C75.9489 17.3215 76.0309 17.0241 76.2053 16.819C76.3796 16.6139 76.6258 16.5215 76.9438 16.5215C77.1079 16.5215 77.2514 16.5421 77.3848 16.5831C77.5079 16.6241 77.6002 16.6651 77.6514 16.6959V15.3728C77.5386 15.3318 77.4155 15.3113 77.272 15.2908C77.1284 15.2703 76.9643 15.26 76.7797 15.26C76.0822 15.26 75.5079 15.4754 75.0668 15.9164C74.6258 16.3574 74.4002 16.9113 74.4002 17.5985V18.501H73.313V19.7523H74.4002V25.0139H75.9489V19.7523H78.2258V19.7523Z" fill="white"/>
<path d="M39.8359 15.92V25.0072H38.2564V17.8893H38.2359L35.4154 25.0072H34.3692L31.4769 17.8893H31.4564V25.0072H30V15.92H32.2564L34.8718 22.6585H34.9128L37.6718 15.92H39.8359Z" fill="white"/>
<rect x="0.5" y="0.5" width="118" height="31" rx="3.5" stroke="black"/>
</svg>
