<svg width="116" height="34" viewBox="0 0 116 34" fill="none" xmlns="http://www.w3.org/2000/svg">
<rect x="1" y="1" width="114" height="32" rx="4" fill="#202020"/>
<rect x="0.5" y="0.5" width="115" height="33" rx="4.5" stroke="black" stroke-opacity="0.1"/>
<g clip-path="url(#clip0_976_1856)">
<g clip-path="url(#clip1_976_1856)">
<path d="M8.28125 11C8.28125 10.5858 8.61704 10.25 9.03125 10.25H24.9687C25.383 10.25 25.7188 10.5858 25.7188 11V22.3438C25.7188 24.0524 24.3336 25.4375 22.625 25.4375H11.375C9.66637 25.4375 8.28125 24.0524 8.28125 22.3438V11Z" fill="url(#paint0_linear_976_1856)"/>
<mask id="mask0_976_1856" style="mask-type:alpha" maskUnits="userSpaceOnUse" x="8" y="10" width="18" height="16">
<path d="M8.28125 11C8.28125 10.5858 8.61704 10.25 9.03125 10.25H24.9687C25.383 10.25 25.7188 10.5858 25.7188 11V22.3438C25.7188 24.0524 24.3336 25.4375 22.625 25.4375H11.375C9.66637 25.4375 8.28125 24.0524 8.28125 22.3438V11Z" fill="url(#paint1_linear_976_1856)"/>
</mask>
<g mask="url(#mask0_976_1856)">
<g filter="url(#filter0_dd_976_1856)">
<path d="M12.7812 10.8125V8.5625H21.2187V10.8125" stroke="url(#paint2_linear_976_1856)" stroke-width="1.125" stroke-linecap="round"/>
</g>
</g>
<g filter="url(#filter1_dd_976_1856)">
<path d="M16.719 14.1875H13.344V17.5625H16.719V14.1875Z" fill="#F25022"/>
<path d="M20.6562 14.1875H17.2812V17.5625H20.6562V14.1875Z" fill="#7FBA00"/>
<path d="M20.6562 18.125H17.2812V21.5H20.6562V18.125Z" fill="#FFB900"/>
<path d="M16.7188 18.125H13.3438V21.5H16.7188V18.125Z" fill="#00A4EF"/>
</g>
<path d="M12.7812 10.8125V9.125C12.7812 8.81434 13.0331 8.5625 13.3438 8.5625H20.6563C20.9669 8.5625 21.2188 8.81434 21.2188 9.125V10.8125" stroke="url(#paint3_linear_976_1856)" stroke-width="1.125" stroke-linecap="round"/>
<rect x="13.3438" y="8" width="7.3125" height="1.125" fill="url(#paint4_linear_976_1856)"/>
<mask id="mask1_976_1856" style="mask-type:alpha" maskUnits="userSpaceOnUse" x="13" y="8" width="8" height="2">
<rect x="13.3438" y="8" width="7.3125" height="1.125" fill="url(#paint5_linear_976_1856)"/>
</mask>
<g mask="url(#mask1_976_1856)">
<g filter="url(#filter2_dd_976_1856)">
<rect x="11.7189" y="8.56274" width="1.625" height="2.8125" fill="#C4C4C4"/>
</g>
</g>
</g>
</g>
<path d="M39.2275 16H37.96V11.0854C37.96 10.8634 37.9653 10.6217 37.9761 10.3604C37.9904 10.0954 38.0083 9.81429 38.0298 9.51709H37.9976C37.9546 9.72119 37.9134 9.89665 37.874 10.0435C37.8382 10.1867 37.8024 10.3013 37.7666 10.3872L35.5054 16H34.6245L32.3525 10.4355C32.3239 10.3568 32.2881 10.2404 32.2451 10.0864C32.2057 9.93245 32.1628 9.74268 32.1162 9.51709H32.084C32.1055 9.7749 32.1198 10.0488 32.127 10.3389C32.1341 10.6253 32.1377 10.9279 32.1377 11.2466V16H30.9561V8.29785H32.7607L34.7642 13.3037C34.8429 13.4935 34.9074 13.6689 34.9575 13.8301C35.0112 13.9876 35.0524 14.1344 35.0811 14.2705H35.1133C35.1777 14.0664 35.2386 13.882 35.2959 13.7173C35.3532 13.5526 35.4069 13.4093 35.457 13.2876L37.4873 8.29785H39.2275V16ZM41.6177 9.43652C41.3885 9.43652 41.1987 9.36312 41.0483 9.21631C40.8979 9.0695 40.8228 8.88867 40.8228 8.67383C40.8228 8.45182 40.8979 8.26921 41.0483 8.12598C41.1987 7.98275 41.3885 7.91113 41.6177 7.91113C41.8504 7.91113 42.042 7.98275 42.1924 8.12598C42.3428 8.26921 42.418 8.45182 42.418 8.67383C42.418 8.89225 42.3428 9.07487 42.1924 9.22168C42.042 9.36491 41.8504 9.43652 41.6177 9.43652ZM42.2354 16H40.9839V10.5H42.2354V16ZM47.9824 15.6616C47.7103 15.8263 47.4399 15.9445 47.1714 16.0161C46.9028 16.0913 46.611 16.1289 46.2959 16.1289C45.4508 16.1289 44.7741 15.8818 44.2656 15.3877C43.7607 14.8936 43.5083 14.2222 43.5083 13.3735C43.5083 12.4604 43.7697 11.7318 44.2925 11.1875C44.8188 10.6432 45.5278 10.3711 46.4194 10.3711C46.731 10.3711 47.0138 10.4051 47.2681 10.4731C47.5259 10.5376 47.7873 10.645 48.0522 10.7954L47.5635 11.6655C47.3773 11.5617 47.1947 11.4865 47.0156 11.4399C46.8366 11.3898 46.6414 11.3647 46.4302 11.3647C45.9038 11.3647 45.4974 11.5384 45.2109 11.8857C44.9245 12.2331 44.7812 12.6932 44.7812 13.2661C44.7812 13.8677 44.9352 14.3296 45.2432 14.6519C45.5547 14.9741 45.945 15.1353 46.4141 15.1353C46.5573 15.1353 46.722 15.1102 46.9082 15.0601C47.0944 15.0063 47.2824 14.9222 47.4722 14.8076L47.9824 15.6616ZM52.1021 11.5474C52.034 11.5295 51.9678 11.5169 51.9033 11.5098C51.8424 11.499 51.7708 11.4937 51.6885 11.4937C51.2409 11.4937 50.8971 11.6584 50.6572 11.9878C50.4173 12.3172 50.2974 12.7469 50.2974 13.2769V16H49.0459V10.5H50.2974V11.5581H50.3188C50.4478 11.1785 50.6375 10.8921 50.8882 10.6987C51.1388 10.5018 51.4342 10.4033 51.7744 10.4033C51.8711 10.4033 51.957 10.4087 52.0322 10.4194C52.111 10.4302 52.1862 10.4463 52.2578 10.4678L52.1021 11.5474ZM55.5557 16.1289C54.6963 16.1289 54.0142 15.8729 53.5093 15.3608C53.008 14.8452 52.7573 14.1559 52.7573 13.293C52.7609 12.3799 53.0223 11.6655 53.5415 11.1499C54.0607 10.6307 54.7679 10.3711 55.6631 10.3711C56.526 10.3675 57.1992 10.6217 57.6826 11.1338C58.1696 11.6423 58.4131 12.3315 58.4131 13.2017C58.4131 14.0968 58.1553 14.8094 57.6396 15.3394C57.1276 15.8657 56.4329 16.1289 55.5557 16.1289ZM55.6147 15.1353C56.1125 15.1353 56.4902 14.9723 56.748 14.6465C57.0094 14.3206 57.1401 13.8498 57.1401 13.2339C57.1401 12.6252 57.0094 12.1615 56.748 11.8428C56.4867 11.5241 56.1071 11.3647 55.6094 11.3647C55.1188 11.3647 54.7321 11.533 54.4492 11.8696C54.1699 12.2062 54.0303 12.6717 54.0303 13.2661C54.0303 13.8641 54.1699 14.326 54.4492 14.6519C54.7285 14.9741 55.117 15.1353 55.6147 15.1353ZM59.1543 15.5596L59.6968 14.6787C59.9116 14.8291 60.139 14.9508 60.3789 15.0439C60.6224 15.1335 60.8856 15.1782 61.1685 15.1782C61.4764 15.1782 61.7145 15.1227 61.8828 15.0117C62.0547 14.8971 62.1406 14.7271 62.1406 14.5015C62.1406 14.3224 62.069 14.1738 61.9258 14.0557C61.7861 13.9339 61.5462 13.8337 61.2061 13.7549C60.5186 13.5938 60.0352 13.3807 59.7559 13.1157C59.4801 12.8507 59.3423 12.5016 59.3423 12.0684C59.3423 11.5706 59.5356 11.1642 59.9224 10.8491C60.3091 10.5304 60.8158 10.3711 61.4424 10.3711C61.7539 10.3711 62.0511 10.4123 62.334 10.4946C62.6169 10.5734 62.8926 10.7005 63.1611 10.876L62.6562 11.7354C62.4199 11.585 62.2033 11.4775 62.0063 11.4131C61.8094 11.3486 61.6071 11.3164 61.3994 11.3164C61.1058 11.3164 60.8766 11.3719 60.7119 11.4829C60.5508 11.5903 60.4702 11.7407 60.4702 11.9341C60.4702 12.1382 60.5526 12.2904 60.7173 12.3906C60.8856 12.4873 61.1667 12.5822 61.5605 12.6753C62.1549 12.8185 62.59 13.0262 62.8657 13.2983C63.1414 13.5669 63.2793 13.9268 63.2793 14.3779C63.2793 14.9115 63.0841 15.3376 62.6938 15.6562C62.3071 15.9714 61.7826 16.1289 61.1201 16.1289C60.762 16.1289 60.4183 16.0824 60.0889 15.9893C59.763 15.8926 59.4515 15.7493 59.1543 15.5596ZM66.8779 16.1289C66.0186 16.1289 65.3364 15.8729 64.8315 15.3608C64.3302 14.8452 64.0796 14.1559 64.0796 13.293C64.0832 12.3799 64.3446 11.6655 64.8638 11.1499C65.383 10.6307 66.0902 10.3711 66.9854 10.3711C67.8483 10.3675 68.5215 10.6217 69.0049 11.1338C69.4919 11.6423 69.7354 12.3315 69.7354 13.2017C69.7354 14.0968 69.4775 14.8094 68.9619 15.3394C68.4499 15.8657 67.7552 16.1289 66.8779 16.1289ZM66.937 15.1353C67.4347 15.1353 67.8125 14.9723 68.0703 14.6465C68.3317 14.3206 68.4624 13.8498 68.4624 13.2339C68.4624 12.6252 68.3317 12.1615 68.0703 11.8428C67.8089 11.5241 67.4294 11.3647 66.9316 11.3647C66.4411 11.3647 66.0544 11.533 65.7715 11.8696C65.4922 12.2062 65.3525 12.6717 65.3525 13.2661C65.3525 13.8641 65.4922 14.326 65.7715 14.6519C66.0508 14.9741 66.4393 15.1353 66.937 15.1353ZM73.9839 8.84033C73.8836 8.80094 73.7923 8.77409 73.71 8.75977C73.6276 8.74186 73.5381 8.73291 73.4414 8.73291C73.1764 8.73291 72.9759 8.8099 72.8398 8.96387C72.7074 9.11426 72.6411 9.33268 72.6411 9.61914V10.5H73.9141V11.4775H72.6411V16H71.395V11.4775H70.4604V10.5H71.395V9.55469C71.395 8.99609 71.5741 8.55387 71.9321 8.22803C72.2938 7.8986 72.7718 7.73389 73.3662 7.73389C73.5524 7.73389 73.7135 7.74642 73.8496 7.77148C73.9857 7.79655 74.1271 7.83236 74.2739 7.87891L73.9839 8.84033ZM77.7974 15.9248C77.6362 15.9928 77.4679 16.043 77.2925 16.0752C77.117 16.1074 76.929 16.1235 76.7285 16.1235C76.2201 16.1235 75.828 15.9893 75.5522 15.7207C75.2801 15.4486 75.144 15.0439 75.144 14.5068V11.4775H74.2202V10.5H75.144V9.1626L76.3901 8.78662V10.5H77.7061V11.4775H76.3901V14.4048C76.3901 14.6733 76.4385 14.8667 76.5352 14.9849C76.6354 15.103 76.7894 15.1621 76.9971 15.1621C77.0973 15.1621 77.1922 15.1514 77.2817 15.1299C77.3748 15.1048 77.4572 15.0744 77.5288 15.0386L77.7974 15.9248ZM81.2939 15.4468L81.8633 14.4639C82.2106 14.6787 82.5347 14.8309 82.8354 14.9204C83.1362 15.0063 83.4728 15.0493 83.8452 15.0493C84.2892 15.0493 84.6383 14.9544 84.8926 14.7646C85.1504 14.5713 85.2793 14.2956 85.2793 13.9375C85.2793 13.6117 85.1719 13.3556 84.957 13.1694C84.7458 12.9797 84.3859 12.806 83.8774 12.6484C83.0933 12.4157 82.5168 12.1274 82.1479 11.7837C81.7791 11.4399 81.5947 10.9744 81.5947 10.3872C81.5947 9.74984 81.8328 9.22168 82.3091 8.80273C82.7853 8.38021 83.4316 8.16895 84.248 8.16895C84.6061 8.16895 84.9588 8.20833 85.3062 8.28711C85.6535 8.36589 85.9972 8.48763 86.3374 8.65234L85.8594 9.67285C85.5622 9.51888 85.2775 9.40967 85.0054 9.34521C84.7368 9.28076 84.4629 9.24854 84.1836 9.24854C83.7754 9.24854 83.4531 9.33805 83.2168 9.51709C82.984 9.69613 82.8677 9.94857 82.8677 10.2744C82.8677 10.5645 82.9751 10.7936 83.1899 10.9619C83.4048 11.1266 83.7736 11.2896 84.2964 11.4507C85.0985 11.6906 85.675 11.9896 86.0259 12.3477C86.3804 12.7057 86.5576 13.1981 86.5576 13.8247C86.5576 14.4979 86.3177 15.0511 85.8379 15.4844C85.3581 15.9141 84.6742 16.1289 83.7861 16.1289C83.3421 16.1289 82.9089 16.0734 82.4863 15.9624C82.0638 15.8478 81.6663 15.6759 81.2939 15.4468ZM90.4409 15.9248C90.2798 15.9928 90.1115 16.043 89.936 16.0752C89.7606 16.1074 89.5726 16.1235 89.3721 16.1235C88.8636 16.1235 88.4715 15.9893 88.1958 15.7207C87.9237 15.4486 87.7876 15.0439 87.7876 14.5068V11.4775H86.8638V10.5H87.7876V9.1626L89.0337 8.78662V10.5H90.3496V11.4775H89.0337V14.4048C89.0337 14.6733 89.082 14.8667 89.1787 14.9849C89.279 15.103 89.4329 15.1621 89.6406 15.1621C89.7409 15.1621 89.8358 15.1514 89.9253 15.1299C90.0184 15.1048 90.1007 15.0744 90.1724 15.0386L90.4409 15.9248ZM93.8623 16.1289C93.0029 16.1289 92.3208 15.8729 91.8159 15.3608C91.3146 14.8452 91.064 14.1559 91.064 13.293C91.0675 12.3799 91.3289 11.6655 91.8481 11.1499C92.3674 10.6307 93.0745 10.3711 93.9697 10.3711C94.8327 10.3675 95.5059 10.6217 95.9893 11.1338C96.4762 11.6423 96.7197 12.3315 96.7197 13.2017C96.7197 14.0968 96.4619 14.8094 95.9463 15.3394C95.4342 15.8657 94.7396 16.1289 93.8623 16.1289ZM93.9214 15.1353C94.4191 15.1353 94.7969 14.9723 95.0547 14.6465C95.3161 14.3206 95.4468 13.8498 95.4468 13.2339C95.4468 12.6252 95.3161 12.1615 95.0547 11.8428C94.7933 11.5241 94.4137 11.3647 93.916 11.3647C93.4255 11.3647 93.0387 11.533 92.7559 11.8696C92.4766 12.2062 92.3369 12.6717 92.3369 13.2661C92.3369 13.8641 92.4766 14.326 92.7559 14.6519C93.0352 14.9741 93.4237 15.1353 93.9214 15.1353ZM101.054 11.5474C100.986 11.5295 100.92 11.5169 100.855 11.5098C100.795 11.499 100.723 11.4937 100.641 11.4937C100.193 11.4937 99.8493 11.6584 99.6094 11.9878C99.3695 12.3172 99.2495 12.7469 99.2495 13.2769V16H97.998V10.5H99.2495V11.5581H99.271C99.3999 11.1785 99.5897 10.8921 99.8403 10.6987C100.091 10.5018 100.386 10.4033 100.727 10.4033C100.823 10.4033 100.909 10.4087 100.984 10.4194C101.063 10.4302 101.138 10.4463 101.21 10.4678L101.054 11.5474ZM106.721 13.5776H102.966C102.988 14.0968 103.138 14.4925 103.417 14.7646C103.697 15.0332 104.087 15.1675 104.588 15.1675C104.792 15.1675 105.025 15.1263 105.287 15.0439C105.548 14.9616 105.806 14.8291 106.06 14.6465L106.624 15.4253C106.284 15.6724 105.938 15.8514 105.587 15.9624C105.236 16.0734 104.85 16.1289 104.427 16.1289C103.571 16.1289 102.905 15.8836 102.429 15.3931C101.953 14.8989 101.713 14.2096 101.709 13.3252C101.709 12.4443 101.955 11.7318 102.445 11.1875C102.939 10.6432 103.571 10.3711 104.341 10.3711C105.079 10.3711 105.659 10.6038 106.082 11.0693C106.508 11.5312 106.721 12.1865 106.721 13.0352V13.5776ZM105.512 12.7129C105.512 12.2402 105.408 11.8857 105.201 11.6494C104.997 11.4095 104.707 11.2896 104.331 11.2896C103.976 11.2896 103.674 11.4185 103.423 11.6763C103.176 11.9305 103.024 12.276 102.966 12.7129H105.512Z" fill="white"/>
<path d="M34.481 21.4062H33.7632V26H33.2026V24.79L33.189 24.7866C33.1388 24.8299 33.0796 24.8743 33.0112 24.9199C32.9451 24.9655 32.8677 25.0076 32.7788 25.0464C32.6922 25.0851 32.5942 25.117 32.4849 25.1421C32.3755 25.1672 32.2547 25.1797 32.1226 25.1797C31.8742 25.1797 31.6475 25.1364 31.4424 25.0498C31.2373 24.9609 31.0607 24.8436 30.9126 24.6978C30.7668 24.5496 30.6528 24.381 30.5708 24.1919C30.4888 24.0005 30.4478 23.8011 30.4478 23.5938C30.4478 23.3841 30.4888 23.1893 30.5708 23.0093C30.6528 22.8293 30.7645 22.6743 30.9058 22.5444C31.0493 22.4123 31.2157 22.3086 31.4048 22.2334C31.5939 22.1582 31.7956 22.1206 32.0098 22.1206C32.0758 22.1206 32.1545 22.1263 32.2456 22.1377C32.3368 22.1468 32.4336 22.1685 32.5361 22.2026C32.641 22.2368 32.7492 22.2858 32.8608 22.3496C32.9725 22.4111 33.0819 22.4943 33.189 22.5991L33.2026 22.5957V21.4062H29.8804V20.9038H34.481V21.4062ZM30.9946 23.6484C30.9946 23.7738 31.0163 23.8968 31.0596 24.0176C31.1029 24.1383 31.1678 24.2466 31.2544 24.3423C31.341 24.438 31.4481 24.5155 31.5757 24.5747C31.7033 24.6317 31.8525 24.6602 32.0234 24.6602C32.1761 24.6602 32.3219 24.6351 32.4609 24.585L31.333 22.8896C31.2282 22.9762 31.145 23.0856 31.0835 23.2178C31.0243 23.3499 30.9946 23.4935 30.9946 23.6484ZM33.2163 23.2349C33.1343 23.146 33.05 23.0651 32.9634 22.9922C32.8791 22.9193 32.7891 22.8566 32.6934 22.8042C32.5977 22.7518 32.4963 22.7108 32.3892 22.6812C32.2843 22.6515 32.1715 22.6367 32.0508 22.6367C31.9984 22.6367 31.9482 22.6401 31.9004 22.647C31.8525 22.6538 31.8035 22.6629 31.7534 22.6743L32.8643 24.3423C32.9759 24.242 33.0625 24.1315 33.124 24.0107C33.1855 23.8877 33.2163 23.7681 33.2163 23.6519V23.2349ZM36.2993 21.4062H35.5815V26H35.021V21.4062H34.2417V20.9038H36.2993V21.4062ZM39.7925 25.436C39.6079 25.5454 39.4119 25.6274 39.2046 25.6821C38.9972 25.7368 38.7899 25.7642 38.5825 25.7642C38.3 25.7642 38.0436 25.7174 37.8135 25.624C37.5856 25.5283 37.3896 25.3973 37.2256 25.231C37.0638 25.0623 36.9385 24.8652 36.8496 24.6396C36.763 24.4141 36.7197 24.1691 36.7197 23.9048C36.7197 23.6541 36.7585 23.4354 36.8359 23.2485C36.9157 23.0617 37.0239 22.9067 37.1606 22.7837C37.2974 22.6584 37.458 22.5649 37.6426 22.5034C37.8294 22.4419 38.0299 22.4111 38.2441 22.4111H38.9106V21.4062H36.0601V20.9038H40.4351V21.4062H39.4712V22.9102H38.3672C38.2031 22.9102 38.0527 22.9329 37.916 22.9785C37.7816 23.0241 37.6654 23.0913 37.5674 23.1802C37.4717 23.269 37.3965 23.3796 37.3418 23.5117C37.2894 23.6416 37.2632 23.7931 37.2632 23.9663C37.2632 24.1554 37.2939 24.3275 37.3555 24.4824C37.4193 24.6374 37.507 24.7707 37.6187 24.8823C37.7326 24.994 37.867 25.0806 38.022 25.1421C38.1792 25.2036 38.3512 25.2344 38.5381 25.2344C38.6497 25.2344 38.7625 25.223 38.8765 25.2002C38.9904 25.1774 39.1009 25.1466 39.208 25.1079C39.3151 25.0692 39.4176 25.0247 39.5156 24.9746C39.6159 24.9245 39.7082 24.8709 39.7925 24.814V25.436ZM47.3633 21.4062H46.3447V22.6675H44.6323C44.4637 22.6675 44.3464 22.6914 44.2803 22.7393C44.2165 22.7871 44.1846 22.8646 44.1846 22.9717C44.1846 23.0264 44.1914 23.0833 44.2051 23.1426C44.2188 23.2018 44.2438 23.2576 44.2803 23.3101C44.3167 23.3602 44.3657 23.4023 44.4272 23.4365C44.491 23.4684 44.5719 23.4844 44.6699 23.4844H45.6372C45.8377 23.4844 46.0063 23.5117 46.1431 23.5664C46.2821 23.6211 46.3926 23.6963 46.4746 23.792C46.5589 23.8877 46.6193 24.0005 46.6558 24.1304C46.6922 24.2603 46.7104 24.3993 46.7104 24.5474C46.7104 24.7502 46.6763 24.9438 46.6079 25.1284C46.5418 25.313 46.4427 25.4759 46.3105 25.6172C46.1784 25.7585 46.0132 25.8713 45.8149 25.9556C45.619 26.0399 45.39 26.082 45.1279 26.082C44.8431 26.082 44.5697 26.0296 44.3076 25.9248C44.0479 25.8177 43.8086 25.6696 43.5898 25.4805C43.3734 25.2913 43.182 25.0669 43.0156 24.8071C42.8516 24.5474 42.7228 24.2625 42.6294 23.9526L43.1045 23.7646C43.1842 23.9993 43.2902 24.2249 43.4224 24.4414C43.5545 24.6579 43.7072 24.8493 43.8804 25.0156C44.0558 25.182 44.2484 25.3153 44.458 25.4155C44.6676 25.5135 44.8887 25.5625 45.1211 25.5625C45.2852 25.5625 45.431 25.5386 45.5586 25.4907C45.6885 25.4429 45.799 25.3745 45.8901 25.2856C45.9813 25.1968 46.0508 25.0908 46.0986 24.9678C46.1465 24.8424 46.1704 24.7023 46.1704 24.5474C46.1704 24.438 46.1579 24.3491 46.1328 24.2808C46.1077 24.2101 46.0679 24.1554 46.0132 24.1167C45.9608 24.078 45.8936 24.0518 45.8115 24.0381C45.7295 24.0221 45.6315 24.0142 45.5176 24.0142H44.6221C44.4535 24.0142 44.3076 23.9777 44.1846 23.9048C44.0615 23.8319 43.959 23.7396 43.877 23.6279C43.7972 23.5163 43.738 23.3932 43.6992 23.2588C43.6605 23.1221 43.6411 22.991 43.6411 22.8657C43.6411 22.7313 43.6628 22.6196 43.7061 22.5308C43.7493 22.4396 43.8086 22.3678 43.8838 22.3154C43.959 22.2607 44.0479 22.222 44.1504 22.1992C44.2552 22.1764 44.368 22.165 44.4888 22.165H45.7842V21.4062H42.1167V20.9038H47.3633V21.4062ZM49.1851 21.4062H48.4673V26H47.9067V21.4062H47.1274V20.9038H49.1851V21.4062ZM54.1172 21.4062H53.0029C53.069 21.5316 53.1191 21.6592 53.1533 21.7891C53.1898 21.9189 53.208 22.0488 53.208 22.1787C53.208 22.2881 53.1943 22.3952 53.167 22.5C53.1396 22.6048 53.0998 22.7039 53.0474 22.7974C52.995 22.8908 52.9289 22.9762 52.8491 23.0537C52.7694 23.1312 52.6771 23.1973 52.5723 23.252V23.2725C52.8092 23.4115 52.9972 23.5949 53.1362 23.8228C53.2775 24.0506 53.3481 24.3218 53.3481 24.6362C53.3481 24.8208 53.3208 25.0008 53.2661 25.1763C53.2114 25.3494 53.126 25.5033 53.0098 25.6377C52.8958 25.7721 52.7489 25.8804 52.5688 25.9624C52.3888 26.0422 52.1746 26.082 51.9263 26.082C51.6551 26.082 51.4079 26.0342 51.1846 25.9385C50.9635 25.8428 50.7642 25.7163 50.5864 25.5591C50.411 25.4019 50.256 25.2218 50.1216 25.019C49.9871 24.8162 49.8721 24.6077 49.7764 24.3936C49.6829 24.1771 49.6066 23.964 49.5474 23.7544C49.4881 23.5448 49.4448 23.3545 49.4175 23.1836L49.8652 22.9785C49.8971 23.1699 49.9438 23.367 50.0054 23.5698C50.0692 23.7726 50.1455 23.9697 50.2344 24.1611C50.3255 24.3525 50.4292 24.5337 50.5454 24.7046C50.6616 24.8755 50.7892 25.0247 50.9282 25.1523C51.0695 25.2799 51.221 25.3813 51.3828 25.4565C51.5469 25.5295 51.7201 25.5659 51.9023 25.5659C52.0117 25.5659 52.12 25.5511 52.2271 25.5215C52.3341 25.4896 52.4287 25.4372 52.5107 25.3643C52.5951 25.2891 52.6634 25.1899 52.7158 25.0669C52.7682 24.9438 52.7944 24.7912 52.7944 24.6089C52.7944 24.2466 52.6885 23.9743 52.4766 23.792C52.2669 23.6074 51.9548 23.5151 51.54 23.5151C51.5013 23.5151 51.458 23.5163 51.4102 23.5186C51.3623 23.5208 51.3133 23.5243 51.2632 23.5288V23.0093C51.2814 23.0093 51.3065 23.0104 51.3384 23.0127C51.3726 23.015 51.4181 23.0161 51.4751 23.0161C51.6893 23.0161 51.8716 22.9933 52.022 22.9478C52.1724 22.9022 52.2943 22.8395 52.3877 22.7598C52.4834 22.6777 52.5529 22.5832 52.5962 22.4761C52.6395 22.369 52.6611 22.2539 52.6611 22.1309C52.6611 21.9941 52.6383 21.8654 52.5928 21.7446C52.5495 21.6239 52.4914 21.5111 52.4185 21.4062H48.9458V20.9038H54.1172V21.4062ZM58.3726 21.4062H57.6548V26H57.0908V23.3647H55.4912C55.4912 23.5151 55.4889 23.6439 55.4844 23.751C55.4821 23.8581 55.473 23.9469 55.457 24.0176C55.4411 24.0859 55.4172 24.1361 55.3853 24.168C55.3534 24.1999 55.3089 24.2158 55.252 24.2158C55.1335 24.2158 55.0207 24.1771 54.9136 24.0996C54.8088 24.0221 54.7153 23.9287 54.6333 23.8193C54.5535 23.71 54.4897 23.596 54.4419 23.4775C54.394 23.359 54.3701 23.2588 54.3701 23.1768C54.3701 23.1038 54.3861 23.0469 54.418 23.0059C54.4499 22.9648 54.492 22.9341 54.5444 22.9136C54.5968 22.8931 54.6561 22.8805 54.7222 22.876C54.7905 22.8714 54.8589 22.8691 54.9272 22.8691H57.0908V21.4062H53.8813V20.9038H58.3726V21.4062ZM63.373 21.4062H62.6553V26.0034H62.0947V22.8008C61.974 22.7575 61.86 22.7358 61.7529 22.7358C61.6458 22.7358 61.5524 22.7563 61.4727 22.7974C61.3929 22.8361 61.3257 22.8885 61.271 22.9546C61.2186 23.0207 61.1787 23.0981 61.1514 23.187C61.124 23.2759 61.1104 23.3693 61.1104 23.4673C61.1104 23.506 61.1115 23.5459 61.1138 23.5869C61.1183 23.6257 61.1229 23.6644 61.1274 23.7031H60.6045C60.5863 23.571 60.5646 23.4445 60.5396 23.3237C60.5168 23.203 60.4826 23.097 60.437 23.0059C60.3937 22.9147 60.3368 22.8429 60.2661 22.7905C60.1955 22.7358 60.1043 22.7085 59.9927 22.7085C59.8856 22.7085 59.7933 22.7301 59.7158 22.7734C59.6406 22.8167 59.578 22.8771 59.5278 22.9546C59.4777 23.0321 59.4401 23.1232 59.415 23.228C59.3923 23.3306 59.3809 23.4422 59.3809 23.563C59.3809 23.8228 59.4253 24.0563 59.5142 24.2637C59.603 24.4688 59.7227 24.6533 59.873 24.8174C60.0257 24.9814 60.2012 25.1284 60.3994 25.2583C60.5999 25.3859 60.8107 25.5033 61.0317 25.6104L60.7549 26.082C60.6729 26.0456 60.5669 25.9909 60.437 25.918C60.3094 25.8451 60.1727 25.755 60.0269 25.6479C59.8833 25.5409 59.7386 25.4155 59.5928 25.272C59.4469 25.1284 59.3148 24.9678 59.1963 24.79C59.0801 24.6123 58.9855 24.4163 58.9126 24.2021C58.8397 23.988 58.8032 23.7567 58.8032 23.5083C58.8032 23.3169 58.8306 23.1392 58.8853 22.9751C58.9399 22.8088 59.0174 22.6652 59.1177 22.5444C59.2202 22.4214 59.3433 22.3257 59.4868 22.2573C59.6304 22.1867 59.7899 22.1514 59.9653 22.1514C60.0975 22.1514 60.2114 22.1707 60.3071 22.2095C60.4028 22.2459 60.4849 22.2926 60.5532 22.3496C60.6239 22.4043 60.682 22.4647 60.7275 22.5308C60.7731 22.5946 60.813 22.6549 60.8472 22.7119L60.8643 22.7085C60.9076 22.6128 60.9588 22.5319 61.0181 22.4658C61.0796 22.3997 61.1457 22.3462 61.2163 22.3052C61.2892 22.2642 61.3656 22.2345 61.4453 22.2163C61.5251 22.1958 61.6048 22.1855 61.6846 22.1855C61.7552 22.1855 61.8247 22.1924 61.8931 22.2061C61.9637 22.2174 62.0309 22.2345 62.0947 22.2573V21.4062H58.1333V20.9038H63.373V21.4062ZM65.1948 21.4062H64.4771V26H63.9165V21.4062H63.1372V20.9038H65.1948V21.4062ZM64.4292 20.9995H63.9336L63.6226 20.415C63.4904 20.1667 63.3696 19.9696 63.2603 19.8237C63.1532 19.6779 63.0518 19.5674 62.9561 19.4922C62.8581 19.4147 62.7624 19.3657 62.6689 19.3452C62.5755 19.3224 62.4775 19.311 62.375 19.311H61.7119V18.7573H62.3374C62.4696 18.7573 62.5892 18.7687 62.6963 18.7915C62.8034 18.812 62.9059 18.8507 63.0039 18.9077C63.0996 18.9624 63.193 19.0399 63.2842 19.1401C63.3776 19.2381 63.4767 19.3657 63.5815 19.5229C63.6864 19.6779 63.8003 19.8647 63.9233 20.0835C64.0487 20.3 64.1911 20.5563 64.3506 20.8525L64.4292 20.9995ZM70.2021 21.4062H69.1836V22.6675H67.4712C67.3026 22.6675 67.1852 22.6914 67.1191 22.7393C67.0553 22.7871 67.0234 22.8646 67.0234 22.9717C67.0234 23.0264 67.0303 23.0833 67.0439 23.1426C67.0576 23.2018 67.0827 23.2576 67.1191 23.3101C67.1556 23.3602 67.2046 23.4023 67.2661 23.4365C67.3299 23.4684 67.4108 23.4844 67.5088 23.4844H68.4761C68.6766 23.4844 68.8452 23.5117 68.9819 23.5664C69.1209 23.6211 69.2314 23.6963 69.3135 23.792C69.3978 23.8877 69.4582 24.0005 69.4946 24.1304C69.5311 24.2603 69.5493 24.3993 69.5493 24.5474C69.5493 24.7502 69.5151 24.9438 69.4468 25.1284C69.3807 25.313 69.2816 25.4759 69.1494 25.6172C69.0173 25.7585 68.8521 25.8713 68.6538 25.9556C68.4578 26.0399 68.2288 26.082 67.9668 26.082C67.682 26.082 67.4085 26.0296 67.1465 25.9248C66.8867 25.8177 66.6475 25.6696 66.4287 25.4805C66.2122 25.2913 66.0208 25.0669 65.8545 24.8071C65.6904 24.5474 65.5617 24.2625 65.4683 23.9526L65.9434 23.7646C66.0231 23.9993 66.1291 24.2249 66.2612 24.4414C66.3934 24.6579 66.5461 24.8493 66.7192 25.0156C66.8947 25.182 67.0872 25.3153 67.2969 25.4155C67.5065 25.5135 67.7275 25.5625 67.96 25.5625C68.124 25.5625 68.2699 25.5386 68.3975 25.4907C68.5273 25.4429 68.6379 25.3745 68.729 25.2856C68.8201 25.1968 68.8896 25.0908 68.9375 24.9678C68.9854 24.8424 69.0093 24.7023 69.0093 24.5474C69.0093 24.438 68.9967 24.3491 68.9717 24.2808C68.9466 24.2101 68.9067 24.1554 68.8521 24.1167C68.7996 24.078 68.7324 24.0518 68.6504 24.0381C68.5684 24.0221 68.4704 24.0142 68.3564 24.0142H67.4609C67.2923 24.0142 67.1465 23.9777 67.0234 23.9048C66.9004 23.8319 66.7979 23.7396 66.7158 23.6279C66.6361 23.5163 66.5768 23.3932 66.5381 23.2588C66.4993 23.1221 66.48 22.991 66.48 22.8657C66.48 22.7313 66.5016 22.6196 66.5449 22.5308C66.5882 22.4396 66.6475 22.3678 66.7227 22.3154C66.7979 22.2607 66.8867 22.222 66.9893 22.1992C67.0941 22.1764 67.2069 22.165 67.3276 22.165H68.623V21.4062H64.9556V20.9038H70.2021V21.4062ZM76.4912 21.4062H75.7734V26H75.2129V21.4062H73.6714V24.0586C73.6714 24.0951 73.6691 24.1372 73.6646 24.1851C73.66 24.2329 73.6486 24.2796 73.6304 24.3252C73.6144 24.3685 73.5905 24.4061 73.5586 24.438C73.5267 24.4676 73.4823 24.4824 73.4253 24.4824C73.3638 24.4824 73.2954 24.4631 73.2202 24.4243C73.1473 24.3833 73.0721 24.3309 72.9946 24.2671C72.9172 24.201 72.842 24.127 72.769 24.0449C72.6984 23.9629 72.6346 23.8786 72.5776 23.792C72.5207 23.7054 72.4751 23.6211 72.4409 23.5391C72.4067 23.457 72.3896 23.3841 72.3896 23.3203C72.3896 23.2633 72.4033 23.2178 72.4307 23.1836C72.4603 23.1494 72.5002 23.1232 72.5503 23.105C72.6027 23.0868 72.6654 23.0754 72.7383 23.0708C72.8135 23.0662 72.8955 23.064 72.9844 23.064H73.104V21.4062H71.8872V20.9038H76.4912V21.4062ZM80.7466 21.4062H80.0288V26H79.4648V23.3647H77.8652C77.8652 23.5151 77.863 23.6439 77.8584 23.751C77.8561 23.8581 77.847 23.9469 77.8311 24.0176C77.8151 24.0859 77.7912 24.1361 77.7593 24.168C77.7274 24.1999 77.6829 24.2158 77.626 24.2158C77.5075 24.2158 77.3947 24.1771 77.2876 24.0996C77.1828 24.0221 77.0894 23.9287 77.0073 23.8193C76.9276 23.71 76.8638 23.596 76.8159 23.4775C76.7681 23.359 76.7441 23.2588 76.7441 23.1768C76.7441 23.1038 76.7601 23.0469 76.792 23.0059C76.8239 22.9648 76.866 22.9341 76.9185 22.9136C76.9709 22.8931 77.0301 22.8805 77.0962 22.876C77.1646 22.8714 77.2329 22.8691 77.3013 22.8691H79.4648V21.4062H76.2554V20.9038H80.7466V21.4062ZM78.8018 26.1025C78.9476 26.0114 79.1094 25.9408 79.2871 25.8906C79.4626 25.8405 79.63 25.8154 79.7896 25.8154C79.9285 25.8154 80.0584 25.8359 80.1792 25.877C80.2977 25.9157 80.4014 25.9727 80.4902 26.0479C80.5791 26.1253 80.6486 26.2188 80.6987 26.3281C80.7489 26.4375 80.7739 26.5605 80.7739 26.6973C80.7739 26.8431 80.7443 26.9798 80.6851 27.1074C80.6281 27.235 80.5415 27.3467 80.4253 27.4424C80.3091 27.5381 80.1655 27.6133 79.9946 27.668C79.8237 27.7249 79.6255 27.7534 79.3999 27.7534C79.1424 27.7534 78.9123 27.7181 78.7095 27.6475C78.5044 27.5791 78.321 27.4914 78.1592 27.3843C77.9974 27.2795 77.855 27.1632 77.7319 27.0356C77.6089 26.908 77.5007 26.7873 77.4072 26.6733L77.7251 26.3008C77.855 26.4421 77.9792 26.5697 78.0977 26.6836C78.2161 26.7975 78.3392 26.8944 78.4668 26.9741C78.5944 27.0562 78.7323 27.1188 78.8804 27.1621C79.0262 27.2054 79.1914 27.2271 79.376 27.2271C79.5332 27.2271 79.6676 27.2111 79.7793 27.1792C79.8887 27.1496 79.9787 27.1097 80.0493 27.0596C80.12 27.0117 80.1712 26.9559 80.2031 26.8921C80.235 26.8306 80.251 26.7679 80.251 26.7041C80.251 26.5879 80.2077 26.4956 80.1211 26.4272C80.0322 26.3589 79.9126 26.3247 79.7622 26.3247C79.6642 26.3247 79.5514 26.3418 79.4238 26.376C79.2939 26.4102 79.1629 26.4671 79.0308 26.5469L78.8018 26.1025ZM80.6577 19.4102C80.5575 19.2962 80.464 19.2131 80.3774 19.1606C80.2909 19.1082 80.1895 19.082 80.0732 19.082C79.8955 19.082 79.7531 19.1436 79.646 19.2666C79.5389 19.3874 79.4854 19.5583 79.4854 19.7793C79.4854 19.8704 79.4956 19.9661 79.5161 20.0664C79.5366 20.1644 79.5662 20.2635 79.605 20.3638C79.6437 20.464 79.6916 20.5632 79.7485 20.6611C79.8055 20.7591 79.8704 20.8525 79.9434 20.9414H79.376C79.2393 20.7477 79.1367 20.5495 79.0684 20.3467C79 20.1416 78.9658 19.9422 78.9658 19.7485C78.9658 19.5617 78.9966 19.3942 79.0581 19.2461C79.1174 19.098 79.1971 18.9738 79.2974 18.8735C79.3976 18.7733 79.515 18.6969 79.6494 18.6445C79.7816 18.5898 79.9217 18.5625 80.0698 18.5625C80.2681 18.5625 80.4447 18.6024 80.5996 18.6821C80.7568 18.7596 80.9038 18.8849 81.0405 19.0581L80.6577 19.4102ZM83.1323 25.0361C83.2075 25.0133 83.2816 24.9849 83.3545 24.9507C83.4297 24.9165 83.4958 24.8755 83.5527 24.8276C83.612 24.7775 83.6598 24.7194 83.6963 24.6533C83.7327 24.5872 83.751 24.5098 83.751 24.4209C83.751 24.2318 83.6724 24.0848 83.5151 23.98C83.3579 23.8729 83.1346 23.8193 82.8452 23.8193C82.729 23.8193 82.6094 23.8319 82.4863 23.8569C82.3656 23.8797 82.255 23.923 82.1548 23.9868C82.0545 24.0483 81.9725 24.1338 81.9087 24.2432C81.8449 24.3503 81.813 24.487 81.813 24.6533C81.813 24.8219 81.846 24.9792 81.9121 25.125C81.9782 25.2686 82.0636 25.4007 82.1685 25.5215C82.2756 25.6423 82.3952 25.7516 82.5273 25.8496C82.6595 25.9476 82.7905 26.0342 82.9204 26.1094C83.0526 26.1846 83.1768 26.2472 83.293 26.2974C83.4092 26.3498 83.506 26.3908 83.5835 26.4204L83.3579 26.8921C83.1984 26.8237 83.0355 26.7485 82.8691 26.6665C82.7051 26.5868 82.5456 26.4979 82.3906 26.3999C82.2357 26.3042 82.0898 26.1982 81.9531 26.082C81.8164 25.9658 81.6968 25.8371 81.5942 25.6958C81.494 25.5545 81.4142 25.3996 81.355 25.231C81.298 25.0623 81.2695 24.8789 81.2695 24.6807C81.2695 24.487 81.2946 24.3184 81.3447 24.1748C81.3971 24.029 81.4689 23.9014 81.5601 23.792C81.4347 23.6484 81.3424 23.5037 81.2832 23.3579C81.224 23.2121 81.1943 23.0537 81.1943 22.8828C81.1943 22.7848 81.2057 22.6925 81.2285 22.606C81.2536 22.5194 81.2969 22.4442 81.3584 22.3804C81.4222 22.3143 81.5099 22.2619 81.6216 22.2231C81.7332 22.1844 81.8779 22.165 82.0557 22.165H83.604V21.4062H80.5073V20.9038H84.9609V21.4062H84.1646V22.6641H82.1992C82.1104 22.6641 82.0352 22.672 81.9736 22.688C81.9144 22.7017 81.8665 22.7233 81.8301 22.7529C81.7936 22.7826 81.7674 22.8201 81.7515 22.8657C81.7378 22.909 81.731 22.9603 81.731 23.0195C81.731 23.0993 81.7446 23.1768 81.772 23.252C81.7993 23.3271 81.8506 23.4115 81.9258 23.5049C82.0579 23.4365 82.2026 23.3864 82.3599 23.3545C82.5194 23.3203 82.6857 23.3032 82.8589 23.3032C83.0594 23.3032 83.2463 23.326 83.4194 23.3716C83.5949 23.4172 83.7464 23.4867 83.874 23.5801C84.0039 23.6712 84.1053 23.7886 84.1782 23.9321C84.2534 24.0734 84.291 24.2397 84.291 24.4312C84.291 24.6157 84.2591 24.7718 84.1953 24.8994C84.1338 25.027 84.0552 25.1341 83.9595 25.2207C83.866 25.3073 83.7635 25.3779 83.6519 25.4326C83.5402 25.485 83.4365 25.5283 83.3408 25.5625L83.1323 25.0361ZM86.7827 21.4062H86.0649V26H85.5044V21.4062H84.7251V20.9038H86.7827V21.4062ZM86.0171 20.9995H85.5215L85.2104 20.415C85.0783 20.1667 84.9575 19.9696 84.8481 19.8237C84.741 19.6779 84.6396 19.5674 84.5439 19.4922C84.446 19.4147 84.3503 19.3657 84.2568 19.3452C84.1634 19.3224 84.0654 19.311 83.9629 19.311H83.2998V18.7573H83.9253C84.0575 18.7573 84.1771 18.7687 84.2842 18.7915C84.3913 18.812 84.4938 18.8507 84.5918 18.9077C84.6875 18.9624 84.7809 19.0399 84.8721 19.1401C84.9655 19.2381 85.0646 19.3657 85.1694 19.5229C85.2743 19.6779 85.3882 19.8647 85.5112 20.0835C85.6366 20.3 85.779 20.5563 85.9385 20.8525L86.0171 20.9995ZM91.8242 20.9038V21.4062H91.1064V26H90.5391V23.7031H88.5601C88.4393 23.7829 88.2946 23.8307 88.126 23.8467L88.1191 23.8638C88.3402 24.2101 88.5828 24.5326 88.8472 24.8311C89.1115 25.1296 89.4123 25.4064 89.7495 25.6616L89.3838 26.082C89.1901 25.9385 89.0055 25.7835 88.8301 25.6172C88.6569 25.4508 88.4928 25.2788 88.3379 25.1011C88.1852 24.9211 88.0417 24.7399 87.9072 24.5576C87.7728 24.373 87.6497 24.1919 87.5381 24.0142C87.4264 23.8364 87.3262 23.6655 87.2373 23.5015C87.1484 23.3351 87.071 23.1813 87.0049 23.04L87.4731 22.7871C87.5164 22.8874 87.5586 22.9717 87.5996 23.04C87.6429 23.1061 87.6862 23.1597 87.7295 23.2007C87.7728 23.2394 87.8184 23.2679 87.8662 23.2861C87.9141 23.3021 87.9653 23.3101 88.02 23.3101C88.1772 23.3101 88.2923 23.2485 88.3652 23.1255C88.4404 23.0024 88.478 22.8407 88.478 22.6401C88.478 22.5216 88.4666 22.4054 88.4438 22.2915C88.4211 22.1753 88.3914 22.0648 88.355 21.96C88.3208 21.8529 88.2832 21.7526 88.2422 21.6592C88.2012 21.5658 88.1624 21.4814 88.126 21.4062H86.5435V20.9038H91.8242ZM90.5391 21.4062H88.7173C88.813 21.6136 88.8882 21.8221 88.9429 22.0317C88.9976 22.2414 89.0249 22.4499 89.0249 22.6572C89.0249 22.7529 89.0169 22.8475 89.001 22.9409C88.9873 23.0321 88.9634 23.1187 88.9292 23.2007L88.936 23.2075H90.5391V21.4062ZM91.7832 27.7534L90.4229 26.4854L90.7578 26.1094L92.1284 27.3672L91.7832 27.7534Z" fill="white" fill-opacity="0.786"/>
<defs>
<filter id="filter0_dd_976_1856" x="11.0938" y="7.25" width="11.8125" height="5.625" filterUnits="userSpaceOnUse" color-interpolation-filters="sRGB">
<feFlood flood-opacity="0" result="BackgroundImageFix"/>
<feColorMatrix in="SourceAlpha" type="matrix" values="0 0 0 0 0 0 0 0 0 0 0 0 0 0 0 0 0 0 127 0" result="hardAlpha"/>
<feOffset dy="0.1875"/>
<feGaussianBlur stdDeviation="0.1875"/>
<feColorMatrix type="matrix" values="0 0 0 0 0 0 0 0 0 0 0 0 0 0 0 0 0 0 0.1 0"/>
<feBlend mode="normal" in2="BackgroundImageFix" result="effect1_dropShadow_976_1856"/>
<feColorMatrix in="SourceAlpha" type="matrix" values="0 0 0 0 0 0 0 0 0 0 0 0 0 0 0 0 0 0 127 0" result="hardAlpha"/>
<feOffset dy="0.375"/>
<feGaussianBlur stdDeviation="0.5625"/>
<feColorMatrix type="matrix" values="0 0 0 0 0 0 0 0 0 0 0 0 0 0 0 0 0 0 0.2 0"/>
<feBlend mode="normal" in2="effect1_dropShadow_976_1856" result="effect2_dropShadow_976_1856"/>
<feBlend mode="normal" in="SourceGraphic" in2="effect2_dropShadow_976_1856" result="shape"/>
</filter>
<filter id="filter1_dd_976_1856" x="12.2188" y="13.4375" width="9.5625" height="9.5625" filterUnits="userSpaceOnUse" color-interpolation-filters="sRGB">
<feFlood flood-opacity="0" result="BackgroundImageFix"/>
<feColorMatrix in="SourceAlpha" type="matrix" values="0 0 0 0 0 0 0 0 0 0 0 0 0 0 0 0 0 0 127 0" result="hardAlpha"/>
<feOffset dy="0.1875"/>
<feGaussianBlur stdDeviation="0.1875"/>
<feColorMatrix type="matrix" values="0 0 0 0 1 0 0 0 0 1 0 0 0 0 1 0 0 0 0.6 0"/>
<feBlend mode="normal" in2="BackgroundImageFix" result="effect1_dropShadow_976_1856"/>
<feColorMatrix in="SourceAlpha" type="matrix" values="0 0 0 0 0 0 0 0 0 0 0 0 0 0 0 0 0 0 127 0" result="hardAlpha"/>
<feOffset dy="0.375"/>
<feGaussianBlur stdDeviation="0.5625"/>
<feColorMatrix type="matrix" values="0 0 0 0 1 0 0 0 0 1 0 0 0 0 1 0 0 0 0.6 0"/>
<feBlend mode="normal" in2="effect1_dropShadow_976_1856" result="effect2_dropShadow_976_1856"/>
<feBlend mode="normal" in="SourceGraphic" in2="effect2_dropShadow_976_1856" result="shape"/>
</filter>
<filter id="filter2_dd_976_1856" x="10.5939" y="6.6875" width="12.8124" height="5.06274" filterUnits="userSpaceOnUse" color-interpolation-filters="sRGB">
<feFlood flood-opacity="0" result="BackgroundImageFix"/>
<feColorMatrix in="SourceAlpha" type="matrix" values="0 0 0 0 0 0 0 0 0 0 0 0 0 0 0 0 0 0 127 0" result="hardAlpha"/>
<feOffset dy="-0.75"/>
<feGaussianBlur stdDeviation="0.1875"/>
<feColorMatrix type="matrix" values="0 0 0 0 0 0 0 0 0 0 0 0 0 0 0 0 0 0 0.1 0"/>
<feBlend mode="normal" in2="BackgroundImageFix" result="effect1_dropShadow_976_1856"/>
<feColorMatrix in="SourceAlpha" type="matrix" values="0 0 0 0 0 0 0 0 0 0 0 0 0 0 0 0 0 0 127 0" result="hardAlpha"/>
<feOffset dy="-0.75"/>
<feGaussianBlur stdDeviation="0.5625"/>
<feColorMatrix type="matrix" values="0 0 0 0 0 0 0 0 0 0 0 0 0 0 0 0 0 0 0.2 0"/>
<feBlend mode="normal" in2="effect1_dropShadow_976_1856" result="effect2_dropShadow_976_1856"/>
<feBlend mode="normal" in="SourceGraphic" in2="effect2_dropShadow_976_1856" result="shape"/>
</filter>
<linearGradient id="paint0_linear_976_1856" x1="12.2443" y1="8.00639" x2="15.9039" y2="24.8132" gradientUnits="userSpaceOnUse">
<stop offset="0.270833" stop-color="white"/>
<stop offset="1" stop-color="#DFDFDF"/>
</linearGradient>
<linearGradient id="paint1_linear_976_1856" x1="17" y1="10.25" x2="20.3514" y2="25.9624" gradientUnits="userSpaceOnUse">
<stop stop-color="#0078D4"/>
<stop offset="1" stop-color="#114A8B"/>
</linearGradient>
<linearGradient id="paint2_linear_976_1856" x1="17" y1="8.5625" x2="17.1583" y2="10.9858" gradientUnits="userSpaceOnUse">
<stop stop-color="#28AFEA"/>
<stop offset="1" stop-color="#0078D4"/>
</linearGradient>
<linearGradient id="paint3_linear_976_1856" x1="17" y1="8.5625" x2="17.1583" y2="10.9858" gradientUnits="userSpaceOnUse">
<stop stop-color="#30DAFF"/>
<stop offset="1" stop-color="#0094D4"/>
</linearGradient>
<linearGradient id="paint4_linear_976_1856" x1="16.5938" y1="8" x2="16.5937" y2="9.125" gradientUnits="userSpaceOnUse">
<stop stop-color="#22BCFF"/>
<stop offset="1" stop-color="#0088F0"/>
</linearGradient>
<linearGradient id="paint5_linear_976_1856" x1="16.5938" y1="8" x2="16.5937" y2="9.125" gradientUnits="userSpaceOnUse">
<stop stop-color="#28AFEA"/>
<stop offset="1" stop-color="#3CCBF4"/>
</linearGradient>
<clipPath id="clip0_976_1856">
<rect width="18" height="18" fill="white" transform="translate(8 8)"/>
</clipPath>
<clipPath id="clip1_976_1856">
<rect width="18" height="18" fill="white" transform="translate(8 8)"/>
</clipPath>
</defs>
</svg>
