<svg width="99" height="32" viewBox="0 0 99 32" fill="none" xmlns="http://www.w3.org/2000/svg">
<rect x="0.5" y="0.5" width="98" height="31" rx="3.5" fill="black"/>
<path d="M15.5559 7H7V15.5608H15.5559V7Z" fill="#F25022"/>
<path d="M25.0001 7H16.4442V15.5608H25.0001V7Z" fill="#7FBA00"/>
<path d="M15.5559 16.4395H7V25.0002H15.5559V16.4395Z" fill="#00A4EF"/>
<path d="M25.0002 16.4395H16.4443V25.0002H25.0002V16.4395Z" fill="#FFB900"/>
<path d="M29.7656 13V7.39844H31.3516C32.3411 7.39844 33.082 7.6263 33.5742 8.08203C34.069 8.53516 34.3164 9.21745 34.3164 10.1289C34.3164 10.9935 34.0417 11.6888 33.4922 12.2148C32.9453 12.7383 32.2135 13 31.2969 13H29.7656ZM30.4766 8.03125V12.3672H31.293C32.0091 12.3672 32.5664 12.1745 32.9648 11.7891C33.3659 11.401 33.5664 10.8529 33.5664 10.1445C33.5664 9.44401 33.3789 8.91667 33.0039 8.5625C32.6315 8.20833 32.0729 8.03125 31.3281 8.03125H30.4766ZM37.1328 13.0977C36.5208 13.0977 36.0326 12.9062 35.668 12.5234C35.306 12.138 35.125 11.6276 35.125 10.9922C35.125 10.3073 35.3125 9.77214 35.6875 9.38672C36.0625 9.0013 36.5742 8.80729 37.2227 8.80469C37.8372 8.80208 38.3177 8.99089 38.6641 9.37109C39.013 9.7487 39.1875 10.2682 39.1875 10.9297C39.1875 11.5885 39.0013 12.1146 38.6289 12.5078C38.2565 12.901 37.7578 13.0977 37.1328 13.0977ZM37.1797 12.5195C37.5964 12.5195 37.9154 12.3841 38.1367 12.1133C38.3607 11.8398 38.4727 11.4531 38.4727 10.9531C38.4727 10.4479 38.3607 10.0599 38.1367 9.78906C37.9128 9.51823 37.5938 9.38281 37.1797 9.38281C36.7656 9.38281 36.4375 9.52474 36.1953 9.80859C35.9557 10.0898 35.8359 10.4779 35.8359 10.9727C35.8359 11.4544 35.957 11.8333 36.1992 12.1094C36.4414 12.3828 36.7682 12.5195 37.1797 12.5195ZM45.4922 8.90234L44.2656 13H43.543L42.7148 10.0977C42.694 10.0247 42.6797 9.96094 42.6719 9.90625C42.6641 9.84896 42.6576 9.78516 42.6523 9.71484H42.6367C42.6315 9.78255 42.6211 9.84375 42.6055 9.89844C42.5924 9.95312 42.5742 10.0182 42.5508 10.0938L41.6562 13H40.957L39.7227 8.90234H40.4492L41.2812 11.957C41.2943 12.0039 41.3047 12.0586 41.3125 12.1211C41.3229 12.1836 41.3307 12.2539 41.3359 12.332H41.3672C41.3724 12.2721 41.3802 12.2096 41.3906 12.1445C41.4036 12.0794 41.4206 12.0143 41.4414 11.9492L42.3672 8.90234H43.0039L43.8359 11.9648C43.849 12.0117 43.8607 12.0664 43.8711 12.1289C43.8815 12.1914 43.8906 12.2617 43.8984 12.3398H43.9297C43.9323 12.2852 43.9388 12.2266 43.9492 12.1641C43.9622 12.1016 43.9779 12.0352 43.9961 11.9648L44.8086 8.90234H45.4922ZM49.7383 13H49.043V10.6641C49.043 10.237 48.9648 9.91667 48.8086 9.70312C48.6523 9.48958 48.4193 9.38281 48.1094 9.38281C47.7865 9.38281 47.5195 9.50391 47.3086 9.74609C47.1003 9.98568 46.9961 10.2904 46.9961 10.6602V13H46.3008V8.90234H46.9961V9.58203H47.0117C47.1654 9.32161 47.3542 9.1276 47.5781 9C47.8021 8.86979 48.0612 8.80469 48.3555 8.80469C48.8034 8.80469 49.1458 8.94922 49.3828 9.23828C49.6198 9.52734 49.7383 9.94531 49.7383 10.4922V13ZM51.0039 13V7.07812H51.6992V13H51.0039ZM54.7891 13.0977C54.1771 13.0977 53.6888 12.9062 53.3242 12.5234C52.9622 12.138 52.7812 11.6276 52.7812 10.9922C52.7812 10.3073 52.9688 9.77214 53.3438 9.38672C53.7188 9.0013 54.2305 8.80729 54.8789 8.80469C55.4935 8.80208 55.974 8.99089 56.3203 9.37109C56.6693 9.7487 56.8438 10.2682 56.8438 10.9297C56.8438 11.5885 56.6576 12.1146 56.2852 12.5078C55.9128 12.901 55.4141 13.0977 54.7891 13.0977ZM54.8359 12.5195C55.2526 12.5195 55.5716 12.3841 55.793 12.1133C56.0169 11.8398 56.1289 11.4531 56.1289 10.9531C56.1289 10.4479 56.0169 10.0599 55.793 9.78906C55.569 9.51823 55.25 9.38281 54.8359 9.38281C54.4219 9.38281 54.0938 9.52474 53.8516 9.80859C53.612 10.0898 53.4922 10.4779 53.4922 10.9727C53.4922 11.4544 53.6133 11.8333 53.8555 12.1094C54.0977 12.3828 54.4245 12.5195 54.8359 12.5195ZM60.875 13H60.1836V12.3555H60.168C60.0273 12.6003 59.8529 12.7852 59.6445 12.9102C59.4362 13.0352 59.194 13.0977 58.918 13.0977C58.5326 13.0977 58.2214 12.9857 57.9844 12.7617C57.7474 12.5378 57.6289 12.2422 57.6289 11.875C57.6289 11.5182 57.7487 11.2253 57.9883 10.9961C58.2279 10.7669 58.5729 10.6198 59.0234 10.5547L60.1875 10.3984V10.3047C60.1875 9.97396 60.1081 9.73568 59.9492 9.58984C59.793 9.44401 59.582 9.37109 59.3164 9.37109C59.1055 9.37109 58.8997 9.41146 58.6992 9.49219C58.4987 9.57292 58.3086 9.69401 58.1289 9.85547L57.75 9.43359C57.9818 9.22005 58.2292 9.0625 58.4922 8.96094C58.7578 8.85677 59.0482 8.80469 59.3633 8.80469C59.8633 8.80469 60.2396 8.93359 60.4922 9.19141C60.7474 9.44922 60.875 9.83594 60.875 10.3516V13ZM60.1875 11.3281V10.9336L59.2109 11.0664C58.9115 11.1081 58.6875 11.1836 58.5391 11.293C58.3906 11.4023 58.3164 11.5742 58.3164 11.8086C58.3164 12.0404 58.3854 12.2201 58.5234 12.3477C58.6641 12.4753 58.8385 12.5391 59.0469 12.5391C59.3906 12.5391 59.6667 12.4258 59.875 12.1992C60.0833 11.9701 60.1875 11.6797 60.1875 11.3281ZM64.9961 12.3125C64.8451 12.5729 64.6523 12.7695 64.418 12.9023C64.1862 13.0326 63.9128 13.0977 63.5977 13.0977C63.082 13.0977 62.6693 12.9141 62.3594 12.5469C62.0521 12.1797 61.8984 11.6797 61.8984 11.0469C61.8984 10.3672 62.069 9.82422 62.4102 9.41797C62.7513 9.00911 63.2057 8.80469 63.7734 8.80469C64.0547 8.80469 64.2969 8.85938 64.5 8.96875C64.7031 9.07812 64.8685 9.24349 64.9961 9.46484H65.0117V7.07812H65.707V13H65.0117V12.3125H64.9961ZM62.6094 11.0117C62.6094 11.4805 62.7174 11.849 62.9336 12.1172C63.1497 12.3854 63.4388 12.5195 63.8008 12.5195C64.1654 12.5195 64.4583 12.3893 64.6797 12.1289C64.901 11.8685 65.0117 11.5391 65.0117 11.1406V10.5547C65.0117 10.2266 64.9036 9.94922 64.6875 9.72266C64.474 9.49609 64.2031 9.38281 63.875 9.38281C63.4818 9.38281 63.1719 9.52734 62.9453 9.81641C62.7214 10.1055 62.6094 10.5039 62.6094 11.0117ZM72.6914 13H71.9961V10.6367C71.9961 10.2174 71.918 9.90365 71.7617 9.69531C71.6055 9.48698 71.3724 9.38281 71.0625 9.38281C70.7474 9.38281 70.4831 9.50391 70.2695 9.74609C70.056 9.98568 69.9492 10.2969 69.9492 10.6797V13H69.2539V7.07812H69.9492V9.57812H69.9648C70.1211 9.32031 70.3112 9.1276 70.5352 9C70.7591 8.86979 71.0156 8.80469 71.3047 8.80469C71.7656 8.80469 72.112 8.94401 72.3438 9.22266C72.5755 9.5013 72.6914 9.91927 72.6914 10.4766V13ZM77.2812 11.1094H74.3984C74.4115 11.5625 74.5326 11.9115 74.7617 12.1562C74.9909 12.3984 75.3125 12.5195 75.7266 12.5195C75.9062 12.5195 76.0898 12.4922 76.2773 12.4375C76.4674 12.3802 76.6576 12.2878 76.8477 12.1602L77.1641 12.6445C76.9271 12.8008 76.6888 12.9154 76.4492 12.9883C76.2096 13.0612 75.9466 13.0977 75.6602 13.0977C75.0404 13.0977 74.5573 12.9141 74.2109 12.5469C73.8646 12.1771 73.6901 11.6615 73.6875 11C73.6849 10.3411 73.8594 9.8112 74.2109 9.41016C74.5651 9.00651 75.0234 8.80469 75.5859 8.80469C76.1224 8.80469 76.5391 8.97917 76.8359 9.32812C77.1328 9.67448 77.2812 10.1576 77.2812 10.7773V11.1094ZM76.582 10.5625C76.5794 10.1849 76.4883 9.89193 76.3086 9.68359C76.1315 9.47526 75.8867 9.37109 75.5742 9.37109C75.2669 9.37109 75.0065 9.47917 74.793 9.69531C74.582 9.90885 74.4531 10.1979 74.4062 10.5625H76.582ZM80.3164 12.9492C80.2044 12.9961 80.0924 13.0299 79.9805 13.0508C79.8711 13.0742 79.7474 13.0859 79.6094 13.0859C79.2734 13.0859 79.0104 12.9896 78.8203 12.7969C78.6328 12.6042 78.5391 12.319 78.5391 11.9414V9.48047H77.8398V8.90234H78.5391V7.96484L79.2383 7.74219V8.90234H80.2617V9.48047H79.2383V11.8672C79.2383 12.099 79.2799 12.2656 79.3633 12.3672C79.4466 12.4688 79.5716 12.5195 79.7383 12.5195C79.8164 12.5195 79.8919 12.5104 79.9648 12.4922C80.0378 12.474 80.1003 12.4518 80.1523 12.4258L80.3164 12.9492ZM84.0977 12.4609H84.082V13H83.3867V7.07812H84.082V9.61719H84.0977C84.2591 9.34635 84.4583 9.14323 84.6953 9.00781C84.9323 8.8724 85.2057 8.80469 85.5156 8.80469C86.0391 8.80469 86.4492 8.98828 86.7461 9.35547C87.043 9.72005 87.1914 10.2109 87.1914 10.8281C87.1914 11.5156 87.0234 12.0664 86.6875 12.4805C86.3542 12.8919 85.8997 13.0977 85.3242 13.0977C85.0534 13.0977 84.8151 13.0456 84.6094 12.9414C84.4062 12.8346 84.2357 12.6745 84.0977 12.4609ZM84.0781 10.7578V11.3125C84.0781 11.651 84.1862 11.9375 84.4023 12.1719C84.6185 12.4036 84.8945 12.5195 85.2305 12.5195C85.6185 12.5195 85.9232 12.3698 86.1445 12.0703C86.3659 11.7708 86.4766 11.3542 86.4766 10.8203C86.4766 10.3724 86.3737 10.0208 86.168 9.76562C85.9622 9.51042 85.6823 9.38281 85.3281 9.38281C84.9505 9.38281 84.6471 9.51432 84.418 9.77734C84.1914 10.0378 84.0781 10.3646 84.0781 10.7578ZM88.625 8.03516C88.487 8.03516 88.3724 7.98958 88.2812 7.89844C88.1901 7.80729 88.1445 7.69661 88.1445 7.56641C88.1445 7.43099 88.1901 7.31901 88.2812 7.23047C88.3724 7.13932 88.487 7.09375 88.625 7.09375C88.763 7.09375 88.8776 7.13932 88.9688 7.23047C89.0625 7.31901 89.1094 7.43099 89.1094 7.56641C89.1094 7.69661 89.0625 7.80729 88.9688 7.89844C88.8776 7.98958 88.763 8.03516 88.625 8.03516ZM88.9648 13H88.2695V8.90234H88.9648V13ZM90.7227 8.03516C90.5846 8.03516 90.4688 7.98958 90.375 7.89844C90.2839 7.80729 90.2383 7.69661 90.2383 7.56641C90.2383 7.43359 90.2839 7.32161 90.375 7.23047C90.4688 7.13932 90.5846 7.09375 90.7227 7.09375C90.8581 7.09375 90.9714 7.13932 91.0625 7.23047C91.1562 7.32161 91.2031 7.43359 91.2031 7.56641C91.2031 7.69661 91.1562 7.80729 91.0625 7.89844C90.9714 7.98958 90.8581 8.03516 90.7227 8.03516ZM91.0547 13.1328C91.0547 13.7474 90.9388 14.1927 90.707 14.4688C90.4753 14.7448 90.125 14.8828 89.6562 14.8828C89.5495 14.8828 89.4505 14.875 89.3594 14.8594C89.2656 14.8464 89.168 14.8242 89.0664 14.793L89.2148 14.2148C89.2956 14.2435 89.3698 14.2643 89.4375 14.2773C89.5052 14.2904 89.5755 14.2969 89.6484 14.2969C89.9089 14.2969 90.0924 14.2096 90.1992 14.0352C90.306 13.8633 90.3594 13.5768 90.3594 13.1758V8.90234H91.0547V13.1328Z" fill="white"/>
<path d="M41.1489 16.6123C41.1489 16.3559 41.2412 16.1507 41.4259 15.9764C41.6105 15.802 41.8258 15.72 42.0823 15.72C42.3489 15.72 42.5746 15.8123 42.7489 15.9866C42.9233 16.161 43.0156 16.3764 43.0156 16.6123C43.0156 16.8584 42.9233 17.0738 42.7387 17.2379C42.5541 17.4123 42.3387 17.4943 42.072 17.4943C41.8053 17.4943 41.59 17.4123 41.4053 17.2379C41.2412 17.0636 41.1489 16.8584 41.1489 16.6123ZM42.8412 25.002H41.313V18.4892H42.8412V25.002Z" fill="white"/>
<path d="M47.4975 23.8887C47.7231 23.8887 47.9795 23.8374 48.2565 23.7348C48.5334 23.6323 48.7795 23.4887 49.0154 23.3143V24.74C48.7693 24.8836 48.4924 24.9861 48.1847 25.0579C47.877 25.1297 47.5282 25.1707 47.159 25.1707C46.2052 25.1707 45.4257 24.863 44.8205 24.2579C44.2154 23.6528 43.918 22.8733 43.918 21.94C43.918 20.8938 44.2257 20.0323 44.8411 19.3553C45.4564 18.6784 46.318 18.34 47.4462 18.34C47.7334 18.34 48.0206 18.381 48.318 18.4528C48.6154 18.5246 48.8411 18.6169 49.0154 18.7092V20.1759C48.7795 20.0015 48.5334 19.8682 48.2872 19.7759C48.0411 19.6836 47.7847 19.6323 47.5282 19.6323C46.9231 19.6323 46.4411 19.8271 46.0616 20.2169C45.6923 20.6066 45.5077 21.14 45.5077 21.8066C45.5077 22.463 45.6821 22.9759 46.0411 23.3451C46.4 23.7143 46.8821 23.8887 47.4975 23.8887Z" fill="white"/>
<path d="M53.3738 18.39C53.4969 18.39 53.6097 18.4003 53.702 18.4105C53.7943 18.431 53.8866 18.4516 53.9482 18.4721V20.0208C53.8661 19.9592 53.7533 19.908 53.5995 19.8567C53.4456 19.8054 53.261 19.7746 53.0354 19.7746C52.6559 19.7746 52.3379 19.9285 52.0815 20.2464C51.8251 20.5644 51.6918 21.0464 51.6918 21.7131V25.0054H50.1636V18.4926H51.6918V19.5182H51.7123C51.8559 19.1592 52.061 18.8823 52.3482 18.6874C52.6354 18.4926 52.9738 18.39 53.3738 18.39Z" fill="white"/>
<path d="M54.0308 21.8477C54.0308 20.7707 54.3385 19.9195 54.9436 19.2836C55.5487 18.6579 56.4 18.34 57.4769 18.34C58.4923 18.34 59.2923 18.6477 59.8667 19.2528C60.441 19.8579 60.7282 20.6784 60.7282 21.7041C60.7282 22.7605 60.4205 23.6015 59.8154 24.2271C59.2102 24.8528 58.3795 25.1605 57.3333 25.1605C56.3282 25.1605 55.5179 24.863 54.9333 24.2682C54.3282 23.6836 54.0308 22.8733 54.0308 21.8477ZM55.6308 21.7964C55.6308 22.4733 55.7846 22.9964 56.0923 23.3553C56.4 23.7143 56.841 23.8887 57.4154 23.8887C57.9692 23.8887 58.4 23.7143 58.6872 23.3553C58.9743 22.9964 59.1282 22.463 59.1282 21.7554C59.1282 21.0579 58.9743 20.5246 58.6769 20.1656C58.3795 19.8066 57.9487 19.6323 57.4051 19.6323C56.841 19.6323 56.4102 19.8169 56.0923 20.1964C55.7846 20.5759 55.6308 21.0989 55.6308 21.7964Z" fill="white"/>
<path d="M63.0053 20.2069C63.0053 20.4223 63.0771 20.5966 63.2104 20.7197C63.354 20.8428 63.6617 20.9966 64.1335 21.1915C64.7489 21.4377 65.1796 21.7146 65.4258 22.0223C65.6719 22.33 65.795 22.6992 65.795 23.13C65.795 23.7454 65.5591 24.2377 65.0873 24.6069C64.6155 24.9761 63.9796 25.1607 63.1796 25.1607C62.913 25.1607 62.6155 25.13 62.2873 25.0582C61.9591 24.9966 61.6822 24.9043 61.4565 24.812V23.3043C61.7335 23.4992 62.0309 23.653 62.3591 23.7659C62.6771 23.8787 62.9745 23.9402 63.2309 23.9402C63.5796 23.9402 63.836 23.8889 64.0001 23.7966C64.1642 23.7043 64.2463 23.5402 64.2463 23.3043C64.2463 23.0889 64.1642 22.9146 63.9899 22.771C63.8155 22.6274 63.4976 22.453 63.0155 22.2684C62.4514 22.0325 62.0514 21.7659 61.8155 21.4684C61.5796 21.171 61.4565 20.7915 61.4565 20.3402C61.4565 19.7556 61.6924 19.2735 62.154 18.8941C62.6155 18.5146 63.2206 18.33 63.9694 18.33C64.195 18.33 64.4514 18.3505 64.7386 18.4018C65.0258 18.453 65.2617 18.5146 65.4463 18.5966V20.053C65.2412 19.9197 65.0053 19.8069 64.7386 19.7043C64.4719 19.612 64.195 19.5607 63.9386 19.5607C63.6514 19.5607 63.4155 19.6223 63.2617 19.7351C63.0873 19.8479 63.0053 20.012 63.0053 20.2069Z" fill="white"/>
<path d="M66.4717 21.8477C66.4717 20.7707 66.7794 19.9195 67.3845 19.2836C67.9896 18.6579 68.8409 18.34 69.9178 18.34C70.9332 18.34 71.7332 18.6477 72.3076 19.2528C72.8819 19.8579 73.1691 20.6784 73.1691 21.7041C73.1691 22.7605 72.8614 23.6015 72.2563 24.2271C71.6512 24.8528 70.8204 25.1605 69.7742 25.1605C68.7691 25.1605 67.9589 24.863 67.3742 24.2682C66.7691 23.6836 66.4717 22.8733 66.4717 21.8477ZM68.0614 21.7964C68.0614 22.4733 68.2153 22.9964 68.523 23.3554C68.8307 23.7143 69.2717 23.8887 69.846 23.8887C70.3999 23.8887 70.8307 23.7143 71.1178 23.3554C71.405 22.9964 71.5589 22.463 71.5589 21.7554C71.5589 21.0579 71.405 20.5246 71.1076 20.1656C70.8101 19.8066 70.3794 19.6323 69.8358 19.6323C69.2717 19.6323 68.8409 19.8169 68.523 20.1964C68.2153 20.5759 68.0614 21.0989 68.0614 21.7964Z" fill="white"/>
<path d="M78.2258 19.7523V23.0959C78.2258 23.7933 78.3899 24.3062 78.7079 24.6549C79.0258 25.0036 79.5181 25.1677 80.1643 25.1677C80.3797 25.1677 80.6053 25.1472 80.8309 25.0959C81.0566 25.0446 81.2207 25.0036 81.313 24.9421V23.6703C81.2207 23.7318 81.1079 23.7831 80.9848 23.8241C80.8617 23.8651 80.7489 23.8857 80.6668 23.8857C80.3591 23.8857 80.1232 23.8036 79.9797 23.6395C79.8361 23.4754 79.7643 23.1882 79.7643 22.7882V19.7421H81.3232V18.4908H79.7745V16.5626L78.2361 17.0344V18.501H75.9489V17.7113C75.9489 17.3215 76.0309 17.0241 76.2053 16.819C76.3796 16.6139 76.6258 16.5215 76.9438 16.5215C77.1079 16.5215 77.2514 16.5421 77.3848 16.5831C77.5079 16.6241 77.6002 16.6651 77.6514 16.6959V15.3728C77.5386 15.3318 77.4155 15.3113 77.272 15.2908C77.1284 15.2703 76.9643 15.26 76.7797 15.26C76.0822 15.26 75.5079 15.4754 75.0668 15.9164C74.6258 16.3574 74.4002 16.9113 74.4002 17.5985V18.501H73.313V19.7523H74.4002V25.0139H75.9489V19.7523H78.2258V19.7523Z" fill="white"/>
<path d="M39.8359 15.92V25.0072H38.2564V17.8893H38.2359L35.4154 25.0072H34.3692L31.4769 17.8893H31.4564V25.0072H30V15.92H32.2564L34.8718 22.6585H34.9128L37.6718 15.92H39.8359Z" fill="white"/>
<rect x="0.5" y="0.5" width="98" height="31" rx="3.5" stroke="black"/>
</svg>
