<svg width="116" height="34" viewBox="0 0 116 34" fill="none" xmlns="http://www.w3.org/2000/svg">
<rect x="1" y="1" width="114" height="32" rx="4" fill="#202020"/>
<rect x="0.5" y="0.5" width="115" height="33" rx="4.5" stroke="black" stroke-opacity="0.1"/>
<g clip-path="url(#clip0_976_1861)">
<g clip-path="url(#clip1_976_1861)">
<path d="M8.28125 11C8.28125 10.5858 8.61704 10.25 9.03125 10.25H24.9687C25.383 10.25 25.7188 10.5858 25.7188 11V22.3438C25.7188 24.0524 24.3336 25.4375 22.625 25.4375H11.375C9.66637 25.4375 8.28125 24.0524 8.28125 22.3438V11Z" fill="url(#paint0_linear_976_1861)"/>
<mask id="mask0_976_1861" style="mask-type:alpha" maskUnits="userSpaceOnUse" x="8" y="10" width="18" height="16">
<path d="M8.28125 11C8.28125 10.5858 8.61704 10.25 9.03125 10.25H24.9687C25.383 10.25 25.7188 10.5858 25.7188 11V22.3438C25.7188 24.0524 24.3336 25.4375 22.625 25.4375H11.375C9.66637 25.4375 8.28125 24.0524 8.28125 22.3438V11Z" fill="url(#paint1_linear_976_1861)"/>
</mask>
<g mask="url(#mask0_976_1861)">
<g filter="url(#filter0_dd_976_1861)">
<path d="M12.7812 10.8125V8.5625H21.2187V10.8125" stroke="url(#paint2_linear_976_1861)" stroke-width="1.125" stroke-linecap="round"/>
</g>
</g>
<g filter="url(#filter1_dd_976_1861)">
<path d="M16.719 14.1875H13.344V17.5625H16.719V14.1875Z" fill="#F25022"/>
<path d="M20.6562 14.1875H17.2812V17.5625H20.6562V14.1875Z" fill="#7FBA00"/>
<path d="M20.6562 18.125H17.2812V21.5H20.6562V18.125Z" fill="#FFB900"/>
<path d="M16.7188 18.125H13.3438V21.5H16.7188V18.125Z" fill="#00A4EF"/>
</g>
<path d="M12.7812 10.8125V9.125C12.7812 8.81434 13.0331 8.5625 13.3438 8.5625H20.6563C20.9669 8.5625 21.2188 8.81434 21.2188 9.125V10.8125" stroke="url(#paint3_linear_976_1861)" stroke-width="1.125" stroke-linecap="round"/>
<rect x="13.3438" y="8" width="7.3125" height="1.125" fill="url(#paint4_linear_976_1861)"/>
<mask id="mask1_976_1861" style="mask-type:alpha" maskUnits="userSpaceOnUse" x="13" y="8" width="8" height="2">
<rect x="13.3438" y="8" width="7.3125" height="1.125" fill="url(#paint5_linear_976_1861)"/>
</mask>
<g mask="url(#mask1_976_1861)">
<g filter="url(#filter2_dd_976_1861)">
<rect x="11.7189" y="8.56274" width="1.625" height="2.8125" fill="#C4C4C4"/>
</g>
</g>
</g>
</g>
<path d="M39.2275 16H37.96V11.0854C37.96 10.8634 37.9653 10.6217 37.9761 10.3604C37.9904 10.0954 38.0083 9.81429 38.0298 9.51709H37.9976C37.9546 9.72119 37.9134 9.89665 37.874 10.0435C37.8382 10.1867 37.8024 10.3013 37.7666 10.3872L35.5054 16H34.6245L32.3525 10.4355C32.3239 10.3568 32.2881 10.2404 32.2451 10.0864C32.2057 9.93245 32.1628 9.74268 32.1162 9.51709H32.084C32.1055 9.7749 32.1198 10.0488 32.127 10.3389C32.1341 10.6253 32.1377 10.9279 32.1377 11.2466V16H30.9561V8.29785H32.7607L34.7642 13.3037C34.8429 13.4935 34.9074 13.6689 34.9575 13.8301C35.0112 13.9876 35.0524 14.1344 35.0811 14.2705H35.1133C35.1777 14.0664 35.2386 13.882 35.2959 13.7173C35.3532 13.5526 35.4069 13.4093 35.457 13.2876L37.4873 8.29785H39.2275V16ZM41.6177 9.43652C41.3885 9.43652 41.1987 9.36312 41.0483 9.21631C40.8979 9.0695 40.8228 8.88867 40.8228 8.67383C40.8228 8.45182 40.8979 8.26921 41.0483 8.12598C41.1987 7.98275 41.3885 7.91113 41.6177 7.91113C41.8504 7.91113 42.042 7.98275 42.1924 8.12598C42.3428 8.26921 42.418 8.45182 42.418 8.67383C42.418 8.89225 42.3428 9.07487 42.1924 9.22168C42.042 9.36491 41.8504 9.43652 41.6177 9.43652ZM42.2354 16H40.9839V10.5H42.2354V16ZM47.9824 15.6616C47.7103 15.8263 47.4399 15.9445 47.1714 16.0161C46.9028 16.0913 46.611 16.1289 46.2959 16.1289C45.4508 16.1289 44.7741 15.8818 44.2656 15.3877C43.7607 14.8936 43.5083 14.2222 43.5083 13.3735C43.5083 12.4604 43.7697 11.7318 44.2925 11.1875C44.8188 10.6432 45.5278 10.3711 46.4194 10.3711C46.731 10.3711 47.0138 10.4051 47.2681 10.4731C47.5259 10.5376 47.7873 10.645 48.0522 10.7954L47.5635 11.6655C47.3773 11.5617 47.1947 11.4865 47.0156 11.4399C46.8366 11.3898 46.6414 11.3647 46.4302 11.3647C45.9038 11.3647 45.4974 11.5384 45.2109 11.8857C44.9245 12.2331 44.7812 12.6932 44.7812 13.2661C44.7812 13.8677 44.9352 14.3296 45.2432 14.6519C45.5547 14.9741 45.945 15.1353 46.4141 15.1353C46.5573 15.1353 46.722 15.1102 46.9082 15.0601C47.0944 15.0063 47.2824 14.9222 47.4722 14.8076L47.9824 15.6616ZM52.1021 11.5474C52.034 11.5295 51.9678 11.5169 51.9033 11.5098C51.8424 11.499 51.7708 11.4937 51.6885 11.4937C51.2409 11.4937 50.8971 11.6584 50.6572 11.9878C50.4173 12.3172 50.2974 12.7469 50.2974 13.2769V16H49.0459V10.5H50.2974V11.5581H50.3188C50.4478 11.1785 50.6375 10.8921 50.8882 10.6987C51.1388 10.5018 51.4342 10.4033 51.7744 10.4033C51.8711 10.4033 51.957 10.4087 52.0322 10.4194C52.111 10.4302 52.1862 10.4463 52.2578 10.4678L52.1021 11.5474ZM55.5557 16.1289C54.6963 16.1289 54.0142 15.8729 53.5093 15.3608C53.008 14.8452 52.7573 14.1559 52.7573 13.293C52.7609 12.3799 53.0223 11.6655 53.5415 11.1499C54.0607 10.6307 54.7679 10.3711 55.6631 10.3711C56.526 10.3675 57.1992 10.6217 57.6826 11.1338C58.1696 11.6423 58.4131 12.3315 58.4131 13.2017C58.4131 14.0968 58.1553 14.8094 57.6396 15.3394C57.1276 15.8657 56.4329 16.1289 55.5557 16.1289ZM55.6147 15.1353C56.1125 15.1353 56.4902 14.9723 56.748 14.6465C57.0094 14.3206 57.1401 13.8498 57.1401 13.2339C57.1401 12.6252 57.0094 12.1615 56.748 11.8428C56.4867 11.5241 56.1071 11.3647 55.6094 11.3647C55.1188 11.3647 54.7321 11.533 54.4492 11.8696C54.1699 12.2062 54.0303 12.6717 54.0303 13.2661C54.0303 13.8641 54.1699 14.326 54.4492 14.6519C54.7285 14.9741 55.117 15.1353 55.6147 15.1353ZM59.1543 15.5596L59.6968 14.6787C59.9116 14.8291 60.139 14.9508 60.3789 15.0439C60.6224 15.1335 60.8856 15.1782 61.1685 15.1782C61.4764 15.1782 61.7145 15.1227 61.8828 15.0117C62.0547 14.8971 62.1406 14.7271 62.1406 14.5015C62.1406 14.3224 62.069 14.1738 61.9258 14.0557C61.7861 13.9339 61.5462 13.8337 61.2061 13.7549C60.5186 13.5938 60.0352 13.3807 59.7559 13.1157C59.4801 12.8507 59.3423 12.5016 59.3423 12.0684C59.3423 11.5706 59.5356 11.1642 59.9224 10.8491C60.3091 10.5304 60.8158 10.3711 61.4424 10.3711C61.7539 10.3711 62.0511 10.4123 62.334 10.4946C62.6169 10.5734 62.8926 10.7005 63.1611 10.876L62.6562 11.7354C62.4199 11.585 62.2033 11.4775 62.0063 11.4131C61.8094 11.3486 61.6071 11.3164 61.3994 11.3164C61.1058 11.3164 60.8766 11.3719 60.7119 11.4829C60.5508 11.5903 60.4702 11.7407 60.4702 11.9341C60.4702 12.1382 60.5526 12.2904 60.7173 12.3906C60.8856 12.4873 61.1667 12.5822 61.5605 12.6753C62.1549 12.8185 62.59 13.0262 62.8657 13.2983C63.1414 13.5669 63.2793 13.9268 63.2793 14.3779C63.2793 14.9115 63.0841 15.3376 62.6938 15.6562C62.3071 15.9714 61.7826 16.1289 61.1201 16.1289C60.762 16.1289 60.4183 16.0824 60.0889 15.9893C59.763 15.8926 59.4515 15.7493 59.1543 15.5596ZM66.8779 16.1289C66.0186 16.1289 65.3364 15.8729 64.8315 15.3608C64.3302 14.8452 64.0796 14.1559 64.0796 13.293C64.0832 12.3799 64.3446 11.6655 64.8638 11.1499C65.383 10.6307 66.0902 10.3711 66.9854 10.3711C67.8483 10.3675 68.5215 10.6217 69.0049 11.1338C69.4919 11.6423 69.7354 12.3315 69.7354 13.2017C69.7354 14.0968 69.4775 14.8094 68.9619 15.3394C68.4499 15.8657 67.7552 16.1289 66.8779 16.1289ZM66.937 15.1353C67.4347 15.1353 67.8125 14.9723 68.0703 14.6465C68.3317 14.3206 68.4624 13.8498 68.4624 13.2339C68.4624 12.6252 68.3317 12.1615 68.0703 11.8428C67.8089 11.5241 67.4294 11.3647 66.9316 11.3647C66.4411 11.3647 66.0544 11.533 65.7715 11.8696C65.4922 12.2062 65.3525 12.6717 65.3525 13.2661C65.3525 13.8641 65.4922 14.326 65.7715 14.6519C66.0508 14.9741 66.4393 15.1353 66.937 15.1353ZM73.9839 8.84033C73.8836 8.80094 73.7923 8.77409 73.71 8.75977C73.6276 8.74186 73.5381 8.73291 73.4414 8.73291C73.1764 8.73291 72.9759 8.8099 72.8398 8.96387C72.7074 9.11426 72.6411 9.33268 72.6411 9.61914V10.5H73.9141V11.4775H72.6411V16H71.395V11.4775H70.4604V10.5H71.395V9.55469C71.395 8.99609 71.5741 8.55387 71.9321 8.22803C72.2938 7.8986 72.7718 7.73389 73.3662 7.73389C73.5524 7.73389 73.7135 7.74642 73.8496 7.77148C73.9857 7.79655 74.1271 7.83236 74.2739 7.87891L73.9839 8.84033ZM77.7974 15.9248C77.6362 15.9928 77.4679 16.043 77.2925 16.0752C77.117 16.1074 76.929 16.1235 76.7285 16.1235C76.2201 16.1235 75.828 15.9893 75.5522 15.7207C75.2801 15.4486 75.144 15.0439 75.144 14.5068V11.4775H74.2202V10.5H75.144V9.1626L76.3901 8.78662V10.5H77.7061V11.4775H76.3901V14.4048C76.3901 14.6733 76.4385 14.8667 76.5352 14.9849C76.6354 15.103 76.7894 15.1621 76.9971 15.1621C77.0973 15.1621 77.1922 15.1514 77.2817 15.1299C77.3748 15.1048 77.4572 15.0744 77.5288 15.0386L77.7974 15.9248ZM81.2939 15.4468L81.8633 14.4639C82.2106 14.6787 82.5347 14.8309 82.8354 14.9204C83.1362 15.0063 83.4728 15.0493 83.8452 15.0493C84.2892 15.0493 84.6383 14.9544 84.8926 14.7646C85.1504 14.5713 85.2793 14.2956 85.2793 13.9375C85.2793 13.6117 85.1719 13.3556 84.957 13.1694C84.7458 12.9797 84.3859 12.806 83.8774 12.6484C83.0933 12.4157 82.5168 12.1274 82.1479 11.7837C81.7791 11.4399 81.5947 10.9744 81.5947 10.3872C81.5947 9.74984 81.8328 9.22168 82.3091 8.80273C82.7853 8.38021 83.4316 8.16895 84.248 8.16895C84.6061 8.16895 84.9588 8.20833 85.3062 8.28711C85.6535 8.36589 85.9972 8.48763 86.3374 8.65234L85.8594 9.67285C85.5622 9.51888 85.2775 9.40967 85.0054 9.34521C84.7368 9.28076 84.4629 9.24854 84.1836 9.24854C83.7754 9.24854 83.4531 9.33805 83.2168 9.51709C82.984 9.69613 82.8677 9.94857 82.8677 10.2744C82.8677 10.5645 82.9751 10.7936 83.1899 10.9619C83.4048 11.1266 83.7736 11.2896 84.2964 11.4507C85.0985 11.6906 85.675 11.9896 86.0259 12.3477C86.3804 12.7057 86.5576 13.1981 86.5576 13.8247C86.5576 14.4979 86.3177 15.0511 85.8379 15.4844C85.3581 15.9141 84.6742 16.1289 83.7861 16.1289C83.3421 16.1289 82.9089 16.0734 82.4863 15.9624C82.0638 15.8478 81.6663 15.6759 81.2939 15.4468ZM90.4409 15.9248C90.2798 15.9928 90.1115 16.043 89.936 16.0752C89.7606 16.1074 89.5726 16.1235 89.3721 16.1235C88.8636 16.1235 88.4715 15.9893 88.1958 15.7207C87.9237 15.4486 87.7876 15.0439 87.7876 14.5068V11.4775H86.8638V10.5H87.7876V9.1626L89.0337 8.78662V10.5H90.3496V11.4775H89.0337V14.4048C89.0337 14.6733 89.082 14.8667 89.1787 14.9849C89.279 15.103 89.4329 15.1621 89.6406 15.1621C89.7409 15.1621 89.8358 15.1514 89.9253 15.1299C90.0184 15.1048 90.1007 15.0744 90.1724 15.0386L90.4409 15.9248ZM93.8623 16.1289C93.0029 16.1289 92.3208 15.8729 91.8159 15.3608C91.3146 14.8452 91.064 14.1559 91.064 13.293C91.0675 12.3799 91.3289 11.6655 91.8481 11.1499C92.3674 10.6307 93.0745 10.3711 93.9697 10.3711C94.8327 10.3675 95.5059 10.6217 95.9893 11.1338C96.4762 11.6423 96.7197 12.3315 96.7197 13.2017C96.7197 14.0968 96.4619 14.8094 95.9463 15.3394C95.4342 15.8657 94.7396 16.1289 93.8623 16.1289ZM93.9214 15.1353C94.4191 15.1353 94.7969 14.9723 95.0547 14.6465C95.3161 14.3206 95.4468 13.8498 95.4468 13.2339C95.4468 12.6252 95.3161 12.1615 95.0547 11.8428C94.7933 11.5241 94.4137 11.3647 93.916 11.3647C93.4255 11.3647 93.0387 11.533 92.7559 11.8696C92.4766 12.2062 92.3369 12.6717 92.3369 13.2661C92.3369 13.8641 92.4766 14.326 92.7559 14.6519C93.0352 14.9741 93.4237 15.1353 93.9214 15.1353ZM101.054 11.5474C100.986 11.5295 100.92 11.5169 100.855 11.5098C100.795 11.499 100.723 11.4937 100.641 11.4937C100.193 11.4937 99.8493 11.6584 99.6094 11.9878C99.3695 12.3172 99.2495 12.7469 99.2495 13.2769V16H97.998V10.5H99.2495V11.5581H99.271C99.3999 11.1785 99.5897 10.8921 99.8403 10.6987C100.091 10.5018 100.386 10.4033 100.727 10.4033C100.823 10.4033 100.909 10.4087 100.984 10.4194C101.063 10.4302 101.138 10.4463 101.21 10.4678L101.054 11.5474ZM106.721 13.5776H102.966C102.988 14.0968 103.138 14.4925 103.417 14.7646C103.697 15.0332 104.087 15.1675 104.588 15.1675C104.792 15.1675 105.025 15.1263 105.287 15.0439C105.548 14.9616 105.806 14.8291 106.06 14.6465L106.624 15.4253C106.284 15.6724 105.938 15.8514 105.587 15.9624C105.236 16.0734 104.85 16.1289 104.427 16.1289C103.571 16.1289 102.905 15.8836 102.429 15.3931C101.953 14.8989 101.713 14.2096 101.709 13.3252C101.709 12.4443 101.955 11.7318 102.445 11.1875C102.939 10.6432 103.571 10.3711 104.341 10.3711C105.079 10.3711 105.659 10.6038 106.082 11.0693C106.508 11.5312 106.721 12.1865 106.721 13.0352V13.5776ZM105.512 12.7129C105.512 12.2402 105.408 11.8857 105.201 11.6494C104.997 11.4095 104.707 11.2896 104.331 11.2896C103.976 11.2896 103.674 11.4185 103.423 11.6763C103.176 11.9305 103.024 12.276 102.966 12.7129H105.512Z" fill="white"/>
<path d="M32.4165 21.3857C32.1818 21.3857 31.9676 21.4176 31.7739 21.4814C31.5802 21.543 31.4139 21.633 31.2749 21.7515C31.1359 21.8677 31.0277 22.0101 30.9502 22.1787C30.875 22.3473 30.8374 22.5376 30.8374 22.7495C30.8374 22.8384 30.8465 22.9238 30.8647 23.0059C30.8853 23.0856 30.9206 23.1562 30.9707 23.2178C31.0208 23.277 31.0892 23.3249 31.1758 23.3613C31.2646 23.3955 31.3786 23.4126 31.5176 23.4126H32.3276C32.5464 23.4126 32.7378 23.4479 32.9019 23.5186C33.0682 23.5892 33.2072 23.686 33.3188 23.8091C33.4328 23.9299 33.5182 24.0711 33.5752 24.2329C33.6322 24.3947 33.6606 24.5667 33.6606 24.749C33.6606 24.9495 33.6276 25.1318 33.5615 25.2959C33.4954 25.46 33.4043 25.6001 33.2881 25.7163C33.1719 25.8325 33.0329 25.9225 32.8711 25.9863C32.7116 26.0501 32.5384 26.082 32.3516 26.082C32.1465 26.082 31.9631 26.0467 31.8013 25.9761C31.6395 25.9032 31.5016 25.8063 31.3877 25.6855C31.276 25.5648 31.1895 25.4258 31.1279 25.2686C31.0687 25.1113 31.0391 24.9473 31.0391 24.7764C31.0391 24.6237 31.0653 24.471 31.1177 24.3184C31.1701 24.1657 31.2544 24.021 31.3706 23.8843L31.3672 23.8706C30.9935 23.8433 30.7178 23.7419 30.54 23.5664C30.3623 23.391 30.2734 23.1232 30.2734 22.7632C30.2734 22.4761 30.3258 22.2174 30.4307 21.9873C30.5355 21.7572 30.6825 21.5623 30.8716 21.4028C31.0607 21.241 31.2852 21.118 31.5449 21.0337C31.807 20.9471 32.0952 20.9038 32.4097 20.9038C32.8153 20.9038 33.1685 20.9688 33.4692 21.0986C33.77 21.2262 34.0184 21.4006 34.2144 21.6216C34.4126 21.8403 34.5596 22.0978 34.6553 22.394C34.7533 22.688 34.8022 23.0002 34.8022 23.3306C34.8022 23.4491 34.7943 23.5732 34.7783 23.7031C34.7646 23.833 34.7441 23.9629 34.7168 24.0928C34.6917 24.2227 34.661 24.3503 34.6245 24.4756C34.5881 24.6009 34.5482 24.7183 34.5049 24.8276L35.1919 25.7197L34.7612 26.0444L33.9272 24.9165C33.9842 24.7957 34.0332 24.6693 34.0742 24.5371C34.1175 24.4027 34.1528 24.2682 34.1802 24.1338C34.2098 23.9971 34.2314 23.8649 34.2451 23.7373C34.2588 23.6074 34.2656 23.4867 34.2656 23.375C34.2656 23.1061 34.2303 22.8509 34.1597 22.6094C34.0913 22.3678 33.9819 22.1571 33.8315 21.9771C33.6834 21.7948 33.492 21.6512 33.2573 21.5464C33.0249 21.4393 32.7446 21.3857 32.4165 21.3857ZM32.3618 23.8877C32.2479 23.8877 32.1442 23.9071 32.0508 23.9458C31.9574 23.9845 31.8776 24.0415 31.8115 24.1167C31.7454 24.1896 31.6942 24.2796 31.6577 24.3867C31.6213 24.4938 31.603 24.6146 31.603 24.749C31.603 24.8835 31.6213 25.0042 31.6577 25.1113C31.6942 25.2161 31.7443 25.3062 31.8081 25.3813C31.8742 25.4543 31.9528 25.5101 32.0439 25.5488C32.1351 25.5876 32.2365 25.6069 32.3481 25.6069C32.4575 25.6069 32.5578 25.5887 32.6489 25.5522C32.7401 25.5135 32.8187 25.4588 32.8848 25.3882C32.9508 25.3153 33.0021 25.2253 33.0386 25.1182C33.0773 25.0111 33.0967 24.888 33.0967 24.749C33.0967 24.6214 33.0796 24.5052 33.0454 24.4004C33.0135 24.2933 32.9657 24.2021 32.9019 24.127C32.8403 24.0518 32.764 23.9937 32.6729 23.9526C32.5817 23.9093 32.478 23.8877 32.3618 23.8877ZM34.0127 27.1553C33.9398 27.2646 33.8623 27.3558 33.7803 27.4287C33.7005 27.5016 33.6185 27.5586 33.5342 27.5996C33.4499 27.6429 33.3656 27.6737 33.2812 27.6919C33.1969 27.7101 33.116 27.7192 33.0386 27.7192C32.9451 27.7192 32.8586 27.709 32.7788 27.6885C32.6968 27.668 32.6216 27.6406 32.5532 27.6064C32.4826 27.5723 32.4188 27.5335 32.3618 27.4902C32.3026 27.4469 32.2479 27.4025 32.1978 27.3569C32.0747 27.4823 31.9357 27.5791 31.7808 27.6475C31.6258 27.7181 31.4583 27.7534 31.2783 27.7534C31.1484 27.7534 31.0311 27.734 30.9263 27.6953C30.8215 27.6589 30.7326 27.6087 30.6597 27.5449C30.5868 27.4811 30.5309 27.4071 30.4922 27.3228C30.4535 27.2384 30.4341 27.1496 30.4341 27.0562C30.4341 26.9491 30.458 26.8534 30.5059 26.769C30.5514 26.687 30.6141 26.6175 30.6938 26.5605C30.7713 26.5059 30.8602 26.4637 30.9604 26.4341C31.0607 26.4045 31.1655 26.3896 31.2749 26.3896C31.4071 26.3896 31.5381 26.4102 31.668 26.4512C31.7979 26.4945 31.9186 26.5594 32.0303 26.646L32.0405 26.6426C32.0565 26.5742 32.0679 26.5036 32.0747 26.4307C32.0793 26.3577 32.0815 26.2905 32.0815 26.229V25.8667H32.6318V26.2222C32.6318 26.3657 32.6159 26.5024 32.584 26.6323C32.5521 26.7622 32.5076 26.883 32.4507 26.9946C32.5373 27.0653 32.6261 27.1234 32.7173 27.1689C32.8062 27.2168 32.9155 27.2407 33.0454 27.2407C33.1024 27.2407 33.1571 27.235 33.2095 27.2236C33.2596 27.2122 33.3097 27.1917 33.3599 27.1621C33.41 27.1348 33.4601 27.0972 33.5103 27.0493C33.5581 27.0015 33.6082 26.9422 33.6606 26.8716L34.0127 27.1553ZM31.8765 27.0425C31.7944 26.9513 31.7021 26.883 31.5996 26.8374C31.4948 26.7941 31.3888 26.7725 31.2817 26.7725C31.2316 26.7725 31.1838 26.7793 31.1382 26.793C31.0926 26.8066 31.0527 26.826 31.0186 26.8511C30.9821 26.8761 30.9536 26.9069 30.9331 26.9434C30.9126 26.9821 30.9023 27.0265 30.9023 27.0767C30.9023 27.1541 30.9308 27.2202 30.9878 27.2749C31.0448 27.3319 31.1416 27.3604 31.2783 27.3604C31.4173 27.3604 31.5369 27.3319 31.6372 27.2749C31.7352 27.2179 31.8149 27.145 31.8765 27.0562V27.0425ZM38.6372 23.5938C38.7078 23.514 38.7865 23.4331 38.873 23.3511C38.9596 23.2668 39.0576 23.1825 39.167 23.0981L39.4917 23.5015C39.3527 23.6086 39.2376 23.7122 39.1465 23.8125C39.0553 23.9128 38.9824 24.0107 38.9277 24.1064C38.8753 24.2021 38.8377 24.2979 38.8149 24.3936C38.7944 24.4893 38.7842 24.585 38.7842 24.6807C38.7842 24.8288 38.8047 24.9609 38.8457 25.0771C38.889 25.1911 38.9482 25.2879 39.0234 25.3677C39.0986 25.4451 39.1886 25.5044 39.2935 25.5454C39.3983 25.5864 39.5122 25.6069 39.6353 25.6069C39.7492 25.6069 39.8517 25.5898 39.9429 25.5557C40.034 25.5192 40.1115 25.4725 40.1753 25.4155C40.2414 25.3563 40.2915 25.2891 40.3257 25.2139C40.3621 25.1364 40.3804 25.0566 40.3804 24.9746C40.3804 24.8835 40.3587 24.7935 40.3154 24.7046C40.2744 24.6134 40.2061 24.5314 40.1104 24.4585L39.6865 24.9336L39.2935 24.5952L40.5308 23.2109L40.9341 23.5356L40.4487 24.0791C40.6082 24.2021 40.7244 24.34 40.7974 24.4927C40.8726 24.6431 40.9102 24.7992 40.9102 24.9609C40.9102 25.0954 40.8828 25.2298 40.8281 25.3643C40.7734 25.4987 40.6925 25.6195 40.5854 25.7266C40.4806 25.8314 40.3485 25.9168 40.189 25.9829C40.0295 26.049 39.846 26.082 39.6387 26.082C39.4222 26.082 39.2262 26.0479 39.0508 25.9795C38.8776 25.9089 38.7295 25.812 38.6064 25.689C38.4834 25.5636 38.3888 25.4144 38.3228 25.2412C38.2567 25.068 38.2236 24.8778 38.2236 24.6704C38.2236 24.5565 38.2339 24.4471 38.2544 24.3423C38.2772 24.2352 38.3125 24.1281 38.3604 24.021C38.1986 23.9959 38.0607 23.9424 37.9468 23.8604C37.8328 23.7783 37.7394 23.6792 37.6665 23.563C37.5936 23.4445 37.54 23.3146 37.5059 23.1733C37.474 23.0298 37.458 22.884 37.458 22.7358C37.458 22.4624 37.5093 22.214 37.6118 21.9907C37.7166 21.7651 37.8625 21.5726 38.0493 21.4131C38.2362 21.2513 38.4583 21.126 38.7158 21.0371C38.9733 20.9482 39.2547 20.9038 39.5601 20.9038C39.8631 20.9038 40.1445 20.9482 40.4043 21.0371C40.6641 21.1237 40.8896 21.2479 41.0811 21.4097C41.2725 21.5692 41.4217 21.7617 41.5288 21.9873C41.6382 22.2129 41.6929 22.4635 41.6929 22.7393C41.6929 22.8304 41.686 22.9261 41.6724 23.0264C41.6587 23.1266 41.6359 23.2314 41.604 23.3408L41.0742 23.2178C41.0924 23.1517 41.1061 23.0811 41.1152 23.0059C41.1243 22.9307 41.1289 22.8566 41.1289 22.7837C41.1289 22.5786 41.0936 22.3906 41.0229 22.2197C40.9546 22.0488 40.8543 21.9019 40.7222 21.7788C40.59 21.6535 40.4282 21.5566 40.2368 21.4883C40.0477 21.4199 39.8324 21.3857 39.5908 21.3857C39.3607 21.3857 39.1499 21.4176 38.9585 21.4814C38.7671 21.543 38.6019 21.633 38.4629 21.7515C38.3239 21.8677 38.2157 22.009 38.1382 22.1753C38.0607 22.3416 38.022 22.5285 38.022 22.7358C38.022 22.8407 38.0322 22.9443 38.0527 23.0469C38.0755 23.1471 38.1108 23.2371 38.1587 23.3169C38.2088 23.3966 38.2726 23.4627 38.3501 23.5151C38.4276 23.5653 38.5233 23.5915 38.6372 23.5938ZM42.4482 20.9038H42.9849V26H42.4482V20.9038ZM44.9194 23.5938C44.9901 23.514 45.0687 23.4331 45.1553 23.3511C45.2419 23.2668 45.3398 23.1825 45.4492 23.0981L45.7739 23.5015C45.6349 23.6086 45.5199 23.7122 45.4287 23.8125C45.3376 23.9128 45.2646 24.0107 45.21 24.1064C45.1576 24.2021 45.12 24.2979 45.0972 24.3936C45.0767 24.4893 45.0664 24.585 45.0664 24.6807C45.0664 24.8288 45.0869 24.9609 45.1279 25.0771C45.1712 25.1911 45.2305 25.2879 45.3057 25.3677C45.3809 25.4451 45.4697 25.5044 45.5723 25.5454C45.6771 25.5864 45.7899 25.6069 45.9106 25.6069C46.0269 25.6069 46.1305 25.5898 46.2217 25.5557C46.3151 25.5192 46.3937 25.4725 46.4575 25.4155C46.5236 25.3563 46.5737 25.2879 46.6079 25.2104C46.6444 25.133 46.6626 25.0521 46.6626 24.9678C46.6626 24.8812 46.641 24.7935 46.5977 24.7046C46.5566 24.6134 46.4883 24.5314 46.3926 24.4585L45.9688 24.9336L45.5757 24.5952L46.813 23.2109L47.2163 23.5356L46.731 24.0791C46.8905 24.2021 47.0067 24.34 47.0796 24.4927C47.1548 24.6431 47.1924 24.7969 47.1924 24.9541C47.1924 25.0908 47.165 25.2264 47.1104 25.3608C47.0579 25.4953 46.9782 25.616 46.8711 25.7231C46.764 25.8302 46.6307 25.9168 46.4712 25.9829C46.3117 26.049 46.1248 26.082 45.9106 26.082C45.6987 26.082 45.5062 26.0479 45.333 25.9795C45.1598 25.9089 45.0117 25.8109 44.8887 25.6855C44.7656 25.5602 44.6711 25.411 44.605 25.2378C44.5389 25.0646 44.5059 24.8743 44.5059 24.667C44.5059 24.5508 44.5161 24.4414 44.5366 24.3389C44.5594 24.2363 44.5947 24.1304 44.6426 24.021C44.4808 23.9959 44.3429 23.9435 44.229 23.8638C44.1151 23.7817 44.0216 23.6815 43.9487 23.563C43.8758 23.4445 43.8223 23.3135 43.7881 23.1699C43.7562 23.0264 43.7402 22.8805 43.7402 22.7324C43.7402 22.4613 43.7915 22.214 43.894 21.9907C43.9989 21.7651 44.1458 21.5726 44.335 21.4131C44.5264 21.2513 44.7565 21.126 45.0254 21.0371C45.2943 20.9482 45.5951 20.9038 45.9277 20.9038C46.1989 20.9038 46.4461 20.9334 46.6694 20.9927C46.895 21.0519 47.0967 21.1351 47.2744 21.2422C47.4544 21.3493 47.6105 21.4769 47.7427 21.625C47.8748 21.7708 47.9842 21.9326 48.0708 22.1104C48.1597 22.2881 48.2257 22.4772 48.269 22.6777C48.3123 22.8783 48.334 23.0845 48.334 23.2964C48.334 23.5584 48.3044 23.8205 48.2451 24.0825C48.1882 24.3446 48.1141 24.5929 48.0229 24.8276L48.7236 25.7197L48.293 26.0444L47.4453 24.9165C47.5023 24.7957 47.5524 24.6693 47.5957 24.5371C47.639 24.4049 47.6755 24.2716 47.7051 24.1372C47.7347 24.0005 47.7575 23.8649 47.7734 23.7305C47.7894 23.596 47.7974 23.4673 47.7974 23.3442C47.7974 23.0845 47.762 22.8372 47.6914 22.6025C47.6208 22.3656 47.5103 22.1571 47.3599 21.9771C47.2095 21.797 47.0169 21.6535 46.7822 21.5464C46.5475 21.4393 46.265 21.3857 45.9346 21.3857C45.6885 21.3857 45.464 21.4176 45.2612 21.4814C45.0607 21.543 44.8898 21.633 44.7485 21.7515C44.6073 21.8677 44.4979 22.009 44.4204 22.1753C44.3429 22.3416 44.3042 22.5285 44.3042 22.7358C44.3042 22.8407 44.3145 22.9443 44.335 23.0469C44.3577 23.1471 44.3931 23.2371 44.4409 23.3169C44.491 23.3966 44.5549 23.4627 44.6323 23.5151C44.7098 23.5653 44.8055 23.5915 44.9194 23.5938ZM52.2031 23.4263V26H51.6562V23.8911C51.4352 23.8911 51.237 23.9264 51.0615 23.9971C50.8883 24.0654 50.7414 24.1577 50.6206 24.2739C50.4998 24.3879 50.4064 24.5212 50.3403 24.6738C50.2765 24.8242 50.2435 24.9814 50.2412 25.1455L50.2549 25.1523C50.2891 25.1387 50.3232 25.1296 50.3574 25.125C50.3939 25.1182 50.4292 25.1147 50.4634 25.1147C50.5317 25.1147 50.5967 25.1261 50.6582 25.1489C50.722 25.1717 50.7778 25.2036 50.8257 25.2446C50.8735 25.2856 50.9123 25.3358 50.9419 25.395C50.9715 25.452 50.9863 25.5158 50.9863 25.5864C50.9863 25.6548 50.9727 25.7197 50.9453 25.7812C50.9202 25.8405 50.8826 25.8929 50.8325 25.9385C50.7824 25.9818 50.722 26.016 50.6514 26.041C50.583 26.0684 50.5067 26.082 50.4224 26.082C50.3016 26.082 50.1956 26.0581 50.1045 26.0103C50.0133 25.9624 49.937 25.8986 49.8755 25.8188C49.8162 25.7391 49.7707 25.6468 49.7388 25.542C49.7091 25.4349 49.6943 25.3244 49.6943 25.2104C49.6943 25.0259 49.7251 24.8424 49.7866 24.6602C49.8481 24.4779 49.9438 24.3081 50.0737 24.1509L50.0703 24.1372C49.8743 24.0666 49.7114 23.9811 49.5815 23.8809C49.4539 23.7783 49.3514 23.6667 49.2739 23.5459C49.1987 23.4229 49.1452 23.293 49.1133 23.1562C49.0814 23.0173 49.0654 22.876 49.0654 22.7324C49.0654 22.4613 49.1167 22.214 49.2192 21.9907C49.3241 21.7651 49.4699 21.5726 49.6567 21.4131C49.8436 21.2513 50.0658 21.126 50.3232 21.0371C50.5807 20.9482 50.8621 20.9038 51.1675 20.9038C51.4705 20.9038 51.752 20.9482 52.0117 21.0371C52.2715 21.1237 52.4971 21.2479 52.6885 21.4097C52.8799 21.5692 53.0291 21.7617 53.1362 21.9873C53.2456 22.2129 53.3003 22.4635 53.3003 22.7393C53.3003 22.8304 53.2935 22.9261 53.2798 23.0264C53.2661 23.1266 53.2433 23.2314 53.2114 23.3408L52.6816 23.2178C52.6999 23.1517 52.7135 23.0811 52.7227 23.0059C52.7318 22.9307 52.7363 22.8566 52.7363 22.7837C52.7363 22.5786 52.701 22.3906 52.6304 22.2197C52.562 22.0488 52.4618 21.9019 52.3296 21.7788C52.1974 21.6535 52.0356 21.5566 51.8442 21.4883C51.6551 21.4199 51.4398 21.3857 51.1982 21.3857C50.9681 21.3857 50.7573 21.4176 50.5659 21.4814C50.3745 21.543 50.2093 21.633 50.0703 21.7515C49.9313 21.8677 49.8231 22.009 49.7456 22.1753C49.6681 22.3416 49.6294 22.5273 49.6294 22.7324C49.6294 22.835 49.6408 22.9386 49.6636 23.0435C49.6886 23.146 49.7319 23.244 49.7935 23.3374C49.855 23.4308 49.9382 23.5163 50.043 23.5938C50.1501 23.6712 50.2868 23.735 50.4531 23.7852C50.624 23.6667 50.8223 23.5732 51.0479 23.5049C51.2757 23.4342 51.5332 23.3989 51.8203 23.3989C51.8841 23.3989 51.9479 23.4012 52.0117 23.4058C52.0755 23.408 52.1393 23.4149 52.2031 23.4263ZM52.1724 26.229L52.9688 27.48L52.5142 27.7534L51.7246 26.499L52.1724 26.229ZM56.7524 21.7856C56.6066 21.6466 56.4653 21.5441 56.3286 21.478C56.1942 21.4119 56.0461 21.3789 55.8843 21.3789C55.7293 21.3789 55.5869 21.4062 55.457 21.4609C55.3271 21.5156 55.2087 21.592 55.1016 21.6899C54.9945 21.7856 54.8999 21.8984 54.8179 22.0283C54.7381 22.1559 54.6698 22.2938 54.6128 22.4419C54.5558 22.5877 54.5114 22.7404 54.4795 22.8999C54.4476 23.0594 54.4271 23.2166 54.418 23.3716C54.5479 23.3306 54.6766 23.2987 54.8042 23.2759C54.9341 23.2531 55.064 23.2417 55.1938 23.2417C55.4491 23.2417 55.6883 23.285 55.9116 23.3716C56.1349 23.4559 56.3286 23.5732 56.4927 23.7236C56.6567 23.874 56.7855 24.0506 56.8789 24.2534C56.9746 24.4562 57.0225 24.675 57.0225 24.9097C57.0225 25.0828 56.9951 25.2424 56.9404 25.3882C56.888 25.5317 56.8105 25.6559 56.708 25.7607C56.6077 25.8633 56.4836 25.943 56.3354 26C56.1896 26.057 56.0233 26.0854 55.8364 26.0854C55.6336 26.0854 55.4445 26.0524 55.269 25.9863C55.0936 25.9202 54.9318 25.8291 54.7837 25.7129C54.6356 25.5944 54.5034 25.4554 54.3872 25.2959C54.2733 25.1341 54.1764 24.9587 54.0967 24.7695C54.0169 24.5781 53.9554 24.3765 53.9121 24.1646C53.8711 23.9504 53.8506 23.7339 53.8506 23.5151C53.8506 23.3078 53.87 23.0993 53.9087 22.8896C53.9474 22.6777 54.0055 22.4749 54.083 22.2812C54.1605 22.0876 54.2562 21.9076 54.3701 21.7412C54.4863 21.5726 54.6196 21.4268 54.77 21.3037C54.9227 21.1784 55.0924 21.0804 55.2793 21.0098C55.4684 20.9391 55.6746 20.9038 55.8979 20.9038C56.1167 20.9038 56.3252 20.9437 56.5234 21.0234C56.724 21.1032 56.9154 21.2376 57.0977 21.4268L56.7524 21.7856ZM54.4351 23.8672C54.4624 24.0996 54.5171 24.3218 54.5991 24.5337C54.6812 24.7433 54.7837 24.9279 54.9067 25.0874C55.0298 25.2469 55.1699 25.3745 55.3271 25.4702C55.4844 25.5636 55.6519 25.6104 55.8296 25.6104C56.0392 25.6104 56.1976 25.5477 56.3047 25.4224C56.4118 25.2948 56.4653 25.1227 56.4653 24.9062C56.4653 24.7308 56.4312 24.5701 56.3628 24.4243C56.2944 24.2785 56.2021 24.1532 56.0859 24.0483C55.9697 23.9435 55.833 23.8626 55.6758 23.8057C55.5186 23.7464 55.3511 23.7168 55.1733 23.7168C55.048 23.7168 54.9227 23.7305 54.7974 23.7578C54.672 23.7852 54.5513 23.8216 54.4351 23.8672ZM57.6616 22.7427C57.6616 22.467 57.7129 22.2163 57.8154 21.9907C57.9202 21.7629 58.0695 21.5692 58.2632 21.4097C58.4569 21.2479 58.6927 21.1237 58.9707 21.0371C59.2487 20.9482 59.5609 20.9038 59.9072 20.9038C60.3311 20.9038 60.6991 20.9688 61.0112 21.0986C61.3257 21.2262 61.5854 21.4006 61.7905 21.6216C61.9956 21.8403 62.1483 22.0978 62.2485 22.394C62.3488 22.688 62.3989 23.0002 62.3989 23.3306C62.3989 23.4491 62.391 23.5732 62.375 23.7031C62.3613 23.833 62.3408 23.9629 62.3135 24.0928C62.2884 24.2227 62.2576 24.3503 62.2212 24.4756C62.1847 24.6009 62.1449 24.7183 62.1016 24.8276L62.7886 25.7197L62.3579 26.0444L61.5239 24.9165C61.5786 24.7957 61.6265 24.6681 61.6675 24.5337C61.7108 24.3993 61.7461 24.2648 61.7734 24.1304C61.8031 23.9959 61.8247 23.8649 61.8384 23.7373C61.8543 23.6074 61.8623 23.4867 61.8623 23.375C61.8623 23.1061 61.8247 22.8509 61.7495 22.6094C61.6766 22.3678 61.5604 22.1571 61.4009 21.9771C61.2437 21.7948 61.0409 21.6512 60.7925 21.5464C60.5464 21.4393 60.2502 21.3857 59.9038 21.3857C59.6418 21.3857 59.4071 21.4176 59.1997 21.4814C58.9924 21.543 58.8158 21.633 58.6699 21.7515C58.5264 21.87 58.4159 22.0135 58.3384 22.1821C58.2632 22.3485 58.2256 22.5365 58.2256 22.7461C58.2256 22.9238 58.2518 23.0799 58.3042 23.2144C58.3589 23.3465 58.4375 23.4604 58.54 23.5562C58.6107 23.4832 58.6984 23.4274 58.8032 23.3887C58.9103 23.3477 59.0254 23.3271 59.1484 23.3271C59.4036 23.3271 59.6064 23.4206 59.7568 23.6074H59.7705C59.8389 23.5117 59.9255 23.4411 60.0303 23.3955C60.1374 23.3499 60.257 23.3271 60.3892 23.3271C60.5122 23.3271 60.6261 23.3465 60.731 23.3853C60.8381 23.4217 60.9303 23.4764 61.0078 23.5493C61.0853 23.6222 61.1457 23.7134 61.189 23.8228C61.2345 23.9299 61.2573 24.054 61.2573 24.1953V26H60.707V24.2192C60.707 24.0688 60.6763 23.9606 60.6147 23.8945C60.5555 23.8285 60.4712 23.7954 60.3618 23.7954C60.2593 23.7954 60.1761 23.8285 60.1123 23.8945C60.0508 23.9583 60.02 24.0711 60.02 24.2329V26H59.4697V24.2192C59.4697 24.0688 59.4424 23.9606 59.3877 23.8945C59.333 23.8285 59.2476 23.7954 59.1313 23.7954C59.022 23.7954 58.9365 23.8285 58.875 23.8945C58.8135 23.9583 58.7827 24.0711 58.7827 24.2329V26H58.2324V24.2568C58.2324 24.1589 58.2438 24.0723 58.2666 23.9971C58.057 23.8512 57.9032 23.6735 57.8052 23.4639C57.7095 23.252 57.6616 23.0116 57.6616 22.7427ZM63.3389 20.9038H63.8755V26H63.3389V20.9038ZM65.8101 23.5938C65.8807 23.514 65.9593 23.4331 66.0459 23.3511C66.1325 23.2668 66.2305 23.1825 66.3398 23.0981L66.6646 23.5015C66.5256 23.6086 66.4105 23.7122 66.3193 23.8125C66.2282 23.9128 66.1553 24.0107 66.1006 24.1064C66.0482 24.2021 66.0106 24.2979 65.9878 24.3936C65.9673 24.4893 65.957 24.585 65.957 24.6807C65.957 24.8288 65.9775 24.9609 66.0186 25.0771C66.0618 25.1911 66.1211 25.2879 66.1963 25.3677C66.2715 25.4451 66.3615 25.5044 66.4663 25.5454C66.5711 25.5864 66.6851 25.6069 66.8081 25.6069C66.922 25.6069 67.0246 25.5898 67.1157 25.5557C67.2069 25.5192 67.2843 25.4725 67.3481 25.4155C67.4142 25.3563 67.4644 25.2891 67.4985 25.2139C67.535 25.1364 67.5532 25.0566 67.5532 24.9746C67.5532 24.8835 67.5316 24.7935 67.4883 24.7046C67.4473 24.6134 67.3789 24.5314 67.2832 24.4585L66.8594 24.9336L66.4663 24.5952L67.7036 23.2109L68.1069 23.5356L67.6216 24.0791C67.7811 24.2021 67.8973 24.34 67.9702 24.4927C68.0454 24.6431 68.083 24.7992 68.083 24.9609C68.083 25.0954 68.0557 25.2298 68.001 25.3643C67.9463 25.4987 67.8654 25.6195 67.7583 25.7266C67.6535 25.8314 67.5213 25.9168 67.3618 25.9829C67.2023 26.049 67.0189 26.082 66.8115 26.082C66.5951 26.082 66.3991 26.0479 66.2236 25.9795C66.0505 25.9089 65.9023 25.812 65.7793 25.689C65.6562 25.5636 65.5617 25.4144 65.4956 25.2412C65.4295 25.068 65.3965 24.8778 65.3965 24.6704C65.3965 24.5565 65.4067 24.4471 65.4272 24.3423C65.45 24.2352 65.4854 24.1281 65.5332 24.021C65.3714 23.9959 65.2336 23.9424 65.1196 23.8604C65.0057 23.7783 64.9123 23.6792 64.8394 23.563C64.7664 23.4445 64.7129 23.3146 64.6787 23.1733C64.6468 23.0298 64.6309 22.884 64.6309 22.7358C64.6309 22.4624 64.6821 22.214 64.7847 21.9907C64.8895 21.7651 65.0353 21.5726 65.2222 21.4131C65.409 21.2513 65.6312 21.126 65.8887 21.0371C66.1462 20.9482 66.4276 20.9038 66.7329 20.9038C67.036 20.9038 67.3174 20.9482 67.5771 21.0371C67.8369 21.1237 68.0625 21.2479 68.2539 21.4097C68.4453 21.5692 68.5946 21.7617 68.7017 21.9873C68.811 22.2129 68.8657 22.4635 68.8657 22.7393C68.8657 22.8304 68.8589 22.9261 68.8452 23.0264C68.8315 23.1266 68.8088 23.2314 68.7769 23.3408L68.2471 23.2178C68.2653 23.1517 68.279 23.0811 68.2881 23.0059C68.2972 22.9307 68.3018 22.8566 68.3018 22.7837C68.3018 22.5786 68.2664 22.3906 68.1958 22.2197C68.1274 22.0488 68.0272 21.9019 67.895 21.7788C67.7629 21.6535 67.6011 21.5566 67.4097 21.4883C67.2205 21.4199 67.0052 21.3857 66.7637 21.3857C66.5335 21.3857 66.3228 21.4176 66.1313 21.4814C65.9399 21.543 65.7747 21.633 65.6357 21.7515C65.4967 21.8677 65.3885 22.009 65.311 22.1753C65.2336 22.3416 65.1948 22.5285 65.1948 22.7358C65.1948 22.8407 65.2051 22.9443 65.2256 23.0469C65.2484 23.1471 65.2837 23.2371 65.3315 23.3169C65.3817 23.3966 65.4455 23.4627 65.5229 23.5151C65.6004 23.5653 65.6961 23.5915 65.8101 23.5938ZM67.061 26.229L67.8574 27.48L67.4028 27.7534L66.6133 26.499L67.061 26.229ZM73.1245 25.2686C73.0584 25.3118 72.9946 25.3415 72.9331 25.3574C72.8739 25.3711 72.8158 25.3779 72.7588 25.3779C72.6335 25.3779 72.5173 25.354 72.4102 25.3062C72.3031 25.2583 72.2096 25.1922 72.1299 25.1079C72.0501 25.0213 71.9875 24.9199 71.9419 24.8037C71.8963 24.6875 71.8735 24.561 71.8735 24.4243C71.8735 24.3195 71.8872 24.2192 71.9146 24.1235C71.9442 24.0256 71.992 23.9367 72.0581 23.8569L72.0547 23.8398C71.918 23.8034 71.8029 23.751 71.7095 23.6826C71.6183 23.612 71.5443 23.5299 71.4873 23.4365C71.4326 23.3431 71.3939 23.2394 71.3711 23.1255C71.3483 23.0116 71.3369 22.8908 71.3369 22.7632C71.3369 22.4761 71.3893 22.2186 71.4941 21.9907C71.6012 21.7606 71.7482 21.5658 71.9351 21.4062C72.1219 21.2445 72.3429 21.1203 72.5981 21.0337C72.8556 20.9471 73.1348 20.9038 73.4355 20.9038C73.7432 20.9038 74.0269 20.9482 74.2866 21.0371C74.5487 21.1237 74.7754 21.2479 74.9668 21.4097C75.1582 21.5692 75.3075 21.7617 75.4146 21.9873C75.5216 22.2129 75.5752 22.4635 75.5752 22.7393C75.5752 22.8304 75.5684 22.9261 75.5547 23.0264C75.541 23.1266 75.5182 23.2314 75.4863 23.3408L74.9565 23.2178C74.9748 23.1471 74.9884 23.0754 74.9976 23.0024C75.0067 22.9272 75.0112 22.8543 75.0112 22.7837C75.0112 22.5763 74.9759 22.3872 74.9053 22.2163C74.8369 22.0454 74.7367 21.8984 74.6045 21.7754C74.4723 21.6523 74.3105 21.5566 74.1191 21.4883C73.9277 21.4199 73.7113 21.3857 73.4697 21.3857C73.2396 21.3857 73.0277 21.4176 72.834 21.4814C72.6426 21.543 72.4774 21.633 72.3384 21.7515C72.2017 21.87 72.0946 22.0158 72.0171 22.189C71.9396 22.3599 71.9009 22.5547 71.9009 22.7734C71.9009 22.8646 71.9089 22.9489 71.9248 23.0264C71.943 23.1038 71.9727 23.1711 72.0137 23.228C72.057 23.285 72.1151 23.3294 72.188 23.3613C72.2632 23.3932 72.3589 23.4092 72.4751 23.4092H73.9995C74.1408 23.4092 74.2684 23.4229 74.3823 23.4502C74.4963 23.4775 74.5931 23.5243 74.6729 23.5903C74.7549 23.6564 74.8175 23.7441 74.8608 23.8535C74.9041 23.9629 74.9258 24.0985 74.9258 24.2603V26H74.3755V24.2397C74.3755 24.1646 74.3675 24.1042 74.3516 24.0586C74.3356 24.013 74.3128 23.9777 74.2832 23.9526C74.2559 23.9276 74.2205 23.9116 74.1772 23.9048C74.134 23.8957 74.085 23.8911 74.0303 23.8911H73.6919V26H73.1416V25.2686H73.1245ZM72.7896 23.8774C72.6733 23.8774 72.5776 23.923 72.5024 24.0142C72.4295 24.1053 72.3931 24.2329 72.3931 24.397C72.3931 24.5565 72.4284 24.6818 72.499 24.7729C72.5697 24.8641 72.6631 24.9097 72.7793 24.9097C72.8955 24.9097 72.9889 24.8652 73.0596 24.7764C73.1325 24.6852 73.1689 24.5576 73.1689 24.3936C73.1689 24.2295 73.1336 24.103 73.063 24.0142C72.9924 23.923 72.9012 23.8774 72.7896 23.8774ZM78.2651 21.3857C78.0304 21.3857 77.8162 21.4176 77.6226 21.4814C77.4289 21.543 77.2625 21.633 77.1235 21.7515C76.9845 21.8677 76.8763 22.0101 76.7988 22.1787C76.7236 22.3473 76.686 22.5376 76.686 22.7495C76.686 22.8384 76.6951 22.9238 76.7134 23.0059C76.7339 23.0856 76.7692 23.1562 76.8193 23.2178C76.8695 23.277 76.9378 23.3249 77.0244 23.3613C77.1133 23.3955 77.2272 23.4126 77.3662 23.4126H78.1763C78.395 23.4126 78.5864 23.4479 78.7505 23.5186C78.9168 23.5892 79.0558 23.686 79.1675 23.8091C79.2814 23.9299 79.3669 24.0711 79.4238 24.2329C79.4808 24.3947 79.5093 24.5667 79.5093 24.749C79.5093 24.9495 79.4762 25.1318 79.4102 25.2959C79.3441 25.46 79.2529 25.6001 79.1367 25.7163C79.0205 25.8325 78.8815 25.9225 78.7197 25.9863C78.5602 26.0501 78.387 26.082 78.2002 26.082C77.9951 26.082 77.8117 26.0467 77.6499 25.9761C77.4881 25.9032 77.3503 25.8063 77.2363 25.6855C77.1247 25.5648 77.0381 25.4258 76.9766 25.2686C76.9173 25.1113 76.8877 24.9473 76.8877 24.7764C76.8877 24.6237 76.9139 24.471 76.9663 24.3184C77.0187 24.1657 77.103 24.021 77.2192 23.8843L77.2158 23.8706C76.8421 23.8433 76.5664 23.7419 76.3887 23.5664C76.2109 23.391 76.1221 23.1232 76.1221 22.7632C76.1221 22.4761 76.1745 22.2174 76.2793 21.9873C76.3841 21.7572 76.5311 21.5623 76.7202 21.4028C76.9093 21.241 77.1338 21.118 77.3936 21.0337C77.6556 20.9471 77.9438 20.9038 78.2583 20.9038C78.6639 20.9038 79.0171 20.9688 79.3179 21.0986C79.6187 21.2262 79.867 21.4006 80.063 21.6216C80.2612 21.8403 80.4082 22.0978 80.5039 22.394C80.6019 22.688 80.6509 23.0002 80.6509 23.3306C80.6509 23.4491 80.6429 23.5732 80.627 23.7031C80.6133 23.833 80.5928 23.9629 80.5654 24.0928C80.5404 24.2227 80.5096 24.3503 80.4731 24.4756C80.4367 24.6009 80.3968 24.7183 80.3535 24.8276L81.0405 25.7197L80.6099 26.0444L79.7759 24.9165C79.8328 24.7957 79.8818 24.6693 79.9229 24.5371C79.9661 24.4027 80.0015 24.2682 80.0288 24.1338C80.0584 23.9971 80.0801 23.8649 80.0938 23.7373C80.1074 23.6074 80.1143 23.4867 80.1143 23.375C80.1143 23.1061 80.0789 22.8509 80.0083 22.6094C79.9399 22.3678 79.8306 22.1571 79.6802 21.9771C79.5321 21.7948 79.3407 21.6512 79.106 21.5464C78.8735 21.4393 78.5933 21.3857 78.2651 21.3857ZM78.2104 23.8877C78.0965 23.8877 77.9928 23.9071 77.8994 23.9458C77.806 23.9845 77.7262 24.0415 77.6602 24.1167C77.5941 24.1896 77.5428 24.2796 77.5063 24.3867C77.4699 24.4938 77.4517 24.6146 77.4517 24.749C77.4517 24.8835 77.4699 25.0042 77.5063 25.1113C77.5428 25.2161 77.5929 25.3062 77.6567 25.3813C77.7228 25.4543 77.8014 25.5101 77.8926 25.5488C77.9837 25.5876 78.0851 25.6069 78.1968 25.6069C78.3062 25.6069 78.4064 25.5887 78.4976 25.5522C78.5887 25.5135 78.6673 25.4588 78.7334 25.3882C78.7995 25.3153 78.8507 25.2253 78.8872 25.1182C78.9259 25.0111 78.9453 24.888 78.9453 24.749C78.9453 24.6214 78.9282 24.5052 78.894 24.4004C78.8621 24.2933 78.8143 24.2021 78.7505 24.127C78.689 24.0518 78.6126 23.9937 78.5215 23.9526C78.4303 23.9093 78.3267 23.8877 78.2104 23.8877ZM84.4448 23.0776V24.1851C84.4972 24.1623 84.5542 24.1452 84.6157 24.1338C84.6772 24.1201 84.7422 24.1133 84.8105 24.1133C84.9359 24.1133 85.0544 24.1349 85.166 24.1782C85.2777 24.2215 85.3757 24.283 85.46 24.3628C85.5443 24.4403 85.6115 24.5348 85.6616 24.6465C85.7118 24.7581 85.7368 24.8823 85.7368 25.019C85.7368 25.1968 85.6981 25.3597 85.6206 25.5078C85.5431 25.6559 85.4349 25.7858 85.2959 25.8975C85.1592 26.0091 84.9951 26.0991 84.8037 26.1675C84.6123 26.2358 84.4038 26.2803 84.1782 26.3008C84.1737 26.4307 84.1577 26.5526 84.1304 26.6665C84.103 26.7827 84.0632 26.8921 84.0107 26.9946C84.0973 27.0698 84.1851 27.1291 84.2739 27.1724C84.3628 27.2179 84.4722 27.2407 84.6021 27.2407C84.659 27.2407 84.7137 27.235 84.7661 27.2236C84.8185 27.2122 84.8687 27.1917 84.9165 27.1621C84.9666 27.1348 85.0156 27.0972 85.0635 27.0493C85.1136 27.0037 85.166 26.9445 85.2207 26.8716L85.5728 27.1553C85.4998 27.2646 85.4224 27.3558 85.3403 27.4287C85.2606 27.5016 85.1785 27.5586 85.0942 27.5996C85.0099 27.6429 84.9256 27.6737 84.8413 27.6919C84.7593 27.7101 84.6795 27.7192 84.6021 27.7192C84.5063 27.7192 84.4186 27.7078 84.3389 27.6851C84.2591 27.6646 84.1851 27.6372 84.1167 27.603C84.0483 27.5688 83.9845 27.529 83.9253 27.4834C83.8683 27.4401 83.8148 27.3957 83.7646 27.3501C83.6416 27.4754 83.5015 27.5734 83.3442 27.644C83.1893 27.717 83.0195 27.7534 82.835 27.7534C82.7051 27.7534 82.5877 27.7352 82.4829 27.6987C82.3804 27.6623 82.2926 27.6133 82.2197 27.5518C82.1468 27.4902 82.091 27.4185 82.0522 27.3364C82.0135 27.2544 81.9941 27.1678 81.9941 27.0767C81.9941 26.9741 82.0169 26.883 82.0625 26.8032C82.1104 26.7257 82.173 26.6597 82.2505 26.605C82.3302 26.5503 82.4214 26.5081 82.5239 26.4785C82.6265 26.4512 82.7324 26.4375 82.8418 26.4375C82.9717 26.4375 83.1016 26.4557 83.2314 26.4922C83.3613 26.5286 83.481 26.5833 83.5903 26.6562L83.6006 26.6528C83.612 26.5959 83.6211 26.5366 83.6279 26.4751C83.6348 26.4159 83.6393 26.3589 83.6416 26.3042C83.3704 26.286 83.1141 26.2415 82.8726 26.1709C82.631 26.1003 82.3872 26.0011 82.1411 25.8735L82.3735 25.4497C82.5103 25.5158 82.6424 25.5728 82.77 25.6206C82.8999 25.6685 83.0264 25.7083 83.1494 25.7402C83.2747 25.7721 83.4001 25.7961 83.5254 25.812C83.6507 25.828 83.7795 25.8359 83.9116 25.8359C83.9777 25.8359 84.0518 25.8325 84.1338 25.8257C84.2181 25.8188 84.2967 25.8052 84.3696 25.7847V25.771C84.2876 25.7345 84.217 25.6878 84.1577 25.6309C84.1007 25.5739 84.0529 25.5112 84.0142 25.4429C83.9777 25.3745 83.9504 25.3027 83.9321 25.2275C83.9162 25.1501 83.9082 25.0737 83.9082 24.9985V23.5425C83.6895 23.5425 83.5003 23.5653 83.3408 23.6108C83.1813 23.6541 83.0469 23.7134 82.9375 23.7886C82.8304 23.8615 82.7472 23.9458 82.688 24.0415C82.6287 24.1349 82.5911 24.2306 82.5752 24.3286L82.5889 24.3354C82.6436 24.3149 82.6994 24.3047 82.7563 24.3047C82.811 24.3047 82.8634 24.3149 82.9136 24.3354C82.9637 24.3537 83.007 24.3799 83.0435 24.4141C83.0822 24.4482 83.113 24.4904 83.1357 24.5405C83.1585 24.5884 83.1699 24.6408 83.1699 24.6978C83.1699 24.757 83.1585 24.8128 83.1357 24.8652C83.113 24.9154 83.0799 24.9609 83.0366 25.002C82.9933 25.0407 82.9386 25.0715 82.8726 25.0942C82.8088 25.117 82.7347 25.1284 82.6504 25.1284C82.5479 25.1284 82.4578 25.1113 82.3804 25.0771C82.3029 25.0407 82.238 24.9928 82.1855 24.9336C82.1331 24.8743 82.0933 24.806 82.0659 24.7285C82.0409 24.651 82.0283 24.569 82.0283 24.4824C82.0283 24.3776 82.0477 24.2637 82.0864 24.1406C82.1252 24.0176 82.1958 23.89 82.2983 23.7578C82.1229 23.694 81.9759 23.6177 81.8574 23.5288C81.7412 23.4399 81.6478 23.3431 81.5771 23.2383C81.5065 23.1312 81.4564 23.0195 81.4268 22.9033C81.3994 22.7848 81.3857 22.6652 81.3857 22.5444C81.3857 22.2983 81.437 22.075 81.5396 21.8745C81.6421 21.6717 81.7845 21.4985 81.9668 21.355C82.1491 21.2114 82.3656 21.1009 82.6162 21.0234C82.8669 20.9437 83.1414 20.9038 83.4399 20.9038C83.743 20.9038 84.0233 20.9448 84.2808 21.0269C84.5382 21.1089 84.7593 21.2251 84.9438 21.3755C85.1307 21.5236 85.2765 21.7036 85.3813 21.9155C85.4862 22.1252 85.5386 22.3576 85.5386 22.6128C85.5386 22.6971 85.5317 22.786 85.5181 22.8794C85.5044 22.9728 85.4816 23.0708 85.4497 23.1733L84.9199 23.0503C84.9382 22.9865 84.9518 22.9215 84.9609 22.8555C84.9701 22.7871 84.9746 22.7199 84.9746 22.6538C84.9746 22.467 84.9404 22.2961 84.8721 22.1411C84.806 21.9839 84.7091 21.8494 84.5815 21.7378C84.4539 21.6261 84.2967 21.5396 84.1099 21.478C83.9253 21.4165 83.7145 21.3857 83.4775 21.3857C83.2565 21.3857 83.0526 21.4131 82.8657 21.4678C82.6789 21.5202 82.5171 21.5965 82.3804 21.6968C82.2459 21.797 82.14 21.9189 82.0625 22.0625C81.9873 22.2038 81.9497 22.3621 81.9497 22.5376C81.9497 22.6219 81.96 22.7062 81.9805 22.7905C82.001 22.8748 82.0386 22.9557 82.0933 23.0332C82.1479 23.1084 82.222 23.179 82.3154 23.2451C82.4089 23.3089 82.5296 23.3636 82.6777 23.4092C82.8372 23.3044 83.0298 23.2189 83.2554 23.1528C83.481 23.0845 83.7476 23.0503 84.0552 23.0503C84.0962 23.0503 84.1326 23.0514 84.1646 23.0537C84.1965 23.0537 84.2272 23.0549 84.2568 23.0571C84.2865 23.0594 84.3161 23.0628 84.3457 23.0674C84.3753 23.0697 84.4084 23.0731 84.4448 23.0776ZM84.8345 24.5781C84.7114 24.5781 84.6123 24.6191 84.5371 24.7012C84.4619 24.7809 84.4243 24.8869 84.4243 25.019C84.4243 25.1558 84.4642 25.2617 84.5439 25.3369C84.6237 25.4098 84.7228 25.4463 84.8413 25.4463C84.9575 25.4463 85.0498 25.411 85.1182 25.3403C85.1865 25.2674 85.2207 25.1626 85.2207 25.0259C85.2207 24.8869 85.1854 24.7775 85.1147 24.6978C85.0441 24.618 84.9507 24.5781 84.8345 24.5781ZM83.4365 27.0425C83.3568 26.9673 83.2633 26.9115 83.1562 26.875C83.0514 26.8385 82.9512 26.8203 82.8555 26.8203C82.7438 26.8203 82.6504 26.8431 82.5752 26.8887C82.5 26.9342 82.4624 27.0049 82.4624 27.1006C82.4624 27.1712 82.4909 27.2316 82.5479 27.2817C82.6048 27.3341 82.7017 27.3604 82.8384 27.3604C82.9774 27.3604 83.0959 27.3319 83.1938 27.2749C83.2941 27.2179 83.375 27.145 83.4365 27.0562V27.0425Z" fill="white" fill-opacity="0.786"/>
<defs>
<filter id="filter0_dd_976_1861" x="11.0938" y="7.25" width="11.8125" height="5.625" filterUnits="userSpaceOnUse" color-interpolation-filters="sRGB">
<feFlood flood-opacity="0" result="BackgroundImageFix"/>
<feColorMatrix in="SourceAlpha" type="matrix" values="0 0 0 0 0 0 0 0 0 0 0 0 0 0 0 0 0 0 127 0" result="hardAlpha"/>
<feOffset dy="0.1875"/>
<feGaussianBlur stdDeviation="0.1875"/>
<feColorMatrix type="matrix" values="0 0 0 0 0 0 0 0 0 0 0 0 0 0 0 0 0 0 0.1 0"/>
<feBlend mode="normal" in2="BackgroundImageFix" result="effect1_dropShadow_976_1861"/>
<feColorMatrix in="SourceAlpha" type="matrix" values="0 0 0 0 0 0 0 0 0 0 0 0 0 0 0 0 0 0 127 0" result="hardAlpha"/>
<feOffset dy="0.375"/>
<feGaussianBlur stdDeviation="0.5625"/>
<feColorMatrix type="matrix" values="0 0 0 0 0 0 0 0 0 0 0 0 0 0 0 0 0 0 0.2 0"/>
<feBlend mode="normal" in2="effect1_dropShadow_976_1861" result="effect2_dropShadow_976_1861"/>
<feBlend mode="normal" in="SourceGraphic" in2="effect2_dropShadow_976_1861" result="shape"/>
</filter>
<filter id="filter1_dd_976_1861" x="12.2188" y="13.4375" width="9.5625" height="9.5625" filterUnits="userSpaceOnUse" color-interpolation-filters="sRGB">
<feFlood flood-opacity="0" result="BackgroundImageFix"/>
<feColorMatrix in="SourceAlpha" type="matrix" values="0 0 0 0 0 0 0 0 0 0 0 0 0 0 0 0 0 0 127 0" result="hardAlpha"/>
<feOffset dy="0.1875"/>
<feGaussianBlur stdDeviation="0.1875"/>
<feColorMatrix type="matrix" values="0 0 0 0 1 0 0 0 0 1 0 0 0 0 1 0 0 0 0.6 0"/>
<feBlend mode="normal" in2="BackgroundImageFix" result="effect1_dropShadow_976_1861"/>
<feColorMatrix in="SourceAlpha" type="matrix" values="0 0 0 0 0 0 0 0 0 0 0 0 0 0 0 0 0 0 127 0" result="hardAlpha"/>
<feOffset dy="0.375"/>
<feGaussianBlur stdDeviation="0.5625"/>
<feColorMatrix type="matrix" values="0 0 0 0 1 0 0 0 0 1 0 0 0 0 1 0 0 0 0.6 0"/>
<feBlend mode="normal" in2="effect1_dropShadow_976_1861" result="effect2_dropShadow_976_1861"/>
<feBlend mode="normal" in="SourceGraphic" in2="effect2_dropShadow_976_1861" result="shape"/>
</filter>
<filter id="filter2_dd_976_1861" x="10.5939" y="6.6875" width="12.8124" height="5.06274" filterUnits="userSpaceOnUse" color-interpolation-filters="sRGB">
<feFlood flood-opacity="0" result="BackgroundImageFix"/>
<feColorMatrix in="SourceAlpha" type="matrix" values="0 0 0 0 0 0 0 0 0 0 0 0 0 0 0 0 0 0 127 0" result="hardAlpha"/>
<feOffset dy="-0.75"/>
<feGaussianBlur stdDeviation="0.1875"/>
<feColorMatrix type="matrix" values="0 0 0 0 0 0 0 0 0 0 0 0 0 0 0 0 0 0 0.1 0"/>
<feBlend mode="normal" in2="BackgroundImageFix" result="effect1_dropShadow_976_1861"/>
<feColorMatrix in="SourceAlpha" type="matrix" values="0 0 0 0 0 0 0 0 0 0 0 0 0 0 0 0 0 0 127 0" result="hardAlpha"/>
<feOffset dy="-0.75"/>
<feGaussianBlur stdDeviation="0.5625"/>
<feColorMatrix type="matrix" values="0 0 0 0 0 0 0 0 0 0 0 0 0 0 0 0 0 0 0.2 0"/>
<feBlend mode="normal" in2="effect1_dropShadow_976_1861" result="effect2_dropShadow_976_1861"/>
<feBlend mode="normal" in="SourceGraphic" in2="effect2_dropShadow_976_1861" result="shape"/>
</filter>
<linearGradient id="paint0_linear_976_1861" x1="12.2443" y1="8.00639" x2="15.9039" y2="24.8132" gradientUnits="userSpaceOnUse">
<stop offset="0.270833" stop-color="white"/>
<stop offset="1" stop-color="#DFDFDF"/>
</linearGradient>
<linearGradient id="paint1_linear_976_1861" x1="17" y1="10.25" x2="20.3514" y2="25.9624" gradientUnits="userSpaceOnUse">
<stop stop-color="#0078D4"/>
<stop offset="1" stop-color="#114A8B"/>
</linearGradient>
<linearGradient id="paint2_linear_976_1861" x1="17" y1="8.5625" x2="17.1583" y2="10.9858" gradientUnits="userSpaceOnUse">
<stop stop-color="#28AFEA"/>
<stop offset="1" stop-color="#0078D4"/>
</linearGradient>
<linearGradient id="paint3_linear_976_1861" x1="17" y1="8.5625" x2="17.1583" y2="10.9858" gradientUnits="userSpaceOnUse">
<stop stop-color="#30DAFF"/>
<stop offset="1" stop-color="#0094D4"/>
</linearGradient>
<linearGradient id="paint4_linear_976_1861" x1="16.5938" y1="8" x2="16.5937" y2="9.125" gradientUnits="userSpaceOnUse">
<stop stop-color="#22BCFF"/>
<stop offset="1" stop-color="#0088F0"/>
</linearGradient>
<linearGradient id="paint5_linear_976_1861" x1="16.5938" y1="8" x2="16.5937" y2="9.125" gradientUnits="userSpaceOnUse">
<stop stop-color="#28AFEA"/>
<stop offset="1" stop-color="#3CCBF4"/>
</linearGradient>
<clipPath id="clip0_976_1861">
<rect width="18" height="18" fill="white" transform="translate(8 8)"/>
</clipPath>
<clipPath id="clip1_976_1861">
<rect width="18" height="18" fill="white" transform="translate(8 8)"/>
</clipPath>
</defs>
</svg>
