<svg width="116" height="34" viewBox="0 0 116 34" fill="none" xmlns="http://www.w3.org/2000/svg">
<rect x="1" y="1" width="114" height="32" rx="4" fill="#FDFDFD"/>
<rect x="0.5" y="0.5" width="115" height="33" rx="4.5" stroke="black" stroke-opacity="0.0578"/>
<g clip-path="url(#clip0_976_1864)">
<g clip-path="url(#clip1_976_1864)">
<path d="M8.28125 11C8.28125 10.5858 8.61704 10.25 9.03125 10.25H24.9687C25.383 10.25 25.7188 10.5858 25.7188 11V22.3438C25.7188 24.0524 24.3336 25.4375 22.625 25.4375H11.375C9.66637 25.4375 8.28125 24.0524 8.28125 22.3438V11Z" fill="url(#paint0_linear_976_1864)"/>
<mask id="mask0_976_1864" style="mask-type:alpha" maskUnits="userSpaceOnUse" x="8" y="10" width="18" height="16">
<path d="M8.28125 11C8.28125 10.5858 8.61704 10.25 9.03125 10.25H24.9687C25.383 10.25 25.7188 10.5858 25.7188 11V22.3438C25.7188 24.0524 24.3336 25.4375 22.625 25.4375H11.375C9.66637 25.4375 8.28125 24.0524 8.28125 22.3438V11Z" fill="url(#paint1_linear_976_1864)"/>
</mask>
<g mask="url(#mask0_976_1864)">
<g filter="url(#filter0_dd_976_1864)">
<path d="M12.7812 10.8125V8.5625H21.2187V10.8125" stroke="url(#paint2_linear_976_1864)" stroke-width="1.125" stroke-linecap="round"/>
</g>
</g>
<g filter="url(#filter1_dd_976_1864)">
<path d="M16.719 14.1875H13.344V17.5625H16.719V14.1875Z" fill="#F25022"/>
<path d="M20.6562 14.1875H17.2812V17.5625H20.6562V14.1875Z" fill="#7FBA00"/>
<path d="M20.6562 18.125H17.2812V21.5H20.6562V18.125Z" fill="#FFB900"/>
<path d="M16.7188 18.125H13.3438V21.5H16.7188V18.125Z" fill="#00A4EF"/>
</g>
<path d="M12.7812 10.8125V9.125C12.7812 8.81434 13.0331 8.5625 13.3438 8.5625H20.6563C20.9669 8.5625 21.2188 8.81434 21.2188 9.125V10.8125" stroke="url(#paint3_linear_976_1864)" stroke-width="1.125" stroke-linecap="round"/>
<rect x="13.3438" y="8" width="7.3125" height="1.125" fill="url(#paint4_linear_976_1864)"/>
<mask id="mask1_976_1864" style="mask-type:alpha" maskUnits="userSpaceOnUse" x="13" y="8" width="8" height="2">
<rect x="13.3438" y="8" width="7.3125" height="1.125" fill="url(#paint5_linear_976_1864)"/>
</mask>
<g mask="url(#mask1_976_1864)">
<g filter="url(#filter2_dd_976_1864)">
<rect x="11.7189" y="8.56274" width="1.625" height="2.8125" fill="#C4C4C4"/>
</g>
</g>
</g>
</g>
<path d="M31.2168 11.2021V13H30.6426V8.09863H31.9893C32.5133 8.09863 32.9189 8.22852 33.2061 8.48828C33.4954 8.74805 33.6401 9.11491 33.6401 9.58887C33.6401 10.0605 33.4795 10.4479 33.1582 10.751C32.8392 11.0518 32.4074 11.2021 31.8628 11.2021H31.2168ZM31.2168 8.61816V10.6826H31.8184C32.2148 10.6826 32.5168 10.5903 32.7241 10.4058C32.9338 10.2189 33.0386 9.95573 33.0386 9.61621C33.0386 9.28353 32.9429 9.03402 32.7515 8.86768C32.5601 8.70133 32.2729 8.61816 31.8901 8.61816H31.2168ZM35.6943 13.082C35.1771 13.082 34.7635 12.9191 34.4536 12.5933C34.146 12.2651 33.9922 11.8311 33.9922 11.291C33.9922 10.7054 34.1517 10.2474 34.4707 9.91699C34.7897 9.58659 35.2249 9.42025 35.7764 9.41797C36.2982 9.41569 36.7049 9.57633 36.9966 9.8999C37.2905 10.2235 37.4375 10.6689 37.4375 11.2363C37.4375 11.7969 37.2791 12.2446 36.9624 12.5796C36.6479 12.9146 36.2253 13.082 35.6943 13.082ZM35.7354 12.6104C36.0977 12.6104 36.3757 12.493 36.5693 12.2583C36.7653 12.0213 36.8633 11.6875 36.8633 11.2568C36.8633 10.8171 36.7653 10.4798 36.5693 10.2451C36.3734 10.0081 36.0954 9.88965 35.7354 9.88965C35.3753 9.88965 35.0905 10.0127 34.8809 10.2588C34.6712 10.5049 34.5664 10.8421 34.5664 11.2705C34.5664 11.6852 34.6724 12.0122 34.8843 12.2515C35.0962 12.4907 35.3799 12.6104 35.7354 12.6104ZM38.9072 12.5488H38.8936V13H38.333V7.81836H38.8936V10.1152H38.9072C39.0462 9.88281 39.216 9.7085 39.4165 9.59229C39.6193 9.47607 39.8529 9.41797 40.1172 9.41797C40.5661 9.41797 40.917 9.5752 41.1699 9.88965C41.4251 10.2018 41.5527 10.6211 41.5527 11.1475C41.5527 11.7331 41.4103 12.2025 41.1255 12.5557C40.8407 12.9066 40.451 13.082 39.9565 13.082C39.7264 13.082 39.5236 13.0376 39.3481 12.9487C39.1727 12.8599 39.0257 12.7266 38.9072 12.5488ZM38.8936 11.0825V11.5713C38.8936 11.8607 38.987 12.1068 39.1738 12.3096C39.363 12.5101 39.6022 12.6104 39.8916 12.6104C40.2311 12.6104 40.4966 12.4805 40.688 12.2207C40.8817 11.9609 40.9785 11.5998 40.9785 11.1372C40.9785 10.7476 40.8885 10.4422 40.7085 10.2212C40.5285 10.0002 40.2847 9.88965 39.9771 9.88965C39.6512 9.88965 39.3892 10.0036 39.1909 10.2314C38.9927 10.457 38.8936 10.7407 38.8936 11.0825ZM42.7354 8.6626C42.6214 8.6626 42.5257 8.625 42.4482 8.5498C42.3708 8.47233 42.332 8.37777 42.332 8.26611C42.332 8.15446 42.3708 8.06104 42.4482 7.98584C42.5257 7.90837 42.6214 7.86963 42.7354 7.86963C42.8493 7.86963 42.945 7.90837 43.0225 7.98584C43.0999 8.06104 43.1387 8.15446 43.1387 8.26611C43.1387 8.37777 43.0999 8.47233 43.0225 8.5498C42.945 8.625 42.8493 8.6626 42.7354 8.6626ZM43.0088 13H42.4482V9.5H43.0088V13ZM46.9565 11.3765H44.4819C44.491 11.7707 44.5947 12.0749 44.793 12.2891C44.9935 12.501 45.2738 12.6069 45.6338 12.6069C45.791 12.6069 45.9482 12.5841 46.1055 12.5386C46.265 12.4907 46.4222 12.4155 46.5771 12.313L46.8369 12.7129C46.6387 12.8405 46.4404 12.9339 46.2422 12.9932C46.0439 13.0524 45.8263 13.082 45.5894 13.082C45.0607 13.082 44.6483 12.9248 44.3521 12.6104C44.0558 12.2959 43.9066 11.8573 43.9043 11.2944C43.902 10.7316 44.0501 10.2782 44.3486 9.93408C44.6494 9.59001 45.0391 9.41797 45.5176 9.41797C45.9733 9.41797 46.3265 9.56722 46.5771 9.86572C46.8301 10.1619 46.9565 10.5732 46.9565 11.0996V11.3765ZM46.3823 10.9185C46.38 10.5949 46.3014 10.3431 46.1465 10.1631C45.9915 9.98079 45.7785 9.88965 45.5073 9.88965C45.2407 9.88965 45.014 9.98307 44.8271 10.1699C44.6426 10.3545 44.5298 10.604 44.4888 10.9185H46.3823ZM49.5337 9.97852C49.4904 9.96484 49.4517 9.95573 49.4175 9.95117C49.3833 9.94434 49.34 9.94092 49.2876 9.94092C49.0028 9.94092 48.7783 10.0628 48.6143 10.3066C48.4502 10.5482 48.3682 10.8512 48.3682 11.2158V13H47.8076V9.5H48.3682V10.1938H48.3818C48.4616 9.94775 48.5835 9.7609 48.7476 9.6333C48.9116 9.50342 49.1007 9.43848 49.3149 9.43848C49.3856 9.43848 49.4448 9.44189 49.4927 9.44873C49.5428 9.45557 49.5872 9.46582 49.626 9.47949L49.5337 9.97852ZM52.6816 9.66064L50.6104 12.5215H52.6611V13H49.7866V12.8257L51.8579 9.97852H49.9814V9.5H52.6816V9.66064ZM57.7676 9.66064L55.6963 12.5215H57.7471V13H54.8726V12.8257L56.9438 9.97852H55.0674V9.5H57.7676V9.66064ZM61.3052 11.3765H58.8306C58.8397 11.7707 58.9434 12.0749 59.1416 12.2891C59.3421 12.501 59.6224 12.6069 59.9824 12.6069C60.1396 12.6069 60.2969 12.5841 60.4541 12.5386C60.6136 12.4907 60.7708 12.4155 60.9258 12.313L61.1855 12.7129C60.9873 12.8405 60.7891 12.9339 60.5908 12.9932C60.3926 13.0524 60.175 13.082 59.938 13.082C59.4093 13.082 58.9969 12.9248 58.7007 12.6104C58.4045 12.2959 58.2552 11.8573 58.2529 11.2944C58.2507 10.7316 58.3988 10.2782 58.6973 9.93408C58.998 9.59001 59.3877 9.41797 59.8662 9.41797C60.3219 9.41797 60.6751 9.56722 60.9258 9.86572C61.1787 10.1619 61.3052 10.5732 61.3052 11.0996V11.3765ZM60.731 10.9185C60.7287 10.5949 60.6501 10.3431 60.4951 10.1631C60.3402 9.98079 60.1271 9.88965 59.856 9.88965C59.5894 9.88965 59.3626 9.98307 59.1758 10.1699C58.9912 10.3545 58.8784 10.604 58.8374 10.9185H60.731ZM63.749 12.7368L64.0156 12.3062C64.1683 12.4064 64.3175 12.4827 64.4634 12.5352C64.6092 12.5853 64.7664 12.6104 64.9351 12.6104C65.1743 12.6104 65.3555 12.5659 65.4785 12.4771C65.6038 12.3882 65.6665 12.2549 65.6665 12.0771C65.6665 11.9336 65.6107 11.8128 65.499 11.7148C65.3896 11.6146 65.2176 11.5348 64.9829 11.4756C64.5454 11.3639 64.2458 11.2238 64.084 11.0552C63.9222 10.8843 63.8413 10.6746 63.8413 10.4263C63.8413 10.1392 63.9495 9.8999 64.166 9.7085C64.3825 9.51481 64.6844 9.41797 65.0718 9.41797C65.2586 9.41797 65.4364 9.44189 65.605 9.48975C65.7736 9.5376 65.9456 9.61963 66.1211 9.73584L65.8716 10.1597C65.7121 10.0594 65.5685 9.98991 65.4409 9.95117C65.3156 9.91016 65.188 9.88965 65.0581 9.88965C64.8325 9.88965 64.6605 9.9318 64.542 10.0161C64.4235 10.0981 64.3643 10.2178 64.3643 10.375C64.3643 10.5322 64.4246 10.6507 64.5454 10.7305C64.6685 10.8102 64.8656 10.8854 65.1367 10.9561C65.4922 11.0518 65.7576 11.1862 65.9331 11.3594C66.1108 11.5303 66.1997 11.7547 66.1997 12.0327C66.1997 12.3563 66.0846 12.6126 65.8545 12.8018C65.6266 12.9886 65.3133 13.082 64.9146 13.082C64.7004 13.082 64.4941 13.0524 64.2959 12.9932C64.0999 12.9339 63.9176 12.8485 63.749 12.7368ZM69.9561 13H69.1699L67.625 11.3184H67.6113V13H67.0508V7.81836H67.6113V11.103H67.625L69.0947 9.5H69.8296L68.2061 11.1885L69.9561 13ZM70.5303 13V7.81836H71.0908V13H70.5303ZM75.0386 11.3765H72.564C72.5731 11.7707 72.6768 12.0749 72.875 12.2891C73.0755 12.501 73.3558 12.6069 73.7158 12.6069C73.873 12.6069 74.0303 12.5841 74.1875 12.5386C74.347 12.4907 74.5042 12.4155 74.6592 12.313L74.9189 12.7129C74.7207 12.8405 74.5225 12.9339 74.3242 12.9932C74.126 13.0524 73.9084 13.082 73.6714 13.082C73.1427 13.082 72.7303 12.9248 72.4341 12.6104C72.1379 12.2959 71.9886 11.8573 71.9863 11.2944C71.984 10.7316 72.1322 10.2782 72.4307 9.93408C72.7314 9.59001 73.1211 9.41797 73.5996 9.41797C74.0553 9.41797 74.4085 9.56722 74.6592 9.86572C74.9121 10.1619 75.0386 10.5732 75.0386 11.0996V11.3765ZM74.4644 10.9185C74.4621 10.5949 74.3835 10.3431 74.2285 10.1631C74.0736 9.98079 73.8605 9.88965 73.5894 9.88965C73.3228 9.88965 73.096 9.98307 72.9092 10.1699C72.7246 10.3545 72.6118 10.604 72.5708 10.9185H74.4644ZM76.4639 12.4941H76.4502V14.6099H75.8896V9.5H76.4502V10.1152H76.4639C76.6029 9.88281 76.7726 9.7085 76.9731 9.59229C77.1759 9.47607 77.4095 9.41797 77.6738 9.41797C78.125 9.41797 78.4771 9.5752 78.73 9.88965C78.9829 10.2018 79.1094 10.6211 79.1094 11.1475C79.1094 11.7331 78.967 12.2025 78.6821 12.5557C78.3973 12.9066 78.0076 13.082 77.5132 13.082C77.2876 13.082 77.0871 13.033 76.9116 12.9351C76.7362 12.8371 76.5869 12.6901 76.4639 12.4941ZM76.4502 11.0825V11.5713C76.4502 11.8607 76.5436 12.1068 76.7305 12.3096C76.9196 12.5101 77.1589 12.6104 77.4482 12.6104C77.7878 12.6104 78.0532 12.4805 78.2446 12.2207C78.4383 11.9609 78.5352 11.5998 78.5352 11.1372C78.5352 10.7476 78.4451 10.4422 78.2651 10.2212C78.0851 10.0002 77.8413 9.88965 77.5337 9.88965C77.2078 9.88965 76.9458 10.0036 76.7476 10.2314C76.5493 10.457 76.4502 10.7407 76.4502 11.0825ZM82.835 13H82.2744V12.4463H82.2607C82.1445 12.6582 81.9964 12.8177 81.8164 12.9248C81.6364 13.0296 81.4245 13.082 81.1807 13.082C80.7637 13.082 80.4504 12.9578 80.2407 12.7095C80.0334 12.4611 79.9297 12.0885 79.9297 11.5918V9.5H80.4868V11.5029C80.4868 11.8721 80.5575 12.1489 80.6987 12.3335C80.84 12.5181 81.0519 12.6104 81.3345 12.6104C81.6079 12.6104 81.8324 12.5101 82.0078 12.3096C82.1855 12.1068 82.2744 11.8424 82.2744 11.5166V9.5H82.835V13Z" fill="black" fill-opacity="0.6063"/>
<path d="M39.2275 25H37.96V20.0854C37.96 19.8634 37.9653 19.6217 37.9761 19.3604C37.9904 19.0954 38.0083 18.8143 38.0298 18.5171H37.9976C37.9546 18.7212 37.9134 18.8966 37.874 19.0435C37.8382 19.1867 37.8024 19.3013 37.7666 19.3872L35.5054 25H34.6245L32.3525 19.4355C32.3239 19.3568 32.2881 19.2404 32.2451 19.0864C32.2057 18.9325 32.1628 18.7427 32.1162 18.5171H32.084C32.1055 18.7749 32.1198 19.0488 32.127 19.3389C32.1341 19.6253 32.1377 19.9279 32.1377 20.2466V25H30.9561V17.2979H32.7607L34.7642 22.3037C34.8429 22.4935 34.9074 22.6689 34.9575 22.8301C35.0112 22.9876 35.0524 23.1344 35.0811 23.2705H35.1133C35.1777 23.0664 35.2386 22.882 35.2959 22.7173C35.3532 22.5526 35.4069 22.4093 35.457 22.2876L37.4873 17.2979H39.2275V25ZM41.6177 18.4365C41.3885 18.4365 41.1987 18.3631 41.0483 18.2163C40.8979 18.0695 40.8228 17.8887 40.8228 17.6738C40.8228 17.4518 40.8979 17.2692 41.0483 17.126C41.1987 16.9827 41.3885 16.9111 41.6177 16.9111C41.8504 16.9111 42.042 16.9827 42.1924 17.126C42.3428 17.2692 42.418 17.4518 42.418 17.6738C42.418 17.8923 42.3428 18.0749 42.1924 18.2217C42.042 18.3649 41.8504 18.4365 41.6177 18.4365ZM42.2354 25H40.9839V19.5H42.2354V25ZM47.9824 24.6616C47.7103 24.8263 47.4399 24.9445 47.1714 25.0161C46.9028 25.0913 46.611 25.1289 46.2959 25.1289C45.4508 25.1289 44.7741 24.8818 44.2656 24.3877C43.7607 23.8936 43.5083 23.2222 43.5083 22.3735C43.5083 21.4604 43.7697 20.7318 44.2925 20.1875C44.8188 19.6432 45.5278 19.3711 46.4194 19.3711C46.731 19.3711 47.0138 19.4051 47.2681 19.4731C47.5259 19.5376 47.7873 19.645 48.0522 19.7954L47.5635 20.6655C47.3773 20.5617 47.1947 20.4865 47.0156 20.4399C46.8366 20.3898 46.6414 20.3647 46.4302 20.3647C45.9038 20.3647 45.4974 20.5384 45.2109 20.8857C44.9245 21.2331 44.7812 21.6932 44.7812 22.2661C44.7812 22.8677 44.9352 23.3296 45.2432 23.6519C45.5547 23.9741 45.945 24.1353 46.4141 24.1353C46.5573 24.1353 46.722 24.1102 46.9082 24.0601C47.0944 24.0063 47.2824 23.9222 47.4722 23.8076L47.9824 24.6616ZM52.1021 20.5474C52.034 20.5295 51.9678 20.5169 51.9033 20.5098C51.8424 20.499 51.7708 20.4937 51.6885 20.4937C51.2409 20.4937 50.8971 20.6584 50.6572 20.9878C50.4173 21.3172 50.2974 21.7469 50.2974 22.2769V25H49.0459V19.5H50.2974V20.5581H50.3188C50.4478 20.1785 50.6375 19.8921 50.8882 19.6987C51.1388 19.5018 51.4342 19.4033 51.7744 19.4033C51.8711 19.4033 51.957 19.4087 52.0322 19.4194C52.111 19.4302 52.1862 19.4463 52.2578 19.4678L52.1021 20.5474ZM55.5557 25.1289C54.6963 25.1289 54.0142 24.8729 53.5093 24.3608C53.008 23.8452 52.7573 23.1559 52.7573 22.293C52.7609 21.3799 53.0223 20.6655 53.5415 20.1499C54.0607 19.6307 54.7679 19.3711 55.6631 19.3711C56.526 19.3675 57.1992 19.6217 57.6826 20.1338C58.1696 20.6423 58.4131 21.3315 58.4131 22.2017C58.4131 23.0968 58.1553 23.8094 57.6396 24.3394C57.1276 24.8657 56.4329 25.1289 55.5557 25.1289ZM55.6147 24.1353C56.1125 24.1353 56.4902 23.9723 56.748 23.6465C57.0094 23.3206 57.1401 22.8498 57.1401 22.2339C57.1401 21.6252 57.0094 21.1615 56.748 20.8428C56.4867 20.5241 56.1071 20.3647 55.6094 20.3647C55.1188 20.3647 54.7321 20.533 54.4492 20.8696C54.1699 21.2062 54.0303 21.6717 54.0303 22.2661C54.0303 22.8641 54.1699 23.326 54.4492 23.6519C54.7285 23.9741 55.117 24.1353 55.6147 24.1353ZM59.1543 24.5596L59.6968 23.6787C59.9116 23.8291 60.139 23.9508 60.3789 24.0439C60.6224 24.1335 60.8856 24.1782 61.1685 24.1782C61.4764 24.1782 61.7145 24.1227 61.8828 24.0117C62.0547 23.8971 62.1406 23.7271 62.1406 23.5015C62.1406 23.3224 62.069 23.1738 61.9258 23.0557C61.7861 22.9339 61.5462 22.8337 61.2061 22.7549C60.5186 22.5938 60.0352 22.3807 59.7559 22.1157C59.4801 21.8507 59.3423 21.5016 59.3423 21.0684C59.3423 20.5706 59.5356 20.1642 59.9224 19.8491C60.3091 19.5304 60.8158 19.3711 61.4424 19.3711C61.7539 19.3711 62.0511 19.4123 62.334 19.4946C62.6169 19.5734 62.8926 19.7005 63.1611 19.876L62.6562 20.7354C62.4199 20.585 62.2033 20.4775 62.0063 20.4131C61.8094 20.3486 61.6071 20.3164 61.3994 20.3164C61.1058 20.3164 60.8766 20.3719 60.7119 20.4829C60.5508 20.5903 60.4702 20.7407 60.4702 20.9341C60.4702 21.1382 60.5526 21.2904 60.7173 21.3906C60.8856 21.4873 61.1667 21.5822 61.5605 21.6753C62.1549 21.8185 62.59 22.0262 62.8657 22.2983C63.1414 22.5669 63.2793 22.9268 63.2793 23.3779C63.2793 23.9115 63.0841 24.3376 62.6938 24.6562C62.3071 24.9714 61.7826 25.1289 61.1201 25.1289C60.762 25.1289 60.4183 25.0824 60.0889 24.9893C59.763 24.8926 59.4515 24.7493 59.1543 24.5596ZM66.8779 25.1289C66.0186 25.1289 65.3364 24.8729 64.8315 24.3608C64.3302 23.8452 64.0796 23.1559 64.0796 22.293C64.0832 21.3799 64.3446 20.6655 64.8638 20.1499C65.383 19.6307 66.0902 19.3711 66.9854 19.3711C67.8483 19.3675 68.5215 19.6217 69.0049 20.1338C69.4919 20.6423 69.7354 21.3315 69.7354 22.2017C69.7354 23.0968 69.4775 23.8094 68.9619 24.3394C68.4499 24.8657 67.7552 25.1289 66.8779 25.1289ZM66.937 24.1353C67.4347 24.1353 67.8125 23.9723 68.0703 23.6465C68.3317 23.3206 68.4624 22.8498 68.4624 22.2339C68.4624 21.6252 68.3317 21.1615 68.0703 20.8428C67.8089 20.5241 67.4294 20.3647 66.9316 20.3647C66.4411 20.3647 66.0544 20.533 65.7715 20.8696C65.4922 21.2062 65.3525 21.6717 65.3525 22.2661C65.3525 22.8641 65.4922 23.326 65.7715 23.6519C66.0508 23.9741 66.4393 24.1353 66.937 24.1353ZM73.9839 17.8403C73.8836 17.8009 73.7923 17.7741 73.71 17.7598C73.6276 17.7419 73.5381 17.7329 73.4414 17.7329C73.1764 17.7329 72.9759 17.8099 72.8398 17.9639C72.7074 18.1143 72.6411 18.3327 72.6411 18.6191V19.5H73.9141V20.4775H72.6411V25H71.395V20.4775H70.4604V19.5H71.395V18.5547C71.395 17.9961 71.5741 17.5539 71.9321 17.228C72.2938 16.8986 72.7718 16.7339 73.3662 16.7339C73.5524 16.7339 73.7135 16.7464 73.8496 16.7715C73.9857 16.7965 74.1271 16.8324 74.2739 16.8789L73.9839 17.8403ZM77.7974 24.9248C77.6362 24.9928 77.4679 25.043 77.2925 25.0752C77.117 25.1074 76.929 25.1235 76.7285 25.1235C76.2201 25.1235 75.828 24.9893 75.5522 24.7207C75.2801 24.4486 75.144 24.0439 75.144 23.5068V20.4775H74.2202V19.5H75.144V18.1626L76.3901 17.7866V19.5H77.7061V20.4775H76.3901V23.4048C76.3901 23.6733 76.4385 23.8667 76.5352 23.9849C76.6354 24.103 76.7894 24.1621 76.9971 24.1621C77.0973 24.1621 77.1922 24.1514 77.2817 24.1299C77.3748 24.1048 77.4572 24.0744 77.5288 24.0386L77.7974 24.9248ZM81.2939 24.4468L81.8633 23.4639C82.2106 23.6787 82.5347 23.8309 82.8354 23.9204C83.1362 24.0063 83.4728 24.0493 83.8452 24.0493C84.2892 24.0493 84.6383 23.9544 84.8926 23.7646C85.1504 23.5713 85.2793 23.2956 85.2793 22.9375C85.2793 22.6117 85.1719 22.3556 84.957 22.1694C84.7458 21.9797 84.3859 21.806 83.8774 21.6484C83.0933 21.4157 82.5168 21.1274 82.1479 20.7837C81.7791 20.4399 81.5947 19.9744 81.5947 19.3872C81.5947 18.7498 81.8328 18.2217 82.3091 17.8027C82.7853 17.3802 83.4316 17.1689 84.248 17.1689C84.6061 17.1689 84.9588 17.2083 85.3062 17.2871C85.6535 17.3659 85.9972 17.4876 86.3374 17.6523L85.8594 18.6729C85.5622 18.5189 85.2775 18.4097 85.0054 18.3452C84.7368 18.2808 84.4629 18.2485 84.1836 18.2485C83.7754 18.2485 83.4531 18.3381 83.2168 18.5171C82.984 18.6961 82.8677 18.9486 82.8677 19.2744C82.8677 19.5645 82.9751 19.7936 83.1899 19.9619C83.4048 20.1266 83.7736 20.2896 84.2964 20.4507C85.0985 20.6906 85.675 20.9896 86.0259 21.3477C86.3804 21.7057 86.5576 22.1981 86.5576 22.8247C86.5576 23.4979 86.3177 24.0511 85.8379 24.4844C85.3581 24.9141 84.6742 25.1289 83.7861 25.1289C83.3421 25.1289 82.9089 25.0734 82.4863 24.9624C82.0638 24.8478 81.6663 24.6759 81.2939 24.4468ZM90.4409 24.9248C90.2798 24.9928 90.1115 25.043 89.936 25.0752C89.7606 25.1074 89.5726 25.1235 89.3721 25.1235C88.8636 25.1235 88.4715 24.9893 88.1958 24.7207C87.9237 24.4486 87.7876 24.0439 87.7876 23.5068V20.4775H86.8638V19.5H87.7876V18.1626L89.0337 17.7866V19.5H90.3496V20.4775H89.0337V23.4048C89.0337 23.6733 89.082 23.8667 89.1787 23.9849C89.279 24.103 89.4329 24.1621 89.6406 24.1621C89.7409 24.1621 89.8358 24.1514 89.9253 24.1299C90.0184 24.1048 90.1007 24.0744 90.1724 24.0386L90.4409 24.9248ZM93.8623 25.1289C93.0029 25.1289 92.3208 24.8729 91.8159 24.3608C91.3146 23.8452 91.064 23.1559 91.064 22.293C91.0675 21.3799 91.3289 20.6655 91.8481 20.1499C92.3674 19.6307 93.0745 19.3711 93.9697 19.3711C94.8327 19.3675 95.5059 19.6217 95.9893 20.1338C96.4762 20.6423 96.7197 21.3315 96.7197 22.2017C96.7197 23.0968 96.4619 23.8094 95.9463 24.3394C95.4342 24.8657 94.7396 25.1289 93.8623 25.1289ZM93.9214 24.1353C94.4191 24.1353 94.7969 23.9723 95.0547 23.6465C95.3161 23.3206 95.4468 22.8498 95.4468 22.2339C95.4468 21.6252 95.3161 21.1615 95.0547 20.8428C94.7933 20.5241 94.4137 20.3647 93.916 20.3647C93.4255 20.3647 93.0387 20.533 92.7559 20.8696C92.4766 21.2062 92.3369 21.6717 92.3369 22.2661C92.3369 22.8641 92.4766 23.326 92.7559 23.6519C93.0352 23.9741 93.4237 24.1353 93.9214 24.1353ZM101.054 20.5474C100.986 20.5295 100.92 20.5169 100.855 20.5098C100.795 20.499 100.723 20.4937 100.641 20.4937C100.193 20.4937 99.8493 20.6584 99.6094 20.9878C99.3695 21.3172 99.2495 21.7469 99.2495 22.2769V25H97.998V19.5H99.2495V20.5581H99.271C99.3999 20.1785 99.5897 19.8921 99.8403 19.6987C100.091 19.5018 100.386 19.4033 100.727 19.4033C100.823 19.4033 100.909 19.4087 100.984 19.4194C101.063 19.4302 101.138 19.4463 101.21 19.4678L101.054 20.5474ZM106.721 22.5776H102.966C102.988 23.0968 103.138 23.4925 103.417 23.7646C103.697 24.0332 104.087 24.1675 104.588 24.1675C104.792 24.1675 105.025 24.1263 105.287 24.0439C105.548 23.9616 105.806 23.8291 106.06 23.6465L106.624 24.4253C106.284 24.6724 105.938 24.8514 105.587 24.9624C105.236 25.0734 104.85 25.1289 104.427 25.1289C103.571 25.1289 102.905 24.8836 102.429 24.3931C101.953 23.8989 101.713 23.2096 101.709 22.3252C101.709 21.4443 101.955 20.7318 102.445 20.1875C102.939 19.6432 103.571 19.3711 104.341 19.3711C105.079 19.3711 105.659 19.6038 106.082 20.0693C106.508 20.5312 106.721 21.1865 106.721 22.0352V22.5776ZM105.512 21.7129C105.512 21.2402 105.408 20.8857 105.201 20.6494C104.997 20.4095 104.707 20.2896 104.331 20.2896C103.976 20.2896 103.674 20.4185 103.423 20.6763C103.176 20.9305 103.024 21.276 102.966 21.7129H105.512Z" fill="black" fill-opacity="0.8956"/>
<defs>
<filter id="filter0_dd_976_1864" x="11.0938" y="7.25" width="11.8125" height="5.625" filterUnits="userSpaceOnUse" color-interpolation-filters="sRGB">
<feFlood flood-opacity="0" result="BackgroundImageFix"/>
<feColorMatrix in="SourceAlpha" type="matrix" values="0 0 0 0 0 0 0 0 0 0 0 0 0 0 0 0 0 0 127 0" result="hardAlpha"/>
<feOffset dy="0.1875"/>
<feGaussianBlur stdDeviation="0.1875"/>
<feColorMatrix type="matrix" values="0 0 0 0 0 0 0 0 0 0 0 0 0 0 0 0 0 0 0.1 0"/>
<feBlend mode="normal" in2="BackgroundImageFix" result="effect1_dropShadow_976_1864"/>
<feColorMatrix in="SourceAlpha" type="matrix" values="0 0 0 0 0 0 0 0 0 0 0 0 0 0 0 0 0 0 127 0" result="hardAlpha"/>
<feOffset dy="0.375"/>
<feGaussianBlur stdDeviation="0.5625"/>
<feColorMatrix type="matrix" values="0 0 0 0 0 0 0 0 0 0 0 0 0 0 0 0 0 0 0.2 0"/>
<feBlend mode="normal" in2="effect1_dropShadow_976_1864" result="effect2_dropShadow_976_1864"/>
<feBlend mode="normal" in="SourceGraphic" in2="effect2_dropShadow_976_1864" result="shape"/>
</filter>
<filter id="filter1_dd_976_1864" x="12.2188" y="13.4375" width="9.5625" height="9.5625" filterUnits="userSpaceOnUse" color-interpolation-filters="sRGB">
<feFlood flood-opacity="0" result="BackgroundImageFix"/>
<feColorMatrix in="SourceAlpha" type="matrix" values="0 0 0 0 0 0 0 0 0 0 0 0 0 0 0 0 0 0 127 0" result="hardAlpha"/>
<feOffset dy="0.1875"/>
<feGaussianBlur stdDeviation="0.1875"/>
<feColorMatrix type="matrix" values="0 0 0 0 0 0 0 0 0 0 0 0 0 0 0 0 0 0 0.1 0"/>
<feBlend mode="normal" in2="BackgroundImageFix" result="effect1_dropShadow_976_1864"/>
<feColorMatrix in="SourceAlpha" type="matrix" values="0 0 0 0 0 0 0 0 0 0 0 0 0 0 0 0 0 0 127 0" result="hardAlpha"/>
<feOffset dy="0.375"/>
<feGaussianBlur stdDeviation="0.5625"/>
<feColorMatrix type="matrix" values="0 0 0 0 0 0 0 0 0 0 0 0 0 0 0 0 0 0 0.2 0"/>
<feBlend mode="normal" in2="effect1_dropShadow_976_1864" result="effect2_dropShadow_976_1864"/>
<feBlend mode="normal" in="SourceGraphic" in2="effect2_dropShadow_976_1864" result="shape"/>
</filter>
<filter id="filter2_dd_976_1864" x="10.5939" y="6.6875" width="12.8124" height="5.06274" filterUnits="userSpaceOnUse" color-interpolation-filters="sRGB">
<feFlood flood-opacity="0" result="BackgroundImageFix"/>
<feColorMatrix in="SourceAlpha" type="matrix" values="0 0 0 0 0 0 0 0 0 0 0 0 0 0 0 0 0 0 127 0" result="hardAlpha"/>
<feOffset dy="-0.75"/>
<feGaussianBlur stdDeviation="0.1875"/>
<feColorMatrix type="matrix" values="0 0 0 0 0 0 0 0 0 0 0 0 0 0 0 0 0 0 0.1 0"/>
<feBlend mode="normal" in2="BackgroundImageFix" result="effect1_dropShadow_976_1864"/>
<feColorMatrix in="SourceAlpha" type="matrix" values="0 0 0 0 0 0 0 0 0 0 0 0 0 0 0 0 0 0 127 0" result="hardAlpha"/>
<feOffset dy="-0.75"/>
<feGaussianBlur stdDeviation="0.5625"/>
<feColorMatrix type="matrix" values="0 0 0 0 0 0 0 0 0 0 0 0 0 0 0 0 0 0 0.2 0"/>
<feBlend mode="normal" in2="effect1_dropShadow_976_1864" result="effect2_dropShadow_976_1864"/>
<feBlend mode="normal" in="SourceGraphic" in2="effect2_dropShadow_976_1864" result="shape"/>
</filter>
<linearGradient id="paint0_linear_976_1864" x1="17" y1="10.25" x2="20.3514" y2="25.9624" gradientUnits="userSpaceOnUse">
<stop stop-color="#0669BC"/>
<stop offset="1" stop-color="#243A5F"/>
</linearGradient>
<linearGradient id="paint1_linear_976_1864" x1="17" y1="10.25" x2="20.3514" y2="25.9624" gradientUnits="userSpaceOnUse">
<stop stop-color="#0078D4"/>
<stop offset="1" stop-color="#114A8B"/>
</linearGradient>
<linearGradient id="paint2_linear_976_1864" x1="17" y1="8.5625" x2="17.1583" y2="10.9858" gradientUnits="userSpaceOnUse">
<stop stop-color="#28AFEA"/>
<stop offset="1" stop-color="#0078D4"/>
</linearGradient>
<linearGradient id="paint3_linear_976_1864" x1="17" y1="8.5625" x2="17.1583" y2="10.9858" gradientUnits="userSpaceOnUse">
<stop stop-color="#30DAFF"/>
<stop offset="1" stop-color="#0094D4"/>
</linearGradient>
<linearGradient id="paint4_linear_976_1864" x1="16.5938" y1="8" x2="16.5937" y2="9.125" gradientUnits="userSpaceOnUse">
<stop stop-color="#22BCFF"/>
<stop offset="1" stop-color="#0088F0"/>
</linearGradient>
<linearGradient id="paint5_linear_976_1864" x1="16.5938" y1="8" x2="16.5937" y2="9.125" gradientUnits="userSpaceOnUse">
<stop stop-color="#28AFEA"/>
<stop offset="1" stop-color="#3CCBF4"/>
</linearGradient>
<clipPath id="clip0_976_1864">
<rect width="18" height="18" fill="white" transform="translate(8 8)"/>
</clipPath>
<clipPath id="clip1_976_1864">
<rect width="18" height="18" fill="white" transform="translate(8 8)"/>
</clipPath>
</defs>
</svg>
