<svg width="90" height="32" viewBox="0 0 90 32" fill="none" xmlns="http://www.w3.org/2000/svg">
<rect x="0.5" y="0.5" width="89" height="31" rx="3.5" fill="white"/>
<path d="M15.5559 7H7V15.5608H15.5559V7Z" fill="#F25022"/>
<path d="M25.0001 7H16.4442V15.5608H25.0001V7Z" fill="#7FBA00"/>
<path d="M15.5559 16.4395H7V25.0002H15.5559V16.4395Z" fill="#00A4EF"/>
<path d="M25.0002 16.4395H16.4443V25.0002H25.0002V16.4395Z" fill="#FFB900"/>
<path d="M32.0312 13.0938C31.237 13.0938 30.599 12.832 30.1172 12.3086C29.638 11.7852 29.3984 11.1042 29.3984 10.2656C29.3984 9.36719 29.6432 8.64974 30.1328 8.11328C30.6224 7.57422 31.2865 7.30469 32.125 7.30469C32.901 7.30469 33.526 7.5651 34 8.08594C34.4766 8.60677 34.7148 9.28906 34.7148 10.1328C34.7148 11.0443 34.4701 11.7656 33.9805 12.2969C33.4935 12.8281 32.8438 13.0938 32.0312 13.0938ZM32.0352 12.457C32.6341 12.457 33.1055 12.2617 33.4492 11.8711C33.793 11.4779 33.9648 10.9271 33.9648 10.2188C33.9648 9.49479 33.7969 8.9349 33.4609 8.53906C33.1276 8.14323 32.6667 7.94531 32.0781 7.94531C31.5052 7.94531 31.0404 8.15365 30.6836 8.57031C30.3268 8.98438 30.1484 9.52995 30.1484 10.207C30.1484 10.8841 30.3216 11.4284 30.668 11.8398C31.0169 12.2513 31.4727 12.457 32.0352 12.457ZM36.4961 12.4609H36.4805V13H35.7852V7.07812H36.4805V9.61719H36.4961C36.6576 9.34635 36.8568 9.14323 37.0938 9.00781C37.3307 8.8724 37.6042 8.80469 37.9141 8.80469C38.4375 8.80469 38.8477 8.98828 39.1445 9.35547C39.4414 9.72005 39.5898 10.2109 39.5898 10.8281C39.5898 11.5156 39.4219 12.0664 39.0859 12.4805C38.7526 12.8919 38.2982 13.0977 37.7227 13.0977C37.4518 13.0977 37.2135 13.0456 37.0078 12.9414C36.8047 12.8346 36.6341 12.6745 36.4961 12.4609ZM36.4766 10.7578V11.3125C36.4766 11.651 36.5846 11.9375 36.8008 12.1719C37.0169 12.4036 37.293 12.5195 37.6289 12.5195C38.0169 12.5195 38.3216 12.3698 38.543 12.0703C38.7643 11.7708 38.875 11.3542 38.875 10.8203C38.875 10.3724 38.7721 10.0208 38.5664 9.76562C38.3607 9.51042 38.0807 9.38281 37.7266 9.38281C37.349 9.38281 37.0456 9.51432 36.8164 9.77734C36.5898 10.0378 36.4766 10.3646 36.4766 10.7578ZM42.6758 12.9492C42.5638 12.9961 42.4518 13.0299 42.3398 13.0508C42.2305 13.0742 42.1068 13.0859 41.9688 13.0859C41.6328 13.0859 41.3698 12.9896 41.1797 12.7969C40.9922 12.6042 40.8984 12.319 40.8984 11.9414V9.48047H40.1992V8.90234H40.8984V7.96484L41.5977 7.74219V8.90234H42.6211V9.48047H41.5977V11.8672C41.5977 12.099 41.6393 12.2656 41.7227 12.3672C41.806 12.4688 41.931 12.5195 42.0977 12.5195C42.1758 12.5195 42.2513 12.5104 42.3242 12.4922C42.3971 12.474 42.4596 12.4518 42.5117 12.4258L42.6758 12.9492ZM42.2617 13.4688L41.6094 14.5156H41.1055L41.5508 13.4688H42.2617ZM43.9062 8.03516C43.7682 8.03516 43.6536 7.98958 43.5625 7.89844C43.4714 7.80729 43.4258 7.69661 43.4258 7.56641C43.4258 7.43099 43.4714 7.31901 43.5625 7.23047C43.6536 7.13932 43.7682 7.09375 43.9062 7.09375C44.0443 7.09375 44.1589 7.13932 44.25 7.23047C44.3438 7.31901 44.3906 7.43099 44.3906 7.56641C44.3906 7.69661 44.3438 7.80729 44.25 7.89844C44.1589 7.98958 44.0443 8.03516 43.9062 8.03516ZM44.2461 13H43.5508V8.90234H44.2461V13ZM49.082 13H48.3867V10.6641C48.3867 10.237 48.3086 9.91667 48.1523 9.70312C47.9961 9.48958 47.763 9.38281 47.4531 9.38281C47.1302 9.38281 46.8633 9.50391 46.6523 9.74609C46.444 9.98568 46.3398 10.2904 46.3398 10.6602V13H45.6445V8.90234H46.3398V9.58203H46.3555C46.5091 9.32161 46.6979 9.1276 46.9219 9C47.1458 8.86979 47.4049 8.80469 47.6992 8.80469C48.1471 8.80469 48.4896 8.94922 48.7266 9.23828C48.9635 9.52734 49.082 9.94531 49.082 10.4922V13ZM53.6719 11.1094H50.7891C50.8021 11.5625 50.9232 11.9115 51.1523 12.1562C51.3815 12.3984 51.7031 12.5195 52.1172 12.5195C52.2969 12.5195 52.4805 12.4922 52.668 12.4375C52.8581 12.3802 53.0482 12.2878 53.2383 12.1602L53.5547 12.6445C53.3177 12.8008 53.0794 12.9154 52.8398 12.9883C52.6003 13.0612 52.3372 13.0977 52.0508 13.0977C51.431 13.0977 50.9479 12.9141 50.6016 12.5469C50.2552 12.1771 50.0807 11.6615 50.0781 11C50.0755 10.3411 50.25 9.8112 50.6016 9.41016C50.9557 9.00651 51.4141 8.80469 51.9766 8.80469C52.513 8.80469 52.9297 8.97917 53.2266 9.32812C53.5234 9.67448 53.6719 10.1576 53.6719 10.7773V11.1094ZM52.9727 10.5625C52.9701 10.1849 52.8789 9.89193 52.6992 9.68359C52.5221 9.47526 52.2773 9.37109 51.9648 9.37109C51.6576 9.37109 51.3971 9.47917 51.1836 9.69531C50.9727 9.90885 50.8438 10.1979 50.7969 10.5625H52.9727ZM56.707 12.9492C56.5951 12.9961 56.4831 13.0299 56.3711 13.0508C56.2617 13.0742 56.138 13.0859 56 13.0859C55.6641 13.0859 55.401 12.9896 55.2109 12.7969C55.0234 12.6042 54.9297 12.319 54.9297 11.9414V9.48047H54.2305V8.90234H54.9297V7.96484L55.6289 7.74219V8.90234H56.6523V9.48047H55.6289V11.8672C55.6289 12.099 55.6706 12.2656 55.7539 12.3672C55.8372 12.4688 55.9622 12.5195 56.1289 12.5195C56.207 12.5195 56.2826 12.5104 56.3555 12.4922C56.4284 12.474 56.4909 12.4518 56.543 12.4258L56.707 12.9492ZM56.293 13.4688L55.6406 14.5156H55.1367L55.582 13.4688H56.293ZM57.9375 8.03516C57.7995 8.03516 57.6849 7.98958 57.5938 7.89844C57.5026 7.80729 57.457 7.69661 57.457 7.56641C57.457 7.43099 57.5026 7.31901 57.5938 7.23047C57.6849 7.13932 57.7995 7.09375 57.9375 7.09375C58.0755 7.09375 58.1901 7.13932 58.2812 7.23047C58.375 7.31901 58.4219 7.43099 58.4219 7.56641C58.4219 7.69661 58.375 7.80729 58.2812 7.89844C58.1901 7.98958 58.0755 8.03516 57.9375 8.03516ZM58.2773 13H57.582V8.90234H58.2773V13ZM64.6992 12.3125C64.5482 12.5729 64.3555 12.7695 64.1211 12.9023C63.8893 13.0326 63.6159 13.0977 63.3008 13.0977C62.7852 13.0977 62.3724 12.9141 62.0625 12.5469C61.7552 12.1797 61.6016 11.6797 61.6016 11.0469C61.6016 10.3672 61.7721 9.82422 62.1133 9.41797C62.4544 9.00911 62.9089 8.80469 63.4766 8.80469C63.7578 8.80469 64 8.85938 64.2031 8.96875C64.4062 9.07812 64.5716 9.24349 64.6992 9.46484H64.7148V7.07812H65.4102V13H64.7148V12.3125H64.6992ZM62.3125 11.0117C62.3125 11.4805 62.4206 11.849 62.6367 12.1172C62.8529 12.3854 63.1419 12.5195 63.5039 12.5195C63.8685 12.5195 64.1615 12.3893 64.3828 12.1289C64.6042 11.8685 64.7148 11.5391 64.7148 11.1406V10.5547C64.7148 10.2266 64.6068 9.94922 64.3906 9.72266C64.1771 9.49609 63.9062 9.38281 63.5781 9.38281C63.1849 9.38281 62.875 9.52734 62.6484 9.81641C62.4245 10.1055 62.3125 10.5039 62.3125 11.0117ZM70.0859 11.1094H67.2031C67.2161 11.5625 67.3372 11.9115 67.5664 12.1562C67.7956 12.3984 68.1172 12.5195 68.5312 12.5195C68.7109 12.5195 68.8945 12.4922 69.082 12.4375C69.2721 12.3802 69.4622 12.2878 69.6523 12.1602L69.9688 12.6445C69.7318 12.8008 69.4935 12.9154 69.2539 12.9883C69.0143 13.0612 68.7513 13.0977 68.4648 13.0977C67.8451 13.0977 67.362 12.9141 67.0156 12.5469C66.6693 12.1771 66.4948 11.6615 66.4922 11C66.4896 10.3411 66.6641 9.8112 67.0156 9.41016C67.3698 9.00651 67.8281 8.80469 68.3906 8.80469C68.9271 8.80469 69.3438 8.97917 69.6406 9.32812C69.9375 9.67448 70.0859 10.1576 70.0859 10.7773V11.1094ZM69.3867 10.5625C69.3841 10.1849 69.293 9.89193 69.1133 9.68359C68.9362 9.47526 68.6914 9.37109 68.3789 9.37109C68.0716 9.37109 67.8112 9.47917 67.5977 9.69531C67.3867 9.90885 67.2578 10.1979 67.2109 10.5625H69.3867ZM73.3086 13V7.07812H74.0039V13H73.3086ZM78.3047 13H77.6133V12.3555H77.5977C77.457 12.6003 77.2826 12.7852 77.0742 12.9102C76.8659 13.0352 76.6237 13.0977 76.3477 13.0977C75.9622 13.0977 75.651 12.9857 75.4141 12.7617C75.1771 12.5378 75.0586 12.2422 75.0586 11.875C75.0586 11.5182 75.1784 11.2253 75.418 10.9961C75.6576 10.7669 76.0026 10.6198 76.4531 10.5547L77.6172 10.3984V10.3047C77.6172 9.97396 77.5378 9.73568 77.3789 9.58984C77.2227 9.44401 77.0117 9.37109 76.7461 9.37109C76.5352 9.37109 76.3294 9.41146 76.1289 9.49219C75.9284 9.57292 75.7383 9.69401 75.5586 9.85547L75.1797 9.43359C75.4115 9.22005 75.6589 9.0625 75.9219 8.96094C76.1875 8.85677 76.4779 8.80469 76.793 8.80469C77.293 8.80469 77.6693 8.93359 77.9219 9.19141C78.1771 9.44922 78.3047 9.83594 78.3047 10.3516V13ZM77.6172 11.3281V10.9336L76.6406 11.0664C76.3411 11.1081 76.1172 11.1836 75.9688 11.293C75.8203 11.4023 75.7461 11.5742 75.7461 11.8086C75.7461 12.0404 75.8151 12.2201 75.9531 12.3477C76.0938 12.4753 76.2682 12.5391 76.4766 12.5391C76.8203 12.5391 77.0964 12.4258 77.3047 12.1992C77.513 11.9701 77.6172 11.6797 77.6172 11.3281Z" fill="black" fill-opacity="0.8956"/>
<path d="M41.1489 16.6123C41.1489 16.3559 41.2412 16.1507 41.4259 15.9764C41.6105 15.802 41.8258 15.72 42.0823 15.72C42.3489 15.72 42.5746 15.8123 42.7489 15.9866C42.9233 16.161 43.0156 16.3764 43.0156 16.6123C43.0156 16.8584 42.9233 17.0738 42.7387 17.2379C42.5541 17.4123 42.3387 17.4943 42.072 17.4943C41.8053 17.4943 41.59 17.4123 41.4053 17.2379C41.2412 17.0636 41.1489 16.8584 41.1489 16.6123ZM42.8412 25.002H41.313V18.4892H42.8412V25.002Z" fill="black" fill-opacity="0.8956"/>
<path d="M47.4975 23.8887C47.7231 23.8887 47.9795 23.8374 48.2565 23.7348C48.5334 23.6323 48.7795 23.4887 49.0154 23.3143V24.74C48.7693 24.8836 48.4924 24.9861 48.1847 25.0579C47.877 25.1297 47.5282 25.1707 47.159 25.1707C46.2052 25.1707 45.4257 24.863 44.8205 24.2579C44.2154 23.6528 43.918 22.8733 43.918 21.94C43.918 20.8938 44.2257 20.0323 44.8411 19.3553C45.4564 18.6784 46.318 18.34 47.4462 18.34C47.7334 18.34 48.0206 18.381 48.318 18.4528C48.6154 18.5246 48.8411 18.6169 49.0154 18.7092V20.1759C48.7795 20.0015 48.5334 19.8682 48.2872 19.7759C48.0411 19.6836 47.7847 19.6323 47.5282 19.6323C46.9231 19.6323 46.4411 19.8271 46.0616 20.2169C45.6923 20.6066 45.5077 21.14 45.5077 21.8066C45.5077 22.463 45.6821 22.9759 46.0411 23.3451C46.4 23.7143 46.8821 23.8887 47.4975 23.8887Z" fill="black" fill-opacity="0.8956"/>
<path d="M53.3738 18.39C53.4969 18.39 53.6097 18.4003 53.702 18.4105C53.7943 18.431 53.8866 18.4516 53.9482 18.4721V20.0208C53.8661 19.9592 53.7533 19.908 53.5995 19.8567C53.4456 19.8054 53.261 19.7746 53.0354 19.7746C52.6559 19.7746 52.3379 19.9285 52.0815 20.2464C51.8251 20.5644 51.6918 21.0464 51.6918 21.7131V25.0054H50.1636V18.4926H51.6918V19.5182H51.7123C51.8559 19.1592 52.061 18.8823 52.3482 18.6874C52.6354 18.4926 52.9738 18.39 53.3738 18.39Z" fill="black" fill-opacity="0.8956"/>
<path d="M54.0308 21.8477C54.0308 20.7707 54.3385 19.9195 54.9436 19.2836C55.5487 18.6579 56.4 18.34 57.4769 18.34C58.4923 18.34 59.2923 18.6477 59.8667 19.2528C60.441 19.8579 60.7282 20.6784 60.7282 21.7041C60.7282 22.7605 60.4205 23.6015 59.8154 24.2271C59.2102 24.8528 58.3795 25.1605 57.3333 25.1605C56.3282 25.1605 55.5179 24.863 54.9333 24.2682C54.3282 23.6836 54.0308 22.8733 54.0308 21.8477ZM55.6308 21.7964C55.6308 22.4733 55.7846 22.9964 56.0923 23.3553C56.4 23.7143 56.841 23.8887 57.4154 23.8887C57.9692 23.8887 58.4 23.7143 58.6872 23.3553C58.9743 22.9964 59.1282 22.463 59.1282 21.7554C59.1282 21.0579 58.9743 20.5246 58.6769 20.1656C58.3795 19.8066 57.9487 19.6323 57.4051 19.6323C56.841 19.6323 56.4102 19.8169 56.0923 20.1964C55.7846 20.5759 55.6308 21.0989 55.6308 21.7964Z" fill="black" fill-opacity="0.8956"/>
<path d="M63.0053 20.2069C63.0053 20.4223 63.0771 20.5966 63.2104 20.7197C63.354 20.8428 63.6617 20.9966 64.1335 21.1915C64.7489 21.4377 65.1796 21.7146 65.4258 22.0223C65.6719 22.33 65.795 22.6992 65.795 23.13C65.795 23.7454 65.5591 24.2377 65.0873 24.6069C64.6155 24.9761 63.9796 25.1607 63.1796 25.1607C62.913 25.1607 62.6155 25.13 62.2873 25.0582C61.9591 24.9966 61.6822 24.9043 61.4565 24.812V23.3043C61.7335 23.4992 62.0309 23.653 62.3591 23.7659C62.6771 23.8787 62.9745 23.9402 63.2309 23.9402C63.5796 23.9402 63.836 23.8889 64.0001 23.7966C64.1642 23.7043 64.2463 23.5402 64.2463 23.3043C64.2463 23.0889 64.1642 22.9146 63.9899 22.771C63.8155 22.6274 63.4976 22.453 63.0155 22.2684C62.4514 22.0325 62.0514 21.7659 61.8155 21.4684C61.5796 21.171 61.4565 20.7915 61.4565 20.3402C61.4565 19.7556 61.6924 19.2735 62.154 18.8941C62.6155 18.5146 63.2206 18.33 63.9694 18.33C64.195 18.33 64.4514 18.3505 64.7386 18.4018C65.0258 18.453 65.2617 18.5146 65.4463 18.5966V20.053C65.2412 19.9197 65.0053 19.8069 64.7386 19.7043C64.4719 19.612 64.195 19.5607 63.9386 19.5607C63.6514 19.5607 63.4155 19.6223 63.2617 19.7351C63.0873 19.8479 63.0053 20.012 63.0053 20.2069Z" fill="black" fill-opacity="0.8956"/>
<path d="M66.4717 21.8477C66.4717 20.7707 66.7794 19.9195 67.3845 19.2836C67.9896 18.6579 68.8409 18.34 69.9178 18.34C70.9332 18.34 71.7332 18.6477 72.3076 19.2528C72.8819 19.8579 73.1691 20.6784 73.1691 21.7041C73.1691 22.7605 72.8614 23.6015 72.2563 24.2271C71.6512 24.8528 70.8204 25.1605 69.7742 25.1605C68.7691 25.1605 67.9589 24.863 67.3742 24.2682C66.7691 23.6836 66.4717 22.8733 66.4717 21.8477ZM68.0614 21.7964C68.0614 22.4733 68.2153 22.9964 68.523 23.3554C68.8307 23.7143 69.2717 23.8887 69.846 23.8887C70.3999 23.8887 70.8307 23.7143 71.1178 23.3554C71.405 22.9964 71.5589 22.463 71.5589 21.7554C71.5589 21.0579 71.405 20.5246 71.1076 20.1656C70.8101 19.8066 70.3794 19.6323 69.8358 19.6323C69.2717 19.6323 68.8409 19.8169 68.523 20.1964C68.2153 20.5759 68.0614 21.0989 68.0614 21.7964Z" fill="black" fill-opacity="0.8956"/>
<path d="M78.2258 19.7523V23.0959C78.2258 23.7933 78.3899 24.3062 78.7079 24.6549C79.0258 25.0036 79.5181 25.1677 80.1643 25.1677C80.3797 25.1677 80.6053 25.1472 80.8309 25.0959C81.0566 25.0446 81.2207 25.0036 81.313 24.9421V23.6703C81.2207 23.7318 81.1079 23.7831 80.9848 23.8241C80.8617 23.8651 80.7489 23.8857 80.6668 23.8857C80.3591 23.8857 80.1232 23.8036 79.9797 23.6395C79.8361 23.4754 79.7643 23.1882 79.7643 22.7882V19.7421H81.3232V18.4908H79.7745V16.5626L78.2361 17.0344V18.501H75.9489V17.7113C75.9489 17.3215 76.0309 17.0241 76.2053 16.819C76.3796 16.6139 76.6258 16.5215 76.9438 16.5215C77.1079 16.5215 77.2514 16.5421 77.3848 16.5831C77.5079 16.6241 77.6002 16.6651 77.6514 16.6959V15.3728C77.5386 15.3318 77.4155 15.3113 77.272 15.2908C77.1284 15.2703 76.9643 15.26 76.7797 15.26C76.0822 15.26 75.5079 15.4754 75.0668 15.9164C74.6258 16.3574 74.4002 16.9113 74.4002 17.5985V18.501H73.313V19.7523H74.4002V25.0139H75.9489V19.7523H78.2258V19.7523Z" fill="black" fill-opacity="0.8956"/>
<path d="M39.8359 15.92V25.0072H38.2564V17.8893H38.2359L35.4154 25.0072H34.3692L31.4769 17.8893H31.4564V25.0072H30V15.92H32.2564L34.8718 22.6585H34.9128L37.6718 15.92H39.8359Z" fill="black" fill-opacity="0.8956"/>
<rect x="0.5" y="0.5" width="89" height="31" rx="3.5" stroke="url(#paint0_linear_1602_28049)"/>
<defs>
<linearGradient id="paint0_linear_1602_28049" x1="45" y1="1" x2="45" y2="31" gradientUnits="userSpaceOnUse">
<stop offset="0.905762" stop-opacity="0.0578"/>
<stop offset="1" stop-opacity="0.1622"/>
</linearGradient>
</defs>
</svg>
