<svg width="116" height="34" viewBox="0 0 116 34" fill="none" xmlns="http://www.w3.org/2000/svg">
<rect x="1" y="1" width="114" height="32" rx="4" fill="#202020"/>
<rect x="0.5" y="0.5" width="115" height="33" rx="4.5" stroke="black" stroke-opacity="0.1"/>
<g clip-path="url(#clip0_976_1882)">
<g clip-path="url(#clip1_976_1882)">
<path d="M8.28125 11C8.28125 10.5858 8.61704 10.25 9.03125 10.25H24.9687C25.383 10.25 25.7188 10.5858 25.7188 11V22.3438C25.7188 24.0524 24.3336 25.4375 22.625 25.4375H11.375C9.66637 25.4375 8.28125 24.0524 8.28125 22.3438V11Z" fill="url(#paint0_linear_976_1882)"/>
<mask id="mask0_976_1882" style="mask-type:alpha" maskUnits="userSpaceOnUse" x="8" y="10" width="18" height="16">
<path d="M8.28125 11C8.28125 10.5858 8.61704 10.25 9.03125 10.25H24.9687C25.383 10.25 25.7188 10.5858 25.7188 11V22.3438C25.7188 24.0524 24.3336 25.4375 22.625 25.4375H11.375C9.66637 25.4375 8.28125 24.0524 8.28125 22.3438V11Z" fill="url(#paint1_linear_976_1882)"/>
</mask>
<g mask="url(#mask0_976_1882)">
<g filter="url(#filter0_dd_976_1882)">
<path d="M12.7812 10.8125V8.5625H21.2187V10.8125" stroke="url(#paint2_linear_976_1882)" stroke-width="1.125" stroke-linecap="round"/>
</g>
</g>
<g filter="url(#filter1_dd_976_1882)">
<path d="M16.719 14.1875H13.344V17.5625H16.719V14.1875Z" fill="#F25022"/>
<path d="M20.6562 14.1875H17.2812V17.5625H20.6562V14.1875Z" fill="#7FBA00"/>
<path d="M20.6562 18.125H17.2812V21.5H20.6562V18.125Z" fill="#FFB900"/>
<path d="M16.7188 18.125H13.3438V21.5H16.7188V18.125Z" fill="#00A4EF"/>
</g>
<path d="M12.7812 10.8125V9.125C12.7812 8.81434 13.0331 8.5625 13.3438 8.5625H20.6563C20.9669 8.5625 21.2188 8.81434 21.2188 9.125V10.8125" stroke="url(#paint3_linear_976_1882)" stroke-width="1.125" stroke-linecap="round"/>
<rect x="13.3438" y="8" width="7.3125" height="1.125" fill="url(#paint4_linear_976_1882)"/>
<mask id="mask1_976_1882" style="mask-type:alpha" maskUnits="userSpaceOnUse" x="13" y="8" width="8" height="2">
<rect x="13.3438" y="8" width="7.3125" height="1.125" fill="url(#paint5_linear_976_1882)"/>
</mask>
<g mask="url(#mask1_976_1882)">
<g filter="url(#filter2_dd_976_1882)">
<rect x="11.7189" y="8.56274" width="1.625" height="2.8125" fill="#C4C4C4"/>
</g>
</g>
</g>
</g>
<path d="M30.2188 12.624L30.499 12.1934C30.6995 12.3232 30.9001 12.4178 31.1006 12.4771C31.3011 12.5363 31.5347 12.5659 31.8013 12.5659C32.0998 12.5659 32.3447 12.4964 32.5361 12.3574C32.7298 12.2161 32.8267 12.0111 32.8267 11.7422C32.8267 11.5029 32.7446 11.3115 32.5806 11.168C32.4188 11.0244 32.1522 10.8854 31.7808 10.751C31.3205 10.5846 30.9787 10.3978 30.7554 10.1904C30.5343 9.98079 30.4238 9.70508 30.4238 9.36328C30.4238 8.96224 30.5674 8.63753 30.8545 8.38916C31.1439 8.14079 31.5233 8.0166 31.9927 8.0166C32.2114 8.0166 32.4256 8.04053 32.6353 8.08838C32.8449 8.13395 33.0614 8.20915 33.2847 8.31396L33.0693 8.77539C32.8825 8.6888 32.7002 8.62614 32.5225 8.5874C32.347 8.54867 32.1567 8.5293 31.9517 8.5293C31.6577 8.5293 31.4253 8.5988 31.2544 8.73779C31.0835 8.87451 30.998 9.06478 30.998 9.30859C30.998 9.52279 31.0767 9.69368 31.2339 9.82129C31.3911 9.94889 31.6532 10.0788 32.02 10.2109C32.5122 10.3887 32.8654 10.5869 33.0796 10.8057C33.2938 11.0244 33.4009 11.3195 33.4009 11.6909C33.4009 12.0874 33.2573 12.4189 32.9702 12.6855C32.6831 12.9499 32.2798 13.082 31.7603 13.082C31.4686 13.082 31.1997 13.0456 30.9536 12.9727C30.7075 12.8997 30.4626 12.7835 30.2188 12.624ZM35.7285 12.959C35.6328 12.9977 35.5382 13.0262 35.4448 13.0444C35.3537 13.0649 35.25 13.0752 35.1338 13.0752C34.8558 13.0752 34.637 12.9943 34.4775 12.8325C34.3203 12.6685 34.2417 12.4269 34.2417 12.1079V9.97852H33.6401V9.5H34.2417V8.64551L34.8022 8.46436V9.5H35.6841V9.97852H34.8022V12.043C34.8022 12.2435 34.8376 12.3882 34.9082 12.4771C34.9811 12.5659 35.0894 12.6104 35.2329 12.6104C35.3013 12.6104 35.3674 12.6024 35.4312 12.5864C35.495 12.5705 35.5485 12.5522 35.5918 12.5317L35.7285 12.959ZM36.7197 8.6626C36.6058 8.6626 36.5101 8.625 36.4326 8.5498C36.3551 8.47233 36.3164 8.37777 36.3164 8.26611C36.3164 8.15446 36.3551 8.06104 36.4326 7.98584C36.5101 7.90837 36.6058 7.86963 36.7197 7.86963C36.8337 7.86963 36.9294 7.90837 37.0068 7.98584C37.0843 8.06104 37.123 8.15446 37.123 8.26611C37.123 8.37777 37.0843 8.47233 37.0068 8.5498C36.9294 8.625 36.8337 8.6626 36.7197 8.6626ZM36.9932 13H36.4326V9.5H36.9932V13ZM40.606 13H40.0454V12.4531H40.0317C39.911 12.6628 39.7617 12.82 39.584 12.9248C39.4085 13.0296 39.2035 13.082 38.9688 13.082C38.6406 13.082 38.3752 12.9863 38.1724 12.7949C37.9696 12.6035 37.8682 12.3494 37.8682 12.0327C37.8682 11.7342 37.9707 11.487 38.1758 11.291C38.3809 11.0951 38.6714 10.9697 39.0474 10.915L40.0454 10.7817V10.7031C40.0454 10.4092 39.9771 10.2007 39.8403 10.0776C39.7036 9.95231 39.5213 9.88965 39.2935 9.88965C39.1112 9.88965 38.9357 9.92383 38.7671 9.99219C38.5985 10.0605 38.4401 10.1654 38.292 10.3066L37.9639 9.96826C38.1598 9.77913 38.3683 9.64014 38.5894 9.55127C38.8104 9.4624 39.0565 9.41797 39.3276 9.41797C39.7515 9.41797 40.0705 9.52734 40.2847 9.74609C40.4989 9.96257 40.606 10.2884 40.606 10.7236V13ZM40.0454 11.5781V11.2295L39.2012 11.3457C38.9437 11.3822 38.75 11.4471 38.6201 11.5405C38.4902 11.634 38.4253 11.7809 38.4253 11.9814C38.4253 12.1911 38.4857 12.3517 38.6064 12.4634C38.7295 12.5728 38.8787 12.6274 39.0542 12.6274C39.3573 12.6274 39.5977 12.5283 39.7754 12.3301C39.9554 12.1318 40.0454 11.8812 40.0454 11.5781ZM44.5947 13H44.0342V10.9834C44.0342 10.6188 43.9658 10.3454 43.8291 10.1631C43.6947 9.98079 43.4919 9.88965 43.2207 9.88965C42.9473 9.88965 42.7171 9.99561 42.5303 10.2075C42.3434 10.4172 42.25 10.6872 42.25 11.0176V13H41.6895V7.81836H42.25V10.0811H42.2637C42.3981 9.86003 42.561 9.69482 42.7524 9.58545C42.9438 9.4738 43.1637 9.41797 43.4121 9.41797C43.8063 9.41797 44.1014 9.53646 44.2974 9.77344C44.4956 10.0104 44.5947 10.367 44.5947 10.8433V13ZM48.5596 13H47.999V11.0039C47.999 10.6325 47.9307 10.3545 47.7939 10.1699C47.6595 9.98307 47.4567 9.88965 47.1855 9.88965C46.9053 9.88965 46.6729 9.99561 46.4883 10.2075C46.306 10.4172 46.2148 10.6826 46.2148 11.0039V13H45.6543V9.5H46.2148V10.0811H46.2285C46.3607 9.86003 46.5225 9.69482 46.7139 9.58545C46.9053 9.4738 47.1263 9.41797 47.377 9.41797C47.7598 9.41797 48.0526 9.54215 48.2554 9.79053C48.4582 10.0366 48.5596 10.3932 48.5596 10.8604V13ZM52.4492 13H51.8887V12.4463H51.875C51.7588 12.6582 51.6107 12.8177 51.4307 12.9248C51.2507 13.0296 51.0387 13.082 50.7949 13.082C50.3779 13.082 50.0646 12.9578 49.855 12.7095C49.6476 12.4611 49.5439 12.0885 49.5439 11.5918V9.5H50.1011V11.5029C50.1011 11.8721 50.1717 12.1489 50.313 12.3335C50.4543 12.5181 50.6662 12.6104 50.9487 12.6104C51.2222 12.6104 51.4466 12.5101 51.6221 12.3096C51.7998 12.1068 51.8887 11.8424 51.8887 11.5166V9.5H52.4492V13ZM55.252 12.959C55.1562 12.9977 55.0617 13.0262 54.9683 13.0444C54.8771 13.0649 54.7734 13.0752 54.6572 13.0752C54.3792 13.0752 54.1605 12.9943 54.001 12.8325C53.8438 12.6685 53.7651 12.4269 53.7651 12.1079V9.97852H53.1636V9.5H53.7651V8.64551L54.3257 8.46436V9.5H55.2075V9.97852H54.3257V12.043C54.3257 12.2435 54.361 12.3882 54.4316 12.4771C54.5046 12.5659 54.6128 12.6104 54.7563 12.6104C54.8247 12.6104 54.8908 12.6024 54.9546 12.5864C55.0184 12.5705 55.0719 12.5522 55.1152 12.5317L55.252 12.959ZM55.686 8.10205L55.1187 8.99072H54.6982L55.0981 8.10205H55.686ZM61.0283 9.66064L58.957 12.5215H61.0078V13H58.1333V12.8257L60.2046 9.97852H58.3281V9.5H61.0283V9.66064ZM65.1367 13.082C64.6195 13.082 64.2059 12.9191 63.896 12.5933C63.5884 12.2651 63.4346 11.8311 63.4346 11.291C63.4346 10.7054 63.5941 10.2474 63.9131 9.91699C64.2321 9.58659 64.6673 9.42025 65.2188 9.41797C65.7406 9.41569 66.1473 9.57633 66.439 9.8999C66.7329 10.2235 66.8799 10.6689 66.8799 11.2363C66.8799 11.7969 66.7215 12.2446 66.4048 12.5796C66.0903 12.9146 65.6676 13.082 65.1367 13.082ZM65.1777 12.6104C65.54 12.6104 65.818 12.493 66.0117 12.2583C66.2077 12.0213 66.3057 11.6875 66.3057 11.2568C66.3057 10.8171 66.2077 10.4798 66.0117 10.2451C65.8158 10.0081 65.5378 9.88965 65.1777 9.88965C64.8177 9.88965 64.5329 10.0127 64.3232 10.2588C64.1136 10.5049 64.0088 10.8421 64.0088 11.2705C64.0088 11.6852 64.1147 12.0122 64.3267 12.2515C64.5386 12.4907 64.8223 12.6104 65.1777 12.6104ZM68.3496 12.5488H68.3359V13H67.7754V7.81836H68.3359V10.1152H68.3496C68.4886 9.88281 68.6584 9.7085 68.8589 9.59229C69.0617 9.47607 69.2952 9.41797 69.5596 9.41797C70.0085 9.41797 70.3594 9.5752 70.6123 9.88965C70.8675 10.2018 70.9951 10.6211 70.9951 11.1475C70.9951 11.7331 70.8527 12.2025 70.5679 12.5557C70.283 12.9066 69.8934 13.082 69.3989 13.082C69.1688 13.082 68.966 13.0376 68.7905 12.9487C68.6151 12.8599 68.4681 12.7266 68.3496 12.5488ZM68.3359 11.0825V11.5713C68.3359 11.8607 68.4294 12.1068 68.6162 12.3096C68.8053 12.5101 69.0446 12.6104 69.334 12.6104C69.6735 12.6104 69.939 12.4805 70.1304 12.2207C70.3241 11.9609 70.4209 11.5998 70.4209 11.1372C70.4209 10.7476 70.3309 10.4422 70.1509 10.2212C69.9709 10.0002 69.7271 9.88965 69.4194 9.88965C69.0936 9.88965 68.8315 10.0036 68.6333 10.2314C68.4351 10.457 68.3359 10.7407 68.3359 11.0825ZM74.3516 12.7915C74.1898 12.8918 74.028 12.9647 73.8662 13.0103C73.7044 13.0581 73.5278 13.082 73.3364 13.082C72.8442 13.082 72.4398 12.9294 72.123 12.624C71.8086 12.3187 71.6514 11.8857 71.6514 11.3252C71.6514 10.7555 71.8097 10.2952 72.1265 9.94434C72.4455 9.59342 72.883 9.41797 73.439 9.41797C73.619 9.41797 73.7899 9.43962 73.9517 9.48291C74.1157 9.5262 74.2809 9.59684 74.4473 9.69482L74.2114 10.105C74.0815 10.0321 73.9539 9.97852 73.8286 9.94434C73.7033 9.91016 73.5666 9.89307 73.4185 9.89307C73.0334 9.89307 72.7383 10.0218 72.5332 10.2793C72.3281 10.5368 72.2256 10.8638 72.2256 11.2603C72.2256 11.6978 72.3327 12.0316 72.5469 12.2617C72.7633 12.4919 73.0425 12.6069 73.3843 12.6069C73.4959 12.6069 73.6121 12.5898 73.7329 12.5557C73.856 12.5192 73.979 12.4634 74.1021 12.3882L74.3516 12.7915ZM78.0293 13H77.4688V10.9834C77.4688 10.6188 77.4004 10.3454 77.2637 10.1631C77.1292 9.98079 76.9264 9.88965 76.6553 9.88965C76.3818 9.88965 76.1517 9.99561 75.9648 10.2075C75.778 10.4172 75.6846 10.6872 75.6846 11.0176V13H75.124V7.81836H75.6846V10.0811H75.6982C75.8327 9.86003 75.9956 9.69482 76.187 9.58545C76.3784 9.4738 76.5983 9.41797 76.8467 9.41797C77.2409 9.41797 77.536 9.53646 77.7319 9.77344C77.9302 10.0104 78.0293 10.367 78.0293 10.8433V13ZM80.5518 13.082C80.0345 13.082 79.6209 12.9191 79.311 12.5933C79.0034 12.2651 78.8496 11.8311 78.8496 11.291C78.8496 10.7054 79.0091 10.2474 79.3281 9.91699C79.6471 9.58659 80.0824 9.42025 80.6338 9.41797C81.1556 9.41569 81.5623 9.57633 81.854 9.8999C82.1479 10.2235 82.2949 10.6689 82.2949 11.2363C82.2949 11.7969 82.1366 12.2446 81.8198 12.5796C81.5054 12.9146 81.0827 13.082 80.5518 13.082ZM80.5928 12.6104C80.9551 12.6104 81.2331 12.493 81.4268 12.2583C81.6227 12.0213 81.7207 11.6875 81.7207 11.2568C81.7207 10.8171 81.6227 10.4798 81.4268 10.2451C81.2308 10.0081 80.9528 9.88965 80.5928 9.88965C80.2327 9.88965 79.9479 10.0127 79.7383 10.2588C79.5286 10.5049 79.4238 10.8421 79.4238 11.2705C79.4238 11.6852 79.5298 12.0122 79.7417 12.2515C79.9536 12.4907 80.2373 12.6104 80.5928 12.6104ZM85.6035 12.4053C85.4736 12.6309 85.3084 12.8006 85.1079 12.9146C84.9097 13.0262 84.6738 13.082 84.4004 13.082C83.9606 13.082 83.6086 12.9259 83.3442 12.6138C83.0822 12.2993 82.9512 11.8721 82.9512 11.332C82.9512 10.7533 83.097 10.2896 83.3887 9.94092C83.6803 9.59229 84.0688 9.41797 84.5542 9.41797C84.7957 9.41797 85.0031 9.46582 85.1763 9.56152C85.3517 9.65495 85.4941 9.79622 85.6035 9.98535H85.6172V7.81836H86.1777V13H85.6172V12.4053H85.6035ZM83.5254 11.3047C83.5254 11.708 83.6188 12.027 83.8057 12.2617C83.9948 12.4941 84.2477 12.6104 84.5645 12.6104C84.8789 12.6104 85.133 12.4976 85.3267 12.272C85.5203 12.0464 85.6172 11.7616 85.6172 11.4175V10.9014C85.6172 10.6188 85.5226 10.3796 85.3335 10.1836C85.1466 9.98763 84.9108 9.88965 84.626 9.88965C84.2842 9.88965 84.0153 10.015 83.8193 10.2656C83.6234 10.5163 83.5254 10.8626 83.5254 11.3047ZM90.1426 13H89.582V12.4463H89.5684C89.4521 12.6582 89.304 12.8177 89.124 12.9248C88.944 13.0296 88.7321 13.082 88.4883 13.082C88.0713 13.082 87.758 12.9578 87.5483 12.7095C87.341 12.4611 87.2373 12.0885 87.2373 11.5918V9.5H87.7944V11.5029C87.7944 11.8721 87.8651 12.1489 88.0063 12.3335C88.1476 12.5181 88.3595 12.6104 88.6421 12.6104C88.9155 12.6104 89.14 12.5101 89.3154 12.3096C89.4932 12.1068 89.582 11.8424 89.582 11.5166V9.5H90.1426V13Z" fill="white" fill-opacity="0.786"/>
<path d="M39.2275 25H37.96V20.0854C37.96 19.8634 37.9653 19.6217 37.9761 19.3604C37.9904 19.0954 38.0083 18.8143 38.0298 18.5171H37.9976C37.9546 18.7212 37.9134 18.8966 37.874 19.0435C37.8382 19.1867 37.8024 19.3013 37.7666 19.3872L35.5054 25H34.6245L32.3525 19.4355C32.3239 19.3568 32.2881 19.2404 32.2451 19.0864C32.2057 18.9325 32.1628 18.7427 32.1162 18.5171H32.084C32.1055 18.7749 32.1198 19.0488 32.127 19.3389C32.1341 19.6253 32.1377 19.9279 32.1377 20.2466V25H30.9561V17.2979H32.7607L34.7642 22.3037C34.8429 22.4935 34.9074 22.6689 34.9575 22.8301C35.0112 22.9876 35.0524 23.1344 35.0811 23.2705H35.1133C35.1777 23.0664 35.2386 22.882 35.2959 22.7173C35.3532 22.5526 35.4069 22.4093 35.457 22.2876L37.4873 17.2979H39.2275V25ZM41.6177 18.4365C41.3885 18.4365 41.1987 18.3631 41.0483 18.2163C40.8979 18.0695 40.8228 17.8887 40.8228 17.6738C40.8228 17.4518 40.8979 17.2692 41.0483 17.126C41.1987 16.9827 41.3885 16.9111 41.6177 16.9111C41.8504 16.9111 42.042 16.9827 42.1924 17.126C42.3428 17.2692 42.418 17.4518 42.418 17.6738C42.418 17.8923 42.3428 18.0749 42.1924 18.2217C42.042 18.3649 41.8504 18.4365 41.6177 18.4365ZM42.2354 25H40.9839V19.5H42.2354V25ZM47.9824 24.6616C47.7103 24.8263 47.4399 24.9445 47.1714 25.0161C46.9028 25.0913 46.611 25.1289 46.2959 25.1289C45.4508 25.1289 44.7741 24.8818 44.2656 24.3877C43.7607 23.8936 43.5083 23.2222 43.5083 22.3735C43.5083 21.4604 43.7697 20.7318 44.2925 20.1875C44.8188 19.6432 45.5278 19.3711 46.4194 19.3711C46.731 19.3711 47.0138 19.4051 47.2681 19.4731C47.5259 19.5376 47.7873 19.645 48.0522 19.7954L47.5635 20.6655C47.3773 20.5617 47.1947 20.4865 47.0156 20.4399C46.8366 20.3898 46.6414 20.3647 46.4302 20.3647C45.9038 20.3647 45.4974 20.5384 45.2109 20.8857C44.9245 21.2331 44.7812 21.6932 44.7812 22.2661C44.7812 22.8677 44.9352 23.3296 45.2432 23.6519C45.5547 23.9741 45.945 24.1353 46.4141 24.1353C46.5573 24.1353 46.722 24.1102 46.9082 24.0601C47.0944 24.0063 47.2824 23.9222 47.4722 23.8076L47.9824 24.6616ZM52.1021 20.5474C52.034 20.5295 51.9678 20.5169 51.9033 20.5098C51.8424 20.499 51.7708 20.4937 51.6885 20.4937C51.2409 20.4937 50.8971 20.6584 50.6572 20.9878C50.4173 21.3172 50.2974 21.7469 50.2974 22.2769V25H49.0459V19.5H50.2974V20.5581H50.3188C50.4478 20.1785 50.6375 19.8921 50.8882 19.6987C51.1388 19.5018 51.4342 19.4033 51.7744 19.4033C51.8711 19.4033 51.957 19.4087 52.0322 19.4194C52.111 19.4302 52.1862 19.4463 52.2578 19.4678L52.1021 20.5474ZM55.5557 25.1289C54.6963 25.1289 54.0142 24.8729 53.5093 24.3608C53.008 23.8452 52.7573 23.1559 52.7573 22.293C52.7609 21.3799 53.0223 20.6655 53.5415 20.1499C54.0607 19.6307 54.7679 19.3711 55.6631 19.3711C56.526 19.3675 57.1992 19.6217 57.6826 20.1338C58.1696 20.6423 58.4131 21.3315 58.4131 22.2017C58.4131 23.0968 58.1553 23.8094 57.6396 24.3394C57.1276 24.8657 56.4329 25.1289 55.5557 25.1289ZM55.6147 24.1353C56.1125 24.1353 56.4902 23.9723 56.748 23.6465C57.0094 23.3206 57.1401 22.8498 57.1401 22.2339C57.1401 21.6252 57.0094 21.1615 56.748 20.8428C56.4867 20.5241 56.1071 20.3647 55.6094 20.3647C55.1188 20.3647 54.7321 20.533 54.4492 20.8696C54.1699 21.2062 54.0303 21.6717 54.0303 22.2661C54.0303 22.8641 54.1699 23.326 54.4492 23.6519C54.7285 23.9741 55.117 24.1353 55.6147 24.1353ZM59.1543 24.5596L59.6968 23.6787C59.9116 23.8291 60.139 23.9508 60.3789 24.0439C60.6224 24.1335 60.8856 24.1782 61.1685 24.1782C61.4764 24.1782 61.7145 24.1227 61.8828 24.0117C62.0547 23.8971 62.1406 23.7271 62.1406 23.5015C62.1406 23.3224 62.069 23.1738 61.9258 23.0557C61.7861 22.9339 61.5462 22.8337 61.2061 22.7549C60.5186 22.5938 60.0352 22.3807 59.7559 22.1157C59.4801 21.8507 59.3423 21.5016 59.3423 21.0684C59.3423 20.5706 59.5356 20.1642 59.9224 19.8491C60.3091 19.5304 60.8158 19.3711 61.4424 19.3711C61.7539 19.3711 62.0511 19.4123 62.334 19.4946C62.6169 19.5734 62.8926 19.7005 63.1611 19.876L62.6562 20.7354C62.4199 20.585 62.2033 20.4775 62.0063 20.4131C61.8094 20.3486 61.6071 20.3164 61.3994 20.3164C61.1058 20.3164 60.8766 20.3719 60.7119 20.4829C60.5508 20.5903 60.4702 20.7407 60.4702 20.9341C60.4702 21.1382 60.5526 21.2904 60.7173 21.3906C60.8856 21.4873 61.1667 21.5822 61.5605 21.6753C62.1549 21.8185 62.59 22.0262 62.8657 22.2983C63.1414 22.5669 63.2793 22.9268 63.2793 23.3779C63.2793 23.9115 63.0841 24.3376 62.6938 24.6562C62.3071 24.9714 61.7826 25.1289 61.1201 25.1289C60.762 25.1289 60.4183 25.0824 60.0889 24.9893C59.763 24.8926 59.4515 24.7493 59.1543 24.5596ZM66.8779 25.1289C66.0186 25.1289 65.3364 24.8729 64.8315 24.3608C64.3302 23.8452 64.0796 23.1559 64.0796 22.293C64.0832 21.3799 64.3446 20.6655 64.8638 20.1499C65.383 19.6307 66.0902 19.3711 66.9854 19.3711C67.8483 19.3675 68.5215 19.6217 69.0049 20.1338C69.4919 20.6423 69.7354 21.3315 69.7354 22.2017C69.7354 23.0968 69.4775 23.8094 68.9619 24.3394C68.4499 24.8657 67.7552 25.1289 66.8779 25.1289ZM66.937 24.1353C67.4347 24.1353 67.8125 23.9723 68.0703 23.6465C68.3317 23.3206 68.4624 22.8498 68.4624 22.2339C68.4624 21.6252 68.3317 21.1615 68.0703 20.8428C67.8089 20.5241 67.4294 20.3647 66.9316 20.3647C66.4411 20.3647 66.0544 20.533 65.7715 20.8696C65.4922 21.2062 65.3525 21.6717 65.3525 22.2661C65.3525 22.8641 65.4922 23.326 65.7715 23.6519C66.0508 23.9741 66.4393 24.1353 66.937 24.1353ZM73.9839 17.8403C73.8836 17.8009 73.7923 17.7741 73.71 17.7598C73.6276 17.7419 73.5381 17.7329 73.4414 17.7329C73.1764 17.7329 72.9759 17.8099 72.8398 17.9639C72.7074 18.1143 72.6411 18.3327 72.6411 18.6191V19.5H73.9141V20.4775H72.6411V25H71.395V20.4775H70.4604V19.5H71.395V18.5547C71.395 17.9961 71.5741 17.5539 71.9321 17.228C72.2938 16.8986 72.7718 16.7339 73.3662 16.7339C73.5524 16.7339 73.7135 16.7464 73.8496 16.7715C73.9857 16.7965 74.1271 16.8324 74.2739 16.8789L73.9839 17.8403ZM77.7974 24.9248C77.6362 24.9928 77.4679 25.043 77.2925 25.0752C77.117 25.1074 76.929 25.1235 76.7285 25.1235C76.2201 25.1235 75.828 24.9893 75.5522 24.7207C75.2801 24.4486 75.144 24.0439 75.144 23.5068V20.4775H74.2202V19.5H75.144V18.1626L76.3901 17.7866V19.5H77.7061V20.4775H76.3901V23.4048C76.3901 23.6733 76.4385 23.8667 76.5352 23.9849C76.6354 24.103 76.7894 24.1621 76.9971 24.1621C77.0973 24.1621 77.1922 24.1514 77.2817 24.1299C77.3748 24.1048 77.4572 24.0744 77.5288 24.0386L77.7974 24.9248ZM81.2939 24.4468L81.8633 23.4639C82.2106 23.6787 82.5347 23.8309 82.8354 23.9204C83.1362 24.0063 83.4728 24.0493 83.8452 24.0493C84.2892 24.0493 84.6383 23.9544 84.8926 23.7646C85.1504 23.5713 85.2793 23.2956 85.2793 22.9375C85.2793 22.6117 85.1719 22.3556 84.957 22.1694C84.7458 21.9797 84.3859 21.806 83.8774 21.6484C83.0933 21.4157 82.5168 21.1274 82.1479 20.7837C81.7791 20.4399 81.5947 19.9744 81.5947 19.3872C81.5947 18.7498 81.8328 18.2217 82.3091 17.8027C82.7853 17.3802 83.4316 17.1689 84.248 17.1689C84.6061 17.1689 84.9588 17.2083 85.3062 17.2871C85.6535 17.3659 85.9972 17.4876 86.3374 17.6523L85.8594 18.6729C85.5622 18.5189 85.2775 18.4097 85.0054 18.3452C84.7368 18.2808 84.4629 18.2485 84.1836 18.2485C83.7754 18.2485 83.4531 18.3381 83.2168 18.5171C82.984 18.6961 82.8677 18.9486 82.8677 19.2744C82.8677 19.5645 82.9751 19.7936 83.1899 19.9619C83.4048 20.1266 83.7736 20.2896 84.2964 20.4507C85.0985 20.6906 85.675 20.9896 86.0259 21.3477C86.3804 21.7057 86.5576 22.1981 86.5576 22.8247C86.5576 23.4979 86.3177 24.0511 85.8379 24.4844C85.3581 24.9141 84.6742 25.1289 83.7861 25.1289C83.3421 25.1289 82.9089 25.0734 82.4863 24.9624C82.0638 24.8478 81.6663 24.6759 81.2939 24.4468ZM90.4409 24.9248C90.2798 24.9928 90.1115 25.043 89.936 25.0752C89.7606 25.1074 89.5726 25.1235 89.3721 25.1235C88.8636 25.1235 88.4715 24.9893 88.1958 24.7207C87.9237 24.4486 87.7876 24.0439 87.7876 23.5068V20.4775H86.8638V19.5H87.7876V18.1626L89.0337 17.7866V19.5H90.3496V20.4775H89.0337V23.4048C89.0337 23.6733 89.082 23.8667 89.1787 23.9849C89.279 24.103 89.4329 24.1621 89.6406 24.1621C89.7409 24.1621 89.8358 24.1514 89.9253 24.1299C90.0184 24.1048 90.1007 24.0744 90.1724 24.0386L90.4409 24.9248ZM93.8623 25.1289C93.0029 25.1289 92.3208 24.8729 91.8159 24.3608C91.3146 23.8452 91.064 23.1559 91.064 22.293C91.0675 21.3799 91.3289 20.6655 91.8481 20.1499C92.3674 19.6307 93.0745 19.3711 93.9697 19.3711C94.8327 19.3675 95.5059 19.6217 95.9893 20.1338C96.4762 20.6423 96.7197 21.3315 96.7197 22.2017C96.7197 23.0968 96.4619 23.8094 95.9463 24.3394C95.4342 24.8657 94.7396 25.1289 93.8623 25.1289ZM93.9214 24.1353C94.4191 24.1353 94.7969 23.9723 95.0547 23.6465C95.3161 23.3206 95.4468 22.8498 95.4468 22.2339C95.4468 21.6252 95.3161 21.1615 95.0547 20.8428C94.7933 20.5241 94.4137 20.3647 93.916 20.3647C93.4255 20.3647 93.0387 20.533 92.7559 20.8696C92.4766 21.2062 92.3369 21.6717 92.3369 22.2661C92.3369 22.8641 92.4766 23.326 92.7559 23.6519C93.0352 23.9741 93.4237 24.1353 93.9214 24.1353ZM101.054 20.5474C100.986 20.5295 100.92 20.5169 100.855 20.5098C100.795 20.499 100.723 20.4937 100.641 20.4937C100.193 20.4937 99.8493 20.6584 99.6094 20.9878C99.3695 21.3172 99.2495 21.7469 99.2495 22.2769V25H97.998V19.5H99.2495V20.5581H99.271C99.3999 20.1785 99.5897 19.8921 99.8403 19.6987C100.091 19.5018 100.386 19.4033 100.727 19.4033C100.823 19.4033 100.909 19.4087 100.984 19.4194C101.063 19.4302 101.138 19.4463 101.21 19.4678L101.054 20.5474ZM106.721 22.5776H102.966C102.988 23.0968 103.138 23.4925 103.417 23.7646C103.697 24.0332 104.087 24.1675 104.588 24.1675C104.792 24.1675 105.025 24.1263 105.287 24.0439C105.548 23.9616 105.806 23.8291 106.06 23.6465L106.624 24.4253C106.284 24.6724 105.938 24.8514 105.587 24.9624C105.236 25.0734 104.85 25.1289 104.427 25.1289C103.571 25.1289 102.905 24.8836 102.429 24.3931C101.953 23.8989 101.713 23.2096 101.709 22.3252C101.709 21.4443 101.955 20.7318 102.445 20.1875C102.939 19.6432 103.571 19.3711 104.341 19.3711C105.079 19.3711 105.659 19.6038 106.082 20.0693C106.508 20.5312 106.721 21.1865 106.721 22.0352V22.5776ZM105.512 21.7129C105.512 21.2402 105.408 20.8857 105.201 20.6494C104.997 20.4095 104.707 20.2896 104.331 20.2896C103.976 20.2896 103.674 20.4185 103.423 20.6763C103.176 20.9305 103.024 21.276 102.966 21.7129H105.512Z" fill="white"/>
<defs>
<filter id="filter0_dd_976_1882" x="11.0938" y="7.25" width="11.8125" height="5.625" filterUnits="userSpaceOnUse" color-interpolation-filters="sRGB">
<feFlood flood-opacity="0" result="BackgroundImageFix"/>
<feColorMatrix in="SourceAlpha" type="matrix" values="0 0 0 0 0 0 0 0 0 0 0 0 0 0 0 0 0 0 127 0" result="hardAlpha"/>
<feOffset dy="0.1875"/>
<feGaussianBlur stdDeviation="0.1875"/>
<feColorMatrix type="matrix" values="0 0 0 0 0 0 0 0 0 0 0 0 0 0 0 0 0 0 0.1 0"/>
<feBlend mode="normal" in2="BackgroundImageFix" result="effect1_dropShadow_976_1882"/>
<feColorMatrix in="SourceAlpha" type="matrix" values="0 0 0 0 0 0 0 0 0 0 0 0 0 0 0 0 0 0 127 0" result="hardAlpha"/>
<feOffset dy="0.375"/>
<feGaussianBlur stdDeviation="0.5625"/>
<feColorMatrix type="matrix" values="0 0 0 0 0 0 0 0 0 0 0 0 0 0 0 0 0 0 0.2 0"/>
<feBlend mode="normal" in2="effect1_dropShadow_976_1882" result="effect2_dropShadow_976_1882"/>
<feBlend mode="normal" in="SourceGraphic" in2="effect2_dropShadow_976_1882" result="shape"/>
</filter>
<filter id="filter1_dd_976_1882" x="12.2188" y="13.4375" width="9.5625" height="9.5625" filterUnits="userSpaceOnUse" color-interpolation-filters="sRGB">
<feFlood flood-opacity="0" result="BackgroundImageFix"/>
<feColorMatrix in="SourceAlpha" type="matrix" values="0 0 0 0 0 0 0 0 0 0 0 0 0 0 0 0 0 0 127 0" result="hardAlpha"/>
<feOffset dy="0.1875"/>
<feGaussianBlur stdDeviation="0.1875"/>
<feColorMatrix type="matrix" values="0 0 0 0 1 0 0 0 0 1 0 0 0 0 1 0 0 0 0.6 0"/>
<feBlend mode="normal" in2="BackgroundImageFix" result="effect1_dropShadow_976_1882"/>
<feColorMatrix in="SourceAlpha" type="matrix" values="0 0 0 0 0 0 0 0 0 0 0 0 0 0 0 0 0 0 127 0" result="hardAlpha"/>
<feOffset dy="0.375"/>
<feGaussianBlur stdDeviation="0.5625"/>
<feColorMatrix type="matrix" values="0 0 0 0 1 0 0 0 0 1 0 0 0 0 1 0 0 0 0.6 0"/>
<feBlend mode="normal" in2="effect1_dropShadow_976_1882" result="effect2_dropShadow_976_1882"/>
<feBlend mode="normal" in="SourceGraphic" in2="effect2_dropShadow_976_1882" result="shape"/>
</filter>
<filter id="filter2_dd_976_1882" x="10.5939" y="6.6875" width="12.8124" height="5.06274" filterUnits="userSpaceOnUse" color-interpolation-filters="sRGB">
<feFlood flood-opacity="0" result="BackgroundImageFix"/>
<feColorMatrix in="SourceAlpha" type="matrix" values="0 0 0 0 0 0 0 0 0 0 0 0 0 0 0 0 0 0 127 0" result="hardAlpha"/>
<feOffset dy="-0.75"/>
<feGaussianBlur stdDeviation="0.1875"/>
<feColorMatrix type="matrix" values="0 0 0 0 0 0 0 0 0 0 0 0 0 0 0 0 0 0 0.1 0"/>
<feBlend mode="normal" in2="BackgroundImageFix" result="effect1_dropShadow_976_1882"/>
<feColorMatrix in="SourceAlpha" type="matrix" values="0 0 0 0 0 0 0 0 0 0 0 0 0 0 0 0 0 0 127 0" result="hardAlpha"/>
<feOffset dy="-0.75"/>
<feGaussianBlur stdDeviation="0.5625"/>
<feColorMatrix type="matrix" values="0 0 0 0 0 0 0 0 0 0 0 0 0 0 0 0 0 0 0.2 0"/>
<feBlend mode="normal" in2="effect1_dropShadow_976_1882" result="effect2_dropShadow_976_1882"/>
<feBlend mode="normal" in="SourceGraphic" in2="effect2_dropShadow_976_1882" result="shape"/>
</filter>
<linearGradient id="paint0_linear_976_1882" x1="12.2443" y1="8.00639" x2="15.9039" y2="24.8132" gradientUnits="userSpaceOnUse">
<stop offset="0.270833" stop-color="white"/>
<stop offset="1" stop-color="#DFDFDF"/>
</linearGradient>
<linearGradient id="paint1_linear_976_1882" x1="17" y1="10.25" x2="20.3514" y2="25.9624" gradientUnits="userSpaceOnUse">
<stop stop-color="#0078D4"/>
<stop offset="1" stop-color="#114A8B"/>
</linearGradient>
<linearGradient id="paint2_linear_976_1882" x1="17" y1="8.5625" x2="17.1583" y2="10.9858" gradientUnits="userSpaceOnUse">
<stop stop-color="#28AFEA"/>
<stop offset="1" stop-color="#0078D4"/>
</linearGradient>
<linearGradient id="paint3_linear_976_1882" x1="17" y1="8.5625" x2="17.1583" y2="10.9858" gradientUnits="userSpaceOnUse">
<stop stop-color="#30DAFF"/>
<stop offset="1" stop-color="#0094D4"/>
</linearGradient>
<linearGradient id="paint4_linear_976_1882" x1="16.5938" y1="8" x2="16.5937" y2="9.125" gradientUnits="userSpaceOnUse">
<stop stop-color="#22BCFF"/>
<stop offset="1" stop-color="#0088F0"/>
</linearGradient>
<linearGradient id="paint5_linear_976_1882" x1="16.5938" y1="8" x2="16.5937" y2="9.125" gradientUnits="userSpaceOnUse">
<stop stop-color="#28AFEA"/>
<stop offset="1" stop-color="#3CCBF4"/>
</linearGradient>
<clipPath id="clip0_976_1882">
<rect width="18" height="18" fill="white" transform="translate(8 8)"/>
</clipPath>
<clipPath id="clip1_976_1882">
<rect width="18" height="18" fill="white" transform="translate(8 8)"/>
</clipPath>
</defs>
</svg>
