<svg width="115" height="32" viewBox="0 0 115 32" fill="none" xmlns="http://www.w3.org/2000/svg">
<rect x="0.5" y="0.5" width="114" height="31" rx="3.5" fill="white"/>
<path d="M15.5559 7H7V15.5608H15.5559V7Z" fill="#F25022"/>
<path d="M25.0001 7H16.4442V15.5608H25.0001V7Z" fill="#7FBA00"/>
<path d="M15.5559 16.4395H7V25.0002H15.5559V16.4395Z" fill="#00A4EF"/>
<path d="M25.0002 16.4395H16.4443V25.0002H25.0002V16.4395Z" fill="#FFB900"/>
<path d="M33.3828 13H29.1758V12.7656L32.3867 8.03125H29.4336V7.39844H33.4531V7.60547L30.2227 12.3672H33.3828V13ZM34.3477 13V8.90234H35.043V13H34.3477ZM34.6992 8.17188H34.1641L35.0508 6.89062H35.7422L34.6992 8.17188ZM36.0312 12.6953L36.3555 12.1719C36.5273 12.2865 36.6979 12.3737 36.8672 12.4336C37.0365 12.4935 37.2227 12.5234 37.4258 12.5234C37.6992 12.5234 37.9076 12.474 38.0508 12.375C38.194 12.2734 38.2656 12.1224 38.2656 11.9219C38.2656 11.7552 38.2018 11.6172 38.0742 11.5078C37.9492 11.3958 37.7513 11.3047 37.4805 11.2344C36.9727 11.1068 36.6237 10.944 36.4336 10.7461C36.2435 10.5456 36.1484 10.2969 36.1484 10C36.1484 9.65625 36.2786 9.37109 36.5391 9.14453C36.8021 8.91797 37.1602 8.80469 37.6133 8.80469C37.832 8.80469 38.0391 8.83333 38.2344 8.89062C38.4323 8.94531 38.6315 9.03776 38.832 9.16797L38.5312 9.68359C38.349 9.56901 38.1849 9.48958 38.0391 9.44531C37.8932 9.39844 37.7448 9.375 37.5938 9.375C37.3359 9.375 37.138 9.42318 37 9.51953C36.862 9.61589 36.793 9.75521 36.793 9.9375C36.793 10.1146 36.8607 10.25 36.9961 10.3438C37.1315 10.4349 37.3568 10.5208 37.6719 10.6016C38.0911 10.7135 38.4036 10.8698 38.6094 11.0703C38.8177 11.2682 38.9219 11.5326 38.9219 11.8633C38.9219 12.2409 38.7852 12.5417 38.5117 12.7656C38.2409 12.987 37.8711 13.0977 37.4023 13.0977C37.1471 13.0977 36.9036 13.0638 36.6719 12.9961C36.4427 12.9258 36.2292 12.8255 36.0312 12.6953ZM43.3789 13H42.4258L40.6523 11.0234H40.6367V13H39.9414V7.07812H40.6367V10.7812H40.6523L42.3359 8.90234H43.2344L41.3711 10.875L43.3789 13ZM47.0469 13H46.3555V12.3555H46.3398C46.1992 12.6003 46.0247 12.7852 45.8164 12.9102C45.6081 13.0352 45.3659 13.0977 45.0898 13.0977C44.7044 13.0977 44.3932 12.9857 44.1562 12.7617C43.9193 12.5378 43.8008 12.2422 43.8008 11.875C43.8008 11.5182 43.9206 11.2253 44.1602 10.9961C44.3997 10.7669 44.7448 10.6198 45.1953 10.5547L46.3594 10.3984V10.3047C46.3594 9.97396 46.2799 9.73568 46.1211 9.58984C45.9648 9.44401 45.7539 9.37109 45.4883 9.37109C45.2773 9.37109 45.0716 9.41146 44.8711 9.49219C44.6706 9.57292 44.4805 9.69401 44.3008 9.85547L43.9219 9.43359C44.1536 9.22005 44.401 9.0625 44.6641 8.96094C44.9297 8.85677 45.2201 8.80469 45.5352 8.80469C46.0352 8.80469 46.4115 8.93359 46.6641 9.19141C46.9193 9.44922 47.0469 9.83594 47.0469 10.3516V13ZM46.3594 11.3281V10.9336L45.3828 11.0664C45.0833 11.1081 44.8594 11.1836 44.7109 11.293C44.5625 11.4023 44.4883 11.5742 44.4883 11.8086C44.4883 12.0404 44.5573 12.2201 44.6953 12.3477C44.8359 12.4753 45.0104 12.5391 45.2188 12.5391C45.5625 12.5391 45.8385 12.4258 46.0469 12.1992C46.2552 11.9701 46.3594 11.6797 46.3594 11.3281ZM50.3477 12.9492C50.2357 12.9961 50.1237 13.0299 50.0117 13.0508C49.9023 13.0742 49.7786 13.0859 49.6406 13.0859C49.3047 13.0859 49.0417 12.9896 48.8516 12.7969C48.6641 12.6042 48.5703 12.319 48.5703 11.9414V9.48047H47.8711V8.90234H48.5703V7.96484L49.2695 7.74219V8.90234H50.293V9.48047H49.2695V11.8672C49.2695 12.099 49.3112 12.2656 49.3945 12.3672C49.4779 12.4688 49.6029 12.5195 49.7695 12.5195C49.8477 12.5195 49.9232 12.5104 49.9961 12.4922C50.069 12.474 50.1315 12.4518 50.1836 12.4258L50.3477 12.9492ZM50.8789 7.30078L50.2266 8.34766H49.7227L50.168 7.30078H50.8789ZM55.875 13.0977C55.263 13.0977 54.7747 12.9062 54.4102 12.5234C54.0482 12.138 53.8672 11.6276 53.8672 10.9922C53.8672 10.3073 54.0547 9.77214 54.4297 9.38672C54.8047 9.0013 55.3164 8.80729 55.9648 8.80469C56.5794 8.80208 57.0599 8.99089 57.4062 9.37109C57.7552 9.7487 57.9297 10.2682 57.9297 10.9297C57.9297 11.5885 57.7435 12.1146 57.3711 12.5078C56.9987 12.901 56.5 13.0977 55.875 13.0977ZM55.9219 12.5195C56.3385 12.5195 56.6576 12.3841 56.8789 12.1133C57.1029 11.8398 57.2148 11.4531 57.2148 10.9531C57.2148 10.4479 57.1029 10.0599 56.8789 9.78906C56.6549 9.51823 56.3359 9.38281 55.9219 9.38281C55.5078 9.38281 55.1797 9.52474 54.9375 9.80859C54.6979 10.0898 54.5781 10.4779 54.5781 10.9727C54.5781 11.4544 54.6992 11.8333 54.9414 12.1094C55.1836 12.3828 55.5104 12.5195 55.9219 12.5195ZM61.8398 12.3125C61.6888 12.5729 61.4961 12.7695 61.2617 12.9023C61.0299 13.0326 60.7565 13.0977 60.4414 13.0977C59.9258 13.0977 59.513 12.9141 59.2031 12.5469C58.8958 12.1797 58.7422 11.6797 58.7422 11.0469C58.7422 10.3672 58.9128 9.82422 59.2539 9.41797C59.5951 9.00911 60.0495 8.80469 60.6172 8.80469C60.8984 8.80469 61.1406 8.85938 61.3438 8.96875C61.5469 9.07812 61.7122 9.24349 61.8398 9.46484H61.8555V7.07812H62.5508V13H61.8555V12.3125H61.8398ZM59.4531 11.0117C59.4531 11.4805 59.5612 11.849 59.7773 12.1172C59.9935 12.3854 60.2826 12.5195 60.6445 12.5195C61.0091 12.5195 61.3021 12.3893 61.5234 12.1289C61.7448 11.8685 61.8555 11.5391 61.8555 11.1406V10.5547C61.8555 10.2266 61.7474 9.94922 61.5312 9.72266C61.3177 9.49609 61.0469 9.38281 60.7188 9.38281C60.3255 9.38281 60.0156 9.52734 59.7891 9.81641C59.5651 10.1055 59.4531 10.5039 59.4531 11.0117ZM65.7344 12.6953L66.0586 12.1719C66.2305 12.2865 66.401 12.3737 66.5703 12.4336C66.7396 12.4935 66.9258 12.5234 67.1289 12.5234C67.4023 12.5234 67.6107 12.474 67.7539 12.375C67.8971 12.2734 67.9688 12.1224 67.9688 11.9219C67.9688 11.7552 67.9049 11.6172 67.7773 11.5078C67.6523 11.3958 67.4544 11.3047 67.1836 11.2344C66.6758 11.1068 66.3268 10.944 66.1367 10.7461C65.9466 10.5456 65.8516 10.2969 65.8516 10C65.8516 9.65625 65.9818 9.37109 66.2422 9.14453C66.5052 8.91797 66.8633 8.80469 67.3164 8.80469C67.5352 8.80469 67.7422 8.83333 67.9375 8.89062C68.1354 8.94531 68.3346 9.03776 68.5352 9.16797L68.2344 9.68359C68.0521 9.56901 67.888 9.48958 67.7422 9.44531C67.5964 9.39844 67.4479 9.375 67.2969 9.375C67.0391 9.375 66.8411 9.42318 66.7031 9.51953C66.5651 9.61589 66.4961 9.75521 66.4961 9.9375C66.4961 10.1146 66.5638 10.25 66.6992 10.3438C66.8346 10.4349 67.0599 10.5208 67.375 10.6016C67.7943 10.7135 68.1068 10.8698 68.3125 11.0703C68.5208 11.2682 68.625 11.5326 68.625 11.8633C68.625 12.2409 68.4883 12.5417 68.2148 12.7656C67.944 12.987 67.5742 13.0977 67.1055 13.0977C66.8503 13.0977 66.6068 13.0638 66.375 12.9961C66.1458 12.9258 65.9323 12.8255 65.7344 12.6953ZM70.3555 12.4102H70.3398V14.8398H69.6445V8.90234H70.3398V9.61719H70.3555C70.5169 9.34635 70.7161 9.14323 70.9531 9.00781C71.1901 8.8724 71.4622 8.80469 71.7695 8.80469C72.2982 8.80469 72.7096 8.98828 73.0039 9.35547C73.3008 9.72266 73.4492 10.2135 73.4492 10.8281C73.4492 11.5156 73.2812 12.0664 72.9453 12.4805C72.612 12.8919 72.1576 13.0977 71.582 13.0977C71.3164 13.0977 71.0807 13.0404 70.875 12.9258C70.6719 12.8112 70.4987 12.6393 70.3555 12.4102ZM70.3359 10.7617V11.3086C70.3359 11.6471 70.444 11.9336 70.6602 12.168C70.8763 12.4023 71.1523 12.5195 71.4883 12.5195C71.8763 12.5195 72.181 12.3698 72.4023 12.0703C72.6237 11.7708 72.7344 11.3542 72.7344 10.8203C72.7344 10.3698 72.6315 10.0182 72.4258 9.76562C72.2201 9.51042 71.9401 9.38281 71.5859 9.38281C71.2083 9.38281 70.9049 9.51432 70.6758 9.77734C70.4492 10.0378 70.3359 10.3659 70.3359 10.7617ZM76.2656 13.0977C75.6536 13.0977 75.1654 12.9062 74.8008 12.5234C74.4388 12.138 74.2578 11.6276 74.2578 10.9922C74.2578 10.3073 74.4453 9.77214 74.8203 9.38672C75.1953 9.0013 75.707 8.80729 76.3555 8.80469C76.9701 8.80208 77.4505 8.99089 77.7969 9.37109C78.1458 9.7487 78.3203 10.2682 78.3203 10.9297C78.3203 11.5885 78.1341 12.1146 77.7617 12.5078C77.3893 12.901 76.8906 13.0977 76.2656 13.0977ZM76.3125 12.5195C76.7292 12.5195 77.0482 12.3841 77.2695 12.1133C77.4935 11.8398 77.6055 11.4531 77.6055 10.9531C77.6055 10.4479 77.4935 10.0599 77.2695 9.78906C77.0456 9.51823 76.7266 9.38281 76.3125 9.38281C75.8984 9.38281 75.5703 9.52474 75.3281 9.80859C75.0885 10.0898 74.9688 10.4779 74.9688 10.9727C74.9688 11.4544 75.0898 11.8333 75.332 12.1094C75.5742 12.3828 75.901 12.5195 76.3125 12.5195ZM79.4023 13V7.07812H80.0977V13H79.4023ZM83.1875 13.0977C82.5755 13.0977 82.0872 12.9062 81.7227 12.5234C81.3607 12.138 81.1797 11.6276 81.1797 10.9922C81.1797 10.3073 81.3672 9.77214 81.7422 9.38672C82.1172 9.0013 82.6289 8.80729 83.2773 8.80469C83.8919 8.80208 84.3724 8.99089 84.7188 9.37109C85.0677 9.7487 85.2422 10.2682 85.2422 10.9297C85.2422 11.5885 85.056 12.1146 84.6836 12.5078C84.3112 12.901 83.8125 13.0977 83.1875 13.0977ZM83.2344 12.5195C83.651 12.5195 83.9701 12.3841 84.1914 12.1133C84.4154 11.8398 84.5273 11.4531 84.5273 10.9531C84.5273 10.4479 84.4154 10.0599 84.1914 9.78906C83.9674 9.51823 83.6484 9.38281 83.2344 9.38281C82.8203 9.38281 82.4922 9.52474 82.25 9.80859C82.0104 10.0898 81.8906 10.4779 81.8906 10.9727C81.8906 11.4544 82.0117 11.8333 82.2539 12.1094C82.4961 12.3828 82.8229 12.5195 83.2344 12.5195ZM89.2578 12.7422C89.0625 12.8672 88.8672 12.957 88.6719 13.0117C88.4766 13.069 88.2669 13.0977 88.043 13.0977C87.457 13.0977 86.9792 12.918 86.6094 12.5586C86.2396 12.1966 86.0547 11.6914 86.0547 11.043C86.0547 10.3711 86.2422 9.83073 86.6172 9.42188C86.9948 9.01042 87.5104 8.80469 88.1641 8.80469C88.375 8.80469 88.5755 8.83073 88.7656 8.88281C88.9557 8.93229 89.1471 9.01302 89.3398 9.125L89.0469 9.63281C88.8984 9.54427 88.7526 9.48177 88.6094 9.44531C88.4661 9.40625 88.3125 9.38672 88.1484 9.38672C87.7031 9.38672 87.3607 9.53516 87.1211 9.83203C86.8841 10.1263 86.7656 10.5052 86.7656 10.9688C86.7656 11.4688 86.8893 11.8516 87.1367 12.1172C87.3867 12.3828 87.7083 12.5156 88.1016 12.5156C88.2344 12.5156 88.3711 12.4961 88.5117 12.457C88.6549 12.4154 88.8021 12.3464 88.9531 12.25L89.2578 12.7422ZM88.3125 8.17188H87.7539L86.9062 6.88281H87.3867L88.0234 7.76562L88.6602 6.88281H89.1562L88.3125 8.17188ZM93.6445 13H92.9492V10.6641C92.9492 10.237 92.8711 9.91667 92.7148 9.70312C92.5586 9.48958 92.3255 9.38281 92.0156 9.38281C91.6927 9.38281 91.4258 9.50391 91.2148 9.74609C91.0065 9.98568 90.9023 10.2904 90.9023 10.6602V13H90.207V8.90234H90.9023V9.58203H90.918C91.0716 9.32161 91.2604 9.1276 91.4844 9C91.7083 8.86979 91.9674 8.80469 92.2617 8.80469C92.7096 8.80469 93.0521 8.94922 93.2891 9.23828C93.526 9.52734 93.6445 9.94531 93.6445 10.4922V13ZM96.6484 13.0977C96.0365 13.0977 95.5482 12.9062 95.1836 12.5234C94.8216 12.138 94.6406 11.6276 94.6406 10.9922C94.6406 10.3073 94.8281 9.77214 95.2031 9.38672C95.5781 9.0013 96.0898 8.80729 96.7383 8.80469C97.3529 8.80208 97.8333 8.99089 98.1797 9.37109C98.5286 9.7487 98.7031 10.2682 98.7031 10.9297C98.7031 11.5885 98.5169 12.1146 98.1445 12.5078C97.7721 12.901 97.2734 13.0977 96.6484 13.0977ZM96.6953 12.5195C97.112 12.5195 97.431 12.3841 97.6523 12.1133C97.8763 11.8398 97.9883 11.4531 97.9883 10.9531C97.9883 10.4479 97.8763 10.0599 97.6523 9.78906C97.4284 9.51823 97.1094 9.38281 96.6953 9.38281C96.2812 9.38281 95.9531 9.52474 95.7109 9.80859C95.4714 10.0898 95.3516 10.4779 95.3516 10.9727C95.3516 11.4544 95.4727 11.8333 95.7148 12.1094C95.957 12.3828 96.2839 12.5195 96.6953 12.5195ZM99.4219 12.6953L99.7461 12.1719C99.918 12.2865 100.089 12.3737 100.258 12.4336C100.427 12.4935 100.613 12.5234 100.816 12.5234C101.09 12.5234 101.298 12.474 101.441 12.375C101.585 12.2734 101.656 12.1224 101.656 11.9219C101.656 11.7552 101.592 11.6172 101.465 11.5078C101.34 11.3958 101.142 11.3047 100.871 11.2344C100.363 11.1068 100.014 10.944 99.8242 10.7461C99.6341 10.5456 99.5391 10.2969 99.5391 10C99.5391 9.65625 99.6693 9.37109 99.9297 9.14453C100.193 8.91797 100.551 8.80469 101.004 8.80469C101.223 8.80469 101.43 8.83333 101.625 8.89062C101.823 8.94531 102.022 9.03776 102.223 9.16797L101.922 9.68359C101.74 9.56901 101.576 9.48958 101.43 9.44531C101.284 9.39844 101.135 9.375 100.984 9.375C100.727 9.375 100.529 9.42318 100.391 9.51953C100.253 9.61589 100.184 9.75521 100.184 9.9375C100.184 10.1146 100.251 10.25 100.387 10.3438C100.522 10.4349 100.747 10.5208 101.062 10.6016C101.482 10.7135 101.794 10.8698 102 11.0703C102.208 11.2682 102.312 11.5326 102.312 11.8633C102.312 12.2409 102.176 12.5417 101.902 12.7656C101.632 12.987 101.262 13.0977 100.793 13.0977C100.538 13.0977 100.294 13.0638 100.062 12.9961C99.8333 12.9258 99.6198 12.8255 99.4219 12.6953ZM105.34 12.9492C105.228 12.9961 105.116 13.0299 105.004 13.0508C104.895 13.0742 104.771 13.0859 104.633 13.0859C104.297 13.0859 104.034 12.9896 103.844 12.7969C103.656 12.6042 103.562 12.319 103.562 11.9414V9.48047H102.863V8.90234H103.562V7.96484L104.262 7.74219V8.90234H105.285V9.48047H104.262V11.8672C104.262 12.099 104.303 12.2656 104.387 12.3672C104.47 12.4688 104.595 12.5195 104.762 12.5195C104.84 12.5195 104.915 12.5104 104.988 12.4922C105.061 12.474 105.124 12.4518 105.176 12.4258L105.34 12.9492ZM106.57 8.03516C106.432 8.03516 106.318 7.98958 106.227 7.89844C106.135 7.80729 106.09 7.69661 106.09 7.56641C106.09 7.43099 106.135 7.31901 106.227 7.23047C106.318 7.13932 106.432 7.09375 106.57 7.09375C106.708 7.09375 106.823 7.13932 106.914 7.23047C107.008 7.31901 107.055 7.43099 107.055 7.56641C107.055 7.69661 107.008 7.80729 106.914 7.89844C106.823 7.98958 106.708 8.03516 106.57 8.03516ZM106.91 13H106.215V8.90234H106.91V13Z" fill="black" fill-opacity="0.8956"/>
<path d="M41.1489 16.6123C41.1489 16.3559 41.2412 16.1507 41.4259 15.9764C41.6105 15.802 41.8258 15.72 42.0823 15.72C42.3489 15.72 42.5746 15.8123 42.7489 15.9866C42.9233 16.161 43.0156 16.3764 43.0156 16.6123C43.0156 16.8584 42.9233 17.0738 42.7387 17.2379C42.5541 17.4123 42.3387 17.4943 42.072 17.4943C41.8053 17.4943 41.59 17.4123 41.4053 17.2379C41.2412 17.0636 41.1489 16.8584 41.1489 16.6123ZM42.8412 25.002H41.313V18.4892H42.8412V25.002Z" fill="black" fill-opacity="0.8956"/>
<path d="M47.4975 23.8887C47.7231 23.8887 47.9795 23.8374 48.2565 23.7348C48.5334 23.6323 48.7795 23.4887 49.0154 23.3143V24.74C48.7693 24.8836 48.4924 24.9861 48.1847 25.0579C47.877 25.1297 47.5282 25.1707 47.159 25.1707C46.2052 25.1707 45.4257 24.863 44.8205 24.2579C44.2154 23.6528 43.918 22.8733 43.918 21.94C43.918 20.8938 44.2257 20.0323 44.8411 19.3553C45.4564 18.6784 46.318 18.34 47.4462 18.34C47.7334 18.34 48.0206 18.381 48.318 18.4528C48.6154 18.5246 48.8411 18.6169 49.0154 18.7092V20.1759C48.7795 20.0015 48.5334 19.8682 48.2872 19.7759C48.0411 19.6836 47.7847 19.6323 47.5282 19.6323C46.9231 19.6323 46.4411 19.8271 46.0616 20.2169C45.6923 20.6066 45.5077 21.14 45.5077 21.8066C45.5077 22.463 45.6821 22.9759 46.0411 23.3451C46.4 23.7143 46.8821 23.8887 47.4975 23.8887Z" fill="black" fill-opacity="0.8956"/>
<path d="M53.3738 18.39C53.4969 18.39 53.6097 18.4003 53.702 18.4105C53.7943 18.431 53.8866 18.4516 53.9482 18.4721V20.0208C53.8661 19.9592 53.7533 19.908 53.5995 19.8567C53.4456 19.8054 53.261 19.7746 53.0354 19.7746C52.6559 19.7746 52.3379 19.9285 52.0815 20.2464C51.8251 20.5644 51.6918 21.0464 51.6918 21.7131V25.0054H50.1636V18.4926H51.6918V19.5182H51.7123C51.8559 19.1592 52.061 18.8823 52.3482 18.6874C52.6354 18.4926 52.9738 18.39 53.3738 18.39Z" fill="black" fill-opacity="0.8956"/>
<path d="M54.0308 21.8477C54.0308 20.7707 54.3385 19.9195 54.9436 19.2836C55.5487 18.6579 56.4 18.34 57.4769 18.34C58.4923 18.34 59.2923 18.6477 59.8667 19.2528C60.441 19.8579 60.7282 20.6784 60.7282 21.7041C60.7282 22.7605 60.4205 23.6015 59.8154 24.2271C59.2102 24.8528 58.3795 25.1605 57.3333 25.1605C56.3282 25.1605 55.5179 24.863 54.9333 24.2682C54.3282 23.6836 54.0308 22.8733 54.0308 21.8477ZM55.6308 21.7964C55.6308 22.4733 55.7846 22.9964 56.0923 23.3553C56.4 23.7143 56.841 23.8887 57.4154 23.8887C57.9692 23.8887 58.4 23.7143 58.6872 23.3553C58.9743 22.9964 59.1282 22.463 59.1282 21.7554C59.1282 21.0579 58.9743 20.5246 58.6769 20.1656C58.3795 19.8066 57.9487 19.6323 57.4051 19.6323C56.841 19.6323 56.4102 19.8169 56.0923 20.1964C55.7846 20.5759 55.6308 21.0989 55.6308 21.7964Z" fill="black" fill-opacity="0.8956"/>
<path d="M63.0053 20.2069C63.0053 20.4223 63.0771 20.5966 63.2104 20.7197C63.354 20.8428 63.6617 20.9966 64.1335 21.1915C64.7489 21.4377 65.1796 21.7146 65.4258 22.0223C65.6719 22.33 65.795 22.6992 65.795 23.13C65.795 23.7454 65.5591 24.2377 65.0873 24.6069C64.6155 24.9761 63.9796 25.1607 63.1796 25.1607C62.913 25.1607 62.6155 25.13 62.2873 25.0582C61.9591 24.9966 61.6822 24.9043 61.4565 24.812V23.3043C61.7335 23.4992 62.0309 23.653 62.3591 23.7659C62.6771 23.8787 62.9745 23.9402 63.2309 23.9402C63.5796 23.9402 63.836 23.8889 64.0001 23.7966C64.1642 23.7043 64.2463 23.5402 64.2463 23.3043C64.2463 23.0889 64.1642 22.9146 63.9899 22.771C63.8155 22.6274 63.4976 22.453 63.0155 22.2684C62.4514 22.0325 62.0514 21.7659 61.8155 21.4684C61.5796 21.171 61.4565 20.7915 61.4565 20.3402C61.4565 19.7556 61.6924 19.2735 62.154 18.8941C62.6155 18.5146 63.2206 18.33 63.9694 18.33C64.195 18.33 64.4514 18.3505 64.7386 18.4018C65.0258 18.453 65.2617 18.5146 65.4463 18.5966V20.053C65.2412 19.9197 65.0053 19.8069 64.7386 19.7043C64.4719 19.612 64.195 19.5607 63.9386 19.5607C63.6514 19.5607 63.4155 19.6223 63.2617 19.7351C63.0873 19.8479 63.0053 20.012 63.0053 20.2069Z" fill="black" fill-opacity="0.8956"/>
<path d="M66.4717 21.8477C66.4717 20.7707 66.7794 19.9195 67.3845 19.2836C67.9896 18.6579 68.8409 18.34 69.9178 18.34C70.9332 18.34 71.7332 18.6477 72.3076 19.2528C72.8819 19.8579 73.1691 20.6784 73.1691 21.7041C73.1691 22.7605 72.8614 23.6015 72.2563 24.2271C71.6512 24.8528 70.8204 25.1605 69.7742 25.1605C68.7691 25.1605 67.9589 24.863 67.3742 24.2682C66.7691 23.6836 66.4717 22.8733 66.4717 21.8477ZM68.0614 21.7964C68.0614 22.4733 68.2153 22.9964 68.523 23.3554C68.8307 23.7143 69.2717 23.8887 69.846 23.8887C70.3999 23.8887 70.8307 23.7143 71.1178 23.3554C71.405 22.9964 71.5589 22.463 71.5589 21.7554C71.5589 21.0579 71.405 20.5246 71.1076 20.1656C70.8101 19.8066 70.3794 19.6323 69.8358 19.6323C69.2717 19.6323 68.8409 19.8169 68.523 20.1964C68.2153 20.5759 68.0614 21.0989 68.0614 21.7964Z" fill="black" fill-opacity="0.8956"/>
<path d="M78.2258 19.7523V23.0959C78.2258 23.7933 78.3899 24.3062 78.7079 24.6549C79.0258 25.0036 79.5181 25.1677 80.1643 25.1677C80.3797 25.1677 80.6053 25.1472 80.8309 25.0959C81.0566 25.0446 81.2207 25.0036 81.313 24.9421V23.6703C81.2207 23.7318 81.1079 23.7831 80.9848 23.8241C80.8617 23.8651 80.7489 23.8857 80.6668 23.8857C80.3591 23.8857 80.1232 23.8036 79.9797 23.6395C79.8361 23.4754 79.7643 23.1882 79.7643 22.7882V19.7421H81.3232V18.4908H79.7745V16.5626L78.2361 17.0344V18.501H75.9489V17.7113C75.9489 17.3215 76.0309 17.0241 76.2053 16.819C76.3796 16.6139 76.6258 16.5215 76.9438 16.5215C77.1079 16.5215 77.2514 16.5421 77.3848 16.5831C77.5079 16.6241 77.6002 16.6651 77.6514 16.6959V15.3728C77.5386 15.3318 77.4155 15.3113 77.272 15.2908C77.1284 15.2703 76.9643 15.26 76.7797 15.26C76.0822 15.26 75.5079 15.4754 75.0668 15.9164C74.6258 16.3574 74.4002 16.9113 74.4002 17.5985V18.501H73.313V19.7523H74.4002V25.0139H75.9489V19.7523H78.2258V19.7523Z" fill="black" fill-opacity="0.8956"/>
<path d="M39.8359 15.92V25.0072H38.2564V17.8893H38.2359L35.4154 25.0072H34.3692L31.4769 17.8893H31.4564V25.0072H30V15.92H32.2564L34.8718 22.6585H34.9128L37.6718 15.92H39.8359Z" fill="black" fill-opacity="0.8956"/>
<rect x="0.5" y="0.5" width="114" height="31" rx="3.5" stroke="url(#paint0_linear_1602_28258)"/>
<defs>
<linearGradient id="paint0_linear_1602_28258" x1="57.5" y1="1" x2="57.5" y2="31" gradientUnits="userSpaceOnUse">
<stop offset="0.905762" stop-opacity="0.0578"/>
<stop offset="1" stop-opacity="0.1622"/>
</linearGradient>
</defs>
</svg>
