<svg width="140" height="32" viewBox="0 0 140 32" fill="none" xmlns="http://www.w3.org/2000/svg">
<rect x="0.5" y="0.5" width="139" height="31" rx="3.5" fill="white"/>
<path d="M15.5559 7H7V15.5608H15.5559V7Z" fill="#F25022"/>
<path d="M25.0001 7H16.4442V15.5608H25.0001V7Z" fill="#7FBA00"/>
<path d="M15.5559 16.4395H7V25.0002H15.5559V16.4395Z" fill="#00A4EF"/>
<path d="M25.0002 16.4395H16.4443V25.0002H25.0002V16.4395Z" fill="#FFB900"/>
<path d="M30.4883 13H29.7734V7.39844H34.0469V13H33.3359V8.05469H30.4883V13ZM36.207 12.4102H36.1914V14.8398H35.4961V8.90234H36.1914V9.61719H36.207C36.3685 9.34635 36.5677 9.14323 36.8047 9.00781C37.0417 8.8724 37.3138 8.80469 37.6211 8.80469C38.1497 8.80469 38.5612 8.98828 38.8555 9.35547C39.1523 9.72266 39.3008 10.2135 39.3008 10.8281C39.3008 11.5156 39.1328 12.0664 38.7969 12.4805C38.4635 12.8919 38.0091 13.0977 37.4336 13.0977C37.168 13.0977 36.9323 13.0404 36.7266 12.9258C36.5234 12.8112 36.3503 12.6393 36.207 12.4102ZM36.1875 10.7617V11.3086C36.1875 11.6471 36.2956 11.9336 36.5117 12.168C36.7279 12.4023 37.0039 12.5195 37.3398 12.5195C37.7279 12.5195 38.0326 12.3698 38.2539 12.0703C38.4753 11.7708 38.5859 11.3542 38.5859 10.8203C38.5859 10.3698 38.4831 10.0182 38.2773 9.76562C38.0716 9.51042 37.7917 9.38281 37.4375 9.38281C37.0599 9.38281 36.7565 9.51432 36.5273 9.77734C36.3008 10.0378 36.1875 10.3659 36.1875 10.7617ZM43.7031 11.1094H40.8203C40.8333 11.5625 40.9544 11.9115 41.1836 12.1562C41.4128 12.3984 41.7344 12.5195 42.1484 12.5195C42.3281 12.5195 42.5117 12.4922 42.6992 12.4375C42.8893 12.3802 43.0794 12.2878 43.2695 12.1602L43.5859 12.6445C43.349 12.8008 43.1107 12.9154 42.8711 12.9883C42.6315 13.0612 42.3685 13.0977 42.082 13.0977C41.4622 13.0977 40.9792 12.9141 40.6328 12.5469C40.2865 12.1771 40.112 11.6615 40.1094 11C40.1068 10.3411 40.2812 9.8112 40.6328 9.41016C40.987 9.00651 41.4453 8.80469 42.0078 8.80469C42.5443 8.80469 42.9609 8.97917 43.2578 9.32812C43.5547 9.67448 43.7031 10.1576 43.7031 10.7773V11.1094ZM43.0039 10.5625C43.0013 10.1849 42.9102 9.89193 42.7305 9.68359C42.5534 9.47526 42.3086 9.37109 41.9961 9.37109C41.6888 9.37109 41.4284 9.47917 41.2148 9.69531C41.0039 9.90885 40.875 10.1979 40.8281 10.5625H43.0039ZM48.0508 8.90234L46.1406 13.7344C45.9896 14.1198 45.7969 14.4089 45.5625 14.6016C45.3281 14.7943 45.0508 14.8906 44.7305 14.8906C44.6445 14.8906 44.5638 14.8854 44.4883 14.875C44.4154 14.8646 44.3464 14.8503 44.2812 14.832L44.4141 14.25C44.4661 14.2682 44.5143 14.2812 44.5586 14.2891C44.6055 14.2969 44.6523 14.3008 44.6992 14.3008C44.8711 14.3008 45.0156 14.2552 45.1328 14.1641C45.25 14.0729 45.3451 13.944 45.418 13.7773L45.75 12.9922L44.1445 8.90234H44.9141L46 12.0078C46.0078 12.0339 46.0182 12.0755 46.0312 12.1328C46.0469 12.1875 46.0651 12.2565 46.0859 12.3398H46.1094C46.1172 12.3034 46.1276 12.2591 46.1406 12.207C46.1562 12.1523 46.1745 12.0885 46.1953 12.0156L47.3359 8.90234H48.0508ZM48.3516 12.6875L48.6641 12.1719C48.8203 12.2865 48.9857 12.375 49.1602 12.4375C49.3346 12.4974 49.526 12.5273 49.7344 12.5273C50.0547 12.5273 50.3021 12.4688 50.4766 12.3516C50.651 12.2318 50.7383 12.0638 50.7383 11.8477C50.7383 11.6393 50.6471 11.4792 50.4648 11.3672C50.2826 11.2552 50.0234 11.1992 49.6875 11.1992H49.1562V10.5859H49.5977C49.9258 10.5859 50.1784 10.5326 50.3555 10.4258C50.5326 10.319 50.6211 10.168 50.6211 9.97266C50.6211 9.78255 50.5456 9.63542 50.3945 9.53125C50.2435 9.42448 50.0273 9.37109 49.7461 9.37109C49.5534 9.37109 49.375 9.40104 49.2109 9.46094C49.0469 9.51823 48.8893 9.60026 48.7383 9.70703L48.4297 9.21875C48.6589 9.07031 48.8906 8.96354 49.125 8.89844C49.362 8.83333 49.6042 8.80078 49.8516 8.80078C50.3229 8.80078 50.6849 8.89714 50.9375 9.08984C51.1901 9.27995 51.3164 9.54948 51.3164 9.89844C51.3164 10.1536 51.2448 10.3646 51.1016 10.5312C50.9583 10.6953 50.7552 10.8034 50.4922 10.8555V10.8789C50.7917 10.9232 51.0234 11.0326 51.1875 11.207C51.3542 11.3789 51.4375 11.6003 51.4375 11.8711C51.4375 12.2643 51.2904 12.5677 50.9961 12.7812C50.7044 12.9922 50.2878 13.0977 49.7461 13.0977C49.4909 13.0977 49.2474 13.0651 49.0156 13C48.7839 12.9375 48.5625 12.8333 48.3516 12.6875ZM52.5508 13V8.90234H53.4414L54.5781 11.5859C54.6094 11.6615 54.6432 11.7487 54.6797 11.8477C54.7188 11.944 54.7526 12.0339 54.7812 12.1172H54.7891C54.8177 12.0339 54.8503 11.944 54.8867 11.8477C54.9232 11.7487 54.957 11.6615 54.9883 11.5859L56.125 8.90234H57.0312V13H56.3984V9.62891H56.3906C56.3385 9.76432 56.2839 9.90495 56.2266 10.0508C56.1719 10.194 56.1289 10.3021 56.0977 10.375L54.9844 13H54.5703L53.457 10.375C53.4284 10.3021 53.3854 10.194 53.3281 10.0508C53.2708 9.90495 53.2161 9.76432 53.1641 9.62891H53.1562V13H52.5508ZM58.3867 13V8.90234H59.0547V12.0977C59.0859 12.0352 59.1198 11.9714 59.1562 11.9062C59.1953 11.8411 59.2318 11.7826 59.2656 11.7305L61.1562 8.90234H61.8672V13H61.1992V9.80469C61.1654 9.86719 61.1289 9.93099 61.0898 9.99609C61.0534 10.0612 61.0195 10.1198 60.9883 10.1719L59.0977 13H58.3867ZM64.625 13H63.9297V9.48828H62.6875V8.90234H65.8672V9.48828H64.625V13ZM69.9453 11.1094H67.0625C67.0755 11.5625 67.1966 11.9115 67.4258 12.1562C67.6549 12.3984 67.9766 12.5195 68.3906 12.5195C68.5703 12.5195 68.7539 12.4922 68.9414 12.4375C69.1315 12.3802 69.3216 12.2878 69.5117 12.1602L69.8281 12.6445C69.5911 12.8008 69.3529 12.9154 69.1133 12.9883C68.8737 13.0612 68.6107 13.0977 68.3242 13.0977C67.7044 13.0977 67.2214 12.9141 66.875 12.5469C66.5286 12.1771 66.3542 11.6615 66.3516 11C66.349 10.3411 66.5234 9.8112 66.875 9.41016C67.2292 9.00651 67.6875 8.80469 68.25 8.80469C68.7865 8.80469 69.2031 8.97917 69.5 9.32812C69.7969 9.67448 69.9453 10.1576 69.9453 10.7773V11.1094ZM69.2461 10.5625C69.2435 10.1849 69.1523 9.89193 68.9727 9.68359C68.7956 9.47526 68.5508 9.37109 68.2383 9.37109C67.931 9.37109 67.6706 9.47917 67.457 9.69531C67.2461 9.90885 67.1172 10.1979 67.0703 10.5625H69.2461ZM74.9062 13.0977C74.2943 13.0977 73.806 12.9062 73.4414 12.5234C73.0794 12.138 72.8984 11.6276 72.8984 10.9922C72.8984 10.3073 73.0859 9.77214 73.4609 9.38672C73.8359 9.0013 74.3477 8.80729 74.9961 8.80469C75.6107 8.80208 76.0911 8.99089 76.4375 9.37109C76.7865 9.7487 76.9609 10.2682 76.9609 10.9297C76.9609 11.5885 76.7747 12.1146 76.4023 12.5078C76.0299 12.901 75.5312 13.0977 74.9062 13.0977ZM74.9531 12.5195C75.3698 12.5195 75.6888 12.3841 75.9102 12.1133C76.1341 11.8398 76.2461 11.4531 76.2461 10.9531C76.2461 10.4479 76.1341 10.0599 75.9102 9.78906C75.6862 9.51823 75.3672 9.38281 74.9531 9.38281C74.5391 9.38281 74.2109 9.52474 73.9688 9.80859C73.7292 10.0898 73.6094 10.4779 73.6094 10.9727C73.6094 11.4544 73.7305 11.8333 73.9727 12.1094C74.2148 12.3828 74.5417 12.5195 74.9531 12.5195ZM77.4297 14.0664V12.4258H77.8125C77.9766 12.1445 78.1029 11.7812 78.1914 11.3359C78.2799 10.8906 78.3242 10.3932 78.3242 9.84375V8.90234H81.0352V12.4258H81.6445V14.0664H81.0469V13H78.0273V14.0664H77.4297ZM80.3398 12.4258V9.47266H78.9648V9.88672C78.9648 10.4102 78.9271 10.8919 78.8516 11.332C78.776 11.7721 78.6667 12.1367 78.5234 12.4258H80.3398ZM85.4883 13H84.793V8.90234H85.4883V10.7812H85.5078L87.1875 8.90234H88.0898L86.2266 10.875L88.2344 13H87.2773L85.5078 11.0234H85.4883V13ZM90.625 13.0977C90.013 13.0977 89.5247 12.9062 89.1602 12.5234C88.7982 12.138 88.6172 11.6276 88.6172 10.9922C88.6172 10.3073 88.8047 9.77214 89.1797 9.38672C89.5547 9.0013 90.0664 8.80729 90.7148 8.80469C91.3294 8.80208 91.8099 8.99089 92.1562 9.37109C92.5052 9.7487 92.6797 10.2682 92.6797 10.9297C92.6797 11.5885 92.4935 12.1146 92.1211 12.5078C91.7487 12.901 91.25 13.0977 90.625 13.0977ZM90.6719 12.5195C91.0885 12.5195 91.4076 12.3841 91.6289 12.1133C91.8529 11.8398 91.9648 11.4531 91.9648 10.9531C91.9648 10.4479 91.8529 10.0599 91.6289 9.78906C91.4049 9.51823 91.0859 9.38281 90.6719 9.38281C90.2578 9.38281 89.9297 9.52474 89.6875 9.80859C89.4479 10.0898 89.3281 10.4779 89.3281 10.9727C89.3281 11.4544 89.4492 11.8333 89.6914 12.1094C89.9336 12.3828 90.2604 12.5195 90.6719 12.5195ZM94.4727 12.4102H94.457V14.8398H93.7617V8.90234H94.457V9.61719H94.4727C94.6341 9.34635 94.8333 9.14323 95.0703 9.00781C95.3073 8.8724 95.5794 8.80469 95.8867 8.80469C96.4154 8.80469 96.8268 8.98828 97.1211 9.35547C97.418 9.72266 97.5664 10.2135 97.5664 10.8281C97.5664 11.5156 97.3984 12.0664 97.0625 12.4805C96.7292 12.8919 96.2747 13.0977 95.6992 13.0977C95.4336 13.0977 95.1979 13.0404 94.9922 12.9258C94.7891 12.8112 94.6159 12.6393 94.4727 12.4102ZM94.4531 10.7617V11.3086C94.4531 11.6471 94.5612 11.9336 94.7773 12.168C94.9935 12.4023 95.2695 12.5195 95.6055 12.5195C95.9935 12.5195 96.2982 12.3698 96.5195 12.0703C96.7409 11.7708 96.8516 11.3542 96.8516 10.8203C96.8516 10.3698 96.7487 10.0182 96.543 9.76562C96.3372 9.51042 96.0573 9.38281 95.7031 9.38281C95.3255 9.38281 95.0221 9.51432 94.793 9.77734C94.5664 10.0378 94.4531 10.3659 94.4531 10.7617ZM101.387 13V9.48047H99.3398V13H98.6445V8.90234H102.082V13H101.387ZM105.172 13.0977C104.56 13.0977 104.072 12.9062 103.707 12.5234C103.345 12.138 103.164 11.6276 103.164 10.9922C103.164 10.3073 103.352 9.77214 103.727 9.38672C104.102 9.0013 104.613 8.80729 105.262 8.80469C105.876 8.80208 106.357 8.99089 106.703 9.37109C107.052 9.7487 107.227 10.2682 107.227 10.9297C107.227 11.5885 107.04 12.1146 106.668 12.5078C106.296 12.901 105.797 13.0977 105.172 13.0977ZM105.219 12.5195C105.635 12.5195 105.954 12.3841 106.176 12.1133C106.4 11.8398 106.512 11.4531 106.512 10.9531C106.512 10.4479 106.4 10.0599 106.176 9.78906C105.952 9.51823 105.633 9.38281 105.219 9.38281C104.805 9.38281 104.477 9.52474 104.234 9.80859C103.995 10.0898 103.875 10.4779 103.875 10.9727C103.875 11.4544 103.996 11.8333 104.238 12.1094C104.48 12.3828 104.807 12.5195 105.219 12.5195ZM109.02 12.4102H109.004V14.8398H108.309V8.90234H109.004V9.61719H109.02C109.181 9.34635 109.38 9.14323 109.617 9.00781C109.854 8.8724 110.126 8.80469 110.434 8.80469C110.962 8.80469 111.374 8.98828 111.668 9.35547C111.965 9.72266 112.113 10.2135 112.113 10.8281C112.113 11.5156 111.945 12.0664 111.609 12.4805C111.276 12.8919 110.822 13.0977 110.246 13.0977C109.98 13.0977 109.745 13.0404 109.539 12.9258C109.336 12.8112 109.163 12.6393 109.02 12.4102ZM109 10.7617V11.3086C109 11.6471 109.108 11.9336 109.324 12.168C109.54 12.4023 109.816 12.5195 110.152 12.5195C110.54 12.5195 110.845 12.3698 111.066 12.0703C111.288 11.7708 111.398 11.3542 111.398 10.8203C111.398 10.3698 111.296 10.0182 111.09 9.76562C110.884 9.51042 110.604 9.38281 110.25 9.38281C109.872 9.38281 109.569 9.51432 109.34 9.77734C109.113 10.0378 109 10.3659 109 10.7617ZM116.094 13H115.402V12.3555H115.387C115.246 12.6003 115.072 12.7852 114.863 12.9102C114.655 13.0352 114.413 13.0977 114.137 13.0977C113.751 13.0977 113.44 12.9857 113.203 12.7617C112.966 12.5378 112.848 12.2422 112.848 11.875C112.848 11.5182 112.967 11.2253 113.207 10.9961C113.447 10.7669 113.792 10.6198 114.242 10.5547L115.406 10.3984V10.3047C115.406 9.97396 115.327 9.73568 115.168 9.58984C115.012 9.44401 114.801 9.37109 114.535 9.37109C114.324 9.37109 114.118 9.41146 113.918 9.49219C113.717 9.57292 113.527 9.69401 113.348 9.85547L112.969 9.43359C113.201 9.22005 113.448 9.0625 113.711 8.96094C113.977 8.85677 114.267 8.80469 114.582 8.80469C115.082 8.80469 115.458 8.93359 115.711 9.19141C115.966 9.44922 116.094 9.83594 116.094 10.3516V13ZM115.406 11.3281V10.9336L114.43 11.0664C114.13 11.1081 113.906 11.1836 113.758 11.293C113.609 11.4023 113.535 11.5742 113.535 11.8086C113.535 12.0404 113.604 12.2201 113.742 12.3477C113.883 12.4753 114.057 12.5391 114.266 12.5391C114.609 12.5391 114.885 12.4258 115.094 12.1992C115.302 11.9701 115.406 11.6797 115.406 11.3281ZM120.836 14.0664V13H117.387V8.90234H118.082V12.4258H120.129V8.90234H120.824V12.4258H121.434V14.0664H120.836ZM122.387 13V8.90234H123.055V12.0977C123.086 12.0352 123.12 11.9714 123.156 11.9062C123.195 11.8411 123.232 11.7826 123.266 11.7305L125.156 8.90234H125.867V13H125.199V9.80469C125.165 9.86719 125.129 9.93099 125.09 9.99609C125.053 10.0612 125.02 10.1198 124.988 10.1719L123.098 13H122.387ZM127.582 8.03516C127.444 8.03516 127.328 7.98958 127.234 7.89844C127.143 7.80729 127.098 7.69661 127.098 7.56641C127.098 7.43359 127.143 7.32161 127.234 7.23047C127.328 7.13932 127.444 7.09375 127.582 7.09375C127.717 7.09375 127.831 7.13932 127.922 7.23047C128.016 7.32161 128.062 7.43359 128.062 7.56641C128.062 7.69661 128.016 7.80729 127.922 7.89844C127.831 7.98958 127.717 8.03516 127.582 8.03516ZM127.914 13.1328C127.914 13.7474 127.798 14.1927 127.566 14.4688C127.335 14.7448 126.984 14.8828 126.516 14.8828C126.409 14.8828 126.31 14.875 126.219 14.8594C126.125 14.8464 126.027 14.8242 125.926 14.793L126.074 14.2148C126.155 14.2435 126.229 14.2643 126.297 14.2773C126.365 14.2904 126.435 14.2969 126.508 14.2969C126.768 14.2969 126.952 14.2096 127.059 14.0352C127.165 13.8633 127.219 13.5768 127.219 13.1758V8.90234H127.914V13.1328ZM132.641 11.1094H129.758C129.771 11.5625 129.892 11.9115 130.121 12.1562C130.35 12.3984 130.672 12.5195 131.086 12.5195C131.266 12.5195 131.449 12.4922 131.637 12.4375C131.827 12.3802 132.017 12.2878 132.207 12.1602L132.523 12.6445C132.286 12.8008 132.048 12.9154 131.809 12.9883C131.569 13.0612 131.306 13.0977 131.02 13.0977C130.4 13.0977 129.917 12.9141 129.57 12.5469C129.224 12.1771 129.049 11.6615 129.047 11C129.044 10.3411 129.219 9.8112 129.57 9.41016C129.924 9.00651 130.383 8.80469 130.945 8.80469C131.482 8.80469 131.898 8.97917 132.195 9.32812C132.492 9.67448 132.641 10.1576 132.641 10.7773V11.1094ZM131.941 10.5625C131.939 10.1849 131.848 9.89193 131.668 9.68359C131.491 9.47526 131.246 9.37109 130.934 9.37109C130.626 9.37109 130.366 9.47917 130.152 9.69531C129.941 9.90885 129.812 10.1979 129.766 10.5625H131.941Z" fill="black" fill-opacity="0.8956"/>
<path d="M41.1489 16.6123C41.1489 16.3559 41.2412 16.1507 41.4259 15.9764C41.6105 15.802 41.8258 15.72 42.0823 15.72C42.3489 15.72 42.5746 15.8123 42.7489 15.9866C42.9233 16.161 43.0156 16.3764 43.0156 16.6123C43.0156 16.8584 42.9233 17.0738 42.7387 17.2379C42.5541 17.4123 42.3387 17.4943 42.072 17.4943C41.8053 17.4943 41.59 17.4123 41.4053 17.2379C41.2412 17.0636 41.1489 16.8584 41.1489 16.6123ZM42.8412 25.002H41.313V18.4892H42.8412V25.002Z" fill="black" fill-opacity="0.8956"/>
<path d="M47.4975 23.8887C47.7231 23.8887 47.9795 23.8374 48.2565 23.7348C48.5334 23.6323 48.7795 23.4887 49.0154 23.3143V24.74C48.7693 24.8836 48.4924 24.9861 48.1847 25.0579C47.877 25.1297 47.5282 25.1707 47.159 25.1707C46.2052 25.1707 45.4257 24.863 44.8205 24.2579C44.2154 23.6528 43.918 22.8733 43.918 21.94C43.918 20.8938 44.2257 20.0323 44.8411 19.3553C45.4564 18.6784 46.318 18.34 47.4462 18.34C47.7334 18.34 48.0206 18.381 48.318 18.4528C48.6154 18.5246 48.8411 18.6169 49.0154 18.7092V20.1759C48.7795 20.0015 48.5334 19.8682 48.2872 19.7759C48.0411 19.6836 47.7847 19.6323 47.5282 19.6323C46.9231 19.6323 46.4411 19.8271 46.0616 20.2169C45.6923 20.6066 45.5077 21.14 45.5077 21.8066C45.5077 22.463 45.6821 22.9759 46.0411 23.3451C46.4 23.7143 46.8821 23.8887 47.4975 23.8887Z" fill="black" fill-opacity="0.8956"/>
<path d="M53.3738 18.39C53.4969 18.39 53.6097 18.4003 53.702 18.4105C53.7943 18.431 53.8866 18.4516 53.9482 18.4721V20.0208C53.8661 19.9592 53.7533 19.908 53.5995 19.8567C53.4456 19.8054 53.261 19.7746 53.0354 19.7746C52.6559 19.7746 52.3379 19.9285 52.0815 20.2464C51.8251 20.5644 51.6918 21.0464 51.6918 21.7131V25.0054H50.1636V18.4926H51.6918V19.5182H51.7123C51.8559 19.1592 52.061 18.8823 52.3482 18.6874C52.6354 18.4926 52.9738 18.39 53.3738 18.39Z" fill="black" fill-opacity="0.8956"/>
<path d="M54.0308 21.8477C54.0308 20.7707 54.3385 19.9195 54.9436 19.2836C55.5487 18.6579 56.4 18.34 57.4769 18.34C58.4923 18.34 59.2923 18.6477 59.8667 19.2528C60.441 19.8579 60.7282 20.6784 60.7282 21.7041C60.7282 22.7605 60.4205 23.6015 59.8154 24.2271C59.2102 24.8528 58.3795 25.1605 57.3333 25.1605C56.3282 25.1605 55.5179 24.863 54.9333 24.2682C54.3282 23.6836 54.0308 22.8733 54.0308 21.8477ZM55.6308 21.7964C55.6308 22.4733 55.7846 22.9964 56.0923 23.3553C56.4 23.7143 56.841 23.8887 57.4154 23.8887C57.9692 23.8887 58.4 23.7143 58.6872 23.3553C58.9743 22.9964 59.1282 22.463 59.1282 21.7554C59.1282 21.0579 58.9743 20.5246 58.6769 20.1656C58.3795 19.8066 57.9487 19.6323 57.4051 19.6323C56.841 19.6323 56.4102 19.8169 56.0923 20.1964C55.7846 20.5759 55.6308 21.0989 55.6308 21.7964Z" fill="black" fill-opacity="0.8956"/>
<path d="M63.0053 20.2069C63.0053 20.4223 63.0771 20.5966 63.2104 20.7197C63.354 20.8428 63.6617 20.9966 64.1335 21.1915C64.7489 21.4377 65.1796 21.7146 65.4258 22.0223C65.6719 22.33 65.795 22.6992 65.795 23.13C65.795 23.7454 65.5591 24.2377 65.0873 24.6069C64.6155 24.9761 63.9796 25.1607 63.1796 25.1607C62.913 25.1607 62.6155 25.13 62.2873 25.0582C61.9591 24.9966 61.6822 24.9043 61.4565 24.812V23.3043C61.7335 23.4992 62.0309 23.653 62.3591 23.7659C62.6771 23.8787 62.9745 23.9402 63.2309 23.9402C63.5796 23.9402 63.836 23.8889 64.0001 23.7966C64.1642 23.7043 64.2463 23.5402 64.2463 23.3043C64.2463 23.0889 64.1642 22.9146 63.9899 22.771C63.8155 22.6274 63.4976 22.453 63.0155 22.2684C62.4514 22.0325 62.0514 21.7659 61.8155 21.4684C61.5796 21.171 61.4565 20.7915 61.4565 20.3402C61.4565 19.7556 61.6924 19.2735 62.154 18.8941C62.6155 18.5146 63.2206 18.33 63.9694 18.33C64.195 18.33 64.4514 18.3505 64.7386 18.4018C65.0258 18.453 65.2617 18.5146 65.4463 18.5966V20.053C65.2412 19.9197 65.0053 19.8069 64.7386 19.7043C64.4719 19.612 64.195 19.5607 63.9386 19.5607C63.6514 19.5607 63.4155 19.6223 63.2617 19.7351C63.0873 19.8479 63.0053 20.012 63.0053 20.2069Z" fill="black" fill-opacity="0.8956"/>
<path d="M66.4717 21.8477C66.4717 20.7707 66.7794 19.9195 67.3845 19.2836C67.9896 18.6579 68.8409 18.34 69.9178 18.34C70.9332 18.34 71.7332 18.6477 72.3076 19.2528C72.8819 19.8579 73.1691 20.6784 73.1691 21.7041C73.1691 22.7605 72.8614 23.6015 72.2563 24.2271C71.6512 24.8528 70.8204 25.1605 69.7742 25.1605C68.7691 25.1605 67.9589 24.863 67.3742 24.2682C66.7691 23.6836 66.4717 22.8733 66.4717 21.8477ZM68.0614 21.7964C68.0614 22.4733 68.2153 22.9964 68.523 23.3554C68.8307 23.7143 69.2717 23.8887 69.846 23.8887C70.3999 23.8887 70.8307 23.7143 71.1178 23.3554C71.405 22.9964 71.5589 22.463 71.5589 21.7554C71.5589 21.0579 71.405 20.5246 71.1076 20.1656C70.8101 19.8066 70.3794 19.6323 69.8358 19.6323C69.2717 19.6323 68.8409 19.8169 68.523 20.1964C68.2153 20.5759 68.0614 21.0989 68.0614 21.7964Z" fill="black" fill-opacity="0.8956"/>
<path d="M78.2258 19.7523V23.0959C78.2258 23.7933 78.3899 24.3062 78.7079 24.6549C79.0258 25.0036 79.5181 25.1677 80.1643 25.1677C80.3797 25.1677 80.6053 25.1472 80.8309 25.0959C81.0566 25.0446 81.2207 25.0036 81.313 24.9421V23.6703C81.2207 23.7318 81.1079 23.7831 80.9848 23.8241C80.8617 23.8651 80.7489 23.8857 80.6668 23.8857C80.3591 23.8857 80.1232 23.8036 79.9797 23.6395C79.8361 23.4754 79.7643 23.1882 79.7643 22.7882V19.7421H81.3232V18.4908H79.7745V16.5626L78.2361 17.0344V18.501H75.9489V17.7113C75.9489 17.3215 76.0309 17.0241 76.2053 16.819C76.3796 16.6139 76.6258 16.5215 76.9438 16.5215C77.1079 16.5215 77.2514 16.5421 77.3848 16.5831C77.5079 16.6241 77.6002 16.6651 77.6514 16.6959V15.3728C77.5386 15.3318 77.4155 15.3113 77.272 15.2908C77.1284 15.2703 76.9643 15.26 76.7797 15.26C76.0822 15.26 75.5079 15.4754 75.0668 15.9164C74.6258 16.3574 74.4002 16.9113 74.4002 17.5985V18.501H73.313V19.7523H74.4002V25.0139H75.9489V19.7523H78.2258V19.7523Z" fill="black" fill-opacity="0.8956"/>
<path d="M39.8359 15.92V25.0072H38.2564V17.8893H38.2359L35.4154 25.0072H34.3692L31.4769 17.8893H31.4564V25.0072H30V15.92H32.2564L34.8718 22.6585H34.9128L37.6718 15.92H39.8359Z" fill="black" fill-opacity="0.8956"/>
<rect x="0.5" y="0.5" width="139" height="31" rx="3.5" stroke="url(#paint0_linear_1602_28011)"/>
<defs>
<linearGradient id="paint0_linear_1602_28011" x1="70" y1="1" x2="70" y2="31" gradientUnits="userSpaceOnUse">
<stop offset="0.905762" stop-opacity="0.0578"/>
<stop offset="1" stop-opacity="0.1622"/>
</linearGradient>
</defs>
</svg>
