<svg width="116" height="34" viewBox="0 0 116 34" fill="none" xmlns="http://www.w3.org/2000/svg">
<rect x="1" y="1" width="114" height="32" rx="4" fill="#FDFDFD"/>
<rect x="0.5" y="0.5" width="115" height="33" rx="4.5" stroke="black" stroke-opacity="0.0578"/>
<g clip-path="url(#clip0_976_1887)">
<g clip-path="url(#clip1_976_1887)">
<path d="M8.28125 11C8.28125 10.5858 8.61704 10.25 9.03125 10.25H24.9687C25.383 10.25 25.7188 10.5858 25.7188 11V22.3438C25.7188 24.0524 24.3336 25.4375 22.625 25.4375H11.375C9.66637 25.4375 8.28125 24.0524 8.28125 22.3438V11Z" fill="url(#paint0_linear_976_1887)"/>
<mask id="mask0_976_1887" style="mask-type:alpha" maskUnits="userSpaceOnUse" x="8" y="10" width="18" height="16">
<path d="M8.28125 11C8.28125 10.5858 8.61704 10.25 9.03125 10.25H24.9687C25.383 10.25 25.7188 10.5858 25.7188 11V22.3438C25.7188 24.0524 24.3336 25.4375 22.625 25.4375H11.375C9.66637 25.4375 8.28125 24.0524 8.28125 22.3438V11Z" fill="url(#paint1_linear_976_1887)"/>
</mask>
<g mask="url(#mask0_976_1887)">
<g filter="url(#filter0_dd_976_1887)">
<path d="M12.7812 10.8125V8.5625H21.2187V10.8125" stroke="url(#paint2_linear_976_1887)" stroke-width="1.125" stroke-linecap="round"/>
</g>
</g>
<g filter="url(#filter1_dd_976_1887)">
<path d="M16.719 14.1875H13.344V17.5625H16.719V14.1875Z" fill="#F25022"/>
<path d="M20.6562 14.1875H17.2812V17.5625H20.6562V14.1875Z" fill="#7FBA00"/>
<path d="M20.6562 18.125H17.2812V21.5H20.6562V18.125Z" fill="#FFB900"/>
<path d="M16.7188 18.125H13.3438V21.5H16.7188V18.125Z" fill="#00A4EF"/>
</g>
<path d="M12.7812 10.8125V9.125C12.7812 8.81434 13.0331 8.5625 13.3438 8.5625H20.6563C20.9669 8.5625 21.2188 8.81434 21.2188 9.125V10.8125" stroke="url(#paint3_linear_976_1887)" stroke-width="1.125" stroke-linecap="round"/>
<rect x="13.3438" y="8" width="7.3125" height="1.125" fill="url(#paint4_linear_976_1887)"/>
<mask id="mask1_976_1887" style="mask-type:alpha" maskUnits="userSpaceOnUse" x="13" y="8" width="8" height="2">
<rect x="13.3438" y="8" width="7.3125" height="1.125" fill="url(#paint5_linear_976_1887)"/>
</mask>
<g mask="url(#mask1_976_1887)">
<g filter="url(#filter2_dd_976_1887)">
<rect x="11.7189" y="8.56274" width="1.625" height="2.8125" fill="#C4C4C4"/>
</g>
</g>
</g>
</g>
<path d="M33.1855 13H30.6426V8.09863H31.2168V12.4805H33.1855V13ZM36.3403 13H35.7798V12.4531H35.7661C35.6453 12.6628 35.4961 12.82 35.3184 12.9248C35.1429 13.0296 34.9378 13.082 34.7031 13.082C34.375 13.082 34.1095 12.9863 33.9067 12.7949C33.7039 12.6035 33.6025 12.3494 33.6025 12.0327C33.6025 11.7342 33.7051 11.487 33.9102 11.291C34.1152 11.0951 34.4058 10.9697 34.7817 10.915L35.7798 10.7817V10.7031C35.7798 10.4092 35.7114 10.2007 35.5747 10.0776C35.438 9.95231 35.2557 9.88965 35.0278 9.88965C34.8455 9.88965 34.6701 9.92383 34.5015 9.99219C34.3328 10.0605 34.1745 10.1654 34.0264 10.3066L33.6982 9.96826C33.8942 9.77913 34.1027 9.64014 34.3237 9.55127C34.5448 9.4624 34.7909 9.41797 35.062 9.41797C35.4858 9.41797 35.8049 9.52734 36.019 9.74609C36.2332 9.96257 36.3403 10.2884 36.3403 10.7236V13ZM35.7798 11.5781V11.2295L34.9355 11.3457C34.6781 11.3822 34.4844 11.4471 34.3545 11.5405C34.2246 11.634 34.1597 11.7809 34.1597 11.9814C34.1597 12.1911 34.2201 12.3517 34.3408 12.4634C34.4639 12.5728 34.6131 12.6274 34.7886 12.6274C35.0916 12.6274 35.332 12.5283 35.5098 12.3301C35.6898 12.1318 35.7798 11.8812 35.7798 11.5781ZM39.8369 12.4053C39.707 12.6309 39.5418 12.8006 39.3413 12.9146C39.1431 13.0262 38.9072 13.082 38.6338 13.082C38.194 13.082 37.842 12.9259 37.5776 12.6138C37.3156 12.2993 37.1846 11.8721 37.1846 11.332C37.1846 10.7533 37.3304 10.2896 37.6221 9.94092C37.9137 9.59229 38.3022 9.41797 38.7876 9.41797C39.0291 9.41797 39.2365 9.46582 39.4097 9.56152C39.5851 9.65495 39.7275 9.79622 39.8369 9.98535H39.8506V7.81836H40.4111V13H39.8506V12.4053H39.8369ZM37.7588 11.3047C37.7588 11.708 37.8522 12.027 38.0391 12.2617C38.2282 12.4941 38.4811 12.6104 38.7979 12.6104C39.1123 12.6104 39.3664 12.4976 39.5601 12.272C39.7537 12.0464 39.8506 11.7616 39.8506 11.4175V10.9014C39.8506 10.6188 39.756 10.3796 39.5669 10.1836C39.38 9.98763 39.1442 9.88965 38.8594 9.88965C38.5176 9.88965 38.2487 10.015 38.0527 10.2656C37.8568 10.5163 37.7588 10.8626 37.7588 11.3047ZM43.959 12.4053C43.8291 12.6309 43.6639 12.8006 43.4634 12.9146C43.2651 13.0262 43.0293 13.082 42.7559 13.082C42.3161 13.082 41.964 12.9259 41.6997 12.6138C41.4377 12.2993 41.3066 11.8721 41.3066 11.332C41.3066 10.7533 41.4525 10.2896 41.7441 9.94092C42.0358 9.59229 42.4243 9.41797 42.9097 9.41797C43.1512 9.41797 43.3586 9.46582 43.5317 9.56152C43.7072 9.65495 43.8496 9.79622 43.959 9.98535H43.9727V7.81836H44.5332V13H43.9727V12.4053H43.959ZM41.8809 11.3047C41.8809 11.708 41.9743 12.027 42.1611 12.2617C42.3503 12.4941 42.6032 12.6104 42.9199 12.6104C43.2344 12.6104 43.4884 12.4976 43.6821 12.272C43.8758 12.0464 43.9727 11.7616 43.9727 11.4175V10.9014C43.9727 10.6188 43.8781 10.3796 43.689 10.1836C43.5021 9.98763 43.2663 9.88965 42.9814 9.88965C42.6396 9.88965 42.3708 10.015 42.1748 10.2656C41.9788 10.5163 41.8809 10.8626 41.8809 11.3047ZM48.146 13H47.5854V12.4531H47.5718C47.451 12.6628 47.3018 12.82 47.124 12.9248C46.9486 13.0296 46.7435 13.082 46.5088 13.082C46.1807 13.082 45.9152 12.9863 45.7124 12.7949C45.5096 12.6035 45.4082 12.3494 45.4082 12.0327C45.4082 11.7342 45.5107 11.487 45.7158 11.291C45.9209 11.0951 46.2114 10.9697 46.5874 10.915L47.5854 10.7817V10.7031C47.5854 10.4092 47.5171 10.2007 47.3804 10.0776C47.2437 9.95231 47.0614 9.88965 46.8335 9.88965C46.6512 9.88965 46.4757 9.92383 46.3071 9.99219C46.1385 10.0605 45.9801 10.1654 45.832 10.3066L45.5039 9.96826C45.6999 9.77913 45.9084 9.64014 46.1294 9.55127C46.3504 9.4624 46.5965 9.41797 46.8677 9.41797C47.2915 9.41797 47.6105 9.52734 47.8247 9.74609C48.0389 9.96257 48.146 10.2884 48.146 10.7236V13ZM47.5854 11.5781V11.2295L46.7412 11.3457C46.4837 11.3822 46.29 11.4471 46.1602 11.5405C46.0303 11.634 45.9653 11.7809 45.9653 11.9814C45.9653 12.1911 46.0257 12.3517 46.1465 12.4634C46.2695 12.5728 46.4188 12.6274 46.5942 12.6274C46.8973 12.6274 47.1377 12.5283 47.3154 12.3301C47.4954 12.1318 47.5854 11.8812 47.5854 11.5781ZM54.0557 13H53.4951V11.0039C53.4951 10.6325 53.4268 10.3545 53.29 10.1699C53.1556 9.98307 52.9528 9.88965 52.6816 9.88965C52.4014 9.88965 52.1689 9.99561 51.9844 10.2075C51.8021 10.4172 51.7109 10.6826 51.7109 11.0039V13H51.1504V9.5H51.7109V10.0811H51.7246C51.8568 9.86003 52.0186 9.69482 52.21 9.58545C52.4014 9.4738 52.6224 9.41797 52.873 9.41797C53.2559 9.41797 53.5487 9.54215 53.7515 9.79053C53.9543 10.0366 54.0557 10.3932 54.0557 10.8604V13ZM57.9282 11.3765H55.4536C55.4627 11.7707 55.5664 12.0749 55.7646 12.2891C55.9652 12.501 56.2454 12.6069 56.6055 12.6069C56.7627 12.6069 56.9199 12.5841 57.0771 12.5386C57.2367 12.4907 57.3939 12.4155 57.5488 12.313L57.8086 12.7129C57.6104 12.8405 57.4121 12.9339 57.2139 12.9932C57.0156 13.0524 56.798 13.082 56.561 13.082C56.0324 13.082 55.62 12.9248 55.3237 12.6104C55.0275 12.2959 54.8783 11.8573 54.876 11.2944C54.8737 10.7316 55.0218 10.2782 55.3203 9.93408C55.6211 9.59001 56.0107 9.41797 56.4893 9.41797C56.945 9.41797 57.2982 9.56722 57.5488 9.86572C57.8018 10.1619 57.9282 10.5732 57.9282 11.0996V11.3765ZM57.354 10.9185C57.3517 10.5949 57.2731 10.3431 57.1182 10.1631C56.9632 9.98079 56.7502 9.88965 56.479 9.88965C56.2124 9.88965 55.9857 9.98307 55.7988 10.1699C55.6143 10.3545 55.5015 10.604 55.4604 10.9185H57.354ZM61.1924 12.4053C61.0625 12.6309 60.8973 12.8006 60.6968 12.9146C60.4985 13.0262 60.2627 13.082 59.9893 13.082C59.5495 13.082 59.1974 12.9259 58.9331 12.6138C58.6711 12.2993 58.54 11.8721 58.54 11.332C58.54 10.7533 58.6859 10.2896 58.9775 9.94092C59.2692 9.59229 59.6577 9.41797 60.1431 9.41797C60.3846 9.41797 60.592 9.46582 60.7651 9.56152C60.9406 9.65495 61.083 9.79622 61.1924 9.98535H61.2061V7.81836H61.7666V13H61.2061V12.4053H61.1924ZM59.1143 11.3047C59.1143 11.708 59.2077 12.027 59.3945 12.2617C59.5837 12.4941 59.8366 12.6104 60.1533 12.6104C60.4678 12.6104 60.7218 12.4976 60.9155 12.272C61.1092 12.0464 61.2061 11.7616 61.2061 11.4175V10.9014C61.2061 10.6188 61.1115 10.3796 60.9224 10.1836C60.7355 9.98763 60.4997 9.88965 60.2148 9.88965C59.873 9.88965 59.6042 10.015 59.4082 10.2656C59.2122 10.5163 59.1143 10.8626 59.1143 11.3047ZM66.4937 8.27637C66.4299 8.25586 66.3717 8.24105 66.3193 8.23193C66.2692 8.22282 66.2157 8.21826 66.1587 8.21826C65.9673 8.21826 65.8249 8.26953 65.7314 8.37207C65.638 8.47461 65.5913 8.625 65.5913 8.82324V9.5H66.4116V9.97852H65.5913V13H65.0342V9.97852H64.436V9.5H65.0342V8.7959C65.0342 8.46549 65.1356 8.20801 65.3384 8.02344C65.5412 7.83659 65.8192 7.74316 66.1724 7.74316C66.259 7.74316 66.3376 7.75 66.4082 7.76367C66.4788 7.77507 66.5518 7.79329 66.627 7.81836L66.4937 8.27637ZM68.7427 9.97852C68.6994 9.96484 68.6606 9.95573 68.6265 9.95117C68.5923 9.94434 68.549 9.94092 68.4966 9.94092C68.2118 9.94092 67.9873 10.0628 67.8232 10.3066C67.6592 10.5482 67.5771 10.8512 67.5771 11.2158V13H67.0166V9.5H67.5771V10.1938H67.5908C67.6706 9.94775 67.7925 9.7609 67.9565 9.6333C68.1206 9.50342 68.3097 9.43848 68.5239 9.43848C68.5946 9.43848 68.6538 9.44189 68.7017 9.44873C68.7518 9.45557 68.7962 9.46582 68.835 9.47949L68.7427 9.97852ZM71.9282 13H71.3677V12.4531H71.354C71.2332 12.6628 71.084 12.82 70.9062 12.9248C70.7308 13.0296 70.5257 13.082 70.291 13.082C69.9629 13.082 69.6974 12.9863 69.4946 12.7949C69.2918 12.6035 69.1904 12.3494 69.1904 12.0327C69.1904 11.7342 69.293 11.487 69.498 11.291C69.7031 11.0951 69.9937 10.9697 70.3696 10.915L71.3677 10.7817V10.7031C71.3677 10.4092 71.2993 10.2007 71.1626 10.0776C71.0259 9.95231 70.8436 9.88965 70.6157 9.88965C70.4334 9.88965 70.258 9.92383 70.0894 9.99219C69.9207 10.0605 69.7624 10.1654 69.6143 10.3066L69.2861 9.96826C69.4821 9.77913 69.6906 9.64014 69.9116 9.55127C70.1326 9.4624 70.3787 9.41797 70.6499 9.41797C71.0737 9.41797 71.3927 9.52734 71.6069 9.74609C71.8211 9.96257 71.9282 10.2884 71.9282 10.7236V13ZM71.3677 11.5781V11.2295L70.5234 11.3457C70.266 11.3822 70.0723 11.4471 69.9424 11.5405C69.8125 11.634 69.7476 11.7809 69.7476 11.9814C69.7476 12.1911 69.8079 12.3517 69.9287 12.4634C70.0518 12.5728 70.201 12.6274 70.3765 12.6274C70.6795 12.6274 70.9199 12.5283 71.0977 12.3301C71.2777 12.1318 71.3677 11.8812 71.3677 11.5781ZM70.6738 9.14453C70.4619 9.14453 70.291 9.08529 70.1611 8.9668C70.0335 8.84603 69.9697 8.6888 69.9697 8.49512C69.9697 8.29232 70.0335 8.12939 70.1611 8.00635C70.291 7.88102 70.4619 7.81836 70.6738 7.81836C70.8857 7.81836 71.0555 7.87874 71.1831 7.99951C71.313 8.12028 71.3779 8.27865 71.3779 8.47461C71.3779 8.67513 71.313 8.83691 71.1831 8.95996C71.0555 9.08301 70.8857 9.14453 70.6738 9.14453ZM70.6738 8.09521C70.5576 8.09521 70.4631 8.13053 70.3901 8.20117C70.3195 8.27181 70.2842 8.36523 70.2842 8.48145C70.2842 8.59538 70.3195 8.68766 70.3901 8.7583C70.4631 8.82894 70.5576 8.86426 70.6738 8.86426C70.79 8.86426 70.8835 8.82894 70.9541 8.7583C71.027 8.68766 71.0635 8.59538 71.0635 8.48145C71.0635 8.36523 71.027 8.27181 70.9541 8.20117C70.8835 8.13053 70.79 8.09521 70.6738 8.09521ZM75.917 13H75.3564V11.0039C75.3564 10.6325 75.2881 10.3545 75.1514 10.1699C75.0169 9.98307 74.8141 9.88965 74.543 9.88965C74.2627 9.88965 74.0303 9.99561 73.8457 10.2075C73.6634 10.4172 73.5723 10.6826 73.5723 11.0039V13H73.0117V9.5H73.5723V10.0811H73.5859C73.7181 9.86003 73.8799 9.69482 74.0713 9.58545C74.2627 9.4738 74.4837 9.41797 74.7344 9.41797C75.1172 9.41797 75.41 9.54215 75.6128 9.79053C75.8156 10.0366 75.917 10.3932 75.917 10.8604V13Z" fill="black" fill-opacity="0.6063"/>
<path d="M39.2275 25H37.96V20.0854C37.96 19.8634 37.9653 19.6217 37.9761 19.3604C37.9904 19.0954 38.0083 18.8143 38.0298 18.5171H37.9976C37.9546 18.7212 37.9134 18.8966 37.874 19.0435C37.8382 19.1867 37.8024 19.3013 37.7666 19.3872L35.5054 25H34.6245L32.3525 19.4355C32.3239 19.3568 32.2881 19.2404 32.2451 19.0864C32.2057 18.9325 32.1628 18.7427 32.1162 18.5171H32.084C32.1055 18.7749 32.1198 19.0488 32.127 19.3389C32.1341 19.6253 32.1377 19.9279 32.1377 20.2466V25H30.9561V17.2979H32.7607L34.7642 22.3037C34.8429 22.4935 34.9074 22.6689 34.9575 22.8301C35.0112 22.9876 35.0524 23.1344 35.0811 23.2705H35.1133C35.1777 23.0664 35.2386 22.882 35.2959 22.7173C35.3532 22.5526 35.4069 22.4093 35.457 22.2876L37.4873 17.2979H39.2275V25ZM41.6177 18.4365C41.3885 18.4365 41.1987 18.3631 41.0483 18.2163C40.8979 18.0695 40.8228 17.8887 40.8228 17.6738C40.8228 17.4518 40.8979 17.2692 41.0483 17.126C41.1987 16.9827 41.3885 16.9111 41.6177 16.9111C41.8504 16.9111 42.042 16.9827 42.1924 17.126C42.3428 17.2692 42.418 17.4518 42.418 17.6738C42.418 17.8923 42.3428 18.0749 42.1924 18.2217C42.042 18.3649 41.8504 18.4365 41.6177 18.4365ZM42.2354 25H40.9839V19.5H42.2354V25ZM47.9824 24.6616C47.7103 24.8263 47.4399 24.9445 47.1714 25.0161C46.9028 25.0913 46.611 25.1289 46.2959 25.1289C45.4508 25.1289 44.7741 24.8818 44.2656 24.3877C43.7607 23.8936 43.5083 23.2222 43.5083 22.3735C43.5083 21.4604 43.7697 20.7318 44.2925 20.1875C44.8188 19.6432 45.5278 19.3711 46.4194 19.3711C46.731 19.3711 47.0138 19.4051 47.2681 19.4731C47.5259 19.5376 47.7873 19.645 48.0522 19.7954L47.5635 20.6655C47.3773 20.5617 47.1947 20.4865 47.0156 20.4399C46.8366 20.3898 46.6414 20.3647 46.4302 20.3647C45.9038 20.3647 45.4974 20.5384 45.2109 20.8857C44.9245 21.2331 44.7812 21.6932 44.7812 22.2661C44.7812 22.8677 44.9352 23.3296 45.2432 23.6519C45.5547 23.9741 45.945 24.1353 46.4141 24.1353C46.5573 24.1353 46.722 24.1102 46.9082 24.0601C47.0944 24.0063 47.2824 23.9222 47.4722 23.8076L47.9824 24.6616ZM52.1021 20.5474C52.034 20.5295 51.9678 20.5169 51.9033 20.5098C51.8424 20.499 51.7708 20.4937 51.6885 20.4937C51.2409 20.4937 50.8971 20.6584 50.6572 20.9878C50.4173 21.3172 50.2974 21.7469 50.2974 22.2769V25H49.0459V19.5H50.2974V20.5581H50.3188C50.4478 20.1785 50.6375 19.8921 50.8882 19.6987C51.1388 19.5018 51.4342 19.4033 51.7744 19.4033C51.8711 19.4033 51.957 19.4087 52.0322 19.4194C52.111 19.4302 52.1862 19.4463 52.2578 19.4678L52.1021 20.5474ZM55.5557 25.1289C54.6963 25.1289 54.0142 24.8729 53.5093 24.3608C53.008 23.8452 52.7573 23.1559 52.7573 22.293C52.7609 21.3799 53.0223 20.6655 53.5415 20.1499C54.0607 19.6307 54.7679 19.3711 55.6631 19.3711C56.526 19.3675 57.1992 19.6217 57.6826 20.1338C58.1696 20.6423 58.4131 21.3315 58.4131 22.2017C58.4131 23.0968 58.1553 23.8094 57.6396 24.3394C57.1276 24.8657 56.4329 25.1289 55.5557 25.1289ZM55.6147 24.1353C56.1125 24.1353 56.4902 23.9723 56.748 23.6465C57.0094 23.3206 57.1401 22.8498 57.1401 22.2339C57.1401 21.6252 57.0094 21.1615 56.748 20.8428C56.4867 20.5241 56.1071 20.3647 55.6094 20.3647C55.1188 20.3647 54.7321 20.533 54.4492 20.8696C54.1699 21.2062 54.0303 21.6717 54.0303 22.2661C54.0303 22.8641 54.1699 23.326 54.4492 23.6519C54.7285 23.9741 55.117 24.1353 55.6147 24.1353ZM59.1543 24.5596L59.6968 23.6787C59.9116 23.8291 60.139 23.9508 60.3789 24.0439C60.6224 24.1335 60.8856 24.1782 61.1685 24.1782C61.4764 24.1782 61.7145 24.1227 61.8828 24.0117C62.0547 23.8971 62.1406 23.7271 62.1406 23.5015C62.1406 23.3224 62.069 23.1738 61.9258 23.0557C61.7861 22.9339 61.5462 22.8337 61.2061 22.7549C60.5186 22.5938 60.0352 22.3807 59.7559 22.1157C59.4801 21.8507 59.3423 21.5016 59.3423 21.0684C59.3423 20.5706 59.5356 20.1642 59.9224 19.8491C60.3091 19.5304 60.8158 19.3711 61.4424 19.3711C61.7539 19.3711 62.0511 19.4123 62.334 19.4946C62.6169 19.5734 62.8926 19.7005 63.1611 19.876L62.6562 20.7354C62.4199 20.585 62.2033 20.4775 62.0063 20.4131C61.8094 20.3486 61.6071 20.3164 61.3994 20.3164C61.1058 20.3164 60.8766 20.3719 60.7119 20.4829C60.5508 20.5903 60.4702 20.7407 60.4702 20.9341C60.4702 21.1382 60.5526 21.2904 60.7173 21.3906C60.8856 21.4873 61.1667 21.5822 61.5605 21.6753C62.1549 21.8185 62.59 22.0262 62.8657 22.2983C63.1414 22.5669 63.2793 22.9268 63.2793 23.3779C63.2793 23.9115 63.0841 24.3376 62.6938 24.6562C62.3071 24.9714 61.7826 25.1289 61.1201 25.1289C60.762 25.1289 60.4183 25.0824 60.0889 24.9893C59.763 24.8926 59.4515 24.7493 59.1543 24.5596ZM66.8779 25.1289C66.0186 25.1289 65.3364 24.8729 64.8315 24.3608C64.3302 23.8452 64.0796 23.1559 64.0796 22.293C64.0832 21.3799 64.3446 20.6655 64.8638 20.1499C65.383 19.6307 66.0902 19.3711 66.9854 19.3711C67.8483 19.3675 68.5215 19.6217 69.0049 20.1338C69.4919 20.6423 69.7354 21.3315 69.7354 22.2017C69.7354 23.0968 69.4775 23.8094 68.9619 24.3394C68.4499 24.8657 67.7552 25.1289 66.8779 25.1289ZM66.937 24.1353C67.4347 24.1353 67.8125 23.9723 68.0703 23.6465C68.3317 23.3206 68.4624 22.8498 68.4624 22.2339C68.4624 21.6252 68.3317 21.1615 68.0703 20.8428C67.8089 20.5241 67.4294 20.3647 66.9316 20.3647C66.4411 20.3647 66.0544 20.533 65.7715 20.8696C65.4922 21.2062 65.3525 21.6717 65.3525 22.2661C65.3525 22.8641 65.4922 23.326 65.7715 23.6519C66.0508 23.9741 66.4393 24.1353 66.937 24.1353ZM73.9839 17.8403C73.8836 17.8009 73.7923 17.7741 73.71 17.7598C73.6276 17.7419 73.5381 17.7329 73.4414 17.7329C73.1764 17.7329 72.9759 17.8099 72.8398 17.9639C72.7074 18.1143 72.6411 18.3327 72.6411 18.6191V19.5H73.9141V20.4775H72.6411V25H71.395V20.4775H70.4604V19.5H71.395V18.5547C71.395 17.9961 71.5741 17.5539 71.9321 17.228C72.2938 16.8986 72.7718 16.7339 73.3662 16.7339C73.5524 16.7339 73.7135 16.7464 73.8496 16.7715C73.9857 16.7965 74.1271 16.8324 74.2739 16.8789L73.9839 17.8403ZM77.7974 24.9248C77.6362 24.9928 77.4679 25.043 77.2925 25.0752C77.117 25.1074 76.929 25.1235 76.7285 25.1235C76.2201 25.1235 75.828 24.9893 75.5522 24.7207C75.2801 24.4486 75.144 24.0439 75.144 23.5068V20.4775H74.2202V19.5H75.144V18.1626L76.3901 17.7866V19.5H77.7061V20.4775H76.3901V23.4048C76.3901 23.6733 76.4385 23.8667 76.5352 23.9849C76.6354 24.103 76.7894 24.1621 76.9971 24.1621C77.0973 24.1621 77.1922 24.1514 77.2817 24.1299C77.3748 24.1048 77.4572 24.0744 77.5288 24.0386L77.7974 24.9248ZM81.2939 24.4468L81.8633 23.4639C82.2106 23.6787 82.5347 23.8309 82.8354 23.9204C83.1362 24.0063 83.4728 24.0493 83.8452 24.0493C84.2892 24.0493 84.6383 23.9544 84.8926 23.7646C85.1504 23.5713 85.2793 23.2956 85.2793 22.9375C85.2793 22.6117 85.1719 22.3556 84.957 22.1694C84.7458 21.9797 84.3859 21.806 83.8774 21.6484C83.0933 21.4157 82.5168 21.1274 82.1479 20.7837C81.7791 20.4399 81.5947 19.9744 81.5947 19.3872C81.5947 18.7498 81.8328 18.2217 82.3091 17.8027C82.7853 17.3802 83.4316 17.1689 84.248 17.1689C84.6061 17.1689 84.9588 17.2083 85.3062 17.2871C85.6535 17.3659 85.9972 17.4876 86.3374 17.6523L85.8594 18.6729C85.5622 18.5189 85.2775 18.4097 85.0054 18.3452C84.7368 18.2808 84.4629 18.2485 84.1836 18.2485C83.7754 18.2485 83.4531 18.3381 83.2168 18.5171C82.984 18.6961 82.8677 18.9486 82.8677 19.2744C82.8677 19.5645 82.9751 19.7936 83.1899 19.9619C83.4048 20.1266 83.7736 20.2896 84.2964 20.4507C85.0985 20.6906 85.675 20.9896 86.0259 21.3477C86.3804 21.7057 86.5576 22.1981 86.5576 22.8247C86.5576 23.4979 86.3177 24.0511 85.8379 24.4844C85.3581 24.9141 84.6742 25.1289 83.7861 25.1289C83.3421 25.1289 82.9089 25.0734 82.4863 24.9624C82.0638 24.8478 81.6663 24.6759 81.2939 24.4468ZM90.4409 24.9248C90.2798 24.9928 90.1115 25.043 89.936 25.0752C89.7606 25.1074 89.5726 25.1235 89.3721 25.1235C88.8636 25.1235 88.4715 24.9893 88.1958 24.7207C87.9237 24.4486 87.7876 24.0439 87.7876 23.5068V20.4775H86.8638V19.5H87.7876V18.1626L89.0337 17.7866V19.5H90.3496V20.4775H89.0337V23.4048C89.0337 23.6733 89.082 23.8667 89.1787 23.9849C89.279 24.103 89.4329 24.1621 89.6406 24.1621C89.7409 24.1621 89.8358 24.1514 89.9253 24.1299C90.0184 24.1048 90.1007 24.0744 90.1724 24.0386L90.4409 24.9248ZM93.8623 25.1289C93.0029 25.1289 92.3208 24.8729 91.8159 24.3608C91.3146 23.8452 91.064 23.1559 91.064 22.293C91.0675 21.3799 91.3289 20.6655 91.8481 20.1499C92.3674 19.6307 93.0745 19.3711 93.9697 19.3711C94.8327 19.3675 95.5059 19.6217 95.9893 20.1338C96.4762 20.6423 96.7197 21.3315 96.7197 22.2017C96.7197 23.0968 96.4619 23.8094 95.9463 24.3394C95.4342 24.8657 94.7396 25.1289 93.8623 25.1289ZM93.9214 24.1353C94.4191 24.1353 94.7969 23.9723 95.0547 23.6465C95.3161 23.3206 95.4468 22.8498 95.4468 22.2339C95.4468 21.6252 95.3161 21.1615 95.0547 20.8428C94.7933 20.5241 94.4137 20.3647 93.916 20.3647C93.4255 20.3647 93.0387 20.533 92.7559 20.8696C92.4766 21.2062 92.3369 21.6717 92.3369 22.2661C92.3369 22.8641 92.4766 23.326 92.7559 23.6519C93.0352 23.9741 93.4237 24.1353 93.9214 24.1353ZM101.054 20.5474C100.986 20.5295 100.92 20.5169 100.855 20.5098C100.795 20.499 100.723 20.4937 100.641 20.4937C100.193 20.4937 99.8493 20.6584 99.6094 20.9878C99.3695 21.3172 99.2495 21.7469 99.2495 22.2769V25H97.998V19.5H99.2495V20.5581H99.271C99.3999 20.1785 99.5897 19.8921 99.8403 19.6987C100.091 19.5018 100.386 19.4033 100.727 19.4033C100.823 19.4033 100.909 19.4087 100.984 19.4194C101.063 19.4302 101.138 19.4463 101.21 19.4678L101.054 20.5474ZM106.721 22.5776H102.966C102.988 23.0968 103.138 23.4925 103.417 23.7646C103.697 24.0332 104.087 24.1675 104.588 24.1675C104.792 24.1675 105.025 24.1263 105.287 24.0439C105.548 23.9616 105.806 23.8291 106.06 23.6465L106.624 24.4253C106.284 24.6724 105.938 24.8514 105.587 24.9624C105.236 25.0734 104.85 25.1289 104.427 25.1289C103.571 25.1289 102.905 24.8836 102.429 24.3931C101.953 23.8989 101.713 23.2096 101.709 22.3252C101.709 21.4443 101.955 20.7318 102.445 20.1875C102.939 19.6432 103.571 19.3711 104.341 19.3711C105.079 19.3711 105.659 19.6038 106.082 20.0693C106.508 20.5312 106.721 21.1865 106.721 22.0352V22.5776ZM105.512 21.7129C105.512 21.2402 105.408 20.8857 105.201 20.6494C104.997 20.4095 104.707 20.2896 104.331 20.2896C103.976 20.2896 103.674 20.4185 103.423 20.6763C103.176 20.9305 103.024 21.276 102.966 21.7129H105.512Z" fill="black" fill-opacity="0.8956"/>
<defs>
<filter id="filter0_dd_976_1887" x="11.0938" y="7.25" width="11.8125" height="5.625" filterUnits="userSpaceOnUse" color-interpolation-filters="sRGB">
<feFlood flood-opacity="0" result="BackgroundImageFix"/>
<feColorMatrix in="SourceAlpha" type="matrix" values="0 0 0 0 0 0 0 0 0 0 0 0 0 0 0 0 0 0 127 0" result="hardAlpha"/>
<feOffset dy="0.1875"/>
<feGaussianBlur stdDeviation="0.1875"/>
<feColorMatrix type="matrix" values="0 0 0 0 0 0 0 0 0 0 0 0 0 0 0 0 0 0 0.1 0"/>
<feBlend mode="normal" in2="BackgroundImageFix" result="effect1_dropShadow_976_1887"/>
<feColorMatrix in="SourceAlpha" type="matrix" values="0 0 0 0 0 0 0 0 0 0 0 0 0 0 0 0 0 0 127 0" result="hardAlpha"/>
<feOffset dy="0.375"/>
<feGaussianBlur stdDeviation="0.5625"/>
<feColorMatrix type="matrix" values="0 0 0 0 0 0 0 0 0 0 0 0 0 0 0 0 0 0 0.2 0"/>
<feBlend mode="normal" in2="effect1_dropShadow_976_1887" result="effect2_dropShadow_976_1887"/>
<feBlend mode="normal" in="SourceGraphic" in2="effect2_dropShadow_976_1887" result="shape"/>
</filter>
<filter id="filter1_dd_976_1887" x="12.2188" y="13.4375" width="9.5625" height="9.5625" filterUnits="userSpaceOnUse" color-interpolation-filters="sRGB">
<feFlood flood-opacity="0" result="BackgroundImageFix"/>
<feColorMatrix in="SourceAlpha" type="matrix" values="0 0 0 0 0 0 0 0 0 0 0 0 0 0 0 0 0 0 127 0" result="hardAlpha"/>
<feOffset dy="0.1875"/>
<feGaussianBlur stdDeviation="0.1875"/>
<feColorMatrix type="matrix" values="0 0 0 0 0 0 0 0 0 0 0 0 0 0 0 0 0 0 0.1 0"/>
<feBlend mode="normal" in2="BackgroundImageFix" result="effect1_dropShadow_976_1887"/>
<feColorMatrix in="SourceAlpha" type="matrix" values="0 0 0 0 0 0 0 0 0 0 0 0 0 0 0 0 0 0 127 0" result="hardAlpha"/>
<feOffset dy="0.375"/>
<feGaussianBlur stdDeviation="0.5625"/>
<feColorMatrix type="matrix" values="0 0 0 0 0 0 0 0 0 0 0 0 0 0 0 0 0 0 0.2 0"/>
<feBlend mode="normal" in2="effect1_dropShadow_976_1887" result="effect2_dropShadow_976_1887"/>
<feBlend mode="normal" in="SourceGraphic" in2="effect2_dropShadow_976_1887" result="shape"/>
</filter>
<filter id="filter2_dd_976_1887" x="10.5939" y="6.6875" width="12.8124" height="5.06274" filterUnits="userSpaceOnUse" color-interpolation-filters="sRGB">
<feFlood flood-opacity="0" result="BackgroundImageFix"/>
<feColorMatrix in="SourceAlpha" type="matrix" values="0 0 0 0 0 0 0 0 0 0 0 0 0 0 0 0 0 0 127 0" result="hardAlpha"/>
<feOffset dy="-0.75"/>
<feGaussianBlur stdDeviation="0.1875"/>
<feColorMatrix type="matrix" values="0 0 0 0 0 0 0 0 0 0 0 0 0 0 0 0 0 0 0.1 0"/>
<feBlend mode="normal" in2="BackgroundImageFix" result="effect1_dropShadow_976_1887"/>
<feColorMatrix in="SourceAlpha" type="matrix" values="0 0 0 0 0 0 0 0 0 0 0 0 0 0 0 0 0 0 127 0" result="hardAlpha"/>
<feOffset dy="-0.75"/>
<feGaussianBlur stdDeviation="0.5625"/>
<feColorMatrix type="matrix" values="0 0 0 0 0 0 0 0 0 0 0 0 0 0 0 0 0 0 0.2 0"/>
<feBlend mode="normal" in2="effect1_dropShadow_976_1887" result="effect2_dropShadow_976_1887"/>
<feBlend mode="normal" in="SourceGraphic" in2="effect2_dropShadow_976_1887" result="shape"/>
</filter>
<linearGradient id="paint0_linear_976_1887" x1="17" y1="10.25" x2="20.3514" y2="25.9624" gradientUnits="userSpaceOnUse">
<stop stop-color="#0669BC"/>
<stop offset="1" stop-color="#243A5F"/>
</linearGradient>
<linearGradient id="paint1_linear_976_1887" x1="17" y1="10.25" x2="20.3514" y2="25.9624" gradientUnits="userSpaceOnUse">
<stop stop-color="#0078D4"/>
<stop offset="1" stop-color="#114A8B"/>
</linearGradient>
<linearGradient id="paint2_linear_976_1887" x1="17" y1="8.5625" x2="17.1583" y2="10.9858" gradientUnits="userSpaceOnUse">
<stop stop-color="#28AFEA"/>
<stop offset="1" stop-color="#0078D4"/>
</linearGradient>
<linearGradient id="paint3_linear_976_1887" x1="17" y1="8.5625" x2="17.1583" y2="10.9858" gradientUnits="userSpaceOnUse">
<stop stop-color="#30DAFF"/>
<stop offset="1" stop-color="#0094D4"/>
</linearGradient>
<linearGradient id="paint4_linear_976_1887" x1="16.5938" y1="8" x2="16.5937" y2="9.125" gradientUnits="userSpaceOnUse">
<stop stop-color="#22BCFF"/>
<stop offset="1" stop-color="#0088F0"/>
</linearGradient>
<linearGradient id="paint5_linear_976_1887" x1="16.5938" y1="8" x2="16.5937" y2="9.125" gradientUnits="userSpaceOnUse">
<stop stop-color="#28AFEA"/>
<stop offset="1" stop-color="#3CCBF4"/>
</linearGradient>
<clipPath id="clip0_976_1887">
<rect width="18" height="18" fill="white" transform="translate(8 8)"/>
</clipPath>
<clipPath id="clip1_976_1887">
<rect width="18" height="18" fill="white" transform="translate(8 8)"/>
</clipPath>
</defs>
</svg>
