<svg width="90" height="32" viewBox="0 0 90 32" fill="none" xmlns="http://www.w3.org/2000/svg">
<rect x="0.5" y="0.5" width="89" height="31" rx="3.5" fill="black"/>
<path d="M15.5559 7H7V15.5608H15.5559V7Z" fill="#F25022"/>
<path d="M25.0001 7H16.4442V15.5608H25.0001V7Z" fill="#7FBA00"/>
<path d="M15.5559 16.4395H7V25.0002H15.5559V16.4395Z" fill="#00A4EF"/>
<path d="M25.0002 16.4395H16.4443V25.0002H25.0002V16.4395Z" fill="#FFB900"/>
<path d="M29.3086 12.5625L29.6523 12.0195C29.8841 12.1758 30.1146 12.2891 30.3438 12.3594C30.5729 12.4297 30.8346 12.4648 31.1289 12.4648C31.4648 12.4648 31.7396 12.3867 31.9531 12.2305C32.1667 12.0742 32.2734 11.8477 32.2734 11.5508C32.2734 11.2852 32.1836 11.0729 32.0039 10.9141C31.8242 10.7552 31.5273 10.6029 31.1133 10.457C30.5768 10.2721 30.181 10.0599 29.9258 9.82031C29.6706 9.57812 29.543 9.25781 29.543 8.85938C29.543 8.40104 29.7083 8.02734 30.0391 7.73828C30.3724 7.44922 30.8138 7.30469 31.3633 7.30469C31.6185 7.30469 31.8685 7.33464 32.1133 7.39453C32.3581 7.45182 32.6055 7.54297 32.8555 7.66797L32.5664 8.23438C32.3607 8.13021 32.1576 8.05339 31.957 8.00391C31.7565 7.95443 31.543 7.92969 31.3164 7.92969C30.9883 7.92969 30.7292 8.00651 30.5391 8.16016C30.349 8.3112 30.2539 8.52214 30.2539 8.79297C30.2539 9.02995 30.3411 9.21875 30.5156 9.35938C30.6901 9.5 30.9831 9.64323 31.3945 9.78906C31.9622 9.98438 32.3685 10.2083 32.6133 10.4609C32.8607 10.7135 32.9844 11.0547 32.9844 11.4844C32.9844 11.9453 32.8177 12.3294 32.4844 12.6367C32.1536 12.9414 31.6862 13.0938 31.082 13.0938C30.7487 13.0938 30.4375 13.0508 30.1484 12.9648C29.862 12.8789 29.582 12.7448 29.3086 12.5625ZM37.4961 13H36.543L34.7695 11.0234H34.7539V13H34.0586V7.07812H34.7539V10.7812H34.7695L36.4531 8.90234H37.3516L35.4883 10.875L37.4961 13ZM41.1641 13H40.4727V12.3555H40.457C40.3164 12.6003 40.1419 12.7852 39.9336 12.9102C39.7253 13.0352 39.4831 13.0977 39.207 13.0977C38.8216 13.0977 38.5104 12.9857 38.2734 12.7617C38.0365 12.5378 37.918 12.2422 37.918 11.875C37.918 11.5182 38.0378 11.2253 38.2773 10.9961C38.5169 10.7669 38.862 10.6198 39.3125 10.5547L40.4766 10.3984V10.3047C40.4766 9.97396 40.3971 9.73568 40.2383 9.58984C40.082 9.44401 39.8711 9.37109 39.6055 9.37109C39.3945 9.37109 39.1888 9.41146 38.9883 9.49219C38.7878 9.57292 38.5977 9.69401 38.418 9.85547L38.0391 9.43359C38.2708 9.22005 38.5182 9.0625 38.7812 8.96094C39.0469 8.85677 39.3372 8.80469 39.6523 8.80469C40.1523 8.80469 40.5286 8.93359 40.7812 9.19141C41.0365 9.44922 41.1641 9.83594 41.1641 10.3516V13ZM40.4766 11.3281V10.9336L39.5 11.0664C39.2005 11.1081 38.9766 11.1836 38.8281 11.293C38.6797 11.4023 38.6055 11.5742 38.6055 11.8086C38.6055 12.0404 38.6745 12.2201 38.8125 12.3477C38.9531 12.4753 39.1276 12.5391 39.3359 12.5391C39.6797 12.5391 39.9557 12.4258 40.1641 12.1992C40.3724 11.9701 40.4766 11.6797 40.4766 11.3281ZM44.4297 7.63281C44.3568 7.60677 44.2904 7.58854 44.2305 7.57812C44.1706 7.56771 44.1081 7.5625 44.043 7.5625C43.8268 7.5625 43.6654 7.61979 43.5586 7.73438C43.4544 7.84896 43.4023 8.01693 43.4023 8.23828V8.90234H44.3438V9.48047H43.4023V13H42.7109V9.48047H42.0234V8.90234H42.7109V8.20312C42.7109 7.82031 42.8294 7.52083 43.0664 7.30469C43.306 7.08854 43.6315 6.98047 44.043 6.98047C44.1471 6.98047 44.2422 6.98828 44.3281 7.00391C44.4141 7.01953 44.5026 7.04167 44.5938 7.07031L44.4297 7.63281ZM47.0859 7.63281C47.013 7.60677 46.9466 7.58854 46.8867 7.57812C46.8268 7.56771 46.7643 7.5625 46.6992 7.5625C46.4831 7.5625 46.3216 7.61979 46.2148 7.73438C46.1107 7.84896 46.0586 8.01693 46.0586 8.23828V8.90234H47V9.48047H46.0586V13H45.3672V9.48047H44.6797V8.90234H45.3672V8.20312C45.3672 7.82031 45.4857 7.52083 45.7227 7.30469C45.9622 7.08854 46.2878 6.98047 46.6992 6.98047C46.8034 6.98047 46.8984 6.98828 46.9844 7.00391C47.0703 7.01953 47.1589 7.04167 47.25 7.07031L47.0859 7.63281ZM50.7188 13H50.0273V12.3555H50.0117C49.8711 12.6003 49.6966 12.7852 49.4883 12.9102C49.2799 13.0352 49.0378 13.0977 48.7617 13.0977C48.3763 13.0977 48.0651 12.9857 47.8281 12.7617C47.5911 12.5378 47.4727 12.2422 47.4727 11.875C47.4727 11.5182 47.5924 11.2253 47.832 10.9961C48.0716 10.7669 48.4167 10.6198 48.8672 10.5547L50.0312 10.3984V10.3047C50.0312 9.97396 49.9518 9.73568 49.793 9.58984C49.6367 9.44401 49.4258 9.37109 49.1602 9.37109C48.9492 9.37109 48.7435 9.41146 48.543 9.49219C48.3424 9.57292 48.1523 9.69401 47.9727 9.85547L47.5938 9.43359C47.8255 9.22005 48.0729 9.0625 48.3359 8.96094C48.6016 8.85677 48.8919 8.80469 49.207 8.80469C49.707 8.80469 50.0833 8.93359 50.3359 9.19141C50.5911 9.44922 50.7188 9.83594 50.7188 10.3516V13ZM50.0312 11.3281V10.9336L49.0547 11.0664C48.7552 11.1081 48.5312 11.1836 48.3828 11.293C48.2344 11.4023 48.1602 11.5742 48.1602 11.8086C48.1602 12.0404 48.2292 12.2201 48.3672 12.3477C48.5078 12.4753 48.6823 12.5391 48.8906 12.5391C49.2344 12.5391 49.5104 12.4258 49.7188 12.1992C49.9271 11.9701 50.0312 11.6797 50.0312 11.3281ZM57.0352 12.3125C56.8841 12.5729 56.6914 12.7695 56.457 12.9023C56.2253 13.0326 55.9518 13.0977 55.6367 13.0977C55.1211 13.0977 54.7083 12.9141 54.3984 12.5469C54.0911 12.1797 53.9375 11.6797 53.9375 11.0469C53.9375 10.3672 54.1081 9.82422 54.4492 9.41797C54.7904 9.00911 55.2448 8.80469 55.8125 8.80469C56.0938 8.80469 56.3359 8.85938 56.5391 8.96875C56.7422 9.07812 56.9076 9.24349 57.0352 9.46484H57.0508V7.07812H57.7461V13H57.0508V12.3125H57.0352ZM54.6484 11.0117C54.6484 11.4805 54.7565 11.849 54.9727 12.1172C55.1888 12.3854 55.4779 12.5195 55.8398 12.5195C56.2044 12.5195 56.4974 12.3893 56.7188 12.1289C56.9401 11.8685 57.0508 11.5391 57.0508 11.1406V10.5547C57.0508 10.2266 56.9427 9.94922 56.7266 9.72266C56.513 9.49609 56.2422 9.38281 55.9141 9.38281C55.5208 9.38281 55.2109 9.52734 54.9844 9.81641C54.7604 10.1055 54.6484 10.5039 54.6484 11.0117ZM62.4219 11.1094H59.5391C59.5521 11.5625 59.6732 11.9115 59.9023 12.1562C60.1315 12.3984 60.4531 12.5195 60.8672 12.5195C61.0469 12.5195 61.2305 12.4922 61.418 12.4375C61.6081 12.3802 61.7982 12.2878 61.9883 12.1602L62.3047 12.6445C62.0677 12.8008 61.8294 12.9154 61.5898 12.9883C61.3503 13.0612 61.0872 13.0977 60.8008 13.0977C60.181 13.0977 59.6979 12.9141 59.3516 12.5469C59.0052 12.1771 58.8307 11.6615 58.8281 11C58.8255 10.3411 59 9.8112 59.3516 9.41016C59.7057 9.00651 60.1641 8.80469 60.7266 8.80469C61.263 8.80469 61.6797 8.97917 61.9766 9.32812C62.2734 9.67448 62.4219 10.1576 62.4219 10.7773V11.1094ZM61.7227 10.5625C61.7201 10.1849 61.6289 9.89193 61.4492 9.68359C61.2721 9.47526 61.0273 9.37109 60.7148 9.37109C60.4076 9.37109 60.1471 9.47917 59.9336 9.69531C59.7227 9.90885 59.5938 10.1979 59.5469 10.5625H61.7227ZM65.457 12.9492C65.3451 12.9961 65.2331 13.0299 65.1211 13.0508C65.0117 13.0742 64.888 13.0859 64.75 13.0859C64.4141 13.0859 64.151 12.9896 63.9609 12.7969C63.7734 12.6042 63.6797 12.319 63.6797 11.9414V9.48047H62.9805V8.90234H63.6797V7.96484L64.3789 7.74219V8.90234H65.4023V9.48047H64.3789V11.8672C64.3789 12.099 64.4206 12.2656 64.5039 12.3672C64.5872 12.4688 64.7122 12.5195 64.8789 12.5195C64.957 12.5195 65.0326 12.5104 65.1055 12.4922C65.1784 12.474 65.2409 12.4518 65.293 12.4258L65.457 12.9492ZM70.5 7.63281C70.4271 7.60677 70.3607 7.58854 70.3008 7.57812C70.2409 7.56771 70.1784 7.5625 70.1133 7.5625C69.8971 7.5625 69.7357 7.61979 69.6289 7.73438C69.5247 7.84896 69.4727 8.01693 69.4727 8.23828V8.90234H70.4141V9.48047H69.4727V13H68.7812V9.48047H68.0938V8.90234H68.7812V8.20312C68.7812 7.82031 68.8997 7.52083 69.1367 7.30469C69.3763 7.08854 69.7018 6.98047 70.1133 6.98047C70.2174 6.98047 70.3125 6.98828 70.3984 7.00391C70.4844 7.01953 70.5729 7.04167 70.6641 7.07031L70.5 7.63281ZM73.25 9.49609C73.1979 9.48047 73.1497 9.46875 73.1055 9.46094C73.0612 9.45312 73.0078 9.44922 72.9453 9.44922C72.6146 9.44922 72.3542 9.58984 72.1641 9.87109C71.974 10.1497 71.8789 10.5026 71.8789 10.9297V13H71.1836V8.90234H71.8789V9.71484H71.8945C71.9883 9.42578 72.1302 9.20703 72.3203 9.05859C72.513 8.90755 72.7357 8.83203 72.9883 8.83203C73.069 8.83203 73.138 8.83594 73.1953 8.84375C73.2552 8.85156 73.3099 8.86328 73.3594 8.87891L73.25 9.49609ZM77.0781 13H76.3867V12.3555H76.3711C76.2305 12.6003 76.056 12.7852 75.8477 12.9102C75.6393 13.0352 75.3971 13.0977 75.1211 13.0977C74.7357 13.0977 74.4245 12.9857 74.1875 12.7617C73.9505 12.5378 73.832 12.2422 73.832 11.875C73.832 11.5182 73.9518 11.2253 74.1914 10.9961C74.431 10.7669 74.776 10.6198 75.2266 10.5547L76.3906 10.3984V10.3047C76.3906 9.97396 76.3112 9.73568 76.1523 9.58984C75.9961 9.44401 75.7852 9.37109 75.5195 9.37109C75.3086 9.37109 75.1029 9.41146 74.9023 9.49219C74.7018 9.57292 74.5117 9.69401 74.332 9.85547L73.9531 9.43359C74.1849 9.22005 74.4323 9.0625 74.6953 8.96094C74.9609 8.85677 75.2513 8.80469 75.5664 8.80469C76.0664 8.80469 76.4427 8.93359 76.6953 9.19141C76.9505 9.44922 77.0781 9.83594 77.0781 10.3516V13ZM76.3906 11.3281V10.9336L75.4141 11.0664C75.1146 11.1081 74.8906 11.1836 74.7422 11.293C74.5938 11.4023 74.5195 11.5742 74.5195 11.8086C74.5195 12.0404 74.5885 12.2201 74.7266 12.3477C74.8672 12.4753 75.0417 12.5391 75.25 12.5391C75.5938 12.5391 75.8698 12.4258 76.0781 12.1992C76.2865 11.9701 76.3906 11.6797 76.3906 11.3281ZM75.582 8.52344C75.3346 8.52344 75.1354 8.45443 74.9844 8.31641C74.8359 8.17839 74.7617 7.9974 74.7617 7.77344C74.7617 7.53906 74.8359 7.35026 74.9844 7.20703C75.1354 7.0612 75.3333 6.98828 75.5781 6.98828C75.8255 6.98828 76.0234 7.05859 76.1719 7.19922C76.3229 7.33984 76.3984 7.52344 76.3984 7.75C76.3984 7.98177 76.3229 8.16927 76.1719 8.3125C76.0234 8.45312 75.8268 8.52344 75.582 8.52344ZM75.5781 7.32422C75.4479 7.32422 75.3424 7.36458 75.2617 7.44531C75.181 7.52344 75.1406 7.6276 75.1406 7.75781C75.1406 7.88542 75.181 7.98958 75.2617 8.07031C75.3424 8.14844 75.4479 8.1875 75.5781 8.1875C75.7109 8.1875 75.8177 8.14844 75.8984 8.07031C75.9792 7.98958 76.0195 7.88542 76.0195 7.75781C76.0195 7.6276 75.9792 7.52344 75.8984 7.44531C75.8177 7.36458 75.7109 7.32422 75.5781 7.32422ZM81.8086 13H81.1133V10.6641C81.1133 10.237 81.0352 9.91667 80.8789 9.70312C80.7227 9.48958 80.4896 9.38281 80.1797 9.38281C79.8568 9.38281 79.5898 9.50391 79.3789 9.74609C79.1706 9.98568 79.0664 10.2904 79.0664 10.6602V13H78.3711V8.90234H79.0664V9.58203H79.082C79.2357 9.32161 79.4245 9.1276 79.6484 9C79.8724 8.86979 80.1315 8.80469 80.4258 8.80469C80.8737 8.80469 81.2161 8.94922 81.4531 9.23828C81.6901 9.52734 81.8086 9.94531 81.8086 10.4922V13Z" fill="white"/>
<path d="M41.1489 16.6123C41.1489 16.3559 41.2412 16.1507 41.4259 15.9764C41.6105 15.802 41.8258 15.72 42.0823 15.72C42.3489 15.72 42.5746 15.8123 42.7489 15.9866C42.9233 16.161 43.0156 16.3764 43.0156 16.6123C43.0156 16.8584 42.9233 17.0738 42.7387 17.2379C42.5541 17.4123 42.3387 17.4943 42.072 17.4943C41.8053 17.4943 41.59 17.4123 41.4053 17.2379C41.2412 17.0636 41.1489 16.8584 41.1489 16.6123ZM42.8412 25.002H41.313V18.4892H42.8412V25.002Z" fill="white"/>
<path d="M47.4975 23.8888C47.7231 23.8888 47.9795 23.8375 48.2565 23.735C48.5334 23.6324 48.7795 23.4888 49.0154 23.3144V24.7401C48.7693 24.8837 48.4924 24.9862 48.1847 25.058C47.877 25.1298 47.5282 25.1709 47.159 25.1709C46.2052 25.1709 45.4257 24.8632 44.8205 24.258C44.2154 23.6529 43.918 22.8734 43.918 21.9401C43.918 20.8939 44.2257 20.0324 44.8411 19.3555C45.4564 18.6785 46.318 18.3401 47.4462 18.3401C47.7334 18.3401 48.0206 18.3811 48.318 18.4529C48.6154 18.5247 48.8411 18.617 49.0154 18.7093V20.176C48.7795 20.0016 48.5334 19.8683 48.2872 19.776C48.0411 19.6837 47.7847 19.6324 47.5282 19.6324C46.9231 19.6324 46.4411 19.8273 46.0616 20.217C45.6923 20.6068 45.5077 21.1401 45.5077 21.8068C45.5077 22.4632 45.6821 22.976 46.0411 23.3452C46.4 23.7144 46.8821 23.8888 47.4975 23.8888Z" fill="white"/>
<path d="M53.3738 18.3899C53.4969 18.3899 53.6097 18.4001 53.702 18.4104C53.7943 18.4309 53.8866 18.4514 53.9482 18.4719V20.0207C53.8661 19.9591 53.7533 19.9078 53.5995 19.8566C53.4456 19.8053 53.261 19.7745 53.0354 19.7745C52.6559 19.7745 52.3379 19.9284 52.0815 20.2463C51.8251 20.5643 51.6918 21.0463 51.6918 21.713V25.0053H50.1636V18.4925H51.6918V19.5181H51.7123C51.8559 19.1591 52.061 18.8822 52.3482 18.6873C52.6354 18.4925 52.9738 18.3899 53.3738 18.3899Z" fill="white"/>
<path d="M54.0308 21.8478C54.0308 20.7709 54.3385 19.9196 54.9436 19.2837C55.5487 18.658 56.4 18.3401 57.4769 18.3401C58.4923 18.3401 59.2923 18.6478 59.8667 19.2529C60.441 19.858 60.7282 20.6785 60.7282 21.7042C60.7282 22.7606 60.4205 23.6016 59.8154 24.2273C59.2102 24.8529 58.3795 25.1606 57.3333 25.1606C56.3282 25.1606 55.5179 24.8632 54.9333 24.2683C54.3282 23.6837 54.0308 22.8734 54.0308 21.8478ZM55.6308 21.7965C55.6308 22.4734 55.7846 22.9965 56.0923 23.3555C56.4 23.7144 56.841 23.8888 57.4154 23.8888C57.9692 23.8888 58.4 23.7144 58.6872 23.3555C58.9743 22.9965 59.1282 22.4632 59.1282 21.7555C59.1282 21.058 58.9743 20.5247 58.6769 20.1657C58.3795 19.8068 57.9487 19.6324 57.4051 19.6324C56.841 19.6324 56.4102 19.817 56.0923 20.1965C55.7846 20.576 55.6308 21.0991 55.6308 21.7965Z" fill="white"/>
<path d="M63.0053 20.207C63.0053 20.4224 63.0771 20.5967 63.2104 20.7198C63.354 20.8429 63.6617 20.9968 64.1335 21.1916C64.7489 21.4378 65.1796 21.7147 65.4258 22.0224C65.6719 22.3301 65.795 22.6993 65.795 23.1301C65.795 23.7455 65.5591 24.2378 65.0873 24.607C64.6155 24.9762 63.9796 25.1609 63.1796 25.1609C62.913 25.1609 62.6155 25.1301 62.2873 25.0583C61.9591 24.9968 61.6822 24.9045 61.4565 24.8121V23.3044C61.7335 23.4993 62.0309 23.6532 62.3591 23.766C62.6771 23.8788 62.9745 23.9403 63.2309 23.9403C63.5796 23.9403 63.836 23.8891 64.0001 23.7968C64.1642 23.7044 64.2463 23.5403 64.2463 23.3044C64.2463 23.0891 64.1642 22.9147 63.9899 22.7711C63.8155 22.6275 63.4976 22.4532 63.0155 22.2685C62.4514 22.0327 62.0514 21.766 61.8155 21.4685C61.5796 21.1711 61.4565 20.7916 61.4565 20.3403C61.4565 19.7557 61.6924 19.2737 62.154 18.8942C62.6155 18.5147 63.2206 18.3301 63.9694 18.3301C64.195 18.3301 64.4514 18.3506 64.7386 18.4019C65.0258 18.4532 65.2617 18.5147 65.4463 18.5967V20.0532C65.2412 19.9198 65.0053 19.807 64.7386 19.7044C64.4719 19.6121 64.195 19.5608 63.9386 19.5608C63.6514 19.5608 63.4155 19.6224 63.2617 19.7352C63.0873 19.848 63.0053 20.0121 63.0053 20.207Z" fill="white"/>
<path d="M66.4717 21.8478C66.4717 20.7709 66.7794 19.9196 67.3845 19.2837C67.9896 18.658 68.8409 18.3401 69.9178 18.3401C70.9332 18.3401 71.7332 18.6478 72.3076 19.2529C72.8819 19.858 73.1691 20.6785 73.1691 21.7042C73.1691 22.7606 72.8614 23.6016 72.2563 24.2273C71.6512 24.8529 70.8204 25.1606 69.7742 25.1606C68.7691 25.1606 67.9589 24.8632 67.3742 24.2683C66.7691 23.6837 66.4717 22.8734 66.4717 21.8478ZM68.0614 21.7965C68.0614 22.4734 68.2153 22.9965 68.523 23.3555C68.8307 23.7144 69.2717 23.8888 69.846 23.8888C70.3999 23.8888 70.8307 23.7144 71.1178 23.3555C71.405 22.9965 71.5589 22.4632 71.5589 21.7555C71.5589 21.058 71.405 20.5247 71.1076 20.1657C70.8101 19.8068 70.3794 19.6324 69.8358 19.6324C69.2717 19.6324 68.8409 19.817 68.523 20.1965C68.2153 20.576 68.0614 21.0991 68.0614 21.7965Z" fill="white"/>
<path d="M78.2258 19.7523V23.0959C78.2258 23.7933 78.3899 24.3062 78.7079 24.6549C79.0258 25.0036 79.5181 25.1677 80.1643 25.1677C80.3797 25.1677 80.6053 25.1472 80.8309 25.0959C81.0566 25.0446 81.2207 25.0036 81.313 24.9421V23.6703C81.2207 23.7318 81.1079 23.7831 80.9848 23.8241C80.8617 23.8651 80.7489 23.8857 80.6668 23.8857C80.3591 23.8857 80.1232 23.8036 79.9797 23.6395C79.8361 23.4754 79.7643 23.1882 79.7643 22.7882V19.7421H81.3232V18.4908H79.7745V16.5626L78.2361 17.0344V18.501H75.9489V17.7113C75.9489 17.3215 76.0309 17.0241 76.2053 16.819C76.3796 16.6139 76.6258 16.5215 76.9438 16.5215C77.1079 16.5215 77.2514 16.5421 77.3848 16.5831C77.5079 16.6241 77.6002 16.6651 77.6514 16.6959V15.3728C77.5386 15.3318 77.4155 15.3113 77.272 15.2908C77.1284 15.2703 76.9643 15.26 76.7797 15.26C76.0822 15.26 75.5079 15.4754 75.0668 15.9164C74.6258 16.3574 74.4002 16.9113 74.4002 17.5985V18.501H73.313V19.7523H74.4002V25.0139H75.9489V19.7523H78.2258V19.7523Z" fill="white"/>
<path d="M39.8359 15.9199V25.0071H38.2564V17.8892H38.2359L35.4154 25.0071H34.3692L31.4769 17.8892H31.4564V25.0071H30V15.9199H32.2564L34.8718 22.6584H34.9128L37.6718 15.9199H39.8359Z" fill="white"/>
<rect x="0.5" y="0.5" width="89" height="31" rx="3.5" stroke="black"/>
</svg>
