<svg width="90" height="32" viewBox="0 0 90 32" fill="none" xmlns="http://www.w3.org/2000/svg">
<rect x="0.5" y="0.5" width="89" height="31" rx="3.5" fill="black"/>
<path d="M15.5559 7H7V15.5608H15.5559V7Z" fill="#F25022"/>
<path d="M25.0001 7H16.4442V15.5608H25.0001V7Z" fill="#7FBA00"/>
<path d="M15.5559 16.4395H7V25.0002H15.5559V16.4395Z" fill="#00A4EF"/>
<path d="M25.0002 16.4395H16.4443V25.0002H25.0002V16.4395Z" fill="#FFB900"/>
<path d="M30.4766 13H29.7656V7.39844H30.4766V13ZM32.6367 12.4102H32.6211V14.8398H31.9258V8.90234H32.6211V9.61719H32.6367C32.7982 9.34635 32.9974 9.14323 33.2344 9.00781C33.4714 8.8724 33.7435 8.80469 34.0508 8.80469C34.5794 8.80469 34.9909 8.98828 35.2852 9.35547C35.582 9.72266 35.7305 10.2135 35.7305 10.8281C35.7305 11.5156 35.5625 12.0664 35.2266 12.4805C34.8932 12.8919 34.4388 13.0977 33.8633 13.0977C33.5977 13.0977 33.362 13.0404 33.1562 12.9258C32.9531 12.8112 32.7799 12.6393 32.6367 12.4102ZM32.6172 10.7617V11.3086C32.6172 11.6471 32.7253 11.9336 32.9414 12.168C33.1576 12.4023 33.4336 12.5195 33.7695 12.5195C34.1576 12.5195 34.4622 12.3698 34.6836 12.0703C34.9049 11.7708 35.0156 11.3542 35.0156 10.8203C35.0156 10.3698 34.9128 10.0182 34.707 9.76562C34.5013 9.51042 34.2214 9.38281 33.8672 9.38281C33.4896 9.38281 33.1862 9.51432 32.957 9.77734C32.7305 10.0378 32.6172 10.3659 32.6172 10.7617ZM39.7578 13H39.0664V12.3555H39.0508C38.9102 12.6003 38.7357 12.7852 38.5273 12.9102C38.319 13.0352 38.0768 13.0977 37.8008 13.0977C37.4154 13.0977 37.1042 12.9857 36.8672 12.7617C36.6302 12.5378 36.5117 12.2422 36.5117 11.875C36.5117 11.5182 36.6315 11.2253 36.8711 10.9961C37.1107 10.7669 37.4557 10.6198 37.9062 10.5547L39.0703 10.3984V10.3047C39.0703 9.97396 38.9909 9.73568 38.832 9.58984C38.6758 9.44401 38.4648 9.37109 38.1992 9.37109C37.9883 9.37109 37.7826 9.41146 37.582 9.49219C37.3815 9.57292 37.1914 9.69401 37.0117 9.85547L36.6328 9.43359C36.8646 9.22005 37.112 9.0625 37.375 8.96094C37.6406 8.85677 37.931 8.80469 38.2461 8.80469C38.7461 8.80469 39.1224 8.93359 39.375 9.19141C39.6302 9.44922 39.7578 9.83594 39.7578 10.3516V13ZM39.0703 11.3281V10.9336L38.0938 11.0664C37.7943 11.1081 37.5703 11.1836 37.4219 11.293C37.2734 11.4023 37.1992 11.5742 37.1992 11.8086C37.1992 12.0404 37.2682 12.2201 37.4062 12.3477C37.5469 12.4753 37.7214 12.5391 37.9297 12.5391C38.2734 12.5391 38.5495 12.4258 38.7578 12.1992C38.9661 11.9701 39.0703 11.6797 39.0703 11.3281ZM43.0586 12.9492C42.9466 12.9961 42.8346 13.0299 42.7227 13.0508C42.6133 13.0742 42.4896 13.0859 42.3516 13.0859C42.0156 13.0859 41.7526 12.9896 41.5625 12.7969C41.375 12.6042 41.2812 12.319 41.2812 11.9414V9.48047H40.582V8.90234H41.2812V7.96484L41.9805 7.74219V8.90234H43.0039V9.48047H41.9805V11.8672C41.9805 12.099 42.0221 12.2656 42.1055 12.3672C42.1888 12.4688 42.3138 12.5195 42.4805 12.5195C42.5586 12.5195 42.6341 12.5104 42.707 12.4922C42.7799 12.474 42.8424 12.4518 42.8945 12.4258L43.0586 12.9492ZM47.2578 11.1094H44.375C44.388 11.5625 44.5091 11.9115 44.7383 12.1562C44.9674 12.3984 45.2891 12.5195 45.7031 12.5195C45.8828 12.5195 46.0664 12.4922 46.2539 12.4375C46.444 12.3802 46.6341 12.2878 46.8242 12.1602L47.1406 12.6445C46.9036 12.8008 46.6654 12.9154 46.4258 12.9883C46.1862 13.0612 45.9232 13.0977 45.6367 13.0977C45.0169 13.0977 44.5339 12.9141 44.1875 12.5469C43.8411 12.1771 43.6667 11.6615 43.6641 11C43.6615 10.3411 43.8359 9.8112 44.1875 9.41016C44.5417 9.00651 45 8.80469 45.5625 8.80469C46.099 8.80469 46.5156 8.97917 46.8125 9.32812C47.1094 9.67448 47.2578 10.1576 47.2578 10.7773V11.1094ZM46.5586 10.5625C46.556 10.1849 46.4648 9.89193 46.2852 9.68359C46.1081 9.47526 45.8633 9.37109 45.5508 9.37109C45.2435 9.37109 44.9831 9.47917 44.7695 9.69531C44.5586 9.90885 44.4297 10.1979 44.3828 10.5625H46.5586ZM53.918 13H52.9648L51.1914 11.0234H51.1758V13H50.4805V7.07812H51.1758V10.7812H51.1914L52.875 8.90234H53.7734L51.9102 10.875L53.918 13ZM59.8594 8.90234L58.6328 13H57.9102L57.082 10.0977C57.0612 10.0247 57.0469 9.96094 57.0391 9.90625C57.0312 9.84896 57.0247 9.78516 57.0195 9.71484H57.0039C56.9987 9.78255 56.9883 9.84375 56.9727 9.89844C56.9596 9.95312 56.9414 10.0182 56.918 10.0938L56.0234 13H55.3242L54.0898 8.90234H54.8164L55.6484 11.957C55.6615 12.0039 55.6719 12.0586 55.6797 12.1211C55.6901 12.1836 55.6979 12.2539 55.7031 12.332H55.7344C55.7396 12.2721 55.7474 12.2096 55.7578 12.1445C55.7708 12.0794 55.7878 12.0143 55.8086 11.9492L56.7344 8.90234H57.3711L58.2031 11.9648C58.2161 12.0117 58.2279 12.0664 58.2383 12.1289C58.2487 12.1914 58.2578 12.2617 58.2656 12.3398H58.2969C58.2995 12.2852 58.306 12.2266 58.3164 12.1641C58.3294 12.1016 58.3451 12.0352 58.3633 11.9648L59.1758 8.90234H59.8594ZM63.9922 11.1094H61.1094C61.1224 11.5625 61.2435 11.9115 61.4727 12.1562C61.7018 12.3984 62.0234 12.5195 62.4375 12.5195C62.6172 12.5195 62.8008 12.4922 62.9883 12.4375C63.1784 12.3802 63.3685 12.2878 63.5586 12.1602L63.875 12.6445C63.638 12.8008 63.3997 12.9154 63.1602 12.9883C62.9206 13.0612 62.6576 13.0977 62.3711 13.0977C61.7513 13.0977 61.2682 12.9141 60.9219 12.5469C60.5755 12.1771 60.401 11.6615 60.3984 11C60.3958 10.3411 60.5703 9.8112 60.9219 9.41016C61.276 9.00651 61.7344 8.80469 62.2969 8.80469C62.8333 8.80469 63.25 8.97917 63.5469 9.32812C63.8438 9.67448 63.9922 10.1576 63.9922 10.7773V11.1094ZM63.293 10.5625C63.2904 10.1849 63.1992 9.89193 63.0195 9.68359C62.8424 9.47526 62.5977 9.37109 62.2852 9.37109C61.9779 9.37109 61.7174 9.47917 61.5039 9.69531C61.293 9.90885 61.1641 10.1979 61.1172 10.5625H63.293ZM68.457 13H67.7617V10.6641C67.7617 10.237 67.6836 9.91667 67.5273 9.70312C67.3711 9.48958 67.138 9.38281 66.8281 9.38281C66.5052 9.38281 66.2383 9.50391 66.0273 9.74609C65.819 9.98568 65.7148 10.2904 65.7148 10.6602V13H65.0195V8.90234H65.7148V9.58203H65.7305C65.8841 9.32161 66.0729 9.1276 66.2969 9C66.5208 8.86979 66.7799 8.80469 67.0742 8.80469C67.5221 8.80469 67.8646 8.94922 68.1016 9.23828C68.3385 9.52734 68.457 9.94531 68.457 10.4922V13ZM73.043 8.90234L71.1328 13.7344C70.9818 14.1198 70.7891 14.4089 70.5547 14.6016C70.3203 14.7943 70.043 14.8906 69.7227 14.8906C69.6367 14.8906 69.556 14.8854 69.4805 14.875C69.4076 14.8646 69.3385 14.8503 69.2734 14.832L69.4062 14.25C69.4583 14.2682 69.5065 14.2812 69.5508 14.2891C69.5977 14.2969 69.6445 14.3008 69.6914 14.3008C69.8633 14.3008 70.0078 14.2552 70.125 14.1641C70.2422 14.0729 70.3372 13.944 70.4102 13.7773L70.7422 12.9922L69.1367 8.90234H69.9062L70.9922 12.0078C71 12.0339 71.0104 12.0755 71.0234 12.1328C71.0391 12.1875 71.0573 12.2565 71.0781 12.3398H71.1016C71.1094 12.3034 71.1198 12.2591 71.1328 12.207C71.1484 12.1523 71.1667 12.0885 71.1875 12.0156L72.3281 8.90234H73.043ZM77.1172 11.1094H74.2344C74.2474 11.5625 74.3685 11.9115 74.5977 12.1562C74.8268 12.3984 75.1484 12.5195 75.5625 12.5195C75.7422 12.5195 75.9258 12.4922 76.1133 12.4375C76.3034 12.3802 76.4935 12.2878 76.6836 12.1602L77 12.6445C76.763 12.8008 76.5247 12.9154 76.2852 12.9883C76.0456 13.0612 75.7826 13.0977 75.4961 13.0977C74.8763 13.0977 74.3932 12.9141 74.0469 12.5469C73.7005 12.1771 73.526 11.6615 73.5234 11C73.5208 10.3411 73.6953 9.8112 74.0469 9.41016C74.401 9.00651 74.8594 8.80469 75.4219 8.80469C75.9583 8.80469 76.375 8.97917 76.6719 9.32812C76.9688 9.67448 77.1172 10.1576 77.1172 10.7773V11.1094ZM76.418 10.5625C76.4154 10.1849 76.3242 9.89193 76.1445 9.68359C75.9674 9.47526 75.7227 9.37109 75.4102 9.37109C75.1029 9.37109 74.8424 9.47917 74.6289 9.69531C74.418 9.90885 74.2891 10.1979 74.2422 10.5625H76.418Z" fill="white"/>
<path d="M41.1489 16.6123C41.1489 16.3559 41.2412 16.1507 41.4259 15.9764C41.6105 15.802 41.8258 15.72 42.0823 15.72C42.3489 15.72 42.5746 15.8123 42.7489 15.9866C42.9233 16.161 43.0156 16.3764 43.0156 16.6123C43.0156 16.8584 42.9233 17.0738 42.7387 17.2379C42.5541 17.4123 42.3387 17.4943 42.072 17.4943C41.8053 17.4943 41.59 17.4123 41.4053 17.2379C41.2412 17.0636 41.1489 16.8584 41.1489 16.6123ZM42.8412 25.002H41.313V18.4892H42.8412V25.002Z" fill="white"/>
<path d="M47.4975 23.8888C47.7231 23.8888 47.9795 23.8375 48.2565 23.735C48.5334 23.6324 48.7795 23.4888 49.0154 23.3144V24.7401C48.7693 24.8837 48.4924 24.9862 48.1847 25.058C47.877 25.1298 47.5282 25.1709 47.159 25.1709C46.2052 25.1709 45.4257 24.8632 44.8205 24.258C44.2154 23.6529 43.918 22.8734 43.918 21.9401C43.918 20.8939 44.2257 20.0324 44.8411 19.3555C45.4564 18.6785 46.318 18.3401 47.4462 18.3401C47.7334 18.3401 48.0206 18.3811 48.318 18.4529C48.6154 18.5247 48.8411 18.617 49.0154 18.7093V20.176C48.7795 20.0016 48.5334 19.8683 48.2872 19.776C48.0411 19.6837 47.7847 19.6324 47.5282 19.6324C46.9231 19.6324 46.4411 19.8273 46.0616 20.217C45.6923 20.6068 45.5077 21.1401 45.5077 21.8068C45.5077 22.4632 45.6821 22.976 46.0411 23.3452C46.4 23.7144 46.8821 23.8888 47.4975 23.8888Z" fill="white"/>
<path d="M53.3738 18.3899C53.4969 18.3899 53.6097 18.4001 53.702 18.4104C53.7943 18.4309 53.8866 18.4514 53.9482 18.4719V20.0207C53.8661 19.9591 53.7533 19.9078 53.5995 19.8566C53.4456 19.8053 53.261 19.7745 53.0354 19.7745C52.6559 19.7745 52.3379 19.9284 52.0815 20.2463C51.8251 20.5643 51.6918 21.0463 51.6918 21.713V25.0053H50.1636V18.4925H51.6918V19.5181H51.7123C51.8559 19.1591 52.061 18.8822 52.3482 18.6873C52.6354 18.4925 52.9738 18.3899 53.3738 18.3899Z" fill="white"/>
<path d="M54.0308 21.8478C54.0308 20.7709 54.3385 19.9196 54.9436 19.2837C55.5487 18.658 56.4 18.3401 57.4769 18.3401C58.4923 18.3401 59.2923 18.6478 59.8667 19.2529C60.441 19.858 60.7282 20.6785 60.7282 21.7042C60.7282 22.7606 60.4205 23.6016 59.8154 24.2273C59.2102 24.8529 58.3795 25.1606 57.3333 25.1606C56.3282 25.1606 55.5179 24.8632 54.9333 24.2683C54.3282 23.6837 54.0308 22.8734 54.0308 21.8478ZM55.6308 21.7965C55.6308 22.4734 55.7846 22.9965 56.0923 23.3555C56.4 23.7144 56.841 23.8888 57.4154 23.8888C57.9692 23.8888 58.4 23.7144 58.6872 23.3555C58.9743 22.9965 59.1282 22.4632 59.1282 21.7555C59.1282 21.058 58.9743 20.5247 58.6769 20.1657C58.3795 19.8068 57.9487 19.6324 57.4051 19.6324C56.841 19.6324 56.4102 19.817 56.0923 20.1965C55.7846 20.576 55.6308 21.0991 55.6308 21.7965Z" fill="white"/>
<path d="M63.0053 20.207C63.0053 20.4224 63.0771 20.5967 63.2104 20.7198C63.354 20.8429 63.6617 20.9968 64.1335 21.1916C64.7489 21.4378 65.1796 21.7147 65.4258 22.0224C65.6719 22.3301 65.795 22.6993 65.795 23.1301C65.795 23.7455 65.5591 24.2378 65.0873 24.607C64.6155 24.9762 63.9796 25.1609 63.1796 25.1609C62.913 25.1609 62.6155 25.1301 62.2873 25.0583C61.9591 24.9968 61.6822 24.9045 61.4565 24.8121V23.3044C61.7335 23.4993 62.0309 23.6532 62.3591 23.766C62.6771 23.8788 62.9745 23.9403 63.2309 23.9403C63.5796 23.9403 63.836 23.8891 64.0001 23.7968C64.1642 23.7044 64.2463 23.5403 64.2463 23.3044C64.2463 23.0891 64.1642 22.9147 63.9899 22.7711C63.8155 22.6275 63.4976 22.4532 63.0155 22.2685C62.4514 22.0327 62.0514 21.766 61.8155 21.4685C61.5796 21.1711 61.4565 20.7916 61.4565 20.3403C61.4565 19.7557 61.6924 19.2737 62.154 18.8942C62.6155 18.5147 63.2206 18.3301 63.9694 18.3301C64.195 18.3301 64.4514 18.3506 64.7386 18.4019C65.0258 18.4532 65.2617 18.5147 65.4463 18.5967V20.0532C65.2412 19.9198 65.0053 19.807 64.7386 19.7044C64.4719 19.6121 64.195 19.5608 63.9386 19.5608C63.6514 19.5608 63.4155 19.6224 63.2617 19.7352C63.0873 19.848 63.0053 20.0121 63.0053 20.207Z" fill="white"/>
<path d="M66.4717 21.8478C66.4717 20.7709 66.7794 19.9196 67.3845 19.2837C67.9896 18.658 68.8409 18.3401 69.9178 18.3401C70.9332 18.3401 71.7332 18.6478 72.3076 19.2529C72.8819 19.858 73.1691 20.6785 73.1691 21.7042C73.1691 22.7606 72.8614 23.6016 72.2563 24.2273C71.6512 24.8529 70.8204 25.1606 69.7742 25.1606C68.7691 25.1606 67.9589 24.8632 67.3742 24.2683C66.7691 23.6837 66.4717 22.8734 66.4717 21.8478ZM68.0614 21.7965C68.0614 22.4734 68.2153 22.9965 68.523 23.3555C68.8307 23.7144 69.2717 23.8888 69.846 23.8888C70.3999 23.8888 70.8307 23.7144 71.1178 23.3555C71.405 22.9965 71.5589 22.4632 71.5589 21.7555C71.5589 21.058 71.405 20.5247 71.1076 20.1657C70.8101 19.8068 70.3794 19.6324 69.8358 19.6324C69.2717 19.6324 68.8409 19.817 68.523 20.1965C68.2153 20.576 68.0614 21.0991 68.0614 21.7965Z" fill="white"/>
<path d="M78.2258 19.7523V23.0959C78.2258 23.7933 78.3899 24.3062 78.7079 24.6549C79.0258 25.0036 79.5181 25.1677 80.1643 25.1677C80.3797 25.1677 80.6053 25.1472 80.8309 25.0959C81.0566 25.0446 81.2207 25.0036 81.313 24.9421V23.6703C81.2207 23.7318 81.1079 23.7831 80.9848 23.8241C80.8617 23.8651 80.7489 23.8857 80.6668 23.8857C80.3591 23.8857 80.1232 23.8036 79.9797 23.6395C79.8361 23.4754 79.7643 23.1882 79.7643 22.7882V19.7421H81.3232V18.4908H79.7745V16.5626L78.2361 17.0344V18.501H75.9489V17.7113C75.9489 17.3215 76.0309 17.0241 76.2053 16.819C76.3796 16.6139 76.6258 16.5215 76.9438 16.5215C77.1079 16.5215 77.2514 16.5421 77.3848 16.5831C77.5079 16.6241 77.6002 16.6651 77.6514 16.6959V15.3728C77.5386 15.3318 77.4155 15.3113 77.272 15.2908C77.1284 15.2703 76.9643 15.26 76.7797 15.26C76.0822 15.26 75.5079 15.4754 75.0668 15.9164C74.6258 16.3574 74.4002 16.9113 74.4002 17.5985V18.501H73.313V19.7523H74.4002V25.0139H75.9489V19.7523H78.2258Z" fill="white"/>
<path d="M39.8359 15.9199V25.0071H38.2564V17.8892H38.2359L35.4154 25.0071H34.3692L31.4769 17.8892H31.4564V25.0071H30V15.9199H32.2564L34.8718 22.6584H34.9128L37.6718 15.9199H39.8359Z" fill="white"/>
<rect x="0.5" y="0.5" width="89" height="31" rx="3.5" stroke="black"/>
</svg>
