<svg width="134" height="34" viewBox="0 0 134 34" fill="none" xmlns="http://www.w3.org/2000/svg">
<rect x="1" y="1" width="132" height="32" rx="4" fill="#202020"/>
<rect x="0.5" y="0.5" width="133" height="33" rx="4.5" stroke="black" stroke-opacity="0.1"/>
<g clip-path="url(#clip0_976_1890)">
<g clip-path="url(#clip1_976_1890)">
<path d="M8.28125 11C8.28125 10.5858 8.61704 10.25 9.03125 10.25H24.9687C25.383 10.25 25.7188 10.5858 25.7188 11V22.3438C25.7188 24.0524 24.3336 25.4375 22.625 25.4375H11.375C9.66637 25.4375 8.28125 24.0524 8.28125 22.3438V11Z" fill="url(#paint0_linear_976_1890)"/>
<mask id="mask0_976_1890" style="mask-type:alpha" maskUnits="userSpaceOnUse" x="8" y="10" width="18" height="16">
<path d="M8.28125 11C8.28125 10.5858 8.61704 10.25 9.03125 10.25H24.9687C25.383 10.25 25.7188 10.5858 25.7188 11V22.3438C25.7188 24.0524 24.3336 25.4375 22.625 25.4375H11.375C9.66637 25.4375 8.28125 24.0524 8.28125 22.3438V11Z" fill="url(#paint1_linear_976_1890)"/>
</mask>
<g mask="url(#mask0_976_1890)">
<g filter="url(#filter0_dd_976_1890)">
<path d="M12.7812 10.8125V8.5625H21.2187V10.8125" stroke="url(#paint2_linear_976_1890)" stroke-width="1.125" stroke-linecap="round"/>
</g>
</g>
<g filter="url(#filter1_dd_976_1890)">
<path d="M16.719 14.1875H13.344V17.5625H16.719V14.1875Z" fill="#F25022"/>
<path d="M20.6562 14.1875H17.2812V17.5625H20.6562V14.1875Z" fill="#7FBA00"/>
<path d="M20.6562 18.125H17.2812V21.5H20.6562V18.125Z" fill="#FFB900"/>
<path d="M16.7188 18.125H13.3438V21.5H16.7188V18.125Z" fill="#00A4EF"/>
</g>
<path d="M12.7812 10.8125V9.125C12.7812 8.81434 13.0331 8.5625 13.3438 8.5625H20.6563C20.9669 8.5625 21.2188 8.81434 21.2188 9.125V10.8125" stroke="url(#paint3_linear_976_1890)" stroke-width="1.125" stroke-linecap="round"/>
<rect x="13.3438" y="8" width="7.3125" height="1.125" fill="url(#paint4_linear_976_1890)"/>
<mask id="mask1_976_1890" style="mask-type:alpha" maskUnits="userSpaceOnUse" x="13" y="8" width="8" height="2">
<rect x="13.3438" y="8" width="7.3125" height="1.125" fill="url(#paint5_linear_976_1890)"/>
</mask>
<g mask="url(#mask1_976_1890)">
<g filter="url(#filter2_dd_976_1890)">
<rect x="11.7189" y="8.56274" width="1.625" height="2.8125" fill="#C4C4C4"/>
</g>
</g>
</g>
</g>
<path d="M39.2275 16H37.96V11.0854C37.96 10.8634 37.9653 10.6217 37.9761 10.3604C37.9904 10.0954 38.0083 9.81429 38.0298 9.51709H37.9976C37.9546 9.72119 37.9134 9.89665 37.874 10.0435C37.8382 10.1867 37.8024 10.3013 37.7666 10.3872L35.5054 16H34.6245L32.3525 10.4355C32.3239 10.3568 32.2881 10.2404 32.2451 10.0864C32.2057 9.93245 32.1628 9.74268 32.1162 9.51709H32.084C32.1055 9.7749 32.1198 10.0488 32.127 10.3389C32.1341 10.6253 32.1377 10.9279 32.1377 11.2466V16H30.9561V8.29785H32.7607L34.7642 13.3037C34.8429 13.4935 34.9074 13.6689 34.9575 13.8301C35.0112 13.9876 35.0524 14.1344 35.0811 14.2705H35.1133C35.1777 14.0664 35.2386 13.882 35.2959 13.7173C35.3532 13.5526 35.4069 13.4093 35.457 13.2876L37.4873 8.29785H39.2275V16ZM41.6177 9.43652C41.3885 9.43652 41.1987 9.36312 41.0483 9.21631C40.8979 9.0695 40.8228 8.88867 40.8228 8.67383C40.8228 8.45182 40.8979 8.26921 41.0483 8.12598C41.1987 7.98275 41.3885 7.91113 41.6177 7.91113C41.8504 7.91113 42.042 7.98275 42.1924 8.12598C42.3428 8.26921 42.418 8.45182 42.418 8.67383C42.418 8.89225 42.3428 9.07487 42.1924 9.22168C42.042 9.36491 41.8504 9.43652 41.6177 9.43652ZM42.2354 16H40.9839V10.5H42.2354V16ZM47.9824 15.6616C47.7103 15.8263 47.4399 15.9445 47.1714 16.0161C46.9028 16.0913 46.611 16.1289 46.2959 16.1289C45.4508 16.1289 44.7741 15.8818 44.2656 15.3877C43.7607 14.8936 43.5083 14.2222 43.5083 13.3735C43.5083 12.4604 43.7697 11.7318 44.2925 11.1875C44.8188 10.6432 45.5278 10.3711 46.4194 10.3711C46.731 10.3711 47.0138 10.4051 47.2681 10.4731C47.5259 10.5376 47.7873 10.645 48.0522 10.7954L47.5635 11.6655C47.3773 11.5617 47.1947 11.4865 47.0156 11.4399C46.8366 11.3898 46.6414 11.3647 46.4302 11.3647C45.9038 11.3647 45.4974 11.5384 45.2109 11.8857C44.9245 12.2331 44.7812 12.6932 44.7812 13.2661C44.7812 13.8677 44.9352 14.3296 45.2432 14.6519C45.5547 14.9741 45.945 15.1353 46.4141 15.1353C46.5573 15.1353 46.722 15.1102 46.9082 15.0601C47.0944 15.0063 47.2824 14.9222 47.4722 14.8076L47.9824 15.6616ZM52.1021 11.5474C52.034 11.5295 51.9678 11.5169 51.9033 11.5098C51.8424 11.499 51.7708 11.4937 51.6885 11.4937C51.2409 11.4937 50.8971 11.6584 50.6572 11.9878C50.4173 12.3172 50.2974 12.7469 50.2974 13.2769V16H49.0459V10.5H50.2974V11.5581H50.3188C50.4478 11.1785 50.6375 10.8921 50.8882 10.6987C51.1388 10.5018 51.4342 10.4033 51.7744 10.4033C51.8711 10.4033 51.957 10.4087 52.0322 10.4194C52.111 10.4302 52.1862 10.4463 52.2578 10.4678L52.1021 11.5474ZM55.5557 16.1289C54.6963 16.1289 54.0142 15.8729 53.5093 15.3608C53.008 14.8452 52.7573 14.1559 52.7573 13.293C52.7609 12.3799 53.0223 11.6655 53.5415 11.1499C54.0607 10.6307 54.7679 10.3711 55.6631 10.3711C56.526 10.3675 57.1992 10.6217 57.6826 11.1338C58.1696 11.6423 58.4131 12.3315 58.4131 13.2017C58.4131 14.0968 58.1553 14.8094 57.6396 15.3394C57.1276 15.8657 56.4329 16.1289 55.5557 16.1289ZM55.6147 15.1353C56.1125 15.1353 56.4902 14.9723 56.748 14.6465C57.0094 14.3206 57.1401 13.8498 57.1401 13.2339C57.1401 12.6252 57.0094 12.1615 56.748 11.8428C56.4867 11.5241 56.1071 11.3647 55.6094 11.3647C55.1188 11.3647 54.7321 11.533 54.4492 11.8696C54.1699 12.2062 54.0303 12.6717 54.0303 13.2661C54.0303 13.8641 54.1699 14.326 54.4492 14.6519C54.7285 14.9741 55.117 15.1353 55.6147 15.1353ZM59.1543 15.5596L59.6968 14.6787C59.9116 14.8291 60.139 14.9508 60.3789 15.0439C60.6224 15.1335 60.8856 15.1782 61.1685 15.1782C61.4764 15.1782 61.7145 15.1227 61.8828 15.0117C62.0547 14.8971 62.1406 14.7271 62.1406 14.5015C62.1406 14.3224 62.069 14.1738 61.9258 14.0557C61.7861 13.9339 61.5462 13.8337 61.2061 13.7549C60.5186 13.5938 60.0352 13.3807 59.7559 13.1157C59.4801 12.8507 59.3423 12.5016 59.3423 12.0684C59.3423 11.5706 59.5356 11.1642 59.9224 10.8491C60.3091 10.5304 60.8158 10.3711 61.4424 10.3711C61.7539 10.3711 62.0511 10.4123 62.334 10.4946C62.6169 10.5734 62.8926 10.7005 63.1611 10.876L62.6562 11.7354C62.4199 11.585 62.2033 11.4775 62.0063 11.4131C61.8094 11.3486 61.6071 11.3164 61.3994 11.3164C61.1058 11.3164 60.8766 11.3719 60.7119 11.4829C60.5508 11.5903 60.4702 11.7407 60.4702 11.9341C60.4702 12.1382 60.5526 12.2904 60.7173 12.3906C60.8856 12.4873 61.1667 12.5822 61.5605 12.6753C62.1549 12.8185 62.59 13.0262 62.8657 13.2983C63.1414 13.5669 63.2793 13.9268 63.2793 14.3779C63.2793 14.9115 63.0841 15.3376 62.6938 15.6562C62.3071 15.9714 61.7826 16.1289 61.1201 16.1289C60.762 16.1289 60.4183 16.0824 60.0889 15.9893C59.763 15.8926 59.4515 15.7493 59.1543 15.5596ZM66.8779 16.1289C66.0186 16.1289 65.3364 15.8729 64.8315 15.3608C64.3302 14.8452 64.0796 14.1559 64.0796 13.293C64.0832 12.3799 64.3446 11.6655 64.8638 11.1499C65.383 10.6307 66.0902 10.3711 66.9854 10.3711C67.8483 10.3675 68.5215 10.6217 69.0049 11.1338C69.4919 11.6423 69.7354 12.3315 69.7354 13.2017C69.7354 14.0968 69.4775 14.8094 68.9619 15.3394C68.4499 15.8657 67.7552 16.1289 66.8779 16.1289ZM66.937 15.1353C67.4347 15.1353 67.8125 14.9723 68.0703 14.6465C68.3317 14.3206 68.4624 13.8498 68.4624 13.2339C68.4624 12.6252 68.3317 12.1615 68.0703 11.8428C67.8089 11.5241 67.4294 11.3647 66.9316 11.3647C66.4411 11.3647 66.0544 11.533 65.7715 11.8696C65.4922 12.2062 65.3525 12.6717 65.3525 13.2661C65.3525 13.8641 65.4922 14.326 65.7715 14.6519C66.0508 14.9741 66.4393 15.1353 66.937 15.1353ZM73.9839 8.84033C73.8836 8.80094 73.7923 8.77409 73.71 8.75977C73.6276 8.74186 73.5381 8.73291 73.4414 8.73291C73.1764 8.73291 72.9759 8.8099 72.8398 8.96387C72.7074 9.11426 72.6411 9.33268 72.6411 9.61914V10.5H73.9141V11.4775H72.6411V16H71.395V11.4775H70.4604V10.5H71.395V9.55469C71.395 8.99609 71.5741 8.55387 71.9321 8.22803C72.2938 7.8986 72.7718 7.73389 73.3662 7.73389C73.5524 7.73389 73.7135 7.74642 73.8496 7.77148C73.9857 7.79655 74.1271 7.83236 74.2739 7.87891L73.9839 8.84033ZM77.7974 15.9248C77.6362 15.9928 77.4679 16.043 77.2925 16.0752C77.117 16.1074 76.929 16.1235 76.7285 16.1235C76.2201 16.1235 75.828 15.9893 75.5522 15.7207C75.2801 15.4486 75.144 15.0439 75.144 14.5068V11.4775H74.2202V10.5H75.144V9.1626L76.3901 8.78662V10.5H77.7061V11.4775H76.3901V14.4048C76.3901 14.6733 76.4385 14.8667 76.5352 14.9849C76.6354 15.103 76.7894 15.1621 76.9971 15.1621C77.0973 15.1621 77.1922 15.1514 77.2817 15.1299C77.3748 15.1048 77.4572 15.0744 77.5288 15.0386L77.7974 15.9248ZM81.2939 15.4468L81.8633 14.4639C82.2106 14.6787 82.5347 14.8309 82.8354 14.9204C83.1362 15.0063 83.4728 15.0493 83.8452 15.0493C84.2892 15.0493 84.6383 14.9544 84.8926 14.7646C85.1504 14.5713 85.2793 14.2956 85.2793 13.9375C85.2793 13.6117 85.1719 13.3556 84.957 13.1694C84.7458 12.9797 84.3859 12.806 83.8774 12.6484C83.0933 12.4157 82.5168 12.1274 82.1479 11.7837C81.7791 11.4399 81.5947 10.9744 81.5947 10.3872C81.5947 9.74984 81.8328 9.22168 82.3091 8.80273C82.7853 8.38021 83.4316 8.16895 84.248 8.16895C84.6061 8.16895 84.9588 8.20833 85.3062 8.28711C85.6535 8.36589 85.9972 8.48763 86.3374 8.65234L85.8594 9.67285C85.5622 9.51888 85.2775 9.40967 85.0054 9.34521C84.7368 9.28076 84.4629 9.24854 84.1836 9.24854C83.7754 9.24854 83.4531 9.33805 83.2168 9.51709C82.984 9.69613 82.8677 9.94857 82.8677 10.2744C82.8677 10.5645 82.9751 10.7936 83.1899 10.9619C83.4048 11.1266 83.7736 11.2896 84.2964 11.4507C85.0985 11.6906 85.675 11.9896 86.0259 12.3477C86.3804 12.7057 86.5576 13.1981 86.5576 13.8247C86.5576 14.4979 86.3177 15.0511 85.8379 15.4844C85.3581 15.9141 84.6742 16.1289 83.7861 16.1289C83.3421 16.1289 82.9089 16.0734 82.4863 15.9624C82.0638 15.8478 81.6663 15.6759 81.2939 15.4468ZM90.4409 15.9248C90.2798 15.9928 90.1115 16.043 89.936 16.0752C89.7606 16.1074 89.5726 16.1235 89.3721 16.1235C88.8636 16.1235 88.4715 15.9893 88.1958 15.7207C87.9237 15.4486 87.7876 15.0439 87.7876 14.5068V11.4775H86.8638V10.5H87.7876V9.1626L89.0337 8.78662V10.5H90.3496V11.4775H89.0337V14.4048C89.0337 14.6733 89.082 14.8667 89.1787 14.9849C89.279 15.103 89.4329 15.1621 89.6406 15.1621C89.7409 15.1621 89.8358 15.1514 89.9253 15.1299C90.0184 15.1048 90.1007 15.0744 90.1724 15.0386L90.4409 15.9248ZM93.8623 16.1289C93.0029 16.1289 92.3208 15.8729 91.8159 15.3608C91.3146 14.8452 91.064 14.1559 91.064 13.293C91.0675 12.3799 91.3289 11.6655 91.8481 11.1499C92.3674 10.6307 93.0745 10.3711 93.9697 10.3711C94.8327 10.3675 95.5059 10.6217 95.9893 11.1338C96.4762 11.6423 96.7197 12.3315 96.7197 13.2017C96.7197 14.0968 96.4619 14.8094 95.9463 15.3394C95.4342 15.8657 94.7396 16.1289 93.8623 16.1289ZM93.9214 15.1353C94.4191 15.1353 94.7969 14.9723 95.0547 14.6465C95.3161 14.3206 95.4468 13.8498 95.4468 13.2339C95.4468 12.6252 95.3161 12.1615 95.0547 11.8428C94.7933 11.5241 94.4137 11.3647 93.916 11.3647C93.4255 11.3647 93.0387 11.533 92.7559 11.8696C92.4766 12.2062 92.3369 12.6717 92.3369 13.2661C92.3369 13.8641 92.4766 14.326 92.7559 14.6519C93.0352 14.9741 93.4237 15.1353 93.9214 15.1353ZM101.054 11.5474C100.986 11.5295 100.92 11.5169 100.855 11.5098C100.795 11.499 100.723 11.4937 100.641 11.4937C100.193 11.4937 99.8493 11.6584 99.6094 11.9878C99.3695 12.3172 99.2495 12.7469 99.2495 13.2769V16H97.998V10.5H99.2495V11.5581H99.271C99.3999 11.1785 99.5897 10.8921 99.8403 10.6987C100.091 10.5018 100.386 10.4033 100.727 10.4033C100.823 10.4033 100.909 10.4087 100.984 10.4194C101.063 10.4302 101.138 10.4463 101.21 10.4678L101.054 11.5474ZM106.721 13.5776H102.966C102.988 14.0968 103.138 14.4925 103.417 14.7646C103.697 15.0332 104.087 15.1675 104.588 15.1675C104.792 15.1675 105.025 15.1263 105.287 15.0439C105.548 14.9616 105.806 14.8291 106.06 14.6465L106.624 15.4253C106.284 15.6724 105.938 15.8514 105.587 15.9624C105.236 16.0734 104.85 16.1289 104.427 16.1289C103.571 16.1289 102.905 15.8836 102.429 15.3931C101.953 14.8989 101.713 14.2096 101.709 13.3252C101.709 12.4443 101.955 11.7318 102.445 11.1875C102.939 10.6432 103.571 10.3711 104.341 10.3711C105.079 10.3711 105.659 10.6038 106.082 11.0693C106.508 11.5312 106.721 12.1865 106.721 13.0352V13.5776ZM105.512 12.7129C105.512 12.2402 105.408 11.8857 105.201 11.6494C104.997 11.4095 104.707 11.2896 104.331 11.2896C103.976 11.2896 103.674 11.4185 103.423 11.6763C103.176 11.9305 103.024 12.276 102.966 12.7129H105.512Z" fill="white"/>
<path d="M32.3584 24.2705H30.4922V23.8296H32.3584V24.2705ZM39.5396 25.0396C39.5396 25.2993 39.5384 25.5203 39.5361 25.7026C39.5339 25.8826 39.5316 26.0467 39.5293 26.1948L39.5156 27.3809H38.9551L38.9756 26.229C38.9801 26.0832 38.9824 25.9146 38.9824 25.7231C38.9847 25.5317 38.9858 25.3358 38.9858 25.1353C38.9858 24.7775 38.9813 24.4539 38.9722 24.1646C38.9631 23.8729 38.9403 23.6063 38.9038 23.3647C38.8674 23.1232 38.8115 22.9022 38.7363 22.7017C38.6611 22.5011 38.5586 22.3132 38.4287 22.1377C38.333 22.0101 38.2214 21.895 38.0938 21.7925C37.9684 21.6877 37.8249 21.5988 37.6631 21.5259C37.5013 21.453 37.3213 21.3971 37.123 21.3584C36.9271 21.3174 36.7118 21.2969 36.4771 21.2969C35.6476 21.2969 35.0062 21.5065 34.5527 21.9258C34.3408 22.124 34.1802 22.3519 34.0708 22.6094C33.9614 22.8669 33.9067 23.1676 33.9067 23.5117C33.9067 23.8376 33.9569 24.1543 34.0571 24.4619C34.1574 24.7673 34.2975 25.0566 34.4775 25.3301C34.735 25.2503 35.0028 25.1922 35.2808 25.1558C35.5588 25.117 35.8197 25.0977 36.0635 25.0977C36.264 25.0977 36.4622 25.109 36.6582 25.1318C36.8542 25.1523 37.0456 25.1865 37.2324 25.2344C37.2985 25.0703 37.3498 24.904 37.3862 24.7354C37.4227 24.5667 37.4409 24.3936 37.4409 24.2158C37.4409 24.0085 37.417 23.8148 37.3691 23.6348C37.3213 23.4525 37.2518 23.2952 37.1606 23.1631C37.0718 23.0286 36.9624 22.9238 36.8325 22.8486C36.7026 22.7712 36.5545 22.7336 36.3882 22.7358V22.7495C36.4588 22.7723 36.526 22.8076 36.5898 22.8555C36.6536 22.901 36.7095 22.9569 36.7573 23.0229C36.8052 23.0868 36.8428 23.1597 36.8701 23.2417C36.8997 23.3215 36.9146 23.4069 36.9146 23.498C36.9146 23.6439 36.8883 23.7772 36.8359 23.8979C36.7858 24.0164 36.7152 24.119 36.624 24.2056C36.5329 24.2899 36.4246 24.356 36.2993 24.4038C36.1763 24.4494 36.0418 24.4722 35.896 24.4722C35.7365 24.4722 35.5918 24.4471 35.4619 24.397C35.332 24.3446 35.2204 24.2739 35.127 24.1851C35.0358 24.0939 34.964 23.988 34.9116 23.8672C34.8615 23.7441 34.8364 23.612 34.8364 23.4707C34.8364 23.293 34.8763 23.1312 34.9561 22.9854C35.0358 22.8395 35.1429 22.7153 35.2773 22.6128C35.4118 22.5103 35.5667 22.4305 35.7422 22.3735C35.9199 22.3166 36.1056 22.2881 36.2993 22.2881C36.5705 22.2881 36.8097 22.3348 37.0171 22.4282C37.2267 22.5216 37.4022 22.6515 37.5435 22.8179C37.6847 22.9842 37.7918 23.1836 37.8647 23.416C37.9377 23.6462 37.9741 23.8991 37.9741 24.1748C37.9741 24.3981 37.9525 24.6123 37.9092 24.8174C37.8682 25.0225 37.8066 25.2218 37.7246 25.4155C37.8431 25.4702 37.9513 25.5352 38.0493 25.6104C38.1473 25.6833 38.2316 25.7664 38.3022 25.8599C38.3729 25.951 38.4276 26.0513 38.4663 26.1606C38.505 26.2723 38.5244 26.3942 38.5244 26.5264C38.5244 26.6676 38.4971 26.7952 38.4424 26.9092C38.39 27.0254 38.3136 27.1245 38.2134 27.2065C38.1131 27.2886 37.9901 27.3524 37.8442 27.3979C37.7007 27.4435 37.5378 27.4663 37.3555 27.4663C37.123 27.4663 36.8906 27.4412 36.6582 27.3911C36.4258 27.341 36.1991 27.2681 35.978 27.1724C35.7775 27.2681 35.5622 27.341 35.332 27.3911C35.1042 27.4412 34.8706 27.4663 34.6313 27.4663C34.3989 27.4663 34.1938 27.4435 34.0161 27.3979C33.8384 27.3547 33.688 27.292 33.5649 27.21C33.4442 27.1302 33.3519 27.0334 33.2881 26.9194C33.2266 26.8055 33.1958 26.679 33.1958 26.54C33.1958 26.4329 33.2152 26.3304 33.2539 26.2324C33.2949 26.1367 33.3507 26.0467 33.4214 25.9624C33.4943 25.8781 33.5786 25.8006 33.6743 25.73C33.77 25.6571 33.8748 25.591 33.9888 25.5317C33.786 25.2264 33.6276 24.9051 33.5137 24.5679C33.402 24.2306 33.3462 23.8831 33.3462 23.5254C33.3462 23.1084 33.4191 22.7324 33.5649 22.3975C33.7131 22.0602 33.9181 21.7743 34.1802 21.5396C34.4718 21.2821 34.8125 21.0918 35.2021 20.9688C35.5941 20.8457 36.0213 20.7842 36.4839 20.7842C36.771 20.7842 37.0353 20.8081 37.2769 20.856C37.5207 20.9038 37.7417 20.971 37.9399 21.0576C38.1405 21.1419 38.3182 21.2445 38.4731 21.3652C38.6304 21.4837 38.766 21.6159 38.8799 21.7617C39.0348 21.9577 39.1556 22.1696 39.2422 22.3975C39.3311 22.623 39.3971 22.8691 39.4404 23.1357C39.486 23.4023 39.5133 23.6929 39.5225 24.0073C39.5339 24.3218 39.5396 24.6659 39.5396 25.0396ZM37.0034 25.6753C36.8462 25.6388 36.6855 25.6138 36.5215 25.6001C36.3574 25.5841 36.1979 25.5762 36.043 25.5762C35.9473 25.5762 35.8459 25.5796 35.7388 25.5864C35.6317 25.5933 35.5234 25.6035 35.4141 25.6172C35.3047 25.6286 35.1953 25.6445 35.0859 25.665C34.9788 25.6833 34.8763 25.7061 34.7783 25.7334C34.9447 25.9271 35.1258 26.1037 35.3218 26.2632C35.5177 26.4227 35.7262 26.5583 35.9473 26.6699C36.1683 26.5492 36.3665 26.4033 36.542 26.2324C36.7197 26.0638 36.8735 25.8781 37.0034 25.6753ZM35.3936 26.8784C35.1794 26.7485 34.9788 26.6038 34.792 26.4443C34.6074 26.2848 34.4365 26.1105 34.2793 25.9214C34.2018 25.9578 34.13 25.9977 34.064 26.041C34.0002 26.0843 33.9443 26.131 33.8965 26.1812C33.8486 26.2313 33.811 26.2837 33.7837 26.3384C33.7586 26.3931 33.7461 26.4512 33.7461 26.5127C33.7461 26.5947 33.7677 26.6654 33.811 26.7246C33.8543 26.7861 33.9136 26.8363 33.9888 26.875C34.0662 26.916 34.1574 26.9456 34.2622 26.9639C34.3693 26.9821 34.4855 26.9912 34.6108 26.9912C34.7498 26.9912 34.8831 26.981 35.0107 26.9604C35.1406 26.9422 35.2682 26.9149 35.3936 26.8784ZM37.9912 26.458C37.9912 26.319 37.9468 26.1994 37.8579 26.0991C37.769 25.9989 37.6528 25.9146 37.5093 25.8462C37.2563 26.2586 36.9282 26.6016 36.5249 26.875C36.6525 26.9137 36.7824 26.9422 36.9146 26.9604C37.049 26.981 37.1846 26.9912 37.3213 26.9912C37.5423 26.9912 37.7087 26.9434 37.8203 26.8477C37.9342 26.752 37.9912 26.6221 37.9912 26.458ZM36.4019 23.4502C36.4019 23.3636 36.387 23.2839 36.3574 23.2109C36.3301 23.1357 36.2913 23.0708 36.2412 23.0161C36.1911 22.9591 36.1318 22.9136 36.0635 22.8794C35.9951 22.8452 35.9222 22.8247 35.8447 22.8179C35.7786 22.8315 35.7171 22.8566 35.6602 22.8931C35.6032 22.9272 35.5531 22.9705 35.5098 23.0229C35.4665 23.0754 35.4323 23.1369 35.4072 23.2075C35.3844 23.2759 35.373 23.3522 35.373 23.4365C35.373 23.5186 35.3856 23.5926 35.4106 23.6587C35.4357 23.7248 35.471 23.7817 35.5166 23.8296C35.5645 23.8774 35.6203 23.9139 35.6841 23.939C35.7479 23.964 35.8185 23.9766 35.896 23.9766C36.0509 23.9766 36.174 23.931 36.2651 23.8398C36.3563 23.7487 36.4019 23.6188 36.4019 23.4502ZM47.3188 26V22.0728C47.3188 21.7993 47.2995 21.5521 47.2607 21.3311C47.222 21.11 47.1559 20.922 47.0625 20.7671C46.9691 20.6121 46.8438 20.4937 46.6865 20.4116C46.5316 20.3273 46.3368 20.2852 46.1021 20.2852C45.9266 20.2852 45.7637 20.3136 45.6133 20.3706C45.4652 20.4276 45.3364 20.5096 45.2271 20.6167C45.1177 20.7215 45.0311 20.8514 44.9673 21.0063C44.9058 21.159 44.875 21.3311 44.875 21.5225C44.875 21.6706 44.891 21.8062 44.9229 21.9292C44.957 22.0522 45.0049 22.1582 45.0664 22.2471C45.1302 22.3359 45.2065 22.4054 45.2954 22.4556C45.3866 22.5034 45.488 22.5273 45.5996 22.5273C45.6292 22.5273 45.66 22.5262 45.6919 22.5239C45.7238 22.5194 45.7511 22.5137 45.7739 22.5068C45.7329 22.4248 45.6885 22.3428 45.6406 22.2607C45.5928 22.1764 45.5415 22.0933 45.4868 22.0112L46.0303 21.8369C46.151 22.0124 46.2547 22.1935 46.3413 22.3804C46.4302 22.5672 46.502 22.7541 46.5566 22.9409C46.6136 23.1278 46.6558 23.3123 46.6831 23.4946C46.7104 23.6746 46.7241 23.8467 46.7241 24.0107C46.7241 24.2933 46.6865 24.5599 46.6113 24.8105C46.5384 25.0589 46.4336 25.2777 46.2969 25.4668C46.1602 25.6536 45.9938 25.8018 45.7979 25.9111C45.6019 26.0205 45.382 26.0752 45.1382 26.0752C44.7257 26.0752 44.4147 25.9556 44.2051 25.7163C43.9977 25.4771 43.8826 25.1136 43.8599 24.626C43.8576 24.569 43.8542 24.4995 43.8496 24.4175C43.8473 24.3354 43.8439 24.2534 43.8394 24.1714C43.8348 24.0894 43.8302 24.0119 43.8257 23.939C43.8211 23.8638 43.8177 23.8045 43.8154 23.7612C43.8086 23.6291 43.7972 23.506 43.7812 23.3921C43.7653 23.2759 43.7425 23.1699 43.7129 23.0742C43.6855 22.9785 43.6491 22.8919 43.6035 22.8145C43.5579 22.7347 43.5021 22.6641 43.436 22.6025C43.3472 22.5228 43.2412 22.4613 43.1182 22.418C42.9974 22.3724 42.8516 22.3496 42.6807 22.3496C42.4688 22.3496 42.2716 22.3906 42.0894 22.4727C41.9071 22.5547 41.7487 22.672 41.6143 22.8247C41.4798 22.9774 41.3739 23.1608 41.2964 23.375C41.2189 23.5892 41.1802 23.8273 41.1802 24.0894C41.1802 24.1304 41.1813 24.1759 41.1836 24.2261C41.1859 24.2762 41.1927 24.3263 41.2041 24.3765H41.2246C41.2565 24.2876 41.3021 24.2067 41.3613 24.1338C41.4229 24.0586 41.4946 23.9959 41.5767 23.9458C41.6587 23.8934 41.7487 23.8535 41.8467 23.8262C41.9469 23.7965 42.0529 23.7817 42.1646 23.7817C42.3195 23.7817 42.4631 23.8091 42.5952 23.8638C42.7274 23.9162 42.8413 23.9902 42.937 24.0859C43.0327 24.1816 43.1079 24.2979 43.1626 24.4346C43.2173 24.569 43.2446 24.7183 43.2446 24.8823C43.2446 25.0532 43.2173 25.2116 43.1626 25.3574C43.1079 25.501 43.0293 25.6263 42.9268 25.7334C42.8242 25.8405 42.7 25.9248 42.5542 25.9863C42.4106 26.0456 42.25 26.0752 42.0723 26.0752C41.8444 26.0752 41.6416 26.0239 41.4639 25.9214C41.2861 25.8188 41.1357 25.6799 41.0127 25.5044C40.8896 25.3289 40.7951 25.125 40.729 24.8926C40.6652 24.6602 40.6333 24.4141 40.6333 24.1543C40.6333 23.7874 40.6868 23.4604 40.7939 23.1733C40.9033 22.8862 41.0514 22.6436 41.2383 22.4453C41.4274 22.2471 41.6484 22.0967 41.9014 21.9941C42.1543 21.8893 42.4243 21.8369 42.7114 21.8369C42.9416 21.8369 43.1466 21.8665 43.3267 21.9258C43.509 21.985 43.665 22.0693 43.7949 22.1787C43.9818 22.3382 44.1185 22.5422 44.2051 22.7905C44.2939 23.0389 44.3509 23.3374 44.376 23.686C44.3783 23.7293 44.3817 23.7886 44.3862 23.8638C44.3908 23.9367 44.3942 24.0142 44.3965 24.0962C44.401 24.1782 44.4045 24.2591 44.4067 24.3389C44.409 24.4186 44.4102 24.4858 44.4102 24.5405C44.417 24.741 44.4364 24.9051 44.4683 25.0327C44.5024 25.1603 44.5571 25.2663 44.6323 25.3506C44.6938 25.4235 44.769 25.4771 44.8579 25.5112C44.9468 25.5454 45.0482 25.5625 45.1621 25.5625C45.3125 25.5625 45.4481 25.5249 45.5688 25.4497C45.6896 25.3745 45.7922 25.2697 45.8765 25.1353C45.9631 25.0008 46.0291 24.8413 46.0747 24.6567C46.1226 24.4699 46.1465 24.266 46.1465 24.0449C46.1465 23.874 46.1317 23.6986 46.1021 23.5186C46.0724 23.3385 46.0246 23.1562 45.9585 22.9717C45.9198 22.9831 45.8674 22.9922 45.8013 22.999C45.7375 23.0059 45.6714 23.0093 45.603 23.0093C45.3774 23.0093 45.1838 22.966 45.022 22.8794C44.8625 22.7905 44.7314 22.6766 44.6289 22.5376C44.5264 22.3963 44.45 22.238 44.3999 22.0625C44.3521 21.887 44.3281 21.7116 44.3281 21.5361C44.3281 21.2627 44.3737 21.0177 44.4648 20.8013C44.5583 20.5848 44.6859 20.4014 44.8477 20.251C45.0094 20.0983 45.1997 19.9821 45.4185 19.9023C45.6395 19.8203 45.8787 19.7793 46.1362 19.7793C46.4256 19.7793 46.6774 19.8237 46.8916 19.9126C47.1058 19.9992 47.2835 20.1257 47.4248 20.292C47.5911 20.4902 47.7085 20.7261 47.7769 20.9995C47.8452 21.2729 47.8794 21.5977 47.8794 21.9736V26H47.3188ZM42.6841 24.9165C42.6841 24.8254 42.6704 24.7399 42.6431 24.6602C42.6157 24.5804 42.5758 24.5109 42.5234 24.4517C42.471 24.3924 42.4061 24.3457 42.3286 24.3115C42.2511 24.2773 42.1623 24.2603 42.062 24.2603C41.9663 24.2603 41.8786 24.2773 41.7988 24.3115C41.7191 24.3457 41.6496 24.3924 41.5903 24.4517C41.5334 24.5109 41.4889 24.5804 41.457 24.6602C41.4251 24.7399 41.4092 24.8254 41.4092 24.9165C41.4092 25.019 41.4251 25.1125 41.457 25.1968C41.4889 25.2811 41.5334 25.354 41.5903 25.4155C41.6496 25.4748 41.7179 25.5215 41.7954 25.5557C41.8752 25.5898 41.9618 25.6069 42.0552 25.6069C42.1395 25.6069 42.2192 25.5933 42.2944 25.5659C42.3719 25.5363 42.4391 25.493 42.4961 25.436C42.5531 25.3791 42.5986 25.3073 42.6328 25.2207C42.667 25.1341 42.6841 25.0327 42.6841 24.9165ZM55.4023 24.749C55.4023 25.1729 55.3317 25.5511 55.1904 25.8838C55.0514 26.2142 54.8577 26.4933 54.6094 26.7212C54.3405 26.9696 54.0169 27.1553 53.6387 27.2783C53.2627 27.4036 52.8332 27.4663 52.3501 27.4663C51.8625 27.4663 51.4159 27.3934 51.0103 27.2476C50.6047 27.1017 50.256 26.8932 49.9644 26.6221C49.6727 26.3509 49.446 26.0216 49.2842 25.6343C49.1224 25.2469 49.0415 24.8117 49.0415 24.3286C49.0415 24.0802 49.0654 23.841 49.1133 23.6108C49.1634 23.3807 49.2318 23.1631 49.3184 22.958C49.4072 22.7529 49.5132 22.5627 49.6362 22.3872C49.7593 22.2118 49.896 22.0534 50.0464 21.9121L50.6377 22.0762C50.3073 22.3405 50.0521 22.6595 49.8721 23.0332C49.6921 23.4069 49.6021 23.8273 49.6021 24.2944C49.6021 24.7342 49.6704 25.1204 49.8071 25.4531C49.9461 25.7835 50.1375 26.0592 50.3813 26.2803C50.6274 26.5036 50.918 26.6711 51.2529 26.7827C51.5902 26.8966 51.957 26.9536 52.3535 26.9536C52.7523 26.9536 53.1043 26.908 53.4097 26.8169C53.7173 26.7257 53.9759 26.5879 54.1855 26.4033C54.3952 26.221 54.5535 25.9932 54.6606 25.7197C54.77 25.4463 54.8247 25.1261 54.8247 24.7593C54.8247 24.6112 54.8145 24.4688 54.7939 24.332C54.7757 24.193 54.7393 24.07 54.6846 23.9629C54.6322 23.8558 54.5581 23.7703 54.4624 23.7065C54.369 23.6427 54.2471 23.6108 54.0967 23.6108C53.8278 23.6108 53.6227 23.7043 53.4814 23.8911C53.3402 24.078 53.2695 24.356 53.2695 24.7251V26H52.709V22.4111H51.564V26H51.0034V21.9087H54.6504V22.4111H53.2695V23.5493H53.2798C53.3732 23.408 53.4974 23.2975 53.6523 23.2178C53.8073 23.1357 53.9862 23.0947 54.189 23.0947C54.4054 23.0947 54.59 23.1369 54.7427 23.2212C54.8976 23.3032 55.0229 23.4183 55.1187 23.5664C55.2166 23.7145 55.2884 23.89 55.334 24.0928C55.3796 24.2933 55.4023 24.512 55.4023 24.749ZM61.0249 24.7627C61.0249 25.2048 60.9634 25.5682 60.8403 25.853C60.7173 26.1356 60.5316 26.3623 60.2832 26.5332C60.1624 26.6175 60.0303 26.6859 59.8867 26.7383C59.7432 26.793 59.5894 26.8351 59.4253 26.8647C59.2612 26.8944 59.0869 26.9149 58.9023 26.9263C58.7201 26.9377 58.5298 26.9434 58.3315 26.9434C58.2336 26.9434 58.1322 26.9422 58.0273 26.9399C57.9225 26.9399 57.82 26.9388 57.7197 26.9365C57.6195 26.9365 57.5249 26.9354 57.436 26.9331C57.3472 26.9331 57.2686 26.9331 57.2002 26.9331C57.068 26.9331 56.9735 26.9491 56.9165 26.981C56.8618 27.0151 56.8345 27.0755 56.8345 27.1621C56.8345 27.2145 56.8402 27.2658 56.8516 27.3159C56.8652 27.366 56.8835 27.4162 56.9062 27.4663H56.4004C56.3776 27.4139 56.356 27.3524 56.3354 27.2817C56.3172 27.2134 56.3081 27.1439 56.3081 27.0732C56.3081 26.859 56.3787 26.6995 56.52 26.5947C56.6613 26.4922 56.8664 26.4409 57.1353 26.4409C57.2218 26.4409 57.321 26.4409 57.4326 26.4409C57.5465 26.4432 57.6628 26.4443 57.7812 26.4443C57.8997 26.4466 58.0171 26.4478 58.1333 26.4478C58.2518 26.45 58.3589 26.4512 58.4546 26.4512C58.7622 26.4512 59.0425 26.4295 59.2954 26.3862C59.5483 26.3452 59.7637 26.2598 59.9414 26.1299C60.1146 26.0046 60.2422 25.8371 60.3242 25.6274C60.4062 25.4178 60.4473 25.1523 60.4473 24.8311C60.4473 24.6169 60.4313 24.4289 60.3994 24.2671C60.3698 24.103 60.3105 23.972 60.2217 23.874C60.1693 23.8125 60.1043 23.7646 60.0269 23.7305C59.9494 23.694 59.8525 23.6758 59.7363 23.6758C59.4515 23.6758 59.2362 23.7646 59.0903 23.9424C58.9468 24.1201 58.875 24.3822 58.875 24.7285V26H58.3145V22.4111H57.1421V26H56.5815V21.9087H60.6045V22.4111H58.875V23.6279H58.8853C58.9878 23.4684 59.1211 23.3511 59.2852 23.2759C59.4515 23.2007 59.6395 23.1631 59.8491 23.1631C60.0428 23.1631 60.2103 23.1984 60.3516 23.269C60.4928 23.3374 60.6125 23.4342 60.7104 23.5596C60.8198 23.6986 60.8996 23.8706 60.9497 24.0757C60.9998 24.2785 61.0249 24.5075 61.0249 24.7627ZM59.1006 20.603C59.1006 20.6737 59.0881 20.7397 59.063 20.8013C59.0356 20.8628 58.9992 20.9163 58.9536 20.9619C58.908 21.0075 58.8545 21.0439 58.793 21.0713C58.7314 21.0964 58.6654 21.1089 58.5947 21.1089C58.5241 21.1089 58.458 21.0964 58.3965 21.0713C58.335 21.0439 58.2814 21.0075 58.2358 20.9619C58.1903 20.9163 58.1549 20.8628 58.1299 20.8013C58.1025 20.7397 58.0889 20.6737 58.0889 20.603C58.0889 20.5324 58.1025 20.4663 58.1299 20.4048C58.1549 20.341 58.1903 20.2863 58.2358 20.2407C58.2814 20.1951 58.335 20.1587 58.3965 20.1313C58.458 20.104 58.5241 20.0903 58.5947 20.0903C58.6654 20.0903 58.7314 20.104 58.793 20.1313C58.8545 20.1587 58.908 20.1951 58.9536 20.2407C58.9992 20.2863 59.0356 20.341 59.063 20.4048C59.0881 20.4663 59.1006 20.5324 59.1006 20.603ZM66.7568 26.1675C66.6475 26.3908 66.5073 26.5833 66.3364 26.7451C66.1655 26.9092 65.9661 27.0448 65.7383 27.1519C65.5127 27.259 65.2609 27.3376 64.9829 27.3877C64.7049 27.4401 64.4053 27.4663 64.084 27.4663C63.7536 27.4663 63.4448 27.4367 63.1577 27.3774C62.8706 27.3205 62.62 27.2384 62.4058 27.1313C62.1938 27.0243 62.0264 26.8944 61.9033 26.7417C61.7803 26.589 61.7188 26.4181 61.7188 26.229C61.7188 26.0376 61.7882 25.8975 61.9272 25.8086C62.0685 25.7197 62.2759 25.6753 62.5493 25.6753H66.3467C66.3763 25.5728 66.3979 25.4645 66.4116 25.3506C66.4276 25.2344 66.4355 25.1113 66.4355 24.9814C66.4355 24.8014 66.4185 24.6419 66.3843 24.5029C66.3524 24.3617 66.3011 24.2432 66.2305 24.1475C66.1598 24.0495 66.0687 23.9754 65.957 23.9253C65.8454 23.8752 65.7109 23.8501 65.5537 23.8501H65.2461V23.98C65.2461 24.2284 65.2108 24.4391 65.1401 24.6123C65.0718 24.7855 64.9567 24.9359 64.7949 25.0635C64.6605 25.1706 64.5021 25.2492 64.3198 25.2993C64.1375 25.3494 63.9313 25.3745 63.7012 25.3745C63.4574 25.3745 63.2397 25.3483 63.0483 25.2959C62.8592 25.2412 62.6997 25.166 62.5698 25.0703C62.4399 24.9723 62.3408 24.8561 62.2725 24.7217C62.2041 24.585 62.1699 24.4346 62.1699 24.2705C62.1699 23.9993 62.2417 23.7931 62.3853 23.6519C62.5311 23.5083 62.7293 23.416 62.98 23.375V21.9087H66.5381V22.4111H65.2461V23.3545H65.5161C65.7668 23.3545 65.9798 23.3853 66.1553 23.4468C66.333 23.506 66.4902 23.6074 66.627 23.751C66.7568 23.8877 66.8525 24.0552 66.9141 24.2534C66.9756 24.4517 67.0063 24.6807 67.0063 24.9404C67.0063 25.0749 66.9995 25.2025 66.9858 25.3232C66.9722 25.444 66.9528 25.5614 66.9277 25.6753H67.7822V21.9087H68.3428V26.1675H66.7568ZM62.5425 26.1675C62.4468 26.1675 62.3796 26.1755 62.3408 26.1914C62.3021 26.2074 62.2827 26.2427 62.2827 26.2974C62.2827 26.3657 62.326 26.4386 62.4126 26.5161C62.5015 26.5936 62.6257 26.6642 62.7852 26.728C62.9469 26.7941 63.1395 26.8488 63.3628 26.8921C63.5861 26.9354 63.8333 26.957 64.1045 26.957C64.3073 26.957 64.5067 26.9445 64.7026 26.9194C64.9009 26.8944 65.0877 26.8511 65.2632 26.7896C65.4386 26.7303 65.5993 26.6494 65.7451 26.5469C65.8932 26.4466 66.0186 26.3201 66.1211 26.1675H62.5425ZM64.6855 23.8501H63.5166C63.4163 23.8501 63.3206 23.8547 63.2295 23.8638C63.1383 23.8729 63.0563 23.8934 62.9834 23.9253C62.9128 23.9549 62.8558 23.9982 62.8125 24.0552C62.7715 24.1121 62.751 24.1896 62.751 24.2876C62.751 24.3879 62.7726 24.4744 62.8159 24.5474C62.8615 24.6203 62.9253 24.6807 63.0073 24.7285C63.0916 24.7764 63.1919 24.8128 63.3081 24.8379C63.4243 24.8607 63.5542 24.8721 63.6978 24.8721C63.8595 24.8721 63.9997 24.8538 64.1182 24.8174C64.2389 24.7809 64.3426 24.7297 64.4292 24.6636C64.5158 24.5952 64.5796 24.5086 64.6206 24.4038C64.6639 24.2967 64.6855 24.1646 64.6855 24.0073V23.8501ZM64.6855 22.4111H63.5405V23.3545H64.6855V22.4111ZM71.6685 26V21.9087H72.229V25.4976H75.6606V21.9087H76.2212V26H71.6685ZM83.792 23.1221C83.792 23.252 83.792 23.3818 83.792 23.5117C83.792 23.6416 83.7909 23.7692 83.7886 23.8945L83.7646 26H83.2075L83.2314 23.9321C83.2337 23.8045 83.2337 23.6803 83.2314 23.5596C83.2314 23.4365 83.2314 23.3135 83.2314 23.1904C83.2314 22.696 83.187 22.2744 83.0981 21.9258C83.0116 21.5771 82.8657 21.2843 82.6606 21.0474C82.5627 20.9334 82.4408 20.832 82.2949 20.7432C82.1514 20.652 81.9862 20.5745 81.7993 20.5107C81.6147 20.4469 81.4108 20.3991 81.1875 20.3672C80.9665 20.333 80.7295 20.3159 80.4766 20.3159C80.071 20.3159 79.7087 20.3626 79.3896 20.4561C79.0706 20.5472 78.8006 20.6759 78.5796 20.8423C78.3608 21.0086 78.1934 21.208 78.0771 21.4404C77.9632 21.6706 77.9062 21.9235 77.9062 22.1992C77.9062 22.4453 77.9404 22.6629 78.0088 22.8521C78.0771 23.0389 78.1683 23.1973 78.2822 23.3271V21.9087H82.1719V22.4111H80.6133V23.6655H80.9995C81.2433 23.6655 81.4644 23.6929 81.6626 23.7476C81.8631 23.8022 82.034 23.8877 82.1753 24.0039C82.3166 24.1201 82.4259 24.2694 82.5034 24.4517C82.5809 24.634 82.6196 24.8527 82.6196 25.1079C82.6196 25.4064 82.5649 25.6696 82.4556 25.8975C82.3485 26.1253 82.1935 26.3156 81.9907 26.4683C81.7879 26.6232 81.5407 26.7394 81.249 26.8169C80.9596 26.8966 80.6326 26.9365 80.2681 26.9365C79.9217 26.9365 79.5845 26.9354 79.2563 26.9331C78.9305 26.9331 78.6126 26.9331 78.3027 26.9331C78.166 26.9331 78.0692 26.9491 78.0122 26.981C77.9575 27.0151 77.9302 27.0755 77.9302 27.1621C77.9302 27.2145 77.9359 27.2658 77.9473 27.3159C77.9609 27.366 77.9803 27.4162 78.0054 27.4663H77.5029C77.4779 27.4093 77.4551 27.3467 77.4346 27.2783C77.4163 27.2122 77.4072 27.1439 77.4072 27.0732C77.4072 26.8568 77.4779 26.6973 77.6191 26.5947C77.7627 26.4922 77.9701 26.4409 78.2412 26.4409C78.3734 26.4409 78.5215 26.4409 78.6855 26.4409C78.8519 26.4409 79.0262 26.4409 79.2085 26.4409C79.3931 26.4432 79.5822 26.4443 79.7759 26.4443C79.9718 26.4443 80.1644 26.4443 80.3535 26.4443C80.5928 26.4443 80.8149 26.4181 81.02 26.3657C81.2251 26.3133 81.4028 26.2324 81.5532 26.123C81.7036 26.016 81.8221 25.8815 81.9087 25.7197C81.9953 25.5557 82.0386 25.3631 82.0386 25.1421C82.0386 24.9575 82.0124 24.8037 81.96 24.6807C81.9098 24.5553 81.8392 24.4551 81.748 24.3799C81.6592 24.3024 81.5521 24.2477 81.4268 24.2158C81.3037 24.1816 81.1693 24.1646 81.0234 24.1646H80.6133V24.5098C80.6133 24.7923 80.5768 25.0293 80.5039 25.2207C80.431 25.4121 80.3216 25.5739 80.1758 25.7061C79.8978 25.9521 79.5047 26.0752 78.9966 26.0752C78.7391 26.0752 78.5124 26.0422 78.3164 25.9761C78.1227 25.9077 77.9598 25.8154 77.8276 25.6992C77.6978 25.583 77.5998 25.4474 77.5337 25.2925C77.4676 25.1375 77.4346 24.9723 77.4346 24.7969C77.4346 24.5417 77.4904 24.332 77.6021 24.168C77.716 24.0016 77.88 23.8752 78.0942 23.7886C77.9826 23.702 77.88 23.6029 77.7866 23.4912C77.6955 23.3796 77.6169 23.2565 77.5508 23.1221C77.487 22.9876 77.4368 22.8429 77.4004 22.688C77.3662 22.533 77.3491 22.3701 77.3491 22.1992C77.3491 21.8597 77.4209 21.5441 77.5645 21.2524C77.7103 20.9608 77.9176 20.7078 78.1865 20.4937C78.4577 20.2772 78.7869 20.1074 79.1743 19.9844C79.5617 19.8613 79.998 19.7998 80.4834 19.7998C81.0872 19.7998 81.6068 19.8761 82.042 20.0288C82.4795 20.1815 82.8247 20.4014 83.0776 20.6885C83.2007 20.8252 83.3066 20.9767 83.3955 21.1431C83.4844 21.3094 83.5584 21.4928 83.6177 21.6934C83.6769 21.8916 83.7202 22.1092 83.7476 22.3462C83.7772 22.5832 83.792 22.8418 83.792 23.1221ZM80.0527 24.1646H78.8188C78.5568 24.1646 78.3574 24.2124 78.2207 24.3081C78.084 24.4038 78.0156 24.5622 78.0156 24.7832C78.0156 24.8971 78.0361 25.002 78.0771 25.0977C78.1204 25.1934 78.1831 25.2754 78.2651 25.3438C78.3494 25.4121 78.4543 25.4657 78.5796 25.5044C78.7049 25.5431 78.8507 25.5625 79.0171 25.5625C79.368 25.5625 79.6278 25.4793 79.7964 25.313C79.9673 25.1444 80.0527 24.8755 80.0527 24.5063V24.1646ZM80.0527 22.4111H78.8428V23.6655H80.0527V22.4111ZM91.9233 26V21.8369C91.9233 21.6045 91.9062 21.3937 91.8721 21.2046C91.8402 21.0132 91.7821 20.8491 91.6978 20.7124C91.6157 20.5757 91.5029 20.4709 91.3594 20.3979C91.2181 20.3228 91.0381 20.2852 90.8193 20.2852C90.6576 20.2852 90.5094 20.3091 90.375 20.3569C90.2406 20.4048 90.1243 20.4743 90.0264 20.5654C89.9284 20.6543 89.8521 20.7625 89.7974 20.8901C89.745 21.0177 89.7188 21.1613 89.7188 21.3208C89.7188 21.6011 89.7803 21.8346 89.9033 22.0215C90.0286 22.2083 90.2064 22.328 90.4365 22.3804V21.9087H90.9971V26H88.0132V25.6172C88.118 25.4964 88.2103 25.3688 88.29 25.2344C88.3698 25.0999 88.4359 24.9609 88.4883 24.8174C88.5407 24.6738 88.5794 24.528 88.6045 24.3799C88.6318 24.2318 88.6455 24.0848 88.6455 23.939C88.6455 23.702 88.609 23.4867 88.5361 23.293C88.4655 23.097 88.3641 22.9295 88.2319 22.7905C88.0998 22.6493 87.9403 22.541 87.7534 22.4658C87.5666 22.3883 87.3592 22.3496 87.1313 22.3496C86.9035 22.3496 86.6893 22.3918 86.4888 22.4761C86.2905 22.5581 86.1162 22.6755 85.9658 22.8281C85.8177 22.9808 85.7004 23.1642 85.6138 23.3784C85.5295 23.5903 85.4873 23.8273 85.4873 24.0894C85.4873 24.1304 85.4884 24.1771 85.4907 24.2295C85.4953 24.2796 85.5033 24.3286 85.5146 24.3765H85.5352C85.5671 24.2876 85.6126 24.2067 85.6719 24.1338C85.7334 24.0586 85.8052 23.9959 85.8872 23.9458C85.9692 23.8934 86.0604 23.8535 86.1606 23.8262C86.2609 23.7965 86.3669 23.7817 86.4785 23.7817C86.6312 23.7817 86.7736 23.8079 86.9058 23.8604C87.0379 23.9128 87.1519 23.988 87.2476 24.0859C87.3455 24.1816 87.4219 24.2979 87.4766 24.4346C87.5312 24.569 87.5586 24.7183 87.5586 24.8823C87.5586 25.0532 87.5312 25.2116 87.4766 25.3574C87.4219 25.501 87.3433 25.6263 87.2407 25.7334C87.1382 25.8405 87.014 25.9248 86.8682 25.9863C86.7246 26.0456 86.5628 26.0752 86.3828 26.0752C86.221 26.0752 86.0729 26.049 85.9385 25.9966C85.804 25.9442 85.6833 25.8724 85.5762 25.7812C85.4714 25.6878 85.3791 25.5796 85.2993 25.4565C85.2196 25.3312 85.1535 25.1968 85.1011 25.0532C85.0487 24.9097 85.0088 24.7604 84.9814 24.6055C84.9564 24.4505 84.9438 24.2967 84.9438 24.144C84.9438 23.7726 85.002 23.4445 85.1182 23.1597C85.2367 22.8726 85.3962 22.631 85.5967 22.4351C85.7995 22.2391 86.0353 22.091 86.3042 21.9907C86.5731 21.8882 86.859 21.8369 87.1621 21.8369C87.4469 21.8369 87.7147 21.8825 87.9653 21.9736C88.216 22.0625 88.4336 22.1947 88.6182 22.3701C88.805 22.5433 88.952 22.7575 89.0591 23.0127C89.1685 23.2679 89.2231 23.5618 89.2231 23.8945C89.2231 24.0381 89.2118 24.1816 89.189 24.3252C89.1685 24.4688 89.1377 24.61 89.0967 24.749C89.0557 24.8857 89.0044 25.0179 88.9429 25.1455C88.8836 25.2731 88.8164 25.3905 88.7412 25.4976H90.4365V22.8931C90.2337 22.8657 90.0537 22.8053 89.8965 22.7119C89.7415 22.6185 89.6094 22.5023 89.5 22.3633C89.3929 22.2243 89.3109 22.0659 89.2539 21.8882C89.1992 21.7104 89.1719 21.5225 89.1719 21.3242C89.1719 21.085 89.214 20.8696 89.2983 20.6782C89.3849 20.4868 89.5023 20.325 89.6504 20.1929C89.8008 20.0584 89.9762 19.9559 90.1768 19.8853C90.3796 19.8123 90.5972 19.7759 90.8296 19.7759C91.1121 19.7759 91.3571 19.818 91.5645 19.9023C91.7741 19.9867 91.9461 20.1108 92.0806 20.2749C92.2173 20.439 92.3187 20.6418 92.3848 20.8833C92.4508 21.1226 92.4839 21.3983 92.4839 21.7104V26H91.9233ZM86.9946 24.9165C86.9946 24.8254 86.981 24.7399 86.9536 24.6602C86.9263 24.5804 86.8864 24.5109 86.834 24.4517C86.7816 24.3924 86.7166 24.3457 86.6392 24.3115C86.564 24.2773 86.4762 24.2603 86.376 24.2603C86.2803 24.2603 86.1914 24.2773 86.1094 24.3115C86.0296 24.3457 85.9601 24.3924 85.9009 24.4517C85.8439 24.5109 85.7995 24.5804 85.7676 24.6602C85.7357 24.7399 85.7197 24.8254 85.7197 24.9165C85.7197 25.019 85.7357 25.1125 85.7676 25.1968C85.7995 25.2811 85.8439 25.354 85.9009 25.4155C85.9601 25.4748 86.0296 25.5215 86.1094 25.5557C86.1891 25.5898 86.2757 25.6069 86.3691 25.6069C86.4535 25.6069 86.5332 25.5933 86.6084 25.5659C86.6859 25.5363 86.7531 25.493 86.8101 25.436C86.867 25.3768 86.9115 25.305 86.9434 25.2207C86.9775 25.1341 86.9946 25.0327 86.9946 24.9165ZM99.0293 24.209C99.0293 24.6442 98.9723 25.0384 98.8584 25.3916C98.7467 25.7425 98.5713 26.0387 98.332 26.2803C98.1178 26.499 97.8547 26.6642 97.5425 26.7759C97.2303 26.8875 96.8646 26.9434 96.4453 26.9434C96.304 26.9434 96.1536 26.9422 95.9941 26.9399C95.8346 26.9399 95.6717 26.9399 95.5054 26.9399C95.3413 26.9399 95.1761 26.9388 95.0098 26.9365C94.8457 26.9365 94.6873 26.9365 94.5347 26.9365C94.4025 26.9365 94.3091 26.9525 94.2544 26.9844C94.202 27.0163 94.1758 27.0755 94.1758 27.1621C94.1758 27.2669 94.1997 27.3683 94.2476 27.4663H93.7417C93.7189 27.4139 93.6973 27.3524 93.6768 27.2817C93.6585 27.2134 93.6494 27.1439 93.6494 27.0732C93.6494 26.6517 93.9251 26.4409 94.4766 26.4409C94.5586 26.4409 94.652 26.4409 94.7568 26.4409C94.8639 26.4409 94.9767 26.4409 95.0952 26.4409C95.216 26.4409 95.3379 26.4409 95.4609 26.4409C95.584 26.4432 95.7036 26.4443 95.8198 26.4443C95.936 26.4443 96.0443 26.4443 96.1445 26.4443C96.2448 26.4443 96.3314 26.4443 96.4043 26.4443C96.737 26.4443 97.0309 26.401 97.2861 26.3145C97.5436 26.2279 97.759 26.0923 97.9321 25.9077C98.1053 25.7209 98.234 25.4884 98.3184 25.2104C98.4049 24.9302 98.4482 24.6055 98.4482 24.2363C98.4482 23.9355 98.4277 23.6689 98.3867 23.4365C98.3457 23.2018 98.283 23.0047 98.1987 22.8452C98.1167 22.6834 98.0142 22.5604 97.8911 22.4761C97.7681 22.3918 97.6245 22.3496 97.4604 22.3496C97.3283 22.3496 97.2052 22.3735 97.0913 22.4214C96.9797 22.467 96.8817 22.5433 96.7974 22.6504C96.7153 22.7552 96.6504 22.8931 96.6025 23.064C96.5547 23.2326 96.5308 23.4399 96.5308 23.686V26H95.9702V23.6655C95.9702 23.2052 95.9053 22.8714 95.7754 22.6641C95.6455 22.4544 95.4564 22.3496 95.208 22.3496C95.0326 22.3496 94.8924 22.3838 94.7876 22.4521C94.6828 22.5182 94.6019 22.6185 94.5449 22.7529C94.4902 22.8874 94.4538 23.056 94.4355 23.2588C94.4173 23.4616 94.4082 23.6974 94.4082 23.9663C94.4082 24.0757 94.4082 24.1885 94.4082 24.3047C94.4105 24.4186 94.4116 24.5519 94.4116 24.7046C94.4139 24.8573 94.4162 25.0384 94.4185 25.248C94.423 25.4554 94.4287 25.7061 94.4355 26H93.875C93.8682 25.681 93.8625 25.4132 93.8579 25.1968C93.8556 24.978 93.8534 24.7923 93.8511 24.6396C93.8511 24.4847 93.8499 24.3537 93.8477 24.2466C93.8477 24.1395 93.8477 24.0381 93.8477 23.9424C93.8477 23.7168 93.8545 23.5163 93.8682 23.3408C93.8818 23.1631 93.9023 23.0059 93.9297 22.8691C93.9593 22.7301 93.998 22.6094 94.0459 22.5068C94.0938 22.402 94.153 22.3086 94.2236 22.2266C94.3421 22.0898 94.48 21.9907 94.6372 21.9292C94.7967 21.8677 94.9836 21.8369 95.1978 21.8369C95.4644 21.8369 95.6888 21.9076 95.8711 22.0488C96.0557 22.1878 96.1878 22.3747 96.2676 22.6094H96.2881C96.3314 22.4932 96.3918 22.3883 96.4692 22.2949C96.549 22.1992 96.6401 22.1172 96.7427 22.0488C96.8452 21.9805 96.958 21.9281 97.0811 21.8916C97.2064 21.8551 97.3363 21.8369 97.4707 21.8369C97.6917 21.8369 97.8968 21.8813 98.0859 21.9702C98.2751 22.0568 98.4391 22.1958 98.5781 22.3872C98.7194 22.5786 98.8299 22.8247 98.9097 23.1255C98.9894 23.424 99.0293 23.7852 99.0293 24.209ZM105.281 24.8652C105.281 25.0498 105.253 25.2161 105.199 25.3643C105.146 25.5124 105.07 25.64 104.97 25.7471C104.869 25.8519 104.745 25.9328 104.597 25.9897C104.451 26.0467 104.286 26.0752 104.102 26.0752C103.985 26.0752 103.87 26.0672 103.756 26.0513C103.642 26.0353 103.541 26.016 103.452 25.9932V25.4531C103.534 25.4919 103.629 25.5238 103.736 25.5488C103.843 25.5739 103.955 25.5864 104.071 25.5864C104.276 25.5864 104.432 25.526 104.539 25.4053C104.646 25.2822 104.7 25.1136 104.7 24.8994C104.7 24.765 104.679 24.651 104.638 24.5576C104.599 24.4642 104.54 24.389 104.46 24.332C104.383 24.2728 104.286 24.2306 104.17 24.2056C104.056 24.1782 103.924 24.1646 103.773 24.1646H103.134V24.5098C103.134 24.7946 103.098 25.0339 103.025 25.2275C102.952 25.4189 102.84 25.5807 102.69 25.7129C102.553 25.8314 102.386 25.9214 102.188 25.9829C101.992 26.0444 101.768 26.0752 101.518 26.0752C101.26 26.0752 101.033 26.0422 100.837 25.9761C100.644 25.9077 100.481 25.8154 100.349 25.6992C100.219 25.583 100.121 25.4474 100.055 25.2925C99.9886 25.1375 99.9556 24.9723 99.9556 24.7969C99.9556 24.5713 99.9989 24.3822 100.085 24.2295C100.172 24.0745 100.293 23.9515 100.448 23.8604C100.5 23.8285 100.556 23.8 100.615 23.7749C100.674 23.7498 100.738 23.7293 100.807 23.7134V21.9087H104.693V22.4111H103.134V23.6655H103.78C104.013 23.6655 104.219 23.6872 104.399 23.7305C104.579 23.7715 104.732 23.8353 104.857 23.9219C104.994 24.0221 105.098 24.1497 105.171 24.3047C105.244 24.4596 105.281 24.6465 105.281 24.8652ZM102.574 24.1646H101.34C101.078 24.1646 100.878 24.2124 100.742 24.3081C100.605 24.4038 100.537 24.5622 100.537 24.7832C100.537 24.8971 100.557 25.002 100.598 25.0977C100.641 25.1934 100.705 25.2754 100.79 25.3438C100.874 25.4121 100.979 25.4657 101.104 25.5044C101.229 25.5431 101.374 25.5625 101.538 25.5625C101.889 25.5625 102.149 25.4793 102.317 25.313C102.488 25.1444 102.574 24.8755 102.574 24.5063V24.1646ZM102.574 22.4111H101.364V23.6655H102.574V22.4111ZM103.363 20.603C103.363 20.6737 103.351 20.7397 103.326 20.8013C103.298 20.8628 103.262 20.9163 103.216 20.9619C103.171 21.0075 103.117 21.0439 103.056 21.0713C102.994 21.0964 102.928 21.1089 102.857 21.1089C102.787 21.1089 102.721 21.0964 102.659 21.0713C102.598 21.0439 102.544 21.0075 102.499 20.9619C102.453 20.9163 102.418 20.8628 102.393 20.8013C102.365 20.7397 102.352 20.6737 102.352 20.603C102.352 20.5324 102.365 20.4663 102.393 20.4048C102.418 20.341 102.453 20.2863 102.499 20.2407C102.544 20.1951 102.598 20.1587 102.659 20.1313C102.721 20.104 102.787 20.0903 102.857 20.0903C102.928 20.0903 102.994 20.104 103.056 20.1313C103.117 20.1587 103.171 20.1951 103.216 20.2407C103.262 20.2863 103.298 20.341 103.326 20.4048C103.351 20.4663 103.363 20.5324 103.363 20.603ZM111.481 24.8652C111.481 25.0498 111.454 25.2161 111.399 25.3643C111.347 25.5124 111.27 25.64 111.17 25.7471C111.07 25.8519 110.945 25.9328 110.797 25.9897C110.652 26.0467 110.486 26.0752 110.302 26.0752C110.186 26.0752 110.07 26.0672 109.957 26.0513C109.843 26.0353 109.741 26.016 109.652 25.9932V25.4531C109.734 25.4919 109.829 25.5238 109.936 25.5488C110.043 25.5739 110.155 25.5864 110.271 25.5864C110.476 25.5864 110.632 25.526 110.739 25.4053C110.846 25.2822 110.9 25.1136 110.9 24.8994C110.9 24.765 110.879 24.651 110.838 24.5576C110.8 24.4642 110.74 24.389 110.661 24.332C110.583 24.2728 110.486 24.2306 110.37 24.2056C110.256 24.1782 110.124 24.1646 109.974 24.1646H109.334V24.5098C109.334 24.7946 109.298 25.0339 109.225 25.2275C109.152 25.4189 109.041 25.5807 108.89 25.7129C108.753 25.8314 108.586 25.9214 108.388 25.9829C108.192 26.0444 107.968 26.0752 107.718 26.0752C107.46 26.0752 107.234 26.0422 107.038 25.9761C106.844 25.9077 106.681 25.8154 106.549 25.6992C106.419 25.583 106.321 25.4474 106.255 25.2925C106.189 25.1375 106.156 24.9723 106.156 24.7969C106.156 24.5713 106.199 24.3822 106.286 24.2295C106.372 24.0745 106.493 23.9515 106.648 23.8604C106.7 23.8285 106.756 23.8 106.815 23.7749C106.875 23.7498 106.938 23.7293 107.007 23.7134V21.9087H110.893V22.4111H109.334V23.6655H109.98C110.213 23.6655 110.419 23.6872 110.599 23.7305C110.779 23.7715 110.932 23.8353 111.057 23.9219C111.194 24.0221 111.299 24.1497 111.372 24.3047C111.444 24.4596 111.481 24.6465 111.481 24.8652ZM108.774 24.1646H107.54C107.278 24.1646 107.079 24.2124 106.942 24.3081C106.805 24.4038 106.737 24.5622 106.737 24.7832C106.737 24.8971 106.757 25.002 106.798 25.0977C106.842 25.1934 106.905 25.2754 106.99 25.3438C107.074 25.4121 107.179 25.4657 107.304 25.5044C107.43 25.5431 107.574 25.5625 107.738 25.5625C108.089 25.5625 108.349 25.4793 108.518 25.313C108.688 25.1444 108.774 24.8755 108.774 24.5063V24.1646ZM108.774 22.4111H107.564V23.6655H108.774V22.4111ZM117.883 27.4663V26H115.459V25.6172C115.564 25.4964 115.657 25.3688 115.736 25.2344C115.816 25.0999 115.882 24.9609 115.935 24.8174C115.987 24.6738 116.026 24.528 116.051 24.3799C116.078 24.2318 116.092 24.0848 116.092 23.939C116.092 23.702 116.055 23.4867 115.982 23.293C115.912 23.097 115.81 22.9295 115.678 22.7905C115.546 22.6493 115.387 22.541 115.2 22.4658C115.013 22.3883 114.806 22.3496 114.578 22.3496C114.35 22.3496 114.136 22.3918 113.935 22.4761C113.737 22.5604 113.562 22.6789 113.412 22.8315C113.264 22.9842 113.147 23.1676 113.06 23.3818C112.976 23.596 112.934 23.8341 112.934 24.0962C112.934 24.1372 112.935 24.1828 112.937 24.2329C112.942 24.2808 112.95 24.3286 112.961 24.3765H112.981C113.013 24.2876 113.059 24.2067 113.118 24.1338C113.18 24.0586 113.251 23.9959 113.333 23.9458C113.416 23.8934 113.507 23.8535 113.607 23.8262C113.707 23.7965 113.813 23.7817 113.925 23.7817C114.077 23.7817 114.22 23.8079 114.352 23.8604C114.484 23.9128 114.598 23.988 114.694 24.0859C114.792 24.1816 114.868 24.2979 114.923 24.4346C114.978 24.569 115.005 24.7183 115.005 24.8823C115.005 25.0532 114.978 25.2116 114.923 25.3574C114.868 25.501 114.79 25.6263 114.687 25.7334C114.584 25.8405 114.46 25.9248 114.314 25.9863C114.171 26.0456 114.009 26.0752 113.829 26.0752C113.667 26.0752 113.519 26.049 113.385 25.9966C113.25 25.9442 113.13 25.8724 113.022 25.7812C112.918 25.6878 112.825 25.5796 112.746 25.4565C112.666 25.3312 112.6 25.1968 112.547 25.0532C112.495 24.9097 112.455 24.7604 112.428 24.6055C112.403 24.4505 112.39 24.2967 112.39 24.144C112.39 23.7726 112.448 23.4445 112.564 23.1597C112.683 22.8726 112.842 22.631 113.043 22.4351C113.246 22.2391 113.482 22.091 113.75 21.9907C114.019 21.8882 114.305 21.8369 114.608 21.8369C114.893 21.8369 115.161 21.8825 115.412 21.9736C115.662 22.0625 115.88 22.1947 116.064 22.3701C116.251 22.5433 116.398 22.7575 116.505 23.0127C116.615 23.2679 116.669 23.5618 116.669 23.8945C116.669 24.0381 116.658 24.1816 116.635 24.3252C116.615 24.4688 116.584 24.61 116.543 24.749C116.502 24.8857 116.451 25.0179 116.389 25.1455C116.33 25.2731 116.263 25.3905 116.188 25.4976H117.883V21.9087H118.443V27.4663H117.883ZM114.441 24.9165C114.441 24.8254 114.427 24.7399 114.4 24.6602C114.373 24.5804 114.333 24.5109 114.28 24.4517C114.228 24.3924 114.163 24.3457 114.085 24.3115C114.01 24.2773 113.923 24.2603 113.822 24.2603C113.727 24.2603 113.638 24.2773 113.556 24.3115C113.476 24.3457 113.406 24.3924 113.347 24.4517C113.29 24.5109 113.246 24.5804 113.214 24.6602C113.182 24.7399 113.166 24.8254 113.166 24.9165C113.166 25.019 113.182 25.1125 113.214 25.1968C113.246 25.2811 113.29 25.354 113.347 25.4155C113.406 25.4748 113.476 25.5215 113.556 25.5557C113.635 25.5898 113.722 25.6069 113.815 25.6069C113.9 25.6069 113.979 25.5933 114.055 25.5659C114.132 25.5363 114.199 25.493 114.256 25.436C114.313 25.3768 114.358 25.305 114.39 25.2207C114.424 25.1341 114.441 25.0327 114.441 24.9165ZM125.3 24.3354C125.3 24.634 125.28 24.9199 125.242 25.1934C125.203 25.4668 125.146 25.7357 125.071 26H119.848V21.9087H120.409V25.4976H122.101V23.2383C122.101 22.9694 122.13 22.7484 122.189 22.5752C122.249 22.402 122.343 22.2585 122.473 22.1445C122.585 22.0443 122.719 21.9679 122.876 21.9155C123.034 21.8631 123.216 21.8369 123.423 21.8369C123.651 21.8369 123.855 21.8677 124.035 21.9292C124.217 21.9884 124.378 22.0739 124.517 22.1855C124.656 22.2949 124.775 22.4271 124.873 22.582C124.973 22.7347 125.054 22.9033 125.115 23.0879C125.179 23.2725 125.226 23.4707 125.255 23.6826C125.285 23.8923 125.3 24.1099 125.3 24.3354ZM124.726 24.3765C124.726 24.0802 124.702 23.8091 124.654 23.563C124.608 23.3146 124.534 23.1004 124.432 22.9204C124.329 22.7404 124.196 22.6003 124.032 22.5C123.87 22.3997 123.673 22.3496 123.44 22.3496C123.297 22.3496 123.175 22.369 123.075 22.4077C122.977 22.4442 122.897 22.5011 122.835 22.5786C122.774 22.6561 122.729 22.7529 122.702 22.8691C122.675 22.9854 122.661 23.1232 122.661 23.2827V25.4976H124.582C124.625 25.3335 124.66 25.158 124.685 24.9712C124.712 24.7821 124.726 24.5838 124.726 24.3765ZM122.921 20.603C122.921 20.6737 122.908 20.7397 122.883 20.8013C122.856 20.8628 122.819 20.9163 122.774 20.9619C122.728 21.0075 122.675 21.0439 122.613 21.0713C122.552 21.0964 122.486 21.1089 122.415 21.1089C122.344 21.1089 122.278 21.0964 122.217 21.0713C122.155 21.0439 122.102 21.0075 122.056 20.9619C122.011 20.9163 121.975 20.8628 121.95 20.8013C121.923 20.7397 121.909 20.6737 121.909 20.603C121.909 20.5324 121.923 20.4663 121.95 20.4048C121.975 20.341 122.011 20.2863 122.056 20.2407C122.102 20.1951 122.155 20.1587 122.217 20.1313C122.278 20.104 122.344 20.0903 122.415 20.0903C122.486 20.0903 122.552 20.104 122.613 20.1313C122.675 20.1587 122.728 20.1951 122.774 20.2407C122.819 20.2863 122.856 20.341 122.883 20.4048C122.908 20.4663 122.921 20.5324 122.921 20.603Z" fill="white" fill-opacity="0.786"/>
<defs>
<filter id="filter0_dd_976_1890" x="11.0938" y="7.25" width="11.8125" height="5.625" filterUnits="userSpaceOnUse" color-interpolation-filters="sRGB">
<feFlood flood-opacity="0" result="BackgroundImageFix"/>
<feColorMatrix in="SourceAlpha" type="matrix" values="0 0 0 0 0 0 0 0 0 0 0 0 0 0 0 0 0 0 127 0" result="hardAlpha"/>
<feOffset dy="0.1875"/>
<feGaussianBlur stdDeviation="0.1875"/>
<feColorMatrix type="matrix" values="0 0 0 0 0 0 0 0 0 0 0 0 0 0 0 0 0 0 0.1 0"/>
<feBlend mode="normal" in2="BackgroundImageFix" result="effect1_dropShadow_976_1890"/>
<feColorMatrix in="SourceAlpha" type="matrix" values="0 0 0 0 0 0 0 0 0 0 0 0 0 0 0 0 0 0 127 0" result="hardAlpha"/>
<feOffset dy="0.375"/>
<feGaussianBlur stdDeviation="0.5625"/>
<feColorMatrix type="matrix" values="0 0 0 0 0 0 0 0 0 0 0 0 0 0 0 0 0 0 0.2 0"/>
<feBlend mode="normal" in2="effect1_dropShadow_976_1890" result="effect2_dropShadow_976_1890"/>
<feBlend mode="normal" in="SourceGraphic" in2="effect2_dropShadow_976_1890" result="shape"/>
</filter>
<filter id="filter1_dd_976_1890" x="12.2188" y="13.4375" width="9.5625" height="9.5625" filterUnits="userSpaceOnUse" color-interpolation-filters="sRGB">
<feFlood flood-opacity="0" result="BackgroundImageFix"/>
<feColorMatrix in="SourceAlpha" type="matrix" values="0 0 0 0 0 0 0 0 0 0 0 0 0 0 0 0 0 0 127 0" result="hardAlpha"/>
<feOffset dy="0.1875"/>
<feGaussianBlur stdDeviation="0.1875"/>
<feColorMatrix type="matrix" values="0 0 0 0 1 0 0 0 0 1 0 0 0 0 1 0 0 0 0.6 0"/>
<feBlend mode="normal" in2="BackgroundImageFix" result="effect1_dropShadow_976_1890"/>
<feColorMatrix in="SourceAlpha" type="matrix" values="0 0 0 0 0 0 0 0 0 0 0 0 0 0 0 0 0 0 127 0" result="hardAlpha"/>
<feOffset dy="0.375"/>
<feGaussianBlur stdDeviation="0.5625"/>
<feColorMatrix type="matrix" values="0 0 0 0 1 0 0 0 0 1 0 0 0 0 1 0 0 0 0.6 0"/>
<feBlend mode="normal" in2="effect1_dropShadow_976_1890" result="effect2_dropShadow_976_1890"/>
<feBlend mode="normal" in="SourceGraphic" in2="effect2_dropShadow_976_1890" result="shape"/>
</filter>
<filter id="filter2_dd_976_1890" x="10.5939" y="6.6875" width="12.8124" height="5.06274" filterUnits="userSpaceOnUse" color-interpolation-filters="sRGB">
<feFlood flood-opacity="0" result="BackgroundImageFix"/>
<feColorMatrix in="SourceAlpha" type="matrix" values="0 0 0 0 0 0 0 0 0 0 0 0 0 0 0 0 0 0 127 0" result="hardAlpha"/>
<feOffset dy="-0.75"/>
<feGaussianBlur stdDeviation="0.1875"/>
<feColorMatrix type="matrix" values="0 0 0 0 0 0 0 0 0 0 0 0 0 0 0 0 0 0 0.1 0"/>
<feBlend mode="normal" in2="BackgroundImageFix" result="effect1_dropShadow_976_1890"/>
<feColorMatrix in="SourceAlpha" type="matrix" values="0 0 0 0 0 0 0 0 0 0 0 0 0 0 0 0 0 0 127 0" result="hardAlpha"/>
<feOffset dy="-0.75"/>
<feGaussianBlur stdDeviation="0.5625"/>
<feColorMatrix type="matrix" values="0 0 0 0 0 0 0 0 0 0 0 0 0 0 0 0 0 0 0.2 0"/>
<feBlend mode="normal" in2="effect1_dropShadow_976_1890" result="effect2_dropShadow_976_1890"/>
<feBlend mode="normal" in="SourceGraphic" in2="effect2_dropShadow_976_1890" result="shape"/>
</filter>
<linearGradient id="paint0_linear_976_1890" x1="12.2443" y1="8.00639" x2="15.9039" y2="24.8132" gradientUnits="userSpaceOnUse">
<stop offset="0.270833" stop-color="white"/>
<stop offset="1" stop-color="#DFDFDF"/>
</linearGradient>
<linearGradient id="paint1_linear_976_1890" x1="17" y1="10.25" x2="20.3514" y2="25.9624" gradientUnits="userSpaceOnUse">
<stop stop-color="#0078D4"/>
<stop offset="1" stop-color="#114A8B"/>
</linearGradient>
<linearGradient id="paint2_linear_976_1890" x1="17" y1="8.5625" x2="17.1583" y2="10.9858" gradientUnits="userSpaceOnUse">
<stop stop-color="#28AFEA"/>
<stop offset="1" stop-color="#0078D4"/>
</linearGradient>
<linearGradient id="paint3_linear_976_1890" x1="17" y1="8.5625" x2="17.1583" y2="10.9858" gradientUnits="userSpaceOnUse">
<stop stop-color="#30DAFF"/>
<stop offset="1" stop-color="#0094D4"/>
</linearGradient>
<linearGradient id="paint4_linear_976_1890" x1="16.5938" y1="8" x2="16.5937" y2="9.125" gradientUnits="userSpaceOnUse">
<stop stop-color="#22BCFF"/>
<stop offset="1" stop-color="#0088F0"/>
</linearGradient>
<linearGradient id="paint5_linear_976_1890" x1="16.5938" y1="8" x2="16.5937" y2="9.125" gradientUnits="userSpaceOnUse">
<stop stop-color="#28AFEA"/>
<stop offset="1" stop-color="#3CCBF4"/>
</linearGradient>
<clipPath id="clip0_976_1890">
<rect width="18" height="18" fill="white" transform="translate(8 8)"/>
</clipPath>
<clipPath id="clip1_976_1890">
<rect width="18" height="18" fill="white" transform="translate(8 8)"/>
</clipPath>
</defs>
</svg>
