<svg width="116" height="34" viewBox="0 0 116 34" fill="none" xmlns="http://www.w3.org/2000/svg">
<rect x="1" y="1" width="114" height="32" rx="4" fill="#FDFDFD"/>
<rect x="0.5" y="0.5" width="115" height="33" rx="4.5" stroke="black" stroke-opacity="0.0578"/>
<g clip-path="url(#clip0_976_1901)">
<g clip-path="url(#clip1_976_1901)">
<path d="M8.28125 11C8.28125 10.5858 8.61704 10.25 9.03125 10.25H24.9687C25.383 10.25 25.7188 10.5858 25.7188 11V22.3438C25.7188 24.0524 24.3336 25.4375 22.625 25.4375H11.375C9.66637 25.4375 8.28125 24.0524 8.28125 22.3438V11Z" fill="url(#paint0_linear_976_1901)"/>
<mask id="mask0_976_1901" style="mask-type:alpha" maskUnits="userSpaceOnUse" x="8" y="10" width="18" height="16">
<path d="M8.28125 11C8.28125 10.5858 8.61704 10.25 9.03125 10.25H24.9687C25.383 10.25 25.7188 10.5858 25.7188 11V22.3438C25.7188 24.0524 24.3336 25.4375 22.625 25.4375H11.375C9.66637 25.4375 8.28125 24.0524 8.28125 22.3438V11Z" fill="url(#paint1_linear_976_1901)"/>
</mask>
<g mask="url(#mask0_976_1901)">
<g filter="url(#filter0_dd_976_1901)">
<path d="M12.7812 10.8125V8.5625H21.2187V10.8125" stroke="url(#paint2_linear_976_1901)" stroke-width="1.125" stroke-linecap="round"/>
</g>
</g>
<g filter="url(#filter1_dd_976_1901)">
<path d="M16.719 14.1875H13.344V17.5625H16.719V14.1875Z" fill="#F25022"/>
<path d="M20.6562 14.1875H17.2812V17.5625H20.6562V14.1875Z" fill="#7FBA00"/>
<path d="M20.6562 18.125H17.2812V21.5H20.6562V18.125Z" fill="#FFB900"/>
<path d="M16.7188 18.125H13.3438V21.5H16.7188V18.125Z" fill="#00A4EF"/>
</g>
<path d="M12.7812 10.8125V9.125C12.7812 8.81434 13.0331 8.5625 13.3438 8.5625H20.6563C20.9669 8.5625 21.2188 8.81434 21.2188 9.125V10.8125" stroke="url(#paint3_linear_976_1901)" stroke-width="1.125" stroke-linecap="round"/>
<rect x="13.3438" y="8" width="7.3125" height="1.125" fill="url(#paint4_linear_976_1901)"/>
<mask id="mask1_976_1901" style="mask-type:alpha" maskUnits="userSpaceOnUse" x="13" y="8" width="8" height="2">
<rect x="13.3438" y="8" width="7.3125" height="1.125" fill="url(#paint5_linear_976_1901)"/>
</mask>
<g mask="url(#mask1_976_1901)">
<g filter="url(#filter2_dd_976_1901)">
<rect x="11.7189" y="8.56274" width="1.625" height="2.8125" fill="#C4C4C4"/>
</g>
</g>
</g>
</g>
<path d="M39.2275 16H37.96V11.0854C37.96 10.8634 37.9653 10.6217 37.9761 10.3604C37.9904 10.0954 38.0083 9.81429 38.0298 9.51709H37.9976C37.9546 9.72119 37.9134 9.89665 37.874 10.0435C37.8382 10.1867 37.8024 10.3013 37.7666 10.3872L35.5054 16H34.6245L32.3525 10.4355C32.3239 10.3568 32.2881 10.2404 32.2451 10.0864C32.2057 9.93245 32.1628 9.74268 32.1162 9.51709H32.084C32.1055 9.7749 32.1198 10.0488 32.127 10.3389C32.1341 10.6253 32.1377 10.9279 32.1377 11.2466V16H30.9561V8.29785H32.7607L34.7642 13.3037C34.8429 13.4935 34.9074 13.6689 34.9575 13.8301C35.0112 13.9876 35.0524 14.1344 35.0811 14.2705H35.1133C35.1777 14.0664 35.2386 13.882 35.2959 13.7173C35.3532 13.5526 35.4069 13.4093 35.457 13.2876L37.4873 8.29785H39.2275V16ZM41.6177 9.43652C41.3885 9.43652 41.1987 9.36312 41.0483 9.21631C40.8979 9.0695 40.8228 8.88867 40.8228 8.67383C40.8228 8.45182 40.8979 8.26921 41.0483 8.12598C41.1987 7.98275 41.3885 7.91113 41.6177 7.91113C41.8504 7.91113 42.042 7.98275 42.1924 8.12598C42.3428 8.26921 42.418 8.45182 42.418 8.67383C42.418 8.89225 42.3428 9.07487 42.1924 9.22168C42.042 9.36491 41.8504 9.43652 41.6177 9.43652ZM42.2354 16H40.9839V10.5H42.2354V16ZM47.9824 15.6616C47.7103 15.8263 47.4399 15.9445 47.1714 16.0161C46.9028 16.0913 46.611 16.1289 46.2959 16.1289C45.4508 16.1289 44.7741 15.8818 44.2656 15.3877C43.7607 14.8936 43.5083 14.2222 43.5083 13.3735C43.5083 12.4604 43.7697 11.7318 44.2925 11.1875C44.8188 10.6432 45.5278 10.3711 46.4194 10.3711C46.731 10.3711 47.0138 10.4051 47.2681 10.4731C47.5259 10.5376 47.7873 10.645 48.0522 10.7954L47.5635 11.6655C47.3773 11.5617 47.1947 11.4865 47.0156 11.4399C46.8366 11.3898 46.6414 11.3647 46.4302 11.3647C45.9038 11.3647 45.4974 11.5384 45.2109 11.8857C44.9245 12.2331 44.7812 12.6932 44.7812 13.2661C44.7812 13.8677 44.9352 14.3296 45.2432 14.6519C45.5547 14.9741 45.945 15.1353 46.4141 15.1353C46.5573 15.1353 46.722 15.1102 46.9082 15.0601C47.0944 15.0063 47.2824 14.9222 47.4722 14.8076L47.9824 15.6616ZM52.1021 11.5474C52.034 11.5295 51.9678 11.5169 51.9033 11.5098C51.8424 11.499 51.7708 11.4937 51.6885 11.4937C51.2409 11.4937 50.8971 11.6584 50.6572 11.9878C50.4173 12.3172 50.2974 12.7469 50.2974 13.2769V16H49.0459V10.5H50.2974V11.5581H50.3188C50.4478 11.1785 50.6375 10.8921 50.8882 10.6987C51.1388 10.5018 51.4342 10.4033 51.7744 10.4033C51.8711 10.4033 51.957 10.4087 52.0322 10.4194C52.111 10.4302 52.1862 10.4463 52.2578 10.4678L52.1021 11.5474ZM55.5557 16.1289C54.6963 16.1289 54.0142 15.8729 53.5093 15.3608C53.008 14.8452 52.7573 14.1559 52.7573 13.293C52.7609 12.3799 53.0223 11.6655 53.5415 11.1499C54.0607 10.6307 54.7679 10.3711 55.6631 10.3711C56.526 10.3675 57.1992 10.6217 57.6826 11.1338C58.1696 11.6423 58.4131 12.3315 58.4131 13.2017C58.4131 14.0968 58.1553 14.8094 57.6396 15.3394C57.1276 15.8657 56.4329 16.1289 55.5557 16.1289ZM55.6147 15.1353C56.1125 15.1353 56.4902 14.9723 56.748 14.6465C57.0094 14.3206 57.1401 13.8498 57.1401 13.2339C57.1401 12.6252 57.0094 12.1615 56.748 11.8428C56.4867 11.5241 56.1071 11.3647 55.6094 11.3647C55.1188 11.3647 54.7321 11.533 54.4492 11.8696C54.1699 12.2062 54.0303 12.6717 54.0303 13.2661C54.0303 13.8641 54.1699 14.326 54.4492 14.6519C54.7285 14.9741 55.117 15.1353 55.6147 15.1353ZM59.1543 15.5596L59.6968 14.6787C59.9116 14.8291 60.139 14.9508 60.3789 15.0439C60.6224 15.1335 60.8856 15.1782 61.1685 15.1782C61.4764 15.1782 61.7145 15.1227 61.8828 15.0117C62.0547 14.8971 62.1406 14.7271 62.1406 14.5015C62.1406 14.3224 62.069 14.1738 61.9258 14.0557C61.7861 13.9339 61.5462 13.8337 61.2061 13.7549C60.5186 13.5938 60.0352 13.3807 59.7559 13.1157C59.4801 12.8507 59.3423 12.5016 59.3423 12.0684C59.3423 11.5706 59.5356 11.1642 59.9224 10.8491C60.3091 10.5304 60.8158 10.3711 61.4424 10.3711C61.7539 10.3711 62.0511 10.4123 62.334 10.4946C62.6169 10.5734 62.8926 10.7005 63.1611 10.876L62.6562 11.7354C62.4199 11.585 62.2033 11.4775 62.0063 11.4131C61.8094 11.3486 61.6071 11.3164 61.3994 11.3164C61.1058 11.3164 60.8766 11.3719 60.7119 11.4829C60.5508 11.5903 60.4702 11.7407 60.4702 11.9341C60.4702 12.1382 60.5526 12.2904 60.7173 12.3906C60.8856 12.4873 61.1667 12.5822 61.5605 12.6753C62.1549 12.8185 62.59 13.0262 62.8657 13.2983C63.1414 13.5669 63.2793 13.9268 63.2793 14.3779C63.2793 14.9115 63.0841 15.3376 62.6938 15.6562C62.3071 15.9714 61.7826 16.1289 61.1201 16.1289C60.762 16.1289 60.4183 16.0824 60.0889 15.9893C59.763 15.8926 59.4515 15.7493 59.1543 15.5596ZM66.8779 16.1289C66.0186 16.1289 65.3364 15.8729 64.8315 15.3608C64.3302 14.8452 64.0796 14.1559 64.0796 13.293C64.0832 12.3799 64.3446 11.6655 64.8638 11.1499C65.383 10.6307 66.0902 10.3711 66.9854 10.3711C67.8483 10.3675 68.5215 10.6217 69.0049 11.1338C69.4919 11.6423 69.7354 12.3315 69.7354 13.2017C69.7354 14.0968 69.4775 14.8094 68.9619 15.3394C68.4499 15.8657 67.7552 16.1289 66.8779 16.1289ZM66.937 15.1353C67.4347 15.1353 67.8125 14.9723 68.0703 14.6465C68.3317 14.3206 68.4624 13.8498 68.4624 13.2339C68.4624 12.6252 68.3317 12.1615 68.0703 11.8428C67.8089 11.5241 67.4294 11.3647 66.9316 11.3647C66.4411 11.3647 66.0544 11.533 65.7715 11.8696C65.4922 12.2062 65.3525 12.6717 65.3525 13.2661C65.3525 13.8641 65.4922 14.326 65.7715 14.6519C66.0508 14.9741 66.4393 15.1353 66.937 15.1353ZM73.9839 8.84033C73.8836 8.80094 73.7923 8.77409 73.71 8.75977C73.6276 8.74186 73.5381 8.73291 73.4414 8.73291C73.1764 8.73291 72.9759 8.8099 72.8398 8.96387C72.7074 9.11426 72.6411 9.33268 72.6411 9.61914V10.5H73.9141V11.4775H72.6411V16H71.395V11.4775H70.4604V10.5H71.395V9.55469C71.395 8.99609 71.5741 8.55387 71.9321 8.22803C72.2938 7.8986 72.7718 7.73389 73.3662 7.73389C73.5524 7.73389 73.7135 7.74642 73.8496 7.77148C73.9857 7.79655 74.1271 7.83236 74.2739 7.87891L73.9839 8.84033ZM77.7974 15.9248C77.6362 15.9928 77.4679 16.043 77.2925 16.0752C77.117 16.1074 76.929 16.1235 76.7285 16.1235C76.2201 16.1235 75.828 15.9893 75.5522 15.7207C75.2801 15.4486 75.144 15.0439 75.144 14.5068V11.4775H74.2202V10.5H75.144V9.1626L76.3901 8.78662V10.5H77.7061V11.4775H76.3901V14.4048C76.3901 14.6733 76.4385 14.8667 76.5352 14.9849C76.6354 15.103 76.7894 15.1621 76.9971 15.1621C77.0973 15.1621 77.1922 15.1514 77.2817 15.1299C77.3748 15.1048 77.4572 15.0744 77.5288 15.0386L77.7974 15.9248ZM81.2939 15.4468L81.8633 14.4639C82.2106 14.6787 82.5347 14.8309 82.8354 14.9204C83.1362 15.0063 83.4728 15.0493 83.8452 15.0493C84.2892 15.0493 84.6383 14.9544 84.8926 14.7646C85.1504 14.5713 85.2793 14.2956 85.2793 13.9375C85.2793 13.6117 85.1719 13.3556 84.957 13.1694C84.7458 12.9797 84.3859 12.806 83.8774 12.6484C83.0933 12.4157 82.5168 12.1274 82.1479 11.7837C81.7791 11.4399 81.5947 10.9744 81.5947 10.3872C81.5947 9.74984 81.8328 9.22168 82.3091 8.80273C82.7853 8.38021 83.4316 8.16895 84.248 8.16895C84.6061 8.16895 84.9588 8.20833 85.3062 8.28711C85.6535 8.36589 85.9972 8.48763 86.3374 8.65234L85.8594 9.67285C85.5622 9.51888 85.2775 9.40967 85.0054 9.34521C84.7368 9.28076 84.4629 9.24854 84.1836 9.24854C83.7754 9.24854 83.4531 9.33805 83.2168 9.51709C82.984 9.69613 82.8677 9.94857 82.8677 10.2744C82.8677 10.5645 82.9751 10.7936 83.1899 10.9619C83.4048 11.1266 83.7736 11.2896 84.2964 11.4507C85.0985 11.6906 85.675 11.9896 86.0259 12.3477C86.3804 12.7057 86.5576 13.1981 86.5576 13.8247C86.5576 14.4979 86.3177 15.0511 85.8379 15.4844C85.3581 15.9141 84.6742 16.1289 83.7861 16.1289C83.3421 16.1289 82.9089 16.0734 82.4863 15.9624C82.0638 15.8478 81.6663 15.6759 81.2939 15.4468ZM90.4409 15.9248C90.2798 15.9928 90.1115 16.043 89.936 16.0752C89.7606 16.1074 89.5726 16.1235 89.3721 16.1235C88.8636 16.1235 88.4715 15.9893 88.1958 15.7207C87.9237 15.4486 87.7876 15.0439 87.7876 14.5068V11.4775H86.8638V10.5H87.7876V9.1626L89.0337 8.78662V10.5H90.3496V11.4775H89.0337V14.4048C89.0337 14.6733 89.082 14.8667 89.1787 14.9849C89.279 15.103 89.4329 15.1621 89.6406 15.1621C89.7409 15.1621 89.8358 15.1514 89.9253 15.1299C90.0184 15.1048 90.1007 15.0744 90.1724 15.0386L90.4409 15.9248ZM93.8623 16.1289C93.0029 16.1289 92.3208 15.8729 91.8159 15.3608C91.3146 14.8452 91.064 14.1559 91.064 13.293C91.0675 12.3799 91.3289 11.6655 91.8481 11.1499C92.3674 10.6307 93.0745 10.3711 93.9697 10.3711C94.8327 10.3675 95.5059 10.6217 95.9893 11.1338C96.4762 11.6423 96.7197 12.3315 96.7197 13.2017C96.7197 14.0968 96.4619 14.8094 95.9463 15.3394C95.4342 15.8657 94.7396 16.1289 93.8623 16.1289ZM93.9214 15.1353C94.4191 15.1353 94.7969 14.9723 95.0547 14.6465C95.3161 14.3206 95.4468 13.8498 95.4468 13.2339C95.4468 12.6252 95.3161 12.1615 95.0547 11.8428C94.7933 11.5241 94.4137 11.3647 93.916 11.3647C93.4255 11.3647 93.0387 11.533 92.7559 11.8696C92.4766 12.2062 92.3369 12.6717 92.3369 13.2661C92.3369 13.8641 92.4766 14.326 92.7559 14.6519C93.0352 14.9741 93.4237 15.1353 93.9214 15.1353ZM101.054 11.5474C100.986 11.5295 100.92 11.5169 100.855 11.5098C100.795 11.499 100.723 11.4937 100.641 11.4937C100.193 11.4937 99.8493 11.6584 99.6094 11.9878C99.3695 12.3172 99.2495 12.7469 99.2495 13.2769V16H97.998V10.5H99.2495V11.5581H99.271C99.3999 11.1785 99.5897 10.8921 99.8403 10.6987C100.091 10.5018 100.386 10.4033 100.727 10.4033C100.823 10.4033 100.909 10.4087 100.984 10.4194C101.063 10.4302 101.138 10.4463 101.21 10.4678L101.054 11.5474ZM106.721 13.5776H102.966C102.988 14.0968 103.138 14.4925 103.417 14.7646C103.697 15.0332 104.087 15.1675 104.588 15.1675C104.792 15.1675 105.025 15.1263 105.287 15.0439C105.548 14.9616 105.806 14.8291 106.06 14.6465L106.624 15.4253C106.284 15.6724 105.938 15.8514 105.587 15.9624C105.236 16.0734 104.85 16.1289 104.427 16.1289C103.571 16.1289 102.905 15.8836 102.429 15.3931C101.953 14.8989 101.713 14.2096 101.709 13.3252C101.709 12.4443 101.955 11.7318 102.445 11.1875C102.939 10.6432 103.571 10.3711 104.341 10.3711C105.079 10.3711 105.659 10.6038 106.082 11.0693C106.508 11.5312 106.721 12.1865 106.721 13.0352V13.5776ZM105.512 12.7129C105.512 12.2402 105.408 11.8857 105.201 11.6494C104.997 11.4095 104.707 11.2896 104.331 11.2896C103.976 11.2896 103.674 11.4185 103.423 11.6763C103.176 11.9305 103.024 12.276 102.966 12.7129H105.512Z" fill="black" fill-opacity="0.8956"/>
<path d="M30.21 26.007C30.21 25.839 30.2333 25.6523 30.28 25.447C30.3267 25.2417 30.4013 25.0153 30.504 24.768L31.008 24.964C30.9333 25.16 30.8773 25.3397 30.84 25.503C30.8027 25.6663 30.784 25.818 30.784 25.958C30.784 26.2147 30.847 26.4223 30.973 26.581C31.1037 26.7443 31.2763 26.8633 31.491 26.938C31.7103 27.0127 31.9507 27.05 32.212 27.05C32.5293 27.05 32.7953 27.015 33.01 26.945C33.2247 26.8797 33.395 26.7887 33.521 26.672C33.647 26.5553 33.7357 26.4223 33.787 26.273C33.843 26.1283 33.871 25.9767 33.871 25.818C33.871 25.6127 33.8547 25.419 33.822 25.237C33.794 25.055 33.7543 24.8777 33.703 24.705C33.6563 24.5277 33.605 24.348 33.549 24.166L34.116 24.012C34.1673 24.1893 34.207 24.334 34.235 24.446C34.263 24.5533 34.284 24.6397 34.298 24.705C34.3167 24.7703 34.333 24.8287 34.347 24.88C34.3983 25.0527 34.466 25.181 34.55 25.265C34.634 25.3443 34.7297 25.398 34.837 25.426C34.949 25.4493 35.0633 25.461 35.18 25.461C35.278 25.461 35.348 25.489 35.39 25.545C35.4367 25.5963 35.46 25.6593 35.46 25.734C35.46 25.8087 35.4273 25.8787 35.362 25.944C35.2967 26.0047 35.2127 26.035 35.11 26.035C34.914 26.035 34.7507 26.0023 34.62 25.937C34.4893 25.867 34.3867 25.7807 34.312 25.678C34.242 25.5753 34.1953 25.468 34.172 25.356L34.459 25.713C34.445 25.951 34.3983 26.182 34.319 26.406C34.2443 26.6347 34.123 26.84 33.955 27.022C33.787 27.2087 33.5583 27.3557 33.269 27.463C32.9843 27.5703 32.625 27.624 32.191 27.624C31.925 27.624 31.673 27.5913 31.435 27.526C31.197 27.4607 30.9847 27.3603 30.798 27.225C30.616 27.0943 30.4713 26.9263 30.364 26.721C30.2613 26.5203 30.21 26.2823 30.21 26.007ZM35.1133 26.035L35.1833 25.461C35.4586 25.461 35.6733 25.4517 35.8273 25.433C35.9813 25.4097 36.0909 25.356 36.1563 25.272C36.2216 25.1833 36.2543 25.0457 36.2543 24.859C36.2543 24.7423 36.2356 24.6047 36.1983 24.446C36.1609 24.2827 36.1119 24.11 36.0513 23.928C35.9906 23.746 35.9253 23.5663 35.8553 23.389L36.4223 23.179C36.4829 23.3283 36.5389 23.4987 36.5903 23.69C36.6463 23.8813 36.6929 24.0703 36.7303 24.257C36.7676 24.4437 36.7863 24.607 36.7863 24.747C36.7863 24.9803 36.7536 25.1787 36.6883 25.342C36.6276 25.5053 36.5296 25.6383 36.3943 25.741C36.2589 25.8437 36.0839 25.9183 35.8693 25.965C35.6593 26.0117 35.4073 26.035 35.1133 26.035ZM36.4083 27.358C36.3103 27.358 36.2263 27.323 36.1563 27.253C36.0909 27.1877 36.0583 27.1083 36.0583 27.015C36.0583 26.9217 36.0909 26.84 36.1563 26.77C36.2263 26.7 36.3103 26.665 36.4083 26.665C36.5016 26.665 36.5809 26.7 36.6463 26.77C36.7163 26.84 36.7513 26.9217 36.7513 27.015C36.7513 27.1083 36.7163 27.1877 36.6463 27.253C36.5809 27.323 36.5016 27.358 36.4083 27.358ZM35.4493 27.358C35.3513 27.358 35.2673 27.323 35.1973 27.253C35.1319 27.1877 35.0993 27.1083 35.0993 27.015C35.0993 26.9217 35.1319 26.84 35.1973 26.77C35.2673 26.7 35.3513 26.665 35.4493 26.665C35.5426 26.665 35.6219 26.7 35.6873 26.77C35.7573 26.84 35.7923 26.9217 35.7923 27.015C35.7923 27.1083 35.7573 27.1877 35.6873 27.253C35.6219 27.323 35.5426 27.358 35.4493 27.358ZM37.2331 27.624L37.0301 27.092C37.3707 26.98 37.6531 26.8517 37.8771 26.707C38.1057 26.5623 38.2854 26.4083 38.4161 26.245C38.5514 26.0817 38.6471 25.916 38.7031 25.748C38.7591 25.5753 38.7871 25.4097 38.7871 25.251C38.7871 25.0223 38.7357 24.7913 38.6331 24.558C38.5351 24.32 38.4254 24.096 38.3041 23.886L38.8151 23.627C38.9037 23.7903 38.9807 23.9513 39.0461 24.11C39.1161 24.2687 39.1767 24.418 39.2281 24.558C39.2841 24.698 39.3284 24.8263 39.3611 24.943C39.4264 25.1437 39.5104 25.2813 39.6131 25.356C39.7204 25.426 39.8651 25.461 40.0471 25.461C40.1451 25.461 40.2151 25.489 40.2571 25.545C40.3037 25.5963 40.3271 25.6593 40.3271 25.734C40.3271 25.8087 40.2944 25.8787 40.2291 25.944C40.1637 26.0047 40.0797 26.035 39.9771 26.035C39.7717 26.035 39.6037 26 39.4731 25.93C39.3471 25.8553 39.2514 25.7597 39.1861 25.643C39.1207 25.5217 39.0764 25.3957 39.0531 25.265L39.2771 25.391C39.2771 25.699 39.2071 25.979 39.0671 26.231C38.9317 26.4877 38.7567 26.7093 38.5421 26.896C38.3274 27.0873 38.1034 27.2437 37.8701 27.365C37.6367 27.4863 37.4244 27.5727 37.2331 27.624ZM39.9805 26.035L40.0505 25.461H40.7085C40.9838 25.461 41.2008 25.447 41.3595 25.419C41.5228 25.3863 41.6418 25.3467 41.7165 25.3C41.7958 25.2487 41.8471 25.195 41.8705 25.139C41.8985 25.0783 41.9125 25.0177 41.9125 24.957C41.9125 24.8497 41.8705 24.7167 41.7865 24.558C41.7071 24.3993 41.5415 24.194 41.2895 23.942C41.1588 23.8113 41.0281 23.6923 40.8975 23.585C40.7668 23.473 40.6455 23.375 40.5335 23.291C40.4261 23.2023 40.3398 23.1277 40.2745 23.067C40.2091 23.0063 40.1765 22.9597 40.1765 22.927C40.1765 22.857 40.1811 22.7893 40.1905 22.724C40.2045 22.6587 40.2208 22.598 40.2395 22.542C40.2628 22.486 40.2908 22.4417 40.3235 22.409C40.4168 22.311 40.5358 22.213 40.6805 22.115C40.8298 22.017 41.0025 21.9143 41.1985 21.807C41.3991 21.6997 41.6231 21.5853 41.8705 21.464C42.1225 21.338 42.3978 21.2003 42.6965 21.051L42.9345 21.569C42.5611 21.7463 42.2485 21.898 41.9965 22.024C41.7491 22.1453 41.5391 22.255 41.3665 22.353C41.1938 22.4463 41.0421 22.535 40.9115 22.619C40.7808 22.703 40.6478 22.7963 40.5125 22.899L40.6175 22.633C40.9115 22.8663 41.1705 23.0857 41.3945 23.291C41.6231 23.4963 41.8145 23.6947 41.9685 23.886C42.1225 24.0727 42.2391 24.257 42.3185 24.439C42.3978 24.621 42.4375 24.8053 42.4375 24.992C42.4375 25.0947 42.4188 25.2067 42.3815 25.328C42.3441 25.4493 42.2648 25.5637 42.1435 25.671C42.0221 25.7783 41.8401 25.867 41.5975 25.937C41.3548 26.0023 41.0281 26.035 40.6175 26.035H39.9805ZM45.0311 25.685L45.3111 25.202C45.4045 25.2627 45.5351 25.321 45.7031 25.377C45.8711 25.433 46.0671 25.461 46.2911 25.461C46.5245 25.461 46.7088 25.4377 46.8441 25.391C46.9841 25.3443 47.0845 25.2767 47.1451 25.188C47.2105 25.0947 47.2431 24.9873 47.2431 24.866C47.2431 24.7727 47.2221 24.6583 47.1801 24.523C47.1428 24.383 47.0588 24.1963 46.9281 23.963C46.7975 23.725 46.5968 23.4147 46.3261 23.032L46.8091 22.717C47.0565 23.0577 47.2525 23.3657 47.3971 23.641C47.5465 23.9163 47.6515 24.159 47.7121 24.369C47.7775 24.5743 47.8101 24.7517 47.8101 24.901C47.8101 25.0877 47.7635 25.2697 47.6701 25.447C47.5768 25.6197 47.4205 25.762 47.2011 25.874C46.9818 25.986 46.6785 26.042 46.2911 26.042C46.1231 26.042 45.9598 26.028 45.8011 26C45.6471 25.972 45.5048 25.9323 45.3741 25.881C45.2435 25.825 45.1291 25.7597 45.0311 25.685ZM46.3191 20.484C46.2351 20.484 46.1348 20.4817 46.0181 20.477C45.9061 20.4677 45.7988 20.4583 45.6961 20.449C45.5935 20.4397 45.5165 20.4327 45.4651 20.428L45.4791 20.022C45.5725 20.0313 45.6938 20.043 45.8431 20.057C45.9971 20.071 46.1395 20.078 46.2701 20.078C46.4241 20.078 46.5478 20.0687 46.6411 20.05C46.7391 20.0267 46.8091 19.994 46.8511 19.952C46.8978 19.91 46.9211 19.8633 46.9211 19.812C46.9211 19.7467 46.9001 19.7 46.8581 19.672C46.8161 19.644 46.7625 19.63 46.6971 19.63C46.6038 19.63 46.5128 19.6627 46.4241 19.728C46.3355 19.7887 46.2561 19.8587 46.1861 19.938C46.1208 20.0127 46.0718 20.0733 46.0391 20.12L45.6471 20.092C45.7265 19.938 45.8245 19.7957 45.9411 19.665C46.0578 19.5297 46.1861 19.4223 46.3261 19.343C46.4661 19.259 46.6085 19.217 46.7531 19.217C46.9305 19.217 47.0705 19.2707 47.1731 19.378C47.2758 19.4853 47.3271 19.6183 47.3271 19.777C47.3271 19.8703 47.2991 19.973 47.2431 20.085C47.1918 20.1923 47.0938 20.2857 46.9491 20.365C46.8045 20.4443 46.5945 20.484 46.3191 20.484ZM45.8361 20.022L45.7941 18.671H46.1791L46.2351 19.84L45.8361 20.022ZM48.5281 27.61L48.4021 27.036C48.6821 26.9987 48.9387 26.945 49.1721 26.875C49.4101 26.8097 49.6131 26.714 49.7811 26.588C49.9537 26.462 50.0867 26.2963 50.1801 26.091C50.2734 25.8857 50.3201 25.629 50.3201 25.321C50.3201 25.0037 50.2617 24.74 50.1451 24.53C50.0284 24.32 49.8767 24.215 49.6901 24.215C49.5921 24.215 49.5011 24.2523 49.4171 24.327C49.3331 24.4017 49.2631 24.502 49.2071 24.628C49.1557 24.754 49.1301 24.8917 49.1301 25.041C49.1301 25.125 49.1487 25.195 49.1861 25.251C49.2234 25.3023 49.2771 25.3443 49.3471 25.377C49.4217 25.405 49.5151 25.426 49.6271 25.44C49.7391 25.454 49.8697 25.461 50.0191 25.461H51.4961C51.5941 25.461 51.6641 25.489 51.7061 25.545C51.7527 25.5963 51.7761 25.6593 51.7761 25.734C51.7761 25.8087 51.7434 25.8787 51.6781 25.944C51.6127 26.0047 51.5287 26.035 51.4261 26.035H49.7531C49.5431 26.035 49.3471 26.0047 49.1651 25.944C48.9877 25.8833 48.8431 25.79 48.7311 25.664C48.6237 25.5333 48.5701 25.363 48.5701 25.153C48.5701 24.957 48.6004 24.7703 48.6611 24.593C48.7217 24.411 48.8034 24.25 48.9061 24.11C49.0134 23.9653 49.1371 23.851 49.2771 23.767C49.4217 23.683 49.5781 23.641 49.7461 23.641C49.9607 23.641 50.1521 23.704 50.3201 23.83C50.4881 23.956 50.6211 24.1473 50.7191 24.404C50.8171 24.656 50.8661 24.9757 50.8661 25.363C50.8661 25.797 50.7774 26.1703 50.6001 26.483C50.4274 26.8003 50.1661 27.0523 49.8161 27.239C49.4707 27.4257 49.0414 27.5493 48.5281 27.61ZM51.4238 26.035L51.4868 25.461C51.7528 25.461 51.9395 25.4353 52.0468 25.384C52.1542 25.3327 52.2148 25.2417 52.2288 25.111C52.2475 24.9803 52.2522 24.7983 52.2428 24.565L52.1098 21.002H52.6768L52.8168 24.502C52.8262 24.7493 52.8168 24.9687 52.7888 25.16C52.7655 25.3513 52.7048 25.5123 52.6068 25.643C52.5135 25.7737 52.3712 25.8717 52.1798 25.937C51.9932 26.0023 51.7412 26.035 51.4238 26.035ZM55.3731 26.007C55.3731 25.895 55.3824 25.776 55.4011 25.65C55.4244 25.5193 55.4571 25.3817 55.4991 25.237C55.5458 25.0877 55.6018 24.9313 55.6671 24.768L56.1711 24.964C56.1244 25.0947 56.0824 25.2183 56.0451 25.335C56.0124 25.4517 55.9868 25.5613 55.9681 25.664C55.9541 25.7667 55.9471 25.8647 55.9471 25.958C55.9471 26.2007 56.0101 26.4013 56.1361 26.56C56.2621 26.7187 56.4348 26.8377 56.6541 26.917C56.8734 26.9963 57.1208 27.036 57.3961 27.036C57.7088 27.036 57.9701 26.994 58.1801 26.91C58.3948 26.826 58.5651 26.714 58.6911 26.574C58.8171 26.4387 58.9058 26.287 58.9571 26.119C59.0131 25.951 59.0411 25.7853 59.0411 25.622C59.0411 25.4447 59.0061 25.23 58.9361 24.978C58.8708 24.726 58.7471 24.4133 58.5651 24.04L59.0901 23.774C59.1834 23.9513 59.2674 24.138 59.3421 24.334C59.4214 24.5253 59.4844 24.7237 59.5311 24.929C59.5824 25.1297 59.6081 25.335 59.6081 25.545C59.6081 25.727 59.5848 25.9137 59.5381 26.105C59.4961 26.2963 59.4238 26.4807 59.3211 26.658C59.2184 26.84 59.0808 27.001 58.9081 27.141C58.7401 27.2857 58.5301 27.4 58.2781 27.484C58.0308 27.568 57.7344 27.61 57.3891 27.61C57.1184 27.61 56.8594 27.5773 56.6121 27.512C56.3694 27.4513 56.1548 27.3557 55.9681 27.225C55.7861 27.0943 55.6414 26.9287 55.5341 26.728C55.4268 26.5273 55.3731 26.287 55.3731 26.007ZM57.4871 23.214C57.3891 23.214 57.3051 23.1813 57.2351 23.116C57.1698 23.046 57.1371 22.9643 57.1371 22.871C57.1371 22.7777 57.1698 22.696 57.2351 22.626C57.3051 22.556 57.3891 22.521 57.4871 22.521C57.5804 22.521 57.6598 22.556 57.7251 22.626C57.7951 22.696 57.8301 22.7777 57.8301 22.871C57.8301 22.9643 57.7951 23.046 57.7251 23.116C57.6598 23.1813 57.5804 23.214 57.4871 23.214ZM60.3611 27.61L60.2351 27.036C60.5151 26.9987 60.7717 26.945 61.0051 26.875C61.2431 26.8097 61.4461 26.714 61.6141 26.588C61.7867 26.462 61.9197 26.2963 62.0131 26.091C62.1064 25.8857 62.1531 25.629 62.1531 25.321C62.1531 25.1763 62.1391 25.0387 62.1111 24.908C62.0831 24.7727 62.0411 24.6537 61.9851 24.551C61.9291 24.4483 61.8614 24.3667 61.7821 24.306C61.7074 24.2453 61.6211 24.215 61.5231 24.215C61.4157 24.215 61.3177 24.257 61.2291 24.341C61.1451 24.4203 61.0774 24.523 61.0261 24.649C60.9794 24.775 60.9561 24.901 60.9561 25.027C60.9561 25.125 60.9747 25.2113 61.0121 25.286C61.0541 25.356 61.1217 25.4097 61.2151 25.447C61.3084 25.4843 61.4297 25.503 61.5791 25.503C61.7144 25.503 61.8497 25.489 61.9851 25.461C62.1251 25.433 62.2441 25.3957 62.3421 25.349L62.3701 25.839C62.2581 25.9183 62.1251 25.9743 61.9711 26.007C61.8217 26.0397 61.6701 26.056 61.5161 26.056C61.3387 26.056 61.1801 26.0373 61.0401 26C60.9047 25.9627 60.7881 25.909 60.6901 25.839C60.5967 25.7643 60.5244 25.671 60.4731 25.559C60.4264 25.447 60.4031 25.3163 60.4031 25.167C60.4031 24.9897 60.4311 24.8123 60.4871 24.635C60.5431 24.453 60.6224 24.2873 60.7251 24.138C60.8277 23.9887 60.9514 23.8697 61.0961 23.781C61.2407 23.6877 61.4017 23.641 61.5791 23.641C61.7657 23.641 61.9291 23.69 62.0691 23.788C62.2091 23.8813 62.3257 24.0097 62.4191 24.173C62.5124 24.3363 62.5824 24.5207 62.6291 24.726C62.6757 24.9313 62.6991 25.1437 62.6991 25.363C62.6991 25.797 62.6104 26.1703 62.4331 26.483C62.2604 26.8003 61.9991 27.0523 61.6491 27.239C61.3037 27.4257 60.8744 27.5493 60.3611 27.61ZM60.9491 22.871L60.8651 22.493C60.9864 22.465 61.0844 22.4417 61.1591 22.423C61.2337 22.4043 61.3177 22.3833 61.4111 22.36L61.3761 22.507C61.2547 22.4697 61.1381 22.3903 61.0261 22.269C60.9187 22.1477 60.8651 22.01 60.8651 21.856C60.8651 21.716 60.8977 21.5993 60.9631 21.506C61.0331 21.408 61.1217 21.3357 61.2291 21.289C61.3411 21.2423 61.4601 21.219 61.5861 21.219C61.6374 21.219 61.6911 21.2237 61.7471 21.233C61.8077 21.2423 61.8637 21.2563 61.9151 21.275L61.8591 21.625C61.8124 21.6157 61.7681 21.6063 61.7261 21.597C61.6841 21.5877 61.6374 21.583 61.5861 21.583C61.4787 21.583 61.3947 21.6063 61.3341 21.653C61.2734 21.695 61.2431 21.7557 61.2431 21.835C61.2431 21.933 61.2734 22.017 61.3341 22.087C61.3994 22.157 61.4717 22.213 61.5511 22.255C61.6351 22.2923 61.7027 22.311 61.7541 22.311L61.4671 22.339C61.5931 22.3063 61.7097 22.2737 61.8171 22.241C61.9291 22.2037 62.0294 22.1687 62.1181 22.136L62.2301 22.493C62.1181 22.535 61.9851 22.5793 61.8311 22.626C61.6817 22.6727 61.5301 22.717 61.3761 22.759C61.2221 22.801 61.0797 22.8383 60.9491 22.871ZM63.7299 26L63.5899 21.002H64.1569L64.2969 26H63.7299ZM64.9989 25.685L65.2789 25.202C65.3722 25.2627 65.5029 25.321 65.6709 25.377C65.8389 25.433 66.0349 25.461 66.2589 25.461C66.4922 25.461 66.6766 25.4377 66.8119 25.391C66.9519 25.3443 67.0522 25.2767 67.1129 25.188C67.1782 25.0947 67.2109 24.9873 67.2109 24.866C67.2109 24.7727 67.1899 24.6583 67.1479 24.523C67.1106 24.383 67.0266 24.1963 66.8959 23.963C66.7652 23.725 66.5646 23.4147 66.2939 23.032L66.7769 22.717C67.0242 23.0577 67.2202 23.3657 67.3649 23.641C67.5142 23.9163 67.6192 24.159 67.6799 24.369C67.7452 24.5743 67.7779 24.7517 67.7779 24.901C67.7779 25.0877 67.7312 25.2697 67.6379 25.447C67.5446 25.6197 67.3882 25.762 67.1689 25.874C66.9496 25.986 66.6462 26.042 66.2589 26.042C66.0909 26.042 65.9276 26.028 65.7689 26C65.6149 25.972 65.4726 25.9323 65.3419 25.881C65.2112 25.825 65.0969 25.7597 64.9989 25.685ZM66.2869 20.484C66.2029 20.484 66.1026 20.4817 65.9859 20.477C65.8739 20.4677 65.7666 20.4583 65.6639 20.449C65.5612 20.4397 65.4842 20.4327 65.4329 20.428L65.4469 20.022C65.5402 20.0313 65.6616 20.043 65.8109 20.057C65.9649 20.071 66.1072 20.078 66.2379 20.078C66.3919 20.078 66.5156 20.0687 66.6089 20.05C66.7069 20.0267 66.7769 19.994 66.8189 19.952C66.8656 19.91 66.8889 19.8633 66.8889 19.812C66.8889 19.7467 66.8679 19.7 66.8259 19.672C66.7839 19.644 66.7302 19.63 66.6649 19.63C66.5716 19.63 66.4806 19.6627 66.3919 19.728C66.3032 19.7887 66.2239 19.8587 66.1539 19.938C66.0886 20.0127 66.0396 20.0733 66.0069 20.12L65.6149 20.092C65.6942 19.938 65.7922 19.7957 65.9089 19.665C66.0256 19.5297 66.1539 19.4223 66.2939 19.343C66.4339 19.259 66.5762 19.217 66.7209 19.217C66.8982 19.217 67.0382 19.2707 67.1409 19.378C67.2436 19.4853 67.2949 19.6183 67.2949 19.777C67.2949 19.8703 67.2669 19.973 67.2109 20.085C67.1596 20.1923 67.0616 20.2857 66.9169 20.365C66.7722 20.4443 66.5622 20.484 66.2869 20.484ZM65.8039 20.022L65.7619 18.671H66.1469L66.2029 19.84L65.8039 20.022ZM73.0837 27.932C72.6591 27.932 72.2601 27.9063 71.8867 27.855C71.5181 27.8083 71.1914 27.7337 70.9067 27.631C70.6267 27.533 70.4074 27.4117 70.2487 27.267C70.0901 27.127 70.0107 26.966 70.0107 26.784C70.0107 26.5927 70.0901 26.4153 70.2487 26.252C70.4121 26.0933 70.6547 25.9557 70.9767 25.839C71.3034 25.7223 71.7117 25.6337 72.2017 25.573C72.6917 25.5077 73.2657 25.475 73.9237 25.475C74.0217 25.475 74.0917 25.503 74.1337 25.559C74.1804 25.6103 74.2037 25.6733 74.2037 25.748C74.2037 25.8227 74.1711 25.8927 74.1057 25.958C74.0404 26.0187 73.9564 26.049 73.8537 26.049C73.3871 26.049 72.9554 26.063 72.5587 26.091C72.1621 26.1237 71.8144 26.168 71.5157 26.224C71.2217 26.28 70.9907 26.35 70.8227 26.434C70.6594 26.518 70.5777 26.616 70.5777 26.728C70.5777 26.812 70.6291 26.896 70.7317 26.98C70.8344 27.064 70.9884 27.1387 71.1937 27.204C71.3991 27.274 71.6604 27.33 71.9777 27.372C72.2951 27.414 72.6661 27.435 73.0907 27.435C73.3147 27.435 73.4851 27.4327 73.6017 27.428C73.7231 27.428 73.8234 27.4257 73.9027 27.421C73.9821 27.4163 74.0731 27.4117 74.1757 27.407L74.1057 27.89C74.0497 27.8947 73.9937 27.8993 73.9377 27.904C73.8817 27.9133 73.8164 27.918 73.7417 27.918C73.6717 27.9227 73.5831 27.925 73.4757 27.925C73.3731 27.9297 73.2424 27.932 73.0837 27.932ZM73.8525 26.035L73.9225 25.461C74.0719 25.461 74.1932 25.4517 74.2865 25.433C74.3799 25.4097 74.4569 25.356 74.5175 25.272C74.5829 25.1833 74.6435 25.0457 74.6995 24.859C74.7555 24.6723 74.8209 24.411 74.8955 24.075L75.4205 24.222C75.4019 24.3013 75.3809 24.3923 75.3575 24.495C75.3342 24.593 75.3132 24.6957 75.2945 24.803C75.2759 24.9057 75.2665 25.0013 75.2665 25.09C75.2665 25.2067 75.3109 25.2977 75.3995 25.363C75.4882 25.4283 75.6492 25.461 75.8825 25.461C76.0225 25.461 76.1369 25.4493 76.2255 25.426C76.3142 25.4027 76.3865 25.3467 76.4425 25.258C76.5032 25.1693 76.5569 25.027 76.6035 24.831C76.6502 24.635 76.6992 24.3667 76.7505 24.026L77.2825 24.124C77.2685 24.208 77.2522 24.3107 77.2335 24.432C77.2149 24.5533 77.1962 24.6747 77.1775 24.796C77.1635 24.9127 77.1565 25.0107 77.1565 25.09C77.1565 25.1553 77.1705 25.2183 77.1985 25.279C77.2312 25.335 77.2919 25.3793 77.3805 25.412C77.4739 25.4447 77.6115 25.461 77.7935 25.461C77.9289 25.461 78.0455 25.4447 78.1435 25.412C78.2462 25.3793 78.3232 25.3187 78.3745 25.23C78.4305 25.1413 78.4585 25.0177 78.4585 24.859C78.4585 24.6817 78.4165 24.46 78.3325 24.194C78.2532 23.9233 78.1622 23.655 78.0595 23.389L78.6265 23.179C78.6872 23.3283 78.7432 23.4987 78.7945 23.69C78.8505 23.8813 78.8972 24.0703 78.9345 24.257C78.9719 24.4437 78.9905 24.607 78.9905 24.747C78.9905 24.9617 78.9625 25.1507 78.9065 25.314C78.8505 25.4773 78.7712 25.6127 78.6685 25.72C78.5659 25.8227 78.4399 25.902 78.2905 25.958C78.1412 26.0093 77.9732 26.035 77.7865 26.035C77.5672 26.035 77.3875 26.0093 77.2475 25.958C77.1075 25.9067 77.0002 25.8297 76.9255 25.727C76.8509 25.6197 76.8019 25.4843 76.7785 25.321H77.0165C76.9279 25.5217 76.8345 25.6733 76.7365 25.776C76.6385 25.8787 76.5172 25.9487 76.3725 25.986C76.2279 26.0187 76.0365 26.035 75.7985 26.035C75.6819 26.035 75.5559 26.0163 75.4205 25.979C75.2899 25.9417 75.1755 25.8693 75.0775 25.762C74.9795 25.65 74.9212 25.4843 74.9025 25.265L75.1125 25.223C75.0332 25.461 74.9352 25.6383 74.8185 25.755C74.7065 25.867 74.5712 25.9417 74.4125 25.979C74.2539 26.0163 74.0672 26.035 73.8525 26.035Z" fill="black" fill-opacity="0.6063"/>
<defs>
<filter id="filter0_dd_976_1901" x="11.0938" y="7.25" width="11.8125" height="5.625" filterUnits="userSpaceOnUse" color-interpolation-filters="sRGB">
<feFlood flood-opacity="0" result="BackgroundImageFix"/>
<feColorMatrix in="SourceAlpha" type="matrix" values="0 0 0 0 0 0 0 0 0 0 0 0 0 0 0 0 0 0 127 0" result="hardAlpha"/>
<feOffset dy="0.1875"/>
<feGaussianBlur stdDeviation="0.1875"/>
<feColorMatrix type="matrix" values="0 0 0 0 0 0 0 0 0 0 0 0 0 0 0 0 0 0 0.1 0"/>
<feBlend mode="normal" in2="BackgroundImageFix" result="effect1_dropShadow_976_1901"/>
<feColorMatrix in="SourceAlpha" type="matrix" values="0 0 0 0 0 0 0 0 0 0 0 0 0 0 0 0 0 0 127 0" result="hardAlpha"/>
<feOffset dy="0.375"/>
<feGaussianBlur stdDeviation="0.5625"/>
<feColorMatrix type="matrix" values="0 0 0 0 0 0 0 0 0 0 0 0 0 0 0 0 0 0 0.2 0"/>
<feBlend mode="normal" in2="effect1_dropShadow_976_1901" result="effect2_dropShadow_976_1901"/>
<feBlend mode="normal" in="SourceGraphic" in2="effect2_dropShadow_976_1901" result="shape"/>
</filter>
<filter id="filter1_dd_976_1901" x="12.2188" y="13.4375" width="9.5625" height="9.5625" filterUnits="userSpaceOnUse" color-interpolation-filters="sRGB">
<feFlood flood-opacity="0" result="BackgroundImageFix"/>
<feColorMatrix in="SourceAlpha" type="matrix" values="0 0 0 0 0 0 0 0 0 0 0 0 0 0 0 0 0 0 127 0" result="hardAlpha"/>
<feOffset dy="0.1875"/>
<feGaussianBlur stdDeviation="0.1875"/>
<feColorMatrix type="matrix" values="0 0 0 0 0 0 0 0 0 0 0 0 0 0 0 0 0 0 0.1 0"/>
<feBlend mode="normal" in2="BackgroundImageFix" result="effect1_dropShadow_976_1901"/>
<feColorMatrix in="SourceAlpha" type="matrix" values="0 0 0 0 0 0 0 0 0 0 0 0 0 0 0 0 0 0 127 0" result="hardAlpha"/>
<feOffset dy="0.375"/>
<feGaussianBlur stdDeviation="0.5625"/>
<feColorMatrix type="matrix" values="0 0 0 0 0 0 0 0 0 0 0 0 0 0 0 0 0 0 0.2 0"/>
<feBlend mode="normal" in2="effect1_dropShadow_976_1901" result="effect2_dropShadow_976_1901"/>
<feBlend mode="normal" in="SourceGraphic" in2="effect2_dropShadow_976_1901" result="shape"/>
</filter>
<filter id="filter2_dd_976_1901" x="10.5939" y="6.6875" width="12.8124" height="5.06274" filterUnits="userSpaceOnUse" color-interpolation-filters="sRGB">
<feFlood flood-opacity="0" result="BackgroundImageFix"/>
<feColorMatrix in="SourceAlpha" type="matrix" values="0 0 0 0 0 0 0 0 0 0 0 0 0 0 0 0 0 0 127 0" result="hardAlpha"/>
<feOffset dy="-0.75"/>
<feGaussianBlur stdDeviation="0.1875"/>
<feColorMatrix type="matrix" values="0 0 0 0 0 0 0 0 0 0 0 0 0 0 0 0 0 0 0.1 0"/>
<feBlend mode="normal" in2="BackgroundImageFix" result="effect1_dropShadow_976_1901"/>
<feColorMatrix in="SourceAlpha" type="matrix" values="0 0 0 0 0 0 0 0 0 0 0 0 0 0 0 0 0 0 127 0" result="hardAlpha"/>
<feOffset dy="-0.75"/>
<feGaussianBlur stdDeviation="0.5625"/>
<feColorMatrix type="matrix" values="0 0 0 0 0 0 0 0 0 0 0 0 0 0 0 0 0 0 0.2 0"/>
<feBlend mode="normal" in2="effect1_dropShadow_976_1901" result="effect2_dropShadow_976_1901"/>
<feBlend mode="normal" in="SourceGraphic" in2="effect2_dropShadow_976_1901" result="shape"/>
</filter>
<linearGradient id="paint0_linear_976_1901" x1="17" y1="10.25" x2="20.3514" y2="25.9624" gradientUnits="userSpaceOnUse">
<stop stop-color="#0669BC"/>
<stop offset="1" stop-color="#243A5F"/>
</linearGradient>
<linearGradient id="paint1_linear_976_1901" x1="17" y1="10.25" x2="20.3514" y2="25.9624" gradientUnits="userSpaceOnUse">
<stop stop-color="#0078D4"/>
<stop offset="1" stop-color="#114A8B"/>
</linearGradient>
<linearGradient id="paint2_linear_976_1901" x1="17" y1="8.5625" x2="17.1583" y2="10.9858" gradientUnits="userSpaceOnUse">
<stop stop-color="#28AFEA"/>
<stop offset="1" stop-color="#0078D4"/>
</linearGradient>
<linearGradient id="paint3_linear_976_1901" x1="17" y1="8.5625" x2="17.1583" y2="10.9858" gradientUnits="userSpaceOnUse">
<stop stop-color="#30DAFF"/>
<stop offset="1" stop-color="#0094D4"/>
</linearGradient>
<linearGradient id="paint4_linear_976_1901" x1="16.5938" y1="8" x2="16.5937" y2="9.125" gradientUnits="userSpaceOnUse">
<stop stop-color="#22BCFF"/>
<stop offset="1" stop-color="#0088F0"/>
</linearGradient>
<linearGradient id="paint5_linear_976_1901" x1="16.5938" y1="8" x2="16.5937" y2="9.125" gradientUnits="userSpaceOnUse">
<stop stop-color="#28AFEA"/>
<stop offset="1" stop-color="#3CCBF4"/>
</linearGradient>
<clipPath id="clip0_976_1901">
<rect width="18" height="18" fill="white" transform="translate(8 8)"/>
</clipPath>
<clipPath id="clip1_976_1901">
<rect width="18" height="18" fill="white" transform="translate(8 8)"/>
</clipPath>
</defs>
</svg>
