<svg width="90" height="32" viewBox="0 0 90 32" fill="none" xmlns="http://www.w3.org/2000/svg">
<rect x="0.5" y="0.5" width="89" height="31" rx="3.5" fill="white"/>
<path d="M15.5559 7H7V15.5608H15.5559V7Z" fill="#F25022"/>
<path d="M25.0001 7H16.4442V15.5608H25.0001V7Z" fill="#7FBA00"/>
<path d="M15.5559 16.4395H7V25.0002H15.5559V16.4395Z" fill="#00A4EF"/>
<path d="M25.0002 16.4395H16.4443V25.0002H25.0002V16.4395Z" fill="#FFB900"/>
<path d="M33.7305 13H32.7578L30.6406 10.4531C30.6042 10.4062 30.5729 10.3659 30.5469 10.332C30.5234 10.2982 30.5052 10.2695 30.4922 10.2461H30.4766V13H29.7656V7.39844H30.4766V10.0273H30.4922C30.5104 9.9987 30.5312 9.96745 30.5547 9.93359C30.5807 9.89974 30.6094 9.86328 30.6406 9.82422L32.6875 7.39844H33.5625L31.2031 10.082L33.7305 13ZM36.5156 9.49609C36.4635 9.48047 36.4154 9.46875 36.3711 9.46094C36.3268 9.45312 36.2734 9.44922 36.2109 9.44922C35.8802 9.44922 35.6198 9.58984 35.4297 9.87109C35.2396 10.1497 35.1445 10.5026 35.1445 10.9297V13H34.4492V8.90234H35.1445V9.71484H35.1602C35.2539 9.42578 35.3958 9.20703 35.5859 9.05859C35.7786 8.90755 36.0013 8.83203 36.2539 8.83203C36.3346 8.83203 36.4036 8.83594 36.4609 8.84375C36.5208 8.85156 36.5755 8.86328 36.625 8.87891L36.5156 9.49609ZM40.7148 8.90234L38.8047 13.7344C38.6536 14.1198 38.4609 14.4089 38.2266 14.6016C37.9922 14.7943 37.7148 14.8906 37.3945 14.8906C37.3086 14.8906 37.2279 14.8854 37.1523 14.875C37.0794 14.8646 37.0104 14.8503 36.9453 14.832L37.0781 14.25C37.1302 14.2682 37.1784 14.2812 37.2227 14.2891C37.2695 14.2969 37.3164 14.3008 37.3633 14.3008C37.5352 14.3008 37.6797 14.2552 37.7969 14.1641C37.9141 14.0729 38.0091 13.944 38.082 13.7773L38.4141 12.9922L36.8086 8.90234H37.5781L38.6641 12.0078C38.6719 12.0339 38.6823 12.0755 38.6953 12.1328C38.7109 12.1875 38.7292 12.2565 38.75 12.3398H38.7734C38.7812 12.3034 38.7917 12.2591 38.8047 12.207C38.8203 12.1523 38.8385 12.0885 38.8594 12.0156L40 8.90234H40.7148ZM46.4883 12.3125C46.3372 12.5729 46.1445 12.7695 45.9102 12.9023C45.6784 13.0326 45.4049 13.0977 45.0898 13.0977C44.5742 13.0977 44.1615 12.9141 43.8516 12.5469C43.5443 12.1797 43.3906 11.6797 43.3906 11.0469C43.3906 10.3672 43.5612 9.82422 43.9023 9.41797C44.2435 9.00911 44.6979 8.80469 45.2656 8.80469C45.5469 8.80469 45.7891 8.85938 45.9922 8.96875C46.1953 9.07812 46.3607 9.24349 46.4883 9.46484H46.5039V7.07812H47.1992V13H46.5039V12.3125H46.4883ZM44.1016 11.0117C44.1016 11.4805 44.2096 11.849 44.4258 12.1172C44.6419 12.3854 44.931 12.5195 45.293 12.5195C45.6576 12.5195 45.9505 12.3893 46.1719 12.1289C46.3932 11.8685 46.5039 11.5391 46.5039 11.1406V10.5547C46.5039 10.2266 46.3958 9.94922 46.1797 9.72266C45.9661 9.49609 45.6953 9.38281 45.3672 9.38281C44.974 9.38281 44.6641 9.52734 44.4375 9.81641C44.2135 10.1055 44.1016 10.5039 44.1016 11.0117ZM48.9062 8.03516C48.7682 8.03516 48.6536 7.98958 48.5625 7.89844C48.4714 7.80729 48.4258 7.69661 48.4258 7.56641C48.4258 7.43099 48.4714 7.31901 48.5625 7.23047C48.6536 7.13932 48.7682 7.09375 48.9062 7.09375C49.0443 7.09375 49.1589 7.13932 49.25 7.23047C49.3438 7.31901 49.3906 7.43099 49.3906 7.56641C49.3906 7.69661 49.3438 7.80729 49.25 7.89844C49.1589 7.98958 49.0443 8.03516 48.9062 8.03516ZM49.2461 13H48.5508V8.90234H49.2461V13ZM52.6523 12.9492C52.5404 12.9961 52.4284 13.0299 52.3164 13.0508C52.207 13.0742 52.0833 13.0859 51.9453 13.0859C51.6094 13.0859 51.3464 12.9896 51.1562 12.7969C50.9688 12.6042 50.875 12.319 50.875 11.9414V9.48047H50.1758V8.90234H50.875V7.96484L51.5742 7.74219V8.90234H52.5977V9.48047H51.5742V11.8672C51.5742 12.099 51.6159 12.2656 51.6992 12.3672C51.7826 12.4688 51.9076 12.5195 52.0742 12.5195C52.1523 12.5195 52.2279 12.5104 52.3008 12.4922C52.3737 12.474 52.4362 12.4518 52.4883 12.4258L52.6523 12.9492ZM56.4336 12.4609H56.418V13H55.7227V7.07812H56.418V9.61719H56.4336C56.5951 9.34635 56.7943 9.14323 57.0312 9.00781C57.2682 8.8724 57.5417 8.80469 57.8516 8.80469C58.375 8.80469 58.7852 8.98828 59.082 9.35547C59.3789 9.72005 59.5273 10.2109 59.5273 10.8281C59.5273 11.5156 59.3594 12.0664 59.0234 12.4805C58.6901 12.8919 58.2357 13.0977 57.6602 13.0977C57.3893 13.0977 57.151 13.0456 56.9453 12.9414C56.7422 12.8346 56.5716 12.6745 56.4336 12.4609ZM56.4141 10.7578V11.3125C56.4141 11.651 56.5221 11.9375 56.7383 12.1719C56.9544 12.4036 57.2305 12.5195 57.5664 12.5195C57.9544 12.5195 58.2591 12.3698 58.4805 12.0703C58.7018 11.7708 58.8125 11.3542 58.8125 10.8203C58.8125 10.3724 58.7096 10.0208 58.5039 9.76562C58.2982 9.51042 58.0182 9.38281 57.6641 9.38281C57.2865 9.38281 56.9831 9.51432 56.7539 9.77734C56.5273 10.0378 56.4141 10.3646 56.4141 10.7578ZM63.9258 8.90234L62.0156 13.7344C61.8646 14.1198 61.6719 14.4089 61.4375 14.6016C61.2031 14.7943 60.9258 14.8906 60.6055 14.8906C60.5195 14.8906 60.4388 14.8854 60.3633 14.875C60.2904 14.8646 60.2214 14.8503 60.1562 14.832L60.2891 14.25C60.3411 14.2682 60.3893 14.2812 60.4336 14.2891C60.4805 14.2969 60.5273 14.3008 60.5742 14.3008C60.7461 14.3008 60.8906 14.2552 61.0078 14.1641C61.125 14.0729 61.2201 13.944 61.293 13.7773L61.625 12.9922L60.0195 8.90234H60.7891L61.875 12.0078C61.8828 12.0339 61.8932 12.0755 61.9062 12.1328C61.9219 12.1875 61.9401 12.2565 61.9609 12.3398H61.9844C61.9922 12.3034 62.0026 12.2591 62.0156 12.207C62.0312 12.1523 62.0495 12.0885 62.0703 12.0156L63.2109 8.90234H63.9258Z" fill="black" fill-opacity="0.8956"/>
<path d="M41.1489 16.6123C41.1489 16.3559 41.2412 16.1508 41.4259 15.9764C41.6105 15.8021 41.8258 15.72 42.0823 15.72C42.3489 15.72 42.5746 15.8123 42.7489 15.9867C42.9233 16.161 43.0156 16.3764 43.0156 16.6123C43.0156 16.8585 42.9233 17.0738 42.7387 17.238C42.5541 17.4123 42.3387 17.4944 42.072 17.4944C41.8053 17.4944 41.59 17.4123 41.4053 17.238C41.2412 17.0636 41.1489 16.8585 41.1489 16.6123ZM42.8412 25.0021H41.313V18.4892H42.8412V25.0021Z" fill="black" fill-opacity="0.8956"/>
<path d="M47.4975 23.8887C47.7231 23.8887 47.9795 23.8374 48.2565 23.7349C48.5334 23.6323 48.7795 23.4887 49.0154 23.3144V24.74C48.7693 24.8836 48.4924 24.9862 48.1847 25.0579C47.877 25.1297 47.5282 25.1708 47.159 25.1708C46.2052 25.1708 45.4257 24.8631 44.8205 24.2579C44.2154 23.6528 43.918 22.8733 43.918 21.94C43.918 20.8938 44.2257 20.0323 44.8411 19.3554C45.4564 18.6785 46.318 18.34 47.4462 18.34C47.7334 18.34 48.0206 18.381 48.318 18.4528C48.6154 18.5246 48.8411 18.6169 49.0154 18.7092V20.1759C48.7795 20.0015 48.5334 19.8682 48.2872 19.7759C48.0411 19.6836 47.7847 19.6323 47.5282 19.6323C46.9231 19.6323 46.4411 19.8272 46.0616 20.2169C45.6923 20.6067 45.5077 21.14 45.5077 21.8067C45.5077 22.4631 45.6821 22.9759 46.0411 23.3451C46.4 23.7144 46.8821 23.8887 47.4975 23.8887Z" fill="black" fill-opacity="0.8956"/>
<path d="M53.3738 18.39C53.4969 18.39 53.6097 18.4003 53.702 18.4105C53.7943 18.431 53.8866 18.4516 53.9482 18.4721V20.0208C53.8661 19.9592 53.7533 19.908 53.5995 19.8567C53.4456 19.8054 53.261 19.7746 53.0354 19.7746C52.6559 19.7746 52.3379 19.9285 52.0815 20.2464C51.8251 20.5644 51.6918 21.0464 51.6918 21.7131V25.0054H50.1636V18.4926H51.6918V19.5182H51.7123C51.8559 19.1592 52.061 18.8823 52.3482 18.6874C52.6354 18.4926 52.9738 18.39 53.3738 18.39Z" fill="black" fill-opacity="0.8956"/>
<path d="M54.0308 21.8477C54.0308 20.7708 54.3385 19.9195 54.9436 19.2836C55.5487 18.6579 56.4 18.34 57.4769 18.34C58.4923 18.34 59.2923 18.6477 59.8667 19.2528C60.441 19.8579 60.7282 20.6785 60.7282 21.7041C60.7282 22.7605 60.4205 23.6015 59.8154 24.2272C59.2102 24.8528 58.3795 25.1605 57.3333 25.1605C56.3282 25.1605 55.5179 24.8631 54.9333 24.2682C54.3282 23.6836 54.0308 22.8733 54.0308 21.8477ZM55.6308 21.7964C55.6308 22.4733 55.7846 22.9964 56.0923 23.3554C56.4 23.7144 56.841 23.8887 57.4154 23.8887C57.9692 23.8887 58.4 23.7144 58.6872 23.3554C58.9743 22.9964 59.1282 22.4631 59.1282 21.7554C59.1282 21.0579 58.9743 20.5246 58.6769 20.1656C58.3795 19.8067 57.9487 19.6323 57.4051 19.6323C56.841 19.6323 56.4102 19.8169 56.0923 20.1964C55.7846 20.5759 55.6308 21.099 55.6308 21.7964Z" fill="black" fill-opacity="0.8956"/>
<path d="M63.0053 20.2069C63.0053 20.4223 63.0771 20.5967 63.2104 20.7198C63.354 20.8428 63.6617 20.9967 64.1335 21.1916C64.7489 21.4377 65.1796 21.7146 65.4258 22.0223C65.6719 22.33 65.795 22.6993 65.795 23.13C65.795 23.7454 65.5591 24.2377 65.0873 24.607C64.6155 24.9762 63.9796 25.1608 63.1796 25.1608C62.913 25.1608 62.6155 25.13 62.2873 25.0582C61.9591 24.9967 61.6822 24.9044 61.4565 24.8121V23.3044C61.7335 23.4993 62.0309 23.6531 62.3591 23.7659C62.6771 23.8787 62.9745 23.9403 63.2309 23.9403C63.5796 23.9403 63.836 23.889 64.0001 23.7967C64.1642 23.7044 64.2463 23.5403 64.2463 23.3044C64.2463 23.089 64.1642 22.9146 63.9899 22.7711C63.8155 22.6275 63.4976 22.4531 63.0155 22.2685C62.4514 22.0326 62.0514 21.7659 61.8155 21.4685C61.5796 21.171 61.4565 20.7916 61.4565 20.3403C61.4565 19.7557 61.6924 19.2736 62.154 18.8941C62.6155 18.5146 63.2206 18.33 63.9694 18.33C64.195 18.33 64.4514 18.3505 64.7386 18.4018C65.0258 18.4531 65.2617 18.5146 65.4463 18.5967V20.0531C65.2412 19.9198 65.0053 19.8069 64.7386 19.7044C64.4719 19.6121 64.195 19.5608 63.9386 19.5608C63.6514 19.5608 63.4155 19.6223 63.2617 19.7351C63.0873 19.848 63.0053 20.0121 63.0053 20.2069Z" fill="black" fill-opacity="0.8956"/>
<path d="M66.4717 21.8477C66.4717 20.7708 66.7794 19.9195 67.3845 19.2836C67.9896 18.6579 68.8409 18.34 69.9178 18.34C70.9332 18.34 71.7332 18.6477 72.3076 19.2528C72.8819 19.8579 73.1691 20.6785 73.1691 21.7041C73.1691 22.7605 72.8614 23.6015 72.2563 24.2272C71.6512 24.8528 70.8204 25.1605 69.7742 25.1605C68.7691 25.1605 67.9589 24.8631 67.3742 24.2682C66.7691 23.6836 66.4717 22.8733 66.4717 21.8477ZM68.0614 21.7964C68.0614 22.4733 68.2153 22.9964 68.523 23.3554C68.8307 23.7144 69.2717 23.8887 69.846 23.8887C70.3999 23.8887 70.8307 23.7144 71.1178 23.3554C71.405 22.9964 71.5589 22.4631 71.5589 21.7554C71.5589 21.0579 71.405 20.5246 71.1076 20.1656C70.8101 19.8067 70.3794 19.6323 69.8358 19.6323C69.2717 19.6323 68.8409 19.8169 68.523 20.1964C68.2153 20.5759 68.0614 21.099 68.0614 21.7964Z" fill="black" fill-opacity="0.8956"/>
<path d="M78.2258 19.7523V23.0959C78.2258 23.7933 78.3899 24.3062 78.7079 24.6549C79.0258 25.0036 79.5181 25.1677 80.1643 25.1677C80.3797 25.1677 80.6053 25.1472 80.8309 25.0959C81.0566 25.0446 81.2207 25.0036 81.313 24.9421V23.6703C81.2207 23.7318 81.1079 23.7831 80.9848 23.8241C80.8617 23.8651 80.7489 23.8857 80.6668 23.8857C80.3591 23.8857 80.1232 23.8036 79.9797 23.6395C79.8361 23.4754 79.7643 23.1882 79.7643 22.7882V19.7421H81.3232V18.4908H79.7745V16.5626L78.2361 17.0344V18.501H75.9489V17.7113C75.9489 17.3215 76.0309 17.0241 76.2053 16.819C76.3796 16.6139 76.6258 16.5215 76.9438 16.5215C77.1079 16.5215 77.2514 16.5421 77.3848 16.5831C77.5079 16.6241 77.6002 16.6651 77.6514 16.6959V15.3728C77.5386 15.3318 77.4155 15.3113 77.272 15.2908C77.1284 15.2703 76.9643 15.26 76.7797 15.26C76.0822 15.26 75.5079 15.4754 75.0668 15.9164C74.6258 16.3574 74.4002 16.9113 74.4002 17.5985V18.501H73.313V19.7523H74.4002V25.0139H75.9489V19.7523H78.2258V19.7523Z" fill="black" fill-opacity="0.8956"/>
<path d="M39.8359 15.92V25.0072H38.2564V17.8892H38.2359L35.4154 25.0072H34.3692L31.4769 17.8892H31.4564V25.0072H30V15.92H32.2564L34.8718 22.6585H34.9128L37.6718 15.92H39.8359Z" fill="black" fill-opacity="0.8956"/>
<rect x="0.5" y="0.5" width="89" height="31" rx="3.5" stroke="url(#paint0_linear_1602_26715)"/>
<defs>
<linearGradient id="paint0_linear_1602_26715" x1="45" y1="1" x2="45" y2="31" gradientUnits="userSpaceOnUse">
<stop offset="0.905762" stop-opacity="0.0578"/>
<stop offset="1" stop-opacity="0.1622"/>
</linearGradient>
</defs>
</svg>
