<svg width="139" height="35" viewBox="0 0 139 35" fill="none" xmlns="http://www.w3.org/2000/svg">
<rect x="1" y="1" width="137" height="33" rx="4" fill="#202020"/>
<rect x="0.5" y="0.5" width="138" height="34" rx="4.5" stroke="black" stroke-opacity="0.1"/>
<g clip-path="url(#clip0_963_7207)">
<g clip-path="url(#clip1_963_7207)">
<path d="M8.28125 11.5C8.28125 11.0858 8.61704 10.75 9.03125 10.75H24.9687C25.383 10.75 25.7188 11.0858 25.7188 11.5V22.8438C25.7188 24.5524 24.3336 25.9375 22.625 25.9375H11.375C9.66637 25.9375 8.28125 24.5524 8.28125 22.8438V11.5Z" fill="url(#paint0_linear_963_7207)"/>
<mask id="mask0_963_7207" style="mask-type:alpha" maskUnits="userSpaceOnUse" x="8" y="10" width="18" height="16">
<path d="M8.28125 11.5C8.28125 11.0858 8.61704 10.75 9.03125 10.75H24.9687C25.383 10.75 25.7188 11.0858 25.7188 11.5V22.8438C25.7188 24.5524 24.3336 25.9375 22.625 25.9375H11.375C9.66637 25.9375 8.28125 24.5524 8.28125 22.8438V11.5Z" fill="url(#paint1_linear_963_7207)"/>
</mask>
<g mask="url(#mask0_963_7207)">
<g filter="url(#filter0_dd_963_7207)">
<path d="M12.7812 11.3125V9.0625H21.2187V11.3125" stroke="url(#paint2_linear_963_7207)" stroke-width="1.125" stroke-linecap="round"/>
</g>
</g>
<g filter="url(#filter1_dd_963_7207)">
<path d="M16.719 14.6875H13.344V18.0625H16.719V14.6875Z" fill="#F25022"/>
<path d="M20.6562 14.6875H17.2812V18.0625H20.6562V14.6875Z" fill="#7FBA00"/>
<path d="M20.6562 18.625H17.2812V22H20.6562V18.625Z" fill="#FFB900"/>
<path d="M16.7188 18.625H13.3438V22H16.7188V18.625Z" fill="#00A4EF"/>
</g>
<path d="M12.7812 11.3125V9.625C12.7812 9.31434 13.0331 9.0625 13.3438 9.0625H20.6563C20.9669 9.0625 21.2188 9.31434 21.2188 9.625V11.3125" stroke="url(#paint3_linear_963_7207)" stroke-width="1.125" stroke-linecap="round"/>
<rect x="13.3438" y="8.5" width="7.3125" height="1.125" fill="url(#paint4_linear_963_7207)"/>
<mask id="mask1_963_7207" style="mask-type:alpha" maskUnits="userSpaceOnUse" x="13" y="8" width="8" height="2">
<rect x="13.3438" y="8.5" width="7.3125" height="1.125" fill="url(#paint5_linear_963_7207)"/>
</mask>
<g mask="url(#mask1_963_7207)">
<g filter="url(#filter2_dd_963_7207)">
<rect x="11.7189" y="9.06277" width="1.625" height="2.8125" fill="#C4C4C4"/>
</g>
</g>
</g>
</g>
<path d="M31.001 10.542C30.861 10.542 30.763 10.5047 30.707 10.43C30.651 10.3507 30.623 10.2387 30.623 10.094V9.352C30.623 9.226 30.5973 9.13267 30.546 9.072C30.4947 9.00667 30.4177 8.974 30.315 8.974V8.68L31.106 8.624C31.1573 8.67067 31.1993 8.73367 31.232 8.813C31.2647 8.89233 31.281 9.01367 31.281 9.177V9.751C31.281 9.835 31.2927 9.90733 31.316 9.968C31.3393 10.024 31.379 10.0683 31.435 10.101C31.4957 10.129 31.5773 10.143 31.68 10.143V10.437C31.5587 10.465 31.4397 10.4907 31.323 10.514C31.2063 10.5327 31.099 10.542 31.001 10.542ZM31.211 14.035C31.1457 13.965 31.099 13.8693 31.071 13.748C31.043 13.6267 31.029 13.4937 31.029 13.349V11.732C31.029 11.284 31.1083 10.9107 31.267 10.612C31.4303 10.3133 31.6497 10.0893 31.925 9.94C32.205 9.786 32.5223 9.709 32.877 9.709C33.199 9.709 33.4557 9.76967 33.647 9.891C33.8383 10.0077 33.9737 10.185 34.053 10.423C34.137 10.6563 34.179 10.948 34.179 11.298C34.179 11.41 34.1767 11.5453 34.172 11.704C34.172 11.858 34.1697 12.0237 34.165 12.201C34.165 12.3737 34.1627 12.544 34.158 12.712C34.158 12.88 34.158 13.0317 34.158 13.167C34.158 13.3723 34.1907 13.51 34.256 13.58C34.3213 13.6453 34.4263 13.678 34.571 13.678V13.972L33.64 14.035C33.5747 13.965 33.528 13.8763 33.5 13.769C33.472 13.657 33.458 13.517 33.458 13.349C33.458 13.1857 33.458 13.0177 33.458 12.845C33.4627 12.6677 33.465 12.4903 33.465 12.313C33.465 12.131 33.465 11.9513 33.465 11.774C33.4697 11.592 33.472 11.417 33.472 11.249C33.472 10.8477 33.4207 10.5467 33.318 10.346C33.2153 10.1453 33.0333 10.045 32.772 10.045C32.5527 10.045 32.3637 10.108 32.205 10.234C32.051 10.3553 31.932 10.5537 31.848 10.829C31.7687 11.0997 31.729 11.459 31.729 11.907V13.167C31.729 13.3723 31.7617 13.51 31.827 13.58C31.8923 13.6453 31.9973 13.678 32.142 13.678V13.972L31.211 14.035Z" fill="white" fill-opacity="0.786"/>
<path d="M39.2275 26H37.96V21.0854C37.96 20.8634 37.9653 20.6217 37.9761 20.3604C37.9904 20.0954 38.0083 19.8143 38.0298 19.5171H37.9976C37.9546 19.7212 37.9134 19.8966 37.874 20.0435C37.8382 20.1867 37.8024 20.3013 37.7666 20.3872L35.5054 26H34.6245L32.3525 20.4355C32.3239 20.3568 32.2881 20.2404 32.2451 20.0864C32.2057 19.9325 32.1628 19.7427 32.1162 19.5171H32.084C32.1055 19.7749 32.1198 20.0488 32.127 20.3389C32.1341 20.6253 32.1377 20.9279 32.1377 21.2466V26H30.9561V18.2979H32.7607L34.7642 23.3037C34.8429 23.4935 34.9074 23.6689 34.9575 23.8301C35.0112 23.9876 35.0524 24.1344 35.0811 24.2705H35.1133C35.1777 24.0664 35.2386 23.882 35.2959 23.7173C35.3532 23.5526 35.4069 23.4093 35.457 23.2876L37.4873 18.2979H39.2275V26ZM41.6177 19.4365C41.3885 19.4365 41.1987 19.3631 41.0483 19.2163C40.8979 19.0695 40.8228 18.8887 40.8228 18.6738C40.8228 18.4518 40.8979 18.2692 41.0483 18.126C41.1987 17.9827 41.3885 17.9111 41.6177 17.9111C41.8504 17.9111 42.042 17.9827 42.1924 18.126C42.3428 18.2692 42.418 18.4518 42.418 18.6738C42.418 18.8923 42.3428 19.0749 42.1924 19.2217C42.042 19.3649 41.8504 19.4365 41.6177 19.4365ZM42.2354 26H40.9839V20.5H42.2354V26ZM47.9824 25.6616C47.7103 25.8263 47.4399 25.9445 47.1714 26.0161C46.9028 26.0913 46.611 26.1289 46.2959 26.1289C45.4508 26.1289 44.7741 25.8818 44.2656 25.3877C43.7607 24.8936 43.5083 24.2222 43.5083 23.3735C43.5083 22.4604 43.7697 21.7318 44.2925 21.1875C44.8188 20.6432 45.5278 20.3711 46.4194 20.3711C46.731 20.3711 47.0138 20.4051 47.2681 20.4731C47.5259 20.5376 47.7873 20.645 48.0522 20.7954L47.5635 21.6655C47.3773 21.5617 47.1947 21.4865 47.0156 21.4399C46.8366 21.3898 46.6414 21.3647 46.4302 21.3647C45.9038 21.3647 45.4974 21.5384 45.2109 21.8857C44.9245 22.2331 44.7812 22.6932 44.7812 23.2661C44.7812 23.8677 44.9352 24.3296 45.2432 24.6519C45.5547 24.9741 45.945 25.1353 46.4141 25.1353C46.5573 25.1353 46.722 25.1102 46.9082 25.0601C47.0944 25.0063 47.2824 24.9222 47.4722 24.8076L47.9824 25.6616ZM52.1021 21.5474C52.034 21.5295 51.9678 21.5169 51.9033 21.5098C51.8424 21.499 51.7708 21.4937 51.6885 21.4937C51.2409 21.4937 50.8971 21.6584 50.6572 21.9878C50.4173 22.3172 50.2974 22.7469 50.2974 23.2769V26H49.0459V20.5H50.2974V21.5581H50.3188C50.4478 21.1785 50.6375 20.8921 50.8882 20.6987C51.1388 20.5018 51.4342 20.4033 51.7744 20.4033C51.8711 20.4033 51.957 20.4087 52.0322 20.4194C52.111 20.4302 52.1862 20.4463 52.2578 20.4678L52.1021 21.5474ZM55.5557 26.1289C54.6963 26.1289 54.0142 25.8729 53.5093 25.3608C53.008 24.8452 52.7573 24.1559 52.7573 23.293C52.7609 22.3799 53.0223 21.6655 53.5415 21.1499C54.0607 20.6307 54.7679 20.3711 55.6631 20.3711C56.526 20.3675 57.1992 20.6217 57.6826 21.1338C58.1696 21.6423 58.4131 22.3315 58.4131 23.2017C58.4131 24.0968 58.1553 24.8094 57.6396 25.3394C57.1276 25.8657 56.4329 26.1289 55.5557 26.1289ZM55.6147 25.1353C56.1125 25.1353 56.4902 24.9723 56.748 24.6465C57.0094 24.3206 57.1401 23.8498 57.1401 23.2339C57.1401 22.6252 57.0094 22.1615 56.748 21.8428C56.4867 21.5241 56.1071 21.3647 55.6094 21.3647C55.1188 21.3647 54.7321 21.533 54.4492 21.8696C54.1699 22.2062 54.0303 22.6717 54.0303 23.2661C54.0303 23.8641 54.1699 24.326 54.4492 24.6519C54.7285 24.9741 55.117 25.1353 55.6147 25.1353ZM59.1543 25.5596L59.6968 24.6787C59.9116 24.8291 60.139 24.9508 60.3789 25.0439C60.6224 25.1335 60.8856 25.1782 61.1685 25.1782C61.4764 25.1782 61.7145 25.1227 61.8828 25.0117C62.0547 24.8971 62.1406 24.7271 62.1406 24.5015C62.1406 24.3224 62.069 24.1738 61.9258 24.0557C61.7861 23.9339 61.5462 23.8337 61.2061 23.7549C60.5186 23.5938 60.0352 23.3807 59.7559 23.1157C59.4801 22.8507 59.3423 22.5016 59.3423 22.0684C59.3423 21.5706 59.5356 21.1642 59.9224 20.8491C60.3091 20.5304 60.8158 20.3711 61.4424 20.3711C61.7539 20.3711 62.0511 20.4123 62.334 20.4946C62.6169 20.5734 62.8926 20.7005 63.1611 20.876L62.6562 21.7354C62.4199 21.585 62.2033 21.4775 62.0063 21.4131C61.8094 21.3486 61.6071 21.3164 61.3994 21.3164C61.1058 21.3164 60.8766 21.3719 60.7119 21.4829C60.5508 21.5903 60.4702 21.7407 60.4702 21.9341C60.4702 22.1382 60.5526 22.2904 60.7173 22.3906C60.8856 22.4873 61.1667 22.5822 61.5605 22.6753C62.1549 22.8185 62.59 23.0262 62.8657 23.2983C63.1414 23.5669 63.2793 23.9268 63.2793 24.3779C63.2793 24.9115 63.0841 25.3376 62.6938 25.6562C62.3071 25.9714 61.7826 26.1289 61.1201 26.1289C60.762 26.1289 60.4183 26.0824 60.0889 25.9893C59.763 25.8926 59.4515 25.7493 59.1543 25.5596ZM66.8779 26.1289C66.0186 26.1289 65.3364 25.8729 64.8315 25.3608C64.3302 24.8452 64.0796 24.1559 64.0796 23.293C64.0832 22.3799 64.3446 21.6655 64.8638 21.1499C65.383 20.6307 66.0902 20.3711 66.9854 20.3711C67.8483 20.3675 68.5215 20.6217 69.0049 21.1338C69.4919 21.6423 69.7354 22.3315 69.7354 23.2017C69.7354 24.0968 69.4775 24.8094 68.9619 25.3394C68.4499 25.8657 67.7552 26.1289 66.8779 26.1289ZM66.937 25.1353C67.4347 25.1353 67.8125 24.9723 68.0703 24.6465C68.3317 24.3206 68.4624 23.8498 68.4624 23.2339C68.4624 22.6252 68.3317 22.1615 68.0703 21.8428C67.8089 21.5241 67.4294 21.3647 66.9316 21.3647C66.4411 21.3647 66.0544 21.533 65.7715 21.8696C65.4922 22.2062 65.3525 22.6717 65.3525 23.2661C65.3525 23.8641 65.4922 24.326 65.7715 24.6519C66.0508 24.9741 66.4393 25.1353 66.937 25.1353ZM73.9839 18.8403C73.8836 18.8009 73.7923 18.7741 73.71 18.7598C73.6276 18.7419 73.5381 18.7329 73.4414 18.7329C73.1764 18.7329 72.9759 18.8099 72.8398 18.9639C72.7074 19.1143 72.6411 19.3327 72.6411 19.6191V20.5H73.9141V21.4775H72.6411V26H71.395V21.4775H70.4604V20.5H71.395V19.5547C71.395 18.9961 71.5741 18.5539 71.9321 18.228C72.2938 17.8986 72.7718 17.7339 73.3662 17.7339C73.5524 17.7339 73.7135 17.7464 73.8496 17.7715C73.9857 17.7965 74.1271 17.8324 74.2739 17.8789L73.9839 18.8403ZM77.7974 25.9248C77.6362 25.9928 77.4679 26.043 77.2925 26.0752C77.117 26.1074 76.929 26.1235 76.7285 26.1235C76.2201 26.1235 75.828 25.9893 75.5522 25.7207C75.2801 25.4486 75.144 25.0439 75.144 24.5068V21.4775H74.2202V20.5H75.144V19.1626L76.3901 18.7866V20.5H77.7061V21.4775H76.3901V24.4048C76.3901 24.6733 76.4385 24.8667 76.5352 24.9849C76.6354 25.103 76.7894 25.1621 76.9971 25.1621C77.0973 25.1621 77.1922 25.1514 77.2817 25.1299C77.3748 25.1048 77.4572 25.0744 77.5288 25.0386L77.7974 25.9248ZM81.2939 25.4468L81.8633 24.4639C82.2106 24.6787 82.5347 24.8309 82.8354 24.9204C83.1362 25.0063 83.4728 25.0493 83.8452 25.0493C84.2892 25.0493 84.6383 24.9544 84.8926 24.7646C85.1504 24.5713 85.2793 24.2956 85.2793 23.9375C85.2793 23.6117 85.1719 23.3556 84.957 23.1694C84.7458 22.9797 84.3859 22.806 83.8774 22.6484C83.0933 22.4157 82.5168 22.1274 82.1479 21.7837C81.7791 21.4399 81.5947 20.9744 81.5947 20.3872C81.5947 19.7498 81.8328 19.2217 82.3091 18.8027C82.7853 18.3802 83.4316 18.1689 84.248 18.1689C84.6061 18.1689 84.9588 18.2083 85.3062 18.2871C85.6535 18.3659 85.9972 18.4876 86.3374 18.6523L85.8594 19.6729C85.5622 19.5189 85.2775 19.4097 85.0054 19.3452C84.7368 19.2808 84.4629 19.2485 84.1836 19.2485C83.7754 19.2485 83.4531 19.3381 83.2168 19.5171C82.984 19.6961 82.8677 19.9486 82.8677 20.2744C82.8677 20.5645 82.9751 20.7936 83.1899 20.9619C83.4048 21.1266 83.7736 21.2896 84.2964 21.4507C85.0985 21.6906 85.675 21.9896 86.0259 22.3477C86.3804 22.7057 86.5576 23.1981 86.5576 23.8247C86.5576 24.4979 86.3177 25.0511 85.8379 25.4844C85.3581 25.9141 84.6742 26.1289 83.7861 26.1289C83.3421 26.1289 82.9089 26.0734 82.4863 25.9624C82.0638 25.8478 81.6663 25.6759 81.2939 25.4468ZM90.4409 25.9248C90.2798 25.9928 90.1115 26.043 89.936 26.0752C89.7606 26.1074 89.5726 26.1235 89.3721 26.1235C88.8636 26.1235 88.4715 25.9893 88.1958 25.7207C87.9237 25.4486 87.7876 25.0439 87.7876 24.5068V21.4775H86.8638V20.5H87.7876V19.1626L89.0337 18.7866V20.5H90.3496V21.4775H89.0337V24.4048C89.0337 24.6733 89.082 24.8667 89.1787 24.9849C89.279 25.103 89.4329 25.1621 89.6406 25.1621C89.7409 25.1621 89.8358 25.1514 89.9253 25.1299C90.0184 25.1048 90.1007 25.0744 90.1724 25.0386L90.4409 25.9248ZM93.8623 26.1289C93.0029 26.1289 92.3208 25.8729 91.8159 25.3608C91.3146 24.8452 91.064 24.1559 91.064 23.293C91.0675 22.3799 91.3289 21.6655 91.8481 21.1499C92.3674 20.6307 93.0745 20.3711 93.9697 20.3711C94.8327 20.3675 95.5059 20.6217 95.9893 21.1338C96.4762 21.6423 96.7197 22.3315 96.7197 23.2017C96.7197 24.0968 96.4619 24.8094 95.9463 25.3394C95.4342 25.8657 94.7396 26.1289 93.8623 26.1289ZM93.9214 25.1353C94.4191 25.1353 94.7969 24.9723 95.0547 24.6465C95.3161 24.3206 95.4468 23.8498 95.4468 23.2339C95.4468 22.6252 95.3161 22.1615 95.0547 21.8428C94.7933 21.5241 94.4137 21.3647 93.916 21.3647C93.4255 21.3647 93.0387 21.533 92.7559 21.8696C92.4766 22.2062 92.3369 22.6717 92.3369 23.2661C92.3369 23.8641 92.4766 24.326 92.7559 24.6519C93.0352 24.9741 93.4237 25.1353 93.9214 25.1353ZM101.054 21.5474C100.986 21.5295 100.92 21.5169 100.855 21.5098C100.795 21.499 100.723 21.4937 100.641 21.4937C100.193 21.4937 99.8493 21.6584 99.6094 21.9878C99.3695 22.3172 99.2495 22.7469 99.2495 23.2769V26H97.998V20.5H99.2495V21.5581H99.271C99.3999 21.1785 99.5897 20.8921 99.8403 20.6987C100.091 20.5018 100.386 20.4033 100.727 20.4033C100.823 20.4033 100.909 20.4087 100.984 20.4194C101.063 20.4302 101.138 20.4463 101.21 20.4678L101.054 21.5474ZM106.721 23.5776H102.966C102.988 24.0968 103.138 24.4925 103.417 24.7646C103.697 25.0332 104.087 25.1675 104.588 25.1675C104.792 25.1675 105.025 25.1263 105.287 25.0439C105.548 24.9616 105.806 24.8291 106.06 24.6465L106.624 25.4253C106.284 25.6724 105.938 25.8514 105.587 25.9624C105.236 26.0734 104.85 26.1289 104.427 26.1289C103.571 26.1289 102.905 25.8836 102.429 25.3931C101.953 24.8989 101.713 24.2096 101.709 23.3252C101.709 22.4443 101.955 21.7318 102.445 21.1875C102.939 20.6432 103.571 20.3711 104.341 20.3711C105.079 20.3711 105.659 20.6038 106.082 21.0693C106.508 21.5312 106.721 22.1865 106.721 23.0352V23.5776ZM105.512 22.7129C105.512 22.2402 105.408 21.8857 105.201 21.6494C104.997 21.4095 104.707 21.2896 104.331 21.2896C103.976 21.2896 103.674 21.4185 103.423 21.6763C103.176 21.9305 103.024 22.276 102.966 22.7129H105.512Z" fill="white"/>
<path d="M110.644 26V25.02C110.644 24.8847 110.632 24.7423 110.609 24.593C110.586 24.4437 110.544 24.2873 110.483 24.124C110.422 23.956 110.336 23.781 110.224 23.599C110.135 23.4543 110.044 23.3097 109.951 23.165C109.862 23.0203 109.785 22.8663 109.72 22.703C109.659 22.535 109.629 22.3507 109.629 22.15C109.629 21.758 109.753 21.457 110 21.247C110.252 21.037 110.581 20.932 110.987 20.932C111.426 20.932 111.75 21.044 111.96 21.268C112.175 21.4873 112.282 21.765 112.282 22.101C112.282 22.4883 112.154 22.794 111.897 23.018C111.64 23.242 111.304 23.403 110.889 23.501C111.043 23.7483 111.153 23.9933 111.218 24.236C111.283 24.474 111.316 24.6933 111.316 24.894V26H110.644ZM110.742 23.207C111.027 23.137 111.251 23.0157 111.414 22.843C111.577 22.6657 111.659 22.423 111.659 22.115C111.659 21.8443 111.598 21.6367 111.477 21.492C111.36 21.3473 111.19 21.275 110.966 21.275C110.747 21.275 110.574 21.3473 110.448 21.492C110.322 21.6367 110.259 21.842 110.259 22.108C110.259 22.3133 110.301 22.5047 110.385 22.682C110.469 22.8547 110.588 23.0297 110.742 23.207ZM109.412 26.469C109.328 26.469 109.251 26.4573 109.181 26.434C109.111 26.4107 109.057 26.385 109.02 26.357C109.081 26.3057 109.132 26.238 109.174 26.154C109.216 26.07 109.237 25.965 109.237 25.839C109.237 25.7177 109.218 25.615 109.181 25.531C109.148 25.447 109.095 25.3677 109.02 25.293C109.057 25.2697 109.111 25.2487 109.181 25.23C109.251 25.2067 109.328 25.195 109.412 25.195C109.599 25.195 109.739 25.2417 109.832 25.335C109.93 25.4237 109.988 25.5287 110.007 25.65H111.057V26H110.007C109.984 26.126 109.925 26.2357 109.832 26.329C109.739 26.4223 109.599 26.469 109.412 26.469ZM118.699 23.424C118.512 23.424 118.372 23.3773 118.279 23.284C118.185 23.1907 118.127 23.081 118.104 22.955H117.054V22.605H118.104C118.127 22.4837 118.185 22.3787 118.279 22.29C118.372 22.1967 118.512 22.15 118.699 22.15C118.783 22.15 118.86 22.1617 118.93 22.185C119.004 22.2037 119.058 22.2247 119.091 22.248C119.016 22.3227 118.96 22.402 118.923 22.486C118.89 22.57 118.874 22.6727 118.874 22.794C118.874 22.92 118.895 23.025 118.937 23.109C118.979 23.193 119.03 23.2607 119.091 23.312C119.058 23.34 119.004 23.3657 118.93 23.389C118.86 23.4123 118.783 23.424 118.699 23.424ZM114.296 24.992C113.838 24.992 113.486 24.845 113.239 24.551C112.991 24.257 112.868 23.8323 112.868 23.277C112.868 22.941 112.912 22.6353 113.001 22.36C113.089 22.08 113.215 21.8397 113.379 21.639C113.547 21.4337 113.747 21.2773 113.981 21.17C114.219 21.058 114.487 21.002 114.786 21.002H115.808C116.284 21.002 116.664 21.1467 116.949 21.436C117.233 21.7207 117.376 22.1477 117.376 22.717C117.376 23.0437 117.313 23.3493 117.187 23.634C117.061 23.9187 116.881 24.1473 116.648 24.32C116.414 24.4927 116.134 24.579 115.808 24.579H115.318C115.262 24.635 115.185 24.6957 115.087 24.761C114.989 24.8263 114.874 24.8823 114.744 24.929C114.613 24.971 114.464 24.992 114.296 24.992ZM114.394 24.628C114.501 24.628 114.597 24.6117 114.681 24.579C114.765 24.5463 114.832 24.5067 114.884 24.46V21.345H114.779C114.606 21.345 114.445 21.3847 114.296 21.464C114.151 21.5387 114.025 21.6553 113.918 21.814C113.81 21.968 113.726 22.1617 113.666 22.395C113.605 22.6237 113.575 22.892 113.575 23.2C113.575 23.704 113.652 24.068 113.806 24.292C113.964 24.516 114.16 24.628 114.394 24.628ZM115.521 24.229H115.724C115.92 24.229 116.078 24.187 116.2 24.103C116.326 24.019 116.421 23.907 116.487 23.767C116.557 23.627 116.603 23.473 116.627 23.305C116.655 23.1323 116.669 22.962 116.669 22.794C116.669 22.5 116.643 22.2457 116.592 22.031C116.54 21.8117 116.452 21.6437 116.326 21.527C116.2 21.4057 116.022 21.345 115.794 21.345H115.521V24.229ZM122.887 26.448C122.715 26.448 122.579 26.399 122.481 26.301C122.388 26.203 122.332 26.1027 122.313 26H121.844C121.564 26 121.305 25.9837 121.067 25.951C120.829 25.9137 120.622 25.8413 120.444 25.734C120.272 25.622 120.136 25.4563 120.038 25.237C119.94 25.0177 119.891 24.7213 119.891 24.348V23.452C119.891 22.92 119.98 22.472 120.157 22.108C120.339 21.744 120.594 21.4687 120.92 21.282C121.247 21.0953 121.625 21.002 122.054 21.002H123.09C123.086 21.044 123.079 21.0907 123.069 21.142C123.065 21.1933 123.062 21.2517 123.062 21.317C123.062 21.4337 123.076 21.5457 123.104 21.653C123.132 21.7603 123.17 21.849 123.216 21.919C123.179 21.9377 123.132 21.9563 123.076 21.975C123.02 21.989 122.953 21.996 122.873 21.996C122.696 21.996 122.558 21.94 122.46 21.828C122.362 21.716 122.313 21.59 122.313 21.45C122.313 21.4313 122.313 21.415 122.313 21.401C122.313 21.387 122.316 21.366 122.32 21.338H122.103C121.777 21.338 121.497 21.4173 121.263 21.576C121.03 21.73 120.853 21.9657 120.731 22.283C120.61 22.6003 120.549 23.0017 120.549 23.487V24.313C120.549 24.6397 120.584 24.894 120.654 25.076C120.724 25.258 120.822 25.391 120.948 25.475C121.074 25.559 121.217 25.6127 121.375 25.636C121.539 25.6547 121.711 25.664 121.893 25.664H122.313C122.332 25.5473 122.388 25.4423 122.481 25.349C122.579 25.251 122.715 25.202 122.887 25.202C122.967 25.202 123.032 25.2113 123.083 25.23C123.135 25.244 123.179 25.2603 123.216 25.279C123.17 25.349 123.13 25.4307 123.097 25.524C123.065 25.6127 123.048 25.713 123.048 25.825C123.048 25.937 123.062 26.0373 123.09 26.126C123.123 26.2193 123.165 26.301 123.216 26.371C123.179 26.3897 123.135 26.406 123.083 26.42C123.032 26.4387 122.967 26.448 122.887 26.448ZM129.517 25.748C129.316 25.748 129.164 25.692 129.062 25.58C128.959 25.468 128.908 25.3327 128.908 25.174C128.908 25.1413 128.908 25.1133 128.908 25.09C128.912 25.062 128.917 25.0363 128.922 25.013H127.921V24.663H129.741C129.731 24.6957 129.72 24.7493 129.706 24.824C129.692 24.894 129.685 24.971 129.685 25.055C129.685 25.181 129.706 25.2953 129.748 25.398C129.79 25.496 129.848 25.5753 129.923 25.636C129.876 25.6687 129.815 25.6967 129.741 25.72C129.671 25.7387 129.596 25.748 129.517 25.748ZM124.204 25.083C124.129 25.083 124.054 25.0737 123.98 25.055C123.91 25.0317 123.849 25.0037 123.798 24.971C123.872 24.9103 123.931 24.831 123.973 24.733C124.015 24.6303 124.036 24.516 124.036 24.39C124.036 24.306 124.029 24.229 124.015 24.159C124.001 24.0843 123.989 24.0307 123.98 23.998H125.8V24.348H124.799C124.803 24.3713 124.806 24.397 124.806 24.425C124.81 24.4483 124.813 24.4763 124.813 24.509C124.813 24.6677 124.761 24.803 124.659 24.915C124.561 25.027 124.409 25.083 124.204 25.083ZM127.655 26.035C127.608 25.9603 127.573 25.8693 127.55 25.762C127.531 25.6547 127.522 25.517 127.522 25.349V24.726C127.522 24.5907 127.491 24.495 127.431 24.439C127.37 24.3783 127.27 24.348 127.13 24.348H124.974V23.998H127.522C127.76 23.998 127.928 24.0493 128.026 24.152C128.128 24.2547 128.18 24.3993 128.18 24.586V25.314C128.18 25.468 128.21 25.573 128.271 25.629C128.331 25.6803 128.425 25.706 128.551 25.706V25.972L127.655 26.035ZM125.842 24.194C125.669 24.0307 125.51 23.858 125.366 23.676C125.221 23.494 125.107 23.298 125.023 23.088C124.939 22.8733 124.897 22.6377 124.897 22.381C124.897 22.059 124.953 21.7907 125.065 21.576C125.181 21.3567 125.354 21.1933 125.583 21.086C125.816 20.974 126.103 20.918 126.444 20.918C126.812 20.918 127.099 20.9997 127.305 21.163C127.51 21.3217 127.613 21.541 127.613 21.821C127.613 22.017 127.566 22.1873 127.473 22.332C127.379 22.472 127.249 22.591 127.081 22.689C126.913 22.787 126.714 22.8663 126.486 22.927C126.257 22.983 126.005 23.025 125.73 23.053C125.823 23.2397 125.958 23.4333 126.136 23.634C126.318 23.83 126.509 24.0167 126.71 24.194H125.842ZM125.611 22.731C125.881 22.7123 126.117 22.6727 126.318 22.612C126.518 22.5467 126.675 22.4487 126.787 22.318C126.903 22.1827 126.962 22.0077 126.962 21.793C126.962 21.611 126.903 21.4733 126.787 21.38C126.675 21.282 126.53 21.233 126.353 21.233C126.077 21.233 125.872 21.3217 125.737 21.499C125.606 21.6763 125.541 21.912 125.541 22.206C125.541 22.304 125.545 22.3973 125.555 22.486C125.569 22.57 125.587 22.6517 125.611 22.731Z" fill="white" fill-opacity="0.786"/>
<defs>
<filter id="filter0_dd_963_7207" x="11.0938" y="7.75" width="11.8125" height="5.625" filterUnits="userSpaceOnUse" color-interpolation-filters="sRGB">
<feFlood flood-opacity="0" result="BackgroundImageFix"/>
<feColorMatrix in="SourceAlpha" type="matrix" values="0 0 0 0 0 0 0 0 0 0 0 0 0 0 0 0 0 0 127 0" result="hardAlpha"/>
<feOffset dy="0.1875"/>
<feGaussianBlur stdDeviation="0.1875"/>
<feColorMatrix type="matrix" values="0 0 0 0 0 0 0 0 0 0 0 0 0 0 0 0 0 0 0.1 0"/>
<feBlend mode="normal" in2="BackgroundImageFix" result="effect1_dropShadow_963_7207"/>
<feColorMatrix in="SourceAlpha" type="matrix" values="0 0 0 0 0 0 0 0 0 0 0 0 0 0 0 0 0 0 127 0" result="hardAlpha"/>
<feOffset dy="0.375"/>
<feGaussianBlur stdDeviation="0.5625"/>
<feColorMatrix type="matrix" values="0 0 0 0 0 0 0 0 0 0 0 0 0 0 0 0 0 0 0.2 0"/>
<feBlend mode="normal" in2="effect1_dropShadow_963_7207" result="effect2_dropShadow_963_7207"/>
<feBlend mode="normal" in="SourceGraphic" in2="effect2_dropShadow_963_7207" result="shape"/>
</filter>
<filter id="filter1_dd_963_7207" x="12.2188" y="13.9375" width="9.5625" height="9.5625" filterUnits="userSpaceOnUse" color-interpolation-filters="sRGB">
<feFlood flood-opacity="0" result="BackgroundImageFix"/>
<feColorMatrix in="SourceAlpha" type="matrix" values="0 0 0 0 0 0 0 0 0 0 0 0 0 0 0 0 0 0 127 0" result="hardAlpha"/>
<feOffset dy="0.1875"/>
<feGaussianBlur stdDeviation="0.1875"/>
<feColorMatrix type="matrix" values="0 0 0 0 1 0 0 0 0 1 0 0 0 0 1 0 0 0 0.6 0"/>
<feBlend mode="normal" in2="BackgroundImageFix" result="effect1_dropShadow_963_7207"/>
<feColorMatrix in="SourceAlpha" type="matrix" values="0 0 0 0 0 0 0 0 0 0 0 0 0 0 0 0 0 0 127 0" result="hardAlpha"/>
<feOffset dy="0.375"/>
<feGaussianBlur stdDeviation="0.5625"/>
<feColorMatrix type="matrix" values="0 0 0 0 1 0 0 0 0 1 0 0 0 0 1 0 0 0 0.6 0"/>
<feBlend mode="normal" in2="effect1_dropShadow_963_7207" result="effect2_dropShadow_963_7207"/>
<feBlend mode="normal" in="SourceGraphic" in2="effect2_dropShadow_963_7207" result="shape"/>
</filter>
<filter id="filter2_dd_963_7207" x="10.5939" y="7.1875" width="12.8124" height="5.06277" filterUnits="userSpaceOnUse" color-interpolation-filters="sRGB">
<feFlood flood-opacity="0" result="BackgroundImageFix"/>
<feColorMatrix in="SourceAlpha" type="matrix" values="0 0 0 0 0 0 0 0 0 0 0 0 0 0 0 0 0 0 127 0" result="hardAlpha"/>
<feOffset dy="-0.75"/>
<feGaussianBlur stdDeviation="0.1875"/>
<feColorMatrix type="matrix" values="0 0 0 0 0 0 0 0 0 0 0 0 0 0 0 0 0 0 0.1 0"/>
<feBlend mode="normal" in2="BackgroundImageFix" result="effect1_dropShadow_963_7207"/>
<feColorMatrix in="SourceAlpha" type="matrix" values="0 0 0 0 0 0 0 0 0 0 0 0 0 0 0 0 0 0 127 0" result="hardAlpha"/>
<feOffset dy="-0.75"/>
<feGaussianBlur stdDeviation="0.5625"/>
<feColorMatrix type="matrix" values="0 0 0 0 0 0 0 0 0 0 0 0 0 0 0 0 0 0 0.2 0"/>
<feBlend mode="normal" in2="effect1_dropShadow_963_7207" result="effect2_dropShadow_963_7207"/>
<feBlend mode="normal" in="SourceGraphic" in2="effect2_dropShadow_963_7207" result="shape"/>
</filter>
<linearGradient id="paint0_linear_963_7207" x1="12.2443" y1="8.50639" x2="15.9039" y2="25.3132" gradientUnits="userSpaceOnUse">
<stop offset="0.270833" stop-color="white"/>
<stop offset="1" stop-color="#DFDFDF"/>
</linearGradient>
<linearGradient id="paint1_linear_963_7207" x1="17" y1="10.75" x2="20.3514" y2="26.4624" gradientUnits="userSpaceOnUse">
<stop stop-color="#0078D4"/>
<stop offset="1" stop-color="#114A8B"/>
</linearGradient>
<linearGradient id="paint2_linear_963_7207" x1="17" y1="9.0625" x2="17.1583" y2="11.4858" gradientUnits="userSpaceOnUse">
<stop stop-color="#28AFEA"/>
<stop offset="1" stop-color="#0078D4"/>
</linearGradient>
<linearGradient id="paint3_linear_963_7207" x1="17" y1="9.0625" x2="17.1583" y2="11.4858" gradientUnits="userSpaceOnUse">
<stop stop-color="#30DAFF"/>
<stop offset="1" stop-color="#0094D4"/>
</linearGradient>
<linearGradient id="paint4_linear_963_7207" x1="16.5938" y1="8.5" x2="16.5937" y2="9.625" gradientUnits="userSpaceOnUse">
<stop stop-color="#22BCFF"/>
<stop offset="1" stop-color="#0088F0"/>
</linearGradient>
<linearGradient id="paint5_linear_963_7207" x1="16.5938" y1="8.5" x2="16.5937" y2="9.625" gradientUnits="userSpaceOnUse">
<stop stop-color="#28AFEA"/>
<stop offset="1" stop-color="#3CCBF4"/>
</linearGradient>
<clipPath id="clip0_963_7207">
<rect width="18" height="18" fill="white" transform="translate(8 8.5)"/>
</clipPath>
<clipPath id="clip1_963_7207">
<rect width="18" height="18" fill="white" transform="translate(8 8.5)"/>
</clipPath>
</defs>
</svg>
