<svg width="88" height="32" viewBox="0 0 88 32" fill="none" xmlns="http://www.w3.org/2000/svg">
<rect x="0.5" y="0.5" width="87.0007" height="31" rx="3.5" fill="white" fill-opacity="0.7"/>
<path d="M71.5586 6.99994H62.9986V15.5606H71.5586V6.99994Z" fill="#F25022"/>
<path d="M81.0006 6.99994H72.4406V15.5606H81.0006V6.99994Z" fill="#7FBA00"/>
<path d="M71.5586 16.4393H62.9986V24.9999H71.5586V16.4393Z" fill="#00A4EF"/>
<path d="M81.0007 16.4393H72.4407V24.9999H81.0007V16.4393Z" fill="#FFB900"/>
<path d="M8.95785 25.0081C8.95785 24.8161 8.98452 24.6028 9.03785 24.3681C9.09118 24.1334 9.17652 23.8748 9.29385 23.5921L9.86985 23.8161C9.78452 24.0401 9.72052 24.2454 9.67785 24.4321C9.63518 24.6188 9.61385 24.7921 9.61385 24.9521C9.61385 25.2454 9.68585 25.4828 9.82985 25.6641C9.97918 25.8508 10.1765 25.9868 10.4218 26.0721C10.6725 26.1574 10.9472 26.2001 11.2458 26.2001C11.6085 26.2001 11.9125 26.1601 12.1578 26.0801C12.4032 26.0054 12.5978 25.9014 12.7418 25.7681C12.8858 25.6348 12.9872 25.4828 13.0458 25.3121C13.1098 25.1468 13.1418 24.9734 13.1418 24.7921C13.1418 24.5574 13.1232 24.3361 13.0858 24.1281C13.0538 23.9201 13.0085 23.7174 12.9499 23.5201C12.8965 23.3174 12.8379 23.1121 12.7738 22.9041L13.4218 22.7281C13.4805 22.9308 13.5258 23.0961 13.5578 23.2241C13.5898 23.3468 13.6138 23.4454 13.6298 23.5201C13.6512 23.5948 13.6699 23.6614 13.6859 23.7201C13.7445 23.9174 13.8218 24.0641 13.9179 24.1601C14.0139 24.2508 14.1232 24.3121 14.2459 24.3441C14.3739 24.3708 14.5045 24.3841 14.6378 24.3841C14.7498 24.3841 14.8299 24.4161 14.8779 24.4801C14.9312 24.5388 14.9578 24.6108 14.9578 24.6961C14.9578 24.7814 14.9205 24.8614 14.8458 24.9361C14.7712 25.0054 14.6752 25.0401 14.5578 25.0401C14.3338 25.0401 14.1472 25.0028 13.9978 24.9281C13.8485 24.8481 13.7312 24.7494 13.6459 24.6321C13.5658 24.5148 13.5125 24.3921 13.4858 24.2641L13.8138 24.6721C13.7978 24.9441 13.7445 25.2081 13.6539 25.4641C13.5685 25.7254 13.4298 25.9601 13.2378 26.1681C13.0458 26.3814 12.7845 26.5494 12.4538 26.6721C12.1285 26.7948 11.7178 26.8561 11.2218 26.8561C10.9178 26.8561 10.6298 26.8188 10.3578 26.7441C10.0858 26.6694 9.84318 26.5548 9.62985 26.4001C9.42185 26.2508 9.25652 26.0588 9.13385 25.8241C9.01652 25.5948 8.95785 25.3228 8.95785 25.0081ZM11.3738 21.8161C11.2618 21.8161 11.1658 21.7788 11.0858 21.7041C11.0112 21.6241 10.9738 21.5308 10.9738 21.4241C10.9738 21.3174 11.0112 21.2241 11.0858 21.1441C11.1658 21.0641 11.2618 21.0241 11.3738 21.0241C11.4805 21.0241 11.5712 21.0641 11.6458 21.1441C11.7258 21.2241 11.7658 21.3174 11.7658 21.4241C11.7658 21.5308 11.7258 21.6241 11.6458 21.7041C11.5712 21.7788 11.4805 21.8161 11.3738 21.8161ZM14.5616 25.0401L14.6416 24.3841C14.7909 24.3841 14.9163 24.3521 15.0176 24.2881C15.1189 24.2241 15.2176 24.1174 15.3136 23.9681C15.4096 23.8188 15.5136 23.6188 15.6256 23.3681C15.7803 23.0268 15.9323 22.7681 16.0816 22.5921C16.2363 22.4161 16.3883 22.2961 16.5376 22.2321C16.6923 22.1681 16.8443 22.1361 16.9936 22.1361C17.1749 22.1361 17.3429 22.1841 17.4976 22.2801C17.6523 22.3708 17.7883 22.4934 17.9056 22.6481C18.0229 22.8028 18.1136 22.9734 18.1776 23.1601C18.2469 23.3414 18.2816 23.5228 18.2816 23.7041C18.2816 24.0241 18.2256 24.2801 18.1136 24.4721C18.0016 24.6588 17.8576 24.7948 17.6816 24.8801C17.5109 24.9601 17.3323 25.0001 17.1456 25.0001C16.9803 25.0001 16.7669 24.9681 16.5056 24.9041C16.2496 24.8401 15.9243 24.6774 15.5296 24.4161L15.8416 23.9121C16.1029 24.0774 16.3376 24.1921 16.5456 24.2561C16.7589 24.3148 16.9349 24.3441 17.0736 24.3441C17.2283 24.3441 17.3509 24.3228 17.4416 24.2801C17.5323 24.2321 17.5989 24.1654 17.6416 24.0801C17.6843 23.9948 17.7056 23.8988 17.7056 23.7921C17.7056 23.6374 17.6683 23.4828 17.5936 23.3281C17.5189 23.1734 17.4229 23.0454 17.3056 22.9441C17.1936 22.8428 17.0736 22.7921 16.9456 22.7921C16.8496 22.7921 16.7563 22.8188 16.6656 22.8721C16.5749 22.9254 16.4816 23.0241 16.3856 23.1681C16.2896 23.3121 16.1803 23.5201 16.0576 23.7921C15.9296 24.0801 15.8069 24.3094 15.6896 24.4801C15.5776 24.6454 15.4629 24.7681 15.3456 24.8481C15.2283 24.9281 15.1056 24.9788 14.9776 25.0001C14.8549 25.0268 14.7163 25.0401 14.5616 25.0401ZM23.288 25.0401C22.8614 25.0401 22.5334 24.9921 22.304 24.8961C22.08 24.8001 21.9254 24.6508 21.84 24.4481C21.7547 24.2454 21.7067 23.9841 21.696 23.6641L21.536 19.2881H22.192L22.352 23.4081C22.3627 23.6694 22.3867 23.8721 22.424 24.0161C22.4667 24.1548 22.5574 24.2508 22.696 24.3041C22.84 24.3574 23.064 24.3841 23.368 24.3841C23.48 24.3841 23.56 24.4161 23.608 24.4801C23.6614 24.5388 23.688 24.6108 23.688 24.6961C23.688 24.7814 23.6507 24.8614 23.576 24.9361C23.5014 25.0054 23.4054 25.0401 23.288 25.0401ZM25.7442 26.7361C25.4082 26.7361 25.1042 26.6588 24.8322 26.5041C24.5602 26.3494 24.3442 26.1148 24.1842 25.8001C24.0242 25.4908 23.9442 25.1014 23.9442 24.6321C23.9442 24.2001 23.9948 23.8028 24.0962 23.4401C24.1975 23.0774 24.3308 22.7654 24.4962 22.5041C24.6668 22.2374 24.8535 22.0321 25.0562 21.8881C25.2588 21.7441 25.4588 21.6721 25.6562 21.6721C25.8322 21.6721 25.9895 21.7228 26.1282 21.8241C26.2668 21.9254 26.3762 22.0668 26.4562 22.2481C26.5362 22.4294 26.5762 22.6454 26.5762 22.8961C26.5762 23.1201 26.5415 23.3441 26.4722 23.5681C26.4028 23.7921 26.2722 23.9948 26.0802 24.1761C25.8935 24.3574 25.6242 24.4961 25.2722 24.5921L25.7922 24.1521C25.9628 24.1948 26.1335 24.2348 26.3042 24.2721C26.4802 24.3041 26.6588 24.3308 26.8402 24.3521C27.0268 24.3734 27.2215 24.3841 27.4242 24.3841C27.5362 24.3841 27.6162 24.4161 27.6642 24.4801C27.7175 24.5388 27.7442 24.6108 27.7442 24.6961C27.7442 24.7814 27.7068 24.8614 27.6322 24.9361C27.5575 25.0054 27.4615 25.0401 27.3442 25.0401C27.2002 25.0401 27.0455 25.0321 26.8802 25.0161C26.7148 25.0001 26.5495 24.9814 26.3842 24.9601C26.2188 24.9334 26.0615 24.9041 25.9122 24.8721L26.6082 24.8481C26.7415 24.9921 26.8322 25.1468 26.8802 25.3121C26.9335 25.4828 26.9468 25.6508 26.9202 25.8161C26.8988 25.9868 26.8375 26.1414 26.7362 26.2801C26.6402 26.4188 26.5095 26.5281 26.3442 26.6081C26.1788 26.6934 25.9788 26.7361 25.7442 26.7361ZM23.2882 25.0401L23.3682 24.3841C23.4802 24.3841 23.5922 24.3841 23.7042 24.3841C23.8162 24.3841 23.9228 24.3814 24.0242 24.3761L24.0562 24.9681C23.9335 24.9894 23.8055 25.0054 23.6722 25.0161C23.5442 25.0321 23.4162 25.0401 23.2882 25.0401ZM25.7602 26.0801C25.8562 26.0801 25.9495 26.0614 26.0402 26.0241C26.1362 25.9921 26.2135 25.9334 26.2722 25.8481C26.3362 25.7681 26.3682 25.6588 26.3682 25.5201C26.3682 25.3868 26.3335 25.2641 26.2642 25.1521C26.2002 25.0454 26.0855 24.9574 25.9202 24.8881C25.7548 24.8188 25.5202 24.7841 25.2162 24.7841C25.1522 24.7841 25.0802 24.7894 25.0002 24.8001C24.9255 24.8054 24.8482 24.8161 24.7682 24.8321C24.6882 24.8428 24.6055 24.8588 24.5202 24.8801V24.3361C24.7228 24.3094 24.9068 24.2694 25.0722 24.2161C25.2428 24.1574 25.3922 24.0774 25.5202 23.9761C25.6482 23.8748 25.7468 23.7414 25.8162 23.5761C25.8855 23.4108 25.9202 23.2081 25.9202 22.9681C25.9202 22.8881 25.9095 22.7974 25.8882 22.6961C25.8722 22.5948 25.8402 22.5094 25.7922 22.4401C25.7442 22.3654 25.6802 22.3281 25.6002 22.3281C25.5202 22.3281 25.4215 22.3814 25.3042 22.4881C25.1922 22.5948 25.0802 22.7441 24.9682 22.9361C24.8615 23.1281 24.7708 23.3574 24.6962 23.6241C24.6268 23.8854 24.5922 24.1734 24.5922 24.4881C24.5922 24.8348 24.6295 25.1121 24.7042 25.3201C24.7842 25.5334 24.8855 25.6934 25.0082 25.8001C25.1308 25.9121 25.2588 25.9868 25.3922 26.0241C25.5255 26.0614 25.6482 26.0801 25.7602 26.0801ZM27.3428 25.0401L27.4228 24.3841C27.6895 24.3841 27.8975 24.3654 28.0468 24.3281C28.1962 24.2854 28.3082 24.2081 28.3828 24.0961C28.4628 23.9788 28.5268 23.8108 28.5748 23.5921C28.6228 23.3734 28.6815 23.0881 28.7508 22.7361L29.3748 22.8561C29.3535 22.9521 29.3295 23.0588 29.3028 23.1761C29.2762 23.2934 29.2522 23.4108 29.2308 23.5281C29.2148 23.6401 29.2068 23.7388 29.2068 23.8241C29.2068 23.9041 29.2122 23.9788 29.2228 24.0481C29.2335 24.1174 29.2735 24.1761 29.3428 24.2241C29.4122 24.2721 29.5295 24.3121 29.6948 24.3441C29.8602 24.3708 30.0975 24.3841 30.4068 24.3841C30.5188 24.3841 30.5988 24.4161 30.6468 24.4801C30.7002 24.5388 30.7268 24.6108 30.7268 24.6961C30.7268 24.7814 30.6895 24.8614 30.6148 24.9361C30.5402 25.0054 30.4442 25.0401 30.3268 25.0401C30.0015 25.0401 29.7428 25.0241 29.5508 24.9921C29.3588 24.9548 29.2122 24.9014 29.1108 24.8321C29.0148 24.7628 28.9455 24.6774 28.9028 24.5761C28.8655 24.4694 28.8362 24.3468 28.8148 24.2081L29.0548 24.2241C28.9695 24.3948 28.8762 24.5334 28.7748 24.6401C28.6788 24.7468 28.5668 24.8294 28.4388 24.8881C28.3108 24.9468 28.1562 24.9868 27.9748 25.0081C27.7988 25.0294 27.5882 25.0401 27.3428 25.0401ZM29.3588 26.5521C29.2468 26.5521 29.1508 26.5121 29.0708 26.4321C28.9962 26.3574 28.9588 26.2668 28.9588 26.1601C28.9588 26.0534 28.9962 25.9601 29.0708 25.8801C29.1508 25.8001 29.2468 25.7601 29.3588 25.7601C29.4655 25.7601 29.5562 25.8001 29.6308 25.8801C29.7108 25.9601 29.7508 26.0534 29.7508 26.1601C29.7508 26.2668 29.7108 26.3574 29.6308 26.4321C29.5562 26.5121 29.4655 26.5521 29.3588 26.5521ZM28.2628 26.5521C28.1508 26.5521 28.0548 26.5121 27.9748 26.4321C27.9002 26.3574 27.8628 26.2668 27.8628 26.1601C27.8628 26.0534 27.9002 25.9601 27.9748 25.8801C28.0548 25.8001 28.1508 25.7601 28.2628 25.7601C28.3695 25.7601 28.4602 25.8001 28.5348 25.8801C28.6148 25.9601 28.6548 26.0534 28.6548 26.1601C28.6548 26.2668 28.6148 26.3574 28.5348 26.4321C28.4602 26.5121 28.3695 26.5521 28.2628 26.5521ZM30.3272 25.0401L30.3992 24.3841C30.7032 24.3841 30.9166 24.3548 31.0392 24.2961C31.1619 24.2374 31.2312 24.1334 31.2472 23.9841C31.2686 23.8348 31.2739 23.6268 31.2632 23.3601L31.1272 19.2881H31.7912L31.9192 23.3441C31.9299 23.6161 31.9726 23.8294 32.0472 23.9841C32.1272 24.1334 32.2339 24.2374 32.3672 24.2961C32.5006 24.3548 32.6472 24.3841 32.8072 24.3841C32.9192 24.3841 32.9992 24.4161 33.0472 24.4801C33.1006 24.5388 33.1272 24.6108 33.1272 24.6961C33.1272 24.7814 33.0899 24.8614 33.0152 24.9361C32.9406 25.0054 32.8446 25.0401 32.7272 25.0401C32.5032 25.0401 32.3166 25.0054 32.1672 24.9361C32.0232 24.8614 31.9086 24.7681 31.8232 24.6561C31.7432 24.5388 31.6899 24.4161 31.6632 24.2881L31.8312 24.3041C31.7779 24.4641 31.6899 24.6001 31.5672 24.7121C31.4499 24.8188 31.2899 24.9014 31.0872 24.9601C30.8846 25.0134 30.6312 25.0401 30.3272 25.0401ZM32.7257 25.0401L32.8057 24.3841C33.1417 24.3841 33.4003 24.3814 33.5817 24.3761C33.7683 24.3708 33.9043 24.3654 33.9897 24.3601C34.075 24.3494 34.1337 24.3441 34.1657 24.3441C34.0697 24.2908 33.9577 24.2081 33.8297 24.0961C33.7017 23.9788 33.5897 23.8321 33.4937 23.6561C33.3977 23.4748 33.3497 23.2614 33.3497 23.0161C33.3497 22.7121 33.419 22.4454 33.5577 22.2161C33.7017 21.9868 33.8963 21.8081 34.1417 21.6801C34.3923 21.5521 34.6777 21.4881 34.9977 21.4881C35.1203 21.4881 35.251 21.4988 35.3897 21.5201C35.5283 21.5414 35.6617 21.5734 35.7897 21.6161L35.6537 22.2321C35.547 22.2054 35.435 22.1841 35.3177 22.1681C35.2003 22.1521 35.0937 22.1441 34.9977 22.1441C34.8057 22.1441 34.635 22.1814 34.4857 22.2561C34.3363 22.3254 34.219 22.4241 34.1337 22.5521C34.0483 22.6801 34.0057 22.8348 34.0057 23.0161C34.0057 23.1548 34.035 23.2828 34.0937 23.4001C34.1523 23.5121 34.2297 23.6134 34.3257 23.7041C34.4217 23.7948 34.5283 23.8694 34.6457 23.9281C34.763 23.9868 34.8777 24.0321 34.9897 24.0641C35.107 24.0961 35.211 24.1094 35.3017 24.1041C35.3657 24.0828 35.4243 24.0641 35.4777 24.0481C35.531 24.0321 35.5897 24.0134 35.6537 23.9921C35.723 23.9654 35.8057 23.9308 35.9017 23.8881C36.003 23.8454 36.131 23.7894 36.2857 23.7201L36.5097 24.3041C36.1523 24.4481 35.787 24.5761 35.4137 24.6881C35.0457 24.8001 34.643 24.8881 34.2057 24.9521C33.7737 25.0108 33.2803 25.0401 32.7257 25.0401ZM39.1844 25.0081C39.1844 24.8801 39.1951 24.7441 39.2164 24.6001C39.2431 24.4508 39.2804 24.2934 39.3284 24.1281C39.3817 23.9574 39.4457 23.7788 39.5204 23.5921L40.0964 23.8161C40.0431 23.9654 39.9951 24.1068 39.9524 24.2401C39.9151 24.3734 39.8857 24.4988 39.8644 24.6161C39.8484 24.7334 39.8404 24.8454 39.8404 24.9521C39.8404 25.2241 39.9124 25.4534 40.0564 25.6401C40.2004 25.8268 40.3871 25.9654 40.6164 26.0561C40.8511 26.1521 41.1017 26.2001 41.3684 26.2001C41.8911 26.2001 42.2991 26.1068 42.5924 25.9201C42.8857 25.7388 43.0911 25.4961 43.2084 25.1921C43.3257 24.8934 43.3764 24.5654 43.3604 24.2081L43.1844 19.2881H43.8484L43.9764 23.3441C43.9871 23.6161 44.0297 23.8294 44.1044 23.9841C44.1844 24.1334 44.2911 24.2374 44.4244 24.2961C44.5577 24.3548 44.7044 24.3841 44.8644 24.3841C44.9764 24.3841 45.0564 24.4161 45.1044 24.4801C45.1577 24.5388 45.1844 24.6108 45.1844 24.6961C45.1844 24.7814 45.1471 24.8614 45.0724 24.9361C44.9977 25.0054 44.9017 25.0401 44.7844 25.0401C44.6191 25.0401 44.4777 25.0188 44.3604 24.9761C44.2431 24.9281 44.1471 24.8694 44.0724 24.8001C43.9977 24.7254 43.9391 24.6428 43.8964 24.5521C43.8537 24.4561 43.8217 24.3601 43.8004 24.2641L44.0244 24.4881C44.0031 24.7708 43.9417 25.0508 43.8404 25.3281C43.7444 25.6108 43.5951 25.8668 43.3924 26.0961C43.1897 26.3254 42.9177 26.5094 42.5764 26.6481C42.2404 26.7868 41.8244 26.8561 41.3284 26.8561C41.0511 26.8561 40.7817 26.8134 40.5204 26.7281C40.2644 26.6481 40.0351 26.5281 39.8324 26.3681C39.6351 26.2081 39.4777 26.0134 39.3604 25.7841C39.2431 25.5601 39.1844 25.3014 39.1844 25.0081ZM52.3802 25.0401C52.2415 25.0401 52.0655 25.0268 51.8522 25.0001C51.6442 24.9681 51.4308 24.9148 51.2122 24.8401C50.9988 24.7654 50.8175 24.6614 50.6682 24.5281L51.3242 24.2001C51.5108 24.2748 51.7028 24.3254 51.9002 24.3521C52.1028 24.3734 52.2895 24.3841 52.4602 24.3841C52.5722 24.3841 52.6522 24.4161 52.7002 24.4801C52.7535 24.5388 52.7802 24.6108 52.7802 24.6961C52.7802 24.7814 52.7428 24.8614 52.6682 24.9361C52.5935 25.0054 52.4975 25.0401 52.3802 25.0401ZM48.6602 25.1441C48.1908 25.1441 47.7962 25.1254 47.4762 25.0881C47.1615 25.0561 46.9055 25.0054 46.7082 24.9361C46.5108 24.8668 46.3615 24.7788 46.2602 24.6721C46.1588 24.5654 46.0895 24.4374 46.0522 24.2881L46.2362 24.2241C46.1028 24.4801 45.9588 24.6668 45.8042 24.7841C45.6495 24.8961 45.4868 24.9681 45.3162 25.0001C45.1508 25.0268 44.9748 25.0401 44.7882 25.0401L44.8682 24.3841C45.0548 24.3841 45.2068 24.3574 45.3242 24.3041C45.4468 24.2508 45.5455 24.1628 45.6202 24.0401C45.7002 23.9174 45.7695 23.7548 45.8282 23.5521C45.8868 23.3494 45.9508 23.0988 46.0202 22.8001L46.6042 22.9521C46.5722 23.0748 46.5428 23.1921 46.5162 23.3041C46.4895 23.4161 46.4682 23.5148 46.4522 23.6001C46.4415 23.6801 46.4362 23.7441 46.4362 23.7921C46.4362 23.9201 46.4655 24.0294 46.5242 24.1201C46.5828 24.2054 46.6948 24.2774 46.8602 24.3361C47.0255 24.3894 47.2628 24.4294 47.5722 24.4561C47.8868 24.4774 48.2975 24.4881 48.8042 24.4881C49.1562 24.4881 49.4708 24.4668 49.7482 24.4241C50.0255 24.3814 50.2575 24.3174 50.4442 24.2321C50.6362 24.1414 50.7828 24.0321 50.8842 23.9041C50.9855 23.7761 51.0362 23.6294 51.0362 23.4641C51.0362 23.3468 51.0068 23.2321 50.9482 23.1201C50.8895 23.0028 50.7988 22.9041 50.6762 22.8241C50.5535 22.7441 50.3908 22.7041 50.1882 22.7041C49.9322 22.7041 49.6762 22.7708 49.4202 22.9041C49.1695 23.0374 48.9295 23.2054 48.7002 23.4081C48.4762 23.6054 48.2762 23.8081 48.1002 24.0161C47.9242 24.2241 47.7828 24.4054 47.6762 24.5601L46.9802 24.5361C47.1508 24.2588 47.3535 23.9761 47.5882 23.6881C47.8282 23.3948 48.0895 23.1254 48.3722 22.8801C48.6602 22.6294 48.9615 22.4294 49.2762 22.2801C49.5908 22.1254 49.9108 22.0481 50.2362 22.0481C50.5295 22.0481 50.7802 22.1094 50.9882 22.2321C51.2015 22.3494 51.3642 22.5094 51.4762 22.7121C51.5935 22.9148 51.6522 23.1441 51.6522 23.4001C51.6522 23.7148 51.5588 24.0054 51.3722 24.2721C51.1908 24.5334 50.8815 24.7441 50.4442 24.9041C50.0068 25.0641 49.4122 25.1441 48.6602 25.1441ZM52.3819 25.0401L52.4539 24.3841C52.7312 24.3841 53.0032 24.3628 53.2699 24.3201C53.5366 24.2774 53.7979 24.2161 54.0539 24.1361C54.3099 24.0561 54.5552 23.9601 54.7899 23.8481C55.0299 23.7308 55.2566 23.5974 55.4699 23.4481C55.3312 23.3254 55.1712 23.2188 54.9899 23.1281C54.8086 23.0374 54.6086 22.9681 54.3899 22.9201C54.1766 22.8668 53.9499 22.8401 53.7099 22.8401C53.6246 22.8401 53.5446 22.8428 53.4699 22.8481C53.3952 22.8534 53.3206 22.8641 53.2459 22.8801C53.1712 22.8908 53.0859 22.9068 52.9899 22.9281L52.8619 22.3201C53.0059 22.2774 53.1499 22.2454 53.2939 22.2241C53.4379 22.1974 53.5766 22.1841 53.7099 22.1841C53.9872 22.1841 54.2379 22.2188 54.4619 22.2881C54.6859 22.3521 54.8886 22.4321 55.0699 22.5281C55.2566 22.6241 55.4299 22.7201 55.5899 22.8161C55.7552 22.9121 55.9152 22.9948 56.0699 23.0641C56.2246 23.1281 56.3846 23.1601 56.5499 23.1601H56.7179L56.7739 23.7361C56.5446 23.7361 56.3339 23.7681 56.1419 23.8321C55.9499 23.8961 55.7606 23.9788 55.5739 24.0801C55.3926 24.1761 55.2006 24.2801 54.9979 24.3921C54.7952 24.4988 54.5712 24.6028 54.3259 24.7041C54.0806 24.8001 53.7979 24.8801 53.4779 24.9441C53.1632 25.0081 52.7979 25.0401 52.3819 25.0401ZM57.8288 25.0001L57.6688 19.2881H58.3168L58.4768 25.0001H57.8288Z" fill="black" fill-opacity="0.8956"/>
<path d="M18.1481 8.55983C18.1481 8.3035 18.2404 8.09844 18.425 7.92414C18.6096 7.74984 18.825 7.66782 19.0814 7.66782C19.3481 7.66782 19.5737 7.76009 19.7481 7.93439C19.9224 8.1087 20.0148 8.32401 20.0148 8.55983C20.0148 8.8059 19.9224 9.02122 19.7378 9.18526C19.5532 9.35957 19.3378 9.44159 19.0712 9.44159C18.8045 9.44159 18.5891 9.35957 18.4045 9.18526C18.2404 9.01096 18.1481 8.8059 18.1481 8.55983ZM19.8404 16.9468H18.3122V10.4361H19.8404V16.9468Z" fill="black" fill-opacity="0.8956"/>
<path d="M24.4964 15.8336C24.7221 15.8336 24.9785 15.7824 25.2554 15.6798C25.5323 15.5773 25.7785 15.4338 26.0144 15.2595V16.6846C25.7682 16.8282 25.4913 16.9307 25.1836 17.0025C24.8759 17.0742 24.5272 17.1153 24.158 17.1153C23.2041 17.1153 22.4246 16.8077 21.8195 16.2027C21.2144 15.5978 20.9169 14.8186 20.9169 13.8856C20.9169 12.8397 21.2246 11.9785 21.84 11.3018C22.4554 10.6251 23.3169 10.2867 24.4451 10.2867C24.7323 10.2867 25.0195 10.3278 25.3169 10.3995C25.6144 10.4713 25.84 10.5636 26.0144 10.6559V12.122C25.7785 11.9477 25.5323 11.8144 25.2862 11.7222C25.04 11.6299 24.7836 11.5786 24.5272 11.5786C23.9221 11.5786 23.44 11.7734 23.0605 12.163C22.6913 12.5527 22.5067 13.0858 22.5067 13.7523C22.5067 14.4085 22.681 14.9211 23.04 15.2902C23.399 15.6593 23.881 15.8336 24.4964 15.8336Z" fill="black" fill-opacity="0.8956"/>
<path d="M30.3723 10.3367C30.4954 10.3367 30.6082 10.347 30.7005 10.3572C30.7928 10.3777 30.8851 10.3982 30.9467 10.4188V11.967C30.8646 11.9054 30.7518 11.8542 30.5979 11.8029C30.4441 11.7516 30.2595 11.7209 30.0338 11.7209C29.6544 11.7209 29.3364 11.8747 29.08 12.1925C28.8236 12.5104 28.6903 12.9923 28.6903 13.6587V16.9499H27.1621V10.4393H28.6903V11.4646H28.7108C28.8544 11.1057 29.0595 10.8289 29.3467 10.6341C29.6338 10.4393 29.9723 10.3367 30.3723 10.3367Z" fill="black" fill-opacity="0.8956"/>
<path d="M31.029 13.7933C31.029 12.7167 31.3366 11.8657 31.9418 11.23C32.5469 10.6046 33.3982 10.2867 34.4751 10.2867C35.4905 10.2867 36.2905 10.5943 36.8648 11.1993C37.4392 11.8042 37.7264 12.6244 37.7264 13.6497C37.7264 14.7058 37.4187 15.5465 36.8136 16.172C36.2084 16.7974 35.3777 17.105 34.3315 17.105C33.3264 17.105 32.5161 16.8077 31.9315 16.213C31.3264 15.6286 31.029 14.8186 31.029 13.7933ZM32.629 13.742C32.629 14.4187 32.7828 14.9416 33.0905 15.3005C33.3982 15.6593 33.8392 15.8336 34.4136 15.8336C34.9674 15.8336 35.3982 15.6593 35.6854 15.3005C35.9725 14.9416 36.1264 14.4085 36.1264 13.701C36.1264 13.0038 35.9725 12.4706 35.6751 12.1118C35.3777 11.7529 34.9469 11.5786 34.4033 11.5786C33.8392 11.5786 33.4084 11.7632 33.0905 12.1425C32.7828 12.5219 32.629 13.0448 32.629 13.742Z" fill="black" fill-opacity="0.8956"/>
<path d="M40.0029 12.153C40.0029 12.3684 40.0747 12.5427 40.208 12.6657C40.3516 12.7887 40.6593 12.9425 41.1311 13.1373C41.7465 13.3834 42.1773 13.6602 42.4234 13.9678C42.6696 14.2754 42.7926 14.6445 42.7926 15.0752C42.7926 15.6903 42.5567 16.1825 42.0849 16.5516C41.6132 16.9207 40.9773 17.1053 40.1773 17.1053C39.9106 17.1053 39.6132 17.0745 39.2849 17.0027C38.9567 16.9412 38.6798 16.8489 38.4542 16.7567V15.2495C38.7311 15.4443 39.0285 15.5981 39.3567 15.7108C39.6747 15.8236 39.9721 15.8851 40.2285 15.8851C40.5773 15.8851 40.8337 15.8339 40.9978 15.7416C41.1619 15.6493 41.2439 15.4853 41.2439 15.2495C41.2439 15.0341 41.1619 14.8598 40.9875 14.7163C40.8132 14.5728 40.4952 14.3985 40.0132 14.2139C39.449 13.9781 39.049 13.7115 38.8132 13.4142C38.5773 13.1168 38.4542 12.7375 38.4542 12.2863C38.4542 11.7019 38.6901 11.22 39.1516 10.8407C39.6131 10.4613 40.2183 10.2767 40.967 10.2767C41.1926 10.2767 41.449 10.2972 41.7362 10.3485C42.0234 10.3998 42.2593 10.4613 42.4439 10.5433V11.9992C42.2388 11.866 42.0029 11.7532 41.7362 11.6506C41.4696 11.5584 41.1926 11.5071 40.9362 11.5071C40.649 11.5071 40.4132 11.5686 40.2593 11.6814C40.0849 11.7942 40.0029 11.9582 40.0029 12.153Z" fill="black" fill-opacity="0.8956"/>
<path d="M43.4689 13.7933C43.4689 12.7167 43.7766 11.8657 44.3817 11.23C44.9869 10.6046 45.8382 10.2867 46.9151 10.2867C47.9305 10.2867 48.7305 10.5943 49.3048 11.1993C49.8792 11.8042 50.1664 12.6244 50.1664 13.6497C50.1664 14.7058 49.8587 15.5465 49.2535 16.172C48.6484 16.7974 47.8177 17.105 46.7715 17.105C45.7664 17.105 44.9561 16.8077 44.3715 16.213C43.7664 15.6286 43.4689 14.8186 43.4689 13.7933ZM45.0587 13.742C45.0587 14.4187 45.2125 14.9416 45.5202 15.3005C45.8279 15.6593 46.2689 15.8336 46.8433 15.8336C47.3971 15.8336 47.8279 15.6593 48.1151 15.3005C48.4023 14.9416 48.5561 14.4085 48.5561 13.701C48.5561 13.0038 48.4023 12.4706 48.1048 12.1118C47.8074 11.7529 47.3766 11.5786 46.833 11.5786C46.2689 11.5786 45.8382 11.7632 45.5202 12.1425C45.2125 12.5219 45.0587 13.0448 45.0587 13.742Z" fill="black" fill-opacity="0.8956"/>
<path d="M55.2225 11.6987V15.0411C55.2225 15.7383 55.3866 16.251 55.7046 16.5996C56.0225 16.9482 56.5148 17.1122 57.161 17.1122C57.3764 17.1122 57.602 17.0917 57.8277 17.0405C58.0533 16.9892 58.2174 16.9482 58.3097 16.8867V15.6153C58.2174 15.6768 58.1046 15.7281 57.9815 15.7691C57.8584 15.8101 57.7456 15.8306 57.6636 15.8306C57.3559 15.8306 57.12 15.7486 56.9764 15.5845C56.8328 15.4205 56.761 15.1334 56.761 14.7335V11.6884H58.32V10.4375H56.7713V8.50996L55.2328 8.9816V10.4478H52.9456V9.6583C52.9456 9.26868 53.0277 8.97134 53.202 8.76628C53.3764 8.56122 53.6225 8.46895 53.9405 8.46895C54.1046 8.46895 54.2482 8.48945 54.3815 8.53046C54.5046 8.57148 54.5969 8.61249 54.6482 8.64325V7.32061C54.5354 7.27959 54.4123 7.25909 54.2687 7.23858C54.1251 7.21808 53.961 7.20782 53.7764 7.20782C53.079 7.20782 52.5046 7.42314 52.0636 7.86402C51.6225 8.3049 51.3969 8.85856 51.3969 9.54551V10.4478H50.3097V11.6987H51.3969V16.9585H52.9456V11.6987H55.2225V11.6987Z" fill="black" fill-opacity="0.8956"/>
<path d="M16.8359 7.86755V16.9517H15.2564V9.83614H15.2359L12.4154 16.9517H11.3692L8.47692 9.83614H8.45641V16.9517H7V7.86755H9.25641L11.8718 14.6038H11.9128L14.6718 7.86755H16.8359Z" fill="black" fill-opacity="0.8956"/>
<rect x="0.5" y="0.5" width="87.0007" height="31" rx="3.5" stroke="url(#paint0_linear_1634_29406)"/>
<defs>
<linearGradient id="paint0_linear_1634_29406" x1="44.0004" y1="1" x2="44.0004" y2="31" gradientUnits="userSpaceOnUse">
<stop offset="0.905762" stop-opacity="0.0578"/>
<stop offset="1" stop-opacity="0.1622"/>
</linearGradient>
</defs>
</svg>
