<svg width="116" height="34" viewBox="0 0 116 34" fill="none" xmlns="http://www.w3.org/2000/svg">
<rect x="1" y="1" width="114" height="32" rx="4" fill="#202020"/>
<rect x="0.5" y="0.5" width="115" height="33" rx="4.5" stroke="black" stroke-opacity="0.1"/>
<g clip-path="url(#clip0_963_7213)">
<g clip-path="url(#clip1_963_7213)">
<path d="M8.28125 11C8.28125 10.5858 8.61704 10.25 9.03125 10.25H24.9687C25.383 10.25 25.7188 10.5858 25.7188 11V22.3438C25.7188 24.0524 24.3336 25.4375 22.625 25.4375H11.375C9.66637 25.4375 8.28125 24.0524 8.28125 22.3438V11Z" fill="url(#paint0_linear_963_7213)"/>
<mask id="mask0_963_7213" style="mask-type:alpha" maskUnits="userSpaceOnUse" x="8" y="10" width="18" height="16">
<path d="M8.28125 11C8.28125 10.5858 8.61704 10.25 9.03125 10.25H24.9687C25.383 10.25 25.7188 10.5858 25.7188 11V22.3438C25.7188 24.0524 24.3336 25.4375 22.625 25.4375H11.375C9.66637 25.4375 8.28125 24.0524 8.28125 22.3438V11Z" fill="url(#paint1_linear_963_7213)"/>
</mask>
<g mask="url(#mask0_963_7213)">
<g filter="url(#filter0_dd_963_7213)">
<path d="M12.7812 10.8125V8.5625H21.2187V10.8125" stroke="url(#paint2_linear_963_7213)" stroke-width="1.125" stroke-linecap="round"/>
</g>
</g>
<g filter="url(#filter1_dd_963_7213)">
<path d="M16.719 14.1875H13.344V17.5625H16.719V14.1875Z" fill="#F25022"/>
<path d="M20.6562 14.1875H17.2812V17.5625H20.6562V14.1875Z" fill="#7FBA00"/>
<path d="M20.6562 18.125H17.2812V21.5H20.6562V18.125Z" fill="#FFB900"/>
<path d="M16.7188 18.125H13.3438V21.5H16.7188V18.125Z" fill="#00A4EF"/>
</g>
<path d="M12.7812 10.8125V9.125C12.7812 8.81434 13.0331 8.5625 13.3438 8.5625H20.6563C20.9669 8.5625 21.2188 8.81434 21.2188 9.125V10.8125" stroke="url(#paint3_linear_963_7213)" stroke-width="1.125" stroke-linecap="round"/>
<rect x="13.3438" y="8" width="7.3125" height="1.125" fill="url(#paint4_linear_963_7213)"/>
<mask id="mask1_963_7213" style="mask-type:alpha" maskUnits="userSpaceOnUse" x="13" y="8" width="8" height="2">
<rect x="13.3438" y="8" width="7.3125" height="1.125" fill="url(#paint5_linear_963_7213)"/>
</mask>
<g mask="url(#mask1_963_7213)">
<g filter="url(#filter2_dd_963_7213)">
<rect x="11.7189" y="8.56277" width="1.625" height="2.8125" fill="#C4C4C4"/>
</g>
</g>
</g>
</g>
<path d="M39.2275 16H37.96V11.0854C37.96 10.8634 37.9653 10.6217 37.9761 10.3604C37.9904 10.0954 38.0083 9.81429 38.0298 9.51709H37.9976C37.9546 9.72119 37.9134 9.89665 37.874 10.0435C37.8382 10.1867 37.8024 10.3013 37.7666 10.3872L35.5054 16H34.6245L32.3525 10.4355C32.3239 10.3568 32.2881 10.2404 32.2451 10.0864C32.2057 9.93245 32.1628 9.74268 32.1162 9.51709H32.084C32.1055 9.7749 32.1198 10.0488 32.127 10.3389C32.1341 10.6253 32.1377 10.9279 32.1377 11.2466V16H30.9561V8.29785H32.7607L34.7642 13.3037C34.8429 13.4935 34.9074 13.6689 34.9575 13.8301C35.0112 13.9876 35.0524 14.1344 35.0811 14.2705H35.1133C35.1777 14.0664 35.2386 13.882 35.2959 13.7173C35.3532 13.5526 35.4069 13.4093 35.457 13.2876L37.4873 8.29785H39.2275V16ZM41.6177 9.43652C41.3885 9.43652 41.1987 9.36312 41.0483 9.21631C40.8979 9.0695 40.8228 8.88867 40.8228 8.67383C40.8228 8.45182 40.8979 8.26921 41.0483 8.12598C41.1987 7.98275 41.3885 7.91113 41.6177 7.91113C41.8504 7.91113 42.042 7.98275 42.1924 8.12598C42.3428 8.26921 42.418 8.45182 42.418 8.67383C42.418 8.89225 42.3428 9.07487 42.1924 9.22168C42.042 9.36491 41.8504 9.43652 41.6177 9.43652ZM42.2354 16H40.9839V10.5H42.2354V16ZM47.9824 15.6616C47.7103 15.8263 47.4399 15.9445 47.1714 16.0161C46.9028 16.0913 46.611 16.1289 46.2959 16.1289C45.4508 16.1289 44.7741 15.8818 44.2656 15.3877C43.7607 14.8936 43.5083 14.2222 43.5083 13.3735C43.5083 12.4604 43.7697 11.7318 44.2925 11.1875C44.8188 10.6432 45.5278 10.3711 46.4194 10.3711C46.731 10.3711 47.0138 10.4051 47.2681 10.4731C47.5259 10.5376 47.7873 10.645 48.0522 10.7954L47.5635 11.6655C47.3773 11.5617 47.1947 11.4865 47.0156 11.4399C46.8366 11.3898 46.6414 11.3647 46.4302 11.3647C45.9038 11.3647 45.4974 11.5384 45.2109 11.8857C44.9245 12.2331 44.7812 12.6932 44.7812 13.2661C44.7812 13.8677 44.9352 14.3296 45.2432 14.6519C45.5547 14.9741 45.945 15.1353 46.4141 15.1353C46.5573 15.1353 46.722 15.1102 46.9082 15.0601C47.0944 15.0063 47.2824 14.9222 47.4722 14.8076L47.9824 15.6616ZM52.1021 11.5474C52.034 11.5295 51.9678 11.5169 51.9033 11.5098C51.8424 11.499 51.7708 11.4937 51.6885 11.4937C51.2409 11.4937 50.8971 11.6584 50.6572 11.9878C50.4173 12.3172 50.2974 12.7469 50.2974 13.2769V16H49.0459V10.5H50.2974V11.5581H50.3188C50.4478 11.1785 50.6375 10.8921 50.8882 10.6987C51.1388 10.5018 51.4342 10.4033 51.7744 10.4033C51.8711 10.4033 51.957 10.4087 52.0322 10.4194C52.111 10.4302 52.1862 10.4463 52.2578 10.4678L52.1021 11.5474ZM55.5557 16.1289C54.6963 16.1289 54.0142 15.8729 53.5093 15.3608C53.008 14.8452 52.7573 14.1559 52.7573 13.293C52.7609 12.3799 53.0223 11.6655 53.5415 11.1499C54.0607 10.6307 54.7679 10.3711 55.6631 10.3711C56.526 10.3675 57.1992 10.6217 57.6826 11.1338C58.1696 11.6423 58.4131 12.3315 58.4131 13.2017C58.4131 14.0968 58.1553 14.8094 57.6396 15.3394C57.1276 15.8657 56.4329 16.1289 55.5557 16.1289ZM55.6147 15.1353C56.1125 15.1353 56.4902 14.9723 56.748 14.6465C57.0094 14.3206 57.1401 13.8498 57.1401 13.2339C57.1401 12.6252 57.0094 12.1615 56.748 11.8428C56.4867 11.5241 56.1071 11.3647 55.6094 11.3647C55.1188 11.3647 54.7321 11.533 54.4492 11.8696C54.1699 12.2062 54.0303 12.6717 54.0303 13.2661C54.0303 13.8641 54.1699 14.326 54.4492 14.6519C54.7285 14.9741 55.117 15.1353 55.6147 15.1353ZM59.1543 15.5596L59.6968 14.6787C59.9116 14.8291 60.139 14.9508 60.3789 15.0439C60.6224 15.1335 60.8856 15.1782 61.1685 15.1782C61.4764 15.1782 61.7145 15.1227 61.8828 15.0117C62.0547 14.8971 62.1406 14.7271 62.1406 14.5015C62.1406 14.3224 62.069 14.1738 61.9258 14.0557C61.7861 13.9339 61.5462 13.8337 61.2061 13.7549C60.5186 13.5938 60.0352 13.3807 59.7559 13.1157C59.4801 12.8507 59.3423 12.5016 59.3423 12.0684C59.3423 11.5706 59.5356 11.1642 59.9224 10.8491C60.3091 10.5304 60.8158 10.3711 61.4424 10.3711C61.7539 10.3711 62.0511 10.4123 62.334 10.4946C62.6169 10.5734 62.8926 10.7005 63.1611 10.876L62.6562 11.7354C62.4199 11.585 62.2033 11.4775 62.0063 11.4131C61.8094 11.3486 61.6071 11.3164 61.3994 11.3164C61.1058 11.3164 60.8766 11.3719 60.7119 11.4829C60.5508 11.5903 60.4702 11.7407 60.4702 11.9341C60.4702 12.1382 60.5526 12.2904 60.7173 12.3906C60.8856 12.4873 61.1667 12.5822 61.5605 12.6753C62.1549 12.8185 62.59 13.0262 62.8657 13.2983C63.1414 13.5669 63.2793 13.9268 63.2793 14.3779C63.2793 14.9115 63.0841 15.3376 62.6938 15.6562C62.3071 15.9714 61.7826 16.1289 61.1201 16.1289C60.762 16.1289 60.4183 16.0824 60.0889 15.9893C59.763 15.8926 59.4515 15.7493 59.1543 15.5596ZM66.8779 16.1289C66.0186 16.1289 65.3364 15.8729 64.8315 15.3608C64.3302 14.8452 64.0796 14.1559 64.0796 13.293C64.0832 12.3799 64.3446 11.6655 64.8638 11.1499C65.383 10.6307 66.0902 10.3711 66.9854 10.3711C67.8483 10.3675 68.5215 10.6217 69.0049 11.1338C69.4919 11.6423 69.7354 12.3315 69.7354 13.2017C69.7354 14.0968 69.4775 14.8094 68.9619 15.3394C68.4499 15.8657 67.7552 16.1289 66.8779 16.1289ZM66.937 15.1353C67.4347 15.1353 67.8125 14.9723 68.0703 14.6465C68.3317 14.3206 68.4624 13.8498 68.4624 13.2339C68.4624 12.6252 68.3317 12.1615 68.0703 11.8428C67.8089 11.5241 67.4294 11.3647 66.9316 11.3647C66.4411 11.3647 66.0544 11.533 65.7715 11.8696C65.4922 12.2062 65.3525 12.6717 65.3525 13.2661C65.3525 13.8641 65.4922 14.326 65.7715 14.6519C66.0508 14.9741 66.4393 15.1353 66.937 15.1353ZM73.9839 8.84033C73.8836 8.80094 73.7923 8.77409 73.71 8.75977C73.6276 8.74186 73.5381 8.73291 73.4414 8.73291C73.1764 8.73291 72.9759 8.8099 72.8398 8.96387C72.7074 9.11426 72.6411 9.33268 72.6411 9.61914V10.5H73.9141V11.4775H72.6411V16H71.395V11.4775H70.4604V10.5H71.395V9.55469C71.395 8.99609 71.5741 8.55387 71.9321 8.22803C72.2938 7.8986 72.7718 7.73389 73.3662 7.73389C73.5524 7.73389 73.7135 7.74642 73.8496 7.77148C73.9857 7.79655 74.1271 7.83236 74.2739 7.87891L73.9839 8.84033ZM77.7974 15.9248C77.6362 15.9928 77.4679 16.043 77.2925 16.0752C77.117 16.1074 76.929 16.1235 76.7285 16.1235C76.2201 16.1235 75.828 15.9893 75.5522 15.7207C75.2801 15.4486 75.144 15.0439 75.144 14.5068V11.4775H74.2202V10.5H75.144V9.1626L76.3901 8.78662V10.5H77.7061V11.4775H76.3901V14.4048C76.3901 14.6733 76.4385 14.8667 76.5352 14.9849C76.6354 15.103 76.7894 15.1621 76.9971 15.1621C77.0973 15.1621 77.1922 15.1514 77.2817 15.1299C77.3748 15.1048 77.4572 15.0744 77.5288 15.0386L77.7974 15.9248ZM81.2939 15.4468L81.8633 14.4639C82.2106 14.6787 82.5347 14.8309 82.8354 14.9204C83.1362 15.0063 83.4728 15.0493 83.8452 15.0493C84.2892 15.0493 84.6383 14.9544 84.8926 14.7646C85.1504 14.5713 85.2793 14.2956 85.2793 13.9375C85.2793 13.6117 85.1719 13.3556 84.957 13.1694C84.7458 12.9797 84.3859 12.806 83.8774 12.6484C83.0933 12.4157 82.5168 12.1274 82.1479 11.7837C81.7791 11.4399 81.5947 10.9744 81.5947 10.3872C81.5947 9.74984 81.8328 9.22168 82.3091 8.80273C82.7853 8.38021 83.4316 8.16895 84.248 8.16895C84.6061 8.16895 84.9588 8.20833 85.3062 8.28711C85.6535 8.36589 85.9972 8.48763 86.3374 8.65234L85.8594 9.67285C85.5622 9.51888 85.2775 9.40967 85.0054 9.34521C84.7368 9.28076 84.4629 9.24854 84.1836 9.24854C83.7754 9.24854 83.4531 9.33805 83.2168 9.51709C82.984 9.69613 82.8677 9.94857 82.8677 10.2744C82.8677 10.5645 82.9751 10.7936 83.1899 10.9619C83.4048 11.1266 83.7736 11.2896 84.2964 11.4507C85.0985 11.6906 85.675 11.9896 86.0259 12.3477C86.3804 12.7057 86.5576 13.1981 86.5576 13.8247C86.5576 14.4979 86.3177 15.0511 85.8379 15.4844C85.3581 15.9141 84.6742 16.1289 83.7861 16.1289C83.3421 16.1289 82.9089 16.0734 82.4863 15.9624C82.0638 15.8478 81.6663 15.6759 81.2939 15.4468ZM90.4409 15.9248C90.2798 15.9928 90.1115 16.043 89.936 16.0752C89.7606 16.1074 89.5726 16.1235 89.3721 16.1235C88.8636 16.1235 88.4715 15.9893 88.1958 15.7207C87.9237 15.4486 87.7876 15.0439 87.7876 14.5068V11.4775H86.8638V10.5H87.7876V9.1626L89.0337 8.78662V10.5H90.3496V11.4775H89.0337V14.4048C89.0337 14.6733 89.082 14.8667 89.1787 14.9849C89.279 15.103 89.4329 15.1621 89.6406 15.1621C89.7409 15.1621 89.8358 15.1514 89.9253 15.1299C90.0184 15.1048 90.1007 15.0744 90.1724 15.0386L90.4409 15.9248ZM93.8623 16.1289C93.0029 16.1289 92.3208 15.8729 91.8159 15.3608C91.3146 14.8452 91.064 14.1559 91.064 13.293C91.0675 12.3799 91.3289 11.6655 91.8481 11.1499C92.3674 10.6307 93.0745 10.3711 93.9697 10.3711C94.8327 10.3675 95.5059 10.6217 95.9893 11.1338C96.4762 11.6423 96.7197 12.3315 96.7197 13.2017C96.7197 14.0968 96.4619 14.8094 95.9463 15.3394C95.4342 15.8657 94.7396 16.1289 93.8623 16.1289ZM93.9214 15.1353C94.4191 15.1353 94.7969 14.9723 95.0547 14.6465C95.3161 14.3206 95.4468 13.8498 95.4468 13.2339C95.4468 12.6252 95.3161 12.1615 95.0547 11.8428C94.7933 11.5241 94.4137 11.3647 93.916 11.3647C93.4255 11.3647 93.0387 11.533 92.7559 11.8696C92.4766 12.2062 92.3369 12.6717 92.3369 13.2661C92.3369 13.8641 92.4766 14.326 92.7559 14.6519C93.0352 14.9741 93.4237 15.1353 93.9214 15.1353ZM101.054 11.5474C100.986 11.5295 100.92 11.5169 100.855 11.5098C100.795 11.499 100.723 11.4937 100.641 11.4937C100.193 11.4937 99.8493 11.6584 99.6094 11.9878C99.3695 12.3172 99.2495 12.7469 99.2495 13.2769V16H97.998V10.5H99.2495V11.5581H99.271C99.3999 11.1785 99.5897 10.8921 99.8403 10.6987C100.091 10.5018 100.386 10.4033 100.727 10.4033C100.823 10.4033 100.909 10.4087 100.984 10.4194C101.063 10.4302 101.138 10.4463 101.21 10.4678L101.054 11.5474ZM106.721 13.5776H102.966C102.988 14.0968 103.138 14.4925 103.417 14.7646C103.697 15.0332 104.087 15.1675 104.588 15.1675C104.792 15.1675 105.025 15.1263 105.287 15.0439C105.548 14.9616 105.806 14.8291 106.06 14.6465L106.624 15.4253C106.284 15.6724 105.938 15.8514 105.587 15.9624C105.236 16.0734 104.85 16.1289 104.427 16.1289C103.571 16.1289 102.905 15.8836 102.429 15.3931C101.953 14.8989 101.713 14.2096 101.709 13.3252C101.709 12.4443 101.955 11.7318 102.445 11.1875C102.939 10.6432 103.571 10.3711 104.341 10.3711C105.079 10.3711 105.659 10.6038 106.082 11.0693C106.508 11.5312 106.721 12.1865 106.721 13.0352V13.5776ZM105.512 12.7129C105.512 12.2402 105.408 11.8857 105.201 11.6494C104.997 11.4095 104.707 11.2896 104.331 11.2896C103.976 11.2896 103.674 11.4185 103.423 11.6763C103.176 11.9305 103.024 12.276 102.966 12.7129H105.512Z" fill="white"/>
<path d="M34.242 21.646V22.143H33.507V26H32.968C32.8233 25.72 32.6273 25.4633 32.38 25.23C32.1373 24.992 31.8573 24.7913 31.54 24.628C31.2273 24.4647 30.8913 24.355 30.532 24.299L30.259 23.627C30.707 23.3563 31.169 23.1113 31.645 22.892C32.1257 22.6727 32.6203 22.486 33.129 22.332L32.968 22.626V22.143H29.93V21.646H34.242ZM32.968 22.689L33.115 22.878C32.877 22.948 32.6297 23.0367 32.373 23.144C32.1163 23.2467 31.862 23.361 31.61 23.487C31.358 23.6083 31.12 23.7367 30.896 23.872C31.0873 23.914 31.288 23.9793 31.498 24.068C31.708 24.1567 31.9133 24.264 32.114 24.39C32.3193 24.516 32.5037 24.663 32.667 24.831C32.835 24.9943 32.968 25.1787 33.066 25.384L33.01 25.398C32.9913 25.2767 32.9797 25.1553 32.975 25.034C32.9703 24.9127 32.968 24.7913 32.968 24.67V22.689ZM33.444 25.125C33.29 24.8357 33.0917 24.5767 32.849 24.348C32.611 24.1147 32.3357 23.9233 32.023 23.774C31.715 23.62 31.3743 23.515 31.001 23.459L31.358 23.158C31.6193 23.2093 31.876 23.2863 32.128 23.389C32.38 23.487 32.6157 23.6223 32.835 23.795C33.059 23.963 33.255 24.18 33.423 24.446L33.444 25.125ZM41.1728 21.646V22.143H40.4378V26H39.8988V23.228L40.0528 23.676C39.8615 23.396 39.6865 23.158 39.5278 22.962C39.3692 22.7613 39.2175 22.598 39.0728 22.472C38.9328 22.346 38.7905 22.255 38.6458 22.199C38.5012 22.1383 38.3448 22.108 38.1768 22.108C37.9902 22.108 37.8198 22.143 37.6658 22.213C37.5165 22.283 37.3788 22.3763 37.2528 22.493C37.1268 22.6097 37.0102 22.7357 36.9028 22.871L36.8468 22.885C36.9215 22.8383 36.9938 22.8033 37.0638 22.78C37.1385 22.7567 37.2202 22.745 37.3088 22.745C37.5795 22.745 37.7778 22.8197 37.9038 22.969C38.0298 23.1137 38.0928 23.2933 38.0928 23.508C38.0928 23.5593 38.0905 23.6083 38.0858 23.655C38.0812 23.7017 38.0742 23.7367 38.0648 23.76L37.9458 23.718C38.0018 23.6573 38.0555 23.599 38.1068 23.543C38.1582 23.487 38.2118 23.431 38.2678 23.375C38.3285 23.319 38.3892 23.2607 38.4498 23.2L39.3178 22.388L39.6608 22.759L37.6728 24.635L37.2598 24.25L37.8338 23.704L37.5818 24.005L37.3718 24.166C37.4418 24.0867 37.5002 24.0027 37.5468 23.914C37.5982 23.8207 37.6238 23.7157 37.6238 23.599C37.6238 23.4823 37.5888 23.389 37.5188 23.319C37.4488 23.249 37.3462 23.214 37.2108 23.214C37.1362 23.214 37.0638 23.2233 36.9938 23.242C36.9238 23.2607 36.8515 23.2933 36.7768 23.34L36.2448 22.836C36.4315 22.5887 36.6228 22.374 36.8188 22.192C37.0148 22.0053 37.2202 21.8607 37.4348 21.758C37.6495 21.6507 37.8805 21.597 38.1278 21.597C38.3892 21.597 38.6248 21.646 38.8348 21.744C39.0448 21.842 39.2478 21.989 39.4438 22.185C39.6398 22.3763 39.8452 22.619 40.0598 22.913L39.9338 22.878C39.9198 22.766 39.9105 22.6447 39.9058 22.514C39.9012 22.3833 39.8988 22.2433 39.8988 22.094V21.184H40.2698L40.4308 21.646H41.1728ZM45.3436 21.646V22.143H44.6086V26H44.0696C43.9249 25.72 43.7289 25.4633 43.4816 25.23C43.2389 24.992 42.9589 24.7913 42.6416 24.628C42.3289 24.4647 41.9929 24.355 41.6336 24.299L41.3606 23.627C41.8086 23.3563 42.2706 23.1113 42.7466 22.892C43.2272 22.6727 43.7219 22.486 44.2306 22.332L44.0696 22.626V22.143H41.0316V21.646H45.3436ZM44.0696 22.689L44.2166 22.878C43.9786 22.948 43.7312 23.0367 43.4746 23.144C43.2179 23.2467 42.9636 23.361 42.7116 23.487C42.4596 23.6083 42.2216 23.7367 41.9976 23.872C42.1889 23.914 42.3896 23.9793 42.5996 24.068C42.8096 24.1567 43.0149 24.264 43.2156 24.39C43.4209 24.516 43.6052 24.663 43.7686 24.831C43.9366 24.9943 44.0696 25.1787 44.1676 25.384L44.1116 25.398C44.0929 25.2767 44.0812 25.1553 44.0766 25.034C44.0719 24.9127 44.0696 24.7913 44.0696 24.67V22.689ZM44.5456 25.125C44.3916 24.8357 44.1932 24.5767 43.9506 24.348C43.7126 24.1147 43.4372 23.9233 43.1246 23.774C42.8166 23.62 42.4759 23.515 42.1026 23.459L42.4596 23.158C42.7209 23.2093 42.9776 23.2863 43.2296 23.389C43.4816 23.487 43.7172 23.6223 43.9366 23.795C44.1606 23.963 44.3566 24.18 44.5246 24.446L44.5456 25.125ZM47.2035 21.646V22.143H46.4685V26H45.9295V22.717C45.8735 22.5583 45.7895 22.423 45.6775 22.311C45.5702 22.199 45.4302 22.143 45.2575 22.143H45.2015V21.646H45.3065C45.4185 21.646 45.5352 21.6833 45.6565 21.758C45.7778 21.828 45.8758 21.9377 45.9505 22.087C45.9458 22.0637 45.9412 22.01 45.9365 21.926C45.9318 21.842 45.9295 21.7697 45.9295 21.709V21.184H46.3075L46.4615 21.646H47.2035ZM54.1058 21.646V22.143H51.5438V23.396C51.5438 23.5313 51.5648 23.6317 51.6068 23.697C51.6488 23.7577 51.7141 23.788 51.8028 23.788C51.8914 23.788 51.9824 23.76 52.0758 23.704C52.1738 23.648 52.2788 23.5593 52.3908 23.438C52.5028 23.3167 52.6241 23.1603 52.7548 22.969L53.1748 22.906C53.3241 23.1253 53.4384 23.3517 53.5178 23.585C53.6018 23.8183 53.6438 24.0517 53.6438 24.285C53.6438 24.579 53.5784 24.8427 53.4478 25.076C53.3218 25.3093 53.1328 25.4937 52.8808 25.629C52.6334 25.7643 52.3301 25.832 51.9708 25.832C51.6628 25.832 51.3758 25.7783 51.1098 25.671C50.8438 25.5637 50.5988 25.391 50.3748 25.153C50.1508 24.9103 49.9454 24.593 49.7588 24.201C49.5721 23.8043 49.4041 23.319 49.2548 22.745L49.7868 22.605C49.9548 23.2537 50.1391 23.7763 50.3398 24.173C50.5451 24.565 50.7784 24.852 51.0398 25.034C51.3011 25.2113 51.6021 25.3 51.9428 25.3C52.3161 25.3 52.6031 25.2067 52.8038 25.02C53.0091 24.8333 53.1118 24.593 53.1118 24.299C53.1118 24.089 53.0814 23.9093 53.0208 23.76C52.9648 23.6107 52.8901 23.487 52.7968 23.389L53.1188 23.256C52.9788 23.494 52.8341 23.69 52.6848 23.844C52.5401 23.998 52.3931 24.1147 52.2438 24.194C52.0991 24.2687 51.9544 24.306 51.8098 24.306C51.7024 24.306 51.6021 24.292 51.5088 24.264C51.4154 24.2313 51.3361 24.1847 51.2708 24.124C51.1961 24.0587 51.1331 23.9677 51.0818 23.851C51.0304 23.7297 51.0048 23.529 51.0048 23.249V22.143H48.9818V21.646H54.1058ZM55.9672 21.646V22.143H55.2322V26H54.6932V22.717C54.6372 22.5583 54.5532 22.423 54.4412 22.311C54.3338 22.199 54.1938 22.143 54.0212 22.143H53.9652V21.646H54.0702C54.1822 21.646 54.2988 21.6833 54.4202 21.758C54.5415 21.828 54.6395 21.9377 54.7142 22.087C54.7095 22.0637 54.7048 22.01 54.7002 21.926C54.6955 21.842 54.6932 21.7697 54.6932 21.709V21.184H55.0712L55.2252 21.646H55.9672ZM59.4505 21.646C59.4459 21.4547 59.3992 21.317 59.3105 21.233C59.2265 21.149 59.0865 21.107 58.8905 21.107H57.9105C57.6072 21.107 57.3715 21.086 57.2035 21.044C57.0402 21.002 56.9002 20.9367 56.7835 20.848C56.6575 20.7547 56.5619 20.6357 56.4965 20.491C56.4359 20.3417 56.4055 20.1737 56.4055 19.987C56.4055 19.9263 56.4079 19.8657 56.4125 19.805C56.4219 19.7443 56.4312 19.6813 56.4405 19.616L56.9585 19.651C56.9492 19.707 56.9422 19.756 56.9375 19.798C56.9329 19.84 56.9305 19.8797 56.9305 19.917C56.9305 20.0197 56.9399 20.1107 56.9585 20.19C56.9819 20.2693 57.0169 20.3347 57.0635 20.386C57.1289 20.4607 57.2222 20.5167 57.3435 20.554C57.4649 20.5867 57.6422 20.603 57.8755 20.603H58.7435C58.9909 20.603 59.1869 20.6217 59.3315 20.659C59.4762 20.6963 59.5999 20.764 59.7025 20.862C59.7819 20.9367 59.8425 21.0393 59.8845 21.17C59.9265 21.296 59.9499 21.4547 59.9545 21.646H59.4505ZM60.9485 21.646V22.143H58.3865V23.396C58.3865 23.5313 58.4075 23.6317 58.4495 23.697C58.4915 23.7577 58.5569 23.788 58.6455 23.788C58.7342 23.788 58.8252 23.76 58.9185 23.704C59.0165 23.648 59.1215 23.5593 59.2335 23.438C59.3455 23.3167 59.4669 23.1603 59.5975 22.969L60.0175 22.906C60.1669 23.1253 60.2812 23.3517 60.3605 23.585C60.4445 23.8183 60.4865 24.0517 60.4865 24.285C60.4865 24.579 60.4212 24.8427 60.2905 25.076C60.1645 25.3093 59.9755 25.4937 59.7235 25.629C59.4762 25.7643 59.1729 25.832 58.8135 25.832C58.5055 25.832 58.2185 25.7783 57.9525 25.671C57.6865 25.5637 57.4415 25.391 57.2175 25.153C56.9935 24.9103 56.7882 24.593 56.6015 24.201C56.4149 23.8043 56.2469 23.319 56.0975 22.745L56.6295 22.605C56.7975 23.2537 56.9819 23.7763 57.1825 24.173C57.3879 24.565 57.6212 24.852 57.8825 25.034C58.1439 25.2113 58.4449 25.3 58.7855 25.3C59.1589 25.3 59.4459 25.2067 59.6465 25.02C59.8519 24.8333 59.9545 24.593 59.9545 24.299C59.9545 24.089 59.9242 23.9093 59.8635 23.76C59.8075 23.6107 59.7329 23.487 59.6395 23.389L59.9615 23.256C59.8215 23.494 59.6769 23.69 59.5275 23.844C59.3829 23.998 59.2359 24.1147 59.0865 24.194C58.9419 24.2687 58.7972 24.306 58.6525 24.306C58.5452 24.306 58.4449 24.292 58.3515 24.264C58.2582 24.2313 58.1789 24.1847 58.1135 24.124C58.0389 24.0587 57.9759 23.9677 57.9245 23.851C57.8732 23.7297 57.8475 23.529 57.8475 23.249V22.143H55.8245V21.646H60.9485ZM65.1759 21.646V22.143H64.4409V26H63.9019V24.299L64.0139 24.691C63.8599 24.4763 63.6919 24.2827 63.5099 24.11C63.3279 23.9373 63.1413 23.7997 62.9499 23.697C62.7586 23.5943 62.5719 23.543 62.3899 23.543C62.2173 23.543 62.0703 23.5897 61.9489 23.683C61.8323 23.7717 61.7739 23.9047 61.7739 24.082C61.7739 24.222 61.8229 24.3433 61.9209 24.446C62.0189 24.544 62.1706 24.6327 62.3759 24.712L62.1099 25.209C61.8253 25.0923 61.6013 24.936 61.4379 24.74C61.2793 24.5393 61.1999 24.313 61.1999 24.061C61.1999 23.8323 61.2536 23.6433 61.3609 23.494C61.4729 23.34 61.6129 23.2257 61.7809 23.151C61.9536 23.0763 62.1286 23.039 62.3059 23.039C62.5486 23.039 62.7703 23.081 62.9709 23.165C63.1716 23.249 63.3583 23.3633 63.5309 23.508C63.7083 23.6527 63.8763 23.8207 64.0349 24.012L63.9369 24.04C63.9229 23.9327 63.9136 23.8277 63.9089 23.725C63.9043 23.6177 63.9019 23.5103 63.9019 23.403V22.143H60.8079V21.646H65.1759ZM67.5945 21.646V22.143H67.4545C67.3099 22.1757 67.1535 22.248 66.9855 22.36C66.8175 22.4673 66.6589 22.6097 66.5095 22.787C66.3602 22.9597 66.2365 23.1627 66.1385 23.396C66.0452 23.6293 65.9985 23.886 65.9985 24.166C65.9985 24.502 66.0475 24.7703 66.1455 24.971C66.2482 25.167 66.3742 25.307 66.5235 25.391C66.6729 25.475 66.8222 25.517 66.9715 25.517C67.0882 25.517 67.1862 25.5053 67.2655 25.482C67.3449 25.4587 67.4359 25.4167 67.5385 25.356L67.7835 25.783C67.6622 25.8763 67.5292 25.9417 67.3845 25.979C67.2399 26.0163 67.0952 26.035 66.9505 26.035C66.6565 26.035 66.3952 25.958 66.1665 25.804C65.9425 25.65 65.7652 25.4353 65.6345 25.16C65.5085 24.88 65.4455 24.5533 65.4455 24.18C65.4455 23.7973 65.5179 23.452 65.6625 23.144C65.8072 22.8313 66.0009 22.5677 66.2435 22.353C66.4909 22.1383 66.7639 21.982 67.0625 21.884L66.6145 22.115C66.5305 22.1243 66.4395 22.1313 66.3415 22.136C66.2435 22.1407 66.1339 22.143 66.0125 22.143H65.0325V21.646H67.5945ZM72.7095 21.646V22.143H71.9745V26H71.4355V23.655L71.4775 23.837C71.3748 23.6877 71.2651 23.5687 71.1485 23.48C71.0365 23.3913 70.9128 23.347 70.7775 23.347C70.7075 23.347 70.6351 23.361 70.5605 23.389C70.4905 23.4123 70.4298 23.459 70.3785 23.529C70.3318 23.599 70.3085 23.7063 70.3085 23.851C70.3085 23.9023 70.3085 23.949 70.3085 23.991C70.3131 24.0283 70.3178 24.0657 70.3225 24.103L69.8675 24.138C69.8488 23.9467 69.7975 23.7857 69.7135 23.655C69.6295 23.5197 69.5268 23.417 69.4055 23.347C69.2841 23.277 69.1535 23.242 69.0135 23.242C68.8875 23.242 68.7801 23.2677 68.6915 23.319C68.6028 23.3657 68.5351 23.431 68.4885 23.515C68.4418 23.5943 68.4185 23.6853 68.4185 23.788C68.4185 23.9747 68.4861 24.1333 68.6215 24.264C68.7615 24.3947 68.9575 24.5043 69.2095 24.593L69.0205 25.111C68.7965 25.041 68.5958 24.9453 68.4185 24.824C68.2411 24.7027 68.1011 24.5533 67.9985 24.376C67.8958 24.1987 67.8445 23.9933 67.8445 23.76C67.8445 23.55 67.8958 23.3703 67.9985 23.221C68.1011 23.067 68.2388 22.948 68.4115 22.864C68.5841 22.78 68.7731 22.738 68.9785 22.738C69.2258 22.738 69.4381 22.7847 69.6155 22.878C69.7928 22.9667 69.9561 23.1113 70.1055 23.312L70.0005 23.319C70.0471 23.165 70.1358 23.0483 70.2665 22.969C70.4018 22.885 70.5418 22.843 70.6865 22.843C70.8545 22.843 70.9991 22.8757 71.1205 22.941C71.2418 23.0063 71.3748 23.0997 71.5195 23.221L71.4565 23.326C71.4518 23.228 71.4471 23.13 71.4425 23.032C71.4378 22.934 71.4355 22.8337 71.4355 22.731V22.143H67.4525V21.646H72.7095ZM74.5746 21.646V22.143H73.8396V26H73.3006V22.717C73.2446 22.5583 73.1606 22.423 73.0486 22.311C72.9412 22.199 72.8012 22.143 72.6286 22.143H72.5726V21.646H72.6776C72.7896 21.646 72.9062 21.6833 73.0276 21.758C73.1489 21.828 73.2469 21.9377 73.3216 22.087C73.3169 22.0637 73.3122 22.01 73.3076 21.926C73.3029 21.842 73.3006 21.7697 73.3006 21.709V21.184H73.6786L73.8326 21.646H74.5746ZM79.556 21.646V22.143H76.994V23.396C76.994 23.5313 77.015 23.6317 77.057 23.697C77.099 23.7577 77.1643 23.788 77.253 23.788C77.3416 23.788 77.4326 23.76 77.526 23.704C77.624 23.648 77.729 23.5593 77.841 23.438C77.953 23.3167 78.0743 23.1603 78.205 22.969L78.625 22.906C78.7743 23.1253 78.8886 23.3517 78.968 23.585C79.052 23.8183 79.094 24.0517 79.094 24.285C79.094 24.579 79.0286 24.8427 78.898 25.076C78.772 25.3093 78.583 25.4937 78.331 25.629C78.0836 25.7643 77.7803 25.832 77.421 25.832C77.113 25.832 76.826 25.7783 76.56 25.671C76.294 25.5637 76.049 25.391 75.825 25.153C75.601 24.9103 75.3956 24.593 75.209 24.201C75.0223 23.8043 74.8543 23.319 74.705 22.745L75.237 22.605C75.405 23.2537 75.5893 23.7763 75.79 24.173C75.9953 24.565 76.2286 24.852 76.49 25.034C76.7513 25.2113 77.0523 25.3 77.393 25.3C77.7663 25.3 78.0533 25.2067 78.254 25.02C78.4593 24.8333 78.562 24.593 78.562 24.299C78.562 24.089 78.5316 23.9093 78.471 23.76C78.415 23.6107 78.3403 23.487 78.247 23.389L78.569 23.256C78.429 23.494 78.2843 23.69 78.135 23.844C77.9903 23.998 77.8433 24.1147 77.694 24.194C77.5493 24.2687 77.4046 24.306 77.26 24.306C77.1526 24.306 77.0523 24.292 76.959 24.264C76.8656 24.2313 76.7863 24.1847 76.721 24.124C76.6463 24.0587 76.5833 23.9677 76.532 23.851C76.4806 23.7297 76.455 23.529 76.455 23.249V22.143H74.432V21.646H79.556ZM87.1253 21.646V22.143H84.8503V22.577V22.689V26H84.3113C84.1759 25.7247 83.9869 25.4657 83.7443 25.223C83.5016 24.9803 83.2239 24.7773 82.9113 24.614C82.6033 24.446 82.2789 24.341 81.9383 24.299L81.6653 23.627C82.1179 23.3657 82.5706 23.1323 83.0233 22.927C83.4759 22.7217 83.9566 22.5397 84.4653 22.381L84.3113 22.675V22.143H81.3362V21.646H87.1253ZM84.3113 22.731L84.4583 22.934C84.2203 22.9993 83.9729 23.0857 83.7163 23.193C83.4643 23.3003 83.2169 23.4123 82.9743 23.529C82.7363 23.6457 82.5169 23.76 82.3163 23.872C82.5776 23.9233 82.8459 24.0213 83.1213 24.166C83.4013 24.3107 83.6556 24.488 83.8843 24.698C84.1176 24.9033 84.2903 25.1273 84.4023 25.37L84.3463 25.384C84.3369 25.2767 84.3276 25.1693 84.3183 25.062C84.3136 24.9547 84.3113 24.8263 84.3113 24.677V22.731ZM86.7333 23.984C86.7333 24.138 86.7029 24.285 86.6423 24.425C86.5816 24.5603 86.4813 24.6723 86.3413 24.761C86.2013 24.8497 86.0146 24.894 85.7812 24.894C85.7066 24.894 85.6343 24.8917 85.5643 24.887C85.4989 24.8823 85.4336 24.873 85.3683 24.859L85.4103 24.355C85.4383 24.3597 85.4709 24.3643 85.5083 24.369C85.5503 24.369 85.5969 24.369 85.6483 24.369C85.8723 24.369 86.0169 24.327 86.0823 24.243C86.1523 24.1543 86.1873 24.0493 86.1873 23.928C86.1873 23.6807 86.0659 23.4707 85.8233 23.298C85.5853 23.1207 85.2306 22.9993 84.7593 22.934L84.7803 22.409C85.1396 22.4463 85.4663 22.5373 85.7603 22.682C86.0543 22.822 86.2899 23.004 86.4673 23.228C86.6446 23.4473 86.7333 23.6993 86.7333 23.984ZM91.2947 21.646V22.143H90.5597V26H90.0207C89.8761 25.72 89.6801 25.4633 89.4327 25.23C89.1901 24.992 88.9101 24.7913 88.5927 24.628C88.2801 24.4647 87.9441 24.355 87.5847 24.299L87.3117 23.627C87.7597 23.3563 88.2217 23.1113 88.6977 22.892C89.1784 22.6727 89.6731 22.486 90.1817 22.332L90.0207 22.626V22.143H86.9827V21.646H91.2947ZM90.0207 22.689L90.1677 22.878C89.9297 22.948 89.6824 23.0367 89.4257 23.144C89.1691 23.2467 88.9147 23.361 88.6627 23.487C88.4107 23.6083 88.1727 23.7367 87.9487 23.872C88.1401 23.914 88.3407 23.9793 88.5507 24.068C88.7607 24.1567 88.9661 24.264 89.1667 24.39C89.3721 24.516 89.5564 24.663 89.7197 24.831C89.8877 24.9943 90.0207 25.1787 90.1187 25.384L90.0627 25.398C90.0441 25.2767 90.0324 25.1553 90.0277 25.034C90.0231 24.9127 90.0207 24.7913 90.0207 24.67V22.689ZM90.4967 25.125C90.3427 24.8357 90.1444 24.5767 89.9017 24.348C89.6637 24.1147 89.3884 23.9233 89.0757 23.774C88.7677 23.62 88.4271 23.515 88.0537 23.459L88.4107 23.158C88.6721 23.2093 88.9287 23.2863 89.1807 23.389C89.4327 23.487 89.6684 23.6223 89.8877 23.795C90.1117 23.963 90.3077 24.18 90.4757 24.446L90.4967 25.125ZM96.9417 21.646V22.143H94.6667V22.577V22.689V26H94.1277C93.9923 25.7247 93.8033 25.4657 93.5607 25.223C93.318 24.9803 93.0403 24.7773 92.7277 24.614C92.4197 24.446 92.0953 24.341 91.7547 24.299L91.4817 23.627C91.9343 23.3657 92.387 23.1323 92.8397 22.927C93.2923 22.7217 93.773 22.5397 94.2817 22.381L94.1277 22.675V22.143H91.1527V21.646H96.9417ZM94.1277 22.731L94.2747 22.934C94.0367 22.9993 93.7893 23.0857 93.5327 23.193C93.2807 23.3003 93.0333 23.4123 92.7907 23.529C92.5527 23.6457 92.3333 23.76 92.1327 23.872C92.394 23.9233 92.6623 24.0213 92.9377 24.166C93.2177 24.3107 93.472 24.488 93.7007 24.698C93.934 24.9033 94.1067 25.1273 94.2187 25.37L94.1627 25.384C94.1533 25.2767 94.144 25.1693 94.1347 25.062C94.13 24.9547 94.1277 24.8263 94.1277 24.677V22.731ZM96.5497 23.984C96.5497 24.138 96.5193 24.285 96.4587 24.425C96.398 24.5603 96.2977 24.6723 96.1577 24.761C96.0177 24.8497 95.831 24.894 95.5977 24.894C95.523 24.894 95.4507 24.8917 95.3807 24.887C95.3153 24.8823 95.25 24.873 95.1847 24.859L95.2267 24.355C95.2547 24.3597 95.2873 24.3643 95.3247 24.369C95.3667 24.369 95.4133 24.369 95.4647 24.369C95.6887 24.369 95.8333 24.327 95.8987 24.243C95.9687 24.1543 96.0037 24.0493 96.0037 23.928C96.0037 23.6807 95.8823 23.4707 95.6397 23.298C95.4017 23.1207 95.047 22.9993 94.5757 22.934L94.5967 22.409C94.956 22.4463 95.2827 22.5373 95.5767 22.682C95.8707 22.822 96.1063 23.004 96.2837 23.228C96.461 23.4473 96.5497 23.6993 96.5497 23.984Z" fill="white" fill-opacity="0.786"/>
<defs>
<filter id="filter0_dd_963_7213" x="11.0938" y="7.25" width="11.8125" height="5.625" filterUnits="userSpaceOnUse" color-interpolation-filters="sRGB">
<feFlood flood-opacity="0" result="BackgroundImageFix"/>
<feColorMatrix in="SourceAlpha" type="matrix" values="0 0 0 0 0 0 0 0 0 0 0 0 0 0 0 0 0 0 127 0" result="hardAlpha"/>
<feOffset dy="0.1875"/>
<feGaussianBlur stdDeviation="0.1875"/>
<feColorMatrix type="matrix" values="0 0 0 0 0 0 0 0 0 0 0 0 0 0 0 0 0 0 0.1 0"/>
<feBlend mode="normal" in2="BackgroundImageFix" result="effect1_dropShadow_963_7213"/>
<feColorMatrix in="SourceAlpha" type="matrix" values="0 0 0 0 0 0 0 0 0 0 0 0 0 0 0 0 0 0 127 0" result="hardAlpha"/>
<feOffset dy="0.375"/>
<feGaussianBlur stdDeviation="0.5625"/>
<feColorMatrix type="matrix" values="0 0 0 0 0 0 0 0 0 0 0 0 0 0 0 0 0 0 0.2 0"/>
<feBlend mode="normal" in2="effect1_dropShadow_963_7213" result="effect2_dropShadow_963_7213"/>
<feBlend mode="normal" in="SourceGraphic" in2="effect2_dropShadow_963_7213" result="shape"/>
</filter>
<filter id="filter1_dd_963_7213" x="12.2188" y="13.4375" width="9.5625" height="9.5625" filterUnits="userSpaceOnUse" color-interpolation-filters="sRGB">
<feFlood flood-opacity="0" result="BackgroundImageFix"/>
<feColorMatrix in="SourceAlpha" type="matrix" values="0 0 0 0 0 0 0 0 0 0 0 0 0 0 0 0 0 0 127 0" result="hardAlpha"/>
<feOffset dy="0.1875"/>
<feGaussianBlur stdDeviation="0.1875"/>
<feColorMatrix type="matrix" values="0 0 0 0 1 0 0 0 0 1 0 0 0 0 1 0 0 0 0.6 0"/>
<feBlend mode="normal" in2="BackgroundImageFix" result="effect1_dropShadow_963_7213"/>
<feColorMatrix in="SourceAlpha" type="matrix" values="0 0 0 0 0 0 0 0 0 0 0 0 0 0 0 0 0 0 127 0" result="hardAlpha"/>
<feOffset dy="0.375"/>
<feGaussianBlur stdDeviation="0.5625"/>
<feColorMatrix type="matrix" values="0 0 0 0 1 0 0 0 0 1 0 0 0 0 1 0 0 0 0.6 0"/>
<feBlend mode="normal" in2="effect1_dropShadow_963_7213" result="effect2_dropShadow_963_7213"/>
<feBlend mode="normal" in="SourceGraphic" in2="effect2_dropShadow_963_7213" result="shape"/>
</filter>
<filter id="filter2_dd_963_7213" x="10.5939" y="6.6875" width="12.8124" height="5.06277" filterUnits="userSpaceOnUse" color-interpolation-filters="sRGB">
<feFlood flood-opacity="0" result="BackgroundImageFix"/>
<feColorMatrix in="SourceAlpha" type="matrix" values="0 0 0 0 0 0 0 0 0 0 0 0 0 0 0 0 0 0 127 0" result="hardAlpha"/>
<feOffset dy="-0.75"/>
<feGaussianBlur stdDeviation="0.1875"/>
<feColorMatrix type="matrix" values="0 0 0 0 0 0 0 0 0 0 0 0 0 0 0 0 0 0 0.1 0"/>
<feBlend mode="normal" in2="BackgroundImageFix" result="effect1_dropShadow_963_7213"/>
<feColorMatrix in="SourceAlpha" type="matrix" values="0 0 0 0 0 0 0 0 0 0 0 0 0 0 0 0 0 0 127 0" result="hardAlpha"/>
<feOffset dy="-0.75"/>
<feGaussianBlur stdDeviation="0.5625"/>
<feColorMatrix type="matrix" values="0 0 0 0 0 0 0 0 0 0 0 0 0 0 0 0 0 0 0.2 0"/>
<feBlend mode="normal" in2="effect1_dropShadow_963_7213" result="effect2_dropShadow_963_7213"/>
<feBlend mode="normal" in="SourceGraphic" in2="effect2_dropShadow_963_7213" result="shape"/>
</filter>
<linearGradient id="paint0_linear_963_7213" x1="12.2443" y1="8.00639" x2="15.9039" y2="24.8132" gradientUnits="userSpaceOnUse">
<stop offset="0.270833" stop-color="white"/>
<stop offset="1" stop-color="#DFDFDF"/>
</linearGradient>
<linearGradient id="paint1_linear_963_7213" x1="17" y1="10.25" x2="20.3514" y2="25.9624" gradientUnits="userSpaceOnUse">
<stop stop-color="#0078D4"/>
<stop offset="1" stop-color="#114A8B"/>
</linearGradient>
<linearGradient id="paint2_linear_963_7213" x1="17" y1="8.5625" x2="17.1583" y2="10.9858" gradientUnits="userSpaceOnUse">
<stop stop-color="#28AFEA"/>
<stop offset="1" stop-color="#0078D4"/>
</linearGradient>
<linearGradient id="paint3_linear_963_7213" x1="17" y1="8.5625" x2="17.1583" y2="10.9858" gradientUnits="userSpaceOnUse">
<stop stop-color="#30DAFF"/>
<stop offset="1" stop-color="#0094D4"/>
</linearGradient>
<linearGradient id="paint4_linear_963_7213" x1="16.5938" y1="8" x2="16.5937" y2="9.125" gradientUnits="userSpaceOnUse">
<stop stop-color="#22BCFF"/>
<stop offset="1" stop-color="#0088F0"/>
</linearGradient>
<linearGradient id="paint5_linear_963_7213" x1="16.5938" y1="8" x2="16.5937" y2="9.125" gradientUnits="userSpaceOnUse">
<stop stop-color="#28AFEA"/>
<stop offset="1" stop-color="#3CCBF4"/>
</linearGradient>
<clipPath id="clip0_963_7213">
<rect width="18" height="18" fill="white" transform="translate(8 8)"/>
</clipPath>
<clipPath id="clip1_963_7213">
<rect width="18" height="18" fill="white" transform="translate(8 8)"/>
</clipPath>
</defs>
</svg>
