<svg width="101" height="32" viewBox="0 0 101 32" fill="none" xmlns="http://www.w3.org/2000/svg">
<rect x="0.5" y="0.5" width="100" height="31" rx="3.5" fill="black"/>
<path d="M15.5559 7H7V15.5608H15.5559V7Z" fill="#F25022"/>
<path d="M25.0001 7H16.4442V15.5608H25.0001V7Z" fill="#7FBA00"/>
<path d="M15.5559 16.4395H7V25.0002H15.5559V16.4395Z" fill="#00A4EF"/>
<path d="M25.0002 16.4395H16.4443V25.0002H25.0002V16.4395Z" fill="#FFB900"/>
<path d="M29.1211 13L31.2578 7.39844H32.0156L34.1562 13H33.3672L32.8203 11.5312H30.4297L29.9102 13H29.1211ZM30.6523 10.9062H32.5977L31.7188 8.49609C31.7005 8.45443 31.6849 8.40234 31.6719 8.33984C31.6589 8.27734 31.6445 8.20312 31.6289 8.11719H31.6133C31.6003 8.19531 31.5859 8.26562 31.5703 8.32812C31.5573 8.39062 31.5417 8.44531 31.5234 8.49219L30.6523 10.9062ZM36.3594 13H35.6641V9.48828H34.4219V8.90234H37.6016V9.48828H36.3594V13ZM39.1289 12.4102H39.1133V14.8398H38.418V8.90234H39.1133V9.61719H39.1289C39.2904 9.34635 39.4896 9.14323 39.7266 9.00781C39.9635 8.8724 40.2357 8.80469 40.543 8.80469C41.0716 8.80469 41.4831 8.98828 41.7773 9.35547C42.0742 9.72266 42.2227 10.2135 42.2227 10.8281C42.2227 11.5156 42.0547 12.0664 41.7188 12.4805C41.3854 12.8919 40.931 13.0977 40.3555 13.0977C40.0898 13.0977 39.8542 13.0404 39.6484 12.9258C39.4453 12.8112 39.2721 12.6393 39.1289 12.4102ZM39.1094 10.7617V11.3086C39.1094 11.6471 39.2174 11.9336 39.4336 12.168C39.6497 12.4023 39.9258 12.5195 40.2617 12.5195C40.6497 12.5195 40.9544 12.3698 41.1758 12.0703C41.3971 11.7708 41.5078 11.3542 41.5078 10.8203C41.5078 10.3698 41.4049 10.0182 41.1992 9.76562C40.9935 9.51042 40.7135 9.38281 40.3594 9.38281C39.9818 9.38281 39.6784 9.51432 39.4492 9.77734C39.2227 10.0378 39.1094 10.3659 39.1094 10.7617ZM47.1719 13V8.90234H47.8633V13H47.1719ZM43.3008 13V8.90234H43.9961V10.332H45.0977C45.5404 10.332 45.8867 10.4466 46.1367 10.6758C46.3867 10.9049 46.5117 11.2318 46.5117 11.6562C46.5117 12.0859 46.3815 12.418 46.1211 12.6523C45.8633 12.8841 45.513 13 45.0703 13H43.3008ZM43.9961 10.9062V12.4297H44.9844C45.2448 12.4297 45.4453 12.3646 45.5859 12.2344C45.7292 12.1042 45.8008 11.918 45.8008 11.6758C45.8008 11.431 45.7292 11.2422 45.5859 11.1094C45.4453 10.974 45.2448 10.9062 44.9844 10.9062H43.9961ZM49.2227 13V8.90234H50.1133L51.25 11.5859C51.2812 11.6615 51.3151 11.7487 51.3516 11.8477C51.3906 11.944 51.4245 12.0339 51.4531 12.1172H51.4609C51.4896 12.0339 51.5221 11.944 51.5586 11.8477C51.5951 11.7487 51.6289 11.6615 51.6602 11.5859L52.7969 8.90234H53.7031V13H53.0703V9.62891H53.0625C53.0104 9.76432 52.9557 9.90495 52.8984 10.0508C52.8438 10.194 52.8008 10.3021 52.7695 10.375L51.6562 13H51.2422L50.1289 10.375C50.1003 10.3021 50.0573 10.194 50 10.0508C49.9427 9.90495 49.888 9.76432 49.8359 9.62891H49.8281V13H49.2227ZM58.0078 13H57.3164V12.3555H57.3008C57.1602 12.6003 56.9857 12.7852 56.7773 12.9102C56.569 13.0352 56.3268 13.0977 56.0508 13.0977C55.6654 13.0977 55.3542 12.9857 55.1172 12.7617C54.8802 12.5378 54.7617 12.2422 54.7617 11.875C54.7617 11.5182 54.8815 11.2253 55.1211 10.9961C55.3607 10.7669 55.7057 10.6198 56.1562 10.5547L57.3203 10.3984V10.3047C57.3203 9.97396 57.2409 9.73568 57.082 9.58984C56.9258 9.44401 56.7148 9.37109 56.4492 9.37109C56.2383 9.37109 56.0326 9.41146 55.832 9.49219C55.6315 9.57292 55.4414 9.69401 55.2617 9.85547L54.8828 9.43359C55.1146 9.22005 55.362 9.0625 55.625 8.96094C55.8906 8.85677 56.181 8.80469 56.4961 8.80469C56.9961 8.80469 57.3724 8.93359 57.625 9.19141C57.8802 9.44922 58.0078 9.83594 58.0078 10.3516V13ZM57.3203 11.3281V10.9336L56.3438 11.0664C56.0443 11.1081 55.8203 11.1836 55.6719 11.293C55.5234 11.4023 55.4492 11.5742 55.4492 11.8086C55.4492 12.0404 55.5182 12.2201 55.6562 12.3477C55.7969 12.4753 55.9714 12.5391 56.1797 12.5391C56.5234 12.5391 56.7995 12.4258 57.0078 12.1992C57.2161 11.9701 57.3203 11.6797 57.3203 11.3281ZM62.75 14.0664V13H59.3008V8.90234H59.9961V12.4258H62.043V8.90234H62.7383V12.4258H63.3477V14.0664H62.75ZM64.3008 13V8.90234H64.9961V10.332H66.0938C66.5365 10.332 66.8828 10.4466 67.1328 10.6758C67.3854 10.9049 67.5117 11.2318 67.5117 11.6562C67.5117 12.0859 67.3815 12.418 67.1211 12.6523C66.8633 12.8841 66.5117 13 66.0664 13H64.3008ZM64.9961 12.4297H65.9844C66.2448 12.4297 66.4453 12.3659 66.5859 12.2383C66.7292 12.1081 66.8008 11.9206 66.8008 11.6758C66.8008 11.431 66.7305 11.2422 66.5898 11.1094C66.4492 10.974 66.2487 10.9062 65.9883 10.9062H64.9961V12.4297ZM70.3086 13L70.9844 11.8281C71.0703 11.6771 71.1641 11.5508 71.2656 11.4492C71.3672 11.3477 71.4688 11.2773 71.5703 11.2383C71.2396 11.194 70.9844 11.0755 70.8047 10.8828C70.625 10.6875 70.5352 10.4336 70.5352 10.1211C70.5352 9.73047 70.6667 9.42969 70.9297 9.21875C71.1927 9.00781 71.5677 8.90234 72.0547 8.90234H73.582V13H72.8867V11.3867H72.418C72.2695 11.3867 72.1341 11.4375 72.0117 11.5391C71.8919 11.638 71.7708 11.8008 71.6484 12.0273L71.1289 13H70.3086ZM72.8867 9.47266H72.0703C71.8073 9.47266 71.6042 9.53125 71.4609 9.64844C71.3177 9.76302 71.2461 9.92708 71.2461 10.1406C71.2461 10.3646 71.3151 10.5378 71.4531 10.6602C71.5938 10.7826 71.793 10.8438 72.0508 10.8438H72.8867V9.47266ZM75.6211 13H74.9258V8.90234H77.3008V9.48828H75.6211V13ZM79.8125 13.0977C79.2005 13.0977 78.7122 12.9062 78.3477 12.5234C77.9857 12.138 77.8047 11.6276 77.8047 10.9922C77.8047 10.3073 77.9922 9.77214 78.3672 9.38672C78.7422 9.0013 79.2539 8.80729 79.9023 8.80469C80.5169 8.80208 80.9974 8.99089 81.3438 9.37109C81.6927 9.7487 81.8672 10.2682 81.8672 10.9297C81.8672 11.5885 81.681 12.1146 81.3086 12.5078C80.9362 12.901 80.4375 13.0977 79.8125 13.0977ZM79.8594 12.5195C80.276 12.5195 80.5951 12.3841 80.8164 12.1133C81.0404 11.8398 81.1523 11.4531 81.1523 10.9531C81.1523 10.4479 81.0404 10.0599 80.8164 9.78906C80.5924 9.51823 80.2734 9.38281 79.8594 9.38281C79.4453 9.38281 79.1172 9.52474 78.875 9.80859C78.6354 10.0898 78.5156 10.4779 78.5156 10.9727C78.5156 11.4544 78.6367 11.8333 78.8789 12.1094C79.1211 12.3828 79.4479 12.5195 79.8594 12.5195ZM88.0938 13H87.4023V12.3555H87.3867C87.2461 12.6003 87.0716 12.7852 86.8633 12.9102C86.6549 13.0352 86.4128 13.0977 86.1367 13.0977C85.7513 13.0977 85.4401 12.9857 85.2031 12.7617C84.9661 12.5378 84.8477 12.2422 84.8477 11.875C84.8477 11.5182 84.9674 11.2253 85.207 10.9961C85.4466 10.7669 85.7917 10.6198 86.2422 10.5547L87.4062 10.3984V10.3047C87.4062 9.97396 87.3268 9.73568 87.168 9.58984C87.0117 9.44401 86.8008 9.37109 86.5352 9.37109C86.3242 9.37109 86.1185 9.41146 85.918 9.49219C85.7174 9.57292 85.5273 9.69401 85.3477 9.85547L84.9688 9.43359C85.2005 9.22005 85.4479 9.0625 85.7109 8.96094C85.9766 8.85677 86.2669 8.80469 86.582 8.80469C87.082 8.80469 87.4583 8.93359 87.7109 9.19141C87.9661 9.44922 88.0938 9.83594 88.0938 10.3516V13ZM87.4062 11.3281V10.9336L86.4297 11.0664C86.1302 11.1081 85.9062 11.1836 85.7578 11.293C85.6094 11.4023 85.5352 11.5742 85.5352 11.8086C85.5352 12.0404 85.6042 12.2201 85.7422 12.3477C85.8828 12.4753 86.0573 12.5391 86.2656 12.5391C86.6094 12.5391 86.8854 12.4258 87.0938 12.1992C87.3021 11.9701 87.4062 11.6797 87.4062 11.3281ZM88.8203 14.0664V12.4258H89.2031C89.3672 12.1445 89.4935 11.7812 89.582 11.3359C89.6706 10.8906 89.7148 10.3932 89.7148 9.84375V8.90234H92.4258V12.4258H93.0352V14.0664H92.4375V13H89.418V14.0664H88.8203ZM91.7305 12.4258V9.47266H90.3555V9.88672C90.3555 10.4102 90.3177 10.8919 90.2422 11.332C90.1667 11.7721 90.0573 12.1367 89.9141 12.4258H91.7305Z" fill="white"/>
<path d="M41.1489 16.6123C41.1489 16.3559 41.2412 16.1507 41.4259 15.9764C41.6105 15.802 41.8258 15.72 42.0823 15.72C42.3489 15.72 42.5746 15.8123 42.7489 15.9866C42.9233 16.161 43.0156 16.3764 43.0156 16.6123C43.0156 16.8584 42.9233 17.0738 42.7387 17.2379C42.5541 17.4123 42.3387 17.4943 42.072 17.4943C41.8053 17.4943 41.59 17.4123 41.4053 17.2379C41.2412 17.0636 41.1489 16.8584 41.1489 16.6123ZM42.8412 25.002H41.313V18.4892H42.8412V25.002Z" fill="white"/>
<path d="M47.4975 23.8888C47.7231 23.8888 47.9795 23.8375 48.2565 23.735C48.5334 23.6324 48.7795 23.4888 49.0154 23.3144V24.7401C48.7693 24.8837 48.4924 24.9862 48.1847 25.058C47.877 25.1298 47.5282 25.1709 47.159 25.1709C46.2052 25.1709 45.4257 24.8632 44.8205 24.258C44.2154 23.6529 43.918 22.8734 43.918 21.9401C43.918 20.8939 44.2257 20.0324 44.8411 19.3555C45.4564 18.6785 46.318 18.3401 47.4462 18.3401C47.7334 18.3401 48.0206 18.3811 48.318 18.4529C48.6154 18.5247 48.8411 18.617 49.0154 18.7093V20.176C48.7795 20.0016 48.5334 19.8683 48.2872 19.776C48.0411 19.6837 47.7847 19.6324 47.5282 19.6324C46.9231 19.6324 46.4411 19.8273 46.0616 20.217C45.6923 20.6068 45.5077 21.1401 45.5077 21.8068C45.5077 22.4632 45.6821 22.976 46.0411 23.3452C46.4 23.7144 46.8821 23.8888 47.4975 23.8888Z" fill="white"/>
<path d="M53.3738 18.3899C53.4969 18.3899 53.6097 18.4001 53.702 18.4104C53.7943 18.4309 53.8866 18.4514 53.9482 18.4719V20.0207C53.8661 19.9591 53.7533 19.9078 53.5995 19.8566C53.4456 19.8053 53.261 19.7745 53.0354 19.7745C52.6559 19.7745 52.3379 19.9284 52.0815 20.2463C51.8251 20.5643 51.6918 21.0463 51.6918 21.713V25.0053H50.1636V18.4925H51.6918V19.5181H51.7123C51.8559 19.1591 52.061 18.8822 52.3482 18.6873C52.6354 18.4925 52.9738 18.3899 53.3738 18.3899Z" fill="white"/>
<path d="M54.0308 21.8478C54.0308 20.7709 54.3385 19.9196 54.9436 19.2837C55.5487 18.658 56.4 18.3401 57.4769 18.3401C58.4923 18.3401 59.2923 18.6478 59.8667 19.2529C60.441 19.858 60.7282 20.6785 60.7282 21.7042C60.7282 22.7606 60.4205 23.6016 59.8154 24.2273C59.2102 24.8529 58.3795 25.1606 57.3333 25.1606C56.3282 25.1606 55.5179 24.8632 54.9333 24.2683C54.3282 23.6837 54.0308 22.8734 54.0308 21.8478ZM55.6308 21.7965C55.6308 22.4734 55.7846 22.9965 56.0923 23.3555C56.4 23.7144 56.841 23.8888 57.4154 23.8888C57.9692 23.8888 58.4 23.7144 58.6872 23.3555C58.9743 22.9965 59.1282 22.4632 59.1282 21.7555C59.1282 21.058 58.9743 20.5247 58.6769 20.1657C58.3795 19.8068 57.9487 19.6324 57.4051 19.6324C56.841 19.6324 56.4102 19.817 56.0923 20.1965C55.7846 20.576 55.6308 21.0991 55.6308 21.7965Z" fill="white"/>
<path d="M63.0053 20.207C63.0053 20.4224 63.0771 20.5967 63.2104 20.7198C63.354 20.8429 63.6617 20.9968 64.1335 21.1916C64.7489 21.4378 65.1796 21.7147 65.4258 22.0224C65.6719 22.3301 65.795 22.6993 65.795 23.1301C65.795 23.7455 65.5591 24.2378 65.0873 24.607C64.6155 24.9762 63.9796 25.1609 63.1796 25.1609C62.913 25.1609 62.6155 25.1301 62.2873 25.0583C61.9591 24.9968 61.6822 24.9045 61.4565 24.8121V23.3044C61.7335 23.4993 62.0309 23.6532 62.3591 23.766C62.6771 23.8788 62.9745 23.9403 63.2309 23.9403C63.5796 23.9403 63.836 23.8891 64.0001 23.7968C64.1642 23.7044 64.2463 23.5403 64.2463 23.3044C64.2463 23.0891 64.1642 22.9147 63.9899 22.7711C63.8155 22.6275 63.4976 22.4532 63.0155 22.2685C62.4514 22.0327 62.0514 21.766 61.8155 21.4685C61.5796 21.1711 61.4565 20.7916 61.4565 20.3403C61.4565 19.7557 61.6924 19.2737 62.154 18.8942C62.6155 18.5147 63.2206 18.3301 63.9694 18.3301C64.195 18.3301 64.4514 18.3506 64.7386 18.4019C65.0258 18.4532 65.2617 18.5147 65.4463 18.5967V20.0532C65.2412 19.9198 65.0053 19.807 64.7386 19.7044C64.4719 19.6121 64.195 19.5608 63.9386 19.5608C63.6514 19.5608 63.4155 19.6224 63.2617 19.7352C63.0873 19.848 63.0053 20.0121 63.0053 20.207Z" fill="white"/>
<path d="M66.4717 21.8478C66.4717 20.7709 66.7794 19.9196 67.3845 19.2837C67.9896 18.658 68.8409 18.3401 69.9178 18.3401C70.9332 18.3401 71.7332 18.6478 72.3076 19.2529C72.8819 19.858 73.1691 20.6785 73.1691 21.7042C73.1691 22.7606 72.8614 23.6016 72.2563 24.2273C71.6512 24.8529 70.8204 25.1606 69.7742 25.1606C68.7691 25.1606 67.9589 24.8632 67.3742 24.2683C66.7691 23.6837 66.4717 22.8734 66.4717 21.8478ZM68.0614 21.7965C68.0614 22.4734 68.2153 22.9965 68.523 23.3555C68.8307 23.7144 69.2717 23.8888 69.846 23.8888C70.3999 23.8888 70.8307 23.7144 71.1178 23.3555C71.405 22.9965 71.5589 22.4632 71.5589 21.7555C71.5589 21.058 71.405 20.5247 71.1076 20.1657C70.8101 19.8068 70.3794 19.6324 69.8358 19.6324C69.2717 19.6324 68.8409 19.817 68.523 20.1965C68.2153 20.576 68.0614 21.0991 68.0614 21.7965Z" fill="white"/>
<path d="M78.2258 19.7523V23.0959C78.2258 23.7933 78.3899 24.3062 78.7079 24.6549C79.0258 25.0036 79.5181 25.1677 80.1643 25.1677C80.3797 25.1677 80.6053 25.1472 80.8309 25.0959C81.0566 25.0446 81.2207 25.0036 81.313 24.9421V23.6703C81.2207 23.7318 81.1079 23.7831 80.9848 23.8241C80.8617 23.8651 80.7489 23.8857 80.6668 23.8857C80.3591 23.8857 80.1232 23.8036 79.9797 23.6395C79.8361 23.4754 79.7643 23.1882 79.7643 22.7882V19.7421H81.3232V18.4908H79.7745V16.5626L78.2361 17.0344V18.501H75.9489V17.7113C75.9489 17.3215 76.0309 17.0241 76.2053 16.819C76.3796 16.6139 76.6258 16.5215 76.9438 16.5215C77.1079 16.5215 77.2514 16.5421 77.3848 16.5831C77.5079 16.6241 77.6002 16.6651 77.6514 16.6959V15.3728C77.5386 15.3318 77.4155 15.3113 77.272 15.2908C77.1284 15.2703 76.9643 15.26 76.7797 15.26C76.0822 15.26 75.5079 15.4754 75.0668 15.9164C74.6258 16.3574 74.4002 16.9113 74.4002 17.5985V18.501H73.313V19.7523H74.4002V25.0139H75.9489V19.7523H78.2258Z" fill="white"/>
<path d="M39.8359 15.9199V25.0071H38.2564V17.8892H38.2359L35.4154 25.0071H34.3692L31.4769 17.8892H31.4564V25.0071H30V15.9199H32.2564L34.8718 22.6584H34.9128L37.6718 15.9199H39.8359Z" fill="white"/>
<rect x="0.5" y="0.5" width="100" height="31" rx="3.5" stroke="black"/>
</svg>
