<svg width="88" height="32" viewBox="0 0 88 32" fill="none" xmlns="http://www.w3.org/2000/svg">
<rect x="0.5" y="0.5" width="86.9975" height="31" rx="3.5" fill="black"/>
<path d="M15.56 7H7V15.5607H15.56V7Z" fill="#F25022"/>
<path d="M25.0021 7H16.4421V15.5607H25.0021V7Z" fill="#7FBA00"/>
<path d="M15.56 16.4395H7V25.0001H15.56V16.4395Z" fill="#00A4EF"/>
<path d="M25.0022 16.4395H16.4422V25.0001H25.0022V16.4395Z" fill="#FFB900"/>
<path d="M31.8485 20.0242V20.5922H31.6885C31.5232 20.6296 31.3445 20.7122 31.1525 20.8402C30.9605 20.9629 30.7792 21.1256 30.6085 21.3282C30.4379 21.5256 30.2965 21.7576 30.1845 22.0242C30.0779 22.2909 30.0245 22.5842 30.0245 22.9042C30.0245 23.2882 30.0805 23.5949 30.1925 23.8242C30.3099 24.0482 30.4539 24.2082 30.6245 24.3042C30.7952 24.4002 30.9659 24.4482 31.1365 24.4482C31.2699 24.4482 31.3819 24.4349 31.4725 24.4082C31.5632 24.3816 31.6672 24.3336 31.7845 24.2642L32.0645 24.7522C31.9259 24.8589 31.7739 24.9336 31.6085 24.9762C31.4432 25.0189 31.2752 25.0402 31.1045 25.0402C30.7685 25.0402 30.4725 24.9522 30.2165 24.7762C29.9605 24.6002 29.7579 24.3549 29.6085 24.0402C29.4645 23.7202 29.3925 23.3469 29.3925 22.9202C29.3925 22.5096 29.4565 22.1442 29.5845 21.8242C29.7179 21.4989 29.8885 21.2162 30.0965 20.9762C30.3099 20.7362 30.5392 20.5389 30.7845 20.3842C31.0299 20.2242 31.2672 20.1042 31.4965 20.0242H31.8485ZM37.0062 20.0242V20.5922H36.1662V25.0002H35.5502C35.3475 24.7069 35.1075 24.4322 34.8302 24.1762C34.5528 23.9149 34.2355 23.6909 33.8782 23.5042C33.5262 23.3122 33.1288 23.1762 32.6862 23.0962L32.5022 22.3522L32.9182 22.6322C33.3662 22.7176 33.7582 22.8456 34.0942 23.0162C34.4355 23.1816 34.7288 23.3709 34.9742 23.5842C35.2195 23.7922 35.4168 24.0056 35.5662 24.2242C35.5608 24.1016 35.5555 23.9789 35.5502 23.8562C35.5502 23.7336 35.5502 23.6002 35.5502 23.4562V19.4962H35.9742L36.1582 20.0242H37.0062ZM33.4542 20.0002C33.7902 20.0002 34.0702 20.0589 34.2942 20.1762C34.5182 20.2882 34.6862 20.4429 34.7982 20.6402C34.9102 20.8322 34.9662 21.0482 34.9662 21.2882C34.9662 21.7042 34.7928 22.0429 34.4462 22.3042C34.1048 22.5656 33.6328 22.7309 33.0302 22.8002L32.6462 22.7202L32.5022 22.3522C32.9502 22.3202 33.3075 22.2562 33.5742 22.1602C33.8408 22.0589 34.0302 21.9336 34.1422 21.7842C34.2595 21.6296 34.3182 21.4589 34.3182 21.2722C34.3182 21.0429 34.2435 20.8669 34.0942 20.7442C33.9448 20.6216 33.7262 20.5602 33.4382 20.5602C33.1715 20.5602 32.9795 20.6136 32.8622 20.7202C32.7502 20.8216 32.6942 20.9309 32.6942 21.0482C32.6942 21.1229 32.7128 21.1922 32.7502 21.2562C32.7928 21.3202 32.8648 21.3789 32.9662 21.4322L32.6142 21.9282C32.5128 21.8589 32.4195 21.7842 32.3342 21.7042C32.2542 21.6189 32.1902 21.5202 32.1422 21.4082C32.0942 21.2962 32.0702 21.1682 32.0702 21.0242C32.0702 20.8376 32.1235 20.6669 32.2302 20.5122C32.3368 20.3576 32.4942 20.2349 32.7022 20.1442C32.9102 20.0482 33.1608 20.0002 33.4542 20.0002ZM39.7704 20.0242V20.5922H39.6104C39.4451 20.6296 39.2664 20.7122 39.0744 20.8402C38.8824 20.9629 38.7011 21.1256 38.5304 21.3282C38.3597 21.5256 38.2184 21.7576 38.1064 22.0242C37.9997 22.2909 37.9464 22.5842 37.9464 22.9042C37.9464 23.2882 38.0024 23.5949 38.1144 23.8242C38.2317 24.0482 38.3757 24.2082 38.5464 24.3042C38.7171 24.4002 38.8877 24.4482 39.0584 24.4482C39.1917 24.4482 39.3037 24.4349 39.3944 24.4082C39.4851 24.3816 39.5891 24.3336 39.7064 24.2642L39.9864 24.7522C39.8477 24.8589 39.6957 24.9336 39.5304 24.9762C39.3651 25.0189 39.1997 25.0402 39.0344 25.0402C38.6984 25.0402 38.3997 24.9522 38.1384 24.7762C37.8824 24.6002 37.6797 24.3549 37.5304 24.0402C37.3864 23.7202 37.3144 23.3469 37.3144 22.9202C37.3144 22.4829 37.3971 22.0882 37.5624 21.7362C37.7277 21.3789 37.9491 21.0776 38.2264 20.8322C38.5091 20.5869 38.8211 20.4082 39.1624 20.2962L38.6504 20.5602C38.5544 20.5709 38.4504 20.5789 38.3384 20.5842C38.2264 20.5896 38.1011 20.5922 37.9624 20.5922H36.8424V20.0242H39.7704ZM46.224 20.0242V20.5922H43.624V21.0882V21.2162V25.0002H43.008C42.8534 24.6856 42.6374 24.3896 42.36 24.1122C42.0827 23.8349 41.7654 23.6029 41.408 23.4162C41.056 23.2242 40.6854 23.1042 40.296 23.0562L39.984 22.2882C40.5014 21.9896 41.0187 21.7229 41.536 21.4882C42.0534 21.2536 42.6027 21.0456 43.184 20.8642L43.008 21.2002V20.5922H39.608V20.0242H46.224ZM43.008 21.2642L43.176 21.4962C42.904 21.5709 42.6214 21.6696 42.328 21.7922C42.04 21.9149 41.7574 22.0429 41.48 22.1762C41.208 22.3096 40.9574 22.4402 40.728 22.5682C41.0267 22.6269 41.3334 22.7389 41.648 22.9042C41.968 23.0696 42.2587 23.2722 42.52 23.5122C42.7867 23.7469 42.984 24.0029 43.112 24.2802L43.048 24.2962C43.0374 24.1736 43.0267 24.0509 43.016 23.9282C43.0107 23.8056 43.008 23.6589 43.008 23.4882V21.2642ZM45.776 22.6962C45.776 22.8722 45.7414 23.0402 45.672 23.2002C45.6027 23.3549 45.488 23.4829 45.328 23.5842C45.168 23.6856 44.9547 23.7362 44.688 23.7362C44.6027 23.7362 44.52 23.7336 44.44 23.7282C44.3654 23.7229 44.2907 23.7122 44.216 23.6962L44.264 23.1202C44.296 23.1256 44.3334 23.1309 44.376 23.1362C44.424 23.1362 44.4774 23.1362 44.536 23.1362C44.792 23.1362 44.9574 23.0882 45.032 22.9922C45.112 22.8909 45.152 22.7709 45.152 22.6322C45.152 22.3496 45.0134 22.1096 44.736 21.9122C44.464 21.7096 44.0587 21.5709 43.52 21.4962L43.544 20.8962C43.9547 20.9389 44.328 21.0429 44.664 21.2082C45 21.3682 45.2694 21.5762 45.472 21.8322C45.6747 22.0829 45.776 22.3709 45.776 22.6962ZM52.4245 19.9762C52.6431 19.9762 52.8245 20.0002 52.9685 20.0482C53.1178 20.0909 53.2431 20.1576 53.3445 20.2482C53.4458 20.3336 53.5258 20.4402 53.5845 20.5682C53.6431 20.6909 53.6725 20.8616 53.6725 21.0802V25.0002H53.0725C53.0298 24.8402 52.9685 24.7096 52.8885 24.6082C52.8085 24.5069 52.7098 24.4322 52.5925 24.3842C52.4805 24.3309 52.3445 24.3042 52.1845 24.3042C51.9925 24.3042 51.8138 24.3149 51.6485 24.3362C51.4831 24.3576 51.3098 24.3816 51.1285 24.4082C50.9525 24.4296 50.7471 24.4402 50.5125 24.4402C50.3311 24.4402 50.1365 24.4216 49.9285 24.3842C49.7205 24.3416 49.5231 24.2642 49.3365 24.1522C49.1498 24.0402 48.9978 23.8749 48.8805 23.6562C48.7631 23.4322 48.7045 23.1389 48.7045 22.7762C48.7045 22.6482 48.7151 22.5149 48.7365 22.3762C48.7578 22.2322 48.7791 22.1016 48.8005 21.9842L49.4165 22.0722C49.3951 22.1522 49.3738 22.2482 49.3525 22.3602C49.3365 22.4722 49.3285 22.6056 49.3285 22.7602C49.3285 22.9949 49.3631 23.1842 49.4325 23.3282C49.5018 23.4722 49.5951 23.5816 49.7125 23.6562C49.8298 23.7309 49.9605 23.7816 50.1045 23.8082C50.2485 23.8349 50.3951 23.8482 50.5445 23.8482C50.8111 23.8482 51.0538 23.8269 51.2725 23.7842C51.4965 23.7362 51.7471 23.7122 52.0245 23.7122C52.2538 23.7122 52.4538 23.7469 52.6245 23.8162C52.7951 23.8802 52.9391 23.9922 53.0565 24.1522V21.2962C53.0565 21.0989 53.0431 20.9576 53.0165 20.8722C52.9898 20.7869 52.9471 20.7176 52.8885 20.6642C52.7925 20.5842 52.6458 20.5442 52.4485 20.5442C52.2565 20.5442 52.0725 20.5869 51.8965 20.6722C51.7258 20.7576 51.5711 20.8669 51.4325 21.0002C51.2991 21.1336 51.1925 21.2776 51.1125 21.4322C51.0378 21.5816 51.0005 21.7229 51.0005 21.8562C51.0005 21.9096 51.0111 21.9656 51.0325 22.0242C51.0538 22.0829 51.0991 22.1336 51.1685 22.1762C51.2378 22.2189 51.3391 22.2402 51.4725 22.2402C51.5311 22.2402 51.5871 22.2376 51.6405 22.2322C51.6938 22.2269 51.7498 22.2216 51.8085 22.2162L51.8645 22.7762C51.8111 22.7976 51.7391 22.8136 51.6485 22.8242C51.5631 22.8349 51.4618 22.8402 51.3445 22.8402C51.0831 22.8402 50.8538 22.7602 50.6565 22.6002C50.4645 22.4402 50.3685 22.1949 50.3685 21.8642C50.3685 21.6509 50.4218 21.4349 50.5285 21.2162C50.6405 20.9922 50.7925 20.7869 50.9845 20.6002C51.1765 20.4136 51.3951 20.2642 51.6405 20.1522C51.8911 20.0349 52.1525 19.9762 52.4245 19.9762ZM61.143 20.0242V20.5922H57.903V23.3602C57.903 23.5949 57.9163 23.7602 57.943 23.8562C57.9696 23.9522 58.0016 24.0216 58.039 24.0642C58.135 24.1762 58.2816 24.2322 58.479 24.2322C58.687 24.2322 58.8843 24.1816 59.071 24.0802C59.2576 23.9789 59.4203 23.8536 59.559 23.7042C59.7136 23.5389 59.831 23.3629 59.911 23.1762C59.9963 22.9896 60.039 22.8002 60.039 22.6082C60.039 22.4376 59.9963 22.3096 59.911 22.2242C59.8256 22.1336 59.6843 22.0882 59.487 22.0882C59.423 22.0882 59.3536 22.0936 59.279 22.1042C59.2043 22.1149 59.1323 22.1282 59.063 22.1442L58.975 21.5762C59.0763 21.5496 59.1803 21.5282 59.287 21.5122C59.399 21.4962 59.5163 21.4882 59.639 21.4882C59.8363 21.4882 60.0123 21.5256 60.167 21.6002C60.3216 21.6749 60.4416 21.7922 60.527 21.9522C60.6176 22.1122 60.663 22.3202 60.663 22.5762C60.663 22.8909 60.5856 23.1976 60.431 23.4962C60.2763 23.7896 60.0816 24.0376 59.847 24.2402C59.6496 24.4109 59.4336 24.5496 59.199 24.6562C58.9696 24.7576 58.7163 24.8082 58.439 24.8082C58.2416 24.8082 58.071 24.7789 57.927 24.7202C57.7883 24.6616 57.6736 24.5869 57.583 24.4962C57.4976 24.3949 57.4256 24.2722 57.367 24.1282C57.3136 23.9842 57.287 23.7656 57.287 23.4722V20.5922H56.447V20.0242H61.143ZM59.687 20.0242C59.6816 19.8056 59.6203 19.6536 59.503 19.5682C59.391 19.4829 59.2176 19.4402 58.983 19.4402H58.295C57.9483 19.4402 57.679 19.4162 57.487 19.3682C57.3003 19.3202 57.1403 19.2456 57.007 19.1442C56.863 19.0376 56.7536 18.9016 56.679 18.7362C56.6096 18.5656 56.575 18.3736 56.575 18.1602C56.575 18.0909 56.5776 18.0216 56.583 17.9522C56.5936 17.8829 56.6043 17.8082 56.615 17.7282L57.207 17.7682C57.1963 17.8269 57.1883 17.8829 57.183 17.9362C57.1776 17.9842 57.175 18.0349 57.175 18.0882C57.175 18.2056 57.1856 18.3096 57.207 18.4002C57.2336 18.4909 57.2736 18.5656 57.327 18.6242C57.4016 18.7096 57.5083 18.7762 57.647 18.8242C57.791 18.8669 57.9936 18.8882 58.255 18.8882H58.479C58.5696 18.8882 58.6763 18.8936 58.799 18.9042C58.9216 18.9149 59.0763 18.9389 59.263 18.9762C59.4496 19.0082 59.6816 19.0589 59.959 19.1282C60.0496 19.2136 60.1216 19.3309 60.175 19.4802C60.2283 19.6242 60.2576 19.8056 60.263 20.0242H59.687ZM56.607 20.0242V20.5922H55.767V25.0002H55.151V20.5922H54.319V20.0242H55.055C54.9696 19.9229 54.8816 19.8162 54.791 19.7042C54.7056 19.5922 54.6283 19.4802 54.559 19.3682C54.7403 19.0536 54.935 18.7682 55.143 18.5122C55.351 18.2509 55.5963 18.0456 55.879 17.8962C56.1616 17.7416 56.503 17.6642 56.903 17.6642C57.2816 17.6642 57.631 17.7229 57.951 17.8402C58.2763 17.9576 58.599 18.1256 58.919 18.3442C59.2443 18.5629 59.591 18.8242 59.959 19.1282L59.639 19.4962C59.3616 19.2776 59.1056 19.0909 58.871 18.9362C58.6416 18.7762 58.4256 18.6456 58.223 18.5442C58.0203 18.4376 57.8203 18.3602 57.623 18.3122C57.4256 18.2589 57.2176 18.2322 56.999 18.2322C56.7056 18.2322 56.4523 18.2856 56.239 18.3922C56.0256 18.4936 55.839 18.6376 55.679 18.8242C55.5243 19.0056 55.3803 19.2162 55.247 19.4562C55.2896 19.5362 55.3483 19.6242 55.423 19.7202C55.4976 19.8162 55.583 19.9176 55.679 20.0242H56.607ZM69.0663 20.0242V20.5922H68.2263V25.0002H67.6103V21.8322L67.7863 22.3442C67.5677 22.0242 67.3677 21.7522 67.1863 21.5282C67.005 21.2989 66.8317 21.1122 66.6663 20.9682C66.5063 20.8242 66.3437 20.7202 66.1783 20.6562C66.013 20.5869 65.8343 20.5522 65.6423 20.5522C65.429 20.5522 65.2343 20.5922 65.0583 20.6722C64.8877 20.7522 64.7303 20.8589 64.5863 20.9922C64.4423 21.1256 64.309 21.2696 64.1863 21.4242L64.1223 21.4402C64.2077 21.3869 64.2903 21.3469 64.3703 21.3202C64.4557 21.2936 64.549 21.2802 64.6503 21.2802C64.9597 21.2802 65.1863 21.3656 65.3303 21.5362C65.4743 21.7016 65.5463 21.9069 65.5463 22.1522C65.5463 22.2109 65.5437 22.2669 65.5383 22.3202C65.533 22.3736 65.525 22.4136 65.5143 22.4402L65.3783 22.3922C65.4423 22.3229 65.5037 22.2562 65.5623 22.1922C65.621 22.1282 65.6823 22.0642 65.7463 22.0002C65.8157 21.9362 65.885 21.8696 65.9543 21.8002L66.9463 20.8722L67.3383 21.2962L65.0663 23.4402L64.5943 23.0002L65.2503 22.3762L64.9623 22.7202L64.7223 22.9042C64.8023 22.8136 64.869 22.7176 64.9223 22.6162C64.981 22.5096 65.0103 22.3896 65.0103 22.2562C65.0103 22.1229 64.9703 22.0162 64.8903 21.9362C64.8103 21.8562 64.693 21.8162 64.5383 21.8162C64.453 21.8162 64.3703 21.8269 64.2903 21.8482C64.2103 21.8696 64.1277 21.9069 64.0423 21.9602L63.4343 21.3842C63.6477 21.1016 63.8663 20.8562 64.0903 20.6482C64.3143 20.4349 64.549 20.2696 64.7943 20.1522C65.0397 20.0296 65.3037 19.9682 65.5863 19.9682C65.885 19.9682 66.1543 20.0242 66.3943 20.1362C66.6343 20.2482 66.8663 20.4162 67.0903 20.6402C67.3143 20.8589 67.549 21.1362 67.7943 21.4722L67.6503 21.4322C67.6343 21.3042 67.6237 21.1656 67.6183 21.0162C67.613 20.8669 67.6103 20.7069 67.6103 20.5362V19.4962H68.0343L68.2183 20.0242H69.0663ZM71.1929 20.0242V20.5922H70.3529V25.0002H69.7369V21.2482C69.6729 21.0669 69.5769 20.9122 69.4489 20.7842C69.3262 20.6562 69.1662 20.5922 68.9689 20.5922H68.9049V20.0242H69.0249C69.1529 20.0242 69.2862 20.0669 69.4249 20.1522C69.5636 20.2322 69.6756 20.3576 69.7609 20.5282C69.7556 20.5016 69.7502 20.4402 69.7449 20.3442C69.7396 20.2482 69.7369 20.1656 69.7369 20.0962V19.4962H70.1689L70.3449 20.0242H71.1929ZM76.0219 20.0242V20.5922H75.1819V25.0002H74.5659V23.0562L74.6939 23.5042C74.5179 23.2589 74.3259 23.0376 74.1179 22.8402C73.9099 22.6429 73.6966 22.4856 73.4779 22.3682C73.2592 22.2509 73.0459 22.1922 72.8379 22.1922C72.6406 22.1922 72.4726 22.2456 72.3339 22.3522C72.2006 22.4536 72.1339 22.6056 72.1339 22.8082C72.1339 22.9682 72.1899 23.1069 72.3019 23.2242C72.4139 23.3362 72.5872 23.4376 72.8219 23.5282L72.5179 24.0962C72.1926 23.9629 71.9366 23.7842 71.7499 23.5602C71.5686 23.3309 71.4779 23.0722 71.4779 22.7842C71.4779 22.5229 71.5392 22.3069 71.6619 22.1362C71.7899 21.9602 71.9499 21.8296 72.1419 21.7442C72.3392 21.6589 72.5392 21.6162 72.7419 21.6162C73.0192 21.6162 73.2726 21.6642 73.5019 21.7602C73.7312 21.8562 73.9446 21.9869 74.1419 22.1522C74.3446 22.3176 74.5366 22.5096 74.7179 22.7282L74.6059 22.7602C74.5899 22.6376 74.5792 22.5176 74.5739 22.4002C74.5686 22.2776 74.5659 22.1549 74.5659 22.0322V20.5922H71.0299V20.0242H76.0219Z" fill="white"/>
<path d="M40.1495 8.55998C40.1495 8.30366 40.2418 8.0986 40.4264 7.92429C40.6111 7.74999 40.8264 7.66797 41.0828 7.66797C41.3495 7.66797 41.5752 7.76025 41.7495 7.93455C41.9239 8.10885 42.0162 8.32416 42.0162 8.55998C42.0162 8.80605 41.9239 9.02137 41.7393 9.18542C41.5546 9.35972 41.3393 9.44174 41.0726 9.44174C40.8059 9.44174 40.5905 9.35972 40.4059 9.18542C40.2418 9.01112 40.1495 8.80605 40.1495 8.55998ZM41.8418 16.947H40.3136V10.4363H41.8418V16.947Z" fill="white"/>
<path d="M46.4979 15.8338C46.7235 15.8338 46.9799 15.7825 47.2568 15.68C47.5338 15.5774 47.7799 15.4339 48.0158 15.2596V16.6848C47.7697 16.8283 47.4927 16.9308 47.185 17.0026C46.8773 17.0744 46.5286 17.1154 46.1594 17.1154C45.2055 17.1154 44.4261 16.8078 43.8209 16.2029C43.2158 15.5979 42.9184 14.8187 42.9184 13.8857C42.9184 12.8399 43.226 11.9786 43.8414 11.3019C44.4568 10.6252 45.3184 10.2869 46.4466 10.2869C46.7338 10.2869 47.0209 10.3279 47.3184 10.3996C47.6158 10.4714 47.8415 10.5637 48.0158 10.656V12.1222C47.7799 11.9479 47.5338 11.8146 47.2876 11.7223C47.0414 11.63 46.785 11.5787 46.5286 11.5787C45.9235 11.5787 45.4414 11.7736 45.062 12.1632C44.6927 12.5528 44.5081 13.0859 44.5081 13.7524C44.5081 14.4086 44.6825 14.9212 45.0414 15.2903C45.4004 15.6595 45.8825 15.8338 46.4979 15.8338Z" fill="white"/>
<path d="M52.3737 10.3369C52.4968 10.3369 52.6096 10.3472 52.7019 10.3574C52.7942 10.3779 52.8866 10.3984 52.9481 10.4189V11.9671C52.866 11.9056 52.7532 11.8544 52.5994 11.8031C52.4455 11.7518 52.2609 11.7211 52.0353 11.7211C51.6558 11.7211 51.3378 11.8749 51.0814 12.1927C50.825 12.5106 50.6917 12.9924 50.6917 13.6589V16.9501H49.1635V10.4394H50.6917V11.4647H50.7122C50.8558 11.1059 51.0609 10.8291 51.3481 10.6343C51.6353 10.4394 51.9737 10.3369 52.3737 10.3369Z" fill="white"/>
<path d="M53.0304 13.7934C53.0304 12.7168 53.3381 11.8658 53.9432 11.2301C54.5483 10.6047 55.3996 10.2869 56.4765 10.2869C57.4919 10.2869 58.2919 10.5945 58.8663 11.1994C59.4406 11.8043 59.7278 12.6246 59.7278 13.6499C59.7278 14.7059 59.4201 15.5467 58.815 16.1721C58.2099 16.7975 57.3791 17.1051 56.3329 17.1051C55.3278 17.1051 54.5176 16.8078 53.9329 16.2131C53.3278 15.6287 53.0304 14.8187 53.0304 13.7934ZM54.6304 13.7421C54.6304 14.4188 54.7842 14.9417 55.0919 15.3006C55.3996 15.6594 55.8406 15.8338 56.415 15.8338C56.9688 15.8338 57.3996 15.6594 57.6868 15.3006C57.974 14.9417 58.1278 14.4086 58.1278 13.7011C58.1278 13.0039 57.974 12.4708 57.6765 12.1119C57.3791 11.753 56.9483 11.5787 56.4047 11.5787C55.8406 11.5787 55.4099 11.7633 55.0919 12.1427C54.7842 12.522 54.6304 13.0449 54.6304 13.7421Z" fill="white"/>
<path d="M62.0043 12.1532C62.0043 12.3685 62.0761 12.5428 62.2095 12.6658C62.353 12.7889 62.6607 12.9426 63.1325 13.1375C63.7479 13.3835 64.1787 13.6604 64.4248 13.968C64.671 14.2755 64.7941 14.6447 64.7941 15.0753C64.7941 15.6905 64.5582 16.1826 64.0864 16.5517C63.6146 16.9208 62.9787 17.1054 62.1787 17.1054C61.912 17.1054 61.6146 17.0746 61.2864 17.0029C60.9582 16.9413 60.6812 16.8491 60.4556 16.7568V15.2496C60.7325 15.4444 61.03 15.5982 61.3582 15.711C61.6761 15.8238 61.9736 15.8853 62.23 15.8853C62.5787 15.8853 62.8351 15.834 62.9992 15.7417C63.1633 15.6495 63.2453 15.4854 63.2453 15.2496C63.2453 15.0343 63.1633 14.86 62.9889 14.7164C62.8146 14.5729 62.4966 14.3986 62.0146 14.214C61.4505 13.9782 61.0505 13.7116 60.8146 13.4143C60.5787 13.1169 60.4556 12.7376 60.4556 12.2865C60.4556 11.702 60.6915 11.2201 61.153 10.8408C61.6146 10.4614 62.2197 10.2769 62.9684 10.2769C63.1941 10.2769 63.4505 10.2974 63.7377 10.3486C64.0248 10.3999 64.2607 10.4614 64.4453 10.5434V11.9994C64.2402 11.8661 64.0043 11.7533 63.7377 11.6508C63.471 11.5585 63.1941 11.5072 62.9377 11.5072C62.6505 11.5072 62.4146 11.5687 62.2607 11.6815C62.0864 11.7943 62.0043 11.9584 62.0043 12.1532Z" fill="white"/>
<path d="M65.4704 13.7934C65.4704 12.7168 65.778 11.8658 66.3832 11.2301C66.9883 10.6047 67.8396 10.2869 68.9165 10.2869C69.9319 10.2869 70.7319 10.5945 71.3063 11.1994C71.8806 11.8043 72.1678 12.6246 72.1678 13.6499C72.1678 14.7059 71.8601 15.5467 71.255 16.1721C70.6498 16.7975 69.8191 17.1051 68.7729 17.1051C67.7678 17.1051 66.9575 16.8078 66.3729 16.2131C65.7678 15.6287 65.4704 14.8187 65.4704 13.7934ZM67.0601 13.7421C67.0601 14.4188 67.2139 14.9417 67.5216 15.3006C67.8293 15.6595 68.2704 15.8338 68.8447 15.8338C69.3986 15.8338 69.8293 15.6595 70.1165 15.3006C70.4037 14.9417 70.5575 14.4086 70.5575 13.7011C70.5575 13.0039 70.4037 12.4708 70.1063 12.1119C69.8088 11.753 69.3781 11.5787 68.8345 11.5787C68.2704 11.5787 67.8396 11.7633 67.5216 12.1427C67.2139 12.522 67.0601 13.0449 67.0601 13.7421Z" fill="white"/>
<path d="M77.224 11.6988V15.0413C77.224 15.7385 77.3881 16.2512 77.706 16.5998C78.024 16.9484 78.5163 17.1124 79.1624 17.1124C79.3778 17.1124 79.6035 17.0919 79.8291 17.0407C80.0547 16.9894 80.2188 16.9484 80.3112 16.8869V15.6155C80.2188 15.677 80.106 15.7283 79.983 15.7693C79.8599 15.8103 79.747 15.8308 79.665 15.8308C79.3573 15.8308 79.1214 15.7488 78.9778 15.5847C78.8342 15.4207 78.7624 15.1336 78.7624 14.7337V11.6886H80.3214V10.4377H78.7727V8.51014L77.2342 8.98178V10.448H74.947V9.65848C74.947 9.26887 75.0291 8.97153 75.2035 8.76647C75.3778 8.56141 75.624 8.46913 75.9419 8.46913C76.106 8.46913 76.2496 8.48964 76.3829 8.53065C76.506 8.57166 76.5983 8.61267 76.6496 8.64343V7.32079C76.5368 7.27978 76.4137 7.25927 76.2701 7.23877C76.1265 7.21826 75.9624 7.20801 75.7778 7.20801C75.0804 7.20801 74.506 7.42332 74.065 7.8642C73.624 8.30508 73.3983 8.85875 73.3983 9.5457V10.448H72.3112V11.6988H73.3983V16.9586H74.947V11.6988H77.224V11.6988Z" fill="white"/>
<path d="M38.8373 7.86768V16.9519H37.2578V9.83626H37.2373L34.4168 16.9519H33.3707L30.4783 9.83626H30.4578V16.9519H29.0014V7.86768H31.2578L33.8732 14.6039H33.9142L36.6732 7.86768H38.8373Z" fill="white"/>
<rect x="0.5" y="0.5" width="86.9975" height="31" rx="3.5" stroke="black"/>
</svg>
