<svg width="116" height="34" viewBox="0 0 116 34" fill="none" xmlns="http://www.w3.org/2000/svg">
<rect x="1" y="1" width="114" height="32" rx="4" fill="#202020"/>
<rect x="0.5" y="0.5" width="115" height="33" rx="4.5" stroke="black" stroke-opacity="0.1"/>
<g clip-path="url(#clip0_963_7225)">
<g clip-path="url(#clip1_963_7225)">
<path d="M8.28125 11C8.28125 10.5858 8.61704 10.25 9.03125 10.25H24.9687C25.383 10.25 25.7188 10.5858 25.7188 11V22.3438C25.7188 24.0524 24.3336 25.4375 22.625 25.4375H11.375C9.66637 25.4375 8.28125 24.0524 8.28125 22.3438V11Z" fill="url(#paint0_linear_963_7225)"/>
<mask id="mask0_963_7225" style="mask-type:alpha" maskUnits="userSpaceOnUse" x="8" y="10" width="18" height="16">
<path d="M8.28125 11C8.28125 10.5858 8.61704 10.25 9.03125 10.25H24.9687C25.383 10.25 25.7188 10.5858 25.7188 11V22.3438C25.7188 24.0524 24.3336 25.4375 22.625 25.4375H11.375C9.66637 25.4375 8.28125 24.0524 8.28125 22.3438V11Z" fill="url(#paint1_linear_963_7225)"/>
</mask>
<g mask="url(#mask0_963_7225)">
<g filter="url(#filter0_dd_963_7225)">
<path d="M12.7812 10.8125V8.5625H21.2187V10.8125" stroke="url(#paint2_linear_963_7225)" stroke-width="1.125" stroke-linecap="round"/>
</g>
</g>
<g filter="url(#filter1_dd_963_7225)">
<path d="M16.719 14.1875H13.344V17.5625H16.719V14.1875Z" fill="#F25022"/>
<path d="M20.6562 14.1875H17.2812V17.5625H20.6562V14.1875Z" fill="#7FBA00"/>
<path d="M20.6562 18.125H17.2812V21.5H20.6562V18.125Z" fill="#FFB900"/>
<path d="M16.7188 18.125H13.3438V21.5H16.7188V18.125Z" fill="#00A4EF"/>
</g>
<path d="M12.7812 10.8125V9.125C12.7812 8.81434 13.0331 8.5625 13.3438 8.5625H20.6563C20.9669 8.5625 21.2188 8.81434 21.2188 9.125V10.8125" stroke="url(#paint3_linear_963_7225)" stroke-width="1.125" stroke-linecap="round"/>
<rect x="13.3438" y="8" width="7.3125" height="1.125" fill="url(#paint4_linear_963_7225)"/>
<mask id="mask1_963_7225" style="mask-type:alpha" maskUnits="userSpaceOnUse" x="13" y="8" width="8" height="2">
<rect x="13.3438" y="8" width="7.3125" height="1.125" fill="url(#paint5_linear_963_7225)"/>
</mask>
<g mask="url(#mask1_963_7225)">
<g filter="url(#filter2_dd_963_7225)">
<rect x="11.7189" y="8.56277" width="1.625" height="2.8125" fill="#C4C4C4"/>
</g>
</g>
</g>
</g>
<path d="M30.6426 13V8.09863H31.9961C32.8597 8.09863 33.5068 8.29801 33.9375 8.69678C34.3704 9.09326 34.5869 9.69027 34.5869 10.4878C34.5869 11.2443 34.3465 11.8527 33.8657 12.313C33.3872 12.771 32.7458 13 31.9414 13H30.6426ZM31.2168 8.61816V12.4805H31.9482C32.5908 12.4805 33.091 12.3084 33.4487 11.9644C33.8065 11.6203 33.9854 11.1326 33.9854 10.5015C33.9854 9.87256 33.8179 9.40202 33.4829 9.08984C33.1502 8.77539 32.6501 8.61816 31.9824 8.61816H31.2168ZM38.2886 11.3765H35.814C35.8231 11.7707 35.9268 12.0749 36.125 12.2891C36.3255 12.501 36.6058 12.6069 36.9658 12.6069C37.123 12.6069 37.2803 12.5841 37.4375 12.5386C37.597 12.4907 37.7542 12.4155 37.9092 12.313L38.1689 12.7129C37.9707 12.8405 37.7725 12.9339 37.5742 12.9932C37.376 13.0524 37.1584 13.082 36.9214 13.082C36.3927 13.082 35.9803 12.9248 35.6841 12.6104C35.3879 12.2959 35.2386 11.8573 35.2363 11.2944C35.234 10.7316 35.3822 10.2782 35.6807 9.93408C35.9814 9.59001 36.3711 9.41797 36.8496 9.41797C37.3053 9.41797 37.6585 9.56722 37.9092 9.86572C38.1621 10.1619 38.2886 10.5732 38.2886 11.0996V11.3765ZM37.7144 10.9185C37.7121 10.5949 37.6335 10.3431 37.4785 10.1631C37.3236 9.98079 37.1105 9.88965 36.8394 9.88965C36.5728 9.88965 36.346 9.98307 36.1592 10.1699C35.9746 10.3545 35.8618 10.604 35.8208 10.9185H37.7144ZM38.8115 12.7368L39.0781 12.3062C39.2308 12.4064 39.38 12.4827 39.5259 12.5352C39.6717 12.5853 39.8289 12.6104 39.9976 12.6104C40.2368 12.6104 40.418 12.5659 40.541 12.4771C40.6663 12.3882 40.729 12.2549 40.729 12.0771C40.729 11.9336 40.6732 11.8128 40.5615 11.7148C40.4521 11.6146 40.2801 11.5348 40.0454 11.4756C39.6079 11.3639 39.3083 11.2238 39.1465 11.0552C38.9847 10.8843 38.9038 10.6746 38.9038 10.4263C38.9038 10.1392 39.012 9.8999 39.2285 9.7085C39.445 9.51481 39.7469 9.41797 40.1343 9.41797C40.3211 9.41797 40.4989 9.44189 40.6675 9.48975C40.8361 9.5376 41.0081 9.61963 41.1836 9.73584L40.9341 10.1597C40.7746 10.0594 40.631 9.98991 40.5034 9.95117C40.3781 9.91016 40.2505 9.88965 40.1206 9.88965C39.895 9.88965 39.723 9.9318 39.6045 10.0161C39.486 10.0981 39.4268 10.2178 39.4268 10.375C39.4268 10.5322 39.4871 10.6507 39.6079 10.7305C39.731 10.8102 39.9281 10.8854 40.1992 10.9561C40.5547 11.0518 40.8201 11.1862 40.9956 11.3594C41.1733 11.5303 41.2622 11.7547 41.2622 12.0327C41.2622 12.3563 41.1471 12.6126 40.917 12.8018C40.6891 12.9886 40.3758 13.082 39.9771 13.082C39.7629 13.082 39.5566 13.0524 39.3584 12.9932C39.1624 12.9339 38.9801 12.8485 38.8115 12.7368ZM44.5742 12.7915C44.4124 12.8918 44.2507 12.9647 44.0889 13.0103C43.9271 13.0581 43.7505 13.082 43.5591 13.082C43.0669 13.082 42.6624 12.9294 42.3457 12.624C42.0312 12.3187 41.874 11.8857 41.874 11.3252C41.874 10.7555 42.0324 10.2952 42.3491 9.94434C42.6681 9.59342 43.1056 9.41797 43.6616 9.41797C43.8416 9.41797 44.0125 9.43962 44.1743 9.48291C44.3384 9.5262 44.5036 9.59684 44.6699 9.69482L44.4341 10.105C44.3042 10.0321 44.1766 9.97852 44.0513 9.94434C43.9259 9.91016 43.7892 9.89307 43.6411 9.89307C43.256 9.89307 42.9609 10.0218 42.7559 10.2793C42.5508 10.5368 42.4482 10.8638 42.4482 11.2603C42.4482 11.6978 42.5553 12.0316 42.7695 12.2617C42.986 12.4919 43.2651 12.6069 43.6069 12.6069C43.7186 12.6069 43.8348 12.5898 43.9556 12.5557C44.0786 12.5192 44.2017 12.4634 44.3247 12.3882L44.5742 12.7915ZM47.8247 13H47.2642V12.4531H47.2505C47.1297 12.6628 46.9805 12.82 46.8027 12.9248C46.6273 13.0296 46.4222 13.082 46.1875 13.082C45.8594 13.082 45.5939 12.9863 45.3911 12.7949C45.1883 12.6035 45.0869 12.3494 45.0869 12.0327C45.0869 11.7342 45.1895 11.487 45.3945 11.291C45.5996 11.0951 45.8901 10.9697 46.2661 10.915L47.2642 10.7817V10.7031C47.2642 10.4092 47.1958 10.2007 47.0591 10.0776C46.9224 9.95231 46.7401 9.88965 46.5122 9.88965C46.3299 9.88965 46.1545 9.92383 45.9858 9.99219C45.8172 10.0605 45.6589 10.1654 45.5107 10.3066L45.1826 9.96826C45.3786 9.77913 45.5871 9.64014 45.8081 9.55127C46.0291 9.4624 46.2752 9.41797 46.5464 9.41797C46.9702 9.41797 47.2892 9.52734 47.5034 9.74609C47.7176 9.96257 47.8247 10.2884 47.8247 10.7236V13ZM47.2642 11.5781V11.2295L46.4199 11.3457C46.1624 11.3822 45.9688 11.4471 45.8389 11.5405C45.709 11.634 45.644 11.7809 45.644 11.9814C45.644 12.1911 45.7044 12.3517 45.8252 12.4634C45.9482 12.5728 46.0975 12.6274 46.2729 12.6274C46.576 12.6274 46.8164 12.5283 46.9941 12.3301C47.1742 12.1318 47.2642 11.8812 47.2642 11.5781ZM50.6343 9.97852C50.591 9.96484 50.5522 9.95573 50.5181 9.95117C50.4839 9.94434 50.4406 9.94092 50.3882 9.94092C50.1034 9.94092 49.8789 10.0628 49.7148 10.3066C49.5508 10.5482 49.4688 10.8512 49.4688 11.2158V13H48.9082V9.5H49.4688V10.1938H49.4824C49.5622 9.94775 49.6841 9.7609 49.8481 9.6333C50.0122 9.50342 50.2013 9.43848 50.4155 9.43848C50.4862 9.43848 50.5454 9.44189 50.5933 9.44873C50.6434 9.45557 50.6878 9.46582 50.7266 9.47949L50.6343 9.97852ZM53.0679 9.97852C53.0246 9.96484 52.9858 9.95573 52.9517 9.95117C52.9175 9.94434 52.8742 9.94092 52.8218 9.94092C52.5369 9.94092 52.3125 10.0628 52.1484 10.3066C51.9844 10.5482 51.9023 10.8512 51.9023 11.2158V13H51.3418V9.5H51.9023V10.1938H51.916C51.9958 9.94775 52.1177 9.7609 52.2817 9.6333C52.4458 9.50342 52.6349 9.43848 52.8491 9.43848C52.9198 9.43848 52.979 9.44189 53.0269 9.44873C53.077 9.45557 53.1214 9.46582 53.1602 9.47949L53.0679 9.97852ZM56.5884 11.3765H54.1138C54.1229 11.7707 54.2266 12.0749 54.4248 12.2891C54.6253 12.501 54.9056 12.6069 55.2656 12.6069C55.4229 12.6069 55.5801 12.5841 55.7373 12.5386C55.8968 12.4907 56.054 12.4155 56.209 12.313L56.4688 12.7129C56.2705 12.8405 56.0723 12.9339 55.874 12.9932C55.6758 13.0524 55.4582 13.082 55.2212 13.082C54.6925 13.082 54.2801 12.9248 53.9839 12.6104C53.6877 12.2959 53.5384 11.8573 53.5361 11.2944C53.5339 10.7316 53.682 10.2782 53.9805 9.93408C54.2812 9.59001 54.6709 9.41797 55.1494 9.41797C55.6051 9.41797 55.9583 9.56722 56.209 9.86572C56.4619 10.1619 56.5884 10.5732 56.5884 11.0996V11.3765ZM56.0142 10.9185C56.0119 10.5949 55.9333 10.3431 55.7783 10.1631C55.6234 9.98079 55.4103 9.88965 55.1392 9.88965C54.8726 9.88965 54.6458 9.98307 54.459 10.1699C54.2744 10.3545 54.1616 10.604 54.1206 10.9185H56.0142ZM60.4268 12.812C60.4268 13.425 60.2695 13.8841 59.9551 14.1895C59.6429 14.4948 59.2145 14.6475 58.6699 14.6475C58.4307 14.6475 58.2074 14.6247 58 14.5791C57.7949 14.5335 57.583 14.4595 57.3643 14.3569L57.5693 13.9263C57.7516 14.0106 57.9294 14.0721 58.1025 14.1108C58.278 14.1496 58.4648 14.1689 58.6631 14.1689C59.0368 14.1689 59.3307 14.063 59.5449 13.8511C59.7591 13.6392 59.8662 13.3179 59.8662 12.8872V12.4121H59.8525C59.7204 12.6354 59.554 12.8029 59.3535 12.9146C59.153 13.0262 58.9183 13.082 58.6494 13.082C58.2142 13.082 57.8633 12.9271 57.5967 12.6172C57.3324 12.305 57.2002 11.8869 57.2002 11.3628C57.2002 10.7886 57.346 10.3215 57.6377 9.96143C57.9316 9.59912 58.3201 9.41797 58.8032 9.41797C59.0402 9.41797 59.2453 9.46582 59.4185 9.56152C59.5939 9.65495 59.7386 9.79622 59.8525 9.98535H59.8662V9.5H60.4268V12.812ZM59.8662 11.4175V10.9014C59.8662 10.6234 59.7716 10.3853 59.5825 10.187C59.3957 9.98877 59.1621 9.88965 58.8818 9.88965C58.5378 9.88965 58.2666 10.0081 58.0684 10.2451C57.8724 10.4821 57.7744 10.8421 57.7744 11.3252C57.7744 11.7399 57.8656 12.0578 58.0479 12.2788C58.2301 12.4998 58.4819 12.6104 58.8032 12.6104C59.1177 12.6104 59.3729 12.4987 59.5688 12.2754C59.7671 12.0521 59.8662 11.7661 59.8662 11.4175ZM64.0396 13H63.479V12.4531H63.4653C63.3446 12.6628 63.1953 12.82 63.0176 12.9248C62.8421 13.0296 62.637 13.082 62.4023 13.082C62.0742 13.082 61.8088 12.9863 61.606 12.7949C61.4032 12.6035 61.3018 12.3494 61.3018 12.0327C61.3018 11.7342 61.4043 11.487 61.6094 11.291C61.8145 11.0951 62.105 10.9697 62.481 10.915L63.479 10.7817V10.7031C63.479 10.4092 63.4106 10.2007 63.2739 10.0776C63.1372 9.95231 62.9549 9.88965 62.7271 9.88965C62.5448 9.88965 62.3693 9.92383 62.2007 9.99219C62.0321 10.0605 61.8737 10.1654 61.7256 10.3066L61.3975 9.96826C61.5934 9.77913 61.8019 9.64014 62.0229 9.55127C62.244 9.4624 62.4901 9.41797 62.7612 9.41797C63.1851 9.41797 63.5041 9.52734 63.7183 9.74609C63.9325 9.96257 64.0396 10.2884 64.0396 10.7236V13ZM63.479 11.5781V11.2295L62.6348 11.3457C62.3773 11.3822 62.1836 11.4471 62.0537 11.5405C61.9238 11.634 61.8589 11.7809 61.8589 11.9814C61.8589 12.1911 61.9193 12.3517 62.04 12.4634C62.1631 12.5728 62.3123 12.6274 62.4878 12.6274C62.7909 12.6274 63.0312 12.5283 63.209 12.3301C63.389 12.1318 63.479 11.8812 63.479 11.5781ZM69.457 12.4053C69.3271 12.6309 69.1619 12.8006 68.9614 12.9146C68.7632 13.0262 68.5273 13.082 68.2539 13.082C67.8141 13.082 67.4621 12.9259 67.1978 12.6138C66.9357 12.2993 66.8047 11.8721 66.8047 11.332C66.8047 10.7533 66.9505 10.2896 67.2422 9.94092C67.5339 9.59229 67.9224 9.41797 68.4077 9.41797C68.6493 9.41797 68.8566 9.46582 69.0298 9.56152C69.2052 9.65495 69.3477 9.79622 69.457 9.98535H69.4707V7.81836H70.0312V13H69.4707V12.4053H69.457ZM67.3789 11.3047C67.3789 11.708 67.4723 12.027 67.6592 12.2617C67.8483 12.4941 68.1012 12.6104 68.418 12.6104C68.7324 12.6104 68.9865 12.4976 69.1802 12.272C69.3739 12.0464 69.4707 11.7616 69.4707 11.4175V10.9014C69.4707 10.6188 69.3761 10.3796 69.187 10.1836C69.0002 9.98763 68.7643 9.88965 68.4795 9.88965C68.1377 9.88965 67.8688 10.015 67.6729 10.2656C67.4769 10.5163 67.3789 10.8626 67.3789 11.3047ZM73.979 11.3765H71.5044C71.5135 11.7707 71.6172 12.0749 71.8154 12.2891C72.016 12.501 72.2962 12.6069 72.6562 12.6069C72.8135 12.6069 72.9707 12.5841 73.1279 12.5386C73.2874 12.4907 73.4447 12.4155 73.5996 12.313L73.8594 12.7129C73.6611 12.8405 73.4629 12.9339 73.2646 12.9932C73.0664 13.0524 72.8488 13.082 72.6118 13.082C72.0832 13.082 71.6707 12.9248 71.3745 12.6104C71.0783 12.2959 70.929 11.8573 70.9268 11.2944C70.9245 10.7316 71.0726 10.2782 71.3711 9.93408C71.6719 9.59001 72.0615 9.41797 72.54 9.41797C72.9958 9.41797 73.349 9.56722 73.5996 9.86572C73.8525 10.1619 73.979 10.5732 73.979 11.0996V11.3765ZM73.4048 10.9185C73.4025 10.5949 73.3239 10.3431 73.1689 10.1631C73.014 9.98079 72.8009 9.88965 72.5298 9.88965C72.2632 9.88965 72.0365 9.98307 71.8496 10.1699C71.665 10.3545 71.5522 10.604 71.5112 10.9185H73.4048ZM74.8301 13V7.81836H75.3906V13H74.8301Z" fill="white" fill-opacity="0.786"/>
<path d="M39.2275 25H37.96V20.0854C37.96 19.8634 37.9653 19.6217 37.9761 19.3604C37.9904 19.0954 38.0083 18.8143 38.0298 18.5171H37.9976C37.9546 18.7212 37.9134 18.8966 37.874 19.0435C37.8382 19.1867 37.8024 19.3013 37.7666 19.3872L35.5054 25H34.6245L32.3525 19.4355C32.3239 19.3568 32.2881 19.2404 32.2451 19.0864C32.2057 18.9325 32.1628 18.7427 32.1162 18.5171H32.084C32.1055 18.7749 32.1198 19.0488 32.127 19.3389C32.1341 19.6253 32.1377 19.9279 32.1377 20.2466V25H30.9561V17.2979H32.7607L34.7642 22.3037C34.8429 22.4935 34.9074 22.6689 34.9575 22.8301C35.0112 22.9876 35.0524 23.1344 35.0811 23.2705H35.1133C35.1777 23.0664 35.2386 22.882 35.2959 22.7173C35.3532 22.5526 35.4069 22.4093 35.457 22.2876L37.4873 17.2979H39.2275V25ZM41.6177 18.4365C41.3885 18.4365 41.1987 18.3631 41.0483 18.2163C40.8979 18.0695 40.8228 17.8887 40.8228 17.6738C40.8228 17.4518 40.8979 17.2692 41.0483 17.126C41.1987 16.9827 41.3885 16.9111 41.6177 16.9111C41.8504 16.9111 42.042 16.9827 42.1924 17.126C42.3428 17.2692 42.418 17.4518 42.418 17.6738C42.418 17.8923 42.3428 18.0749 42.1924 18.2217C42.042 18.3649 41.8504 18.4365 41.6177 18.4365ZM42.2354 25H40.9839V19.5H42.2354V25ZM47.9824 24.6616C47.7103 24.8263 47.4399 24.9445 47.1714 25.0161C46.9028 25.0913 46.611 25.1289 46.2959 25.1289C45.4508 25.1289 44.7741 24.8818 44.2656 24.3877C43.7607 23.8936 43.5083 23.2222 43.5083 22.3735C43.5083 21.4604 43.7697 20.7318 44.2925 20.1875C44.8188 19.6432 45.5278 19.3711 46.4194 19.3711C46.731 19.3711 47.0138 19.4051 47.2681 19.4731C47.5259 19.5376 47.7873 19.645 48.0522 19.7954L47.5635 20.6655C47.3773 20.5617 47.1947 20.4865 47.0156 20.4399C46.8366 20.3898 46.6414 20.3647 46.4302 20.3647C45.9038 20.3647 45.4974 20.5384 45.2109 20.8857C44.9245 21.2331 44.7812 21.6932 44.7812 22.2661C44.7812 22.8677 44.9352 23.3296 45.2432 23.6519C45.5547 23.9741 45.945 24.1353 46.4141 24.1353C46.5573 24.1353 46.722 24.1102 46.9082 24.0601C47.0944 24.0063 47.2824 23.9222 47.4722 23.8076L47.9824 24.6616ZM52.1021 20.5474C52.034 20.5295 51.9678 20.5169 51.9033 20.5098C51.8424 20.499 51.7708 20.4937 51.6885 20.4937C51.2409 20.4937 50.8971 20.6584 50.6572 20.9878C50.4173 21.3172 50.2974 21.7469 50.2974 22.2769V25H49.0459V19.5H50.2974V20.5581H50.3188C50.4478 20.1785 50.6375 19.8921 50.8882 19.6987C51.1388 19.5018 51.4342 19.4033 51.7744 19.4033C51.8711 19.4033 51.957 19.4087 52.0322 19.4194C52.111 19.4302 52.1862 19.4463 52.2578 19.4678L52.1021 20.5474ZM55.5557 25.1289C54.6963 25.1289 54.0142 24.8729 53.5093 24.3608C53.008 23.8452 52.7573 23.1559 52.7573 22.293C52.7609 21.3799 53.0223 20.6655 53.5415 20.1499C54.0607 19.6307 54.7679 19.3711 55.6631 19.3711C56.526 19.3675 57.1992 19.6217 57.6826 20.1338C58.1696 20.6423 58.4131 21.3315 58.4131 22.2017C58.4131 23.0968 58.1553 23.8094 57.6396 24.3394C57.1276 24.8657 56.4329 25.1289 55.5557 25.1289ZM55.6147 24.1353C56.1125 24.1353 56.4902 23.9723 56.748 23.6465C57.0094 23.3206 57.1401 22.8498 57.1401 22.2339C57.1401 21.6252 57.0094 21.1615 56.748 20.8428C56.4867 20.5241 56.1071 20.3647 55.6094 20.3647C55.1188 20.3647 54.7321 20.533 54.4492 20.8696C54.1699 21.2062 54.0303 21.6717 54.0303 22.2661C54.0303 22.8641 54.1699 23.326 54.4492 23.6519C54.7285 23.9741 55.117 24.1353 55.6147 24.1353ZM59.1543 24.5596L59.6968 23.6787C59.9116 23.8291 60.139 23.9508 60.3789 24.0439C60.6224 24.1335 60.8856 24.1782 61.1685 24.1782C61.4764 24.1782 61.7145 24.1227 61.8828 24.0117C62.0547 23.8971 62.1406 23.7271 62.1406 23.5015C62.1406 23.3224 62.069 23.1738 61.9258 23.0557C61.7861 22.9339 61.5462 22.8337 61.2061 22.7549C60.5186 22.5938 60.0352 22.3807 59.7559 22.1157C59.4801 21.8507 59.3423 21.5016 59.3423 21.0684C59.3423 20.5706 59.5356 20.1642 59.9224 19.8491C60.3091 19.5304 60.8158 19.3711 61.4424 19.3711C61.7539 19.3711 62.0511 19.4123 62.334 19.4946C62.6169 19.5734 62.8926 19.7005 63.1611 19.876L62.6562 20.7354C62.4199 20.585 62.2033 20.4775 62.0063 20.4131C61.8094 20.3486 61.6071 20.3164 61.3994 20.3164C61.1058 20.3164 60.8766 20.3719 60.7119 20.4829C60.5508 20.5903 60.4702 20.7407 60.4702 20.9341C60.4702 21.1382 60.5526 21.2904 60.7173 21.3906C60.8856 21.4873 61.1667 21.5822 61.5605 21.6753C62.1549 21.8185 62.59 22.0262 62.8657 22.2983C63.1414 22.5669 63.2793 22.9268 63.2793 23.3779C63.2793 23.9115 63.0841 24.3376 62.6938 24.6562C62.3071 24.9714 61.7826 25.1289 61.1201 25.1289C60.762 25.1289 60.4183 25.0824 60.0889 24.9893C59.763 24.8926 59.4515 24.7493 59.1543 24.5596ZM66.8779 25.1289C66.0186 25.1289 65.3364 24.8729 64.8315 24.3608C64.3302 23.8452 64.0796 23.1559 64.0796 22.293C64.0832 21.3799 64.3446 20.6655 64.8638 20.1499C65.383 19.6307 66.0902 19.3711 66.9854 19.3711C67.8483 19.3675 68.5215 19.6217 69.0049 20.1338C69.4919 20.6423 69.7354 21.3315 69.7354 22.2017C69.7354 23.0968 69.4775 23.8094 68.9619 24.3394C68.4499 24.8657 67.7552 25.1289 66.8779 25.1289ZM66.937 24.1353C67.4347 24.1353 67.8125 23.9723 68.0703 23.6465C68.3317 23.3206 68.4624 22.8498 68.4624 22.2339C68.4624 21.6252 68.3317 21.1615 68.0703 20.8428C67.8089 20.5241 67.4294 20.3647 66.9316 20.3647C66.4411 20.3647 66.0544 20.533 65.7715 20.8696C65.4922 21.2062 65.3525 21.6717 65.3525 22.2661C65.3525 22.8641 65.4922 23.326 65.7715 23.6519C66.0508 23.9741 66.4393 24.1353 66.937 24.1353ZM73.9839 17.8403C73.8836 17.8009 73.7923 17.7741 73.71 17.7598C73.6276 17.7419 73.5381 17.7329 73.4414 17.7329C73.1764 17.7329 72.9759 17.8099 72.8398 17.9639C72.7074 18.1143 72.6411 18.3327 72.6411 18.6191V19.5H73.9141V20.4775H72.6411V25H71.395V20.4775H70.4604V19.5H71.395V18.5547C71.395 17.9961 71.5741 17.5539 71.9321 17.228C72.2938 16.8986 72.7718 16.7339 73.3662 16.7339C73.5524 16.7339 73.7135 16.7464 73.8496 16.7715C73.9857 16.7965 74.1271 16.8324 74.2739 16.8789L73.9839 17.8403ZM77.7974 24.9248C77.6362 24.9928 77.4679 25.043 77.2925 25.0752C77.117 25.1074 76.929 25.1235 76.7285 25.1235C76.2201 25.1235 75.828 24.9893 75.5522 24.7207C75.2801 24.4486 75.144 24.0439 75.144 23.5068V20.4775H74.2202V19.5H75.144V18.1626L76.3901 17.7866V19.5H77.7061V20.4775H76.3901V23.4048C76.3901 23.6733 76.4385 23.8667 76.5352 23.9849C76.6354 24.103 76.7894 24.1621 76.9971 24.1621C77.0973 24.1621 77.1922 24.1514 77.2817 24.1299C77.3748 24.1048 77.4572 24.0744 77.5288 24.0386L77.7974 24.9248ZM81.2939 24.4468L81.8633 23.4639C82.2106 23.6787 82.5347 23.8309 82.8354 23.9204C83.1362 24.0063 83.4728 24.0493 83.8452 24.0493C84.2892 24.0493 84.6383 23.9544 84.8926 23.7646C85.1504 23.5713 85.2793 23.2956 85.2793 22.9375C85.2793 22.6117 85.1719 22.3556 84.957 22.1694C84.7458 21.9797 84.3859 21.806 83.8774 21.6484C83.0933 21.4157 82.5168 21.1274 82.1479 20.7837C81.7791 20.4399 81.5947 19.9744 81.5947 19.3872C81.5947 18.7498 81.8328 18.2217 82.3091 17.8027C82.7853 17.3802 83.4316 17.1689 84.248 17.1689C84.6061 17.1689 84.9588 17.2083 85.3062 17.2871C85.6535 17.3659 85.9972 17.4876 86.3374 17.6523L85.8594 18.6729C85.5622 18.5189 85.2775 18.4097 85.0054 18.3452C84.7368 18.2808 84.4629 18.2485 84.1836 18.2485C83.7754 18.2485 83.4531 18.3381 83.2168 18.5171C82.984 18.6961 82.8677 18.9486 82.8677 19.2744C82.8677 19.5645 82.9751 19.7936 83.1899 19.9619C83.4048 20.1266 83.7736 20.2896 84.2964 20.4507C85.0985 20.6906 85.675 20.9896 86.0259 21.3477C86.3804 21.7057 86.5576 22.1981 86.5576 22.8247C86.5576 23.4979 86.3177 24.0511 85.8379 24.4844C85.3581 24.9141 84.6742 25.1289 83.7861 25.1289C83.3421 25.1289 82.9089 25.0734 82.4863 24.9624C82.0638 24.8478 81.6663 24.6759 81.2939 24.4468ZM90.4409 24.9248C90.2798 24.9928 90.1115 25.043 89.936 25.0752C89.7606 25.1074 89.5726 25.1235 89.3721 25.1235C88.8636 25.1235 88.4715 24.9893 88.1958 24.7207C87.9237 24.4486 87.7876 24.0439 87.7876 23.5068V20.4775H86.8638V19.5H87.7876V18.1626L89.0337 17.7866V19.5H90.3496V20.4775H89.0337V23.4048C89.0337 23.6733 89.082 23.8667 89.1787 23.9849C89.279 24.103 89.4329 24.1621 89.6406 24.1621C89.7409 24.1621 89.8358 24.1514 89.9253 24.1299C90.0184 24.1048 90.1007 24.0744 90.1724 24.0386L90.4409 24.9248ZM93.8623 25.1289C93.0029 25.1289 92.3208 24.8729 91.8159 24.3608C91.3146 23.8452 91.064 23.1559 91.064 22.293C91.0675 21.3799 91.3289 20.6655 91.8481 20.1499C92.3674 19.6307 93.0745 19.3711 93.9697 19.3711C94.8327 19.3675 95.5059 19.6217 95.9893 20.1338C96.4762 20.6423 96.7197 21.3315 96.7197 22.2017C96.7197 23.0968 96.4619 23.8094 95.9463 24.3394C95.4342 24.8657 94.7396 25.1289 93.8623 25.1289ZM93.9214 24.1353C94.4191 24.1353 94.7969 23.9723 95.0547 23.6465C95.3161 23.3206 95.4468 22.8498 95.4468 22.2339C95.4468 21.6252 95.3161 21.1615 95.0547 20.8428C94.7933 20.5241 94.4137 20.3647 93.916 20.3647C93.4255 20.3647 93.0387 20.533 92.7559 20.8696C92.4766 21.2062 92.3369 21.6717 92.3369 22.2661C92.3369 22.8641 92.4766 23.326 92.7559 23.6519C93.0352 23.9741 93.4237 24.1353 93.9214 24.1353ZM101.054 20.5474C100.986 20.5295 100.92 20.5169 100.855 20.5098C100.795 20.499 100.723 20.4937 100.641 20.4937C100.193 20.4937 99.8493 20.6584 99.6094 20.9878C99.3695 21.3172 99.2495 21.7469 99.2495 22.2769V25H97.998V19.5H99.2495V20.5581H99.271C99.3999 20.1785 99.5897 19.8921 99.8403 19.6987C100.091 19.5018 100.386 19.4033 100.727 19.4033C100.823 19.4033 100.909 19.4087 100.984 19.4194C101.063 19.4302 101.138 19.4463 101.21 19.4678L101.054 20.5474ZM106.721 22.5776H102.966C102.988 23.0968 103.138 23.4925 103.417 23.7646C103.697 24.0332 104.087 24.1675 104.588 24.1675C104.792 24.1675 105.025 24.1263 105.287 24.0439C105.548 23.9616 105.806 23.8291 106.06 23.6465L106.624 24.4253C106.284 24.6724 105.938 24.8514 105.587 24.9624C105.236 25.0734 104.85 25.1289 104.427 25.1289C103.571 25.1289 102.905 24.8836 102.429 24.3931C101.953 23.8989 101.713 23.2096 101.709 22.3252C101.709 21.4443 101.955 20.7318 102.445 20.1875C102.939 19.6432 103.571 19.3711 104.341 19.3711C105.079 19.3711 105.659 19.6038 106.082 20.0693C106.508 20.5312 106.721 21.1865 106.721 22.0352V22.5776ZM105.512 21.7129C105.512 21.2402 105.408 20.8857 105.201 20.6494C104.997 20.4095 104.707 20.2896 104.331 20.2896C103.976 20.2896 103.674 20.4185 103.423 20.6763C103.176 20.9305 103.024 21.276 102.966 21.7129H105.512Z" fill="white"/>
<defs>
<filter id="filter0_dd_963_7225" x="11.0938" y="7.25" width="11.8125" height="5.625" filterUnits="userSpaceOnUse" color-interpolation-filters="sRGB">
<feFlood flood-opacity="0" result="BackgroundImageFix"/>
<feColorMatrix in="SourceAlpha" type="matrix" values="0 0 0 0 0 0 0 0 0 0 0 0 0 0 0 0 0 0 127 0" result="hardAlpha"/>
<feOffset dy="0.1875"/>
<feGaussianBlur stdDeviation="0.1875"/>
<feColorMatrix type="matrix" values="0 0 0 0 0 0 0 0 0 0 0 0 0 0 0 0 0 0 0.1 0"/>
<feBlend mode="normal" in2="BackgroundImageFix" result="effect1_dropShadow_963_7225"/>
<feColorMatrix in="SourceAlpha" type="matrix" values="0 0 0 0 0 0 0 0 0 0 0 0 0 0 0 0 0 0 127 0" result="hardAlpha"/>
<feOffset dy="0.375"/>
<feGaussianBlur stdDeviation="0.5625"/>
<feColorMatrix type="matrix" values="0 0 0 0 0 0 0 0 0 0 0 0 0 0 0 0 0 0 0.2 0"/>
<feBlend mode="normal" in2="effect1_dropShadow_963_7225" result="effect2_dropShadow_963_7225"/>
<feBlend mode="normal" in="SourceGraphic" in2="effect2_dropShadow_963_7225" result="shape"/>
</filter>
<filter id="filter1_dd_963_7225" x="12.2188" y="13.4375" width="9.5625" height="9.5625" filterUnits="userSpaceOnUse" color-interpolation-filters="sRGB">
<feFlood flood-opacity="0" result="BackgroundImageFix"/>
<feColorMatrix in="SourceAlpha" type="matrix" values="0 0 0 0 0 0 0 0 0 0 0 0 0 0 0 0 0 0 127 0" result="hardAlpha"/>
<feOffset dy="0.1875"/>
<feGaussianBlur stdDeviation="0.1875"/>
<feColorMatrix type="matrix" values="0 0 0 0 1 0 0 0 0 1 0 0 0 0 1 0 0 0 0.6 0"/>
<feBlend mode="normal" in2="BackgroundImageFix" result="effect1_dropShadow_963_7225"/>
<feColorMatrix in="SourceAlpha" type="matrix" values="0 0 0 0 0 0 0 0 0 0 0 0 0 0 0 0 0 0 127 0" result="hardAlpha"/>
<feOffset dy="0.375"/>
<feGaussianBlur stdDeviation="0.5625"/>
<feColorMatrix type="matrix" values="0 0 0 0 1 0 0 0 0 1 0 0 0 0 1 0 0 0 0.6 0"/>
<feBlend mode="normal" in2="effect1_dropShadow_963_7225" result="effect2_dropShadow_963_7225"/>
<feBlend mode="normal" in="SourceGraphic" in2="effect2_dropShadow_963_7225" result="shape"/>
</filter>
<filter id="filter2_dd_963_7225" x="10.5939" y="6.6875" width="12.8124" height="5.06277" filterUnits="userSpaceOnUse" color-interpolation-filters="sRGB">
<feFlood flood-opacity="0" result="BackgroundImageFix"/>
<feColorMatrix in="SourceAlpha" type="matrix" values="0 0 0 0 0 0 0 0 0 0 0 0 0 0 0 0 0 0 127 0" result="hardAlpha"/>
<feOffset dy="-0.75"/>
<feGaussianBlur stdDeviation="0.1875"/>
<feColorMatrix type="matrix" values="0 0 0 0 0 0 0 0 0 0 0 0 0 0 0 0 0 0 0.1 0"/>
<feBlend mode="normal" in2="BackgroundImageFix" result="effect1_dropShadow_963_7225"/>
<feColorMatrix in="SourceAlpha" type="matrix" values="0 0 0 0 0 0 0 0 0 0 0 0 0 0 0 0 0 0 127 0" result="hardAlpha"/>
<feOffset dy="-0.75"/>
<feGaussianBlur stdDeviation="0.5625"/>
<feColorMatrix type="matrix" values="0 0 0 0 0 0 0 0 0 0 0 0 0 0 0 0 0 0 0.2 0"/>
<feBlend mode="normal" in2="effect1_dropShadow_963_7225" result="effect2_dropShadow_963_7225"/>
<feBlend mode="normal" in="SourceGraphic" in2="effect2_dropShadow_963_7225" result="shape"/>
</filter>
<linearGradient id="paint0_linear_963_7225" x1="12.2443" y1="8.00639" x2="15.9039" y2="24.8132" gradientUnits="userSpaceOnUse">
<stop offset="0.270833" stop-color="white"/>
<stop offset="1" stop-color="#DFDFDF"/>
</linearGradient>
<linearGradient id="paint1_linear_963_7225" x1="17" y1="10.25" x2="20.3514" y2="25.9624" gradientUnits="userSpaceOnUse">
<stop stop-color="#0078D4"/>
<stop offset="1" stop-color="#114A8B"/>
</linearGradient>
<linearGradient id="paint2_linear_963_7225" x1="17" y1="8.5625" x2="17.1583" y2="10.9858" gradientUnits="userSpaceOnUse">
<stop stop-color="#28AFEA"/>
<stop offset="1" stop-color="#0078D4"/>
</linearGradient>
<linearGradient id="paint3_linear_963_7225" x1="17" y1="8.5625" x2="17.1583" y2="10.9858" gradientUnits="userSpaceOnUse">
<stop stop-color="#30DAFF"/>
<stop offset="1" stop-color="#0094D4"/>
</linearGradient>
<linearGradient id="paint4_linear_963_7225" x1="16.5938" y1="8" x2="16.5937" y2="9.125" gradientUnits="userSpaceOnUse">
<stop stop-color="#22BCFF"/>
<stop offset="1" stop-color="#0088F0"/>
</linearGradient>
<linearGradient id="paint5_linear_963_7225" x1="16.5938" y1="8" x2="16.5937" y2="9.125" gradientUnits="userSpaceOnUse">
<stop stop-color="#28AFEA"/>
<stop offset="1" stop-color="#3CCBF4"/>
</linearGradient>
<clipPath id="clip0_963_7225">
<rect width="18" height="18" fill="white" transform="translate(8 8)"/>
</clipPath>
<clipPath id="clip1_963_7225">
<rect width="18" height="18" fill="white" transform="translate(8 8)"/>
</clipPath>
</defs>
</svg>
