<svg width="99" height="32" viewBox="0 0 99 32" fill="none" xmlns="http://www.w3.org/2000/svg">
<rect x="0.5" y="0.5" width="98" height="31" rx="3.5" fill="white" fill-opacity="0.7"/>
<path d="M15.5559 7H7V15.5608H15.5559V7Z" fill="#F25022"/>
<path d="M25.0001 7H16.4442V15.5608H25.0001V7Z" fill="#7FBA00"/>
<path d="M15.5559 16.4395H7V25.0002H15.5559V16.4395Z" fill="#00A4EF"/>
<path d="M25.0002 16.4395H16.4443V25.0002H25.0002V16.4395Z" fill="#FFB900"/>
<path d="M33.3828 13H29.1758V12.7656L32.3867 8.03125H29.4336V7.39844H33.4531V7.60547L30.2227 12.3672H33.3828V13ZM34.3477 13V8.90234H35.043V13H34.3477ZM34.6992 8.17188H34.1641L35.0508 6.89062H35.7422L34.6992 8.17188ZM36.0312 12.6953L36.3555 12.1719C36.5273 12.2865 36.6979 12.3737 36.8672 12.4336C37.0365 12.4935 37.2227 12.5234 37.4258 12.5234C37.6992 12.5234 37.9076 12.474 38.0508 12.375C38.194 12.2734 38.2656 12.1224 38.2656 11.9219C38.2656 11.7552 38.2018 11.6172 38.0742 11.5078C37.9492 11.3958 37.7513 11.3047 37.4805 11.2344C36.9727 11.1068 36.6237 10.944 36.4336 10.7461C36.2435 10.5456 36.1484 10.2969 36.1484 10C36.1484 9.65625 36.2786 9.37109 36.5391 9.14453C36.8021 8.91797 37.1602 8.80469 37.6133 8.80469C37.832 8.80469 38.0391 8.83333 38.2344 8.89062C38.4323 8.94531 38.6315 9.03776 38.832 9.16797L38.5312 9.68359C38.349 9.56901 38.1849 9.48958 38.0391 9.44531C37.8932 9.39844 37.7448 9.375 37.5938 9.375C37.3359 9.375 37.138 9.42318 37 9.51953C36.862 9.61589 36.793 9.75521 36.793 9.9375C36.793 10.1146 36.8607 10.25 36.9961 10.3438C37.1315 10.4349 37.3568 10.5208 37.6719 10.6016C38.0911 10.7135 38.4036 10.8698 38.6094 11.0703C38.8177 11.2682 38.9219 11.5326 38.9219 11.8633C38.9219 12.2409 38.7852 12.5417 38.5117 12.7656C38.2409 12.987 37.8711 13.0977 37.4023 13.0977C37.1471 13.0977 36.9036 13.0638 36.6719 12.9961C36.4427 12.9258 36.2292 12.8255 36.0312 12.6953ZM43.3789 13H42.4258L40.6523 11.0234H40.6367V13H39.9414V7.07812H40.6367V10.7812H40.6523L42.3359 8.90234H43.2344L41.3711 10.875L43.3789 13ZM47.0469 13H46.3555V12.3555H46.3398C46.1992 12.6003 46.0247 12.7852 45.8164 12.9102C45.6081 13.0352 45.3659 13.0977 45.0898 13.0977C44.7044 13.0977 44.3932 12.9857 44.1562 12.7617C43.9193 12.5378 43.8008 12.2422 43.8008 11.875C43.8008 11.5182 43.9206 11.2253 44.1602 10.9961C44.3997 10.7669 44.7448 10.6198 45.1953 10.5547L46.3594 10.3984V10.3047C46.3594 9.97396 46.2799 9.73568 46.1211 9.58984C45.9648 9.44401 45.7539 9.37109 45.4883 9.37109C45.2773 9.37109 45.0716 9.41146 44.8711 9.49219C44.6706 9.57292 44.4805 9.69401 44.3008 9.85547L43.9219 9.43359C44.1536 9.22005 44.401 9.0625 44.6641 8.96094C44.9297 8.85677 45.2201 8.80469 45.5352 8.80469C46.0352 8.80469 46.4115 8.93359 46.6641 9.19141C46.9193 9.44922 47.0469 9.83594 47.0469 10.3516V13ZM46.3594 11.3281V10.9336L45.3828 11.0664C45.0833 11.1081 44.8594 11.1836 44.7109 11.293C44.5625 11.4023 44.4883 11.5742 44.4883 11.8086C44.4883 12.0404 44.5573 12.2201 44.6953 12.3477C44.8359 12.4753 45.0104 12.5391 45.2188 12.5391C45.5625 12.5391 45.8385 12.4258 46.0469 12.1992C46.2552 11.9701 46.3594 11.6797 46.3594 11.3281ZM50.3477 12.9492C50.2357 12.9961 50.1237 13.0299 50.0117 13.0508C49.9023 13.0742 49.7786 13.0859 49.6406 13.0859C49.3047 13.0859 49.0417 12.9896 48.8516 12.7969C48.6641 12.6042 48.5703 12.319 48.5703 11.9414V9.48047H47.8711V8.90234H48.5703V7.96484L49.2695 7.74219V8.90234H50.293V9.48047H49.2695V11.8672C49.2695 12.099 49.3112 12.2656 49.3945 12.3672C49.4779 12.4688 49.6029 12.5195 49.7695 12.5195C49.8477 12.5195 49.9232 12.5104 49.9961 12.4922C50.069 12.474 50.1315 12.4518 50.1836 12.4258L50.3477 12.9492ZM55.1562 13.0977C54.5443 13.0977 54.056 12.9062 53.6914 12.5234C53.3294 12.138 53.1484 11.6276 53.1484 10.9922C53.1484 10.3073 53.3359 9.77214 53.7109 9.38672C54.0859 9.0013 54.5977 8.80729 55.2461 8.80469C55.8607 8.80208 56.3411 8.99089 56.6875 9.37109C57.0365 9.7487 57.2109 10.2682 57.2109 10.9297C57.2109 11.5885 57.0247 12.1146 56.6523 12.5078C56.2799 12.901 55.7812 13.0977 55.1562 13.0977ZM55.2031 12.5195C55.6198 12.5195 55.9388 12.3841 56.1602 12.1133C56.3841 11.8398 56.4961 11.4531 56.4961 10.9531C56.4961 10.4479 56.3841 10.0599 56.1602 9.78906C55.9362 9.51823 55.6172 9.38281 55.2031 9.38281C54.7891 9.38281 54.4609 9.52474 54.2188 9.80859C53.9792 10.0898 53.8594 10.4779 53.8594 10.9727C53.8594 11.4544 53.9805 11.8333 54.2227 12.1094C54.4648 12.3828 54.7917 12.5195 55.2031 12.5195ZM61.1211 12.3125C60.9701 12.5729 60.7773 12.7695 60.543 12.9023C60.3112 13.0326 60.0378 13.0977 59.7227 13.0977C59.207 13.0977 58.7943 12.9141 58.4844 12.5469C58.1771 12.1797 58.0234 11.6797 58.0234 11.0469C58.0234 10.3672 58.194 9.82422 58.5352 9.41797C58.8763 9.00911 59.3307 8.80469 59.8984 8.80469C60.1797 8.80469 60.4219 8.85938 60.625 8.96875C60.8281 9.07812 60.9935 9.24349 61.1211 9.46484H61.1367V7.07812H61.832V13H61.1367V12.3125H61.1211ZM58.7344 11.0117C58.7344 11.4805 58.8424 11.849 59.0586 12.1172C59.2747 12.3854 59.5638 12.5195 59.9258 12.5195C60.2904 12.5195 60.5833 12.3893 60.8047 12.1289C61.026 11.8685 61.1367 11.5391 61.1367 11.1406V10.5547C61.1367 10.2266 61.0286 9.94922 60.8125 9.72266C60.599 9.49609 60.3281 9.38281 60 9.38281C59.6068 9.38281 59.2969 9.52734 59.0703 9.81641C58.8464 10.1055 58.7344 10.5039 58.7344 11.0117Z" fill="black" fill-opacity="0.8956"/>
<path d="M39.8989 25H38.4009V19.1094C38.4009 18.627 38.4305 18.0366 38.4897 17.3384H38.4644C38.3713 17.7362 38.2887 18.0218 38.2168 18.1953L35.5 25H34.459L31.7358 18.2461C31.6597 18.0472 31.5793 17.7446 31.4946 17.3384H31.4692C31.5031 17.7023 31.52 18.2969 31.52 19.1221V25H30.1235V15.8975H32.25L34.6431 21.9595C34.825 22.425 34.9435 22.772 34.9985 23.0005H35.0303C35.1868 22.5223 35.3138 22.1668 35.4111 21.9341L37.8486 15.8975H39.8989V25ZM42.5286 17.1353C42.2874 17.1353 42.0801 17.057 41.9066 16.9004C41.7373 16.7438 41.6527 16.5449 41.6527 16.3037C41.6527 16.0625 41.7373 15.8615 41.9066 15.7007C42.0801 15.5399 42.2874 15.4595 42.5286 15.4595C42.7783 15.4595 42.9899 15.5399 43.1634 15.7007C43.3369 15.8615 43.4237 16.0625 43.4237 16.3037C43.4237 16.5322 43.3369 16.729 43.1634 16.894C42.9899 17.0549 42.7783 17.1353 42.5286 17.1353ZM43.2586 25H41.786V18.5H43.2586V25ZM49.6461 24.7017C49.1256 25.0021 48.5099 25.1523 47.799 25.1523C46.8341 25.1523 46.0555 24.8519 45.463 24.251C44.8706 23.6458 44.5744 22.863 44.5744 21.9023C44.5744 20.8317 44.8917 19.9727 45.5265 19.3252C46.1655 18.6735 47.0182 18.3477 48.0846 18.3477C48.6771 18.3477 49.1997 18.4513 49.6525 18.6587V20.0298C49.1997 19.6912 48.7173 19.522 48.2052 19.522C47.5831 19.522 47.0732 19.7336 46.6754 20.1567C46.2776 20.5757 46.0787 21.1258 46.0787 21.8071C46.0787 22.48 46.2649 23.0111 46.6373 23.4004C47.014 23.7897 47.5176 23.9844 48.1481 23.9844C48.6771 23.9844 49.1764 23.7961 49.6461 23.4194V24.7017ZM54.688 19.9028C54.5102 19.7632 54.2542 19.6934 53.9199 19.6934C53.484 19.6934 53.1201 19.8901 52.8281 20.2837C52.5361 20.6772 52.3901 21.2126 52.3901 21.8896V25H50.9174V18.5H52.3901V19.8394H52.4155C52.5594 19.3823 52.7794 19.0269 53.0756 18.7729C53.3761 18.5148 53.7104 18.3857 54.0786 18.3857C54.3452 18.3857 54.5483 18.4259 54.688 18.5063V19.9028ZM58.3015 25.1523C57.2986 25.1523 56.4967 24.8498 55.8958 24.2446C55.2991 23.6353 55.0008 22.8291 55.0008 21.8262C55.0008 20.7344 55.3118 19.8817 55.9339 19.2681C56.5602 18.6545 57.4023 18.3477 58.4602 18.3477C59.4759 18.3477 60.2672 18.646 60.8343 19.2427C61.4013 19.8394 61.6848 20.6667 61.6848 21.7246C61.6848 22.7614 61.378 23.5929 60.7644 24.2192C60.1551 24.8413 59.3341 25.1523 58.3015 25.1523ZM58.3714 19.522C57.7958 19.522 57.3409 19.723 57.0066 20.125C56.6723 20.527 56.5052 21.0814 56.5052 21.7881C56.5052 22.4694 56.6744 23.0068 57.013 23.4004C57.3515 23.7897 57.8043 23.9844 58.3714 23.9844C58.9511 23.9844 59.3955 23.7918 59.7044 23.4067C60.0175 23.0216 60.1741 22.4736 60.1741 21.7627C60.1741 21.0475 60.0175 20.4953 59.7044 20.106C59.3955 19.7166 58.9511 19.522 58.3714 19.522ZM62.588 24.7969V23.4321C63.1381 23.8511 63.7454 24.0605 64.4098 24.0605C65.2984 24.0605 65.7428 23.7982 65.7428 23.2734C65.7428 23.1253 65.7047 23.0005 65.6285 22.8989C65.5523 22.7931 65.4487 22.7 65.3175 22.6196C65.1905 22.5392 65.0382 22.4673 64.8605 22.4038C64.6869 22.3403 64.4923 22.2684 64.2765 22.188C64.0099 22.0822 63.7687 21.9701 63.5528 21.8516C63.3412 21.7331 63.1635 21.5998 63.0196 21.4517C62.88 21.2993 62.7742 21.1279 62.7022 20.9375C62.6303 20.7471 62.5943 20.5249 62.5943 20.271C62.5943 19.9578 62.6684 19.6828 62.8165 19.4458C62.9646 19.2046 63.1635 19.0036 63.4132 18.8428C63.6629 18.6777 63.9464 18.555 64.2638 18.4746C64.5812 18.39 64.9091 18.3477 65.2477 18.3477C65.8486 18.3477 66.386 18.4386 66.86 18.6206V19.9092C66.4029 19.596 65.8782 19.4395 65.2857 19.4395C65.0995 19.4395 64.9303 19.4585 64.7779 19.4966C64.6298 19.5347 64.5029 19.5876 64.3971 19.6553C64.2913 19.723 64.2088 19.8055 64.1495 19.9028C64.0903 19.9959 64.0606 20.0996 64.0606 20.2139C64.0606 20.3535 64.0903 20.472 64.1495 20.5693C64.2088 20.6667 64.2955 20.7534 64.4098 20.8296C64.5283 20.9015 64.6679 20.9692 64.8287 21.0327C64.9938 21.092 65.1821 21.1576 65.3937 21.2295C65.673 21.3438 65.9226 21.4601 66.1427 21.5786C66.367 21.6971 66.5574 21.8325 66.714 21.9849C66.8705 22.133 66.9911 22.3065 67.0758 22.5054C67.1604 22.7 67.2027 22.9328 67.2027 23.2036C67.2027 23.5337 67.1266 23.8215 66.9742 24.0669C66.8219 24.3123 66.6188 24.5155 66.3648 24.6763C66.1109 24.8371 65.8168 24.9556 65.4825 25.0317C65.1524 25.1121 64.8033 25.1523 64.4352 25.1523C63.7242 25.1523 63.1085 25.0339 62.588 24.7969ZM71.2924 25.1523C70.2895 25.1523 69.4876 24.8498 68.8866 24.2446C68.29 23.6353 67.9916 22.8291 67.9916 21.8262C67.9916 20.7344 68.3027 19.8817 68.9247 19.2681C69.551 18.6545 70.3932 18.3477 71.4511 18.3477C72.4667 18.3477 73.2581 18.646 73.8251 19.2427C74.3922 19.8394 74.6757 20.6667 74.6757 21.7246C74.6757 22.7614 74.3689 23.5929 73.7553 24.2192C73.1459 24.8413 72.325 25.1523 71.2924 25.1523ZM71.3622 19.522C70.7867 19.522 70.3318 19.723 69.9975 20.125C69.6632 20.527 69.496 21.0814 69.496 21.7881C69.496 22.4694 69.6653 23.0068 70.0038 23.4004C70.3424 23.7897 70.7952 23.9844 71.3622 23.9844C71.942 23.9844 72.3863 23.7918 72.6952 23.4067C73.0084 23.0216 73.165 22.4736 73.165 21.7627C73.165 21.0475 73.0084 20.4953 72.6952 20.106C72.3863 19.7166 71.942 19.522 71.3622 19.522ZM79.4446 16.5767C79.2457 16.4624 79.0193 16.4053 78.7654 16.4053C78.0502 16.4053 77.6926 16.8094 77.6926 17.6177V18.5H79.2034V19.6553H77.699V25H76.2263V19.6553H75.1155V18.5H76.2263V17.4463C76.2263 16.7607 76.4506 16.2212 76.8992 15.8276C77.3477 15.4299 77.9084 15.231 78.5813 15.231C78.9452 15.231 79.233 15.2712 79.4446 15.3516V16.5767ZM83.7247 24.9302C83.4369 25.0741 83.0582 25.146 82.5884 25.146C81.3274 25.146 80.6968 24.5409 80.6968 23.3306V19.6553H79.6114V18.5H80.6968V16.9956L82.1695 16.5767V18.5H83.7247V19.6553H82.1695V22.9053C82.1695 23.2904 82.2393 23.5654 82.379 23.7305C82.5186 23.8955 82.7514 23.978 83.0772 23.978C83.3269 23.978 83.5427 23.9061 83.7247 23.7622V24.9302ZM90.4677 25H88.995V23.9717H88.9696C88.5422 24.7588 87.8778 25.1523 86.9764 25.1523C85.4403 25.1523 84.6722 24.2298 84.6722 22.3848V18.5H86.1449V22.2324C86.1449 23.4004 86.5956 23.9844 87.497 23.9844C87.9328 23.9844 88.2904 23.8236 88.5697 23.502C88.8532 23.1803 88.995 22.7593 88.995 22.2388V18.5H90.4677V25Z" fill="black" fill-opacity="0.8956"/>
<rect x="0.5" y="0.5" width="98" height="31" rx="3.5" stroke="url(#paint0_linear_1634_29446)"/>
<defs>
<linearGradient id="paint0_linear_1634_29446" x1="49.5" y1="1" x2="49.5" y2="31" gradientUnits="userSpaceOnUse">
<stop offset="0.905762" stop-opacity="0.0578"/>
<stop offset="1" stop-opacity="0.1622"/>
</linearGradient>
</defs>
</svg>
