<svg width="90" height="32" viewBox="0 0 90 32" fill="none" xmlns="http://www.w3.org/2000/svg">
<rect x="0.5" y="0.5" width="89" height="31" rx="3.5" fill="white"/>
<path d="M15.5559 7H7V15.5608H15.5559V7Z" fill="#F25022"/>
<path d="M25.0001 7H16.4442V15.5608H25.0001V7Z" fill="#7FBA00"/>
<path d="M15.5559 16.4395H7V25.0002H15.5559V16.4395Z" fill="#00A4EF"/>
<path d="M25.0002 16.4395H16.4443V25.0002H25.0002V16.4395Z" fill="#FFB900"/>
<path d="M32.6445 8.03125H30.4766V9.91797H32.4805V10.5469H30.4766V13H29.7656V7.39844H32.6445V8.03125ZM36.3594 13H35.668V12.3555H35.6523C35.5117 12.6003 35.3372 12.7852 35.1289 12.9102C34.9206 13.0352 34.6784 13.0977 34.4023 13.0977C34.0169 13.0977 33.7057 12.9857 33.4688 12.7617C33.2318 12.5378 33.1133 12.2422 33.1133 11.875C33.1133 11.5182 33.2331 11.2253 33.4727 10.9961C33.7122 10.7669 34.0573 10.6198 34.5078 10.5547L35.6719 10.3984V10.3047C35.6719 9.97396 35.5924 9.73568 35.4336 9.58984C35.2773 9.44401 35.0664 9.37109 34.8008 9.37109C34.5898 9.37109 34.3841 9.41146 34.1836 9.49219C33.9831 9.57292 33.793 9.69401 33.6133 9.85547L33.2344 9.43359C33.4661 9.22005 33.7135 9.0625 33.9766 8.96094C34.2422 8.85677 34.5326 8.80469 34.8477 8.80469C35.3477 8.80469 35.724 8.93359 35.9766 9.19141C36.2318 9.44922 36.3594 9.83594 36.3594 10.3516V13ZM35.6719 11.3281V10.9336L34.6953 11.0664C34.3958 11.1081 34.1719 11.1836 34.0234 11.293C33.875 11.4023 33.8008 11.5742 33.8008 11.8086C33.8008 12.0404 33.8698 12.2201 34.0078 12.3477C34.1484 12.4753 34.3229 12.5391 34.5312 12.5391C34.875 12.5391 35.151 12.4258 35.3594 12.1992C35.5677 11.9701 35.6719 11.6797 35.6719 11.3281ZM34.8633 8.52344C34.6159 8.52344 34.4167 8.45443 34.2656 8.31641C34.1172 8.17839 34.043 7.9974 34.043 7.77344C34.043 7.53906 34.1172 7.35026 34.2656 7.20703C34.4167 7.0612 34.6146 6.98828 34.8594 6.98828C35.1068 6.98828 35.3047 7.05859 35.4531 7.19922C35.6042 7.33984 35.6797 7.52344 35.6797 7.75C35.6797 7.98177 35.6042 8.16927 35.4531 8.3125C35.3047 8.45312 35.1081 8.52344 34.8633 8.52344ZM34.8594 7.32422C34.7292 7.32422 34.6237 7.36458 34.543 7.44531C34.4622 7.52344 34.4219 7.6276 34.4219 7.75781C34.4219 7.88542 34.4622 7.98958 34.543 8.07031C34.6237 8.14844 34.7292 8.1875 34.8594 8.1875C34.9922 8.1875 35.099 8.14844 35.1797 8.07031C35.2604 7.98958 35.3008 7.88542 35.3008 7.75781C35.3008 7.6276 35.2604 7.52344 35.1797 7.44531C35.099 7.36458 34.9922 7.32422 34.8594 7.32422ZM42.6758 12.3125C42.5247 12.5729 42.332 12.7695 42.0977 12.9023C41.8659 13.0326 41.5924 13.0977 41.2773 13.0977C40.7617 13.0977 40.349 12.9141 40.0391 12.5469C39.7318 12.1797 39.5781 11.6797 39.5781 11.0469C39.5781 10.3672 39.7487 9.82422 40.0898 9.41797C40.431 9.00911 40.8854 8.80469 41.4531 8.80469C41.7344 8.80469 41.9766 8.85938 42.1797 8.96875C42.3828 9.07812 42.5482 9.24349 42.6758 9.46484H42.6914V7.07812H43.3867V13H42.6914V12.3125H42.6758ZM40.2891 11.0117C40.2891 11.4805 40.3971 11.849 40.6133 12.1172C40.8294 12.3854 41.1185 12.5195 41.4805 12.5195C41.8451 12.5195 42.138 12.3893 42.3594 12.1289C42.5807 11.8685 42.6914 11.5391 42.6914 11.1406V10.5547C42.6914 10.2266 42.5833 9.94922 42.3672 9.72266C42.1536 9.49609 41.8828 9.38281 41.5547 9.38281C41.1615 9.38281 40.8516 9.52734 40.625 9.81641C40.401 10.1055 40.2891 10.5039 40.2891 11.0117ZM48.0625 11.1094H45.1797C45.1927 11.5625 45.3138 11.9115 45.543 12.1562C45.7721 12.3984 46.0938 12.5195 46.5078 12.5195C46.6875 12.5195 46.8711 12.4922 47.0586 12.4375C47.2487 12.3802 47.4388 12.2878 47.6289 12.1602L47.9453 12.6445C47.7083 12.8008 47.4701 12.9154 47.2305 12.9883C46.9909 13.0612 46.7279 13.0977 46.4414 13.0977C45.8216 13.0977 45.3385 12.9141 44.9922 12.5469C44.6458 12.1771 44.4714 11.6615 44.4688 11C44.4661 10.3411 44.6406 9.8112 44.9922 9.41016C45.3464 9.00651 45.8047 8.80469 46.3672 8.80469C46.9036 8.80469 47.3203 8.97917 47.6172 9.32812C47.9141 9.67448 48.0625 10.1576 48.0625 10.7773V11.1094ZM47.3633 10.5625C47.3607 10.1849 47.2695 9.89193 47.0898 9.68359C46.9128 9.47526 46.668 9.37109 46.3555 9.37109C46.0482 9.37109 45.7878 9.47917 45.5742 9.69531C45.3633 9.90885 45.2344 10.1979 45.1875 10.5625H47.3633ZM51.0977 12.9492C50.9857 12.9961 50.8737 13.0299 50.7617 13.0508C50.6523 13.0742 50.5286 13.0859 50.3906 13.0859C50.0547 13.0859 49.7917 12.9896 49.6016 12.7969C49.4141 12.6042 49.3203 12.319 49.3203 11.9414V9.48047H48.6211V8.90234H49.3203V7.96484L50.0195 7.74219V8.90234H51.043V9.48047H50.0195V11.8672C50.0195 12.099 50.0612 12.2656 50.1445 12.3672C50.2279 12.4688 50.3529 12.5195 50.5195 12.5195C50.5977 12.5195 50.6732 12.5104 50.7461 12.4922C50.819 12.474 50.8815 12.4518 50.9336 12.4258L51.0977 12.9492ZM56.1406 7.63281C56.0677 7.60677 56.0013 7.58854 55.9414 7.57812C55.8815 7.56771 55.819 7.5625 55.7539 7.5625C55.5378 7.5625 55.3763 7.61979 55.2695 7.73438C55.1654 7.84896 55.1133 8.01693 55.1133 8.23828V8.90234H56.0547V9.48047H55.1133V13H54.4219V9.48047H53.7344V8.90234H54.4219V8.20312C54.4219 7.82031 54.5404 7.52083 54.7773 7.30469C55.0169 7.08854 55.3424 6.98047 55.7539 6.98047C55.8581 6.98047 55.9531 6.98828 56.0391 7.00391C56.125 7.01953 56.2135 7.04167 56.3047 7.07031L56.1406 7.63281ZM58.8906 9.49609C58.8385 9.48047 58.7904 9.46875 58.7461 9.46094C58.7018 9.45312 58.6484 9.44922 58.5859 9.44922C58.2552 9.44922 57.9948 9.58984 57.8047 9.87109C57.6146 10.1497 57.5195 10.5026 57.5195 10.9297V13H56.8242V8.90234H57.5195V9.71484H57.5352C57.6289 9.42578 57.7708 9.20703 57.9609 9.05859C58.1536 8.90755 58.3763 8.83203 58.6289 8.83203C58.7096 8.83203 58.7786 8.83594 58.8359 8.84375C58.8958 8.85156 58.9505 8.86328 59 8.87891L58.8906 9.49609ZM62.7188 13H62.0273V12.3555H62.0117C61.8711 12.6003 61.6966 12.7852 61.4883 12.9102C61.2799 13.0352 61.0378 13.0977 60.7617 13.0977C60.3763 13.0977 60.0651 12.9857 59.8281 12.7617C59.5911 12.5378 59.4727 12.2422 59.4727 11.875C59.4727 11.5182 59.5924 11.2253 59.832 10.9961C60.0716 10.7669 60.4167 10.6198 60.8672 10.5547L62.0312 10.3984V10.3047C62.0312 9.97396 61.9518 9.73568 61.793 9.58984C61.6367 9.44401 61.4258 9.37109 61.1602 9.37109C60.9492 9.37109 60.7435 9.41146 60.543 9.49219C60.3424 9.57292 60.1523 9.69401 59.9727 9.85547L59.5938 9.43359C59.8255 9.22005 60.0729 9.0625 60.3359 8.96094C60.6016 8.85677 60.8919 8.80469 61.207 8.80469C61.707 8.80469 62.0833 8.93359 62.3359 9.19141C62.5911 9.44922 62.7188 9.83594 62.7188 10.3516V13ZM62.0312 11.3281V10.9336L61.0547 11.0664C60.7552 11.1081 60.5312 11.1836 60.3828 11.293C60.2344 11.4023 60.1602 11.5742 60.1602 11.8086C60.1602 12.0404 60.2292 12.2201 60.3672 12.3477C60.5078 12.4753 60.6823 12.5391 60.8906 12.5391C61.2344 12.5391 61.5104 12.4258 61.7188 12.1992C61.9271 11.9701 62.0312 11.6797 62.0312 11.3281Z" fill="black" fill-opacity="0.8956"/>
<path d="M41.1489 16.6123C41.1489 16.3559 41.2412 16.1508 41.4259 15.9764C41.6105 15.8021 41.8258 15.72 42.0823 15.72C42.3489 15.72 42.5746 15.8123 42.7489 15.9867C42.9233 16.1611 43.0156 16.3764 43.0156 16.6123C43.0156 16.8585 42.9233 17.0739 42.7387 17.238C42.5541 17.4123 42.3387 17.4944 42.072 17.4944C41.8053 17.4944 41.59 17.4123 41.4053 17.238C41.2412 17.0636 41.1489 16.8585 41.1489 16.6123ZM42.8412 25.0021H41.313V18.4893H42.8412V25.0021Z" fill="black" fill-opacity="0.8956"/>
<path d="M47.4975 23.8887C47.7231 23.8887 47.9795 23.8375 48.2565 23.7349C48.5334 23.6323 48.7795 23.4887 49.0154 23.3144V24.74C48.7693 24.8836 48.4924 24.9862 48.1847 25.058C47.877 25.1298 47.5282 25.1708 47.159 25.1708C46.2052 25.1708 45.4257 24.8631 44.8205 24.258C44.2154 23.6528 43.918 22.8734 43.918 21.94C43.918 20.8939 44.2257 20.0323 44.8411 19.3554C45.4564 18.6785 46.318 18.34 47.4462 18.34C47.7334 18.34 48.0206 18.3811 48.318 18.4528C48.6154 18.5246 48.8411 18.6169 49.0154 18.7093V20.1759C48.7795 20.0016 48.5334 19.8682 48.2872 19.7759C48.0411 19.6836 47.7847 19.6323 47.5282 19.6323C46.9231 19.6323 46.4411 19.8272 46.0616 20.217C45.6923 20.6067 45.5077 21.14 45.5077 21.8067C45.5077 22.4631 45.6821 22.9759 46.0411 23.3452C46.4 23.7144 46.8821 23.8887 47.4975 23.8887Z" fill="black" fill-opacity="0.8956"/>
<path d="M53.3738 18.39C53.4969 18.39 53.6097 18.4003 53.702 18.4105C53.7943 18.431 53.8866 18.4516 53.9482 18.4721V20.0208C53.8661 19.9592 53.7533 19.908 53.5995 19.8567C53.4456 19.8054 53.261 19.7746 53.0354 19.7746C52.6559 19.7746 52.3379 19.9285 52.0815 20.2464C51.8251 20.5644 51.6918 21.0464 51.6918 21.7131V25.0054H50.1636V18.4926H51.6918V19.5182H51.7123C51.8559 19.1592 52.061 18.8823 52.3482 18.6874C52.6354 18.4926 52.9738 18.39 53.3738 18.39Z" fill="black" fill-opacity="0.8956"/>
<path d="M54.0308 21.8477C54.0308 20.7708 54.3385 19.9195 54.9436 19.2836C55.5487 18.658 56.4 18.34 57.4769 18.34C58.4923 18.34 59.2923 18.6477 59.8667 19.2528C60.441 19.858 60.7282 20.6785 60.7282 21.7041C60.7282 22.7605 60.4205 23.6016 59.8154 24.2272C59.2102 24.8528 58.3795 25.1605 57.3333 25.1605C56.3282 25.1605 55.5179 24.8631 54.9333 24.2682C54.3282 23.6836 54.0308 22.8734 54.0308 21.8477ZM55.6308 21.7964C55.6308 22.4734 55.7846 22.9964 56.0923 23.3554C56.4 23.7144 56.841 23.8887 57.4154 23.8887C57.9692 23.8887 58.4 23.7144 58.6872 23.3554C58.9743 22.9964 59.1282 22.4631 59.1282 21.7554C59.1282 21.058 58.9743 20.5246 58.6769 20.1657C58.3795 19.8067 57.9487 19.6323 57.4051 19.6323C56.841 19.6323 56.4102 19.8169 56.0923 20.1964C55.7846 20.5759 55.6308 21.099 55.6308 21.7964Z" fill="black" fill-opacity="0.8956"/>
<path d="M63.0053 20.2069C63.0053 20.4223 63.0771 20.5967 63.2104 20.7198C63.354 20.8428 63.6617 20.9967 64.1335 21.1916C64.7489 21.4377 65.1796 21.7146 65.4258 22.0223C65.6719 22.33 65.795 22.6993 65.795 23.13C65.795 23.7454 65.5591 24.2377 65.0873 24.607C64.6155 24.9762 63.9796 25.1608 63.1796 25.1608C62.913 25.1608 62.6155 25.13 62.2873 25.0582C61.9591 24.9967 61.6822 24.9044 61.4565 24.8121V23.3044C61.7335 23.4993 62.0309 23.6531 62.3591 23.7659C62.6771 23.8787 62.9745 23.9403 63.2309 23.9403C63.5796 23.9403 63.836 23.889 64.0001 23.7967C64.1642 23.7044 64.2463 23.5403 64.2463 23.3044C64.2463 23.089 64.1642 22.9146 63.9899 22.7711C63.8155 22.6275 63.4976 22.4531 63.0155 22.2685C62.4514 22.0326 62.0514 21.7659 61.8155 21.4685C61.5796 21.171 61.4565 20.7916 61.4565 20.3403C61.4565 19.7557 61.6924 19.2736 62.154 18.8941C62.6155 18.5146 63.2206 18.33 63.9694 18.33C64.195 18.33 64.4514 18.3505 64.7386 18.4018C65.0258 18.4531 65.2617 18.5146 65.4463 18.5967V20.0531C65.2412 19.9198 65.0053 19.8069 64.7386 19.7044C64.4719 19.6121 64.195 19.5608 63.9386 19.5608C63.6514 19.5608 63.4155 19.6223 63.2617 19.7351C63.0873 19.848 63.0053 20.0121 63.0053 20.2069Z" fill="black" fill-opacity="0.8956"/>
<path d="M66.4717 21.8477C66.4717 20.7708 66.7794 19.9195 67.3845 19.2836C67.9896 18.658 68.8409 18.34 69.9178 18.34C70.9332 18.34 71.7332 18.6477 72.3076 19.2528C72.8819 19.858 73.1691 20.6785 73.1691 21.7041C73.1691 22.7605 72.8614 23.6016 72.2563 24.2272C71.6512 24.8528 70.8204 25.1605 69.7742 25.1605C68.7691 25.1605 67.9589 24.8631 67.3742 24.2682C66.7691 23.6836 66.4717 22.8734 66.4717 21.8477ZM68.0614 21.7964C68.0614 22.4734 68.2153 22.9964 68.523 23.3554C68.8307 23.7144 69.2717 23.8887 69.846 23.8887C70.3999 23.8887 70.8307 23.7144 71.1178 23.3554C71.405 22.9964 71.5589 22.4631 71.5589 21.7554C71.5589 21.058 71.405 20.5246 71.1076 20.1657C70.8101 19.8067 70.3794 19.6323 69.8358 19.6323C69.2717 19.6323 68.8409 19.8169 68.523 20.1964C68.2153 20.5759 68.0614 21.099 68.0614 21.7964Z" fill="black" fill-opacity="0.8956"/>
<path d="M78.2258 19.7523V23.0959C78.2258 23.7933 78.3899 24.3062 78.7079 24.6549C79.0258 25.0036 79.5181 25.1677 80.1643 25.1677C80.3797 25.1677 80.6053 25.1472 80.8309 25.0959C81.0566 25.0446 81.2207 25.0036 81.313 24.9421V23.6703C81.2207 23.7318 81.1079 23.7831 80.9848 23.8241C80.8617 23.8651 80.7489 23.8857 80.6668 23.8857C80.3591 23.8857 80.1232 23.8036 79.9797 23.6395C79.8361 23.4754 79.7643 23.1882 79.7643 22.7882V19.7421H81.3232V18.4908H79.7745V16.5626L78.2361 17.0344V18.501H75.9489V17.7113C75.9489 17.3215 76.0309 17.0241 76.2053 16.819C76.3796 16.6139 76.6258 16.5215 76.9438 16.5215C77.1079 16.5215 77.2514 16.5421 77.3848 16.5831C77.5079 16.6241 77.6002 16.6651 77.6514 16.6959V15.3728C77.5386 15.3318 77.4155 15.3113 77.272 15.2908C77.1284 15.2703 76.9643 15.26 76.7797 15.26C76.0822 15.26 75.5079 15.4754 75.0668 15.9164C74.6258 16.3574 74.4002 16.9113 74.4002 17.5985V18.501H73.313V19.7523H74.4002V25.0139H75.9489V19.7523H78.2258V19.7523Z" fill="black" fill-opacity="0.8956"/>
<path d="M39.8359 15.92V25.0072H38.2564V17.8892H38.2359L35.4154 25.0072H34.3692L31.4769 17.8892H31.4564V25.0072H30V15.92H32.2564L34.8718 22.6585H34.9128L37.6718 15.92H39.8359Z" fill="black" fill-opacity="0.8956"/>
<rect x="0.5" y="0.5" width="89" height="31" rx="3.5" stroke="url(#paint0_linear_1602_26947)"/>
<defs>
<linearGradient id="paint0_linear_1602_26947" x1="45" y1="1" x2="45" y2="31" gradientUnits="userSpaceOnUse">
<stop offset="0.905762" stop-opacity="0.0578"/>
<stop offset="1" stop-opacity="0.1622"/>
</linearGradient>
</defs>
</svg>
