<svg width="117" height="32" viewBox="0 0 117 32" fill="none" xmlns="http://www.w3.org/2000/svg">
<rect x="1.49751" y="0.5" width="115.002" height="31" rx="3.5" fill="black"/>
<path d="M16.5575 6.99994H7.99751V15.5606H16.5575V6.99994Z" fill="#F25022"/>
<path d="M25.9996 6.99994H17.4396V15.5606H25.9996V6.99994Z" fill="#7FBA00"/>
<path d="M16.5575 16.4393H7.99751V24.9999H16.5575V16.4393Z" fill="#00A4EF"/>
<path d="M25.9997 16.4393H17.4397V24.9999H25.9997V16.4393Z" fill="#FFB900"/>
<path d="M33.623 25.0001H32.9316V24.3556H32.916C32.7754 24.6004 32.6009 24.7853 32.3926 24.9103C32.1842 25.0353 31.942 25.0978 31.666 25.0978C31.2806 25.0978 30.9694 24.9858 30.7324 24.7618C30.4954 24.5379 30.3769 24.2423 30.3769 23.8751C30.3769 23.5184 30.4967 23.2254 30.7363 22.9962C30.9759 22.767 31.321 22.6199 31.7715 22.5548L32.9355 22.3986V22.3048C32.9355 21.9741 32.8561 21.7358 32.6973 21.59C32.541 21.4441 32.3301 21.3712 32.0644 21.3712C31.8535 21.3712 31.6478 21.4116 31.4473 21.4923C31.2467 21.573 31.0566 21.6941 30.8769 21.8556L30.498 21.4337C30.7298 21.2202 30.9772 21.0626 31.2402 20.9611C31.5059 20.8569 31.7962 20.8048 32.1113 20.8048C32.6113 20.8048 32.9876 20.9337 33.2402 21.1915C33.4954 21.4493 33.623 21.8361 33.623 22.3517V25.0001ZM32.9355 23.3282V22.9337L31.959 23.0665C31.6595 23.1082 31.4355 23.1837 31.2871 23.2931C31.1387 23.4025 31.0644 23.5743 31.0644 23.8087C31.0644 24.0405 31.1335 24.2202 31.2715 24.3478C31.4121 24.4754 31.5866 24.5392 31.7949 24.5392C32.1387 24.5392 32.4147 24.4259 32.623 24.1993C32.8314 23.9702 32.9355 23.6798 32.9355 23.3282ZM35.6269 24.4611H35.6113V25.0001H34.916V19.0782H35.6113V21.6173H35.6269C35.7884 21.3465 35.9876 21.1434 36.2246 21.0079C36.4616 20.8725 36.735 20.8048 37.0449 20.8048C37.5684 20.8048 37.9785 20.9884 38.2754 21.3556C38.5723 21.7202 38.7207 22.2111 38.7207 22.8282C38.7207 23.5157 38.5527 24.0665 38.2168 24.4806C37.8835 24.892 37.429 25.0978 36.8535 25.0978C36.5827 25.0978 36.3444 25.0457 36.1387 24.9415C35.9355 24.8348 35.765 24.6746 35.6269 24.4611ZM35.6074 22.7579V23.3126C35.6074 23.6512 35.7155 23.9376 35.9316 24.172C36.1478 24.4038 36.4238 24.5197 36.7598 24.5197C37.1478 24.5197 37.4525 24.3699 37.6738 24.0704C37.8952 23.771 38.0059 23.3543 38.0059 22.8204C38.0059 22.3725 37.903 22.021 37.6973 21.7657C37.4915 21.5105 37.2116 21.3829 36.8574 21.3829C36.4798 21.3829 36.1764 21.5144 35.9473 21.7775C35.7207 22.0379 35.6074 22.3647 35.6074 22.7579ZM41.8652 21.4962C41.8131 21.4806 41.765 21.4689 41.7207 21.4611C41.6764 21.4532 41.623 21.4493 41.5605 21.4493C41.2298 21.4493 40.9694 21.59 40.7793 21.8712C40.5892 22.1499 40.4941 22.5027 40.4941 22.9298V25.0001H39.7988V20.9025H40.4941V21.715H40.5098C40.6035 21.4259 40.7454 21.2072 40.9355 21.0587C41.1282 20.9077 41.3509 20.8322 41.6035 20.8322C41.6842 20.8322 41.7532 20.8361 41.8105 20.8439C41.8704 20.8517 41.9251 20.8634 41.9746 20.879L41.8652 21.4962ZM46.0996 25.0001H45.4043V24.3478H45.3887C45.2506 24.5978 45.0749 24.7853 44.8613 24.9103C44.6504 25.0353 44.403 25.0978 44.1191 25.0978C43.6322 25.0978 43.2663 24.9519 43.0215 24.6603C42.7793 24.3686 42.6582 23.9324 42.6582 23.3517V20.9025H43.3535V23.2462C43.3535 23.6707 43.4342 23.9897 43.5957 24.2032C43.7572 24.4142 44.0006 24.5197 44.3262 24.5197C44.6413 24.5197 44.8991 24.4038 45.0996 24.172C45.3027 23.9402 45.4043 23.6355 45.4043 23.2579V20.9025H46.0996V25.0001ZM49.4199 19.6329C49.347 19.6069 49.2806 19.5887 49.2207 19.5782C49.1608 19.5678 49.0983 19.5626 49.0332 19.5626C48.817 19.5626 48.6556 19.6199 48.5488 19.7345C48.4447 19.8491 48.3926 20.017 48.3926 20.2384V20.9025H49.334V21.4806H48.3926V25.0001H47.7012V21.4806H47.0137V20.9025H47.7012V20.2032C47.7012 19.8204 47.8197 19.521 48.0566 19.3048C48.2962 19.0887 48.6217 18.9806 49.0332 18.9806C49.1374 18.9806 49.2324 18.9884 49.3184 19.004C49.4043 19.0197 49.4928 19.0418 49.584 19.0704L49.4199 19.6329ZM53.4277 23.1095H50.5449C50.5579 23.5626 50.679 23.9116 50.9082 24.1564C51.1374 24.3986 51.459 24.5197 51.873 24.5197C52.0527 24.5197 52.2363 24.4923 52.4238 24.4376C52.6139 24.3803 52.804 24.2879 52.9941 24.1603L53.3105 24.6447C53.0736 24.8009 52.8353 24.9155 52.5957 24.9884C52.3561 25.0613 52.0931 25.0978 51.8066 25.0978C51.1868 25.0978 50.7038 24.9142 50.3574 24.547C50.0111 24.1772 49.8366 23.6616 49.834 23.0001C49.8314 22.3413 50.0059 21.8113 50.3574 21.4103C50.7116 21.0066 51.1699 20.8048 51.7324 20.8048C52.2689 20.8048 52.6855 20.9793 52.9824 21.3282C53.2793 21.6746 53.4277 22.1577 53.4277 22.7775V23.1095ZM52.7285 22.5626C52.7259 22.185 52.6348 21.892 52.4551 21.6837C52.278 21.4754 52.0332 21.3712 51.7207 21.3712C51.4134 21.3712 51.153 21.4793 50.9394 21.6954C50.7285 21.909 50.5996 22.198 50.5527 22.5626H52.7285ZM57.8926 25.0001H57.1973V22.6642C57.1973 22.2371 57.1191 21.9168 56.9629 21.7032C56.8066 21.4897 56.5736 21.3829 56.2637 21.3829C55.9407 21.3829 55.6738 21.504 55.4629 21.7462C55.2545 21.9858 55.1504 22.2905 55.1504 22.6603V25.0001H54.4551V20.9025H55.1504V21.5822H55.166C55.3197 21.3217 55.5085 21.1277 55.7324 21.0001C55.9564 20.8699 56.2155 20.8048 56.5098 20.8048C56.9577 20.8048 57.3001 20.9493 57.5371 21.2384C57.7741 21.5275 57.8926 21.9454 57.8926 22.4923V25.0001Z" fill="white"/>
<path d="M37.2583 7.89758L33.9893 17.0001H32.3008L29.0889 7.89758H30.7393L32.9863 14.8038C33.0583 15.0239 33.1133 15.2799 33.1514 15.5719H33.1768C33.2064 15.3307 33.2677 15.0704 33.3608 14.7911L35.6587 7.89758H37.2583ZM40.1483 17.1525C39.1453 17.1525 38.3434 16.8499 37.7425 16.2448C37.1458 15.6354 36.8475 14.8292 36.8475 13.8263C36.8475 12.7345 37.1585 11.8818 37.7806 11.2682C38.4069 10.6546 39.249 10.3478 40.307 10.3478C41.3226 10.3478 42.1139 10.6461 42.681 11.2428C43.248 11.8395 43.5316 12.6668 43.5316 13.7247C43.5316 14.7615 43.2248 15.5931 42.6112 16.2194C42.0018 16.8414 41.1808 17.1525 40.1483 17.1525ZM40.2181 11.5221C39.6426 11.5221 39.1876 11.7231 38.8533 12.1251C38.519 12.5271 38.3519 13.0815 38.3519 13.7882C38.3519 14.4695 38.5211 15.007 38.8597 15.4005C39.1982 15.7898 39.651 15.9845 40.2181 15.9845C40.7978 15.9845 41.2422 15.792 41.5511 15.4069C41.8642 15.0218 42.0208 14.4738 42.0208 13.7628C42.0208 13.0476 41.8642 12.4954 41.5511 12.1061C41.2422 11.7168 40.7978 11.5221 40.2181 11.5221ZM50.63 17.0001H49.1574V13.3375C49.1574 12.123 48.7278 11.5157 47.8688 11.5157C47.4202 11.5157 47.0499 11.685 46.7579 12.0236C46.466 12.3579 46.32 12.781 46.32 13.2931V17.0001H44.841V10.5001H46.32V11.5792H46.3454C46.832 10.7583 47.5345 10.3478 48.4528 10.3478C49.1595 10.3478 49.699 10.5784 50.0714 11.0397C50.4438 11.4967 50.63 12.159 50.63 13.0265V17.0001ZM65.5633 17.0001H64.0652V11.1095C64.0652 10.6271 64.0948 10.0367 64.1541 9.3385H64.1287C64.0356 9.73629 63.9531 10.0219 63.8811 10.1954L61.1643 17.0001H60.1233L57.4002 10.2462C57.324 10.0473 57.2436 9.74475 57.159 9.3385H57.1336C57.1674 9.70243 57.1844 10.297 57.1844 11.1222V17.0001H55.7879V7.89758H57.9143L60.3074 13.9596C60.4894 14.4251 60.6079 14.7721 60.6629 15.0006H60.6946C60.8512 14.5224 60.9781 14.167 61.0755 13.9342L63.513 7.89758H65.5633V17.0001ZM68.193 9.13538C67.9518 9.13538 67.7444 9.05709 67.5709 8.90051C67.4016 8.74394 67.317 8.54504 67.317 8.30383C67.317 8.06262 67.4016 7.86161 67.5709 7.70081C67.7444 7.54 67.9518 7.45959 68.193 7.45959C68.4426 7.45959 68.6542 7.54 68.8277 7.70081C69.0012 7.86161 69.088 8.06262 69.088 8.30383C69.088 8.53235 69.0012 8.72913 68.8277 8.89417C68.6542 9.05497 68.4426 9.13538 68.193 9.13538ZM68.923 17.0001H67.4503V10.5001H68.923V17.0001ZM75.3105 16.7018C74.79 17.0022 74.1742 17.1525 73.4633 17.1525C72.4985 17.1525 71.7198 16.852 71.1274 16.2511C70.5349 15.646 70.2387 14.8631 70.2387 13.9025C70.2387 12.8318 70.5561 11.9728 71.1908 11.3253C71.8298 10.6736 72.6825 10.3478 73.7489 10.3478C74.3414 10.3478 74.864 10.4515 75.3168 10.6588V12.0299C74.864 11.6914 74.3816 11.5221 73.8696 11.5221C73.2475 11.5221 72.7376 11.7337 72.3398 12.1569C71.942 12.5758 71.7431 13.1259 71.7431 13.8073C71.7431 14.4801 71.9293 15.0112 72.3017 15.4005C72.6783 15.7898 73.1819 15.9845 73.8124 15.9845C74.3414 15.9845 74.8407 15.7962 75.3105 15.4196V16.7018ZM80.3523 11.903C80.1745 11.7633 79.9185 11.6935 79.5842 11.6935C79.1483 11.6935 78.7844 11.8903 78.4924 12.2838C78.2004 12.6774 78.0544 13.2127 78.0544 13.8898V17.0001H76.5818V10.5001H78.0544V11.8395H78.0798C78.2237 11.3824 78.4438 11.027 78.74 10.7731C79.0404 10.5149 79.3747 10.3859 79.7429 10.3859C80.0095 10.3859 80.2126 10.4261 80.3523 10.5065V11.903ZM83.9659 17.1525C82.9629 17.1525 82.161 16.8499 81.5601 16.2448C80.9634 15.6354 80.6651 14.8292 80.6651 13.8263C80.6651 12.7345 80.9761 11.8818 81.5982 11.2682C82.2245 10.6546 83.0666 10.3478 84.1246 10.3478C85.1402 10.3478 85.9315 10.6461 86.4986 11.2428C87.0656 11.8395 87.3492 12.6668 87.3492 13.7247C87.3492 14.7615 87.0424 15.5931 86.4288 16.2194C85.8194 16.8414 84.9984 17.1525 83.9659 17.1525ZM84.0357 11.5221C83.4602 11.5221 83.0053 11.7231 82.671 12.1251C82.3366 12.5271 82.1695 13.0815 82.1695 13.7882C82.1695 14.4695 82.3388 15.007 82.6773 15.4005C83.0158 15.7898 83.4686 15.9845 84.0357 15.9845C84.6155 15.9845 85.0598 15.792 85.3687 15.4069C85.6819 15.0218 85.8384 14.4738 85.8384 13.7628C85.8384 13.0476 85.6819 12.4954 85.3687 12.1061C85.0598 11.7168 84.6155 11.5221 84.0357 11.5221ZM88.2523 16.797V15.4323C88.8025 15.8512 89.4097 16.0607 90.0741 16.0607C90.9628 16.0607 91.4071 15.7983 91.4071 15.2736C91.4071 15.1254 91.369 15.0006 91.2929 14.899C91.2167 14.7933 91.113 14.7002 90.9818 14.6198C90.8549 14.5393 90.7025 14.4674 90.5248 14.4039C90.3513 14.3405 90.1566 14.2685 89.9408 14.1881C89.6742 14.0823 89.433 13.9702 89.2172 13.8517C89.0056 13.7332 88.8278 13.5999 88.684 13.4518C88.5443 13.2994 88.4385 13.1281 88.3666 12.9376C88.2946 12.7472 88.2587 12.525 88.2587 12.2711C88.2587 11.958 88.3327 11.6829 88.4808 11.4459C88.629 11.2047 88.8278 11.0037 89.0775 10.8429C89.3272 10.6779 89.6107 10.5551 89.9281 10.4747C90.2455 10.3901 90.5734 10.3478 90.912 10.3478C91.5129 10.3478 92.0503 10.4388 92.5243 10.6207V11.9093C92.0673 11.5962 91.5425 11.4396 90.9501 11.4396C90.7639 11.4396 90.5946 11.4586 90.4423 11.4967C90.2942 11.5348 90.1672 11.5877 90.0614 11.6554C89.9556 11.7231 89.8731 11.8056 89.8138 11.903C89.7546 11.9961 89.725 12.0997 89.725 12.214C89.725 12.3536 89.7546 12.4721 89.8138 12.5695C89.8731 12.6668 89.9598 12.7535 90.0741 12.8297C90.1926 12.9017 90.3322 12.9694 90.493 13.0328C90.6581 13.0921 90.8464 13.1577 91.058 13.2296C91.3373 13.3439 91.587 13.4602 91.807 13.5787C92.0313 13.6972 92.2217 13.8326 92.3783 13.985C92.5349 14.1331 92.6555 14.3066 92.7401 14.5055C92.8248 14.7002 92.8671 14.9329 92.8671 15.2037C92.8671 15.5338 92.7909 15.8216 92.6386 16.067C92.4862 16.3125 92.2831 16.5156 92.0292 16.6764C91.7753 16.8372 91.4812 16.9557 91.1469 17.0319C90.8168 17.1123 90.4677 17.1525 90.0995 17.1525C89.3886 17.1525 88.7728 17.034 88.2523 16.797ZM96.9567 17.1525C95.9538 17.1525 95.1519 16.8499 94.551 16.2448C93.9543 15.6354 93.656 14.8292 93.656 13.8263C93.656 12.7345 93.967 11.8818 94.5891 11.2682C95.2154 10.6546 96.0575 10.3478 97.1154 10.3478C98.1311 10.3478 98.9224 10.6461 99.4895 11.2428C100.057 11.8395 100.34 12.6668 100.34 13.7247C100.34 14.7615 100.033 15.5931 99.4196 16.2194C98.8103 16.8414 97.9893 17.1525 96.9567 17.1525ZM97.0266 11.5221C96.451 11.5221 95.9961 11.7231 95.6618 12.1251C95.3275 12.5271 95.1604 13.0815 95.1604 13.7882C95.1604 14.4695 95.3296 15.007 95.6682 15.4005C96.0067 15.7898 96.4595 15.9845 97.0266 15.9845C97.6063 15.9845 98.0507 15.792 98.3596 15.4069C98.6727 15.0218 98.8293 14.4738 98.8293 13.7628C98.8293 13.0476 98.6727 12.4954 98.3596 12.1061C98.0507 11.7168 97.6063 11.5221 97.0266 11.5221ZM105.109 8.57678C104.91 8.46252 104.684 8.4054 104.43 8.4054C103.715 8.4054 103.357 8.80953 103.357 9.6178V10.5001H104.868V11.6554H103.363V17.0001H101.891V11.6554H100.78V10.5001H101.891V9.44641C101.891 8.76086 102.115 8.22131 102.563 7.82776C103.012 7.42997 103.573 7.23108 104.246 7.23108C104.61 7.23108 104.897 7.27128 105.109 7.35168V8.57678ZM109.389 16.9303C109.101 17.0742 108.723 17.1461 108.253 17.1461C106.992 17.1461 106.361 16.541 106.361 15.3307V11.6554H105.276V10.5001H106.361V8.99573L107.834 8.57678V10.5001H109.389V11.6554H107.834V14.9054C107.834 15.2905 107.904 15.5656 108.043 15.7306C108.183 15.8956 108.416 15.9781 108.742 15.9781C108.991 15.9781 109.207 15.9062 109.389 15.7623V16.9303Z" fill="white"/>
<rect x="1.49751" y="0.5" width="115.002" height="31" rx="3.5" stroke="black"/>
</svg>
