<svg width="116" height="32" viewBox="0 0 116 32" fill="none" xmlns="http://www.w3.org/2000/svg">
<rect x="0.5" y="0.5" width="115" height="31" rx="3.5" fill="white" fill-opacity="0.7"/>
<path d="M15.56 6.99994H7V15.5606H15.56V6.99994Z" fill="#F25022"/>
<path d="M25.0021 6.99994H16.4421V15.5606H25.0021V6.99994Z" fill="#7FBA00"/>
<path d="M15.56 16.4393H7V24.9999H15.56V16.4393Z" fill="#00A4EF"/>
<path d="M25.0022 16.4393H16.4422V24.9999H25.0022V16.4393Z" fill="#FFB900"/>
<path d="M32.6255 25.0001H31.9341V24.3556H31.9185C31.7779 24.6004 31.6034 24.7853 31.3951 24.9103C31.1867 25.0353 30.9445 25.0978 30.6685 25.0978C30.2831 25.0978 29.9719 24.9858 29.7349 24.7618C29.4979 24.5379 29.3794 24.2423 29.3794 23.8751C29.3794 23.5184 29.4992 23.2254 29.7388 22.9962C29.9784 22.767 30.3234 22.6199 30.774 22.5548L31.938 22.3986V22.3048C31.938 21.9741 31.8586 21.7358 31.6997 21.59C31.5435 21.4441 31.3326 21.3712 31.0669 21.3712C30.856 21.3712 30.6503 21.4116 30.4497 21.4923C30.2492 21.573 30.0591 21.6941 29.8794 21.8556L29.5005 21.4337C29.7323 21.2202 29.9797 21.0626 30.2427 20.9611C30.5083 20.8569 30.7987 20.8048 31.1138 20.8048C31.6138 20.8048 31.9901 20.9337 32.2427 21.1915C32.4979 21.4493 32.6255 21.8361 32.6255 22.3517V25.0001ZM31.938 23.3282V22.9337L30.9615 23.0665C30.662 23.1082 30.438 23.1837 30.2896 23.2931C30.1412 23.4025 30.0669 23.5743 30.0669 23.8087C30.0669 24.0405 30.1359 24.2202 30.274 24.3478C30.4146 24.4754 30.5891 24.5392 30.7974 24.5392C31.1412 24.5392 31.4172 24.4259 31.6255 24.1993C31.8339 23.9702 31.938 23.6798 31.938 23.3282ZM34.6294 24.4611H34.6138V25.0001H33.9185V19.0782H34.6138V21.6173H34.6294C34.7909 21.3465 34.9901 21.1434 35.2271 21.0079C35.4641 20.8725 35.7375 20.8048 36.0474 20.8048C36.5708 20.8048 36.981 20.9884 37.2779 21.3556C37.5747 21.7202 37.7232 22.2111 37.7232 22.8282C37.7232 23.5157 37.5552 24.0665 37.2193 24.4806C36.8859 24.892 36.4315 25.0978 35.856 25.0978C35.5852 25.0978 35.3469 25.0457 35.1412 24.9415C34.938 24.8348 34.7675 24.6746 34.6294 24.4611ZM34.6099 22.7579V23.3126C34.6099 23.6512 34.718 23.9376 34.9341 24.172C35.1503 24.4038 35.4263 24.5197 35.7622 24.5197C36.1503 24.5197 36.455 24.3699 36.6763 24.0704C36.8977 23.771 37.0083 23.3543 37.0083 22.8204C37.0083 22.3725 36.9055 22.021 36.6997 21.7657C36.494 21.5105 36.2141 21.3829 35.8599 21.3829C35.4823 21.3829 35.1789 21.5144 34.9497 21.7775C34.7232 22.0379 34.6099 22.3647 34.6099 22.7579ZM40.8677 21.4962C40.8156 21.4806 40.7675 21.4689 40.7232 21.4611C40.6789 21.4532 40.6255 21.4493 40.563 21.4493C40.2323 21.4493 39.9719 21.59 39.7818 21.8712C39.5917 22.1499 39.4966 22.5027 39.4966 22.9298V25.0001H38.8013V20.9025H39.4966V21.715H39.5122C39.606 21.4259 39.7479 21.2072 39.938 21.0587C40.1307 20.9077 40.3534 20.8322 40.606 20.8322C40.6867 20.8322 40.7557 20.8361 40.813 20.8439C40.8729 20.8517 40.9276 20.8634 40.9771 20.879L40.8677 21.4962ZM45.1021 25.0001H44.4068V24.3478H44.3912C44.2531 24.5978 44.0773 24.7853 43.8638 24.9103C43.6529 25.0353 43.4055 25.0978 43.1216 25.0978C42.6346 25.0978 42.2688 24.9519 42.024 24.6603C41.7818 24.3686 41.6607 23.9324 41.6607 23.3517V20.9025H42.356V23.2462C42.356 23.6707 42.4367 23.9897 42.5982 24.2032C42.7596 24.4142 43.0031 24.5197 43.3287 24.5197C43.6438 24.5197 43.9016 24.4038 44.1021 24.172C44.3052 23.9402 44.4068 23.6355 44.4068 23.2579V20.9025H45.1021V25.0001ZM48.4224 19.6329C48.3495 19.6069 48.2831 19.5887 48.2232 19.5782C48.1633 19.5678 48.1008 19.5626 48.0357 19.5626C47.8195 19.5626 47.6581 19.6199 47.5513 19.7345C47.4471 19.8491 47.3951 20.017 47.3951 20.2384V20.9025H48.3365V21.4806H47.3951V25.0001H46.7037V21.4806H46.0162V20.9025H46.7037V20.2032C46.7037 19.8204 46.8221 19.521 47.0591 19.3048C47.2987 19.0887 47.6242 18.9806 48.0357 18.9806C48.1398 18.9806 48.2349 18.9884 48.3208 19.004C48.4068 19.0197 48.4953 19.0418 48.5865 19.0704L48.4224 19.6329ZM52.4302 23.1095H49.5474C49.5604 23.5626 49.6815 23.9116 49.9107 24.1564C50.1398 24.3986 50.4615 24.5197 50.8755 24.5197C51.0552 24.5197 51.2388 24.4923 51.4263 24.4376C51.6164 24.3803 51.8065 24.2879 51.9966 24.1603L52.313 24.6447C52.076 24.8009 51.8378 24.9155 51.5982 24.9884C51.3586 25.0613 51.0956 25.0978 50.8091 25.0978C50.1893 25.0978 49.7063 24.9142 49.3599 24.547C49.0135 24.1772 48.8391 23.6616 48.8365 23.0001C48.8339 22.3413 49.0083 21.8113 49.3599 21.4103C49.7141 21.0066 50.1724 20.8048 50.7349 20.8048C51.2714 20.8048 51.688 20.9793 51.9849 21.3282C52.2818 21.6746 52.4302 22.1577 52.4302 22.7775V23.1095ZM51.731 22.5626C51.7284 22.185 51.6372 21.892 51.4576 21.6837C51.2805 21.4754 51.0357 21.3712 50.7232 21.3712C50.4159 21.3712 50.1555 21.4793 49.9419 21.6954C49.731 21.909 49.6021 22.198 49.5552 22.5626H51.731ZM56.8951 25.0001H56.1997V22.6642C56.1997 22.2371 56.1216 21.9168 55.9654 21.7032C55.8091 21.4897 55.576 21.3829 55.2662 21.3829C54.9432 21.3829 54.6763 21.504 54.4654 21.7462C54.257 21.9858 54.1529 22.2905 54.1529 22.6603V25.0001H53.4576V20.9025H54.1529V21.5822H54.1685C54.3221 21.3217 54.5109 21.1277 54.7349 21.0001C54.9589 20.8699 55.218 20.8048 55.5122 20.8048C55.9602 20.8048 56.3026 20.9493 56.5396 21.2384C56.7766 21.5275 56.8951 21.9454 56.8951 22.4923V25.0001Z" fill="black" fill-opacity="0.8956"/>
<path d="M36.2583 7.89758L32.9893 17.0001H31.3008L28.0889 7.89758H29.7393L31.9863 14.8038C32.0583 15.0239 32.1133 15.2799 32.1514 15.5719H32.1768C32.2064 15.3307 32.2677 15.0704 32.3608 14.7911L34.6587 7.89758H36.2583ZM39.1483 17.1525C38.1453 17.1525 37.3434 16.8499 36.7425 16.2448C36.1458 15.6354 35.8475 14.8292 35.8475 13.8263C35.8475 12.7345 36.1585 11.8818 36.7806 11.2682C37.4069 10.6546 38.249 10.3478 39.307 10.3478C40.3226 10.3478 41.1139 10.6461 41.681 11.2428C42.248 11.8395 42.5316 12.6668 42.5316 13.7247C42.5316 14.7615 42.2248 15.5931 41.6112 16.2194C41.0018 16.8414 40.1808 17.1525 39.1483 17.1525ZM39.2181 11.5221C38.6426 11.5221 38.1876 11.7231 37.8533 12.1251C37.519 12.5271 37.3519 13.0815 37.3519 13.7882C37.3519 14.4695 37.5211 15.007 37.8597 15.4005C38.1982 15.7898 38.651 15.9845 39.2181 15.9845C39.7978 15.9845 40.2422 15.792 40.5511 15.4069C40.8642 15.0218 41.0208 14.4738 41.0208 13.7628C41.0208 13.0476 40.8642 12.4954 40.5511 12.1061C40.2422 11.7168 39.7978 11.5221 39.2181 11.5221ZM49.63 17.0001H48.1574V13.3375C48.1574 12.123 47.7278 11.5157 46.8688 11.5157C46.4202 11.5157 46.0499 11.685 45.7579 12.0236C45.466 12.3579 45.32 12.781 45.32 13.2931V17.0001H43.841V10.5001H45.32V11.5792H45.3454C45.832 10.7583 46.5345 10.3478 47.4528 10.3478C48.1595 10.3478 48.699 10.5784 49.0714 11.0397C49.4438 11.4967 49.63 12.159 49.63 13.0265V17.0001ZM64.5633 17.0001H63.0652V11.1095C63.0652 10.6271 63.0948 10.0367 63.1541 9.3385H63.1287C63.0356 9.73629 62.9531 10.0219 62.8811 10.1954L60.1643 17.0001H59.1233L56.4002 10.2462C56.324 10.0473 56.2436 9.74475 56.159 9.3385H56.1336C56.1674 9.70243 56.1844 10.297 56.1844 11.1222V17.0001H54.7879V7.89758H56.9143L59.3074 13.9596C59.4894 14.4251 59.6079 14.7721 59.6629 15.0006H59.6946C59.8512 14.5224 59.9781 14.167 60.0755 13.9342L62.513 7.89758H64.5633V17.0001ZM67.193 9.13538C66.9518 9.13538 66.7444 9.05709 66.5709 8.90051C66.4016 8.74394 66.317 8.54504 66.317 8.30383C66.317 8.06262 66.4016 7.86161 66.5709 7.70081C66.7444 7.54 66.9518 7.45959 67.193 7.45959C67.4426 7.45959 67.6542 7.54 67.8277 7.70081C68.0012 7.86161 68.088 8.06262 68.088 8.30383C68.088 8.53235 68.0012 8.72913 67.8277 8.89417C67.6542 9.05497 67.4426 9.13538 67.193 9.13538ZM67.923 17.0001H66.4503V10.5001H67.923V17.0001ZM74.3105 16.7018C73.79 17.0022 73.1742 17.1525 72.4633 17.1525C71.4985 17.1525 70.7198 16.852 70.1274 16.2511C69.5349 15.646 69.2387 14.8631 69.2387 13.9025C69.2387 12.8318 69.5561 11.9728 70.1908 11.3253C70.8298 10.6736 71.6825 10.3478 72.7489 10.3478C73.3414 10.3478 73.864 10.4515 74.3168 10.6588V12.0299C73.864 11.6914 73.3816 11.5221 72.8696 11.5221C72.2475 11.5221 71.7376 11.7337 71.3398 12.1569C70.942 12.5758 70.7431 13.1259 70.7431 13.8073C70.7431 14.4801 70.9293 15.0112 71.3017 15.4005C71.6783 15.7898 72.1819 15.9845 72.8124 15.9845C73.3414 15.9845 73.8407 15.7962 74.3105 15.4196V16.7018ZM79.3523 11.903C79.1745 11.7633 78.9185 11.6935 78.5842 11.6935C78.1483 11.6935 77.7844 11.8903 77.4924 12.2838C77.2004 12.6774 77.0544 13.2127 77.0544 13.8898V17.0001H75.5818V10.5001H77.0544V11.8395H77.0798C77.2237 11.3824 77.4438 11.027 77.74 10.7731C78.0404 10.5149 78.3747 10.3859 78.7429 10.3859C79.0095 10.3859 79.2126 10.4261 79.3523 10.5065V11.903ZM82.9659 17.1525C81.9629 17.1525 81.161 16.8499 80.5601 16.2448C79.9634 15.6354 79.6651 14.8292 79.6651 13.8263C79.6651 12.7345 79.9761 11.8818 80.5982 11.2682C81.2245 10.6546 82.0666 10.3478 83.1246 10.3478C84.1402 10.3478 84.9315 10.6461 85.4986 11.2428C86.0656 11.8395 86.3492 12.6668 86.3492 13.7247C86.3492 14.7615 86.0424 15.5931 85.4288 16.2194C84.8194 16.8414 83.9984 17.1525 82.9659 17.1525ZM83.0357 11.5221C82.4602 11.5221 82.0053 11.7231 81.671 12.1251C81.3366 12.5271 81.1695 13.0815 81.1695 13.7882C81.1695 14.4695 81.3388 15.007 81.6773 15.4005C82.0158 15.7898 82.4686 15.9845 83.0357 15.9845C83.6155 15.9845 84.0598 15.792 84.3687 15.4069C84.6819 15.0218 84.8384 14.4738 84.8384 13.7628C84.8384 13.0476 84.6819 12.4954 84.3687 12.1061C84.0598 11.7168 83.6155 11.5221 83.0357 11.5221ZM87.2523 16.797V15.4323C87.8025 15.8512 88.4097 16.0607 89.0741 16.0607C89.9628 16.0607 90.4071 15.7983 90.4071 15.2736C90.4071 15.1254 90.369 15.0006 90.2929 14.899C90.2167 14.7933 90.113 14.7002 89.9818 14.6198C89.8549 14.5393 89.7025 14.4674 89.5248 14.4039C89.3513 14.3405 89.1566 14.2685 88.9408 14.1881C88.6742 14.0823 88.433 13.9702 88.2172 13.8517C88.0056 13.7332 87.8278 13.5999 87.684 13.4518C87.5443 13.2994 87.4385 13.1281 87.3666 12.9376C87.2946 12.7472 87.2587 12.525 87.2587 12.2711C87.2587 11.958 87.3327 11.6829 87.4808 11.4459C87.629 11.2047 87.8278 11.0037 88.0775 10.8429C88.3272 10.6779 88.6107 10.5551 88.9281 10.4747C89.2455 10.3901 89.5734 10.3478 89.912 10.3478C90.5129 10.3478 91.0503 10.4388 91.5243 10.6207V11.9093C91.0673 11.5962 90.5425 11.4396 89.9501 11.4396C89.7639 11.4396 89.5946 11.4586 89.4423 11.4967C89.2942 11.5348 89.1672 11.5877 89.0614 11.6554C88.9556 11.7231 88.8731 11.8056 88.8138 11.903C88.7546 11.9961 88.725 12.0997 88.725 12.214C88.725 12.3536 88.7546 12.4721 88.8138 12.5695C88.8731 12.6668 88.9598 12.7535 89.0741 12.8297C89.1926 12.9017 89.3322 12.9694 89.493 13.0328C89.6581 13.0921 89.8464 13.1577 90.058 13.2296C90.3373 13.3439 90.587 13.4602 90.807 13.5787C91.0313 13.6972 91.2217 13.8326 91.3783 13.985C91.5349 14.1331 91.6555 14.3066 91.7401 14.5055C91.8248 14.7002 91.8671 14.9329 91.8671 15.2037C91.8671 15.5338 91.7909 15.8216 91.6386 16.067C91.4862 16.3125 91.2831 16.5156 91.0292 16.6764C90.7753 16.8372 90.4812 16.9557 90.1469 17.0319C89.8168 17.1123 89.4677 17.1525 89.0995 17.1525C88.3886 17.1525 87.7728 17.034 87.2523 16.797ZM95.9567 17.1525C94.9538 17.1525 94.1519 16.8499 93.551 16.2448C92.9543 15.6354 92.656 14.8292 92.656 13.8263C92.656 12.7345 92.967 11.8818 93.5891 11.2682C94.2154 10.6546 95.0575 10.3478 96.1154 10.3478C97.1311 10.3478 97.9224 10.6461 98.4895 11.2428C99.0565 11.8395 99.34 12.6668 99.34 13.7247C99.34 14.7615 99.0332 15.5931 98.4196 16.2194C97.8103 16.8414 96.9893 17.1525 95.9567 17.1525ZM96.0266 11.5221C95.451 11.5221 94.9961 11.7231 94.6618 12.1251C94.3275 12.5271 94.1604 13.0815 94.1604 13.7882C94.1604 14.4695 94.3296 15.007 94.6682 15.4005C95.0067 15.7898 95.4595 15.9845 96.0266 15.9845C96.6063 15.9845 97.0507 15.792 97.3596 15.4069C97.6727 15.0218 97.8293 14.4738 97.8293 13.7628C97.8293 13.0476 97.6727 12.4954 97.3596 12.1061C97.0507 11.7168 96.6063 11.5221 96.0266 11.5221ZM104.109 8.57678C103.91 8.46252 103.684 8.4054 103.43 8.4054C102.715 8.4054 102.357 8.80953 102.357 9.6178V10.5001H103.868V11.6554H102.363V17.0001H100.891V11.6554H99.7798V10.5001H100.891V9.44641C100.891 8.76086 101.115 8.22131 101.563 7.82776C102.012 7.42997 102.573 7.23108 103.246 7.23108C103.61 7.23108 103.897 7.27128 104.109 7.35168V8.57678ZM108.389 16.9303C108.101 17.0742 107.723 17.1461 107.253 17.1461C105.992 17.1461 105.361 16.541 105.361 15.3307V11.6554H104.276V10.5001H105.361V8.99573L106.834 8.57678V10.5001H108.389V11.6554H106.834V14.9054C106.834 15.2905 106.904 15.5656 107.043 15.7306C107.183 15.8956 107.416 15.9781 107.742 15.9781C107.991 15.9781 108.207 15.9062 108.389 15.7623V16.9303Z" fill="black" fill-opacity="0.8956"/>
<rect x="0.5" y="0.5" width="115" height="31" rx="3.5" stroke="url(#paint0_linear_1682_26678)"/>
<defs>
<linearGradient id="paint0_linear_1682_26678" x1="58" y1="1" x2="58" y2="31" gradientUnits="userSpaceOnUse">
<stop offset="0.905762" stop-opacity="0.0578"/>
<stop offset="1" stop-opacity="0.1622"/>
</linearGradient>
</defs>
</svg>
