<svg width="90" height="32" viewBox="0 0 90 32" fill="none" xmlns="http://www.w3.org/2000/svg">
<rect x="0.5" y="0.5" width="89" height="31" rx="3.5" fill="white" fill-opacity="0.7"/>
<path d="M15.5559 7H7V15.5608H15.5559V7Z" fill="#F25022"/>
<path d="M25.0001 7H16.4442V15.5608H25.0001V7Z" fill="#7FBA00"/>
<path d="M15.5559 16.4395H7V25.0002H15.5559V16.4395Z" fill="#00A4EF"/>
<path d="M25.0002 16.4395H16.4443V25.0002H25.0002V16.4395Z" fill="#FFB900"/>
<path d="M34.0234 13H33.2305L31.6875 8.54688C31.6667 8.48438 31.6471 8.41406 31.6289 8.33594C31.6107 8.25781 31.5938 8.17318 31.5781 8.08203H31.5625C31.5495 8.16276 31.5326 8.24219 31.5117 8.32031C31.4935 8.39844 31.4714 8.47526 31.4453 8.55078L29.8945 13H29.1289L31.1758 7.39844H31.9922L34.0234 13ZM37.5781 14.8398V10.6992C37.5781 10.2591 37.5026 9.92969 37.3516 9.71094C37.2031 9.49219 36.9661 9.38281 36.6406 9.38281C36.3151 9.38281 36.0482 9.50521 35.8398 9.75C35.6315 9.99479 35.5273 10.2943 35.5273 10.6484V13H34.832V10.2305C34.832 9.92057 34.819 9.65365 34.793 9.42969C34.7695 9.20312 34.7344 9.02734 34.6875 8.90234H35.4023C35.4388 8.9987 35.4661 9.10547 35.4844 9.22266C35.5052 9.33724 35.5156 9.46094 35.5156 9.59375H35.5312C35.6979 9.32552 35.8893 9.1276 36.1055 9C36.3242 8.86979 36.5859 8.80469 36.8906 8.80469C37.3411 8.80469 37.6836 8.94922 37.918 9.23828C38.1549 9.52474 38.2734 9.9362 38.2734 10.4727V14.8398H37.5781ZM36.4492 8.28516H36.0312L36.4219 6.85938H37.1133L36.4492 8.28516ZM41.7109 14.8398V13.0938C40.9974 13.0911 40.4596 12.9102 40.0977 12.5508C39.7383 12.1888 39.5586 11.6445 39.5586 10.918V8.90234H40.2578V10.9023C40.2578 11.4779 40.3802 11.888 40.625 12.1328C40.8724 12.375 41.2344 12.4961 41.7109 12.4961V7.73047H42.3516V12.4961C42.8281 12.4961 43.1901 12.375 43.4375 12.1328C43.6849 11.8906 43.8086 11.4805 43.8086 10.9023V8.90234H44.5078V10.918C44.5078 11.6471 44.3255 12.1914 43.9609 12.5508C43.5964 12.9102 43.0599 13.0911 42.3516 13.0938V14.8398H41.7109ZM48.5547 14.8398V10.6992C48.5547 10.2591 48.4792 9.92969 48.3281 9.71094C48.1797 9.49219 47.9427 9.38281 47.6172 9.38281C47.2917 9.38281 47.0247 9.50521 46.8164 9.75C46.6081 9.99479 46.5039 10.2943 46.5039 10.6484V13H45.8086V10.2305C45.8086 9.92057 45.7956 9.65365 45.7695 9.42969C45.7461 9.20312 45.7109 9.02734 45.6641 8.90234H46.3789C46.4154 8.9987 46.4427 9.10547 46.4609 9.22266C46.4818 9.33724 46.4922 9.46094 46.4922 9.59375H46.5078C46.6745 9.32552 46.8659 9.1276 47.082 9C47.3008 8.86979 47.5625 8.80469 47.8672 8.80469C48.3177 8.80469 48.6602 8.94922 48.8945 9.23828C49.1315 9.52474 49.25 9.9362 49.25 10.4727V14.8398H48.5547ZM54.1641 13.0977C53.6641 13.0977 53.2604 12.9076 52.9531 12.5273C52.6458 12.1445 52.4922 11.6589 52.4922 11.0703C52.4922 10.401 52.6576 9.85677 52.9883 9.4375C53.319 9.01562 53.7747 8.80469 54.3555 8.80469C54.6966 8.80469 55.0013 8.90365 55.2695 9.10156C55.5378 9.29948 55.7409 9.58724 55.8789 9.96484H55.8945C55.9674 9.74089 56.0247 9.5651 56.0664 9.4375C56.1107 9.30729 56.1693 9.12891 56.2422 8.90234H56.9688C56.8021 9.33724 56.6719 9.67448 56.5781 9.91406C56.487 10.151 56.3555 10.4883 56.1836 10.9258C56.306 11.6263 56.4076 12.0482 56.4883 12.1914C56.5716 12.332 56.6771 12.4023 56.8047 12.4023C56.8359 12.4023 56.8698 12.401 56.9062 12.3984C56.9453 12.3932 56.9779 12.3867 57.0039 12.3789L57.1172 12.9336C57.0078 12.9805 56.9245 13.0091 56.8672 13.0195C56.8125 13.0299 56.7422 13.0352 56.6562 13.0352C56.4401 13.0352 56.2643 12.9531 56.1289 12.7891C55.9935 12.625 55.8802 12.3125 55.7891 11.8516H55.7734C55.5755 12.2682 55.3464 12.5807 55.0859 12.7891C54.8255 12.9948 54.5182 13.0977 54.1641 13.0977ZM54.2305 12.5C54.5065 12.5 54.7526 12.3841 54.9688 12.1523C55.1875 11.918 55.3737 11.5729 55.5273 11.1172L55.5898 10.9336C55.4831 10.418 55.3242 10.0299 55.1133 9.76953C54.9049 9.50651 54.6576 9.375 54.3711 9.375C54.0013 9.375 53.7135 9.53385 53.5078 9.85156C53.3047 10.1667 53.2031 10.5586 53.2031 11.0273C53.2031 11.4909 53.293 11.8529 53.4727 12.1133C53.6523 12.3711 53.9049 12.5 54.2305 12.5ZM58.2734 13V9.48438H57.4141V8.90234H62.0508V9.48438H61.207V11.8906C61.207 12.0833 61.2409 12.2266 61.3086 12.3203C61.3763 12.4141 61.4766 12.4609 61.6094 12.4609C61.6536 12.4609 61.7005 12.4557 61.75 12.4453C61.7995 12.4349 61.8529 12.4193 61.9102 12.3984L62.0625 12.9102C61.9635 12.9622 61.8646 12.9987 61.7656 13.0195C61.6667 13.043 61.5651 13.0547 61.4609 13.0547C61.1406 13.0547 60.901 12.9609 60.7422 12.7734C60.5859 12.5833 60.5078 12.2995 60.5078 11.9219V9.48438H58.9648V13H58.2734ZM64.8828 13.0977C64.2708 13.0977 63.7826 12.9062 63.418 12.5234C63.056 12.138 62.875 11.6276 62.875 10.9922C62.875 10.3073 63.0625 9.77214 63.4375 9.38672C63.8125 9.0013 64.3242 8.80729 64.9727 8.80469C65.5872 8.80208 66.0677 8.99089 66.4141 9.37109C66.763 9.7487 66.9375 10.2682 66.9375 10.9297C66.9375 11.5885 66.7513 12.1146 66.3789 12.5078C66.0065 12.901 65.5078 13.0977 64.8828 13.0977ZM64.9297 12.5195C65.3464 12.5195 65.6654 12.3841 65.8867 12.1133C66.1107 11.8398 66.2227 11.4531 66.2227 10.9531C66.2227 10.4479 66.1107 10.0599 65.8867 9.78906C65.6628 9.51823 65.3438 9.38281 64.9297 9.38281C64.5156 9.38281 64.1875 9.52474 63.9453 9.80859C63.7057 10.0898 63.5859 10.4779 63.5859 10.9727C63.5859 11.4544 63.707 11.8333 63.9492 12.1094C64.1914 12.3828 64.5182 12.5195 64.9297 12.5195ZM65.1328 8.28516H64.7148L65.1055 6.85938H65.7969L65.1328 8.28516ZM72.2695 13.0859C71.9362 13.0859 71.6758 12.9896 71.4883 12.7969C71.3034 12.6042 71.2109 12.3112 71.2109 11.918V9.48438H69.8398V8.90234H73.4336V9.48438H71.9062V11.8867C71.9062 12.0977 71.9466 12.2565 72.0273 12.3633C72.1107 12.4674 72.237 12.5195 72.4062 12.5195C72.474 12.5195 72.5404 12.513 72.6055 12.5C72.6706 12.4844 72.7422 12.4596 72.8203 12.4258L72.9844 12.9492C72.8438 13.0065 72.7188 13.043 72.6094 13.0586C72.5026 13.0768 72.3893 13.0859 72.2695 13.0859ZM77.0625 14.8398V10.6992C77.0625 10.2591 76.987 9.92969 76.8359 9.71094C76.6875 9.49219 76.4505 9.38281 76.125 9.38281C75.7995 9.38281 75.5326 9.50521 75.3242 9.75C75.1159 9.99479 75.0117 10.2943 75.0117 10.6484V13H74.3164V10.2305C74.3164 9.92057 74.3034 9.65365 74.2773 9.42969C74.2539 9.20312 74.2188 9.02734 74.1719 8.90234H74.8867C74.9232 8.9987 74.9505 9.10547 74.9688 9.22266C74.9896 9.33724 75 9.46094 75 9.59375H75.0156C75.1823 9.32552 75.3737 9.1276 75.5898 9C75.8086 8.86979 76.0703 8.80469 76.375 8.80469C76.8255 8.80469 77.168 8.94922 77.4023 9.23828C77.6393 9.52474 77.7578 9.9362 77.7578 10.4727V14.8398H77.0625Z" fill="black" fill-opacity="0.8956"/>
<path d="M41.1489 16.6123C41.1489 16.3559 41.2412 16.1508 41.4259 15.9764C41.6105 15.8021 41.8258 15.72 42.0823 15.72C42.3489 15.72 42.5746 15.8123 42.7489 15.9867C42.9233 16.1611 43.0156 16.3764 43.0156 16.6123C43.0156 16.8585 42.9233 17.0739 42.7387 17.238C42.5541 17.4123 42.3387 17.4944 42.072 17.4944C41.8053 17.4944 41.59 17.4123 41.4053 17.238C41.2412 17.0636 41.1489 16.8585 41.1489 16.6123ZM42.8412 25.0021H41.313V18.4893H42.8412V25.0021Z" fill="black" fill-opacity="0.8956"/>
<path d="M47.4975 23.8887C47.7231 23.8887 47.9795 23.8375 48.2565 23.7349C48.5334 23.6323 48.7795 23.4887 49.0154 23.3144V24.74C48.7693 24.8836 48.4924 24.9862 48.1847 25.058C47.877 25.1298 47.5282 25.1708 47.159 25.1708C46.2052 25.1708 45.4257 24.8631 44.8205 24.258C44.2154 23.6528 43.918 22.8734 43.918 21.94C43.918 20.8939 44.2257 20.0323 44.8411 19.3554C45.4564 18.6785 46.318 18.34 47.4462 18.34C47.7334 18.34 48.0206 18.3811 48.318 18.4528C48.6154 18.5246 48.8411 18.6169 49.0154 18.7093V20.1759C48.7795 20.0016 48.5334 19.8682 48.2872 19.7759C48.0411 19.6836 47.7847 19.6323 47.5282 19.6323C46.9231 19.6323 46.4411 19.8272 46.0616 20.217C45.6923 20.6067 45.5077 21.14 45.5077 21.8067C45.5077 22.4631 45.6821 22.9759 46.0411 23.3452C46.4 23.7144 46.8821 23.8887 47.4975 23.8887Z" fill="black" fill-opacity="0.8956"/>
<path d="M53.3738 18.39C53.4969 18.39 53.6097 18.4003 53.702 18.4105C53.7943 18.431 53.8866 18.4516 53.9482 18.4721V20.0208C53.8661 19.9592 53.7533 19.908 53.5995 19.8567C53.4456 19.8054 53.261 19.7746 53.0354 19.7746C52.6559 19.7746 52.3379 19.9285 52.0815 20.2464C51.8251 20.5644 51.6918 21.0464 51.6918 21.7131V25.0054H50.1636V18.4926H51.6918V19.5182H51.7123C51.8559 19.1592 52.061 18.8823 52.3482 18.6874C52.6354 18.4926 52.9738 18.39 53.3738 18.39Z" fill="black" fill-opacity="0.8956"/>
<path d="M54.0308 21.8477C54.0308 20.7708 54.3385 19.9195 54.9436 19.2836C55.5487 18.658 56.4 18.34 57.4769 18.34C58.4923 18.34 59.2923 18.6477 59.8667 19.2528C60.441 19.858 60.7282 20.6785 60.7282 21.7041C60.7282 22.7605 60.4205 23.6016 59.8154 24.2272C59.2102 24.8528 58.3795 25.1605 57.3333 25.1605C56.3282 25.1605 55.5179 24.8631 54.9333 24.2682C54.3282 23.6836 54.0308 22.8734 54.0308 21.8477ZM55.6308 21.7964C55.6308 22.4734 55.7846 22.9964 56.0923 23.3554C56.4 23.7144 56.841 23.8887 57.4154 23.8887C57.9692 23.8887 58.4 23.7144 58.6872 23.3554C58.9743 22.9964 59.1282 22.4631 59.1282 21.7554C59.1282 21.058 58.9743 20.5246 58.6769 20.1657C58.3795 19.8067 57.9487 19.6323 57.4051 19.6323C56.841 19.6323 56.4102 19.8169 56.0923 20.1964C55.7846 20.5759 55.6308 21.099 55.6308 21.7964Z" fill="black" fill-opacity="0.8956"/>
<path d="M63.0053 20.2069C63.0053 20.4223 63.0771 20.5967 63.2104 20.7198C63.354 20.8428 63.6617 20.9967 64.1335 21.1916C64.7489 21.4377 65.1796 21.7146 65.4258 22.0223C65.6719 22.33 65.795 22.6993 65.795 23.13C65.795 23.7454 65.5591 24.2377 65.0873 24.607C64.6155 24.9762 63.9796 25.1608 63.1796 25.1608C62.913 25.1608 62.6155 25.13 62.2873 25.0582C61.9591 24.9967 61.6822 24.9044 61.4565 24.8121V23.3044C61.7335 23.4993 62.0309 23.6531 62.3591 23.7659C62.6771 23.8787 62.9745 23.9403 63.2309 23.9403C63.5796 23.9403 63.836 23.889 64.0001 23.7967C64.1642 23.7044 64.2463 23.5403 64.2463 23.3044C64.2463 23.089 64.1642 22.9146 63.9899 22.7711C63.8155 22.6275 63.4976 22.4531 63.0155 22.2685C62.4514 22.0326 62.0514 21.7659 61.8155 21.4685C61.5796 21.171 61.4565 20.7916 61.4565 20.3403C61.4565 19.7557 61.6924 19.2736 62.154 18.8941C62.6155 18.5146 63.2206 18.33 63.9694 18.33C64.195 18.33 64.4514 18.3505 64.7386 18.4018C65.0258 18.4531 65.2617 18.5146 65.4463 18.5967V20.0531C65.2412 19.9198 65.0053 19.8069 64.7386 19.7044C64.4719 19.6121 64.195 19.5608 63.9386 19.5608C63.6514 19.5608 63.4155 19.6223 63.2617 19.7351C63.0873 19.848 63.0053 20.0121 63.0053 20.2069Z" fill="black" fill-opacity="0.8956"/>
<path d="M66.4717 21.8477C66.4717 20.7708 66.7794 19.9195 67.3845 19.2836C67.9896 18.658 68.8409 18.34 69.9178 18.34C70.9332 18.34 71.7332 18.6477 72.3076 19.2528C72.8819 19.858 73.1691 20.6785 73.1691 21.7041C73.1691 22.7605 72.8614 23.6016 72.2563 24.2272C71.6512 24.8528 70.8204 25.1605 69.7742 25.1605C68.7691 25.1605 67.9589 24.8631 67.3742 24.2682C66.7691 23.6836 66.4717 22.8734 66.4717 21.8477ZM68.0614 21.7964C68.0614 22.4734 68.2153 22.9964 68.523 23.3554C68.8307 23.7144 69.2717 23.8887 69.846 23.8887C70.3999 23.8887 70.8307 23.7144 71.1178 23.3554C71.405 22.9964 71.5589 22.4631 71.5589 21.7554C71.5589 21.058 71.405 20.5246 71.1076 20.1657C70.8101 19.8067 70.3794 19.6323 69.8358 19.6323C69.2717 19.6323 68.8409 19.8169 68.523 20.1964C68.2153 20.5759 68.0614 21.099 68.0614 21.7964Z" fill="black" fill-opacity="0.8956"/>
<path d="M78.2258 19.7523V23.0959C78.2258 23.7933 78.3899 24.3062 78.7079 24.6549C79.0258 25.0036 79.5181 25.1677 80.1643 25.1677C80.3797 25.1677 80.6053 25.1472 80.8309 25.0959C81.0566 25.0446 81.2207 25.0036 81.313 24.9421V23.6703C81.2207 23.7318 81.1079 23.7831 80.9848 23.8241C80.8617 23.8651 80.7489 23.8857 80.6668 23.8857C80.3591 23.8857 80.1232 23.8036 79.9797 23.6395C79.8361 23.4754 79.7643 23.1882 79.7643 22.7882V19.7421H81.3232V18.4908H79.7745V16.5626L78.2361 17.0344V18.501H75.9489V17.7113C75.9489 17.3215 76.0309 17.0241 76.2053 16.819C76.3796 16.6139 76.6258 16.5215 76.9438 16.5215C77.1079 16.5215 77.2514 16.5421 77.3848 16.5831C77.5079 16.6241 77.6002 16.6651 77.6514 16.6959V15.3728C77.5386 15.3318 77.4155 15.3113 77.272 15.2908C77.1284 15.2703 76.9643 15.26 76.7797 15.26C76.0822 15.26 75.5079 15.4754 75.0668 15.9164C74.6258 16.3574 74.4002 16.9113 74.4002 17.5985V18.501H73.313V19.7523H74.4002V25.0139H75.9489V19.7523H78.2258V19.7523Z" fill="black" fill-opacity="0.8956"/>
<path d="M39.8359 15.92V25.0072H38.2564V17.8892H38.2359L35.4154 25.0072H34.3692L31.4769 17.8892H31.4564V25.0072H30V15.92H32.2564L34.8718 22.6585H34.9128L37.6718 15.92H39.8359Z" fill="black" fill-opacity="0.8956"/>
<rect x="0.5" y="0.5" width="89" height="31" rx="3.5" stroke="url(#paint0_linear_1602_27023)"/>
<defs>
<linearGradient id="paint0_linear_1602_27023" x1="45" y1="1" x2="45" y2="31" gradientUnits="userSpaceOnUse">
<stop offset="0.905762" stop-opacity="0.0578"/>
<stop offset="1" stop-opacity="0.1622"/>
</linearGradient>
</defs>
</svg>
