<svg width="864" height="312" viewBox="0 0 88 32" fill="none" xmlns="http://www.w3.org/2000/svg">
<rect width="864" height="312" rx="4" fill="white"/>
<rect x="0.5" y="0.5" width="87" height="31" rx="3.5" stroke="url(#paint0_linear_1534_27230)"/>
<path d="M15.5559 7H7V15.5608H15.5559V7Z" fill="#F25022"/>
<path d="M25.0002 7H16.4443V15.5608H25.0002V7Z" fill="#7FBA00"/>
<path d="M15.5559 16.4395H7V25.0002H15.5559V16.4395Z" fill="#00A4EF"/>
<path d="M25.0002 16.4395H16.4443V25.0002H25.0002V16.4395Z" fill="#FFB900"/>
<path d="M33.9922 12.6133C33.7109 12.7721 33.4128 12.8919 33.0977 12.9727C32.7826 13.0534 32.4505 13.0938 32.1016 13.0938C31.2734 13.0938 30.6159 12.8477 30.1289 12.3555C29.6419 11.8633 29.3984 11.1693 29.3984 10.2734C29.3984 9.36979 29.668 8.64974 30.207 8.11328C30.7487 7.57422 31.4466 7.30469 32.3008 7.30469C32.6185 7.30469 32.9102 7.33724 33.1758 7.40234C33.444 7.46484 33.7148 7.5651 33.9883 7.70312L33.7031 8.27734C33.474 8.15755 33.2487 8.07161 33.0273 8.01953C32.806 7.96745 32.5625 7.94141 32.2969 7.94141C31.6693 7.94141 31.1536 8.14062 30.75 8.53906C30.349 8.9375 30.1484 9.5 30.1484 10.2266C30.1484 10.9635 30.3255 11.5208 30.6797 11.8984C31.0365 12.2734 31.5365 12.4609 32.1797 12.4609C32.3906 12.4609 32.5872 12.4401 32.7695 12.3984C32.9544 12.3568 33.1237 12.2943 33.2773 12.2109V10.6875H32.0586V10.0547H33.9922V12.6133ZM38.5859 11.1094H35.7031C35.7161 11.5625 35.8372 11.9115 36.0664 12.1562C36.2956 12.3984 36.6172 12.5195 37.0312 12.5195C37.2109 12.5195 37.3945 12.4922 37.582 12.4375C37.7721 12.3802 37.9622 12.2878 38.1523 12.1602L38.4688 12.6445C38.2318 12.8008 37.9935 12.9154 37.7539 12.9883C37.5143 13.0612 37.2513 13.0977 36.9648 13.0977C36.3451 13.0977 35.862 12.9141 35.5156 12.5469C35.1693 12.1771 34.9948 11.6615 34.9922 11C34.9896 10.3411 35.1641 9.8112 35.5156 9.41016C35.8698 9.00651 36.3281 8.80469 36.8906 8.80469C37.4271 8.80469 37.8438 8.97917 38.1406 9.32812C38.4375 9.67448 38.5859 10.1576 38.5859 10.7773V11.1094ZM37.8867 10.5625C37.8841 10.1849 37.793 9.89193 37.6133 9.68359C37.4362 9.47526 37.1914 9.37109 36.8789 9.37109C36.5716 9.37109 36.3112 9.47917 36.0977 9.69531C35.8867 9.90885 35.7578 10.1979 35.7109 10.5625H37.8867ZM41.6211 12.9492C41.5091 12.9961 41.3971 13.0299 41.2852 13.0508C41.1758 13.0742 41.0521 13.0859 40.9141 13.0859C40.5781 13.0859 40.3151 12.9896 40.125 12.7969C39.9375 12.6042 39.8438 12.319 39.8438 11.9414V9.48047H39.1445V8.90234H39.8438V7.96484L40.543 7.74219V8.90234H41.5664V9.48047H40.543V11.8672C40.543 12.099 40.5846 12.2656 40.668 12.3672C40.7513 12.4688 40.8763 12.5195 41.043 12.5195C41.1211 12.5195 41.1966 12.5104 41.2695 12.4922C41.3424 12.474 41.4049 12.4518 41.457 12.4258L41.6211 12.9492ZM45.0469 8.03516C44.9089 8.03516 44.7943 7.98958 44.7031 7.89844C44.612 7.80729 44.5664 7.69661 44.5664 7.56641C44.5664 7.43099 44.612 7.31901 44.7031 7.23047C44.7943 7.13932 44.9089 7.09375 45.0469 7.09375C45.1849 7.09375 45.2995 7.13932 45.3906 7.23047C45.4844 7.31901 45.5312 7.43099 45.5312 7.56641C45.5312 7.69661 45.4844 7.80729 45.3906 7.89844C45.2995 7.98958 45.1849 8.03516 45.0469 8.03516ZM45.3867 13H44.6914V8.90234H45.3867V13ZM48.793 12.9492C48.681 12.9961 48.569 13.0299 48.457 13.0508C48.3477 13.0742 48.224 13.0859 48.0859 13.0859C47.75 13.0859 47.487 12.9896 47.2969 12.7969C47.1094 12.6042 47.0156 12.319 47.0156 11.9414V9.48047H46.3164V8.90234H47.0156V7.96484L47.7148 7.74219V8.90234H48.7383V9.48047H47.7148V11.8672C47.7148 12.099 47.7565 12.2656 47.8398 12.3672C47.9232 12.4688 48.0482 12.5195 48.2148 12.5195C48.293 12.5195 48.3685 12.5104 48.4414 12.4922C48.5143 12.474 48.5768 12.4518 48.6289 12.4258L48.793 12.9492ZM53.8359 7.63281C53.763 7.60677 53.6966 7.58854 53.6367 7.57812C53.5768 7.56771 53.5143 7.5625 53.4492 7.5625C53.2331 7.5625 53.0716 7.61979 52.9648 7.73438C52.8607 7.84896 52.8086 8.01693 52.8086 8.23828V8.90234H53.75V9.48047H52.8086V13H52.1172V9.48047H51.4297V8.90234H52.1172V8.20312C52.1172 7.82031 52.2357 7.52083 52.4727 7.30469C52.7122 7.08854 53.0378 6.98047 53.4492 6.98047C53.5534 6.98047 53.6484 6.98828 53.7344 7.00391C53.8203 7.01953 53.9089 7.04167 54 7.07031L53.8359 7.63281ZM56.5859 9.49609C56.5339 9.48047 56.4857 9.46875 56.4414 9.46094C56.3971 9.45312 56.3438 9.44922 56.2812 9.44922C55.9505 9.44922 55.6901 9.58984 55.5 9.87109C55.3099 10.1497 55.2148 10.5026 55.2148 10.9297V13H54.5195V8.90234H55.2148V9.71484H55.2305C55.3242 9.42578 55.4661 9.20703 55.6562 9.05859C55.849 8.90755 56.0716 8.83203 56.3242 8.83203C56.4049 8.83203 56.474 8.83594 56.5312 8.84375C56.5911 8.85156 56.6458 8.86328 56.6953 8.87891L56.5859 9.49609ZM59.2031 13.0977C58.5911 13.0977 58.1029 12.9062 57.7383 12.5234C57.3763 12.138 57.1953 11.6276 57.1953 10.9922C57.1953 10.3073 57.3828 9.77214 57.7578 9.38672C58.1328 9.0013 58.6445 8.80729 59.293 8.80469C59.9076 8.80208 60.388 8.99089 60.7344 9.37109C61.0833 9.7487 61.2578 10.2682 61.2578 10.9297C61.2578 11.5885 61.0716 12.1146 60.6992 12.5078C60.3268 12.901 59.8281 13.0977 59.2031 13.0977ZM59.25 12.5195C59.6667 12.5195 59.9857 12.3841 60.207 12.1133C60.431 11.8398 60.543 11.4531 60.543 10.9531C60.543 10.4479 60.431 10.0599 60.207 9.78906C59.9831 9.51823 59.6641 9.38281 59.25 9.38281C58.8359 9.38281 58.5078 9.52474 58.2656 9.80859C58.026 10.0898 57.9062 10.4779 57.9062 10.9727C57.9062 11.4544 58.0273 11.8333 58.2695 12.1094C58.5117 12.3828 58.8385 12.5195 59.25 12.5195ZM68.207 13H67.5078V10.6445C67.5078 10.1992 67.4388 9.8776 67.3008 9.67969C67.1628 9.48177 66.9323 9.38281 66.6094 9.38281C66.3333 9.38281 66.099 9.50781 65.9062 9.75781C65.7161 10.0078 65.6211 10.3099 65.6211 10.6641V13H64.9258V10.5703C64.9258 10.1745 64.849 9.8776 64.6953 9.67969C64.5443 9.48177 64.3164 9.38281 64.0117 9.38281C63.7279 9.38281 63.4935 9.5013 63.3086 9.73828C63.1263 9.97526 63.0352 10.2852 63.0352 10.668V13H62.3398V8.90234H63.0352V9.55078H63.0508C63.1966 9.30339 63.3763 9.11719 63.5898 8.99219C63.8034 8.86719 64.0495 8.80469 64.3281 8.80469C64.6094 8.80469 64.8529 8.88151 65.0586 9.03516C65.2669 9.1888 65.4115 9.39323 65.4922 9.64844C65.6432 9.36719 65.832 9.15625 66.0586 9.01562C66.2878 8.875 66.5521 8.80469 66.8516 8.80469C67.3021 8.80469 67.6406 8.94401 67.8672 9.22266C68.0938 9.4987 68.207 9.91536 68.207 10.4727V13Z" fill="black" fill-opacity="0.8956"/>
<path d="M39.9053 25H38.4072V19.1919C38.4072 18.9295 38.4136 18.6439 38.4263 18.335C38.4432 18.0218 38.4644 17.6896 38.4897 17.3384H38.4517C38.4009 17.5796 38.3522 17.7869 38.3057 17.9604C38.2633 18.1297 38.221 18.2651 38.1787 18.3667L35.5063 25H34.4653L31.7803 18.4238C31.7464 18.3307 31.7041 18.1932 31.6533 18.0112C31.6068 17.8293 31.556 17.605 31.501 17.3384H31.4629C31.4883 17.6431 31.5052 17.9668 31.5137 18.3096C31.5221 18.6481 31.5264 19.0057 31.5264 19.3823V25H30.1299V15.8975H32.2627L34.6304 21.8135C34.7235 22.0378 34.7996 22.2451 34.8589 22.4355C34.9224 22.6217 34.971 22.7952 35.0049 22.9561H35.043C35.1191 22.7148 35.1911 22.4969 35.2588 22.3022C35.3265 22.1076 35.39 21.9383 35.4492 21.7944L37.8486 15.8975H39.9053V25ZM42.249 17.2432C41.9781 17.2432 41.7539 17.1564 41.5761 16.9829C41.3984 16.8094 41.3095 16.5957 41.3095 16.3418C41.3095 16.0794 41.3984 15.8636 41.5761 15.6943C41.7539 15.5251 41.9781 15.4404 42.249 15.4404C42.524 15.4404 42.7504 15.5251 42.9282 15.6943C43.1059 15.8636 43.1948 16.0794 43.1948 16.3418C43.1948 16.5999 43.1059 16.8158 42.9282 16.9893C42.7504 17.1585 42.524 17.2432 42.249 17.2432ZM42.979 25H41.5V18.5H42.979V25ZM49.29 24.6001C48.9683 24.7948 48.6488 24.9344 48.3315 25.019C48.0141 25.1079 47.6692 25.1523 47.2968 25.1523C46.2981 25.1523 45.4983 24.8604 44.8974 24.2764C44.3007 23.6924 44.0024 22.8989 44.0024 21.896C44.0024 20.8169 44.3113 19.9557 44.9291 19.3125C45.5512 18.6693 46.3891 18.3477 47.4428 18.3477C47.8109 18.3477 48.1453 18.3879 48.4457 18.4683C48.7504 18.5444 49.0593 18.6714 49.3725 18.8491L48.7948 19.8774C48.5748 19.7547 48.359 19.6659 48.1474 19.6108C47.9358 19.5516 47.7052 19.522 47.4555 19.522C46.8334 19.522 46.3531 19.7272 46.0146 20.1377C45.676 20.5482 45.5068 21.092 45.5068 21.769C45.5068 22.48 45.6887 23.0259 46.0526 23.4067C46.4208 23.7876 46.8821 23.978 47.4364 23.978C47.6057 23.978 47.8004 23.9484 48.0204 23.8892C48.2405 23.8257 48.4626 23.7262 48.6869 23.5908L49.29 24.6001ZM53.6776 19.7378C53.5972 19.7166 53.5189 19.7018 53.4427 19.6934C53.3708 19.6807 53.2862 19.6743 53.1888 19.6743C52.6599 19.6743 52.2536 19.869 51.9701 20.2583C51.6866 20.6476 51.5448 21.1554 51.5448 21.7817V25H50.0658V18.5H51.5448V19.7505H51.5702C51.7225 19.3019 51.9468 18.9634 52.243 18.7349C52.5393 18.5021 52.8884 18.3857 53.2904 18.3857C53.4047 18.3857 53.5062 18.3921 53.5951 18.4048C53.6882 18.4175 53.7771 18.4365 53.8617 18.4619L53.6776 19.7378ZM57.1639 25.1523C56.1483 25.1523 55.3421 24.8498 54.7454 24.2446C54.153 23.6353 53.8568 22.8206 53.8568 21.8008C53.861 20.7217 54.1699 19.8774 54.7835 19.2681C55.3971 18.6545 56.2329 18.3477 57.2908 18.3477C58.3107 18.3434 59.1063 18.6439 59.6776 19.249C60.2531 19.8499 60.5408 20.6646 60.5408 21.6929C60.5408 22.7508 60.2362 23.5929 59.6268 24.2192C59.0216 24.8413 58.2007 25.1523 57.1639 25.1523ZM57.2337 23.978C57.8219 23.978 58.2684 23.7855 58.5731 23.4004C58.882 23.0153 59.0364 22.4588 59.0364 21.731C59.0364 21.0116 58.882 20.4635 58.5731 20.0869C58.2642 19.7103 57.8156 19.522 57.2274 19.522C56.6476 19.522 56.1906 19.7209 55.8563 20.1187C55.5262 20.5164 55.3612 21.0666 55.3612 21.769C55.3612 22.4757 55.5262 23.0216 55.8563 23.4067C56.1864 23.7876 56.6455 23.978 57.2337 23.978ZM60.9358 24.4795L61.5769 23.4385C61.8308 23.6162 62.0996 23.7601 62.3831 23.8701C62.6708 23.9759 62.9819 24.0288 63.3162 24.0288C63.6801 24.0288 63.9615 23.9632 64.1604 23.832C64.3636 23.6966 64.4651 23.4956 64.4651 23.229C64.4651 23.0174 64.3805 22.8418 64.2112 22.7021C64.0462 22.5583 63.7626 22.4398 63.3606 22.3467C62.5481 22.1562 61.9768 21.9045 61.6468 21.5913C61.3209 21.2782 61.158 20.8656 61.158 20.3535C61.158 19.7653 61.3865 19.285 61.8435 18.9126C62.3006 18.536 62.8994 18.3477 63.6399 18.3477C64.0081 18.3477 64.3593 18.3963 64.6936 18.4937C65.0279 18.5868 65.3538 18.737 65.6712 18.9443L65.0745 19.96C64.7952 19.7822 64.5392 19.6553 64.3064 19.5791C64.0737 19.5029 63.8346 19.4648 63.5891 19.4648C63.2421 19.4648 62.9713 19.5304 62.7766 19.6616C62.5862 19.7886 62.491 19.9663 62.491 20.1948C62.491 20.436 62.5883 20.6159 62.783 20.7344C62.9819 20.8486 63.3141 20.9608 63.7796 21.0708C64.482 21.2401 64.9962 21.4855 65.3221 21.8071C65.6479 22.1245 65.8108 22.5498 65.8108 23.083C65.8108 23.7135 65.5802 24.2171 65.1189 24.5938C64.6619 24.9661 64.0419 25.1523 63.2591 25.1523C62.8359 25.1523 62.4296 25.0973 62.0403 24.9873C61.6552 24.873 61.2871 24.7038 60.9358 24.4795ZM69.5827 25.1523C68.5671 25.1523 67.761 24.8498 67.1643 24.2446C66.5718 23.6353 66.2756 22.8206 66.2756 21.8008C66.2799 20.7217 66.5888 19.8774 67.2024 19.2681C67.816 18.6545 68.6518 18.3477 69.7097 18.3477C70.7296 18.3434 71.5251 18.6439 72.0964 19.249C72.6719 19.8499 72.9597 20.6646 72.9597 21.6929C72.9597 22.7508 72.655 23.5929 72.0456 24.2192C71.4405 24.8413 70.6195 25.1523 69.5827 25.1523ZM69.6526 23.978C70.2408 23.978 70.6872 23.7855 70.9919 23.4004C71.3008 23.0153 71.4553 22.4588 71.4553 21.731C71.4553 21.0116 71.3008 20.4635 70.9919 20.0869C70.683 19.7103 70.2344 19.522 69.6462 19.522C69.0665 19.522 68.6094 19.7209 68.2751 20.1187C67.9451 20.5164 67.78 21.0666 67.78 21.769C67.78 22.4757 67.9451 23.0216 68.2751 23.4067C68.6052 23.7876 69.0644 23.978 69.6526 23.978ZM77.2839 16.5386C77.1654 16.492 77.0575 16.4603 76.9601 16.4434C76.8628 16.4222 76.757 16.4116 76.6428 16.4116C76.3296 16.4116 76.0926 16.5026 75.9318 16.6846C75.7753 16.8623 75.697 17.1204 75.697 17.459V18.5H77.2014V19.6553H75.697V25H74.2243V19.6553H73.1198V18.5H74.2243V17.3828C74.2243 16.7227 74.4359 16.2 74.8591 15.8149C75.2865 15.4256 75.8514 15.231 76.5539 15.231C76.7739 15.231 76.9644 15.2458 77.1252 15.2754C77.286 15.305 77.4531 15.3473 77.6267 15.4023L77.2839 16.5386ZM81.5509 24.9111C81.3605 24.9915 81.1616 25.0508 80.9542 25.0889C80.7469 25.127 80.5247 25.146 80.2877 25.146C79.6868 25.146 79.2235 24.9873 78.8976 24.6699C78.576 24.3483 78.4152 23.8701 78.4152 23.2354V19.6553H77.3234V18.5H78.4152V16.9194L79.8878 16.4751V18.5H81.443V19.6553H79.8878V23.1147C79.8878 23.4321 79.945 23.6606 80.0592 23.8003C80.1777 23.9399 80.3597 24.0098 80.6051 24.0098C80.7236 24.0098 80.8358 23.9971 80.9416 23.9717C81.0516 23.9421 81.1489 23.9061 81.2335 23.8638L81.5509 24.9111Z" fill="black" fill-opacity="0.8956"/>
<defs>
<linearGradient id="paint0_linear_1534_27230" x1="44" y1="0" x2="44" y2="32" gradientUnits="userSpaceOnUse">
<stop offset="0.905762" stop-opacity="0.0578"/>
<stop offset="1" stop-opacity="0.1622"/>
</linearGradient>
</defs>
</svg>
