<svg width="864" height="312" viewBox="0 0 88 32" fill="none" xmlns="http://www.w3.org/2000/svg">
<path d="M0 4C0 1.79086 1.79086 0 4 0H84C86.2091 0 88 1.79086 88 4V28C88 30.2091 86.2091 32 84 32H4C1.79086 32 0 30.2091 0 28V4Z" fill="white"/>
<path d="M15.5949 7.40039H7V15.9953H15.5949V7.40039Z" fill="#F25022"/>
<path d="M25.0822 7.40039H16.4873V15.9953H25.0822V7.40039Z" fill="#7FBA00"/>
<path d="M15.5949 16.877H7V25.4718H15.5949V16.877Z" fill="#00A4EF"/>
<path d="M25.0822 16.877H16.4873V25.4718H25.0822V16.877Z" fill="#FFB900"/>
<path d="M4 1H84V-1H4V1ZM87 4V28H89V4H87ZM84 31H4V33H84V31ZM1 28V4H-1V28H1ZM4 31C2.34315 31 1 29.6569 1 28H-1C-1 30.7614 1.23858 33 4 33V31ZM87 28C87 29.6569 85.6569 31 84 31V33C86.7614 33 89 30.7614 89 28H87ZM84 1C85.6569 1 87 2.34315 87 4H89C89 1.23858 86.7614 -1 84 -1V1ZM4 -1C1.23858 -1 -1 1.23858 -1 4H1C1 2.34315 2.34315 1 4 1V-1Z" fill="url(#paint0_linear_1511_26381)"/>
<path d="M34.792 12.6133C34.5107 12.7721 34.2126 12.8919 33.8975 12.9727C33.5824 13.0534 33.2503 13.0938 32.9014 13.0938C32.0732 13.0938 31.4157 12.8477 30.9287 12.3555C30.4417 11.8633 30.1982 11.1693 30.1982 10.2734C30.1982 9.36979 30.4678 8.64974 31.0068 8.11328C31.5485 7.57422 32.2464 7.30469 33.1006 7.30469C33.4183 7.30469 33.71 7.33724 33.9756 7.40234C34.2438 7.46484 34.5146 7.5651 34.7881 7.70312L34.5029 8.27734C34.2738 8.15755 34.0485 8.07161 33.8271 8.01953C33.6058 7.96745 33.3623 7.94141 33.0967 7.94141C32.4691 7.94141 31.9535 8.14062 31.5498 8.53906C31.1488 8.9375 30.9482 9.5 30.9482 10.2266C30.9482 10.9635 31.1253 11.5208 31.4795 11.8984C31.8363 12.2734 32.3363 12.4609 32.9795 12.4609C33.1904 12.4609 33.387 12.4401 33.5693 12.3984C33.7542 12.3568 33.9235 12.2943 34.0771 12.2109V10.6875H32.8584V10.0547H34.792V12.6133ZM39.3857 11.1094H36.5029C36.516 11.5625 36.637 11.9115 36.8662 12.1562C37.0954 12.3984 37.417 12.5195 37.8311 12.5195C38.0107 12.5195 38.1943 12.4922 38.3818 12.4375C38.5719 12.3802 38.762 12.2878 38.9521 12.1602L39.2686 12.6445C39.0316 12.8008 38.7933 12.9154 38.5537 12.9883C38.3141 13.0612 38.0511 13.0977 37.7646 13.0977C37.1449 13.0977 36.6618 12.9141 36.3154 12.5469C35.9691 12.1771 35.7946 11.6615 35.792 11C35.7894 10.3411 35.9639 9.8112 36.3154 9.41016C36.6696 9.00651 37.1279 8.80469 37.6904 8.80469C38.2269 8.80469 38.6436 8.97917 38.9404 9.32812C39.2373 9.67448 39.3857 10.1576 39.3857 10.7773V11.1094ZM38.6865 10.5625C38.6839 10.1849 38.5928 9.89193 38.4131 9.68359C38.236 9.47526 37.9912 9.37109 37.6787 9.37109C37.3714 9.37109 37.111 9.47917 36.8975 9.69531C36.6865 9.90885 36.5576 10.1979 36.5107 10.5625H38.6865ZM42.4209 12.9492C42.3089 12.9961 42.1969 13.0299 42.085 13.0508C41.9756 13.0742 41.8519 13.0859 41.7139 13.0859C41.3779 13.0859 41.1149 12.9896 40.9248 12.7969C40.7373 12.6042 40.6436 12.319 40.6436 11.9414V9.48047H39.9443V8.90234H40.6436V7.96484L41.3428 7.74219V8.90234H42.3662V9.48047H41.3428V11.8672C41.3428 12.099 41.3844 12.2656 41.4678 12.3672C41.5511 12.4688 41.6761 12.5195 41.8428 12.5195C41.9209 12.5195 41.9964 12.5104 42.0693 12.4922C42.1423 12.474 42.2048 12.4518 42.2568 12.4258L42.4209 12.9492ZM45.8467 8.03516C45.7087 8.03516 45.5941 7.98958 45.5029 7.89844C45.4118 7.80729 45.3662 7.69661 45.3662 7.56641C45.3662 7.43099 45.4118 7.31901 45.5029 7.23047C45.5941 7.13932 45.7087 7.09375 45.8467 7.09375C45.9847 7.09375 46.0993 7.13932 46.1904 7.23047C46.2842 7.31901 46.3311 7.43099 46.3311 7.56641C46.3311 7.69661 46.2842 7.80729 46.1904 7.89844C46.0993 7.98958 45.9847 8.03516 45.8467 8.03516ZM46.1865 13H45.4912V8.90234H46.1865V13ZM49.5928 12.9492C49.4808 12.9961 49.3688 13.0299 49.2568 13.0508C49.1475 13.0742 49.0238 13.0859 48.8857 13.0859C48.5498 13.0859 48.2868 12.9896 48.0967 12.7969C47.9092 12.6042 47.8154 12.319 47.8154 11.9414V9.48047H47.1162V8.90234H47.8154V7.96484L48.5146 7.74219V8.90234H49.5381V9.48047H48.5146V11.8672C48.5146 12.099 48.5563 12.2656 48.6396 12.3672C48.723 12.4688 48.848 12.5195 49.0146 12.5195C49.0928 12.5195 49.1683 12.5104 49.2412 12.4922C49.3141 12.474 49.3766 12.4518 49.4287 12.4258L49.5928 12.9492ZM54.6357 7.63281C54.5628 7.60677 54.4964 7.58854 54.4365 7.57812C54.3766 7.56771 54.3141 7.5625 54.249 7.5625C54.0329 7.5625 53.8714 7.61979 53.7646 7.73438C53.6605 7.84896 53.6084 8.01693 53.6084 8.23828V8.90234H54.5498V9.48047H53.6084V13H52.917V9.48047H52.2295V8.90234H52.917V8.20312C52.917 7.82031 53.0355 7.52083 53.2725 7.30469C53.512 7.08854 53.8376 6.98047 54.249 6.98047C54.3532 6.98047 54.4482 6.98828 54.5342 7.00391C54.6201 7.01953 54.7087 7.04167 54.7998 7.07031L54.6357 7.63281ZM57.3857 9.49609C57.3337 9.48047 57.2855 9.46875 57.2412 9.46094C57.1969 9.45312 57.1436 9.44922 57.0811 9.44922C56.7503 9.44922 56.4899 9.58984 56.2998 9.87109C56.1097 10.1497 56.0146 10.5026 56.0146 10.9297V13H55.3193V8.90234H56.0146V9.71484H56.0303C56.124 9.42578 56.266 9.20703 56.4561 9.05859C56.6488 8.90755 56.8714 8.83203 57.124 8.83203C57.2048 8.83203 57.2738 8.83594 57.3311 8.84375C57.391 8.85156 57.4456 8.86328 57.4951 8.87891L57.3857 9.49609ZM60.0029 13.0977C59.391 13.0977 58.9027 12.9062 58.5381 12.5234C58.1761 12.138 57.9951 11.6276 57.9951 10.9922C57.9951 10.3073 58.1826 9.77214 58.5576 9.38672C58.9326 9.0013 59.4443 8.80729 60.0928 8.80469C60.7074 8.80208 61.1878 8.99089 61.5342 9.37109C61.8831 9.7487 62.0576 10.2682 62.0576 10.9297C62.0576 11.5885 61.8714 12.1146 61.499 12.5078C61.1266 12.901 60.6279 13.0977 60.0029 13.0977ZM60.0498 12.5195C60.4665 12.5195 60.7855 12.3841 61.0068 12.1133C61.2308 11.8398 61.3428 11.4531 61.3428 10.9531C61.3428 10.4479 61.2308 10.0599 61.0068 9.78906C60.7829 9.51823 60.4639 9.38281 60.0498 9.38281C59.6357 9.38281 59.3076 9.52474 59.0654 9.80859C58.8258 10.0898 58.7061 10.4779 58.7061 10.9727C58.7061 11.4544 58.8271 11.8333 59.0693 12.1094C59.3115 12.3828 59.6383 12.5195 60.0498 12.5195ZM69.0068 13H68.3076V10.6445C68.3076 10.1992 68.2386 9.8776 68.1006 9.67969C67.9626 9.48177 67.7321 9.38281 67.4092 9.38281C67.1331 9.38281 66.8988 9.50781 66.7061 9.75781C66.516 10.0078 66.4209 10.3099 66.4209 10.6641V13H65.7256V10.5703C65.7256 10.1745 65.6488 9.8776 65.4951 9.67969C65.3441 9.48177 65.1162 9.38281 64.8115 9.38281C64.5277 9.38281 64.2933 9.5013 64.1084 9.73828C63.9261 9.97526 63.835 10.2852 63.835 10.668V13H63.1396V8.90234H63.835V9.55078H63.8506C63.9964 9.30339 64.1761 9.11719 64.3896 8.99219C64.6032 8.86719 64.8493 8.80469 65.1279 8.80469C65.4092 8.80469 65.6527 8.88151 65.8584 9.03516C66.0667 9.1888 66.2113 9.39323 66.292 9.64844C66.443 9.36719 66.6318 9.15625 66.8584 9.01562C67.0876 8.875 67.3519 8.80469 67.6514 8.80469C68.1019 8.80469 68.4404 8.94401 68.667 9.22266C68.8936 9.4987 69.0068 9.91536 69.0068 10.4727V13Z" fill="black"/>
<path d="M40.3052 25.5H38.8071V19.6919C38.8071 19.4295 38.8135 19.1439 38.8262 18.835C38.8431 18.5218 38.8643 18.1896 38.8896 17.8384H38.8516C38.8008 18.0796 38.7521 18.2869 38.7056 18.4604C38.6632 18.6297 38.6209 18.7651 38.5786 18.8667L35.9062 25.5H34.8652L32.1802 18.9238C32.1463 18.8307 32.104 18.6932 32.0532 18.5112C32.0067 18.3293 31.9559 18.105 31.9009 17.8384H31.8628C31.8882 18.1431 31.9051 18.4668 31.9136 18.8096C31.922 19.1481 31.9263 19.5057 31.9263 19.8823V25.5H30.5298V16.3975H32.6626L35.0303 22.3135C35.1234 22.5378 35.1995 22.7451 35.2588 22.9355C35.3223 23.1217 35.3709 23.2952 35.4048 23.4561H35.4429C35.519 23.2148 35.591 22.9969 35.6587 22.8022C35.7264 22.6076 35.7899 22.4383 35.8491 22.2944L38.2485 16.3975H40.3052V25.5ZM42.6489 17.7432C42.378 17.7432 42.1538 17.6564 41.976 17.4829C41.7983 17.3094 41.7094 17.0957 41.7094 16.8418C41.7094 16.5794 41.7983 16.3636 41.976 16.1943C42.1538 16.0251 42.378 15.9404 42.6489 15.9404C42.9239 15.9404 43.1503 16.0251 43.3281 16.1943C43.5058 16.3636 43.5947 16.5794 43.5947 16.8418C43.5947 17.0999 43.5058 17.3158 43.3281 17.4893C43.1503 17.6585 42.9239 17.7432 42.6489 17.7432ZM43.3789 25.5H41.8999V19H43.3789V25.5ZM49.6899 25.1001C49.3682 25.2948 49.0487 25.4344 48.7314 25.519C48.414 25.6079 48.0691 25.6523 47.6967 25.6523C46.698 25.6523 45.8982 25.3604 45.2973 24.7764C44.7006 24.1924 44.4023 23.3989 44.4023 22.396C44.4023 21.3169 44.7112 20.4557 45.329 19.8125C45.9511 19.1693 46.789 18.8477 47.8427 18.8477C48.2109 18.8477 48.5452 18.8879 48.8456 18.9683C49.1503 19.0444 49.4592 19.1714 49.7724 19.3491L49.1947 20.3774C48.9747 20.2547 48.7589 20.1659 48.5473 20.1108C48.3357 20.0516 48.1051 20.022 47.8554 20.022C47.2333 20.022 46.753 20.2272 46.4145 20.6377C46.0759 21.0482 45.9067 21.592 45.9067 22.269C45.9067 22.98 46.0886 23.5259 46.4526 23.9067C46.8207 24.2876 47.282 24.478 47.8363 24.478C48.0056 24.478 48.2003 24.4484 48.4203 24.3892C48.6404 24.3257 48.8625 24.2262 49.0868 24.0908L49.6899 25.1001ZM54.0775 20.2378C53.9971 20.2166 53.9188 20.2018 53.8426 20.1934C53.7707 20.1807 53.6861 20.1743 53.5887 20.1743C53.0598 20.1743 52.6535 20.369 52.37 20.7583C52.0865 21.1476 51.9447 21.6554 51.9447 22.2817V25.5H50.4657V19H51.9447V20.2505H51.9701C52.1224 19.8019 52.3467 19.4634 52.6429 19.2349C52.9392 19.0021 53.2883 18.8857 53.6903 18.8857C53.8046 18.8857 53.9061 18.8921 53.995 18.9048C54.0881 18.9175 54.177 18.9365 54.2616 18.9619L54.0775 20.2378ZM57.5638 25.6523C56.5482 25.6523 55.742 25.3498 55.1453 24.7446C54.5529 24.1353 54.2567 23.3206 54.2567 22.3008C54.2609 21.2217 54.5698 20.3774 55.1834 19.7681C55.797 19.1545 56.6328 18.8477 57.6907 18.8477C58.7106 18.8434 59.5062 19.1439 60.0775 19.749C60.653 20.3499 60.9407 21.1646 60.9407 22.1929C60.9407 23.2508 60.6361 24.0929 60.0267 24.7192C59.4215 25.3413 58.6006 25.6523 57.5638 25.6523ZM57.6336 24.478C58.2218 24.478 58.6683 24.2855 58.973 23.9004C59.2819 23.5153 59.4364 22.9588 59.4364 22.231C59.4364 21.5116 59.2819 20.9635 58.973 20.5869C58.6641 20.2103 58.2155 20.022 57.6273 20.022C57.0475 20.022 56.5905 20.2209 56.2562 20.6187C55.9261 21.0164 55.7611 21.5666 55.7611 22.269C55.7611 22.9757 55.9261 23.5216 56.2562 23.9067C56.5863 24.2876 57.0454 24.478 57.6336 24.478ZM61.3357 24.9795L61.9768 23.9385C62.2307 24.1162 62.4995 24.2601 62.783 24.3701C63.0707 24.4759 63.3818 24.5288 63.7161 24.5288C64.08 24.5288 64.3614 24.4632 64.5603 24.332C64.7635 24.1966 64.865 23.9956 64.865 23.729C64.865 23.5174 64.7804 23.3418 64.6111 23.2021C64.4461 23.0583 64.1625 22.9398 63.7605 22.8467C62.948 22.6562 62.3767 22.4045 62.0467 22.0913C61.7208 21.7782 61.5579 21.3656 61.5579 20.8535C61.5579 20.2653 61.7864 19.785 62.2434 19.4126C62.7005 19.036 63.2993 18.8477 64.0398 18.8477C64.408 18.8477 64.7592 18.8963 65.0935 18.9937C65.4278 19.0868 65.7537 19.237 66.0711 19.4443L65.4744 20.46C65.1951 20.2822 64.9391 20.1553 64.7063 20.0791C64.4736 20.0029 64.2345 19.9648 63.989 19.9648C63.642 19.9648 63.3712 20.0304 63.1765 20.1616C62.9861 20.2886 62.8909 20.4663 62.8909 20.6948C62.8909 20.936 62.9882 21.1159 63.1829 21.2344C63.3818 21.3486 63.714 21.4608 64.1795 21.5708C64.8819 21.7401 65.3961 21.9855 65.722 22.3071C66.0478 22.6245 66.2107 23.0498 66.2107 23.583C66.2107 24.2135 65.9801 24.7171 65.5188 25.0938C65.0618 25.4661 64.4418 25.6523 63.659 25.6523C63.2358 25.6523 62.8295 25.5973 62.4402 25.4873C62.0551 25.373 61.687 25.2038 61.3357 24.9795ZM69.9827 25.6523C68.967 25.6523 68.1609 25.3498 67.5642 24.7446C66.9717 24.1353 66.6755 23.3206 66.6755 22.3008C66.6798 21.2217 66.9887 20.3774 67.6023 19.7681C68.2159 19.1545 69.0517 18.8477 70.1096 18.8477C71.1295 18.8434 71.925 19.1439 72.4963 19.749C73.0718 20.3499 73.3596 21.1646 73.3596 22.1929C73.3596 23.2508 73.0549 24.0929 72.4455 24.7192C71.8404 25.3413 71.0194 25.6523 69.9827 25.6523ZM70.0525 24.478C70.6407 24.478 71.0871 24.2855 71.3918 23.9004C71.7007 23.5153 71.8552 22.9588 71.8552 22.231C71.8552 21.5116 71.7007 20.9635 71.3918 20.5869C71.0829 20.2103 70.6343 20.022 70.0461 20.022C69.4664 20.022 69.0093 20.2209 68.675 20.6187C68.345 21.0164 68.1799 21.5666 68.1799 22.269C68.1799 22.9757 68.345 23.5216 68.675 23.9067C69.0051 24.2876 69.4643 24.478 70.0525 24.478ZM77.6838 17.0386C77.5653 16.992 77.4574 16.9603 77.3601 16.9434C77.2627 16.9222 77.1569 16.9116 77.0427 16.9116C76.7295 16.9116 76.4925 17.0026 76.3317 17.1846C76.1752 17.3623 76.0969 17.6204 76.0969 17.959V19H77.6013V20.1553H76.0969V25.5H74.6242V20.1553H73.5197V19H74.6242V17.8828C74.6242 17.2227 74.8358 16.7 75.259 16.3149C75.6864 15.9256 76.2513 15.731 76.9538 15.731C77.1739 15.731 77.3643 15.7458 77.5251 15.7754C77.6859 15.805 77.8531 15.8473 78.0266 15.9023L77.6838 17.0386ZM81.9508 25.4111C81.7604 25.4915 81.5615 25.5508 81.3541 25.5889C81.1468 25.627 80.9246 25.646 80.6876 25.646C80.0867 25.646 79.6234 25.4873 79.2975 25.1699C78.9759 24.8483 78.8151 24.3701 78.8151 23.7354V20.1553H77.7233V19H78.8151V17.4194L80.2877 16.9751V19H81.8429V20.1553H80.2877V23.6147C80.2877 23.9321 80.3449 24.1606 80.4591 24.3003C80.5776 24.4399 80.7596 24.5098 81.005 24.5098C81.1235 24.5098 81.2357 24.4971 81.3415 24.4717C81.4515 24.4421 81.5488 24.4061 81.6334 24.3638L81.9508 25.4111Z" fill="black"/>
<defs>
<linearGradient id="paint0_linear_1511_26381" x1="44" y1="0" x2="44" y2="32" gradientUnits="userSpaceOnUse">
<stop offset="0.905762" stop-opacity="0.0578"/>
<stop offset="1" stop-opacity="0.1622"/>
</linearGradient>
</defs>
</svg>
