<svg width="130" height="32" viewBox="0 0 130 32" fill="none" xmlns="http://www.w3.org/2000/svg">
<rect x="0.5" y="0.5" width="129" height="31" rx="3.5" fill="white" fill-opacity="0.7"/>
<path d="M15.5559 7H7V15.5608H15.5559V7Z" fill="#F25022"/>
<path d="M25.0001 7H16.4442V15.5608H25.0001V7Z" fill="#7FBA00"/>
<path d="M15.5559 16.4395H7V25.0002H15.5559V16.4395Z" fill="#00A4EF"/>
<path d="M25.0002 16.4395H16.4443V25.0002H25.0002V16.4395Z" fill="#FFB900"/>
<path d="M32.7109 13H29.7656V7.39844H30.4766V12.3672H32.7109V13ZM36.5 13H35.8086V12.3555H35.793C35.6523 12.6003 35.4779 12.7852 35.2695 12.9102C35.0612 13.0352 34.819 13.0977 34.543 13.0977C34.1576 13.0977 33.8464 12.9857 33.6094 12.7617C33.3724 12.5378 33.2539 12.2422 33.2539 11.875C33.2539 11.5182 33.3737 11.2253 33.6133 10.9961C33.8529 10.7669 34.1979 10.6198 34.6484 10.5547L35.8125 10.3984V10.3047C35.8125 9.97396 35.7331 9.73568 35.5742 9.58984C35.418 9.44401 35.207 9.37109 34.9414 9.37109C34.7305 9.37109 34.5247 9.41146 34.3242 9.49219C34.1237 9.57292 33.9336 9.69401 33.7539 9.85547L33.375 9.43359C33.6068 9.22005 33.8542 9.0625 34.1172 8.96094C34.3828 8.85677 34.6732 8.80469 34.9883 8.80469C35.4883 8.80469 35.8646 8.93359 36.1172 9.19141C36.3724 9.44922 36.5 9.83594 36.5 10.3516V13ZM35.8125 11.3281V10.9336L34.8359 11.0664C34.5365 11.1081 34.3125 11.1836 34.1641 11.293C34.0156 11.4023 33.9414 11.5742 33.9414 11.8086C33.9414 12.0404 34.0104 12.2201 34.1484 12.3477C34.2891 12.4753 34.4635 12.5391 34.6719 12.5391C35.0156 12.5391 35.2917 12.4258 35.5 12.1992C35.7083 11.9701 35.8125 11.6797 35.8125 11.3281ZM40.7422 13H40.0508V12.3555H40.0352C39.8945 12.6003 39.7201 12.7852 39.5117 12.9102C39.3034 13.0352 39.0612 13.0977 38.7852 13.0977C38.3997 13.0977 38.0885 12.9857 37.8516 12.7617C37.6146 12.5378 37.4961 12.2422 37.4961 11.875C37.4961 11.5182 37.6159 11.2253 37.8555 10.9961C38.0951 10.7669 38.4401 10.6198 38.8906 10.5547L40.0547 10.3984V10.3047C40.0547 9.97396 39.9753 9.73568 39.8164 9.58984C39.6602 9.44401 39.4492 9.37109 39.1836 9.37109C38.9727 9.37109 38.7669 9.41146 38.5664 9.49219C38.3659 9.57292 38.1758 9.69401 37.9961 9.85547L37.6172 9.43359C37.849 9.22005 38.0964 9.0625 38.3594 8.96094C38.625 8.85677 38.9154 8.80469 39.2305 8.80469C39.7305 8.80469 40.1068 8.93359 40.3594 9.19141C40.6146 9.44922 40.7422 9.83594 40.7422 10.3516V13ZM40.0547 11.3281V10.9336L39.0781 11.0664C38.7786 11.1081 38.5547 11.1836 38.4062 11.293C38.2578 11.4023 38.1836 11.5742 38.1836 11.8086C38.1836 12.0404 38.2526 12.2201 38.3906 12.3477C38.5312 12.4753 38.7057 12.5391 38.9141 12.5391C39.2578 12.5391 39.5339 12.4258 39.7422 12.1992C39.9505 11.9701 40.0547 11.6797 40.0547 11.3281ZM44.8633 12.3125C44.7122 12.5729 44.5195 12.7695 44.2852 12.9023C44.0534 13.0326 43.7799 13.0977 43.4648 13.0977C42.9492 13.0977 42.5365 12.9141 42.2266 12.5469C41.9193 12.1797 41.7656 11.6797 41.7656 11.0469C41.7656 10.3672 41.9362 9.82422 42.2773 9.41797C42.6185 9.00911 43.0729 8.80469 43.6406 8.80469C43.9219 8.80469 44.1641 8.85938 44.3672 8.96875C44.5703 9.07812 44.7357 9.24349 44.8633 9.46484H44.8789V7.07812H45.5742V13H44.8789V12.3125H44.8633ZM42.4766 11.0117C42.4766 11.4805 42.5846 11.849 42.8008 12.1172C43.0169 12.3854 43.306 12.5195 43.668 12.5195C44.0326 12.5195 44.3255 12.3893 44.5469 12.1289C44.7682 11.8685 44.8789 11.5391 44.8789 11.1406V10.5547C44.8789 10.2266 44.7708 9.94922 44.5547 9.72266C44.3411 9.49609 44.0703 9.38281 43.7422 9.38281C43.349 9.38281 43.0391 9.52734 42.8125 9.81641C42.5885 10.1055 42.4766 10.5039 42.4766 11.0117ZM47.2812 8.03516C47.1432 8.03516 47.0286 7.98958 46.9375 7.89844C46.8464 7.80729 46.8008 7.69661 46.8008 7.56641C46.8008 7.43099 46.8464 7.31901 46.9375 7.23047C47.0286 7.13932 47.1432 7.09375 47.2812 7.09375C47.4193 7.09375 47.5339 7.13932 47.625 7.23047C47.7188 7.31901 47.7656 7.43099 47.7656 7.56641C47.7656 7.69661 47.7188 7.80729 47.625 7.89844C47.5339 7.98958 47.4193 8.03516 47.2812 8.03516ZM47.6211 13H46.9258V8.90234H47.6211V13ZM52.5586 12.7031C52.5586 13.4245 52.3724 13.9674 52 14.332C51.6302 14.6992 51.1146 14.8828 50.4531 14.8828C50.1693 14.8828 49.9062 14.8542 49.6641 14.7969C49.4219 14.7422 49.1771 14.6562 48.9297 14.5391L49.1797 14.0117C49.3932 14.1133 49.6003 14.1862 49.8008 14.2305C50.0013 14.2773 50.2174 14.3008 50.4492 14.3008C50.8919 14.3008 51.2383 14.1745 51.4883 13.9219C51.7383 13.6693 51.8633 13.293 51.8633 12.793V12.3164H51.8477C51.694 12.5768 51.5 12.7721 51.2656 12.9023C51.0312 13.0326 50.7591 13.0977 50.4492 13.0977C49.9388 13.0977 49.5273 12.9154 49.2148 12.5508C48.9049 12.1836 48.75 11.6927 48.75 11.0781C48.75 10.4036 48.9206 9.85677 49.2617 9.4375C49.6055 9.01562 50.0599 8.80469 50.625 8.80469C50.901 8.80469 51.1406 8.85938 51.3438 8.96875C51.5469 9.07812 51.7148 9.24349 51.8477 9.46484H51.8633V8.90234H52.5586V12.7031ZM51.8633 11.1445V10.5547C51.8633 10.2318 51.7552 9.95573 51.5391 9.72656C51.3255 9.4974 51.0573 9.38281 50.7344 9.38281C50.3385 9.38281 50.0273 9.52083 49.8008 9.79688C49.5742 10.0729 49.4609 10.4857 49.4609 11.0352C49.4609 11.5091 49.5664 11.875 49.7773 12.1328C49.9883 12.3906 50.2773 12.5195 50.6445 12.5195C51.0065 12.5195 51.2995 12.3906 51.5234 12.1328C51.75 11.875 51.8633 11.5456 51.8633 11.1445ZM57.2344 11.1094H54.3516C54.3646 11.5625 54.4857 11.9115 54.7148 12.1562C54.944 12.3984 55.2656 12.5195 55.6797 12.5195C55.8594 12.5195 56.043 12.4922 56.2305 12.4375C56.4206 12.3802 56.6107 12.2878 56.8008 12.1602L57.1172 12.6445C56.8802 12.8008 56.6419 12.9154 56.4023 12.9883C56.1628 13.0612 55.8997 13.0977 55.6133 13.0977C54.9935 13.0977 54.5104 12.9141 54.1641 12.5469C53.8177 12.1771 53.6432 11.6615 53.6406 11C53.638 10.3411 53.8125 9.8112 54.1641 9.41016C54.5182 9.00651 54.9766 8.80469 55.5391 8.80469C56.0755 8.80469 56.4922 8.97917 56.7891 9.32812C57.0859 9.67448 57.2344 10.1576 57.2344 10.7773V11.1094ZM56.5352 10.5625C56.5326 10.1849 56.4414 9.89193 56.2617 9.68359C56.0846 9.47526 55.8398 9.37109 55.5273 9.37109C55.2201 9.37109 54.9596 9.47917 54.7461 9.69531C54.5352 9.90885 54.4062 10.1979 54.3594 10.5625H56.5352ZM63.4062 13H62.7148V12.3555H62.6992C62.5586 12.6003 62.3841 12.7852 62.1758 12.9102C61.9674 13.0352 61.7253 13.0977 61.4492 13.0977C61.0638 13.0977 60.7526 12.9857 60.5156 12.7617C60.2786 12.5378 60.1602 12.2422 60.1602 11.875C60.1602 11.5182 60.2799 11.2253 60.5195 10.9961C60.7591 10.7669 61.1042 10.6198 61.5547 10.5547L62.7188 10.3984V10.3047C62.7188 9.97396 62.6393 9.73568 62.4805 9.58984C62.3242 9.44401 62.1133 9.37109 61.8477 9.37109C61.6367 9.37109 61.431 9.41146 61.2305 9.49219C61.0299 9.57292 60.8398 9.69401 60.6602 9.85547L60.2812 9.43359C60.513 9.22005 60.7604 9.0625 61.0234 8.96094C61.2891 8.85677 61.5794 8.80469 61.8945 8.80469C62.3945 8.80469 62.7708 8.93359 63.0234 9.19141C63.2786 9.44922 63.4062 9.83594 63.4062 10.3516V13ZM62.7188 11.3281V10.9336L61.7422 11.0664C61.4427 11.1081 61.2188 11.1836 61.0703 11.293C60.9219 11.4023 60.8477 11.5742 60.8477 11.8086C60.8477 12.0404 60.9167 12.2201 61.0547 12.3477C61.1953 12.4753 61.3698 12.5391 61.5781 12.5391C61.9219 12.5391 62.1979 12.4258 62.4062 12.1992C62.6146 11.9701 62.7188 11.6797 62.7188 11.3281ZM64.6992 13V7.07812H65.3945V13H64.6992ZM66.7461 13V7.07812H67.4414V13H66.7461ZM71.7422 13H71.0508V12.3555H71.0352C70.8945 12.6003 70.7201 12.7852 70.5117 12.9102C70.3034 13.0352 70.0612 13.0977 69.7852 13.0977C69.3997 13.0977 69.0885 12.9857 68.8516 12.7617C68.6146 12.5378 68.4961 12.2422 68.4961 11.875C68.4961 11.5182 68.6159 11.2253 68.8555 10.9961C69.0951 10.7669 69.4401 10.6198 69.8906 10.5547L71.0547 10.3984V10.3047C71.0547 9.97396 70.9753 9.73568 70.8164 9.58984C70.6602 9.44401 70.4492 9.37109 70.1836 9.37109C69.9727 9.37109 69.7669 9.41146 69.5664 9.49219C69.3659 9.57292 69.1758 9.69401 68.9961 9.85547L68.6172 9.43359C68.849 9.22005 69.0964 9.0625 69.3594 8.96094C69.625 8.85677 69.9154 8.80469 70.2305 8.80469C70.7305 8.80469 71.1068 8.93359 71.3594 9.19141C71.6146 9.44922 71.7422 9.83594 71.7422 10.3516V13ZM71.0547 11.3281V10.9336L70.0781 11.0664C69.7786 11.1081 69.5547 11.1836 69.4062 11.293C69.2578 11.4023 69.1836 11.5742 69.1836 11.8086C69.1836 12.0404 69.2526 12.2201 69.3906 12.3477C69.5312 12.4753 69.7057 12.5391 69.9141 12.5391C70.2578 12.5391 70.5339 12.4258 70.7422 12.1992C70.9505 11.9701 71.0547 11.6797 71.0547 11.3281Z" fill="black" fill-opacity="0.8956"/>
<path d="M39.8989 25H38.4009V19.1094C38.4009 18.627 38.4305 18.0366 38.4897 17.3384H38.4644C38.3713 17.7362 38.2887 18.0218 38.2168 18.1953L35.5 25H34.459L31.7358 18.2461C31.6597 18.0472 31.5793 17.7446 31.4946 17.3384H31.4692C31.5031 17.7023 31.52 18.2969 31.52 19.1221V25H30.1235V15.8975H32.25L34.6431 21.9595C34.825 22.425 34.9435 22.772 34.9985 23.0005H35.0303C35.1868 22.5223 35.3138 22.1668 35.4111 21.9341L37.8486 15.8975H39.8989V25ZM42.5286 17.1353C42.2874 17.1353 42.0801 17.057 41.9066 16.9004C41.7373 16.7438 41.6527 16.5449 41.6527 16.3037C41.6527 16.0625 41.7373 15.8615 41.9066 15.7007C42.0801 15.5399 42.2874 15.4595 42.5286 15.4595C42.7783 15.4595 42.9899 15.5399 43.1634 15.7007C43.3369 15.8615 43.4237 16.0625 43.4237 16.3037C43.4237 16.5322 43.3369 16.729 43.1634 16.894C42.9899 17.0549 42.7783 17.1353 42.5286 17.1353ZM43.2586 25H41.786V18.5H43.2586V25ZM49.6461 24.7017C49.1256 25.0021 48.5099 25.1523 47.799 25.1523C46.8341 25.1523 46.0555 24.8519 45.463 24.251C44.8706 23.6458 44.5744 22.863 44.5744 21.9023C44.5744 20.8317 44.8917 19.9727 45.5265 19.3252C46.1655 18.6735 47.0182 18.3477 48.0846 18.3477C48.6771 18.3477 49.1997 18.4513 49.6525 18.6587V20.0298C49.1997 19.6912 48.7173 19.522 48.2052 19.522C47.5831 19.522 47.0732 19.7336 46.6754 20.1567C46.2776 20.5757 46.0787 21.1258 46.0787 21.8071C46.0787 22.48 46.2649 23.0111 46.6373 23.4004C47.014 23.7897 47.5176 23.9844 48.1481 23.9844C48.6771 23.9844 49.1764 23.7961 49.6461 23.4194V24.7017ZM54.688 19.9028C54.5102 19.7632 54.2542 19.6934 53.9199 19.6934C53.484 19.6934 53.1201 19.8901 52.8281 20.2837C52.5361 20.6772 52.3901 21.2126 52.3901 21.8896V25H50.9174V18.5H52.3901V19.8394H52.4155C52.5594 19.3823 52.7794 19.0269 53.0756 18.7729C53.3761 18.5148 53.7104 18.3857 54.0786 18.3857C54.3452 18.3857 54.5483 18.4259 54.688 18.5063V19.9028ZM58.3015 25.1523C57.2986 25.1523 56.4967 24.8498 55.8958 24.2446C55.2991 23.6353 55.0008 22.8291 55.0008 21.8262C55.0008 20.7344 55.3118 19.8817 55.9339 19.2681C56.5602 18.6545 57.4023 18.3477 58.4602 18.3477C59.4759 18.3477 60.2672 18.646 60.8343 19.2427C61.4013 19.8394 61.6848 20.6667 61.6848 21.7246C61.6848 22.7614 61.378 23.5929 60.7644 24.2192C60.1551 24.8413 59.3341 25.1523 58.3015 25.1523ZM58.3714 19.522C57.7958 19.522 57.3409 19.723 57.0066 20.125C56.6723 20.527 56.5052 21.0814 56.5052 21.7881C56.5052 22.4694 56.6744 23.0068 57.013 23.4004C57.3515 23.7897 57.8043 23.9844 58.3714 23.9844C58.9511 23.9844 59.3955 23.7918 59.7044 23.4067C60.0175 23.0216 60.1741 22.4736 60.1741 21.7627C60.1741 21.0475 60.0175 20.4953 59.7044 20.106C59.3955 19.7166 58.9511 19.522 58.3714 19.522ZM62.588 24.7969V23.4321C63.1381 23.8511 63.7454 24.0605 64.4098 24.0605C65.2984 24.0605 65.7428 23.7982 65.7428 23.2734C65.7428 23.1253 65.7047 23.0005 65.6285 22.8989C65.5523 22.7931 65.4487 22.7 65.3175 22.6196C65.1905 22.5392 65.0382 22.4673 64.8605 22.4038C64.6869 22.3403 64.4923 22.2684 64.2765 22.188C64.0099 22.0822 63.7687 21.9701 63.5528 21.8516C63.3412 21.7331 63.1635 21.5998 63.0196 21.4517C62.88 21.2993 62.7742 21.1279 62.7022 20.9375C62.6303 20.7471 62.5943 20.5249 62.5943 20.271C62.5943 19.9578 62.6684 19.6828 62.8165 19.4458C62.9646 19.2046 63.1635 19.0036 63.4132 18.8428C63.6629 18.6777 63.9464 18.555 64.2638 18.4746C64.5812 18.39 64.9091 18.3477 65.2477 18.3477C65.8486 18.3477 66.386 18.4386 66.86 18.6206V19.9092C66.4029 19.596 65.8782 19.4395 65.2857 19.4395C65.0995 19.4395 64.9303 19.4585 64.7779 19.4966C64.6298 19.5347 64.5029 19.5876 64.3971 19.6553C64.2913 19.723 64.2088 19.8055 64.1495 19.9028C64.0903 19.9959 64.0606 20.0996 64.0606 20.2139C64.0606 20.3535 64.0903 20.472 64.1495 20.5693C64.2088 20.6667 64.2955 20.7534 64.4098 20.8296C64.5283 20.9015 64.6679 20.9692 64.8287 21.0327C64.9938 21.092 65.1821 21.1576 65.3937 21.2295C65.673 21.3438 65.9226 21.4601 66.1427 21.5786C66.367 21.6971 66.5574 21.8325 66.714 21.9849C66.8705 22.133 66.9911 22.3065 67.0758 22.5054C67.1604 22.7 67.2027 22.9328 67.2027 23.2036C67.2027 23.5337 67.1266 23.8215 66.9742 24.0669C66.8219 24.3123 66.6188 24.5155 66.3648 24.6763C66.1109 24.8371 65.8168 24.9556 65.4825 25.0317C65.1524 25.1121 64.8033 25.1523 64.4352 25.1523C63.7242 25.1523 63.1085 25.0339 62.588 24.7969ZM71.2924 25.1523C70.2895 25.1523 69.4876 24.8498 68.8866 24.2446C68.29 23.6353 67.9916 22.8291 67.9916 21.8262C67.9916 20.7344 68.3027 19.8817 68.9247 19.2681C69.551 18.6545 70.3932 18.3477 71.4511 18.3477C72.4667 18.3477 73.2581 18.646 73.8251 19.2427C74.3922 19.8394 74.6757 20.6667 74.6757 21.7246C74.6757 22.7614 74.3689 23.5929 73.7553 24.2192C73.1459 24.8413 72.325 25.1523 71.2924 25.1523ZM71.3622 19.522C70.7867 19.522 70.3318 19.723 69.9975 20.125C69.6632 20.527 69.496 21.0814 69.496 21.7881C69.496 22.4694 69.6653 23.0068 70.0038 23.4004C70.3424 23.7897 70.7952 23.9844 71.3622 23.9844C71.942 23.9844 72.3863 23.7918 72.6952 23.4067C73.0084 23.0216 73.165 22.4736 73.165 21.7627C73.165 21.0475 73.0084 20.4953 72.6952 20.106C72.3863 19.7166 71.942 19.522 71.3622 19.522ZM79.4446 16.5767C79.2457 16.4624 79.0193 16.4053 78.7654 16.4053C78.0502 16.4053 77.6926 16.8094 77.6926 17.6177V18.5H79.2034V19.6553H77.699V25H76.2263V19.6553H75.1155V18.5H76.2263V17.4463C76.2263 16.7607 76.4506 16.2212 76.8992 15.8276C77.3477 15.4299 77.9084 15.231 78.5813 15.231C78.9452 15.231 79.233 15.2712 79.4446 15.3516V16.5767ZM83.7247 24.9302C83.4369 25.0741 83.0582 25.146 82.5884 25.146C81.3274 25.146 80.6968 24.5409 80.6968 23.3306V19.6553H79.6114V18.5H80.6968V16.9956L82.1695 16.5767V18.5H83.7247V19.6553H82.1695V22.9053C82.1695 23.2904 82.2393 23.5654 82.379 23.7305C82.5186 23.8955 82.7514 23.978 83.0772 23.978C83.3269 23.978 83.5427 23.9061 83.7247 23.7622V24.9302ZM85.5419 17.1353C85.3007 17.1353 85.0933 17.057 84.9198 16.9004C84.7505 16.7438 84.6659 16.5449 84.6659 16.3037C84.6659 16.0625 84.7505 15.8615 84.9198 15.7007C85.0933 15.5399 85.3007 15.4595 85.5419 15.4595C85.7915 15.4595 86.0031 15.5399 86.1766 15.7007C86.3501 15.8615 86.4369 16.0625 86.4369 16.3037C86.4369 16.5322 86.3501 16.729 86.1766 16.894C86.0031 17.0549 85.7915 17.1353 85.5419 17.1353ZM86.2719 25H84.7992V18.5H86.2719V25ZM92.8706 25H91.3916V15.377H92.8706V25ZM100.102 22.1499H95.6717C95.6886 22.7508 95.8727 23.2142 96.224 23.54C96.5794 23.8659 97.0661 24.0288 97.6839 24.0288C98.3779 24.0288 99.0148 23.8215 99.5946 23.4067V24.5938C99.0021 24.9661 98.2192 25.1523 97.2459 25.1523C96.2896 25.1523 95.5384 24.8582 94.9925 24.27C94.4509 23.6776 94.18 22.846 94.18 21.7754C94.18 20.764 94.4784 19.9409 95.075 19.3062C95.676 18.6672 96.4207 18.3477 97.3094 18.3477C98.1981 18.3477 98.8858 18.6333 99.3724 19.2046C99.8591 19.7759 100.102 20.5693 100.102 21.585V22.1499ZM98.6805 21.1089C98.6763 20.5799 98.5514 20.1694 98.306 19.8774C98.0606 19.5812 97.722 19.4331 97.2904 19.4331C96.8672 19.4331 96.5075 19.5876 96.2113 19.8965C95.9193 20.2054 95.7394 20.6095 95.6717 21.1089H98.6805ZM107.087 25H105.614V21.4453C105.614 20.1589 105.184 19.5156 104.325 19.5156C103.894 19.5156 103.53 19.7018 103.234 20.0742C102.937 20.4466 102.789 20.9227 102.789 21.5024V25H101.31V15.377H102.789V19.5791H102.815C103.305 18.7581 104.008 18.3477 104.922 18.3477C106.365 18.3477 107.087 19.23 107.087 20.9946V25ZM114.185 22.1499H109.754C109.771 22.7508 109.955 23.2142 110.307 23.54C110.662 23.8659 111.149 24.0288 111.767 24.0288C112.461 24.0288 113.097 23.8215 113.677 23.4067V24.5938C113.085 24.9661 112.302 25.1523 111.329 25.1523C110.372 25.1523 109.621 24.8582 109.075 24.27C108.534 23.6776 108.263 22.846 108.263 21.7754C108.263 20.764 108.561 19.9409 109.158 19.3062C109.759 18.6672 110.503 18.3477 111.392 18.3477C112.281 18.3477 112.968 18.6333 113.455 19.2046C113.942 19.7759 114.185 20.5693 114.185 21.585V22.1499ZM112.763 21.1089C112.759 20.5799 112.634 20.1694 112.389 19.8774C112.143 19.5812 111.805 19.4331 111.373 19.4331C110.95 19.4331 110.59 19.5876 110.294 19.8965C110.002 20.2054 109.822 20.6095 109.754 21.1089H112.763ZM116.872 25H115.393V15.377H116.872V25ZM122.028 24.9302C121.74 25.0741 121.361 25.146 120.892 25.146C119.631 25.146 119 24.5409 119 23.3306V19.6553H117.915V18.5H119V16.9956L120.473 16.5767V18.5H122.028V19.6553H120.473V22.9053C120.473 23.2904 120.543 23.5654 120.682 23.7305C120.822 23.8955 121.055 23.978 121.38 23.978C121.63 23.978 121.846 23.9061 122.028 23.7622V24.9302Z" fill="black" fill-opacity="0.8956"/>
<rect x="0.5" y="0.5" width="129" height="31" rx="3.5" stroke="url(#paint0_linear_1639_29990)"/>
<defs>
<linearGradient id="paint0_linear_1639_29990" x1="65" y1="1" x2="65" y2="31" gradientUnits="userSpaceOnUse">
<stop offset="0.905762" stop-opacity="0.0578"/>
<stop offset="1" stop-opacity="0.1622"/>
</linearGradient>
</defs>
</svg>
