<svg width="129" height="32" viewBox="0 0 129 32" fill="none" xmlns="http://www.w3.org/2000/svg">
<rect x="0.5" y="0.5" width="128" height="31" rx="3.5" fill="white" fill-opacity="0.7"/>
<path d="M15.5559 7H7V15.5608H15.5559V7Z" fill="#F25022"/>
<path d="M25.0001 7H16.4442V15.5608H25.0001V7Z" fill="#7FBA00"/>
<path d="M15.5559 16.4395H7V25.0002H15.5559V16.4395Z" fill="#00A4EF"/>
<path d="M25.0002 16.4395H16.4443V25.0002H25.0002V16.4395Z" fill="#FFB900"/>
<path d="M30.72 12.384C30.9867 12.384 31.1973 12.3573 31.352 12.304C31.512 12.2507 31.6267 12.1733 31.696 12.072C31.7707 11.9653 31.808 11.8427 31.808 11.704C31.808 11.5973 31.7787 11.4693 31.72 11.32C31.6667 11.1707 31.592 11.0053 31.496 10.824C31.4 10.6373 31.288 10.4427 31.16 10.24C31.0373 10.032 30.904 9.82133 30.76 9.608L31.312 9.248C31.52 9.56267 31.7013 9.86133 31.856 10.144C32.0107 10.4213 32.1413 10.6827 32.248 10.928C32.3547 11.168 32.44 11.3947 32.504 11.608C32.5787 11.8427 32.6613 12.016 32.752 12.128C32.848 12.24 32.9467 12.312 33.048 12.344C33.1493 12.3707 33.2427 12.384 33.328 12.384C33.44 12.384 33.5227 12.416 33.576 12.48C33.6293 12.5387 33.656 12.6107 33.656 12.696C33.656 12.7813 33.6187 12.8613 33.544 12.936C33.4693 13.0053 33.3733 13.04 33.256 13.04C33.08 13.04 32.9067 13.008 32.736 12.944C32.5707 12.8747 32.4267 12.7653 32.304 12.616C32.1813 12.4613 32.096 12.256 32.048 12L32.368 11.744C32.368 11.9573 32.3227 12.1653 32.232 12.368C32.1413 12.5653 31.976 12.728 31.736 12.856C31.5013 12.984 31.1627 13.048 30.72 13.048C30.528 13.048 30.3413 13.032 30.16 13C29.984 12.968 29.8213 12.9227 29.672 12.864C29.5227 12.8 29.392 12.7253 29.28 12.64L29.6 12.088C29.7067 12.1573 29.856 12.224 30.048 12.288C30.24 12.352 30.464 12.384 30.72 12.384ZM33.2578 13.04L33.3378 12.384C33.6045 12.384 33.8125 12.3653 33.9618 12.328C34.1111 12.2853 34.2231 12.208 34.2978 12.096C34.3778 11.9787 34.4418 11.8107 34.4898 11.592C34.5378 11.3733 34.5965 11.088 34.6658 10.736L35.2898 10.856C35.2685 10.952 35.2445 11.0587 35.2178 11.176C35.1911 11.2933 35.1671 11.4107 35.1458 11.528C35.1298 11.64 35.1218 11.7387 35.1218 11.824C35.1218 11.904 35.1271 11.9787 35.1378 12.048C35.1485 12.1173 35.1885 12.176 35.2578 12.224C35.3271 12.272 35.4445 12.312 35.6098 12.344C35.7751 12.3707 36.0125 12.384 36.3218 12.384C36.4338 12.384 36.5138 12.416 36.5618 12.48C36.6151 12.5387 36.6418 12.6107 36.6418 12.696C36.6418 12.7813 36.6045 12.8613 36.5298 12.936C36.4551 13.0053 36.3591 13.04 36.2418 13.04C35.9165 13.04 35.6578 13.024 35.4658 12.992C35.2738 12.9547 35.1271 12.9013 35.0258 12.832C34.9298 12.7627 34.8605 12.6773 34.8178 12.576C34.7805 12.4693 34.7511 12.3467 34.7298 12.208L34.9698 12.224C34.8845 12.3947 34.7911 12.5333 34.6898 12.64C34.5938 12.7467 34.4818 12.8293 34.3538 12.888C34.2258 12.9467 34.0711 12.9867 33.8898 13.008C33.7138 13.0293 33.5031 13.04 33.2578 13.04ZM35.2738 14.552C35.1618 14.552 35.0658 14.512 34.9858 14.432C34.9111 14.3573 34.8738 14.2667 34.8738 14.16C34.8738 14.0533 34.9111 13.96 34.9858 13.88C35.0658 13.8 35.1618 13.76 35.2738 13.76C35.3805 13.76 35.4711 13.8 35.5458 13.88C35.6258 13.96 35.6658 14.0533 35.6658 14.16C35.6658 14.2667 35.6258 14.3573 35.5458 14.432C35.4711 14.512 35.3805 14.552 35.2738 14.552ZM34.1778 14.552C34.0658 14.552 33.9698 14.512 33.8898 14.432C33.8151 14.3573 33.7778 14.2667 33.7778 14.16C33.7778 14.0533 33.8151 13.96 33.8898 13.88C33.9698 13.8 34.0658 13.76 34.1778 13.76C34.2845 13.76 34.3751 13.8 34.4498 13.88C34.5298 13.96 34.5698 14.0533 34.5698 14.16C34.5698 14.2667 34.5298 14.3573 34.4498 14.432C34.3751 14.512 34.2845 14.552 34.1778 14.552ZM36.2422 13.04L36.3222 12.384C36.5462 12.384 36.7222 12.3653 36.8502 12.328C36.9782 12.2853 37.0742 12.208 37.1382 12.096C37.2075 11.9787 37.2662 11.8107 37.3142 11.592C37.3622 11.3733 37.4209 11.088 37.4902 10.736L38.1142 10.856C38.0929 10.952 38.0689 11.0587 38.0422 11.176C38.0155 11.2933 37.9915 11.4107 37.9702 11.528C37.9542 11.64 37.9462 11.7387 37.9462 11.824C37.9462 11.9307 37.9702 12.0267 38.0182 12.112C38.0662 12.1973 38.1702 12.264 38.3302 12.312C38.4902 12.36 38.7355 12.384 39.0662 12.384C39.1782 12.384 39.2582 12.416 39.3062 12.48C39.3595 12.5387 39.3862 12.6107 39.3862 12.696C39.3862 12.7813 39.3489 12.8613 39.2742 12.936C39.1995 13.0053 39.1035 13.04 38.9862 13.04C38.6395 13.04 38.3675 13.0107 38.1702 12.952C37.9729 12.888 37.8289 12.7947 37.7382 12.672C37.6475 12.544 37.5862 12.3893 37.5542 12.208L37.7942 12.224C37.7089 12.3947 37.6155 12.5333 37.5142 12.64C37.4182 12.7467 37.3115 12.8293 37.1942 12.888C37.0769 12.9467 36.9409 12.9867 36.7862 13.008C36.6315 13.0293 36.4502 13.04 36.2422 13.04ZM37.4902 9.912C37.3782 9.912 37.2822 9.87467 37.2022 9.8C37.1275 9.72 37.0902 9.62667 37.0902 9.52C37.0902 9.41333 37.1275 9.32 37.2022 9.24C37.2822 9.16 37.3782 9.12 37.4902 9.12C37.5969 9.12 37.6875 9.16 37.7622 9.24C37.8422 9.32 37.8822 9.41333 37.8822 9.52C37.8822 9.62667 37.8422 9.72 37.7622 9.8C37.6875 9.87467 37.5969 9.912 37.4902 9.912ZM38.9844 13.04L39.0644 12.384H39.8164C40.131 12.384 40.379 12.368 40.5604 12.336C40.747 12.2987 40.883 12.2533 40.9684 12.2C41.059 12.1413 41.1177 12.08 41.1444 12.016C41.1764 11.9467 41.1924 11.8773 41.1924 11.808C41.1924 11.6853 41.1444 11.5333 41.0484 11.352C40.9577 11.1707 40.7684 10.936 40.4804 10.648C40.331 10.4987 40.1817 10.3627 40.0324 10.24C39.883 10.112 39.7444 10 39.6164 9.904C39.4937 9.80267 39.395 9.71733 39.3204 9.648C39.2457 9.57867 39.2084 9.52533 39.2084 9.488C39.2084 9.408 39.2137 9.33067 39.2244 9.256C39.2404 9.18133 39.259 9.112 39.2804 9.048C39.307 8.984 39.339 8.93333 39.3764 8.896C39.483 8.784 39.619 8.672 39.7844 8.56C39.955 8.448 40.1524 8.33067 40.3764 8.208C40.6057 8.08533 40.8617 7.95467 41.1444 7.816C41.4324 7.672 41.747 7.51467 42.0884 7.344L42.3604 7.936C41.9337 8.13867 41.5764 8.312 41.2884 8.456C41.0057 8.59467 40.7657 8.72 40.5684 8.832C40.371 8.93867 40.1977 9.04 40.0484 9.136C39.899 9.232 39.747 9.33867 39.5924 9.456L39.7124 9.152C40.0484 9.41867 40.3444 9.66933 40.6004 9.904C40.8617 10.1387 41.0804 10.3653 41.2564 10.584C41.4324 10.7973 41.5657 11.008 41.6564 11.216C41.747 11.424 41.7924 11.6347 41.7924 11.848C41.7924 11.9653 41.771 12.0933 41.7284 12.232C41.6857 12.3707 41.595 12.5013 41.4564 12.624C41.3177 12.7467 41.1097 12.848 40.8324 12.928C40.555 13.0027 40.1817 13.04 39.7124 13.04H38.9844ZM47.5966 13.168L47.8046 12.512C48.1299 12.512 48.4739 12.4933 48.8366 12.456C49.1992 12.4133 49.5592 12.3413 49.9166 12.24C50.2792 12.1333 50.6232 11.9893 50.9486 11.808C51.2739 11.6267 51.5592 11.3973 51.8046 11.12L52.3086 11.416C52.2606 11.5387 52.2286 11.6373 52.2126 11.712C52.1966 11.7813 52.1886 11.8453 52.1886 11.904C52.1886 11.984 52.2179 12.0613 52.2766 12.136C52.3352 12.2053 52.4446 12.264 52.6046 12.312C52.7699 12.36 53.0019 12.384 53.3006 12.384C53.4126 12.384 53.4926 12.416 53.5406 12.48C53.5939 12.5387 53.6206 12.6107 53.6206 12.696C53.6206 12.7813 53.5832 12.8613 53.5086 12.936C53.4339 13.0053 53.3379 13.04 53.2206 13.04C52.8792 13.04 52.5779 13.0053 52.3166 12.936C52.0606 12.8613 51.8686 12.7467 51.7406 12.592C51.6179 12.432 51.5779 12.2267 51.6206 11.976L51.7646 12.024C51.5512 12.216 51.2952 12.384 50.9966 12.528C50.7032 12.6667 50.3752 12.784 50.0126 12.88C49.6552 12.976 49.2712 13.048 48.8606 13.096C48.4552 13.144 48.0339 13.168 47.5966 13.168ZM47.5966 13.168C47.1219 13.168 46.7032 13.136 46.3406 13.072C45.9832 13.0133 45.6846 12.92 45.4446 12.792C45.2046 12.664 45.0232 12.4987 44.9006 12.296C44.7779 12.088 44.7166 11.8373 44.7166 11.544C44.7166 11.4107 44.7272 11.2747 44.7486 11.136C44.7699 10.992 44.7966 10.848 44.8286 10.704C44.8659 10.56 44.9032 10.4213 44.9406 10.288L45.5406 10.44C45.5192 10.52 45.4952 10.616 45.4686 10.728C45.4419 10.8347 45.4179 10.944 45.3966 11.056C45.3806 11.168 45.3726 11.2693 45.3726 11.36C45.3726 11.6373 45.4419 11.8613 45.5806 12.032C45.7246 12.1973 45.9726 12.32 46.3246 12.4C46.6766 12.4747 47.1699 12.512 47.8046 12.512L47.9646 12.912L47.5966 13.168ZM48.9406 9.792C48.8286 9.792 48.7326 9.75467 48.6526 9.68C48.5779 9.6 48.5406 9.50667 48.5406 9.4C48.5406 9.29333 48.5779 9.2 48.6526 9.12C48.7326 9.04 48.8286 9 48.9406 9C49.0472 9 49.1379 9.04 49.2126 9.12C49.2926 9.2 49.3326 9.29333 49.3326 9.4C49.3326 9.50667 49.2926 9.6 49.2126 9.68C49.1379 9.75467 49.0472 9.792 48.9406 9.792ZM47.8446 9.792C47.7326 9.792 47.6366 9.75467 47.5566 9.68C47.4819 9.6 47.4446 9.50667 47.4446 9.4C47.4446 9.29333 47.4819 9.2 47.5566 9.12C47.6366 9.04 47.7326 9 47.8446 9C47.9512 9 48.0419 9.04 48.1166 9.12C48.1966 9.2 48.2366 9.29333 48.2366 9.4C48.2366 9.50667 48.1966 9.6 48.1166 9.68C48.0419 9.75467 47.9512 9.792 47.8446 9.792ZM53.2188 13.04L53.2988 12.384C53.4321 12.384 53.5788 12.384 53.7388 12.384C53.9041 12.3787 54.0694 12.3733 54.2348 12.368C54.4054 12.3627 54.5628 12.352 54.7068 12.336C54.8508 12.3147 54.9708 12.288 55.0668 12.256C55.2588 12.1867 55.4081 12.1013 55.5148 12C55.6214 11.8933 55.6961 11.7547 55.7388 11.584C55.7868 11.408 55.8108 11.184 55.8108 10.912C55.8108 10.688 55.7814 10.48 55.7228 10.288C55.6641 10.096 55.5814 9.94133 55.4748 9.824C55.3681 9.70667 55.2401 9.648 55.0908 9.648C54.9681 9.648 54.8561 9.696 54.7548 9.792C54.6588 9.88267 54.5814 10 54.5228 10.144C54.4694 10.288 54.4428 10.432 54.4428 10.576C54.4428 10.688 54.4641 10.784 54.5068 10.864C54.5548 10.944 54.6321 11.008 54.7388 11.056C54.8454 11.0987 54.9841 11.12 55.1548 11.12C55.3094 11.12 55.4641 11.104 55.6188 11.072C55.7788 11.04 55.9148 10.9973 56.0268 10.944L56.0588 11.504C55.9734 11.5627 55.8774 11.6107 55.7708 11.648C55.6641 11.6853 55.5521 11.712 55.4348 11.728C55.3174 11.744 55.2001 11.752 55.0828 11.752C54.8108 11.752 54.5788 11.7093 54.3868 11.624C54.2001 11.5333 54.0561 11.4133 53.9548 11.264C53.8588 11.1093 53.8108 10.9333 53.8108 10.736C53.8108 10.5333 53.8428 10.3307 53.9068 10.128C53.9708 9.92 54.0614 9.73067 54.1788 9.56C54.2961 9.38933 54.4374 9.25333 54.6028 9.152C54.7681 9.04533 54.9521 8.992 55.1548 8.992C55.4428 8.992 55.6801 9.08533 55.8668 9.272C56.0588 9.45867 56.2001 9.704 56.2908 10.008C56.3868 10.3067 56.4348 10.624 56.4348 10.96C56.4348 11.36 56.3654 11.704 56.2268 11.992C56.0934 12.2747 55.8694 12.5093 55.5548 12.696C55.4321 12.7653 55.2828 12.824 55.1068 12.872C54.9361 12.9147 54.7468 12.9493 54.5388 12.976C54.3361 13.0027 54.1228 13.0187 53.8988 13.024C53.6748 13.0347 53.4481 13.04 53.2188 13.04ZM55.0028 8.168C54.8908 8.168 54.7948 8.13067 54.7148 8.056C54.6401 7.976 54.6028 7.88267 54.6028 7.776C54.6028 7.66933 54.6401 7.576 54.7148 7.496C54.7948 7.416 54.8908 7.376 55.0028 7.376C55.1094 7.376 55.2001 7.416 55.2747 7.496C55.3548 7.576 55.3948 7.66933 55.3948 7.776C55.3948 7.88267 55.3548 7.976 55.2747 8.056C55.2001 8.13067 55.1094 8.168 55.0028 8.168ZM59.1249 13.04C58.6982 13.04 58.3702 12.992 58.1409 12.896C57.9169 12.8 57.7622 12.6507 57.6769 12.448C57.5915 12.2453 57.5435 11.984 57.5329 11.664L57.3729 7.288H58.0289L58.1889 11.408C58.1995 11.6693 58.2235 11.872 58.2609 12.016C58.3035 12.1547 58.3942 12.2507 58.5329 12.304C58.6769 12.3573 58.9009 12.384 59.2049 12.384C59.3169 12.384 59.3969 12.416 59.4449 12.48C59.4982 12.5387 59.5249 12.6107 59.5249 12.696C59.5249 12.7813 59.4875 12.8613 59.4129 12.936C59.3382 13.0053 59.2422 13.04 59.1249 13.04ZM59.125 13.04L59.205 12.384C59.5197 12.384 59.765 12.3733 59.941 12.352C60.117 12.3253 60.2423 12.264 60.317 12.168C60.3917 12.0667 60.429 11.9093 60.429 11.696C60.429 11.5627 60.4077 11.4053 60.365 11.224C60.3223 11.0373 60.2663 10.84 60.197 10.632C60.1277 10.424 60.053 10.2187 59.973 10.016L60.621 9.776C60.6903 9.94667 60.7543 10.1413 60.813 10.36C60.877 10.5787 60.9303 10.7947 60.973 11.008C61.0157 11.2213 61.037 11.408 61.037 11.568C61.037 11.8347 60.9997 12.0613 60.925 12.248C60.8557 12.4347 60.7437 12.5867 60.589 12.704C60.4343 12.8213 60.2343 12.9067 59.989 12.96C59.749 13.0133 59.461 13.04 59.125 13.04ZM60.605 14.552C60.493 14.552 60.397 14.512 60.317 14.432C60.2423 14.3573 60.205 14.2667 60.205 14.16C60.205 14.0533 60.2423 13.96 60.317 13.88C60.397 13.8 60.493 13.76 60.605 13.76C60.7117 13.76 60.8023 13.8 60.877 13.88C60.957 13.96 60.997 14.0533 60.997 14.16C60.997 14.2667 60.957 14.3573 60.877 14.432C60.8023 14.512 60.7117 14.552 60.605 14.552ZM59.509 14.552C59.397 14.552 59.301 14.512 59.221 14.432C59.1463 14.3573 59.109 14.2667 59.109 14.16C59.109 14.0533 59.1463 13.96 59.221 13.88C59.301 13.8 59.397 13.76 59.509 13.76C59.6157 13.76 59.7063 13.8 59.781 13.88C59.861 13.96 59.901 14.0533 59.901 14.16C59.901 14.2667 59.861 14.3573 59.781 14.432C59.7063 14.512 59.6157 14.552 59.509 14.552ZM61.5476 14.84L61.3156 14.232C61.8543 14.0613 62.2676 13.856 62.5556 13.616C62.849 13.3813 63.049 13.136 63.1556 12.88C63.2676 12.624 63.3236 12.3787 63.3236 12.144C63.3236 11.9947 63.3076 11.8507 63.2756 11.712C63.2436 11.5733 63.1876 11.416 63.1076 11.24C63.0276 11.064 62.9156 10.8453 62.7716 10.584L63.3556 10.288C63.5583 10.6347 63.7023 10.9627 63.7876 11.272C63.8783 11.5813 63.9236 11.8533 63.9236 12.088C63.9236 12.424 63.8676 12.728 63.7556 13C63.649 13.272 63.505 13.512 63.3236 13.72C63.1476 13.9333 62.953 14.1147 62.7396 14.264C62.5316 14.4133 62.321 14.536 62.1076 14.632C61.8996 14.728 61.713 14.7973 61.5476 14.84ZM64.7331 12.64L65.0531 12.088C65.1598 12.1573 65.3091 12.224 65.5011 12.288C65.6931 12.352 65.9171 12.384 66.1731 12.384C66.4398 12.384 66.6505 12.3573 66.8051 12.304C66.9651 12.2507 67.0798 12.1733 67.1491 12.072C67.2238 11.9653 67.2611 11.8427 67.2611 11.704C67.2611 11.5973 67.2371 11.4667 67.1891 11.312C67.1465 11.152 67.0505 10.9387 66.9011 10.672C66.7518 10.4 66.5225 10.0453 66.2131 9.608L66.7651 9.248C67.0478 9.63733 67.2718 9.98933 67.4371 10.304C67.6078 10.6187 67.7278 10.896 67.7971 11.136C67.8718 11.3707 67.9091 11.5733 67.9091 11.744C67.9091 11.9573 67.8558 12.1653 67.7491 12.368C67.6425 12.5653 67.4638 12.728 67.2131 12.856C66.9625 12.984 66.6158 13.048 66.1731 13.048C65.9811 13.048 65.7945 13.032 65.6131 13C65.4371 12.968 65.2745 12.9227 65.1251 12.864C64.9758 12.8 64.8451 12.7253 64.7331 12.64Z" fill="black" fill-opacity="0.8956"/>
<path d="M39.8989 25H38.4009V19.1094C38.4009 18.627 38.4305 18.0366 38.4897 17.3384H38.4644C38.3713 17.7362 38.2887 18.0218 38.2168 18.1953L35.5 25H34.459L31.7358 18.2461C31.6597 18.0472 31.5793 17.7446 31.4946 17.3384H31.4692C31.5031 17.7023 31.52 18.2969 31.52 19.1221V25H30.1235V15.8975H32.25L34.6431 21.9595C34.825 22.425 34.9435 22.772 34.9985 23.0005H35.0303C35.1868 22.5223 35.3138 22.1668 35.4111 21.9341L37.8486 15.8975H39.8989V25ZM42.5286 17.1353C42.2874 17.1353 42.0801 17.057 41.9066 16.9004C41.7373 16.7438 41.6527 16.5449 41.6527 16.3037C41.6527 16.0625 41.7373 15.8615 41.9066 15.7007C42.0801 15.5399 42.2874 15.4595 42.5286 15.4595C42.7783 15.4595 42.9899 15.5399 43.1634 15.7007C43.3369 15.8615 43.4237 16.0625 43.4237 16.3037C43.4237 16.5322 43.3369 16.729 43.1634 16.894C42.9899 17.0549 42.7783 17.1353 42.5286 17.1353ZM43.2586 25H41.786V18.5H43.2586V25ZM49.6461 24.7017C49.1256 25.0021 48.5099 25.1523 47.799 25.1523C46.8341 25.1523 46.0555 24.8519 45.463 24.251C44.8706 23.6458 44.5744 22.863 44.5744 21.9023C44.5744 20.8317 44.8917 19.9727 45.5265 19.3252C46.1655 18.6735 47.0182 18.3477 48.0846 18.3477C48.6771 18.3477 49.1997 18.4513 49.6525 18.6587V20.0298C49.1997 19.6912 48.7173 19.522 48.2052 19.522C47.5831 19.522 47.0732 19.7336 46.6754 20.1567C46.2776 20.5757 46.0787 21.1258 46.0787 21.8071C46.0787 22.48 46.2649 23.0111 46.6373 23.4004C47.014 23.7897 47.5176 23.9844 48.1481 23.9844C48.6771 23.9844 49.1764 23.7961 49.6461 23.4194V24.7017ZM54.688 19.9028C54.5102 19.7632 54.2542 19.6934 53.9199 19.6934C53.484 19.6934 53.1201 19.8901 52.8281 20.2837C52.5361 20.6772 52.3901 21.2126 52.3901 21.8896V25H50.9174V18.5H52.3901V19.8394H52.4155C52.5594 19.3823 52.7794 19.0269 53.0756 18.7729C53.3761 18.5148 53.7104 18.3857 54.0786 18.3857C54.3452 18.3857 54.5483 18.4259 54.688 18.5063V19.9028ZM58.3015 25.1523C57.2986 25.1523 56.4967 24.8498 55.8958 24.2446C55.2991 23.6353 55.0008 22.8291 55.0008 21.8262C55.0008 20.7344 55.3118 19.8817 55.9339 19.2681C56.5602 18.6545 57.4023 18.3477 58.4602 18.3477C59.4759 18.3477 60.2672 18.646 60.8343 19.2427C61.4013 19.8394 61.6848 20.6667 61.6848 21.7246C61.6848 22.7614 61.378 23.5929 60.7644 24.2192C60.1551 24.8413 59.3341 25.1523 58.3015 25.1523ZM58.3714 19.522C57.7958 19.522 57.3409 19.723 57.0066 20.125C56.6723 20.527 56.5052 21.0814 56.5052 21.7881C56.5052 22.4694 56.6744 23.0068 57.013 23.4004C57.3515 23.7897 57.8043 23.9844 58.3714 23.9844C58.9511 23.9844 59.3955 23.7918 59.7044 23.4067C60.0175 23.0216 60.1741 22.4736 60.1741 21.7627C60.1741 21.0475 60.0175 20.4953 59.7044 20.106C59.3955 19.7166 58.9511 19.522 58.3714 19.522ZM62.588 24.7969V23.4321C63.1381 23.8511 63.7454 24.0605 64.4098 24.0605C65.2984 24.0605 65.7428 23.7982 65.7428 23.2734C65.7428 23.1253 65.7047 23.0005 65.6285 22.8989C65.5523 22.7931 65.4487 22.7 65.3175 22.6196C65.1905 22.5392 65.0382 22.4673 64.8605 22.4038C64.6869 22.3403 64.4923 22.2684 64.2765 22.188C64.0099 22.0822 63.7687 21.9701 63.5528 21.8516C63.3412 21.7331 63.1635 21.5998 63.0196 21.4517C62.88 21.2993 62.7742 21.1279 62.7022 20.9375C62.6303 20.7471 62.5943 20.5249 62.5943 20.271C62.5943 19.9578 62.6684 19.6828 62.8165 19.4458C62.9646 19.2046 63.1635 19.0036 63.4132 18.8428C63.6629 18.6777 63.9464 18.555 64.2638 18.4746C64.5812 18.39 64.9091 18.3477 65.2477 18.3477C65.8486 18.3477 66.386 18.4386 66.86 18.6206V19.9092C66.4029 19.596 65.8782 19.4395 65.2857 19.4395C65.0995 19.4395 64.9303 19.4585 64.7779 19.4966C64.6298 19.5347 64.5029 19.5876 64.3971 19.6553C64.2913 19.723 64.2088 19.8055 64.1495 19.9028C64.0903 19.9959 64.0606 20.0996 64.0606 20.2139C64.0606 20.3535 64.0903 20.472 64.1495 20.5693C64.2088 20.6667 64.2955 20.7534 64.4098 20.8296C64.5283 20.9015 64.6679 20.9692 64.8287 21.0327C64.9938 21.092 65.1821 21.1576 65.3937 21.2295C65.673 21.3438 65.9226 21.4601 66.1427 21.5786C66.367 21.6971 66.5574 21.8325 66.714 21.9849C66.8705 22.133 66.9911 22.3065 67.0758 22.5054C67.1604 22.7 67.2027 22.9328 67.2027 23.2036C67.2027 23.5337 67.1266 23.8215 66.9742 24.0669C66.8219 24.3123 66.6188 24.5155 66.3648 24.6763C66.1109 24.8371 65.8168 24.9556 65.4825 25.0317C65.1524 25.1121 64.8033 25.1523 64.4352 25.1523C63.7242 25.1523 63.1085 25.0339 62.588 24.7969ZM71.2924 25.1523C70.2895 25.1523 69.4876 24.8498 68.8866 24.2446C68.29 23.6353 67.9916 22.8291 67.9916 21.8262C67.9916 20.7344 68.3027 19.8817 68.9247 19.2681C69.551 18.6545 70.3932 18.3477 71.4511 18.3477C72.4667 18.3477 73.2581 18.646 73.8251 19.2427C74.3922 19.8394 74.6757 20.6667 74.6757 21.7246C74.6757 22.7614 74.3689 23.5929 73.7553 24.2192C73.1459 24.8413 72.325 25.1523 71.2924 25.1523ZM71.3622 19.522C70.7867 19.522 70.3318 19.723 69.9975 20.125C69.6632 20.527 69.496 21.0814 69.496 21.7881C69.496 22.4694 69.6653 23.0068 70.0038 23.4004C70.3424 23.7897 70.7952 23.9844 71.3622 23.9844C71.942 23.9844 72.3863 23.7918 72.6952 23.4067C73.0084 23.0216 73.165 22.4736 73.165 21.7627C73.165 21.0475 73.0084 20.4953 72.6952 20.106C72.3863 19.7166 71.942 19.522 71.3622 19.522ZM79.4446 16.5767C79.2457 16.4624 79.0193 16.4053 78.7654 16.4053C78.0502 16.4053 77.6926 16.8094 77.6926 17.6177V18.5H79.2034V19.6553H77.699V25H76.2263V19.6553H75.1155V18.5H76.2263V17.4463C76.2263 16.7607 76.4506 16.2212 76.8992 15.8276C77.3477 15.4299 77.9084 15.231 78.5813 15.231C78.9452 15.231 79.233 15.2712 79.4446 15.3516V16.5767ZM83.7247 24.9302C83.4369 25.0741 83.0582 25.146 82.5884 25.146C81.3274 25.146 80.6968 24.5409 80.6968 23.3306V19.6553H79.6114V18.5H80.6968V16.9956L82.1695 16.5767V18.5H83.7247V19.6553H82.1695V22.9053C82.1695 23.2904 82.2393 23.5654 82.379 23.7305C82.5186 23.8955 82.7514 23.978 83.0772 23.978C83.3269 23.978 83.5427 23.9061 83.7247 23.7622V24.9302ZM87.2258 26.4854C87.5135 26.57 87.7569 26.6313 87.9558 26.6694C88.1589 26.7075 88.3472 26.7266 88.5207 26.7266C88.8677 26.7266 89.1534 26.6652 89.3776 26.5425C89.6062 26.4198 89.786 26.2526 89.9172 26.041C90.0484 25.8337 90.1394 25.5903 90.1901 25.311C90.2409 25.036 90.2663 24.7419 90.2663 24.4287C90.2663 24.1367 90.2451 23.8468 90.2028 23.5591C90.1647 23.2713 90.1076 22.9793 90.0314 22.6831C89.9553 22.3826 89.8622 22.0716 89.7521 21.75C89.6464 21.4242 89.5279 21.0771 89.3967 20.709H90.7805C90.9032 21.0221 91.0132 21.3416 91.1105 21.6675C91.2079 21.9933 91.2904 22.3192 91.3581 22.645C91.4258 22.9709 91.4766 23.2925 91.5104 23.6099C91.5485 23.923 91.5676 24.2235 91.5676 24.5112C91.5676 25.1629 91.4872 25.7257 91.3264 26.1997C91.1656 26.6779 90.9476 27.0715 90.6726 27.3804C90.4017 27.6935 90.0822 27.9263 89.7141 28.0786C89.3501 28.231 88.965 28.3071 88.5588 28.3071C88.3514 28.3071 88.142 28.286 87.9304 28.2437C87.723 28.2056 87.4882 28.1379 87.2258 28.0405V26.4854ZM90.5393 19.1665H89.1237V17.8779H90.5393V19.1665ZM93.3657 25V15.377H94.6289V25H93.3657ZM99.8185 25V15.377H101.082V25H99.8185ZM100.893 26.4854C101.181 26.57 101.424 26.6313 101.623 26.6694C101.826 26.7075 102.014 26.7266 102.188 26.7266C102.535 26.7266 102.821 26.6652 103.045 26.5425C103.273 26.4198 103.453 26.2526 103.584 26.041C103.716 25.8337 103.807 25.5903 103.857 25.311C103.908 25.036 103.934 24.7419 103.934 24.4287C103.934 24.1367 103.912 23.8468 103.87 23.5591C103.832 23.2713 103.775 22.9793 103.699 22.6831C103.623 22.3826 103.529 22.0716 103.419 21.75C103.314 21.4242 103.195 21.0771 103.064 20.709H104.448C104.57 21.0221 104.68 21.3416 104.778 21.6675C104.875 21.9933 104.958 22.3192 105.025 22.645C105.093 22.9709 105.144 23.2925 105.178 23.6099C105.216 23.923 105.235 24.2235 105.235 24.5112C105.235 25.1629 105.154 25.7257 104.994 26.1997C104.833 26.6779 104.615 27.0715 104.34 27.3804C104.069 27.6935 103.749 27.9263 103.381 28.0786C103.017 28.231 102.632 28.3071 102.226 28.3071C102.019 28.3071 101.809 28.286 101.598 28.2437C101.39 28.2056 101.155 28.1379 100.893 28.0405V26.4854ZM116.867 21.6992C116.952 22.1732 117.013 22.6069 117.051 23.0005C117.094 23.394 117.115 23.777 117.115 24.1494C117.115 24.8096 117.049 25.3978 116.918 25.9141C116.791 26.4303 116.584 26.8662 116.296 27.2217C116.008 27.5771 115.634 27.8459 115.172 28.0278C114.711 28.214 114.148 28.3071 113.484 28.3071C112.917 28.3071 112.435 28.2331 112.037 28.085C111.643 27.9368 111.324 27.7189 111.078 27.4312C110.833 27.1476 110.655 26.7964 110.545 26.3774C110.435 25.9585 110.38 25.4761 110.38 24.9302C110.38 24.6424 110.397 24.3398 110.431 24.0225C110.465 23.7008 110.522 23.3306 110.602 22.9116H111.84C111.802 23.1486 111.77 23.3602 111.745 23.5464C111.719 23.7284 111.698 23.8955 111.681 24.0479C111.669 24.196 111.658 24.3314 111.65 24.4541C111.645 24.5768 111.643 24.6932 111.643 24.8032C111.643 25.1418 111.673 25.4316 111.732 25.6729C111.791 25.9183 111.893 26.1193 112.037 26.2759C112.185 26.4325 112.382 26.5488 112.627 26.625C112.873 26.7012 113.181 26.7393 113.554 26.7393C113.985 26.7393 114.345 26.6885 114.633 26.5869C114.925 26.4854 115.158 26.3245 115.331 26.1045C115.509 25.8887 115.634 25.6094 115.706 25.2666C115.782 24.9238 115.82 24.5091 115.82 24.0225C115.82 23.8828 115.816 23.7347 115.807 23.5781C115.799 23.4215 115.784 23.2502 115.763 23.064C115.742 22.8778 115.714 22.6746 115.68 22.4546C115.651 22.2303 115.613 21.9785 115.566 21.6992H116.867ZM114.487 20.4424H113.071V19.1538H114.487V20.4424ZM118.907 25V15.377H120.17V25H118.907ZM121.858 14.1265C121.744 14.2492 121.63 14.3486 121.516 14.4248C121.406 14.501 121.298 14.5602 121.192 14.6025C121.09 14.6406 120.993 14.666 120.9 14.6787C120.807 14.6914 120.72 14.6978 120.64 14.6978C120.42 14.6978 120.212 14.6681 120.018 14.6089C119.823 14.5454 119.635 14.4756 119.453 14.3994C119.271 14.3232 119.093 14.2555 118.919 14.1963C118.746 14.1328 118.572 14.1011 118.399 14.1011C118.28 14.1011 118.166 14.1286 118.056 14.1836C117.95 14.2386 117.836 14.3211 117.713 14.4312L117.244 13.8916C117.358 13.7689 117.47 13.6715 117.58 13.5996C117.69 13.5234 117.798 13.4642 117.904 13.4219C118.005 13.3796 118.103 13.3521 118.196 13.3394C118.289 13.3267 118.376 13.3203 118.456 13.3203C118.676 13.3203 118.883 13.3521 119.078 13.4155C119.273 13.479 119.461 13.5488 119.643 13.625C119.825 13.6969 120.001 13.7646 120.17 13.8281C120.343 13.8916 120.517 13.9233 120.69 13.9233C120.822 13.9233 120.938 13.8979 121.039 13.8472C121.145 13.7922 121.26 13.7054 121.382 13.5869L121.858 14.1265Z" fill="black" fill-opacity="0.8956"/>
<rect x="0.5" y="0.5" width="128" height="31" rx="3.5" stroke="url(#paint0_linear_1639_30011)"/>
<defs>
<linearGradient id="paint0_linear_1639_30011" x1="64.5" y1="1" x2="64.5" y2="31" gradientUnits="userSpaceOnUse">
<stop offset="0.905762" stop-opacity="0.0578"/>
<stop offset="1" stop-opacity="0.1622"/>
</linearGradient>
</defs>
</svg>
