<svg width="109" height="32" viewBox="0 0 109 32" fill="none" xmlns="http://www.w3.org/2000/svg">
<rect x="0.5" y="0.5" width="108" height="31" rx="3.5" fill="black"/>
<path d="M15.5559 7H7V15.5608H15.5559V7Z" fill="#F25022"/>
<path d="M25.0001 7H16.4442V15.5608H25.0001V7Z" fill="#7FBA00"/>
<path d="M15.5559 16.4395H7V25.0002H15.5559V16.4395Z" fill="#00A4EF"/>
<path d="M25.0002 16.4395H16.4443V25.0002H25.0002V16.4395Z" fill="#FFB900"/>
<path d="M34.0352 13H33.3203V10.4688H30.4766V13H29.7656V7.39844H30.4766V9.83594H33.3203V7.39844H34.0352V13ZM38.4219 13H37.7305V12.3555H37.7148C37.5742 12.6003 37.3997 12.7852 37.1914 12.9102C36.9831 13.0352 36.7409 13.0977 36.4648 13.0977C36.0794 13.0977 35.7682 12.9857 35.5312 12.7617C35.2943 12.5378 35.1758 12.2422 35.1758 11.875C35.1758 11.5182 35.2956 11.2253 35.5352 10.9961C35.7747 10.7669 36.1198 10.6198 36.5703 10.5547L37.7344 10.3984V10.3047C37.7344 9.97396 37.6549 9.73568 37.4961 9.58984C37.3398 9.44401 37.1289 9.37109 36.8633 9.37109C36.6523 9.37109 36.4466 9.41146 36.2461 9.49219C36.0456 9.57292 35.8555 9.69401 35.6758 9.85547L35.2969 9.43359C35.5286 9.22005 35.776 9.0625 36.0391 8.96094C36.3047 8.85677 36.5951 8.80469 36.9102 8.80469C37.4102 8.80469 37.7865 8.93359 38.0391 9.19141C38.2943 9.44922 38.4219 9.83594 38.4219 10.3516V13ZM37.7344 11.3281V10.9336L36.7578 11.0664C36.4583 11.1081 36.2344 11.1836 36.0859 11.293C35.9375 11.4023 35.8633 11.5742 35.8633 11.8086C35.8633 12.0404 35.9323 12.2201 36.0703 12.3477C36.2109 12.4753 36.3854 12.5391 36.5938 12.5391C36.9375 12.5391 37.2135 12.4258 37.4219 12.1992C37.6302 11.9701 37.7344 11.6797 37.7344 11.3281ZM43.1523 13H42.457V10.6641C42.457 10.237 42.3789 9.91667 42.2227 9.70312C42.0664 9.48958 41.8333 9.38281 41.5234 9.38281C41.2005 9.38281 40.9336 9.50391 40.7227 9.74609C40.5143 9.98568 40.4102 10.2904 40.4102 10.6602V13H39.7148V8.90234H40.4102V9.58203H40.4258C40.5794 9.32161 40.7682 9.1276 40.9922 9C41.2161 8.86979 41.4753 8.80469 41.7695 8.80469C42.2174 8.80469 42.5599 8.94922 42.7969 9.23828C43.0339 9.52734 43.1523 9.94531 43.1523 10.4922V13ZM47.8555 13H46.9023L45.1289 11.0234H45.1133V13H44.418V7.07812H45.1133V10.7812H45.1289L46.8125 8.90234H47.7109L45.8477 10.875L47.8555 13ZM48.9297 8.03516C48.7917 8.03516 48.6771 7.98958 48.5859 7.89844C48.4948 7.80729 48.4492 7.69661 48.4492 7.56641C48.4492 7.43099 48.4948 7.31901 48.5859 7.23047C48.6771 7.13932 48.7917 7.09375 48.9297 7.09375C49.0677 7.09375 49.1823 7.13932 49.2734 7.23047C49.3672 7.31901 49.4141 7.43099 49.4141 7.56641C49.4141 7.69661 49.3672 7.80729 49.2734 7.89844C49.1823 7.98958 49.0677 8.03516 48.9297 8.03516ZM49.2695 13H48.5742V8.90234H49.2695V13ZM52.5 12.6953L52.8242 12.1719C52.9961 12.2865 53.1667 12.3737 53.3359 12.4336C53.5052 12.4935 53.6914 12.5234 53.8945 12.5234C54.168 12.5234 54.3763 12.474 54.5195 12.375C54.6628 12.2734 54.7344 12.1224 54.7344 11.9219C54.7344 11.7552 54.6706 11.6172 54.543 11.5078C54.418 11.3958 54.2201 11.3047 53.9492 11.2344C53.4414 11.1068 53.0924 10.944 52.9023 10.7461C52.7122 10.5456 52.6172 10.2969 52.6172 10C52.6172 9.65625 52.7474 9.37109 53.0078 9.14453C53.2708 8.91797 53.6289 8.80469 54.082 8.80469C54.3008 8.80469 54.5078 8.83333 54.7031 8.89062C54.901 8.94531 55.1003 9.03776 55.3008 9.16797L55 9.68359C54.8177 9.56901 54.6536 9.48958 54.5078 9.44531C54.362 9.39844 54.2135 9.375 54.0625 9.375C53.8047 9.375 53.6068 9.42318 53.4688 9.51953C53.3307 9.61589 53.2617 9.75521 53.2617 9.9375C53.2617 10.1146 53.3294 10.25 53.4648 10.3438C53.6003 10.4349 53.8255 10.5208 54.1406 10.6016C54.5599 10.7135 54.8724 10.8698 55.0781 11.0703C55.2865 11.2682 55.3906 11.5326 55.3906 11.8633C55.3906 12.2409 55.2539 12.5417 54.9805 12.7656C54.7096 12.987 54.3398 13.0977 53.8711 13.0977C53.6159 13.0977 53.3724 13.0638 53.1406 12.9961C52.9115 12.9258 52.6979 12.8255 52.5 12.6953ZM59.7344 11.1094H56.8516C56.8646 11.5625 56.9857 11.9115 57.2148 12.1562C57.444 12.3984 57.7656 12.5195 58.1797 12.5195C58.3594 12.5195 58.543 12.4922 58.7305 12.4375C58.9206 12.3802 59.1107 12.2878 59.3008 12.1602L59.6172 12.6445C59.3802 12.8008 59.1419 12.9154 58.9023 12.9883C58.6628 13.0612 58.3997 13.0977 58.1133 13.0977C57.4935 13.0977 57.0104 12.9141 56.6641 12.5469C56.3177 12.1771 56.1432 11.6615 56.1406 11C56.138 10.3411 56.3125 9.8112 56.6641 9.41016C57.0182 9.00651 57.4766 8.80469 58.0391 8.80469C58.5755 8.80469 58.9922 8.97917 59.2891 9.32812C59.5859 9.67448 59.7344 10.1576 59.7344 10.7773V11.1094ZM59.0352 10.5625C59.0326 10.1849 58.9414 9.89193 58.7617 9.68359C58.5846 9.47526 58.3398 9.37109 58.0273 9.37109C57.7201 9.37109 57.4596 9.47917 57.2461 9.69531C57.0352 9.90885 56.9062 10.1979 56.8594 10.5625H59.0352Z" fill="white"/>
<path d="M39.8989 25H38.4009V19.1094C38.4009 18.627 38.4305 18.0366 38.4897 17.3384H38.4644C38.3713 17.7362 38.2887 18.0218 38.2168 18.1953L35.5 25H34.459L31.7358 18.2461C31.6597 18.0472 31.5793 17.7446 31.4946 17.3384H31.4692C31.5031 17.7023 31.52 18.2969 31.52 19.1221V25H30.1235V15.8975H32.25L34.6431 21.9595C34.825 22.425 34.9435 22.772 34.9985 23.0005H35.0303C35.1868 22.5223 35.3138 22.1668 35.4111 21.9341L37.8486 15.8975H39.8989V25ZM42.5286 17.1353C42.2874 17.1353 42.0801 17.057 41.9066 16.9004C41.7373 16.7438 41.6527 16.5449 41.6527 16.3037C41.6527 16.0625 41.7373 15.8615 41.9066 15.7007C42.0801 15.5399 42.2874 15.4595 42.5286 15.4595C42.7783 15.4595 42.9899 15.5399 43.1634 15.7007C43.3369 15.8615 43.4237 16.0625 43.4237 16.3037C43.4237 16.5322 43.3369 16.729 43.1634 16.894C42.9899 17.0549 42.7783 17.1353 42.5286 17.1353ZM43.2586 25H41.786V18.5H43.2586V25ZM49.6461 24.7017C49.1256 25.0021 48.5099 25.1523 47.799 25.1523C46.8341 25.1523 46.0555 24.8519 45.463 24.251C44.8706 23.6458 44.5744 22.863 44.5744 21.9023C44.5744 20.8317 44.8917 19.9727 45.5265 19.3252C46.1655 18.6735 47.0182 18.3477 48.0846 18.3477C48.6771 18.3477 49.1997 18.4513 49.6525 18.6587V20.0298C49.1997 19.6912 48.7173 19.522 48.2052 19.522C47.5831 19.522 47.0732 19.7336 46.6754 20.1567C46.2776 20.5757 46.0787 21.1258 46.0787 21.8071C46.0787 22.48 46.2649 23.0111 46.6373 23.4004C47.014 23.7897 47.5176 23.9844 48.1481 23.9844C48.6771 23.9844 49.1764 23.7961 49.6461 23.4194V24.7017ZM54.688 19.9028C54.5102 19.7632 54.2542 19.6934 53.9199 19.6934C53.484 19.6934 53.1201 19.8901 52.8281 20.2837C52.5361 20.6772 52.3901 21.2126 52.3901 21.8896V25H50.9174V18.5H52.3901V19.8394H52.4155C52.5594 19.3823 52.7794 19.0269 53.0756 18.7729C53.3761 18.5148 53.7104 18.3857 54.0786 18.3857C54.3452 18.3857 54.5483 18.4259 54.688 18.5063V19.9028ZM58.3015 25.1523C57.2986 25.1523 56.4967 24.8498 55.8958 24.2446C55.2991 23.6353 55.0008 22.8291 55.0008 21.8262C55.0008 20.7344 55.3118 19.8817 55.9339 19.2681C56.5602 18.6545 57.4023 18.3477 58.4602 18.3477C59.4759 18.3477 60.2672 18.646 60.8343 19.2427C61.4013 19.8394 61.6848 20.6667 61.6848 21.7246C61.6848 22.7614 61.378 23.5929 60.7644 24.2192C60.1551 24.8413 59.3341 25.1523 58.3015 25.1523ZM58.3714 19.522C57.7958 19.522 57.3409 19.723 57.0066 20.125C56.6723 20.527 56.5052 21.0814 56.5052 21.7881C56.5052 22.4694 56.6744 23.0068 57.013 23.4004C57.3515 23.7897 57.8043 23.9844 58.3714 23.9844C58.9511 23.9844 59.3955 23.7918 59.7044 23.4067C60.0175 23.0216 60.1741 22.4736 60.1741 21.7627C60.1741 21.0475 60.0175 20.4953 59.7044 20.106C59.3955 19.7166 58.9511 19.522 58.3714 19.522ZM62.588 24.7969V23.4321C63.1381 23.8511 63.7454 24.0605 64.4098 24.0605C65.2984 24.0605 65.7428 23.7982 65.7428 23.2734C65.7428 23.1253 65.7047 23.0005 65.6285 22.8989C65.5523 22.7931 65.4487 22.7 65.3175 22.6196C65.1905 22.5392 65.0382 22.4673 64.8605 22.4038C64.6869 22.3403 64.4923 22.2684 64.2765 22.188C64.0099 22.0822 63.7687 21.9701 63.5528 21.8516C63.3412 21.7331 63.1635 21.5998 63.0196 21.4517C62.88 21.2993 62.7742 21.1279 62.7022 20.9375C62.6303 20.7471 62.5943 20.5249 62.5943 20.271C62.5943 19.9578 62.6684 19.6828 62.8165 19.4458C62.9646 19.2046 63.1635 19.0036 63.4132 18.8428C63.6629 18.6777 63.9464 18.555 64.2638 18.4746C64.5812 18.39 64.9091 18.3477 65.2477 18.3477C65.8486 18.3477 66.386 18.4386 66.86 18.6206V19.9092C66.4029 19.596 65.8782 19.4395 65.2857 19.4395C65.0995 19.4395 64.9303 19.4585 64.7779 19.4966C64.6298 19.5347 64.5029 19.5876 64.3971 19.6553C64.2913 19.723 64.2088 19.8055 64.1495 19.9028C64.0903 19.9959 64.0606 20.0996 64.0606 20.2139C64.0606 20.3535 64.0903 20.472 64.1495 20.5693C64.2088 20.6667 64.2955 20.7534 64.4098 20.8296C64.5283 20.9015 64.6679 20.9692 64.8287 21.0327C64.9938 21.092 65.1821 21.1576 65.3937 21.2295C65.673 21.3438 65.9226 21.4601 66.1427 21.5786C66.367 21.6971 66.5574 21.8325 66.714 21.9849C66.8705 22.133 66.9911 22.3065 67.0758 22.5054C67.1604 22.7 67.2027 22.9328 67.2027 23.2036C67.2027 23.5337 67.1266 23.8215 66.9742 24.0669C66.8219 24.3123 66.6188 24.5155 66.3648 24.6763C66.1109 24.8371 65.8168 24.9556 65.4825 25.0317C65.1524 25.1121 64.8033 25.1523 64.4352 25.1523C63.7242 25.1523 63.1085 25.0339 62.588 24.7969ZM71.2924 25.1523C70.2895 25.1523 69.4876 24.8498 68.8866 24.2446C68.29 23.6353 67.9916 22.8291 67.9916 21.8262C67.9916 20.7344 68.3027 19.8817 68.9247 19.2681C69.551 18.6545 70.3932 18.3477 71.4511 18.3477C72.4667 18.3477 73.2581 18.646 73.8251 19.2427C74.3922 19.8394 74.6757 20.6667 74.6757 21.7246C74.6757 22.7614 74.3689 23.5929 73.7553 24.2192C73.1459 24.8413 72.325 25.1523 71.2924 25.1523ZM71.3622 19.522C70.7867 19.522 70.3318 19.723 69.9975 20.125C69.6632 20.527 69.496 21.0814 69.496 21.7881C69.496 22.4694 69.6653 23.0068 70.0038 23.4004C70.3424 23.7897 70.7952 23.9844 71.3622 23.9844C71.942 23.9844 72.3863 23.7918 72.6952 23.4067C73.0084 23.0216 73.165 22.4736 73.165 21.7627C73.165 21.0475 73.0084 20.4953 72.6952 20.106C72.3863 19.7166 71.942 19.522 71.3622 19.522ZM79.4446 16.5767C79.2457 16.4624 79.0193 16.4053 78.7654 16.4053C78.0502 16.4053 77.6926 16.8094 77.6926 17.6177V18.5H79.2034V19.6553H77.699V25H76.2263V19.6553H75.1155V18.5H76.2263V17.4463C76.2263 16.7607 76.4506 16.2212 76.8992 15.8276C77.3477 15.4299 77.9084 15.231 78.5813 15.231C78.9452 15.231 79.233 15.2712 79.4446 15.3516V16.5767ZM83.7247 24.9302C83.4369 25.0741 83.0582 25.146 82.5884 25.146C81.3274 25.146 80.6968 24.5409 80.6968 23.3306V19.6553H79.6114V18.5H80.6968V16.9956L82.1695 16.5767V18.5H83.7247V19.6553H82.1695V22.9053C82.1695 23.2904 82.2393 23.5654 82.379 23.7305C82.5186 23.8955 82.7514 23.978 83.0772 23.978C83.3269 23.978 83.5427 23.9061 83.7247 23.7622V24.9302ZM85.5419 17.1353C85.3007 17.1353 85.0933 17.057 84.9198 16.9004C84.7505 16.7438 84.6659 16.5449 84.6659 16.3037C84.6659 16.0625 84.7505 15.8615 84.9198 15.7007C85.0933 15.5399 85.3007 15.4595 85.5419 15.4595C85.7915 15.4595 86.0031 15.5399 86.1766 15.7007C86.3501 15.8615 86.4369 16.0625 86.4369 16.3037C86.4369 16.5322 86.3501 16.729 86.1766 16.894C86.0031 17.0549 85.7915 17.1353 85.5419 17.1353ZM86.2719 25H84.7992V18.5H86.2719V25ZM89.4855 25H88.0065V15.377H89.4855V25ZM94.6416 24.9302C94.3539 25.0741 93.9751 25.146 93.5054 25.146C92.2443 25.146 91.6138 24.5409 91.6138 23.3306V19.6553H90.5283V18.5H91.6138V16.9956L93.0864 16.5767V18.5H94.6416V19.6553H93.0864V22.9053C93.0864 23.2904 93.1563 23.5654 93.2959 23.7305C93.4356 23.8955 93.6683 23.978 93.9942 23.978C94.2438 23.978 94.4597 23.9061 94.6416 23.7622V24.9302ZM100.705 25H99.2772V23.9844H99.2518C98.8032 24.763 98.1452 25.1523 97.2777 25.1523C96.6387 25.1523 96.1372 24.9788 95.7733 24.6318C95.4136 24.2848 95.2337 23.8257 95.2337 23.2544C95.2337 22.0272 95.9404 21.312 97.3539 21.1089L99.2835 20.8359C99.2835 19.9092 98.8434 19.4458 97.9632 19.4458C97.1888 19.4458 96.4906 19.7124 95.8685 20.2456V18.957C96.554 18.5508 97.3454 18.3477 98.2425 18.3477C99.8845 18.3477 100.705 19.1559 100.705 20.7725V25ZM99.2835 21.8071L97.9188 21.9976C97.4956 22.0526 97.1761 22.1562 96.9603 22.3086C96.7487 22.4567 96.6429 22.7191 96.6429 23.0957C96.6429 23.3708 96.7402 23.5972 96.9349 23.7749C97.1338 23.9484 97.3983 24.0352 97.7284 24.0352C98.1769 24.0352 98.5472 23.8786 98.8392 23.5654C99.1354 23.248 99.2835 22.8503 99.2835 22.3721V21.8071Z" fill="white"/>
<rect x="0.5" y="0.5" width="108" height="31" rx="3.5" stroke="black"/>
</svg>
