<svg width="116" height="34" viewBox="0 0 116 34" fill="none" xmlns="http://www.w3.org/2000/svg">
<rect x="1" y="1" width="114" height="32" rx="4" fill="#202020"/>
<rect x="0.5" y="0.5" width="115" height="33" rx="4.5" stroke="black" stroke-opacity="0.1"/>
<g clip-path="url(#clip0_974_1796)">
<g clip-path="url(#clip1_974_1796)">
<path d="M8.28125 11C8.28125 10.5858 8.61704 10.25 9.03125 10.25H24.9687C25.383 10.25 25.7188 10.5858 25.7188 11V22.3438C25.7188 24.0524 24.3336 25.4375 22.625 25.4375H11.375C9.66637 25.4375 8.28125 24.0524 8.28125 22.3438V11Z" fill="url(#paint0_linear_974_1796)"/>
<mask id="mask0_974_1796" style="mask-type:alpha" maskUnits="userSpaceOnUse" x="8" y="10" width="18" height="16">
<path d="M8.28125 11C8.28125 10.5858 8.61704 10.25 9.03125 10.25H24.9687C25.383 10.25 25.7188 10.5858 25.7188 11V22.3438C25.7188 24.0524 24.3336 25.4375 22.625 25.4375H11.375C9.66637 25.4375 8.28125 24.0524 8.28125 22.3438V11Z" fill="url(#paint1_linear_974_1796)"/>
</mask>
<g mask="url(#mask0_974_1796)">
<g filter="url(#filter0_dd_974_1796)">
<path d="M12.7812 10.8125V8.5625H21.2187V10.8125" stroke="url(#paint2_linear_974_1796)" stroke-width="1.125" stroke-linecap="round"/>
</g>
</g>
<g filter="url(#filter1_dd_974_1796)">
<path d="M16.719 14.1875H13.344V17.5625H16.719V14.1875Z" fill="#F25022"/>
<path d="M20.6562 14.1875H17.2812V17.5625H20.6562V14.1875Z" fill="#7FBA00"/>
<path d="M20.6562 18.125H17.2812V21.5H20.6562V18.125Z" fill="#FFB900"/>
<path d="M16.7188 18.125H13.3438V21.5H16.7188V18.125Z" fill="#00A4EF"/>
</g>
<path d="M12.7812 10.8125V9.125C12.7812 8.81434 13.0331 8.5625 13.3438 8.5625H20.6563C20.9669 8.5625 21.2188 8.81434 21.2188 9.125V10.8125" stroke="url(#paint3_linear_974_1796)" stroke-width="1.125" stroke-linecap="round"/>
<rect x="13.3438" y="8" width="7.3125" height="1.125" fill="url(#paint4_linear_974_1796)"/>
<mask id="mask1_974_1796" style="mask-type:alpha" maskUnits="userSpaceOnUse" x="13" y="8" width="8" height="2">
<rect x="13.3438" y="8" width="7.3125" height="1.125" fill="url(#paint5_linear_974_1796)"/>
</mask>
<g mask="url(#mask1_974_1796)">
<g filter="url(#filter2_dd_974_1796)">
<rect x="11.7189" y="8.56274" width="1.625" height="2.8125" fill="#C4C4C4"/>
</g>
</g>
</g>
</g>
<path d="M39.2275 16H37.96V11.0854C37.96 10.8634 37.9653 10.6217 37.9761 10.3604C37.9904 10.0954 38.0083 9.81429 38.0298 9.51709H37.9976C37.9546 9.72119 37.9134 9.89665 37.874 10.0435C37.8382 10.1867 37.8024 10.3013 37.7666 10.3872L35.5054 16H34.6245L32.3525 10.4355C32.3239 10.3568 32.2881 10.2404 32.2451 10.0864C32.2057 9.93245 32.1628 9.74268 32.1162 9.51709H32.084C32.1055 9.7749 32.1198 10.0488 32.127 10.3389C32.1341 10.6253 32.1377 10.9279 32.1377 11.2466V16H30.9561V8.29785H32.7607L34.7642 13.3037C34.8429 13.4935 34.9074 13.6689 34.9575 13.8301C35.0112 13.9876 35.0524 14.1344 35.0811 14.2705H35.1133C35.1777 14.0664 35.2386 13.882 35.2959 13.7173C35.3532 13.5526 35.4069 13.4093 35.457 13.2876L37.4873 8.29785H39.2275V16ZM41.6177 9.43652C41.3885 9.43652 41.1987 9.36312 41.0483 9.21631C40.8979 9.0695 40.8228 8.88867 40.8228 8.67383C40.8228 8.45182 40.8979 8.26921 41.0483 8.12598C41.1987 7.98275 41.3885 7.91113 41.6177 7.91113C41.8504 7.91113 42.042 7.98275 42.1924 8.12598C42.3428 8.26921 42.418 8.45182 42.418 8.67383C42.418 8.89225 42.3428 9.07487 42.1924 9.22168C42.042 9.36491 41.8504 9.43652 41.6177 9.43652ZM42.2354 16H40.9839V10.5H42.2354V16ZM47.9824 15.6616C47.7103 15.8263 47.4399 15.9445 47.1714 16.0161C46.9028 16.0913 46.611 16.1289 46.2959 16.1289C45.4508 16.1289 44.7741 15.8818 44.2656 15.3877C43.7607 14.8936 43.5083 14.2222 43.5083 13.3735C43.5083 12.4604 43.7697 11.7318 44.2925 11.1875C44.8188 10.6432 45.5278 10.3711 46.4194 10.3711C46.731 10.3711 47.0138 10.4051 47.2681 10.4731C47.5259 10.5376 47.7873 10.645 48.0522 10.7954L47.5635 11.6655C47.3773 11.5617 47.1947 11.4865 47.0156 11.4399C46.8366 11.3898 46.6414 11.3647 46.4302 11.3647C45.9038 11.3647 45.4974 11.5384 45.2109 11.8857C44.9245 12.2331 44.7812 12.6932 44.7812 13.2661C44.7812 13.8677 44.9352 14.3296 45.2432 14.6519C45.5547 14.9741 45.945 15.1353 46.4141 15.1353C46.5573 15.1353 46.722 15.1102 46.9082 15.0601C47.0944 15.0063 47.2824 14.9222 47.4722 14.8076L47.9824 15.6616ZM52.1021 11.5474C52.034 11.5295 51.9678 11.5169 51.9033 11.5098C51.8424 11.499 51.7708 11.4937 51.6885 11.4937C51.2409 11.4937 50.8971 11.6584 50.6572 11.9878C50.4173 12.3172 50.2974 12.7469 50.2974 13.2769V16H49.0459V10.5H50.2974V11.5581H50.3188C50.4478 11.1785 50.6375 10.8921 50.8882 10.6987C51.1388 10.5018 51.4342 10.4033 51.7744 10.4033C51.8711 10.4033 51.957 10.4087 52.0322 10.4194C52.111 10.4302 52.1862 10.4463 52.2578 10.4678L52.1021 11.5474ZM55.5557 16.1289C54.6963 16.1289 54.0142 15.8729 53.5093 15.3608C53.008 14.8452 52.7573 14.1559 52.7573 13.293C52.7609 12.3799 53.0223 11.6655 53.5415 11.1499C54.0607 10.6307 54.7679 10.3711 55.6631 10.3711C56.526 10.3675 57.1992 10.6217 57.6826 11.1338C58.1696 11.6423 58.4131 12.3315 58.4131 13.2017C58.4131 14.0968 58.1553 14.8094 57.6396 15.3394C57.1276 15.8657 56.4329 16.1289 55.5557 16.1289ZM55.6147 15.1353C56.1125 15.1353 56.4902 14.9723 56.748 14.6465C57.0094 14.3206 57.1401 13.8498 57.1401 13.2339C57.1401 12.6252 57.0094 12.1615 56.748 11.8428C56.4867 11.5241 56.1071 11.3647 55.6094 11.3647C55.1188 11.3647 54.7321 11.533 54.4492 11.8696C54.1699 12.2062 54.0303 12.6717 54.0303 13.2661C54.0303 13.8641 54.1699 14.326 54.4492 14.6519C54.7285 14.9741 55.117 15.1353 55.6147 15.1353ZM59.1543 15.5596L59.6968 14.6787C59.9116 14.8291 60.139 14.9508 60.3789 15.0439C60.6224 15.1335 60.8856 15.1782 61.1685 15.1782C61.4764 15.1782 61.7145 15.1227 61.8828 15.0117C62.0547 14.8971 62.1406 14.7271 62.1406 14.5015C62.1406 14.3224 62.069 14.1738 61.9258 14.0557C61.7861 13.9339 61.5462 13.8337 61.2061 13.7549C60.5186 13.5938 60.0352 13.3807 59.7559 13.1157C59.4801 12.8507 59.3423 12.5016 59.3423 12.0684C59.3423 11.5706 59.5356 11.1642 59.9224 10.8491C60.3091 10.5304 60.8158 10.3711 61.4424 10.3711C61.7539 10.3711 62.0511 10.4123 62.334 10.4946C62.6169 10.5734 62.8926 10.7005 63.1611 10.876L62.6562 11.7354C62.4199 11.585 62.2033 11.4775 62.0063 11.4131C61.8094 11.3486 61.6071 11.3164 61.3994 11.3164C61.1058 11.3164 60.8766 11.3719 60.7119 11.4829C60.5508 11.5903 60.4702 11.7407 60.4702 11.9341C60.4702 12.1382 60.5526 12.2904 60.7173 12.3906C60.8856 12.4873 61.1667 12.5822 61.5605 12.6753C62.1549 12.8185 62.59 13.0262 62.8657 13.2983C63.1414 13.5669 63.2793 13.9268 63.2793 14.3779C63.2793 14.9115 63.0841 15.3376 62.6938 15.6562C62.3071 15.9714 61.7826 16.1289 61.1201 16.1289C60.762 16.1289 60.4183 16.0824 60.0889 15.9893C59.763 15.8926 59.4515 15.7493 59.1543 15.5596ZM66.8779 16.1289C66.0186 16.1289 65.3364 15.8729 64.8315 15.3608C64.3302 14.8452 64.0796 14.1559 64.0796 13.293C64.0832 12.3799 64.3446 11.6655 64.8638 11.1499C65.383 10.6307 66.0902 10.3711 66.9854 10.3711C67.8483 10.3675 68.5215 10.6217 69.0049 11.1338C69.4919 11.6423 69.7354 12.3315 69.7354 13.2017C69.7354 14.0968 69.4775 14.8094 68.9619 15.3394C68.4499 15.8657 67.7552 16.1289 66.8779 16.1289ZM66.937 15.1353C67.4347 15.1353 67.8125 14.9723 68.0703 14.6465C68.3317 14.3206 68.4624 13.8498 68.4624 13.2339C68.4624 12.6252 68.3317 12.1615 68.0703 11.8428C67.8089 11.5241 67.4294 11.3647 66.9316 11.3647C66.4411 11.3647 66.0544 11.533 65.7715 11.8696C65.4922 12.2062 65.3525 12.6717 65.3525 13.2661C65.3525 13.8641 65.4922 14.326 65.7715 14.6519C66.0508 14.9741 66.4393 15.1353 66.937 15.1353ZM73.9839 8.84033C73.8836 8.80094 73.7923 8.77409 73.71 8.75977C73.6276 8.74186 73.5381 8.73291 73.4414 8.73291C73.1764 8.73291 72.9759 8.8099 72.8398 8.96387C72.7074 9.11426 72.6411 9.33268 72.6411 9.61914V10.5H73.9141V11.4775H72.6411V16H71.395V11.4775H70.4604V10.5H71.395V9.55469C71.395 8.99609 71.5741 8.55387 71.9321 8.22803C72.2938 7.8986 72.7718 7.73389 73.3662 7.73389C73.5524 7.73389 73.7135 7.74642 73.8496 7.77148C73.9857 7.79655 74.1271 7.83236 74.2739 7.87891L73.9839 8.84033ZM77.7974 15.9248C77.6362 15.9928 77.4679 16.043 77.2925 16.0752C77.117 16.1074 76.929 16.1235 76.7285 16.1235C76.2201 16.1235 75.828 15.9893 75.5522 15.7207C75.2801 15.4486 75.144 15.0439 75.144 14.5068V11.4775H74.2202V10.5H75.144V9.1626L76.3901 8.78662V10.5H77.7061V11.4775H76.3901V14.4048C76.3901 14.6733 76.4385 14.8667 76.5352 14.9849C76.6354 15.103 76.7894 15.1621 76.9971 15.1621C77.0973 15.1621 77.1922 15.1514 77.2817 15.1299C77.3748 15.1048 77.4572 15.0744 77.5288 15.0386L77.7974 15.9248ZM81.2939 15.4468L81.8633 14.4639C82.2106 14.6787 82.5347 14.8309 82.8354 14.9204C83.1362 15.0063 83.4728 15.0493 83.8452 15.0493C84.2892 15.0493 84.6383 14.9544 84.8926 14.7646C85.1504 14.5713 85.2793 14.2956 85.2793 13.9375C85.2793 13.6117 85.1719 13.3556 84.957 13.1694C84.7458 12.9797 84.3859 12.806 83.8774 12.6484C83.0933 12.4157 82.5168 12.1274 82.1479 11.7837C81.7791 11.4399 81.5947 10.9744 81.5947 10.3872C81.5947 9.74984 81.8328 9.22168 82.3091 8.80273C82.7853 8.38021 83.4316 8.16895 84.248 8.16895C84.6061 8.16895 84.9588 8.20833 85.3062 8.28711C85.6535 8.36589 85.9972 8.48763 86.3374 8.65234L85.8594 9.67285C85.5622 9.51888 85.2775 9.40967 85.0054 9.34521C84.7368 9.28076 84.4629 9.24854 84.1836 9.24854C83.7754 9.24854 83.4531 9.33805 83.2168 9.51709C82.984 9.69613 82.8677 9.94857 82.8677 10.2744C82.8677 10.5645 82.9751 10.7936 83.1899 10.9619C83.4048 11.1266 83.7736 11.2896 84.2964 11.4507C85.0985 11.6906 85.675 11.9896 86.0259 12.3477C86.3804 12.7057 86.5576 13.1981 86.5576 13.8247C86.5576 14.4979 86.3177 15.0511 85.8379 15.4844C85.3581 15.9141 84.6742 16.1289 83.7861 16.1289C83.3421 16.1289 82.9089 16.0734 82.4863 15.9624C82.0638 15.8478 81.6663 15.6759 81.2939 15.4468ZM90.4409 15.9248C90.2798 15.9928 90.1115 16.043 89.936 16.0752C89.7606 16.1074 89.5726 16.1235 89.3721 16.1235C88.8636 16.1235 88.4715 15.9893 88.1958 15.7207C87.9237 15.4486 87.7876 15.0439 87.7876 14.5068V11.4775H86.8638V10.5H87.7876V9.1626L89.0337 8.78662V10.5H90.3496V11.4775H89.0337V14.4048C89.0337 14.6733 89.082 14.8667 89.1787 14.9849C89.279 15.103 89.4329 15.1621 89.6406 15.1621C89.7409 15.1621 89.8358 15.1514 89.9253 15.1299C90.0184 15.1048 90.1007 15.0744 90.1724 15.0386L90.4409 15.9248ZM93.8623 16.1289C93.0029 16.1289 92.3208 15.8729 91.8159 15.3608C91.3146 14.8452 91.064 14.1559 91.064 13.293C91.0675 12.3799 91.3289 11.6655 91.8481 11.1499C92.3674 10.6307 93.0745 10.3711 93.9697 10.3711C94.8327 10.3675 95.5059 10.6217 95.9893 11.1338C96.4762 11.6423 96.7197 12.3315 96.7197 13.2017C96.7197 14.0968 96.4619 14.8094 95.9463 15.3394C95.4342 15.8657 94.7396 16.1289 93.8623 16.1289ZM93.9214 15.1353C94.4191 15.1353 94.7969 14.9723 95.0547 14.6465C95.3161 14.3206 95.4468 13.8498 95.4468 13.2339C95.4468 12.6252 95.3161 12.1615 95.0547 11.8428C94.7933 11.5241 94.4137 11.3647 93.916 11.3647C93.4255 11.3647 93.0387 11.533 92.7559 11.8696C92.4766 12.2062 92.3369 12.6717 92.3369 13.2661C92.3369 13.8641 92.4766 14.326 92.7559 14.6519C93.0352 14.9741 93.4237 15.1353 93.9214 15.1353ZM101.054 11.5474C100.986 11.5295 100.92 11.5169 100.855 11.5098C100.795 11.499 100.723 11.4937 100.641 11.4937C100.193 11.4937 99.8493 11.6584 99.6094 11.9878C99.3695 12.3172 99.2495 12.7469 99.2495 13.2769V16H97.998V10.5H99.2495V11.5581H99.271C99.3999 11.1785 99.5897 10.8921 99.8403 10.6987C100.091 10.5018 100.386 10.4033 100.727 10.4033C100.823 10.4033 100.909 10.4087 100.984 10.4194C101.063 10.4302 101.138 10.4463 101.21 10.4678L101.054 11.5474ZM106.721 13.5776H102.966C102.988 14.0968 103.138 14.4925 103.417 14.7646C103.697 15.0332 104.087 15.1675 104.588 15.1675C104.792 15.1675 105.025 15.1263 105.287 15.0439C105.548 14.9616 105.806 14.8291 106.06 14.6465L106.624 15.4253C106.284 15.6724 105.938 15.8514 105.587 15.9624C105.236 16.0734 104.85 16.1289 104.427 16.1289C103.571 16.1289 102.905 15.8836 102.429 15.3931C101.953 14.8989 101.713 14.2096 101.709 13.3252C101.709 12.4443 101.955 11.7318 102.445 11.1875C102.939 10.6432 103.571 10.3711 104.341 10.3711C105.079 10.3711 105.659 10.6038 106.082 11.0693C106.508 11.5312 106.721 12.1865 106.721 13.0352V13.5776ZM105.512 12.7129C105.512 12.2402 105.408 11.8857 105.201 11.6494C104.997 11.4095 104.707 11.2896 104.331 11.2896C103.976 11.2896 103.674 11.4185 103.423 11.6763C103.176 11.9305 103.024 12.276 102.966 12.7129H105.512Z" fill="white"/>
<path d="M31.5415 23.6724H33.9272V24.1714H31.5723C31.5654 24.2739 31.5529 24.3696 31.5347 24.4585C31.5187 24.5451 31.4948 24.6214 31.4629 24.6875C31.4333 24.7513 31.3957 24.8014 31.3501 24.8379C31.3068 24.8743 31.2555 24.8926 31.1963 24.8926C31.0869 24.8926 30.9798 24.8664 30.875 24.814C30.7702 24.7616 30.6756 24.6932 30.5913 24.6089C30.5093 24.5223 30.4421 24.4266 30.3896 24.3218C30.3395 24.2147 30.3145 24.1064 30.3145 23.9971C30.3145 23.9333 30.3304 23.8786 30.3623 23.833C30.3965 23.7874 30.4421 23.751 30.499 23.7236C30.5583 23.694 30.6289 23.6724 30.7109 23.6587C30.793 23.645 30.883 23.6382 30.981 23.6382V21.8711C30.981 21.7777 30.9536 21.7002 30.8989 21.6387C30.8442 21.5771 30.7588 21.5464 30.6426 21.5464C30.597 21.5464 30.5503 21.5487 30.5024 21.5532C30.4546 21.5555 30.4102 21.5612 30.3691 21.5703L30.2632 21.0576C30.3589 21.0303 30.4819 21.0166 30.6323 21.0166C30.7896 21.0166 30.9251 21.0417 31.0391 21.0918C31.153 21.1396 31.2464 21.2057 31.3193 21.29C31.3945 21.3743 31.4504 21.4735 31.4868 21.5874C31.5233 21.6991 31.5415 21.8187 31.5415 21.9463V23.6724ZM33.9409 25.5557L34.4331 25.2036L34.6826 25.7915C34.5391 25.8826 34.3921 25.9533 34.2417 26.0034C34.0936 26.0558 33.9591 26.082 33.8384 26.082C33.688 26.082 33.5741 26.0342 33.4966 25.9385C33.4191 25.8405 33.3804 25.7061 33.3804 25.5352V21.0986H33.9409V25.5557ZM36.2651 25.5557L36.7573 25.2036L37.0068 25.7915C36.8633 25.8826 36.7163 25.9533 36.5659 26.0034C36.4178 26.0558 36.2834 26.082 36.1626 26.082C36.0122 26.082 35.8983 26.0342 35.8208 25.9385C35.7433 25.8405 35.7046 25.7061 35.7046 25.5352V21.0986H36.2651V25.5557ZM35.5679 19.8887C35.5679 19.7588 35.6066 19.654 35.6841 19.5742C35.7593 19.4922 35.8584 19.4512 35.9814 19.4512C36.0384 19.4512 36.0931 19.4626 36.1455 19.4854C36.1956 19.5081 36.2401 19.54 36.2788 19.5811C36.3175 19.6198 36.3483 19.6665 36.3711 19.7212C36.3916 19.7736 36.4019 19.8317 36.4019 19.8955C36.4019 20.0254 36.3643 20.1302 36.2891 20.21C36.2116 20.2897 36.1113 20.3296 35.9883 20.3296C35.929 20.3296 35.8743 20.3193 35.8242 20.2988C35.7718 20.276 35.7274 20.2453 35.6909 20.2065C35.6522 20.1655 35.6226 20.1188 35.6021 20.0664C35.5793 20.0117 35.5679 19.9525 35.5679 19.8887ZM41.2622 25.5557L41.7544 25.2036L42.0039 25.7915C41.8604 25.8826 41.7134 25.9533 41.563 26.0034C41.4149 26.0558 41.2804 26.082 41.1597 26.082C41.0093 26.082 40.8953 26.0342 40.8179 25.9385C40.7404 25.8405 40.7017 25.7061 40.7017 25.5352V24.8857C40.5285 24.9723 40.3451 25.0361 40.1514 25.0771C39.9577 25.1159 39.7435 25.1353 39.5088 25.1353C39.2376 25.1353 38.9915 25.0954 38.7705 25.0156C38.5518 24.9359 38.3604 24.8208 38.1963 24.6704C38.0345 24.5177 37.9035 24.3298 37.8032 24.1064C37.703 23.8831 37.6357 23.6279 37.6016 23.3408C37.7383 23.3408 37.875 23.3294 38.0117 23.3066C38.1507 23.2839 38.2829 23.2497 38.4082 23.2041V23.1802C38.292 23.1323 38.1849 23.0731 38.0869 23.0024C37.9912 22.9295 37.9092 22.8475 37.8408 22.7563C37.7725 22.6629 37.7189 22.5615 37.6802 22.4521C37.6414 22.3405 37.6221 22.2231 37.6221 22.1001C37.6221 21.952 37.6471 21.813 37.6973 21.6831C37.7474 21.5509 37.818 21.4359 37.9092 21.3379C38.0026 21.2376 38.1131 21.159 38.2407 21.1021C38.3706 21.0451 38.513 21.0166 38.668 21.0166C38.8252 21.0166 38.971 21.0451 39.1055 21.1021C39.2399 21.159 39.3573 21.2399 39.4575 21.3447C39.5578 21.4473 39.6364 21.5726 39.6934 21.7207C39.7503 21.8688 39.7788 22.034 39.7788 22.2163C39.7788 22.4419 39.7389 22.6436 39.6592 22.8213C39.5794 22.9967 39.4701 23.1494 39.3311 23.2793C39.1943 23.4069 39.0314 23.5117 38.8423 23.5938C38.6554 23.6735 38.4549 23.7282 38.2407 23.7578C38.3114 24.0176 38.4515 24.2238 38.6611 24.3765C38.8708 24.5291 39.1465 24.6055 39.4883 24.6055C39.5863 24.6055 39.6865 24.5964 39.7891 24.5781C39.8939 24.5576 39.9987 24.5291 40.1035 24.4927C40.2083 24.4562 40.3109 24.4118 40.4111 24.3594C40.5114 24.3047 40.6082 24.242 40.7017 24.1714V21.0986H41.2622V25.5557ZM38.1621 22.1343C38.1621 22.3006 38.2248 22.4544 38.3501 22.5957C38.4777 22.737 38.6475 22.8555 38.8594 22.9512C38.9756 22.8555 39.0679 22.7438 39.1362 22.6162C39.2046 22.4863 39.2388 22.3394 39.2388 22.1753C39.2388 22.0933 39.2251 22.0146 39.1978 21.9395C39.1704 21.8643 39.1328 21.7982 39.085 21.7412C39.0371 21.682 38.9801 21.6353 38.9141 21.6011C38.848 21.5646 38.7762 21.5464 38.6987 21.5464C38.619 21.5464 38.5461 21.5635 38.48 21.5977C38.4139 21.6296 38.3569 21.6729 38.3091 21.7275C38.2635 21.7822 38.2271 21.8449 38.1997 21.9155C38.1746 21.9862 38.1621 22.0591 38.1621 22.1343ZM43.5864 25.5557L44.0786 25.2036L44.3281 25.7915C44.1846 25.8826 44.0376 25.9533 43.8872 26.0034C43.7391 26.0558 43.6047 26.082 43.4839 26.082C43.3335 26.082 43.2196 26.0342 43.1421 25.9385C43.0646 25.8405 43.0259 25.7061 43.0259 25.5352V20.9482C43.0259 20.7135 43.0042 20.5096 42.9609 20.3364C42.9199 20.161 42.8607 20.0163 42.7832 19.9023C42.7057 19.7884 42.6123 19.703 42.5029 19.646C42.3936 19.589 42.2728 19.5605 42.1406 19.5605C42.0221 19.5605 41.9116 19.5799 41.8091 19.6187C41.7065 19.6574 41.6177 19.7109 41.5425 19.7793C41.4673 19.8477 41.408 19.9308 41.3647 20.0288C41.3215 20.1245 41.2998 20.2305 41.2998 20.3467V20.4629H40.7393V20.333C40.7393 20.1462 40.7723 19.973 40.8384 19.8135C40.9022 19.654 40.9933 19.5161 41.1118 19.3999C41.2303 19.2837 41.3739 19.1937 41.5425 19.1299C41.7111 19.0638 41.9002 19.0308 42.1099 19.0308C42.3582 19.0308 42.5747 19.0809 42.7593 19.1812C42.9438 19.2791 43.0977 19.4159 43.2207 19.5913C43.3438 19.7645 43.4349 19.9707 43.4941 20.21C43.5557 20.4469 43.5864 20.7044 43.5864 20.9824V25.5557ZM46.9087 24.7319C47.1502 24.9963 47.3975 25.1991 47.6504 25.3403C47.9033 25.4816 48.1733 25.5522 48.4604 25.5522C48.5994 25.5522 48.7384 25.5317 48.8774 25.4907C49.0164 25.4497 49.1406 25.3882 49.25 25.3062C49.3617 25.2218 49.4517 25.1159 49.52 24.9883C49.5907 24.8584 49.626 24.7057 49.626 24.5303C49.626 24.389 49.5975 24.2637 49.5405 24.1543C49.4858 24.0449 49.4106 23.9492 49.3149 23.8672C49.2192 23.7852 49.1076 23.7157 48.98 23.6587C48.8524 23.5994 48.7168 23.5505 48.5732 23.5117C48.3317 23.4456 48.1198 23.3739 47.9375 23.2964C47.7575 23.2166 47.606 23.1243 47.4829 23.0195C47.3621 22.9124 47.271 22.7905 47.2095 22.6538C47.1502 22.5148 47.1206 22.3542 47.1206 22.1719C47.1206 22.0169 47.1479 21.8745 47.2026 21.7446C47.2573 21.6125 47.3359 21.4985 47.4385 21.4028C47.541 21.3071 47.6641 21.2331 47.8076 21.1807C47.9535 21.126 48.1164 21.0986 48.2964 21.0986H49.3867V21.6011H48.3647C48.2622 21.6011 48.1676 21.6159 48.0811 21.6455C47.9945 21.6751 47.9204 21.7161 47.8589 21.7686C47.7974 21.821 47.7484 21.8836 47.7119 21.9565C47.6777 22.0272 47.6606 22.1058 47.6606 22.1924C47.6606 22.2949 47.6823 22.3861 47.7256 22.4658C47.7689 22.5456 47.8338 22.6174 47.9204 22.6812C48.007 22.7427 48.1152 22.7996 48.2451 22.8521C48.375 22.9022 48.5265 22.9512 48.6997 22.999C48.8068 23.0286 48.9173 23.064 49.0312 23.105C49.1452 23.1437 49.2557 23.1916 49.3628 23.2485C49.4722 23.3055 49.5758 23.3739 49.6738 23.4536C49.7718 23.5311 49.8573 23.6234 49.9302 23.7305C50.0031 23.8353 50.0601 23.9561 50.1011 24.0928C50.1444 24.2295 50.166 24.3856 50.166 24.561C50.166 24.8185 50.1136 25.043 50.0088 25.2344C49.9062 25.4258 49.7741 25.5841 49.6123 25.7095C49.4505 25.8348 49.2716 25.9282 49.0757 25.9897C48.8797 26.0513 48.6895 26.082 48.5049 26.082C48.3021 26.082 48.1107 26.0592 47.9307 26.0137C47.7529 25.9681 47.5832 25.9032 47.4214 25.8188C47.2619 25.7345 47.1104 25.632 46.9668 25.5112C46.8255 25.3905 46.6888 25.2549 46.5566 25.1045L46.9087 24.7319ZM51.7417 25.5557L52.2339 25.2036L52.4834 25.7915C52.3398 25.8826 52.1929 25.9533 52.0425 26.0034C51.8944 26.0558 51.7599 26.082 51.6392 26.082C51.4888 26.082 51.3748 26.0342 51.2974 25.9385C51.2199 25.8405 51.1812 25.7061 51.1812 25.5352V21.0986H51.7417V25.5557ZM55.2041 23.1904C55.2702 23.2018 55.3431 23.2087 55.4229 23.2109C55.5026 23.2132 55.5824 23.2144 55.6621 23.2144C55.792 23.2144 55.9105 23.1938 56.0176 23.1528C56.1247 23.1118 56.2158 23.056 56.291 22.9854C56.3662 22.9147 56.4243 22.8315 56.4653 22.7358C56.5063 22.6379 56.5269 22.5342 56.5269 22.4248C56.5269 22.304 56.5063 22.1947 56.4653 22.0967C56.4266 21.9987 56.3696 21.9155 56.2944 21.8472C56.2215 21.7765 56.1326 21.723 56.0278 21.6865C55.923 21.6478 55.8057 21.6284 55.6758 21.6284C55.6097 21.6284 55.5448 21.6307 55.481 21.6353C55.4194 21.6375 55.3625 21.6444 55.3101 21.6558L55.2212 21.1465C55.2873 21.1283 55.3556 21.1157 55.4263 21.1089C55.4969 21.1021 55.5687 21.0986 55.6416 21.0986C55.9014 21.0986 56.1213 21.1385 56.3013 21.2183C56.4813 21.298 56.6283 21.4028 56.7422 21.5327C56.8561 21.6603 56.9382 21.8062 56.9883 21.9702C57.0407 22.132 57.0669 22.2961 57.0669 22.4624C57.0669 22.6584 57.027 22.8384 56.9473 23.0024C56.8675 23.1665 56.7581 23.3066 56.6191 23.4229V23.4297C56.7126 23.514 56.7957 23.6006 56.8687 23.6895C56.9438 23.776 57.0065 23.8695 57.0566 23.9697C57.109 24.0677 57.1478 24.1737 57.1729 24.2876C57.2002 24.3993 57.2139 24.5223 57.2139 24.6567C57.2139 24.8687 57.166 25.0623 57.0703 25.2378C56.9746 25.411 56.8447 25.5602 56.6807 25.6855C56.5166 25.8109 56.3252 25.9089 56.1064 25.9795C55.8877 26.0479 55.6553 26.082 55.4092 26.082C55.138 26.082 54.8953 26.0456 54.6812 25.9727C54.4692 25.8975 54.2824 25.7926 54.1206 25.6582C53.9611 25.5238 53.8244 25.362 53.7104 25.1729C53.5988 24.9837 53.5076 24.7741 53.437 24.5439C53.3664 24.3138 53.3151 24.0666 53.2832 23.8022C53.2513 23.5379 53.2354 23.2633 53.2354 22.9785C53.2354 22.7119 53.257 22.4487 53.3003 22.189C53.3436 21.9292 53.4097 21.682 53.4985 21.4473C53.5874 21.2103 53.6979 20.9927 53.8301 20.7944C53.9622 20.5939 54.116 20.4207 54.2915 20.2749C54.4692 20.1268 54.6686 20.0117 54.8896 19.9297C55.113 19.8477 55.3579 19.8066 55.6245 19.8066C55.8729 19.8066 56.103 19.8237 56.3149 19.8579C56.5291 19.8921 56.7365 19.9491 56.937 20.0288V20.603C56.7274 20.505 56.5189 20.4367 56.3115 20.3979C56.1042 20.3569 55.8786 20.3364 55.6348 20.3364C55.4411 20.3364 55.2599 20.3695 55.0913 20.4355C54.925 20.5016 54.7723 20.5951 54.6333 20.7158C54.4966 20.8343 54.3747 20.9767 54.2676 21.1431C54.1605 21.3071 54.0705 21.4883 53.9976 21.6865C53.9246 21.8825 53.8688 22.0921 53.8301 22.3154C53.7936 22.5387 53.7754 22.7666 53.7754 22.999C53.7754 23.2201 53.7856 23.4365 53.8062 23.6484C53.8289 23.8604 53.8654 24.0609 53.9155 24.25C53.9679 24.4391 54.034 24.6134 54.1138 24.7729C54.1958 24.9325 54.2961 25.0703 54.4146 25.1865C54.5353 25.3005 54.6755 25.3905 54.835 25.4565C54.9945 25.5203 55.1768 25.5522 55.3818 25.5522C55.5687 25.5522 55.7407 25.5272 55.8979 25.4771C56.0552 25.4269 56.1908 25.3597 56.3047 25.2754C56.4209 25.1888 56.5109 25.0874 56.5747 24.9712C56.6408 24.855 56.6738 24.7319 56.6738 24.6021C56.6738 24.4334 56.634 24.2728 56.5542 24.1201C56.4744 23.9674 56.3514 23.8148 56.1851 23.6621C56.0301 23.7168 55.8615 23.7441 55.6792 23.7441C55.5835 23.7441 55.4889 23.7407 55.3955 23.7339C55.3044 23.7248 55.2189 23.7145 55.1392 23.7031L55.2041 23.1904ZM59.7329 23.0605V23.0742C59.8081 23.1745 59.8651 23.2747 59.9038 23.375C59.9425 23.473 59.9619 23.5812 59.9619 23.6997C59.9619 23.825 59.9368 23.9424 59.8867 24.0518C59.8366 24.1589 59.7671 24.2534 59.6782 24.3354C59.5916 24.4152 59.4891 24.4779 59.3706 24.5234C59.2521 24.569 59.1234 24.5918 58.9844 24.5918C58.8454 24.5918 58.7132 24.5679 58.5879 24.52C58.4626 24.4722 58.3521 24.4027 58.2563 24.3115C58.1606 24.2204 58.0843 24.111 58.0273 23.9834C57.9727 23.8558 57.9453 23.7111 57.9453 23.5493C57.9453 23.4058 57.9692 23.2736 58.0171 23.1528C58.0672 23.0321 58.1379 22.9272 58.229 22.8384C58.3224 22.7495 58.4341 22.6812 58.564 22.6333C58.6961 22.5832 58.8442 22.5581 59.0083 22.5581H61.6128V23.0605H59.7329ZM59.4219 23.6245C59.4219 23.5197 59.4048 23.4217 59.3706 23.3306C59.3364 23.2394 59.2829 23.1494 59.21 23.0605H59.0459C58.9639 23.0605 58.8875 23.0742 58.8169 23.1016C58.7485 23.1266 58.6893 23.1631 58.6392 23.2109C58.5913 23.2565 58.5537 23.3112 58.5264 23.375C58.499 23.4365 58.4854 23.5037 58.4854 23.5767C58.4854 23.6587 58.499 23.7305 58.5264 23.792C58.556 23.8512 58.5936 23.9014 58.6392 23.9424C58.6847 23.9811 58.7349 24.0107 58.7896 24.0312C58.8465 24.0518 58.9035 24.062 58.9604 24.062C59.0288 24.062 59.0903 24.0506 59.145 24.0278C59.202 24.0028 59.251 23.9697 59.292 23.9287C59.333 23.8877 59.3649 23.841 59.3877 23.7886C59.4105 23.7362 59.4219 23.6815 59.4219 23.6245ZM61.6265 25.5557L62.1187 25.2036L62.3682 25.7915C62.2246 25.8826 62.0776 25.9533 61.9272 26.0034C61.7791 26.0558 61.6447 26.082 61.5239 26.082C61.3735 26.082 61.2596 26.0342 61.1821 25.9385C61.1047 25.8405 61.0659 25.7061 61.0659 25.5352V21.0986H61.6265V25.5557ZM64.1489 22.7632L65.7314 22.6299V21.0986H66.292V25.5557L66.7842 25.2036L67.0337 25.7915C66.8901 25.8826 66.7432 25.9533 66.5928 26.0034C66.4447 26.0558 66.3102 26.082 66.1895 26.082C66.0391 26.082 65.9251 26.0342 65.8477 25.9385C65.7702 25.8405 65.7314 25.7061 65.7314 25.5352V23.1528L64.2173 23.2998L64.1489 22.7632ZM65.1982 21.6387C65.0957 21.6068 64.9943 21.584 64.894 21.5703C64.7961 21.5544 64.6935 21.5464 64.5864 21.5464C64.411 21.5464 64.2503 21.5817 64.1045 21.6523C63.9587 21.723 63.8322 21.821 63.7251 21.9463C63.618 22.0693 63.5348 22.2152 63.4756 22.3838C63.4163 22.5524 63.3867 22.7336 63.3867 22.9272C63.3867 23.1802 63.422 23.3966 63.4927 23.5767C63.5656 23.7567 63.667 23.9048 63.7969 24.021C63.929 24.1372 64.0863 24.2227 64.2686 24.2773C64.4508 24.332 64.6525 24.3594 64.8735 24.3594C64.9259 24.3594 64.9772 24.3582 65.0273 24.356C65.0798 24.3514 65.1333 24.3468 65.188 24.3423L65.2632 24.8687C65.1333 24.8823 65.0023 24.8892 64.8701 24.8892C64.5124 24.8892 64.2059 24.839 63.9507 24.7388C63.6955 24.6385 63.4858 24.4995 63.3218 24.3218C63.1577 24.144 63.0369 23.9344 62.9595 23.6929C62.8843 23.4491 62.8467 23.1836 62.8467 22.8965C62.8467 22.6208 62.8866 22.3678 62.9663 22.1377C63.0483 21.9053 63.1634 21.707 63.3115 21.543C63.4619 21.3766 63.6408 21.2479 63.8481 21.1567C64.0578 21.0633 64.2891 21.0166 64.542 21.0166C64.6673 21.0166 64.7801 21.0223 64.8804 21.0337C64.9806 21.0451 65.0763 21.0622 65.1675 21.085L65.1982 21.6387ZM68.6128 25.5557L69.105 25.2036L69.3545 25.7915C69.2109 25.8826 69.064 25.9533 68.9136 26.0034C68.7655 26.0558 68.631 26.082 68.5103 26.082C68.3599 26.082 68.2459 26.0342 68.1685 25.9385C68.091 25.8405 68.0522 25.7061 68.0522 25.5352V21.0986H68.6128V25.5557ZM66.3877 19.1094C66.5973 19.1094 66.7819 19.1253 66.9414 19.1572C67.1009 19.1868 67.241 19.2336 67.3618 19.2974C67.4826 19.3589 67.5874 19.4364 67.6763 19.5298C67.7674 19.6232 67.8483 19.7326 67.9189 19.8579L68.6128 21.0986L68.1514 21.3003L67.6387 20.2783C67.5771 20.1553 67.5054 20.055 67.4233 19.9775C67.3413 19.8978 67.249 19.8351 67.1465 19.7896C67.0439 19.7417 66.9312 19.7087 66.8081 19.6904C66.6828 19.6722 66.5483 19.6631 66.4048 19.6631H65.6084V19.1094H66.3877ZM70.0142 24.7319C70.2557 24.9963 70.5029 25.1991 70.7559 25.3403C71.0088 25.4816 71.2788 25.5522 71.5659 25.5522C71.7049 25.5522 71.8439 25.5317 71.9829 25.4907C72.1219 25.4497 72.2461 25.3882 72.3555 25.3062C72.4671 25.2218 72.5571 25.1159 72.6255 24.9883C72.6961 24.8584 72.7314 24.7057 72.7314 24.5303C72.7314 24.389 72.703 24.2637 72.646 24.1543C72.5913 24.0449 72.5161 23.9492 72.4204 23.8672C72.3247 23.7852 72.2131 23.7157 72.0854 23.6587C71.9578 23.5994 71.8223 23.5505 71.6787 23.5117C71.4372 23.4456 71.2253 23.3739 71.043 23.2964C70.863 23.2166 70.7114 23.1243 70.5884 23.0195C70.4676 22.9124 70.3765 22.7905 70.3149 22.6538C70.2557 22.5148 70.2261 22.3542 70.2261 22.1719C70.2261 22.0169 70.2534 21.8745 70.3081 21.7446C70.3628 21.6125 70.4414 21.4985 70.5439 21.4028C70.6465 21.3071 70.7695 21.2331 70.9131 21.1807C71.0589 21.126 71.2218 21.0986 71.4019 21.0986H72.4922V21.6011H71.4702C71.3677 21.6011 71.2731 21.6159 71.1865 21.6455C71.0999 21.6751 71.0259 21.7161 70.9644 21.7686C70.9028 21.821 70.8538 21.8836 70.8174 21.9565C70.7832 22.0272 70.7661 22.1058 70.7661 22.1924C70.7661 22.2949 70.7878 22.3861 70.8311 22.4658C70.8743 22.5456 70.9393 22.6174 71.0259 22.6812C71.1125 22.7427 71.2207 22.7996 71.3506 22.8521C71.4805 22.9022 71.632 22.9512 71.8052 22.999C71.9123 23.0286 72.0228 23.064 72.1367 23.105C72.2507 23.1437 72.3612 23.1916 72.4683 23.2485C72.5776 23.3055 72.6813 23.3739 72.7793 23.4536C72.8773 23.5311 72.9627 23.6234 73.0356 23.7305C73.1086 23.8353 73.1655 23.9561 73.2065 24.0928C73.2498 24.2295 73.2715 24.3856 73.2715 24.561C73.2715 24.8185 73.2191 25.043 73.1143 25.2344C73.0117 25.4258 72.8796 25.5841 72.7178 25.7095C72.556 25.8348 72.3771 25.9282 72.1812 25.9897C71.9852 26.0513 71.7949 26.082 71.6104 26.082C71.4076 26.082 71.2161 26.0592 71.0361 26.0137C70.8584 25.9681 70.6886 25.9032 70.5269 25.8188C70.3674 25.7345 70.2158 25.632 70.0723 25.5112C69.931 25.3905 69.7943 25.2549 69.6621 25.1045L70.0142 24.7319ZM78.2173 23.4844V23.4912C78.3335 23.5732 78.4395 23.661 78.5352 23.7544C78.6309 23.8478 78.7129 23.9492 78.7812 24.0586C78.8496 24.168 78.9032 24.2876 78.9419 24.4175C78.9806 24.5451 79 24.6852 79 24.8379C79 25.002 78.9647 25.1592 78.894 25.3096C78.8234 25.4577 78.7231 25.5898 78.5933 25.7061C78.4657 25.82 78.3107 25.9111 78.1284 25.9795C77.9484 26.0479 77.7467 26.082 77.5234 26.082C77.193 26.082 76.8763 26.0296 76.5732 25.9248C76.2725 25.82 75.9797 25.6593 75.6948 25.4429L75.9683 25.0361C76.2098 25.207 76.4502 25.3358 76.6895 25.4224C76.931 25.509 77.1919 25.5522 77.4722 25.5522C77.6203 25.5522 77.7547 25.5295 77.8755 25.4839C77.9985 25.436 78.1034 25.3757 78.1899 25.3027C78.2765 25.2298 78.3426 25.1501 78.3882 25.0635C78.436 24.9746 78.46 24.888 78.46 24.8037C78.46 24.7012 78.4395 24.6021 78.3984 24.5063C78.3597 24.4106 78.3039 24.3172 78.231 24.2261C78.158 24.1349 78.0703 24.0483 77.9678 23.9663C77.8652 23.882 77.7513 23.8022 77.626 23.7271L76.4536 24.209L76.252 23.7065L77.0723 23.3682V23.3613C76.9059 23.2155 76.7703 23.0503 76.6655 22.8657C76.563 22.6789 76.5117 22.4692 76.5117 22.2368C76.5117 22.0864 76.5436 21.9406 76.6074 21.7993C76.6712 21.6558 76.7635 21.5282 76.8843 21.4165C77.005 21.3026 77.1543 21.2069 77.332 21.1294C77.5098 21.0519 77.7126 21.0029 77.9404 20.9824L78.125 21.4814C77.9632 21.5042 77.8162 21.5407 77.6841 21.5908C77.5519 21.6387 77.4391 21.6979 77.3457 21.7686C77.2523 21.8369 77.1794 21.9132 77.127 21.9976C77.0768 22.0819 77.0518 22.1696 77.0518 22.2607C77.0518 22.3519 77.0677 22.4396 77.0996 22.5239C77.1315 22.606 77.1737 22.6846 77.2261 22.7598C77.2808 22.8327 77.3434 22.901 77.4141 22.9648C77.4847 23.0286 77.5588 23.0868 77.6362 23.1392L78.8701 22.6333L79.0649 23.1357L78.2173 23.4844ZM79.8818 23.5049C79.9661 23.514 80.0596 23.5208 80.1621 23.5254C80.2646 23.5277 80.3649 23.5288 80.4629 23.5288C80.6361 23.5288 80.7933 23.5037 80.9346 23.4536C81.0781 23.4035 81.1989 23.334 81.2969 23.2451C81.3971 23.1562 81.4746 23.0526 81.5293 22.9341C81.584 22.8133 81.6113 22.6846 81.6113 22.5479C81.6113 22.3952 81.5863 22.2573 81.5361 22.1343C81.4883 22.0112 81.4199 21.9064 81.3311 21.8198C81.2422 21.731 81.134 21.6637 81.0063 21.6182C80.881 21.5703 80.7409 21.5464 80.5859 21.5464C80.5062 21.5464 80.4287 21.5487 80.3535 21.5532C80.2783 21.5555 80.2088 21.5623 80.145 21.5737L80.0562 21.0645C80.1268 21.0462 80.202 21.0337 80.2817 21.0269C80.3615 21.02 80.4447 21.0166 80.5312 21.0166C80.8206 21.0166 81.0679 21.0622 81.2729 21.1533C81.478 21.2422 81.6455 21.3607 81.7754 21.5088C81.9053 21.6546 81.9998 21.8221 82.0591 22.0112C82.1206 22.1981 82.1514 22.3895 82.1514 22.5854C82.1514 22.7632 82.1217 22.9295 82.0625 23.0845C82.0055 23.2371 81.9246 23.375 81.8198 23.498C81.7173 23.6211 81.592 23.7271 81.4438 23.8159C81.298 23.9025 81.1362 23.9663 80.9585 24.0073L81.1362 24.6772C81.175 24.8254 81.2183 24.9541 81.2661 25.0635C81.314 25.1729 81.3675 25.264 81.4268 25.3369C81.4883 25.4098 81.5566 25.4645 81.6318 25.501C81.707 25.5352 81.7913 25.5522 81.8848 25.5522C82.0078 25.5522 82.1423 25.534 82.2881 25.4976C82.4362 25.4588 82.5991 25.3962 82.7769 25.3096L82.9751 25.8496C82.7928 25.9294 82.6117 25.9875 82.4316 26.0239C82.2516 26.0627 82.0728 26.082 81.895 26.082C81.7515 26.082 81.6147 26.0604 81.4849 26.0171C81.3573 25.9738 81.2388 25.902 81.1294 25.8018C81.02 25.7015 80.9209 25.5682 80.832 25.4019C80.7454 25.2355 80.6714 25.0293 80.6099 24.7832L80.4287 24.0586C80.3079 24.0586 80.1951 24.0552 80.0903 24.0483C79.9878 24.0415 79.8966 24.0324 79.8169 24.021L79.8818 23.5049ZM84.3491 25.5557L84.8413 25.2036L85.0908 25.7915C84.9473 25.8826 84.8003 25.9533 84.6499 26.0034C84.5018 26.0558 84.3674 26.082 84.2466 26.082C84.0962 26.082 83.9823 26.0342 83.9048 25.9385C83.8273 25.8405 83.7886 25.7061 83.7886 25.5352V21.0986H84.3491V25.5557ZM82.124 19.1094C82.3337 19.1094 82.5182 19.1253 82.6777 19.1572C82.8372 19.1868 82.9774 19.2336 83.0981 19.2974C83.2189 19.3589 83.3237 19.4364 83.4126 19.5298C83.5037 19.6232 83.5846 19.7326 83.6553 19.8579L84.3491 21.0986L83.8877 21.3003L83.375 20.2783C83.3135 20.1553 83.2417 20.055 83.1597 19.9775C83.0776 19.8978 82.9854 19.8351 82.8828 19.7896C82.7803 19.7417 82.6675 19.7087 82.5444 19.6904C82.4191 19.6722 82.2847 19.6631 82.1411 19.6631H81.3447V19.1094H82.124Z" fill="white" fill-opacity="0.786"/>
<defs>
<filter id="filter0_dd_974_1796" x="11.0938" y="7.25" width="11.8125" height="5.625" filterUnits="userSpaceOnUse" color-interpolation-filters="sRGB">
<feFlood flood-opacity="0" result="BackgroundImageFix"/>
<feColorMatrix in="SourceAlpha" type="matrix" values="0 0 0 0 0 0 0 0 0 0 0 0 0 0 0 0 0 0 127 0" result="hardAlpha"/>
<feOffset dy="0.1875"/>
<feGaussianBlur stdDeviation="0.1875"/>
<feColorMatrix type="matrix" values="0 0 0 0 0 0 0 0 0 0 0 0 0 0 0 0 0 0 0.1 0"/>
<feBlend mode="normal" in2="BackgroundImageFix" result="effect1_dropShadow_974_1796"/>
<feColorMatrix in="SourceAlpha" type="matrix" values="0 0 0 0 0 0 0 0 0 0 0 0 0 0 0 0 0 0 127 0" result="hardAlpha"/>
<feOffset dy="0.375"/>
<feGaussianBlur stdDeviation="0.5625"/>
<feColorMatrix type="matrix" values="0 0 0 0 0 0 0 0 0 0 0 0 0 0 0 0 0 0 0.2 0"/>
<feBlend mode="normal" in2="effect1_dropShadow_974_1796" result="effect2_dropShadow_974_1796"/>
<feBlend mode="normal" in="SourceGraphic" in2="effect2_dropShadow_974_1796" result="shape"/>
</filter>
<filter id="filter1_dd_974_1796" x="12.2188" y="13.4375" width="9.5625" height="9.5625" filterUnits="userSpaceOnUse" color-interpolation-filters="sRGB">
<feFlood flood-opacity="0" result="BackgroundImageFix"/>
<feColorMatrix in="SourceAlpha" type="matrix" values="0 0 0 0 0 0 0 0 0 0 0 0 0 0 0 0 0 0 127 0" result="hardAlpha"/>
<feOffset dy="0.1875"/>
<feGaussianBlur stdDeviation="0.1875"/>
<feColorMatrix type="matrix" values="0 0 0 0 1 0 0 0 0 1 0 0 0 0 1 0 0 0 0.6 0"/>
<feBlend mode="normal" in2="BackgroundImageFix" result="effect1_dropShadow_974_1796"/>
<feColorMatrix in="SourceAlpha" type="matrix" values="0 0 0 0 0 0 0 0 0 0 0 0 0 0 0 0 0 0 127 0" result="hardAlpha"/>
<feOffset dy="0.375"/>
<feGaussianBlur stdDeviation="0.5625"/>
<feColorMatrix type="matrix" values="0 0 0 0 1 0 0 0 0 1 0 0 0 0 1 0 0 0 0.6 0"/>
<feBlend mode="normal" in2="effect1_dropShadow_974_1796" result="effect2_dropShadow_974_1796"/>
<feBlend mode="normal" in="SourceGraphic" in2="effect2_dropShadow_974_1796" result="shape"/>
</filter>
<filter id="filter2_dd_974_1796" x="10.5939" y="6.6875" width="12.8124" height="5.06274" filterUnits="userSpaceOnUse" color-interpolation-filters="sRGB">
<feFlood flood-opacity="0" result="BackgroundImageFix"/>
<feColorMatrix in="SourceAlpha" type="matrix" values="0 0 0 0 0 0 0 0 0 0 0 0 0 0 0 0 0 0 127 0" result="hardAlpha"/>
<feOffset dy="-0.75"/>
<feGaussianBlur stdDeviation="0.1875"/>
<feColorMatrix type="matrix" values="0 0 0 0 0 0 0 0 0 0 0 0 0 0 0 0 0 0 0.1 0"/>
<feBlend mode="normal" in2="BackgroundImageFix" result="effect1_dropShadow_974_1796"/>
<feColorMatrix in="SourceAlpha" type="matrix" values="0 0 0 0 0 0 0 0 0 0 0 0 0 0 0 0 0 0 127 0" result="hardAlpha"/>
<feOffset dy="-0.75"/>
<feGaussianBlur stdDeviation="0.5625"/>
<feColorMatrix type="matrix" values="0 0 0 0 0 0 0 0 0 0 0 0 0 0 0 0 0 0 0.2 0"/>
<feBlend mode="normal" in2="effect1_dropShadow_974_1796" result="effect2_dropShadow_974_1796"/>
<feBlend mode="normal" in="SourceGraphic" in2="effect2_dropShadow_974_1796" result="shape"/>
</filter>
<linearGradient id="paint0_linear_974_1796" x1="12.2443" y1="8.00639" x2="15.9039" y2="24.8132" gradientUnits="userSpaceOnUse">
<stop offset="0.270833" stop-color="white"/>
<stop offset="1" stop-color="#DFDFDF"/>
</linearGradient>
<linearGradient id="paint1_linear_974_1796" x1="17" y1="10.25" x2="20.3514" y2="25.9624" gradientUnits="userSpaceOnUse">
<stop stop-color="#0078D4"/>
<stop offset="1" stop-color="#114A8B"/>
</linearGradient>
<linearGradient id="paint2_linear_974_1796" x1="17" y1="8.5625" x2="17.1583" y2="10.9858" gradientUnits="userSpaceOnUse">
<stop stop-color="#28AFEA"/>
<stop offset="1" stop-color="#0078D4"/>
</linearGradient>
<linearGradient id="paint3_linear_974_1796" x1="17" y1="8.5625" x2="17.1583" y2="10.9858" gradientUnits="userSpaceOnUse">
<stop stop-color="#30DAFF"/>
<stop offset="1" stop-color="#0094D4"/>
</linearGradient>
<linearGradient id="paint4_linear_974_1796" x1="16.5938" y1="8" x2="16.5937" y2="9.125" gradientUnits="userSpaceOnUse">
<stop stop-color="#22BCFF"/>
<stop offset="1" stop-color="#0088F0"/>
</linearGradient>
<linearGradient id="paint5_linear_974_1796" x1="16.5938" y1="8" x2="16.5937" y2="9.125" gradientUnits="userSpaceOnUse">
<stop stop-color="#28AFEA"/>
<stop offset="1" stop-color="#3CCBF4"/>
</linearGradient>
<clipPath id="clip0_974_1796">
<rect width="18" height="18" fill="white" transform="translate(8 8)"/>
</clipPath>
<clipPath id="clip1_974_1796">
<rect width="18" height="18" fill="white" transform="translate(8 8)"/>
</clipPath>
</defs>
</svg>
