<svg width="89" height="32" viewBox="0 0 89 32" fill="none" xmlns="http://www.w3.org/2000/svg">
<rect x="0.49955" y="0.5" width="87.0016" height="31" rx="3.5" fill="black"/>
<path d="M71.5586 6.99988H62.9986V15.5606H71.5586V6.99988Z" fill="#F25022"/>
<path d="M81.0006 6.99988H72.4406V15.5606H81.0006V6.99988Z" fill="#7FBA00"/>
<path d="M71.5586 16.4392H62.9986V24.9999H71.5586V16.4392Z" fill="#00A4EF"/>
<path d="M81.0007 16.4392H72.4407V24.9999H81.0007V16.4392Z" fill="#FFB900"/>
<path d="M19.1632 23.0234V22.4883H21.296V23.0234H19.1632ZM24.8819 20.1289C25.5121 20.1289 25.9718 20.3216 26.2608 20.707C26.5525 21.0898 26.6983 21.6992 26.6983 22.5352V25H24.3468V24.3359H25.9718V22.625C25.9718 21.987 25.8897 21.5234 25.7257 21.2344C25.5616 20.9453 25.283 20.8008 24.8897 20.8008C24.5382 20.8008 24.2491 20.9596 24.0225 21.2773C23.7934 21.6003 23.5837 22.1615 23.3936 22.9609L22.9054 25H22.1319L22.6671 22.9023C22.727 22.6576 22.7882 22.4362 22.8507 22.2383C22.9132 22.0404 22.9744 21.8646 23.0343 21.7109L22.0577 20.207H22.9054L23.3936 21C23.5968 20.6927 23.8142 20.4714 24.046 20.3359C24.2778 20.1979 24.5564 20.1289 24.8819 20.1289ZM34.7452 25H34.0225V22.1055C34.0225 21.6211 33.878 21.2734 33.589 21.0625C33.3025 20.8516 32.8793 20.7461 32.3194 20.7461C32.2048 20.7461 32.0798 20.7513 31.9444 20.7617C31.809 20.7695 31.6501 20.7826 31.4679 20.8008V23.5781C31.4679 24.0703 31.3741 24.4427 31.1866 24.6953C30.9991 24.9479 30.6918 25.0742 30.2647 25.0742C30.1736 25.0742 30.085 25.0703 29.9991 25.0625C29.9158 25.0547 29.8311 25.043 29.7452 25.0273L29.8546 24.4336C29.891 24.4414 29.9314 24.4466 29.9757 24.4492C30.0199 24.4518 30.0668 24.4531 30.1163 24.4531C30.3246 24.4531 30.4822 24.3802 30.589 24.2344C30.6957 24.0859 30.7491 23.8411 30.7491 23.5V20.8867C30.6866 20.8971 30.6098 20.9115 30.5186 20.9297C30.4301 20.9453 30.3103 20.9674 30.1593 20.9961L30.2413 20.3125C30.5929 20.2578 30.9496 20.2148 31.3116 20.1836C31.6736 20.1497 32.0577 20.1328 32.464 20.1328C33.2712 20.1328 33.8533 20.2956 34.21 20.6211C34.5668 20.944 34.7452 21.4206 34.7452 22.0508V25ZM36.7725 23.4258L36.46 25H35.7022L36.0304 23.4414C36.1241 22.9935 36.21 22.6784 36.2882 22.4961C36.3663 22.3112 36.464 22.1615 36.5811 22.0469C36.7009 21.9323 36.8611 21.8346 37.0616 21.7539L35.9327 20.207H36.8194L38.5811 22.6328C38.7765 22.4505 38.9314 22.2305 39.046 21.9727C39.1632 21.7122 39.24 21.4141 39.2765 21.0781L39.3663 20.207H40.1085L40.0186 21.0625C39.99 21.349 39.9379 21.6003 39.8624 21.8164C39.8103 21.9648 39.7478 22.1068 39.6749 22.2422C39.602 22.375 39.5082 22.513 39.3936 22.6562C39.2817 22.7995 39.1358 22.9596 38.9561 23.1367L40.3663 25H39.4522L37.3897 22.1992C37.1814 22.3008 37.033 22.4766 36.9444 22.7266C36.9184 22.7917 36.891 22.8828 36.8624 23C36.8363 23.1172 36.8064 23.2591 36.7725 23.4258ZM42.0265 22.3516V25H41.3077V22.3828C41.3077 22.1068 41.3598 21.8828 41.464 21.7109C41.5707 21.5391 41.7504 21.4115 42.003 21.3281L40.6671 20.8789V20.1367L42.9405 20.9023V21.6484L42.5147 21.5039C42.3559 21.5898 42.2491 21.6654 42.1944 21.7305C42.0824 21.8607 42.0265 22.0677 42.0265 22.3516ZM46.003 24.3672C46.503 24.1823 46.9301 23.9479 47.2843 23.6641C47.641 23.3828 47.9119 23.0755 48.0968 22.7422C48.2843 22.4089 48.378 22.0703 48.378 21.7266C48.378 21.1562 48.0733 20.8711 47.464 20.8711H45.5225V18.4961H46.2413V20.207H47.5382C48.5824 20.207 49.1046 20.6719 49.1046 21.6016C49.1046 22.0807 48.99 22.5404 48.7608 22.9805C48.5317 23.4206 48.2087 23.8164 47.7921 24.168C47.2973 24.5898 46.7009 24.9258 46.003 25.1758V24.3672ZM53.8311 24.3359V25H49.6475V24.3359H52.5929V22.1836C52.5929 21.7044 52.4952 21.3659 52.2999 21.168C52.1072 20.9701 51.7725 20.8711 51.296 20.8711H49.8311V20.207H51.3038C52.0225 20.207 52.5369 20.3607 52.8468 20.668C53.1567 20.9753 53.3116 21.4831 53.3116 22.1914V24.3359H53.8311ZM58.5616 21.6953C58.5616 22.1849 58.4626 22.6497 58.2647 23.0898C58.0668 23.5299 57.7869 23.9245 57.4249 24.2734C57.0629 24.6198 56.6332 24.8971 56.1358 25.1055V24.2812C56.6801 24.0365 57.0981 23.6966 57.3897 23.2617C57.684 22.8242 57.8311 22.3346 57.8311 21.793C57.8311 21.444 57.7543 21.2031 57.6007 21.0703C57.4496 20.9375 57.1879 20.8711 56.8155 20.8711H54.7608V20.207H56.7843C57.4275 20.207 57.8845 20.3229 58.1554 20.5547C58.4262 20.7839 58.5616 21.1641 58.5616 21.6953ZM55.6788 21.8867V26.5039H54.96V21.8867H55.6788Z" fill="white"/>
<path d="M18.1481 8.55974C18.1481 8.30341 18.2404 8.09835 18.425 7.92405C18.6096 7.74975 18.825 7.66772 19.0814 7.66772C19.3481 7.66772 19.5737 7.76 19.7481 7.9343C19.9225 8.1086 20.0148 8.32392 20.0148 8.55974C20.0148 8.80581 19.9225 9.02112 19.7378 9.18517C19.5532 9.35947 19.3378 9.4415 19.0712 9.4415C18.8045 9.4415 18.5891 9.35947 18.4045 9.18517C18.2404 9.01087 18.1481 8.80581 18.1481 8.55974ZM19.8404 16.9467H18.3122V10.436H19.8404V16.9467Z" fill="white"/>
<path d="M24.4964 15.8335C24.7221 15.8335 24.9785 15.7822 25.2554 15.6797C25.5323 15.5772 25.7785 15.4336 26.0144 15.2593V16.6845C25.7682 16.8281 25.4913 16.9306 25.1836 17.0024C24.8759 17.0741 24.5272 17.1151 24.158 17.1151C23.2041 17.1151 22.4246 16.8075 21.8195 16.2026C21.2144 15.5977 20.9169 14.8185 20.9169 13.8854C20.9169 12.8396 21.2246 11.9784 21.84 11.3017C22.4554 10.625 23.3169 10.2866 24.4452 10.2866C24.7323 10.2866 25.0195 10.3276 25.317 10.3994C25.6144 10.4712 25.84 10.5635 26.0144 10.6557V12.1219C25.7785 11.9476 25.5323 11.8143 25.2862 11.722C25.04 11.6298 24.7836 11.5785 24.5272 11.5785C23.9221 11.5785 23.44 11.7733 23.0605 12.1629C22.6913 12.5525 22.5067 13.0857 22.5067 13.7521C22.5067 14.4083 22.681 14.921 23.04 15.2901C23.399 15.6592 23.881 15.8335 24.4964 15.8335Z" fill="white"/>
<path d="M30.3723 10.3367C30.4954 10.3367 30.6082 10.3469 30.7005 10.3572C30.7928 10.3777 30.8851 10.3982 30.9467 10.4187V11.9669C30.8646 11.9054 30.7518 11.8541 30.598 11.8029C30.4441 11.7516 30.2595 11.7208 30.0339 11.7208C29.6544 11.7208 29.3364 11.8746 29.08 12.1925C28.8236 12.5103 28.6903 12.9922 28.6903 13.6586V16.9499H27.1621V10.4392H28.6903V11.4645H28.7108C28.8544 11.1056 29.0595 10.8288 29.3467 10.634C29.6339 10.4392 29.9723 10.3367 30.3723 10.3367Z" fill="white"/>
<path d="M31.029 13.7932C31.029 12.7166 31.3366 11.8656 31.9418 11.2299C32.5469 10.6045 33.3982 10.2866 34.4751 10.2866C35.4905 10.2866 36.2905 10.5942 36.8649 11.1991C37.4392 11.8041 37.7264 12.6243 37.7264 13.6496C37.7264 14.7057 37.4187 15.5464 36.8136 16.1719C36.2084 16.7973 35.3777 17.1049 34.3315 17.1049C33.3264 17.1049 32.5161 16.8075 31.9315 16.2129C31.3264 15.6284 31.029 14.8185 31.029 13.7932ZM32.629 13.7419C32.629 14.4186 32.7828 14.9415 33.0905 15.3003C33.3982 15.6592 33.8392 15.8335 34.4136 15.8335C34.9674 15.8335 35.3982 15.6592 35.6854 15.3003C35.9725 14.9415 36.1264 14.4083 36.1264 13.7009C36.1264 13.0037 35.9725 12.4705 35.6751 12.1117C35.3777 11.7528 34.9469 11.5785 34.4033 11.5785C33.8392 11.5785 33.4084 11.7631 33.0905 12.1424C32.7828 12.5218 32.629 13.0447 32.629 13.7419Z" fill="white"/>
<path d="M40.0029 12.153C40.0029 12.3684 40.0747 12.5427 40.208 12.6657C40.3516 12.7887 40.6593 12.9425 41.1311 13.1373C41.7465 13.3834 42.1773 13.6602 42.4234 13.9678C42.6696 14.2754 42.7926 14.6445 42.7926 15.0752C42.7926 15.6903 42.5567 16.1825 42.085 16.5516C41.6132 16.9207 40.9773 17.1053 40.1773 17.1053C39.9106 17.1053 39.6132 17.0745 39.285 17.0027C38.9568 16.9412 38.6798 16.8489 38.4542 16.7567V15.2495C38.7311 15.4443 39.0285 15.5981 39.3567 15.7108C39.6747 15.8236 39.9721 15.8851 40.2285 15.8851C40.5773 15.8851 40.8337 15.8339 40.9978 15.7416C41.1619 15.6493 41.2439 15.4853 41.2439 15.2495C41.2439 15.0341 41.1619 14.8598 40.9875 14.7163C40.8132 14.5728 40.4952 14.3985 40.0132 14.2139C39.4491 13.9781 39.0491 13.7115 38.8132 13.4142C38.5773 13.1168 38.4542 12.7375 38.4542 12.2863C38.4542 11.7019 38.6901 11.22 39.1516 10.8407C39.6132 10.4613 40.2183 10.2767 40.967 10.2767C41.1926 10.2767 41.4491 10.2972 41.7362 10.3485C42.0234 10.3998 42.2593 10.4613 42.4439 10.5433V11.9992C42.2388 11.866 42.0029 11.7532 41.7362 11.6506C41.4696 11.5584 41.1926 11.5071 40.9362 11.5071C40.6491 11.5071 40.4132 11.5686 40.2593 11.6814C40.085 11.7942 40.0029 11.9582 40.0029 12.153Z" fill="white"/>
<path d="M43.4689 13.7932C43.4689 12.7166 43.7766 11.8656 44.3818 11.2299C44.9869 10.6045 45.8382 10.2866 46.9151 10.2866C47.9305 10.2866 48.7305 10.5942 49.3048 11.1991C49.8792 11.8041 50.1664 12.6243 50.1664 13.6496C50.1664 14.7057 49.8587 15.5464 49.2536 16.1719C48.6484 16.7973 47.8177 17.1049 46.7715 17.1049C45.7664 17.1049 44.9561 16.8075 44.3715 16.2129C43.7664 15.6284 43.4689 14.8185 43.4689 13.7932ZM45.0587 13.7419C45.0587 14.4186 45.2125 14.9415 45.5202 15.3004C45.8279 15.6592 46.2689 15.8335 46.8433 15.8335C47.3971 15.8335 47.8279 15.6592 48.1151 15.3004C48.4023 14.9415 48.5561 14.4083 48.5561 13.7009C48.5561 13.0037 48.4023 12.4705 48.1048 12.1117C47.8074 11.7528 47.3766 11.5785 46.833 11.5785C46.2689 11.5785 45.8382 11.7631 45.5202 12.1424C45.2125 12.5218 45.0587 13.0447 45.0587 13.7419Z" fill="white"/>
<path d="M55.2226 11.6986V15.0411C55.2226 15.7383 55.3867 16.2509 55.7046 16.5995C56.0226 16.9481 56.5149 17.1122 57.161 17.1122C57.3764 17.1122 57.602 17.0917 57.8277 17.0404C58.0533 16.9891 58.2174 16.9481 58.3097 16.8866V15.6152C58.2174 15.6768 58.1046 15.728 57.9815 15.769C57.8585 15.8101 57.7456 15.8306 57.6636 15.8306C57.3559 15.8306 57.12 15.7485 56.9764 15.5845C56.8328 15.4204 56.761 15.1334 56.761 14.7335V11.6883H58.32V10.4375H56.7713V8.5099L55.2328 8.98154V10.4477H52.9456V9.65824C52.9456 9.26862 53.0277 8.97128 53.202 8.76622C53.3764 8.56116 53.6226 8.46889 53.9405 8.46889C54.1046 8.46889 54.2482 8.48939 54.3815 8.5304C54.5046 8.57142 54.5969 8.61243 54.6482 8.64319V7.32055C54.5354 7.27953 54.4123 7.25903 54.2687 7.23852C54.1251 7.21802 53.961 7.20776 53.7764 7.20776C53.079 7.20776 52.5046 7.42308 52.0636 7.86396C51.6226 8.30484 51.3969 8.8585 51.3969 9.54545V10.4477H50.3097V11.6986H51.3969V16.9584H52.9456V11.6986H55.2226V11.6986Z" fill="white"/>
<path d="M16.8359 7.86743V16.9516H15.2564V9.83602H15.2359L12.4154 16.9516H11.3692L8.47693 9.83602H8.45642V16.9516H7.00001V7.86743H9.25642L11.8718 14.6037H11.9128L14.6718 7.86743H16.8359Z" fill="white"/>
<rect x="0.49955" y="0.5" width="87.0016" height="31" rx="3.5" stroke="black"/>
</svg>
