<svg width="113" height="32" viewBox="0 0 113 32" fill="none" xmlns="http://www.w3.org/2000/svg">
<rect x="0.5" y="0.5" width="111.002" height="31" rx="3.5" fill="black"/>
<path d="M15.56 6.99988H7V15.5606H15.56V6.99988Z" fill="#F25022"/>
<path d="M25.0021 6.99988H16.4421V15.5606H25.0021V6.99988Z" fill="#7FBA00"/>
<path d="M15.56 16.4392H7V24.9999H15.56V16.4392Z" fill="#00A4EF"/>
<path d="M25.0022 16.4392H16.4422V24.9999H25.0022V16.4392Z" fill="#FFB900"/>
<path d="M33.4244 19.6318V20.0625H32.8091V24H32.3228V22.0312H30.6265C30.523 22.0996 30.399 22.1406 30.2544 22.1543L30.2486 22.1689C30.438 22.4658 30.646 22.7422 30.8726 22.998C31.0992 23.2539 31.357 23.4912 31.646 23.71L31.3326 24.0703C31.1665 23.9473 31.0083 23.8145 30.8579 23.6719C30.7095 23.5293 30.5689 23.3818 30.4361 23.2295C30.3052 23.0752 30.1822 22.9199 30.0669 22.7637C29.9517 22.6055 29.8462 22.4502 29.7505 22.2979C29.6548 22.1455 29.5689 21.999 29.4927 21.8584C29.4165 21.7158 29.3501 21.584 29.2935 21.4629L29.6949 21.2461C29.732 21.332 29.7681 21.4043 29.8033 21.4629C29.8404 21.5195 29.8775 21.5654 29.9146 21.6006C29.9517 21.6338 29.9908 21.6582 30.0318 21.6738C30.0728 21.6875 30.1167 21.6943 30.1636 21.6943C30.2984 21.6943 30.397 21.6416 30.4595 21.5361C30.524 21.4307 30.5562 21.292 30.5562 21.1201C30.5562 21.0186 30.5464 20.9189 30.5269 20.8213C30.5074 20.7217 30.482 20.627 30.4507 20.5371C30.4214 20.4453 30.3892 20.3594 30.354 20.2793C30.3189 20.1992 30.2857 20.127 30.2544 20.0625H28.898V19.6318H33.4244ZM32.3228 20.0625H30.7613C30.8433 20.2402 30.9078 20.4189 30.9546 20.5986C31.0015 20.7783 31.0249 20.957 31.0249 21.1348C31.0249 21.2168 31.0181 21.2979 31.0044 21.3779C30.9927 21.4561 30.9722 21.5303 30.9429 21.6006L30.9488 21.6064H32.3228V20.0625ZM32.7681 19.7139H32.3433L32.0767 19.2129C31.9634 19 31.8609 18.8311 31.7691 18.7061C31.6753 18.5811 31.5874 18.4863 31.5054 18.4219C31.4214 18.3555 31.3394 18.3135 31.2593 18.2959C31.1792 18.2764 31.0953 18.2666 31.0074 18.2666H30.439V17.792H30.9751C31.0884 17.792 31.191 17.8018 31.2828 17.8213C31.3745 17.8389 31.4624 17.8721 31.5464 17.9209C31.6285 17.9678 31.7095 18.0342 31.7896 18.1201C31.8677 18.2041 31.9517 18.3135 32.0415 18.4482C32.1314 18.5811 32.23 18.7412 32.3374 18.9287C32.4429 19.1143 32.564 19.334 32.7007 19.5879L32.7681 19.7139ZM38.6861 20.0625H38.0708V24H37.5874V22.6934L37.5757 22.6904L35.7886 24.0352L35.4869 23.6689L36.5269 22.9219L36.524 22.9102C36.3736 22.8984 36.2369 22.8652 36.1138 22.8105C35.9908 22.7559 35.8853 22.6787 35.7974 22.5791C35.7095 22.4795 35.6412 22.3564 35.5923 22.21C35.5454 22.0635 35.522 21.8926 35.522 21.6973V20.0625H34.8687V19.6318H38.6861V20.0625ZM37.5874 20.0625H35.9966V21.6709C35.9966 21.7939 36.0064 21.9043 36.0259 22.002C36.0474 22.0996 36.0826 22.1826 36.1314 22.251C36.1822 22.3193 36.2486 22.3721 36.3306 22.4092C36.4126 22.4443 36.5152 22.4619 36.6382 22.4619C36.8394 22.4619 37.021 22.418 37.1831 22.3301C37.3453 22.2402 37.48 22.1221 37.5874 21.9756V20.0625ZM40.2476 20.0625H39.6324V24H39.1519V20.0625H38.4839V19.6318H40.2476V20.0625ZM42.8433 22.0605L42.9283 22.4736C42.8306 22.5654 42.732 22.6406 42.6324 22.6992C42.5347 22.7578 42.439 22.8037 42.3453 22.8369C42.2515 22.8701 42.1607 22.8926 42.0728 22.9043C41.9849 22.916 41.9038 22.9219 41.8296 22.9219C41.6617 22.9219 41.5083 22.8975 41.3697 22.8486C41.231 22.7998 41.1119 22.7256 41.0122 22.626C40.9126 22.5244 40.8345 22.3975 40.7779 22.2451C40.7232 22.0908 40.6958 21.9082 40.6958 21.6973V20.0625H40.0425V19.6318H42.7144V20.0625H41.1704V21.6709C41.1704 21.7939 41.1802 21.9043 41.1997 22.002C41.2212 22.0996 41.2564 22.1826 41.3052 22.251C41.356 22.3193 41.4224 22.3721 41.5044 22.4092C41.5865 22.4443 41.689 22.4619 41.812 22.4619C41.9722 22.4619 42.1343 22.4268 42.2984 22.3564C42.4624 22.2861 42.6089 22.1865 42.7378 22.0576L42.8433 22.0605ZM45.8521 20.0625H45.2369V24H44.7593V21.4277H43.8072C43.6763 21.4277 43.5581 21.4365 43.4527 21.4541C43.3472 21.4697 43.2574 21.5029 43.1831 21.5537C43.1089 21.6025 43.0513 21.6719 43.0103 21.7617C42.9712 21.8496 42.9517 21.9658 42.9517 22.1104C42.9517 22.2979 42.982 22.4707 43.0425 22.6289C43.105 22.7871 43.1841 22.9326 43.2798 23.0654C43.3755 23.1963 43.481 23.3174 43.5962 23.4287C43.7134 23.54 43.8257 23.6426 43.9331 23.7363L43.6402 24.0703C43.6226 24.0605 43.5806 24.0322 43.5142 23.9854C43.4497 23.9365 43.3736 23.8711 43.2857 23.7891C43.1997 23.707 43.1079 23.6074 43.0103 23.4902C42.9146 23.373 42.8257 23.2412 42.7437 23.0947C42.6636 22.9463 42.5962 22.7832 42.5415 22.6055C42.4888 22.4277 42.4624 22.2363 42.4624 22.0312C42.4624 21.8281 42.4908 21.6602 42.5474 21.5273C42.606 21.3926 42.688 21.2861 42.7935 21.208C42.899 21.1279 43.0269 21.0723 43.1773 21.041C43.3277 21.0098 43.4956 20.9941 43.6812 20.9941H44.7593V20.0625H41.9761V19.6318H45.8521V20.0625ZM52.6812 20.0625H50.2056V21.2168L50.2203 21.2227C50.3199 21.0859 50.4439 20.9766 50.5923 20.8945C50.7408 20.8105 50.9038 20.7686 51.0816 20.7686C51.2222 20.7686 51.3521 20.7979 51.4712 20.8564C51.5923 20.9131 51.6968 20.9922 51.7847 21.0938C51.8726 21.1934 51.941 21.3115 51.9898 21.4482C52.0406 21.585 52.066 21.7324 52.066 21.8906C52.066 22.0703 52.0347 22.2363 51.9722 22.3887C51.9097 22.5391 51.8296 22.6758 51.732 22.7988C51.6343 22.9219 51.524 23.0312 51.4009 23.127C51.2779 23.2207 51.1568 23.3008 51.0376 23.3672L50.7769 22.916C50.816 22.8945 50.8638 22.8662 50.9204 22.8311C50.9771 22.7959 51.0357 22.7549 51.0962 22.708C51.1587 22.6611 51.2193 22.6084 51.2779 22.5498C51.3384 22.4893 51.3921 22.4238 51.439 22.3535C51.4878 22.2832 51.5269 22.207 51.5562 22.125C51.5855 22.043 51.6001 21.9561 51.6001 21.8643C51.6001 21.7803 51.5865 21.7002 51.5591 21.624C51.5337 21.5479 51.4976 21.4814 51.4507 21.4248C51.4038 21.3682 51.3472 21.3232 51.2808 21.29C51.2163 21.2568 51.1451 21.2402 51.0669 21.2402C50.9654 21.2402 50.8667 21.2666 50.771 21.3193C50.6753 21.3721 50.5884 21.4385 50.5103 21.5186C50.4322 21.5967 50.3658 21.6807 50.3111 21.7705C50.2583 21.8604 50.2232 21.9434 50.2056 22.0195V24H49.7251V22.8779L49.7134 22.8721C49.6841 22.8975 49.647 22.9287 49.6021 22.9658C49.5572 23.001 49.5025 23.0352 49.438 23.0684C49.3755 23.1016 49.3023 23.1299 49.2183 23.1533C49.1363 23.1768 49.0435 23.1885 48.94 23.1885C48.7681 23.1885 48.6089 23.1553 48.4624 23.0889C48.3179 23.0225 48.1919 22.9326 48.0845 22.8193C47.979 22.7041 47.896 22.5693 47.8355 22.415C47.7749 22.2607 47.7447 22.0957 47.7447 21.9199C47.7447 21.752 47.772 21.5967 47.8267 21.4541C47.8833 21.3115 47.9595 21.1895 48.0552 21.0879C48.1529 20.9844 48.2662 20.9043 48.3951 20.8477C48.5259 20.7891 48.6665 20.7598 48.8169 20.7598C48.9224 20.7598 49.0201 20.7734 49.1099 20.8008C49.2017 20.8262 49.2847 20.8584 49.3589 20.8975C49.4351 20.9346 49.5025 20.9756 49.5611 21.0205C49.6216 21.0635 49.6724 21.1025 49.7134 21.1377L49.7251 21.1348V20.0625H47.2964V19.6318H52.6812V20.0625ZM48.8872 21.2168C48.7759 21.2168 48.6773 21.2402 48.5913 21.2871C48.5074 21.332 48.437 21.3906 48.3804 21.4629C48.3238 21.5332 48.2808 21.6133 48.2515 21.7031C48.2242 21.791 48.2105 21.8779 48.2105 21.9639C48.2105 22.0576 48.2271 22.1514 48.2603 22.2451C48.2935 22.3369 48.3404 22.4199 48.4009 22.4941C48.4634 22.5684 48.5376 22.6289 48.6236 22.6758C48.7095 22.7207 48.8042 22.7432 48.9078 22.7432C48.9956 22.7432 49.0874 22.7256 49.1831 22.6904C49.2808 22.6533 49.3697 22.5967 49.4497 22.5205C49.5318 22.4443 49.5992 22.3477 49.6519 22.2305C49.7046 22.1113 49.731 21.9697 49.731 21.8057V21.6621C49.6841 21.6035 49.6285 21.5479 49.564 21.4951C49.5015 21.4404 49.4331 21.3926 49.3589 21.3516C49.2867 21.3105 49.2105 21.2783 49.1304 21.2549C49.0503 21.2295 48.9693 21.2168 48.8872 21.2168ZM55.6138 20.0625H54.5093C54.6089 20.2344 54.689 20.4102 54.7495 20.5898C54.812 20.7676 54.8433 20.9482 54.8433 21.1318C54.8433 21.2705 54.8218 21.4043 54.7788 21.5332C54.7378 21.6602 54.6763 21.7744 54.5943 21.876C54.5142 21.9756 54.4136 22.0576 54.2925 22.1221C54.1734 22.1846 54.0357 22.2197 53.8794 22.2275L53.8736 22.2422C54.0494 22.5156 54.2466 22.7744 54.4654 23.0186C54.6841 23.2607 54.937 23.4912 55.2242 23.71L54.9107 24.0703C54.7447 23.9473 54.5865 23.8145 54.4361 23.6719C54.2876 23.5273 54.147 23.3789 54.0142 23.2266C53.8814 23.0723 53.7574 22.917 53.6421 22.7607C53.5288 22.6025 53.4244 22.4492 53.3287 22.3008C53.2349 22.1504 53.1509 22.0068 53.0767 21.8701C53.0025 21.7314 52.939 21.6055 52.8863 21.4922L53.2876 21.2754C53.3579 21.4277 53.437 21.5479 53.5249 21.6357C53.6148 21.7217 53.7183 21.7646 53.8355 21.7646C53.9195 21.7646 53.9947 21.7432 54.0611 21.7002C54.1275 21.6572 54.1831 21.6025 54.2281 21.5361C54.273 21.4678 54.3072 21.3936 54.3306 21.3135C54.354 21.2314 54.3658 21.1514 54.3658 21.0732C54.3658 20.9814 54.354 20.8916 54.3306 20.8037C54.3072 20.7139 54.2769 20.627 54.2398 20.543C54.2027 20.457 54.1607 20.374 54.1138 20.2939C54.0689 20.2139 54.0249 20.1367 53.982 20.0625H52.4761V19.6318H55.6138V20.0625ZM54.4419 19.7139H54.0171L53.7505 19.2129C53.6372 19 53.5347 18.8311 53.4429 18.7061C53.3492 18.5811 53.2613 18.4863 53.1792 18.4219C53.0953 18.3555 53.0132 18.3135 52.9331 18.2959C52.8531 18.2764 52.7691 18.2666 52.6812 18.2666H52.1128V17.792H52.649C52.7622 17.792 52.8648 17.8018 52.9566 17.8213C53.0484 17.8389 53.1363 17.8721 53.2203 17.9209C53.3023 17.9678 53.3833 18.0342 53.4634 18.1201C53.5415 18.2041 53.6255 18.3135 53.7154 18.4482C53.8052 18.5811 53.9038 18.7412 54.0113 18.9287C54.1167 19.1143 54.2378 19.334 54.3745 19.5879L54.4419 19.7139ZM54.3804 18.7383C54.3804 18.627 54.4136 18.5371 54.48 18.4688C54.5445 18.3984 54.6294 18.3633 54.7349 18.3633C54.7837 18.3633 54.8296 18.373 54.8726 18.3926C54.9175 18.4121 54.9566 18.4395 54.9898 18.4746C55.023 18.5078 55.0484 18.5479 55.066 18.5947C55.0855 18.6396 55.0953 18.6895 55.0953 18.7441C55.0953 18.8555 55.062 18.9453 54.9956 19.0137C54.9312 19.082 54.8462 19.1162 54.7408 19.1162C54.69 19.1162 54.6431 19.1074 54.6001 19.0898C54.5552 19.0703 54.5171 19.0439 54.4859 19.0107C54.4527 18.9756 54.4273 18.9355 54.4097 18.8906C54.3902 18.8438 54.3804 18.793 54.3804 18.7383Z" fill="white"/>
<path d="M32.2554 16.4922V16.5239C32.4501 16.7355 32.6553 16.9281 32.8711 17.1016C33.087 17.2793 33.2943 17.4359 33.4932 17.5713C33.6963 17.7067 33.8825 17.821 34.0518 17.9141C34.2253 18.0072 34.3671 18.077 34.4771 18.1235L34.0264 18.917C33.7598 18.7773 33.4932 18.6144 33.2266 18.4282C32.9642 18.242 32.7082 18.0474 32.4585 17.8442C32.2131 17.6411 31.9804 17.4338 31.7603 17.2222C31.5445 17.0106 31.3498 16.8096 31.1763 16.6191C30.8124 16.5853 30.5035 16.5197 30.2496 16.4224C29.9999 16.325 29.7946 16.2087 29.6338 16.0732C29.4773 15.9378 29.363 15.7918 29.2911 15.6353C29.2191 15.4787 29.1832 15.3263 29.1832 15.1782C29.1832 15.0724 29.2001 14.9709 29.2339 14.8735C29.272 14.7762 29.3249 14.6916 29.3926 14.6196C29.4646 14.5477 29.5513 14.4906 29.6529 14.4482C29.7587 14.4059 29.8793 14.3848 30.0147 14.3848C30.1586 14.3848 30.3109 14.4102 30.4717 14.4609C30.6368 14.5117 30.7976 14.5879 30.9541 14.6895C31.1107 14.791 31.261 14.9201 31.4048 15.0767C31.5487 15.229 31.6757 15.4089 31.7857 15.6162C32.3147 15.5273 32.7146 15.3496 32.9854 15.083C33.2562 14.8122 33.3916 14.4588 33.3916 14.0229C33.3916 13.8537 33.3684 13.7161 33.3218 13.6104C33.2795 13.5046 33.2139 13.422 33.125 13.3628C33.0362 13.3035 32.924 13.2655 32.7886 13.2485C32.6574 13.2274 32.503 13.2168 32.3252 13.2168H30.5796C30.2665 13.2168 29.9957 13.1512 29.7671 13.02C29.5386 12.8846 29.3482 12.7153 29.1958 12.5122C29.0477 12.3049 28.9377 12.0785 28.8658 11.833C28.7938 11.5833 28.7579 11.3442 28.7579 11.1157C28.7579 10.866 28.7981 10.6587 28.8785 10.4937C28.9589 10.3244 29.0689 10.1911 29.2085 10.0938C29.3482 9.99219 29.5132 9.92025 29.7037 9.87793C29.8983 9.83561 30.1078 9.81445 30.3321 9.81445H32.5474V8.46875H27.774V7.53564H35.5879V8.46875H33.5884V10.7476H30.5987C30.2813 10.7476 30.0634 10.792 29.9449 10.8809C29.8264 10.9697 29.7671 11.1136 29.7671 11.3125C29.7671 11.4056 29.7798 11.5072 29.8052 11.6172C29.8306 11.723 29.8772 11.8224 29.9449 11.9155C30.0126 12.0044 30.1036 12.0806 30.2178 12.144C30.3363 12.2033 30.4865 12.2329 30.6685 12.2329H32.4395C32.8034 12.2329 33.1102 12.2773 33.3599 12.3662C33.6096 12.4551 33.8106 12.5799 33.9629 12.7407C34.1153 12.8973 34.2253 13.0856 34.293 13.3057C34.3607 13.5257 34.3946 13.7648 34.3946 14.0229C34.3946 14.3234 34.3523 14.6048 34.2676 14.8672C34.183 15.1296 34.0539 15.3687 33.8804 15.5845C33.7069 15.7961 33.4847 15.9801 33.2139 16.1367C32.9473 16.2891 32.6278 16.4076 32.2554 16.4922ZM44.9507 7.53564V8.46875H43.6177V17H42.564V12.7344H38.8887C38.6644 12.8825 38.3957 12.9714 38.0826 13.001L38.0699 13.0327C38.4804 13.6759 38.931 14.2747 39.4219 14.8291C39.9128 15.3835 40.4714 15.8976 41.0977 16.3716L40.4185 17.1523C40.0588 16.8857 39.716 16.598 39.3902 16.2891C39.0686 15.9801 38.7639 15.6606 38.4761 15.3306C38.1926 14.9963 37.926 14.6598 37.6763 14.3213C37.4266 13.9785 37.1981 13.6421 36.9908 13.312C36.7834 12.9819 36.5972 12.6646 36.4322 12.3599C36.2671 12.0509 36.1233 11.7653 36.0005 11.5029L36.8702 11.0332C36.9506 11.2194 37.0289 11.376 37.105 11.5029C37.1854 11.6257 37.2658 11.7251 37.3462 11.8013C37.4266 11.8732 37.5113 11.9261 37.6001 11.96C37.689 11.9896 37.7842 12.0044 37.8858 12.0044C38.1778 12.0044 38.3915 11.8901 38.5269 11.6616C38.6665 11.4331 38.7364 11.1326 38.7364 10.7603C38.7364 10.5402 38.7152 10.3244 38.6729 10.1128C38.6306 9.89697 38.5756 9.69173 38.5079 9.49707C38.4444 9.29818 38.3746 9.11198 38.2984 8.93848C38.2222 8.76497 38.1503 8.6084 38.0826 8.46875H35.1436V7.53564H44.9507ZM42.564 8.46875H39.1807C39.3584 8.85384 39.4981 9.24105 39.5997 9.63037C39.7012 10.0197 39.752 10.4069 39.752 10.792C39.752 10.9697 39.7372 11.1453 39.7076 11.3188C39.6822 11.4881 39.6377 11.6489 39.5743 11.8013L39.587 11.814H42.564V8.46875ZM43.5289 7.71338H42.6084L42.0308 6.62793C41.7854 6.16667 41.5632 5.80062 41.3643 5.52979C41.1612 5.25895 40.9707 5.05371 40.793 4.91406C40.611 4.77018 40.4333 4.6792 40.2598 4.64111C40.0863 4.5988 39.9043 4.57764 39.7139 4.57764H38.4825V3.54932H39.6441C39.8895 3.54932 40.1117 3.57048 40.3106 3.61279C40.5095 3.65088 40.6999 3.72282 40.8819 3.82861C41.0596 3.93018 41.2352 4.07406 41.4087 4.26025C41.578 4.44222 41.76 4.6792 41.9546 4.97119C42.1493 5.25895 42.363 5.60596 42.5957 6.01221C42.8243 6.41423 43.0866 6.8903 43.3829 7.44043L43.5289 7.71338ZM59.2012 17H57.7032V11.1094C57.7032 10.627 57.7328 10.0366 57.792 9.33838H57.7666C57.6735 9.73617 57.591 10.0218 57.5191 10.1953L54.8023 17H53.7613L51.0381 10.2461C50.962 10.0472 50.8816 9.74463 50.7969 9.33838H50.7715C50.8054 9.70231 50.8223 10.2969 50.8223 11.1221V17H49.4258V7.89746H51.5523L53.9454 13.9595C54.1273 14.425 54.2458 14.772 54.3008 15.0005H54.3326C54.4891 14.5223 54.6161 14.1668 54.7134 13.9341L57.1509 7.89746H59.2012V17ZM62.0064 9.13525C61.7652 9.13525 61.5579 9.05697 61.3844 8.90039C61.2151 8.74382 61.1304 8.54492 61.1304 8.30371C61.1304 8.0625 61.2151 7.86149 61.3844 7.70068C61.5579 7.53988 61.7652 7.45947 62.0064 7.45947C62.2561 7.45947 62.4677 7.53988 62.6412 7.70068C62.8147 7.86149 62.9014 8.0625 62.9014 8.30371C62.9014 8.53223 62.8147 8.729 62.6412 8.89404C62.4677 9.05485 62.2561 9.13525 62.0064 9.13525ZM62.7364 17H61.2637V10.5H62.7364V17ZM69.2994 16.7017C68.7789 17.0021 68.1632 17.1523 67.4523 17.1523C66.4874 17.1523 65.7088 16.8519 65.1163 16.251C64.5239 15.6458 64.2276 14.863 64.2276 13.9023C64.2276 12.8317 64.545 11.9727 65.1798 11.3252C65.8188 10.6735 66.6715 10.3477 67.7379 10.3477C68.3303 10.3477 68.853 10.4513 69.3058 10.6587V12.0298C68.853 11.6912 68.3705 11.522 67.8585 11.522C67.2364 11.522 66.7265 11.7336 66.3287 12.1567C65.9309 12.5757 65.732 13.1258 65.732 13.8071C65.732 14.48 65.9182 15.0111 66.2906 15.4004C66.6673 15.7897 67.1708 15.9844 67.8014 15.9844C68.3303 15.9844 68.8297 15.7961 69.2994 15.4194V16.7017ZM74.5167 11.9028C74.339 11.7632 74.083 11.6934 73.7487 11.6934C73.3128 11.6934 72.9489 11.8901 72.6569 12.2837C72.3649 12.6772 72.2189 13.2126 72.2189 13.8896V17H70.7462V10.5H72.2189V11.8394H72.2443C72.3882 11.3823 72.6082 11.0269 72.9044 10.7729C73.2049 10.5148 73.5392 10.3857 73.9074 10.3857C74.174 10.3857 74.3771 10.4259 74.5167 10.5063V11.9028ZM78.3058 17.1523C77.3029 17.1523 76.501 16.8498 75.9001 16.2446C75.3034 15.6353 75.0051 14.8291 75.0051 13.8262C75.0051 12.7344 75.3161 11.8817 75.9382 11.2681C76.5645 10.6545 77.4066 10.3477 78.4645 10.3477C79.4802 10.3477 80.2715 10.646 80.8386 11.2427C81.4056 11.8394 81.6891 12.6667 81.6891 13.7246C81.6891 14.7614 81.3823 15.5929 80.7687 16.2192C80.1594 16.8413 79.3384 17.1523 78.3058 17.1523ZM78.3757 11.522C77.8001 11.522 77.3452 11.723 77.0109 12.125C76.6766 12.527 76.5094 13.0814 76.5094 13.7881C76.5094 14.4694 76.6787 15.0068 77.0173 15.4004C77.3558 15.7897 77.8086 15.9844 78.3757 15.9844C78.9554 15.9844 79.3997 15.7918 79.7087 15.4067C80.0218 15.0216 80.1784 14.4736 80.1784 13.7627C80.1784 13.0475 80.0218 12.4953 79.7087 12.106C79.3997 11.7166 78.9554 11.522 78.3757 11.522ZM82.7678 16.7969V15.4321C83.3179 15.8511 83.9252 16.0605 84.5896 16.0605C85.4782 16.0605 85.9226 15.7982 85.9226 15.2734C85.9226 15.1253 85.8845 15.0005 85.8083 14.8989C85.7321 14.7931 85.6285 14.7 85.4973 14.6196C85.3703 14.5392 85.218 14.4673 85.0402 14.4038C84.8667 14.3403 84.6721 14.2684 84.4563 14.188C84.1897 14.0822 83.9484 13.9701 83.7326 13.8516C83.521 13.7331 83.3433 13.5998 83.1994 13.4517C83.0598 13.2993 82.954 13.1279 82.882 12.9375C82.8101 12.7471 82.7741 12.5249 82.7741 12.271C82.7741 11.9578 82.8482 11.6828 82.9963 11.4458C83.1444 11.2046 83.3433 11.0036 83.593 10.8428C83.8427 10.6777 84.1262 10.555 84.4436 10.4746C84.7609 10.39 85.0889 10.3477 85.4274 10.3477C86.0284 10.3477 86.5658 10.4386 87.0398 10.6206V11.9092C86.5827 11.596 86.058 11.4395 85.4655 11.4395C85.2793 11.4395 85.1101 11.4585 84.9577 11.4966C84.8096 11.5347 84.6827 11.5876 84.5769 11.6553C84.4711 11.723 84.3885 11.8055 84.3293 11.9028C84.2701 11.9959 84.2404 12.0996 84.2404 12.2139C84.2404 12.3535 84.2701 12.472 84.3293 12.5693C84.3885 12.6667 84.4753 12.7534 84.5896 12.8296C84.708 12.9015 84.8477 12.9692 85.0085 13.0327C85.1735 13.092 85.3619 13.1576 85.5734 13.2295C85.8527 13.3438 86.1024 13.4601 86.3225 13.5786C86.5468 13.6971 86.7372 13.8325 86.8938 13.9849C87.0503 14.133 87.1709 14.3065 87.2556 14.5054C87.3402 14.7 87.3825 14.9328 87.3825 15.2036C87.3825 15.5337 87.3064 15.8215 87.154 16.0669C87.0017 16.3123 86.7985 16.5155 86.5446 16.6763C86.2907 16.8371 85.9966 16.9556 85.6623 17.0317C85.3322 17.1121 84.9831 17.1523 84.6149 17.1523C83.904 17.1523 83.2883 17.0339 82.7678 16.7969ZM91.6477 17.1523C90.6448 17.1523 89.8428 16.8498 89.2419 16.2446C88.6453 15.6353 88.3469 14.8291 88.3469 13.8262C88.3469 12.7344 88.6579 11.8817 89.28 11.2681C89.9063 10.6545 90.7484 10.3477 91.8064 10.3477C92.822 10.3477 93.6134 10.646 94.1804 11.2427C94.7475 11.8394 95.031 12.6667 95.031 13.7246C95.031 14.7614 94.7242 15.5929 94.1106 16.2192C93.5012 16.8413 92.6802 17.1523 91.6477 17.1523ZM91.7175 11.522C91.142 11.522 90.6871 11.723 90.3528 12.125C90.0185 12.527 89.8513 13.0814 89.8513 13.7881C89.8513 14.4694 90.0206 15.0068 90.3591 15.4004C90.6977 15.7897 91.1505 15.9844 91.7175 15.9844C92.2973 15.9844 92.7416 15.7918 93.0505 15.4067C93.3637 15.0216 93.5203 14.4736 93.5203 13.7627C93.5203 13.0475 93.3637 12.4953 93.0505 12.106C92.7416 11.7166 92.2973 11.522 91.7175 11.522ZM99.9754 8.57666C99.7765 8.4624 99.5501 8.40527 99.2962 8.40527C98.581 8.40527 98.2234 8.80941 98.2234 9.61768V10.5H99.7342V11.6553H98.2298V17H96.7571V11.6553H95.6463V10.5H96.7571V9.44629C96.7571 8.76074 96.9814 8.22119 97.43 7.82764C97.8785 7.42985 98.4392 7.23096 99.1121 7.23096C99.476 7.23096 99.7638 7.27116 99.9754 7.35156V8.57666ZM104.431 16.9302C104.143 17.0741 103.764 17.146 103.295 17.146C102.034 17.146 101.403 16.5409 101.403 15.3306V11.6553H100.318V10.5H101.403V8.99561L102.876 8.57666V10.5H104.431V11.6553H102.876V14.9053C102.876 15.2904 102.946 15.5654 103.085 15.7305C103.225 15.8955 103.458 15.978 103.784 15.978C104.033 15.978 104.249 15.9061 104.431 15.7622V16.9302Z" fill="white"/>
<rect x="0.5" y="0.5" width="111.002" height="31" rx="3.5" stroke="black"/>
</svg>
