<svg width="116" height="34" viewBox="0 0 116 34" fill="none" xmlns="http://www.w3.org/2000/svg">
<rect x="1" y="1" width="114" height="32" rx="4" fill="#FDFDFD"/>
<rect x="0.5" y="0.5" width="115" height="33" rx="4.5" stroke="black" stroke-opacity="0.0578"/>
<g clip-path="url(#clip0_963_7230)">
<g clip-path="url(#clip1_963_7230)">
<path d="M8.28125 11C8.28125 10.5858 8.61704 10.25 9.03125 10.25H24.9687C25.383 10.25 25.7188 10.5858 25.7188 11V22.3438C25.7188 24.0524 24.3336 25.4375 22.625 25.4375H11.375C9.66637 25.4375 8.28125 24.0524 8.28125 22.3438V11Z" fill="url(#paint0_linear_963_7230)"/>
<mask id="mask0_963_7230" style="mask-type:alpha" maskUnits="userSpaceOnUse" x="8" y="10" width="18" height="16">
<path d="M8.28125 11C8.28125 10.5858 8.61704 10.25 9.03125 10.25H24.9687C25.383 10.25 25.7188 10.5858 25.7188 11V22.3438C25.7188 24.0524 24.3336 25.4375 22.625 25.4375H11.375C9.66637 25.4375 8.28125 24.0524 8.28125 22.3438V11Z" fill="url(#paint1_linear_963_7230)"/>
</mask>
<g mask="url(#mask0_963_7230)">
<g filter="url(#filter0_dd_963_7230)">
<path d="M12.7812 10.8125V8.5625H21.2187V10.8125" stroke="url(#paint2_linear_963_7230)" stroke-width="1.125" stroke-linecap="round"/>
</g>
</g>
<g filter="url(#filter1_dd_963_7230)">
<path d="M16.719 14.1875H13.344V17.5625H16.719V14.1875Z" fill="#F25022"/>
<path d="M20.6562 14.1875H17.2812V17.5625H20.6562V14.1875Z" fill="#7FBA00"/>
<path d="M20.6562 18.125H17.2812V21.5H20.6562V18.125Z" fill="#FFB900"/>
<path d="M16.7188 18.125H13.3438V21.5H16.7188V18.125Z" fill="#00A4EF"/>
</g>
<path d="M12.7812 10.8125V9.125C12.7812 8.81434 13.0331 8.5625 13.3438 8.5625H20.6563C20.9669 8.5625 21.2188 8.81434 21.2188 9.125V10.8125" stroke="url(#paint3_linear_963_7230)" stroke-width="1.125" stroke-linecap="round"/>
<rect x="13.3438" y="8" width="7.3125" height="1.125" fill="url(#paint4_linear_963_7230)"/>
<mask id="mask1_963_7230" style="mask-type:alpha" maskUnits="userSpaceOnUse" x="13" y="8" width="8" height="2">
<rect x="13.3438" y="8" width="7.3125" height="1.125" fill="url(#paint5_linear_963_7230)"/>
</mask>
<g mask="url(#mask1_963_7230)">
<g filter="url(#filter2_dd_963_7230)">
<rect x="11.7189" y="8.56274" width="1.625" height="2.8125" fill="#C4C4C4"/>
</g>
</g>
</g>
</g>
<path d="M31.2168 11.2021V13H30.6426V8.09863H31.9893C32.5133 8.09863 32.9189 8.22852 33.2061 8.48828C33.4954 8.74805 33.6401 9.11491 33.6401 9.58887C33.6401 10.0605 33.4795 10.4479 33.1582 10.751C32.8392 11.0518 32.4074 11.2021 31.8628 11.2021H31.2168ZM31.2168 8.61816V10.6826H31.8184C32.2148 10.6826 32.5168 10.5903 32.7241 10.4058C32.9338 10.2189 33.0386 9.95573 33.0386 9.61621C33.0386 9.28353 32.9429 9.03402 32.7515 8.86768C32.5601 8.70133 32.2729 8.61816 31.8901 8.61816H31.2168ZM36.2173 9.97852C36.174 9.96484 36.1353 9.95573 36.1011 9.95117C36.0669 9.94434 36.0236 9.94092 35.9712 9.94092C35.6864 9.94092 35.4619 10.0628 35.2979 10.3066C35.1338 10.5482 35.0518 10.8512 35.0518 11.2158V13H34.4912V9.5H35.0518V10.1938H35.0654C35.1452 9.94775 35.2671 9.7609 35.4312 9.6333C35.5952 9.50342 35.7843 9.43848 35.9985 9.43848C36.0692 9.43848 36.1284 9.44189 36.1763 9.44873C36.2264 9.45557 36.2708 9.46582 36.3096 9.47949L36.2173 9.97852ZM39.7378 11.3765H37.2632C37.2723 11.7707 37.376 12.0749 37.5742 12.2891C37.7747 12.501 38.055 12.6069 38.415 12.6069C38.5723 12.6069 38.7295 12.5841 38.8867 12.5386C39.0462 12.4907 39.2035 12.4155 39.3584 12.313L39.6182 12.7129C39.4199 12.8405 39.2217 12.9339 39.0234 12.9932C38.8252 13.0524 38.6076 13.082 38.3706 13.082C37.842 13.082 37.4295 12.9248 37.1333 12.6104C36.8371 12.2959 36.6878 11.8573 36.6855 11.2944C36.6833 10.7316 36.8314 10.2782 37.1299 9.93408C37.4307 9.59001 37.8203 9.41797 38.2988 9.41797C38.7546 9.41797 39.1077 9.56722 39.3584 9.86572C39.6113 10.1619 39.7378 10.5732 39.7378 11.0996V11.3765ZM39.1636 10.9185C39.1613 10.5949 39.0827 10.3431 38.9277 10.1631C38.7728 9.98079 38.5597 9.88965 38.2886 9.88965C38.022 9.88965 37.7952 9.98307 37.6084 10.1699C37.4238 10.3545 37.311 10.604 37.27 10.9185H39.1636ZM43.4189 13H42.8584V12.4463H42.8447C42.7285 12.6582 42.5804 12.8177 42.4004 12.9248C42.2204 13.0296 42.0085 13.082 41.7646 13.082C41.3477 13.082 41.0343 12.9578 40.8247 12.7095C40.6174 12.4611 40.5137 12.0885 40.5137 11.5918V9.5H41.0708V11.5029C41.0708 11.8721 41.1414 12.1489 41.2827 12.3335C41.424 12.5181 41.6359 12.6104 41.9185 12.6104C42.1919 12.6104 42.4163 12.5101 42.5918 12.3096C42.7695 12.1068 42.8584 11.8424 42.8584 11.5166V9.5H43.4189V13ZM46.9941 9.66064L44.9229 12.5215H46.9736V13H44.0991V12.8257L46.1704 9.97852H44.2939V9.5H46.9941V9.66064ZM52.6885 13H52.1279V10.9902C52.1279 10.6029 52.0675 10.3226 51.9468 10.1494C51.8283 9.97624 51.6278 9.88965 51.3452 9.88965C51.106 9.88965 50.902 9.99902 50.7334 10.2178C50.5671 10.4365 50.4839 10.6986 50.4839 11.0039V13H49.9233V10.9219C49.9233 10.5778 49.8573 10.3203 49.7251 10.1494C49.5929 9.97624 49.3936 9.88965 49.127 9.88965C48.8809 9.88965 48.6781 9.99333 48.5186 10.2007C48.359 10.4058 48.2793 10.6735 48.2793 11.0039V13H47.7188V9.5H48.2793V10.0537H48.293C48.4183 9.8418 48.571 9.68343 48.751 9.57861C48.9333 9.47152 49.1429 9.41797 49.3799 9.41797C49.6191 9.41797 49.8276 9.48519 50.0054 9.61963C50.1831 9.75179 50.305 9.92611 50.3711 10.1426C50.501 9.90104 50.6628 9.71989 50.8564 9.59912C51.0501 9.47835 51.2757 9.41797 51.5332 9.41797C51.9183 9.41797 52.2065 9.53646 52.3979 9.77344C52.5916 10.0104 52.6885 10.367 52.6885 10.8433V13ZM54.0352 8.6626C53.9212 8.6626 53.8255 8.625 53.748 8.5498C53.6706 8.47233 53.6318 8.37777 53.6318 8.26611C53.6318 8.15446 53.6706 8.06104 53.748 7.98584C53.8255 7.90837 53.9212 7.86963 54.0352 7.86963C54.1491 7.86963 54.2448 7.90837 54.3223 7.98584C54.3997 8.06104 54.4385 8.15446 54.4385 8.26611C54.4385 8.37777 54.3997 8.47233 54.3223 8.5498C54.2448 8.625 54.1491 8.6626 54.0352 8.6626ZM54.3086 13H53.748V9.5H54.3086V13ZM57.1113 12.959C57.0156 12.9977 56.9211 13.0262 56.8276 13.0444C56.7365 13.0649 56.6328 13.0752 56.5166 13.0752C56.2386 13.0752 56.0199 12.9943 55.8604 12.8325C55.7031 12.6685 55.6245 12.4269 55.6245 12.1079V9.97852H55.0229V9.5H55.6245V8.64551L56.1851 8.46436V9.5H57.0669V9.97852H56.1851V12.043C56.1851 12.2435 56.2204 12.3882 56.291 12.4771C56.3639 12.5659 56.4722 12.6104 56.6157 12.6104C56.6841 12.6104 56.7502 12.6024 56.814 12.5864C56.8778 12.5705 56.9313 12.5522 56.9746 12.5317L57.1113 12.959ZM60.6284 11.3765H58.1538C58.1629 11.7707 58.2666 12.0749 58.4648 12.2891C58.6654 12.501 58.9456 12.6069 59.3057 12.6069C59.4629 12.6069 59.6201 12.5841 59.7773 12.5386C59.9368 12.4907 60.0941 12.4155 60.249 12.313L60.5088 12.7129C60.3105 12.8405 60.1123 12.9339 59.9141 12.9932C59.7158 13.0524 59.4982 13.082 59.2612 13.082C58.7326 13.082 58.3201 12.9248 58.0239 12.6104C57.7277 12.2959 57.5785 11.8573 57.5762 11.2944C57.5739 10.7316 57.722 10.2782 58.0205 9.93408C58.3213 9.59001 58.7109 9.41797 59.1895 9.41797C59.6452 9.41797 59.9984 9.56722 60.249 9.86572C60.502 10.1619 60.6284 10.5732 60.6284 11.0996V11.3765ZM60.0542 10.9185C60.0519 10.5949 59.9733 10.3431 59.8184 10.1631C59.6634 9.98079 59.4504 9.88965 59.1792 9.88965C58.9126 9.88965 58.6859 9.98307 58.499 10.1699C58.3145 10.3545 58.2017 10.604 58.1606 10.9185H60.0542ZM63.6875 8.6626C63.5736 8.6626 63.4779 8.625 63.4004 8.5498C63.3229 8.47233 63.2842 8.37777 63.2842 8.26611C63.2842 8.15446 63.3229 8.06104 63.4004 7.98584C63.4779 7.90837 63.5736 7.86963 63.6875 7.86963C63.8014 7.86963 63.8971 7.90837 63.9746 7.98584C64.0521 8.06104 64.0908 8.15446 64.0908 8.26611C64.0908 8.37777 64.0521 8.47233 63.9746 8.5498C63.8971 8.625 63.8014 8.6626 63.6875 8.6626ZM63.9609 13H63.4004V9.5H63.9609V13ZM67.5361 9.66064L65.4648 12.5215H67.5156V13H64.6411V12.8257L66.7124 9.97852H64.8359V9.5H67.5361V9.66064ZM71.8496 12.959C71.7539 12.9977 71.6593 13.0262 71.5659 13.0444C71.4748 13.0649 71.3711 13.0752 71.2549 13.0752C70.9769 13.0752 70.7581 12.9943 70.5986 12.8325C70.4414 12.6685 70.3628 12.4269 70.3628 12.1079V9.97852H69.7612V9.5H70.3628V8.64551L70.9233 8.46436V9.5H71.8052V9.97852H70.9233V12.043C70.9233 12.2435 70.9587 12.3882 71.0293 12.4771C71.1022 12.5659 71.2104 12.6104 71.354 12.6104C71.4224 12.6104 71.4884 12.6024 71.5522 12.5864C71.616 12.5705 71.6696 12.5522 71.7129 12.5317L71.8496 12.959ZM74.2798 9.97852C74.2365 9.96484 74.1978 9.95573 74.1636 9.95117C74.1294 9.94434 74.0861 9.94092 74.0337 9.94092C73.7489 9.94092 73.5244 10.0628 73.3604 10.3066C73.1963 10.5482 73.1143 10.8512 73.1143 11.2158V13H72.5537V9.5H73.1143V10.1938H73.1279C73.2077 9.94775 73.3296 9.7609 73.4937 9.6333C73.6577 9.50342 73.8468 9.43848 74.061 9.43848C74.1317 9.43848 74.1909 9.44189 74.2388 9.44873C74.2889 9.45557 74.3333 9.46582 74.3721 9.47949L74.2798 9.97852ZM77.9746 12.812C77.9746 13.425 77.8174 13.8841 77.5029 14.1895C77.1908 14.4948 76.7624 14.6475 76.2178 14.6475C75.9785 14.6475 75.7552 14.6247 75.5479 14.5791C75.3428 14.5335 75.1309 14.4595 74.9121 14.3569L75.1172 13.9263C75.2995 14.0106 75.4772 14.0721 75.6504 14.1108C75.8258 14.1496 76.0127 14.1689 76.2109 14.1689C76.5846 14.1689 76.8786 14.063 77.0928 13.8511C77.307 13.6392 77.4141 13.3179 77.4141 12.8872V12.4121H77.4004C77.2682 12.6354 77.1019 12.8029 76.9014 12.9146C76.7008 13.0262 76.4661 13.082 76.1973 13.082C75.762 13.082 75.4111 12.9271 75.1445 12.6172C74.8802 12.305 74.748 11.8869 74.748 11.3628C74.748 10.7886 74.8939 10.3215 75.1855 9.96143C75.4795 9.59912 75.868 9.41797 76.3511 9.41797C76.5881 9.41797 76.7931 9.46582 76.9663 9.56152C77.1418 9.65495 77.2865 9.79622 77.4004 9.98535H77.4141V9.5H77.9746V12.812ZM77.4141 11.4175V10.9014C77.4141 10.6234 77.3195 10.3853 77.1304 10.187C76.9435 9.98877 76.71 9.88965 76.4297 9.88965C76.0856 9.88965 75.8145 10.0081 75.6162 10.2451C75.4202 10.4821 75.3223 10.8421 75.3223 11.3252C75.3223 11.7399 75.4134 12.0578 75.5957 12.2788C75.778 12.4998 76.0298 12.6104 76.3511 12.6104C76.6655 12.6104 76.9207 12.4987 77.1167 12.2754C77.3149 12.0521 77.4141 11.7661 77.4141 11.4175ZM80.5723 13.082C80.055 13.082 79.6414 12.9191 79.3315 12.5933C79.0239 12.2651 78.8701 11.8311 78.8701 11.291C78.8701 10.7054 79.0296 10.2474 79.3486 9.91699C79.6676 9.58659 80.1029 9.42025 80.6543 9.41797C81.1761 9.41569 81.5828 9.57633 81.8745 9.8999C82.1685 10.2235 82.3154 10.6689 82.3154 11.2363C82.3154 11.7969 82.1571 12.2446 81.8403 12.5796C81.5259 12.9146 81.1032 13.082 80.5723 13.082ZM80.6133 12.6104C80.9756 12.6104 81.2536 12.493 81.4473 12.2583C81.6432 12.0213 81.7412 11.6875 81.7412 11.2568C81.7412 10.8171 81.6432 10.4798 81.4473 10.2451C81.2513 10.0081 80.9733 9.88965 80.6133 9.88965C80.2533 9.88965 79.9684 10.0127 79.7588 10.2588C79.5492 10.5049 79.4443 10.8421 79.4443 11.2705C79.4443 11.6852 79.5503 12.0122 79.7622 12.2515C79.9741 12.4907 80.2578 12.6104 80.6133 12.6104ZM85.9624 9.5L84.5679 13H84.0176L82.6914 9.5H83.3066L84.1953 12.043C84.2272 12.1364 84.2534 12.2241 84.2739 12.3062C84.2944 12.3859 84.3092 12.4611 84.3184 12.5317H84.332C84.3434 12.4429 84.3582 12.3597 84.3765 12.2822C84.3947 12.2025 84.4163 12.1273 84.4414 12.0566L85.3711 9.5H85.9624ZM86.8545 8.6626C86.7406 8.6626 86.6449 8.625 86.5674 8.5498C86.4899 8.47233 86.4512 8.37777 86.4512 8.26611C86.4512 8.15446 86.4899 8.06104 86.5674 7.98584C86.6449 7.90837 86.7406 7.86963 86.8545 7.86963C86.9684 7.86963 87.0641 7.90837 87.1416 7.98584C87.2191 8.06104 87.2578 8.15446 87.2578 8.26611C87.2578 8.37777 87.2191 8.47233 87.1416 8.5498C87.0641 8.625 86.9684 8.6626 86.8545 8.6626ZM87.1279 13H86.5674V9.5H87.1279V13ZM91.168 13H90.6074V11.0039C90.6074 10.6325 90.5391 10.3545 90.4023 10.1699C90.2679 9.98307 90.0651 9.88965 89.7939 9.88965C89.5137 9.88965 89.2812 9.99561 89.0967 10.2075C88.9144 10.4172 88.8232 10.6826 88.8232 11.0039V13H88.2627V9.5H88.8232V10.0811H88.8369C88.9691 9.86003 89.1309 9.69482 89.3223 9.58545C89.5137 9.4738 89.7347 9.41797 89.9854 9.41797C90.3682 9.41797 90.661 9.54215 90.8638 9.79053C91.0666 10.0366 91.168 10.3932 91.168 10.8604V13ZM95.0405 11.3765H92.5659C92.575 11.7707 92.6787 12.0749 92.877 12.2891C93.0775 12.501 93.3577 12.6069 93.7178 12.6069C93.875 12.6069 94.0322 12.5841 94.1895 12.5386C94.349 12.4907 94.5062 12.4155 94.6611 12.313L94.9209 12.7129C94.7227 12.8405 94.5244 12.9339 94.3262 12.9932C94.1279 13.0524 93.9103 13.082 93.6733 13.082C93.1447 13.082 92.7323 12.9248 92.436 12.6104C92.1398 12.2959 91.9906 11.8573 91.9883 11.2944C91.986 10.7316 92.1341 10.2782 92.4326 9.93408C92.7334 9.59001 93.123 9.41797 93.6016 9.41797C94.0573 9.41797 94.4105 9.56722 94.6611 9.86572C94.9141 10.1619 95.0405 10.5732 95.0405 11.0996V11.3765ZM94.4663 10.9185C94.464 10.5949 94.3854 10.3431 94.2305 10.1631C94.0755 9.98079 93.8625 9.88965 93.5913 9.88965C93.3247 9.88965 93.098 9.98307 92.9111 10.1699C92.7266 10.3545 92.6138 10.604 92.5728 10.9185H94.4663Z" fill="black" fill-opacity="0.6063"/>
<path d="M39.2275 25H37.96V20.0854C37.96 19.8634 37.9653 19.6217 37.9761 19.3604C37.9904 19.0954 38.0083 18.8143 38.0298 18.5171H37.9976C37.9546 18.7212 37.9134 18.8966 37.874 19.0435C37.8382 19.1867 37.8024 19.3013 37.7666 19.3872L35.5054 25H34.6245L32.3525 19.4355C32.3239 19.3568 32.2881 19.2404 32.2451 19.0864C32.2057 18.9325 32.1628 18.7427 32.1162 18.5171H32.084C32.1055 18.7749 32.1198 19.0488 32.127 19.3389C32.1341 19.6253 32.1377 19.9279 32.1377 20.2466V25H30.9561V17.2979H32.7607L34.7642 22.3037C34.8429 22.4935 34.9074 22.6689 34.9575 22.8301C35.0112 22.9876 35.0524 23.1344 35.0811 23.2705H35.1133C35.1777 23.0664 35.2386 22.882 35.2959 22.7173C35.3532 22.5526 35.4069 22.4093 35.457 22.2876L37.4873 17.2979H39.2275V25ZM41.6177 18.4365C41.3885 18.4365 41.1987 18.3631 41.0483 18.2163C40.8979 18.0695 40.8228 17.8887 40.8228 17.6738C40.8228 17.4518 40.8979 17.2692 41.0483 17.126C41.1987 16.9827 41.3885 16.9111 41.6177 16.9111C41.8504 16.9111 42.042 16.9827 42.1924 17.126C42.3428 17.2692 42.418 17.4518 42.418 17.6738C42.418 17.8923 42.3428 18.0749 42.1924 18.2217C42.042 18.3649 41.8504 18.4365 41.6177 18.4365ZM42.2354 25H40.9839V19.5H42.2354V25ZM47.9824 24.6616C47.7103 24.8263 47.4399 24.9445 47.1714 25.0161C46.9028 25.0913 46.611 25.1289 46.2959 25.1289C45.4508 25.1289 44.7741 24.8818 44.2656 24.3877C43.7607 23.8936 43.5083 23.2222 43.5083 22.3735C43.5083 21.4604 43.7697 20.7318 44.2925 20.1875C44.8188 19.6432 45.5278 19.3711 46.4194 19.3711C46.731 19.3711 47.0138 19.4051 47.2681 19.4731C47.5259 19.5376 47.7873 19.645 48.0522 19.7954L47.5635 20.6655C47.3773 20.5617 47.1947 20.4865 47.0156 20.4399C46.8366 20.3898 46.6414 20.3647 46.4302 20.3647C45.9038 20.3647 45.4974 20.5384 45.2109 20.8857C44.9245 21.2331 44.7812 21.6932 44.7812 22.2661C44.7812 22.8677 44.9352 23.3296 45.2432 23.6519C45.5547 23.9741 45.945 24.1353 46.4141 24.1353C46.5573 24.1353 46.722 24.1102 46.9082 24.0601C47.0944 24.0063 47.2824 23.9222 47.4722 23.8076L47.9824 24.6616ZM52.1021 20.5474C52.034 20.5295 51.9678 20.5169 51.9033 20.5098C51.8424 20.499 51.7708 20.4937 51.6885 20.4937C51.2409 20.4937 50.8971 20.6584 50.6572 20.9878C50.4173 21.3172 50.2974 21.7469 50.2974 22.2769V25H49.0459V19.5H50.2974V20.5581H50.3188C50.4478 20.1785 50.6375 19.8921 50.8882 19.6987C51.1388 19.5018 51.4342 19.4033 51.7744 19.4033C51.8711 19.4033 51.957 19.4087 52.0322 19.4194C52.111 19.4302 52.1862 19.4463 52.2578 19.4678L52.1021 20.5474ZM55.5557 25.1289C54.6963 25.1289 54.0142 24.8729 53.5093 24.3608C53.008 23.8452 52.7573 23.1559 52.7573 22.293C52.7609 21.3799 53.0223 20.6655 53.5415 20.1499C54.0607 19.6307 54.7679 19.3711 55.6631 19.3711C56.526 19.3675 57.1992 19.6217 57.6826 20.1338C58.1696 20.6423 58.4131 21.3315 58.4131 22.2017C58.4131 23.0968 58.1553 23.8094 57.6396 24.3394C57.1276 24.8657 56.4329 25.1289 55.5557 25.1289ZM55.6147 24.1353C56.1125 24.1353 56.4902 23.9723 56.748 23.6465C57.0094 23.3206 57.1401 22.8498 57.1401 22.2339C57.1401 21.6252 57.0094 21.1615 56.748 20.8428C56.4867 20.5241 56.1071 20.3647 55.6094 20.3647C55.1188 20.3647 54.7321 20.533 54.4492 20.8696C54.1699 21.2062 54.0303 21.6717 54.0303 22.2661C54.0303 22.8641 54.1699 23.326 54.4492 23.6519C54.7285 23.9741 55.117 24.1353 55.6147 24.1353ZM59.1543 24.5596L59.6968 23.6787C59.9116 23.8291 60.139 23.9508 60.3789 24.0439C60.6224 24.1335 60.8856 24.1782 61.1685 24.1782C61.4764 24.1782 61.7145 24.1227 61.8828 24.0117C62.0547 23.8971 62.1406 23.7271 62.1406 23.5015C62.1406 23.3224 62.069 23.1738 61.9258 23.0557C61.7861 22.9339 61.5462 22.8337 61.2061 22.7549C60.5186 22.5938 60.0352 22.3807 59.7559 22.1157C59.4801 21.8507 59.3423 21.5016 59.3423 21.0684C59.3423 20.5706 59.5356 20.1642 59.9224 19.8491C60.3091 19.5304 60.8158 19.3711 61.4424 19.3711C61.7539 19.3711 62.0511 19.4123 62.334 19.4946C62.6169 19.5734 62.8926 19.7005 63.1611 19.876L62.6562 20.7354C62.4199 20.585 62.2033 20.4775 62.0063 20.4131C61.8094 20.3486 61.6071 20.3164 61.3994 20.3164C61.1058 20.3164 60.8766 20.3719 60.7119 20.4829C60.5508 20.5903 60.4702 20.7407 60.4702 20.9341C60.4702 21.1382 60.5526 21.2904 60.7173 21.3906C60.8856 21.4873 61.1667 21.5822 61.5605 21.6753C62.1549 21.8185 62.59 22.0262 62.8657 22.2983C63.1414 22.5669 63.2793 22.9268 63.2793 23.3779C63.2793 23.9115 63.0841 24.3376 62.6938 24.6562C62.3071 24.9714 61.7826 25.1289 61.1201 25.1289C60.762 25.1289 60.4183 25.0824 60.0889 24.9893C59.763 24.8926 59.4515 24.7493 59.1543 24.5596ZM66.8779 25.1289C66.0186 25.1289 65.3364 24.8729 64.8315 24.3608C64.3302 23.8452 64.0796 23.1559 64.0796 22.293C64.0832 21.3799 64.3446 20.6655 64.8638 20.1499C65.383 19.6307 66.0902 19.3711 66.9854 19.3711C67.8483 19.3675 68.5215 19.6217 69.0049 20.1338C69.4919 20.6423 69.7354 21.3315 69.7354 22.2017C69.7354 23.0968 69.4775 23.8094 68.9619 24.3394C68.4499 24.8657 67.7552 25.1289 66.8779 25.1289ZM66.937 24.1353C67.4347 24.1353 67.8125 23.9723 68.0703 23.6465C68.3317 23.3206 68.4624 22.8498 68.4624 22.2339C68.4624 21.6252 68.3317 21.1615 68.0703 20.8428C67.8089 20.5241 67.4294 20.3647 66.9316 20.3647C66.4411 20.3647 66.0544 20.533 65.7715 20.8696C65.4922 21.2062 65.3525 21.6717 65.3525 22.2661C65.3525 22.8641 65.4922 23.326 65.7715 23.6519C66.0508 23.9741 66.4393 24.1353 66.937 24.1353ZM73.9839 17.8403C73.8836 17.8009 73.7923 17.7741 73.71 17.7598C73.6276 17.7419 73.5381 17.7329 73.4414 17.7329C73.1764 17.7329 72.9759 17.8099 72.8398 17.9639C72.7074 18.1143 72.6411 18.3327 72.6411 18.6191V19.5H73.9141V20.4775H72.6411V25H71.395V20.4775H70.4604V19.5H71.395V18.5547C71.395 17.9961 71.5741 17.5539 71.9321 17.228C72.2938 16.8986 72.7718 16.7339 73.3662 16.7339C73.5524 16.7339 73.7135 16.7464 73.8496 16.7715C73.9857 16.7965 74.1271 16.8324 74.2739 16.8789L73.9839 17.8403ZM77.7974 24.9248C77.6362 24.9928 77.4679 25.043 77.2925 25.0752C77.117 25.1074 76.929 25.1235 76.7285 25.1235C76.2201 25.1235 75.828 24.9893 75.5522 24.7207C75.2801 24.4486 75.144 24.0439 75.144 23.5068V20.4775H74.2202V19.5H75.144V18.1626L76.3901 17.7866V19.5H77.7061V20.4775H76.3901V23.4048C76.3901 23.6733 76.4385 23.8667 76.5352 23.9849C76.6354 24.103 76.7894 24.1621 76.9971 24.1621C77.0973 24.1621 77.1922 24.1514 77.2817 24.1299C77.3748 24.1048 77.4572 24.0744 77.5288 24.0386L77.7974 24.9248ZM81.2939 24.4468L81.8633 23.4639C82.2106 23.6787 82.5347 23.8309 82.8354 23.9204C83.1362 24.0063 83.4728 24.0493 83.8452 24.0493C84.2892 24.0493 84.6383 23.9544 84.8926 23.7646C85.1504 23.5713 85.2793 23.2956 85.2793 22.9375C85.2793 22.6117 85.1719 22.3556 84.957 22.1694C84.7458 21.9797 84.3859 21.806 83.8774 21.6484C83.0933 21.4157 82.5168 21.1274 82.1479 20.7837C81.7791 20.4399 81.5947 19.9744 81.5947 19.3872C81.5947 18.7498 81.8328 18.2217 82.3091 17.8027C82.7853 17.3802 83.4316 17.1689 84.248 17.1689C84.6061 17.1689 84.9588 17.2083 85.3062 17.2871C85.6535 17.3659 85.9972 17.4876 86.3374 17.6523L85.8594 18.6729C85.5622 18.5189 85.2775 18.4097 85.0054 18.3452C84.7368 18.2808 84.4629 18.2485 84.1836 18.2485C83.7754 18.2485 83.4531 18.3381 83.2168 18.5171C82.984 18.6961 82.8677 18.9486 82.8677 19.2744C82.8677 19.5645 82.9751 19.7936 83.1899 19.9619C83.4048 20.1266 83.7736 20.2896 84.2964 20.4507C85.0985 20.6906 85.675 20.9896 86.0259 21.3477C86.3804 21.7057 86.5576 22.1981 86.5576 22.8247C86.5576 23.4979 86.3177 24.0511 85.8379 24.4844C85.3581 24.9141 84.6742 25.1289 83.7861 25.1289C83.3421 25.1289 82.9089 25.0734 82.4863 24.9624C82.0638 24.8478 81.6663 24.6759 81.2939 24.4468ZM90.4409 24.9248C90.2798 24.9928 90.1115 25.043 89.936 25.0752C89.7606 25.1074 89.5726 25.1235 89.3721 25.1235C88.8636 25.1235 88.4715 24.9893 88.1958 24.7207C87.9237 24.4486 87.7876 24.0439 87.7876 23.5068V20.4775H86.8638V19.5H87.7876V18.1626L89.0337 17.7866V19.5H90.3496V20.4775H89.0337V23.4048C89.0337 23.6733 89.082 23.8667 89.1787 23.9849C89.279 24.103 89.4329 24.1621 89.6406 24.1621C89.7409 24.1621 89.8358 24.1514 89.9253 24.1299C90.0184 24.1048 90.1007 24.0744 90.1724 24.0386L90.4409 24.9248ZM93.8623 25.1289C93.0029 25.1289 92.3208 24.8729 91.8159 24.3608C91.3146 23.8452 91.064 23.1559 91.064 22.293C91.0675 21.3799 91.3289 20.6655 91.8481 20.1499C92.3674 19.6307 93.0745 19.3711 93.9697 19.3711C94.8327 19.3675 95.5059 19.6217 95.9893 20.1338C96.4762 20.6423 96.7197 21.3315 96.7197 22.2017C96.7197 23.0968 96.4619 23.8094 95.9463 24.3394C95.4342 24.8657 94.7396 25.1289 93.8623 25.1289ZM93.9214 24.1353C94.4191 24.1353 94.7969 23.9723 95.0547 23.6465C95.3161 23.3206 95.4468 22.8498 95.4468 22.2339C95.4468 21.6252 95.3161 21.1615 95.0547 20.8428C94.7933 20.5241 94.4137 20.3647 93.916 20.3647C93.4255 20.3647 93.0387 20.533 92.7559 20.8696C92.4766 21.2062 92.3369 21.6717 92.3369 22.2661C92.3369 22.8641 92.4766 23.326 92.7559 23.6519C93.0352 23.9741 93.4237 24.1353 93.9214 24.1353ZM101.054 20.5474C100.986 20.5295 100.92 20.5169 100.855 20.5098C100.795 20.499 100.723 20.4937 100.641 20.4937C100.193 20.4937 99.8493 20.6584 99.6094 20.9878C99.3695 21.3172 99.2495 21.7469 99.2495 22.2769V25H97.998V19.5H99.2495V20.5581H99.271C99.3999 20.1785 99.5897 19.8921 99.8403 19.6987C100.091 19.5018 100.386 19.4033 100.727 19.4033C100.823 19.4033 100.909 19.4087 100.984 19.4194C101.063 19.4302 101.138 19.4463 101.21 19.4678L101.054 20.5474ZM106.721 22.5776H102.966C102.988 23.0968 103.138 23.4925 103.417 23.7646C103.697 24.0332 104.087 24.1675 104.588 24.1675C104.792 24.1675 105.025 24.1263 105.287 24.0439C105.548 23.9616 105.806 23.8291 106.06 23.6465L106.624 24.4253C106.284 24.6724 105.938 24.8514 105.587 24.9624C105.236 25.0734 104.85 25.1289 104.427 25.1289C103.571 25.1289 102.905 24.8836 102.429 24.3931C101.953 23.8989 101.713 23.2096 101.709 22.3252C101.709 21.4443 101.955 20.7318 102.445 20.1875C102.939 19.6432 103.571 19.3711 104.341 19.3711C105.079 19.3711 105.659 19.6038 106.082 20.0693C106.508 20.5312 106.721 21.1865 106.721 22.0352V22.5776ZM105.512 21.7129C105.512 21.2402 105.408 20.8857 105.201 20.6494C104.997 20.4095 104.707 20.2896 104.331 20.2896C103.976 20.2896 103.674 20.4185 103.423 20.6763C103.176 20.9305 103.024 21.276 102.966 21.7129H105.512Z" fill="black" fill-opacity="0.8956"/>
<defs>
<filter id="filter0_dd_963_7230" x="11.0938" y="7.25" width="11.8125" height="5.625" filterUnits="userSpaceOnUse" color-interpolation-filters="sRGB">
<feFlood flood-opacity="0" result="BackgroundImageFix"/>
<feColorMatrix in="SourceAlpha" type="matrix" values="0 0 0 0 0 0 0 0 0 0 0 0 0 0 0 0 0 0 127 0" result="hardAlpha"/>
<feOffset dy="0.1875"/>
<feGaussianBlur stdDeviation="0.1875"/>
<feColorMatrix type="matrix" values="0 0 0 0 0 0 0 0 0 0 0 0 0 0 0 0 0 0 0.1 0"/>
<feBlend mode="normal" in2="BackgroundImageFix" result="effect1_dropShadow_963_7230"/>
<feColorMatrix in="SourceAlpha" type="matrix" values="0 0 0 0 0 0 0 0 0 0 0 0 0 0 0 0 0 0 127 0" result="hardAlpha"/>
<feOffset dy="0.375"/>
<feGaussianBlur stdDeviation="0.5625"/>
<feColorMatrix type="matrix" values="0 0 0 0 0 0 0 0 0 0 0 0 0 0 0 0 0 0 0.2 0"/>
<feBlend mode="normal" in2="effect1_dropShadow_963_7230" result="effect2_dropShadow_963_7230"/>
<feBlend mode="normal" in="SourceGraphic" in2="effect2_dropShadow_963_7230" result="shape"/>
</filter>
<filter id="filter1_dd_963_7230" x="12.2188" y="13.4375" width="9.5625" height="9.5625" filterUnits="userSpaceOnUse" color-interpolation-filters="sRGB">
<feFlood flood-opacity="0" result="BackgroundImageFix"/>
<feColorMatrix in="SourceAlpha" type="matrix" values="0 0 0 0 0 0 0 0 0 0 0 0 0 0 0 0 0 0 127 0" result="hardAlpha"/>
<feOffset dy="0.1875"/>
<feGaussianBlur stdDeviation="0.1875"/>
<feColorMatrix type="matrix" values="0 0 0 0 0 0 0 0 0 0 0 0 0 0 0 0 0 0 0.1 0"/>
<feBlend mode="normal" in2="BackgroundImageFix" result="effect1_dropShadow_963_7230"/>
<feColorMatrix in="SourceAlpha" type="matrix" values="0 0 0 0 0 0 0 0 0 0 0 0 0 0 0 0 0 0 127 0" result="hardAlpha"/>
<feOffset dy="0.375"/>
<feGaussianBlur stdDeviation="0.5625"/>
<feColorMatrix type="matrix" values="0 0 0 0 0 0 0 0 0 0 0 0 0 0 0 0 0 0 0.2 0"/>
<feBlend mode="normal" in2="effect1_dropShadow_963_7230" result="effect2_dropShadow_963_7230"/>
<feBlend mode="normal" in="SourceGraphic" in2="effect2_dropShadow_963_7230" result="shape"/>
</filter>
<filter id="filter2_dd_963_7230" x="10.5939" y="6.6875" width="12.8124" height="5.06274" filterUnits="userSpaceOnUse" color-interpolation-filters="sRGB">
<feFlood flood-opacity="0" result="BackgroundImageFix"/>
<feColorMatrix in="SourceAlpha" type="matrix" values="0 0 0 0 0 0 0 0 0 0 0 0 0 0 0 0 0 0 127 0" result="hardAlpha"/>
<feOffset dy="-0.75"/>
<feGaussianBlur stdDeviation="0.1875"/>
<feColorMatrix type="matrix" values="0 0 0 0 0 0 0 0 0 0 0 0 0 0 0 0 0 0 0.1 0"/>
<feBlend mode="normal" in2="BackgroundImageFix" result="effect1_dropShadow_963_7230"/>
<feColorMatrix in="SourceAlpha" type="matrix" values="0 0 0 0 0 0 0 0 0 0 0 0 0 0 0 0 0 0 127 0" result="hardAlpha"/>
<feOffset dy="-0.75"/>
<feGaussianBlur stdDeviation="0.5625"/>
<feColorMatrix type="matrix" values="0 0 0 0 0 0 0 0 0 0 0 0 0 0 0 0 0 0 0.2 0"/>
<feBlend mode="normal" in2="effect1_dropShadow_963_7230" result="effect2_dropShadow_963_7230"/>
<feBlend mode="normal" in="SourceGraphic" in2="effect2_dropShadow_963_7230" result="shape"/>
</filter>
<linearGradient id="paint0_linear_963_7230" x1="17" y1="10.25" x2="20.3514" y2="25.9624" gradientUnits="userSpaceOnUse">
<stop stop-color="#0669BC"/>
<stop offset="1" stop-color="#243A5F"/>
</linearGradient>
<linearGradient id="paint1_linear_963_7230" x1="17" y1="10.25" x2="20.3514" y2="25.9624" gradientUnits="userSpaceOnUse">
<stop stop-color="#0078D4"/>
<stop offset="1" stop-color="#114A8B"/>
</linearGradient>
<linearGradient id="paint2_linear_963_7230" x1="17" y1="8.5625" x2="17.1583" y2="10.9858" gradientUnits="userSpaceOnUse">
<stop stop-color="#28AFEA"/>
<stop offset="1" stop-color="#0078D4"/>
</linearGradient>
<linearGradient id="paint3_linear_963_7230" x1="17" y1="8.5625" x2="17.1583" y2="10.9858" gradientUnits="userSpaceOnUse">
<stop stop-color="#30DAFF"/>
<stop offset="1" stop-color="#0094D4"/>
</linearGradient>
<linearGradient id="paint4_linear_963_7230" x1="16.5938" y1="8" x2="16.5937" y2="9.125" gradientUnits="userSpaceOnUse">
<stop stop-color="#22BCFF"/>
<stop offset="1" stop-color="#0088F0"/>
</linearGradient>
<linearGradient id="paint5_linear_963_7230" x1="16.5938" y1="8" x2="16.5937" y2="9.125" gradientUnits="userSpaceOnUse">
<stop stop-color="#28AFEA"/>
<stop offset="1" stop-color="#3CCBF4"/>
</linearGradient>
<clipPath id="clip0_963_7230">
<rect width="18" height="18" fill="white" transform="translate(8 8)"/>
</clipPath>
<clipPath id="clip1_963_7230">
<rect width="18" height="18" fill="white" transform="translate(8 8)"/>
</clipPath>
</defs>
</svg>
