<svg width="91" height="32" viewBox="0 0 91 32" fill="none" xmlns="http://www.w3.org/2000/svg">
<rect x="0.5" y="0.5" width="90" height="31" rx="3.5" fill="black"/>
<path d="M15.5559 7H7V15.5608H15.5559V7Z" fill="#F25022"/>
<path d="M25.0001 7H16.4442V15.5608H25.0001V7Z" fill="#7FBA00"/>
<path d="M15.5559 16.4395H7V25.0002H15.5559V16.4395Z" fill="#00A4EF"/>
<path d="M25.0002 16.4395H16.4443V25.0002H25.0002V16.4395Z" fill="#FFB900"/>
<path d="M34.3281 13H33.4805L30.6523 8.625C30.6133 8.5625 30.5768 8.5013 30.543 8.44141C30.5117 8.38151 30.4844 8.32161 30.4609 8.26172H30.4375C30.4479 8.32422 30.4557 8.42057 30.4609 8.55078C30.4661 8.68099 30.4688 8.84505 30.4688 9.04297V13H29.7656V7.39844H30.6641L33.4141 11.6992C33.4714 11.7904 33.5195 11.8685 33.5586 11.9336C33.5977 11.9961 33.6263 12.0456 33.6445 12.082H33.6602C33.6471 12.0039 33.6367 11.8971 33.6289 11.7617C33.6237 11.6237 33.6211 11.4583 33.6211 11.2656V7.39844H34.3281V13ZM38.7188 13H38.0273V12.3555H38.0117C37.8711 12.6003 37.6966 12.7852 37.4883 12.9102C37.2799 13.0352 37.0378 13.0977 36.7617 13.0977C36.3763 13.0977 36.0651 12.9857 35.8281 12.7617C35.5911 12.5378 35.4727 12.2422 35.4727 11.875C35.4727 11.5182 35.5924 11.2253 35.832 10.9961C36.0716 10.7669 36.4167 10.6198 36.8672 10.5547L38.0312 10.3984V10.3047C38.0312 9.97396 37.9518 9.73568 37.793 9.58984C37.6367 9.44401 37.4258 9.37109 37.1602 9.37109C36.9492 9.37109 36.7435 9.41146 36.543 9.49219C36.3424 9.57292 36.1523 9.69401 35.9727 9.85547L35.5938 9.43359C35.8255 9.22005 36.0729 9.0625 36.3359 8.96094C36.6016 8.85677 36.8919 8.80469 37.207 8.80469C37.707 8.80469 38.0833 8.93359 38.3359 9.19141C38.5911 9.44922 38.7188 9.83594 38.7188 10.3516V13ZM38.0312 11.3281V10.9336L37.0547 11.0664C36.7552 11.1081 36.5312 11.1836 36.3828 11.293C36.2344 11.4023 36.1602 11.5742 36.1602 11.8086C36.1602 12.0404 36.2292 12.2201 36.3672 12.3477C36.5078 12.4753 36.6823 12.5391 36.8906 12.5391C37.2344 12.5391 37.5104 12.4258 37.7188 12.1992C37.9271 11.9701 38.0312 11.6797 38.0312 11.3281ZM40.7227 12.4609H40.707V13H40.0117V7.07812H40.707V9.61719H40.7227C40.8841 9.34635 41.0833 9.14323 41.3203 9.00781C41.5573 8.8724 41.8307 8.80469 42.1406 8.80469C42.6641 8.80469 43.0742 8.98828 43.3711 9.35547C43.668 9.72005 43.8164 10.2109 43.8164 10.8281C43.8164 11.5156 43.6484 12.0664 43.3125 12.4805C42.9792 12.8919 42.5247 13.0977 41.9492 13.0977C41.6784 13.0977 41.4401 13.0456 41.2344 12.9414C41.0312 12.8346 40.8607 12.6745 40.7227 12.4609ZM40.7031 10.7578V11.3125C40.7031 11.651 40.8112 11.9375 41.0273 12.1719C41.2435 12.4036 41.5195 12.5195 41.8555 12.5195C42.2435 12.5195 42.5482 12.3698 42.7695 12.0703C42.9909 11.7708 43.1016 11.3542 43.1016 10.8203C43.1016 10.3724 42.9987 10.0208 42.793 9.76562C42.5872 9.51042 42.3073 9.38281 41.9531 9.38281C41.5755 9.38281 41.2721 9.51432 41.043 9.77734C40.8164 10.0378 40.7031 10.3646 40.7031 10.7578ZM47.8438 13H47.1523V12.3555H47.1367C46.9961 12.6003 46.8216 12.7852 46.6133 12.9102C46.4049 13.0352 46.1628 13.0977 45.8867 13.0977C45.5013 13.0977 45.1901 12.9857 44.9531 12.7617C44.7161 12.5378 44.5977 12.2422 44.5977 11.875C44.5977 11.5182 44.7174 11.2253 44.957 10.9961C45.1966 10.7669 45.5417 10.6198 45.9922 10.5547L47.1562 10.3984V10.3047C47.1562 9.97396 47.0768 9.73568 46.918 9.58984C46.7617 9.44401 46.5508 9.37109 46.2852 9.37109C46.0742 9.37109 45.8685 9.41146 45.668 9.49219C45.4674 9.57292 45.2773 9.69401 45.0977 9.85547L44.7188 9.43359C44.9505 9.22005 45.1979 9.0625 45.4609 8.96094C45.7266 8.85677 46.0169 8.80469 46.332 8.80469C46.832 8.80469 47.2083 8.93359 47.4609 9.19141C47.7161 9.44922 47.8438 9.83594 47.8438 10.3516V13ZM47.1562 11.3281V10.9336L46.1797 11.0664C45.8802 11.1081 45.6562 11.1836 45.5078 11.293C45.3594 11.4023 45.2852 11.5742 45.2852 11.8086C45.2852 12.0404 45.3542 12.2201 45.4922 12.3477C45.6328 12.4753 45.8073 12.5391 46.0156 12.5391C46.3594 12.5391 46.6354 12.4258 46.8438 12.1992C47.0521 11.9701 47.1562 11.6797 47.1562 11.3281ZM52.4219 8.90234L50.7969 13H50.0977L48.5508 8.90234H49.3125L50.332 11.8516C50.3685 11.9635 50.3984 12.0677 50.4219 12.1641C50.4479 12.2604 50.4661 12.3503 50.4766 12.4336H50.4922C50.5052 12.3294 50.5221 12.2318 50.543 12.1406C50.5638 12.0469 50.5898 11.957 50.6211 11.8711L51.6875 8.90234H52.4219ZM53.5312 8.03516C53.3932 8.03516 53.2786 7.98958 53.1875 7.89844C53.0964 7.80729 53.0508 7.69661 53.0508 7.56641C53.0508 7.43099 53.0964 7.31901 53.1875 7.23047C53.2786 7.13932 53.3932 7.09375 53.5312 7.09375C53.6693 7.09375 53.7839 7.13932 53.875 7.23047C53.9688 7.31901 54.0156 7.43099 54.0156 7.56641C54.0156 7.69661 53.9688 7.80729 53.875 7.89844C53.7839 7.98958 53.6693 8.03516 53.5312 8.03516ZM53.8711 13H53.1758V8.90234H53.8711V13ZM57.2773 12.9492C57.1654 12.9961 57.0534 13.0299 56.9414 13.0508C56.832 13.0742 56.7083 13.0859 56.5703 13.0859C56.2344 13.0859 55.9714 12.9896 55.7812 12.7969C55.5938 12.6042 55.5 12.319 55.5 11.9414V9.48047H54.8008V8.90234H55.5V7.96484L56.1992 7.74219V8.90234H57.2227V9.48047H56.1992V11.8672C56.1992 12.099 56.2409 12.2656 56.3242 12.3672C56.4076 12.4688 56.5326 12.5195 56.6992 12.5195C56.7773 12.5195 56.8529 12.5104 56.9258 12.4922C56.9987 12.474 57.0612 12.4518 57.1133 12.4258L57.2773 12.9492ZM61.4766 11.1094H58.5938C58.6068 11.5625 58.7279 11.9115 58.957 12.1562C59.1862 12.3984 59.5078 12.5195 59.9219 12.5195C60.1016 12.5195 60.2852 12.4922 60.4727 12.4375C60.6628 12.3802 60.8529 12.2878 61.043 12.1602L61.3594 12.6445C61.1224 12.8008 60.8841 12.9154 60.6445 12.9883C60.4049 13.0612 60.1419 13.0977 59.8555 13.0977C59.2357 13.0977 58.7526 12.9141 58.4062 12.5469C58.0599 12.1771 57.8854 11.6615 57.8828 11C57.8802 10.3411 58.0547 9.8112 58.4062 9.41016C58.7604 9.00651 59.2188 8.80469 59.7812 8.80469C60.3177 8.80469 60.7344 8.97917 61.0312 9.32812C61.3281 9.67448 61.4766 10.1576 61.4766 10.7773V11.1094ZM60.7773 10.5625C60.7747 10.1849 60.6836 9.89193 60.5039 9.68359C60.3268 9.47526 60.082 9.37109 59.7695 9.37109C59.4622 9.37109 59.2018 9.47917 58.9883 9.69531C58.7773 9.90885 58.6484 10.1979 58.6016 10.5625H60.7773ZM66.4375 13.0977C65.8255 13.0977 65.3372 12.9062 64.9727 12.5234C64.6107 12.138 64.4297 11.6276 64.4297 10.9922C64.4297 10.3073 64.6172 9.77214 64.9922 9.38672C65.3672 9.0013 65.8789 8.80729 66.5273 8.80469C67.1419 8.80208 67.6224 8.99089 67.9688 9.37109C68.3177 9.7487 68.4922 10.2682 68.4922 10.9297C68.4922 11.5885 68.306 12.1146 67.9336 12.5078C67.5612 12.901 67.0625 13.0977 66.4375 13.0977ZM66.4844 12.5195C66.901 12.5195 67.2201 12.3841 67.4414 12.1133C67.6654 11.8398 67.7773 11.4531 67.7773 10.9531C67.7773 10.4479 67.6654 10.0599 67.4414 9.78906C67.2174 9.51823 66.8984 9.38281 66.4844 9.38281C66.0703 9.38281 65.7422 9.52474 65.5 9.80859C65.2604 10.0898 65.1406 10.4779 65.1406 10.9727C65.1406 11.4544 65.2617 11.8333 65.5039 12.1094C65.7461 12.3828 66.0729 12.5195 66.4844 12.5195ZM72.4023 12.3125C72.2513 12.5729 72.0586 12.7695 71.8242 12.9023C71.5924 13.0326 71.319 13.0977 71.0039 13.0977C70.4883 13.0977 70.0755 12.9141 69.7656 12.5469C69.4583 12.1797 69.3047 11.6797 69.3047 11.0469C69.3047 10.3672 69.4753 9.82422 69.8164 9.41797C70.1576 9.00911 70.612 8.80469 71.1797 8.80469C71.4609 8.80469 71.7031 8.85938 71.9062 8.96875C72.1094 9.07812 72.2747 9.24349 72.4023 9.46484H72.418V7.07812H73.1133V13H72.418V12.3125H72.4023ZM70.0156 11.0117C70.0156 11.4805 70.1237 11.849 70.3398 12.1172C70.556 12.3854 70.8451 12.5195 71.207 12.5195C71.5716 12.5195 71.8646 12.3893 72.0859 12.1289C72.3073 11.8685 72.418 11.5391 72.418 11.1406V10.5547C72.418 10.2266 72.3099 9.94922 72.0938 9.72266C71.8802 9.49609 71.6094 9.38281 71.2812 9.38281C70.888 9.38281 70.5781 9.52734 70.3516 9.81641C70.1276 10.1055 70.0156 10.5039 70.0156 11.0117Z" fill="white"/>
<path d="M39.8989 25H38.4009V19.1094C38.4009 18.627 38.4305 18.0366 38.4897 17.3384H38.4644C38.3713 17.7362 38.2887 18.0218 38.2168 18.1953L35.5 25H34.459L31.7358 18.2461C31.6597 18.0472 31.5793 17.7446 31.4946 17.3384H31.4692C31.5031 17.7023 31.52 18.2969 31.52 19.1221V25H30.1235V15.8975H32.25L34.6431 21.9595C34.825 22.425 34.9435 22.772 34.9985 23.0005H35.0303C35.1868 22.5223 35.3138 22.1668 35.4111 21.9341L37.8486 15.8975H39.8989V25ZM42.5286 17.1353C42.2874 17.1353 42.0801 17.057 41.9066 16.9004C41.7373 16.7438 41.6527 16.5449 41.6527 16.3037C41.6527 16.0625 41.7373 15.8615 41.9066 15.7007C42.0801 15.5399 42.2874 15.4595 42.5286 15.4595C42.7783 15.4595 42.9899 15.5399 43.1634 15.7007C43.3369 15.8615 43.4237 16.0625 43.4237 16.3037C43.4237 16.5322 43.3369 16.729 43.1634 16.894C42.9899 17.0549 42.7783 17.1353 42.5286 17.1353ZM43.2586 25H41.786V18.5H43.2586V25ZM49.6461 24.7017C49.1256 25.0021 48.5099 25.1523 47.799 25.1523C46.8341 25.1523 46.0555 24.8519 45.463 24.251C44.8706 23.6458 44.5744 22.863 44.5744 21.9023C44.5744 20.8317 44.8917 19.9727 45.5265 19.3252C46.1655 18.6735 47.0182 18.3477 48.0846 18.3477C48.6771 18.3477 49.1997 18.4513 49.6525 18.6587V20.0298C49.1997 19.6912 48.7173 19.522 48.2052 19.522C47.5831 19.522 47.0732 19.7336 46.6754 20.1567C46.2776 20.5757 46.0787 21.1258 46.0787 21.8071C46.0787 22.48 46.2649 23.0111 46.6373 23.4004C47.014 23.7897 47.5176 23.9844 48.1481 23.9844C48.6771 23.9844 49.1764 23.7961 49.6461 23.4194V24.7017ZM54.688 19.9028C54.5102 19.7632 54.2542 19.6934 53.9199 19.6934C53.484 19.6934 53.1201 19.8901 52.8281 20.2837C52.5361 20.6772 52.3901 21.2126 52.3901 21.8896V25H50.9174V18.5H52.3901V19.8394H52.4155C52.5594 19.3823 52.7794 19.0269 53.0756 18.7729C53.3761 18.5148 53.7104 18.3857 54.0786 18.3857C54.3452 18.3857 54.5483 18.4259 54.688 18.5063V19.9028ZM58.3015 25.1523C57.2986 25.1523 56.4967 24.8498 55.8958 24.2446C55.2991 23.6353 55.0008 22.8291 55.0008 21.8262C55.0008 20.7344 55.3118 19.8817 55.9339 19.2681C56.5602 18.6545 57.4023 18.3477 58.4602 18.3477C59.4759 18.3477 60.2672 18.646 60.8343 19.2427C61.4013 19.8394 61.6848 20.6667 61.6848 21.7246C61.6848 22.7614 61.378 23.5929 60.7644 24.2192C60.1551 24.8413 59.3341 25.1523 58.3015 25.1523ZM58.3714 19.522C57.7958 19.522 57.3409 19.723 57.0066 20.125C56.6723 20.527 56.5052 21.0814 56.5052 21.7881C56.5052 22.4694 56.6744 23.0068 57.013 23.4004C57.3515 23.7897 57.8043 23.9844 58.3714 23.9844C58.9511 23.9844 59.3955 23.7918 59.7044 23.4067C60.0175 23.0216 60.1741 22.4736 60.1741 21.7627C60.1741 21.0475 60.0175 20.4953 59.7044 20.106C59.3955 19.7166 58.9511 19.522 58.3714 19.522ZM62.588 24.7969V23.4321C63.1381 23.8511 63.7454 24.0605 64.4098 24.0605C65.2984 24.0605 65.7428 23.7982 65.7428 23.2734C65.7428 23.1253 65.7047 23.0005 65.6285 22.8989C65.5523 22.7931 65.4487 22.7 65.3175 22.6196C65.1905 22.5392 65.0382 22.4673 64.8605 22.4038C64.6869 22.3403 64.4923 22.2684 64.2765 22.188C64.0099 22.0822 63.7687 21.9701 63.5528 21.8516C63.3412 21.7331 63.1635 21.5998 63.0196 21.4517C62.88 21.2993 62.7742 21.1279 62.7022 20.9375C62.6303 20.7471 62.5943 20.5249 62.5943 20.271C62.5943 19.9578 62.6684 19.6828 62.8165 19.4458C62.9646 19.2046 63.1635 19.0036 63.4132 18.8428C63.6629 18.6777 63.9464 18.555 64.2638 18.4746C64.5812 18.39 64.9091 18.3477 65.2477 18.3477C65.8486 18.3477 66.386 18.4386 66.86 18.6206V19.9092C66.4029 19.596 65.8782 19.4395 65.2857 19.4395C65.0995 19.4395 64.9303 19.4585 64.7779 19.4966C64.6298 19.5347 64.5029 19.5876 64.3971 19.6553C64.2913 19.723 64.2088 19.8055 64.1495 19.9028C64.0903 19.9959 64.0606 20.0996 64.0606 20.2139C64.0606 20.3535 64.0903 20.472 64.1495 20.5693C64.2088 20.6667 64.2955 20.7534 64.4098 20.8296C64.5283 20.9015 64.6679 20.9692 64.8287 21.0327C64.9938 21.092 65.1821 21.1576 65.3937 21.2295C65.673 21.3438 65.9226 21.4601 66.1427 21.5786C66.367 21.6971 66.5574 21.8325 66.714 21.9849C66.8705 22.133 66.9911 22.3065 67.0758 22.5054C67.1604 22.7 67.2027 22.9328 67.2027 23.2036C67.2027 23.5337 67.1266 23.8215 66.9742 24.0669C66.8219 24.3123 66.6188 24.5155 66.3648 24.6763C66.1109 24.8371 65.8168 24.9556 65.4825 25.0317C65.1524 25.1121 64.8033 25.1523 64.4352 25.1523C63.7242 25.1523 63.1085 25.0339 62.588 24.7969ZM72.0859 16.5767C71.887 16.4624 71.6606 16.4053 71.4067 16.4053C70.6915 16.4053 70.3339 16.8094 70.3339 17.6177V18.5H71.8447V19.6553H70.3403V25H68.8676V19.6553H67.7568V18.5H68.8676V17.4463C68.8676 16.7607 69.0919 16.2212 69.5405 15.8276C69.989 15.4299 70.5497 15.231 71.2226 15.231C71.5865 15.231 71.8743 15.2712 72.0859 15.3516V16.5767ZM76.366 24.9302C76.0782 25.0741 75.6995 25.146 75.2297 25.146C73.9687 25.146 73.3381 24.5409 73.3381 23.3306V19.6553H72.2527V18.5H73.3381V16.9956L74.8108 16.5767V18.5H76.366V19.6553H74.8108V22.9053C74.8108 23.2904 74.8806 23.5654 75.0203 23.7305C75.1599 23.8955 75.3926 23.978 75.7185 23.978C75.9682 23.978 76.184 23.9061 76.366 23.7622V24.9302ZM82.4297 25H81.0015V23.9844H80.9761C80.5276 24.763 79.8695 25.1523 79.002 25.1523C78.363 25.1523 77.8615 24.9788 77.4976 24.6318C77.1379 24.2848 76.9581 23.8257 76.9581 23.2544C76.9581 22.0272 77.6648 21.312 79.0782 21.1089L81.0079 20.8359C81.0079 19.9092 80.5678 19.4458 79.6876 19.4458C78.9131 19.4458 78.2149 19.7124 77.5928 20.2456V18.957C78.2784 18.5508 79.0697 18.3477 79.9669 18.3477C81.6088 18.3477 82.4297 19.1559 82.4297 20.7725V25ZM81.0079 21.8071L79.6431 21.9976C79.2199 22.0526 78.9004 22.1562 78.6846 22.3086C78.473 22.4567 78.3672 22.7191 78.3672 23.0957C78.3672 23.3708 78.4646 23.5972 78.6592 23.7749C78.8581 23.9484 79.1226 24.0352 79.4527 24.0352C79.9013 24.0352 80.2715 23.8786 80.5635 23.5654C80.8598 23.248 81.0079 22.8503 81.0079 22.3721V21.8071Z" fill="white"/>
<rect x="0.5" y="0.5" width="90" height="31" rx="3.5" stroke="black"/>
</svg>
