<svg width="128" height="34" viewBox="0 0 128 34" fill="none" xmlns="http://www.w3.org/2000/svg">
<rect x="1" y="1" width="126" height="32" rx="4" fill="#FDFDFD"/>
<rect x="0.5" y="0.5" width="127" height="33" rx="4.5" stroke="black" stroke-opacity="0.0578"/>
<g clip-path="url(#clip0_974_1801)">
<g clip-path="url(#clip1_974_1801)">
<path d="M8.28125 11C8.28125 10.5858 8.61704 10.25 9.03125 10.25H24.9687C25.383 10.25 25.7188 10.5858 25.7188 11V22.3438C25.7188 24.0524 24.3336 25.4375 22.625 25.4375H11.375C9.66637 25.4375 8.28125 24.0524 8.28125 22.3438V11Z" fill="url(#paint0_linear_974_1801)"/>
<mask id="mask0_974_1801" style="mask-type:alpha" maskUnits="userSpaceOnUse" x="8" y="10" width="18" height="16">
<path d="M8.28125 11C8.28125 10.5858 8.61704 10.25 9.03125 10.25H24.9687C25.383 10.25 25.7188 10.5858 25.7188 11V22.3438C25.7188 24.0524 24.3336 25.4375 22.625 25.4375H11.375C9.66637 25.4375 8.28125 24.0524 8.28125 22.3438V11Z" fill="url(#paint1_linear_974_1801)"/>
</mask>
<g mask="url(#mask0_974_1801)">
<g filter="url(#filter0_dd_974_1801)">
<path d="M12.7812 10.8125V8.5625H21.2187V10.8125" stroke="url(#paint2_linear_974_1801)" stroke-width="1.125" stroke-linecap="round"/>
</g>
</g>
<g filter="url(#filter1_dd_974_1801)">
<path d="M16.719 14.1875H13.344V17.5625H16.719V14.1875Z" fill="#F25022"/>
<path d="M20.6562 14.1875H17.2812V17.5625H20.6562V14.1875Z" fill="#7FBA00"/>
<path d="M20.6562 18.125H17.2812V21.5H20.6562V18.125Z" fill="#FFB900"/>
<path d="M16.7188 18.125H13.3438V21.5H16.7188V18.125Z" fill="#00A4EF"/>
</g>
<path d="M12.7812 10.8125V9.125C12.7812 8.81434 13.0331 8.5625 13.3438 8.5625H20.6563C20.9669 8.5625 21.2188 8.81434 21.2188 9.125V10.8125" stroke="url(#paint3_linear_974_1801)" stroke-width="1.125" stroke-linecap="round"/>
<rect x="13.3438" y="8" width="7.3125" height="1.125" fill="url(#paint4_linear_974_1801)"/>
<mask id="mask1_974_1801" style="mask-type:alpha" maskUnits="userSpaceOnUse" x="13" y="8" width="8" height="2">
<rect x="13.3438" y="8" width="7.3125" height="1.125" fill="url(#paint5_linear_974_1801)"/>
</mask>
<g mask="url(#mask1_974_1801)">
<g filter="url(#filter2_dd_974_1801)">
<rect x="11.7189" y="8.56274" width="1.625" height="2.8125" fill="#C4C4C4"/>
</g>
</g>
</g>
</g>
<path d="M33.1855 13H30.6426V8.09863H31.2168V12.4805H33.1855V13ZM36.6753 11.3765H34.2007C34.2098 11.7707 34.3135 12.0749 34.5117 12.2891C34.7122 12.501 34.9925 12.6069 35.3525 12.6069C35.5098 12.6069 35.667 12.5841 35.8242 12.5386C35.9837 12.4907 36.141 12.4155 36.2959 12.313L36.5557 12.7129C36.3574 12.8405 36.1592 12.9339 35.9609 12.9932C35.7627 13.0524 35.5451 13.082 35.3081 13.082C34.7795 13.082 34.367 12.9248 34.0708 12.6104C33.7746 12.2959 33.6253 11.8573 33.623 11.2944C33.6208 10.7316 33.7689 10.2782 34.0674 9.93408C34.3682 9.59001 34.7578 9.41797 35.2363 9.41797C35.6921 9.41797 36.0452 9.56722 36.2959 9.86572C36.5488 10.1619 36.6753 10.5732 36.6753 11.0996V11.3765ZM36.1011 10.9185C36.0988 10.5949 36.0202 10.3431 35.8652 10.1631C35.7103 9.98079 35.4972 9.88965 35.2261 9.88965C34.9595 9.88965 34.7327 9.98307 34.5459 10.1699C34.3613 10.3545 34.2485 10.604 34.2075 10.9185H36.1011ZM39.1943 12.959C39.0986 12.9977 39.0041 13.0262 38.9106 13.0444C38.8195 13.0649 38.7158 13.0752 38.5996 13.0752C38.3216 13.0752 38.1029 12.9943 37.9434 12.8325C37.7861 12.6685 37.7075 12.4269 37.7075 12.1079V9.97852H37.106V9.5H37.7075V8.64551L38.2681 8.46436V9.5H39.1499V9.97852H38.2681V12.043C38.2681 12.2435 38.3034 12.3882 38.374 12.4771C38.4469 12.5659 38.5552 12.6104 38.6987 12.6104C38.7671 12.6104 38.8332 12.6024 38.897 12.5864C38.9608 12.5705 39.0143 12.5522 39.0576 12.5317L39.1943 12.959ZM41.3613 13.082C40.8441 13.082 40.4305 12.9191 40.1206 12.5933C39.813 12.2651 39.6592 11.8311 39.6592 11.291C39.6592 10.7054 39.8187 10.2474 40.1377 9.91699C40.4567 9.58659 40.8919 9.42025 41.4434 9.41797C41.9652 9.41569 42.3719 9.57633 42.6636 9.8999C42.9575 10.2235 43.1045 10.6689 43.1045 11.2363C43.1045 11.7969 42.9461 12.2446 42.6294 12.5796C42.3149 12.9146 41.8923 13.082 41.3613 13.082ZM41.4023 12.6104C41.7646 12.6104 42.0426 12.493 42.2363 12.2583C42.4323 12.0213 42.5303 11.6875 42.5303 11.2568C42.5303 10.8171 42.4323 10.4798 42.2363 10.2451C42.0404 10.0081 41.7624 9.88965 41.4023 9.88965C41.0423 9.88965 40.7575 10.0127 40.5479 10.2588C40.3382 10.5049 40.2334 10.8421 40.2334 11.2705C40.2334 11.6852 40.3394 12.0122 40.5513 12.2515C40.7632 12.4907 41.0469 12.6104 41.4023 12.6104ZM42.0107 8.83691C41.9196 8.83691 41.841 8.80501 41.7749 8.74121C41.7088 8.67741 41.6758 8.59652 41.6758 8.49854C41.6758 8.40283 41.7077 8.32308 41.7715 8.25928C41.8353 8.19548 41.9128 8.16357 42.0039 8.16357C42.0996 8.16357 42.1805 8.19661 42.2466 8.2627C42.3127 8.3265 42.3457 8.40511 42.3457 8.49854C42.3457 8.59196 42.3138 8.67171 42.25 8.73779C42.1862 8.80387 42.1064 8.83691 42.0107 8.83691ZM40.6982 8.83691C40.6025 8.83691 40.5205 8.80387 40.4521 8.73779C40.3861 8.66943 40.353 8.58968 40.353 8.49854C40.353 8.40283 40.3849 8.32308 40.4487 8.25928C40.5148 8.19548 40.5946 8.16357 40.688 8.16357C40.7814 8.16357 40.8623 8.19661 40.9307 8.2627C40.999 8.3265 41.0332 8.40511 41.0332 8.49854C41.0332 8.59196 41.0002 8.67171 40.9341 8.73779C40.868 8.80387 40.7894 8.83691 40.6982 8.83691ZM44 13V7.81836H44.5605V13H44ZM47.3633 12.959C47.2676 12.9977 47.173 13.0262 47.0796 13.0444C46.9884 13.0649 46.8848 13.0752 46.7686 13.0752C46.4906 13.0752 46.2718 12.9943 46.1123 12.8325C45.9551 12.6685 45.8765 12.4269 45.8765 12.1079V9.97852H45.2749V9.5H45.8765V8.64551L46.437 8.46436V9.5H47.3188V9.97852H46.437V12.043C46.437 12.2435 46.4723 12.3882 46.543 12.4771C46.6159 12.5659 46.7241 12.6104 46.8677 12.6104C46.936 12.6104 47.0021 12.6024 47.0659 12.5864C47.1297 12.5705 47.1833 12.5522 47.2266 12.5317L47.3633 12.959ZM50.8804 11.3765H48.4058C48.4149 11.7707 48.5186 12.0749 48.7168 12.2891C48.9173 12.501 49.1976 12.6069 49.5576 12.6069C49.7148 12.6069 49.8721 12.5841 50.0293 12.5386C50.1888 12.4907 50.346 12.4155 50.501 12.313L50.7607 12.7129C50.5625 12.8405 50.3643 12.9339 50.166 12.9932C49.9678 13.0524 49.7502 13.082 49.5132 13.082C48.9845 13.082 48.5721 12.9248 48.2759 12.6104C47.9797 12.2959 47.8304 11.8573 47.8281 11.2944C47.8258 10.7316 47.974 10.2782 48.2725 9.93408C48.5732 9.59001 48.9629 9.41797 49.4414 9.41797C49.8971 9.41797 50.2503 9.56722 50.501 9.86572C50.7539 10.1619 50.8804 10.5732 50.8804 11.0996V11.3765ZM50.3062 10.9185C50.3039 10.5949 50.2253 10.3431 50.0703 10.1631C49.9154 9.98079 49.7023 9.88965 49.4312 9.88965C49.1646 9.88965 48.9378 9.98307 48.751 10.1699C48.5664 10.3545 48.4536 10.604 48.4126 10.9185H50.3062ZM49.4312 8.83691H48.9971L49.7593 7.71582H50.3267L49.4312 8.83691ZM51.4033 12.7368L51.6699 12.3062C51.8226 12.4064 51.9718 12.4827 52.1177 12.5352C52.2635 12.5853 52.4207 12.6104 52.5894 12.6104C52.8286 12.6104 53.0098 12.5659 53.1328 12.4771C53.2581 12.3882 53.3208 12.2549 53.3208 12.0771C53.3208 11.9336 53.265 11.8128 53.1533 11.7148C53.0439 11.6146 52.8719 11.5348 52.6372 11.4756C52.1997 11.3639 51.9001 11.2238 51.7383 11.0552C51.5765 10.8843 51.4956 10.6746 51.4956 10.4263C51.4956 10.1392 51.6038 9.8999 51.8203 9.7085C52.0368 9.51481 52.3387 9.41797 52.7261 9.41797C52.9129 9.41797 53.0907 9.44189 53.2593 9.48975C53.4279 9.5376 53.5999 9.61963 53.7754 9.73584L53.5259 10.1597C53.3664 10.0594 53.2228 9.98991 53.0952 9.95117C52.9699 9.91016 52.8423 9.88965 52.7124 9.88965C52.4868 9.88965 52.3148 9.9318 52.1963 10.0161C52.0778 10.0981 52.0186 10.2178 52.0186 10.375C52.0186 10.5322 52.0789 10.6507 52.1997 10.7305C52.3228 10.8102 52.5199 10.8854 52.791 10.9561C53.1465 11.0518 53.4119 11.1862 53.5874 11.3594C53.7651 11.5303 53.854 11.7547 53.854 12.0327C53.854 12.3563 53.7389 12.6126 53.5088 12.8018C53.2809 12.9886 52.9676 13.082 52.5688 13.082C52.3547 13.082 52.1484 13.0524 51.9502 12.9932C51.7542 12.9339 51.5719 12.8485 51.4033 12.7368ZM59.104 13H58.5435V12.4531H58.5298C58.409 12.6628 58.2598 12.82 58.082 12.9248C57.9066 13.0296 57.7015 13.082 57.4668 13.082C57.1387 13.082 56.8732 12.9863 56.6704 12.7949C56.4676 12.6035 56.3662 12.3494 56.3662 12.0327C56.3662 11.7342 56.4688 11.487 56.6738 11.291C56.8789 11.0951 57.1694 10.9697 57.5454 10.915L58.5435 10.7817V10.7031C58.5435 10.4092 58.4751 10.2007 58.3384 10.0776C58.2017 9.95231 58.0194 9.88965 57.7915 9.88965C57.6092 9.88965 57.4338 9.92383 57.2651 9.99219C57.0965 10.0605 56.9382 10.1654 56.79 10.3066L56.4619 9.96826C56.6579 9.77913 56.8664 9.64014 57.0874 9.55127C57.3084 9.4624 57.5545 9.41797 57.8257 9.41797C58.2495 9.41797 58.5685 9.52734 58.7827 9.74609C58.9969 9.96257 59.104 10.2884 59.104 10.7236V13ZM58.5435 11.5781V11.2295L57.6992 11.3457C57.4417 11.3822 57.248 11.4471 57.1182 11.5405C56.9883 11.634 56.9233 11.7809 56.9233 11.9814C56.9233 12.1911 56.9837 12.3517 57.1045 12.4634C57.2275 12.5728 57.3768 12.6274 57.5522 12.6274C57.8553 12.6274 58.0957 12.5283 58.2734 12.3301C58.4535 12.1318 58.5435 11.8812 58.5435 11.5781Z" fill="black" fill-opacity="0.6063"/>
<path d="M39.2275 25H37.96V20.0854C37.96 19.8634 37.9653 19.6217 37.9761 19.3604C37.9904 19.0954 38.0083 18.8143 38.0298 18.5171H37.9976C37.9546 18.7212 37.9134 18.8966 37.874 19.0435C37.8382 19.1867 37.8024 19.3013 37.7666 19.3872L35.5054 25H34.6245L32.3525 19.4355C32.3239 19.3568 32.2881 19.2404 32.2451 19.0864C32.2057 18.9325 32.1628 18.7427 32.1162 18.5171H32.084C32.1055 18.7749 32.1198 19.0488 32.127 19.3389C32.1341 19.6253 32.1377 19.9279 32.1377 20.2466V25H30.9561V17.2979H32.7607L34.7642 22.3037C34.8429 22.4935 34.9074 22.6689 34.9575 22.8301C35.0112 22.9876 35.0524 23.1344 35.0811 23.2705H35.1133C35.1777 23.0664 35.2386 22.882 35.2959 22.7173C35.3532 22.5526 35.4069 22.4093 35.457 22.2876L37.4873 17.2979H39.2275V25ZM41.6177 18.4365C41.3885 18.4365 41.1987 18.3631 41.0483 18.2163C40.8979 18.0695 40.8228 17.8887 40.8228 17.6738C40.8228 17.4518 40.8979 17.2692 41.0483 17.126C41.1987 16.9827 41.3885 16.9111 41.6177 16.9111C41.8504 16.9111 42.042 16.9827 42.1924 17.126C42.3428 17.2692 42.418 17.4518 42.418 17.6738C42.418 17.8923 42.3428 18.0749 42.1924 18.2217C42.042 18.3649 41.8504 18.4365 41.6177 18.4365ZM42.2354 25H40.9839V19.5H42.2354V25ZM47.9824 24.6616C47.7103 24.8263 47.4399 24.9445 47.1714 25.0161C46.9028 25.0913 46.611 25.1289 46.2959 25.1289C45.4508 25.1289 44.7741 24.8818 44.2656 24.3877C43.7607 23.8936 43.5083 23.2222 43.5083 22.3735C43.5083 21.4604 43.7697 20.7318 44.2925 20.1875C44.8188 19.6432 45.5278 19.3711 46.4194 19.3711C46.731 19.3711 47.0138 19.4051 47.2681 19.4731C47.5259 19.5376 47.7873 19.645 48.0522 19.7954L47.5635 20.6655C47.3773 20.5617 47.1947 20.4865 47.0156 20.4399C46.8366 20.3898 46.6414 20.3647 46.4302 20.3647C45.9038 20.3647 45.4974 20.5384 45.2109 20.8857C44.9245 21.2331 44.7812 21.6932 44.7812 22.2661C44.7812 22.8677 44.9352 23.3296 45.2432 23.6519C45.5547 23.9741 45.945 24.1353 46.4141 24.1353C46.5573 24.1353 46.722 24.1102 46.9082 24.0601C47.0944 24.0063 47.2824 23.9222 47.4722 23.8076L47.9824 24.6616ZM52.1021 20.5474C52.034 20.5295 51.9678 20.5169 51.9033 20.5098C51.8424 20.499 51.7708 20.4937 51.6885 20.4937C51.2409 20.4937 50.8971 20.6584 50.6572 20.9878C50.4173 21.3172 50.2974 21.7469 50.2974 22.2769V25H49.0459V19.5H50.2974V20.5581H50.3188C50.4478 20.1785 50.6375 19.8921 50.8882 19.6987C51.1388 19.5018 51.4342 19.4033 51.7744 19.4033C51.8711 19.4033 51.957 19.4087 52.0322 19.4194C52.111 19.4302 52.1862 19.4463 52.2578 19.4678L52.1021 20.5474ZM55.5557 25.1289C54.6963 25.1289 54.0142 24.8729 53.5093 24.3608C53.008 23.8452 52.7573 23.1559 52.7573 22.293C52.7609 21.3799 53.0223 20.6655 53.5415 20.1499C54.0607 19.6307 54.7679 19.3711 55.6631 19.3711C56.526 19.3675 57.1992 19.6217 57.6826 20.1338C58.1696 20.6423 58.4131 21.3315 58.4131 22.2017C58.4131 23.0968 58.1553 23.8094 57.6396 24.3394C57.1276 24.8657 56.4329 25.1289 55.5557 25.1289ZM55.6147 24.1353C56.1125 24.1353 56.4902 23.9723 56.748 23.6465C57.0094 23.3206 57.1401 22.8498 57.1401 22.2339C57.1401 21.6252 57.0094 21.1615 56.748 20.8428C56.4867 20.5241 56.1071 20.3647 55.6094 20.3647C55.1188 20.3647 54.7321 20.533 54.4492 20.8696C54.1699 21.2062 54.0303 21.6717 54.0303 22.2661C54.0303 22.8641 54.1699 23.326 54.4492 23.6519C54.7285 23.9741 55.117 24.1353 55.6147 24.1353ZM59.1543 24.5596L59.6968 23.6787C59.9116 23.8291 60.139 23.9508 60.3789 24.0439C60.6224 24.1335 60.8856 24.1782 61.1685 24.1782C61.4764 24.1782 61.7145 24.1227 61.8828 24.0117C62.0547 23.8971 62.1406 23.7271 62.1406 23.5015C62.1406 23.3224 62.069 23.1738 61.9258 23.0557C61.7861 22.9339 61.5462 22.8337 61.2061 22.7549C60.5186 22.5938 60.0352 22.3807 59.7559 22.1157C59.4801 21.8507 59.3423 21.5016 59.3423 21.0684C59.3423 20.5706 59.5356 20.1642 59.9224 19.8491C60.3091 19.5304 60.8158 19.3711 61.4424 19.3711C61.7539 19.3711 62.0511 19.4123 62.334 19.4946C62.6169 19.5734 62.8926 19.7005 63.1611 19.876L62.6562 20.7354C62.4199 20.585 62.2033 20.4775 62.0063 20.4131C61.8094 20.3486 61.6071 20.3164 61.3994 20.3164C61.1058 20.3164 60.8766 20.3719 60.7119 20.4829C60.5508 20.5903 60.4702 20.7407 60.4702 20.9341C60.4702 21.1382 60.5526 21.2904 60.7173 21.3906C60.8856 21.4873 61.1667 21.5822 61.5605 21.6753C62.1549 21.8185 62.59 22.0262 62.8657 22.2983C63.1414 22.5669 63.2793 22.9268 63.2793 23.3779C63.2793 23.9115 63.0841 24.3376 62.6938 24.6562C62.3071 24.9714 61.7826 25.1289 61.1201 25.1289C60.762 25.1289 60.4183 25.0824 60.0889 24.9893C59.763 24.8926 59.4515 24.7493 59.1543 24.5596ZM66.8779 25.1289C66.0186 25.1289 65.3364 24.8729 64.8315 24.3608C64.3302 23.8452 64.0796 23.1559 64.0796 22.293C64.0832 21.3799 64.3446 20.6655 64.8638 20.1499C65.383 19.6307 66.0902 19.3711 66.9854 19.3711C67.8483 19.3675 68.5215 19.6217 69.0049 20.1338C69.4919 20.6423 69.7354 21.3315 69.7354 22.2017C69.7354 23.0968 69.4775 23.8094 68.9619 24.3394C68.4499 24.8657 67.7552 25.1289 66.8779 25.1289ZM66.937 24.1353C67.4347 24.1353 67.8125 23.9723 68.0703 23.6465C68.3317 23.3206 68.4624 22.8498 68.4624 22.2339C68.4624 21.6252 68.3317 21.1615 68.0703 20.8428C67.8089 20.5241 67.4294 20.3647 66.9316 20.3647C66.4411 20.3647 66.0544 20.533 65.7715 20.8696C65.4922 21.2062 65.3525 21.6717 65.3525 22.2661C65.3525 22.8641 65.4922 23.326 65.7715 23.6519C66.0508 23.9741 66.4393 24.1353 66.937 24.1353ZM73.9839 17.8403C73.8836 17.8009 73.7923 17.7741 73.71 17.7598C73.6276 17.7419 73.5381 17.7329 73.4414 17.7329C73.1764 17.7329 72.9759 17.8099 72.8398 17.9639C72.7074 18.1143 72.6411 18.3327 72.6411 18.6191V19.5H73.9141V20.4775H72.6411V25H71.395V20.4775H70.4604V19.5H71.395V18.5547C71.395 17.9961 71.5741 17.5539 71.9321 17.228C72.2938 16.8986 72.7718 16.7339 73.3662 16.7339C73.5524 16.7339 73.7135 16.7464 73.8496 16.7715C73.9857 16.7965 74.1271 16.8324 74.2739 16.8789L73.9839 17.8403ZM77.7974 24.9248C77.6362 24.9928 77.4679 25.043 77.2925 25.0752C77.117 25.1074 76.929 25.1235 76.7285 25.1235C76.2201 25.1235 75.828 24.9893 75.5522 24.7207C75.2801 24.4486 75.144 24.0439 75.144 23.5068V20.4775H74.2202V19.5H75.144V18.1626L76.3901 17.7866V19.5H77.7061V20.4775H76.3901V23.4048C76.3901 23.6733 76.4385 23.8667 76.5352 23.9849C76.6354 24.103 76.7894 24.1621 76.9971 24.1621C77.0973 24.1621 77.1922 24.1514 77.2817 24.1299C77.3748 24.1048 77.4572 24.0744 77.5288 24.0386L77.7974 24.9248ZM81.2939 24.4468L81.8633 23.4639C82.2106 23.6787 82.5347 23.8309 82.8354 23.9204C83.1362 24.0063 83.4728 24.0493 83.8452 24.0493C84.2892 24.0493 84.6383 23.9544 84.8926 23.7646C85.1504 23.5713 85.2793 23.2956 85.2793 22.9375C85.2793 22.6117 85.1719 22.3556 84.957 22.1694C84.7458 21.9797 84.3859 21.806 83.8774 21.6484C83.0933 21.4157 82.5168 21.1274 82.1479 20.7837C81.7791 20.4399 81.5947 19.9744 81.5947 19.3872C81.5947 18.7498 81.8328 18.2217 82.3091 17.8027C82.7853 17.3802 83.4316 17.1689 84.248 17.1689C84.6061 17.1689 84.9588 17.2083 85.3062 17.2871C85.6535 17.3659 85.9972 17.4876 86.3374 17.6523L85.8594 18.6729C85.5622 18.5189 85.2775 18.4097 85.0054 18.3452C84.7368 18.2808 84.4629 18.2485 84.1836 18.2485C83.7754 18.2485 83.4531 18.3381 83.2168 18.5171C82.984 18.6961 82.8677 18.9486 82.8677 19.2744C82.8677 19.5645 82.9751 19.7936 83.1899 19.9619C83.4048 20.1266 83.7736 20.2896 84.2964 20.4507C85.0985 20.6906 85.675 20.9896 86.0259 21.3477C86.3804 21.7057 86.5576 22.1981 86.5576 22.8247C86.5576 23.4979 86.3177 24.0511 85.8379 24.4844C85.3581 24.9141 84.6742 25.1289 83.7861 25.1289C83.3421 25.1289 82.9089 25.0734 82.4863 24.9624C82.0638 24.8478 81.6663 24.6759 81.2939 24.4468ZM90.4409 24.9248C90.2798 24.9928 90.1115 25.043 89.936 25.0752C89.7606 25.1074 89.5726 25.1235 89.3721 25.1235C88.8636 25.1235 88.4715 24.9893 88.1958 24.7207C87.9237 24.4486 87.7876 24.0439 87.7876 23.5068V20.4775H86.8638V19.5H87.7876V18.1626L89.0337 17.7866V19.5H90.3496V20.4775H89.0337V23.4048C89.0337 23.6733 89.082 23.8667 89.1787 23.9849C89.279 24.103 89.4329 24.1621 89.6406 24.1621C89.7409 24.1621 89.8358 24.1514 89.9253 24.1299C90.0184 24.1048 90.1007 24.0744 90.1724 24.0386L90.4409 24.9248ZM93.8623 25.1289C93.0029 25.1289 92.3208 24.8729 91.8159 24.3608C91.3146 23.8452 91.064 23.1559 91.064 22.293C91.0675 21.3799 91.3289 20.6655 91.8481 20.1499C92.3674 19.6307 93.0745 19.3711 93.9697 19.3711C94.8327 19.3675 95.5059 19.6217 95.9893 20.1338C96.4762 20.6423 96.7197 21.3315 96.7197 22.2017C96.7197 23.0968 96.4619 23.8094 95.9463 24.3394C95.4342 24.8657 94.7396 25.1289 93.8623 25.1289ZM93.9214 24.1353C94.4191 24.1353 94.7969 23.9723 95.0547 23.6465C95.3161 23.3206 95.4468 22.8498 95.4468 22.2339C95.4468 21.6252 95.3161 21.1615 95.0547 20.8428C94.7933 20.5241 94.4137 20.3647 93.916 20.3647C93.4255 20.3647 93.0387 20.533 92.7559 20.8696C92.4766 21.2062 92.3369 21.6717 92.3369 22.2661C92.3369 22.8641 92.4766 23.326 92.7559 23.6519C93.0352 23.9741 93.4237 24.1353 93.9214 24.1353ZM101.054 20.5474C100.986 20.5295 100.92 20.5169 100.855 20.5098C100.795 20.499 100.723 20.4937 100.641 20.4937C100.193 20.4937 99.8493 20.6584 99.6094 20.9878C99.3695 21.3172 99.2495 21.7469 99.2495 22.2769V25H97.998V19.5H99.2495V20.5581H99.271C99.3999 20.1785 99.5897 19.8921 99.8403 19.6987C100.091 19.5018 100.386 19.4033 100.727 19.4033C100.823 19.4033 100.909 19.4087 100.984 19.4194C101.063 19.4302 101.138 19.4463 101.21 19.4678L101.054 20.5474ZM106.721 22.5776H102.966C102.988 23.0968 103.138 23.4925 103.417 23.7646C103.697 24.0332 104.087 24.1675 104.588 24.1675C104.792 24.1675 105.025 24.1263 105.287 24.0439C105.548 23.9616 105.806 23.8291 106.06 23.6465L106.624 24.4253C106.284 24.6724 105.938 24.8514 105.587 24.9624C105.236 25.0734 104.85 25.1289 104.427 25.1289C103.571 25.1289 102.905 24.8836 102.429 24.3931C101.953 23.8989 101.713 23.2096 101.709 22.3252C101.709 21.4443 101.955 20.7318 102.445 20.1875C102.939 19.6432 103.571 19.3711 104.341 19.3711C105.079 19.3711 105.659 19.6038 106.082 20.0693C106.508 20.5312 106.721 21.1865 106.721 22.0352V22.5776ZM105.512 21.7129C105.512 21.2402 105.408 20.8857 105.201 20.6494C104.997 20.4095 104.707 20.2896 104.331 20.2896C103.976 20.2896 103.674 20.4185 103.423 20.6763C103.176 20.9305 103.024 21.276 102.966 21.7129H105.512Z" fill="black" fill-opacity="0.8956"/>
<path d="M107.589 23.2705V22.8296H109.455V23.2705H107.589ZM111.041 24.5488H111.027V25H110.467V19.8184H111.027V22.1152H111.041C111.18 21.8828 111.35 21.7085 111.55 21.5923C111.753 21.4761 111.987 21.418 112.251 21.418C112.7 21.418 113.051 21.5752 113.304 21.8896C113.559 22.2018 113.687 22.6211 113.687 23.1475C113.687 23.7331 113.544 24.2025 113.259 24.5557C112.974 24.9066 112.585 25.082 112.09 25.082C111.86 25.082 111.657 25.0376 111.482 24.9487C111.306 24.8599 111.16 24.7266 111.041 24.5488ZM111.027 23.0825V23.5713C111.027 23.8607 111.121 24.1068 111.308 24.3096C111.497 24.5101 111.736 24.6104 112.025 24.6104C112.365 24.6104 112.63 24.4805 112.822 24.2207C113.015 23.9609 113.112 23.5998 113.112 23.1372C113.112 22.7476 113.022 22.4422 112.842 22.2212C112.662 22.0002 112.418 21.8896 112.111 21.8896C111.785 21.8896 111.523 22.0036 111.325 22.2314C111.126 22.457 111.027 22.7407 111.027 23.0825ZM116.045 25.082C115.528 25.082 115.114 24.9191 114.804 24.5933C114.497 24.2651 114.343 23.8311 114.343 23.291C114.343 22.7054 114.502 22.2474 114.821 21.917C115.14 21.5866 115.576 21.4202 116.127 21.418C116.649 21.4157 117.056 21.5763 117.347 21.8999C117.641 22.2235 117.788 22.6689 117.788 23.2363C117.788 23.7969 117.63 24.2446 117.313 24.5796C116.999 24.9146 116.576 25.082 116.045 25.082ZM116.086 24.6104C116.448 24.6104 116.726 24.493 116.92 24.2583C117.116 24.0213 117.214 23.6875 117.214 23.2568C117.214 22.8171 117.116 22.4798 116.92 22.2451C116.724 22.0081 116.446 21.8896 116.086 21.8896C115.726 21.8896 115.441 22.0127 115.231 22.2588C115.022 22.5049 114.917 22.8421 114.917 23.2705C114.917 23.6852 115.023 24.0122 115.235 24.2515C115.447 24.4907 115.73 24.6104 116.086 24.6104ZM116.069 20.8369H115.635L116.397 19.7158H116.964L116.069 20.8369ZM118.684 25V19.8184H119.244V25H118.684Z" fill="black" fill-opacity="0.6063"/>
<defs>
<filter id="filter0_dd_974_1801" x="11.0938" y="7.25" width="11.8125" height="5.625" filterUnits="userSpaceOnUse" color-interpolation-filters="sRGB">
<feFlood flood-opacity="0" result="BackgroundImageFix"/>
<feColorMatrix in="SourceAlpha" type="matrix" values="0 0 0 0 0 0 0 0 0 0 0 0 0 0 0 0 0 0 127 0" result="hardAlpha"/>
<feOffset dy="0.1875"/>
<feGaussianBlur stdDeviation="0.1875"/>
<feColorMatrix type="matrix" values="0 0 0 0 0 0 0 0 0 0 0 0 0 0 0 0 0 0 0.1 0"/>
<feBlend mode="normal" in2="BackgroundImageFix" result="effect1_dropShadow_974_1801"/>
<feColorMatrix in="SourceAlpha" type="matrix" values="0 0 0 0 0 0 0 0 0 0 0 0 0 0 0 0 0 0 127 0" result="hardAlpha"/>
<feOffset dy="0.375"/>
<feGaussianBlur stdDeviation="0.5625"/>
<feColorMatrix type="matrix" values="0 0 0 0 0 0 0 0 0 0 0 0 0 0 0 0 0 0 0.2 0"/>
<feBlend mode="normal" in2="effect1_dropShadow_974_1801" result="effect2_dropShadow_974_1801"/>
<feBlend mode="normal" in="SourceGraphic" in2="effect2_dropShadow_974_1801" result="shape"/>
</filter>
<filter id="filter1_dd_974_1801" x="12.2188" y="13.4375" width="9.5625" height="9.5625" filterUnits="userSpaceOnUse" color-interpolation-filters="sRGB">
<feFlood flood-opacity="0" result="BackgroundImageFix"/>
<feColorMatrix in="SourceAlpha" type="matrix" values="0 0 0 0 0 0 0 0 0 0 0 0 0 0 0 0 0 0 127 0" result="hardAlpha"/>
<feOffset dy="0.1875"/>
<feGaussianBlur stdDeviation="0.1875"/>
<feColorMatrix type="matrix" values="0 0 0 0 0 0 0 0 0 0 0 0 0 0 0 0 0 0 0.1 0"/>
<feBlend mode="normal" in2="BackgroundImageFix" result="effect1_dropShadow_974_1801"/>
<feColorMatrix in="SourceAlpha" type="matrix" values="0 0 0 0 0 0 0 0 0 0 0 0 0 0 0 0 0 0 127 0" result="hardAlpha"/>
<feOffset dy="0.375"/>
<feGaussianBlur stdDeviation="0.5625"/>
<feColorMatrix type="matrix" values="0 0 0 0 0 0 0 0 0 0 0 0 0 0 0 0 0 0 0.2 0"/>
<feBlend mode="normal" in2="effect1_dropShadow_974_1801" result="effect2_dropShadow_974_1801"/>
<feBlend mode="normal" in="SourceGraphic" in2="effect2_dropShadow_974_1801" result="shape"/>
</filter>
<filter id="filter2_dd_974_1801" x="10.5939" y="6.6875" width="12.8124" height="5.06274" filterUnits="userSpaceOnUse" color-interpolation-filters="sRGB">
<feFlood flood-opacity="0" result="BackgroundImageFix"/>
<feColorMatrix in="SourceAlpha" type="matrix" values="0 0 0 0 0 0 0 0 0 0 0 0 0 0 0 0 0 0 127 0" result="hardAlpha"/>
<feOffset dy="-0.75"/>
<feGaussianBlur stdDeviation="0.1875"/>
<feColorMatrix type="matrix" values="0 0 0 0 0 0 0 0 0 0 0 0 0 0 0 0 0 0 0.1 0"/>
<feBlend mode="normal" in2="BackgroundImageFix" result="effect1_dropShadow_974_1801"/>
<feColorMatrix in="SourceAlpha" type="matrix" values="0 0 0 0 0 0 0 0 0 0 0 0 0 0 0 0 0 0 127 0" result="hardAlpha"/>
<feOffset dy="-0.75"/>
<feGaussianBlur stdDeviation="0.5625"/>
<feColorMatrix type="matrix" values="0 0 0 0 0 0 0 0 0 0 0 0 0 0 0 0 0 0 0.2 0"/>
<feBlend mode="normal" in2="effect1_dropShadow_974_1801" result="effect2_dropShadow_974_1801"/>
<feBlend mode="normal" in="SourceGraphic" in2="effect2_dropShadow_974_1801" result="shape"/>
</filter>
<linearGradient id="paint0_linear_974_1801" x1="17" y1="10.25" x2="20.3514" y2="25.9624" gradientUnits="userSpaceOnUse">
<stop stop-color="#0669BC"/>
<stop offset="1" stop-color="#243A5F"/>
</linearGradient>
<linearGradient id="paint1_linear_974_1801" x1="17" y1="10.25" x2="20.3514" y2="25.9624" gradientUnits="userSpaceOnUse">
<stop stop-color="#0078D4"/>
<stop offset="1" stop-color="#114A8B"/>
</linearGradient>
<linearGradient id="paint2_linear_974_1801" x1="17" y1="8.5625" x2="17.1583" y2="10.9858" gradientUnits="userSpaceOnUse">
<stop stop-color="#28AFEA"/>
<stop offset="1" stop-color="#0078D4"/>
</linearGradient>
<linearGradient id="paint3_linear_974_1801" x1="17" y1="8.5625" x2="17.1583" y2="10.9858" gradientUnits="userSpaceOnUse">
<stop stop-color="#30DAFF"/>
<stop offset="1" stop-color="#0094D4"/>
</linearGradient>
<linearGradient id="paint4_linear_974_1801" x1="16.5938" y1="8" x2="16.5937" y2="9.125" gradientUnits="userSpaceOnUse">
<stop stop-color="#22BCFF"/>
<stop offset="1" stop-color="#0088F0"/>
</linearGradient>
<linearGradient id="paint5_linear_974_1801" x1="16.5938" y1="8" x2="16.5937" y2="9.125" gradientUnits="userSpaceOnUse">
<stop stop-color="#28AFEA"/>
<stop offset="1" stop-color="#3CCBF4"/>
</linearGradient>
<clipPath id="clip0_974_1801">
<rect width="18" height="18" fill="white" transform="translate(8 8)"/>
</clipPath>
<clipPath id="clip1_974_1801">
<rect width="18" height="18" fill="white" transform="translate(8 8)"/>
</clipPath>
</defs>
</svg>
