<svg width="107" height="32" viewBox="0 0 107 32" fill="none" xmlns="http://www.w3.org/2000/svg">
<rect x="0.5" y="0.5" width="106" height="31" rx="3.5" fill="white" fill-opacity="0.7"/>
<path d="M15.5559 7H7V15.5608H15.5559V7Z" fill="#F25022"/>
<path d="M25.0001 7H16.4442V15.5608H25.0001V7Z" fill="#7FBA00"/>
<path d="M15.5559 16.4395H7V25.0002H15.5559V16.4395Z" fill="#00A4EF"/>
<path d="M25.0002 16.4395H16.4443V25.0002H25.0002V16.4395Z" fill="#FFB900"/>
<path d="M29.7656 13V7.39844H31.4023C31.8997 7.39844 32.2917 7.51432 32.5781 7.74609C32.8672 7.97526 33.0117 8.28906 33.0117 8.6875C33.0117 9.0026 32.9258 9.27734 32.7539 9.51172C32.582 9.74349 32.3451 9.90885 32.043 10.0078V10.0234C32.4206 10.0677 32.7214 10.2109 32.9453 10.4531C33.1719 10.6927 33.2852 11.0039 33.2852 11.3867C33.2852 11.8685 33.112 12.2578 32.7656 12.5547C32.4193 12.8516 31.9792 13 31.4453 13H29.7656ZM30.4766 8.02344V9.78906H31.1406C31.4896 9.78906 31.7643 9.70573 31.9648 9.53906C32.1654 9.36979 32.2656 9.13281 32.2656 8.82812C32.2656 8.55729 32.1771 8.35547 32 8.22266C31.8229 8.08984 31.5586 8.02344 31.207 8.02344H30.4766ZM30.4766 10.4141V12.375H31.3477C31.7253 12.375 32.0169 12.2865 32.2227 12.1094C32.431 11.9297 32.5352 11.6849 32.5352 11.375C32.5352 11.0573 32.4258 10.8177 32.207 10.6562C31.9883 10.4948 31.6615 10.4141 31.2266 10.4141H30.4766ZM37.7188 11.1094H34.8359C34.849 11.5625 34.9701 11.9115 35.1992 12.1562C35.4284 12.3984 35.75 12.5195 36.1641 12.5195C36.3438 12.5195 36.5273 12.4922 36.7148 12.4375C36.9049 12.3802 37.0951 12.2878 37.2852 12.1602L37.6016 12.6445C37.3646 12.8008 37.1263 12.9154 36.8867 12.9883C36.6471 13.0612 36.3841 13.0977 36.0977 13.0977C35.4779 13.0977 34.9948 12.9141 34.6484 12.5469C34.3021 12.1771 34.1276 11.6615 34.125 11C34.1224 10.3411 34.2969 9.8112 34.6484 9.41016C35.0026 9.00651 35.4609 8.80469 36.0234 8.80469C36.5599 8.80469 36.9766 8.97917 37.2734 9.32812C37.5703 9.67448 37.7188 10.1576 37.7188 10.7773V11.1094ZM37.0195 10.5625C37.0169 10.1849 36.9258 9.89193 36.7461 9.68359C36.569 9.47526 36.3242 9.37109 36.0117 9.37109C35.7044 9.37109 35.444 9.47917 35.2305 9.69531C35.0195 9.90885 34.8906 10.1979 34.8438 10.5625H37.0195ZM38.3828 12.6953L38.707 12.1719C38.8789 12.2865 39.0495 12.3737 39.2188 12.4336C39.388 12.4935 39.5742 12.5234 39.7773 12.5234C40.0508 12.5234 40.2591 12.474 40.4023 12.375C40.5456 12.2734 40.6172 12.1224 40.6172 11.9219C40.6172 11.7552 40.5534 11.6172 40.4258 11.5078C40.3008 11.3958 40.1029 11.3047 39.832 11.2344C39.3242 11.1068 38.9753 10.944 38.7852 10.7461C38.5951 10.5456 38.5 10.2969 38.5 10C38.5 9.65625 38.6302 9.37109 38.8906 9.14453C39.1536 8.91797 39.5117 8.80469 39.9648 8.80469C40.1836 8.80469 40.3906 8.83333 40.5859 8.89062C40.7839 8.94531 40.9831 9.03776 41.1836 9.16797L40.8828 9.68359C40.7005 9.56901 40.5365 9.48958 40.3906 9.44531C40.2448 9.39844 40.0964 9.375 39.9453 9.375C39.6875 9.375 39.4896 9.42318 39.3516 9.51953C39.2135 9.61589 39.1445 9.75521 39.1445 9.9375C39.1445 10.1146 39.2122 10.25 39.3477 10.3438C39.4831 10.4349 39.7083 10.5208 40.0234 10.6016C40.4427 10.7135 40.7552 10.8698 40.9609 11.0703C41.1693 11.2682 41.2734 11.5326 41.2734 11.8633C41.2734 12.2409 41.1367 12.5417 40.8633 12.7656C40.5924 12.987 40.2227 13.0977 39.7539 13.0977C39.4987 13.0977 39.2552 13.0638 39.0234 12.9961C38.7943 12.9258 38.5807 12.8255 38.3828 12.6953ZM45.1914 9.125L42.793 12.418H45.168V13H41.7812V12.7734L44.1914 9.48438H42.0078V8.90234H45.1914V9.125ZM49.4141 11.1094H46.5312C46.5443 11.5625 46.6654 11.9115 46.8945 12.1562C47.1237 12.3984 47.4453 12.5195 47.8594 12.5195C48.0391 12.5195 48.2227 12.4922 48.4102 12.4375C48.6003 12.3802 48.7904 12.2878 48.9805 12.1602L49.2969 12.6445C49.0599 12.8008 48.8216 12.9154 48.582 12.9883C48.3424 13.0612 48.0794 13.0977 47.793 13.0977C47.1732 13.0977 46.6901 12.9141 46.3438 12.5469C45.9974 12.1771 45.8229 11.6615 45.8203 11C45.8177 10.3411 45.9922 9.8112 46.3438 9.41016C46.6979 9.00651 47.1562 8.80469 47.7188 8.80469C48.2552 8.80469 48.6719 8.97917 48.9688 9.32812C49.2656 9.67448 49.4141 10.1576 49.4141 10.7773V11.1094ZM48.7148 10.5625C48.7122 10.1849 48.6211 9.89193 48.4414 9.68359C48.2643 9.47526 48.0195 9.37109 47.707 9.37109C47.3997 9.37109 47.1393 9.47917 46.9258 9.69531C46.7148 9.90885 46.5859 10.1979 46.5391 10.5625H48.7148ZM52.5078 9.49609C52.4557 9.48047 52.4076 9.46875 52.3633 9.46094C52.319 9.45312 52.2656 9.44922 52.2031 9.44922C51.8724 9.44922 51.612 9.58984 51.4219 9.87109C51.2318 10.1497 51.1367 10.5026 51.1367 10.9297V13H50.4414V8.90234H51.1367V9.71484H51.1523C51.2461 9.42578 51.388 9.20703 51.5781 9.05859C51.7708 8.90755 51.9935 8.83203 52.2461 8.83203C52.3268 8.83203 52.3958 8.83594 52.4531 8.84375C52.513 8.85156 52.5677 8.86328 52.6172 8.87891L52.5078 9.49609ZM56.2852 9.125L53.8867 12.418H56.2617V13H52.875V12.7734L55.2852 9.48438H53.1016V8.90234H56.2852V9.125ZM60.5078 11.1094H57.625C57.638 11.5625 57.7591 11.9115 57.9883 12.1562C58.2174 12.3984 58.5391 12.5195 58.9531 12.5195C59.1328 12.5195 59.3164 12.4922 59.5039 12.4375C59.694 12.3802 59.8841 12.2878 60.0742 12.1602L60.3906 12.6445C60.1536 12.8008 59.9154 12.9154 59.6758 12.9883C59.4362 13.0612 59.1732 13.0977 58.8867 13.0977C58.2669 13.0977 57.7839 12.9141 57.4375 12.5469C57.0911 12.1771 56.9167 11.6615 56.9141 11C56.9115 10.3411 57.0859 9.8112 57.4375 9.41016C57.7917 9.00651 58.25 8.80469 58.8125 8.80469C59.349 8.80469 59.7656 8.97917 60.0625 9.32812C60.3594 9.67448 60.5078 10.1576 60.5078 10.7773V11.1094ZM59.8086 10.5625C59.806 10.1849 59.7148 9.89193 59.5352 9.68359C59.3581 9.47526 59.1133 9.37109 58.8008 9.37109C58.4935 9.37109 58.2331 9.47917 58.0195 9.69531C57.8086 9.90885 57.6797 10.1979 57.6328 10.5625H59.8086ZM58.7969 8.17188H58.2617L59.1484 6.89062H59.8398L58.7969 8.17188ZM61.1719 12.6953L61.4961 12.1719C61.668 12.2865 61.8385 12.3737 62.0078 12.4336C62.1771 12.4935 62.3633 12.5234 62.5664 12.5234C62.8398 12.5234 63.0482 12.474 63.1914 12.375C63.3346 12.2734 63.4062 12.1224 63.4062 11.9219C63.4062 11.7552 63.3424 11.6172 63.2148 11.5078C63.0898 11.3958 62.8919 11.3047 62.6211 11.2344C62.1133 11.1068 61.7643 10.944 61.5742 10.7461C61.3841 10.5456 61.2891 10.2969 61.2891 10C61.2891 9.65625 61.4193 9.37109 61.6797 9.14453C61.9427 8.91797 62.3008 8.80469 62.7539 8.80469C62.9727 8.80469 63.1797 8.83333 63.375 8.89062C63.5729 8.94531 63.7721 9.03776 63.9727 9.16797L63.6719 9.68359C63.4896 9.56901 63.3255 9.48958 63.1797 9.44531C63.0339 9.39844 62.8854 9.375 62.7344 9.375C62.4766 9.375 62.2786 9.42318 62.1406 9.51953C62.0026 9.61589 61.9336 9.75521 61.9336 9.9375C61.9336 10.1146 62.0013 10.25 62.1367 10.3438C62.2721 10.4349 62.4974 10.5208 62.8125 10.6016C63.2318 10.7135 63.5443 10.8698 63.75 11.0703C63.9583 11.2682 64.0625 11.5326 64.0625 11.8633C64.0625 12.2409 63.9258 12.5417 63.6523 12.7656C63.3815 12.987 63.0117 13.0977 62.543 13.0977C62.2878 13.0977 62.0443 13.0638 61.8125 12.9961C61.5833 12.9258 61.3698 12.8255 61.1719 12.6953ZM70.2266 13H69.5352V12.3555H69.5195C69.3789 12.6003 69.2044 12.7852 68.9961 12.9102C68.7878 13.0352 68.5456 13.0977 68.2695 13.0977C67.8841 13.0977 67.5729 12.9857 67.3359 12.7617C67.099 12.5378 66.9805 12.2422 66.9805 11.875C66.9805 11.5182 67.1003 11.2253 67.3398 10.9961C67.5794 10.7669 67.9245 10.6198 68.375 10.5547L69.5391 10.3984V10.3047C69.5391 9.97396 69.4596 9.73568 69.3008 9.58984C69.1445 9.44401 68.9336 9.37109 68.668 9.37109C68.457 9.37109 68.2513 9.41146 68.0508 9.49219C67.8503 9.57292 67.6602 9.69401 67.4805 9.85547L67.1016 9.43359C67.3333 9.22005 67.5807 9.0625 67.8438 8.96094C68.1094 8.85677 68.3997 8.80469 68.7148 8.80469C69.2148 8.80469 69.5911 8.93359 69.8438 9.19141C70.099 9.44922 70.2266 9.83594 70.2266 10.3516V13ZM69.5391 11.3281V10.9336L68.5625 11.0664C68.263 11.1081 68.0391 11.1836 67.8906 11.293C67.7422 11.4023 67.668 11.5742 67.668 11.8086C67.668 12.0404 67.737 12.2201 67.875 12.3477C68.0156 12.4753 68.1901 12.5391 68.3984 12.5391C68.7422 12.5391 69.0182 12.4258 69.2266 12.1992C69.4349 11.9701 69.5391 11.6797 69.5391 11.3281Z" fill="black" fill-opacity="0.8956"/>
<path d="M39.8989 25H38.4009V19.1094C38.4009 18.627 38.4305 18.0366 38.4897 17.3384H38.4644C38.3713 17.7362 38.2887 18.0218 38.2168 18.1953L35.5 25H34.459L31.7358 18.2461C31.6597 18.0472 31.5793 17.7446 31.4946 17.3384H31.4692C31.5031 17.7023 31.52 18.2969 31.52 19.1221V25H30.1235V15.8975H32.25L34.6431 21.9595C34.825 22.425 34.9435 22.772 34.9985 23.0005H35.0303C35.1868 22.5223 35.3138 22.1668 35.4111 21.9341L37.8486 15.8975H39.8989V25ZM42.5286 17.1353C42.2874 17.1353 42.0801 17.057 41.9066 16.9004C41.7373 16.7438 41.6527 16.5449 41.6527 16.3037C41.6527 16.0625 41.7373 15.8615 41.9066 15.7007C42.0801 15.5399 42.2874 15.4595 42.5286 15.4595C42.7783 15.4595 42.9899 15.5399 43.1634 15.7007C43.3369 15.8615 43.4237 16.0625 43.4237 16.3037C43.4237 16.5322 43.3369 16.729 43.1634 16.894C42.9899 17.0549 42.7783 17.1353 42.5286 17.1353ZM43.2586 25H41.786V18.5H43.2586V25ZM49.6461 24.7017C49.1256 25.0021 48.5099 25.1523 47.799 25.1523C46.8341 25.1523 46.0555 24.8519 45.463 24.251C44.8706 23.6458 44.5744 22.863 44.5744 21.9023C44.5744 20.8317 44.8917 19.9727 45.5265 19.3252C46.1655 18.6735 47.0182 18.3477 48.0846 18.3477C48.6771 18.3477 49.1997 18.4513 49.6525 18.6587V20.0298C49.1997 19.6912 48.7173 19.522 48.2052 19.522C47.5831 19.522 47.0732 19.7336 46.6754 20.1567C46.2776 20.5757 46.0787 21.1258 46.0787 21.8071C46.0787 22.48 46.2649 23.0111 46.6373 23.4004C47.014 23.7897 47.5176 23.9844 48.1481 23.9844C48.6771 23.9844 49.1764 23.7961 49.6461 23.4194V24.7017ZM54.688 19.9028C54.5102 19.7632 54.2542 19.6934 53.9199 19.6934C53.484 19.6934 53.1201 19.8901 52.8281 20.2837C52.5361 20.6772 52.3901 21.2126 52.3901 21.8896V25H50.9174V18.5H52.3901V19.8394H52.4155C52.5594 19.3823 52.7794 19.0269 53.0756 18.7729C53.3761 18.5148 53.7104 18.3857 54.0786 18.3857C54.3452 18.3857 54.5483 18.4259 54.688 18.5063V19.9028ZM58.3015 25.1523C57.2986 25.1523 56.4967 24.8498 55.8958 24.2446C55.2991 23.6353 55.0008 22.8291 55.0008 21.8262C55.0008 20.7344 55.3118 19.8817 55.9339 19.2681C56.5602 18.6545 57.4023 18.3477 58.4602 18.3477C59.4759 18.3477 60.2672 18.646 60.8343 19.2427C61.4013 19.8394 61.6848 20.6667 61.6848 21.7246C61.6848 22.7614 61.378 23.5929 60.7644 24.2192C60.1551 24.8413 59.3341 25.1523 58.3015 25.1523ZM58.3714 19.522C57.7958 19.522 57.3409 19.723 57.0066 20.125C56.6723 20.527 56.5052 21.0814 56.5052 21.7881C56.5052 22.4694 56.6744 23.0068 57.013 23.4004C57.3515 23.7897 57.8043 23.9844 58.3714 23.9844C58.9511 23.9844 59.3955 23.7918 59.7044 23.4067C60.0175 23.0216 60.1741 22.4736 60.1741 21.7627C60.1741 21.0475 60.0175 20.4953 59.7044 20.106C59.3955 19.7166 58.9511 19.522 58.3714 19.522ZM62.588 24.7969V23.4321C63.1381 23.8511 63.7454 24.0605 64.4098 24.0605C65.2984 24.0605 65.7428 23.7982 65.7428 23.2734C65.7428 23.1253 65.7047 23.0005 65.6285 22.8989C65.5523 22.7931 65.4487 22.7 65.3175 22.6196C65.1905 22.5392 65.0382 22.4673 64.8605 22.4038C64.6869 22.3403 64.4923 22.2684 64.2765 22.188C64.0099 22.0822 63.7687 21.9701 63.5528 21.8516C63.3412 21.7331 63.1635 21.5998 63.0196 21.4517C62.88 21.2993 62.7742 21.1279 62.7022 20.9375C62.6303 20.7471 62.5943 20.5249 62.5943 20.271C62.5943 19.9578 62.6684 19.6828 62.8165 19.4458C62.9646 19.2046 63.1635 19.0036 63.4132 18.8428C63.6629 18.6777 63.9464 18.555 64.2638 18.4746C64.5812 18.39 64.9091 18.3477 65.2477 18.3477C65.8486 18.3477 66.386 18.4386 66.86 18.6206V19.9092C66.4029 19.596 65.8782 19.4395 65.2857 19.4395C65.0995 19.4395 64.9303 19.4585 64.7779 19.4966C64.6298 19.5347 64.5029 19.5876 64.3971 19.6553C64.2913 19.723 64.2088 19.8055 64.1495 19.9028C64.0903 19.9959 64.0606 20.0996 64.0606 20.2139C64.0606 20.3535 64.0903 20.472 64.1495 20.5693C64.2088 20.6667 64.2955 20.7534 64.4098 20.8296C64.5283 20.9015 64.6679 20.9692 64.8287 21.0327C64.9938 21.092 65.1821 21.1576 65.3937 21.2295C65.673 21.3438 65.9226 21.4601 66.1427 21.5786C66.367 21.6971 66.5574 21.8325 66.714 21.9849C66.8705 22.133 66.9911 22.3065 67.0758 22.5054C67.1604 22.7 67.2027 22.9328 67.2027 23.2036C67.2027 23.5337 67.1266 23.8215 66.9742 24.0669C66.8219 24.3123 66.6188 24.5155 66.3648 24.6763C66.1109 24.8371 65.8168 24.9556 65.4825 25.0317C65.1524 25.1121 64.8033 25.1523 64.4352 25.1523C63.7242 25.1523 63.1085 25.0339 62.588 24.7969ZM71.2924 25.1523C70.2895 25.1523 69.4876 24.8498 68.8866 24.2446C68.29 23.6353 67.9916 22.8291 67.9916 21.8262C67.9916 20.7344 68.3027 19.8817 68.9247 19.2681C69.551 18.6545 70.3932 18.3477 71.4511 18.3477C72.4667 18.3477 73.2581 18.646 73.8251 19.2427C74.3922 19.8394 74.6757 20.6667 74.6757 21.7246C74.6757 22.7614 74.3689 23.5929 73.7553 24.2192C73.1459 24.8413 72.325 25.1523 71.2924 25.1523ZM71.3622 19.522C70.7867 19.522 70.3318 19.723 69.9975 20.125C69.6632 20.527 69.496 21.0814 69.496 21.7881C69.496 22.4694 69.6653 23.0068 70.0038 23.4004C70.3424 23.7897 70.7952 23.9844 71.3622 23.9844C71.942 23.9844 72.3863 23.7918 72.6952 23.4067C73.0084 23.0216 73.165 22.4736 73.165 21.7627C73.165 21.0475 73.0084 20.4953 72.6952 20.106C72.3863 19.7166 71.942 19.522 71.3622 19.522ZM79.4446 16.5767C79.2457 16.4624 79.0193 16.4053 78.7654 16.4053C78.0502 16.4053 77.6926 16.8094 77.6926 17.6177V18.5H79.2034V19.6553H77.699V25H76.2263V19.6553H75.1155V18.5H76.2263V17.4463C76.2263 16.7607 76.4506 16.2212 76.8992 15.8276C77.3477 15.4299 77.9084 15.231 78.5813 15.231C78.9452 15.231 79.233 15.2712 79.4446 15.3516V16.5767ZM83.7247 24.9302C83.4369 25.0741 83.0582 25.146 82.5884 25.146C81.3274 25.146 80.6968 24.5409 80.6968 23.3306V19.6553H79.6114V18.5H80.6968V16.9956L82.1695 16.5767V18.5H83.7247V19.6553H82.1695V22.9053C82.1695 23.2904 82.2393 23.5654 82.379 23.7305C82.5186 23.8955 82.7514 23.978 83.0772 23.978C83.3269 23.978 83.5427 23.9061 83.7247 23.7622V24.9302ZM88.2269 24.9302C87.9392 25.0741 87.5604 25.146 87.0907 25.146C85.8296 25.146 85.1991 24.5409 85.1991 23.3306V19.6553H84.1137V18.5H85.1991V16.9956L86.6718 16.5767V18.5H88.2269V19.6553H86.6718V22.9053C86.6718 23.2904 86.7416 23.5654 86.8812 23.7305C87.0209 23.8955 87.2536 23.978 87.5795 23.978C87.8291 23.978 88.045 23.9061 88.2269 23.7622V24.9302ZM92.1071 25.1523C91.1042 25.1523 90.3023 24.8498 89.7014 24.2446C89.1047 23.6353 88.8063 22.8291 88.8063 21.8262C88.8063 20.7344 89.1174 19.8817 89.7395 19.2681C90.3658 18.6545 91.2079 18.3477 92.2658 18.3477C93.2814 18.3477 94.0728 18.646 94.6398 19.2427C95.2069 19.8394 95.4904 20.6667 95.4904 21.7246C95.4904 22.7614 95.1836 23.5929 94.57 24.2192C93.9606 24.8413 93.1397 25.1523 92.1071 25.1523ZM92.177 19.522C91.6014 19.522 91.1465 19.723 90.8122 20.125C90.4779 20.527 90.3107 21.0814 90.3107 21.7881C90.3107 22.4694 90.48 23.0068 90.8186 23.4004C91.1571 23.7897 91.6099 23.9844 92.177 23.9844C92.7567 23.9844 93.201 23.7918 93.51 23.4067C93.8231 23.0216 93.9797 22.4736 93.9797 21.7627C93.9797 21.0475 93.8231 20.4953 93.51 20.106C93.201 19.7166 92.7567 19.522 92.177 19.522ZM94.0559 15.1865L92.2404 17.2686H91.1486L92.6848 15.1865H94.0559ZM98.2788 25H96.7998V15.377H98.2788V25Z" fill="black" fill-opacity="0.8956"/>
<rect x="0.5" y="0.5" width="106" height="31" rx="3.5" stroke="url(#paint0_linear_1634_29597)"/>
<defs>
<linearGradient id="paint0_linear_1634_29597" x1="53.5" y1="1" x2="53.5" y2="31" gradientUnits="userSpaceOnUse">
<stop offset="0.905762" stop-opacity="0.0578"/>
<stop offset="1" stop-opacity="0.1622"/>
</linearGradient>
</defs>
</svg>
