<svg width="126" height="34" viewBox="0 0 126 34" fill="none" xmlns="http://www.w3.org/2000/svg">
<rect x="1" y="1" width="124" height="32" rx="4" fill="#FDFDFD"/>
<rect x="0.5" y="0.5" width="125" height="33" rx="4.5" stroke="black" stroke-opacity="0.0578"/>
<g clip-path="url(#clip0_963_7212)">
<g clip-path="url(#clip1_963_7212)">
<path d="M8.28125 11C8.28125 10.5858 8.61704 10.25 9.03125 10.25H24.9687C25.383 10.25 25.7188 10.5858 25.7188 11V22.3438C25.7188 24.0524 24.3336 25.4375 22.625 25.4375H11.375C9.66637 25.4375 8.28125 24.0524 8.28125 22.3438V11Z" fill="url(#paint0_linear_963_7212)"/>
<mask id="mask0_963_7212" style="mask-type:alpha" maskUnits="userSpaceOnUse" x="8" y="10" width="18" height="16">
<path d="M8.28125 11C8.28125 10.5858 8.61704 10.25 9.03125 10.25H24.9687C25.383 10.25 25.7188 10.5858 25.7188 11V22.3438C25.7188 24.0524 24.3336 25.4375 22.625 25.4375H11.375C9.66637 25.4375 8.28125 24.0524 8.28125 22.3438V11Z" fill="url(#paint1_linear_963_7212)"/>
</mask>
<g mask="url(#mask0_963_7212)">
<g filter="url(#filter0_dd_963_7212)">
<path d="M12.7812 10.8125V8.5625H21.2187V10.8125" stroke="url(#paint2_linear_963_7212)" stroke-width="1.125" stroke-linecap="round"/>
</g>
</g>
<g filter="url(#filter1_dd_963_7212)">
<path d="M16.719 14.1875H13.344V17.5625H16.719V14.1875Z" fill="#F25022"/>
<path d="M20.6562 14.1875H17.2812V17.5625H20.6562V14.1875Z" fill="#7FBA00"/>
<path d="M20.6562 18.125H17.2812V21.5H20.6562V18.125Z" fill="#FFB900"/>
<path d="M16.7188 18.125H13.3438V21.5H16.7188V18.125Z" fill="#00A4EF"/>
</g>
<path d="M12.7812 10.8125V9.125C12.7812 8.81434 13.0331 8.5625 13.3438 8.5625H20.6563C20.9669 8.5625 21.2188 8.81434 21.2188 9.125V10.8125" stroke="url(#paint3_linear_963_7212)" stroke-width="1.125" stroke-linecap="round"/>
<rect x="13.3438" y="8" width="7.3125" height="1.125" fill="url(#paint4_linear_963_7212)"/>
<mask id="mask1_963_7212" style="mask-type:alpha" maskUnits="userSpaceOnUse" x="13" y="8" width="8" height="2">
<rect x="13.3438" y="8" width="7.3125" height="1.125" fill="url(#paint5_linear_963_7212)"/>
</mask>
<g mask="url(#mask1_963_7212)">
<g filter="url(#filter2_dd_963_7212)">
<rect x="11.7189" y="8.56277" width="1.625" height="2.8125" fill="#C4C4C4"/>
</g>
</g>
</g>
</g>
<path d="M34.4707 11.0176C34.4707 12.3939 33.8646 13.082 32.6523 13.082C31.4333 13.082 30.8237 12.4201 30.8237 11.0962V8.61816H29.9658V8.09863H31.3979V11.0586C31.3979 12.0635 31.8149 12.5659 32.6489 12.5659C33.4806 12.5659 33.8965 12.0806 33.8965 11.1099V10.5254H34.4707V11.0176ZM38.5244 10.0195H36.0088V11.4961C36.0088 12.2389 36.2799 12.6104 36.8223 12.6104C37.1025 12.6104 37.3338 12.5055 37.5161 12.2959C37.7007 12.084 37.793 11.8174 37.793 11.4961V10.5391H38.3535V13H37.793V12.4189H37.7793C37.515 12.861 37.1322 13.082 36.6309 13.082C36.248 13.082 35.9552 12.959 35.7524 12.7129C35.5496 12.4645 35.4482 12.1068 35.4482 11.6396V7.81836H36.0088V9.5H38.5244V10.0195ZM42.3184 13H41.7578V11.0039C41.7578 10.2611 41.4867 9.88965 40.9443 9.88965C40.6641 9.88965 40.4316 9.99561 40.2471 10.2075C40.0648 10.4172 39.9736 10.6826 39.9736 11.0039V14.6099H39.4131V9.5H39.9736V10.0811H39.9873C40.2516 9.639 40.6344 9.41797 41.1357 9.41797C41.5186 9.41797 41.8114 9.54215 42.0142 9.79053C42.217 10.0366 42.3184 10.3932 42.3184 10.8604V13ZM46.2832 11.9609H45.7227V11.0039C45.7227 10.2611 45.4515 9.88965 44.9092 9.88965C44.6289 9.88965 44.3965 9.99561 44.2119 10.2075C44.0296 10.4172 43.9385 10.6826 43.9385 11.0039V12.4805H46.4541V13H43.9385V14.6099H43.3779V9.5H43.9385V10.0811H43.9521C44.2165 9.639 44.5993 9.41797 45.1006 9.41797C45.4834 9.41797 45.7762 9.54215 45.979 9.79053C46.1818 10.0366 46.2832 10.3932 46.2832 10.8604V11.9609ZM50.4189 10.0195H47.9033V11.4961C47.9033 12.2389 48.1745 12.6104 48.7168 12.6104C48.9971 12.6104 49.2284 12.5055 49.4106 12.2959C49.5952 12.084 49.6875 11.8174 49.6875 11.4961V10.5391H50.248V13H49.6875V12.4189H49.6738C49.4095 12.861 49.0267 13.082 48.5254 13.082C48.1426 13.082 47.8498 12.959 47.647 12.7129C47.4442 12.4645 47.3428 12.1068 47.3428 11.6396V7.81836H47.9033V9.5H50.4189V10.0195ZM52.8013 12.7573C53.437 12.4178 53.7549 11.8436 53.7549 11.0347C53.7549 10.3101 53.4609 9.92839 52.873 9.88965C52.57 9.88965 52.3262 9.99561 52.1416 10.2075C51.9593 10.4172 51.8682 10.6826 51.8682 11.0039V13H51.3076V9.5H51.8682V10.0811H51.8818C52.1462 9.639 52.5404 9.41797 53.0645 9.41797C53.4245 9.41797 53.723 9.55127 53.96 9.81787C54.1969 10.0845 54.3154 10.4912 54.3154 11.0381C54.3154 11.6009 54.0967 12.0954 53.6592 12.5215H54.7017V13H52.8013V12.7573ZM54.6709 7.81836H55.8945V11.5029C55.8945 12.2412 56.1771 12.6104 56.7422 12.6104C57.0156 12.6104 57.2401 12.5101 57.4155 12.3096C57.5933 12.1068 57.6821 11.8424 57.6821 11.5166V9.5H58.2427V13H57.6821V12.4463H57.6685C57.436 12.8701 57.076 13.082 56.5884 13.082C55.7544 13.082 55.3374 12.5853 55.3374 11.5918V8.33789H54.6709V7.81836ZM62.4502 10.0195H59.9346V11.4961C59.9346 12.2389 60.2057 12.6104 60.748 12.6104C61.0283 12.6104 61.2596 12.5055 61.4419 12.2959C61.6265 12.084 61.7188 11.8174 61.7188 11.4961V10.5391H62.2793V13H61.7188V12.4189H61.7051C61.4408 12.861 61.0579 13.082 60.5566 13.082C60.1738 13.082 59.881 12.959 59.6782 12.7129C59.4754 12.4645 59.374 12.1068 59.374 11.6396V7.81836H59.9346V9.5H62.4502V10.0195ZM62.7715 13.5708H63.3389V9.5H63.8994V10.1152H63.9131C64.1888 9.65039 64.5921 9.41797 65.123 9.41797C65.5742 9.41797 65.9263 9.5752 66.1792 9.88965C66.4321 10.2018 66.5586 10.6211 66.5586 11.1475C66.5586 11.7331 66.4162 12.2025 66.1313 12.5557C65.8465 12.9066 65.4569 13.082 64.9624 13.082C64.509 13.082 64.1592 12.8861 63.9131 12.4941H63.8994V13.5708H66.5586V14.0903H63.8994V14.6099H63.3389V14.0903H62.7715V13.5708ZM63.8994 11.0825V11.5713C63.8994 11.8607 63.9928 12.1068 64.1797 12.3096C64.3688 12.5101 64.6081 12.6104 64.8975 12.6104C65.237 12.6104 65.5024 12.4805 65.6938 12.2207C65.8875 11.9609 65.9844 11.5998 65.9844 11.1372C65.9844 10.7476 65.8944 10.4422 65.7144 10.2212C65.5343 10.0002 65.2905 9.88965 64.9829 9.88965C64.6571 9.88965 64.395 10.0036 64.1968 10.2314C63.9985 10.457 63.8994 10.7407 63.8994 11.0825Z" fill="black" fill-opacity="0.6063"/>
<path d="M39.2275 25H37.96V20.0854C37.96 19.8634 37.9653 19.6217 37.9761 19.3604C37.9904 19.0954 38.0083 18.8143 38.0298 18.5171H37.9976C37.9546 18.7212 37.9134 18.8966 37.874 19.0435C37.8382 19.1867 37.8024 19.3013 37.7666 19.3872L35.5054 25H34.6245L32.3525 19.4355C32.3239 19.3568 32.2881 19.2404 32.2451 19.0864C32.2057 18.9325 32.1628 18.7427 32.1162 18.5171H32.084C32.1055 18.7749 32.1198 19.0488 32.127 19.3389C32.1341 19.6253 32.1377 19.9279 32.1377 20.2466V25H30.9561V17.2979H32.7607L34.7642 22.3037C34.8429 22.4935 34.9074 22.6689 34.9575 22.8301C35.0112 22.9876 35.0524 23.1344 35.0811 23.2705H35.1133C35.1777 23.0664 35.2386 22.882 35.2959 22.7173C35.3532 22.5526 35.4069 22.4093 35.457 22.2876L37.4873 17.2979H39.2275V25ZM41.6177 18.4365C41.3885 18.4365 41.1987 18.3631 41.0483 18.2163C40.8979 18.0695 40.8228 17.8887 40.8228 17.6738C40.8228 17.4518 40.8979 17.2692 41.0483 17.126C41.1987 16.9827 41.3885 16.9111 41.6177 16.9111C41.8504 16.9111 42.042 16.9827 42.1924 17.126C42.3428 17.2692 42.418 17.4518 42.418 17.6738C42.418 17.8923 42.3428 18.0749 42.1924 18.2217C42.042 18.3649 41.8504 18.4365 41.6177 18.4365ZM42.2354 25H40.9839V19.5H42.2354V25ZM47.9824 24.6616C47.7103 24.8263 47.4399 24.9445 47.1714 25.0161C46.9028 25.0913 46.611 25.1289 46.2959 25.1289C45.4508 25.1289 44.7741 24.8818 44.2656 24.3877C43.7607 23.8936 43.5083 23.2222 43.5083 22.3735C43.5083 21.4604 43.7697 20.7318 44.2925 20.1875C44.8188 19.6432 45.5278 19.3711 46.4194 19.3711C46.731 19.3711 47.0138 19.4051 47.2681 19.4731C47.5259 19.5376 47.7873 19.645 48.0522 19.7954L47.5635 20.6655C47.3773 20.5617 47.1947 20.4865 47.0156 20.4399C46.8366 20.3898 46.6414 20.3647 46.4302 20.3647C45.9038 20.3647 45.4974 20.5384 45.2109 20.8857C44.9245 21.2331 44.7812 21.6932 44.7812 22.2661C44.7812 22.8677 44.9352 23.3296 45.2432 23.6519C45.5547 23.9741 45.945 24.1353 46.4141 24.1353C46.5573 24.1353 46.722 24.1102 46.9082 24.0601C47.0944 24.0063 47.2824 23.9222 47.4722 23.8076L47.9824 24.6616ZM52.1021 20.5474C52.034 20.5295 51.9678 20.5169 51.9033 20.5098C51.8424 20.499 51.7708 20.4937 51.6885 20.4937C51.2409 20.4937 50.8971 20.6584 50.6572 20.9878C50.4173 21.3172 50.2974 21.7469 50.2974 22.2769V25H49.0459V19.5H50.2974V20.5581H50.3188C50.4478 20.1785 50.6375 19.8921 50.8882 19.6987C51.1388 19.5018 51.4342 19.4033 51.7744 19.4033C51.8711 19.4033 51.957 19.4087 52.0322 19.4194C52.111 19.4302 52.1862 19.4463 52.2578 19.4678L52.1021 20.5474ZM55.5557 25.1289C54.6963 25.1289 54.0142 24.8729 53.5093 24.3608C53.008 23.8452 52.7573 23.1559 52.7573 22.293C52.7609 21.3799 53.0223 20.6655 53.5415 20.1499C54.0607 19.6307 54.7679 19.3711 55.6631 19.3711C56.526 19.3675 57.1992 19.6217 57.6826 20.1338C58.1696 20.6423 58.4131 21.3315 58.4131 22.2017C58.4131 23.0968 58.1553 23.8094 57.6396 24.3394C57.1276 24.8657 56.4329 25.1289 55.5557 25.1289ZM55.6147 24.1353C56.1125 24.1353 56.4902 23.9723 56.748 23.6465C57.0094 23.3206 57.1401 22.8498 57.1401 22.2339C57.1401 21.6252 57.0094 21.1615 56.748 20.8428C56.4867 20.5241 56.1071 20.3647 55.6094 20.3647C55.1188 20.3647 54.7321 20.533 54.4492 20.8696C54.1699 21.2062 54.0303 21.6717 54.0303 22.2661C54.0303 22.8641 54.1699 23.326 54.4492 23.6519C54.7285 23.9741 55.117 24.1353 55.6147 24.1353ZM59.1543 24.5596L59.6968 23.6787C59.9116 23.8291 60.139 23.9508 60.3789 24.0439C60.6224 24.1335 60.8856 24.1782 61.1685 24.1782C61.4764 24.1782 61.7145 24.1227 61.8828 24.0117C62.0547 23.8971 62.1406 23.7271 62.1406 23.5015C62.1406 23.3224 62.069 23.1738 61.9258 23.0557C61.7861 22.9339 61.5462 22.8337 61.2061 22.7549C60.5186 22.5938 60.0352 22.3807 59.7559 22.1157C59.4801 21.8507 59.3423 21.5016 59.3423 21.0684C59.3423 20.5706 59.5356 20.1642 59.9224 19.8491C60.3091 19.5304 60.8158 19.3711 61.4424 19.3711C61.7539 19.3711 62.0511 19.4123 62.334 19.4946C62.6169 19.5734 62.8926 19.7005 63.1611 19.876L62.6562 20.7354C62.4199 20.585 62.2033 20.4775 62.0063 20.4131C61.8094 20.3486 61.6071 20.3164 61.3994 20.3164C61.1058 20.3164 60.8766 20.3719 60.7119 20.4829C60.5508 20.5903 60.4702 20.7407 60.4702 20.9341C60.4702 21.1382 60.5526 21.2904 60.7173 21.3906C60.8856 21.4873 61.1667 21.5822 61.5605 21.6753C62.1549 21.8185 62.59 22.0262 62.8657 22.2983C63.1414 22.5669 63.2793 22.9268 63.2793 23.3779C63.2793 23.9115 63.0841 24.3376 62.6938 24.6562C62.3071 24.9714 61.7826 25.1289 61.1201 25.1289C60.762 25.1289 60.4183 25.0824 60.0889 24.9893C59.763 24.8926 59.4515 24.7493 59.1543 24.5596ZM66.8779 25.1289C66.0186 25.1289 65.3364 24.8729 64.8315 24.3608C64.3302 23.8452 64.0796 23.1559 64.0796 22.293C64.0832 21.3799 64.3446 20.6655 64.8638 20.1499C65.383 19.6307 66.0902 19.3711 66.9854 19.3711C67.8483 19.3675 68.5215 19.6217 69.0049 20.1338C69.4919 20.6423 69.7354 21.3315 69.7354 22.2017C69.7354 23.0968 69.4775 23.8094 68.9619 24.3394C68.4499 24.8657 67.7552 25.1289 66.8779 25.1289ZM66.937 24.1353C67.4347 24.1353 67.8125 23.9723 68.0703 23.6465C68.3317 23.3206 68.4624 22.8498 68.4624 22.2339C68.4624 21.6252 68.3317 21.1615 68.0703 20.8428C67.8089 20.5241 67.4294 20.3647 66.9316 20.3647C66.4411 20.3647 66.0544 20.533 65.7715 20.8696C65.4922 21.2062 65.3525 21.6717 65.3525 22.2661C65.3525 22.8641 65.4922 23.326 65.7715 23.6519C66.0508 23.9741 66.4393 24.1353 66.937 24.1353ZM73.9839 17.8403C73.8836 17.8009 73.7923 17.7741 73.71 17.7598C73.6276 17.7419 73.5381 17.7329 73.4414 17.7329C73.1764 17.7329 72.9759 17.8099 72.8398 17.9639C72.7074 18.1143 72.6411 18.3327 72.6411 18.6191V19.5H73.9141V20.4775H72.6411V25H71.395V20.4775H70.4604V19.5H71.395V18.5547C71.395 17.9961 71.5741 17.5539 71.9321 17.228C72.2938 16.8986 72.7718 16.7339 73.3662 16.7339C73.5524 16.7339 73.7135 16.7464 73.8496 16.7715C73.9857 16.7965 74.1271 16.8324 74.2739 16.8789L73.9839 17.8403ZM77.7974 24.9248C77.6362 24.9928 77.4679 25.043 77.2925 25.0752C77.117 25.1074 76.929 25.1235 76.7285 25.1235C76.2201 25.1235 75.828 24.9893 75.5522 24.7207C75.2801 24.4486 75.144 24.0439 75.144 23.5068V20.4775H74.2202V19.5H75.144V18.1626L76.3901 17.7866V19.5H77.7061V20.4775H76.3901V23.4048C76.3901 23.6733 76.4385 23.8667 76.5352 23.9849C76.6354 24.103 76.7894 24.1621 76.9971 24.1621C77.0973 24.1621 77.1922 24.1514 77.2817 24.1299C77.3748 24.1048 77.4572 24.0744 77.5288 24.0386L77.7974 24.9248ZM81.2939 24.4468L81.8633 23.4639C82.2106 23.6787 82.5347 23.8309 82.8354 23.9204C83.1362 24.0063 83.4728 24.0493 83.8452 24.0493C84.2892 24.0493 84.6383 23.9544 84.8926 23.7646C85.1504 23.5713 85.2793 23.2956 85.2793 22.9375C85.2793 22.6117 85.1719 22.3556 84.957 22.1694C84.7458 21.9797 84.3859 21.806 83.8774 21.6484C83.0933 21.4157 82.5168 21.1274 82.1479 20.7837C81.7791 20.4399 81.5947 19.9744 81.5947 19.3872C81.5947 18.7498 81.8328 18.2217 82.3091 17.8027C82.7853 17.3802 83.4316 17.1689 84.248 17.1689C84.6061 17.1689 84.9588 17.2083 85.3062 17.2871C85.6535 17.3659 85.9972 17.4876 86.3374 17.6523L85.8594 18.6729C85.5622 18.5189 85.2775 18.4097 85.0054 18.3452C84.7368 18.2808 84.4629 18.2485 84.1836 18.2485C83.7754 18.2485 83.4531 18.3381 83.2168 18.5171C82.984 18.6961 82.8677 18.9486 82.8677 19.2744C82.8677 19.5645 82.9751 19.7936 83.1899 19.9619C83.4048 20.1266 83.7736 20.2896 84.2964 20.4507C85.0985 20.6906 85.675 20.9896 86.0259 21.3477C86.3804 21.7057 86.5576 22.1981 86.5576 22.8247C86.5576 23.4979 86.3177 24.0511 85.8379 24.4844C85.3581 24.9141 84.6742 25.1289 83.7861 25.1289C83.3421 25.1289 82.9089 25.0734 82.4863 24.9624C82.0638 24.8478 81.6663 24.6759 81.2939 24.4468ZM90.4409 24.9248C90.2798 24.9928 90.1115 25.043 89.936 25.0752C89.7606 25.1074 89.5726 25.1235 89.3721 25.1235C88.8636 25.1235 88.4715 24.9893 88.1958 24.7207C87.9237 24.4486 87.7876 24.0439 87.7876 23.5068V20.4775H86.8638V19.5H87.7876V18.1626L89.0337 17.7866V19.5H90.3496V20.4775H89.0337V23.4048C89.0337 23.6733 89.082 23.8667 89.1787 23.9849C89.279 24.103 89.4329 24.1621 89.6406 24.1621C89.7409 24.1621 89.8358 24.1514 89.9253 24.1299C90.0184 24.1048 90.1007 24.0744 90.1724 24.0386L90.4409 24.9248ZM93.8623 25.1289C93.0029 25.1289 92.3208 24.8729 91.8159 24.3608C91.3146 23.8452 91.064 23.1559 91.064 22.293C91.0675 21.3799 91.3289 20.6655 91.8481 20.1499C92.3674 19.6307 93.0745 19.3711 93.9697 19.3711C94.8327 19.3675 95.5059 19.6217 95.9893 20.1338C96.4762 20.6423 96.7197 21.3315 96.7197 22.2017C96.7197 23.0968 96.4619 23.8094 95.9463 24.3394C95.4342 24.8657 94.7396 25.1289 93.8623 25.1289ZM93.9214 24.1353C94.4191 24.1353 94.7969 23.9723 95.0547 23.6465C95.3161 23.3206 95.4468 22.8498 95.4468 22.2339C95.4468 21.6252 95.3161 21.1615 95.0547 20.8428C94.7933 20.5241 94.4137 20.3647 93.916 20.3647C93.4255 20.3647 93.0387 20.533 92.7559 20.8696C92.4766 21.2062 92.3369 21.6717 92.3369 22.2661C92.3369 22.8641 92.4766 23.326 92.7559 23.6519C93.0352 23.9741 93.4237 24.1353 93.9214 24.1353ZM101.054 20.5474C100.986 20.5295 100.92 20.5169 100.855 20.5098C100.795 20.499 100.723 20.4937 100.641 20.4937C100.193 20.4937 99.8493 20.6584 99.6094 20.9878C99.3695 21.3172 99.2495 21.7469 99.2495 22.2769V25H97.998V19.5H99.2495V20.5581H99.271C99.3999 20.1785 99.5897 19.8921 99.8403 19.6987C100.091 19.5018 100.386 19.4033 100.727 19.4033C100.823 19.4033 100.909 19.4087 100.984 19.4194C101.063 19.4302 101.138 19.4463 101.21 19.4678L101.054 20.5474ZM106.721 22.5776H102.966C102.988 23.0968 103.138 23.4925 103.417 23.7646C103.697 24.0332 104.087 24.1675 104.588 24.1675C104.792 24.1675 105.025 24.1263 105.287 24.0439C105.548 23.9616 105.806 23.8291 106.06 23.6465L106.624 24.4253C106.284 24.6724 105.938 24.8514 105.587 24.9624C105.236 25.0734 104.85 25.1289 104.427 25.1289C103.571 25.1289 102.905 24.8836 102.429 24.3931C101.953 23.8989 101.713 23.2096 101.709 22.3252C101.709 21.4443 101.955 20.7318 102.445 20.1875C102.939 19.6432 103.571 19.3711 104.341 19.3711C105.079 19.3711 105.659 19.6038 106.082 20.0693C106.508 20.5312 106.721 21.1865 106.721 22.0352V22.5776ZM105.512 21.7129C105.512 21.2402 105.408 20.8857 105.201 20.6494C104.997 20.4095 104.707 20.2896 104.331 20.2896C103.976 20.2896 103.674 20.4185 103.423 20.6763C103.176 20.9305 103.024 21.276 102.966 21.7129H105.512Z" fill="black" fill-opacity="0.8956"/>
<path d="M109.455 23.2705H107.589V22.8296H109.455V23.2705ZM113.372 25H112.812V22.9834C112.812 22.2542 112.54 21.8896 111.998 21.8896C111.725 21.8896 111.494 21.9956 111.308 22.2075C111.121 22.4172 111.027 22.6872 111.027 23.0176V26.6099H110.467V19.8184H111.027V22.0811H111.041C111.31 21.639 111.693 21.418 112.189 21.418C112.978 21.418 113.372 21.8931 113.372 22.8433V25ZM117.419 24.7197C117.419 25.3623 117.267 25.8442 116.964 26.1655C116.664 26.4868 116.234 26.6475 115.676 26.6475C115.603 26.6475 115.515 26.6395 115.413 26.6235C115.312 26.6099 115.208 26.5848 115.098 26.5483C114.989 26.5119 114.879 26.4629 114.77 26.4014C114.663 26.3421 114.566 26.2658 114.479 26.1724C114.395 26.0789 114.326 25.9684 114.271 25.8408C114.219 25.7132 114.192 25.5651 114.192 25.3965H114.767C114.767 25.54 114.796 25.6608 114.855 25.7588C114.917 25.859 114.992 25.9388 115.081 25.998C115.172 26.0596 115.27 26.1029 115.375 26.1279C115.482 26.1553 115.58 26.1689 115.669 26.1689C115.854 26.1689 116.019 26.1405 116.165 26.0835C116.313 26.0265 116.438 25.9399 116.541 25.8237C116.643 25.7098 116.722 25.5674 116.776 25.3965C116.831 25.2256 116.858 25.0251 116.858 24.7949V24.4121H116.845C116.578 24.8587 116.177 25.082 115.642 25.082C115.4 25.082 115.188 25.0365 115.006 24.9453C114.826 24.8542 114.675 24.7311 114.555 24.5762C114.434 24.4189 114.343 24.2367 114.281 24.0293C114.222 23.8197 114.192 23.5975 114.192 23.3628C114.192 23.0985 114.224 22.849 114.288 22.6143C114.352 22.3773 114.449 22.1711 114.579 21.9956C114.711 21.8179 114.877 21.6777 115.078 21.5752C115.28 21.4704 115.52 21.418 115.795 21.418C116.267 21.418 116.617 21.6071 116.845 21.9854H116.858V21.5H117.419V24.7197ZM115.874 21.8896C115.674 21.8896 115.503 21.9284 115.361 22.0059C115.222 22.0833 115.108 22.1882 115.02 22.3203C114.931 22.4525 114.866 22.6051 114.825 22.7783C114.786 22.9515 114.767 23.1338 114.767 23.3252C114.767 23.4938 114.787 23.6556 114.828 23.8105C114.869 23.9655 114.932 24.1022 115.016 24.2207C115.1 24.3392 115.206 24.4338 115.334 24.5044C115.464 24.575 115.618 24.6104 115.795 24.6104C115.959 24.6104 116.106 24.5785 116.236 24.5146C116.368 24.4508 116.48 24.3654 116.571 24.2583C116.665 24.1489 116.735 24.0225 116.783 23.8789C116.833 23.7331 116.858 23.5793 116.858 23.4175V22.9014C116.858 22.7646 116.833 22.6359 116.783 22.5151C116.733 22.3921 116.664 22.285 116.575 22.1938C116.486 22.1004 116.381 22.0264 116.26 21.9717C116.142 21.917 116.013 21.8896 115.874 21.8896Z" fill="black" fill-opacity="0.6063"/>
<defs>
<filter id="filter0_dd_963_7212" x="11.0938" y="7.25" width="11.8125" height="5.625" filterUnits="userSpaceOnUse" color-interpolation-filters="sRGB">
<feFlood flood-opacity="0" result="BackgroundImageFix"/>
<feColorMatrix in="SourceAlpha" type="matrix" values="0 0 0 0 0 0 0 0 0 0 0 0 0 0 0 0 0 0 127 0" result="hardAlpha"/>
<feOffset dy="0.1875"/>
<feGaussianBlur stdDeviation="0.1875"/>
<feColorMatrix type="matrix" values="0 0 0 0 0 0 0 0 0 0 0 0 0 0 0 0 0 0 0.1 0"/>
<feBlend mode="normal" in2="BackgroundImageFix" result="effect1_dropShadow_963_7212"/>
<feColorMatrix in="SourceAlpha" type="matrix" values="0 0 0 0 0 0 0 0 0 0 0 0 0 0 0 0 0 0 127 0" result="hardAlpha"/>
<feOffset dy="0.375"/>
<feGaussianBlur stdDeviation="0.5625"/>
<feColorMatrix type="matrix" values="0 0 0 0 0 0 0 0 0 0 0 0 0 0 0 0 0 0 0.2 0"/>
<feBlend mode="normal" in2="effect1_dropShadow_963_7212" result="effect2_dropShadow_963_7212"/>
<feBlend mode="normal" in="SourceGraphic" in2="effect2_dropShadow_963_7212" result="shape"/>
</filter>
<filter id="filter1_dd_963_7212" x="12.2188" y="13.4375" width="9.5625" height="9.5625" filterUnits="userSpaceOnUse" color-interpolation-filters="sRGB">
<feFlood flood-opacity="0" result="BackgroundImageFix"/>
<feColorMatrix in="SourceAlpha" type="matrix" values="0 0 0 0 0 0 0 0 0 0 0 0 0 0 0 0 0 0 127 0" result="hardAlpha"/>
<feOffset dy="0.1875"/>
<feGaussianBlur stdDeviation="0.1875"/>
<feColorMatrix type="matrix" values="0 0 0 0 0 0 0 0 0 0 0 0 0 0 0 0 0 0 0.1 0"/>
<feBlend mode="normal" in2="BackgroundImageFix" result="effect1_dropShadow_963_7212"/>
<feColorMatrix in="SourceAlpha" type="matrix" values="0 0 0 0 0 0 0 0 0 0 0 0 0 0 0 0 0 0 127 0" result="hardAlpha"/>
<feOffset dy="0.375"/>
<feGaussianBlur stdDeviation="0.5625"/>
<feColorMatrix type="matrix" values="0 0 0 0 0 0 0 0 0 0 0 0 0 0 0 0 0 0 0.2 0"/>
<feBlend mode="normal" in2="effect1_dropShadow_963_7212" result="effect2_dropShadow_963_7212"/>
<feBlend mode="normal" in="SourceGraphic" in2="effect2_dropShadow_963_7212" result="shape"/>
</filter>
<filter id="filter2_dd_963_7212" x="10.5939" y="6.6875" width="12.8124" height="5.06277" filterUnits="userSpaceOnUse" color-interpolation-filters="sRGB">
<feFlood flood-opacity="0" result="BackgroundImageFix"/>
<feColorMatrix in="SourceAlpha" type="matrix" values="0 0 0 0 0 0 0 0 0 0 0 0 0 0 0 0 0 0 127 0" result="hardAlpha"/>
<feOffset dy="-0.75"/>
<feGaussianBlur stdDeviation="0.1875"/>
<feColorMatrix type="matrix" values="0 0 0 0 0 0 0 0 0 0 0 0 0 0 0 0 0 0 0.1 0"/>
<feBlend mode="normal" in2="BackgroundImageFix" result="effect1_dropShadow_963_7212"/>
<feColorMatrix in="SourceAlpha" type="matrix" values="0 0 0 0 0 0 0 0 0 0 0 0 0 0 0 0 0 0 127 0" result="hardAlpha"/>
<feOffset dy="-0.75"/>
<feGaussianBlur stdDeviation="0.5625"/>
<feColorMatrix type="matrix" values="0 0 0 0 0 0 0 0 0 0 0 0 0 0 0 0 0 0 0.2 0"/>
<feBlend mode="normal" in2="effect1_dropShadow_963_7212" result="effect2_dropShadow_963_7212"/>
<feBlend mode="normal" in="SourceGraphic" in2="effect2_dropShadow_963_7212" result="shape"/>
</filter>
<linearGradient id="paint0_linear_963_7212" x1="17" y1="10.25" x2="20.3514" y2="25.9624" gradientUnits="userSpaceOnUse">
<stop stop-color="#0669BC"/>
<stop offset="1" stop-color="#243A5F"/>
</linearGradient>
<linearGradient id="paint1_linear_963_7212" x1="17" y1="10.25" x2="20.3514" y2="25.9624" gradientUnits="userSpaceOnUse">
<stop stop-color="#0078D4"/>
<stop offset="1" stop-color="#114A8B"/>
</linearGradient>
<linearGradient id="paint2_linear_963_7212" x1="17" y1="8.5625" x2="17.1583" y2="10.9858" gradientUnits="userSpaceOnUse">
<stop stop-color="#28AFEA"/>
<stop offset="1" stop-color="#0078D4"/>
</linearGradient>
<linearGradient id="paint3_linear_963_7212" x1="17" y1="8.5625" x2="17.1583" y2="10.9858" gradientUnits="userSpaceOnUse">
<stop stop-color="#30DAFF"/>
<stop offset="1" stop-color="#0094D4"/>
</linearGradient>
<linearGradient id="paint4_linear_963_7212" x1="16.5938" y1="8" x2="16.5937" y2="9.125" gradientUnits="userSpaceOnUse">
<stop stop-color="#22BCFF"/>
<stop offset="1" stop-color="#0088F0"/>
</linearGradient>
<linearGradient id="paint5_linear_963_7212" x1="16.5938" y1="8" x2="16.5937" y2="9.125" gradientUnits="userSpaceOnUse">
<stop stop-color="#28AFEA"/>
<stop offset="1" stop-color="#3CCBF4"/>
</linearGradient>
<clipPath id="clip0_963_7212">
<rect width="18" height="18" fill="white" transform="translate(8 8)"/>
</clipPath>
<clipPath id="clip1_963_7212">
<rect width="18" height="18" fill="white" transform="translate(8 8)"/>
</clipPath>
</defs>
</svg>
