<svg width="90" height="32" viewBox="0 0 90 32" fill="none" xmlns="http://www.w3.org/2000/svg">
<rect x="0.5" y="0.5" width="89" height="31" rx="3.5" fill="white"/>
<path d="M15.5559 7H7V15.5608H15.5559V7Z" fill="#F25022"/>
<path d="M25.0001 7H16.4442V15.5608H25.0001V7Z" fill="#7FBA00"/>
<path d="M15.5559 16.4395H7V25.0002H15.5559V16.4395Z" fill="#00A4EF"/>
<path d="M25.0002 16.4395H16.4443V25.0002H25.0002V16.4395Z" fill="#FFB900"/>
<path d="M32.6445 8.03125H30.4766V9.91797H32.4805V10.5469H30.4766V13H29.7656V7.39844H32.6445V8.03125ZM36.3594 13H35.668V12.3555H35.6523C35.5117 12.6003 35.3372 12.7852 35.1289 12.9102C34.9206 13.0352 34.6784 13.0977 34.4023 13.0977C34.0169 13.0977 33.7057 12.9857 33.4688 12.7617C33.2318 12.5378 33.1133 12.2422 33.1133 11.875C33.1133 11.5182 33.2331 11.2253 33.4727 10.9961C33.7122 10.7669 34.0573 10.6198 34.5078 10.5547L35.6719 10.3984V10.3047C35.6719 9.97396 35.5924 9.73568 35.4336 9.58984C35.2773 9.44401 35.0664 9.37109 34.8008 9.37109C34.5898 9.37109 34.3841 9.41146 34.1836 9.49219C33.9831 9.57292 33.793 9.69401 33.6133 9.85547L33.2344 9.43359C33.4661 9.22005 33.7135 9.0625 33.9766 8.96094C34.2422 8.85677 34.5326 8.80469 34.8477 8.80469C35.3477 8.80469 35.724 8.93359 35.9766 9.19141C36.2318 9.44922 36.3594 9.83594 36.3594 10.3516V13ZM35.6719 11.3281V10.9336L34.6953 11.0664C34.3958 11.1081 34.1719 11.1836 34.0234 11.293C33.875 11.4023 33.8008 11.5742 33.8008 11.8086C33.8008 12.0404 33.8698 12.2201 34.0078 12.3477C34.1484 12.4753 34.3229 12.5391 34.5312 12.5391C34.875 12.5391 35.151 12.4258 35.3594 12.1992C35.5677 11.9701 35.6719 11.6797 35.6719 11.3281ZM34.8555 8.17188H34.3203L35.207 6.89062H35.8984L34.8555 8.17188ZM40.125 9.19922L40.1406 9.1875C40.0234 8.97656 39.8984 8.78516 39.7656 8.61328C39.6328 8.44141 39.4922 8.28776 39.3438 8.15234L38.1797 8.73828L37.9688 8.33984L39.0078 7.83594C38.8984 7.75 38.7839 7.66536 38.6641 7.58203C38.5469 7.49609 38.4219 7.41406 38.2891 7.33594L38.6289 6.89062C38.7826 6.98438 38.931 7.08594 39.0742 7.19531C39.2174 7.30208 39.3737 7.42708 39.543 7.57031L40.6797 7.00391L40.8828 7.39453L39.875 7.89062C40.3151 8.28906 40.6445 8.74089 40.8633 9.24609C41.082 9.7513 41.1914 10.3099 41.1914 10.9219C41.1914 11.5547 41.0195 12.0742 40.6758 12.4805C40.332 12.8841 39.8646 13.0859 39.2734 13.0859C38.6797 13.0859 38.2161 12.9023 37.8828 12.5352C37.5495 12.168 37.3828 11.6667 37.3828 11.0312C37.3828 10.3958 37.5534 9.88021 37.8945 9.48438C38.2383 9.08854 38.6992 8.89062 39.2773 8.89062C39.4414 8.89062 39.5938 8.91667 39.7344 8.96875C39.8776 9.02083 40.0078 9.09766 40.125 9.19922ZM39.3281 9.45703C38.9427 9.45703 38.6406 9.59635 38.4219 9.875C38.2031 10.151 38.0938 10.5286 38.0938 11.0078C38.0938 11.474 38.2005 11.8424 38.4141 12.1133C38.6302 12.3815 38.9297 12.5156 39.3125 12.5156C39.6719 12.5156 39.9557 12.3776 40.1641 12.1016C40.375 11.8255 40.4805 11.4557 40.4805 10.9922C40.4805 10.4818 40.3841 10.099 40.1914 9.84375C40.0013 9.58594 39.7135 9.45703 39.3281 9.45703ZM45.6328 13H44.9375V12.3477H44.9219C44.7839 12.5977 44.6081 12.7852 44.3945 12.9102C44.1836 13.0352 43.9362 13.0977 43.6523 13.0977C43.1654 13.0977 42.7995 12.9518 42.5547 12.6602C42.3125 12.3685 42.1914 11.9323 42.1914 11.3516V8.90234H42.8867V11.2461C42.8867 11.6706 42.9674 11.9896 43.1289 12.2031C43.2904 12.4141 43.5339 12.5195 43.8594 12.5195C44.1745 12.5195 44.4323 12.4036 44.6328 12.1719C44.8359 11.9401 44.9375 11.6354 44.9375 11.2578V8.90234H45.6328V13ZM51.1484 7.63281C51.0755 7.60677 51.0091 7.58854 50.9492 7.57812C50.8893 7.56771 50.8268 7.5625 50.7617 7.5625C50.5456 7.5625 50.3841 7.61979 50.2773 7.73438C50.1732 7.84896 50.1211 8.01693 50.1211 8.23828V8.90234H51.0625V9.48047H50.1211V13H49.4297V9.48047H48.7422V8.90234H49.4297V8.20312C49.4297 7.82031 49.5482 7.52083 49.7852 7.30469C50.0247 7.08854 50.3503 6.98047 50.7617 6.98047C50.8659 6.98047 50.9609 6.98828 51.0469 7.00391C51.1328 7.01953 51.2214 7.04167 51.3125 7.07031L51.1484 7.63281ZM53.8984 9.49609C53.8464 9.48047 53.7982 9.46875 53.7539 9.46094C53.7096 9.45312 53.6562 9.44922 53.5938 9.44922C53.263 9.44922 53.0026 9.58984 52.8125 9.87109C52.6224 10.1497 52.5273 10.5026 52.5273 10.9297V13H51.832V8.90234H52.5273V9.71484H52.543C52.6367 9.42578 52.7786 9.20703 52.9688 9.05859C53.1615 8.90755 53.3841 8.83203 53.6367 8.83203C53.7174 8.83203 53.7865 8.83594 53.8438 8.84375C53.9036 8.85156 53.9583 8.86328 54.0078 8.87891L53.8984 9.49609ZM57.7266 13H57.0352V12.3555H57.0195C56.8789 12.6003 56.7044 12.7852 56.4961 12.9102C56.2878 13.0352 56.0456 13.0977 55.7695 13.0977C55.3841 13.0977 55.0729 12.9857 54.8359 12.7617C54.599 12.5378 54.4805 12.2422 54.4805 11.875C54.4805 11.5182 54.6003 11.2253 54.8398 10.9961C55.0794 10.7669 55.4245 10.6198 55.875 10.5547L57.0391 10.3984V10.3047C57.0391 9.97396 56.9596 9.73568 56.8008 9.58984C56.6445 9.44401 56.4336 9.37109 56.168 9.37109C55.957 9.37109 55.7513 9.41146 55.5508 9.49219C55.3503 9.57292 55.1602 9.69401 54.9805 9.85547L54.6016 9.43359C54.8333 9.22005 55.0807 9.0625 55.3438 8.96094C55.6094 8.85677 55.8997 8.80469 56.2148 8.80469C56.7148 8.80469 57.0911 8.93359 57.3438 9.19141C57.599 9.44922 57.7266 9.83594 57.7266 10.3516V13ZM57.0391 11.3281V10.9336L56.0625 11.0664C55.763 11.1081 55.5391 11.1836 55.3906 11.293C55.2422 11.4023 55.168 11.5742 55.168 11.8086C55.168 12.0404 55.237 12.2201 55.375 12.3477C55.5156 12.4753 55.6901 12.5391 55.8984 12.5391C56.2422 12.5391 56.5182 12.4258 56.7266 12.1992C56.9349 11.9701 57.0391 11.6797 57.0391 11.3281ZM56.2227 8.17188H55.6875L56.5742 6.89062H57.2656L56.2227 8.17188Z" fill="black" fill-opacity="0.8956"/>
<path d="M41.1489 16.6123C41.1489 16.3559 41.2412 16.1507 41.4259 15.9764C41.6105 15.802 41.8258 15.72 42.0823 15.72C42.3489 15.72 42.5746 15.8123 42.7489 15.9866C42.9233 16.161 43.0156 16.3764 43.0156 16.6123C43.0156 16.8584 42.9233 17.0738 42.7387 17.2379C42.5541 17.4123 42.3387 17.4943 42.072 17.4943C41.8053 17.4943 41.59 17.4123 41.4053 17.2379C41.2412 17.0636 41.1489 16.8584 41.1489 16.6123ZM42.8412 25.002H41.313V18.4892H42.8412V25.002Z" fill="black" fill-opacity="0.8956"/>
<path d="M47.4975 23.8887C47.7231 23.8887 47.9795 23.8374 48.2565 23.7348C48.5334 23.6323 48.7795 23.4887 49.0154 23.3143V24.74C48.7693 24.8836 48.4924 24.9861 48.1847 25.0579C47.877 25.1297 47.5282 25.1707 47.159 25.1707C46.2052 25.1707 45.4257 24.863 44.8205 24.2579C44.2154 23.6528 43.918 22.8733 43.918 21.94C43.918 20.8938 44.2257 20.0323 44.8411 19.3553C45.4564 18.6784 46.318 18.34 47.4462 18.34C47.7334 18.34 48.0206 18.381 48.318 18.4528C48.6154 18.5246 48.8411 18.6169 49.0154 18.7092V20.1759C48.7795 20.0015 48.5334 19.8682 48.2872 19.7759C48.0411 19.6836 47.7847 19.6323 47.5282 19.6323C46.9231 19.6323 46.4411 19.8271 46.0616 20.2169C45.6923 20.6066 45.5077 21.14 45.5077 21.8066C45.5077 22.463 45.6821 22.9759 46.0411 23.3451C46.4 23.7143 46.8821 23.8887 47.4975 23.8887Z" fill="black" fill-opacity="0.8956"/>
<path d="M53.3738 18.39C53.4969 18.39 53.6097 18.4003 53.702 18.4105C53.7943 18.431 53.8866 18.4516 53.9482 18.4721V20.0208C53.8661 19.9592 53.7533 19.908 53.5995 19.8567C53.4456 19.8054 53.261 19.7746 53.0354 19.7746C52.6559 19.7746 52.3379 19.9285 52.0815 20.2464C51.8251 20.5644 51.6918 21.0464 51.6918 21.7131V25.0054H50.1636V18.4926H51.6918V19.5182H51.7123C51.8559 19.1592 52.061 18.8823 52.3482 18.6874C52.6354 18.4926 52.9738 18.39 53.3738 18.39Z" fill="black" fill-opacity="0.8956"/>
<path d="M54.0308 21.8477C54.0308 20.7707 54.3385 19.9195 54.9436 19.2836C55.5487 18.6579 56.4 18.34 57.4769 18.34C58.4923 18.34 59.2923 18.6477 59.8667 19.2528C60.441 19.8579 60.7282 20.6784 60.7282 21.7041C60.7282 22.7605 60.4205 23.6015 59.8154 24.2271C59.2102 24.8528 58.3795 25.1605 57.3333 25.1605C56.3282 25.1605 55.5179 24.863 54.9333 24.2682C54.3282 23.6836 54.0308 22.8733 54.0308 21.8477ZM55.6308 21.7964C55.6308 22.4733 55.7846 22.9964 56.0923 23.3553C56.4 23.7143 56.841 23.8887 57.4154 23.8887C57.9692 23.8887 58.4 23.7143 58.6872 23.3553C58.9743 22.9964 59.1282 22.463 59.1282 21.7554C59.1282 21.0579 58.9743 20.5246 58.6769 20.1656C58.3795 19.8066 57.9487 19.6323 57.4051 19.6323C56.841 19.6323 56.4102 19.8169 56.0923 20.1964C55.7846 20.5759 55.6308 21.0989 55.6308 21.7964Z" fill="black" fill-opacity="0.8956"/>
<path d="M63.0053 20.2069C63.0053 20.4223 63.0771 20.5966 63.2104 20.7197C63.354 20.8428 63.6617 20.9966 64.1335 21.1915C64.7489 21.4377 65.1796 21.7146 65.4258 22.0223C65.6719 22.33 65.795 22.6992 65.795 23.13C65.795 23.7454 65.5591 24.2377 65.0873 24.6069C64.6155 24.9761 63.9796 25.1607 63.1796 25.1607C62.913 25.1607 62.6155 25.13 62.2873 25.0582C61.9591 24.9966 61.6822 24.9043 61.4565 24.812V23.3043C61.7335 23.4992 62.0309 23.653 62.3591 23.7659C62.6771 23.8787 62.9745 23.9402 63.2309 23.9402C63.5796 23.9402 63.836 23.8889 64.0001 23.7966C64.1642 23.7043 64.2463 23.5402 64.2463 23.3043C64.2463 23.0889 64.1642 22.9146 63.9899 22.771C63.8155 22.6274 63.4976 22.453 63.0155 22.2684C62.4514 22.0325 62.0514 21.7659 61.8155 21.4684C61.5796 21.171 61.4565 20.7915 61.4565 20.3402C61.4565 19.7556 61.6924 19.2735 62.154 18.8941C62.6155 18.5146 63.2206 18.33 63.9694 18.33C64.195 18.33 64.4514 18.3505 64.7386 18.4018C65.0258 18.453 65.2617 18.5146 65.4463 18.5966V20.053C65.2412 19.9197 65.0053 19.8069 64.7386 19.7043C64.4719 19.612 64.195 19.5607 63.9386 19.5607C63.6514 19.5607 63.4155 19.6223 63.2617 19.7351C63.0873 19.8479 63.0053 20.012 63.0053 20.2069Z" fill="black" fill-opacity="0.8956"/>
<path d="M66.4717 21.8477C66.4717 20.7707 66.7794 19.9195 67.3845 19.2836C67.9896 18.6579 68.8409 18.34 69.9178 18.34C70.9332 18.34 71.7332 18.6477 72.3076 19.2528C72.8819 19.8579 73.1691 20.6784 73.1691 21.7041C73.1691 22.7605 72.8614 23.6015 72.2563 24.2271C71.6512 24.8528 70.8204 25.1605 69.7742 25.1605C68.7691 25.1605 67.9589 24.863 67.3742 24.2682C66.7691 23.6836 66.4717 22.8733 66.4717 21.8477ZM68.0614 21.7964C68.0614 22.4733 68.2153 22.9964 68.523 23.3554C68.8307 23.7143 69.2717 23.8887 69.846 23.8887C70.3999 23.8887 70.8307 23.7143 71.1178 23.3554C71.405 22.9964 71.5589 22.463 71.5589 21.7554C71.5589 21.0579 71.405 20.5246 71.1076 20.1656C70.8101 19.8066 70.3794 19.6323 69.8358 19.6323C69.2717 19.6323 68.8409 19.8169 68.523 20.1964C68.2153 20.5759 68.0614 21.0989 68.0614 21.7964Z" fill="black" fill-opacity="0.8956"/>
<path d="M78.2258 19.7523V23.0959C78.2258 23.7933 78.3899 24.3062 78.7079 24.6549C79.0258 25.0036 79.5181 25.1677 80.1643 25.1677C80.3797 25.1677 80.6053 25.1472 80.8309 25.0959C81.0566 25.0446 81.2207 25.0036 81.313 24.9421V23.6703C81.2207 23.7318 81.1079 23.7831 80.9848 23.8241C80.8617 23.8651 80.7489 23.8857 80.6668 23.8857C80.3591 23.8857 80.1232 23.8036 79.9797 23.6395C79.8361 23.4754 79.7643 23.1882 79.7643 22.7882V19.7421H81.3232V18.4908H79.7745V16.5626L78.2361 17.0344V18.501H75.9489V17.7113C75.9489 17.3215 76.0309 17.0241 76.2053 16.819C76.3796 16.6139 76.6258 16.5215 76.9438 16.5215C77.1079 16.5215 77.2514 16.5421 77.3848 16.5831C77.5079 16.6241 77.6002 16.6651 77.6514 16.6959V15.3728C77.5386 15.3318 77.4155 15.3113 77.272 15.2908C77.1284 15.2703 76.9643 15.26 76.7797 15.26C76.0822 15.26 75.5079 15.4754 75.0668 15.9164C74.6258 16.3574 74.4002 16.9113 74.4002 17.5985V18.501H73.313V19.7523H74.4002V25.0139H75.9489V19.7523H78.2258V19.7523Z" fill="black" fill-opacity="0.8956"/>
<path d="M39.8359 15.92V25.0072H38.2564V17.8893H38.2359L35.4154 25.0072H34.3692L31.4769 17.8893H31.4564V25.0072H30V15.92H32.2564L34.8718 22.6585H34.9128L37.6718 15.92H39.8359Z" fill="black" fill-opacity="0.8956"/>
<rect x="0.5" y="0.5" width="89" height="31" rx="3.5" stroke="url(#paint0_linear_1602_27726)"/>
<defs>
<linearGradient id="paint0_linear_1602_27726" x1="45" y1="1" x2="45" y2="31" gradientUnits="userSpaceOnUse">
<stop offset="0.905762" stop-opacity="0.0578"/>
<stop offset="1" stop-opacity="0.1622"/>
</linearGradient>
</defs>
</svg>
