<svg width="90" height="32" viewBox="0 0 90 32" fill="none" xmlns="http://www.w3.org/2000/svg">
<rect x="0.5" y="0.5" width="89" height="31" rx="3.5" fill="black"/>
<path d="M15.5559 7H7V15.5608H15.5559V7Z" fill="#F25022"/>
<path d="M25.0001 7H16.4442V15.5608H25.0001V7Z" fill="#7FBA00"/>
<path d="M15.5559 16.4395H7V25.0002H15.5559V16.4395Z" fill="#00A4EF"/>
<path d="M25.0002 16.4395H16.4443V25.0002H25.0002V16.4395Z" fill="#FFB900"/>
<path d="M29.3086 12.5625L29.6523 12.0195C29.8841 12.1758 30.1146 12.2891 30.3438 12.3594C30.5729 12.4297 30.8346 12.4648 31.1289 12.4648C31.4648 12.4648 31.7396 12.3867 31.9531 12.2305C32.1667 12.0742 32.2734 11.8477 32.2734 11.5508C32.2734 11.2852 32.1836 11.0729 32.0039 10.9141C31.8242 10.7552 31.5273 10.6029 31.1133 10.457C30.5768 10.2721 30.181 10.0599 29.9258 9.82031C29.6706 9.57812 29.543 9.25781 29.543 8.85938C29.543 8.40104 29.7083 8.02734 30.0391 7.73828C30.3724 7.44922 30.8138 7.30469 31.3633 7.30469C31.6185 7.30469 31.8685 7.33464 32.1133 7.39453C32.3581 7.45182 32.6055 7.54297 32.8555 7.66797L32.5664 8.23438C32.3607 8.13021 32.1576 8.05339 31.957 8.00391C31.7565 7.95443 31.543 7.92969 31.3164 7.92969C30.9883 7.92969 30.7292 8.00651 30.5391 8.16016C30.349 8.3112 30.2539 8.52214 30.2539 8.79297C30.2539 9.02995 30.3411 9.21875 30.5156 9.35938C30.6901 9.5 30.9831 9.64323 31.3945 9.78906C31.9622 9.98438 32.3685 10.2083 32.6133 10.4609C32.8607 10.7135 32.9844 11.0547 32.9844 11.4844C32.9844 11.9453 32.8177 12.3294 32.4844 12.6367C32.1536 12.9414 31.6862 13.0938 31.082 13.0938C30.7487 13.0938 30.4375 13.0508 30.1484 12.9648C29.862 12.8789 29.582 12.7448 29.3086 12.5625ZM36.9922 12.7422C36.7969 12.8672 36.6016 12.957 36.4062 13.0117C36.2109 13.069 36.0013 13.0977 35.7773 13.0977C35.1914 13.0977 34.7135 12.918 34.3438 12.5586C33.974 12.1966 33.7891 11.6914 33.7891 11.043C33.7891 10.3711 33.9766 9.83073 34.3516 9.42188C34.7292 9.01042 35.2448 8.80469 35.8984 8.80469C36.1094 8.80469 36.3099 8.83073 36.5 8.88281C36.6901 8.93229 36.8815 9.01302 37.0742 9.125L36.7812 9.63281C36.6328 9.54427 36.487 9.48177 36.3438 9.44531C36.2005 9.40625 36.0469 9.38672 35.8828 9.38672C35.4375 9.38672 35.0951 9.53516 34.8555 9.83203C34.6185 10.1263 34.5 10.5052 34.5 10.9688C34.5 11.4688 34.6237 11.8516 34.8711 12.1172C35.1211 12.3828 35.4427 12.5156 35.8359 12.5156C35.9688 12.5156 36.1055 12.4961 36.2461 12.457C36.3893 12.4154 36.5365 12.3464 36.6875 12.25L36.9922 12.7422ZM40.8906 13H40.1992V12.3555H40.1836C40.043 12.6003 39.8685 12.7852 39.6602 12.9102C39.4518 13.0352 39.2096 13.0977 38.9336 13.0977C38.5482 13.0977 38.237 12.9857 38 12.7617C37.763 12.5378 37.6445 12.2422 37.6445 11.875C37.6445 11.5182 37.7643 11.2253 38.0039 10.9961C38.2435 10.7669 38.5885 10.6198 39.0391 10.5547L40.2031 10.3984V10.3047C40.2031 9.97396 40.1237 9.73568 39.9648 9.58984C39.8086 9.44401 39.5977 9.37109 39.332 9.37109C39.1211 9.37109 38.9154 9.41146 38.7148 9.49219C38.5143 9.57292 38.3242 9.69401 38.1445 9.85547L37.7656 9.43359C37.9974 9.22005 38.2448 9.0625 38.5078 8.96094C38.7734 8.85677 39.0638 8.80469 39.3789 8.80469C39.8789 8.80469 40.2552 8.93359 40.5078 9.19141C40.763 9.44922 40.8906 9.83594 40.8906 10.3516V13ZM40.2031 11.3281V10.9336L39.2266 11.0664C38.9271 11.1081 38.7031 11.1836 38.5547 11.293C38.4062 11.4023 38.332 11.5742 38.332 11.8086C38.332 12.0404 38.401 12.2201 38.5391 12.3477C38.6797 12.4753 38.8542 12.5391 39.0625 12.5391C39.4062 12.5391 39.6823 12.4258 39.8906 12.1992C40.099 11.9701 40.2031 11.6797 40.2031 11.3281ZM44.25 9.49609C44.1979 9.48047 44.1497 9.46875 44.1055 9.46094C44.0612 9.45312 44.0078 9.44922 43.9453 9.44922C43.6146 9.44922 43.3542 9.58984 43.1641 9.87109C42.974 10.1497 42.8789 10.5026 42.8789 10.9297V13H42.1836V8.90234H42.8789V9.71484H42.8945C42.9883 9.42578 43.1302 9.20703 43.3203 9.05859C43.513 8.90755 43.7357 8.83203 43.9883 8.83203C44.069 8.83203 44.138 8.83594 44.1953 8.84375C44.2552 8.85156 44.3099 8.86328 44.3594 8.87891L44.25 9.49609ZM45.4844 8.03516C45.3464 8.03516 45.2318 7.98958 45.1406 7.89844C45.0495 7.80729 45.0039 7.69661 45.0039 7.56641C45.0039 7.43099 45.0495 7.31901 45.1406 7.23047C45.2318 7.13932 45.3464 7.09375 45.4844 7.09375C45.6224 7.09375 45.737 7.13932 45.8281 7.23047C45.9219 7.31901 45.9688 7.43099 45.9688 7.56641C45.9688 7.69661 45.9219 7.80729 45.8281 7.89844C45.737 7.98958 45.6224 8.03516 45.4844 8.03516ZM45.8242 13H45.1289V8.90234H45.8242V13ZM50.1562 12.7422C49.9609 12.8672 49.7656 12.957 49.5703 13.0117C49.375 13.069 49.1654 13.0977 48.9414 13.0977C48.3555 13.0977 47.8776 12.918 47.5078 12.5586C47.138 12.1966 46.9531 11.6914 46.9531 11.043C46.9531 10.3711 47.1406 9.83073 47.5156 9.42188C47.8932 9.01042 48.4089 8.80469 49.0625 8.80469C49.2734 8.80469 49.474 8.83073 49.6641 8.88281C49.8542 8.93229 50.0456 9.01302 50.2383 9.125L49.9453 9.63281C49.7969 9.54427 49.651 9.48177 49.5078 9.44531C49.3646 9.40625 49.2109 9.38672 49.0469 9.38672C48.6016 9.38672 48.2591 9.53516 48.0195 9.83203C47.7826 10.1263 47.6641 10.5052 47.6641 10.9688C47.6641 11.4688 47.7878 11.8516 48.0352 12.1172C48.2852 12.3828 48.6068 12.5156 49 12.5156C49.1328 12.5156 49.2695 12.4961 49.4102 12.457C49.5534 12.4154 49.7005 12.3464 49.8516 12.25L50.1562 12.7422ZM54.0547 13H53.3633V12.3555H53.3477C53.207 12.6003 53.0326 12.7852 52.8242 12.9102C52.6159 13.0352 52.3737 13.0977 52.0977 13.0977C51.7122 13.0977 51.401 12.9857 51.1641 12.7617C50.9271 12.5378 50.8086 12.2422 50.8086 11.875C50.8086 11.5182 50.9284 11.2253 51.168 10.9961C51.4076 10.7669 51.7526 10.6198 52.2031 10.5547L53.3672 10.3984V10.3047C53.3672 9.97396 53.2878 9.73568 53.1289 9.58984C52.9727 9.44401 52.7617 9.37109 52.4961 9.37109C52.2852 9.37109 52.0794 9.41146 51.8789 9.49219C51.6784 9.57292 51.4883 9.69401 51.3086 9.85547L50.9297 9.43359C51.1615 9.22005 51.4089 9.0625 51.6719 8.96094C51.9375 8.85677 52.2279 8.80469 52.543 8.80469C53.043 8.80469 53.4193 8.93359 53.6719 9.19141C53.9271 9.44922 54.0547 9.83594 54.0547 10.3516V13ZM53.3672 11.3281V10.9336L52.3906 11.0664C52.0911 11.1081 51.8672 11.1836 51.7188 11.293C51.5703 11.4023 51.4961 11.5742 51.4961 11.8086C51.4961 12.0404 51.5651 12.2201 51.7031 12.3477C51.8438 12.4753 52.0182 12.5391 52.2266 12.5391C52.5703 12.5391 52.8464 12.4258 53.0547 12.1992C53.263 11.9701 53.3672 11.6797 53.3672 11.3281ZM55.3477 13V7.07812H56.043V13H55.3477ZM59.1328 13.0977C58.5208 13.0977 58.0326 12.9062 57.668 12.5234C57.306 12.138 57.125 11.6276 57.125 10.9922C57.125 10.3073 57.3125 9.77214 57.6875 9.38672C58.0625 9.0013 58.5742 8.80729 59.2227 8.80469C59.8372 8.80208 60.3177 8.99089 60.6641 9.37109C61.013 9.7487 61.1875 10.2682 61.1875 10.9297C61.1875 11.5885 61.0013 12.1146 60.6289 12.5078C60.2565 12.901 59.7578 13.0977 59.1328 13.0977ZM59.1797 12.5195C59.5964 12.5195 59.9154 12.3841 60.1367 12.1133C60.3607 11.8398 60.4727 11.4531 60.4727 10.9531C60.4727 10.4479 60.3607 10.0599 60.1367 9.78906C59.9128 9.51823 59.5938 9.38281 59.1797 9.38281C58.7656 9.38281 58.4375 9.52474 58.1953 9.80859C57.9557 10.0898 57.8359 10.4779 57.8359 10.9727C57.8359 11.4544 57.957 11.8333 58.1992 12.1094C58.4414 12.3828 58.7682 12.5195 59.1797 12.5195ZM67.293 12.3125C67.1419 12.5729 66.9492 12.7695 66.7148 12.9023C66.4831 13.0326 66.2096 13.0977 65.8945 13.0977C65.3789 13.0977 64.9661 12.9141 64.6562 12.5469C64.349 12.1797 64.1953 11.6797 64.1953 11.0469C64.1953 10.3672 64.3659 9.82422 64.707 9.41797C65.0482 9.00911 65.5026 8.80469 66.0703 8.80469C66.3516 8.80469 66.5938 8.85938 66.7969 8.96875C67 9.07812 67.1654 9.24349 67.293 9.46484H67.3086V7.07812H68.0039V13H67.3086V12.3125H67.293ZM64.9062 11.0117C64.9062 11.4805 65.0143 11.849 65.2305 12.1172C65.4466 12.3854 65.7357 12.5195 66.0977 12.5195C66.4622 12.5195 66.7552 12.3893 66.9766 12.1289C67.1979 11.8685 67.3086 11.5391 67.3086 11.1406V10.5547C67.3086 10.2266 67.2005 9.94922 66.9844 9.72266C66.7708 9.49609 66.5 9.38281 66.1719 9.38281C65.7786 9.38281 65.4688 9.52734 65.2422 9.81641C65.0182 10.1055 64.9062 10.5039 64.9062 11.0117ZM72.3047 13H71.6133V12.3555H71.5977C71.457 12.6003 71.2826 12.7852 71.0742 12.9102C70.8659 13.0352 70.6237 13.0977 70.3477 13.0977C69.9622 13.0977 69.651 12.9857 69.4141 12.7617C69.1771 12.5378 69.0586 12.2422 69.0586 11.875C69.0586 11.5182 69.1784 11.2253 69.418 10.9961C69.6576 10.7669 70.0026 10.6198 70.4531 10.5547L71.6172 10.3984V10.3047C71.6172 9.97396 71.5378 9.73568 71.3789 9.58984C71.2227 9.44401 71.0117 9.37109 70.7461 9.37109C70.5352 9.37109 70.3294 9.41146 70.1289 9.49219C69.9284 9.57292 69.7383 9.69401 69.5586 9.85547L69.1797 9.43359C69.4115 9.22005 69.6589 9.0625 69.9219 8.96094C70.1875 8.85677 70.4779 8.80469 70.793 8.80469C71.293 8.80469 71.6693 8.93359 71.9219 9.19141C72.1771 9.44922 72.3047 9.83594 72.3047 10.3516V13ZM71.6172 11.3281V10.9336L70.6406 11.0664C70.3411 11.1081 70.1172 11.1836 69.9688 11.293C69.8203 11.4023 69.7461 11.5742 69.7461 11.8086C69.7461 12.0404 69.8151 12.2201 69.9531 12.3477C70.0938 12.4753 70.2682 12.5391 70.4766 12.5391C70.8203 12.5391 71.0964 12.4258 71.3047 12.1992C71.513 11.9701 71.6172 11.6797 71.6172 11.3281Z" fill="white"/>
<path d="M41.1489 16.6123C41.1489 16.3559 41.2412 16.1507 41.4259 15.9764C41.6105 15.802 41.8258 15.72 42.0823 15.72C42.3489 15.72 42.5746 15.8123 42.7489 15.9866C42.9233 16.161 43.0156 16.3764 43.0156 16.6123C43.0156 16.8584 42.9233 17.0738 42.7387 17.2379C42.5541 17.4123 42.3387 17.4943 42.072 17.4943C41.8053 17.4943 41.59 17.4123 41.4053 17.2379C41.2412 17.0636 41.1489 16.8584 41.1489 16.6123ZM42.8412 25.002H41.313V18.4892H42.8412V25.002Z" fill="white"/>
<path d="M47.4975 23.8887C47.7231 23.8887 47.9795 23.8374 48.2565 23.7348C48.5334 23.6323 48.7795 23.4887 49.0154 23.3143V24.74C48.7693 24.8836 48.4924 24.9861 48.1847 25.0579C47.877 25.1297 47.5282 25.1707 47.159 25.1707C46.2052 25.1707 45.4257 24.863 44.8205 24.2579C44.2154 23.6528 43.918 22.8733 43.918 21.94C43.918 20.8938 44.2257 20.0323 44.8411 19.3553C45.4564 18.6784 46.318 18.34 47.4462 18.34C47.7334 18.34 48.0206 18.381 48.318 18.4528C48.6154 18.5246 48.8411 18.6169 49.0154 18.7092V20.1759C48.7795 20.0015 48.5334 19.8682 48.2872 19.7759C48.0411 19.6836 47.7847 19.6323 47.5282 19.6323C46.9231 19.6323 46.4411 19.8271 46.0616 20.2169C45.6923 20.6066 45.5077 21.14 45.5077 21.8066C45.5077 22.463 45.6821 22.9759 46.0411 23.3451C46.4 23.7143 46.8821 23.8887 47.4975 23.8887Z" fill="white"/>
<path d="M53.3738 18.39C53.4969 18.39 53.6097 18.4003 53.702 18.4105C53.7943 18.431 53.8866 18.4516 53.9482 18.4721V20.0208C53.8661 19.9592 53.7533 19.908 53.5995 19.8567C53.4456 19.8054 53.261 19.7746 53.0354 19.7746C52.6559 19.7746 52.3379 19.9285 52.0815 20.2464C51.8251 20.5644 51.6918 21.0464 51.6918 21.7131V25.0054H50.1636V18.4926H51.6918V19.5182H51.7123C51.8559 19.1592 52.061 18.8823 52.3482 18.6874C52.6354 18.4926 52.9738 18.39 53.3738 18.39Z" fill="white"/>
<path d="M54.0308 21.8477C54.0308 20.7707 54.3385 19.9195 54.9436 19.2836C55.5487 18.6579 56.4 18.34 57.4769 18.34C58.4923 18.34 59.2923 18.6477 59.8667 19.2528C60.441 19.8579 60.7282 20.6784 60.7282 21.7041C60.7282 22.7605 60.4205 23.6015 59.8154 24.2271C59.2102 24.8528 58.3795 25.1605 57.3333 25.1605C56.3282 25.1605 55.5179 24.863 54.9333 24.2682C54.3282 23.6836 54.0308 22.8733 54.0308 21.8477ZM55.6308 21.7964C55.6308 22.4733 55.7846 22.9964 56.0923 23.3553C56.4 23.7143 56.841 23.8887 57.4154 23.8887C57.9692 23.8887 58.4 23.7143 58.6872 23.3553C58.9743 22.9964 59.1282 22.463 59.1282 21.7554C59.1282 21.0579 58.9743 20.5246 58.6769 20.1656C58.3795 19.8066 57.9487 19.6323 57.4051 19.6323C56.841 19.6323 56.4102 19.8169 56.0923 20.1964C55.7846 20.5759 55.6308 21.0989 55.6308 21.7964Z" fill="white"/>
<path d="M63.0053 20.2069C63.0053 20.4223 63.0771 20.5966 63.2104 20.7197C63.354 20.8428 63.6617 20.9966 64.1335 21.1915C64.7489 21.4377 65.1796 21.7146 65.4258 22.0223C65.6719 22.33 65.795 22.6992 65.795 23.13C65.795 23.7454 65.5591 24.2377 65.0873 24.6069C64.6155 24.9761 63.9796 25.1607 63.1796 25.1607C62.913 25.1607 62.6155 25.13 62.2873 25.0582C61.9591 24.9966 61.6822 24.9043 61.4565 24.812V23.3043C61.7335 23.4992 62.0309 23.653 62.3591 23.7659C62.6771 23.8787 62.9745 23.9402 63.2309 23.9402C63.5796 23.9402 63.836 23.8889 64.0001 23.7966C64.1642 23.7043 64.2463 23.5402 64.2463 23.3043C64.2463 23.0889 64.1642 22.9146 63.9899 22.771C63.8155 22.6274 63.4976 22.453 63.0155 22.2684C62.4514 22.0325 62.0514 21.7659 61.8155 21.4684C61.5796 21.171 61.4565 20.7915 61.4565 20.3402C61.4565 19.7556 61.6924 19.2735 62.154 18.8941C62.6155 18.5146 63.2206 18.33 63.9694 18.33C64.195 18.33 64.4514 18.3505 64.7386 18.4018C65.0258 18.453 65.2617 18.5146 65.4463 18.5966V20.053C65.2412 19.9197 65.0053 19.8069 64.7386 19.7043C64.4719 19.612 64.195 19.5607 63.9386 19.5607C63.6514 19.5607 63.4155 19.6223 63.2617 19.7351C63.0873 19.8479 63.0053 20.012 63.0053 20.2069Z" fill="white"/>
<path d="M66.4717 21.8477C66.4717 20.7707 66.7794 19.9195 67.3845 19.2836C67.9896 18.6579 68.8409 18.34 69.9178 18.34C70.9332 18.34 71.7332 18.6477 72.3076 19.2528C72.8819 19.8579 73.1691 20.6784 73.1691 21.7041C73.1691 22.7605 72.8614 23.6015 72.2563 24.2271C71.6512 24.8528 70.8204 25.1605 69.7742 25.1605C68.7691 25.1605 67.9589 24.863 67.3742 24.2682C66.7691 23.6836 66.4717 22.8733 66.4717 21.8477ZM68.0614 21.7964C68.0614 22.4733 68.2153 22.9964 68.523 23.3554C68.8307 23.7143 69.2717 23.8887 69.846 23.8887C70.3999 23.8887 70.8307 23.7143 71.1178 23.3554C71.405 22.9964 71.5589 22.463 71.5589 21.7554C71.5589 21.0579 71.405 20.5246 71.1076 20.1656C70.8101 19.8066 70.3794 19.6323 69.8358 19.6323C69.2717 19.6323 68.8409 19.8169 68.523 20.1964C68.2153 20.5759 68.0614 21.0989 68.0614 21.7964Z" fill="white"/>
<path d="M78.2258 19.7523V23.0959C78.2258 23.7933 78.3899 24.3062 78.7079 24.6549C79.0258 25.0036 79.5181 25.1677 80.1643 25.1677C80.3797 25.1677 80.6053 25.1472 80.8309 25.0959C81.0566 25.0446 81.2207 25.0036 81.313 24.9421V23.6703C81.2207 23.7318 81.1079 23.7831 80.9848 23.8241C80.8617 23.8651 80.7489 23.8857 80.6668 23.8857C80.3591 23.8857 80.1232 23.8036 79.9797 23.6395C79.8361 23.4754 79.7643 23.1882 79.7643 22.7882V19.7421H81.3232V18.4908H79.7745V16.5626L78.2361 17.0344V18.501H75.9489V17.7113C75.9489 17.3215 76.0309 17.0241 76.2053 16.819C76.3796 16.6139 76.6258 16.5215 76.9438 16.5215C77.1079 16.5215 77.2514 16.5421 77.3848 16.5831C77.5079 16.6241 77.6002 16.6651 77.6514 16.6959V15.3728C77.5386 15.3318 77.4155 15.3113 77.272 15.2908C77.1284 15.2703 76.9643 15.26 76.7797 15.26C76.0822 15.26 75.5079 15.4754 75.0668 15.9164C74.6258 16.3574 74.4002 16.9113 74.4002 17.5985V18.501H73.313V19.7523H74.4002V25.0139H75.9489V19.7523H78.2258V19.7523Z" fill="white"/>
<path d="M39.8359 15.92V25.0072H38.2564V17.8893H38.2359L35.4154 25.0072H34.3692L31.4769 17.8893H31.4564V25.0072H30V15.92H32.2564L34.8718 22.6585H34.9128L37.6718 15.92H39.8359Z" fill="white"/>
<rect x="0.5" y="0.5" width="89" height="31" rx="3.5" stroke="black"/>
</svg>
