<svg width="88" height="32" viewBox="0 0 88 32" fill="none" xmlns="http://www.w3.org/2000/svg">
<rect x="0.5" y="0.5" width="86.9975" height="31" rx="3.5" fill="white" fill-opacity="0.7"/>
<path d="M15.56 6.99988H7V15.5606H15.56V6.99988Z" fill="#F25022"/>
<path d="M25.0021 6.99988H16.4421V15.5606H25.0021V6.99988Z" fill="#7FBA00"/>
<path d="M15.56 16.4392H7V24.9999H15.56V16.4392Z" fill="#00A4EF"/>
<path d="M25.0022 16.4392H16.4422V24.9999H25.0022V16.4392Z" fill="#FFB900"/>
<path d="M32.4965 18.76L31.7605 18.688C31.7605 19.304 31.6485 20.024 31.5045 20.656C31.2885 21.64 30.6485 23.776 29.7365 24.992L30.3845 25.256C31.2885 23.792 31.8645 21.8 32.1365 20.68C32.2405 20.184 32.3525 19.528 32.4005 19.24C32.4325 19.08 32.4645 18.912 32.4965 18.76ZM35.2565 19.616L34.6725 19.88C35.2325 20.536 35.8565 21.952 36.0965 22.776L36.7125 22.48C36.4485 21.736 35.7525 20.264 35.2565 19.616ZM29.6165 20.52L29.6885 21.208C29.8885 21.176 30.2245 21.136 30.4085 21.112C30.8965 21.064 32.3925 20.888 32.9285 20.888C33.4405 20.888 33.7765 21.024 33.7765 21.752C33.7765 22.616 33.6565 23.664 33.4005 24.2C33.2325 24.552 32.9925 24.616 32.6965 24.616C32.4725 24.616 32.0565 24.552 31.7205 24.448L31.8245 25.12C32.0805 25.176 32.4565 25.232 32.7685 25.232C33.2805 25.232 33.6805 25.104 33.9365 24.568C34.2645 23.904 34.3925 22.632 34.3925 21.68C34.3925 20.592 33.8085 20.32 33.0965 20.32C32.5525 20.32 30.9285 20.504 30.3365 20.52C30.0805 20.528 29.8725 20.528 29.6165 20.52ZM39.6725 18.728L39.5125 19.344C40.1285 19.504 41.8565 19.856 42.6245 19.96L42.7765 19.352C42.0645 19.28 40.3605 18.952 39.6725 18.728ZM39.4965 20.192L38.8245 20.104C38.7765 20.936 38.5765 22.616 38.4165 23.344L39.0165 23.488C39.0645 23.36 39.1365 23.232 39.2565 23.096C39.8165 22.416 40.6805 22.024 41.7285 22.024C42.5445 22.024 43.1445 22.48 43.1445 23.112C43.1445 24.208 41.9125 24.936 39.3845 24.632L39.5765 25.28C42.5445 25.528 43.8165 24.56 43.8165 23.136C43.8165 22.192 43.0005 21.456 41.7765 21.456C40.8165 21.456 39.9365 21.768 39.1685 22.44C39.2485 21.92 39.3925 20.736 39.4965 20.192ZM46.8165 18.768V19.376H49.0805V18.768H46.8165ZM48.7765 18.768C48.7765 20.272 49.0405 23.68 52.2405 25.616C52.3525 25.472 52.5925 25.216 52.7285 25.112C49.5685 23.24 49.3925 20.2 49.3925 18.768H48.7765ZM48.5525 20.336C48.0645 22.6 47.0645 24.216 45.2885 25.144C45.4485 25.256 45.7205 25.504 45.8325 25.632C47.6005 24.592 48.6565 22.904 49.2325 20.464L48.5525 20.336ZM59.3765 18.296C58.1605 18.672 55.8245 18.888 53.9205 18.976C53.9765 19.112 54.0485 19.352 54.0645 19.504C56.0085 19.424 58.3765 19.208 59.8245 18.784L59.3765 18.296ZM53.9285 20.552V21.128H60.1685V20.552H53.9285ZM53.3925 22.432V23.016H60.6165V22.432H53.3925ZM56.6965 19.144V24.8C56.6965 24.968 56.6325 25.024 56.4485 25.024C56.2725 25.032 55.6325 25.04 54.9685 25.016C55.0645 25.176 55.1765 25.448 55.2165 25.616C56.0645 25.624 56.5845 25.608 56.8885 25.512C57.1925 25.416 57.3205 25.232 57.3205 24.808V19.144H56.6965Z" fill="black" fill-opacity="0.8956"/>
<path d="M40.1495 8.55974C40.1495 8.30341 40.2418 8.09835 40.4264 7.92405C40.6111 7.74975 40.8264 7.66772 41.0828 7.66772C41.3495 7.66772 41.5752 7.76 41.7495 7.9343C41.9239 8.1086 42.0162 8.32392 42.0162 8.55974C42.0162 8.80581 41.9239 9.02112 41.7393 9.18517C41.5546 9.35947 41.3393 9.4415 41.0726 9.4415C40.8059 9.4415 40.5905 9.35947 40.4059 9.18517C40.2418 9.01087 40.1495 8.80581 40.1495 8.55974ZM41.8418 16.9467H40.3136V10.436H41.8418V16.9467Z" fill="black" fill-opacity="0.8956"/>
<path d="M46.4979 15.8335C46.7235 15.8335 46.9799 15.7822 47.2568 15.6797C47.5338 15.5772 47.7799 15.4336 48.0158 15.2593V16.6845C47.7697 16.8281 47.4927 16.9306 47.185 17.0024C46.8773 17.0741 46.5286 17.1151 46.1594 17.1151C45.2055 17.1151 44.4261 16.8075 43.8209 16.2026C43.2158 15.5977 42.9184 14.8185 42.9184 13.8854C42.9184 12.8396 43.226 11.9784 43.8414 11.3017C44.4568 10.625 45.3184 10.2866 46.4466 10.2866C46.7338 10.2866 47.0209 10.3276 47.3184 10.3994C47.6158 10.4712 47.8415 10.5635 48.0158 10.6557V12.1219C47.7799 11.9476 47.5338 11.8143 47.2876 11.722C47.0414 11.6298 46.785 11.5785 46.5286 11.5785C45.9235 11.5785 45.4414 11.7733 45.062 12.1629C44.6927 12.5525 44.5081 13.0857 44.5081 13.7521C44.5081 14.4083 44.6825 14.921 45.0414 15.2901C45.4004 15.6592 45.8825 15.8335 46.4979 15.8335Z" fill="black" fill-opacity="0.8956"/>
<path d="M52.3737 10.3367C52.4968 10.3367 52.6096 10.3469 52.7019 10.3572C52.7942 10.3777 52.8866 10.3982 52.9481 10.4187V11.9669C52.866 11.9054 52.7532 11.8541 52.5994 11.8029C52.4455 11.7516 52.2609 11.7208 52.0353 11.7208C51.6558 11.7208 51.3378 11.8746 51.0814 12.1925C50.825 12.5103 50.6917 12.9922 50.6917 13.6586V16.9499H49.1635V10.4392H50.6917V11.4645H50.7122C50.8558 11.1056 51.0609 10.8288 51.3481 10.634C51.6353 10.4392 51.9737 10.3367 52.3737 10.3367Z" fill="black" fill-opacity="0.8956"/>
<path d="M53.0304 13.7932C53.0304 12.7166 53.3381 11.8656 53.9432 11.2299C54.5483 10.6045 55.3996 10.2866 56.4765 10.2866C57.4919 10.2866 58.2919 10.5942 58.8663 11.1991C59.4406 11.8041 59.7278 12.6243 59.7278 13.6496C59.7278 14.7057 59.4201 15.5464 58.815 16.1719C58.2099 16.7973 57.3791 17.1049 56.3329 17.1049C55.3278 17.1049 54.5176 16.8075 53.9329 16.2129C53.3278 15.6284 53.0304 14.8185 53.0304 13.7932ZM54.6304 13.7419C54.6304 14.4186 54.7842 14.9415 55.0919 15.3003C55.3996 15.6592 55.8406 15.8335 56.415 15.8335C56.9688 15.8335 57.3996 15.6592 57.6868 15.3003C57.974 14.9415 58.1278 14.4083 58.1278 13.7009C58.1278 13.0037 57.974 12.4705 57.6765 12.1117C57.3791 11.7528 56.9483 11.5785 56.4047 11.5785C55.8406 11.5785 55.4099 11.7631 55.0919 12.1424C54.7842 12.5218 54.6304 13.0447 54.6304 13.7419Z" fill="black" fill-opacity="0.8956"/>
<path d="M62.0043 12.153C62.0043 12.3684 62.0761 12.5427 62.2095 12.6657C62.353 12.7887 62.6607 12.9425 63.1325 13.1373C63.7479 13.3834 64.1787 13.6602 64.4248 13.9678C64.671 14.2754 64.7941 14.6445 64.7941 15.0752C64.7941 15.6903 64.5582 16.1825 64.0864 16.5516C63.6146 16.9207 62.9787 17.1053 62.1787 17.1053C61.912 17.1053 61.6146 17.0745 61.2864 17.0027C60.9582 16.9412 60.6812 16.8489 60.4556 16.7567V15.2495C60.7325 15.4443 61.03 15.5981 61.3582 15.7108C61.6761 15.8236 61.9736 15.8851 62.23 15.8851C62.5787 15.8851 62.8351 15.8339 62.9992 15.7416C63.1633 15.6493 63.2453 15.4853 63.2453 15.2495C63.2453 15.0341 63.1633 14.8598 62.9889 14.7163C62.8146 14.5728 62.4966 14.3985 62.0146 14.2139C61.4505 13.9781 61.0505 13.7115 60.8146 13.4142C60.5787 13.1168 60.4556 12.7375 60.4556 12.2863C60.4556 11.7019 60.6915 11.22 61.153 10.8407C61.6146 10.4613 62.2197 10.2767 62.9684 10.2767C63.1941 10.2767 63.4505 10.2972 63.7377 10.3485C64.0248 10.3998 64.2607 10.4613 64.4453 10.5433V11.9992C64.2402 11.866 64.0043 11.7532 63.7377 11.6506C63.471 11.5584 63.1941 11.5071 62.9377 11.5071C62.6505 11.5071 62.4146 11.5686 62.2607 11.6814C62.0864 11.7942 62.0043 11.9582 62.0043 12.153Z" fill="black" fill-opacity="0.8956"/>
<path d="M65.4704 13.7932C65.4704 12.7166 65.778 11.8656 66.3832 11.2299C66.9883 10.6045 67.8396 10.2866 68.9165 10.2866C69.9319 10.2866 70.7319 10.5942 71.3063 11.1991C71.8806 11.8041 72.1678 12.6243 72.1678 13.6496C72.1678 14.7057 71.8601 15.5464 71.255 16.1719C70.6498 16.7973 69.8191 17.1049 68.7729 17.1049C67.7678 17.1049 66.9575 16.8075 66.3729 16.2129C65.7678 15.6284 65.4704 14.8185 65.4704 13.7932ZM67.0601 13.7419C67.0601 14.4186 67.2139 14.9415 67.5216 15.3004C67.8293 15.6592 68.2704 15.8335 68.8447 15.8335C69.3986 15.8335 69.8293 15.6592 70.1165 15.3004C70.4037 14.9415 70.5575 14.4083 70.5575 13.7009C70.5575 13.0037 70.4037 12.4705 70.1063 12.1117C69.8088 11.7528 69.3781 11.5785 68.8345 11.5785C68.2704 11.5785 67.8396 11.7631 67.5216 12.1424C67.2139 12.5218 67.0601 13.0447 67.0601 13.7419Z" fill="black" fill-opacity="0.8956"/>
<path d="M77.224 11.6986V15.0411C77.224 15.7383 77.3881 16.2509 77.706 16.5995C78.024 16.9481 78.5163 17.1122 79.1624 17.1122C79.3778 17.1122 79.6035 17.0917 79.8291 17.0404C80.0547 16.9891 80.2188 16.9481 80.3112 16.8866V15.6152C80.2188 15.6768 80.106 15.728 79.983 15.769C79.8599 15.8101 79.747 15.8306 79.665 15.8306C79.3573 15.8306 79.1214 15.7485 78.9778 15.5845C78.8342 15.4204 78.7624 15.1334 78.7624 14.7335V11.6883H80.3214V10.4375H78.7727V8.5099L77.2342 8.98154V10.4477H74.947V9.65824C74.947 9.26862 75.0291 8.97128 75.2035 8.76622C75.3778 8.56116 75.624 8.46889 75.9419 8.46889C76.106 8.46889 76.2496 8.48939 76.3829 8.5304C76.506 8.57142 76.5983 8.61243 76.6496 8.64319V7.32055C76.5368 7.27953 76.4137 7.25903 76.2701 7.23852C76.1265 7.21802 75.9624 7.20776 75.7778 7.20776C75.0804 7.20776 74.506 7.42308 74.065 7.86396C73.624 8.30484 73.3983 8.8585 73.3983 9.54545V10.4477H72.3112V11.6986H73.3983V16.9584H74.947V11.6986H77.224V11.6986Z" fill="black" fill-opacity="0.8956"/>
<path d="M38.8373 7.86743V16.9516H37.2578V9.83602H37.2373L34.4168 16.9516H33.3707L30.4783 9.83602H30.4578V16.9516H29.0014V7.86743H31.2578L33.8732 14.6037H33.9142L36.6732 7.86743H38.8373Z" fill="black" fill-opacity="0.8956"/>
<rect x="0.5" y="0.5" width="86.9975" height="31" rx="3.5" stroke="url(#paint0_linear_1634_29699)"/>
<defs>
<linearGradient id="paint0_linear_1634_29699" x1="43.9988" y1="1" x2="43.9988" y2="31" gradientUnits="userSpaceOnUse">
<stop offset="0.905762" stop-opacity="0.0578"/>
<stop offset="1" stop-opacity="0.1622"/>
</linearGradient>
</defs>
</svg>
