<svg width="88" height="32" viewBox="0 0 88 32" fill="none" xmlns="http://www.w3.org/2000/svg">
<rect x="0.5" y="0.5" width="87.0005" height="31" rx="3.5" fill="white"/>
<path d="M15.56 6.99988H7V15.5606H15.56V6.99988Z" fill="#F25022"/>
<path d="M25.0021 6.99988H16.4421V15.5606H25.0021V6.99988Z" fill="#7FBA00"/>
<path d="M15.56 16.4392H7V24.9999H15.56V16.4392Z" fill="#00A4EF"/>
<path d="M25.0022 16.4392H16.4422V24.9999H25.0022V16.4392Z" fill="#FFB900"/>
<path d="M29.6021 23.0234V22.4883H31.7349V23.0234H29.6021ZM36.3951 23.3008C36.3951 23.8555 36.257 24.2891 35.981 24.6016C35.6737 24.9349 35.2284 25.1016 34.6451 25.1016C34.0487 25.1016 33.5995 24.9414 33.2974 24.6211C33.0214 24.3112 32.8833 23.875 32.8833 23.3125V19.0781H33.5162V23.1992C33.5162 24.0872 33.8925 24.5312 34.6451 24.5312C35.382 24.5312 35.7505 24.1302 35.7505 23.3281C35.7505 23.0339 35.6724 22.724 35.5162 22.3984C35.3599 22.0703 35.2818 21.8281 35.2818 21.6719C35.2818 21.3203 35.5305 21.0651 36.0279 20.9062L36.3287 21.4336C36.0839 21.5247 35.9615 21.638 35.9615 21.7734C35.9615 21.8411 36.0331 22.0365 36.1763 22.3594C36.3221 22.6797 36.3951 22.9935 36.3951 23.3008ZM38.5474 21.4453C38.438 21.4453 38.3378 21.4661 38.2466 21.5078C38.1555 21.5469 38.0773 21.6016 38.0122 21.6719C37.9471 21.7396 37.8964 21.819 37.8599 21.9102C37.8234 21.9987 37.8052 22.0938 37.8052 22.1953C37.8052 22.2656 37.8091 22.332 37.8169 22.3945C37.8247 22.4544 37.8469 22.5586 37.8833 22.707L37.2349 22.8203C37.1932 22.638 37.1685 22.5091 37.1607 22.4336C37.1529 22.3581 37.149 22.2786 37.149 22.1953C37.149 22.0026 37.1828 21.8268 37.2505 21.668C37.3208 21.5091 37.4172 21.3737 37.5396 21.2617C37.6646 21.1471 37.8117 21.0599 37.981 21C38.1529 20.9375 38.3417 20.9062 38.5474 20.9062C38.7531 20.9062 38.9406 20.9375 39.1099 21C39.2792 21.0599 39.425 21.1471 39.5474 21.2617C39.6698 21.3763 39.7648 21.5156 39.8326 21.6797C39.9003 21.8411 39.9341 22.0234 39.9341 22.2266C39.9341 22.401 39.9185 22.5508 39.8872 22.6758C39.8586 22.8008 39.826 22.9076 39.7896 22.9961C40.2193 23.1003 40.5422 23.3151 40.7583 23.6406C40.9771 23.9661 41.0865 24.3828 41.0865 24.8906C41.0865 25.1979 41.0409 25.474 40.9497 25.7188C40.8586 25.9661 40.7271 26.1758 40.5552 26.3477C40.3859 26.5195 40.1776 26.651 39.9302 26.7422C39.6854 26.8359 39.4068 26.8828 39.0943 26.8828C38.7922 26.8828 38.5201 26.8385 38.2779 26.75C38.0383 26.6615 37.8339 26.5339 37.6646 26.3672C37.4979 26.2005 37.3703 25.9974 37.2818 25.7578C37.1932 25.5208 37.149 25.2526 37.149 24.9531C37.149 24.6302 37.1945 24.3438 37.2857 24.0938C37.3768 23.8411 37.5083 23.6289 37.6802 23.457C37.8547 23.2852 38.0682 23.1549 38.3208 23.0664C38.5734 22.9753 38.8612 22.9297 39.1841 22.9297C39.2206 22.8281 39.2492 22.7266 39.2701 22.625C39.2909 22.5234 39.3013 22.4036 39.3013 22.2656C39.3013 22.1328 39.2818 22.0156 39.2427 21.9141C39.2063 21.8099 39.1542 21.724 39.0865 21.6562C39.0214 21.5859 38.9419 21.5339 38.8482 21.5C38.757 21.4635 38.6568 21.4453 38.5474 21.4453ZM39.1412 23.4688C38.9146 23.4688 38.7167 23.5039 38.5474 23.5742C38.3807 23.6419 38.2427 23.7396 38.1333 23.8672C38.024 23.9948 37.9419 24.1484 37.8872 24.3281C37.8326 24.5078 37.8052 24.7083 37.8052 24.9297C37.8052 25.1458 37.8326 25.3411 37.8872 25.5156C37.9445 25.6901 38.0292 25.8385 38.1412 25.9609C38.2531 26.0833 38.3925 26.1771 38.5591 26.2422C38.7258 26.3099 38.9198 26.3438 39.1412 26.3438C39.5552 26.3438 39.8729 26.2292 40.0943 26C40.3182 25.7708 40.4302 25.4089 40.4302 24.9141C40.4302 24.4141 40.3182 24.0482 40.0943 23.8164C39.8729 23.5846 39.5552 23.4688 39.1412 23.4688ZM45.0552 23.7109C45.0552 23.9375 45.0109 24.1367 44.9224 24.3086C44.8339 24.4805 44.7154 24.6237 44.5669 24.7383C44.4185 24.8529 44.2466 24.9401 44.0513 25C43.856 25.0573 43.6529 25.0859 43.4419 25.0859C43.231 25.0859 43.0279 25.0573 42.8326 25C42.6398 24.9401 42.4693 24.8529 42.3208 24.7383C42.1724 24.6237 42.0539 24.4805 41.9654 24.3086C41.8794 24.1367 41.8365 23.9375 41.8365 23.7109C41.8365 23.4635 41.8885 23.2357 41.9927 23.0273L42.6021 23.2422C42.524 23.388 42.4849 23.5495 42.4849 23.7266C42.4849 23.8672 42.5096 23.9896 42.5591 24.0938C42.6112 24.1953 42.6802 24.2799 42.7662 24.3477C42.8547 24.4154 42.9563 24.4661 43.0708 24.5C43.188 24.5312 43.3117 24.5469 43.4419 24.5469C43.5721 24.5469 43.6958 24.5312 43.813 24.5C43.9302 24.4661 44.0318 24.4154 44.1177 24.3477C44.2063 24.2799 44.2766 24.1953 44.3287 24.0938C44.3807 23.9896 44.4068 23.8672 44.4068 23.7266C44.4068 23.6042 44.3925 23.4961 44.3638 23.4023C44.3352 23.306 44.2948 23.2148 44.2427 23.1289C44.1906 23.043 44.1268 22.9596 44.0513 22.8789C43.9784 22.7956 43.8964 22.7057 43.8052 22.6094C43.6646 22.4635 43.5513 22.3346 43.4654 22.2227C43.382 22.1081 43.3156 21.9935 43.2662 21.8789C43.2167 21.7617 43.1815 21.6354 43.1607 21.5C43.1425 21.362 43.1294 21.1953 43.1216 21H43.7622C43.7648 21.1432 43.7753 21.2695 43.7935 21.3789C43.8117 21.4883 43.8417 21.5898 43.8833 21.6836C43.925 21.7773 43.9797 21.8698 44.0474 21.9609C44.1177 22.0495 44.205 22.1458 44.3091 22.25C44.4237 22.3646 44.5266 22.4753 44.6177 22.582C44.7115 22.6888 44.7896 22.7995 44.8521 22.9141C44.9172 23.026 44.9667 23.1471 45.0005 23.2773C45.037 23.4049 45.0552 23.5495 45.0552 23.7109ZM49.5865 23.0625C49.5865 23.6615 49.4263 24.1432 49.106 24.5078C48.7622 24.8984 48.2844 25.0938 47.6724 25.0938C47.076 25.0938 46.6112 24.9076 46.2779 24.5352C45.9628 24.181 45.8052 23.7109 45.8052 23.125V20.3125C45.8052 19.4323 46.2557 18.9922 47.1568 18.9922C47.3234 18.9922 47.5591 19.0378 47.8638 19.1289C48.1711 19.2201 48.3938 19.2656 48.5318 19.2656C48.7453 19.2656 49.0005 19.1745 49.2974 18.9922L49.5865 19.4336C49.2453 19.681 48.8977 19.8047 48.5435 19.8047C48.3664 19.8047 48.1177 19.7591 47.7974 19.668C47.4797 19.5768 47.2622 19.5312 47.1451 19.5312C46.8846 19.5312 46.705 19.5872 46.606 19.6992C46.5096 19.8086 46.4615 19.9935 46.4615 20.2539V21.6055C46.8156 21.2956 47.2505 21.1406 47.7662 21.1406C48.3755 21.1406 48.8391 21.3242 49.1568 21.6914C49.4432 22.0247 49.5865 22.4818 49.5865 23.0625ZM48.9302 23.0859C48.9302 22.1484 48.5266 21.6797 47.7193 21.6797C47.2818 21.6797 46.955 21.8216 46.7388 22.1055C46.5539 22.3503 46.4615 22.6823 46.4615 23.1016C46.4615 23.513 46.5578 23.8477 46.7505 24.1055C46.9719 24.4049 47.2948 24.5547 47.7193 24.5547C48.5266 24.5547 48.9302 24.0651 48.9302 23.0859ZM56.313 23.125C56.313 23.4167 56.2714 23.6836 56.188 23.9258C56.1073 24.1654 55.9875 24.3724 55.8287 24.5469C55.6698 24.7188 55.4745 24.8529 55.2427 24.9492C55.0109 25.0456 54.7453 25.0938 54.4458 25.0938C54.1412 25.0938 53.869 25.0443 53.6294 24.9453C53.3925 24.8464 53.1919 24.707 53.0279 24.5273C52.8664 24.3477 52.7427 24.1341 52.6568 23.8867C52.5734 23.6367 52.5318 23.362 52.5318 23.0625C52.5318 22.7682 52.5695 22.5026 52.6451 22.2656C52.7232 22.0286 52.8378 21.8268 52.9888 21.6602C53.1425 21.4935 53.3326 21.3659 53.5591 21.2773C53.7857 21.1862 54.05 21.1406 54.3521 21.1406C54.8651 21.1406 55.3 21.2956 55.6568 21.6055V20.6836C55.6568 20.3242 55.5643 20.043 55.3794 19.8398C55.1971 19.6341 54.9302 19.5312 54.5787 19.5312C54.451 19.5312 54.3313 19.5508 54.2193 19.5898C54.1073 19.6289 54.0083 19.6875 53.9224 19.7656C53.8391 19.8411 53.7727 19.9362 53.7232 20.0508C53.6763 20.1654 53.6529 20.2969 53.6529 20.4453H53.0044C53.0044 20.224 53.0461 20.0247 53.1294 19.8477C53.2154 19.668 53.33 19.5156 53.4732 19.3906C53.619 19.263 53.7857 19.1654 53.9732 19.0977C54.1633 19.0273 54.3625 18.9922 54.5708 18.9922C54.8365 18.9922 55.076 19.0326 55.2896 19.1133C55.5057 19.1914 55.6893 19.306 55.8404 19.457C55.9914 19.6081 56.1073 19.7917 56.188 20.0078C56.2714 20.224 56.313 20.4688 56.313 20.7422V23.125ZM55.6568 23.1016C55.6568 22.8932 55.632 22.7018 55.5826 22.5273C55.5331 22.3529 55.4576 22.2031 55.356 22.0781C55.2544 21.9531 55.1242 21.8555 54.9654 21.7852C54.8065 21.7148 54.6177 21.6797 54.399 21.6797C53.5917 21.6797 53.188 22.1484 53.188 23.0859C53.188 24.0651 53.5917 24.5547 54.399 24.5547C54.6125 24.5547 54.7974 24.5169 54.9537 24.4414C55.1125 24.3659 55.244 24.263 55.3482 24.1328C55.4523 24 55.5292 23.8464 55.5787 23.6719C55.6307 23.4948 55.6568 23.3047 55.6568 23.1016ZM61.1919 23.0938C61.1919 23.9479 60.8859 24.6146 60.274 25.0938L59.8169 24.6445C60.2961 24.2773 60.5357 23.7422 60.5357 23.0391C60.5357 22.5938 60.4133 22.2227 60.1685 21.9258C59.9055 21.6055 59.5552 21.4453 59.1177 21.4453C58.6802 21.4453 58.3326 21.6055 58.0747 21.9258C57.8378 22.2201 57.7193 22.5911 57.7193 23.0391C57.7193 23.7422 57.9589 24.2773 58.438 24.6445L57.981 25.0938C57.369 24.6146 57.063 23.9479 57.063 23.0938C57.063 22.4427 57.244 21.9193 57.606 21.5234C57.981 21.112 58.4901 20.9062 59.1333 20.9062C59.7766 20.9062 60.2831 21.112 60.6529 21.5234C61.0122 21.9193 61.1919 22.4427 61.1919 23.0938ZM66.8287 26.3945L66.4224 26.8828C65.4953 26.2266 64.4758 25.8984 63.3638 25.8984C62.8039 25.8984 62.3313 26.0625 61.9458 26.3906V25.7344C62.3495 25.4792 62.8273 25.3516 63.3794 25.3516C63.1607 25.2344 62.9693 25.0846 62.8052 24.9023C62.6412 24.7201 62.5044 24.5182 62.3951 24.2969C62.2883 24.0755 62.2076 23.8411 62.1529 23.5938C62.0982 23.3464 62.0708 23.099 62.0708 22.8516C62.0708 22.5286 62.106 22.2461 62.1763 22.0039C62.2492 21.7591 62.3508 21.556 62.481 21.3945C62.6112 21.2305 62.7675 21.1081 62.9497 21.0273C63.132 20.9466 63.3339 20.9062 63.5552 20.9062C63.6776 20.9062 63.7974 20.9258 63.9146 20.9648C64.0318 21.0039 64.1412 21.0599 64.2427 21.1328C64.3469 21.2031 64.4393 21.2891 64.5201 21.3906C64.6034 21.4896 64.6724 21.6003 64.7271 21.7227C64.7818 21.6003 64.8495 21.4896 64.9302 21.3906C65.0135 21.2891 65.106 21.2031 65.2076 21.1328C65.3117 21.0599 65.4211 21.0039 65.5357 20.9648C65.6529 20.9258 65.7714 20.9062 65.8912 20.9062C66.1125 20.9062 66.3143 20.9466 66.4966 21.0273C66.6789 21.1081 66.8352 21.2305 66.9654 21.3945C67.0956 21.556 67.1958 21.7591 67.2662 22.0039C67.3391 22.2461 67.3755 22.5286 67.3755 22.8516C67.3755 22.9557 67.3703 23.0664 67.3599 23.1836C67.3495 23.2982 67.3339 23.4128 67.313 23.5273C67.2948 23.6393 67.2714 23.7461 67.2427 23.8477C67.2141 23.9492 67.1815 24.0391 67.1451 24.1172L66.5513 23.9023C66.6633 23.569 66.7193 23.2188 66.7193 22.8516C66.7193 22.6172 66.6971 22.4128 66.6529 22.2383C66.6086 22.0612 66.5487 21.9141 66.4732 21.7969C66.3977 21.6797 66.3091 21.5924 66.2076 21.5352C66.1086 21.4753 66.0031 21.4453 65.8912 21.4453C65.7766 21.4453 65.6763 21.4792 65.5904 21.5469C65.507 21.612 65.4341 21.6979 65.3716 21.8047C65.3091 21.9115 65.257 22.0339 65.2154 22.1719C65.1737 22.3073 65.1398 22.4453 65.1138 22.5859C65.0904 22.7266 65.0721 22.8646 65.0591 23C65.0487 23.1328 65.0435 23.25 65.0435 23.3516H64.4029C64.4003 23.25 64.3938 23.1328 64.3833 23C64.3729 22.8646 64.3547 22.7266 64.3287 22.5859C64.3052 22.4453 64.2727 22.3073 64.231 22.1719C64.1893 22.0339 64.1372 21.9115 64.0747 21.8047C64.0122 21.6979 63.938 21.612 63.8521 21.5469C63.7662 21.4792 63.6672 21.4453 63.5552 21.4453C63.4432 21.4453 63.3365 21.4753 63.2349 21.5352C63.1359 21.5924 63.0487 21.6797 62.9732 21.7969C62.8977 21.9141 62.8378 22.0612 62.7935 22.2383C62.7492 22.4154 62.7271 22.6211 62.7271 22.8555C62.7271 23.2122 62.774 23.5234 62.8677 23.7891C62.9615 24.0547 63.0969 24.2878 63.274 24.4883C63.451 24.6888 63.6685 24.8633 63.9263 25.0117C64.1867 25.1602 64.4823 25.2956 64.813 25.418C65.2583 25.582 65.6477 25.7448 65.981 25.9062C66.3143 26.0677 66.5969 26.2305 66.8287 26.3945ZM71.6919 25.1328C71.6919 25.4062 71.6438 25.651 71.5474 25.8672C71.451 26.0833 71.3182 26.2669 71.149 26.418C70.9823 26.569 70.7831 26.6836 70.5513 26.7617C70.3221 26.8424 70.0747 26.8828 69.8091 26.8828C69.5956 26.8828 69.3872 26.849 69.1841 26.7812C68.9836 26.7135 68.8039 26.6172 68.6451 26.4922C68.4888 26.3672 68.3625 26.2148 68.2662 26.0352C68.1724 25.8555 68.1255 25.6536 68.1255 25.4297C68.1255 25.1927 68.1789 24.9648 68.2857 24.7461L68.8833 24.9609C68.8104 25.0911 68.774 25.2526 68.774 25.4453C68.774 25.5833 68.8039 25.707 68.8638 25.8164C68.9237 25.9284 69.0018 26.0234 69.0982 26.1016C69.1971 26.1797 69.3091 26.2396 69.4341 26.2812C69.5591 26.3229 69.6867 26.3438 69.8169 26.3438C69.9914 26.3438 70.1542 26.3177 70.3052 26.2656C70.4563 26.2135 70.5865 26.1367 70.6958 26.0352C70.8078 25.9362 70.8951 25.8151 70.9576 25.6719C71.0201 25.5312 71.0513 25.3711 71.0513 25.1914V22.4336C71.0513 22.1185 70.968 21.8763 70.8013 21.707C70.6346 21.5352 70.4042 21.4492 70.1099 21.4492C69.9797 21.4492 69.8599 21.4661 69.7505 21.5C69.6438 21.5312 69.5513 21.5807 69.4732 21.6484C69.3951 21.7161 69.3339 21.8034 69.2896 21.9102C69.2453 22.0143 69.2232 22.138 69.2232 22.2812H68.5747C68.5747 22.0599 68.6151 21.8646 68.6958 21.6953C68.7766 21.5234 68.8859 21.3789 69.024 21.2617C69.1646 21.1445 69.3273 21.056 69.5122 20.9961C69.6997 20.9362 69.899 20.9062 70.1099 20.9062C70.3182 20.9062 70.5175 20.9349 70.7076 20.9922C70.8977 21.0469 71.0656 21.1315 71.2115 21.2461C71.3573 21.3581 71.4732 21.5013 71.5591 21.6758C71.6477 21.8477 71.6919 22.0495 71.6919 22.2812V25.1328ZM76.3833 22.9844C76.3833 23.612 76.2102 24.1172 75.8638 24.5C75.5018 24.8958 75.0109 25.0938 74.3912 25.0938C73.7896 25.0938 73.313 24.901 72.9615 24.5156C72.6177 24.1432 72.4458 23.6536 72.4458 23.0469C72.4458 22.375 72.6294 21.8503 72.9966 21.4727C73.2909 21.1706 73.6698 20.9896 74.1333 20.9297V20.1445H72.8521V19.0781H73.4927V19.5508H74.774V20.9219C75.2349 20.974 75.6047 21.1523 75.8833 21.457C76.2167 21.8216 76.3833 22.3307 76.3833 22.9844ZM75.7271 23.0078C75.7271 22.5417 75.6307 22.1745 75.438 21.9062C75.2167 21.599 74.8833 21.4453 74.438 21.4453C73.9953 21.4453 73.6555 21.6016 73.4185 21.9141C73.2076 22.1953 73.1021 22.5651 73.1021 23.0234C73.1021 23.4688 73.2115 23.8294 73.4302 24.1055C73.6698 24.4049 74.0057 24.5547 74.438 24.5547C74.8833 24.5547 75.2154 24.4036 75.4341 24.1016C75.6294 23.8359 75.7271 23.4714 75.7271 23.0078ZM80.3521 23.7109C80.3521 23.9375 80.3078 24.1367 80.2193 24.3086C80.1307 24.4805 80.0122 24.6237 79.8638 24.7383C79.7154 24.8529 79.5435 24.9401 79.3482 25C79.1529 25.0573 78.9497 25.0859 78.7388 25.0859C78.5279 25.0859 78.3247 25.0573 78.1294 25C77.9367 24.9401 77.7662 24.8529 77.6177 24.7383C77.4693 24.6237 77.3508 24.4805 77.2622 24.3086C77.1763 24.1367 77.1333 23.9375 77.1333 23.7109C77.1333 23.4635 77.1854 23.2357 77.2896 23.0273L77.899 23.2422C77.8208 23.388 77.7818 23.5495 77.7818 23.7266C77.7818 23.8672 77.8065 23.9896 77.856 24.0938C77.9081 24.1953 77.9771 24.2799 78.063 24.3477C78.1516 24.4154 78.2531 24.4661 78.3677 24.5C78.4849 24.5312 78.6086 24.5469 78.7388 24.5469C78.869 24.5469 78.9927 24.5312 79.1099 24.5C79.2271 24.4661 79.3287 24.4154 79.4146 24.3477C79.5031 24.2799 79.5734 24.1953 79.6255 24.0938C79.6776 23.9896 79.7037 23.8672 79.7037 23.7266C79.7037 23.6042 79.6893 23.4961 79.6607 23.4023C79.632 23.306 79.5917 23.2148 79.5396 23.1289C79.4875 23.043 79.4237 22.9596 79.3482 22.8789C79.2753 22.7956 79.1932 22.7057 79.1021 22.6094C78.9615 22.4635 78.8482 22.3346 78.7622 22.2227C78.6789 22.1081 78.6125 21.9935 78.563 21.8789C78.5135 21.7617 78.4784 21.6354 78.4576 21.5C78.4393 21.362 78.4263 21.1953 78.4185 21H79.0591C79.0617 21.1432 79.0721 21.2695 79.0904 21.3789C79.1086 21.4883 79.1385 21.5898 79.1802 21.6836C79.2219 21.7773 79.2766 21.8698 79.3443 21.9609C79.4146 22.0495 79.5018 22.1458 79.606 22.25C79.7206 22.3646 79.8234 22.4753 79.9146 22.582C80.0083 22.6888 80.0865 22.7995 80.149 22.9141C80.2141 23.026 80.2635 23.1471 80.2974 23.2773C80.3339 23.4049 80.3521 23.5495 80.3521 23.7109Z" fill="black" fill-opacity="0.8956"/>
<path d="M40.1495 8.55974C40.1495 8.30341 40.2418 8.09835 40.4264 7.92405C40.6111 7.74975 40.8264 7.66772 41.0828 7.66772C41.3495 7.66772 41.5752 7.76 41.7495 7.9343C41.9239 8.1086 42.0162 8.32392 42.0162 8.55974C42.0162 8.80581 41.9239 9.02112 41.7393 9.18517C41.5546 9.35947 41.3393 9.4415 41.0726 9.4415C40.8059 9.4415 40.5905 9.35947 40.4059 9.18517C40.2418 9.01087 40.1495 8.80581 40.1495 8.55974ZM41.8418 16.9467H40.3136V10.436H41.8418V16.9467Z" fill="black" fill-opacity="0.8956"/>
<path d="M46.4979 15.8335C46.7235 15.8335 46.9799 15.7822 47.2568 15.6797C47.5338 15.5772 47.7799 15.4336 48.0158 15.2593V16.6845C47.7697 16.8281 47.4927 16.9306 47.185 17.0024C46.8773 17.0741 46.5286 17.1151 46.1594 17.1151C45.2055 17.1151 44.4261 16.8075 43.8209 16.2026C43.2158 15.5977 42.9184 14.8185 42.9184 13.8854C42.9184 12.8396 43.226 11.9784 43.8414 11.3017C44.4568 10.625 45.3184 10.2866 46.4466 10.2866C46.7338 10.2866 47.0209 10.3276 47.3184 10.3994C47.6158 10.4712 47.8415 10.5635 48.0158 10.6557V12.1219C47.7799 11.9476 47.5338 11.8143 47.2876 11.722C47.0414 11.6298 46.785 11.5785 46.5286 11.5785C45.9235 11.5785 45.4414 11.7733 45.062 12.1629C44.6927 12.5525 44.5081 13.0857 44.5081 13.7521C44.5081 14.4083 44.6825 14.921 45.0414 15.2901C45.4004 15.6592 45.8825 15.8335 46.4979 15.8335Z" fill="black" fill-opacity="0.8956"/>
<path d="M52.3737 10.3367C52.4968 10.3367 52.6096 10.3469 52.7019 10.3572C52.7942 10.3777 52.8866 10.3982 52.9481 10.4187V11.9669C52.866 11.9054 52.7532 11.8541 52.5994 11.8029C52.4455 11.7516 52.2609 11.7208 52.0353 11.7208C51.6558 11.7208 51.3378 11.8746 51.0814 12.1925C50.825 12.5103 50.6917 12.9922 50.6917 13.6586V16.9499H49.1635V10.4392H50.6917V11.4645H50.7122C50.8558 11.1056 51.0609 10.8288 51.3481 10.634C51.6353 10.4392 51.9737 10.3367 52.3737 10.3367Z" fill="black" fill-opacity="0.8956"/>
<path d="M53.0304 13.7932C53.0304 12.7166 53.3381 11.8656 53.9432 11.2299C54.5483 10.6045 55.3996 10.2866 56.4765 10.2866C57.4919 10.2866 58.2919 10.5942 58.8663 11.1991C59.4406 11.8041 59.7278 12.6243 59.7278 13.6496C59.7278 14.7057 59.4201 15.5464 58.815 16.1719C58.2099 16.7973 57.3791 17.1049 56.3329 17.1049C55.3278 17.1049 54.5176 16.8075 53.9329 16.2129C53.3278 15.6284 53.0304 14.8185 53.0304 13.7932ZM54.6304 13.7419C54.6304 14.4186 54.7842 14.9415 55.0919 15.3003C55.3996 15.6592 55.8406 15.8335 56.415 15.8335C56.9688 15.8335 57.3996 15.6592 57.6868 15.3003C57.974 14.9415 58.1278 14.4083 58.1278 13.7009C58.1278 13.0037 57.974 12.4705 57.6765 12.1117C57.3791 11.7528 56.9483 11.5785 56.4047 11.5785C55.8406 11.5785 55.4099 11.7631 55.0919 12.1424C54.7842 12.5218 54.6304 13.0447 54.6304 13.7419Z" fill="black" fill-opacity="0.8956"/>
<path d="M62.0043 12.153C62.0043 12.3684 62.0761 12.5427 62.2095 12.6657C62.353 12.7887 62.6607 12.9425 63.1325 13.1373C63.7479 13.3834 64.1787 13.6602 64.4248 13.9678C64.671 14.2754 64.7941 14.6445 64.7941 15.0752C64.7941 15.6903 64.5582 16.1825 64.0864 16.5516C63.6146 16.9207 62.9787 17.1053 62.1787 17.1053C61.912 17.1053 61.6146 17.0745 61.2864 17.0027C60.9582 16.9412 60.6812 16.8489 60.4556 16.7567V15.2495C60.7325 15.4443 61.03 15.5981 61.3582 15.7108C61.6761 15.8236 61.9736 15.8851 62.23 15.8851C62.5787 15.8851 62.8351 15.8339 62.9992 15.7416C63.1633 15.6493 63.2453 15.4853 63.2453 15.2495C63.2453 15.0341 63.1633 14.8598 62.9889 14.7163C62.8146 14.5728 62.4966 14.3985 62.0146 14.2139C61.4505 13.9781 61.0505 13.7115 60.8146 13.4142C60.5787 13.1168 60.4556 12.7375 60.4556 12.2863C60.4556 11.7019 60.6915 11.22 61.153 10.8407C61.6146 10.4613 62.2197 10.2767 62.9684 10.2767C63.1941 10.2767 63.4505 10.2972 63.7377 10.3485C64.0248 10.3998 64.2607 10.4613 64.4453 10.5433V11.9992C64.2402 11.866 64.0043 11.7532 63.7377 11.6506C63.471 11.5584 63.1941 11.5071 62.9377 11.5071C62.6505 11.5071 62.4146 11.5686 62.2607 11.6814C62.0864 11.7942 62.0043 11.9582 62.0043 12.153Z" fill="black" fill-opacity="0.8956"/>
<path d="M65.4704 13.7932C65.4704 12.7166 65.778 11.8656 66.3832 11.2299C66.9883 10.6045 67.8396 10.2866 68.9165 10.2866C69.9319 10.2866 70.7319 10.5942 71.3063 11.1991C71.8806 11.8041 72.1678 12.6243 72.1678 13.6496C72.1678 14.7057 71.8601 15.5464 71.255 16.1719C70.6498 16.7973 69.8191 17.1049 68.7729 17.1049C67.7678 17.1049 66.9575 16.8075 66.3729 16.2129C65.7678 15.6284 65.4704 14.8185 65.4704 13.7932ZM67.0601 13.7419C67.0601 14.4186 67.2139 14.9415 67.5216 15.3004C67.8293 15.6592 68.2704 15.8335 68.8447 15.8335C69.3986 15.8335 69.8293 15.6592 70.1165 15.3004C70.4037 14.9415 70.5575 14.4083 70.5575 13.7009C70.5575 13.0037 70.4037 12.4705 70.1063 12.1117C69.8088 11.7528 69.3781 11.5785 68.8345 11.5785C68.2704 11.5785 67.8396 11.7631 67.5216 12.1424C67.2139 12.5218 67.0601 13.0447 67.0601 13.7419Z" fill="black" fill-opacity="0.8956"/>
<path d="M77.224 11.6986V15.0411C77.224 15.7383 77.3881 16.2509 77.706 16.5995C78.024 16.9481 78.5163 17.1122 79.1624 17.1122C79.3778 17.1122 79.6035 17.0917 79.8291 17.0404C80.0547 16.9891 80.2188 16.9481 80.3112 16.8866V15.6152C80.2188 15.6768 80.106 15.728 79.983 15.769C79.8599 15.8101 79.747 15.8306 79.665 15.8306C79.3573 15.8306 79.1214 15.7485 78.9778 15.5845C78.8342 15.4204 78.7624 15.1334 78.7624 14.7335V11.6883H80.3214V10.4375H78.7727V8.5099L77.2342 8.98154V10.4477H74.947V9.65824C74.947 9.26862 75.0291 8.97128 75.2035 8.76622C75.3778 8.56116 75.624 8.46889 75.9419 8.46889C76.106 8.46889 76.2496 8.48939 76.3829 8.5304C76.506 8.57142 76.5983 8.61243 76.6496 8.64319V7.32055C76.5368 7.27953 76.4137 7.25903 76.2701 7.23852C76.1265 7.21802 75.9624 7.20776 75.7778 7.20776C75.0804 7.20776 74.506 7.42308 74.065 7.86396C73.624 8.30484 73.3983 8.8585 73.3983 9.54545V10.4477H72.3112V11.6986H73.3983V16.9584H74.947V11.6986H77.224V11.6986Z" fill="black" fill-opacity="0.8956"/>
<path d="M38.8373 7.86743V16.9516H37.2578V9.83602H37.2373L34.4168 16.9516H33.3707L30.4783 9.83602H30.4578V16.9516H29.0014V7.86743H31.2578L33.8732 14.6037H33.9142L36.6732 7.86743H38.8373Z" fill="black" fill-opacity="0.8956"/>
<rect x="0.5" y="0.5" width="87.0005" height="31" rx="3.5" stroke="url(#paint0_linear_1638_29779)"/>
<defs>
<linearGradient id="paint0_linear_1638_29779" x1="44.0003" y1="1" x2="44.0003" y2="31" gradientUnits="userSpaceOnUse">
<stop offset="0.905762" stop-opacity="0.0578"/>
<stop offset="1" stop-opacity="0.1622"/>
</linearGradient>
</defs>
</svg>
