<svg width="88" height="32" viewBox="0 0 88 32" fill="none" xmlns="http://www.w3.org/2000/svg">
<rect x="0.5" y="0.5" width="87.0005" height="31" rx="3.5" fill="black"/>
<path d="M15.56 6.99988H7V15.5606H15.56V6.99988Z" fill="#F25022"/>
<path d="M25.0021 6.99988H16.4421V15.5606H25.0021V6.99988Z" fill="#7FBA00"/>
<path d="M15.56 16.4392H7V24.9999H15.56V16.4392Z" fill="#00A4EF"/>
<path d="M25.0022 16.4392H16.4422V24.9999H25.0022V16.4392Z" fill="#FFB900"/>
<path d="M31.6958 23.0234H29.563V22.5195H31.6958V23.0234ZM36.3169 23.3008C36.3169 23.8555 36.1789 24.2891 35.9029 24.6016C35.5956 24.9349 35.1503 25.1016 34.5669 25.1016C33.9706 25.1016 33.5214 24.9414 33.2193 24.6211C32.9432 24.3112 32.8052 23.875 32.8052 23.3125V19.0781H33.438V23.1992C33.438 24.0872 33.8143 24.5312 34.5669 24.5312C35.3039 24.5312 35.6724 24.1302 35.6724 23.3281C35.6724 23.0339 35.5943 22.724 35.438 22.3984C35.2818 22.0703 35.2037 21.8281 35.2037 21.6719C35.2037 21.3203 35.4523 21.0651 35.9497 20.9062L36.2505 21.4336C36.0057 21.5247 35.8833 21.638 35.8833 21.7734C35.8833 21.8411 35.955 22.0365 36.0982 22.3594C36.244 22.6797 36.3169 22.9935 36.3169 23.3008ZM38.4693 21.4453C38.3599 21.4453 38.2596 21.4661 38.1685 21.5078C38.0773 21.5469 37.9992 21.6016 37.9341 21.6719C37.869 21.7396 37.8182 21.819 37.7818 21.9102C37.7453 21.9987 37.7271 22.0938 37.7271 22.1953C37.7271 22.2656 37.731 22.332 37.7388 22.3945C37.7466 22.4544 37.7688 22.5586 37.8052 22.707L37.1568 22.8203C37.1151 22.638 37.0904 22.5091 37.0826 22.4336C37.0747 22.3581 37.0708 22.2786 37.0708 22.1953C37.0708 22.0026 37.1047 21.8268 37.1724 21.668C37.2427 21.5091 37.3391 21.3737 37.4615 21.2617C37.5865 21.1471 37.7336 21.0599 37.9029 21C38.0747 20.9375 38.2635 20.9062 38.4693 20.9062C38.675 20.9062 38.8625 20.9375 39.0318 21C39.201 21.0599 39.3469 21.1471 39.4693 21.2617C39.5917 21.3763 39.6867 21.5156 39.7544 21.6797C39.8221 21.8411 39.856 22.0234 39.856 22.2266C39.856 22.401 39.8404 22.5508 39.8091 22.6758C39.7805 22.8008 39.7479 22.9076 39.7115 22.9961C40.1412 23.1003 40.4641 23.3151 40.6802 23.6406C40.899 23.9661 41.0083 24.3828 41.0083 24.8906C41.0083 25.1979 40.9628 25.474 40.8716 25.7188C40.7805 25.9661 40.649 26.1758 40.4771 26.3477C40.3078 26.5195 40.0995 26.651 39.8521 26.7422C39.6073 26.8359 39.3287 26.8828 39.0162 26.8828C38.7141 26.8828 38.4419 26.8385 38.1997 26.75C37.9602 26.6615 37.7557 26.5339 37.5865 26.3672C37.4198 26.2005 37.2922 25.9974 37.2037 25.7578C37.1151 25.5208 37.0708 25.2526 37.0708 24.9531C37.0708 24.6302 37.1164 24.3438 37.2076 24.0938C37.2987 23.8411 37.4302 23.6289 37.6021 23.457C37.7766 23.2852 37.9901 23.1549 38.2427 23.0664C38.4953 22.9753 38.7831 22.9297 39.106 22.9297C39.1425 22.8281 39.1711 22.7266 39.1919 22.625C39.2128 22.5234 39.2232 22.4036 39.2232 22.2656C39.2232 22.1328 39.2037 22.0156 39.1646 21.9141C39.1281 21.8099 39.076 21.724 39.0083 21.6562C38.9432 21.5859 38.8638 21.5339 38.7701 21.5C38.6789 21.4635 38.5787 21.4453 38.4693 21.4453ZM39.063 23.4688C38.8365 23.4688 38.6385 23.5039 38.4693 23.5742C38.3026 23.6419 38.1646 23.7396 38.0552 23.8672C37.9458 23.9948 37.8638 24.1484 37.8091 24.3281C37.7544 24.5078 37.7271 24.7083 37.7271 24.9297C37.7271 25.1458 37.7544 25.3411 37.8091 25.5156C37.8664 25.6901 37.951 25.8385 38.063 25.9609C38.175 26.0833 38.3143 26.1771 38.481 26.2422C38.6477 26.3099 38.8417 26.3438 39.063 26.3438C39.4771 26.3438 39.7948 26.2292 40.0162 26C40.2401 25.7708 40.3521 25.4089 40.3521 24.9141C40.3521 24.4141 40.2401 24.0482 40.0162 23.8164C39.7948 23.5846 39.4771 23.4688 39.063 23.4688ZM44.9771 23.7109C44.9771 23.9375 44.9328 24.1367 44.8443 24.3086C44.7557 24.4805 44.6372 24.6237 44.4888 24.7383C44.3404 24.8529 44.1685 24.9401 43.9732 25C43.7779 25.0573 43.5747 25.0859 43.3638 25.0859C43.1529 25.0859 42.9497 25.0573 42.7544 25C42.5617 24.9401 42.3912 24.8529 42.2427 24.7383C42.0943 24.6237 41.9758 24.4805 41.8872 24.3086C41.8013 24.1367 41.7583 23.9375 41.7583 23.7109C41.7583 23.4635 41.8104 23.2357 41.9146 23.0273L42.524 23.2422C42.4458 23.388 42.4068 23.5495 42.4068 23.7266C42.4068 23.8672 42.4315 23.9896 42.481 24.0938C42.5331 24.1953 42.6021 24.2799 42.688 24.3477C42.7766 24.4154 42.8781 24.4661 42.9927 24.5C43.1099 24.5312 43.2336 24.5469 43.3638 24.5469C43.494 24.5469 43.6177 24.5312 43.7349 24.5C43.8521 24.4661 43.9537 24.4154 44.0396 24.3477C44.1281 24.2799 44.1984 24.1953 44.2505 24.0938C44.3026 23.9896 44.3287 23.8672 44.3287 23.7266C44.3287 23.6042 44.3143 23.4961 44.2857 23.4023C44.257 23.306 44.2167 23.2148 44.1646 23.1289C44.1125 23.043 44.0487 22.9596 43.9732 22.8789C43.9003 22.7956 43.8182 22.7057 43.7271 22.6094C43.5865 22.4635 43.4732 22.3346 43.3872 22.2227C43.3039 22.1081 43.2375 21.9935 43.188 21.8789C43.1385 21.7617 43.1034 21.6354 43.0826 21.5C43.0643 21.362 43.0513 21.1953 43.0435 21H43.6841C43.6867 21.1432 43.6971 21.2695 43.7154 21.3789C43.7336 21.4883 43.7635 21.5898 43.8052 21.6836C43.8469 21.7773 43.9016 21.8698 43.9693 21.9609C44.0396 22.0495 44.1268 22.1458 44.231 22.25C44.3456 22.3646 44.4484 22.4753 44.5396 22.582C44.6333 22.6888 44.7115 22.7995 44.774 22.9141C44.8391 23.026 44.8885 23.1471 44.9224 23.2773C44.9589 23.4049 44.9771 23.5495 44.9771 23.7109ZM49.5083 23.0625C49.5083 23.6615 49.3482 24.1432 49.0279 24.5078C48.6841 24.8984 48.2063 25.0938 47.5943 25.0938C46.9979 25.0938 46.5331 24.9076 46.1997 24.5352C45.8846 24.181 45.7271 23.7109 45.7271 23.125V20.3125C45.7271 19.4323 46.1776 18.9922 47.0787 18.9922C47.2453 18.9922 47.481 19.0378 47.7857 19.1289C48.093 19.2201 48.3156 19.2656 48.4537 19.2656C48.6672 19.2656 48.9224 19.1745 49.2193 18.9922L49.5083 19.4336C49.1672 19.681 48.8195 19.8047 48.4654 19.8047C48.2883 19.8047 48.0396 19.7591 47.7193 19.668C47.4016 19.5768 47.1841 19.5312 47.0669 19.5312C46.8065 19.5312 46.6268 19.5872 46.5279 19.6992C46.4315 19.8086 46.3833 19.9935 46.3833 20.2539V21.6055C46.7375 21.2956 47.1724 21.1406 47.688 21.1406C48.2974 21.1406 48.7609 21.3242 49.0787 21.6914C49.3651 22.0247 49.5083 22.4818 49.5083 23.0625ZM48.8521 23.0859C48.8521 22.1484 48.4484 21.6797 47.6412 21.6797C47.2037 21.6797 46.8768 21.8216 46.6607 22.1055C46.4758 22.3503 46.3833 22.6823 46.3833 23.1016C46.3833 23.513 46.4797 23.8477 46.6724 24.1055C46.8938 24.4049 47.2167 24.5547 47.6412 24.5547C48.4484 24.5547 48.8521 24.0651 48.8521 23.0859ZM56.2349 23.125C56.2349 23.4167 56.1932 23.6836 56.1099 23.9258C56.0292 24.1654 55.9094 24.3724 55.7505 24.5469C55.5917 24.7188 55.3964 24.8529 55.1646 24.9492C54.9328 25.0456 54.6672 25.0938 54.3677 25.0938C54.063 25.0938 53.7909 25.0443 53.5513 24.9453C53.3143 24.8464 53.1138 24.707 52.9497 24.5273C52.7883 24.3477 52.6646 24.1341 52.5787 23.8867C52.4953 23.6367 52.4537 23.362 52.4537 23.0625C52.4537 22.7682 52.4914 22.5026 52.5669 22.2656C52.6451 22.0286 52.7596 21.8268 52.9107 21.6602C53.0643 21.4935 53.2544 21.3659 53.481 21.2773C53.7076 21.1862 53.9719 21.1406 54.274 21.1406C54.787 21.1406 55.2219 21.2956 55.5787 21.6055V20.6836C55.5787 20.3242 55.4862 20.043 55.3013 19.8398C55.119 19.6341 54.8521 19.5312 54.5005 19.5312C54.3729 19.5312 54.2531 19.5508 54.1412 19.5898C54.0292 19.6289 53.9302 19.6875 53.8443 19.7656C53.7609 19.8411 53.6945 19.9362 53.6451 20.0508C53.5982 20.1654 53.5747 20.2969 53.5747 20.4453H52.9263C52.9263 20.224 52.968 20.0247 53.0513 19.8477C53.1372 19.668 53.2518 19.5156 53.3951 19.3906C53.5409 19.263 53.7076 19.1654 53.8951 19.0977C54.0852 19.0273 54.2844 18.9922 54.4927 18.9922C54.7583 18.9922 54.9979 19.0326 55.2115 19.1133C55.4276 19.1914 55.6112 19.306 55.7622 19.457C55.9133 19.6081 56.0292 19.7917 56.1099 20.0078C56.1932 20.224 56.2349 20.4688 56.2349 20.7422V23.125ZM55.5787 23.1016C55.5787 22.8932 55.5539 22.7018 55.5044 22.5273C55.455 22.3529 55.3794 22.2031 55.2779 22.0781C55.1763 21.9531 55.0461 21.8555 54.8872 21.7852C54.7284 21.7148 54.5396 21.6797 54.3208 21.6797C53.5135 21.6797 53.1099 22.1484 53.1099 23.0859C53.1099 24.0651 53.5135 24.5547 54.3208 24.5547C54.5344 24.5547 54.7193 24.5169 54.8755 24.4414C55.0344 24.3659 55.1659 24.263 55.2701 24.1328C55.3742 24 55.451 23.8464 55.5005 23.6719C55.5526 23.4948 55.5787 23.3047 55.5787 23.1016ZM61.1138 23.0938C61.1138 23.9479 60.8078 24.6146 60.1958 25.0938L59.7388 24.6445C60.218 24.2773 60.4576 23.7422 60.4576 23.0391C60.4576 22.5938 60.3352 22.2227 60.0904 21.9258C59.8273 21.6055 59.4771 21.4453 59.0396 21.4453C58.6021 21.4453 58.2544 21.6055 57.9966 21.9258C57.7596 22.2201 57.6412 22.5911 57.6412 23.0391C57.6412 23.7422 57.8807 24.2773 58.3599 24.6445L57.9029 25.0938C57.2909 24.6146 56.9849 23.9479 56.9849 23.0938C56.9849 22.4427 57.1659 21.9193 57.5279 21.5234C57.9029 21.112 58.412 20.9062 59.0552 20.9062C59.6984 20.9062 60.205 21.112 60.5747 21.5234C60.9341 21.9193 61.1138 22.4427 61.1138 23.0938ZM66.7505 26.3945L66.3443 26.8828C65.4172 26.2266 64.3977 25.8984 63.2857 25.8984C62.7258 25.8984 62.2531 26.0625 61.8677 26.3906V25.7344C62.2714 25.4792 62.7492 25.3516 63.3013 25.3516C63.0826 25.2344 62.8912 25.0846 62.7271 24.9023C62.563 24.7201 62.4263 24.5182 62.3169 24.2969C62.2102 24.0755 62.1294 23.8411 62.0747 23.5938C62.0201 23.3464 61.9927 23.099 61.9927 22.8516C61.9927 22.5286 62.0279 22.2461 62.0982 22.0039C62.1711 21.7591 62.2727 21.556 62.4029 21.3945C62.5331 21.2305 62.6893 21.1081 62.8716 21.0273C63.0539 20.9466 63.2557 20.9062 63.4771 20.9062C63.5995 20.9062 63.7193 20.9258 63.8365 20.9648C63.9537 21.0039 64.063 21.0599 64.1646 21.1328C64.2688 21.2031 64.3612 21.2891 64.4419 21.3906C64.5253 21.4896 64.5943 21.6003 64.649 21.7227C64.7037 21.6003 64.7714 21.4896 64.8521 21.3906C64.9354 21.2891 65.0279 21.2031 65.1294 21.1328C65.2336 21.0599 65.343 21.0039 65.4576 20.9648C65.5747 20.9258 65.6932 20.9062 65.813 20.9062C66.0344 20.9062 66.2362 20.9466 66.4185 21.0273C66.6008 21.1081 66.757 21.2305 66.8872 21.3945C67.0175 21.556 67.1177 21.7591 67.188 22.0039C67.2609 22.2461 67.2974 22.5286 67.2974 22.8516C67.2974 22.9557 67.2922 23.0664 67.2818 23.1836C67.2714 23.2982 67.2557 23.4128 67.2349 23.5273C67.2167 23.6393 67.1932 23.7461 67.1646 23.8477C67.1359 23.9492 67.1034 24.0391 67.0669 24.1172L66.4732 23.9023C66.5852 23.569 66.6412 23.2188 66.6412 22.8516C66.6412 22.6172 66.619 22.4128 66.5747 22.2383C66.5305 22.0612 66.4706 21.9141 66.3951 21.7969C66.3195 21.6797 66.231 21.5924 66.1294 21.5352C66.0305 21.4753 65.925 21.4453 65.813 21.4453C65.6984 21.4453 65.5982 21.4792 65.5122 21.5469C65.4289 21.612 65.356 21.6979 65.2935 21.8047C65.231 21.9115 65.1789 22.0339 65.1372 22.1719C65.0956 22.3073 65.0617 22.4453 65.0357 22.5859C65.0122 22.7266 64.994 22.8646 64.981 23C64.9706 23.1328 64.9654 23.25 64.9654 23.3516H64.3247C64.3221 23.25 64.3156 23.1328 64.3052 23C64.2948 22.8646 64.2766 22.7266 64.2505 22.5859C64.2271 22.4453 64.1945 22.3073 64.1529 22.1719C64.1112 22.0339 64.0591 21.9115 63.9966 21.8047C63.9341 21.6979 63.8599 21.612 63.774 21.5469C63.688 21.4792 63.5891 21.4453 63.4771 21.4453C63.3651 21.4453 63.2583 21.4753 63.1568 21.5352C63.0578 21.5924 62.9706 21.6797 62.8951 21.7969C62.8195 21.9141 62.7596 22.0612 62.7154 22.2383C62.6711 22.4154 62.649 22.6211 62.649 22.8555C62.649 23.2122 62.6958 23.5234 62.7896 23.7891C62.8833 24.0547 63.0188 24.2878 63.1958 24.4883C63.3729 24.6888 63.5904 24.8633 63.8482 25.0117C64.1086 25.1602 64.4042 25.2956 64.7349 25.418C65.1802 25.582 65.5695 25.7448 65.9029 25.9062C66.2362 26.0677 66.5188 26.2305 66.7505 26.3945ZM71.6138 25.1328C71.6138 25.4062 71.5656 25.651 71.4693 25.8672C71.3729 26.0833 71.2401 26.2669 71.0708 26.418C70.9042 26.569 70.705 26.6836 70.4732 26.7617C70.244 26.8424 69.9966 26.8828 69.731 26.8828C69.5175 26.8828 69.3091 26.849 69.106 26.7812C68.9055 26.7135 68.7258 26.6172 68.5669 26.4922C68.4107 26.3672 68.2844 26.2148 68.188 26.0352C68.0943 25.8555 68.0474 25.6536 68.0474 25.4297C68.0474 25.1927 68.1008 24.9648 68.2076 24.7461L68.8052 24.9609C68.7323 25.0911 68.6958 25.2526 68.6958 25.4453C68.6958 25.5833 68.7258 25.707 68.7857 25.8164C68.8456 25.9284 68.9237 26.0234 69.0201 26.1016C69.119 26.1797 69.231 26.2396 69.356 26.2812C69.481 26.3229 69.6086 26.3438 69.7388 26.3438C69.9133 26.3438 70.076 26.3177 70.2271 26.2656C70.3781 26.2135 70.5083 26.1367 70.6177 26.0352C70.7297 25.9362 70.8169 25.8151 70.8794 25.6719C70.9419 25.5312 70.9732 25.3711 70.9732 25.1914V22.4336C70.9732 22.1185 70.8898 21.8763 70.7232 21.707C70.5565 21.5352 70.326 21.4492 70.0318 21.4492C69.9016 21.4492 69.7818 21.4661 69.6724 21.5C69.5656 21.5312 69.4732 21.5807 69.3951 21.6484C69.3169 21.7161 69.2557 21.8034 69.2115 21.9102C69.1672 22.0143 69.1451 22.138 69.1451 22.2812H68.4966C68.4966 22.0599 68.537 21.8646 68.6177 21.6953C68.6984 21.5234 68.8078 21.3789 68.9458 21.2617C69.0865 21.1445 69.2492 21.056 69.4341 20.9961C69.6216 20.9362 69.8208 20.9062 70.0318 20.9062C70.2401 20.9062 70.4393 20.9349 70.6294 20.9922C70.8195 21.0469 70.9875 21.1315 71.1333 21.2461C71.2792 21.3581 71.3951 21.5013 71.481 21.6758C71.5695 21.8477 71.6138 22.0495 71.6138 22.2812V25.1328ZM76.3052 22.9844C76.3052 23.612 76.132 24.1172 75.7857 24.5C75.4237 24.8958 74.9328 25.0938 74.313 25.0938C73.7115 25.0938 73.2349 24.901 72.8833 24.5156C72.5396 24.1432 72.3677 23.6536 72.3677 23.0469C72.3677 22.375 72.5513 21.8503 72.9185 21.4727C73.2128 21.1706 73.5917 20.9896 74.0552 20.9297V20.1445H72.774V19.0781H73.4146V19.5508H74.6958V20.9219C75.1568 20.974 75.5266 21.1523 75.8052 21.457C76.1385 21.8216 76.3052 22.3307 76.3052 22.9844ZM75.649 23.0078C75.649 22.5417 75.5526 22.1745 75.3599 21.9062C75.1385 21.599 74.8052 21.4453 74.3599 21.4453C73.9172 21.4453 73.5773 21.6016 73.3404 21.9141C73.1294 22.1953 73.024 22.5651 73.024 23.0234C73.024 23.4688 73.1333 23.8294 73.3521 24.1055C73.5917 24.4049 73.9276 24.5547 74.3599 24.5547C74.8052 24.5547 75.1372 24.4036 75.356 24.1016C75.5513 23.8359 75.649 23.4714 75.649 23.0078ZM80.274 23.7109C80.274 23.9375 80.2297 24.1367 80.1412 24.3086C80.0526 24.4805 79.9341 24.6237 79.7857 24.7383C79.6372 24.8529 79.4654 24.9401 79.2701 25C79.0747 25.0573 78.8716 25.0859 78.6607 25.0859C78.4497 25.0859 78.2466 25.0573 78.0513 25C77.8586 24.9401 77.688 24.8529 77.5396 24.7383C77.3912 24.6237 77.2727 24.4805 77.1841 24.3086C77.0982 24.1367 77.0552 23.9375 77.0552 23.7109C77.0552 23.4635 77.1073 23.2357 77.2115 23.0273L77.8208 23.2422C77.7427 23.388 77.7037 23.5495 77.7037 23.7266C77.7037 23.8672 77.7284 23.9896 77.7779 24.0938C77.83 24.1953 77.899 24.2799 77.9849 24.3477C78.0734 24.4154 78.175 24.4661 78.2896 24.5C78.4068 24.5312 78.5305 24.5469 78.6607 24.5469C78.7909 24.5469 78.9146 24.5312 79.0318 24.5C79.149 24.4661 79.2505 24.4154 79.3365 24.3477C79.425 24.2799 79.4953 24.1953 79.5474 24.0938C79.5995 23.9896 79.6255 23.8672 79.6255 23.7266C79.6255 23.6042 79.6112 23.4961 79.5826 23.4023C79.5539 23.306 79.5135 23.2148 79.4615 23.1289C79.4094 23.043 79.3456 22.9596 79.2701 22.8789C79.1971 22.7956 79.1151 22.7057 79.024 22.6094C78.8833 22.4635 78.7701 22.3346 78.6841 22.2227C78.6008 22.1081 78.5344 21.9935 78.4849 21.8789C78.4354 21.7617 78.4003 21.6354 78.3794 21.5C78.3612 21.362 78.3482 21.1953 78.3404 21H78.981C78.9836 21.1432 78.994 21.2695 79.0122 21.3789C79.0305 21.4883 79.0604 21.5898 79.1021 21.6836C79.1438 21.7773 79.1984 21.8698 79.2662 21.9609C79.3365 22.0495 79.4237 22.1458 79.5279 22.25C79.6425 22.3646 79.7453 22.4753 79.8365 22.582C79.9302 22.6888 80.0083 22.7995 80.0708 22.9141C80.1359 23.026 80.1854 23.1471 80.2193 23.2773C80.2557 23.4049 80.274 23.5495 80.274 23.7109Z" fill="white"/>
<path d="M40.1495 8.55974C40.1495 8.30341 40.2418 8.09835 40.4264 7.92405C40.6111 7.74975 40.8264 7.66772 41.0828 7.66772C41.3495 7.66772 41.5752 7.76 41.7495 7.9343C41.9239 8.1086 42.0162 8.32392 42.0162 8.55974C42.0162 8.80581 41.9239 9.02112 41.7393 9.18517C41.5546 9.35947 41.3393 9.4415 41.0726 9.4415C40.8059 9.4415 40.5905 9.35947 40.4059 9.18517C40.2418 9.01087 40.1495 8.80581 40.1495 8.55974ZM41.8418 16.9467H40.3136V10.436H41.8418V16.9467Z" fill="white"/>
<path d="M46.4979 15.8335C46.7235 15.8335 46.9799 15.7822 47.2568 15.6797C47.5338 15.5772 47.7799 15.4336 48.0158 15.2593V16.6845C47.7697 16.8281 47.4927 16.9306 47.185 17.0024C46.8773 17.0741 46.5286 17.1151 46.1594 17.1151C45.2055 17.1151 44.426 16.8075 43.8209 16.2026C43.2158 15.5977 42.9183 14.8185 42.9183 13.8854C42.9183 12.8396 43.226 11.9784 43.8414 11.3017C44.4568 10.625 45.3184 10.2866 46.4466 10.2866C46.7338 10.2866 47.0209 10.3276 47.3184 10.3994C47.6158 10.4712 47.8415 10.5635 48.0158 10.6557V12.1219C47.7799 11.9476 47.5338 11.8143 47.2876 11.722C47.0414 11.6298 46.785 11.5785 46.5286 11.5785C45.9235 11.5785 45.4414 11.7733 45.062 12.1629C44.6927 12.5525 44.5081 13.0857 44.5081 13.7521C44.5081 14.4083 44.6825 14.921 45.0414 15.2901C45.4004 15.6592 45.8825 15.8335 46.4979 15.8335Z" fill="white"/>
<path d="M52.3737 10.3367C52.4968 10.3367 52.6096 10.3469 52.7019 10.3572C52.7942 10.3777 52.8866 10.3982 52.9481 10.4187V11.9669C52.866 11.9054 52.7532 11.8541 52.5994 11.8029C52.4455 11.7516 52.2609 11.7208 52.0353 11.7208C51.6558 11.7208 51.3378 11.8746 51.0814 12.1925C50.825 12.5103 50.6917 12.9922 50.6917 13.6586V16.9499H49.1635V10.4392H50.6917V11.4645H50.7122C50.8558 11.1056 51.0609 10.8288 51.3481 10.634C51.6353 10.4392 51.9737 10.3367 52.3737 10.3367Z" fill="white"/>
<path d="M53.0304 13.7932C53.0304 12.7166 53.3381 11.8656 53.9432 11.2299C54.5483 10.6045 55.3996 10.2866 56.4765 10.2866C57.4919 10.2866 58.2919 10.5942 58.8663 11.1991C59.4406 11.8041 59.7278 12.6243 59.7278 13.6496C59.7278 14.7057 59.4201 15.5464 58.815 16.1719C58.2099 16.7973 57.3791 17.1049 56.3329 17.1049C55.3278 17.1049 54.5176 16.8075 53.9329 16.2129C53.3278 15.6284 53.0304 14.8185 53.0304 13.7932ZM54.6304 13.7419C54.6304 14.4186 54.7842 14.9415 55.0919 15.3003C55.3996 15.6592 55.8406 15.8335 56.415 15.8335C56.9688 15.8335 57.3996 15.6592 57.6868 15.3003C57.974 14.9415 58.1278 14.4083 58.1278 13.7009C58.1278 13.0037 57.974 12.4705 57.6765 12.1117C57.3791 11.7528 56.9483 11.5785 56.4047 11.5785C55.8406 11.5785 55.4099 11.7631 55.0919 12.1424C54.7842 12.5218 54.6304 13.0447 54.6304 13.7419Z" fill="white"/>
<path d="M62.0043 12.153C62.0043 12.3684 62.0761 12.5427 62.2095 12.6657C62.353 12.7887 62.6607 12.9425 63.1325 13.1373C63.7479 13.3834 64.1787 13.6602 64.4248 13.9678C64.671 14.2754 64.7941 14.6445 64.7941 15.0752C64.7941 15.6903 64.5582 16.1825 64.0864 16.5516C63.6146 16.9207 62.9787 17.1053 62.1787 17.1053C61.912 17.1053 61.6146 17.0745 61.2864 17.0027C60.9582 16.9412 60.6812 16.8489 60.4556 16.7567V15.2495C60.7325 15.4443 61.03 15.5981 61.3582 15.7108C61.6761 15.8236 61.9735 15.8851 62.23 15.8851C62.5787 15.8851 62.8351 15.8339 62.9992 15.7416C63.1633 15.6493 63.2453 15.4853 63.2453 15.2495C63.2453 15.0341 63.1633 14.8598 62.9889 14.7163C62.8146 14.5728 62.4966 14.3985 62.0146 14.2139C61.4505 13.9781 61.0505 13.7115 60.8146 13.4142C60.5787 13.1168 60.4556 12.7375 60.4556 12.2863C60.4556 11.7019 60.6915 11.22 61.153 10.8407C61.6146 10.4613 62.2197 10.2767 62.9684 10.2767C63.1941 10.2767 63.4505 10.2972 63.7377 10.3485C64.0248 10.3998 64.2607 10.4613 64.4453 10.5433V11.9992C64.2402 11.866 64.0043 11.7532 63.7377 11.6506C63.471 11.5584 63.1941 11.5071 62.9377 11.5071C62.6505 11.5071 62.4146 11.5686 62.2607 11.6814C62.0864 11.7942 62.0043 11.9582 62.0043 12.153Z" fill="white"/>
<path d="M65.4704 13.7932C65.4704 12.7166 65.778 11.8656 66.3832 11.2299C66.9883 10.6045 67.8396 10.2866 68.9165 10.2866C69.9319 10.2866 70.7319 10.5942 71.3063 11.1991C71.8806 11.8041 72.1678 12.6243 72.1678 13.6496C72.1678 14.7057 71.8601 15.5464 71.255 16.1719C70.6498 16.7973 69.8191 17.1049 68.7729 17.1049C67.7678 17.1049 66.9575 16.8075 66.3729 16.2129C65.7678 15.6284 65.4704 14.8185 65.4704 13.7932ZM67.0601 13.7419C67.0601 14.4186 67.2139 14.9415 67.5216 15.3004C67.8293 15.6592 68.2704 15.8335 68.8447 15.8335C69.3986 15.8335 69.8293 15.6592 70.1165 15.3004C70.4037 14.9415 70.5575 14.4083 70.5575 13.7009C70.5575 13.0037 70.4037 12.4705 70.1063 12.1117C69.8088 11.7528 69.3781 11.5785 68.8345 11.5785C68.2704 11.5785 67.8396 11.7631 67.5216 12.1424C67.2139 12.5218 67.0601 13.0447 67.0601 13.7419Z" fill="white"/>
<path d="M77.224 11.6986V15.0411C77.224 15.7383 77.3881 16.2509 77.706 16.5995C78.024 16.9481 78.5163 17.1122 79.1624 17.1122C79.3778 17.1122 79.6035 17.0917 79.8291 17.0404C80.0547 16.9891 80.2188 16.9481 80.3112 16.8866V15.6152C80.2188 15.6768 80.106 15.728 79.9829 15.769C79.8599 15.8101 79.747 15.8306 79.665 15.8306C79.3573 15.8306 79.1214 15.7485 78.9778 15.5845C78.8342 15.4204 78.7624 15.1334 78.7624 14.7335V11.6883H80.3214V10.4375H78.7727V8.5099L77.2342 8.98154V10.4477H74.947V9.65824C74.947 9.26862 75.0291 8.97128 75.2035 8.76622C75.3778 8.56116 75.624 8.46889 75.9419 8.46889C76.106 8.46889 76.2496 8.48939 76.3829 8.5304C76.506 8.57142 76.5983 8.61243 76.6496 8.64319V7.32055C76.5368 7.27953 76.4137 7.25903 76.2701 7.23852C76.1265 7.21802 75.9624 7.20776 75.7778 7.20776C75.0804 7.20776 74.506 7.42308 74.065 7.86396C73.624 8.30484 73.3983 8.8585 73.3983 9.54545V10.4477H72.3112V11.6986H73.3983V16.9584H74.947V11.6986H77.224V11.6986Z" fill="white"/>
<path d="M38.8373 7.86743V16.9516H37.2578V9.83602H37.2373L34.4168 16.9516H33.3707L30.4783 9.83602H30.4578V16.9516H29.0014V7.86743H31.2578L33.8732 14.6037H33.9142L36.6732 7.86743H38.8373Z" fill="white"/>
<rect x="0.5" y="0.5" width="87.0005" height="31" rx="3.5" stroke="black"/>
</svg>
