<svg width="122" height="32" viewBox="0 0 122 32" fill="none" xmlns="http://www.w3.org/2000/svg">
<rect x="0.5" y="0.5" width="121.001" height="31" rx="3.5" fill="black"/>
<path d="M15.56 6.99988H7V15.5606H15.56V6.99988Z" fill="#F25022"/>
<path d="M25.0021 6.99988H16.4421V15.5606H25.0021V6.99988Z" fill="#7FBA00"/>
<path d="M15.56 16.4392H7V24.9999H15.56V16.4392Z" fill="#00A4EF"/>
<path d="M25.0022 16.4392H16.4422V24.9999H25.0022V16.4392Z" fill="#FFB900"/>
<path d="M30.3716 25H29.6763V20.9023H30.3716V22.7812H30.3912L32.0708 20.9023H32.9732L31.1099 22.875L33.1177 25H32.1607L30.3912 23.0234H30.3716V25ZM35.5083 25.0977C34.8964 25.0977 34.4081 24.9062 34.0435 24.5234C33.6815 24.138 33.5005 23.6276 33.5005 22.9922C33.5005 22.3073 33.688 21.7721 34.063 21.3867C34.438 21.0013 34.9497 20.8073 35.5982 20.8047C36.2128 20.8021 36.6932 20.9909 37.0396 21.3711C37.3885 21.7487 37.563 22.2682 37.563 22.9297C37.563 23.5885 37.3768 24.1146 37.0044 24.5078C36.632 24.901 36.1333 25.0977 35.5083 25.0977ZM35.5552 24.5195C35.9719 24.5195 36.2909 24.3841 36.5122 24.1133C36.7362 23.8398 36.8482 23.4531 36.8482 22.9531C36.8482 22.4479 36.7362 22.0599 36.5122 21.7891C36.2883 21.5182 35.9693 21.3828 35.5552 21.3828C35.1412 21.3828 34.813 21.5247 34.5708 21.8086C34.3313 22.0898 34.2115 22.4779 34.2115 22.9727C34.2115 23.4544 34.3326 23.8333 34.5747 24.1094C34.8169 24.3828 35.1438 24.5195 35.5552 24.5195ZM39.356 24.4102H39.3404V26.8398H38.6451V20.9023H39.3404V21.6172H39.356C39.5175 21.3464 39.7167 21.1432 39.9537 21.0078C40.1906 20.8724 40.4628 20.8047 40.7701 20.8047C41.2987 20.8047 41.7102 20.9883 42.0044 21.3555C42.3013 21.7227 42.4497 22.2135 42.4497 22.8281C42.4497 23.5156 42.2818 24.0664 41.9458 24.4805C41.6125 24.8919 41.1581 25.0977 40.5826 25.0977C40.3169 25.0977 40.0813 25.0404 39.8755 24.9258C39.6724 24.8112 39.4992 24.6393 39.356 24.4102ZM39.3365 22.7617V23.3086C39.3365 23.6471 39.4445 23.9336 39.6607 24.168C39.8768 24.4023 40.1529 24.5195 40.4888 24.5195C40.8768 24.5195 41.1815 24.3698 41.4029 24.0703C41.6242 23.7708 41.7349 23.3542 41.7349 22.8203C41.7349 22.3698 41.632 22.0182 41.4263 21.7656C41.2206 21.5104 40.9406 21.3828 40.5865 21.3828C40.2089 21.3828 39.9055 21.5143 39.6763 21.7773C39.4497 22.0378 39.3365 22.3659 39.3365 22.7617ZM46.2701 25V21.4805H44.2232V25H43.5279V20.9023H46.9654V25H46.2701ZM50.0552 25.0977C49.4432 25.0977 48.955 24.9062 48.5904 24.5234C48.2284 24.138 48.0474 23.6276 48.0474 22.9922C48.0474 22.3073 48.2349 21.7721 48.6099 21.3867C48.9849 21.0013 49.4966 20.8073 50.1451 20.8047C50.7596 20.8021 51.2401 20.9909 51.5865 21.3711C51.9354 21.7487 52.1099 22.2682 52.1099 22.9297C52.1099 23.5885 51.9237 24.1146 51.5513 24.5078C51.1789 24.901 50.6802 25.0977 50.0552 25.0977ZM50.1021 24.5195C50.5188 24.5195 50.8378 24.3841 51.0591 24.1133C51.2831 23.8398 51.3951 23.4531 51.3951 22.9531C51.3951 22.4479 51.2831 22.0599 51.0591 21.7891C50.8352 21.5182 50.5162 21.3828 50.1021 21.3828C49.688 21.3828 49.3599 21.5247 49.1177 21.8086C48.8781 22.0898 48.7583 22.4779 48.7583 22.9727C48.7583 23.4544 48.8794 23.8333 49.1216 24.1094C49.3638 24.3828 49.6906 24.5195 50.1021 24.5195ZM53.9029 24.4102H53.8872V26.8398H53.1919V20.9023H53.8872V21.6172H53.9029C54.0643 21.3464 54.2635 21.1432 54.5005 21.0078C54.7375 20.8724 55.0096 20.8047 55.3169 20.8047C55.8456 20.8047 56.257 20.9883 56.5513 21.3555C56.8482 21.7227 56.9966 22.2135 56.9966 22.8281C56.9966 23.5156 56.8287 24.0664 56.4927 24.4805C56.1594 24.8919 55.705 25.0977 55.1294 25.0977C54.8638 25.0977 54.6281 25.0404 54.4224 24.9258C54.2193 24.8112 54.0461 24.6393 53.9029 24.4102ZM53.8833 22.7617V23.3086C53.8833 23.6471 53.9914 23.9336 54.2076 24.168C54.4237 24.4023 54.6997 24.5195 55.0357 24.5195C55.4237 24.5195 55.7284 24.3698 55.9497 24.0703C56.1711 23.7708 56.2818 23.3542 56.2818 22.8203C56.2818 22.3698 56.1789 22.0182 55.9732 21.7656C55.7675 21.5104 55.4875 21.3828 55.1333 21.3828C54.7557 21.3828 54.4523 21.5143 54.2232 21.7773C53.9966 22.0378 53.8833 22.3659 53.8833 22.7617ZM60.9771 25H60.2857V24.3555H60.2701C60.1294 24.6003 59.955 24.7852 59.7466 24.9102C59.5383 25.0352 59.2961 25.0977 59.0201 25.0977C58.6346 25.0977 58.3234 24.9857 58.0865 24.7617C57.8495 24.5378 57.731 24.2422 57.731 23.875C57.731 23.5182 57.8508 23.2253 58.0904 22.9961C58.33 22.7669 58.675 22.6198 59.1255 22.5547L60.2896 22.3984V22.3047C60.2896 21.974 60.2102 21.7357 60.0513 21.5898C59.8951 21.444 59.6841 21.3711 59.4185 21.3711C59.2076 21.3711 59.0018 21.4115 58.8013 21.4922C58.6008 21.5729 58.4107 21.694 58.231 21.8555L57.8521 21.4336C58.0839 21.2201 58.3313 21.0625 58.5943 20.9609C58.8599 20.8568 59.1503 20.8047 59.4654 20.8047C59.9654 20.8047 60.3417 20.9336 60.5943 21.1914C60.8495 21.4492 60.9771 21.8359 60.9771 22.3516V25ZM60.2896 23.3281V22.9336L59.313 23.0664C59.0135 23.1081 58.7896 23.1836 58.6412 23.293C58.4927 23.4023 58.4185 23.5742 58.4185 23.8086C58.4185 24.0404 58.4875 24.2201 58.6255 24.3477C58.7662 24.4753 58.9406 24.5391 59.149 24.5391C59.4927 24.5391 59.7688 24.4258 59.9771 24.1992C60.1854 23.9701 60.2896 23.6797 60.2896 23.3281ZM65.7193 26.0664V25H62.2701V20.9023H62.9654V24.4258H65.0122V20.9023H65.7076V24.4258H66.3169V26.0664H65.7193ZM67.2701 25V20.9023H67.938V24.0977C67.9693 24.0352 68.0031 23.9714 68.0396 23.9062C68.0787 23.8411 68.1151 23.7826 68.149 23.7305L70.0396 20.9023H70.7505V25H70.0826V21.8047C70.0487 21.8672 70.0122 21.931 69.9732 21.9961C69.9367 22.0612 69.9029 22.1198 69.8716 22.1719L67.981 25H67.2701ZM71.6997 25L72.3755 23.8281C72.4615 23.6771 72.5552 23.5508 72.6568 23.4492C72.7583 23.3477 72.8599 23.2773 72.9615 23.2383C72.6307 23.194 72.3755 23.0755 72.1958 22.8828C72.0162 22.6875 71.9263 22.4336 71.9263 22.1211C71.9263 21.7305 72.0578 21.4297 72.3208 21.2188C72.5839 21.0078 72.9589 20.9023 73.4458 20.9023H74.9732V25H74.2779V23.3867H73.8091C73.6607 23.3867 73.5253 23.4375 73.4029 23.5391C73.2831 23.638 73.162 23.8008 73.0396 24.0273L72.5201 25H71.6997ZM74.2779 21.4727H73.4615C73.1984 21.4727 72.9953 21.5312 72.8521 21.6484C72.7089 21.763 72.6372 21.9271 72.6372 22.1406C72.6372 22.3646 72.7063 22.5378 72.8443 22.6602C72.9849 22.7826 73.1841 22.8438 73.4419 22.8438H74.2779V21.4727ZM79.2505 24.7422C79.0552 24.8672 78.8599 24.957 78.6646 25.0117C78.4693 25.069 78.2596 25.0977 78.0357 25.0977C77.4497 25.0977 76.9719 24.918 76.6021 24.5586C76.2323 24.1966 76.0474 23.6914 76.0474 23.043C76.0474 22.3711 76.2349 21.8307 76.6099 21.4219C76.9875 21.0104 77.5031 20.8047 78.1568 20.8047C78.3677 20.8047 78.5682 20.8307 78.7583 20.8828C78.9484 20.9323 79.1398 21.013 79.3326 21.125L79.0396 21.6328C78.8912 21.5443 78.7453 21.4818 78.6021 21.4453C78.4589 21.4062 78.3052 21.3867 78.1412 21.3867C77.6958 21.3867 77.3534 21.5352 77.1138 21.832C76.8768 22.1263 76.7583 22.5052 76.7583 22.9688C76.7583 23.4688 76.882 23.8516 77.1294 24.1172C77.3794 24.3828 77.701 24.5156 78.0943 24.5156C78.2271 24.5156 78.3638 24.4961 78.5044 24.457C78.6477 24.4154 78.7948 24.3464 78.9458 24.25L79.2505 24.7422ZM84.0708 25V20.9023H84.7622V25H84.0708ZM80.1997 25V20.9023H80.8951V22.332H81.9966C82.4393 22.332 82.7857 22.4466 83.0357 22.6758C83.2857 22.9049 83.4107 23.2318 83.4107 23.6562C83.4107 24.0859 83.2805 24.418 83.0201 24.6523C82.7622 24.8841 82.412 25 81.9693 25H80.1997ZM80.8951 22.9062V24.4297H81.8833C82.1438 24.4297 82.3443 24.3646 82.4849 24.2344C82.6281 24.1042 82.6997 23.918 82.6997 23.6758C82.6997 23.431 82.6281 23.2422 82.4849 23.1094C82.3443 22.974 82.1438 22.9062 81.8833 22.9062H80.8951ZM86.1216 25V20.9023H86.8169V22.6172H88.8638V20.9023H89.5591V25H88.8638V23.1875H86.8169V25H86.1216ZM93.8599 25H93.1685V24.3555H93.1529C93.0122 24.6003 92.8378 24.7852 92.6294 24.9102C92.4211 25.0352 92.1789 25.0977 91.9029 25.0977C91.5175 25.0977 91.2063 24.9857 90.9693 24.7617C90.7323 24.5378 90.6138 24.2422 90.6138 23.875C90.6138 23.5182 90.7336 23.2253 90.9732 22.9961C91.2128 22.7669 91.5578 22.6198 92.0083 22.5547L93.1724 22.3984V22.3047C93.1724 21.974 93.093 21.7357 92.9341 21.5898C92.7779 21.444 92.5669 21.3711 92.3013 21.3711C92.0904 21.3711 91.8846 21.4115 91.6841 21.4922C91.4836 21.5729 91.2935 21.694 91.1138 21.8555L90.7349 21.4336C90.9667 21.2201 91.2141 21.0625 91.4771 20.9609C91.7427 20.8568 92.0331 20.8047 92.3482 20.8047C92.8482 20.8047 93.2245 20.9336 93.4771 21.1914C93.7323 21.4492 93.8599 21.8359 93.8599 22.3516V25ZM93.1724 23.3281V22.9336L92.1958 23.0664C91.8964 23.1081 91.6724 23.1836 91.524 23.293C91.3755 23.4023 91.3013 23.5742 91.3013 23.8086C91.3013 24.0404 91.3703 24.2201 91.5083 24.3477C91.649 24.4753 91.8234 24.5391 92.0318 24.5391C92.3755 24.5391 92.6516 24.4258 92.8599 24.1992C93.0682 23.9701 93.1724 23.6797 93.1724 23.3281ZM95.1529 25V20.9023H95.8482V22.6172H97.8951V20.9023H98.5904V25H97.8951V23.1875H95.8482V25H95.1529ZM105.086 25H104.395V24.3555H104.379C104.239 24.6003 104.064 24.7852 103.856 24.9102C103.648 25.0352 103.405 25.0977 103.129 25.0977C102.744 25.0977 102.433 24.9857 102.196 24.7617C101.959 24.5378 101.84 24.2422 101.84 23.875C101.84 23.5182 101.96 23.2253 102.2 22.9961C102.439 22.7669 102.784 22.6198 103.235 22.5547L104.399 22.3984V22.3047C104.399 21.974 104.32 21.7357 104.161 21.5898C104.004 21.444 103.793 21.3711 103.528 21.3711C103.317 21.3711 103.111 21.4115 102.911 21.4922C102.71 21.5729 102.52 21.694 102.34 21.8555L101.961 21.4336C102.193 21.2201 102.441 21.0625 102.704 20.9609C102.969 20.8568 103.26 20.8047 103.575 20.8047C104.075 20.8047 104.451 20.9336 104.704 21.1914C104.959 21.4492 105.086 21.8359 105.086 22.3516V25ZM104.399 23.3281V22.9336L103.422 23.0664C103.123 23.1081 102.899 23.1836 102.751 23.293C102.602 23.4023 102.528 23.5742 102.528 23.8086C102.528 24.0404 102.597 24.2201 102.735 24.3477C102.876 24.4753 103.05 24.5391 103.258 24.5391C103.602 24.5391 103.878 24.4258 104.086 24.1992C104.295 23.9701 104.399 23.6797 104.399 23.3281ZM109.458 25H108.762V21.4766H107.251V22.7734C107.251 23.362 107.219 23.8138 107.157 24.1289C107.097 24.4414 106.994 24.6706 106.848 24.8164C106.747 24.9154 106.637 24.9857 106.52 25.0273C106.403 25.0716 106.257 25.0938 106.083 25.0938C106.02 25.0938 105.964 25.0898 105.915 25.082C105.865 25.0768 105.812 25.0664 105.754 25.0508L105.864 24.4766C105.89 24.4844 105.917 24.4909 105.946 24.4961C105.974 24.4987 106.01 24.5 106.051 24.5C106.119 24.5 106.178 24.4896 106.227 24.4688C106.279 24.4479 106.329 24.4154 106.376 24.3711C106.459 24.2878 106.519 24.1198 106.555 23.8672C106.592 23.6146 106.609 23.2318 106.606 22.7188V20.9023H109.458V25ZM114.129 20.9023L112.219 25.7344C112.068 26.1198 111.876 26.4089 111.641 26.6016C111.407 26.7943 111.129 26.8906 110.809 26.8906C110.723 26.8906 110.642 26.8854 110.567 26.875C110.494 26.8646 110.425 26.8503 110.36 26.832L110.493 26.25C110.545 26.2682 110.593 26.2812 110.637 26.2891C110.684 26.2969 110.731 26.3008 110.778 26.3008C110.95 26.3008 111.094 26.2552 111.211 26.1641C111.329 26.0729 111.424 25.944 111.497 25.7773L111.829 24.9922L110.223 20.9023H110.993L112.079 24.0078C112.086 24.0339 112.097 24.0755 112.11 24.1328C112.126 24.1875 112.144 24.2565 112.165 24.3398H112.188C112.196 24.3034 112.206 24.2591 112.219 24.207C112.235 24.1523 112.253 24.0885 112.274 24.0156L113.415 20.9023H114.129Z" fill="white"/>
<path d="M40.1495 8.55974C40.1495 8.30341 40.2418 8.09835 40.4264 7.92405C40.6111 7.74975 40.8264 7.66772 41.0828 7.66772C41.3495 7.66772 41.5752 7.76 41.7495 7.9343C41.9239 8.1086 42.0162 8.32392 42.0162 8.55974C42.0162 8.80581 41.9239 9.02112 41.7393 9.18517C41.5546 9.35947 41.3393 9.4415 41.0726 9.4415C40.8059 9.4415 40.5905 9.35947 40.4059 9.18517C40.2418 9.01087 40.1495 8.80581 40.1495 8.55974ZM41.8418 16.9467H40.3136V10.436H41.8418V16.9467Z" fill="white"/>
<path d="M46.4979 15.8335C46.7235 15.8335 46.9799 15.7822 47.2568 15.6797C47.5338 15.5772 47.7799 15.4336 48.0158 15.2593V16.6845C47.7697 16.8281 47.4927 16.9306 47.185 17.0024C46.8773 17.0741 46.5286 17.1151 46.1594 17.1151C45.2055 17.1151 44.426 16.8075 43.8209 16.2026C43.2158 15.5977 42.9183 14.8185 42.9183 13.8854C42.9183 12.8396 43.226 11.9784 43.8414 11.3017C44.4568 10.625 45.3184 10.2866 46.4466 10.2866C46.7338 10.2866 47.0209 10.3276 47.3184 10.3994C47.6158 10.4712 47.8415 10.5635 48.0158 10.6557V12.1219C47.7799 11.9476 47.5338 11.8143 47.2876 11.722C47.0414 11.6298 46.785 11.5785 46.5286 11.5785C45.9235 11.5785 45.4414 11.7733 45.062 12.1629C44.6927 12.5525 44.5081 13.0857 44.5081 13.7521C44.5081 14.4083 44.6825 14.921 45.0414 15.2901C45.4004 15.6592 45.8825 15.8335 46.4979 15.8335Z" fill="white"/>
<path d="M52.3737 10.3367C52.4968 10.3367 52.6096 10.3469 52.7019 10.3572C52.7942 10.3777 52.8866 10.3982 52.9481 10.4187V11.9669C52.866 11.9054 52.7532 11.8541 52.5994 11.8029C52.4455 11.7516 52.2609 11.7208 52.0353 11.7208C51.6558 11.7208 51.3378 11.8746 51.0814 12.1925C50.825 12.5103 50.6917 12.9922 50.6917 13.6586V16.9499H49.1635V10.4392H50.6917V11.4645H50.7122C50.8558 11.1056 51.0609 10.8288 51.3481 10.634C51.6353 10.4392 51.9737 10.3367 52.3737 10.3367Z" fill="white"/>
<path d="M53.0304 13.7932C53.0304 12.7166 53.3381 11.8656 53.9432 11.2299C54.5483 10.6045 55.3996 10.2866 56.4765 10.2866C57.4919 10.2866 58.2919 10.5942 58.8663 11.1991C59.4406 11.8041 59.7278 12.6243 59.7278 13.6496C59.7278 14.7057 59.4201 15.5464 58.815 16.1719C58.2099 16.7973 57.3791 17.1049 56.3329 17.1049C55.3278 17.1049 54.5176 16.8075 53.9329 16.2129C53.3278 15.6284 53.0304 14.8185 53.0304 13.7932ZM54.6304 13.7419C54.6304 14.4186 54.7842 14.9415 55.0919 15.3003C55.3996 15.6592 55.8406 15.8335 56.415 15.8335C56.9688 15.8335 57.3996 15.6592 57.6868 15.3003C57.974 14.9415 58.1278 14.4083 58.1278 13.7009C58.1278 13.0037 57.974 12.4705 57.6765 12.1117C57.3791 11.7528 56.9483 11.5785 56.4047 11.5785C55.8406 11.5785 55.4099 11.7631 55.0919 12.1424C54.7842 12.5218 54.6304 13.0447 54.6304 13.7419Z" fill="white"/>
<path d="M62.0043 12.153C62.0043 12.3684 62.0761 12.5427 62.2095 12.6657C62.353 12.7887 62.6607 12.9425 63.1325 13.1373C63.7479 13.3834 64.1787 13.6602 64.4248 13.9678C64.671 14.2754 64.7941 14.6445 64.7941 15.0752C64.7941 15.6903 64.5582 16.1825 64.0864 16.5516C63.6146 16.9207 62.9787 17.1053 62.1787 17.1053C61.912 17.1053 61.6146 17.0745 61.2864 17.0027C60.9582 16.9412 60.6812 16.8489 60.4556 16.7567V15.2495C60.7325 15.4443 61.03 15.5981 61.3582 15.7108C61.6761 15.8236 61.9736 15.8851 62.23 15.8851C62.5787 15.8851 62.8351 15.8339 62.9992 15.7416C63.1633 15.6493 63.2453 15.4853 63.2453 15.2495C63.2453 15.0341 63.1633 14.8598 62.9889 14.7163C62.8146 14.5728 62.4966 14.3985 62.0146 14.2139C61.4505 13.9781 61.0505 13.7115 60.8146 13.4142C60.5787 13.1168 60.4556 12.7375 60.4556 12.2863C60.4556 11.7019 60.6915 11.22 61.153 10.8407C61.6146 10.4613 62.2197 10.2767 62.9684 10.2767C63.1941 10.2767 63.4505 10.2972 63.7377 10.3485C64.0248 10.3998 64.2607 10.4613 64.4453 10.5433V11.9992C64.2402 11.866 64.0043 11.7532 63.7377 11.6506C63.471 11.5584 63.1941 11.5071 62.9377 11.5071C62.6505 11.5071 62.4146 11.5686 62.2607 11.6814C62.0864 11.7942 62.0043 11.9582 62.0043 12.153Z" fill="white"/>
<path d="M65.4704 13.7932C65.4704 12.7166 65.778 11.8656 66.3832 11.2299C66.9883 10.6045 67.8396 10.2866 68.9165 10.2866C69.9319 10.2866 70.7319 10.5942 71.3063 11.1991C71.8806 11.8041 72.1678 12.6243 72.1678 13.6496C72.1678 14.7057 71.8601 15.5464 71.255 16.1719C70.6498 16.7973 69.8191 17.1049 68.7729 17.1049C67.7678 17.1049 66.9575 16.8075 66.3729 16.2129C65.7678 15.6284 65.4704 14.8185 65.4704 13.7932ZM67.0601 13.7419C67.0601 14.4186 67.2139 14.9415 67.5216 15.3004C67.8293 15.6592 68.2704 15.8335 68.8447 15.8335C69.3986 15.8335 69.8293 15.6592 70.1165 15.3004C70.4037 14.9415 70.5575 14.4083 70.5575 13.7009C70.5575 13.0037 70.4037 12.4705 70.1063 12.1117C69.8088 11.7528 69.3781 11.5785 68.8345 11.5785C68.2704 11.5785 67.8396 11.7631 67.5216 12.1424C67.2139 12.5218 67.0601 13.0447 67.0601 13.7419Z" fill="white"/>
<path d="M77.224 11.6986V15.0411C77.224 15.7383 77.3881 16.2509 77.706 16.5995C78.024 16.9481 78.5163 17.1122 79.1624 17.1122C79.3778 17.1122 79.6035 17.0917 79.8291 17.0404C80.0547 16.9891 80.2188 16.9481 80.3112 16.8866V15.6152C80.2188 15.6768 80.106 15.728 79.9829 15.769C79.8599 15.8101 79.747 15.8306 79.665 15.8306C79.3573 15.8306 79.1214 15.7485 78.9778 15.5845C78.8342 15.4204 78.7624 15.1334 78.7624 14.7335V11.6883H80.3214V10.4375H78.7727V8.5099L77.2342 8.98154V10.4477H74.947V9.65824C74.947 9.26862 75.0291 8.97128 75.2035 8.76622C75.3778 8.56116 75.624 8.46889 75.9419 8.46889C76.106 8.46889 76.2496 8.48939 76.3829 8.5304C76.506 8.57142 76.5983 8.61243 76.6496 8.64319V7.32055C76.5368 7.27953 76.4137 7.25903 76.2701 7.23852C76.1265 7.21802 75.9624 7.20776 75.7778 7.20776C75.0804 7.20776 74.506 7.42308 74.065 7.86396C73.624 8.30484 73.3983 8.8585 73.3983 9.54545V10.4477H72.3112V11.6986H73.3983V16.9584H74.947V11.6986H77.224V11.6986Z" fill="white"/>
<path d="M38.8373 7.86743V16.9516H37.2578V9.83602H37.2373L34.4168 16.9516H33.3707L30.4783 9.83602H30.4578V16.9516H29.0014V7.86743H31.2578L33.8732 14.6037H33.9142L36.6732 7.86743H38.8373Z" fill="white"/>
<rect x="0.5" y="0.5" width="121.001" height="31" rx="3.5" stroke="black"/>
</svg>
