<svg width="88" height="32" viewBox="0 0 88 32" fill="none" xmlns="http://www.w3.org/2000/svg">
<rect x="0.5" y="0.5" width="86.9975" height="31" rx="3.5" fill="white" fill-opacity="0.7"/>
<path d="M15.56 6.99988H7V15.5606H15.56V6.99988Z" fill="#F25022"/>
<path d="M25.0021 6.99988H16.4421V15.5606H25.0021V6.99988Z" fill="#7FBA00"/>
<path d="M15.56 16.4392H7V24.9999H15.56V16.4392Z" fill="#00A4EF"/>
<path d="M25.0022 16.4392H16.4422V24.9999H25.0022V16.4392Z" fill="#FFB900"/>
<path d="M32.3285 21.2V21.752H33.6965V21.2H32.3285ZM34.9045 18.392V25.624H35.5445V18.392H34.9045ZM33.4725 18.544V25.264H34.1045V18.544H33.4725ZM31.0245 18.992C30.0885 18.992 29.4885 19.96 29.4885 21.512C29.4885 23.064 30.0885 24.032 31.0245 24.032C31.9605 24.032 32.5685 23.064 32.5685 21.512C32.5685 19.96 31.9605 18.992 31.0245 18.992ZM31.0245 19.608C31.6005 19.608 31.9605 20.344 31.9605 21.512C31.9605 22.68 31.6005 23.416 31.0245 23.416C30.4565 23.416 30.0965 22.68 30.0965 21.512C30.0965 20.344 30.4565 19.608 31.0245 19.608ZM40.3679 20.84V21.384H42.3839V20.84H40.3679ZM38.6239 19.016V20.304C38.6239 21.648 37.8079 23.04 36.7439 23.568L37.1679 24.096C38.3119 23.48 39.1679 21.928 39.1679 20.304V19.016H38.6239ZM38.7519 19.016V20.304C38.7519 21.888 39.5919 23.376 40.7599 23.968L41.1519 23.432C40.1039 22.936 39.2879 21.624 39.2879 20.304V19.016H38.7519ZM42.0559 18.384V25.632H42.7119V18.384H42.0559ZM51.2026 18.384V25.632H51.8746V18.384H51.2026ZM51.7146 21.24V21.8H53.0586V21.24H51.7146ZM46.6186 23.272V23.832H47.1866C48.5466 23.832 49.4986 23.792 50.6106 23.584L50.5386 23.024C49.4586 23.224 48.5226 23.272 47.1866 23.272H46.6186ZM46.6186 19.088V23.52H47.2746V19.632H49.9786V19.088H46.6186ZM53.666 22.056V22.6H60.226V22.056H53.666ZM56.658 22.4V24.064H57.33V22.4H56.658ZM54.498 24.912V25.464H59.498V24.912H54.498ZM54.498 23.352V25.064H55.162V23.352H54.498ZM56.938 18.568C55.402 18.568 54.402 19.128 54.402 20.024C54.402 20.92 55.402 21.48 56.938 21.48C58.466 21.48 59.474 20.92 59.474 20.024C59.474 19.128 58.466 18.568 56.938 18.568ZM56.938 19.112C58.042 19.112 58.77 19.464 58.77 20.024C58.77 20.592 58.042 20.936 56.938 20.936C55.834 20.936 55.106 20.592 55.106 20.024C55.106 19.464 55.834 19.112 56.938 19.112ZM61.0333 24.184V24.736H67.5853V24.184H61.0333ZM63.9613 22.632V24.416H64.6253V22.632H63.9613ZM61.8253 18.928V19.464H66.1213V20.584H61.8493V22.568H62.5053V21.12H66.7773V18.928H61.8253ZM61.8493 22.288V22.832H66.9453V22.288H61.8493ZM69.2167 21.856V22.4H74.1847V21.856H69.2167ZM68.3927 24.096V24.648H74.9447V24.096H68.3927ZM69.2167 19.056V22.096H69.8807V19.608H74.1127V19.056H69.2167Z" fill="black" fill-opacity="0.8956"/>
<path d="M40.1495 8.55974C40.1495 8.30341 40.2418 8.09835 40.4264 7.92405C40.6111 7.74975 40.8264 7.66772 41.0828 7.66772C41.3495 7.66772 41.5752 7.76 41.7495 7.9343C41.9239 8.1086 42.0162 8.32392 42.0162 8.55974C42.0162 8.80581 41.9239 9.02112 41.7393 9.18517C41.5546 9.35947 41.3393 9.4415 41.0726 9.4415C40.8059 9.4415 40.5905 9.35947 40.4059 9.18517C40.2418 9.01087 40.1495 8.80581 40.1495 8.55974ZM41.8418 16.9467H40.3136V10.436H41.8418V16.9467Z" fill="black" fill-opacity="0.8956"/>
<path d="M46.4979 15.8335C46.7235 15.8335 46.9799 15.7822 47.2568 15.6797C47.5338 15.5772 47.7799 15.4336 48.0158 15.2593V16.6845C47.7697 16.8281 47.4927 16.9306 47.185 17.0024C46.8773 17.0741 46.5286 17.1151 46.1594 17.1151C45.2055 17.1151 44.4261 16.8075 43.8209 16.2026C43.2158 15.5977 42.9184 14.8185 42.9184 13.8854C42.9184 12.8396 43.226 11.9784 43.8414 11.3017C44.4568 10.625 45.3184 10.2866 46.4466 10.2866C46.7338 10.2866 47.0209 10.3276 47.3184 10.3994C47.6158 10.4712 47.8415 10.5635 48.0158 10.6557V12.1219C47.7799 11.9476 47.5338 11.8143 47.2876 11.722C47.0414 11.6298 46.785 11.5785 46.5286 11.5785C45.9235 11.5785 45.4414 11.7733 45.062 12.1629C44.6927 12.5525 44.5081 13.0857 44.5081 13.7521C44.5081 14.4083 44.6825 14.921 45.0414 15.2901C45.4004 15.6592 45.8825 15.8335 46.4979 15.8335Z" fill="black" fill-opacity="0.8956"/>
<path d="M52.3737 10.3367C52.4968 10.3367 52.6096 10.3469 52.7019 10.3572C52.7942 10.3777 52.8866 10.3982 52.9481 10.4187V11.9669C52.866 11.9054 52.7532 11.8541 52.5994 11.8029C52.4455 11.7516 52.2609 11.7208 52.0353 11.7208C51.6558 11.7208 51.3378 11.8746 51.0814 12.1925C50.825 12.5103 50.6917 12.9922 50.6917 13.6586V16.9499H49.1635V10.4392H50.6917V11.4645H50.7122C50.8558 11.1056 51.0609 10.8288 51.3481 10.634C51.6353 10.4392 51.9737 10.3367 52.3737 10.3367Z" fill="black" fill-opacity="0.8956"/>
<path d="M53.0304 13.7932C53.0304 12.7166 53.3381 11.8656 53.9432 11.2299C54.5483 10.6045 55.3996 10.2866 56.4765 10.2866C57.4919 10.2866 58.2919 10.5942 58.8663 11.1991C59.4406 11.8041 59.7278 12.6243 59.7278 13.6496C59.7278 14.7057 59.4201 15.5464 58.815 16.1719C58.2099 16.7973 57.3791 17.1049 56.3329 17.1049C55.3278 17.1049 54.5176 16.8075 53.9329 16.2129C53.3278 15.6284 53.0304 14.8185 53.0304 13.7932ZM54.6304 13.7419C54.6304 14.4186 54.7842 14.9415 55.0919 15.3003C55.3996 15.6592 55.8406 15.8335 56.415 15.8335C56.9688 15.8335 57.3996 15.6592 57.6868 15.3003C57.974 14.9415 58.1278 14.4083 58.1278 13.7009C58.1278 13.0037 57.974 12.4705 57.6765 12.1117C57.3791 11.7528 56.9483 11.5785 56.4047 11.5785C55.8406 11.5785 55.4099 11.7631 55.0919 12.1424C54.7842 12.5218 54.6304 13.0447 54.6304 13.7419Z" fill="black" fill-opacity="0.8956"/>
<path d="M62.0043 12.153C62.0043 12.3684 62.0761 12.5427 62.2095 12.6657C62.353 12.7887 62.6607 12.9425 63.1325 13.1373C63.7479 13.3834 64.1787 13.6602 64.4248 13.9678C64.671 14.2754 64.7941 14.6445 64.7941 15.0752C64.7941 15.6903 64.5582 16.1825 64.0864 16.5516C63.6146 16.9207 62.9787 17.1053 62.1787 17.1053C61.912 17.1053 61.6146 17.0745 61.2864 17.0027C60.9582 16.9412 60.6812 16.8489 60.4556 16.7567V15.2495C60.7325 15.4443 61.03 15.5981 61.3582 15.7108C61.6761 15.8236 61.9736 15.8851 62.23 15.8851C62.5787 15.8851 62.8351 15.8339 62.9992 15.7416C63.1633 15.6493 63.2453 15.4853 63.2453 15.2495C63.2453 15.0341 63.1633 14.8598 62.9889 14.7163C62.8146 14.5728 62.4966 14.3985 62.0146 14.2139C61.4505 13.9781 61.0505 13.7115 60.8146 13.4142C60.5787 13.1168 60.4556 12.7375 60.4556 12.2863C60.4556 11.7019 60.6915 11.22 61.153 10.8407C61.6146 10.4613 62.2197 10.2767 62.9684 10.2767C63.1941 10.2767 63.4505 10.2972 63.7377 10.3485C64.0248 10.3998 64.2607 10.4613 64.4453 10.5433V11.9992C64.2402 11.866 64.0043 11.7532 63.7377 11.6506C63.471 11.5584 63.1941 11.5071 62.9377 11.5071C62.6505 11.5071 62.4146 11.5686 62.2607 11.6814C62.0864 11.7942 62.0043 11.9582 62.0043 12.153Z" fill="black" fill-opacity="0.8956"/>
<path d="M65.4704 13.7932C65.4704 12.7166 65.778 11.8656 66.3832 11.2299C66.9883 10.6045 67.8396 10.2866 68.9165 10.2866C69.9319 10.2866 70.7319 10.5942 71.3063 11.1991C71.8806 11.8041 72.1678 12.6243 72.1678 13.6496C72.1678 14.7057 71.8601 15.5464 71.255 16.1719C70.6498 16.7973 69.8191 17.1049 68.7729 17.1049C67.7678 17.1049 66.9575 16.8075 66.3729 16.2129C65.7678 15.6284 65.4704 14.8185 65.4704 13.7932ZM67.0601 13.7419C67.0601 14.4186 67.2139 14.9415 67.5216 15.3004C67.8293 15.6592 68.2704 15.8335 68.8447 15.8335C69.3986 15.8335 69.8293 15.6592 70.1165 15.3004C70.4037 14.9415 70.5575 14.4083 70.5575 13.7009C70.5575 13.0037 70.4037 12.4705 70.1063 12.1117C69.8088 11.7528 69.3781 11.5785 68.8345 11.5785C68.2704 11.5785 67.8396 11.7631 67.5216 12.1424C67.2139 12.5218 67.0601 13.0447 67.0601 13.7419Z" fill="black" fill-opacity="0.8956"/>
<path d="M77.224 11.6986V15.0411C77.224 15.7383 77.3881 16.2509 77.706 16.5995C78.024 16.9481 78.5163 17.1122 79.1624 17.1122C79.3778 17.1122 79.6035 17.0917 79.8291 17.0404C80.0547 16.9891 80.2188 16.9481 80.3112 16.8866V15.6152C80.2188 15.6768 80.106 15.728 79.983 15.769C79.8599 15.8101 79.747 15.8306 79.665 15.8306C79.3573 15.8306 79.1214 15.7485 78.9778 15.5845C78.8342 15.4204 78.7624 15.1334 78.7624 14.7335V11.6883H80.3214V10.4375H78.7727V8.5099L77.2342 8.98154V10.4477H74.947V9.65824C74.947 9.26862 75.0291 8.97128 75.2035 8.76622C75.3778 8.56116 75.624 8.46889 75.9419 8.46889C76.106 8.46889 76.2496 8.48939 76.3829 8.5304C76.506 8.57142 76.5983 8.61243 76.6496 8.64319V7.32055C76.5368 7.27953 76.4137 7.25903 76.2701 7.23852C76.1265 7.21802 75.9624 7.20776 75.7778 7.20776C75.0804 7.20776 74.506 7.42308 74.065 7.86396C73.624 8.30484 73.3983 8.8585 73.3983 9.54545V10.4477H72.3112V11.6986H73.3983V16.9584H74.947V11.6986H77.224V11.6986Z" fill="black" fill-opacity="0.8956"/>
<path d="M38.8373 7.86743V16.9516H37.2578V9.83602H37.2373L34.4168 16.9516H33.3707L30.4783 9.83602H30.4578V16.9516H29.0014V7.86743H31.2578L33.8732 14.6037H33.9142L36.6732 7.86743H38.8373Z" fill="black" fill-opacity="0.8956"/>
<rect x="0.5" y="0.5" width="86.9975" height="31" rx="3.5" stroke="url(#paint0_linear_1638_29839)"/>
<defs>
<linearGradient id="paint0_linear_1638_29839" x1="43.9988" y1="1" x2="43.9988" y2="31" gradientUnits="userSpaceOnUse">
<stop offset="0.905762" stop-opacity="0.0578"/>
<stop offset="1" stop-opacity="0.1622"/>
</linearGradient>
</defs>
</svg>
