<svg width="116" height="34" viewBox="0 0 116 34" fill="none" xmlns="http://www.w3.org/2000/svg">
<rect x="1" y="1" width="114" height="32" rx="4" fill="#FDFDFD"/>
<rect x="0.5" y="0.5" width="115" height="33" rx="4.5" stroke="black" stroke-opacity="0.0578"/>
<g clip-path="url(#clip0_976_1834)">
<g clip-path="url(#clip1_976_1834)">
<path d="M8.28125 11C8.28125 10.5858 8.61704 10.25 9.03125 10.25H24.9687C25.383 10.25 25.7188 10.5858 25.7188 11V22.3438C25.7188 24.0524 24.3336 25.4375 22.625 25.4375H11.375C9.66637 25.4375 8.28125 24.0524 8.28125 22.3438V11Z" fill="url(#paint0_linear_976_1834)"/>
<mask id="mask0_976_1834" style="mask-type:alpha" maskUnits="userSpaceOnUse" x="8" y="10" width="18" height="16">
<path d="M8.28125 11C8.28125 10.5858 8.61704 10.25 9.03125 10.25H24.9687C25.383 10.25 25.7188 10.5858 25.7188 11V22.3438C25.7188 24.0524 24.3336 25.4375 22.625 25.4375H11.375C9.66637 25.4375 8.28125 24.0524 8.28125 22.3438V11Z" fill="url(#paint1_linear_976_1834)"/>
</mask>
<g mask="url(#mask0_976_1834)">
<g filter="url(#filter0_dd_976_1834)">
<path d="M12.7812 10.8125V8.5625H21.2187V10.8125" stroke="url(#paint2_linear_976_1834)" stroke-width="1.125" stroke-linecap="round"/>
</g>
</g>
<g filter="url(#filter1_dd_976_1834)">
<path d="M16.719 14.1875H13.344V17.5625H16.719V14.1875Z" fill="#F25022"/>
<path d="M20.6562 14.1875H17.2812V17.5625H20.6562V14.1875Z" fill="#7FBA00"/>
<path d="M20.6562 18.125H17.2812V21.5H20.6562V18.125Z" fill="#FFB900"/>
<path d="M16.7188 18.125H13.3438V21.5H16.7188V18.125Z" fill="#00A4EF"/>
</g>
<path d="M12.7812 10.8125V9.125C12.7812 8.81434 13.0331 8.5625 13.3438 8.5625H20.6563C20.9669 8.5625 21.2188 8.81434 21.2188 9.125V10.8125" stroke="url(#paint3_linear_976_1834)" stroke-width="1.125" stroke-linecap="round"/>
<rect x="13.3438" y="8" width="7.3125" height="1.125" fill="url(#paint4_linear_976_1834)"/>
<mask id="mask1_976_1834" style="mask-type:alpha" maskUnits="userSpaceOnUse" x="13" y="8" width="8" height="2">
<rect x="13.3438" y="8" width="7.3125" height="1.125" fill="url(#paint5_linear_976_1834)"/>
</mask>
<g mask="url(#mask1_976_1834)">
<g filter="url(#filter2_dd_976_1834)">
<rect x="11.7189" y="8.56274" width="1.625" height="2.8125" fill="#C4C4C4"/>
</g>
</g>
</g>
</g>
<path d="M31.414 12.23C31.358 12.23 31.309 12.251 31.267 12.293C31.225 12.335 31.204 12.384 31.204 12.44C31.204 12.5007 31.225 12.552 31.267 12.594C31.309 12.6313 31.358 12.65 31.414 12.65C31.4747 12.65 31.5237 12.6313 31.561 12.594C31.603 12.552 31.624 12.5007 31.624 12.44C31.624 12.384 31.603 12.335 31.561 12.293C31.5237 12.251 31.4747 12.23 31.414 12.23ZM33.752 13H33.178V10.48C33.178 10.0413 32.8327 9.822 32.142 9.822C31.4467 9.822 31.099 10.0413 31.099 10.48V11.978C31.1923 11.9127 31.2973 11.88 31.414 11.88C31.568 11.88 31.6987 11.936 31.806 12.048C31.918 12.1553 31.974 12.286 31.974 12.44C31.974 12.594 31.918 12.727 31.806 12.839C31.6987 12.9463 31.568 13 31.414 13C30.8213 13 30.525 12.7503 30.525 12.251V10.48C30.525 9.73333 31.064 9.36 32.142 9.36C33.2153 9.36 33.752 9.73333 33.752 10.48V13ZM35.2383 10.291C35.1776 10.291 35.1263 10.312 35.0843 10.354C35.047 10.3913 35.0283 10.4403 35.0283 10.501C35.0283 10.557 35.047 10.606 35.0843 10.648C35.1263 10.69 35.1776 10.711 35.2383 10.711C35.2943 10.711 35.3433 10.69 35.3853 10.648C35.4273 10.606 35.4483 10.557 35.4483 10.501C35.4483 10.4403 35.4273 10.3913 35.3853 10.354C35.3433 10.312 35.2943 10.291 35.2383 10.291ZM36.6523 13V10.48C36.6523 10.0413 36.4003 9.822 35.8963 9.822C35.6583 9.822 35.4996 9.871 35.4203 9.969C35.4996 9.997 35.572 10.0413 35.6373 10.102C35.7446 10.2093 35.7983 10.3423 35.7983 10.501C35.7983 10.655 35.7423 10.788 35.6303 10.9C35.523 11.0073 35.3923 11.061 35.2383 11.061C34.7856 11.061 34.5593 10.844 34.5593 10.41C34.5593 9.71 35.005 9.36 35.8963 9.36C36.783 9.36 37.2263 9.73333 37.2263 10.48V13H36.6523ZM39.166 11.859C39.166 11.803 39.145 11.754 39.103 11.712C39.061 11.67 39.012 11.649 38.956 11.649C38.8953 11.649 38.844 11.67 38.802 11.712C38.7646 11.754 38.746 11.803 38.746 11.859C38.746 11.9197 38.7646 11.971 38.802 12.013C38.844 12.0503 38.8953 12.069 38.956 12.069C39.012 12.069 39.061 12.0503 39.103 12.013C39.145 11.971 39.166 11.9197 39.166 11.859ZM41.504 11.88C41.504 12.6267 40.9673 13 39.894 13C38.816 13 38.277 12.6267 38.277 11.88C38.277 11.446 38.5033 11.229 38.956 11.229C39.11 11.229 39.2406 11.285 39.348 11.397C39.46 11.5043 39.516 11.6583 39.516 11.859C39.516 12.0177 39.4623 12.1507 39.355 12.258C39.2896 12.3187 39.2173 12.363 39.138 12.391C39.3106 12.489 39.5626 12.538 39.894 12.538C40.5846 12.538 40.93 12.3187 40.93 11.88V10.48C40.93 10.0413 40.5846 9.822 39.894 9.822C39.1986 9.822 38.851 10.0413 38.851 10.48H38.277C38.277 9.73333 38.816 9.36 39.894 9.36C40.9673 9.36 41.504 9.73333 41.504 10.48V11.88ZM43.4453 12.23C43.3893 12.23 43.3403 12.251 43.2983 12.293C43.2563 12.335 43.2353 12.384 43.2353 12.44C43.2353 12.5007 43.2563 12.552 43.2983 12.594C43.3403 12.6313 43.3893 12.65 43.4453 12.65C43.5059 12.65 43.5549 12.6313 43.5923 12.594C43.6343 12.552 43.6553 12.5007 43.6553 12.44C43.6553 12.384 43.6343 12.335 43.5923 12.293C43.5549 12.251 43.5059 12.23 43.4453 12.23ZM43.0113 8.457L42.6753 8.212C42.5959 8.15133 42.5283 8.121 42.4723 8.121C42.4209 8.121 42.3766 8.14667 42.3393 8.198C42.3159 8.23067 42.3043 8.26567 42.3043 8.303C42.3043 8.373 42.3533 8.44533 42.4513 8.52L43.6063 9.367L43.4943 9.85C43.2516 9.91067 43.1303 10.0507 43.1303 10.27V11.978C43.2236 11.9127 43.3286 11.88 43.4453 11.88C43.5993 11.88 43.7299 11.936 43.8373 12.048C43.9493 12.1553 44.0053 12.286 44.0053 12.44C44.0053 12.594 43.9493 12.727 43.8373 12.839C43.7299 12.9463 43.5993 13 43.4453 13C42.8526 13 42.5563 12.7503 42.5563 12.251V10.27C42.5563 9.90133 42.7079 9.64467 43.0113 9.5L42.1783 8.891C41.9356 8.71367 41.8142 8.52467 41.8142 8.324C41.8142 8.19333 41.8656 8.06033 41.9682 7.925C42.1083 7.73367 42.2693 7.638 42.4513 7.638C42.6006 7.638 42.7663 7.70567 42.9483 7.841L43.2913 8.093C43.5199 8.261 43.8279 8.345 44.2153 8.345V8.807C43.7299 8.807 43.3286 8.69033 43.0113 8.457ZM45.2671 9.71C45.2064 9.71 45.1551 9.731 45.1131 9.773C45.0758 9.81033 45.0571 9.85933 45.0571 9.92C45.0571 9.976 45.0758 10.025 45.1131 10.067C45.1551 10.109 45.2064 10.13 45.2671 10.13C45.3231 10.13 45.3721 10.109 45.4141 10.067C45.4561 10.025 45.4771 9.976 45.4771 9.92C45.4771 9.85933 45.4561 9.81033 45.4141 9.773C45.3721 9.731 45.3231 9.71 45.2671 9.71ZM47.2691 11.88C47.2691 12.6267 46.8608 13 46.0441 13C45.2228 13 44.8121 12.6267 44.8121 11.88C44.8121 11.474 44.9614 11.1193 45.2601 10.816C45.3348 10.7367 45.3884 10.6177 45.4211 10.459C45.3744 10.473 45.3231 10.48 45.2671 10.48C45.1131 10.48 44.9801 10.4263 44.8681 10.319C44.7608 10.207 44.7071 10.074 44.7071 9.92C44.7071 9.76133 44.7608 9.62833 44.8681 9.521C44.9801 9.41367 45.1131 9.36 45.2671 9.36C45.7758 9.36 46.0301 9.59333 46.0301 10.06C46.0301 10.5873 45.9088 10.9747 45.6661 11.222C45.4794 11.4133 45.3861 11.6327 45.3861 11.88C45.3861 12.3187 45.6054 12.538 46.0441 12.538C46.4781 12.538 46.6951 12.3187 46.6951 11.88V10.34C46.6951 10.088 46.5831 9.892 46.3591 9.752L46.6391 9.36C46.7698 9.43933 46.8794 9.52567 46.9681 9.619C47.1594 9.44633 47.4558 9.36 47.8571 9.36C48.6271 9.36 49.0121 9.68667 49.0121 10.34V13H48.4381V10.34C48.4381 9.99467 48.2444 9.822 47.8571 9.822C47.4651 9.822 47.2691 9.99467 47.2691 10.34V11.88ZM46.3941 14.001C46.3381 14.001 46.2914 14.0197 46.2541 14.057C46.2168 14.099 46.1981 14.1503 46.1981 14.211C46.1981 14.267 46.2168 14.316 46.2541 14.358C46.2914 14.4 46.3381 14.421 46.3941 14.421C46.4501 14.421 46.4968 14.4 46.5341 14.358C46.5668 14.316 46.5831 14.267 46.5831 14.211C46.5831 14.1503 46.5668 14.099 46.5341 14.057C46.4968 14.0197 46.4501 14.001 46.3941 14.001ZM46.5621 13.343C47.0241 13.343 47.3438 13.5343 47.5211 13.917C47.6424 14.1783 47.7754 14.309 47.9201 14.309C48.0834 14.309 48.2468 14.1317 48.4101 13.777L48.5501 13.469L49.0191 13.693L48.8791 14.001C48.6411 14.5143 48.3214 14.771 47.9201 14.771C47.5701 14.771 47.2994 14.561 47.1081 14.141C47.0381 13.987 46.9308 13.8867 46.7861 13.84C46.8701 13.9427 46.9121 14.0663 46.9121 14.211C46.9121 14.365 46.8631 14.4957 46.7651 14.603C46.6624 14.715 46.5388 14.771 46.3941 14.771C46.2494 14.771 46.1258 14.715 46.0231 14.603C45.9204 14.4957 45.8691 14.365 45.8691 14.211C45.8691 13.6323 46.1001 13.343 46.5621 13.343ZM50.9511 12.23C50.8951 12.23 50.8461 12.251 50.8041 12.293C50.7621 12.335 50.7411 12.384 50.7411 12.44C50.7411 12.5007 50.7621 12.552 50.8041 12.594C50.8461 12.6313 50.8951 12.65 50.9511 12.65C51.0118 12.65 51.0608 12.6313 51.0981 12.594C51.1401 12.552 51.1611 12.5007 51.1611 12.44C51.1611 12.384 51.1401 12.335 51.0981 12.293C51.0608 12.251 51.0118 12.23 50.9511 12.23ZM53.2891 13H52.7151V10.48C52.7151 10.0413 52.3698 9.822 51.6791 9.822C50.9838 9.822 50.6361 10.0413 50.6361 10.48V11.978C50.7294 11.9127 50.8344 11.88 50.9511 11.88C51.1051 11.88 51.2358 11.936 51.3431 12.048C51.4551 12.1553 51.5111 12.286 51.5111 12.44C51.5111 12.594 51.4551 12.727 51.3431 12.839C51.2358 12.9463 51.1051 13 50.9511 13C50.3584 13 50.0621 12.7503 50.0621 12.251V10.48C50.0621 9.73333 50.6011 9.36 51.6791 9.36C52.7524 9.36 53.2891 9.73333 53.2891 10.48V13ZM56.7494 11.586V10.48C56.7494 10.0413 56.4041 9.822 55.7134 9.822C55.0181 9.822 54.6704 10.0413 54.6704 10.48H54.0964C54.0964 9.73333 54.6354 9.36 55.7134 9.36C56.7867 9.36 57.3234 9.73333 57.3234 10.48V13H56.7494V12.741C56.5814 12.139 56.3527 11.7423 56.0634 11.551C56.0541 11.691 56.0004 11.81 55.9024 11.908C55.7904 12.02 55.6574 12.076 55.5034 12.076C55.3494 12.076 55.2164 12.0223 55.1044 11.915C54.9971 11.803 54.9434 11.67 54.9434 11.516C54.9434 11.362 54.9971 11.2313 55.1044 11.124C55.2164 11.012 55.3494 10.956 55.5034 10.956H55.6154C56.0774 10.956 56.4554 11.166 56.7494 11.586ZM55.5034 11.306C55.4474 11.306 55.3984 11.327 55.3564 11.369C55.3144 11.411 55.2934 11.46 55.2934 11.516C55.2934 11.572 55.3144 11.621 55.3564 11.663C55.3984 11.705 55.4474 11.726 55.5034 11.726C55.5594 11.726 55.6084 11.705 55.6504 11.663C55.6924 11.621 55.7134 11.572 55.7134 11.516C55.7134 11.46 55.6924 11.411 55.6504 11.369C55.6084 11.327 55.5594 11.306 55.5034 11.306ZM58.8086 10.291C58.7479 10.291 58.6966 10.312 58.6546 10.354C58.6173 10.3913 58.5986 10.4403 58.5986 10.501C58.5986 10.557 58.6173 10.606 58.6546 10.648C58.6966 10.69 58.7479 10.711 58.8086 10.711C58.8646 10.711 58.9136 10.69 58.9556 10.648C58.9976 10.606 59.0186 10.557 59.0186 10.501C59.0186 10.4403 58.9976 10.3913 58.9556 10.354C58.9136 10.312 58.8646 10.291 58.8086 10.291ZM60.2226 13V10.48C60.2226 10.0413 59.9706 9.822 59.4666 9.822C59.2286 9.822 59.0699 9.871 58.9906 9.969C59.0699 9.997 59.1423 10.0413 59.2076 10.102C59.3149 10.2093 59.3686 10.3423 59.3686 10.501C59.3686 10.655 59.3126 10.788 59.2006 10.9C59.0933 11.0073 58.9626 11.061 58.8086 11.061C58.3559 11.061 58.1296 10.844 58.1296 10.41C58.1296 9.71 58.5753 9.36 59.4666 9.36C60.3533 9.36 60.7966 9.73333 60.7966 10.48V13H60.2226ZM62.1623 12.23C62.1063 12.23 62.0573 12.251 62.0153 12.293C61.9733 12.335 61.9523 12.384 61.9523 12.44C61.9523 12.5007 61.9733 12.552 62.0153 12.594C62.0573 12.6313 62.1063 12.65 62.1623 12.65C62.2229 12.65 62.2719 12.6313 62.3093 12.594C62.3513 12.552 62.3723 12.5007 62.3723 12.44C62.3723 12.384 62.3513 12.335 62.3093 12.293C62.2719 12.251 62.2229 12.23 62.1623 12.23ZM62.3583 11.915V10.34C62.3583 10.088 62.1763 9.892 61.8123 9.752L61.9523 9.36C62.2463 9.42533 62.4749 9.52567 62.6383 9.661C62.8669 9.46033 63.2426 9.36 63.7653 9.36C64.7033 9.36 65.1723 9.68667 65.1723 10.34V13H64.5983V10.34C64.5983 9.99467 64.3206 9.822 63.7653 9.822C63.2099 9.822 62.9323 9.99467 62.9323 10.34V12.16C62.9323 12.72 62.6756 13 62.1623 13C62.0083 13 61.8753 12.9463 61.7633 12.839C61.6559 12.7317 61.6023 12.5987 61.6023 12.44C61.6023 12.286 61.6559 12.1553 61.7633 12.048C61.8753 11.936 62.0083 11.88 62.1623 11.88C62.2323 11.88 62.2976 11.8917 62.3583 11.915Z" fill="black" fill-opacity="0.6063"/>
<path d="M39.2275 25H37.96V20.0854C37.96 19.8634 37.9653 19.6217 37.9761 19.3604C37.9904 19.0954 38.0083 18.8143 38.0298 18.5171H37.9976C37.9546 18.7212 37.9134 18.8966 37.874 19.0435C37.8382 19.1867 37.8024 19.3013 37.7666 19.3872L35.5054 25H34.6245L32.3525 19.4355C32.3239 19.3568 32.2881 19.2404 32.2451 19.0864C32.2057 18.9325 32.1628 18.7427 32.1162 18.5171H32.084C32.1055 18.7749 32.1198 19.0488 32.127 19.3389C32.1341 19.6253 32.1377 19.9279 32.1377 20.2466V25H30.9561V17.2979H32.7607L34.7642 22.3037C34.8429 22.4935 34.9074 22.6689 34.9575 22.8301C35.0112 22.9876 35.0524 23.1344 35.0811 23.2705H35.1133C35.1777 23.0664 35.2386 22.882 35.2959 22.7173C35.3532 22.5526 35.4069 22.4093 35.457 22.2876L37.4873 17.2979H39.2275V25ZM41.6177 18.4365C41.3885 18.4365 41.1987 18.3631 41.0483 18.2163C40.8979 18.0695 40.8228 17.8887 40.8228 17.6738C40.8228 17.4518 40.8979 17.2692 41.0483 17.126C41.1987 16.9827 41.3885 16.9111 41.6177 16.9111C41.8504 16.9111 42.042 16.9827 42.1924 17.126C42.3428 17.2692 42.418 17.4518 42.418 17.6738C42.418 17.8923 42.3428 18.0749 42.1924 18.2217C42.042 18.3649 41.8504 18.4365 41.6177 18.4365ZM42.2354 25H40.9839V19.5H42.2354V25ZM47.9824 24.6616C47.7103 24.8263 47.4399 24.9445 47.1714 25.0161C46.9028 25.0913 46.611 25.1289 46.2959 25.1289C45.4508 25.1289 44.7741 24.8818 44.2656 24.3877C43.7607 23.8936 43.5083 23.2222 43.5083 22.3735C43.5083 21.4604 43.7697 20.7318 44.2925 20.1875C44.8188 19.6432 45.5278 19.3711 46.4194 19.3711C46.731 19.3711 47.0138 19.4051 47.2681 19.4731C47.5259 19.5376 47.7873 19.645 48.0522 19.7954L47.5635 20.6655C47.3773 20.5617 47.1947 20.4865 47.0156 20.4399C46.8366 20.3898 46.6414 20.3647 46.4302 20.3647C45.9038 20.3647 45.4974 20.5384 45.2109 20.8857C44.9245 21.2331 44.7812 21.6932 44.7812 22.2661C44.7812 22.8677 44.9352 23.3296 45.2432 23.6519C45.5547 23.9741 45.945 24.1353 46.4141 24.1353C46.5573 24.1353 46.722 24.1102 46.9082 24.0601C47.0944 24.0063 47.2824 23.9222 47.4722 23.8076L47.9824 24.6616ZM52.1021 20.5474C52.034 20.5295 51.9678 20.5169 51.9033 20.5098C51.8424 20.499 51.7708 20.4937 51.6885 20.4937C51.2409 20.4937 50.8971 20.6584 50.6572 20.9878C50.4173 21.3172 50.2974 21.7469 50.2974 22.2769V25H49.0459V19.5H50.2974V20.5581H50.3188C50.4478 20.1785 50.6375 19.8921 50.8882 19.6987C51.1388 19.5018 51.4342 19.4033 51.7744 19.4033C51.8711 19.4033 51.957 19.4087 52.0322 19.4194C52.111 19.4302 52.1862 19.4463 52.2578 19.4678L52.1021 20.5474ZM55.5557 25.1289C54.6963 25.1289 54.0142 24.8729 53.5093 24.3608C53.008 23.8452 52.7573 23.1559 52.7573 22.293C52.7609 21.3799 53.0223 20.6655 53.5415 20.1499C54.0607 19.6307 54.7679 19.3711 55.6631 19.3711C56.526 19.3675 57.1992 19.6217 57.6826 20.1338C58.1696 20.6423 58.4131 21.3315 58.4131 22.2017C58.4131 23.0968 58.1553 23.8094 57.6396 24.3394C57.1276 24.8657 56.4329 25.1289 55.5557 25.1289ZM55.6147 24.1353C56.1125 24.1353 56.4902 23.9723 56.748 23.6465C57.0094 23.3206 57.1401 22.8498 57.1401 22.2339C57.1401 21.6252 57.0094 21.1615 56.748 20.8428C56.4867 20.5241 56.1071 20.3647 55.6094 20.3647C55.1188 20.3647 54.7321 20.533 54.4492 20.8696C54.1699 21.2062 54.0303 21.6717 54.0303 22.2661C54.0303 22.8641 54.1699 23.326 54.4492 23.6519C54.7285 23.9741 55.117 24.1353 55.6147 24.1353ZM59.1543 24.5596L59.6968 23.6787C59.9116 23.8291 60.139 23.9508 60.3789 24.0439C60.6224 24.1335 60.8856 24.1782 61.1685 24.1782C61.4764 24.1782 61.7145 24.1227 61.8828 24.0117C62.0547 23.8971 62.1406 23.7271 62.1406 23.5015C62.1406 23.3224 62.069 23.1738 61.9258 23.0557C61.7861 22.9339 61.5462 22.8337 61.2061 22.7549C60.5186 22.5938 60.0352 22.3807 59.7559 22.1157C59.4801 21.8507 59.3423 21.5016 59.3423 21.0684C59.3423 20.5706 59.5356 20.1642 59.9224 19.8491C60.3091 19.5304 60.8158 19.3711 61.4424 19.3711C61.7539 19.3711 62.0511 19.4123 62.334 19.4946C62.6169 19.5734 62.8926 19.7005 63.1611 19.876L62.6562 20.7354C62.4199 20.585 62.2033 20.4775 62.0063 20.4131C61.8094 20.3486 61.6071 20.3164 61.3994 20.3164C61.1058 20.3164 60.8766 20.3719 60.7119 20.4829C60.5508 20.5903 60.4702 20.7407 60.4702 20.9341C60.4702 21.1382 60.5526 21.2904 60.7173 21.3906C60.8856 21.4873 61.1667 21.5822 61.5605 21.6753C62.1549 21.8185 62.59 22.0262 62.8657 22.2983C63.1414 22.5669 63.2793 22.9268 63.2793 23.3779C63.2793 23.9115 63.0841 24.3376 62.6938 24.6562C62.3071 24.9714 61.7826 25.1289 61.1201 25.1289C60.762 25.1289 60.4183 25.0824 60.0889 24.9893C59.763 24.8926 59.4515 24.7493 59.1543 24.5596ZM66.8779 25.1289C66.0186 25.1289 65.3364 24.8729 64.8315 24.3608C64.3302 23.8452 64.0796 23.1559 64.0796 22.293C64.0832 21.3799 64.3446 20.6655 64.8638 20.1499C65.383 19.6307 66.0902 19.3711 66.9854 19.3711C67.8483 19.3675 68.5215 19.6217 69.0049 20.1338C69.4919 20.6423 69.7354 21.3315 69.7354 22.2017C69.7354 23.0968 69.4775 23.8094 68.9619 24.3394C68.4499 24.8657 67.7552 25.1289 66.8779 25.1289ZM66.937 24.1353C67.4347 24.1353 67.8125 23.9723 68.0703 23.6465C68.3317 23.3206 68.4624 22.8498 68.4624 22.2339C68.4624 21.6252 68.3317 21.1615 68.0703 20.8428C67.8089 20.5241 67.4294 20.3647 66.9316 20.3647C66.4411 20.3647 66.0544 20.533 65.7715 20.8696C65.4922 21.2062 65.3525 21.6717 65.3525 22.2661C65.3525 22.8641 65.4922 23.326 65.7715 23.6519C66.0508 23.9741 66.4393 24.1353 66.937 24.1353ZM73.9839 17.8403C73.8836 17.8009 73.7923 17.7741 73.71 17.7598C73.6276 17.7419 73.5381 17.7329 73.4414 17.7329C73.1764 17.7329 72.9759 17.8099 72.8398 17.9639C72.7074 18.1143 72.6411 18.3327 72.6411 18.6191V19.5H73.9141V20.4775H72.6411V25H71.395V20.4775H70.4604V19.5H71.395V18.5547C71.395 17.9961 71.5741 17.5539 71.9321 17.228C72.2938 16.8986 72.7718 16.7339 73.3662 16.7339C73.5524 16.7339 73.7135 16.7464 73.8496 16.7715C73.9857 16.7965 74.1271 16.8324 74.2739 16.8789L73.9839 17.8403ZM77.7974 24.9248C77.6362 24.9928 77.4679 25.043 77.2925 25.0752C77.117 25.1074 76.929 25.1235 76.7285 25.1235C76.2201 25.1235 75.828 24.9893 75.5522 24.7207C75.2801 24.4486 75.144 24.0439 75.144 23.5068V20.4775H74.2202V19.5H75.144V18.1626L76.3901 17.7866V19.5H77.7061V20.4775H76.3901V23.4048C76.3901 23.6733 76.4385 23.8667 76.5352 23.9849C76.6354 24.103 76.7894 24.1621 76.9971 24.1621C77.0973 24.1621 77.1922 24.1514 77.2817 24.1299C77.3748 24.1048 77.4572 24.0744 77.5288 24.0386L77.7974 24.9248ZM81.2939 24.4468L81.8633 23.4639C82.2106 23.6787 82.5347 23.8309 82.8354 23.9204C83.1362 24.0063 83.4728 24.0493 83.8452 24.0493C84.2892 24.0493 84.6383 23.9544 84.8926 23.7646C85.1504 23.5713 85.2793 23.2956 85.2793 22.9375C85.2793 22.6117 85.1719 22.3556 84.957 22.1694C84.7458 21.9797 84.3859 21.806 83.8774 21.6484C83.0933 21.4157 82.5168 21.1274 82.1479 20.7837C81.7791 20.4399 81.5947 19.9744 81.5947 19.3872C81.5947 18.7498 81.8328 18.2217 82.3091 17.8027C82.7853 17.3802 83.4316 17.1689 84.248 17.1689C84.6061 17.1689 84.9588 17.2083 85.3062 17.2871C85.6535 17.3659 85.9972 17.4876 86.3374 17.6523L85.8594 18.6729C85.5622 18.5189 85.2775 18.4097 85.0054 18.3452C84.7368 18.2808 84.4629 18.2485 84.1836 18.2485C83.7754 18.2485 83.4531 18.3381 83.2168 18.5171C82.984 18.6961 82.8677 18.9486 82.8677 19.2744C82.8677 19.5645 82.9751 19.7936 83.1899 19.9619C83.4048 20.1266 83.7736 20.2896 84.2964 20.4507C85.0985 20.6906 85.675 20.9896 86.0259 21.3477C86.3804 21.7057 86.5576 22.1981 86.5576 22.8247C86.5576 23.4979 86.3177 24.0511 85.8379 24.4844C85.3581 24.9141 84.6742 25.1289 83.7861 25.1289C83.3421 25.1289 82.9089 25.0734 82.4863 24.9624C82.0638 24.8478 81.6663 24.6759 81.2939 24.4468ZM90.4409 24.9248C90.2798 24.9928 90.1115 25.043 89.936 25.0752C89.7606 25.1074 89.5726 25.1235 89.3721 25.1235C88.8636 25.1235 88.4715 24.9893 88.1958 24.7207C87.9237 24.4486 87.7876 24.0439 87.7876 23.5068V20.4775H86.8638V19.5H87.7876V18.1626L89.0337 17.7866V19.5H90.3496V20.4775H89.0337V23.4048C89.0337 23.6733 89.082 23.8667 89.1787 23.9849C89.279 24.103 89.4329 24.1621 89.6406 24.1621C89.7409 24.1621 89.8358 24.1514 89.9253 24.1299C90.0184 24.1048 90.1007 24.0744 90.1724 24.0386L90.4409 24.9248ZM93.8623 25.1289C93.0029 25.1289 92.3208 24.8729 91.8159 24.3608C91.3146 23.8452 91.064 23.1559 91.064 22.293C91.0675 21.3799 91.3289 20.6655 91.8481 20.1499C92.3674 19.6307 93.0745 19.3711 93.9697 19.3711C94.8327 19.3675 95.5059 19.6217 95.9893 20.1338C96.4762 20.6423 96.7197 21.3315 96.7197 22.2017C96.7197 23.0968 96.4619 23.8094 95.9463 24.3394C95.4342 24.8657 94.7396 25.1289 93.8623 25.1289ZM93.9214 24.1353C94.4191 24.1353 94.7969 23.9723 95.0547 23.6465C95.3161 23.3206 95.4468 22.8498 95.4468 22.2339C95.4468 21.6252 95.3161 21.1615 95.0547 20.8428C94.7933 20.5241 94.4137 20.3647 93.916 20.3647C93.4255 20.3647 93.0387 20.533 92.7559 20.8696C92.4766 21.2062 92.3369 21.6717 92.3369 22.2661C92.3369 22.8641 92.4766 23.326 92.7559 23.6519C93.0352 23.9741 93.4237 24.1353 93.9214 24.1353ZM101.054 20.5474C100.986 20.5295 100.92 20.5169 100.855 20.5098C100.795 20.499 100.723 20.4937 100.641 20.4937C100.193 20.4937 99.8493 20.6584 99.6094 20.9878C99.3695 21.3172 99.2495 21.7469 99.2495 22.2769V25H97.998V19.5H99.2495V20.5581H99.271C99.3999 20.1785 99.5897 19.8921 99.8403 19.6987C100.091 19.5018 100.386 19.4033 100.727 19.4033C100.823 19.4033 100.909 19.4087 100.984 19.4194C101.063 19.4302 101.138 19.4463 101.21 19.4678L101.054 20.5474ZM106.721 22.5776H102.966C102.988 23.0968 103.138 23.4925 103.417 23.7646C103.697 24.0332 104.087 24.1675 104.588 24.1675C104.792 24.1675 105.025 24.1263 105.287 24.0439C105.548 23.9616 105.806 23.8291 106.06 23.6465L106.624 24.4253C106.284 24.6724 105.938 24.8514 105.587 24.9624C105.236 25.0734 104.85 25.1289 104.427 25.1289C103.571 25.1289 102.905 24.8836 102.429 24.3931C101.953 23.8989 101.713 23.2096 101.709 22.3252C101.709 21.4443 101.955 20.7318 102.445 20.1875C102.939 19.6432 103.571 19.3711 104.341 19.3711C105.079 19.3711 105.659 19.6038 106.082 20.0693C106.508 20.5312 106.721 21.1865 106.721 22.0352V22.5776ZM105.512 21.7129C105.512 21.2402 105.408 20.8857 105.201 20.6494C104.997 20.4095 104.707 20.2896 104.331 20.2896C103.976 20.2896 103.674 20.4185 103.423 20.6763C103.176 20.9305 103.024 21.276 102.966 21.7129H105.512Z" fill="black" fill-opacity="0.8956"/>
<defs>
<filter id="filter0_dd_976_1834" x="11.0938" y="7.25" width="11.8125" height="5.625" filterUnits="userSpaceOnUse" color-interpolation-filters="sRGB">
<feFlood flood-opacity="0" result="BackgroundImageFix"/>
<feColorMatrix in="SourceAlpha" type="matrix" values="0 0 0 0 0 0 0 0 0 0 0 0 0 0 0 0 0 0 127 0" result="hardAlpha"/>
<feOffset dy="0.1875"/>
<feGaussianBlur stdDeviation="0.1875"/>
<feColorMatrix type="matrix" values="0 0 0 0 0 0 0 0 0 0 0 0 0 0 0 0 0 0 0.1 0"/>
<feBlend mode="normal" in2="BackgroundImageFix" result="effect1_dropShadow_976_1834"/>
<feColorMatrix in="SourceAlpha" type="matrix" values="0 0 0 0 0 0 0 0 0 0 0 0 0 0 0 0 0 0 127 0" result="hardAlpha"/>
<feOffset dy="0.375"/>
<feGaussianBlur stdDeviation="0.5625"/>
<feColorMatrix type="matrix" values="0 0 0 0 0 0 0 0 0 0 0 0 0 0 0 0 0 0 0.2 0"/>
<feBlend mode="normal" in2="effect1_dropShadow_976_1834" result="effect2_dropShadow_976_1834"/>
<feBlend mode="normal" in="SourceGraphic" in2="effect2_dropShadow_976_1834" result="shape"/>
</filter>
<filter id="filter1_dd_976_1834" x="12.2188" y="13.4375" width="9.5625" height="9.5625" filterUnits="userSpaceOnUse" color-interpolation-filters="sRGB">
<feFlood flood-opacity="0" result="BackgroundImageFix"/>
<feColorMatrix in="SourceAlpha" type="matrix" values="0 0 0 0 0 0 0 0 0 0 0 0 0 0 0 0 0 0 127 0" result="hardAlpha"/>
<feOffset dy="0.1875"/>
<feGaussianBlur stdDeviation="0.1875"/>
<feColorMatrix type="matrix" values="0 0 0 0 0 0 0 0 0 0 0 0 0 0 0 0 0 0 0.1 0"/>
<feBlend mode="normal" in2="BackgroundImageFix" result="effect1_dropShadow_976_1834"/>
<feColorMatrix in="SourceAlpha" type="matrix" values="0 0 0 0 0 0 0 0 0 0 0 0 0 0 0 0 0 0 127 0" result="hardAlpha"/>
<feOffset dy="0.375"/>
<feGaussianBlur stdDeviation="0.5625"/>
<feColorMatrix type="matrix" values="0 0 0 0 0 0 0 0 0 0 0 0 0 0 0 0 0 0 0.2 0"/>
<feBlend mode="normal" in2="effect1_dropShadow_976_1834" result="effect2_dropShadow_976_1834"/>
<feBlend mode="normal" in="SourceGraphic" in2="effect2_dropShadow_976_1834" result="shape"/>
</filter>
<filter id="filter2_dd_976_1834" x="10.5939" y="6.6875" width="12.8124" height="5.06274" filterUnits="userSpaceOnUse" color-interpolation-filters="sRGB">
<feFlood flood-opacity="0" result="BackgroundImageFix"/>
<feColorMatrix in="SourceAlpha" type="matrix" values="0 0 0 0 0 0 0 0 0 0 0 0 0 0 0 0 0 0 127 0" result="hardAlpha"/>
<feOffset dy="-0.75"/>
<feGaussianBlur stdDeviation="0.1875"/>
<feColorMatrix type="matrix" values="0 0 0 0 0 0 0 0 0 0 0 0 0 0 0 0 0 0 0.1 0"/>
<feBlend mode="normal" in2="BackgroundImageFix" result="effect1_dropShadow_976_1834"/>
<feColorMatrix in="SourceAlpha" type="matrix" values="0 0 0 0 0 0 0 0 0 0 0 0 0 0 0 0 0 0 127 0" result="hardAlpha"/>
<feOffset dy="-0.75"/>
<feGaussianBlur stdDeviation="0.5625"/>
<feColorMatrix type="matrix" values="0 0 0 0 0 0 0 0 0 0 0 0 0 0 0 0 0 0 0.2 0"/>
<feBlend mode="normal" in2="effect1_dropShadow_976_1834" result="effect2_dropShadow_976_1834"/>
<feBlend mode="normal" in="SourceGraphic" in2="effect2_dropShadow_976_1834" result="shape"/>
</filter>
<linearGradient id="paint0_linear_976_1834" x1="17" y1="10.25" x2="20.3514" y2="25.9624" gradientUnits="userSpaceOnUse">
<stop stop-color="#0669BC"/>
<stop offset="1" stop-color="#243A5F"/>
</linearGradient>
<linearGradient id="paint1_linear_976_1834" x1="17" y1="10.25" x2="20.3514" y2="25.9624" gradientUnits="userSpaceOnUse">
<stop stop-color="#0078D4"/>
<stop offset="1" stop-color="#114A8B"/>
</linearGradient>
<linearGradient id="paint2_linear_976_1834" x1="17" y1="8.5625" x2="17.1583" y2="10.9858" gradientUnits="userSpaceOnUse">
<stop stop-color="#28AFEA"/>
<stop offset="1" stop-color="#0078D4"/>
</linearGradient>
<linearGradient id="paint3_linear_976_1834" x1="17" y1="8.5625" x2="17.1583" y2="10.9858" gradientUnits="userSpaceOnUse">
<stop stop-color="#30DAFF"/>
<stop offset="1" stop-color="#0094D4"/>
</linearGradient>
<linearGradient id="paint4_linear_976_1834" x1="16.5938" y1="8" x2="16.5937" y2="9.125" gradientUnits="userSpaceOnUse">
<stop stop-color="#22BCFF"/>
<stop offset="1" stop-color="#0088F0"/>
</linearGradient>
<linearGradient id="paint5_linear_976_1834" x1="16.5938" y1="8" x2="16.5937" y2="9.125" gradientUnits="userSpaceOnUse">
<stop stop-color="#28AFEA"/>
<stop offset="1" stop-color="#3CCBF4"/>
</linearGradient>
<clipPath id="clip0_976_1834">
<rect width="18" height="18" fill="white" transform="translate(8 8)"/>
</clipPath>
<clipPath id="clip1_976_1834">
<rect width="18" height="18" fill="white" transform="translate(8 8)"/>
</clipPath>
</defs>
</svg>
