<svg width="116" height="34" viewBox="0 0 116 34" fill="none" xmlns="http://www.w3.org/2000/svg">
<rect x="1" y="1" width="114" height="32" rx="4" fill="#202020"/>
<rect x="0.5" y="0.5" width="115" height="33" rx="4.5" stroke="black" stroke-opacity="0.1"/>
<g clip-path="url(#clip0_976_1839)">
<g clip-path="url(#clip1_976_1839)">
<path d="M8.28125 11C8.28125 10.5858 8.61704 10.25 9.03125 10.25H24.9687C25.383 10.25 25.7188 10.5858 25.7188 11V22.3438C25.7188 24.0524 24.3336 25.4375 22.625 25.4375H11.375C9.66637 25.4375 8.28125 24.0524 8.28125 22.3438V11Z" fill="url(#paint0_linear_976_1839)"/>
<mask id="mask0_976_1839" style="mask-type:alpha" maskUnits="userSpaceOnUse" x="8" y="10" width="18" height="16">
<path d="M8.28125 11C8.28125 10.5858 8.61704 10.25 9.03125 10.25H24.9687C25.383 10.25 25.7188 10.5858 25.7188 11V22.3438C25.7188 24.0524 24.3336 25.4375 22.625 25.4375H11.375C9.66637 25.4375 8.28125 24.0524 8.28125 22.3438V11Z" fill="url(#paint1_linear_976_1839)"/>
</mask>
<g mask="url(#mask0_976_1839)">
<g filter="url(#filter0_dd_976_1839)">
<path d="M12.7812 10.8125V8.5625H21.2187V10.8125" stroke="url(#paint2_linear_976_1839)" stroke-width="1.125" stroke-linecap="round"/>
</g>
</g>
<g filter="url(#filter1_dd_976_1839)">
<path d="M16.719 14.1875H13.344V17.5625H16.719V14.1875Z" fill="#F25022"/>
<path d="M20.6562 14.1875H17.2812V17.5625H20.6562V14.1875Z" fill="#7FBA00"/>
<path d="M20.6562 18.125H17.2812V21.5H20.6562V18.125Z" fill="#FFB900"/>
<path d="M16.7188 18.125H13.3438V21.5H16.7188V18.125Z" fill="#00A4EF"/>
</g>
<path d="M12.7812 10.8125V9.125C12.7812 8.81434 13.0331 8.5625 13.3438 8.5625H20.6563C20.9669 8.5625 21.2188 8.81434 21.2188 9.125V10.8125" stroke="url(#paint3_linear_976_1839)" stroke-width="1.125" stroke-linecap="round"/>
<rect x="13.3438" y="8" width="7.3125" height="1.125" fill="url(#paint4_linear_976_1839)"/>
<mask id="mask1_976_1839" style="mask-type:alpha" maskUnits="userSpaceOnUse" x="13" y="8" width="8" height="2">
<rect x="13.3438" y="8" width="7.3125" height="1.125" fill="url(#paint5_linear_976_1839)"/>
</mask>
<g mask="url(#mask1_976_1839)">
<g filter="url(#filter2_dd_976_1839)">
<rect x="11.7189" y="8.56274" width="1.625" height="2.8125" fill="#C4C4C4"/>
</g>
</g>
</g>
</g>
<path d="M30.0752 13L31.9551 8.09863H32.5498L34.4365 13H33.8008L33.3052 11.6875H31.1826L30.7144 13H30.0752ZM31.374 11.1714H33.1172L32.3242 9.02148C32.3105 8.9873 32.298 8.94287 32.2866 8.88818C32.2752 8.8335 32.2627 8.76855 32.249 8.69336H32.2354C32.224 8.76172 32.2114 8.82324 32.1978 8.87793C32.1864 8.93262 32.1727 8.98047 32.1567 9.02148L31.374 11.1714ZM36.7539 12.959C36.6582 12.9977 36.5636 13.0262 36.4702 13.0444C36.3791 13.0649 36.2754 13.0752 36.1592 13.0752C35.8812 13.0752 35.6624 12.9943 35.5029 12.8325C35.3457 12.6685 35.2671 12.4269 35.2671 12.1079V9.97852H34.6655V9.5H35.2671V8.64551L35.8276 8.46436V9.5H36.7095V9.97852H35.8276V12.043C35.8276 12.2435 35.863 12.3882 35.9336 12.4771C36.0065 12.5659 36.1147 12.6104 36.2583 12.6104C36.3267 12.6104 36.3927 12.6024 36.4565 12.5864C36.5203 12.5705 36.5739 12.5522 36.6172 12.5317L36.7539 12.959ZM37.1299 12.7368L37.3965 12.3062C37.5492 12.4064 37.6984 12.4827 37.8442 12.5352C37.9901 12.5853 38.1473 12.6104 38.3159 12.6104C38.5552 12.6104 38.7363 12.5659 38.8594 12.4771C38.9847 12.3882 39.0474 12.2549 39.0474 12.0771C39.0474 11.9336 38.9915 11.8128 38.8799 11.7148C38.7705 11.6146 38.5985 11.5348 38.3638 11.4756C37.9263 11.3639 37.6266 11.2238 37.4648 11.0552C37.3031 10.8843 37.2222 10.6746 37.2222 10.4263C37.2222 10.1392 37.3304 9.8999 37.5469 9.7085C37.7633 9.51481 38.0653 9.41797 38.4526 9.41797C38.6395 9.41797 38.8172 9.44189 38.9858 9.48975C39.1545 9.5376 39.3265 9.61963 39.502 9.73584L39.2524 10.1597C39.0929 10.0594 38.9494 9.98991 38.8218 9.95117C38.6965 9.91016 38.5688 9.88965 38.439 9.88965C38.2134 9.88965 38.0413 9.9318 37.9229 10.0161C37.8044 10.0981 37.7451 10.2178 37.7451 10.375C37.7451 10.5322 37.8055 10.6507 37.9263 10.7305C38.0493 10.8102 38.2464 10.8854 38.5176 10.9561C38.873 11.0518 39.1385 11.1862 39.314 11.3594C39.4917 11.5303 39.5806 11.7547 39.5806 12.0327C39.5806 12.3563 39.4655 12.6126 39.2354 12.8018C39.0075 12.9886 38.6942 13.082 38.2954 13.082C38.0812 13.082 37.875 13.0524 37.6768 12.9932C37.4808 12.9339 37.2985 12.8485 37.1299 12.7368ZM40.7188 8.6626C40.6048 8.6626 40.5091 8.625 40.4316 8.5498C40.3542 8.47233 40.3154 8.37777 40.3154 8.26611C40.3154 8.15446 40.3542 8.06104 40.4316 7.98584C40.5091 7.90837 40.6048 7.86963 40.7188 7.86963C40.8327 7.86963 40.9284 7.90837 41.0059 7.98584C41.0833 8.06104 41.1221 8.15446 41.1221 8.26611C41.1221 8.37777 41.0833 8.47233 41.0059 8.5498C40.9284 8.625 40.8327 8.6626 40.7188 8.6626ZM40.9922 13H40.4316V9.5H40.9922V13ZM41.7988 12.7368L42.0654 12.3062C42.2181 12.4064 42.3674 12.4827 42.5132 12.5352C42.659 12.5853 42.8162 12.6104 42.9849 12.6104C43.2241 12.6104 43.4053 12.5659 43.5283 12.4771C43.6536 12.3882 43.7163 12.2549 43.7163 12.0771C43.7163 11.9336 43.6605 11.8128 43.5488 11.7148C43.4395 11.6146 43.2674 11.5348 43.0327 11.4756C42.5952 11.3639 42.2956 11.2238 42.1338 11.0552C41.972 10.8843 41.8911 10.6746 41.8911 10.4263C41.8911 10.1392 41.9993 9.8999 42.2158 9.7085C42.4323 9.51481 42.7342 9.41797 43.1216 9.41797C43.3084 9.41797 43.4862 9.44189 43.6548 9.48975C43.8234 9.5376 43.9954 9.61963 44.1709 9.73584L43.9214 10.1597C43.7619 10.0594 43.6183 9.98991 43.4907 9.95117C43.3654 9.91016 43.2378 9.88965 43.1079 9.88965C42.8823 9.88965 42.7103 9.9318 42.5918 10.0161C42.4733 10.0981 42.4141 10.2178 42.4141 10.375C42.4141 10.5322 42.4744 10.6507 42.5952 10.7305C42.7183 10.8102 42.9154 10.8854 43.1865 10.9561C43.542 11.0518 43.8075 11.1862 43.9829 11.3594C44.1606 11.5303 44.2495 11.7547 44.2495 12.0327C44.2495 12.3563 44.1344 12.6126 43.9043 12.8018C43.6764 12.9886 43.3631 13.082 42.9644 13.082C42.7502 13.082 42.5439 13.0524 42.3457 12.9932C42.1497 12.9339 41.9674 12.8485 41.7988 12.7368ZM45.3877 8.6626C45.2738 8.6626 45.1781 8.625 45.1006 8.5498C45.0231 8.47233 44.9844 8.37777 44.9844 8.26611C44.9844 8.15446 45.0231 8.06104 45.1006 7.98584C45.1781 7.90837 45.2738 7.86963 45.3877 7.86963C45.5016 7.86963 45.5973 7.90837 45.6748 7.98584C45.7523 8.06104 45.791 8.15446 45.791 8.26611C45.791 8.37777 45.7523 8.47233 45.6748 8.5498C45.5973 8.625 45.5016 8.6626 45.3877 8.6626ZM45.6611 13H45.1006V9.5H45.6611V13ZM49.626 13H49.0654V12.4463H49.0518C48.9355 12.6582 48.7874 12.8177 48.6074 12.9248C48.4274 13.0296 48.2155 13.082 47.9717 13.082C47.5547 13.082 47.2414 12.9578 47.0317 12.7095C46.8244 12.4611 46.7207 12.0885 46.7207 11.5918V9.5H47.2778V11.5029C47.2778 11.8721 47.3485 12.1489 47.4897 12.3335C47.631 12.5181 47.8429 12.6104 48.1255 12.6104C48.3989 12.6104 48.6234 12.5101 48.7988 12.3096C48.9766 12.1068 49.0654 11.8424 49.0654 11.5166V9.5H49.626V13ZM49.626 13C49.4551 13.1595 49.3263 13.3031 49.2397 13.4307C49.1554 13.5583 49.1133 13.6688 49.1133 13.7622C49.1133 13.842 49.1326 13.9012 49.1714 13.9399C49.2101 13.981 49.2682 14.0015 49.3457 14.0015C49.3799 14.0015 49.4129 13.9969 49.4448 13.9878C49.4767 13.981 49.5075 13.9741 49.5371 13.9673L49.626 14.2988C49.5326 14.3285 49.4619 14.3467 49.4141 14.3535C49.3685 14.3626 49.3161 14.3672 49.2568 14.3672C49.0837 14.3672 48.9447 14.3216 48.8398 14.2305C48.735 14.1393 48.6826 14.014 48.6826 13.8545C48.6826 13.7155 48.7271 13.5742 48.8159 13.4307C48.9071 13.2894 49.0415 13.1458 49.2192 13H49.626ZM50.4326 12.7368L50.6992 12.3062C50.8519 12.4064 51.0011 12.4827 51.147 12.5352C51.2928 12.5853 51.45 12.6104 51.6187 12.6104C51.8579 12.6104 52.0391 12.5659 52.1621 12.4771C52.2874 12.3882 52.3501 12.2549 52.3501 12.0771C52.3501 11.9336 52.2943 11.8128 52.1826 11.7148C52.0732 11.6146 51.9012 11.5348 51.6665 11.4756C51.229 11.3639 50.9294 11.2238 50.7676 11.0552C50.6058 10.8843 50.5249 10.6746 50.5249 10.4263C50.5249 10.1392 50.6331 9.8999 50.8496 9.7085C51.0661 9.51481 51.368 9.41797 51.7554 9.41797C51.9422 9.41797 52.12 9.44189 52.2886 9.48975C52.4572 9.5376 52.6292 9.61963 52.8047 9.73584L52.5552 10.1597C52.3957 10.0594 52.2521 9.98991 52.1245 9.95117C51.9992 9.91016 51.8716 9.88965 51.7417 9.88965C51.5161 9.88965 51.3441 9.9318 51.2256 10.0161C51.1071 10.0981 51.0479 10.2178 51.0479 10.375C51.0479 10.5322 51.1082 10.6507 51.229 10.7305C51.3521 10.8102 51.5492 10.8854 51.8203 10.9561C52.1758 11.0518 52.4412 11.1862 52.6167 11.3594C52.7944 11.5303 52.8833 11.7547 52.8833 12.0327C52.8833 12.3563 52.7682 12.6126 52.5381 12.8018C52.3102 12.9886 51.9969 13.082 51.5981 13.082C51.384 13.082 51.1777 13.0524 50.9795 12.9932C50.7835 12.9339 50.6012 12.8485 50.4326 12.7368ZM55.4023 12.959C55.3066 12.9977 55.2121 13.0262 55.1187 13.0444C55.0275 13.0649 54.9238 13.0752 54.8076 13.0752C54.5296 13.0752 54.3109 12.9943 54.1514 12.8325C53.9941 12.6685 53.9155 12.4269 53.9155 12.1079V9.97852H53.314V9.5H53.9155V8.64551L54.4761 8.46436V9.5H55.3579V9.97852H54.4761V12.043C54.4761 12.2435 54.5114 12.3882 54.582 12.4771C54.6549 12.5659 54.7632 12.6104 54.9067 12.6104C54.9751 12.6104 55.0412 12.6024 55.105 12.5864C55.1688 12.5705 55.2223 12.5522 55.2656 12.5317L55.4023 12.959ZM56.3936 8.6626C56.2796 8.6626 56.1839 8.625 56.1064 8.5498C56.029 8.47233 55.9902 8.37777 55.9902 8.26611C55.9902 8.15446 56.029 8.06104 56.1064 7.98584C56.1839 7.90837 56.2796 7.86963 56.3936 7.86963C56.5075 7.86963 56.6032 7.90837 56.6807 7.98584C56.7581 8.06104 56.7969 8.15446 56.7969 8.26611C56.7969 8.37777 56.7581 8.47233 56.6807 8.5498C56.6032 8.625 56.5075 8.6626 56.3936 8.6626ZM56.667 13H56.1064V9.5H56.667V13ZM60.0098 8.6626C59.8958 8.6626 59.8001 8.625 59.7227 8.5498C59.6452 8.47233 59.6064 8.37777 59.6064 8.26611C59.6064 8.15446 59.6452 8.06104 59.7227 7.98584C59.8001 7.90837 59.8958 7.86963 60.0098 7.86963C60.1237 7.86963 60.2194 7.90837 60.2969 7.98584C60.3743 8.06104 60.4131 8.15446 60.4131 8.26611C60.4131 8.37777 60.3743 8.47233 60.2969 8.5498C60.2194 8.625 60.1237 8.6626 60.0098 8.6626ZM60.2832 13H59.7227V9.5H60.2832V13ZM61.0898 12.7368L61.3564 12.3062C61.5091 12.4064 61.6584 12.4827 61.8042 12.5352C61.95 12.5853 62.1073 12.6104 62.2759 12.6104C62.5151 12.6104 62.6963 12.5659 62.8193 12.4771C62.9447 12.3882 63.0073 12.2549 63.0073 12.0771C63.0073 11.9336 62.9515 11.8128 62.8398 11.7148C62.7305 11.6146 62.5584 11.5348 62.3237 11.4756C61.8862 11.3639 61.5866 11.2238 61.4248 11.0552C61.263 10.8843 61.1821 10.6746 61.1821 10.4263C61.1821 10.1392 61.2904 9.8999 61.5068 9.7085C61.7233 9.51481 62.0252 9.41797 62.4126 9.41797C62.5994 9.41797 62.7772 9.44189 62.9458 9.48975C63.1144 9.5376 63.2865 9.61963 63.4619 9.73584L63.2124 10.1597C63.0529 10.0594 62.9093 9.98991 62.7817 9.95117C62.6564 9.91016 62.5288 9.88965 62.3989 9.88965C62.1733 9.88965 62.0013 9.9318 61.8828 10.0161C61.7643 10.0981 61.7051 10.2178 61.7051 10.375C61.7051 10.5322 61.7655 10.6507 61.8862 10.7305C62.0093 10.8102 62.2064 10.8854 62.4775 10.9561C62.833 11.0518 63.0985 11.1862 63.2739 11.3594C63.4517 11.5303 63.5405 11.7547 63.5405 12.0327C63.5405 12.3563 63.4255 12.6126 63.1953 12.8018C62.9674 12.9886 62.6541 13.082 62.2554 13.082C62.0412 13.082 61.835 13.0524 61.6367 12.9932C61.4408 12.9339 61.2585 12.8485 61.0898 12.7368ZM62.563 8.83691H62.1118L61.3735 7.70898H61.7666L62.3271 8.4917L62.8877 7.70898H63.2944L62.563 8.83691Z" fill="white" fill-opacity="0.786"/>
<path d="M39.2275 25H37.96V20.0854C37.96 19.8634 37.9653 19.6217 37.9761 19.3604C37.9904 19.0954 38.0083 18.8143 38.0298 18.5171H37.9976C37.9546 18.7212 37.9134 18.8966 37.874 19.0435C37.8382 19.1867 37.8024 19.3013 37.7666 19.3872L35.5054 25H34.6245L32.3525 19.4355C32.3239 19.3568 32.2881 19.2404 32.2451 19.0864C32.2057 18.9325 32.1628 18.7427 32.1162 18.5171H32.084C32.1055 18.7749 32.1198 19.0488 32.127 19.3389C32.1341 19.6253 32.1377 19.9279 32.1377 20.2466V25H30.9561V17.2979H32.7607L34.7642 22.3037C34.8429 22.4935 34.9074 22.6689 34.9575 22.8301C35.0112 22.9876 35.0524 23.1344 35.0811 23.2705H35.1133C35.1777 23.0664 35.2386 22.882 35.2959 22.7173C35.3532 22.5526 35.4069 22.4093 35.457 22.2876L37.4873 17.2979H39.2275V25ZM41.6177 18.4365C41.3885 18.4365 41.1987 18.3631 41.0483 18.2163C40.8979 18.0695 40.8228 17.8887 40.8228 17.6738C40.8228 17.4518 40.8979 17.2692 41.0483 17.126C41.1987 16.9827 41.3885 16.9111 41.6177 16.9111C41.8504 16.9111 42.042 16.9827 42.1924 17.126C42.3428 17.2692 42.418 17.4518 42.418 17.6738C42.418 17.8923 42.3428 18.0749 42.1924 18.2217C42.042 18.3649 41.8504 18.4365 41.6177 18.4365ZM42.2354 25H40.9839V19.5H42.2354V25ZM47.9824 24.6616C47.7103 24.8263 47.4399 24.9445 47.1714 25.0161C46.9028 25.0913 46.611 25.1289 46.2959 25.1289C45.4508 25.1289 44.7741 24.8818 44.2656 24.3877C43.7607 23.8936 43.5083 23.2222 43.5083 22.3735C43.5083 21.4604 43.7697 20.7318 44.2925 20.1875C44.8188 19.6432 45.5278 19.3711 46.4194 19.3711C46.731 19.3711 47.0138 19.4051 47.2681 19.4731C47.5259 19.5376 47.7873 19.645 48.0522 19.7954L47.5635 20.6655C47.3773 20.5617 47.1947 20.4865 47.0156 20.4399C46.8366 20.3898 46.6414 20.3647 46.4302 20.3647C45.9038 20.3647 45.4974 20.5384 45.2109 20.8857C44.9245 21.2331 44.7812 21.6932 44.7812 22.2661C44.7812 22.8677 44.9352 23.3296 45.2432 23.6519C45.5547 23.9741 45.945 24.1353 46.4141 24.1353C46.5573 24.1353 46.722 24.1102 46.9082 24.0601C47.0944 24.0063 47.2824 23.9222 47.4722 23.8076L47.9824 24.6616ZM52.1021 20.5474C52.034 20.5295 51.9678 20.5169 51.9033 20.5098C51.8424 20.499 51.7708 20.4937 51.6885 20.4937C51.2409 20.4937 50.8971 20.6584 50.6572 20.9878C50.4173 21.3172 50.2974 21.7469 50.2974 22.2769V25H49.0459V19.5H50.2974V20.5581H50.3188C50.4478 20.1785 50.6375 19.8921 50.8882 19.6987C51.1388 19.5018 51.4342 19.4033 51.7744 19.4033C51.8711 19.4033 51.957 19.4087 52.0322 19.4194C52.111 19.4302 52.1862 19.4463 52.2578 19.4678L52.1021 20.5474ZM55.5557 25.1289C54.6963 25.1289 54.0142 24.8729 53.5093 24.3608C53.008 23.8452 52.7573 23.1559 52.7573 22.293C52.7609 21.3799 53.0223 20.6655 53.5415 20.1499C54.0607 19.6307 54.7679 19.3711 55.6631 19.3711C56.526 19.3675 57.1992 19.6217 57.6826 20.1338C58.1696 20.6423 58.4131 21.3315 58.4131 22.2017C58.4131 23.0968 58.1553 23.8094 57.6396 24.3394C57.1276 24.8657 56.4329 25.1289 55.5557 25.1289ZM55.6147 24.1353C56.1125 24.1353 56.4902 23.9723 56.748 23.6465C57.0094 23.3206 57.1401 22.8498 57.1401 22.2339C57.1401 21.6252 57.0094 21.1615 56.748 20.8428C56.4867 20.5241 56.1071 20.3647 55.6094 20.3647C55.1188 20.3647 54.7321 20.533 54.4492 20.8696C54.1699 21.2062 54.0303 21.6717 54.0303 22.2661C54.0303 22.8641 54.1699 23.326 54.4492 23.6519C54.7285 23.9741 55.117 24.1353 55.6147 24.1353ZM59.1543 24.5596L59.6968 23.6787C59.9116 23.8291 60.139 23.9508 60.3789 24.0439C60.6224 24.1335 60.8856 24.1782 61.1685 24.1782C61.4764 24.1782 61.7145 24.1227 61.8828 24.0117C62.0547 23.8971 62.1406 23.7271 62.1406 23.5015C62.1406 23.3224 62.069 23.1738 61.9258 23.0557C61.7861 22.9339 61.5462 22.8337 61.2061 22.7549C60.5186 22.5938 60.0352 22.3807 59.7559 22.1157C59.4801 21.8507 59.3423 21.5016 59.3423 21.0684C59.3423 20.5706 59.5356 20.1642 59.9224 19.8491C60.3091 19.5304 60.8158 19.3711 61.4424 19.3711C61.7539 19.3711 62.0511 19.4123 62.334 19.4946C62.6169 19.5734 62.8926 19.7005 63.1611 19.876L62.6562 20.7354C62.4199 20.585 62.2033 20.4775 62.0063 20.4131C61.8094 20.3486 61.6071 20.3164 61.3994 20.3164C61.1058 20.3164 60.8766 20.3719 60.7119 20.4829C60.5508 20.5903 60.4702 20.7407 60.4702 20.9341C60.4702 21.1382 60.5526 21.2904 60.7173 21.3906C60.8856 21.4873 61.1667 21.5822 61.5605 21.6753C62.1549 21.8185 62.59 22.0262 62.8657 22.2983C63.1414 22.5669 63.2793 22.9268 63.2793 23.3779C63.2793 23.9115 63.0841 24.3376 62.6938 24.6562C62.3071 24.9714 61.7826 25.1289 61.1201 25.1289C60.762 25.1289 60.4183 25.0824 60.0889 24.9893C59.763 24.8926 59.4515 24.7493 59.1543 24.5596ZM66.8779 25.1289C66.0186 25.1289 65.3364 24.8729 64.8315 24.3608C64.3302 23.8452 64.0796 23.1559 64.0796 22.293C64.0832 21.3799 64.3446 20.6655 64.8638 20.1499C65.383 19.6307 66.0902 19.3711 66.9854 19.3711C67.8483 19.3675 68.5215 19.6217 69.0049 20.1338C69.4919 20.6423 69.7354 21.3315 69.7354 22.2017C69.7354 23.0968 69.4775 23.8094 68.9619 24.3394C68.4499 24.8657 67.7552 25.1289 66.8779 25.1289ZM66.937 24.1353C67.4347 24.1353 67.8125 23.9723 68.0703 23.6465C68.3317 23.3206 68.4624 22.8498 68.4624 22.2339C68.4624 21.6252 68.3317 21.1615 68.0703 20.8428C67.8089 20.5241 67.4294 20.3647 66.9316 20.3647C66.4411 20.3647 66.0544 20.533 65.7715 20.8696C65.4922 21.2062 65.3525 21.6717 65.3525 22.2661C65.3525 22.8641 65.4922 23.326 65.7715 23.6519C66.0508 23.9741 66.4393 24.1353 66.937 24.1353ZM73.9839 17.8403C73.8836 17.8009 73.7923 17.7741 73.71 17.7598C73.6276 17.7419 73.5381 17.7329 73.4414 17.7329C73.1764 17.7329 72.9759 17.8099 72.8398 17.9639C72.7074 18.1143 72.6411 18.3327 72.6411 18.6191V19.5H73.9141V20.4775H72.6411V25H71.395V20.4775H70.4604V19.5H71.395V18.5547C71.395 17.9961 71.5741 17.5539 71.9321 17.228C72.2938 16.8986 72.7718 16.7339 73.3662 16.7339C73.5524 16.7339 73.7135 16.7464 73.8496 16.7715C73.9857 16.7965 74.1271 16.8324 74.2739 16.8789L73.9839 17.8403ZM77.7974 24.9248C77.6362 24.9928 77.4679 25.043 77.2925 25.0752C77.117 25.1074 76.929 25.1235 76.7285 25.1235C76.2201 25.1235 75.828 24.9893 75.5522 24.7207C75.2801 24.4486 75.144 24.0439 75.144 23.5068V20.4775H74.2202V19.5H75.144V18.1626L76.3901 17.7866V19.5H77.7061V20.4775H76.3901V23.4048C76.3901 23.6733 76.4385 23.8667 76.5352 23.9849C76.6354 24.103 76.7894 24.1621 76.9971 24.1621C77.0973 24.1621 77.1922 24.1514 77.2817 24.1299C77.3748 24.1048 77.4572 24.0744 77.5288 24.0386L77.7974 24.9248ZM81.2939 24.4468L81.8633 23.4639C82.2106 23.6787 82.5347 23.8309 82.8354 23.9204C83.1362 24.0063 83.4728 24.0493 83.8452 24.0493C84.2892 24.0493 84.6383 23.9544 84.8926 23.7646C85.1504 23.5713 85.2793 23.2956 85.2793 22.9375C85.2793 22.6117 85.1719 22.3556 84.957 22.1694C84.7458 21.9797 84.3859 21.806 83.8774 21.6484C83.0933 21.4157 82.5168 21.1274 82.1479 20.7837C81.7791 20.4399 81.5947 19.9744 81.5947 19.3872C81.5947 18.7498 81.8328 18.2217 82.3091 17.8027C82.7853 17.3802 83.4316 17.1689 84.248 17.1689C84.6061 17.1689 84.9588 17.2083 85.3062 17.2871C85.6535 17.3659 85.9972 17.4876 86.3374 17.6523L85.8594 18.6729C85.5622 18.5189 85.2775 18.4097 85.0054 18.3452C84.7368 18.2808 84.4629 18.2485 84.1836 18.2485C83.7754 18.2485 83.4531 18.3381 83.2168 18.5171C82.984 18.6961 82.8677 18.9486 82.8677 19.2744C82.8677 19.5645 82.9751 19.7936 83.1899 19.9619C83.4048 20.1266 83.7736 20.2896 84.2964 20.4507C85.0985 20.6906 85.675 20.9896 86.0259 21.3477C86.3804 21.7057 86.5576 22.1981 86.5576 22.8247C86.5576 23.4979 86.3177 24.0511 85.8379 24.4844C85.3581 24.9141 84.6742 25.1289 83.7861 25.1289C83.3421 25.1289 82.9089 25.0734 82.4863 24.9624C82.0638 24.8478 81.6663 24.6759 81.2939 24.4468ZM90.4409 24.9248C90.2798 24.9928 90.1115 25.043 89.936 25.0752C89.7606 25.1074 89.5726 25.1235 89.3721 25.1235C88.8636 25.1235 88.4715 24.9893 88.1958 24.7207C87.9237 24.4486 87.7876 24.0439 87.7876 23.5068V20.4775H86.8638V19.5H87.7876V18.1626L89.0337 17.7866V19.5H90.3496V20.4775H89.0337V23.4048C89.0337 23.6733 89.082 23.8667 89.1787 23.9849C89.279 24.103 89.4329 24.1621 89.6406 24.1621C89.7409 24.1621 89.8358 24.1514 89.9253 24.1299C90.0184 24.1048 90.1007 24.0744 90.1724 24.0386L90.4409 24.9248ZM93.8623 25.1289C93.0029 25.1289 92.3208 24.8729 91.8159 24.3608C91.3146 23.8452 91.064 23.1559 91.064 22.293C91.0675 21.3799 91.3289 20.6655 91.8481 20.1499C92.3674 19.6307 93.0745 19.3711 93.9697 19.3711C94.8327 19.3675 95.5059 19.6217 95.9893 20.1338C96.4762 20.6423 96.7197 21.3315 96.7197 22.2017C96.7197 23.0968 96.4619 23.8094 95.9463 24.3394C95.4342 24.8657 94.7396 25.1289 93.8623 25.1289ZM93.9214 24.1353C94.4191 24.1353 94.7969 23.9723 95.0547 23.6465C95.3161 23.3206 95.4468 22.8498 95.4468 22.2339C95.4468 21.6252 95.3161 21.1615 95.0547 20.8428C94.7933 20.5241 94.4137 20.3647 93.916 20.3647C93.4255 20.3647 93.0387 20.533 92.7559 20.8696C92.4766 21.2062 92.3369 21.6717 92.3369 22.2661C92.3369 22.8641 92.4766 23.326 92.7559 23.6519C93.0352 23.9741 93.4237 24.1353 93.9214 24.1353ZM101.054 20.5474C100.986 20.5295 100.92 20.5169 100.855 20.5098C100.795 20.499 100.723 20.4937 100.641 20.4937C100.193 20.4937 99.8493 20.6584 99.6094 20.9878C99.3695 21.3172 99.2495 21.7469 99.2495 22.2769V25H97.998V19.5H99.2495V20.5581H99.271C99.3999 20.1785 99.5897 19.8921 99.8403 19.6987C100.091 19.5018 100.386 19.4033 100.727 19.4033C100.823 19.4033 100.909 19.4087 100.984 19.4194C101.063 19.4302 101.138 19.4463 101.21 19.4678L101.054 20.5474ZM106.721 22.5776H102.966C102.988 23.0968 103.138 23.4925 103.417 23.7646C103.697 24.0332 104.087 24.1675 104.588 24.1675C104.792 24.1675 105.025 24.1263 105.287 24.0439C105.548 23.9616 105.806 23.8291 106.06 23.6465L106.624 24.4253C106.284 24.6724 105.938 24.8514 105.587 24.9624C105.236 25.0734 104.85 25.1289 104.427 25.1289C103.571 25.1289 102.905 24.8836 102.429 24.3931C101.953 23.8989 101.713 23.2096 101.709 22.3252C101.709 21.4443 101.955 20.7318 102.445 20.1875C102.939 19.6432 103.571 19.3711 104.341 19.3711C105.079 19.3711 105.659 19.6038 106.082 20.0693C106.508 20.5312 106.721 21.1865 106.721 22.0352V22.5776ZM105.512 21.7129C105.512 21.2402 105.408 20.8857 105.201 20.6494C104.997 20.4095 104.707 20.2896 104.331 20.2896C103.976 20.2896 103.674 20.4185 103.423 20.6763C103.176 20.9305 103.024 21.276 102.966 21.7129H105.512Z" fill="white"/>
<defs>
<filter id="filter0_dd_976_1839" x="11.0938" y="7.25" width="11.8125" height="5.625" filterUnits="userSpaceOnUse" color-interpolation-filters="sRGB">
<feFlood flood-opacity="0" result="BackgroundImageFix"/>
<feColorMatrix in="SourceAlpha" type="matrix" values="0 0 0 0 0 0 0 0 0 0 0 0 0 0 0 0 0 0 127 0" result="hardAlpha"/>
<feOffset dy="0.1875"/>
<feGaussianBlur stdDeviation="0.1875"/>
<feColorMatrix type="matrix" values="0 0 0 0 0 0 0 0 0 0 0 0 0 0 0 0 0 0 0.1 0"/>
<feBlend mode="normal" in2="BackgroundImageFix" result="effect1_dropShadow_976_1839"/>
<feColorMatrix in="SourceAlpha" type="matrix" values="0 0 0 0 0 0 0 0 0 0 0 0 0 0 0 0 0 0 127 0" result="hardAlpha"/>
<feOffset dy="0.375"/>
<feGaussianBlur stdDeviation="0.5625"/>
<feColorMatrix type="matrix" values="0 0 0 0 0 0 0 0 0 0 0 0 0 0 0 0 0 0 0.2 0"/>
<feBlend mode="normal" in2="effect1_dropShadow_976_1839" result="effect2_dropShadow_976_1839"/>
<feBlend mode="normal" in="SourceGraphic" in2="effect2_dropShadow_976_1839" result="shape"/>
</filter>
<filter id="filter1_dd_976_1839" x="12.2188" y="13.4375" width="9.5625" height="9.5625" filterUnits="userSpaceOnUse" color-interpolation-filters="sRGB">
<feFlood flood-opacity="0" result="BackgroundImageFix"/>
<feColorMatrix in="SourceAlpha" type="matrix" values="0 0 0 0 0 0 0 0 0 0 0 0 0 0 0 0 0 0 127 0" result="hardAlpha"/>
<feOffset dy="0.1875"/>
<feGaussianBlur stdDeviation="0.1875"/>
<feColorMatrix type="matrix" values="0 0 0 0 1 0 0 0 0 1 0 0 0 0 1 0 0 0 0.6 0"/>
<feBlend mode="normal" in2="BackgroundImageFix" result="effect1_dropShadow_976_1839"/>
<feColorMatrix in="SourceAlpha" type="matrix" values="0 0 0 0 0 0 0 0 0 0 0 0 0 0 0 0 0 0 127 0" result="hardAlpha"/>
<feOffset dy="0.375"/>
<feGaussianBlur stdDeviation="0.5625"/>
<feColorMatrix type="matrix" values="0 0 0 0 1 0 0 0 0 1 0 0 0 0 1 0 0 0 0.6 0"/>
<feBlend mode="normal" in2="effect1_dropShadow_976_1839" result="effect2_dropShadow_976_1839"/>
<feBlend mode="normal" in="SourceGraphic" in2="effect2_dropShadow_976_1839" result="shape"/>
</filter>
<filter id="filter2_dd_976_1839" x="10.5939" y="6.6875" width="12.8124" height="5.06274" filterUnits="userSpaceOnUse" color-interpolation-filters="sRGB">
<feFlood flood-opacity="0" result="BackgroundImageFix"/>
<feColorMatrix in="SourceAlpha" type="matrix" values="0 0 0 0 0 0 0 0 0 0 0 0 0 0 0 0 0 0 127 0" result="hardAlpha"/>
<feOffset dy="-0.75"/>
<feGaussianBlur stdDeviation="0.1875"/>
<feColorMatrix type="matrix" values="0 0 0 0 0 0 0 0 0 0 0 0 0 0 0 0 0 0 0.1 0"/>
<feBlend mode="normal" in2="BackgroundImageFix" result="effect1_dropShadow_976_1839"/>
<feColorMatrix in="SourceAlpha" type="matrix" values="0 0 0 0 0 0 0 0 0 0 0 0 0 0 0 0 0 0 127 0" result="hardAlpha"/>
<feOffset dy="-0.75"/>
<feGaussianBlur stdDeviation="0.5625"/>
<feColorMatrix type="matrix" values="0 0 0 0 0 0 0 0 0 0 0 0 0 0 0 0 0 0 0.2 0"/>
<feBlend mode="normal" in2="effect1_dropShadow_976_1839" result="effect2_dropShadow_976_1839"/>
<feBlend mode="normal" in="SourceGraphic" in2="effect2_dropShadow_976_1839" result="shape"/>
</filter>
<linearGradient id="paint0_linear_976_1839" x1="12.2443" y1="8.00639" x2="15.9039" y2="24.8132" gradientUnits="userSpaceOnUse">
<stop offset="0.270833" stop-color="white"/>
<stop offset="1" stop-color="#DFDFDF"/>
</linearGradient>
<linearGradient id="paint1_linear_976_1839" x1="17" y1="10.25" x2="20.3514" y2="25.9624" gradientUnits="userSpaceOnUse">
<stop stop-color="#0078D4"/>
<stop offset="1" stop-color="#114A8B"/>
</linearGradient>
<linearGradient id="paint2_linear_976_1839" x1="17" y1="8.5625" x2="17.1583" y2="10.9858" gradientUnits="userSpaceOnUse">
<stop stop-color="#28AFEA"/>
<stop offset="1" stop-color="#0078D4"/>
</linearGradient>
<linearGradient id="paint3_linear_976_1839" x1="17" y1="8.5625" x2="17.1583" y2="10.9858" gradientUnits="userSpaceOnUse">
<stop stop-color="#30DAFF"/>
<stop offset="1" stop-color="#0094D4"/>
</linearGradient>
<linearGradient id="paint4_linear_976_1839" x1="16.5938" y1="8" x2="16.5937" y2="9.125" gradientUnits="userSpaceOnUse">
<stop stop-color="#22BCFF"/>
<stop offset="1" stop-color="#0088F0"/>
</linearGradient>
<linearGradient id="paint5_linear_976_1839" x1="16.5938" y1="8" x2="16.5937" y2="9.125" gradientUnits="userSpaceOnUse">
<stop stop-color="#28AFEA"/>
<stop offset="1" stop-color="#3CCBF4"/>
</linearGradient>
<clipPath id="clip0_976_1839">
<rect width="18" height="18" fill="white" transform="translate(8 8)"/>
</clipPath>
<clipPath id="clip1_976_1839">
<rect width="18" height="18" fill="white" transform="translate(8 8)"/>
</clipPath>
</defs>
</svg>
