<svg width="116" height="34" viewBox="0 0 116 34" fill="none" xmlns="http://www.w3.org/2000/svg">
<rect x="1" y="1" width="114" height="32" rx="4" fill="#202020"/>
<rect x="0.5" y="0.5" width="115" height="33" rx="4.5" stroke="black" stroke-opacity="0.1"/>
<g clip-path="url(#clip0_976_1837)">
<g clip-path="url(#clip1_976_1837)">
<path d="M8.28125 11C8.28125 10.5858 8.61704 10.25 9.03125 10.25H24.9687C25.383 10.25 25.7188 10.5858 25.7188 11V22.3438C25.7188 24.0524 24.3336 25.4375 22.625 25.4375H11.375C9.66637 25.4375 8.28125 24.0524 8.28125 22.3438V11Z" fill="url(#paint0_linear_976_1837)"/>
<mask id="mask0_976_1837" style="mask-type:alpha" maskUnits="userSpaceOnUse" x="8" y="10" width="18" height="16">
<path d="M8.28125 11C8.28125 10.5858 8.61704 10.25 9.03125 10.25H24.9687C25.383 10.25 25.7188 10.5858 25.7188 11V22.3438C25.7188 24.0524 24.3336 25.4375 22.625 25.4375H11.375C9.66637 25.4375 8.28125 24.0524 8.28125 22.3438V11Z" fill="url(#paint1_linear_976_1837)"/>
</mask>
<g mask="url(#mask0_976_1837)">
<g filter="url(#filter0_dd_976_1837)">
<path d="M12.7812 10.8125V8.5625H21.2187V10.8125" stroke="url(#paint2_linear_976_1837)" stroke-width="1.125" stroke-linecap="round"/>
</g>
</g>
<g filter="url(#filter1_dd_976_1837)">
<path d="M16.719 14.1875H13.344V17.5625H16.719V14.1875Z" fill="#F25022"/>
<path d="M20.6562 14.1875H17.2812V17.5625H20.6562V14.1875Z" fill="#7FBA00"/>
<path d="M20.6562 18.125H17.2812V21.5H20.6562V18.125Z" fill="#FFB900"/>
<path d="M16.7188 18.125H13.3438V21.5H16.7188V18.125Z" fill="#00A4EF"/>
</g>
<path d="M12.7812 10.8125V9.125C12.7812 8.81434 13.0331 8.5625 13.3438 8.5625H20.6563C20.9669 8.5625 21.2188 8.81434 21.2188 9.125V10.8125" stroke="url(#paint3_linear_976_1837)" stroke-width="1.125" stroke-linecap="round"/>
<rect x="13.3438" y="8" width="7.3125" height="1.125" fill="url(#paint4_linear_976_1837)"/>
<mask id="mask1_976_1837" style="mask-type:alpha" maskUnits="userSpaceOnUse" x="13" y="8" width="8" height="2">
<rect x="13.3438" y="8" width="7.3125" height="1.125" fill="url(#paint5_linear_976_1837)"/>
</mask>
<g mask="url(#mask1_976_1837)">
<g filter="url(#filter2_dd_976_1837)">
<rect x="11.7189" y="8.56274" width="1.625" height="2.8125" fill="#C4C4C4"/>
</g>
</g>
</g>
</g>
<path d="M33.1855 13H30.6426V8.09863H31.2168V12.4805H33.1855V13ZM36.6753 11.3765H34.2007C34.2098 11.7707 34.3135 12.0749 34.5117 12.2891C34.7122 12.501 34.9925 12.6069 35.3525 12.6069C35.5098 12.6069 35.667 12.5841 35.8242 12.5386C35.9837 12.4907 36.141 12.4155 36.2959 12.313L36.5557 12.7129C36.3574 12.8405 36.1592 12.9339 35.9609 12.9932C35.7627 13.0524 35.5451 13.082 35.3081 13.082C34.7795 13.082 34.367 12.9248 34.0708 12.6104C33.7746 12.2959 33.6253 11.8573 33.623 11.2944C33.6208 10.7316 33.7689 10.2782 34.0674 9.93408C34.3682 9.59001 34.7578 9.41797 35.2363 9.41797C35.6921 9.41797 36.0452 9.56722 36.2959 9.86572C36.5488 10.1619 36.6753 10.5732 36.6753 11.0996V11.3765ZM36.1011 10.9185C36.0988 10.5949 36.0202 10.3431 35.8652 10.1631C35.7103 9.98079 35.4972 9.88965 35.2261 9.88965C34.9595 9.88965 34.7327 9.98307 34.5459 10.1699C34.3613 10.3545 34.2485 10.604 34.2075 10.9185H36.1011ZM37.8135 8.6626C37.6995 8.6626 37.6038 8.625 37.5264 8.5498C37.4489 8.47233 37.4102 8.37777 37.4102 8.26611C37.4102 8.15446 37.4489 8.06104 37.5264 7.98584C37.6038 7.90837 37.6995 7.86963 37.8135 7.86963C37.9274 7.86963 38.0231 7.90837 38.1006 7.98584C38.1781 8.06104 38.2168 8.15446 38.2168 8.26611C38.2168 8.37777 38.1781 8.47233 38.1006 8.5498C38.0231 8.625 37.9274 8.6626 37.8135 8.6626ZM38.0801 13.0991C38.0801 13.6483 37.981 14.0436 37.7827 14.2852C37.5845 14.5267 37.2814 14.6475 36.8735 14.6475C36.7847 14.6475 36.7038 14.6418 36.6309 14.6304C36.5557 14.619 36.4759 14.6007 36.3916 14.5757L36.5112 14.1006C36.5819 14.1257 36.6457 14.1427 36.7026 14.1519C36.7596 14.1632 36.8177 14.1689 36.877 14.1689C37.1162 14.1689 37.2826 14.0892 37.376 13.9297C37.4717 13.7725 37.5195 13.5081 37.5195 13.1367V9.5H38.0801V13.0991ZM42.0518 13H41.4912V12.4463H41.4775C41.3613 12.6582 41.2132 12.8177 41.0332 12.9248C40.8532 13.0296 40.6413 13.082 40.3975 13.082C39.9805 13.082 39.6672 12.9578 39.4575 12.7095C39.2502 12.4611 39.1465 12.0885 39.1465 11.5918V9.5H39.7036V11.5029C39.7036 11.8721 39.7743 12.1489 39.9155 12.3335C40.0568 12.5181 40.2687 12.6104 40.5513 12.6104C40.8247 12.6104 41.0492 12.5101 41.2246 12.3096C41.4023 12.1068 41.4912 11.8424 41.4912 11.5166V9.5H42.0518V13ZM43.7607 12.4941H43.7471V14.6099H43.1865V9.5H43.7471V10.1152H43.7607C43.8997 9.88281 44.0695 9.7085 44.27 9.59229C44.4728 9.47607 44.7064 9.41797 44.9707 9.41797C45.4219 9.41797 45.7739 9.5752 46.0269 9.88965C46.2798 10.2018 46.4062 10.6211 46.4062 11.1475C46.4062 11.7331 46.2638 12.2025 45.979 12.5557C45.6942 12.9066 45.3045 13.082 44.8101 13.082C44.5845 13.082 44.384 13.033 44.2085 12.9351C44.033 12.8371 43.8838 12.6901 43.7607 12.4941ZM43.7471 11.0825V11.5713C43.7471 11.8607 43.8405 12.1068 44.0273 12.3096C44.2165 12.5101 44.4557 12.6104 44.7451 12.6104C45.0846 12.6104 45.3501 12.4805 45.5415 12.2207C45.7352 11.9609 45.832 11.5998 45.832 11.1372C45.832 10.7476 45.742 10.4422 45.562 10.2212C45.382 10.0002 45.1382 9.88965 44.8306 9.88965C44.5047 9.88965 44.2427 10.0036 44.0444 10.2314C43.8462 10.457 43.7471 10.7407 43.7471 11.0825ZM47.5889 8.6626C47.4749 8.6626 47.3792 8.625 47.3018 8.5498C47.2243 8.47233 47.1855 8.37777 47.1855 8.26611C47.1855 8.15446 47.2243 8.06104 47.3018 7.98584C47.3792 7.90837 47.4749 7.86963 47.5889 7.86963C47.7028 7.86963 47.7985 7.90837 47.876 7.98584C47.9535 8.06104 47.9922 8.15446 47.9922 8.26611C47.9922 8.37777 47.9535 8.47233 47.876 8.5498C47.7985 8.625 47.7028 8.6626 47.5889 8.6626ZM47.8623 13H47.3018V9.5H47.8623V13ZM51.8101 11.3765H49.3354C49.3446 11.7707 49.4482 12.0749 49.6465 12.2891C49.847 12.501 50.1273 12.6069 50.4873 12.6069C50.6445 12.6069 50.8018 12.5841 50.959 12.5386C51.1185 12.4907 51.2757 12.4155 51.4307 12.313L51.6904 12.7129C51.4922 12.8405 51.2939 12.9339 51.0957 12.9932C50.8975 13.0524 50.6799 13.082 50.4429 13.082C49.9142 13.082 49.5018 12.9248 49.2056 12.6104C48.9093 12.2959 48.7601 11.8573 48.7578 11.2944C48.7555 10.7316 48.9036 10.2782 49.2021 9.93408C49.5029 9.59001 49.8926 9.41797 50.3711 9.41797C50.8268 9.41797 51.18 9.56722 51.4307 9.86572C51.6836 10.1619 51.8101 10.5732 51.8101 11.0996V11.3765ZM51.2358 10.9185C51.2336 10.5949 51.1549 10.3431 51 10.1631C50.8451 9.98079 50.632 9.88965 50.3608 9.88965C50.0942 9.88965 49.8675 9.98307 49.6807 10.1699C49.4961 10.3545 49.3833 10.604 49.3423 10.9185H51.2358ZM52.6611 13V7.81836H53.2217V13H52.6611ZM56.8345 13H56.2739V12.4531H56.2603C56.1395 12.6628 55.9902 12.82 55.8125 12.9248C55.637 13.0296 55.432 13.082 55.1973 13.082C54.8691 13.082 54.6037 12.9863 54.4009 12.7949C54.1981 12.6035 54.0967 12.3494 54.0967 12.0327C54.0967 11.7342 54.1992 11.487 54.4043 11.291C54.6094 11.0951 54.8999 10.9697 55.2759 10.915L56.2739 10.7817V10.7031C56.2739 10.4092 56.2056 10.2007 56.0688 10.0776C55.9321 9.95231 55.7498 9.88965 55.522 9.88965C55.3397 9.88965 55.1642 9.92383 54.9956 9.99219C54.827 10.0605 54.6686 10.1654 54.5205 10.3066L54.1924 9.96826C54.3883 9.77913 54.5968 9.64014 54.8179 9.55127C55.0389 9.4624 55.285 9.41797 55.5562 9.41797C55.98 9.41797 56.299 9.52734 56.5132 9.74609C56.7274 9.96257 56.8345 10.2884 56.8345 10.7236V13ZM56.2739 11.5781V11.2295L55.4297 11.3457C55.1722 11.3822 54.9785 11.4471 54.8486 11.5405C54.7188 11.634 54.6538 11.7809 54.6538 11.9814C54.6538 12.1911 54.7142 12.3517 54.835 12.4634C54.958 12.5728 55.1073 12.6274 55.2827 12.6274C55.5858 12.6274 55.8262 12.5283 56.0039 12.3301C56.1839 12.1318 56.2739 11.8812 56.2739 11.5781ZM56.4209 8.83691H54.7188V8.42676H56.4209V8.83691ZM60.3311 12.4053C60.2012 12.6309 60.036 12.8006 59.8354 12.9146C59.6372 13.0262 59.4014 13.082 59.1279 13.082C58.6882 13.082 58.3361 12.9259 58.0718 12.6138C57.8097 12.2993 57.6787 11.8721 57.6787 11.332C57.6787 10.7533 57.8245 10.2896 58.1162 9.94092C58.4079 9.59229 58.7964 9.41797 59.2817 9.41797C59.5233 9.41797 59.7306 9.46582 59.9038 9.56152C60.0793 9.65495 60.2217 9.79622 60.3311 9.98535H60.3447V7.81836H60.9053V13H60.3447V12.4053H60.3311ZM58.2529 11.3047C58.2529 11.708 58.3464 12.027 58.5332 12.2617C58.7223 12.4941 58.9753 12.6104 59.292 12.6104C59.6064 12.6104 59.8605 12.4976 60.0542 12.272C60.2479 12.0464 60.3447 11.7616 60.3447 11.4175V10.9014C60.3447 10.6188 60.2502 10.3796 60.061 10.1836C59.8742 9.98763 59.6383 9.88965 59.3535 9.88965C59.0117 9.88965 58.7428 10.015 58.5469 10.2656C58.3509 10.5163 58.2529 10.8626 58.2529 11.3047ZM64.853 11.3765H62.3784C62.3875 11.7707 62.4912 12.0749 62.6895 12.2891C62.89 12.501 63.1702 12.6069 63.5303 12.6069C63.6875 12.6069 63.8447 12.5841 64.002 12.5386C64.1615 12.4907 64.3187 12.4155 64.4736 12.313L64.7334 12.7129C64.5352 12.8405 64.3369 12.9339 64.1387 12.9932C63.9404 13.0524 63.7228 13.082 63.4858 13.082C62.9572 13.082 62.5448 12.9248 62.2485 12.6104C61.9523 12.2959 61.8031 11.8573 61.8008 11.2944C61.7985 10.7316 61.9466 10.2782 62.2451 9.93408C62.5459 9.59001 62.9355 9.41797 63.4141 9.41797C63.8698 9.41797 64.223 9.56722 64.4736 9.86572C64.7266 10.1619 64.853 10.5732 64.853 11.0996V11.3765ZM64.2788 10.9185C64.2765 10.5949 64.1979 10.3431 64.043 10.1631C63.888 9.98079 63.675 9.88965 63.4038 9.88965C63.1372 9.88965 62.9105 9.98307 62.7236 10.1699C62.5391 10.3545 62.4263 10.604 62.3853 10.9185H64.2788ZM64.2515 8.83691H62.5493V8.42676H64.2515V8.83691ZM67.3721 12.959C67.2764 12.9977 67.1818 13.0262 67.0884 13.0444C66.9972 13.0649 66.8936 13.0752 66.7773 13.0752C66.4993 13.0752 66.2806 12.9943 66.1211 12.8325C65.9639 12.6685 65.8853 12.4269 65.8853 12.1079V9.97852H65.2837V9.5H65.8853V8.64551L66.4458 8.46436V9.5H67.3276V9.97852H66.4458V12.043C66.4458 12.2435 66.4811 12.3882 66.5518 12.4771C66.6247 12.5659 66.7329 12.6104 66.8765 12.6104C66.9448 12.6104 67.0109 12.6024 67.0747 12.5864C67.1385 12.5705 67.1921 12.5522 67.2354 12.5317L67.3721 12.959ZM72.9023 13H72.3418V11.0039C72.3418 10.6325 72.2734 10.3545 72.1367 10.1699C72.0023 9.98307 71.7995 9.88965 71.5283 9.88965C71.248 9.88965 71.0156 9.99561 70.8311 10.2075C70.6488 10.4172 70.5576 10.6826 70.5576 11.0039V13H69.9971V9.5H70.5576V10.0811H70.5713C70.7035 9.86003 70.8652 9.69482 71.0566 9.58545C71.248 9.4738 71.4691 9.41797 71.7197 9.41797C72.1025 9.41797 72.3953 9.54215 72.5981 9.79053C72.8009 10.0366 72.9023 10.3932 72.9023 10.8604V13ZM75.4248 13.082C74.9076 13.082 74.494 12.9191 74.1841 12.5933C73.8765 12.2651 73.7227 11.8311 73.7227 11.291C73.7227 10.7054 73.8822 10.2474 74.2012 9.91699C74.5202 9.58659 74.9554 9.42025 75.5068 9.41797C76.0286 9.41569 76.4354 9.57633 76.7271 9.8999C77.021 10.2235 77.168 10.6689 77.168 11.2363C77.168 11.7969 77.0096 12.2446 76.6929 12.5796C76.3784 12.9146 75.9557 13.082 75.4248 13.082ZM75.4658 12.6104C75.8281 12.6104 76.1061 12.493 76.2998 12.2583C76.4958 12.0213 76.5938 11.6875 76.5938 11.2568C76.5938 10.8171 76.4958 10.4798 76.2998 10.2451C76.1038 10.0081 75.8258 9.88965 75.4658 9.88965C75.1058 9.88965 74.821 10.0127 74.6113 10.2588C74.4017 10.5049 74.2969 10.8421 74.2969 11.2705C74.2969 11.6852 74.4028 12.0122 74.6147 12.2515C74.8267 12.4907 75.1104 12.6104 75.4658 12.6104Z" fill="white" fill-opacity="0.786"/>
<path d="M39.2275 25H37.96V20.0854C37.96 19.8634 37.9653 19.6217 37.9761 19.3604C37.9904 19.0954 38.0083 18.8143 38.0298 18.5171H37.9976C37.9546 18.7212 37.9134 18.8966 37.874 19.0435C37.8382 19.1867 37.8024 19.3013 37.7666 19.3872L35.5054 25H34.6245L32.3525 19.4355C32.3239 19.3568 32.2881 19.2404 32.2451 19.0864C32.2057 18.9325 32.1628 18.7427 32.1162 18.5171H32.084C32.1055 18.7749 32.1198 19.0488 32.127 19.3389C32.1341 19.6253 32.1377 19.9279 32.1377 20.2466V25H30.9561V17.2979H32.7607L34.7642 22.3037C34.8429 22.4935 34.9074 22.6689 34.9575 22.8301C35.0112 22.9876 35.0524 23.1344 35.0811 23.2705H35.1133C35.1777 23.0664 35.2386 22.882 35.2959 22.7173C35.3532 22.5526 35.4069 22.4093 35.457 22.2876L37.4873 17.2979H39.2275V25ZM41.6177 18.4365C41.3885 18.4365 41.1987 18.3631 41.0483 18.2163C40.8979 18.0695 40.8228 17.8887 40.8228 17.6738C40.8228 17.4518 40.8979 17.2692 41.0483 17.126C41.1987 16.9827 41.3885 16.9111 41.6177 16.9111C41.8504 16.9111 42.042 16.9827 42.1924 17.126C42.3428 17.2692 42.418 17.4518 42.418 17.6738C42.418 17.8923 42.3428 18.0749 42.1924 18.2217C42.042 18.3649 41.8504 18.4365 41.6177 18.4365ZM42.2354 25H40.9839V19.5H42.2354V25ZM47.9824 24.6616C47.7103 24.8263 47.4399 24.9445 47.1714 25.0161C46.9028 25.0913 46.611 25.1289 46.2959 25.1289C45.4508 25.1289 44.7741 24.8818 44.2656 24.3877C43.7607 23.8936 43.5083 23.2222 43.5083 22.3735C43.5083 21.4604 43.7697 20.7318 44.2925 20.1875C44.8188 19.6432 45.5278 19.3711 46.4194 19.3711C46.731 19.3711 47.0138 19.4051 47.2681 19.4731C47.5259 19.5376 47.7873 19.645 48.0522 19.7954L47.5635 20.6655C47.3773 20.5617 47.1947 20.4865 47.0156 20.4399C46.8366 20.3898 46.6414 20.3647 46.4302 20.3647C45.9038 20.3647 45.4974 20.5384 45.2109 20.8857C44.9245 21.2331 44.7812 21.6932 44.7812 22.2661C44.7812 22.8677 44.9352 23.3296 45.2432 23.6519C45.5547 23.9741 45.945 24.1353 46.4141 24.1353C46.5573 24.1353 46.722 24.1102 46.9082 24.0601C47.0944 24.0063 47.2824 23.9222 47.4722 23.8076L47.9824 24.6616ZM52.1021 20.5474C52.034 20.5295 51.9678 20.5169 51.9033 20.5098C51.8424 20.499 51.7708 20.4937 51.6885 20.4937C51.2409 20.4937 50.8971 20.6584 50.6572 20.9878C50.4173 21.3172 50.2974 21.7469 50.2974 22.2769V25H49.0459V19.5H50.2974V20.5581H50.3188C50.4478 20.1785 50.6375 19.8921 50.8882 19.6987C51.1388 19.5018 51.4342 19.4033 51.7744 19.4033C51.8711 19.4033 51.957 19.4087 52.0322 19.4194C52.111 19.4302 52.1862 19.4463 52.2578 19.4678L52.1021 20.5474ZM55.5557 25.1289C54.6963 25.1289 54.0142 24.8729 53.5093 24.3608C53.008 23.8452 52.7573 23.1559 52.7573 22.293C52.7609 21.3799 53.0223 20.6655 53.5415 20.1499C54.0607 19.6307 54.7679 19.3711 55.6631 19.3711C56.526 19.3675 57.1992 19.6217 57.6826 20.1338C58.1696 20.6423 58.4131 21.3315 58.4131 22.2017C58.4131 23.0968 58.1553 23.8094 57.6396 24.3394C57.1276 24.8657 56.4329 25.1289 55.5557 25.1289ZM55.6147 24.1353C56.1125 24.1353 56.4902 23.9723 56.748 23.6465C57.0094 23.3206 57.1401 22.8498 57.1401 22.2339C57.1401 21.6252 57.0094 21.1615 56.748 20.8428C56.4867 20.5241 56.1071 20.3647 55.6094 20.3647C55.1188 20.3647 54.7321 20.533 54.4492 20.8696C54.1699 21.2062 54.0303 21.6717 54.0303 22.2661C54.0303 22.8641 54.1699 23.326 54.4492 23.6519C54.7285 23.9741 55.117 24.1353 55.6147 24.1353ZM59.1543 24.5596L59.6968 23.6787C59.9116 23.8291 60.139 23.9508 60.3789 24.0439C60.6224 24.1335 60.8856 24.1782 61.1685 24.1782C61.4764 24.1782 61.7145 24.1227 61.8828 24.0117C62.0547 23.8971 62.1406 23.7271 62.1406 23.5015C62.1406 23.3224 62.069 23.1738 61.9258 23.0557C61.7861 22.9339 61.5462 22.8337 61.2061 22.7549C60.5186 22.5938 60.0352 22.3807 59.7559 22.1157C59.4801 21.8507 59.3423 21.5016 59.3423 21.0684C59.3423 20.5706 59.5356 20.1642 59.9224 19.8491C60.3091 19.5304 60.8158 19.3711 61.4424 19.3711C61.7539 19.3711 62.0511 19.4123 62.334 19.4946C62.6169 19.5734 62.8926 19.7005 63.1611 19.876L62.6562 20.7354C62.4199 20.585 62.2033 20.4775 62.0063 20.4131C61.8094 20.3486 61.6071 20.3164 61.3994 20.3164C61.1058 20.3164 60.8766 20.3719 60.7119 20.4829C60.5508 20.5903 60.4702 20.7407 60.4702 20.9341C60.4702 21.1382 60.5526 21.2904 60.7173 21.3906C60.8856 21.4873 61.1667 21.5822 61.5605 21.6753C62.1549 21.8185 62.59 22.0262 62.8657 22.2983C63.1414 22.5669 63.2793 22.9268 63.2793 23.3779C63.2793 23.9115 63.0841 24.3376 62.6938 24.6562C62.3071 24.9714 61.7826 25.1289 61.1201 25.1289C60.762 25.1289 60.4183 25.0824 60.0889 24.9893C59.763 24.8926 59.4515 24.7493 59.1543 24.5596ZM66.8779 25.1289C66.0186 25.1289 65.3364 24.8729 64.8315 24.3608C64.3302 23.8452 64.0796 23.1559 64.0796 22.293C64.0832 21.3799 64.3446 20.6655 64.8638 20.1499C65.383 19.6307 66.0902 19.3711 66.9854 19.3711C67.8483 19.3675 68.5215 19.6217 69.0049 20.1338C69.4919 20.6423 69.7354 21.3315 69.7354 22.2017C69.7354 23.0968 69.4775 23.8094 68.9619 24.3394C68.4499 24.8657 67.7552 25.1289 66.8779 25.1289ZM66.937 24.1353C67.4347 24.1353 67.8125 23.9723 68.0703 23.6465C68.3317 23.3206 68.4624 22.8498 68.4624 22.2339C68.4624 21.6252 68.3317 21.1615 68.0703 20.8428C67.8089 20.5241 67.4294 20.3647 66.9316 20.3647C66.4411 20.3647 66.0544 20.533 65.7715 20.8696C65.4922 21.2062 65.3525 21.6717 65.3525 22.2661C65.3525 22.8641 65.4922 23.326 65.7715 23.6519C66.0508 23.9741 66.4393 24.1353 66.937 24.1353ZM73.9839 17.8403C73.8836 17.8009 73.7923 17.7741 73.71 17.7598C73.6276 17.7419 73.5381 17.7329 73.4414 17.7329C73.1764 17.7329 72.9759 17.8099 72.8398 17.9639C72.7074 18.1143 72.6411 18.3327 72.6411 18.6191V19.5H73.9141V20.4775H72.6411V25H71.395V20.4775H70.4604V19.5H71.395V18.5547C71.395 17.9961 71.5741 17.5539 71.9321 17.228C72.2938 16.8986 72.7718 16.7339 73.3662 16.7339C73.5524 16.7339 73.7135 16.7464 73.8496 16.7715C73.9857 16.7965 74.1271 16.8324 74.2739 16.8789L73.9839 17.8403ZM77.7974 24.9248C77.6362 24.9928 77.4679 25.043 77.2925 25.0752C77.117 25.1074 76.929 25.1235 76.7285 25.1235C76.2201 25.1235 75.828 24.9893 75.5522 24.7207C75.2801 24.4486 75.144 24.0439 75.144 23.5068V20.4775H74.2202V19.5H75.144V18.1626L76.3901 17.7866V19.5H77.7061V20.4775H76.3901V23.4048C76.3901 23.6733 76.4385 23.8667 76.5352 23.9849C76.6354 24.103 76.7894 24.1621 76.9971 24.1621C77.0973 24.1621 77.1922 24.1514 77.2817 24.1299C77.3748 24.1048 77.4572 24.0744 77.5288 24.0386L77.7974 24.9248ZM81.2939 24.4468L81.8633 23.4639C82.2106 23.6787 82.5347 23.8309 82.8354 23.9204C83.1362 24.0063 83.4728 24.0493 83.8452 24.0493C84.2892 24.0493 84.6383 23.9544 84.8926 23.7646C85.1504 23.5713 85.2793 23.2956 85.2793 22.9375C85.2793 22.6117 85.1719 22.3556 84.957 22.1694C84.7458 21.9797 84.3859 21.806 83.8774 21.6484C83.0933 21.4157 82.5168 21.1274 82.1479 20.7837C81.7791 20.4399 81.5947 19.9744 81.5947 19.3872C81.5947 18.7498 81.8328 18.2217 82.3091 17.8027C82.7853 17.3802 83.4316 17.1689 84.248 17.1689C84.6061 17.1689 84.9588 17.2083 85.3062 17.2871C85.6535 17.3659 85.9972 17.4876 86.3374 17.6523L85.8594 18.6729C85.5622 18.5189 85.2775 18.4097 85.0054 18.3452C84.7368 18.2808 84.4629 18.2485 84.1836 18.2485C83.7754 18.2485 83.4531 18.3381 83.2168 18.5171C82.984 18.6961 82.8677 18.9486 82.8677 19.2744C82.8677 19.5645 82.9751 19.7936 83.1899 19.9619C83.4048 20.1266 83.7736 20.2896 84.2964 20.4507C85.0985 20.6906 85.675 20.9896 86.0259 21.3477C86.3804 21.7057 86.5576 22.1981 86.5576 22.8247C86.5576 23.4979 86.3177 24.0511 85.8379 24.4844C85.3581 24.9141 84.6742 25.1289 83.7861 25.1289C83.3421 25.1289 82.9089 25.0734 82.4863 24.9624C82.0638 24.8478 81.6663 24.6759 81.2939 24.4468ZM90.4409 24.9248C90.2798 24.9928 90.1115 25.043 89.936 25.0752C89.7606 25.1074 89.5726 25.1235 89.3721 25.1235C88.8636 25.1235 88.4715 24.9893 88.1958 24.7207C87.9237 24.4486 87.7876 24.0439 87.7876 23.5068V20.4775H86.8638V19.5H87.7876V18.1626L89.0337 17.7866V19.5H90.3496V20.4775H89.0337V23.4048C89.0337 23.6733 89.082 23.8667 89.1787 23.9849C89.279 24.103 89.4329 24.1621 89.6406 24.1621C89.7409 24.1621 89.8358 24.1514 89.9253 24.1299C90.0184 24.1048 90.1007 24.0744 90.1724 24.0386L90.4409 24.9248ZM93.8623 25.1289C93.0029 25.1289 92.3208 24.8729 91.8159 24.3608C91.3146 23.8452 91.064 23.1559 91.064 22.293C91.0675 21.3799 91.3289 20.6655 91.8481 20.1499C92.3674 19.6307 93.0745 19.3711 93.9697 19.3711C94.8327 19.3675 95.5059 19.6217 95.9893 20.1338C96.4762 20.6423 96.7197 21.3315 96.7197 22.2017C96.7197 23.0968 96.4619 23.8094 95.9463 24.3394C95.4342 24.8657 94.7396 25.1289 93.8623 25.1289ZM93.9214 24.1353C94.4191 24.1353 94.7969 23.9723 95.0547 23.6465C95.3161 23.3206 95.4468 22.8498 95.4468 22.2339C95.4468 21.6252 95.3161 21.1615 95.0547 20.8428C94.7933 20.5241 94.4137 20.3647 93.916 20.3647C93.4255 20.3647 93.0387 20.533 92.7559 20.8696C92.4766 21.2062 92.3369 21.6717 92.3369 22.2661C92.3369 22.8641 92.4766 23.326 92.7559 23.6519C93.0352 23.9741 93.4237 24.1353 93.9214 24.1353ZM101.054 20.5474C100.986 20.5295 100.92 20.5169 100.855 20.5098C100.795 20.499 100.723 20.4937 100.641 20.4937C100.193 20.4937 99.8493 20.6584 99.6094 20.9878C99.3695 21.3172 99.2495 21.7469 99.2495 22.2769V25H97.998V19.5H99.2495V20.5581H99.271C99.3999 20.1785 99.5897 19.8921 99.8403 19.6987C100.091 19.5018 100.386 19.4033 100.727 19.4033C100.823 19.4033 100.909 19.4087 100.984 19.4194C101.063 19.4302 101.138 19.4463 101.21 19.4678L101.054 20.5474ZM106.721 22.5776H102.966C102.988 23.0968 103.138 23.4925 103.417 23.7646C103.697 24.0332 104.087 24.1675 104.588 24.1675C104.792 24.1675 105.025 24.1263 105.287 24.0439C105.548 23.9616 105.806 23.8291 106.06 23.6465L106.624 24.4253C106.284 24.6724 105.938 24.8514 105.587 24.9624C105.236 25.0734 104.85 25.1289 104.427 25.1289C103.571 25.1289 102.905 24.8836 102.429 24.3931C101.953 23.8989 101.713 23.2096 101.709 22.3252C101.709 21.4443 101.955 20.7318 102.445 20.1875C102.939 19.6432 103.571 19.3711 104.341 19.3711C105.079 19.3711 105.659 19.6038 106.082 20.0693C106.508 20.5312 106.721 21.1865 106.721 22.0352V22.5776ZM105.512 21.7129C105.512 21.2402 105.408 20.8857 105.201 20.6494C104.997 20.4095 104.707 20.2896 104.331 20.2896C103.976 20.2896 103.674 20.4185 103.423 20.6763C103.176 20.9305 103.024 21.276 102.966 21.7129H105.512Z" fill="white"/>
<defs>
<filter id="filter0_dd_976_1837" x="11.0938" y="7.25" width="11.8125" height="5.625" filterUnits="userSpaceOnUse" color-interpolation-filters="sRGB">
<feFlood flood-opacity="0" result="BackgroundImageFix"/>
<feColorMatrix in="SourceAlpha" type="matrix" values="0 0 0 0 0 0 0 0 0 0 0 0 0 0 0 0 0 0 127 0" result="hardAlpha"/>
<feOffset dy="0.1875"/>
<feGaussianBlur stdDeviation="0.1875"/>
<feColorMatrix type="matrix" values="0 0 0 0 0 0 0 0 0 0 0 0 0 0 0 0 0 0 0.1 0"/>
<feBlend mode="normal" in2="BackgroundImageFix" result="effect1_dropShadow_976_1837"/>
<feColorMatrix in="SourceAlpha" type="matrix" values="0 0 0 0 0 0 0 0 0 0 0 0 0 0 0 0 0 0 127 0" result="hardAlpha"/>
<feOffset dy="0.375"/>
<feGaussianBlur stdDeviation="0.5625"/>
<feColorMatrix type="matrix" values="0 0 0 0 0 0 0 0 0 0 0 0 0 0 0 0 0 0 0.2 0"/>
<feBlend mode="normal" in2="effect1_dropShadow_976_1837" result="effect2_dropShadow_976_1837"/>
<feBlend mode="normal" in="SourceGraphic" in2="effect2_dropShadow_976_1837" result="shape"/>
</filter>
<filter id="filter1_dd_976_1837" x="12.2188" y="13.4375" width="9.5625" height="9.5625" filterUnits="userSpaceOnUse" color-interpolation-filters="sRGB">
<feFlood flood-opacity="0" result="BackgroundImageFix"/>
<feColorMatrix in="SourceAlpha" type="matrix" values="0 0 0 0 0 0 0 0 0 0 0 0 0 0 0 0 0 0 127 0" result="hardAlpha"/>
<feOffset dy="0.1875"/>
<feGaussianBlur stdDeviation="0.1875"/>
<feColorMatrix type="matrix" values="0 0 0 0 1 0 0 0 0 1 0 0 0 0 1 0 0 0 0.6 0"/>
<feBlend mode="normal" in2="BackgroundImageFix" result="effect1_dropShadow_976_1837"/>
<feColorMatrix in="SourceAlpha" type="matrix" values="0 0 0 0 0 0 0 0 0 0 0 0 0 0 0 0 0 0 127 0" result="hardAlpha"/>
<feOffset dy="0.375"/>
<feGaussianBlur stdDeviation="0.5625"/>
<feColorMatrix type="matrix" values="0 0 0 0 1 0 0 0 0 1 0 0 0 0 1 0 0 0 0.6 0"/>
<feBlend mode="normal" in2="effect1_dropShadow_976_1837" result="effect2_dropShadow_976_1837"/>
<feBlend mode="normal" in="SourceGraphic" in2="effect2_dropShadow_976_1837" result="shape"/>
</filter>
<filter id="filter2_dd_976_1837" x="10.5939" y="6.6875" width="12.8124" height="5.06274" filterUnits="userSpaceOnUse" color-interpolation-filters="sRGB">
<feFlood flood-opacity="0" result="BackgroundImageFix"/>
<feColorMatrix in="SourceAlpha" type="matrix" values="0 0 0 0 0 0 0 0 0 0 0 0 0 0 0 0 0 0 127 0" result="hardAlpha"/>
<feOffset dy="-0.75"/>
<feGaussianBlur stdDeviation="0.1875"/>
<feColorMatrix type="matrix" values="0 0 0 0 0 0 0 0 0 0 0 0 0 0 0 0 0 0 0.1 0"/>
<feBlend mode="normal" in2="BackgroundImageFix" result="effect1_dropShadow_976_1837"/>
<feColorMatrix in="SourceAlpha" type="matrix" values="0 0 0 0 0 0 0 0 0 0 0 0 0 0 0 0 0 0 127 0" result="hardAlpha"/>
<feOffset dy="-0.75"/>
<feGaussianBlur stdDeviation="0.5625"/>
<feColorMatrix type="matrix" values="0 0 0 0 0 0 0 0 0 0 0 0 0 0 0 0 0 0 0.2 0"/>
<feBlend mode="normal" in2="effect1_dropShadow_976_1837" result="effect2_dropShadow_976_1837"/>
<feBlend mode="normal" in="SourceGraphic" in2="effect2_dropShadow_976_1837" result="shape"/>
</filter>
<linearGradient id="paint0_linear_976_1837" x1="12.2443" y1="8.00639" x2="15.9039" y2="24.8132" gradientUnits="userSpaceOnUse">
<stop offset="0.270833" stop-color="white"/>
<stop offset="1" stop-color="#DFDFDF"/>
</linearGradient>
<linearGradient id="paint1_linear_976_1837" x1="17" y1="10.25" x2="20.3514" y2="25.9624" gradientUnits="userSpaceOnUse">
<stop stop-color="#0078D4"/>
<stop offset="1" stop-color="#114A8B"/>
</linearGradient>
<linearGradient id="paint2_linear_976_1837" x1="17" y1="8.5625" x2="17.1583" y2="10.9858" gradientUnits="userSpaceOnUse">
<stop stop-color="#28AFEA"/>
<stop offset="1" stop-color="#0078D4"/>
</linearGradient>
<linearGradient id="paint3_linear_976_1837" x1="17" y1="8.5625" x2="17.1583" y2="10.9858" gradientUnits="userSpaceOnUse">
<stop stop-color="#30DAFF"/>
<stop offset="1" stop-color="#0094D4"/>
</linearGradient>
<linearGradient id="paint4_linear_976_1837" x1="16.5938" y1="8" x2="16.5937" y2="9.125" gradientUnits="userSpaceOnUse">
<stop stop-color="#22BCFF"/>
<stop offset="1" stop-color="#0088F0"/>
</linearGradient>
<linearGradient id="paint5_linear_976_1837" x1="16.5938" y1="8" x2="16.5937" y2="9.125" gradientUnits="userSpaceOnUse">
<stop stop-color="#28AFEA"/>
<stop offset="1" stop-color="#3CCBF4"/>
</linearGradient>
<clipPath id="clip0_976_1837">
<rect width="18" height="18" fill="white" transform="translate(8 8)"/>
</clipPath>
<clipPath id="clip1_976_1837">
<rect width="18" height="18" fill="white" transform="translate(8 8)"/>
</clipPath>
</defs>
</svg>
