<svg width="90" height="32" viewBox="0 0 90 32" fill="none" xmlns="http://www.w3.org/2000/svg">
<rect x="0.5" y="0.5" width="89" height="31" rx="3.5" fill="white" fill-opacity="0.7"/>
<path d="M15.5559 7H7V15.5608H15.5559V7Z" fill="#F25022"/>
<path d="M25.0001 7H16.4442V15.5608H25.0001V7Z" fill="#7FBA00"/>
<path d="M15.5559 16.4395H7V25.0002H15.5559V16.4395Z" fill="#00A4EF"/>
<path d="M25.0002 16.4395H16.4443V25.0002H25.0002V16.4395Z" fill="#FFB900"/>
<path d="M30.4766 13H29.7656V7.39844H30.4766V13ZM35.25 11.1094H32.3672C32.3802 11.5625 32.5013 11.9115 32.7305 12.1562C32.9596 12.3984 33.2812 12.5195 33.6953 12.5195C33.875 12.5195 34.0586 12.4922 34.2461 12.4375C34.4362 12.3802 34.6263 12.2878 34.8164 12.1602L35.1328 12.6445C34.8958 12.8008 34.6576 12.9154 34.418 12.9883C34.1784 13.0612 33.9154 13.0977 33.6289 13.0977C33.0091 13.0977 32.526 12.9141 32.1797 12.5469C31.8333 12.1771 31.6589 11.6615 31.6562 11C31.6536 10.3411 31.8281 9.8112 32.1797 9.41016C32.5339 9.00651 32.9922 8.80469 33.5547 8.80469C34.0911 8.80469 34.5078 8.97917 34.8047 9.32812C35.1016 9.67448 35.25 10.1576 35.25 10.7773V11.1094ZM34.5508 10.5625C34.5482 10.1849 34.457 9.89193 34.2773 9.68359C34.1003 9.47526 33.8555 9.37109 33.543 9.37109C33.2357 9.37109 32.9753 9.47917 32.7617 9.69531C32.5508 9.90885 32.4219 10.1979 32.375 10.5625H34.5508ZM39.8164 12.7031C39.8164 13.4245 39.6302 13.9674 39.2578 14.332C38.888 14.6992 38.3724 14.8828 37.7109 14.8828C37.4271 14.8828 37.1641 14.8542 36.9219 14.7969C36.6797 14.7422 36.4349 14.6562 36.1875 14.5391L36.4375 14.0117C36.651 14.1133 36.8581 14.1862 37.0586 14.2305C37.2591 14.2773 37.4753 14.3008 37.707 14.3008C38.1497 14.3008 38.4961 14.1745 38.7461 13.9219C38.9961 13.6693 39.1211 13.293 39.1211 12.793V12.3164H39.1055C38.9518 12.5768 38.7578 12.7721 38.5234 12.9023C38.2891 13.0326 38.0169 13.0977 37.707 13.0977C37.1966 13.0977 36.7852 12.9154 36.4727 12.5508C36.1628 12.1836 36.0078 11.6927 36.0078 11.0781C36.0078 10.4036 36.1784 9.85677 36.5195 9.4375C36.8633 9.01562 37.3177 8.80469 37.8828 8.80469C38.1589 8.80469 38.3984 8.85938 38.6016 8.96875C38.8047 9.07812 38.9727 9.24349 39.1055 9.46484H39.1211V8.90234H39.8164V12.7031ZM39.1211 11.1445V10.5547C39.1211 10.2318 39.013 9.95573 38.7969 9.72656C38.5833 9.4974 38.3151 9.38281 37.9922 9.38281C37.5964 9.38281 37.2852 9.52083 37.0586 9.79688C36.832 10.0729 36.7188 10.4857 36.7188 11.0352C36.7188 11.5091 36.8242 11.875 37.0352 12.1328C37.2461 12.3906 37.5352 12.5195 37.9023 12.5195C38.2643 12.5195 38.5573 12.3906 38.7812 12.1328C39.0078 11.875 39.1211 11.5456 39.1211 11.1445ZM44.5234 13H43.8281V12.3477H43.8125C43.6745 12.5977 43.4987 12.7852 43.2852 12.9102C43.0742 13.0352 42.8268 13.0977 42.543 13.0977C42.056 13.0977 41.6901 12.9518 41.4453 12.6602C41.2031 12.3685 41.082 11.9323 41.082 11.3516V8.90234H41.7773V11.2461C41.7773 11.6706 41.8581 11.9896 42.0195 12.2031C42.181 12.4141 42.4245 12.5195 42.75 12.5195C43.0651 12.5195 43.3229 12.4036 43.5234 12.1719C43.7266 11.9401 43.8281 11.6354 43.8281 11.2578V8.90234H44.5234V13ZM43.8359 8.17188H41.8555V7.68359H43.8359V8.17188ZM45.5078 12.6953L45.832 12.1719C46.0039 12.2865 46.1745 12.3737 46.3438 12.4336C46.513 12.4935 46.6992 12.5234 46.9023 12.5234C47.1758 12.5234 47.3841 12.474 47.5273 12.375C47.6706 12.2734 47.7422 12.1224 47.7422 11.9219C47.7422 11.7552 47.6784 11.6172 47.5508 11.5078C47.4258 11.3958 47.2279 11.3047 46.957 11.2344C46.4492 11.1068 46.1003 10.944 45.9102 10.7461C45.7201 10.5456 45.625 10.2969 45.625 10C45.625 9.65625 45.7552 9.37109 46.0156 9.14453C46.2786 8.91797 46.6367 8.80469 47.0898 8.80469C47.3086 8.80469 47.5156 8.83333 47.7109 8.89062C47.9089 8.94531 48.1081 9.03776 48.3086 9.16797L48.0078 9.68359C47.8255 9.56901 47.6615 9.48958 47.5156 9.44531C47.3698 9.39844 47.2214 9.375 47.0703 9.375C46.8125 9.375 46.6146 9.42318 46.4766 9.51953C46.3385 9.61589 46.2695 9.75521 46.2695 9.9375C46.2695 10.1146 46.3372 10.25 46.4727 10.3438C46.6081 10.4349 46.8333 10.5208 47.1484 10.6016C47.5677 10.7135 47.8802 10.8698 48.0859 11.0703C48.2943 11.2682 48.3984 11.5326 48.3984 11.8633C48.3984 12.2409 48.2617 12.5417 47.9883 12.7656C47.7174 12.987 47.3477 13.0977 46.8789 13.0977C46.6237 13.0977 46.3802 13.0638 46.1484 12.9961C45.9193 12.9258 45.7057 12.8255 45.5078 12.6953ZM51.4258 12.9492C51.3138 12.9961 51.2018 13.0299 51.0898 13.0508C50.9805 13.0742 50.8568 13.0859 50.7188 13.0859C50.3828 13.0859 50.1198 12.9896 49.9297 12.7969C49.7422 12.6042 49.6484 12.319 49.6484 11.9414V9.48047H48.9492V8.90234H49.6484V7.96484L50.3477 7.74219V8.90234H51.3711V9.48047H50.3477V11.8672C50.3477 12.099 50.3893 12.2656 50.4727 12.3672C50.556 12.4688 50.681 12.5195 50.8477 12.5195C50.9258 12.5195 51.0013 12.5104 51.0742 12.4922C51.1471 12.474 51.2096 12.4518 51.2617 12.4258L51.4258 12.9492ZM52.6562 8.03516C52.5182 8.03516 52.4036 7.98958 52.3125 7.89844C52.2214 7.80729 52.1758 7.69661 52.1758 7.56641C52.1758 7.43099 52.2214 7.31901 52.3125 7.23047C52.4036 7.13932 52.5182 7.09375 52.6562 7.09375C52.7943 7.09375 52.9089 7.13932 53 7.23047C53.0938 7.31901 53.1406 7.43099 53.1406 7.56641C53.1406 7.69661 53.0938 7.80729 53 7.89844C52.9089 7.98958 52.7943 8.03516 52.6562 8.03516ZM52.9961 13H52.3008V8.90234H52.9961V13ZM57.7188 11.1094H54.8359C54.849 11.5625 54.9701 11.9115 55.1992 12.1562C55.4284 12.3984 55.75 12.5195 56.1641 12.5195C56.3438 12.5195 56.5273 12.4922 56.7148 12.4375C56.9049 12.3802 57.0951 12.2878 57.2852 12.1602L57.6016 12.6445C57.3646 12.8008 57.1263 12.9154 56.8867 12.9883C56.6471 13.0612 56.3841 13.0977 56.0977 13.0977C55.4779 13.0977 54.9948 12.9141 54.6484 12.5469C54.3021 12.1771 54.1276 11.6615 54.125 11C54.1224 10.3411 54.2969 9.8112 54.6484 9.41016C55.0026 9.00651 55.4609 8.80469 56.0234 8.80469C56.5599 8.80469 56.9766 8.97917 57.2734 9.32812C57.5703 9.67448 57.7188 10.1576 57.7188 10.7773V11.1094ZM57.0195 10.5625C57.0169 10.1849 56.9258 9.89193 56.7461 9.68359C56.569 9.47526 56.3242 9.37109 56.0117 9.37109C55.7044 9.37109 55.444 9.47917 55.2305 9.69531C55.0195 9.90885 54.8906 10.1979 54.8438 10.5625H57.0195ZM60.7539 12.9492C60.6419 12.9961 60.5299 13.0299 60.418 13.0508C60.3086 13.0742 60.1849 13.0859 60.0469 13.0859C59.7109 13.0859 59.4479 12.9896 59.2578 12.7969C59.0703 12.6042 58.9766 12.319 58.9766 11.9414V9.48047H58.2773V8.90234H58.9766V7.96484L59.6758 7.74219V8.90234H60.6992V9.48047H59.6758V11.8672C59.6758 12.099 59.7174 12.2656 59.8008 12.3672C59.8841 12.4688 60.0091 12.5195 60.1758 12.5195C60.2539 12.5195 60.3294 12.5104 60.4023 12.4922C60.4753 12.474 60.5378 12.4518 60.5898 12.4258L60.7539 12.9492ZM65.832 12.9492C65.7201 12.9961 65.6081 13.0299 65.4961 13.0508C65.3867 13.0742 65.263 13.0859 65.125 13.0859C64.7891 13.0859 64.526 12.9896 64.3359 12.7969C64.1484 12.6042 64.0547 12.319 64.0547 11.9414V9.48047H63.3555V8.90234H64.0547V7.96484L64.7539 7.74219V8.90234H65.7773V9.48047H64.7539V11.8672C64.7539 12.099 64.7956 12.2656 64.8789 12.3672C64.9622 12.4688 65.0872 12.5195 65.2539 12.5195C65.332 12.5195 65.4076 12.5104 65.4805 12.4922C65.5534 12.474 65.6159 12.4518 65.668 12.4258L65.832 12.9492ZM68.4453 13.0977C67.8333 13.0977 67.3451 12.9062 66.9805 12.5234C66.6185 12.138 66.4375 11.6276 66.4375 10.9922C66.4375 10.3073 66.625 9.77214 67 9.38672C67.375 9.0013 67.8867 8.80729 68.5352 8.80469C69.1497 8.80208 69.6302 8.99089 69.9766 9.37109C70.3255 9.7487 70.5 10.2682 70.5 10.9297C70.5 11.5885 70.3138 12.1146 69.9414 12.5078C69.569 12.901 69.0703 13.0977 68.4453 13.0977ZM68.4922 12.5195C68.9089 12.5195 69.2279 12.3841 69.4492 12.1133C69.6732 11.8398 69.7852 11.4531 69.7852 10.9531C69.7852 10.4479 69.6732 10.0599 69.4492 9.78906C69.2253 9.51823 68.9062 9.38281 68.4922 9.38281C68.0781 9.38281 67.75 9.52474 67.5078 9.80859C67.2682 10.0898 67.1484 10.4779 67.1484 10.9727C67.1484 11.4544 67.2695 11.8333 67.5117 12.1094C67.7539 12.3828 68.0807 12.5195 68.4922 12.5195ZM77.2148 13H76.5195V10.6641C76.5195 10.237 76.4414 9.91667 76.2852 9.70312C76.1289 9.48958 75.8958 9.38281 75.5859 9.38281C75.263 9.38281 74.9961 9.50391 74.7852 9.74609C74.5768 9.98568 74.4727 10.2904 74.4727 10.6602V13H73.7773V8.90234H74.4727V9.58203H74.4883C74.6419 9.32161 74.8307 9.1276 75.0547 9C75.2786 8.86979 75.5378 8.80469 75.832 8.80469C76.2799 8.80469 76.6224 8.94922 76.8594 9.23828C77.0964 9.52734 77.2148 9.94531 77.2148 10.4922V13ZM80.2188 13.0977C79.6068 13.0977 79.1185 12.9062 78.7539 12.5234C78.3919 12.138 78.2109 11.6276 78.2109 10.9922C78.2109 10.3073 78.3984 9.77214 78.7734 9.38672C79.1484 9.0013 79.6602 8.80729 80.3086 8.80469C80.9232 8.80208 81.4036 8.99089 81.75 9.37109C82.099 9.7487 82.2734 10.2682 82.2734 10.9297C82.2734 11.5885 82.0872 12.1146 81.7148 12.5078C81.3424 12.901 80.8438 13.0977 80.2188 13.0977ZM80.2656 12.5195C80.6823 12.5195 81.0013 12.3841 81.2227 12.1133C81.4466 11.8398 81.5586 11.4531 81.5586 10.9531C81.5586 10.4479 81.4466 10.0599 81.2227 9.78906C80.9987 9.51823 80.6797 9.38281 80.2656 9.38281C79.8516 9.38281 79.5234 9.52474 79.2812 9.80859C79.0417 10.0898 78.9219 10.4779 78.9219 10.9727C78.9219 11.4544 79.043 11.8333 79.2852 12.1094C79.5273 12.3828 79.8542 12.5195 80.2656 12.5195Z" fill="black" fill-opacity="0.8956"/>
<path d="M41.1489 16.6123C41.1489 16.3559 41.2412 16.1507 41.4259 15.9764C41.6105 15.802 41.8258 15.72 42.0823 15.72C42.3489 15.72 42.5746 15.8123 42.7489 15.9866C42.9233 16.161 43.0156 16.3764 43.0156 16.6123C43.0156 16.8584 42.9233 17.0738 42.7387 17.2379C42.5541 17.4123 42.3387 17.4943 42.072 17.4943C41.8053 17.4943 41.59 17.4123 41.4053 17.2379C41.2412 17.0636 41.1489 16.8584 41.1489 16.6123ZM42.8412 25.002H41.313V18.4892H42.8412V25.002Z" fill="black" fill-opacity="0.8956"/>
<path d="M47.4975 23.8887C47.7231 23.8887 47.9795 23.8374 48.2565 23.7348C48.5334 23.6323 48.7795 23.4887 49.0154 23.3143V24.74C48.7693 24.8836 48.4924 24.9861 48.1847 25.0579C47.877 25.1297 47.5282 25.1707 47.159 25.1707C46.2052 25.1707 45.4257 24.863 44.8205 24.2579C44.2154 23.6528 43.918 22.8733 43.918 21.94C43.918 20.8938 44.2257 20.0323 44.8411 19.3553C45.4564 18.6784 46.318 18.34 47.4462 18.34C47.7334 18.34 48.0206 18.381 48.318 18.4528C48.6154 18.5246 48.8411 18.6169 49.0154 18.7092V20.1759C48.7795 20.0015 48.5334 19.8682 48.2872 19.7759C48.0411 19.6836 47.7847 19.6323 47.5282 19.6323C46.9231 19.6323 46.4411 19.8271 46.0616 20.2169C45.6923 20.6066 45.5077 21.14 45.5077 21.8066C45.5077 22.463 45.6821 22.9759 46.0411 23.3451C46.4 23.7143 46.8821 23.8887 47.4975 23.8887Z" fill="black" fill-opacity="0.8956"/>
<path d="M53.3738 18.39C53.4969 18.39 53.6097 18.4003 53.702 18.4105C53.7943 18.431 53.8866 18.4516 53.9482 18.4721V20.0208C53.8661 19.9592 53.7533 19.908 53.5995 19.8567C53.4456 19.8054 53.261 19.7746 53.0354 19.7746C52.6559 19.7746 52.3379 19.9285 52.0815 20.2464C51.8251 20.5644 51.6918 21.0464 51.6918 21.7131V25.0054H50.1636V18.4926H51.6918V19.5182H51.7123C51.8559 19.1592 52.061 18.8823 52.3482 18.6874C52.6354 18.4926 52.9738 18.39 53.3738 18.39Z" fill="black" fill-opacity="0.8956"/>
<path d="M54.0308 21.8477C54.0308 20.7707 54.3385 19.9195 54.9436 19.2836C55.5487 18.6579 56.4 18.34 57.4769 18.34C58.4923 18.34 59.2923 18.6477 59.8667 19.2528C60.441 19.8579 60.7282 20.6784 60.7282 21.7041C60.7282 22.7605 60.4205 23.6015 59.8154 24.2271C59.2102 24.8528 58.3795 25.1605 57.3333 25.1605C56.3282 25.1605 55.5179 24.863 54.9333 24.2682C54.3282 23.6836 54.0308 22.8733 54.0308 21.8477ZM55.6308 21.7964C55.6308 22.4733 55.7846 22.9964 56.0923 23.3553C56.4 23.7143 56.841 23.8887 57.4154 23.8887C57.9692 23.8887 58.4 23.7143 58.6872 23.3553C58.9743 22.9964 59.1282 22.463 59.1282 21.7554C59.1282 21.0579 58.9743 20.5246 58.6769 20.1656C58.3795 19.8066 57.9487 19.6323 57.4051 19.6323C56.841 19.6323 56.4102 19.8169 56.0923 20.1964C55.7846 20.5759 55.6308 21.0989 55.6308 21.7964Z" fill="black" fill-opacity="0.8956"/>
<path d="M63.0053 20.2069C63.0053 20.4223 63.0771 20.5966 63.2104 20.7197C63.354 20.8428 63.6617 20.9966 64.1335 21.1915C64.7489 21.4377 65.1796 21.7146 65.4258 22.0223C65.6719 22.33 65.795 22.6992 65.795 23.13C65.795 23.7454 65.5591 24.2377 65.0873 24.6069C64.6155 24.9761 63.9796 25.1607 63.1796 25.1607C62.913 25.1607 62.6155 25.13 62.2873 25.0582C61.9591 24.9966 61.6822 24.9043 61.4565 24.812V23.3043C61.7335 23.4992 62.0309 23.653 62.3591 23.7659C62.6771 23.8787 62.9745 23.9402 63.2309 23.9402C63.5796 23.9402 63.836 23.8889 64.0001 23.7966C64.1642 23.7043 64.2463 23.5402 64.2463 23.3043C64.2463 23.0889 64.1642 22.9146 63.9899 22.771C63.8155 22.6274 63.4976 22.453 63.0155 22.2684C62.4514 22.0325 62.0514 21.7659 61.8155 21.4684C61.5796 21.171 61.4565 20.7915 61.4565 20.3402C61.4565 19.7556 61.6924 19.2735 62.154 18.8941C62.6155 18.5146 63.2206 18.33 63.9694 18.33C64.195 18.33 64.4514 18.3505 64.7386 18.4018C65.0258 18.453 65.2617 18.5146 65.4463 18.5966V20.053C65.2412 19.9197 65.0053 19.8069 64.7386 19.7043C64.4719 19.612 64.195 19.5607 63.9386 19.5607C63.6514 19.5607 63.4155 19.6223 63.2617 19.7351C63.0873 19.8479 63.0053 20.012 63.0053 20.2069Z" fill="black" fill-opacity="0.8956"/>
<path d="M66.4717 21.8477C66.4717 20.7707 66.7794 19.9195 67.3845 19.2836C67.9896 18.6579 68.8409 18.34 69.9178 18.34C70.9332 18.34 71.7332 18.6477 72.3076 19.2528C72.8819 19.8579 73.1691 20.6784 73.1691 21.7041C73.1691 22.7605 72.8614 23.6015 72.2563 24.2271C71.6512 24.8528 70.8204 25.1605 69.7742 25.1605C68.7691 25.1605 67.9589 24.863 67.3742 24.2682C66.7691 23.6836 66.4717 22.8733 66.4717 21.8477ZM68.0614 21.7964C68.0614 22.4733 68.2153 22.9964 68.523 23.3554C68.8307 23.7143 69.2717 23.8887 69.846 23.8887C70.3999 23.8887 70.8307 23.7143 71.1178 23.3554C71.405 22.9964 71.5589 22.463 71.5589 21.7554C71.5589 21.0579 71.405 20.5246 71.1076 20.1656C70.8101 19.8066 70.3794 19.6323 69.8358 19.6323C69.2717 19.6323 68.8409 19.8169 68.523 20.1964C68.2153 20.5759 68.0614 21.0989 68.0614 21.7964Z" fill="black" fill-opacity="0.8956"/>
<path d="M78.2258 19.7523V23.0959C78.2258 23.7933 78.3899 24.3062 78.7079 24.6549C79.0258 25.0036 79.5181 25.1677 80.1643 25.1677C80.3797 25.1677 80.6053 25.1472 80.8309 25.0959C81.0566 25.0446 81.2207 25.0036 81.313 24.9421V23.6703C81.2207 23.7318 81.1079 23.7831 80.9848 23.8241C80.8617 23.8651 80.7489 23.8857 80.6668 23.8857C80.3591 23.8857 80.1232 23.8036 79.9797 23.6395C79.8361 23.4754 79.7643 23.1882 79.7643 22.7882V19.7421H81.3232V18.4908H79.7745V16.5626L78.2361 17.0344V18.501H75.9489V17.7113C75.9489 17.3215 76.0309 17.0241 76.2053 16.819C76.3796 16.6139 76.6258 16.5215 76.9438 16.5215C77.1079 16.5215 77.2514 16.5421 77.3848 16.5831C77.5079 16.6241 77.6002 16.6651 77.6514 16.6959V15.3728C77.5386 15.3318 77.4155 15.3113 77.272 15.2908C77.1284 15.2703 76.9643 15.26 76.7797 15.26C76.0822 15.26 75.5079 15.4754 75.0668 15.9164C74.6258 16.3574 74.4002 16.9113 74.4002 17.5985V18.501H73.313V19.7523H74.4002V25.0139H75.9489V19.7523H78.2258V19.7523Z" fill="black" fill-opacity="0.8956"/>
<path d="M39.8359 15.92V25.0072H38.2564V17.8893H38.2359L35.4154 25.0072H34.3692L31.4769 17.8893H31.4564V25.0072H30V15.92H32.2564L34.8718 22.6585H34.9128L37.6718 15.92H39.8359Z" fill="black" fill-opacity="0.8956"/>
<rect x="0.5" y="0.5" width="89" height="31" rx="3.5" stroke="url(#paint0_linear_1602_27688)"/>
<defs>
<linearGradient id="paint0_linear_1602_27688" x1="45" y1="1" x2="45" y2="31" gradientUnits="userSpaceOnUse">
<stop offset="0.905762" stop-opacity="0.0578"/>
<stop offset="1" stop-opacity="0.1622"/>
</linearGradient>
</defs>
</svg>
