<svg width="116" height="34" viewBox="0 0 116 34" fill="none" xmlns="http://www.w3.org/2000/svg">
<rect x="1" y="1" width="114" height="32" rx="4" fill="#202020"/>
<rect x="0.5" y="0.5" width="115" height="33" rx="4.5" stroke="black" stroke-opacity="0.1"/>
<g clip-path="url(#clip0_976_1843)">
<g clip-path="url(#clip1_976_1843)">
<path d="M8.28125 11C8.28125 10.5858 8.61704 10.25 9.03125 10.25H24.9687C25.383 10.25 25.7188 10.5858 25.7188 11V22.3438C25.7188 24.0524 24.3336 25.4375 22.625 25.4375H11.375C9.66637 25.4375 8.28125 24.0524 8.28125 22.3438V11Z" fill="url(#paint0_linear_976_1843)"/>
<mask id="mask0_976_1843" style="mask-type:alpha" maskUnits="userSpaceOnUse" x="8" y="10" width="18" height="16">
<path d="M8.28125 11C8.28125 10.5858 8.61704 10.25 9.03125 10.25H24.9687C25.383 10.25 25.7188 10.5858 25.7188 11V22.3438C25.7188 24.0524 24.3336 25.4375 22.625 25.4375H11.375C9.66637 25.4375 8.28125 24.0524 8.28125 22.3438V11Z" fill="url(#paint1_linear_976_1843)"/>
</mask>
<g mask="url(#mask0_976_1843)">
<g filter="url(#filter0_dd_976_1843)">
<path d="M12.7812 10.8125V8.5625H21.2187V10.8125" stroke="url(#paint2_linear_976_1843)" stroke-width="1.125" stroke-linecap="round"/>
</g>
</g>
<g filter="url(#filter1_dd_976_1843)">
<path d="M16.719 14.1875H13.344V17.5625H16.719V14.1875Z" fill="#F25022"/>
<path d="M20.6562 14.1875H17.2812V17.5625H20.6562V14.1875Z" fill="#7FBA00"/>
<path d="M20.6562 18.125H17.2812V21.5H20.6562V18.125Z" fill="#FFB900"/>
<path d="M16.7188 18.125H13.3438V21.5H16.7188V18.125Z" fill="#00A4EF"/>
</g>
<path d="M12.7812 10.8125V9.125C12.7812 8.81434 13.0331 8.5625 13.3438 8.5625H20.6563C20.9669 8.5625 21.2188 8.81434 21.2188 9.125V10.8125" stroke="url(#paint3_linear_976_1843)" stroke-width="1.125" stroke-linecap="round"/>
<rect x="13.3438" y="8" width="7.3125" height="1.125" fill="url(#paint4_linear_976_1843)"/>
<mask id="mask1_976_1843" style="mask-type:alpha" maskUnits="userSpaceOnUse" x="13" y="8" width="8" height="2">
<rect x="13.3438" y="8" width="7.3125" height="1.125" fill="url(#paint5_linear_976_1843)"/>
</mask>
<g mask="url(#mask1_976_1843)">
<g filter="url(#filter2_dd_976_1843)">
<rect x="11.7189" y="8.56274" width="1.625" height="2.8125" fill="#C4C4C4"/>
</g>
</g>
</g>
</g>
<path d="M31.2271 13H30.6528V8.09863H34.3374V13H33.7632V8.63184H31.2271V13ZM36.1318 12.4941H36.1182V14.6099H35.5576V9.5H36.1182V10.1152H36.1318C36.2708 9.88281 36.4406 9.7085 36.6411 9.59229C36.8439 9.47607 37.0775 9.41797 37.3418 9.41797C37.793 9.41797 38.145 9.5752 38.3979 9.88965C38.6509 10.2018 38.7773 10.6211 38.7773 11.1475C38.7773 11.7331 38.6349 12.2025 38.3501 12.5557C38.0653 12.9066 37.6756 13.082 37.1812 13.082C36.9556 13.082 36.755 13.033 36.5796 12.9351C36.4041 12.8371 36.2549 12.6901 36.1318 12.4941ZM36.1182 11.0825V11.5713C36.1182 11.8607 36.2116 12.1068 36.3984 12.3096C36.5876 12.5101 36.8268 12.6104 37.1162 12.6104C37.4557 12.6104 37.7212 12.4805 37.9126 12.2207C38.1063 11.9609 38.2031 11.5998 38.2031 11.1372C38.2031 10.7476 38.1131 10.4422 37.9331 10.2212C37.7531 10.0002 37.5093 9.88965 37.2017 9.88965C36.8758 9.88965 36.6138 10.0036 36.4155 10.2314C36.2173 10.457 36.1182 10.7407 36.1182 11.0825ZM42.4858 11.3765H40.0112C40.0203 11.7707 40.124 12.0749 40.3223 12.2891C40.5228 12.501 40.8031 12.6069 41.1631 12.6069C41.3203 12.6069 41.4775 12.5841 41.6348 12.5386C41.7943 12.4907 41.9515 12.4155 42.1064 12.313L42.3662 12.7129C42.168 12.8405 41.9697 12.9339 41.7715 12.9932C41.5732 13.0524 41.3556 13.082 41.1187 13.082C40.59 13.082 40.1776 12.9248 39.8813 12.6104C39.5851 12.2959 39.4359 11.8573 39.4336 11.2944C39.4313 10.7316 39.5794 10.2782 39.8779 9.93408C40.1787 9.59001 40.5684 9.41797 41.0469 9.41797C41.5026 9.41797 41.8558 9.56722 42.1064 9.86572C42.3594 10.1619 42.4858 10.5732 42.4858 11.0996V11.3765ZM41.9116 10.9185C41.9093 10.5949 41.8307 10.3431 41.6758 10.1631C41.5208 9.98079 41.3078 9.88965 41.0366 9.88965C40.77 9.88965 40.5433 9.98307 40.3564 10.1699C40.1719 10.3545 40.0591 10.604 40.0181 10.9185H41.9116ZM42.9233 12.7368L43.1865 12.3062C43.3187 12.4041 43.4588 12.4793 43.6069 12.5317C43.755 12.5841 43.9191 12.6104 44.0991 12.6104C44.3771 12.6104 44.5913 12.5591 44.7417 12.4565C44.8944 12.354 44.9707 12.2082 44.9707 12.019C44.9707 11.8413 44.8921 11.7046 44.7349 11.6089C44.5799 11.5109 44.3589 11.4619 44.0718 11.4619H43.6172V10.939H43.9863C44.2666 10.939 44.4831 10.8934 44.6357 10.8022C44.7884 10.7088 44.8647 10.5778 44.8647 10.4092C44.8647 10.2451 44.7998 10.1175 44.6699 10.0264C44.54 9.93522 44.3543 9.88965 44.1128 9.88965C43.9465 9.88965 43.7926 9.91471 43.6514 9.96484C43.5124 10.015 43.3791 10.0856 43.2515 10.1768L42.9883 9.77002C43.1865 9.64242 43.3836 9.55127 43.5796 9.49658C43.7778 9.44189 43.9818 9.41455 44.1914 9.41455C44.5856 9.41455 44.8887 9.49658 45.1006 9.66064C45.3148 9.82243 45.4219 10.0537 45.4219 10.3545C45.4219 10.571 45.3615 10.7498 45.2407 10.8911C45.1222 11.0324 44.9536 11.1258 44.7349 11.1714V11.1885C44.9878 11.2272 45.1826 11.3206 45.3193 11.4688C45.4583 11.6169 45.5278 11.8071 45.5278 12.0396C45.5278 12.3745 45.4036 12.6331 45.1553 12.8154C44.9069 12.9954 44.5526 13.0854 44.0923 13.0854C43.8781 13.0854 43.6742 13.0581 43.4805 13.0034C43.2891 12.951 43.1034 12.8621 42.9233 12.7368ZM49.2739 11.3765H46.7993C46.8084 11.7707 46.9121 12.0749 47.1104 12.2891C47.3109 12.501 47.5911 12.6069 47.9512 12.6069C48.1084 12.6069 48.2656 12.5841 48.4229 12.5386C48.5824 12.4907 48.7396 12.4155 48.8945 12.313L49.1543 12.7129C48.9561 12.8405 48.7578 12.9339 48.5596 12.9932C48.3613 13.0524 48.1437 13.082 47.9067 13.082C47.3781 13.082 46.9657 12.9248 46.6694 12.6104C46.3732 12.2959 46.224 11.8573 46.2217 11.2944C46.2194 10.7316 46.3675 10.2782 46.666 9.93408C46.9668 9.59001 47.3564 9.41797 47.835 9.41797C48.2907 9.41797 48.6439 9.56722 48.8945 9.86572C49.1475 10.1619 49.2739 10.5732 49.2739 11.0996V11.3765ZM48.6997 10.9185C48.6974 10.5949 48.6188 10.3431 48.4639 10.1631C48.3089 9.98079 48.0959 9.88965 47.8247 9.88965C47.5581 9.88965 47.3314 9.98307 47.1445 10.1699C46.96 10.3545 46.8472 10.604 46.8062 10.9185H48.6997ZM50.125 13V9.5H50.8394L51.8374 11.8071C51.8625 11.8664 51.891 11.937 51.9229 12.019C51.957 12.1011 51.9855 12.1751 52.0083 12.2412H52.0151C52.0379 12.1751 52.0653 12.1011 52.0972 12.019C52.1291 11.937 52.1576 11.8664 52.1826 11.8071L53.1807 9.5H53.9053V13H53.396V10.1152H53.3892C53.3413 10.236 53.2923 10.359 53.2422 10.4844C53.1921 10.6074 53.1545 10.6986 53.1294 10.7578L52.1587 13H51.8545L50.8838 10.7578C50.8587 10.6986 50.8211 10.6074 50.771 10.4844C50.7209 10.359 50.6719 10.236 50.624 10.1152H50.6172V13H50.125ZM57.853 11.3765H55.3784C55.3875 11.7707 55.4912 12.0749 55.6895 12.2891C55.89 12.501 56.1702 12.6069 56.5303 12.6069C56.6875 12.6069 56.8447 12.5841 57.002 12.5386C57.1615 12.4907 57.3187 12.4155 57.4736 12.313L57.7334 12.7129C57.5352 12.8405 57.3369 12.9339 57.1387 12.9932C56.9404 13.0524 56.7228 13.082 56.4858 13.082C55.9572 13.082 55.5448 12.9248 55.2485 12.6104C54.9523 12.2959 54.8031 11.8573 54.8008 11.2944C54.7985 10.7316 54.9466 10.2782 55.2451 9.93408C55.5459 9.59001 55.9355 9.41797 56.4141 9.41797C56.8698 9.41797 57.223 9.56722 57.4736 9.86572C57.7266 10.1619 57.853 10.5732 57.853 11.0996V11.3765ZM57.2788 10.9185C57.2765 10.5949 57.1979 10.3431 57.043 10.1631C56.888 9.98079 56.675 9.88965 56.4038 9.88965C56.1372 9.88965 55.9105 9.98307 55.7236 10.1699C55.5391 10.3545 55.4263 10.604 55.3853 10.9185H57.2788ZM59.8525 13H59.292V9.97852H58.2222V9.5H60.9224V9.97852H59.8525V13ZM64.3882 11.3765H61.9136C61.9227 11.7707 62.0264 12.0749 62.2246 12.2891C62.4251 12.501 62.7054 12.6069 63.0654 12.6069C63.2227 12.6069 63.3799 12.5841 63.5371 12.5386C63.6966 12.4907 63.8538 12.4155 64.0088 12.313L64.2686 12.7129C64.0703 12.8405 63.8721 12.9339 63.6738 12.9932C63.4756 13.0524 63.258 13.082 63.021 13.082C62.4924 13.082 62.0799 12.9248 61.7837 12.6104C61.4875 12.2959 61.3382 11.8573 61.3359 11.2944C61.3337 10.7316 61.4818 10.2782 61.7803 9.93408C62.0811 9.59001 62.4707 9.41797 62.9492 9.41797C63.4049 9.41797 63.7581 9.56722 64.0088 9.86572C64.2617 10.1619 64.3882 10.5732 64.3882 11.0996V11.3765ZM63.814 10.9185C63.8117 10.5949 63.7331 10.3431 63.5781 10.1631C63.4232 9.98079 63.2101 9.88965 62.939 9.88965C62.6724 9.88965 62.4456 9.98307 62.2588 10.1699C62.0742 10.3545 61.9614 10.604 61.9204 10.9185H63.814ZM68.623 13.082C68.1058 13.082 67.6922 12.9191 67.3823 12.5933C67.0747 12.2651 66.9209 11.8311 66.9209 11.291C66.9209 10.7054 67.0804 10.2474 67.3994 9.91699C67.7184 9.58659 68.1536 9.42025 68.7051 9.41797C69.2269 9.41569 69.6336 9.57633 69.9253 9.8999C70.2192 10.2235 70.3662 10.6689 70.3662 11.2363C70.3662 11.7969 70.2078 12.2446 69.8911 12.5796C69.5767 12.9146 69.154 13.082 68.623 13.082ZM68.6641 12.6104C69.0264 12.6104 69.3044 12.493 69.498 12.2583C69.694 12.0213 69.792 11.6875 69.792 11.2568C69.792 10.8171 69.694 10.4798 69.498 10.2451C69.3021 10.0081 69.0241 9.88965 68.6641 9.88965C68.304 9.88965 68.0192 10.0127 67.8096 10.2588C67.5999 10.5049 67.4951 10.8421 67.4951 11.2705C67.4951 11.6852 67.6011 12.0122 67.813 12.2515C68.0249 12.4907 68.3086 12.6104 68.6641 12.6104ZM70.7559 13.9331V12.5249H71.0806C71.2196 12.2925 71.3267 11.9837 71.4019 11.5986C71.4771 11.2135 71.5146 10.7829 71.5146 10.3066V9.5H73.7944V12.5249H74.3105V13.9331H73.8286V13H71.2378V13.9331H70.7559ZM73.2339 12.5249V9.9751H72.0342V10.3408C72.0342 10.792 72.0023 11.2078 71.9385 11.5884C71.8747 11.9666 71.7824 12.2788 71.6616 12.5249H73.2339Z" fill="white" fill-opacity="0.786"/>
<path d="M39.2275 25H37.96V20.0854C37.96 19.8634 37.9653 19.6217 37.9761 19.3604C37.9904 19.0954 38.0083 18.8143 38.0298 18.5171H37.9976C37.9546 18.7212 37.9134 18.8966 37.874 19.0435C37.8382 19.1867 37.8024 19.3013 37.7666 19.3872L35.5054 25H34.6245L32.3525 19.4355C32.3239 19.3568 32.2881 19.2404 32.2451 19.0864C32.2057 18.9325 32.1628 18.7427 32.1162 18.5171H32.084C32.1055 18.7749 32.1198 19.0488 32.127 19.3389C32.1341 19.6253 32.1377 19.9279 32.1377 20.2466V25H30.9561V17.2979H32.7607L34.7642 22.3037C34.8429 22.4935 34.9074 22.6689 34.9575 22.8301C35.0112 22.9876 35.0524 23.1344 35.0811 23.2705H35.1133C35.1777 23.0664 35.2386 22.882 35.2959 22.7173C35.3532 22.5526 35.4069 22.4093 35.457 22.2876L37.4873 17.2979H39.2275V25ZM41.6177 18.4365C41.3885 18.4365 41.1987 18.3631 41.0483 18.2163C40.8979 18.0695 40.8228 17.8887 40.8228 17.6738C40.8228 17.4518 40.8979 17.2692 41.0483 17.126C41.1987 16.9827 41.3885 16.9111 41.6177 16.9111C41.8504 16.9111 42.042 16.9827 42.1924 17.126C42.3428 17.2692 42.418 17.4518 42.418 17.6738C42.418 17.8923 42.3428 18.0749 42.1924 18.2217C42.042 18.3649 41.8504 18.4365 41.6177 18.4365ZM42.2354 25H40.9839V19.5H42.2354V25ZM47.9824 24.6616C47.7103 24.8263 47.4399 24.9445 47.1714 25.0161C46.9028 25.0913 46.611 25.1289 46.2959 25.1289C45.4508 25.1289 44.7741 24.8818 44.2656 24.3877C43.7607 23.8936 43.5083 23.2222 43.5083 22.3735C43.5083 21.4604 43.7697 20.7318 44.2925 20.1875C44.8188 19.6432 45.5278 19.3711 46.4194 19.3711C46.731 19.3711 47.0138 19.4051 47.2681 19.4731C47.5259 19.5376 47.7873 19.645 48.0522 19.7954L47.5635 20.6655C47.3773 20.5617 47.1947 20.4865 47.0156 20.4399C46.8366 20.3898 46.6414 20.3647 46.4302 20.3647C45.9038 20.3647 45.4974 20.5384 45.2109 20.8857C44.9245 21.2331 44.7812 21.6932 44.7812 22.2661C44.7812 22.8677 44.9352 23.3296 45.2432 23.6519C45.5547 23.9741 45.945 24.1353 46.4141 24.1353C46.5573 24.1353 46.722 24.1102 46.9082 24.0601C47.0944 24.0063 47.2824 23.9222 47.4722 23.8076L47.9824 24.6616ZM52.1021 20.5474C52.034 20.5295 51.9678 20.5169 51.9033 20.5098C51.8424 20.499 51.7708 20.4937 51.6885 20.4937C51.2409 20.4937 50.8971 20.6584 50.6572 20.9878C50.4173 21.3172 50.2974 21.7469 50.2974 22.2769V25H49.0459V19.5H50.2974V20.5581H50.3188C50.4478 20.1785 50.6375 19.8921 50.8882 19.6987C51.1388 19.5018 51.4342 19.4033 51.7744 19.4033C51.8711 19.4033 51.957 19.4087 52.0322 19.4194C52.111 19.4302 52.1862 19.4463 52.2578 19.4678L52.1021 20.5474ZM55.5557 25.1289C54.6963 25.1289 54.0142 24.8729 53.5093 24.3608C53.008 23.8452 52.7573 23.1559 52.7573 22.293C52.7609 21.3799 53.0223 20.6655 53.5415 20.1499C54.0607 19.6307 54.7679 19.3711 55.6631 19.3711C56.526 19.3675 57.1992 19.6217 57.6826 20.1338C58.1696 20.6423 58.4131 21.3315 58.4131 22.2017C58.4131 23.0968 58.1553 23.8094 57.6396 24.3394C57.1276 24.8657 56.4329 25.1289 55.5557 25.1289ZM55.6147 24.1353C56.1125 24.1353 56.4902 23.9723 56.748 23.6465C57.0094 23.3206 57.1401 22.8498 57.1401 22.2339C57.1401 21.6252 57.0094 21.1615 56.748 20.8428C56.4867 20.5241 56.1071 20.3647 55.6094 20.3647C55.1188 20.3647 54.7321 20.533 54.4492 20.8696C54.1699 21.2062 54.0303 21.6717 54.0303 22.2661C54.0303 22.8641 54.1699 23.326 54.4492 23.6519C54.7285 23.9741 55.117 24.1353 55.6147 24.1353ZM59.1543 24.5596L59.6968 23.6787C59.9116 23.8291 60.139 23.9508 60.3789 24.0439C60.6224 24.1335 60.8856 24.1782 61.1685 24.1782C61.4764 24.1782 61.7145 24.1227 61.8828 24.0117C62.0547 23.8971 62.1406 23.7271 62.1406 23.5015C62.1406 23.3224 62.069 23.1738 61.9258 23.0557C61.7861 22.9339 61.5462 22.8337 61.2061 22.7549C60.5186 22.5938 60.0352 22.3807 59.7559 22.1157C59.4801 21.8507 59.3423 21.5016 59.3423 21.0684C59.3423 20.5706 59.5356 20.1642 59.9224 19.8491C60.3091 19.5304 60.8158 19.3711 61.4424 19.3711C61.7539 19.3711 62.0511 19.4123 62.334 19.4946C62.6169 19.5734 62.8926 19.7005 63.1611 19.876L62.6562 20.7354C62.4199 20.585 62.2033 20.4775 62.0063 20.4131C61.8094 20.3486 61.6071 20.3164 61.3994 20.3164C61.1058 20.3164 60.8766 20.3719 60.7119 20.4829C60.5508 20.5903 60.4702 20.7407 60.4702 20.9341C60.4702 21.1382 60.5526 21.2904 60.7173 21.3906C60.8856 21.4873 61.1667 21.5822 61.5605 21.6753C62.1549 21.8185 62.59 22.0262 62.8657 22.2983C63.1414 22.5669 63.2793 22.9268 63.2793 23.3779C63.2793 23.9115 63.0841 24.3376 62.6938 24.6562C62.3071 24.9714 61.7826 25.1289 61.1201 25.1289C60.762 25.1289 60.4183 25.0824 60.0889 24.9893C59.763 24.8926 59.4515 24.7493 59.1543 24.5596ZM66.8779 25.1289C66.0186 25.1289 65.3364 24.8729 64.8315 24.3608C64.3302 23.8452 64.0796 23.1559 64.0796 22.293C64.0832 21.3799 64.3446 20.6655 64.8638 20.1499C65.383 19.6307 66.0902 19.3711 66.9854 19.3711C67.8483 19.3675 68.5215 19.6217 69.0049 20.1338C69.4919 20.6423 69.7354 21.3315 69.7354 22.2017C69.7354 23.0968 69.4775 23.8094 68.9619 24.3394C68.4499 24.8657 67.7552 25.1289 66.8779 25.1289ZM66.937 24.1353C67.4347 24.1353 67.8125 23.9723 68.0703 23.6465C68.3317 23.3206 68.4624 22.8498 68.4624 22.2339C68.4624 21.6252 68.3317 21.1615 68.0703 20.8428C67.8089 20.5241 67.4294 20.3647 66.9316 20.3647C66.4411 20.3647 66.0544 20.533 65.7715 20.8696C65.4922 21.2062 65.3525 21.6717 65.3525 22.2661C65.3525 22.8641 65.4922 23.326 65.7715 23.6519C66.0508 23.9741 66.4393 24.1353 66.937 24.1353ZM73.9839 17.8403C73.8836 17.8009 73.7923 17.7741 73.71 17.7598C73.6276 17.7419 73.5381 17.7329 73.4414 17.7329C73.1764 17.7329 72.9759 17.8099 72.8398 17.9639C72.7074 18.1143 72.6411 18.3327 72.6411 18.6191V19.5H73.9141V20.4775H72.6411V25H71.395V20.4775H70.4604V19.5H71.395V18.5547C71.395 17.9961 71.5741 17.5539 71.9321 17.228C72.2938 16.8986 72.7718 16.7339 73.3662 16.7339C73.5524 16.7339 73.7135 16.7464 73.8496 16.7715C73.9857 16.7965 74.1271 16.8324 74.2739 16.8789L73.9839 17.8403ZM77.7974 24.9248C77.6362 24.9928 77.4679 25.043 77.2925 25.0752C77.117 25.1074 76.929 25.1235 76.7285 25.1235C76.2201 25.1235 75.828 24.9893 75.5522 24.7207C75.2801 24.4486 75.144 24.0439 75.144 23.5068V20.4775H74.2202V19.5H75.144V18.1626L76.3901 17.7866V19.5H77.7061V20.4775H76.3901V23.4048C76.3901 23.6733 76.4385 23.8667 76.5352 23.9849C76.6354 24.103 76.7894 24.1621 76.9971 24.1621C77.0973 24.1621 77.1922 24.1514 77.2817 24.1299C77.3748 24.1048 77.4572 24.0744 77.5288 24.0386L77.7974 24.9248ZM81.2939 24.4468L81.8633 23.4639C82.2106 23.6787 82.5347 23.8309 82.8354 23.9204C83.1362 24.0063 83.4728 24.0493 83.8452 24.0493C84.2892 24.0493 84.6383 23.9544 84.8926 23.7646C85.1504 23.5713 85.2793 23.2956 85.2793 22.9375C85.2793 22.6117 85.1719 22.3556 84.957 22.1694C84.7458 21.9797 84.3859 21.806 83.8774 21.6484C83.0933 21.4157 82.5168 21.1274 82.1479 20.7837C81.7791 20.4399 81.5947 19.9744 81.5947 19.3872C81.5947 18.7498 81.8328 18.2217 82.3091 17.8027C82.7853 17.3802 83.4316 17.1689 84.248 17.1689C84.6061 17.1689 84.9588 17.2083 85.3062 17.2871C85.6535 17.3659 85.9972 17.4876 86.3374 17.6523L85.8594 18.6729C85.5622 18.5189 85.2775 18.4097 85.0054 18.3452C84.7368 18.2808 84.4629 18.2485 84.1836 18.2485C83.7754 18.2485 83.4531 18.3381 83.2168 18.5171C82.984 18.6961 82.8677 18.9486 82.8677 19.2744C82.8677 19.5645 82.9751 19.7936 83.1899 19.9619C83.4048 20.1266 83.7736 20.2896 84.2964 20.4507C85.0985 20.6906 85.675 20.9896 86.0259 21.3477C86.3804 21.7057 86.5576 22.1981 86.5576 22.8247C86.5576 23.4979 86.3177 24.0511 85.8379 24.4844C85.3581 24.9141 84.6742 25.1289 83.7861 25.1289C83.3421 25.1289 82.9089 25.0734 82.4863 24.9624C82.0638 24.8478 81.6663 24.6759 81.2939 24.4468ZM90.4409 24.9248C90.2798 24.9928 90.1115 25.043 89.936 25.0752C89.7606 25.1074 89.5726 25.1235 89.3721 25.1235C88.8636 25.1235 88.4715 24.9893 88.1958 24.7207C87.9237 24.4486 87.7876 24.0439 87.7876 23.5068V20.4775H86.8638V19.5H87.7876V18.1626L89.0337 17.7866V19.5H90.3496V20.4775H89.0337V23.4048C89.0337 23.6733 89.082 23.8667 89.1787 23.9849C89.279 24.103 89.4329 24.1621 89.6406 24.1621C89.7409 24.1621 89.8358 24.1514 89.9253 24.1299C90.0184 24.1048 90.1007 24.0744 90.1724 24.0386L90.4409 24.9248ZM93.8623 25.1289C93.0029 25.1289 92.3208 24.8729 91.8159 24.3608C91.3146 23.8452 91.064 23.1559 91.064 22.293C91.0675 21.3799 91.3289 20.6655 91.8481 20.1499C92.3674 19.6307 93.0745 19.3711 93.9697 19.3711C94.8327 19.3675 95.5059 19.6217 95.9893 20.1338C96.4762 20.6423 96.7197 21.3315 96.7197 22.2017C96.7197 23.0968 96.4619 23.8094 95.9463 24.3394C95.4342 24.8657 94.7396 25.1289 93.8623 25.1289ZM93.9214 24.1353C94.4191 24.1353 94.7969 23.9723 95.0547 23.6465C95.3161 23.3206 95.4468 22.8498 95.4468 22.2339C95.4468 21.6252 95.3161 21.1615 95.0547 20.8428C94.7933 20.5241 94.4137 20.3647 93.916 20.3647C93.4255 20.3647 93.0387 20.533 92.7559 20.8696C92.4766 21.2062 92.3369 21.6717 92.3369 22.2661C92.3369 22.8641 92.4766 23.326 92.7559 23.6519C93.0352 23.9741 93.4237 24.1353 93.9214 24.1353ZM101.054 20.5474C100.986 20.5295 100.92 20.5169 100.855 20.5098C100.795 20.499 100.723 20.4937 100.641 20.4937C100.193 20.4937 99.8493 20.6584 99.6094 20.9878C99.3695 21.3172 99.2495 21.7469 99.2495 22.2769V25H97.998V19.5H99.2495V20.5581H99.271C99.3999 20.1785 99.5897 19.8921 99.8403 19.6987C100.091 19.5018 100.386 19.4033 100.727 19.4033C100.823 19.4033 100.909 19.4087 100.984 19.4194C101.063 19.4302 101.138 19.4463 101.21 19.4678L101.054 20.5474ZM106.721 22.5776H102.966C102.988 23.0968 103.138 23.4925 103.417 23.7646C103.697 24.0332 104.087 24.1675 104.588 24.1675C104.792 24.1675 105.025 24.1263 105.287 24.0439C105.548 23.9616 105.806 23.8291 106.06 23.6465L106.624 24.4253C106.284 24.6724 105.938 24.8514 105.587 24.9624C105.236 25.0734 104.85 25.1289 104.427 25.1289C103.571 25.1289 102.905 24.8836 102.429 24.3931C101.953 23.8989 101.713 23.2096 101.709 22.3252C101.709 21.4443 101.955 20.7318 102.445 20.1875C102.939 19.6432 103.571 19.3711 104.341 19.3711C105.079 19.3711 105.659 19.6038 106.082 20.0693C106.508 20.5312 106.721 21.1865 106.721 22.0352V22.5776ZM105.512 21.7129C105.512 21.2402 105.408 20.8857 105.201 20.6494C104.997 20.4095 104.707 20.2896 104.331 20.2896C103.976 20.2896 103.674 20.4185 103.423 20.6763C103.176 20.9305 103.024 21.276 102.966 21.7129H105.512Z" fill="white"/>
<defs>
<filter id="filter0_dd_976_1843" x="11.0938" y="7.25" width="11.8125" height="5.625" filterUnits="userSpaceOnUse" color-interpolation-filters="sRGB">
<feFlood flood-opacity="0" result="BackgroundImageFix"/>
<feColorMatrix in="SourceAlpha" type="matrix" values="0 0 0 0 0 0 0 0 0 0 0 0 0 0 0 0 0 0 127 0" result="hardAlpha"/>
<feOffset dy="0.1875"/>
<feGaussianBlur stdDeviation="0.1875"/>
<feColorMatrix type="matrix" values="0 0 0 0 0 0 0 0 0 0 0 0 0 0 0 0 0 0 0.1 0"/>
<feBlend mode="normal" in2="BackgroundImageFix" result="effect1_dropShadow_976_1843"/>
<feColorMatrix in="SourceAlpha" type="matrix" values="0 0 0 0 0 0 0 0 0 0 0 0 0 0 0 0 0 0 127 0" result="hardAlpha"/>
<feOffset dy="0.375"/>
<feGaussianBlur stdDeviation="0.5625"/>
<feColorMatrix type="matrix" values="0 0 0 0 0 0 0 0 0 0 0 0 0 0 0 0 0 0 0.2 0"/>
<feBlend mode="normal" in2="effect1_dropShadow_976_1843" result="effect2_dropShadow_976_1843"/>
<feBlend mode="normal" in="SourceGraphic" in2="effect2_dropShadow_976_1843" result="shape"/>
</filter>
<filter id="filter1_dd_976_1843" x="12.2188" y="13.4375" width="9.5625" height="9.5625" filterUnits="userSpaceOnUse" color-interpolation-filters="sRGB">
<feFlood flood-opacity="0" result="BackgroundImageFix"/>
<feColorMatrix in="SourceAlpha" type="matrix" values="0 0 0 0 0 0 0 0 0 0 0 0 0 0 0 0 0 0 127 0" result="hardAlpha"/>
<feOffset dy="0.1875"/>
<feGaussianBlur stdDeviation="0.1875"/>
<feColorMatrix type="matrix" values="0 0 0 0 1 0 0 0 0 1 0 0 0 0 1 0 0 0 0.6 0"/>
<feBlend mode="normal" in2="BackgroundImageFix" result="effect1_dropShadow_976_1843"/>
<feColorMatrix in="SourceAlpha" type="matrix" values="0 0 0 0 0 0 0 0 0 0 0 0 0 0 0 0 0 0 127 0" result="hardAlpha"/>
<feOffset dy="0.375"/>
<feGaussianBlur stdDeviation="0.5625"/>
<feColorMatrix type="matrix" values="0 0 0 0 1 0 0 0 0 1 0 0 0 0 1 0 0 0 0.6 0"/>
<feBlend mode="normal" in2="effect1_dropShadow_976_1843" result="effect2_dropShadow_976_1843"/>
<feBlend mode="normal" in="SourceGraphic" in2="effect2_dropShadow_976_1843" result="shape"/>
</filter>
<filter id="filter2_dd_976_1843" x="10.5939" y="6.6875" width="12.8124" height="5.06274" filterUnits="userSpaceOnUse" color-interpolation-filters="sRGB">
<feFlood flood-opacity="0" result="BackgroundImageFix"/>
<feColorMatrix in="SourceAlpha" type="matrix" values="0 0 0 0 0 0 0 0 0 0 0 0 0 0 0 0 0 0 127 0" result="hardAlpha"/>
<feOffset dy="-0.75"/>
<feGaussianBlur stdDeviation="0.1875"/>
<feColorMatrix type="matrix" values="0 0 0 0 0 0 0 0 0 0 0 0 0 0 0 0 0 0 0.1 0"/>
<feBlend mode="normal" in2="BackgroundImageFix" result="effect1_dropShadow_976_1843"/>
<feColorMatrix in="SourceAlpha" type="matrix" values="0 0 0 0 0 0 0 0 0 0 0 0 0 0 0 0 0 0 127 0" result="hardAlpha"/>
<feOffset dy="-0.75"/>
<feGaussianBlur stdDeviation="0.5625"/>
<feColorMatrix type="matrix" values="0 0 0 0 0 0 0 0 0 0 0 0 0 0 0 0 0 0 0.2 0"/>
<feBlend mode="normal" in2="effect1_dropShadow_976_1843" result="effect2_dropShadow_976_1843"/>
<feBlend mode="normal" in="SourceGraphic" in2="effect2_dropShadow_976_1843" result="shape"/>
</filter>
<linearGradient id="paint0_linear_976_1843" x1="12.2443" y1="8.00639" x2="15.9039" y2="24.8132" gradientUnits="userSpaceOnUse">
<stop offset="0.270833" stop-color="white"/>
<stop offset="1" stop-color="#DFDFDF"/>
</linearGradient>
<linearGradient id="paint1_linear_976_1843" x1="17" y1="10.25" x2="20.3514" y2="25.9624" gradientUnits="userSpaceOnUse">
<stop stop-color="#0078D4"/>
<stop offset="1" stop-color="#114A8B"/>
</linearGradient>
<linearGradient id="paint2_linear_976_1843" x1="17" y1="8.5625" x2="17.1583" y2="10.9858" gradientUnits="userSpaceOnUse">
<stop stop-color="#28AFEA"/>
<stop offset="1" stop-color="#0078D4"/>
</linearGradient>
<linearGradient id="paint3_linear_976_1843" x1="17" y1="8.5625" x2="17.1583" y2="10.9858" gradientUnits="userSpaceOnUse">
<stop stop-color="#30DAFF"/>
<stop offset="1" stop-color="#0094D4"/>
</linearGradient>
<linearGradient id="paint4_linear_976_1843" x1="16.5938" y1="8" x2="16.5937" y2="9.125" gradientUnits="userSpaceOnUse">
<stop stop-color="#22BCFF"/>
<stop offset="1" stop-color="#0088F0"/>
</linearGradient>
<linearGradient id="paint5_linear_976_1843" x1="16.5938" y1="8" x2="16.5937" y2="9.125" gradientUnits="userSpaceOnUse">
<stop stop-color="#28AFEA"/>
<stop offset="1" stop-color="#3CCBF4"/>
</linearGradient>
<clipPath id="clip0_976_1843">
<rect width="18" height="18" fill="white" transform="translate(8 8)"/>
</clipPath>
<clipPath id="clip1_976_1843">
<rect width="18" height="18" fill="white" transform="translate(8 8)"/>
</clipPath>
</defs>
</svg>
