<svg width="147" height="34" viewBox="0 0 147 34" fill="none" xmlns="http://www.w3.org/2000/svg">
<rect x="1" y="1" width="145" height="32" rx="4" fill="#FDFDFD"/>
<rect x="0.5" y="0.5" width="146" height="33" rx="4.5" stroke="black" stroke-opacity="0.0578"/>
<g clip-path="url(#clip0_976_1846)">
<g clip-path="url(#clip1_976_1846)">
<path d="M8.28125 11C8.28125 10.5858 8.61704 10.25 9.03125 10.25H24.9687C25.383 10.25 25.7188 10.5858 25.7188 11V22.3438C25.7188 24.0524 24.3336 25.4375 22.625 25.4375H11.375C9.66637 25.4375 8.28125 24.0524 8.28125 22.3438V11Z" fill="url(#paint0_linear_976_1846)"/>
<mask id="mask0_976_1846" style="mask-type:alpha" maskUnits="userSpaceOnUse" x="8" y="10" width="18" height="16">
<path d="M8.28125 11C8.28125 10.5858 8.61704 10.25 9.03125 10.25H24.9687C25.383 10.25 25.7188 10.5858 25.7188 11V22.3438C25.7188 24.0524 24.3336 25.4375 22.625 25.4375H11.375C9.66637 25.4375 8.28125 24.0524 8.28125 22.3438V11Z" fill="url(#paint1_linear_976_1846)"/>
</mask>
<g mask="url(#mask0_976_1846)">
<g filter="url(#filter0_dd_976_1846)">
<path d="M12.7812 10.8125V8.5625H21.2187V10.8125" stroke="url(#paint2_linear_976_1846)" stroke-width="1.125" stroke-linecap="round"/>
</g>
</g>
<g filter="url(#filter1_dd_976_1846)">
<path d="M16.719 14.1875H13.344V17.5625H16.719V14.1875Z" fill="#F25022"/>
<path d="M20.6562 14.1875H17.2812V17.5625H20.6562V14.1875Z" fill="#7FBA00"/>
<path d="M20.6562 18.125H17.2812V21.5H20.6562V18.125Z" fill="#FFB900"/>
<path d="M16.7188 18.125H13.3438V21.5H16.7188V18.125Z" fill="#00A4EF"/>
</g>
<path d="M12.7812 10.8125V9.125C12.7812 8.81434 13.0331 8.5625 13.3438 8.5625H20.6563C20.9669 8.5625 21.2188 8.81434 21.2188 9.125V10.8125" stroke="url(#paint3_linear_976_1846)" stroke-width="1.125" stroke-linecap="round"/>
<rect x="13.3438" y="8" width="7.3125" height="1.125" fill="url(#paint4_linear_976_1846)"/>
<mask id="mask1_976_1846" style="mask-type:alpha" maskUnits="userSpaceOnUse" x="13" y="8" width="8" height="2">
<rect x="13.3438" y="8" width="7.3125" height="1.125" fill="url(#paint5_linear_976_1846)"/>
</mask>
<g mask="url(#mask1_976_1846)">
<g filter="url(#filter2_dd_976_1846)">
<rect x="11.7189" y="8.56274" width="1.625" height="2.8125" fill="#C4C4C4"/>
</g>
</g>
</g>
</g>
<path d="M39.2275 16H37.96V11.0854C37.96 10.8634 37.9653 10.6217 37.9761 10.3604C37.9904 10.0954 38.0083 9.81429 38.0298 9.51709H37.9976C37.9546 9.72119 37.9134 9.89665 37.874 10.0435C37.8382 10.1867 37.8024 10.3013 37.7666 10.3872L35.5054 16H34.6245L32.3525 10.4355C32.3239 10.3568 32.2881 10.2404 32.2451 10.0864C32.2057 9.93245 32.1628 9.74268 32.1162 9.51709H32.084C32.1055 9.7749 32.1198 10.0488 32.127 10.3389C32.1341 10.6253 32.1377 10.9279 32.1377 11.2466V16H30.9561V8.29785H32.7607L34.7642 13.3037C34.8429 13.4935 34.9074 13.6689 34.9575 13.8301C35.0112 13.9876 35.0524 14.1344 35.0811 14.2705H35.1133C35.1777 14.0664 35.2386 13.882 35.2959 13.7173C35.3532 13.5526 35.4069 13.4093 35.457 13.2876L37.4873 8.29785H39.2275V16ZM41.6177 9.43652C41.3885 9.43652 41.1987 9.36312 41.0483 9.21631C40.8979 9.0695 40.8228 8.88867 40.8228 8.67383C40.8228 8.45182 40.8979 8.26921 41.0483 8.12598C41.1987 7.98275 41.3885 7.91113 41.6177 7.91113C41.8504 7.91113 42.042 7.98275 42.1924 8.12598C42.3428 8.26921 42.418 8.45182 42.418 8.67383C42.418 8.89225 42.3428 9.07487 42.1924 9.22168C42.042 9.36491 41.8504 9.43652 41.6177 9.43652ZM42.2354 16H40.9839V10.5H42.2354V16ZM47.9824 15.6616C47.7103 15.8263 47.4399 15.9445 47.1714 16.0161C46.9028 16.0913 46.611 16.1289 46.2959 16.1289C45.4508 16.1289 44.7741 15.8818 44.2656 15.3877C43.7607 14.8936 43.5083 14.2222 43.5083 13.3735C43.5083 12.4604 43.7697 11.7318 44.2925 11.1875C44.8188 10.6432 45.5278 10.3711 46.4194 10.3711C46.731 10.3711 47.0138 10.4051 47.2681 10.4731C47.5259 10.5376 47.7873 10.645 48.0522 10.7954L47.5635 11.6655C47.3773 11.5617 47.1947 11.4865 47.0156 11.4399C46.8366 11.3898 46.6414 11.3647 46.4302 11.3647C45.9038 11.3647 45.4974 11.5384 45.2109 11.8857C44.9245 12.2331 44.7812 12.6932 44.7812 13.2661C44.7812 13.8677 44.9352 14.3296 45.2432 14.6519C45.5547 14.9741 45.945 15.1353 46.4141 15.1353C46.5573 15.1353 46.722 15.1102 46.9082 15.0601C47.0944 15.0063 47.2824 14.9222 47.4722 14.8076L47.9824 15.6616ZM52.1021 11.5474C52.034 11.5295 51.9678 11.5169 51.9033 11.5098C51.8424 11.499 51.7708 11.4937 51.6885 11.4937C51.2409 11.4937 50.8971 11.6584 50.6572 11.9878C50.4173 12.3172 50.2974 12.7469 50.2974 13.2769V16H49.0459V10.5H50.2974V11.5581H50.3188C50.4478 11.1785 50.6375 10.8921 50.8882 10.6987C51.1388 10.5018 51.4342 10.4033 51.7744 10.4033C51.8711 10.4033 51.957 10.4087 52.0322 10.4194C52.111 10.4302 52.1862 10.4463 52.2578 10.4678L52.1021 11.5474ZM55.5557 16.1289C54.6963 16.1289 54.0142 15.8729 53.5093 15.3608C53.008 14.8452 52.7573 14.1559 52.7573 13.293C52.7609 12.3799 53.0223 11.6655 53.5415 11.1499C54.0607 10.6307 54.7679 10.3711 55.6631 10.3711C56.526 10.3675 57.1992 10.6217 57.6826 11.1338C58.1696 11.6423 58.4131 12.3315 58.4131 13.2017C58.4131 14.0968 58.1553 14.8094 57.6396 15.3394C57.1276 15.8657 56.4329 16.1289 55.5557 16.1289ZM55.6147 15.1353C56.1125 15.1353 56.4902 14.9723 56.748 14.6465C57.0094 14.3206 57.1401 13.8498 57.1401 13.2339C57.1401 12.6252 57.0094 12.1615 56.748 11.8428C56.4867 11.5241 56.1071 11.3647 55.6094 11.3647C55.1188 11.3647 54.7321 11.533 54.4492 11.8696C54.1699 12.2062 54.0303 12.6717 54.0303 13.2661C54.0303 13.8641 54.1699 14.326 54.4492 14.6519C54.7285 14.9741 55.117 15.1353 55.6147 15.1353ZM59.1543 15.5596L59.6968 14.6787C59.9116 14.8291 60.139 14.9508 60.3789 15.0439C60.6224 15.1335 60.8856 15.1782 61.1685 15.1782C61.4764 15.1782 61.7145 15.1227 61.8828 15.0117C62.0547 14.8971 62.1406 14.7271 62.1406 14.5015C62.1406 14.3224 62.069 14.1738 61.9258 14.0557C61.7861 13.9339 61.5462 13.8337 61.2061 13.7549C60.5186 13.5938 60.0352 13.3807 59.7559 13.1157C59.4801 12.8507 59.3423 12.5016 59.3423 12.0684C59.3423 11.5706 59.5356 11.1642 59.9224 10.8491C60.3091 10.5304 60.8158 10.3711 61.4424 10.3711C61.7539 10.3711 62.0511 10.4123 62.334 10.4946C62.6169 10.5734 62.8926 10.7005 63.1611 10.876L62.6562 11.7354C62.4199 11.585 62.2033 11.4775 62.0063 11.4131C61.8094 11.3486 61.6071 11.3164 61.3994 11.3164C61.1058 11.3164 60.8766 11.3719 60.7119 11.4829C60.5508 11.5903 60.4702 11.7407 60.4702 11.9341C60.4702 12.1382 60.5526 12.2904 60.7173 12.3906C60.8856 12.4873 61.1667 12.5822 61.5605 12.6753C62.1549 12.8185 62.59 13.0262 62.8657 13.2983C63.1414 13.5669 63.2793 13.9268 63.2793 14.3779C63.2793 14.9115 63.0841 15.3376 62.6938 15.6562C62.3071 15.9714 61.7826 16.1289 61.1201 16.1289C60.762 16.1289 60.4183 16.0824 60.0889 15.9893C59.763 15.8926 59.4515 15.7493 59.1543 15.5596ZM66.8779 16.1289C66.0186 16.1289 65.3364 15.8729 64.8315 15.3608C64.3302 14.8452 64.0796 14.1559 64.0796 13.293C64.0832 12.3799 64.3446 11.6655 64.8638 11.1499C65.383 10.6307 66.0902 10.3711 66.9854 10.3711C67.8483 10.3675 68.5215 10.6217 69.0049 11.1338C69.4919 11.6423 69.7354 12.3315 69.7354 13.2017C69.7354 14.0968 69.4775 14.8094 68.9619 15.3394C68.4499 15.8657 67.7552 16.1289 66.8779 16.1289ZM66.937 15.1353C67.4347 15.1353 67.8125 14.9723 68.0703 14.6465C68.3317 14.3206 68.4624 13.8498 68.4624 13.2339C68.4624 12.6252 68.3317 12.1615 68.0703 11.8428C67.8089 11.5241 67.4294 11.3647 66.9316 11.3647C66.4411 11.3647 66.0544 11.533 65.7715 11.8696C65.4922 12.2062 65.3525 12.6717 65.3525 13.2661C65.3525 13.8641 65.4922 14.326 65.7715 14.6519C66.0508 14.9741 66.4393 15.1353 66.937 15.1353ZM73.9839 8.84033C73.8836 8.80094 73.7923 8.77409 73.71 8.75977C73.6276 8.74186 73.5381 8.73291 73.4414 8.73291C73.1764 8.73291 72.9759 8.8099 72.8398 8.96387C72.7074 9.11426 72.6411 9.33268 72.6411 9.61914V10.5H73.9141V11.4775H72.6411V16H71.395V11.4775H70.4604V10.5H71.395V9.55469C71.395 8.99609 71.5741 8.55387 71.9321 8.22803C72.2938 7.8986 72.7718 7.73389 73.3662 7.73389C73.5524 7.73389 73.7135 7.74642 73.8496 7.77148C73.9857 7.79655 74.1271 7.83236 74.2739 7.87891L73.9839 8.84033ZM77.7974 15.9248C77.6362 15.9928 77.4679 16.043 77.2925 16.0752C77.117 16.1074 76.929 16.1235 76.7285 16.1235C76.2201 16.1235 75.828 15.9893 75.5522 15.7207C75.2801 15.4486 75.144 15.0439 75.144 14.5068V11.4775H74.2202V10.5H75.144V9.1626L76.3901 8.78662V10.5H77.7061V11.4775H76.3901V14.4048C76.3901 14.6733 76.4385 14.8667 76.5352 14.9849C76.6354 15.103 76.7894 15.1621 76.9971 15.1621C77.0973 15.1621 77.1922 15.1514 77.2817 15.1299C77.3748 15.1048 77.4572 15.0744 77.5288 15.0386L77.7974 15.9248ZM81.2939 15.4468L81.8633 14.4639C82.2106 14.6787 82.5347 14.8309 82.8354 14.9204C83.1362 15.0063 83.4728 15.0493 83.8452 15.0493C84.2892 15.0493 84.6383 14.9544 84.8926 14.7646C85.1504 14.5713 85.2793 14.2956 85.2793 13.9375C85.2793 13.6117 85.1719 13.3556 84.957 13.1694C84.7458 12.9797 84.3859 12.806 83.8774 12.6484C83.0933 12.4157 82.5168 12.1274 82.1479 11.7837C81.7791 11.4399 81.5947 10.9744 81.5947 10.3872C81.5947 9.74984 81.8328 9.22168 82.3091 8.80273C82.7853 8.38021 83.4316 8.16895 84.248 8.16895C84.6061 8.16895 84.9588 8.20833 85.3062 8.28711C85.6535 8.36589 85.9972 8.48763 86.3374 8.65234L85.8594 9.67285C85.5622 9.51888 85.2775 9.40967 85.0054 9.34521C84.7368 9.28076 84.4629 9.24854 84.1836 9.24854C83.7754 9.24854 83.4531 9.33805 83.2168 9.51709C82.984 9.69613 82.8677 9.94857 82.8677 10.2744C82.8677 10.5645 82.9751 10.7936 83.1899 10.9619C83.4048 11.1266 83.7736 11.2896 84.2964 11.4507C85.0985 11.6906 85.675 11.9896 86.0259 12.3477C86.3804 12.7057 86.5576 13.1981 86.5576 13.8247C86.5576 14.4979 86.3177 15.0511 85.8379 15.4844C85.3581 15.9141 84.6742 16.1289 83.7861 16.1289C83.3421 16.1289 82.9089 16.0734 82.4863 15.9624C82.0638 15.8478 81.6663 15.6759 81.2939 15.4468ZM90.4409 15.9248C90.2798 15.9928 90.1115 16.043 89.936 16.0752C89.7606 16.1074 89.5726 16.1235 89.3721 16.1235C88.8636 16.1235 88.4715 15.9893 88.1958 15.7207C87.9237 15.4486 87.7876 15.0439 87.7876 14.5068V11.4775H86.8638V10.5H87.7876V9.1626L89.0337 8.78662V10.5H90.3496V11.4775H89.0337V14.4048C89.0337 14.6733 89.082 14.8667 89.1787 14.9849C89.279 15.103 89.4329 15.1621 89.6406 15.1621C89.7409 15.1621 89.8358 15.1514 89.9253 15.1299C90.0184 15.1048 90.1007 15.0744 90.1724 15.0386L90.4409 15.9248ZM93.8623 16.1289C93.0029 16.1289 92.3208 15.8729 91.8159 15.3608C91.3146 14.8452 91.064 14.1559 91.064 13.293C91.0675 12.3799 91.3289 11.6655 91.8481 11.1499C92.3674 10.6307 93.0745 10.3711 93.9697 10.3711C94.8327 10.3675 95.5059 10.6217 95.9893 11.1338C96.4762 11.6423 96.7197 12.3315 96.7197 13.2017C96.7197 14.0968 96.4619 14.8094 95.9463 15.3394C95.4342 15.8657 94.7396 16.1289 93.8623 16.1289ZM93.9214 15.1353C94.4191 15.1353 94.7969 14.9723 95.0547 14.6465C95.3161 14.3206 95.4468 13.8498 95.4468 13.2339C95.4468 12.6252 95.3161 12.1615 95.0547 11.8428C94.7933 11.5241 94.4137 11.3647 93.916 11.3647C93.4255 11.3647 93.0387 11.533 92.7559 11.8696C92.4766 12.2062 92.3369 12.6717 92.3369 13.2661C92.3369 13.8641 92.4766 14.326 92.7559 14.6519C93.0352 14.9741 93.4237 15.1353 93.9214 15.1353ZM101.054 11.5474C100.986 11.5295 100.92 11.5169 100.855 11.5098C100.795 11.499 100.723 11.4937 100.641 11.4937C100.193 11.4937 99.8493 11.6584 99.6094 11.9878C99.3695 12.3172 99.2495 12.7469 99.2495 13.2769V16H97.998V10.5H99.2495V11.5581H99.271C99.3999 11.1785 99.5897 10.8921 99.8403 10.6987C100.091 10.5018 100.386 10.4033 100.727 10.4033C100.823 10.4033 100.909 10.4087 100.984 10.4194C101.063 10.4302 101.138 10.4463 101.21 10.4678L101.054 11.5474ZM106.721 13.5776H102.966C102.988 14.0968 103.138 14.4925 103.417 14.7646C103.697 15.0332 104.087 15.1675 104.588 15.1675C104.792 15.1675 105.025 15.1263 105.287 15.0439C105.548 14.9616 105.806 14.8291 106.06 14.6465L106.624 15.4253C106.284 15.6724 105.938 15.8514 105.587 15.9624C105.236 16.0734 104.85 16.1289 104.427 16.1289C103.571 16.1289 102.905 15.8836 102.429 15.3931C101.953 14.8989 101.713 14.2096 101.709 13.3252C101.709 12.4443 101.955 11.7318 102.445 11.1875C102.939 10.6432 103.571 10.3711 104.341 10.3711C105.079 10.3711 105.659 10.6038 106.082 11.0693C106.508 11.5312 106.721 12.1865 106.721 13.0352V13.5776ZM105.512 12.7129C105.512 12.2402 105.408 11.8857 105.201 11.6494C104.997 11.4095 104.707 11.2896 104.331 11.2896C103.976 11.2896 103.674 11.4185 103.423 11.6763C103.176 11.9305 103.024 12.276 102.966 12.7129H105.512Z" fill="black" fill-opacity="0.8956"/>
<path d="M30.4922 24.2705V23.8296H32.3584V24.2705H30.4922ZM37.9197 21.576C38.1251 21.576 38.3211 21.5877 38.5077 21.611C38.6991 21.6297 38.8811 21.6623 39.0537 21.709C39.2264 21.7557 39.3851 21.821 39.5297 21.905L39.6907 21.975C40.1107 22.1897 40.4187 22.4767 40.6147 22.836C40.8154 23.1907 40.9157 23.5757 40.9157 23.991C40.9157 24.4997 40.7944 24.8987 40.5517 25.188C40.3091 25.4773 39.9591 25.622 39.5017 25.622C39.2077 25.622 38.9557 25.5613 38.7457 25.44C38.5404 25.314 38.3841 25.132 38.2767 24.894C38.1694 24.6513 38.1157 24.3597 38.1157 24.019C38.1157 23.7483 38.1577 23.4987 38.2417 23.27C38.3257 23.0367 38.4424 22.8173 38.5917 22.612C38.7457 22.4067 38.9207 22.213 39.1167 22.031L39.3057 21.828C39.4411 21.7067 39.5601 21.576 39.6627 21.436C39.7654 21.296 39.8167 21.1443 39.8167 20.981C39.8167 20.855 39.7747 20.743 39.6907 20.645C39.6067 20.547 39.4667 20.498 39.2707 20.498C39.1681 20.498 39.0701 20.505 38.9767 20.519C38.8834 20.533 38.8064 20.5517 38.7457 20.575L38.6127 20.092C38.6921 20.0687 38.7994 20.0477 38.9347 20.029C39.0701 20.0057 39.2147 19.994 39.3687 19.994C39.6487 19.994 39.8634 20.0453 40.0127 20.148C40.1667 20.246 40.2741 20.3627 40.3347 20.498C40.3954 20.6333 40.4257 20.7547 40.4257 20.862C40.4257 21.1047 40.3627 21.3217 40.2367 21.513C40.1154 21.7043 39.9474 21.9003 39.7327 22.101L39.5857 22.29C39.3897 22.4533 39.2287 22.6307 39.1027 22.822C38.9767 23.0087 38.8834 23.2047 38.8227 23.41C38.7621 23.6107 38.7317 23.8183 38.7317 24.033C38.7317 24.3177 38.7667 24.5417 38.8367 24.705C38.9114 24.8637 39.0071 24.9757 39.1237 25.041C39.2451 25.1017 39.3734 25.132 39.5087 25.132C39.7654 25.132 39.9591 25.041 40.0897 24.859C40.2251 24.6723 40.2927 24.397 40.2927 24.033C40.2927 23.7717 40.2531 23.5313 40.1737 23.312C40.0991 23.0927 39.9847 22.899 39.8307 22.731C39.6767 22.5583 39.4784 22.4183 39.2357 22.311L39.1167 22.262C38.9534 22.2013 38.7714 22.157 38.5707 22.129C38.3701 22.0963 38.1507 22.08 37.9127 22.08C37.6981 22.08 37.4857 22.0963 37.2757 22.129C37.0704 22.157 36.8721 22.2107 36.6807 22.29L36.5477 22.346C36.2491 22.486 36.0064 22.689 35.8197 22.955C35.6331 23.221 35.5397 23.5663 35.5397 23.991C35.5397 24.2897 35.5771 24.523 35.6517 24.691C35.7311 24.8543 35.8314 24.9687 35.9527 25.034C36.0787 25.0993 36.2117 25.132 36.3517 25.132C36.4964 25.132 36.6294 25.1017 36.7507 25.041C36.8767 24.9757 36.9771 24.8613 37.0517 24.698C37.1264 24.53 37.1637 24.2943 37.1637 23.991C37.1637 23.7297 37.1194 23.4823 37.0307 23.249C36.9421 23.0157 36.8207 22.8103 36.6667 22.633C36.5127 22.4557 36.3331 22.3203 36.1277 22.227L35.9807 22.157C35.8734 22.1197 35.7684 22.094 35.6657 22.08C35.5631 22.066 35.4464 22.059 35.3157 22.059C34.9657 22.059 34.6694 22.129 34.4267 22.269C34.1887 22.4043 34.0067 22.591 33.8807 22.829C33.7594 23.0623 33.6987 23.3283 33.6987 23.627C33.6987 23.8697 33.7337 24.0867 33.8037 24.278C33.8737 24.4693 33.9717 24.6373 34.0977 24.782C34.2284 24.9267 34.3801 25.0527 34.5527 25.16L34.2027 25.601C34.0021 25.4843 33.8154 25.335 33.6427 25.153C33.4747 24.9663 33.3371 24.7447 33.2297 24.488C33.1271 24.2267 33.0757 23.9303 33.0757 23.599C33.0757 23.3097 33.1224 23.0437 33.2157 22.801C33.3137 22.5537 33.4561 22.339 33.6427 22.157C33.8294 21.975 34.0581 21.8327 34.3287 21.73C34.5994 21.6273 34.9097 21.576 35.2597 21.576C35.4884 21.576 35.6984 21.5993 35.8897 21.646C36.0857 21.688 36.2794 21.7627 36.4707 21.87L36.6457 22.017C36.9724 22.2037 37.2431 22.4697 37.4577 22.815C37.6724 23.1603 37.7797 23.557 37.7797 24.005C37.7797 24.3363 37.7237 24.6233 37.6117 24.866C37.5044 25.1087 37.3434 25.2953 37.1287 25.426C36.9187 25.5567 36.6597 25.622 36.3517 25.622C36.0484 25.622 35.7894 25.5567 35.5747 25.426C35.3601 25.2953 35.1967 25.1087 35.0847 24.866C34.9774 24.6233 34.9237 24.3363 34.9237 24.005C34.9237 23.7017 34.9704 23.4287 35.0637 23.186C35.1571 22.9433 35.2877 22.7287 35.4557 22.542C35.6237 22.3507 35.8174 22.1873 36.0367 22.052L36.2187 21.947C36.4661 21.8117 36.7274 21.716 37.0027 21.66C37.2781 21.604 37.5837 21.576 37.9197 21.576ZM45.1273 21.576C45.342 21.576 45.5263 21.6087 45.6803 21.674C45.8343 21.7347 45.965 21.8187 46.0723 21.926C46.1797 22.0287 46.2707 22.1477 46.3453 22.283L46.2543 22.276C46.399 22.0333 46.5717 21.856 46.7723 21.744C46.973 21.632 47.2227 21.576 47.5213 21.576C47.8807 21.576 48.1863 21.6623 48.4383 21.835C48.6903 22.003 48.8817 22.2317 49.0123 22.521C49.1477 22.8103 49.2153 23.1347 49.2153 23.494C49.2153 23.802 49.1733 24.0797 49.0893 24.327C49.0053 24.5743 48.8817 24.803 48.7183 25.013C48.5597 25.2183 48.3637 25.412 48.1303 25.594L47.7523 25.167C47.9157 25.0503 48.0603 24.915 48.1863 24.761C48.317 24.6023 48.4173 24.4203 48.4873 24.215C48.562 24.005 48.5993 23.7647 48.5993 23.494C48.5993 23.2233 48.555 22.983 48.4663 22.773C48.3777 22.5583 48.2517 22.3903 48.0883 22.269C47.925 22.143 47.7337 22.08 47.5143 22.08C47.323 22.08 47.1643 22.115 47.0383 22.185C46.917 22.2503 46.819 22.3507 46.7443 22.486C46.6837 22.5887 46.644 22.7147 46.6253 22.864C46.6067 23.0133 46.5973 23.2257 46.5973 23.501V25.538H45.9953V23.501C45.9953 23.235 45.986 23.025 45.9673 22.871C45.9487 22.717 45.9067 22.5887 45.8413 22.486C45.762 22.3507 45.6617 22.2503 45.5403 22.185C45.419 22.115 45.272 22.08 45.0993 22.08C44.8847 22.08 44.6933 22.143 44.5253 22.269C44.362 22.3903 44.2337 22.5583 44.1403 22.773C44.047 22.983 44.0003 23.2233 44.0003 23.494C44.0003 23.774 44.0377 24.019 44.1123 24.229C44.1917 24.439 44.2943 24.6187 44.4203 24.768C44.5463 24.9173 44.6863 25.0457 44.8403 25.153L44.4343 25.594C44.2337 25.4307 44.054 25.2533 43.8953 25.062C43.7367 24.866 43.6107 24.642 43.5173 24.39C43.4287 24.1333 43.3843 23.8347 43.3843 23.494C43.3843 23.116 43.4543 22.7847 43.5943 22.5C43.739 22.2107 43.942 21.9843 44.2033 21.821C44.4647 21.6577 44.7727 21.576 45.1273 21.576ZM49.2513 19.637C49.4286 19.637 49.5826 19.6557 49.7133 19.693C49.8486 19.7303 49.9676 19.7887 50.0703 19.868C50.2009 19.966 50.3036 20.0827 50.3783 20.218C50.4529 20.3487 50.5066 20.5213 50.5393 20.736C50.5719 20.946 50.5883 21.2237 50.5883 21.569V25.538H49.9863V21.744C49.9863 21.5013 49.9793 21.2913 49.9653 21.114C49.9559 20.9367 49.9349 20.7873 49.9023 20.666C49.8743 20.54 49.8323 20.4397 49.7763 20.365C49.7203 20.2903 49.6503 20.232 49.5663 20.19C49.4869 20.148 49.3866 20.127 49.2653 20.127C49.1626 20.127 49.0623 20.1503 48.9643 20.197C48.8616 20.239 48.7776 20.309 48.7123 20.407C48.6469 20.5003 48.6143 20.6287 48.6143 20.792C48.6143 20.834 48.6189 20.8783 48.6283 20.925C48.6329 20.967 48.6376 21.009 48.6423 21.051L48.0543 21.156C48.0449 21.1 48.0356 21.044 48.0263 20.988C48.0169 20.9273 48.0123 20.8713 48.0123 20.82C48.0123 20.554 48.0706 20.3347 48.1873 20.162C48.2993 19.9847 48.4509 19.854 48.6423 19.77C48.8289 19.6813 49.0319 19.637 49.2513 19.637ZM55.485 21.576C55.7977 21.576 56.0497 21.6343 56.241 21.751C56.437 21.8677 56.5934 22.0287 56.71 22.234L56.626 22.283C56.8034 22.0217 56.99 21.8397 57.186 21.737C57.382 21.6297 57.627 21.576 57.921 21.576C58.2804 21.576 58.5837 21.6623 58.831 21.835C59.083 22.003 59.2744 22.2317 59.405 22.521C59.5404 22.8103 59.608 23.1347 59.608 23.494C59.608 23.802 59.566 24.0797 59.482 24.327C59.4027 24.5743 59.2814 24.803 59.118 25.013C58.9594 25.2183 58.761 25.412 58.523 25.594L58.152 25.167C58.3154 25.0503 58.46 24.915 58.586 24.761C58.712 24.6023 58.81 24.4203 58.88 24.215C58.9547 24.005 58.992 23.7647 58.992 23.494C58.992 23.2233 58.9477 22.983 58.859 22.773C58.7704 22.5583 58.6444 22.3903 58.481 22.269C58.3224 22.143 58.1334 22.08 57.914 22.08C57.718 22.08 57.557 22.115 57.431 22.185C57.3097 22.2503 57.2117 22.3507 57.137 22.486C57.0764 22.5933 57.0367 22.7193 57.018 22.864C56.9994 23.0087 56.99 23.2187 56.99 23.494V25.538H56.388V23.326C56.388 23.0833 56.3694 22.8803 56.332 22.717C56.2994 22.5537 56.2364 22.423 56.143 22.325C56.073 22.2457 55.9844 22.185 55.877 22.143C55.7697 22.101 55.6367 22.08 55.478 22.08C55.3334 22.08 55.2074 22.1057 55.1 22.157C54.9927 22.2037 54.9017 22.2667 54.827 22.346C54.7384 22.444 54.673 22.57 54.631 22.724C54.589 22.878 54.568 23.0997 54.568 23.389V25.538H53.966V23.494C53.966 23.228 53.9567 23.0203 53.938 22.871C53.9194 22.717 53.8774 22.5887 53.812 22.486C53.7327 22.3507 53.6324 22.2503 53.511 22.185C53.3897 22.115 53.2427 22.08 53.07 22.08C52.8554 22.08 52.664 22.143 52.496 22.269C52.3327 22.3903 52.2044 22.5583 52.111 22.773C52.0177 22.983 51.971 23.2233 51.971 23.494C51.971 23.774 52.0084 24.019 52.083 24.229C52.1624 24.439 52.265 24.6187 52.391 24.768C52.517 24.9173 52.657 25.0457 52.811 25.153L52.405 25.594C52.2044 25.4307 52.0247 25.2533 51.866 25.062C51.7074 24.866 51.5814 24.642 51.488 24.39C51.3994 24.1333 51.355 23.8347 51.355 23.494C51.355 23.116 51.425 22.7847 51.565 22.5C51.7097 22.2107 51.9127 21.9843 52.174 21.821C52.4354 21.6577 52.7434 21.576 53.098 21.576C53.3127 21.576 53.497 21.6087 53.651 21.674C53.805 21.7347 53.9357 21.8187 54.043 21.926C54.1504 22.0287 54.2414 22.1477 54.316 22.283L54.239 22.234C54.3884 22.0147 54.568 21.8513 54.778 21.744C54.9927 21.632 55.2284 21.576 55.485 21.576ZM59.1029 21.401C58.8322 21.401 58.6035 21.3543 58.4169 21.261C58.2255 21.163 58.0809 21.03 57.9829 20.862C57.8849 20.694 57.8359 20.498 57.8359 20.274C57.8359 20.19 57.8429 20.106 57.8569 20.022C57.8709 19.938 57.8872 19.868 57.9059 19.812L58.4239 19.91C58.4099 19.9567 58.4005 20.0127 58.3959 20.078C58.3865 20.1387 58.3819 20.197 58.3819 20.253C58.3819 20.4163 58.4145 20.5493 58.4799 20.652C58.5452 20.75 58.6339 20.82 58.7459 20.862C58.8532 20.904 58.9722 20.925 59.1029 20.925C59.2429 20.925 59.3665 20.904 59.4739 20.862C59.5812 20.82 59.6675 20.75 59.7329 20.652C59.7935 20.5493 59.8239 20.4163 59.8239 20.253C59.8239 20.197 59.8215 20.1387 59.8169 20.078C59.8075 20.0127 59.7959 19.9567 59.7819 19.91L60.2999 19.812C60.3185 19.868 60.3349 19.938 60.3489 20.022C60.3629 20.106 60.3699 20.19 60.3699 20.274C60.3699 20.498 60.3209 20.694 60.2229 20.862C60.1249 21.03 59.9825 21.163 59.7959 21.261C59.6045 21.3543 59.3735 21.401 59.1029 21.401ZM65.9728 25.622C65.7674 25.622 65.5808 25.5893 65.4128 25.524C65.2448 25.454 65.1024 25.349 64.9858 25.209C64.9251 25.1343 64.8668 25.0457 64.8108 24.943C64.7548 24.8403 64.7104 24.698 64.6778 24.516C64.6451 24.334 64.6288 24.089 64.6288 23.781V23.543C64.6288 23.2863 64.6171 23.0623 64.5938 22.871C64.5704 22.675 64.5191 22.5187 64.4398 22.402C64.3791 22.304 64.2951 22.227 64.1878 22.171C64.0804 22.1103 63.9241 22.08 63.7188 22.08C63.5134 22.08 63.3314 22.1407 63.1728 22.262C63.0188 22.3787 62.8998 22.5443 62.8158 22.759C62.7318 22.9737 62.6898 23.2257 62.6898 23.515C62.6898 23.7763 62.7248 24.012 62.7948 24.222C62.8694 24.432 62.9698 24.6163 63.0958 24.775C63.2218 24.929 63.3664 25.0643 63.5298 25.181L63.1588 25.615C62.9254 25.4283 62.7271 25.2323 62.5638 25.027C62.4004 24.8217 62.2768 24.593 62.1928 24.341C62.1134 24.089 62.0738 23.8067 62.0738 23.494C62.0738 23.0927 62.1414 22.7497 62.2768 22.465C62.4121 22.1757 62.6058 21.9563 62.8578 21.807C63.1098 21.653 63.4061 21.576 63.7468 21.576C64.0128 21.576 64.2368 21.6157 64.4188 21.695C64.6008 21.7697 64.7524 21.877 64.8738 22.017C64.9624 22.1197 65.0324 22.234 65.0838 22.36C65.1398 22.4813 65.1794 22.6237 65.2028 22.787C65.2261 22.9503 65.2378 23.1487 65.2378 23.382V23.725C65.2378 24.0517 65.2541 24.3013 65.2868 24.474C65.3241 24.6467 65.3848 24.782 65.4688 24.88C65.5341 24.9547 65.6134 25.013 65.7068 25.055C65.8001 25.097 65.9168 25.118 66.0568 25.118C66.1874 25.118 66.3018 25.0947 66.3998 25.048C66.4978 25.0013 66.5794 24.9383 66.6448 24.859C66.7241 24.761 66.7824 24.635 66.8198 24.481C66.8571 24.327 66.8758 24.1077 66.8758 23.823V21.66H67.4778V23.704C67.4778 23.9653 67.4871 24.173 67.5058 24.327C67.5291 24.4763 67.5711 24.6047 67.6318 24.712C67.7111 24.8473 67.8114 24.95 67.9328 25.02C68.0588 25.0853 68.2058 25.118 68.3738 25.118C68.5884 25.118 68.7774 25.0573 68.9408 24.936C69.1088 24.81 69.2394 24.6397 69.3328 24.425C69.4261 24.2103 69.4728 23.9677 69.4728 23.697C69.4728 23.4123 69.4354 23.1673 69.3608 22.962C69.2861 22.752 69.1834 22.5723 69.0528 22.423C68.9268 22.269 68.7868 22.1407 68.6328 22.038L69.0388 21.597C69.2394 21.7603 69.4191 21.94 69.5778 22.136C69.7364 22.3273 69.8601 22.5513 69.9488 22.808C70.0421 23.06 70.0888 23.3563 70.0888 23.697C70.0888 24.0517 70.0211 24.376 69.8858 24.67C69.7504 24.9593 69.5521 25.1903 69.2908 25.363C69.0341 25.5357 68.7191 25.622 68.3458 25.622C68.0424 25.622 67.7998 25.5637 67.6178 25.447C67.4358 25.3257 67.2794 25.1647 67.1488 24.964L67.1838 24.971C67.0531 25.1903 66.8874 25.3537 66.6868 25.461C66.4861 25.5683 66.2481 25.622 65.9728 25.622ZM73.9644 21.576C74.2677 21.576 74.5244 21.653 74.7344 21.807C74.949 21.9563 75.1124 22.1687 75.2244 22.444C75.341 22.7193 75.3994 23.039 75.3994 23.403C75.3994 23.8743 75.3247 24.2757 75.1754 24.607C75.0307 24.9383 74.816 25.1903 74.5314 25.363C74.2467 25.5357 73.899 25.622 73.4884 25.622C73.1524 25.622 72.8654 25.5917 72.6274 25.531C72.394 25.4657 72.1607 25.3747 71.9274 25.258L72.2284 24.782C72.4057 24.8847 72.5877 24.9663 72.7744 25.027C72.961 25.0877 73.1874 25.118 73.4534 25.118C73.794 25.118 74.06 25.0433 74.2514 24.894C74.4474 24.74 74.585 24.5347 74.6644 24.278C74.7437 24.0167 74.7834 23.725 74.7834 23.403C74.7834 22.941 74.7064 22.605 74.5524 22.395C74.403 22.185 74.2024 22.08 73.9504 22.08C73.8057 22.08 73.6844 22.108 73.5864 22.164C73.4884 22.2153 73.4114 22.29 73.3554 22.388C73.3087 22.4673 73.2784 22.5653 73.2644 22.682C73.255 22.794 73.2504 22.9527 73.2504 23.158V23.732H72.6484V23.207C72.6484 23.0157 72.639 22.85 72.6204 22.71C72.6017 22.57 72.5667 22.4603 72.5154 22.381C72.4547 22.2737 72.3754 22.1967 72.2774 22.15C72.184 22.1033 72.0767 22.08 71.9554 22.08C71.708 22.08 71.5214 22.1617 71.3954 22.325C71.274 22.4837 71.2134 22.6867 71.2134 22.934C71.2134 23.088 71.2227 23.221 71.2414 23.333C71.26 23.4403 71.2857 23.543 71.3184 23.641L70.7514 23.76C70.7047 23.6293 70.6697 23.4847 70.6464 23.326C70.623 23.1673 70.6114 23.0227 70.6114 22.892C70.6114 22.654 70.658 22.4347 70.7514 22.234C70.8494 22.0333 70.9964 21.8747 71.1924 21.758C71.393 21.6367 71.6427 21.576 71.9414 21.576C72.1887 21.576 72.394 21.6297 72.5574 21.737C72.7254 21.8397 72.8654 21.9867 72.9774 22.178L72.8864 22.171C73.0217 21.961 73.1757 21.8093 73.3484 21.716C73.5257 21.6227 73.731 21.576 73.9644 21.576ZM78.1769 21.576C78.5689 21.576 78.8816 21.639 79.1149 21.765C79.3482 21.891 79.5442 22.0543 79.7029 22.255L79.6049 22.234C79.7542 22.0147 79.9339 21.8513 80.1439 21.744C80.3586 21.632 80.5942 21.576 80.8509 21.576C81.1636 21.576 81.4179 21.6367 81.6139 21.758C81.8146 21.8747 81.9896 22.0497 82.1389 22.283L82.0479 22.437L82.3559 23.522V25.538H81.7539V23.326C81.7539 23.0693 81.7352 22.864 81.6979 22.71C81.6652 22.5513 81.6022 22.423 81.5089 22.325C81.4389 22.2457 81.3502 22.185 81.2429 22.143C81.1356 22.101 81.0026 22.08 80.8439 22.08C80.6992 22.08 80.5732 22.1057 80.4659 22.157C80.3586 22.2037 80.2676 22.2667 80.1929 22.346C80.1042 22.444 80.0389 22.57 79.9969 22.724C79.9549 22.878 79.9339 23.0997 79.9339 23.389V25.538H79.3319V23.445C79.3319 23.1417 79.3062 22.9083 79.2549 22.745C79.2036 22.577 79.1242 22.444 79.0169 22.346C78.9189 22.2573 78.7999 22.192 78.6599 22.15C78.5246 22.1033 78.3612 22.08 78.1699 22.08C77.8339 22.08 77.5422 22.1593 77.2949 22.318C77.0522 22.472 76.8632 22.6843 76.7279 22.955C76.5972 23.221 76.5319 23.5243 76.5319 23.865V23.942C76.5319 24.2033 76.5669 24.4227 76.6369 24.6C76.7069 24.7773 76.8026 24.9103 76.9239 24.999C77.0499 25.0877 77.1969 25.132 77.3649 25.132C77.4816 25.132 77.5842 25.1063 77.6729 25.055C77.7616 24.999 77.8316 24.9197 77.8829 24.817C77.9342 24.7143 77.9599 24.5883 77.9599 24.439C77.9599 24.2057 77.8992 24.0307 77.7779 23.914C77.6566 23.7927 77.4979 23.732 77.3019 23.732C77.1199 23.732 76.9472 23.7787 76.7839 23.872C76.6206 23.9653 76.4712 24.0867 76.3359 24.236L76.2309 23.802C76.3662 23.634 76.5389 23.4987 76.7489 23.396C76.9589 23.2933 77.1782 23.242 77.4069 23.242C77.6309 23.242 77.8269 23.2863 77.9949 23.375C78.1676 23.4637 78.3006 23.5943 78.3939 23.767C78.4919 23.935 78.5409 24.1403 78.5409 24.383C78.5409 24.6397 78.4919 24.8613 78.3939 25.048C78.2959 25.2347 78.1582 25.377 77.9809 25.475C77.8036 25.573 77.5936 25.622 77.3509 25.622C77.1082 25.622 76.8796 25.5613 76.6649 25.44C76.4549 25.3187 76.2846 25.1273 76.1539 24.866C76.0279 24.6047 75.9649 24.2663 75.9649 23.851C75.9649 23.3563 76.0629 22.941 76.2589 22.605C76.4596 22.269 76.7256 22.0147 77.0569 21.842C77.3929 21.6647 77.7662 21.576 78.1769 21.576ZM84.6239 25.622C84.3252 25.622 84.0709 25.5613 83.8609 25.44C83.6556 25.314 83.4992 25.132 83.3919 24.894C83.2846 24.6513 83.2309 24.3597 83.2309 24.019C83.2309 23.7483 83.2729 23.4987 83.3569 23.27C83.4456 23.0367 83.5646 22.8173 83.7139 22.612C83.8679 22.4067 84.0429 22.213 84.2389 22.031L84.4419 21.814C84.5772 21.6927 84.6916 21.5643 84.7849 21.429C84.8829 21.2937 84.9319 21.1443 84.9319 20.981C84.9319 20.855 84.8899 20.743 84.8059 20.645C84.7219 20.547 84.5819 20.498 84.3859 20.498C84.2832 20.498 84.1852 20.505 84.0919 20.519C83.9986 20.533 83.9216 20.5517 83.8609 20.575L83.7279 20.092C83.8072 20.0687 83.9146 20.0477 84.0499 20.029C84.1852 20.0057 84.3276 19.994 84.4769 19.994C84.7569 19.994 84.9739 20.0453 85.1279 20.148C85.2819 20.246 85.3892 20.3627 85.4499 20.498C85.5106 20.6333 85.5409 20.7547 85.5409 20.862C85.5409 21.1047 85.4779 21.3217 85.3519 21.513C85.2306 21.7043 85.0602 21.9003 84.8409 22.101L84.7009 22.29C84.5049 22.4533 84.3439 22.6307 84.2179 22.822C84.0919 23.0087 83.9986 23.2047 83.9379 23.41C83.8772 23.6107 83.8469 23.8183 83.8469 24.033C83.8469 24.3177 83.8819 24.5417 83.9519 24.705C84.0266 24.8637 84.1222 24.9757 84.2389 25.041C84.3602 25.1017 84.4886 25.132 84.6239 25.132C84.8806 25.132 85.0742 25.041 85.2049 24.859C85.3402 24.6723 85.4079 24.397 85.4079 24.033C85.4079 23.7903 85.3706 23.5523 85.2959 23.319C85.2212 23.081 85.1092 22.8663 84.9599 22.675C84.8106 22.4837 84.6192 22.3343 84.3859 22.227C84.2832 22.1757 84.1759 22.1383 84.0639 22.115C83.9519 22.0917 83.8282 22.08 83.6929 22.08C83.4456 22.08 83.2449 22.1057 83.0909 22.157C82.9416 22.2083 82.8202 22.2807 82.7269 22.374C82.6476 22.4533 82.5799 22.5467 82.5239 22.654C82.4679 22.7613 82.4259 22.8967 82.3979 23.06C82.3699 23.2187 82.3559 23.424 82.3559 23.676V24.838H81.8239V23.494L82.0059 22.381C82.1132 22.2037 82.2486 22.0567 82.4119 21.94C82.5752 21.8187 82.7619 21.7277 82.9719 21.667C83.1819 21.6063 83.4129 21.576 83.6649 21.576C83.8609 21.576 84.0429 21.5947 84.2109 21.632C84.3789 21.6693 84.5422 21.7277 84.7009 21.807C84.7242 21.8163 84.7476 21.828 84.7709 21.842C84.7942 21.856 84.8152 21.8677 84.8339 21.877C85.1092 22.031 85.3356 22.2247 85.5129 22.458C85.6902 22.6867 85.8209 22.934 85.9049 23.2C85.9889 23.466 86.0309 23.7297 86.0309 23.991C86.0309 24.4997 85.9096 24.8987 85.6669 25.188C85.4289 25.4773 85.0812 25.622 84.6239 25.622ZM88.8488 25.622C88.5501 25.622 88.2631 25.5823 87.9878 25.503C87.7171 25.4237 87.4744 25.3023 87.2598 25.139C87.0498 24.971 86.8818 24.7587 86.7558 24.502C86.6344 24.2407 86.5738 23.9303 86.5738 23.571C86.5738 23.2257 86.6368 22.927 86.7628 22.675C86.8888 22.423 87.0591 22.2153 87.2738 22.052C87.4931 21.8887 87.7381 21.7697 88.0088 21.695C88.2841 21.6157 88.5688 21.576 88.8628 21.576C89.1708 21.576 89.4228 21.618 89.6188 21.702C89.8194 21.7813 89.9664 21.8933 90.0598 22.038C90.1578 22.178 90.2068 22.339 90.2068 22.521C90.2068 22.7217 90.1624 22.8897 90.0738 23.025C89.9851 23.1603 89.8661 23.263 89.7168 23.333C89.5721 23.403 89.4158 23.438 89.2478 23.438C89.0004 23.438 88.8021 23.396 88.6528 23.312C88.5034 23.2233 88.3961 23.109 88.3308 22.969C88.2701 22.8243 88.2398 22.6727 88.2398 22.514C88.2398 22.4207 88.2514 22.3343 88.2748 22.255C88.3028 22.1757 88.3308 22.108 88.3588 22.052L89.0098 21.919C88.9211 21.9843 88.8534 22.0707 88.8068 22.178C88.7601 22.2853 88.7368 22.3927 88.7368 22.5C88.7368 22.6027 88.7718 22.71 88.8418 22.822C88.9164 22.9293 89.0424 22.983 89.2198 22.983C89.3738 22.983 89.4858 22.9387 89.5558 22.85C89.6258 22.7567 89.6608 22.6517 89.6608 22.535C89.6608 22.3577 89.5954 22.227 89.4648 22.143C89.3388 22.059 89.1918 22.017 89.0238 22.017C88.9584 22.017 88.8954 22.017 88.8348 22.017C88.7741 22.017 88.7111 22.0217 88.6458 22.031C88.3424 22.0543 88.0811 22.1313 87.8618 22.262C87.6471 22.3927 87.4814 22.57 87.3648 22.794C87.2528 23.0133 87.1968 23.2747 87.1968 23.578C87.1968 23.872 87.2551 24.1357 87.3718 24.369C87.4884 24.6023 87.6541 24.789 87.8688 24.929C88.0834 25.0643 88.3354 25.1413 88.6248 25.16C88.6808 25.1647 88.7368 25.1693 88.7928 25.174C88.8534 25.1787 88.9094 25.181 88.9608 25.181C89.0821 25.181 89.1918 25.1623 89.2898 25.125C89.3924 25.0877 89.4741 25.0293 89.5348 24.95C89.5954 24.8707 89.6258 24.7703 89.6258 24.649C89.6258 24.5323 89.5908 24.4297 89.5208 24.341C89.4508 24.2523 89.3364 24.208 89.1778 24.208C89.0004 24.208 88.8744 24.2617 88.7998 24.369C88.7298 24.4763 88.6948 24.5837 88.6948 24.691C88.6948 24.803 88.7181 24.9103 88.7648 25.013C88.8114 25.1157 88.8791 25.1997 88.9678 25.265L88.3238 25.132C88.2911 25.0807 88.2608 25.0153 88.2328 24.936C88.2094 24.852 88.1978 24.7587 88.1978 24.656C88.1978 24.4973 88.2304 24.3503 88.2958 24.215C88.3611 24.0797 88.4661 23.97 88.6108 23.886C88.7554 23.7973 88.9468 23.753 89.1848 23.753C89.3621 23.753 89.5254 23.788 89.6748 23.858C89.8241 23.9233 89.9431 24.0237 90.0318 24.159C90.1251 24.2943 90.1718 24.4623 90.1718 24.663C90.1718 24.845 90.1228 25.0083 90.0248 25.153C89.9314 25.2977 89.7868 25.412 89.5908 25.496C89.3948 25.58 89.1474 25.622 88.8488 25.622ZM95.9799 21.66V25.538H90.9049V23.347C90.9049 23.0017 90.9422 22.7263 91.0169 22.521C91.0962 22.3157 91.2059 22.1453 91.3459 22.01C91.4952 21.8653 91.6725 21.758 91.8779 21.688C92.0879 21.6133 92.3282 21.576 92.5989 21.576C92.8789 21.576 93.1215 21.611 93.3269 21.681C93.5369 21.751 93.7095 21.8537 93.8449 21.989C93.9942 22.1337 94.1015 22.3157 94.1669 22.535C94.2369 22.7497 94.2719 22.9993 94.2719 23.284V23.984H91.5069V25.048H95.3779V21.66H95.9799ZM92.5919 22.066C92.2139 22.066 91.9385 22.164 91.7659 22.36C91.5932 22.5513 91.5069 22.8617 91.5069 23.291V23.494H93.6699V23.298C93.6699 22.8547 93.5835 22.5397 93.4109 22.353C93.2382 22.1617 92.9652 22.066 92.5919 22.066ZM99.7205 23.585C99.7205 23.8557 99.6925 24.1123 99.6365 24.355C99.5852 24.5977 99.4965 24.8147 99.3705 25.006C99.2445 25.1973 99.0765 25.349 98.8665 25.461C98.6612 25.5683 98.4045 25.622 98.0965 25.622C97.8585 25.622 97.6508 25.5847 97.4735 25.51C97.3008 25.4307 97.1538 25.328 97.0325 25.202C96.9158 25.076 96.8225 24.9383 96.7525 24.789C96.6825 24.6397 96.6312 24.495 96.5985 24.355L97.2075 24.236C97.2402 24.362 97.2868 24.495 97.3475 24.635C97.4128 24.775 97.5038 24.894 97.6205 24.992C97.7418 25.0853 97.8982 25.132 98.0895 25.132C98.3368 25.132 98.5328 25.0667 98.6775 24.936C98.8268 24.8053 98.9342 24.6257 98.9995 24.397C99.0695 24.1637 99.1045 23.8953 99.1045 23.592C99.1045 23.2887 99.0695 23.0227 98.9995 22.794C98.9342 22.5653 98.8292 22.388 98.6845 22.262C98.5398 22.1313 98.3532 22.066 98.1245 22.066C97.9425 22.066 97.7908 22.115 97.6695 22.213C97.5482 22.3063 97.4525 22.4207 97.3825 22.556C97.3125 22.6913 97.2612 22.822 97.2285 22.948L96.6265 22.829C96.6685 22.6797 96.7268 22.5327 96.8015 22.388C96.8808 22.2387 96.9812 22.1033 97.1025 21.982C97.2238 21.8607 97.3708 21.7627 97.5435 21.688C97.7208 21.6133 97.9285 21.576 98.1665 21.576C98.4558 21.576 98.6985 21.632 98.8945 21.744C99.0952 21.8513 99.2562 22.0007 99.3775 22.192C99.4988 22.3787 99.5852 22.5933 99.6365 22.836C99.6925 23.074 99.7205 23.3237 99.7205 23.585ZM104.179 25.622C103.974 25.622 103.787 25.5893 103.619 25.524C103.451 25.454 103.309 25.349 103.192 25.209C103.131 25.1343 103.073 25.0457 103.017 24.943C102.961 24.8403 102.917 24.698 102.884 24.516C102.851 24.334 102.835 24.089 102.835 23.781V23.543C102.835 23.2863 102.823 23.0623 102.8 22.871C102.777 22.675 102.725 22.5187 102.646 22.402C102.585 22.304 102.501 22.227 102.394 22.171C102.287 22.1103 102.13 22.08 101.925 22.08C101.72 22.08 101.538 22.1407 101.379 22.262C101.225 22.3787 101.106 22.5443 101.022 22.759C100.938 22.9737 100.896 23.2257 100.896 23.515C100.896 23.7763 100.931 24.012 101.001 24.222C101.076 24.432 101.176 24.6163 101.302 24.775C101.428 24.929 101.573 25.0643 101.736 25.181L101.365 25.615C101.132 25.4283 100.933 25.2323 100.77 25.027C100.607 24.8217 100.483 24.593 100.399 24.341C100.32 24.089 100.28 23.8067 100.28 23.494C100.28 23.0927 100.348 22.7497 100.483 22.465C100.618 22.1757 100.812 21.9563 101.064 21.807C101.316 21.653 101.612 21.576 101.953 21.576C102.219 21.576 102.443 21.6157 102.625 21.695C102.807 21.7697 102.959 21.877 103.08 22.017C103.169 22.1197 103.239 22.234 103.29 22.36C103.346 22.4813 103.386 22.6237 103.409 22.787C103.432 22.9503 103.444 23.1487 103.444 23.382V23.725C103.444 24.0517 103.46 24.3013 103.493 24.474C103.53 24.6467 103.591 24.782 103.675 24.88C103.74 24.9547 103.82 25.013 103.913 25.055C104.006 25.097 104.123 25.118 104.263 25.118C104.394 25.118 104.508 25.0947 104.606 25.048C104.704 25.0013 104.786 24.9383 104.851 24.859C104.93 24.761 104.989 24.635 105.026 24.481C105.063 24.327 105.082 24.1077 105.082 23.823V21.66H105.684V23.704C105.684 23.9653 105.693 24.173 105.712 24.327C105.735 24.4763 105.777 24.6047 105.838 24.712C105.917 24.8473 106.018 24.95 106.139 25.02C106.265 25.0853 106.412 25.118 106.58 25.118C106.795 25.118 106.984 25.0573 107.147 24.936C107.315 24.81 107.446 24.6397 107.539 24.425C107.632 24.2103 107.679 23.9677 107.679 23.697C107.679 23.4123 107.642 23.1673 107.567 22.962C107.492 22.752 107.39 22.5723 107.259 22.423C107.133 22.269 106.993 22.1407 106.839 22.038L107.245 21.597C107.446 21.7603 107.625 21.94 107.784 22.136C107.943 22.3273 108.066 22.5513 108.155 22.808C108.248 23.06 108.295 23.3563 108.295 23.697C108.295 24.0517 108.227 24.376 108.092 24.67C107.957 24.9593 107.758 25.1903 107.497 25.363C107.24 25.5357 106.925 25.622 106.552 25.622C106.249 25.622 106.006 25.5637 105.824 25.447C105.642 25.3257 105.486 25.1647 105.355 24.964L105.39 24.971C105.259 25.1903 105.094 25.3537 104.893 25.461C104.692 25.5683 104.454 25.622 104.179 25.622ZM107.788 21.401C107.518 21.401 107.289 21.3543 107.102 21.261C106.911 21.163 106.766 21.03 106.668 20.862C106.57 20.694 106.521 20.498 106.521 20.274C106.521 20.19 106.528 20.106 106.542 20.022C106.556 19.938 106.573 19.868 106.591 19.812L107.109 19.91C107.095 19.9567 107.086 20.0127 107.081 20.078C107.072 20.1387 107.067 20.197 107.067 20.253C107.067 20.4163 107.1 20.5493 107.165 20.652C107.231 20.75 107.319 20.82 107.431 20.862C107.539 20.904 107.658 20.925 107.788 20.925C107.928 20.925 108.052 20.904 108.159 20.862C108.267 20.82 108.353 20.75 108.418 20.652C108.479 20.5493 108.509 20.4163 108.509 20.253C108.509 20.197 108.507 20.1387 108.502 20.078C108.493 20.0127 108.481 19.9567 108.467 19.91L108.985 19.812C109.004 19.868 109.02 19.938 109.034 20.022C109.048 20.106 109.055 20.19 109.055 20.274C109.055 20.498 109.006 20.694 108.908 20.862C108.81 21.03 108.668 21.163 108.481 21.261C108.29 21.3543 108.059 21.401 107.788 21.401ZM112.145 25.622C111.903 25.622 111.674 25.5613 111.459 25.44C111.249 25.3187 111.079 25.132 110.948 24.88C110.822 24.6233 110.759 24.3013 110.759 23.914C110.759 23.55 110.818 23.2233 110.934 22.934C111.056 22.6447 111.221 22.3997 111.431 22.199C111.646 21.9983 111.896 21.8443 112.18 21.737C112.465 21.6297 112.773 21.576 113.104 21.576C113.468 21.576 113.783 21.6273 114.049 21.73C114.315 21.8327 114.535 21.975 114.707 22.157C114.88 22.339 115.008 22.5513 115.092 22.794C115.176 23.0367 115.218 23.2957 115.218 23.571C115.218 23.8977 115.169 24.1893 115.071 24.446C114.973 24.698 114.84 24.9197 114.672 25.111C114.504 25.3023 114.311 25.4657 114.091 25.601L113.748 25.16C113.902 25.0667 114.042 24.95 114.168 24.81C114.299 24.67 114.402 24.502 114.476 24.306C114.556 24.11 114.595 23.8883 114.595 23.641C114.595 23.3237 114.537 23.0483 114.42 22.815C114.304 22.5817 114.131 22.402 113.902 22.276C113.678 22.1453 113.403 22.08 113.076 22.08C112.74 22.08 112.439 22.1617 112.173 22.325C111.912 22.4837 111.704 22.703 111.55 22.983C111.401 23.263 111.326 23.5827 111.326 23.942C111.326 24.208 111.361 24.4297 111.431 24.607C111.501 24.7843 111.599 24.9173 111.725 25.006C111.851 25.09 111.998 25.132 112.166 25.132C112.283 25.132 112.386 25.1063 112.474 25.055C112.563 24.999 112.633 24.9197 112.684 24.817C112.736 24.7097 112.761 24.5813 112.761 24.432C112.761 24.208 112.698 24.0353 112.572 23.914C112.451 23.7927 112.295 23.732 112.103 23.732C111.921 23.732 111.749 23.7787 111.585 23.872C111.422 23.9607 111.273 24.0797 111.137 24.229L111.025 23.802C111.165 23.634 111.338 23.4987 111.543 23.396C111.753 23.2933 111.973 23.242 112.201 23.242C112.43 23.242 112.628 23.2863 112.796 23.375C112.969 23.4637 113.102 23.5943 113.195 23.767C113.293 23.935 113.342 24.1403 113.342 24.383C113.342 24.6397 113.293 24.8613 113.195 25.048C113.097 25.2347 112.957 25.377 112.775 25.475C112.598 25.573 112.388 25.622 112.145 25.622ZM121.524 21.66V25.538H115.609V25.048H118.626L118.248 25.132C118.342 25.0667 118.435 24.9663 118.528 24.831C118.626 24.691 118.675 24.509 118.675 24.285C118.675 24.0423 118.612 23.8463 118.486 23.697C118.365 23.5477 118.185 23.473 117.947 23.473C117.709 23.473 117.527 23.543 117.401 23.683C117.28 23.823 117.219 24.0097 117.219 24.243C117.219 24.3037 117.222 24.3573 117.226 24.404C117.231 24.446 117.236 24.4833 117.24 24.516L116.659 24.593C116.65 24.5463 116.641 24.4857 116.631 24.411C116.622 24.3317 116.617 24.2547 116.617 24.18C116.617 23.8207 116.739 23.5313 116.981 23.312C117.229 23.0927 117.558 22.983 117.968 22.983C118.202 22.983 118.4 23.018 118.563 23.088C118.727 23.158 118.86 23.2537 118.962 23.375C119.065 23.4963 119.14 23.6317 119.186 23.781C119.238 23.9303 119.263 24.0843 119.263 24.243C119.263 24.3783 119.245 24.5043 119.207 24.621C119.175 24.733 119.128 24.8357 119.067 24.929C119.011 25.0177 118.951 25.0947 118.885 25.16L118.71 25.048H120.922V21.66H121.524ZM126.646 25.608C126.524 25.608 126.396 25.601 126.261 25.587C126.13 25.5683 125.997 25.5403 125.862 25.503C125.731 25.461 125.6 25.405 125.47 25.335C125.442 25.321 125.404 25.3047 125.358 25.286C125.316 25.2673 125.283 25.251 125.26 25.237C125.003 25.055 124.798 24.8543 124.644 24.635C124.49 24.4157 124.378 24.1823 124.308 23.935C124.238 23.6877 124.203 23.4333 124.203 23.172C124.203 22.9853 124.226 22.8127 124.273 22.654C124.319 22.4953 124.382 22.353 124.462 22.227L124.511 22.15C124.604 22.024 124.711 21.919 124.833 21.835C124.959 21.751 125.094 21.688 125.239 21.646C125.383 21.5993 125.535 21.576 125.694 21.576C126.156 21.576 126.515 21.7253 126.772 22.024C127.028 22.318 127.157 22.7147 127.157 23.214C127.157 23.634 127.068 24.0143 126.891 24.355C126.713 24.691 126.473 24.9617 126.17 25.167C126.132 25.195 126.095 25.2207 126.058 25.244C126.025 25.2627 125.985 25.2837 125.939 25.307C125.743 25.419 125.537 25.5007 125.323 25.552C125.108 25.5987 124.884 25.622 124.651 25.622C124.277 25.622 123.944 25.5613 123.65 25.44C123.36 25.3187 123.113 25.1507 122.908 24.936C122.707 24.7167 122.553 24.46 122.446 24.166C122.343 23.8673 122.292 23.543 122.292 23.193C122.292 22.8663 122.352 22.584 122.474 22.346C122.6 22.1033 122.777 21.9143 123.006 21.779C123.234 21.6437 123.503 21.576 123.811 21.576C124.081 21.576 124.31 21.625 124.497 21.723C124.683 21.8163 124.84 21.9447 124.966 22.108L124.553 22.521C124.492 22.3997 124.401 22.2947 124.28 22.206C124.163 22.1127 124.009 22.066 123.818 22.066C123.64 22.066 123.482 22.108 123.342 22.192C123.206 22.276 123.099 22.4043 123.02 22.577C122.94 22.745 122.901 22.955 122.901 23.207C122.901 23.543 122.968 23.858 123.104 24.152C123.239 24.446 123.44 24.6863 123.706 24.873C123.972 25.055 124.303 25.146 124.7 25.146C124.798 25.146 124.898 25.1413 125.001 25.132C125.103 25.118 125.204 25.0993 125.302 25.076C125.353 25.0573 125.407 25.0387 125.463 25.02C125.519 25.0013 125.57 24.9827 125.617 24.964C125.78 24.88 125.932 24.7587 126.072 24.6C126.212 24.4367 126.326 24.2383 126.415 24.005C126.503 23.7717 126.548 23.508 126.548 23.214C126.548 22.934 126.508 22.71 126.429 22.542C126.349 22.374 126.244 22.2527 126.114 22.178C125.983 22.1033 125.843 22.066 125.694 22.066C125.516 22.066 125.36 22.1103 125.225 22.199C125.094 22.2877 124.991 22.4183 124.917 22.591C124.847 22.759 124.812 22.9667 124.812 23.214C124.812 23.4613 124.849 23.704 124.924 23.942C125.003 24.1753 125.113 24.383 125.253 24.565C125.397 24.747 125.565 24.8893 125.757 24.992C125.803 25.0107 125.845 25.0223 125.883 25.027C125.92 25.027 125.962 25.0363 126.009 25.055C126.088 25.0783 126.184 25.0993 126.296 25.118C126.408 25.1367 126.524 25.146 126.646 25.146C127.033 25.146 127.353 25.0667 127.605 24.908C127.857 24.7493 128.046 24.5347 128.172 24.264C128.298 23.9933 128.361 23.69 128.361 23.354C128.361 23.0787 128.316 22.8173 128.228 22.57C128.139 22.3227 128.013 22.101 127.85 21.905L128.333 21.576C128.547 21.828 128.706 22.1057 128.809 22.409C128.916 22.7077 128.97 23.018 128.97 23.34C128.97 23.676 128.918 23.984 128.816 24.264C128.718 24.5393 128.568 24.7773 128.368 24.978C128.172 25.1787 127.929 25.335 127.64 25.447C127.35 25.5543 127.019 25.608 126.646 25.608ZM128.375 24.663V27.428H124.819L124.553 26.945L125.897 25.972C126.041 25.8647 126.223 25.748 126.443 25.622C126.662 25.4913 126.865 25.377 127.052 25.279L127.619 25.37L125.974 26.546C125.857 26.6253 125.738 26.7047 125.617 26.784C125.5 26.868 125.381 26.9497 125.26 27.029L125.253 26.98C125.374 26.9707 125.528 26.9613 125.715 26.952C125.906 26.9473 126.095 26.945 126.282 26.945H127.773V25.111L128.375 24.663ZM130.49 26.665C130.098 26.665 129.787 26.5507 129.559 26.322C129.335 26.098 129.223 25.8063 129.223 25.447C129.223 25.209 129.276 24.999 129.384 24.817C129.491 24.635 129.64 24.4927 129.832 24.39C130.023 24.2873 130.24 24.236 130.483 24.236C130.735 24.236 130.954 24.285 131.141 24.383C131.332 24.481 131.481 24.621 131.589 24.803C131.696 24.9803 131.75 25.195 131.75 25.447C131.75 25.6943 131.696 25.909 131.589 26.091C131.481 26.273 131.332 26.413 131.141 26.511C130.954 26.6137 130.737 26.665 130.49 26.665ZM130.49 26.203C130.681 26.203 130.842 26.14 130.973 26.014C131.108 25.888 131.176 25.699 131.176 25.447C131.176 25.1997 131.11 25.013 130.98 24.887C130.849 24.761 130.683 24.698 130.483 24.698C130.287 24.698 130.123 24.761 129.993 24.887C129.862 25.013 129.797 25.202 129.797 25.454C129.797 25.6967 129.862 25.881 129.993 26.007C130.128 26.1377 130.294 26.203 130.49 26.203ZM130.133 21.114C130.413 21.114 130.632 21.1677 130.791 21.275C130.954 21.3777 131.068 21.5177 131.134 21.695C131.204 21.8723 131.239 22.066 131.239 22.276C131.239 22.5607 131.197 22.899 131.113 23.291C131.033 23.6783 130.928 24.0773 130.798 24.488L130.238 24.383C130.354 23.9817 130.448 23.613 130.518 23.277C130.588 22.9363 130.623 22.6143 130.623 22.311C130.623 22.115 130.583 21.9517 130.504 21.821C130.429 21.6857 130.282 21.618 130.063 21.618C129.988 21.618 129.911 21.625 129.832 21.639C129.757 21.6483 129.694 21.66 129.643 21.674L129.524 21.191C129.598 21.1677 129.689 21.149 129.797 21.135C129.904 21.121 130.016 21.114 130.133 21.114ZM133.238 25.622C132.818 25.622 132.498 25.5193 132.279 25.314C132.059 25.1087 131.95 24.8287 131.95 24.474C131.95 24.2547 131.999 24.0657 132.097 23.907C132.195 23.7437 132.325 23.6153 132.489 23.522C132.601 23.4567 132.724 23.403 132.86 23.361C133 23.319 133.165 23.2887 133.357 23.27C133.553 23.2513 133.786 23.242 134.057 23.242H136.738C137.139 23.242 137.459 23.2653 137.697 23.312C137.939 23.3587 138.147 23.4427 138.32 23.564C138.455 23.6573 138.562 23.7787 138.642 23.928C138.726 24.0727 138.768 24.2547 138.768 24.474C138.768 24.8287 138.663 25.1087 138.453 25.314C138.243 25.5193 137.942 25.622 137.55 25.622C137.433 25.622 137.312 25.6173 137.186 25.608C137.064 25.594 136.95 25.5707 136.843 25.538L136.976 25.069C137.041 25.0877 137.118 25.104 137.207 25.118C137.3 25.1273 137.384 25.132 137.459 25.132C137.697 25.132 137.874 25.0783 137.991 24.971C138.107 24.859 138.166 24.6957 138.166 24.481C138.166 24.3457 138.14 24.236 138.089 24.152C138.037 24.0633 137.97 23.991 137.886 23.935C137.755 23.851 137.594 23.7973 137.403 23.774C137.216 23.746 136.976 23.732 136.682 23.732H134.043C133.711 23.732 133.457 23.746 133.28 23.774C133.107 23.7973 132.955 23.851 132.825 23.935C132.741 23.9863 132.673 24.0563 132.622 24.145C132.575 24.2337 132.552 24.3387 132.552 24.46C132.552 24.614 132.58 24.7423 132.636 24.845C132.696 24.943 132.78 25.0153 132.888 25.062C132.995 25.1087 133.119 25.132 133.259 25.132C133.408 25.132 133.557 25.1087 133.707 25.062C133.861 25.0107 134.022 24.922 134.19 24.796L134.54 25.174C134.4 25.2767 134.262 25.3607 134.127 25.426C133.991 25.4913 133.851 25.5403 133.707 25.573C133.567 25.6057 133.41 25.622 133.238 25.622ZM135.387 21.576C135.76 21.576 136.066 21.6647 136.304 21.842C136.546 22.0147 136.726 22.2527 136.843 22.556C136.959 22.8547 137.018 23.1977 137.018 23.585C137.018 24.0237 136.952 24.3947 136.822 24.698C136.691 25.0013 136.504 25.2323 136.262 25.391C136.019 25.545 135.73 25.622 135.394 25.622C135.142 25.622 134.913 25.58 134.708 25.496C134.507 25.4073 134.334 25.2767 134.19 25.104C134.045 24.9313 133.933 24.719 133.854 24.467C133.779 24.2103 133.742 23.9163 133.742 23.585C133.742 22.9597 133.889 22.4697 134.183 22.115C134.477 21.7557 134.878 21.576 135.387 21.576ZM135.387 22.066C135.032 22.066 134.768 22.192 134.596 22.444C134.428 22.696 134.344 23.0787 134.344 23.592C134.344 23.9373 134.381 24.2243 134.456 24.453C134.535 24.6817 134.652 24.852 134.806 24.964C134.96 25.076 135.149 25.132 135.373 25.132C135.601 25.132 135.793 25.0783 135.947 24.971C136.101 24.859 136.217 24.6887 136.297 24.46C136.376 24.2313 136.416 23.942 136.416 23.592C136.416 23.242 136.376 22.955 136.297 22.731C136.222 22.5023 136.108 22.3343 135.954 22.227C135.8 22.1197 135.611 22.066 135.387 22.066Z" fill="black" fill-opacity="0.6063"/>
<defs>
<filter id="filter0_dd_976_1846" x="11.0938" y="7.25" width="11.8125" height="5.625" filterUnits="userSpaceOnUse" color-interpolation-filters="sRGB">
<feFlood flood-opacity="0" result="BackgroundImageFix"/>
<feColorMatrix in="SourceAlpha" type="matrix" values="0 0 0 0 0 0 0 0 0 0 0 0 0 0 0 0 0 0 127 0" result="hardAlpha"/>
<feOffset dy="0.1875"/>
<feGaussianBlur stdDeviation="0.1875"/>
<feColorMatrix type="matrix" values="0 0 0 0 0 0 0 0 0 0 0 0 0 0 0 0 0 0 0.1 0"/>
<feBlend mode="normal" in2="BackgroundImageFix" result="effect1_dropShadow_976_1846"/>
<feColorMatrix in="SourceAlpha" type="matrix" values="0 0 0 0 0 0 0 0 0 0 0 0 0 0 0 0 0 0 127 0" result="hardAlpha"/>
<feOffset dy="0.375"/>
<feGaussianBlur stdDeviation="0.5625"/>
<feColorMatrix type="matrix" values="0 0 0 0 0 0 0 0 0 0 0 0 0 0 0 0 0 0 0.2 0"/>
<feBlend mode="normal" in2="effect1_dropShadow_976_1846" result="effect2_dropShadow_976_1846"/>
<feBlend mode="normal" in="SourceGraphic" in2="effect2_dropShadow_976_1846" result="shape"/>
</filter>
<filter id="filter1_dd_976_1846" x="12.2188" y="13.4375" width="9.5625" height="9.5625" filterUnits="userSpaceOnUse" color-interpolation-filters="sRGB">
<feFlood flood-opacity="0" result="BackgroundImageFix"/>
<feColorMatrix in="SourceAlpha" type="matrix" values="0 0 0 0 0 0 0 0 0 0 0 0 0 0 0 0 0 0 127 0" result="hardAlpha"/>
<feOffset dy="0.1875"/>
<feGaussianBlur stdDeviation="0.1875"/>
<feColorMatrix type="matrix" values="0 0 0 0 0 0 0 0 0 0 0 0 0 0 0 0 0 0 0.1 0"/>
<feBlend mode="normal" in2="BackgroundImageFix" result="effect1_dropShadow_976_1846"/>
<feColorMatrix in="SourceAlpha" type="matrix" values="0 0 0 0 0 0 0 0 0 0 0 0 0 0 0 0 0 0 127 0" result="hardAlpha"/>
<feOffset dy="0.375"/>
<feGaussianBlur stdDeviation="0.5625"/>
<feColorMatrix type="matrix" values="0 0 0 0 0 0 0 0 0 0 0 0 0 0 0 0 0 0 0.2 0"/>
<feBlend mode="normal" in2="effect1_dropShadow_976_1846" result="effect2_dropShadow_976_1846"/>
<feBlend mode="normal" in="SourceGraphic" in2="effect2_dropShadow_976_1846" result="shape"/>
</filter>
<filter id="filter2_dd_976_1846" x="10.5939" y="6.6875" width="12.8124" height="5.06274" filterUnits="userSpaceOnUse" color-interpolation-filters="sRGB">
<feFlood flood-opacity="0" result="BackgroundImageFix"/>
<feColorMatrix in="SourceAlpha" type="matrix" values="0 0 0 0 0 0 0 0 0 0 0 0 0 0 0 0 0 0 127 0" result="hardAlpha"/>
<feOffset dy="-0.75"/>
<feGaussianBlur stdDeviation="0.1875"/>
<feColorMatrix type="matrix" values="0 0 0 0 0 0 0 0 0 0 0 0 0 0 0 0 0 0 0.1 0"/>
<feBlend mode="normal" in2="BackgroundImageFix" result="effect1_dropShadow_976_1846"/>
<feColorMatrix in="SourceAlpha" type="matrix" values="0 0 0 0 0 0 0 0 0 0 0 0 0 0 0 0 0 0 127 0" result="hardAlpha"/>
<feOffset dy="-0.75"/>
<feGaussianBlur stdDeviation="0.5625"/>
<feColorMatrix type="matrix" values="0 0 0 0 0 0 0 0 0 0 0 0 0 0 0 0 0 0 0.2 0"/>
<feBlend mode="normal" in2="effect1_dropShadow_976_1846" result="effect2_dropShadow_976_1846"/>
<feBlend mode="normal" in="SourceGraphic" in2="effect2_dropShadow_976_1846" result="shape"/>
</filter>
<linearGradient id="paint0_linear_976_1846" x1="17" y1="10.25" x2="20.3514" y2="25.9624" gradientUnits="userSpaceOnUse">
<stop stop-color="#0669BC"/>
<stop offset="1" stop-color="#243A5F"/>
</linearGradient>
<linearGradient id="paint1_linear_976_1846" x1="17" y1="10.25" x2="20.3514" y2="25.9624" gradientUnits="userSpaceOnUse">
<stop stop-color="#0078D4"/>
<stop offset="1" stop-color="#114A8B"/>
</linearGradient>
<linearGradient id="paint2_linear_976_1846" x1="17" y1="8.5625" x2="17.1583" y2="10.9858" gradientUnits="userSpaceOnUse">
<stop stop-color="#28AFEA"/>
<stop offset="1" stop-color="#0078D4"/>
</linearGradient>
<linearGradient id="paint3_linear_976_1846" x1="17" y1="8.5625" x2="17.1583" y2="10.9858" gradientUnits="userSpaceOnUse">
<stop stop-color="#30DAFF"/>
<stop offset="1" stop-color="#0094D4"/>
</linearGradient>
<linearGradient id="paint4_linear_976_1846" x1="16.5938" y1="8" x2="16.5937" y2="9.125" gradientUnits="userSpaceOnUse">
<stop stop-color="#22BCFF"/>
<stop offset="1" stop-color="#0088F0"/>
</linearGradient>
<linearGradient id="paint5_linear_976_1846" x1="16.5938" y1="8" x2="16.5937" y2="9.125" gradientUnits="userSpaceOnUse">
<stop stop-color="#28AFEA"/>
<stop offset="1" stop-color="#3CCBF4"/>
</linearGradient>
<clipPath id="clip0_976_1846">
<rect width="18" height="18" fill="white" transform="translate(8 8)"/>
</clipPath>
<clipPath id="clip1_976_1846">
<rect width="18" height="18" fill="white" transform="translate(8 8)"/>
</clipPath>
</defs>
</svg>
