<svg width="116" height="34" viewBox="0 0 116 34" fill="none" xmlns="http://www.w3.org/2000/svg">
<rect x="1" y="1" width="114" height="32" rx="4" fill="#FDFDFD"/>
<rect x="0.5" y="0.5" width="115" height="33" rx="4.5" stroke="black" stroke-opacity="0.0578"/>
<g clip-path="url(#clip0_976_1844)">
<g clip-path="url(#clip1_976_1844)">
<path d="M8.28125 11C8.28125 10.5858 8.61704 10.25 9.03125 10.25H24.9687C25.383 10.25 25.7188 10.5858 25.7188 11V22.3438C25.7188 24.0524 24.3336 25.4375 22.625 25.4375H11.375C9.66637 25.4375 8.28125 24.0524 8.28125 22.3438V11Z" fill="url(#paint0_linear_976_1844)"/>
<mask id="mask0_976_1844" style="mask-type:alpha" maskUnits="userSpaceOnUse" x="8" y="10" width="18" height="16">
<path d="M8.28125 11C8.28125 10.5858 8.61704 10.25 9.03125 10.25H24.9687C25.383 10.25 25.7188 10.5858 25.7188 11V22.3438C25.7188 24.0524 24.3336 25.4375 22.625 25.4375H11.375C9.66637 25.4375 8.28125 24.0524 8.28125 22.3438V11Z" fill="url(#paint1_linear_976_1844)"/>
</mask>
<g mask="url(#mask0_976_1844)">
<g filter="url(#filter0_dd_976_1844)">
<path d="M12.7812 10.8125V8.5625H21.2187V10.8125" stroke="url(#paint2_linear_976_1844)" stroke-width="1.125" stroke-linecap="round"/>
</g>
</g>
<g filter="url(#filter1_dd_976_1844)">
<path d="M16.719 14.1875H13.344V17.5625H16.719V14.1875Z" fill="#F25022"/>
<path d="M20.6562 14.1875H17.2812V17.5625H20.6562V14.1875Z" fill="#7FBA00"/>
<path d="M20.6562 18.125H17.2812V21.5H20.6562V18.125Z" fill="#FFB900"/>
<path d="M16.7188 18.125H13.3438V21.5H16.7188V18.125Z" fill="#00A4EF"/>
</g>
<path d="M12.7812 10.8125V9.125C12.7812 8.81434 13.0331 8.5625 13.3438 8.5625H20.6563C20.9669 8.5625 21.2188 8.81434 21.2188 9.125V10.8125" stroke="url(#paint3_linear_976_1844)" stroke-width="1.125" stroke-linecap="round"/>
<rect x="13.3438" y="8" width="7.3125" height="1.125" fill="url(#paint4_linear_976_1844)"/>
<mask id="mask1_976_1844" style="mask-type:alpha" maskUnits="userSpaceOnUse" x="13" y="8" width="8" height="2">
<rect x="13.3438" y="8" width="7.3125" height="1.125" fill="url(#paint5_linear_976_1844)"/>
</mask>
<g mask="url(#mask1_976_1844)">
<g filter="url(#filter2_dd_976_1844)">
<rect x="11.7189" y="8.56274" width="1.625" height="2.8125" fill="#C4C4C4"/>
</g>
</g>
</g>
</g>
<path d="M35.6396 13H35.0688V9.71191C35.0688 9.58203 35.0723 9.43734 35.0791 9.27783C35.0882 9.11833 35.1007 8.94515 35.1167 8.7583H35.103C35.0757 8.86768 35.0495 8.96224 35.0244 9.04199C35.0016 9.12174 34.9788 9.18555 34.9561 9.2334L33.2812 13H33.001L31.3296 9.26074C31.3068 9.20605 31.2829 9.13656 31.2578 9.05225C31.2327 8.96794 31.2077 8.86995 31.1826 8.7583H31.1689C31.1781 8.85628 31.1849 8.98503 31.1895 9.14453C31.194 9.30404 31.1963 9.49544 31.1963 9.71875V13H30.6426V8.09863H31.4014L32.9053 11.5166C32.9645 11.6465 33.0124 11.7604 33.0488 11.8584C33.0876 11.9564 33.1149 12.0384 33.1309 12.1045H33.1514C33.2015 11.9701 33.2459 11.8527 33.2847 11.7524C33.3234 11.6522 33.3576 11.569 33.3872 11.5029L34.9219 8.09863H35.6396V13ZM39.6865 13H39.126V12.4463H39.1123C38.9961 12.6582 38.848 12.8177 38.668 12.9248C38.488 13.0296 38.276 13.082 38.0322 13.082C37.6152 13.082 37.3019 12.9578 37.0923 12.7095C36.8849 12.4611 36.7812 12.0885 36.7812 11.5918V9.5H37.3384V11.5029C37.3384 11.8721 37.409 12.1489 37.5503 12.3335C37.6916 12.5181 37.9035 12.6104 38.186 12.6104C38.4595 12.6104 38.6839 12.5101 38.8594 12.3096C39.0371 12.1068 39.126 11.8424 39.126 11.5166V9.5H39.6865V13ZM43.2993 13H42.7388V12.4531H42.7251C42.6043 12.6628 42.4551 12.82 42.2773 12.9248C42.1019 13.0296 41.8968 13.082 41.6621 13.082C41.334 13.082 41.0685 12.9863 40.8657 12.7949C40.6629 12.6035 40.5615 12.3494 40.5615 12.0327C40.5615 11.7342 40.6641 11.487 40.8691 11.291C41.0742 11.0951 41.3647 10.9697 41.7407 10.915L42.7388 10.7817V10.7031C42.7388 10.4092 42.6704 10.2007 42.5337 10.0776C42.397 9.95231 42.2147 9.88965 41.9868 9.88965C41.8045 9.88965 41.6291 9.92383 41.4604 9.99219C41.2918 10.0605 41.1335 10.1654 40.9854 10.3066L40.6572 9.96826C40.8532 9.77913 41.0617 9.64014 41.2827 9.55127C41.5037 9.4624 41.7498 9.41797 42.021 9.41797C42.4448 9.41797 42.7638 9.52734 42.978 9.74609C43.1922 9.96257 43.2993 10.2884 43.2993 10.7236V13ZM42.7388 11.5781V11.2295L41.8945 11.3457C41.637 11.3822 41.4434 11.4471 41.3135 11.5405C41.1836 11.634 41.1187 11.7809 41.1187 11.9814C41.1187 12.1911 41.179 12.3517 41.2998 12.4634C41.4229 12.5728 41.5721 12.6274 41.7476 12.6274C42.0506 12.6274 42.291 12.5283 42.4688 12.3301C42.6488 12.1318 42.7388 11.8812 42.7388 11.5781ZM46.0508 12.959C45.9551 12.9977 45.8605 13.0262 45.7671 13.0444C45.6759 13.0649 45.5723 13.0752 45.4561 13.0752C45.1781 13.0752 44.9593 12.9943 44.7998 12.8325C44.6426 12.6685 44.564 12.4269 44.564 12.1079V9.97852H43.9624V9.5H44.564V8.64551L45.1245 8.46436V9.5H46.0063V9.97852H45.1245V12.043C45.1245 12.2435 45.1598 12.3882 45.2305 12.4771C45.3034 12.5659 45.4116 12.6104 45.5552 12.6104C45.6235 12.6104 45.6896 12.6024 45.7534 12.5864C45.8172 12.5705 45.8708 12.5522 45.9141 12.5317L46.0508 12.959ZM50.3438 12.959C50.248 12.9977 50.1535 13.0262 50.0601 13.0444C49.9689 13.0649 49.8652 13.0752 49.749 13.0752C49.471 13.0752 49.2523 12.9943 49.0928 12.8325C48.9355 12.6685 48.8569 12.4269 48.8569 12.1079V9.97852H48.2554V9.5H48.8569V8.64551L49.4175 8.46436V9.5H50.2993V9.97852H49.4175V12.043C49.4175 12.2435 49.4528 12.3882 49.5234 12.4771C49.5964 12.5659 49.7046 12.6104 49.8481 12.6104C49.9165 12.6104 49.9826 12.6024 50.0464 12.5864C50.1102 12.5705 50.1637 12.5522 50.207 12.5317L50.3438 12.959ZM53.8779 13H53.3174V12.4463H53.3037C53.1875 12.6582 53.0394 12.8177 52.8594 12.9248C52.6794 13.0296 52.4674 13.082 52.2236 13.082C51.8066 13.082 51.4933 12.9578 51.2837 12.7095C51.0763 12.4611 50.9727 12.0885 50.9727 11.5918V9.5H51.5298V11.5029C51.5298 11.8721 51.6004 12.1489 51.7417 12.3335C51.883 12.5181 52.0949 12.6104 52.3774 12.6104C52.6509 12.6104 52.8753 12.5101 53.0508 12.3096C53.2285 12.1068 53.3174 11.8424 53.3174 11.5166V9.5H53.8779V13ZM56.7388 9.97852C56.6955 9.96484 56.6567 9.95573 56.6226 9.95117C56.5884 9.94434 56.5451 9.94092 56.4927 9.94092C56.2078 9.94092 55.9834 10.0628 55.8193 10.3066C55.6553 10.5482 55.5732 10.8512 55.5732 11.2158V13H55.0127V9.5H55.5732V10.1938H55.5869C55.6667 9.94775 55.7886 9.7609 55.9526 9.6333C56.1167 9.50342 56.3058 9.43848 56.52 9.43848C56.5907 9.43848 56.6499 9.44189 56.6978 9.44873C56.7479 9.45557 56.7923 9.46582 56.8311 9.47949L56.7388 9.97852ZM60.2764 13H59.7158V12.4463H59.7021C59.5859 12.6582 59.4378 12.8177 59.2578 12.9248C59.0778 13.0296 58.8659 13.082 58.6221 13.082C58.2051 13.082 57.8918 12.9578 57.6821 12.7095C57.4748 12.4611 57.3711 12.0885 57.3711 11.5918V9.5H57.9282V11.5029C57.9282 11.8721 57.9989 12.1489 58.1401 12.3335C58.2814 12.5181 58.4933 12.6104 58.7759 12.6104C59.0493 12.6104 59.2738 12.5101 59.4492 12.3096C59.627 12.1068 59.7158 11.8424 59.7158 11.5166V9.5H60.2764V13ZM64.3164 13H63.7559V11.0039C63.7559 10.6325 63.6875 10.3545 63.5508 10.1699C63.4163 9.98307 63.2135 9.88965 62.9424 9.88965C62.6621 9.88965 62.4297 9.99561 62.2451 10.2075C62.0628 10.4172 61.9717 10.6826 61.9717 11.0039V13H61.4111V9.5H61.9717V10.0811H61.9854C62.1175 9.86003 62.2793 9.69482 62.4707 9.58545C62.6621 9.4738 62.8831 9.41797 63.1338 9.41797C63.5166 9.41797 63.8094 9.54215 64.0122 9.79053C64.215 10.0366 64.3164 10.3932 64.3164 10.8604V13ZM69.71 12.4053C69.5801 12.6309 69.4149 12.8006 69.2144 12.9146C69.0161 13.0262 68.7803 13.082 68.5068 13.082C68.0671 13.082 67.715 12.9259 67.4507 12.6138C67.1886 12.2993 67.0576 11.8721 67.0576 11.332C67.0576 10.7533 67.2035 10.2896 67.4951 9.94092C67.7868 9.59229 68.1753 9.41797 68.6606 9.41797C68.9022 9.41797 69.1095 9.46582 69.2827 9.56152C69.4582 9.65495 69.6006 9.79622 69.71 9.98535H69.7236V7.81836H70.2842V13H69.7236V12.4053H69.71ZM67.6318 11.3047C67.6318 11.708 67.7253 12.027 67.9121 12.2617C68.1012 12.4941 68.3542 12.6104 68.6709 12.6104C68.9854 12.6104 69.2394 12.4976 69.4331 12.272C69.6268 12.0464 69.7236 11.7616 69.7236 11.4175V10.9014C69.7236 10.6188 69.6291 10.3796 69.4399 10.1836C69.2531 9.98763 69.0173 9.88965 68.7324 9.88965C68.3906 9.88965 68.1217 10.015 67.9258 10.2656C67.7298 10.5163 67.6318 10.8626 67.6318 11.3047ZM73.897 13H73.3364V12.4531H73.3228C73.202 12.6628 73.0527 12.82 72.875 12.9248C72.6995 13.0296 72.4945 13.082 72.2598 13.082C71.9316 13.082 71.6662 12.9863 71.4634 12.7949C71.2606 12.6035 71.1592 12.3494 71.1592 12.0327C71.1592 11.7342 71.2617 11.487 71.4668 11.291C71.6719 11.0951 71.9624 10.9697 72.3384 10.915L73.3364 10.7817V10.7031C73.3364 10.4092 73.2681 10.2007 73.1313 10.0776C72.9946 9.95231 72.8123 9.88965 72.5845 9.88965C72.4022 9.88965 72.2267 9.92383 72.0581 9.99219C71.8895 10.0605 71.7311 10.1654 71.583 10.3066L71.2549 9.96826C71.4508 9.77913 71.6593 9.64014 71.8804 9.55127C72.1014 9.4624 72.3475 9.41797 72.6187 9.41797C73.0425 9.41797 73.3615 9.52734 73.5757 9.74609C73.7899 9.96257 73.897 10.2884 73.897 10.7236V13ZM73.3364 11.5781V11.2295L72.4922 11.3457C72.2347 11.3822 72.041 11.4471 71.9111 11.5405C71.7812 11.634 71.7163 11.7809 71.7163 11.9814C71.7163 12.1911 71.7767 12.3517 71.8975 12.4634C72.0205 12.5728 72.1698 12.6274 72.3452 12.6274C72.6483 12.6274 72.8887 12.5283 73.0664 12.3301C73.2464 12.1318 73.3364 11.8812 73.3364 11.5781ZM76.7065 9.97852C76.6632 9.96484 76.6245 9.95573 76.5903 9.95117C76.5562 9.94434 76.5129 9.94092 76.4604 9.94092C76.1756 9.94092 75.9512 10.0628 75.7871 10.3066C75.623 10.5482 75.541 10.8512 75.541 11.2158V13H74.9805V9.5H75.541V10.1938H75.5547C75.6344 9.94775 75.7563 9.7609 75.9204 9.6333C76.0845 9.50342 76.2736 9.43848 76.4878 9.43848C76.5584 9.43848 76.6177 9.44189 76.6655 9.44873C76.7157 9.45557 76.7601 9.46582 76.7988 9.47949L76.7065 9.97852ZM77.7012 8.6626C77.5872 8.6626 77.4915 8.625 77.4141 8.5498C77.3366 8.47233 77.2979 8.37777 77.2979 8.26611C77.2979 8.15446 77.3366 8.06104 77.4141 7.98584C77.4915 7.90837 77.5872 7.86963 77.7012 7.86963C77.8151 7.86963 77.9108 7.90837 77.9883 7.98584C78.0658 8.06104 78.1045 8.15446 78.1045 8.26611C78.1045 8.37777 78.0658 8.47233 77.9883 8.5498C77.9108 8.625 77.8151 8.6626 77.7012 8.6626ZM77.9746 13H77.4141V9.5H77.9746V13Z" fill="black" fill-opacity="0.6063"/>
<path d="M39.2275 25H37.96V20.0854C37.96 19.8634 37.9653 19.6217 37.9761 19.3604C37.9904 19.0954 38.0083 18.8143 38.0298 18.5171H37.9976C37.9546 18.7212 37.9134 18.8966 37.874 19.0435C37.8382 19.1867 37.8024 19.3013 37.7666 19.3872L35.5054 25H34.6245L32.3525 19.4355C32.3239 19.3568 32.2881 19.2404 32.2451 19.0864C32.2057 18.9325 32.1628 18.7427 32.1162 18.5171H32.084C32.1055 18.7749 32.1198 19.0488 32.127 19.3389C32.1341 19.6253 32.1377 19.9279 32.1377 20.2466V25H30.9561V17.2979H32.7607L34.7642 22.3037C34.8429 22.4935 34.9074 22.6689 34.9575 22.8301C35.0112 22.9876 35.0524 23.1344 35.0811 23.2705H35.1133C35.1777 23.0664 35.2386 22.882 35.2959 22.7173C35.3532 22.5526 35.4069 22.4093 35.457 22.2876L37.4873 17.2979H39.2275V25ZM41.6177 18.4365C41.3885 18.4365 41.1987 18.3631 41.0483 18.2163C40.8979 18.0695 40.8228 17.8887 40.8228 17.6738C40.8228 17.4518 40.8979 17.2692 41.0483 17.126C41.1987 16.9827 41.3885 16.9111 41.6177 16.9111C41.8504 16.9111 42.042 16.9827 42.1924 17.126C42.3428 17.2692 42.418 17.4518 42.418 17.6738C42.418 17.8923 42.3428 18.0749 42.1924 18.2217C42.042 18.3649 41.8504 18.4365 41.6177 18.4365ZM42.2354 25H40.9839V19.5H42.2354V25ZM47.9824 24.6616C47.7103 24.8263 47.4399 24.9445 47.1714 25.0161C46.9028 25.0913 46.611 25.1289 46.2959 25.1289C45.4508 25.1289 44.7741 24.8818 44.2656 24.3877C43.7607 23.8936 43.5083 23.2222 43.5083 22.3735C43.5083 21.4604 43.7697 20.7318 44.2925 20.1875C44.8188 19.6432 45.5278 19.3711 46.4194 19.3711C46.731 19.3711 47.0138 19.4051 47.2681 19.4731C47.5259 19.5376 47.7873 19.645 48.0522 19.7954L47.5635 20.6655C47.3773 20.5617 47.1947 20.4865 47.0156 20.4399C46.8366 20.3898 46.6414 20.3647 46.4302 20.3647C45.9038 20.3647 45.4974 20.5384 45.2109 20.8857C44.9245 21.2331 44.7812 21.6932 44.7812 22.2661C44.7812 22.8677 44.9352 23.3296 45.2432 23.6519C45.5547 23.9741 45.945 24.1353 46.4141 24.1353C46.5573 24.1353 46.722 24.1102 46.9082 24.0601C47.0944 24.0063 47.2824 23.9222 47.4722 23.8076L47.9824 24.6616ZM52.1021 20.5474C52.034 20.5295 51.9678 20.5169 51.9033 20.5098C51.8424 20.499 51.7708 20.4937 51.6885 20.4937C51.2409 20.4937 50.8971 20.6584 50.6572 20.9878C50.4173 21.3172 50.2974 21.7469 50.2974 22.2769V25H49.0459V19.5H50.2974V20.5581H50.3188C50.4478 20.1785 50.6375 19.8921 50.8882 19.6987C51.1388 19.5018 51.4342 19.4033 51.7744 19.4033C51.8711 19.4033 51.957 19.4087 52.0322 19.4194C52.111 19.4302 52.1862 19.4463 52.2578 19.4678L52.1021 20.5474ZM55.5557 25.1289C54.6963 25.1289 54.0142 24.8729 53.5093 24.3608C53.008 23.8452 52.7573 23.1559 52.7573 22.293C52.7609 21.3799 53.0223 20.6655 53.5415 20.1499C54.0607 19.6307 54.7679 19.3711 55.6631 19.3711C56.526 19.3675 57.1992 19.6217 57.6826 20.1338C58.1696 20.6423 58.4131 21.3315 58.4131 22.2017C58.4131 23.0968 58.1553 23.8094 57.6396 24.3394C57.1276 24.8657 56.4329 25.1289 55.5557 25.1289ZM55.6147 24.1353C56.1125 24.1353 56.4902 23.9723 56.748 23.6465C57.0094 23.3206 57.1401 22.8498 57.1401 22.2339C57.1401 21.6252 57.0094 21.1615 56.748 20.8428C56.4867 20.5241 56.1071 20.3647 55.6094 20.3647C55.1188 20.3647 54.7321 20.533 54.4492 20.8696C54.1699 21.2062 54.0303 21.6717 54.0303 22.2661C54.0303 22.8641 54.1699 23.326 54.4492 23.6519C54.7285 23.9741 55.117 24.1353 55.6147 24.1353ZM59.1543 24.5596L59.6968 23.6787C59.9116 23.8291 60.139 23.9508 60.3789 24.0439C60.6224 24.1335 60.8856 24.1782 61.1685 24.1782C61.4764 24.1782 61.7145 24.1227 61.8828 24.0117C62.0547 23.8971 62.1406 23.7271 62.1406 23.5015C62.1406 23.3224 62.069 23.1738 61.9258 23.0557C61.7861 22.9339 61.5462 22.8337 61.2061 22.7549C60.5186 22.5938 60.0352 22.3807 59.7559 22.1157C59.4801 21.8507 59.3423 21.5016 59.3423 21.0684C59.3423 20.5706 59.5356 20.1642 59.9224 19.8491C60.3091 19.5304 60.8158 19.3711 61.4424 19.3711C61.7539 19.3711 62.0511 19.4123 62.334 19.4946C62.6169 19.5734 62.8926 19.7005 63.1611 19.876L62.6562 20.7354C62.4199 20.585 62.2033 20.4775 62.0063 20.4131C61.8094 20.3486 61.6071 20.3164 61.3994 20.3164C61.1058 20.3164 60.8766 20.3719 60.7119 20.4829C60.5508 20.5903 60.4702 20.7407 60.4702 20.9341C60.4702 21.1382 60.5526 21.2904 60.7173 21.3906C60.8856 21.4873 61.1667 21.5822 61.5605 21.6753C62.1549 21.8185 62.59 22.0262 62.8657 22.2983C63.1414 22.5669 63.2793 22.9268 63.2793 23.3779C63.2793 23.9115 63.0841 24.3376 62.6938 24.6562C62.3071 24.9714 61.7826 25.1289 61.1201 25.1289C60.762 25.1289 60.4183 25.0824 60.0889 24.9893C59.763 24.8926 59.4515 24.7493 59.1543 24.5596ZM66.8779 25.1289C66.0186 25.1289 65.3364 24.8729 64.8315 24.3608C64.3302 23.8452 64.0796 23.1559 64.0796 22.293C64.0832 21.3799 64.3446 20.6655 64.8638 20.1499C65.383 19.6307 66.0902 19.3711 66.9854 19.3711C67.8483 19.3675 68.5215 19.6217 69.0049 20.1338C69.4919 20.6423 69.7354 21.3315 69.7354 22.2017C69.7354 23.0968 69.4775 23.8094 68.9619 24.3394C68.4499 24.8657 67.7552 25.1289 66.8779 25.1289ZM66.937 24.1353C67.4347 24.1353 67.8125 23.9723 68.0703 23.6465C68.3317 23.3206 68.4624 22.8498 68.4624 22.2339C68.4624 21.6252 68.3317 21.1615 68.0703 20.8428C67.8089 20.5241 67.4294 20.3647 66.9316 20.3647C66.4411 20.3647 66.0544 20.533 65.7715 20.8696C65.4922 21.2062 65.3525 21.6717 65.3525 22.2661C65.3525 22.8641 65.4922 23.326 65.7715 23.6519C66.0508 23.9741 66.4393 24.1353 66.937 24.1353ZM73.9839 17.8403C73.8836 17.8009 73.7923 17.7741 73.71 17.7598C73.6276 17.7419 73.5381 17.7329 73.4414 17.7329C73.1764 17.7329 72.9759 17.8099 72.8398 17.9639C72.7074 18.1143 72.6411 18.3327 72.6411 18.6191V19.5H73.9141V20.4775H72.6411V25H71.395V20.4775H70.4604V19.5H71.395V18.5547C71.395 17.9961 71.5741 17.5539 71.9321 17.228C72.2938 16.8986 72.7718 16.7339 73.3662 16.7339C73.5524 16.7339 73.7135 16.7464 73.8496 16.7715C73.9857 16.7965 74.1271 16.8324 74.2739 16.8789L73.9839 17.8403ZM77.7974 24.9248C77.6362 24.9928 77.4679 25.043 77.2925 25.0752C77.117 25.1074 76.929 25.1235 76.7285 25.1235C76.2201 25.1235 75.828 24.9893 75.5522 24.7207C75.2801 24.4486 75.144 24.0439 75.144 23.5068V20.4775H74.2202V19.5H75.144V18.1626L76.3901 17.7866V19.5H77.7061V20.4775H76.3901V23.4048C76.3901 23.6733 76.4385 23.8667 76.5352 23.9849C76.6354 24.103 76.7894 24.1621 76.9971 24.1621C77.0973 24.1621 77.1922 24.1514 77.2817 24.1299C77.3748 24.1048 77.4572 24.0744 77.5288 24.0386L77.7974 24.9248ZM81.2939 24.4468L81.8633 23.4639C82.2106 23.6787 82.5347 23.8309 82.8354 23.9204C83.1362 24.0063 83.4728 24.0493 83.8452 24.0493C84.2892 24.0493 84.6383 23.9544 84.8926 23.7646C85.1504 23.5713 85.2793 23.2956 85.2793 22.9375C85.2793 22.6117 85.1719 22.3556 84.957 22.1694C84.7458 21.9797 84.3859 21.806 83.8774 21.6484C83.0933 21.4157 82.5168 21.1274 82.1479 20.7837C81.7791 20.4399 81.5947 19.9744 81.5947 19.3872C81.5947 18.7498 81.8328 18.2217 82.3091 17.8027C82.7853 17.3802 83.4316 17.1689 84.248 17.1689C84.6061 17.1689 84.9588 17.2083 85.3062 17.2871C85.6535 17.3659 85.9972 17.4876 86.3374 17.6523L85.8594 18.6729C85.5622 18.5189 85.2775 18.4097 85.0054 18.3452C84.7368 18.2808 84.4629 18.2485 84.1836 18.2485C83.7754 18.2485 83.4531 18.3381 83.2168 18.5171C82.984 18.6961 82.8677 18.9486 82.8677 19.2744C82.8677 19.5645 82.9751 19.7936 83.1899 19.9619C83.4048 20.1266 83.7736 20.2896 84.2964 20.4507C85.0985 20.6906 85.675 20.9896 86.0259 21.3477C86.3804 21.7057 86.5576 22.1981 86.5576 22.8247C86.5576 23.4979 86.3177 24.0511 85.8379 24.4844C85.3581 24.9141 84.6742 25.1289 83.7861 25.1289C83.3421 25.1289 82.9089 25.0734 82.4863 24.9624C82.0638 24.8478 81.6663 24.6759 81.2939 24.4468ZM90.4409 24.9248C90.2798 24.9928 90.1115 25.043 89.936 25.0752C89.7606 25.1074 89.5726 25.1235 89.3721 25.1235C88.8636 25.1235 88.4715 24.9893 88.1958 24.7207C87.9237 24.4486 87.7876 24.0439 87.7876 23.5068V20.4775H86.8638V19.5H87.7876V18.1626L89.0337 17.7866V19.5H90.3496V20.4775H89.0337V23.4048C89.0337 23.6733 89.082 23.8667 89.1787 23.9849C89.279 24.103 89.4329 24.1621 89.6406 24.1621C89.7409 24.1621 89.8358 24.1514 89.9253 24.1299C90.0184 24.1048 90.1007 24.0744 90.1724 24.0386L90.4409 24.9248ZM93.8623 25.1289C93.0029 25.1289 92.3208 24.8729 91.8159 24.3608C91.3146 23.8452 91.064 23.1559 91.064 22.293C91.0675 21.3799 91.3289 20.6655 91.8481 20.1499C92.3674 19.6307 93.0745 19.3711 93.9697 19.3711C94.8327 19.3675 95.5059 19.6217 95.9893 20.1338C96.4762 20.6423 96.7197 21.3315 96.7197 22.2017C96.7197 23.0968 96.4619 23.8094 95.9463 24.3394C95.4342 24.8657 94.7396 25.1289 93.8623 25.1289ZM93.9214 24.1353C94.4191 24.1353 94.7969 23.9723 95.0547 23.6465C95.3161 23.3206 95.4468 22.8498 95.4468 22.2339C95.4468 21.6252 95.3161 21.1615 95.0547 20.8428C94.7933 20.5241 94.4137 20.3647 93.916 20.3647C93.4255 20.3647 93.0387 20.533 92.7559 20.8696C92.4766 21.2062 92.3369 21.6717 92.3369 22.2661C92.3369 22.8641 92.4766 23.326 92.7559 23.6519C93.0352 23.9741 93.4237 24.1353 93.9214 24.1353ZM101.054 20.5474C100.986 20.5295 100.92 20.5169 100.855 20.5098C100.795 20.499 100.723 20.4937 100.641 20.4937C100.193 20.4937 99.8493 20.6584 99.6094 20.9878C99.3695 21.3172 99.2495 21.7469 99.2495 22.2769V25H97.998V19.5H99.2495V20.5581H99.271C99.3999 20.1785 99.5897 19.8921 99.8403 19.6987C100.091 19.5018 100.386 19.4033 100.727 19.4033C100.823 19.4033 100.909 19.4087 100.984 19.4194C101.063 19.4302 101.138 19.4463 101.21 19.4678L101.054 20.5474ZM106.721 22.5776H102.966C102.988 23.0968 103.138 23.4925 103.417 23.7646C103.697 24.0332 104.087 24.1675 104.588 24.1675C104.792 24.1675 105.025 24.1263 105.287 24.0439C105.548 23.9616 105.806 23.8291 106.06 23.6465L106.624 24.4253C106.284 24.6724 105.938 24.8514 105.587 24.9624C105.236 25.0734 104.85 25.1289 104.427 25.1289C103.571 25.1289 102.905 24.8836 102.429 24.3931C101.953 23.8989 101.713 23.2096 101.709 22.3252C101.709 21.4443 101.955 20.7318 102.445 20.1875C102.939 19.6432 103.571 19.3711 104.341 19.3711C105.079 19.3711 105.659 19.6038 106.082 20.0693C106.508 20.5312 106.721 21.1865 106.721 22.0352V22.5776ZM105.512 21.7129C105.512 21.2402 105.408 20.8857 105.201 20.6494C104.997 20.4095 104.707 20.2896 104.331 20.2896C103.976 20.2896 103.674 20.4185 103.423 20.6763C103.176 20.9305 103.024 21.276 102.966 21.7129H105.512Z" fill="black" fill-opacity="0.8956"/>
<defs>
<filter id="filter0_dd_976_1844" x="11.0938" y="7.25" width="11.8125" height="5.625" filterUnits="userSpaceOnUse" color-interpolation-filters="sRGB">
<feFlood flood-opacity="0" result="BackgroundImageFix"/>
<feColorMatrix in="SourceAlpha" type="matrix" values="0 0 0 0 0 0 0 0 0 0 0 0 0 0 0 0 0 0 127 0" result="hardAlpha"/>
<feOffset dy="0.1875"/>
<feGaussianBlur stdDeviation="0.1875"/>
<feColorMatrix type="matrix" values="0 0 0 0 0 0 0 0 0 0 0 0 0 0 0 0 0 0 0.1 0"/>
<feBlend mode="normal" in2="BackgroundImageFix" result="effect1_dropShadow_976_1844"/>
<feColorMatrix in="SourceAlpha" type="matrix" values="0 0 0 0 0 0 0 0 0 0 0 0 0 0 0 0 0 0 127 0" result="hardAlpha"/>
<feOffset dy="0.375"/>
<feGaussianBlur stdDeviation="0.5625"/>
<feColorMatrix type="matrix" values="0 0 0 0 0 0 0 0 0 0 0 0 0 0 0 0 0 0 0.2 0"/>
<feBlend mode="normal" in2="effect1_dropShadow_976_1844" result="effect2_dropShadow_976_1844"/>
<feBlend mode="normal" in="SourceGraphic" in2="effect2_dropShadow_976_1844" result="shape"/>
</filter>
<filter id="filter1_dd_976_1844" x="12.2188" y="13.4375" width="9.5625" height="9.5625" filterUnits="userSpaceOnUse" color-interpolation-filters="sRGB">
<feFlood flood-opacity="0" result="BackgroundImageFix"/>
<feColorMatrix in="SourceAlpha" type="matrix" values="0 0 0 0 0 0 0 0 0 0 0 0 0 0 0 0 0 0 127 0" result="hardAlpha"/>
<feOffset dy="0.1875"/>
<feGaussianBlur stdDeviation="0.1875"/>
<feColorMatrix type="matrix" values="0 0 0 0 0 0 0 0 0 0 0 0 0 0 0 0 0 0 0.1 0"/>
<feBlend mode="normal" in2="BackgroundImageFix" result="effect1_dropShadow_976_1844"/>
<feColorMatrix in="SourceAlpha" type="matrix" values="0 0 0 0 0 0 0 0 0 0 0 0 0 0 0 0 0 0 127 0" result="hardAlpha"/>
<feOffset dy="0.375"/>
<feGaussianBlur stdDeviation="0.5625"/>
<feColorMatrix type="matrix" values="0 0 0 0 0 0 0 0 0 0 0 0 0 0 0 0 0 0 0.2 0"/>
<feBlend mode="normal" in2="effect1_dropShadow_976_1844" result="effect2_dropShadow_976_1844"/>
<feBlend mode="normal" in="SourceGraphic" in2="effect2_dropShadow_976_1844" result="shape"/>
</filter>
<filter id="filter2_dd_976_1844" x="10.5939" y="6.6875" width="12.8124" height="5.06274" filterUnits="userSpaceOnUse" color-interpolation-filters="sRGB">
<feFlood flood-opacity="0" result="BackgroundImageFix"/>
<feColorMatrix in="SourceAlpha" type="matrix" values="0 0 0 0 0 0 0 0 0 0 0 0 0 0 0 0 0 0 127 0" result="hardAlpha"/>
<feOffset dy="-0.75"/>
<feGaussianBlur stdDeviation="0.1875"/>
<feColorMatrix type="matrix" values="0 0 0 0 0 0 0 0 0 0 0 0 0 0 0 0 0 0 0.1 0"/>
<feBlend mode="normal" in2="BackgroundImageFix" result="effect1_dropShadow_976_1844"/>
<feColorMatrix in="SourceAlpha" type="matrix" values="0 0 0 0 0 0 0 0 0 0 0 0 0 0 0 0 0 0 127 0" result="hardAlpha"/>
<feOffset dy="-0.75"/>
<feGaussianBlur stdDeviation="0.5625"/>
<feColorMatrix type="matrix" values="0 0 0 0 0 0 0 0 0 0 0 0 0 0 0 0 0 0 0.2 0"/>
<feBlend mode="normal" in2="effect1_dropShadow_976_1844" result="effect2_dropShadow_976_1844"/>
<feBlend mode="normal" in="SourceGraphic" in2="effect2_dropShadow_976_1844" result="shape"/>
</filter>
<linearGradient id="paint0_linear_976_1844" x1="17" y1="10.25" x2="20.3514" y2="25.9624" gradientUnits="userSpaceOnUse">
<stop stop-color="#0669BC"/>
<stop offset="1" stop-color="#243A5F"/>
</linearGradient>
<linearGradient id="paint1_linear_976_1844" x1="17" y1="10.25" x2="20.3514" y2="25.9624" gradientUnits="userSpaceOnUse">
<stop stop-color="#0078D4"/>
<stop offset="1" stop-color="#114A8B"/>
</linearGradient>
<linearGradient id="paint2_linear_976_1844" x1="17" y1="8.5625" x2="17.1583" y2="10.9858" gradientUnits="userSpaceOnUse">
<stop stop-color="#28AFEA"/>
<stop offset="1" stop-color="#0078D4"/>
</linearGradient>
<linearGradient id="paint3_linear_976_1844" x1="17" y1="8.5625" x2="17.1583" y2="10.9858" gradientUnits="userSpaceOnUse">
<stop stop-color="#30DAFF"/>
<stop offset="1" stop-color="#0094D4"/>
</linearGradient>
<linearGradient id="paint4_linear_976_1844" x1="16.5938" y1="8" x2="16.5937" y2="9.125" gradientUnits="userSpaceOnUse">
<stop stop-color="#22BCFF"/>
<stop offset="1" stop-color="#0088F0"/>
</linearGradient>
<linearGradient id="paint5_linear_976_1844" x1="16.5938" y1="8" x2="16.5937" y2="9.125" gradientUnits="userSpaceOnUse">
<stop stop-color="#28AFEA"/>
<stop offset="1" stop-color="#3CCBF4"/>
</linearGradient>
<clipPath id="clip0_976_1844">
<rect width="18" height="18" fill="white" transform="translate(8 8)"/>
</clipPath>
<clipPath id="clip1_976_1844">
<rect width="18" height="18" fill="white" transform="translate(8 8)"/>
</clipPath>
</defs>
</svg>
