<svg width="90" height="32" viewBox="0 0 90 32" fill="none" xmlns="http://www.w3.org/2000/svg">
<rect x="0.5" y="0.5" width="89" height="31" rx="3.5" fill="black"/>
<path d="M15.5559 7H7V15.5608H15.5559V7Z" fill="#F25022"/>
<path d="M25.0001 7H16.4442V15.5608H25.0001V7Z" fill="#7FBA00"/>
<path d="M15.5559 16.4395H7V25.0002H15.5559V16.4395Z" fill="#00A4EF"/>
<path d="M25.0002 16.4395H16.4443V25.0002H25.0002V16.4395Z" fill="#FFB900"/>
<path d="M34.0352 13H33.3203V10.4688H30.4766V13H29.7656V7.39844H30.4766V9.83594H33.3203V7.39844H34.0352V13ZM38.7969 11.1094H35.9141C35.9271 11.5625 36.0482 11.9115 36.2773 12.1562C36.5065 12.3984 36.8281 12.5195 37.2422 12.5195C37.4219 12.5195 37.6055 12.4922 37.793 12.4375C37.9831 12.3802 38.1732 12.2878 38.3633 12.1602L38.6797 12.6445C38.4427 12.8008 38.2044 12.9154 37.9648 12.9883C37.7253 13.0612 37.4622 13.0977 37.1758 13.0977C36.556 13.0977 36.0729 12.9141 35.7266 12.5469C35.3802 12.1771 35.2057 11.6615 35.2031 11C35.2005 10.3411 35.375 9.8112 35.7266 9.41016C36.0807 9.00651 36.5391 8.80469 37.1016 8.80469C37.638 8.80469 38.0547 8.97917 38.3516 9.32812C38.6484 9.67448 38.7969 10.1576 38.7969 10.7773V11.1094ZM38.0977 10.5625C38.0951 10.1849 38.0039 9.89193 37.8242 9.68359C37.6471 9.47526 37.4023 9.37109 37.0898 9.37109C36.7826 9.37109 36.5221 9.47917 36.3086 9.69531C36.0977 9.90885 35.9688 10.1979 35.9219 10.5625H38.0977ZM43.2617 13H42.5664V10.6641C42.5664 10.237 42.4883 9.91667 42.332 9.70312C42.1758 9.48958 41.9427 9.38281 41.6328 9.38281C41.3099 9.38281 41.043 9.50391 40.832 9.74609C40.6237 9.98568 40.5195 10.2904 40.5195 10.6602V13H39.8242V8.90234H40.5195V9.58203H40.5352C40.6888 9.32161 40.8776 9.1276 41.1016 9C41.3255 8.86979 41.5846 8.80469 41.8789 8.80469C42.3268 8.80469 42.6693 8.94922 42.9062 9.23828C43.1432 9.52734 43.2617 9.94531 43.2617 10.4922V13ZM46.5352 12.9492C46.4232 12.9961 46.3112 13.0299 46.1992 13.0508C46.0898 13.0742 45.9661 13.0859 45.8281 13.0859C45.4922 13.0859 45.2292 12.9896 45.0391 12.7969C44.8516 12.6042 44.7578 12.319 44.7578 11.9414V9.48047H44.0586V8.90234H44.7578V7.96484L45.457 7.74219V8.90234H46.4805V9.48047H45.457V11.8672C45.457 12.099 45.4987 12.2656 45.582 12.3672C45.6654 12.4688 45.7904 12.5195 45.957 12.5195C46.0352 12.5195 46.1107 12.5104 46.1836 12.4922C46.2565 12.474 46.319 12.4518 46.3711 12.4258L46.5352 12.9492ZM52.4336 12.3125C52.2826 12.5729 52.0898 12.7695 51.8555 12.9023C51.6237 13.0326 51.3503 13.0977 51.0352 13.0977C50.5195 13.0977 50.1068 12.9141 49.7969 12.5469C49.4896 12.1797 49.3359 11.6797 49.3359 11.0469C49.3359 10.3672 49.5065 9.82422 49.8477 9.41797C50.1888 9.00911 50.6432 8.80469 51.2109 8.80469C51.4922 8.80469 51.7344 8.85938 51.9375 8.96875C52.1406 9.07812 52.306 9.24349 52.4336 9.46484H52.4492V7.07812H53.1445V13H52.4492V12.3125H52.4336ZM50.0469 11.0117C50.0469 11.4805 50.1549 11.849 50.3711 12.1172C50.5872 12.3854 50.8763 12.5195 51.2383 12.5195C51.6029 12.5195 51.8958 12.3893 52.1172 12.1289C52.3385 11.8685 52.4492 11.5391 52.4492 11.1406V10.5547C52.4492 10.2266 52.3411 9.94922 52.125 9.72266C51.9115 9.49609 51.6406 9.38281 51.3125 9.38281C50.9193 9.38281 50.6094 9.52734 50.3828 9.81641C50.1589 10.1055 50.0469 10.5039 50.0469 11.0117ZM57.8203 11.1094H54.9375C54.9505 11.5625 55.0716 11.9115 55.3008 12.1562C55.5299 12.3984 55.8516 12.5195 56.2656 12.5195C56.4453 12.5195 56.6289 12.4922 56.8164 12.4375C57.0065 12.3802 57.1966 12.2878 57.3867 12.1602L57.7031 12.6445C57.4661 12.8008 57.2279 12.9154 56.9883 12.9883C56.7487 13.0612 56.4857 13.0977 56.1992 13.0977C55.5794 13.0977 55.0964 12.9141 54.75 12.5469C54.4036 12.1771 54.2292 11.6615 54.2266 11C54.224 10.3411 54.3984 9.8112 54.75 9.41016C55.1042 9.00651 55.5625 8.80469 56.125 8.80469C56.6615 8.80469 57.0781 8.97917 57.375 9.32812C57.6719 9.67448 57.8203 10.1576 57.8203 10.7773V11.1094ZM57.1211 10.5625C57.1185 10.1849 57.0273 9.89193 56.8477 9.68359C56.6706 9.47526 56.4258 9.37109 56.1133 9.37109C55.806 9.37109 55.5456 9.47917 55.332 9.69531C55.1211 9.90885 54.9922 10.1979 54.9453 10.5625H57.1211ZM60.8555 12.9492C60.7435 12.9961 60.6315 13.0299 60.5195 13.0508C60.4102 13.0742 60.2865 13.0859 60.1484 13.0859C59.8125 13.0859 59.5495 12.9896 59.3594 12.7969C59.1719 12.6042 59.0781 12.319 59.0781 11.9414V9.48047H58.3789V8.90234H59.0781V7.96484L59.7773 7.74219V8.90234H60.8008V9.48047H59.7773V11.8672C59.7773 12.099 59.819 12.2656 59.9023 12.3672C59.9857 12.4688 60.1107 12.5195 60.2773 12.5195C60.3555 12.5195 60.431 12.5104 60.5039 12.4922C60.5768 12.474 60.6393 12.4518 60.6914 12.4258L60.8555 12.9492ZM65.8984 7.63281C65.8255 7.60677 65.7591 7.58854 65.6992 7.57812C65.6393 7.56771 65.5768 7.5625 65.5117 7.5625C65.2956 7.5625 65.1341 7.61979 65.0273 7.73438C64.9232 7.84896 64.8711 8.01693 64.8711 8.23828V8.90234H65.8125V9.48047H64.8711V13H64.1797V9.48047H63.4922V8.90234H64.1797V8.20312C64.1797 7.82031 64.2982 7.52083 64.5352 7.30469C64.7747 7.08854 65.1003 6.98047 65.5117 6.98047C65.6159 6.98047 65.7109 6.98828 65.7969 7.00391C65.8828 7.01953 65.9714 7.04167 66.0625 7.07031L65.8984 7.63281ZM68.6484 9.49609C68.5964 9.48047 68.5482 9.46875 68.5039 9.46094C68.4596 9.45312 68.4062 9.44922 68.3438 9.44922C68.013 9.44922 67.7526 9.58984 67.5625 9.87109C67.3724 10.1497 67.2773 10.5026 67.2773 10.9297V13H66.582V8.90234H67.2773V9.71484H67.293C67.3867 9.42578 67.5286 9.20703 67.7188 9.05859C67.9115 8.90755 68.1341 8.83203 68.3867 8.83203C68.4674 8.83203 68.5365 8.83594 68.5938 8.84375C68.6536 8.85156 68.7083 8.86328 68.7578 8.87891L68.6484 9.49609ZM72.4766 13H71.7852V12.3555H71.7695C71.6289 12.6003 71.4544 12.7852 71.2461 12.9102C71.0378 13.0352 70.7956 13.0977 70.5195 13.0977C70.1341 13.0977 69.8229 12.9857 69.5859 12.7617C69.349 12.5378 69.2305 12.2422 69.2305 11.875C69.2305 11.5182 69.3503 11.2253 69.5898 10.9961C69.8294 10.7669 70.1745 10.6198 70.625 10.5547L71.7891 10.3984V10.3047C71.7891 9.97396 71.7096 9.73568 71.5508 9.58984C71.3945 9.44401 71.1836 9.37109 70.918 9.37109C70.707 9.37109 70.5013 9.41146 70.3008 9.49219C70.1003 9.57292 69.9102 9.69401 69.7305 9.85547L69.3516 9.43359C69.5833 9.22005 69.8307 9.0625 70.0938 8.96094C70.3594 8.85677 70.6497 8.80469 70.9648 8.80469C71.4648 8.80469 71.8411 8.93359 72.0938 9.19141C72.349 9.44922 72.4766 9.83594 72.4766 10.3516V13ZM71.7891 11.3281V10.9336L70.8125 11.0664C70.513 11.1081 70.2891 11.1836 70.1406 11.293C69.9922 11.4023 69.918 11.5742 69.918 11.8086C69.918 12.0404 69.987 12.2201 70.125 12.3477C70.2656 12.4753 70.4401 12.5391 70.6484 12.5391C70.9922 12.5391 71.2682 12.4258 71.4766 12.1992C71.6849 11.9701 71.7891 11.6797 71.7891 11.3281Z" fill="white"/>
<path d="M41.1489 16.6123C41.1489 16.3559 41.2412 16.1507 41.4259 15.9764C41.6105 15.802 41.8258 15.72 42.0823 15.72C42.3489 15.72 42.5746 15.8123 42.7489 15.9866C42.9233 16.161 43.0156 16.3764 43.0156 16.6123C43.0156 16.8584 42.9233 17.0738 42.7387 17.2379C42.5541 17.4123 42.3387 17.4943 42.072 17.4943C41.8053 17.4943 41.59 17.4123 41.4053 17.2379C41.2412 17.0636 41.1489 16.8584 41.1489 16.6123ZM42.8412 25.002H41.313V18.4892H42.8412V25.002Z" fill="white"/>
<path d="M47.4975 23.8887C47.7231 23.8887 47.9795 23.8374 48.2565 23.7348C48.5334 23.6323 48.7795 23.4887 49.0154 23.3143V24.74C48.7693 24.8836 48.4924 24.9861 48.1847 25.0579C47.877 25.1297 47.5282 25.1707 47.159 25.1707C46.2052 25.1707 45.4257 24.863 44.8205 24.2579C44.2154 23.6528 43.918 22.8733 43.918 21.94C43.918 20.8938 44.2257 20.0323 44.8411 19.3553C45.4564 18.6784 46.318 18.34 47.4462 18.34C47.7334 18.34 48.0206 18.381 48.318 18.4528C48.6154 18.5246 48.8411 18.6169 49.0154 18.7092V20.1759C48.7795 20.0015 48.5334 19.8682 48.2872 19.7759C48.0411 19.6836 47.7847 19.6323 47.5282 19.6323C46.9231 19.6323 46.4411 19.8271 46.0616 20.2169C45.6923 20.6066 45.5077 21.14 45.5077 21.8066C45.5077 22.463 45.6821 22.9759 46.0411 23.3451C46.4 23.7143 46.8821 23.8887 47.4975 23.8887Z" fill="white"/>
<path d="M53.3738 18.39C53.4969 18.39 53.6097 18.4003 53.702 18.4105C53.7943 18.431 53.8866 18.4516 53.9482 18.4721V20.0208C53.8661 19.9592 53.7533 19.908 53.5995 19.8567C53.4456 19.8054 53.261 19.7746 53.0354 19.7746C52.6559 19.7746 52.3379 19.9285 52.0815 20.2464C51.8251 20.5644 51.6918 21.0464 51.6918 21.7131V25.0054H50.1636V18.4926H51.6918V19.5182H51.7123C51.8559 19.1592 52.061 18.8823 52.3482 18.6874C52.6354 18.4926 52.9738 18.39 53.3738 18.39Z" fill="white"/>
<path d="M54.0308 21.8477C54.0308 20.7707 54.3385 19.9195 54.9436 19.2836C55.5487 18.6579 56.4 18.34 57.4769 18.34C58.4923 18.34 59.2923 18.6477 59.8667 19.2528C60.441 19.8579 60.7282 20.6784 60.7282 21.7041C60.7282 22.7605 60.4205 23.6015 59.8154 24.2271C59.2102 24.8528 58.3795 25.1605 57.3333 25.1605C56.3282 25.1605 55.5179 24.863 54.9333 24.2682C54.3282 23.6836 54.0308 22.8733 54.0308 21.8477ZM55.6308 21.7964C55.6308 22.4733 55.7846 22.9964 56.0923 23.3553C56.4 23.7143 56.841 23.8887 57.4154 23.8887C57.9692 23.8887 58.4 23.7143 58.6872 23.3553C58.9743 22.9964 59.1282 22.463 59.1282 21.7554C59.1282 21.0579 58.9743 20.5246 58.6769 20.1656C58.3795 19.8066 57.9487 19.6323 57.4051 19.6323C56.841 19.6323 56.4102 19.8169 56.0923 20.1964C55.7846 20.5759 55.6308 21.0989 55.6308 21.7964Z" fill="white"/>
<path d="M63.0053 20.2069C63.0053 20.4223 63.0771 20.5966 63.2104 20.7197C63.354 20.8428 63.6617 20.9966 64.1335 21.1915C64.7489 21.4377 65.1796 21.7146 65.4258 22.0223C65.6719 22.33 65.795 22.6992 65.795 23.13C65.795 23.7454 65.5591 24.2377 65.0873 24.6069C64.6155 24.9761 63.9796 25.1607 63.1796 25.1607C62.913 25.1607 62.6155 25.13 62.2873 25.0582C61.9591 24.9966 61.6822 24.9043 61.4565 24.812V23.3043C61.7335 23.4992 62.0309 23.653 62.3591 23.7659C62.6771 23.8787 62.9745 23.9402 63.2309 23.9402C63.5796 23.9402 63.836 23.8889 64.0001 23.7966C64.1642 23.7043 64.2463 23.5402 64.2463 23.3043C64.2463 23.0889 64.1642 22.9146 63.9899 22.771C63.8155 22.6274 63.4976 22.453 63.0155 22.2684C62.4514 22.0325 62.0514 21.7659 61.8155 21.4684C61.5796 21.171 61.4565 20.7915 61.4565 20.3402C61.4565 19.7556 61.6924 19.2735 62.154 18.8941C62.6155 18.5146 63.2206 18.33 63.9694 18.33C64.195 18.33 64.4514 18.3505 64.7386 18.4018C65.0258 18.453 65.2617 18.5146 65.4463 18.5966V20.053C65.2412 19.9197 65.0053 19.8069 64.7386 19.7043C64.4719 19.612 64.195 19.5607 63.9386 19.5607C63.6514 19.5607 63.4155 19.6223 63.2617 19.7351C63.0873 19.8479 63.0053 20.012 63.0053 20.2069Z" fill="white"/>
<path d="M66.4717 21.8477C66.4717 20.7707 66.7794 19.9195 67.3845 19.2836C67.9896 18.6579 68.8409 18.34 69.9178 18.34C70.9332 18.34 71.7332 18.6477 72.3076 19.2528C72.8819 19.8579 73.1691 20.6784 73.1691 21.7041C73.1691 22.7605 72.8614 23.6015 72.2563 24.2271C71.6512 24.8528 70.8204 25.1605 69.7742 25.1605C68.7691 25.1605 67.9589 24.863 67.3742 24.2682C66.7691 23.6836 66.4717 22.8733 66.4717 21.8477ZM68.0614 21.7964C68.0614 22.4733 68.2153 22.9964 68.523 23.3554C68.8307 23.7143 69.2717 23.8887 69.846 23.8887C70.3999 23.8887 70.8307 23.7143 71.1178 23.3554C71.405 22.9964 71.5589 22.463 71.5589 21.7554C71.5589 21.0579 71.405 20.5246 71.1076 20.1656C70.8101 19.8066 70.3794 19.6323 69.8358 19.6323C69.2717 19.6323 68.8409 19.8169 68.523 20.1964C68.2153 20.5759 68.0614 21.0989 68.0614 21.7964Z" fill="white"/>
<path d="M78.2258 19.7523V23.0959C78.2258 23.7933 78.3899 24.3062 78.7079 24.6549C79.0258 25.0036 79.5181 25.1677 80.1643 25.1677C80.3797 25.1677 80.6053 25.1472 80.8309 25.0959C81.0566 25.0446 81.2207 25.0036 81.313 24.9421V23.6703C81.2207 23.7318 81.1079 23.7831 80.9848 23.8241C80.8617 23.8651 80.7489 23.8857 80.6668 23.8857C80.3591 23.8857 80.1232 23.8036 79.9797 23.6395C79.8361 23.4754 79.7643 23.1882 79.7643 22.7882V19.7421H81.3232V18.4908H79.7745V16.5626L78.2361 17.0344V18.501H75.9489V17.7113C75.9489 17.3215 76.0309 17.0241 76.2053 16.819C76.3796 16.6139 76.6258 16.5215 76.9438 16.5215C77.1079 16.5215 77.2514 16.5421 77.3848 16.5831C77.5079 16.6241 77.6002 16.6651 77.6514 16.6959V15.3728C77.5386 15.3318 77.4155 15.3113 77.272 15.2908C77.1284 15.2703 76.9643 15.26 76.7797 15.26C76.0822 15.26 75.5079 15.4754 75.0668 15.9164C74.6258 16.3574 74.4002 16.9113 74.4002 17.5985V18.501H73.313V19.7523H74.4002V25.0139H75.9489V19.7523H78.2258V19.7523Z" fill="white"/>
<path d="M39.8359 15.92V25.0072H38.2564V17.8893H38.2359L35.4154 25.0072H34.3692L31.4769 17.8893H31.4564V25.0072H30V15.92H32.2564L34.8718 22.6585H34.9128L37.6718 15.92H39.8359Z" fill="white"/>
<rect x="0.5" y="0.5" width="89" height="31" rx="3.5" stroke="black"/>
</svg>
