<svg width="116" height="34" viewBox="0 0 116 34" fill="none" xmlns="http://www.w3.org/2000/svg">
<rect x="1" y="1" width="114" height="32" rx="4" fill="#202020"/>
<rect x="0.5" y="0.5" width="115" height="33" rx="4.5" stroke="black" stroke-opacity="0.1"/>
<g clip-path="url(#clip0_978_1486)">
<g clip-path="url(#clip1_978_1486)">
<path d="M8.28125 11C8.28125 10.5858 8.61704 10.25 9.03125 10.25H24.9687C25.383 10.25 25.7188 10.5858 25.7188 11V22.3438C25.7188 24.0524 24.3336 25.4375 22.625 25.4375H11.375C9.66637 25.4375 8.28125 24.0524 8.28125 22.3438V11Z" fill="url(#paint0_linear_978_1486)"/>
<mask id="mask0_978_1486" style="mask-type:alpha" maskUnits="userSpaceOnUse" x="8" y="10" width="18" height="16">
<path d="M8.28125 11C8.28125 10.5858 8.61704 10.25 9.03125 10.25H24.9687C25.383 10.25 25.7188 10.5858 25.7188 11V22.3438C25.7188 24.0524 24.3336 25.4375 22.625 25.4375H11.375C9.66637 25.4375 8.28125 24.0524 8.28125 22.3438V11Z" fill="url(#paint1_linear_978_1486)"/>
</mask>
<g mask="url(#mask0_978_1486)">
<g filter="url(#filter0_dd_978_1486)">
<path d="M12.7812 10.8125V8.5625H21.2187V10.8125" stroke="url(#paint2_linear_978_1486)" stroke-width="1.125" stroke-linecap="round"/>
</g>
</g>
<g filter="url(#filter1_dd_978_1486)">
<path d="M16.719 14.1875H13.344V17.5625H16.719V14.1875Z" fill="#F25022"/>
<path d="M20.6562 14.1875H17.2812V17.5625H20.6562V14.1875Z" fill="#7FBA00"/>
<path d="M20.6562 18.125H17.2812V21.5H20.6562V18.125Z" fill="#FFB900"/>
<path d="M16.7188 18.125H13.3438V21.5H16.7188V18.125Z" fill="#00A4EF"/>
</g>
<path d="M12.7812 10.8125V9.125C12.7812 8.81434 13.0331 8.5625 13.3438 8.5625H20.6563C20.9669 8.5625 21.2188 8.81434 21.2188 9.125V10.8125" stroke="url(#paint3_linear_978_1486)" stroke-width="1.125" stroke-linecap="round"/>
<rect x="13.3438" y="8" width="7.3125" height="1.125" fill="url(#paint4_linear_978_1486)"/>
<mask id="mask1_978_1486" style="mask-type:alpha" maskUnits="userSpaceOnUse" x="13" y="8" width="8" height="2">
<rect x="13.3438" y="8" width="7.3125" height="1.125" fill="url(#paint5_linear_978_1486)"/>
</mask>
<g mask="url(#mask1_978_1486)">
<g filter="url(#filter2_dd_978_1486)">
<rect x="11.7189" y="8.56274" width="1.625" height="2.8125" fill="#C4C4C4"/>
</g>
</g>
</g>
</g>
<path d="M39.2275 16H37.96V11.0854C37.96 10.8634 37.9653 10.6217 37.9761 10.3604C37.9904 10.0954 38.0083 9.81429 38.0298 9.51709H37.9976C37.9546 9.72119 37.9134 9.89665 37.874 10.0435C37.8382 10.1867 37.8024 10.3013 37.7666 10.3872L35.5054 16H34.6245L32.3525 10.4355C32.3239 10.3568 32.2881 10.2404 32.2451 10.0864C32.2057 9.93245 32.1628 9.74268 32.1162 9.51709H32.084C32.1055 9.7749 32.1198 10.0488 32.127 10.3389C32.1341 10.6253 32.1377 10.9279 32.1377 11.2466V16H30.9561V8.29785H32.7607L34.7642 13.3037C34.8429 13.4935 34.9074 13.6689 34.9575 13.8301C35.0112 13.9876 35.0524 14.1344 35.0811 14.2705H35.1133C35.1777 14.0664 35.2386 13.882 35.2959 13.7173C35.3532 13.5526 35.4069 13.4093 35.457 13.2876L37.4873 8.29785H39.2275V16ZM41.6177 9.43652C41.3885 9.43652 41.1987 9.36312 41.0483 9.21631C40.8979 9.0695 40.8228 8.88867 40.8228 8.67383C40.8228 8.45182 40.8979 8.26921 41.0483 8.12598C41.1987 7.98275 41.3885 7.91113 41.6177 7.91113C41.8504 7.91113 42.042 7.98275 42.1924 8.12598C42.3428 8.26921 42.418 8.45182 42.418 8.67383C42.418 8.89225 42.3428 9.07487 42.1924 9.22168C42.042 9.36491 41.8504 9.43652 41.6177 9.43652ZM42.2354 16H40.9839V10.5H42.2354V16ZM47.9824 15.6616C47.7103 15.8263 47.4399 15.9445 47.1714 16.0161C46.9028 16.0913 46.611 16.1289 46.2959 16.1289C45.4508 16.1289 44.7741 15.8818 44.2656 15.3877C43.7607 14.8936 43.5083 14.2222 43.5083 13.3735C43.5083 12.4604 43.7697 11.7318 44.2925 11.1875C44.8188 10.6432 45.5278 10.3711 46.4194 10.3711C46.731 10.3711 47.0138 10.4051 47.2681 10.4731C47.5259 10.5376 47.7873 10.645 48.0522 10.7954L47.5635 11.6655C47.3773 11.5617 47.1947 11.4865 47.0156 11.4399C46.8366 11.3898 46.6414 11.3647 46.4302 11.3647C45.9038 11.3647 45.4974 11.5384 45.2109 11.8857C44.9245 12.2331 44.7812 12.6932 44.7812 13.2661C44.7812 13.8677 44.9352 14.3296 45.2432 14.6519C45.5547 14.9741 45.945 15.1353 46.4141 15.1353C46.5573 15.1353 46.722 15.1102 46.9082 15.0601C47.0944 15.0063 47.2824 14.9222 47.4722 14.8076L47.9824 15.6616ZM52.1021 11.5474C52.034 11.5295 51.9678 11.5169 51.9033 11.5098C51.8424 11.499 51.7708 11.4937 51.6885 11.4937C51.2409 11.4937 50.8971 11.6584 50.6572 11.9878C50.4173 12.3172 50.2974 12.7469 50.2974 13.2769V16H49.0459V10.5H50.2974V11.5581H50.3188C50.4478 11.1785 50.6375 10.8921 50.8882 10.6987C51.1388 10.5018 51.4342 10.4033 51.7744 10.4033C51.8711 10.4033 51.957 10.4087 52.0322 10.4194C52.111 10.4302 52.1862 10.4463 52.2578 10.4678L52.1021 11.5474ZM55.5557 16.1289C54.6963 16.1289 54.0142 15.8729 53.5093 15.3608C53.008 14.8452 52.7573 14.1559 52.7573 13.293C52.7609 12.3799 53.0223 11.6655 53.5415 11.1499C54.0607 10.6307 54.7679 10.3711 55.6631 10.3711C56.526 10.3675 57.1992 10.6217 57.6826 11.1338C58.1696 11.6423 58.4131 12.3315 58.4131 13.2017C58.4131 14.0968 58.1553 14.8094 57.6396 15.3394C57.1276 15.8657 56.4329 16.1289 55.5557 16.1289ZM55.6147 15.1353C56.1125 15.1353 56.4902 14.9723 56.748 14.6465C57.0094 14.3206 57.1401 13.8498 57.1401 13.2339C57.1401 12.6252 57.0094 12.1615 56.748 11.8428C56.4867 11.5241 56.1071 11.3647 55.6094 11.3647C55.1188 11.3647 54.7321 11.533 54.4492 11.8696C54.1699 12.2062 54.0303 12.6717 54.0303 13.2661C54.0303 13.8641 54.1699 14.326 54.4492 14.6519C54.7285 14.9741 55.117 15.1353 55.6147 15.1353ZM59.1543 15.5596L59.6968 14.6787C59.9116 14.8291 60.139 14.9508 60.3789 15.0439C60.6224 15.1335 60.8856 15.1782 61.1685 15.1782C61.4764 15.1782 61.7145 15.1227 61.8828 15.0117C62.0547 14.8971 62.1406 14.7271 62.1406 14.5015C62.1406 14.3224 62.069 14.1738 61.9258 14.0557C61.7861 13.9339 61.5462 13.8337 61.2061 13.7549C60.5186 13.5938 60.0352 13.3807 59.7559 13.1157C59.4801 12.8507 59.3423 12.5016 59.3423 12.0684C59.3423 11.5706 59.5356 11.1642 59.9224 10.8491C60.3091 10.5304 60.8158 10.3711 61.4424 10.3711C61.7539 10.3711 62.0511 10.4123 62.334 10.4946C62.6169 10.5734 62.8926 10.7005 63.1611 10.876L62.6562 11.7354C62.4199 11.585 62.2033 11.4775 62.0063 11.4131C61.8094 11.3486 61.6071 11.3164 61.3994 11.3164C61.1058 11.3164 60.8766 11.3719 60.7119 11.4829C60.5508 11.5903 60.4702 11.7407 60.4702 11.9341C60.4702 12.1382 60.5526 12.2904 60.7173 12.3906C60.8856 12.4873 61.1667 12.5822 61.5605 12.6753C62.1549 12.8185 62.59 13.0262 62.8657 13.2983C63.1414 13.5669 63.2793 13.9268 63.2793 14.3779C63.2793 14.9115 63.0841 15.3376 62.6938 15.6562C62.3071 15.9714 61.7826 16.1289 61.1201 16.1289C60.762 16.1289 60.4183 16.0824 60.0889 15.9893C59.763 15.8926 59.4515 15.7493 59.1543 15.5596ZM66.8779 16.1289C66.0186 16.1289 65.3364 15.8729 64.8315 15.3608C64.3302 14.8452 64.0796 14.1559 64.0796 13.293C64.0832 12.3799 64.3446 11.6655 64.8638 11.1499C65.383 10.6307 66.0902 10.3711 66.9854 10.3711C67.8483 10.3675 68.5215 10.6217 69.0049 11.1338C69.4919 11.6423 69.7354 12.3315 69.7354 13.2017C69.7354 14.0968 69.4775 14.8094 68.9619 15.3394C68.4499 15.8657 67.7552 16.1289 66.8779 16.1289ZM66.937 15.1353C67.4347 15.1353 67.8125 14.9723 68.0703 14.6465C68.3317 14.3206 68.4624 13.8498 68.4624 13.2339C68.4624 12.6252 68.3317 12.1615 68.0703 11.8428C67.8089 11.5241 67.4294 11.3647 66.9316 11.3647C66.4411 11.3647 66.0544 11.533 65.7715 11.8696C65.4922 12.2062 65.3525 12.6717 65.3525 13.2661C65.3525 13.8641 65.4922 14.326 65.7715 14.6519C66.0508 14.9741 66.4393 15.1353 66.937 15.1353ZM73.9839 8.84033C73.8836 8.80094 73.7923 8.77409 73.71 8.75977C73.6276 8.74186 73.5381 8.73291 73.4414 8.73291C73.1764 8.73291 72.9759 8.8099 72.8398 8.96387C72.7074 9.11426 72.6411 9.33268 72.6411 9.61914V10.5H73.9141V11.4775H72.6411V16H71.395V11.4775H70.4604V10.5H71.395V9.55469C71.395 8.99609 71.5741 8.55387 71.9321 8.22803C72.2938 7.8986 72.7718 7.73389 73.3662 7.73389C73.5524 7.73389 73.7135 7.74642 73.8496 7.77148C73.9857 7.79655 74.1271 7.83236 74.2739 7.87891L73.9839 8.84033ZM77.7974 15.9248C77.6362 15.9928 77.4679 16.043 77.2925 16.0752C77.117 16.1074 76.929 16.1235 76.7285 16.1235C76.2201 16.1235 75.828 15.9893 75.5522 15.7207C75.2801 15.4486 75.144 15.0439 75.144 14.5068V11.4775H74.2202V10.5H75.144V9.1626L76.3901 8.78662V10.5H77.7061V11.4775H76.3901V14.4048C76.3901 14.6733 76.4385 14.8667 76.5352 14.9849C76.6354 15.103 76.7894 15.1621 76.9971 15.1621C77.0973 15.1621 77.1922 15.1514 77.2817 15.1299C77.3748 15.1048 77.4572 15.0744 77.5288 15.0386L77.7974 15.9248ZM81.2939 15.4468L81.8633 14.4639C82.2106 14.6787 82.5347 14.8309 82.8354 14.9204C83.1362 15.0063 83.4728 15.0493 83.8452 15.0493C84.2892 15.0493 84.6383 14.9544 84.8926 14.7646C85.1504 14.5713 85.2793 14.2956 85.2793 13.9375C85.2793 13.6117 85.1719 13.3556 84.957 13.1694C84.7458 12.9797 84.3859 12.806 83.8774 12.6484C83.0933 12.4157 82.5168 12.1274 82.1479 11.7837C81.7791 11.4399 81.5947 10.9744 81.5947 10.3872C81.5947 9.74984 81.8328 9.22168 82.3091 8.80273C82.7853 8.38021 83.4316 8.16895 84.248 8.16895C84.6061 8.16895 84.9588 8.20833 85.3062 8.28711C85.6535 8.36589 85.9972 8.48763 86.3374 8.65234L85.8594 9.67285C85.5622 9.51888 85.2775 9.40967 85.0054 9.34521C84.7368 9.28076 84.4629 9.24854 84.1836 9.24854C83.7754 9.24854 83.4531 9.33805 83.2168 9.51709C82.984 9.69613 82.8677 9.94857 82.8677 10.2744C82.8677 10.5645 82.9751 10.7936 83.1899 10.9619C83.4048 11.1266 83.7736 11.2896 84.2964 11.4507C85.0985 11.6906 85.675 11.9896 86.0259 12.3477C86.3804 12.7057 86.5576 13.1981 86.5576 13.8247C86.5576 14.4979 86.3177 15.0511 85.8379 15.4844C85.3581 15.9141 84.6742 16.1289 83.7861 16.1289C83.3421 16.1289 82.9089 16.0734 82.4863 15.9624C82.0638 15.8478 81.6663 15.6759 81.2939 15.4468ZM90.4409 15.9248C90.2798 15.9928 90.1115 16.043 89.936 16.0752C89.7606 16.1074 89.5726 16.1235 89.3721 16.1235C88.8636 16.1235 88.4715 15.9893 88.1958 15.7207C87.9237 15.4486 87.7876 15.0439 87.7876 14.5068V11.4775H86.8638V10.5H87.7876V9.1626L89.0337 8.78662V10.5H90.3496V11.4775H89.0337V14.4048C89.0337 14.6733 89.082 14.8667 89.1787 14.9849C89.279 15.103 89.4329 15.1621 89.6406 15.1621C89.7409 15.1621 89.8358 15.1514 89.9253 15.1299C90.0184 15.1048 90.1007 15.0744 90.1724 15.0386L90.4409 15.9248ZM93.8623 16.1289C93.0029 16.1289 92.3208 15.8729 91.8159 15.3608C91.3146 14.8452 91.064 14.1559 91.064 13.293C91.0675 12.3799 91.3289 11.6655 91.8481 11.1499C92.3674 10.6307 93.0745 10.3711 93.9697 10.3711C94.8327 10.3675 95.5059 10.6217 95.9893 11.1338C96.4762 11.6423 96.7197 12.3315 96.7197 13.2017C96.7197 14.0968 96.4619 14.8094 95.9463 15.3394C95.4342 15.8657 94.7396 16.1289 93.8623 16.1289ZM93.9214 15.1353C94.4191 15.1353 94.7969 14.9723 95.0547 14.6465C95.3161 14.3206 95.4468 13.8498 95.4468 13.2339C95.4468 12.6252 95.3161 12.1615 95.0547 11.8428C94.7933 11.5241 94.4137 11.3647 93.916 11.3647C93.4255 11.3647 93.0387 11.533 92.7559 11.8696C92.4766 12.2062 92.3369 12.6717 92.3369 13.2661C92.3369 13.8641 92.4766 14.326 92.7559 14.6519C93.0352 14.9741 93.4237 15.1353 93.9214 15.1353ZM101.054 11.5474C100.986 11.5295 100.92 11.5169 100.855 11.5098C100.795 11.499 100.723 11.4937 100.641 11.4937C100.193 11.4937 99.8493 11.6584 99.6094 11.9878C99.3695 12.3172 99.2495 12.7469 99.2495 13.2769V16H97.998V10.5H99.2495V11.5581H99.271C99.3999 11.1785 99.5897 10.8921 99.8403 10.6987C100.091 10.5018 100.386 10.4033 100.727 10.4033C100.823 10.4033 100.909 10.4087 100.984 10.4194C101.063 10.4302 101.138 10.4463 101.21 10.4678L101.054 11.5474ZM106.721 13.5776H102.966C102.988 14.0968 103.138 14.4925 103.417 14.7646C103.697 15.0332 104.087 15.1675 104.588 15.1675C104.792 15.1675 105.025 15.1263 105.287 15.0439C105.548 14.9616 105.806 14.8291 106.06 14.6465L106.624 15.4253C106.284 15.6724 105.938 15.8514 105.587 15.9624C105.236 16.0734 104.85 16.1289 104.427 16.1289C103.571 16.1289 102.905 15.8836 102.429 15.3931C101.953 14.8989 101.713 14.2096 101.709 13.3252C101.709 12.4443 101.955 11.7318 102.445 11.1875C102.939 10.6432 103.571 10.3711 104.341 10.3711C105.079 10.3711 105.659 10.6038 106.082 11.0693C106.508 11.5312 106.721 12.1865 106.721 13.0352V13.5776ZM105.512 12.7129C105.512 12.2402 105.408 11.8857 105.201 11.6494C104.997 11.4095 104.707 11.2896 104.331 11.2896C103.976 11.2896 103.674 11.4185 103.423 11.6763C103.176 11.9305 103.024 12.276 102.966 12.7129H105.512Z" fill="white"/>
<path d="M31.7466 23.0332C31.9266 23.0332 32.1043 23.0514 32.2798 23.0879C32.4552 23.1221 32.6227 23.1711 32.7822 23.2349C32.9326 23.1483 33.0545 23.0446 33.1479 22.9238C33.2414 22.8031 33.3143 22.6743 33.3667 22.5376C33.4214 22.3986 33.4578 22.2562 33.4761 22.1104C33.4943 21.9645 33.5034 21.8221 33.5034 21.6831C33.5034 21.6284 33.5023 21.5783 33.5 21.5327C33.4977 21.4849 33.4943 21.4427 33.4897 21.4062H29.8804V20.9038H34.6006V21.4062H34.0503C34.0549 21.4518 34.0583 21.4963 34.0605 21.5396C34.0628 21.5828 34.064 21.6227 34.064 21.6592C34.064 21.8734 34.0446 22.0705 34.0059 22.2505C33.9671 22.4305 33.9124 22.5957 33.8418 22.7461C33.7712 22.8942 33.6868 23.0286 33.5889 23.1494C33.4932 23.2679 33.3872 23.3727 33.271 23.4639C33.3895 23.5345 33.4977 23.612 33.5957 23.6963C33.6937 23.7806 33.7769 23.8706 33.8452 23.9663C33.9159 24.062 33.9705 24.1623 34.0093 24.2671C34.048 24.3696 34.0674 24.4756 34.0674 24.585C34.0674 24.7012 34.0503 24.8185 34.0161 24.937C33.9842 25.0555 33.9329 25.1706 33.8623 25.2822C33.7939 25.3916 33.7062 25.4953 33.5991 25.5933C33.492 25.689 33.3656 25.7733 33.2197 25.8462C33.0739 25.9191 32.9064 25.9761 32.7173 26.0171C32.5304 26.0604 32.3219 26.082 32.0918 26.082C31.8366 26.082 31.5643 26.0479 31.2749 25.9795C30.9855 25.9111 30.6904 25.8086 30.3896 25.6719V25.2002C30.5218 25.2594 30.6574 25.313 30.7964 25.3608C30.9354 25.4064 31.0744 25.4463 31.2134 25.4805C31.3524 25.5124 31.4891 25.5374 31.6235 25.5557C31.758 25.5739 31.8856 25.583 32.0063 25.583C32.2456 25.583 32.4575 25.5602 32.6421 25.5146C32.8289 25.4691 32.9862 25.4041 33.1138 25.3198C33.2437 25.2355 33.3416 25.1341 33.4077 25.0156C33.4738 24.8971 33.5068 24.765 33.5068 24.6191C33.5068 24.5645 33.4989 24.5018 33.4829 24.4312C33.4692 24.3582 33.4385 24.283 33.3906 24.2056C33.3428 24.1258 33.2733 24.0449 33.1821 23.9629C33.0933 23.8809 32.9748 23.8034 32.8267 23.7305C32.6694 23.8102 32.5076 23.8683 32.3413 23.9048C32.1772 23.9412 32.0132 23.9595 31.8491 23.9595C31.6919 23.9595 31.5472 23.9469 31.415 23.9219C31.2829 23.8968 31.1701 23.8626 31.0767 23.8193C30.9832 23.7738 30.9103 23.7214 30.8579 23.6621C30.8055 23.6006 30.7793 23.5356 30.7793 23.4673C30.7793 23.4126 30.7975 23.359 30.834 23.3066C30.8704 23.2542 30.9274 23.2087 31.0049 23.1699C31.0824 23.1289 31.1826 23.0959 31.3057 23.0708C31.4287 23.0457 31.5757 23.0332 31.7466 23.0332ZM33.5752 20.9961C33.5638 20.8434 33.5422 20.7135 33.5103 20.6064C33.4761 20.4971 33.4339 20.4071 33.3838 20.3364C33.3337 20.2635 33.2767 20.2065 33.2129 20.1655C33.1491 20.1245 33.0807 20.0938 33.0078 20.0732C32.9326 20.0505 32.854 20.0356 32.772 20.0288C32.6899 20.022 32.6068 20.0174 32.5225 20.0151C32.4245 20.0129 32.3265 20.0094 32.2285 20.0049C32.1305 19.998 32.036 19.9832 31.9448 19.9604C31.8514 19.9354 31.7625 19.8989 31.6782 19.8511C31.5916 19.8032 31.513 19.736 31.4424 19.6494C31.3695 19.5605 31.3057 19.45 31.251 19.3179C31.194 19.1834 31.1484 19.0194 31.1143 18.8257L31.5312 18.7266C31.57 18.9202 31.627 19.0695 31.7021 19.1743C31.7751 19.2769 31.8617 19.3521 31.9619 19.3999C32.0622 19.4478 32.1727 19.4762 32.2935 19.4854C32.4142 19.4922 32.5396 19.4967 32.6694 19.499C32.7788 19.5013 32.8859 19.507 32.9907 19.5161C33.0933 19.5229 33.1912 19.5423 33.2847 19.5742C33.3781 19.6061 33.4658 19.654 33.5479 19.7178C33.6276 19.7793 33.6994 19.8647 33.7632 19.9741C33.8247 20.0835 33.8771 20.2214 33.9204 20.3877C33.9637 20.554 33.9945 20.7568 34.0127 20.9961H33.5752ZM34.1904 19.8613C34.1904 19.7314 34.2292 19.6266 34.3066 19.5469C34.3818 19.4648 34.481 19.4238 34.604 19.4238C34.661 19.4238 34.7145 19.4352 34.7646 19.458C34.8171 19.4808 34.8626 19.5127 34.9014 19.5537C34.9401 19.5924 34.9697 19.6392 34.9902 19.6938C35.013 19.7463 35.0244 19.8044 35.0244 19.8682C35.0244 19.998 34.9857 20.1029 34.9082 20.1826C34.833 20.2624 34.7339 20.3022 34.6108 20.3022C34.5516 20.3022 34.4969 20.292 34.4468 20.2715C34.3944 20.2487 34.3499 20.2179 34.3135 20.1792C34.2747 20.1382 34.2451 20.0915 34.2246 20.0391C34.2018 19.9844 34.1904 19.9251 34.1904 19.8613ZM38.0835 22.459C38.3114 22.459 38.5358 22.4806 38.7568 22.5239C38.9801 22.5672 39.1921 22.631 39.3926 22.7153C39.4974 22.6584 39.5828 22.5911 39.6489 22.5137C39.7173 22.4339 39.7697 22.3485 39.8062 22.2573C39.8449 22.1662 39.8711 22.0716 39.8848 21.9736C39.9007 21.8757 39.9087 21.7788 39.9087 21.6831C39.9087 21.6284 39.9076 21.5783 39.9053 21.5327C39.903 21.4849 39.8996 21.4427 39.895 21.4062H36.2856V20.9038H41.2007V21.4062H40.4556C40.4601 21.4518 40.4635 21.4963 40.4658 21.5396C40.4681 21.5828 40.4692 21.6227 40.4692 21.6592C40.4692 21.821 40.4533 21.9679 40.4214 22.1001C40.3895 22.23 40.3451 22.3485 40.2881 22.4556C40.2334 22.5604 40.1673 22.6538 40.0898 22.7358C40.0124 22.8179 39.9292 22.8896 39.8403 22.9512C39.9634 23.0332 40.0762 23.1232 40.1787 23.2212C40.2812 23.3192 40.369 23.4263 40.4419 23.5425C40.5148 23.6564 40.5706 23.7783 40.6094 23.9082C40.6504 24.0358 40.6709 24.1714 40.6709 24.3149C40.6709 24.561 40.6128 24.7923 40.4966 25.0088C40.3826 25.223 40.2277 25.4098 40.0317 25.5693C39.8381 25.7288 39.6113 25.8553 39.3516 25.9487C39.0941 26.0399 38.8218 26.0854 38.5347 26.0854C38.3114 26.0854 38.1051 26.057 37.916 26C37.7292 25.9453 37.5662 25.8667 37.4272 25.7642C37.2905 25.6616 37.1834 25.5397 37.106 25.3984C37.0285 25.2572 36.9897 25.1011 36.9897 24.9302C36.9897 24.7752 37.0205 24.6396 37.082 24.5234C37.1458 24.4072 37.2301 24.3104 37.335 24.2329C37.4398 24.1554 37.5594 24.0973 37.6938 24.0586C37.8306 24.0199 37.973 24.0005 38.1211 24.0005C38.2555 24.0005 38.3923 24.0176 38.5312 24.0518C38.6725 24.0859 38.8161 24.1418 38.9619 24.2192C39.1077 24.2944 39.257 24.3936 39.4097 24.5166C39.5623 24.6374 39.7173 24.7855 39.8745 24.9609C39.9474 24.8652 40.0044 24.7604 40.0454 24.6465C40.0887 24.5326 40.1104 24.4095 40.1104 24.2773C40.1104 24.2113 40.1024 24.1338 40.0864 24.0449C40.0705 23.9561 40.0363 23.8626 39.9839 23.7646C39.9315 23.6667 39.8551 23.5687 39.7549 23.4707C39.6569 23.3704 39.5247 23.277 39.3584 23.1904C39.2673 23.2223 39.1761 23.2485 39.085 23.269C38.9938 23.2873 38.9049 23.3021 38.8184 23.3135C38.7318 23.3249 38.6497 23.3328 38.5723 23.3374C38.4948 23.342 38.4253 23.3442 38.3638 23.3442C38.1906 23.3442 38.0311 23.3317 37.8853 23.3066C37.7417 23.2816 37.6175 23.2474 37.5127 23.2041C37.4102 23.1585 37.3293 23.1061 37.27 23.0469C37.2131 22.9854 37.1846 22.9204 37.1846 22.8521C37.1846 22.8019 37.2017 22.7541 37.2358 22.7085C37.27 22.6606 37.3236 22.6185 37.3965 22.582C37.4694 22.5456 37.5628 22.516 37.6768 22.4932C37.7907 22.4704 37.9263 22.459 38.0835 22.459ZM38.1279 24.5029C37.9502 24.5029 37.8089 24.5417 37.7041 24.6191C37.6016 24.6966 37.5503 24.8037 37.5503 24.9404C37.5503 25.0316 37.5742 25.117 37.6221 25.1968C37.6722 25.2743 37.7406 25.3415 37.8271 25.3984C37.916 25.4554 38.0197 25.501 38.1382 25.5352C38.2567 25.5671 38.3843 25.583 38.521 25.583C38.6873 25.583 38.8537 25.5602 39.02 25.5146C39.1886 25.4668 39.3447 25.3984 39.4883 25.3096C39.3926 25.182 39.2878 25.068 39.1738 24.9678C39.0622 24.8675 38.9471 24.7832 38.8286 24.7148C38.7124 24.6465 38.5939 24.5941 38.4731 24.5576C38.3547 24.5212 38.2396 24.5029 38.1279 24.5029ZM43.019 20.9038V21.4062H42.4209V24.2466H41.8604V21.4062H40.9614V20.9038H43.019ZM48.0845 20.9038V21.4062H47.7495C47.7495 21.429 47.7495 21.4518 47.7495 21.4746C47.7518 21.4951 47.7529 21.5156 47.7529 21.5361C47.7529 21.7708 47.7301 21.993 47.6846 22.2026C47.639 22.41 47.5695 22.598 47.4761 22.7666C47.3849 22.9352 47.271 23.0799 47.1343 23.2007C46.9976 23.3215 46.8381 23.4115 46.6558 23.4707L46.6523 23.4878C46.8848 23.6701 47.0511 23.8672 47.1514 24.0791C47.2516 24.291 47.3018 24.5166 47.3018 24.7559C47.3018 24.9746 47.2642 25.1672 47.189 25.3335C47.116 25.4998 47.0169 25.6388 46.8916 25.7505C46.7663 25.8599 46.6204 25.943 46.4541 26C46.2878 26.057 46.1134 26.0854 45.9312 26.0854C45.7033 26.0854 45.4937 26.0444 45.3022 25.9624C45.1108 25.8804 44.9365 25.7676 44.7793 25.624C44.6221 25.4782 44.4808 25.3073 44.3555 25.1113C44.2301 24.9154 44.1196 24.7046 44.0239 24.479C43.9282 24.2534 43.8462 24.0187 43.7778 23.7749C43.7095 23.5288 43.6536 23.2839 43.6104 23.04C43.5671 22.7939 43.5352 22.5547 43.5146 22.3223C43.4941 22.0898 43.4839 21.8734 43.4839 21.6729C43.4839 21.6273 43.4839 21.5828 43.4839 21.5396C43.4862 21.4963 43.4884 21.4518 43.4907 21.4062H42.7798V20.9038H43.5386C43.5819 20.6213 43.6525 20.3626 43.7505 20.1279C43.8507 19.8932 43.9818 19.6916 44.1436 19.5229C44.3076 19.3521 44.5036 19.2199 44.7314 19.1265C44.9593 19.033 45.2248 18.9863 45.5278 18.9863C45.8468 18.9863 46.1294 19.0376 46.3755 19.1401C46.6239 19.2427 46.8369 19.3817 47.0146 19.5571C47.1947 19.7326 47.3405 19.9365 47.4521 20.1689C47.5661 20.3991 47.647 20.644 47.6948 20.9038H48.0845ZM45.9209 23.0776C46.1533 23.0776 46.3504 23.04 46.5122 22.9648C46.674 22.8874 46.8039 22.7814 46.9019 22.647C47.0021 22.5103 47.0739 22.3507 47.1172 22.1685C47.1628 21.9862 47.1855 21.7891 47.1855 21.5771C47.1855 21.5498 47.1844 21.5225 47.1821 21.4951C47.1821 21.4655 47.181 21.4359 47.1787 21.4062H44.0547C44.0524 21.4427 44.0513 21.4792 44.0513 21.5156C44.0513 21.5521 44.0513 21.5885 44.0513 21.625C44.0513 21.8346 44.0627 22.0636 44.0854 22.312C44.1082 22.5604 44.1447 22.8156 44.1948 23.0776H45.9209ZM45.938 25.583C46.0451 25.583 46.1465 25.5671 46.2422 25.5352C46.3402 25.5033 46.4256 25.4543 46.4985 25.3882C46.5737 25.3198 46.633 25.2355 46.6763 25.1353C46.7196 25.0327 46.7412 24.9119 46.7412 24.7729C46.7412 24.5907 46.7048 24.4277 46.6318 24.2842C46.5589 24.1383 46.4609 24.0153 46.3379 23.915C46.2171 23.8148 46.0781 23.7384 45.9209 23.686C45.7637 23.6313 45.6007 23.604 45.4321 23.604H44.3145C44.3851 23.866 44.4705 24.1167 44.5708 24.356C44.6711 24.5952 44.7873 24.806 44.9194 24.9883C45.0539 25.1683 45.2054 25.313 45.374 25.4224C45.5426 25.5295 45.7306 25.583 45.938 25.583ZM45.5244 19.4888C45.3102 19.4888 45.1222 19.5229 44.9604 19.5913C44.7987 19.6597 44.6597 19.7565 44.5435 19.8818C44.4295 20.0072 44.3361 20.1564 44.2632 20.3296C44.1925 20.5028 44.1401 20.6942 44.106 20.9038H47.1104C47.0671 20.7101 47.0021 20.5278 46.9155 20.3569C46.8312 20.1838 46.723 20.0334 46.5908 19.9058C46.4609 19.7782 46.3071 19.6768 46.1294 19.6016C45.9517 19.5264 45.75 19.4888 45.5244 19.4888ZM47.3804 26.8647C47.2391 26.9126 47.1069 26.9536 46.9839 26.9878C46.8608 27.022 46.7389 27.0493 46.6182 27.0698C46.4997 27.0903 46.3778 27.1051 46.2524 27.1143C46.1271 27.1257 45.9893 27.1313 45.8389 27.1313C45.6885 27.1313 45.5483 27.1257 45.4185 27.1143C45.2886 27.1051 45.161 27.0903 45.0356 27.0698C44.9126 27.0493 44.7884 27.022 44.6631 26.9878C44.5378 26.9536 44.4045 26.9126 44.2632 26.8647V26.3623C44.4045 26.4102 44.5355 26.4512 44.6562 26.4854C44.7793 26.5195 44.9001 26.5469 45.0186 26.5674C45.1393 26.5879 45.2624 26.6027 45.3877 26.6118C45.5153 26.6232 45.6543 26.6289 45.8047 26.6289C45.9551 26.6289 46.0941 26.6232 46.2217 26.6118C46.3516 26.6027 46.478 26.5879 46.6011 26.5674C46.7264 26.5469 46.8517 26.5195 46.9771 26.4854C47.1024 26.4512 47.2368 26.4102 47.3804 26.3623V26.8647ZM51.2495 25.5625C51.3589 25.5101 51.4523 25.4531 51.5298 25.3916C51.6095 25.3301 51.6745 25.2617 51.7246 25.1865C51.777 25.109 51.8158 25.0247 51.8408 24.9336C51.8659 24.8402 51.8784 24.7365 51.8784 24.6226C51.8784 24.4585 51.8556 24.3081 51.8101 24.1714C51.7645 24.0324 51.703 23.9082 51.6255 23.7988C51.5503 23.6895 51.4637 23.5938 51.3657 23.5117C51.2677 23.4297 51.1663 23.3625 51.0615 23.3101C50.959 23.2554 50.8564 23.2144 50.7539 23.187C50.6536 23.1597 50.5625 23.146 50.4805 23.146C50.3916 23.146 50.2959 23.1619 50.1934 23.1938C50.0931 23.2235 49.9917 23.2679 49.8892 23.3271C49.7889 23.3864 49.6921 23.4593 49.5986 23.5459C49.5052 23.6325 49.4232 23.7327 49.3525 23.8467C49.2819 23.9583 49.2249 24.0825 49.1816 24.2192C49.1383 24.356 49.1167 24.5029 49.1167 24.6602C49.1167 24.8835 49.1646 25.068 49.2603 25.2139C49.3582 25.3597 49.5177 25.4827 49.7388 25.583L49.5713 26.082C49.2318 25.9613 48.9766 25.7881 48.8057 25.5625C48.6348 25.3369 48.5493 25.0384 48.5493 24.667C48.5493 24.3936 48.5915 24.1463 48.6758 23.9253C48.7624 23.702 48.8809 23.506 49.0312 23.3374C49.1816 23.1688 49.3582 23.0275 49.561 22.9136C49.7638 22.7996 49.9814 22.7153 50.2139 22.6606V21.4062H47.8452V20.9038H52.9551V21.4062H50.7778V22.6641C51.0125 22.7165 51.2313 22.7996 51.4341 22.9136C51.6392 23.0275 51.8158 23.1711 51.9639 23.3442C52.1143 23.5151 52.2316 23.7134 52.3159 23.939C52.4025 24.1646 52.4458 24.4141 52.4458 24.6875C52.4458 24.8721 52.4242 25.0384 52.3809 25.1865C52.3398 25.3324 52.2772 25.4622 52.1929 25.5762C52.1108 25.6878 52.006 25.7858 51.8784 25.8701C51.7508 25.9521 51.6016 26.0228 51.4307 26.082L51.2495 25.5625ZM55.7646 24.2466C55.6029 24.1554 55.457 24.0506 55.3271 23.9321C55.1973 23.8114 55.0799 23.6803 54.9751 23.5391C54.8019 23.5892 54.6527 23.6541 54.5273 23.7339C54.4043 23.8114 54.3018 23.8968 54.2197 23.9902C54.14 24.0814 54.0807 24.1771 54.042 24.2773C54.0033 24.3776 53.9839 24.4744 53.9839 24.5679C53.9839 24.6909 54.0135 24.8026 54.0728 24.9028C54.1343 25.0031 54.2186 25.0942 54.3257 25.1763C54.4351 25.2583 54.5649 25.3335 54.7153 25.4019C54.868 25.4679 55.0355 25.5283 55.2178 25.583L55.0503 26.082C54.8179 26.0205 54.6025 25.9442 54.4043 25.853C54.2061 25.7619 54.034 25.6548 53.8882 25.5317C53.7446 25.4064 53.6307 25.264 53.5464 25.1045C53.4644 24.945 53.4233 24.7661 53.4233 24.5679C53.4233 24.4084 53.4507 24.2546 53.5054 24.1064C53.5601 23.9583 53.641 23.8205 53.748 23.6929C53.8551 23.5653 53.9873 23.4502 54.1445 23.3477C54.304 23.2428 54.4875 23.1562 54.6948 23.0879C54.6219 22.9466 54.5581 22.8031 54.5034 22.6572C54.4487 22.5091 54.402 22.3633 54.3633 22.2197C54.3268 22.0739 54.2972 21.9326 54.2744 21.7959C54.2516 21.6592 54.2357 21.5293 54.2266 21.4062H52.7192V20.9038H58.6084V21.4062H57.2959C57.2868 21.5293 57.2708 21.6592 57.248 21.7959C57.2275 21.9326 57.1979 22.0739 57.1592 22.2197C57.1227 22.3633 57.0771 22.5091 57.0225 22.6572C56.9678 22.8031 56.904 22.9466 56.8311 23.0879C57.0452 23.1585 57.231 23.2474 57.3882 23.3545C57.5477 23.4616 57.6799 23.5801 57.7847 23.71C57.8895 23.8398 57.967 23.9788 58.0171 24.127C58.0695 24.2751 58.0957 24.4266 58.0957 24.5815C58.0957 24.7775 58.0558 24.9541 57.9761 25.1113C57.8986 25.2686 57.7881 25.4087 57.6445 25.5317C57.5033 25.6548 57.3324 25.7619 57.1318 25.853C56.9336 25.9442 56.7137 26.0205 56.4722 26.082L56.2979 25.5693C56.4733 25.5215 56.6362 25.4645 56.7866 25.3984C56.937 25.3324 57.068 25.2572 57.1797 25.1729C57.2913 25.0863 57.3779 24.9906 57.4395 24.8857C57.5033 24.7809 57.5352 24.6659 57.5352 24.5405C57.5352 24.4448 57.5146 24.348 57.4736 24.25C57.4349 24.1497 57.3757 24.0552 57.2959 23.9663C57.2161 23.8752 57.1147 23.792 56.9917 23.7168C56.8709 23.6393 56.7285 23.5744 56.5645 23.522C56.4574 23.6655 56.3377 23.7988 56.2056 23.9219C56.0757 24.0449 55.9287 24.1532 55.7646 24.2466ZM55.7544 23.6108C55.8866 23.4924 56.0085 23.3568 56.1201 23.2041C56.234 23.0514 56.3332 22.8828 56.4175 22.6982C56.5041 22.5137 56.5747 22.3143 56.6294 22.1001C56.6841 21.8836 56.7194 21.6523 56.7354 21.4062H54.7871C54.8031 21.6523 54.8372 21.8836 54.8896 22.1001C54.9443 22.3143 55.0127 22.5125 55.0947 22.6948C55.179 22.8771 55.277 23.0446 55.3887 23.1973C55.5003 23.3499 55.6222 23.4878 55.7544 23.6108ZM56.8003 20.9961C56.7843 20.8434 56.7581 20.7135 56.7217 20.6064C56.6852 20.4971 56.6419 20.4071 56.5918 20.3364C56.5417 20.2635 56.487 20.2065 56.4277 20.1655C56.3662 20.1245 56.3024 20.0938 56.2363 20.0732C56.168 20.0505 56.0985 20.0356 56.0278 20.0288C55.9572 20.022 55.8888 20.0174 55.8228 20.0151C55.743 20.0129 55.661 20.0094 55.5767 20.0049C55.4924 19.998 55.408 19.9832 55.3237 19.9604C55.2394 19.9354 55.1574 19.8989 55.0776 19.8511C54.9979 19.8032 54.9227 19.736 54.8521 19.6494C54.7814 19.5605 54.7176 19.45 54.6606 19.3179C54.6014 19.1834 54.5535 19.0194 54.5171 18.8257L54.9341 18.7266C54.9637 18.8564 55.0013 18.9658 55.0469 19.0547C55.0902 19.1413 55.1392 19.2131 55.1938 19.27C55.2485 19.3247 55.3078 19.368 55.3716 19.3999C55.4354 19.4295 55.5015 19.4523 55.5698 19.4683C55.6382 19.4819 55.7077 19.4899 55.7783 19.4922C55.849 19.4945 55.9196 19.4967 55.9902 19.499C56.0791 19.5013 56.1691 19.507 56.2603 19.5161C56.3514 19.5229 56.4391 19.5423 56.5234 19.5742C56.6077 19.6061 56.6886 19.654 56.7661 19.7178C56.8413 19.7793 56.9108 19.8647 56.9746 19.9741C57.0361 20.0835 57.0897 20.2214 57.1353 20.3877C57.1808 20.554 57.215 20.7568 57.2378 20.9961H56.8003ZM60.1704 22.459C60.3983 22.459 60.6227 22.4806 60.8438 22.5239C61.0671 22.5672 61.279 22.631 61.4795 22.7153C61.5843 22.6584 61.6698 22.5911 61.7358 22.5137C61.8042 22.4339 61.8566 22.3485 61.8931 22.2573C61.9318 22.1662 61.958 22.0716 61.9717 21.9736C61.9876 21.8757 61.9956 21.7788 61.9956 21.6831C61.9956 21.6284 61.9945 21.5783 61.9922 21.5327C61.9899 21.4849 61.9865 21.4427 61.9819 21.4062H58.3726V20.9038H63.2876V21.4062H62.5425C62.547 21.4518 62.5505 21.4963 62.5527 21.5396C62.555 21.5828 62.5562 21.6227 62.5562 21.6592C62.5562 21.821 62.5402 21.9679 62.5083 22.1001C62.4764 22.23 62.432 22.3485 62.375 22.4556C62.3203 22.5604 62.2542 22.6538 62.1768 22.7358C62.0993 22.8179 62.0161 22.8896 61.9272 22.9512C62.0503 23.0332 62.1631 23.1232 62.2656 23.2212C62.3682 23.3192 62.4559 23.4263 62.5288 23.5425C62.6017 23.6564 62.6576 23.7783 62.6963 23.9082C62.7373 24.0358 62.7578 24.1714 62.7578 24.3149C62.7578 24.561 62.6997 24.7923 62.5835 25.0088C62.4696 25.223 62.3146 25.4098 62.1187 25.5693C61.925 25.7288 61.6982 25.8553 61.4385 25.9487C61.181 26.0399 60.9087 26.0854 60.6216 26.0854C60.3983 26.0854 60.1921 26.057 60.0029 26C59.8161 25.9453 59.6532 25.8667 59.5142 25.7642C59.3774 25.6616 59.2703 25.5397 59.1929 25.3984C59.1154 25.2572 59.0767 25.1011 59.0767 24.9302C59.0767 24.7752 59.1074 24.6396 59.1689 24.5234C59.2327 24.4072 59.3171 24.3104 59.4219 24.2329C59.5267 24.1554 59.6463 24.0973 59.7808 24.0586C59.9175 24.0199 60.0599 24.0005 60.208 24.0005C60.3424 24.0005 60.4792 24.0176 60.6182 24.0518C60.7594 24.0859 60.903 24.1418 61.0488 24.2192C61.1947 24.2944 61.3439 24.3936 61.4966 24.5166C61.6493 24.6374 61.8042 24.7855 61.9614 24.9609C62.0343 24.8652 62.0913 24.7604 62.1323 24.6465C62.1756 24.5326 62.1973 24.4095 62.1973 24.2773C62.1973 24.2113 62.1893 24.1338 62.1733 24.0449C62.1574 23.9561 62.1232 23.8626 62.0708 23.7646C62.0184 23.6667 61.9421 23.5687 61.8418 23.4707C61.7438 23.3704 61.6117 23.277 61.4453 23.1904C61.3542 23.2223 61.263 23.2485 61.1719 23.269C61.0807 23.2873 60.9919 23.3021 60.9053 23.3135C60.8187 23.3249 60.7367 23.3328 60.6592 23.3374C60.5817 23.342 60.5122 23.3442 60.4507 23.3442C60.2775 23.3442 60.118 23.3317 59.9722 23.3066C59.8286 23.2816 59.7044 23.2474 59.5996 23.2041C59.4971 23.1585 59.4162 23.1061 59.3569 23.0469C59.3 22.9854 59.2715 22.9204 59.2715 22.8521C59.2715 22.8019 59.2886 22.7541 59.3228 22.7085C59.3569 22.6606 59.4105 22.6185 59.4834 22.582C59.5563 22.5456 59.6497 22.516 59.7637 22.4932C59.8776 22.4704 60.0132 22.459 60.1704 22.459ZM60.2148 24.5029C60.0371 24.5029 59.8958 24.5417 59.791 24.6191C59.6885 24.6966 59.6372 24.8037 59.6372 24.9404C59.6372 25.0316 59.6611 25.117 59.709 25.1968C59.7591 25.2743 59.8275 25.3415 59.9141 25.3984C60.0029 25.4554 60.1066 25.501 60.2251 25.5352C60.3436 25.5671 60.4712 25.583 60.6079 25.583C60.7743 25.583 60.9406 25.5602 61.1069 25.5146C61.2756 25.4668 61.4316 25.3984 61.5752 25.3096C61.4795 25.182 61.3747 25.068 61.2607 24.9678C61.1491 24.8675 61.034 24.7832 60.9155 24.7148C60.7993 24.6465 60.6808 24.5941 60.5601 24.5576C60.4416 24.5212 60.3265 24.5029 60.2148 24.5029ZM70.0791 21.4062H69.5459C69.5459 21.9235 69.4855 22.3986 69.3647 22.8315C69.244 23.2645 69.0765 23.6439 68.8623 23.9697C68.9329 24.1361 68.9967 24.3058 69.0537 24.479C69.1107 24.6522 69.1597 24.8265 69.2007 25.002C69.244 25.1751 69.2793 25.346 69.3066 25.5146C69.3363 25.6833 69.359 25.8451 69.375 26H68.7905C68.7746 25.7288 68.7415 25.4622 68.6914 25.2002C68.6436 24.9359 68.5786 24.6784 68.4966 24.4277C68.2938 24.6351 68.0716 24.7957 67.8301 24.9097C67.5885 25.0213 67.3356 25.0771 67.0713 25.0771C66.8525 25.0771 66.6566 25.043 66.4834 24.9746C66.3102 24.9062 66.1632 24.814 66.0425 24.6978C65.924 24.5793 65.8328 24.4425 65.769 24.2876C65.7052 24.1326 65.6733 23.9697 65.6733 23.7988C65.6733 23.6074 65.7098 23.432 65.7827 23.2725C65.8579 23.1107 65.9582 22.9728 66.0835 22.8589C66.2111 22.7427 66.3581 22.6527 66.5244 22.5889C66.6908 22.5251 66.8662 22.4932 67.0508 22.4932C67.208 22.4932 67.3573 22.5171 67.4985 22.5649C67.6421 22.6128 67.7765 22.6789 67.9019 22.7632C68.0272 22.8475 68.1445 22.9478 68.2539 23.064C68.3633 23.1802 68.4624 23.3078 68.5513 23.4468C68.6834 23.1847 68.7882 22.884 68.8657 22.5444C68.9455 22.2049 68.9854 21.8255 68.9854 21.4062H64.9692V20.9038H70.0791V21.4062ZM67.0747 22.9956C66.9471 22.9956 66.832 23.0184 66.7295 23.064C66.627 23.1073 66.5392 23.1665 66.4663 23.2417C66.3934 23.3169 66.3376 23.4035 66.2988 23.5015C66.2601 23.5994 66.2407 23.7008 66.2407 23.8057C66.2407 23.915 66.2612 24.0176 66.3022 24.1133C66.3455 24.2067 66.4048 24.2876 66.48 24.356C66.5575 24.4243 66.6486 24.4779 66.7534 24.5166C66.8582 24.5553 66.9733 24.5747 67.0986 24.5747C67.3014 24.5747 67.502 24.5189 67.7002 24.4072C67.9007 24.2956 68.0864 24.1315 68.2573 23.915C68.1867 23.7806 68.1081 23.6576 68.0215 23.5459C67.9372 23.432 67.8449 23.3351 67.7446 23.2554C67.6444 23.1733 67.5384 23.1095 67.4268 23.064C67.3151 23.0184 67.1978 22.9956 67.0747 22.9956ZM74.3687 20.9038V21.4062H73.8354V24.814C73.8354 25.0737 73.8092 25.2856 73.7568 25.4497C73.7067 25.6138 73.6349 25.7425 73.5415 25.8359C73.4504 25.9294 73.3421 25.9932 73.2168 26.0273C73.0915 26.0638 72.9548 26.082 72.8066 26.082C72.6016 26.082 72.4033 26.0547 72.2119 26C72.0228 25.9476 71.8439 25.8735 71.6753 25.7778C71.509 25.6821 71.3563 25.5671 71.2173 25.4326C71.0783 25.2982 70.9587 25.1501 70.8584 24.9883C70.7604 24.8265 70.6841 24.6533 70.6294 24.4688C70.5747 24.2842 70.5474 24.0928 70.5474 23.8945C70.5474 23.751 70.5645 23.6188 70.5986 23.498C70.6351 23.3773 70.6943 23.2736 70.7764 23.187C70.8584 23.0981 70.9655 23.0298 71.0977 22.9819C71.2321 22.9318 71.3973 22.9067 71.5933 22.9067H73.2749V21.4062H69.8433V20.9038H74.3687ZM71.7402 23.4092C71.6263 23.4092 71.5295 23.4172 71.4497 23.4331C71.37 23.4491 71.305 23.4753 71.2549 23.5117C71.2048 23.5482 71.1683 23.5972 71.1455 23.6587C71.125 23.7202 71.1147 23.7965 71.1147 23.8877C71.1147 24.0335 71.1364 24.1759 71.1797 24.3149C71.223 24.4539 71.2834 24.5861 71.3608 24.7114C71.4383 24.8368 71.5295 24.953 71.6343 25.0601C71.7414 25.1649 71.8564 25.256 71.9795 25.3335C72.1048 25.411 72.237 25.4714 72.376 25.5146C72.515 25.5579 72.6562 25.5796 72.7998 25.5796C72.875 25.5796 72.9422 25.5716 73.0015 25.5557C73.0607 25.5374 73.1097 25.501 73.1484 25.4463C73.1895 25.3916 73.2202 25.3141 73.2407 25.2139C73.2635 25.1113 73.2749 24.9769 73.2749 24.8105V23.4092H71.7402ZM73.3433 20.9961C73.3273 20.8434 73.3011 20.7135 73.2646 20.6064C73.2282 20.4971 73.1849 20.4071 73.1348 20.3364C73.0846 20.2635 73.0299 20.2065 72.9707 20.1655C72.9092 20.1245 72.8454 20.0938 72.7793 20.0732C72.7109 20.0505 72.6414 20.0356 72.5708 20.0288C72.5002 20.022 72.4318 20.0174 72.3657 20.0151C72.286 20.0129 72.2039 20.0094 72.1196 20.0049C72.0353 19.998 71.951 19.9832 71.8667 19.9604C71.7824 19.9354 71.7004 19.8989 71.6206 19.8511C71.5409 19.8032 71.4657 19.736 71.395 19.6494C71.3244 19.5605 71.2606 19.45 71.2036 19.3179C71.1444 19.1834 71.0965 19.0194 71.0601 18.8257L71.4771 18.7266C71.5067 18.8564 71.5443 18.9658 71.5898 19.0547C71.6331 19.1413 71.6821 19.2131 71.7368 19.27C71.7915 19.3247 71.8507 19.368 71.9146 19.3999C71.9784 19.4295 72.0444 19.4523 72.1128 19.4683C72.1812 19.4819 72.2507 19.4899 72.3213 19.4922C72.3919 19.4945 72.4626 19.4967 72.5332 19.499C72.6221 19.5013 72.7121 19.507 72.8032 19.5161C72.8944 19.5229 72.9821 19.5423 73.0664 19.5742C73.1507 19.6061 73.2316 19.654 73.3091 19.7178C73.3843 19.7793 73.4538 19.8647 73.5176 19.9741C73.5791 20.0835 73.6326 20.2214 73.6782 20.3877C73.7238 20.554 73.758 20.7568 73.7808 20.9961H73.3433Z" fill="white" fill-opacity="0.786"/>
<defs>
<filter id="filter0_dd_978_1486" x="11.0938" y="7.25" width="11.8125" height="5.625" filterUnits="userSpaceOnUse" color-interpolation-filters="sRGB">
<feFlood flood-opacity="0" result="BackgroundImageFix"/>
<feColorMatrix in="SourceAlpha" type="matrix" values="0 0 0 0 0 0 0 0 0 0 0 0 0 0 0 0 0 0 127 0" result="hardAlpha"/>
<feOffset dy="0.1875"/>
<feGaussianBlur stdDeviation="0.1875"/>
<feColorMatrix type="matrix" values="0 0 0 0 0 0 0 0 0 0 0 0 0 0 0 0 0 0 0.1 0"/>
<feBlend mode="normal" in2="BackgroundImageFix" result="effect1_dropShadow_978_1486"/>
<feColorMatrix in="SourceAlpha" type="matrix" values="0 0 0 0 0 0 0 0 0 0 0 0 0 0 0 0 0 0 127 0" result="hardAlpha"/>
<feOffset dy="0.375"/>
<feGaussianBlur stdDeviation="0.5625"/>
<feColorMatrix type="matrix" values="0 0 0 0 0 0 0 0 0 0 0 0 0 0 0 0 0 0 0.2 0"/>
<feBlend mode="normal" in2="effect1_dropShadow_978_1486" result="effect2_dropShadow_978_1486"/>
<feBlend mode="normal" in="SourceGraphic" in2="effect2_dropShadow_978_1486" result="shape"/>
</filter>
<filter id="filter1_dd_978_1486" x="12.2188" y="13.4375" width="9.5625" height="9.5625" filterUnits="userSpaceOnUse" color-interpolation-filters="sRGB">
<feFlood flood-opacity="0" result="BackgroundImageFix"/>
<feColorMatrix in="SourceAlpha" type="matrix" values="0 0 0 0 0 0 0 0 0 0 0 0 0 0 0 0 0 0 127 0" result="hardAlpha"/>
<feOffset dy="0.1875"/>
<feGaussianBlur stdDeviation="0.1875"/>
<feColorMatrix type="matrix" values="0 0 0 0 1 0 0 0 0 1 0 0 0 0 1 0 0 0 0.6 0"/>
<feBlend mode="normal" in2="BackgroundImageFix" result="effect1_dropShadow_978_1486"/>
<feColorMatrix in="SourceAlpha" type="matrix" values="0 0 0 0 0 0 0 0 0 0 0 0 0 0 0 0 0 0 127 0" result="hardAlpha"/>
<feOffset dy="0.375"/>
<feGaussianBlur stdDeviation="0.5625"/>
<feColorMatrix type="matrix" values="0 0 0 0 1 0 0 0 0 1 0 0 0 0 1 0 0 0 0.6 0"/>
<feBlend mode="normal" in2="effect1_dropShadow_978_1486" result="effect2_dropShadow_978_1486"/>
<feBlend mode="normal" in="SourceGraphic" in2="effect2_dropShadow_978_1486" result="shape"/>
</filter>
<filter id="filter2_dd_978_1486" x="10.5939" y="6.6875" width="12.8124" height="5.06274" filterUnits="userSpaceOnUse" color-interpolation-filters="sRGB">
<feFlood flood-opacity="0" result="BackgroundImageFix"/>
<feColorMatrix in="SourceAlpha" type="matrix" values="0 0 0 0 0 0 0 0 0 0 0 0 0 0 0 0 0 0 127 0" result="hardAlpha"/>
<feOffset dy="-0.75"/>
<feGaussianBlur stdDeviation="0.1875"/>
<feColorMatrix type="matrix" values="0 0 0 0 0 0 0 0 0 0 0 0 0 0 0 0 0 0 0.1 0"/>
<feBlend mode="normal" in2="BackgroundImageFix" result="effect1_dropShadow_978_1486"/>
<feColorMatrix in="SourceAlpha" type="matrix" values="0 0 0 0 0 0 0 0 0 0 0 0 0 0 0 0 0 0 127 0" result="hardAlpha"/>
<feOffset dy="-0.75"/>
<feGaussianBlur stdDeviation="0.5625"/>
<feColorMatrix type="matrix" values="0 0 0 0 0 0 0 0 0 0 0 0 0 0 0 0 0 0 0.2 0"/>
<feBlend mode="normal" in2="effect1_dropShadow_978_1486" result="effect2_dropShadow_978_1486"/>
<feBlend mode="normal" in="SourceGraphic" in2="effect2_dropShadow_978_1486" result="shape"/>
</filter>
<linearGradient id="paint0_linear_978_1486" x1="12.2443" y1="8.00639" x2="15.9039" y2="24.8132" gradientUnits="userSpaceOnUse">
<stop offset="0.270833" stop-color="white"/>
<stop offset="1" stop-color="#DFDFDF"/>
</linearGradient>
<linearGradient id="paint1_linear_978_1486" x1="17" y1="10.25" x2="20.3514" y2="25.9624" gradientUnits="userSpaceOnUse">
<stop stop-color="#0078D4"/>
<stop offset="1" stop-color="#114A8B"/>
</linearGradient>
<linearGradient id="paint2_linear_978_1486" x1="17" y1="8.5625" x2="17.1583" y2="10.9858" gradientUnits="userSpaceOnUse">
<stop stop-color="#28AFEA"/>
<stop offset="1" stop-color="#0078D4"/>
</linearGradient>
<linearGradient id="paint3_linear_978_1486" x1="17" y1="8.5625" x2="17.1583" y2="10.9858" gradientUnits="userSpaceOnUse">
<stop stop-color="#30DAFF"/>
<stop offset="1" stop-color="#0094D4"/>
</linearGradient>
<linearGradient id="paint4_linear_978_1486" x1="16.5938" y1="8" x2="16.5937" y2="9.125" gradientUnits="userSpaceOnUse">
<stop stop-color="#22BCFF"/>
<stop offset="1" stop-color="#0088F0"/>
</linearGradient>
<linearGradient id="paint5_linear_978_1486" x1="16.5938" y1="8" x2="16.5937" y2="9.125" gradientUnits="userSpaceOnUse">
<stop stop-color="#28AFEA"/>
<stop offset="1" stop-color="#3CCBF4"/>
</linearGradient>
<clipPath id="clip0_978_1486">
<rect width="18" height="18" fill="white" transform="translate(8 8)"/>
</clipPath>
<clipPath id="clip1_978_1486">
<rect width="18" height="18" fill="white" transform="translate(8 8)"/>
</clipPath>
</defs>
</svg>
