<svg width="97" height="32" viewBox="0 0 97 32" fill="none" xmlns="http://www.w3.org/2000/svg">
<rect x="0.5" y="0.5" width="96" height="31" rx="3.5" fill="white"/>
<path d="M15.5559 7H7V15.5608H15.5559V7Z" fill="#F25022"/>
<path d="M25.0001 7H16.4442V15.5608H25.0001V7Z" fill="#7FBA00"/>
<path d="M15.5559 16.4395H7V25.0002H15.5559V16.4395Z" fill="#00A4EF"/>
<path d="M25.0002 16.4395H16.4443V25.0002H25.0002V16.4395Z" fill="#FFB900"/>
<path d="M30.4766 10.9648V13H29.7656V7.39844H31.3438C31.9531 7.39844 32.4232 7.54688 32.7539 7.84375C33.0872 8.14062 33.2539 8.5638 33.2539 9.11328C33.2539 9.65755 33.069 10.1029 32.6992 10.4492C32.3294 10.793 31.8307 10.9648 31.2031 10.9648H30.4766ZM30.4766 8.02734V10.3359H31.1484C31.5885 10.3359 31.9245 10.2331 32.1562 10.0273C32.388 9.82161 32.5039 9.52865 32.5039 9.14844C32.5039 8.77344 32.3971 8.49349 32.1836 8.30859C31.9701 8.12109 31.6484 8.02734 31.2188 8.02734H30.4766ZM35.7188 13.0977C35.1068 13.0977 34.6185 12.9062 34.2539 12.5234C33.8919 12.138 33.7109 11.6276 33.7109 10.9922C33.7109 10.3073 33.8984 9.77214 34.2734 9.38672C34.6484 9.0013 35.1602 8.80729 35.8086 8.80469C36.4232 8.80208 36.9036 8.99089 37.25 9.37109C37.599 9.7487 37.7734 10.2682 37.7734 10.9297C37.7734 11.5885 37.5872 12.1146 37.2148 12.5078C36.8424 12.901 36.3438 13.0977 35.7188 13.0977ZM35.7656 12.5195C36.1823 12.5195 36.5013 12.3841 36.7227 12.1133C36.9466 11.8398 37.0586 11.4531 37.0586 10.9531C37.0586 10.4479 36.9466 10.0599 36.7227 9.78906C36.4987 9.51823 36.1797 9.38281 35.7656 9.38281C35.3516 9.38281 35.0234 9.52474 34.7812 9.80859C34.5417 10.0898 34.4219 10.4779 34.4219 10.9727C34.4219 11.4544 34.543 11.8333 34.7852 12.1094C35.0273 12.3828 35.3542 12.5195 35.7656 12.5195ZM39.5664 12.4609H39.5508V13H38.8555V7.07812H39.5508V9.61719H39.5664C39.7279 9.34635 39.9271 9.14323 40.1641 9.00781C40.401 8.8724 40.6745 8.80469 40.9844 8.80469C41.5078 8.80469 41.918 8.98828 42.2148 9.35547C42.5117 9.72005 42.6602 10.2109 42.6602 10.8281C42.6602 11.5156 42.4922 12.0664 42.1562 12.4805C41.8229 12.8919 41.3685 13.0977 40.793 13.0977C40.5221 13.0977 40.2839 13.0456 40.0781 12.9414C39.875 12.8346 39.7044 12.6745 39.5664 12.4609ZM39.5469 10.7578V11.3125C39.5469 11.651 39.6549 11.9375 39.8711 12.1719C40.0872 12.4036 40.3633 12.5195 40.6992 12.5195C41.0872 12.5195 41.3919 12.3698 41.6133 12.0703C41.8346 11.7708 41.9453 11.3542 41.9453 10.8203C41.9453 10.3724 41.8424 10.0208 41.6367 9.76562C41.431 9.51042 41.151 9.38281 40.7969 9.38281C40.4193 9.38281 40.1159 9.51432 39.8867 9.77734C39.6602 10.0378 39.5469 10.3646 39.5469 10.7578ZM44.0938 8.03516C43.9557 8.03516 43.8411 7.98958 43.75 7.89844C43.6589 7.80729 43.6133 7.69661 43.6133 7.56641C43.6133 7.43099 43.6589 7.31901 43.75 7.23047C43.8411 7.13932 43.9557 7.09375 44.0938 7.09375C44.2318 7.09375 44.3464 7.13932 44.4375 7.23047C44.5312 7.31901 44.5781 7.43099 44.5781 7.56641C44.5781 7.69661 44.5312 7.80729 44.4375 7.89844C44.3464 7.98958 44.2318 8.03516 44.0938 8.03516ZM44.4336 13H43.7383V8.90234H44.4336V13ZM49.1562 11.1094H46.2734C46.2865 11.5625 46.4076 11.9115 46.6367 12.1562C46.8659 12.3984 47.1875 12.5195 47.6016 12.5195C47.7812 12.5195 47.9648 12.4922 48.1523 12.4375C48.3424 12.3802 48.5326 12.2878 48.7227 12.1602L49.0391 12.6445C48.8021 12.8008 48.5638 12.9154 48.3242 12.9883C48.0846 13.0612 47.8216 13.0977 47.5352 13.0977C46.9154 13.0977 46.4323 12.9141 46.0859 12.5469C45.7396 12.1771 45.5651 11.6615 45.5625 11C45.5599 10.3411 45.7344 9.8112 46.0859 9.41016C46.4401 9.00651 46.8984 8.80469 47.4609 8.80469C47.9974 8.80469 48.4141 8.97917 48.7109 9.32812C49.0078 9.67448 49.1562 10.1576 49.1562 10.7773V11.1094ZM48.457 10.5625C48.4544 10.1849 48.3633 9.89193 48.1836 9.68359C48.0065 9.47526 47.7617 9.37109 47.4492 9.37109C47.1419 9.37109 46.8815 9.47917 46.668 9.69531C46.457 9.90885 46.3281 10.1979 46.2812 10.5625H48.457ZM52.25 9.49609C52.1979 9.48047 52.1497 9.46875 52.1055 9.46094C52.0612 9.45312 52.0078 9.44922 51.9453 9.44922C51.6146 9.44922 51.3542 9.58984 51.1641 9.87109C50.974 10.1497 50.8789 10.5026 50.8789 10.9297V13H50.1836V8.90234H50.8789V9.71484H50.8945C50.9883 9.42578 51.1302 9.20703 51.3203 9.05859C51.513 8.90755 51.7357 8.83203 51.9883 8.83203C52.069 8.83203 52.138 8.83594 52.1953 8.84375C52.2552 8.85156 52.3099 8.86328 52.3594 8.87891L52.25 9.49609ZM56.0273 9.125L53.6289 12.418H56.0039V13H52.6172V12.7734L55.0273 9.48438H52.8438V8.90234H56.0273V9.125ZM60.8594 13.0977C60.2474 13.0977 59.7591 12.9062 59.3945 12.5234C59.0326 12.138 58.8516 11.6276 58.8516 10.9922C58.8516 10.3073 59.0391 9.77214 59.4141 9.38672C59.7891 9.0013 60.3008 8.80729 60.9492 8.80469C61.5638 8.80208 62.0443 8.99089 62.3906 9.37109C62.7396 9.7487 62.9141 10.2682 62.9141 10.9297C62.9141 11.5885 62.7279 12.1146 62.3555 12.5078C61.9831 12.901 61.4844 13.0977 60.8594 13.0977ZM60.9062 12.5195C61.3229 12.5195 61.6419 12.3841 61.8633 12.1133C62.0872 11.8398 62.1992 11.4531 62.1992 10.9531C62.1992 10.4479 62.0872 10.0599 61.8633 9.78906C61.6393 9.51823 61.3203 9.38281 60.9062 9.38281C60.4922 9.38281 60.1641 9.52474 59.9219 9.80859C59.6823 10.0898 59.5625 10.4779 59.5625 10.9727C59.5625 11.4544 59.6836 11.8333 59.9258 12.1094C60.168 12.3828 60.4948 12.5195 60.9062 12.5195ZM66.8242 12.3125C66.6732 12.5729 66.4805 12.7695 66.2461 12.9023C66.0143 13.0326 65.7409 13.0977 65.4258 13.0977C64.9102 13.0977 64.4974 12.9141 64.1875 12.5469C63.8802 12.1797 63.7266 11.6797 63.7266 11.0469C63.7266 10.3672 63.8971 9.82422 64.2383 9.41797C64.5794 9.00911 65.0339 8.80469 65.6016 8.80469C65.8828 8.80469 66.125 8.85938 66.3281 8.96875C66.5312 9.07812 66.6966 9.24349 66.8242 9.46484H66.8398V7.07812H67.5352V13H66.8398V12.3125H66.8242ZM64.4375 11.0117C64.4375 11.4805 64.5456 11.849 64.7617 12.1172C64.9779 12.3854 65.2669 12.5195 65.6289 12.5195C65.9935 12.5195 66.2865 12.3893 66.5078 12.1289C66.7292 11.8685 66.8398 11.5391 66.8398 11.1406V10.5547C66.8398 10.2266 66.7318 9.94922 66.5156 9.72266C66.3021 9.49609 66.0312 9.38281 65.7031 9.38281C65.3099 9.38281 65 9.52734 64.7734 9.81641C64.5495 10.1055 64.4375 10.5039 64.4375 11.0117ZM73.0547 7.63281C72.9818 7.60677 72.9154 7.58854 72.8555 7.57812C72.7956 7.56771 72.7331 7.5625 72.668 7.5625C72.4518 7.5625 72.2904 7.61979 72.1836 7.73438C72.0794 7.84896 72.0273 8.01693 72.0273 8.23828V8.90234H72.9688V9.48047H72.0273V13H71.3359V9.48047H70.6484V8.90234H71.3359V8.20312C71.3359 7.82031 71.4544 7.52083 71.6914 7.30469C71.931 7.08854 72.2565 6.98047 72.668 6.98047C72.7721 6.98047 72.8672 6.98828 72.9531 7.00391C73.0391 7.01953 73.1276 7.04167 73.2188 7.07031L73.0547 7.63281ZM74.0938 8.03516C73.9557 8.03516 73.8411 7.98958 73.75 7.89844C73.6589 7.80729 73.6133 7.69661 73.6133 7.56641C73.6133 7.43099 73.6589 7.31901 73.75 7.23047C73.8411 7.13932 73.9557 7.09375 74.0938 7.09375C74.2318 7.09375 74.3464 7.13932 74.4375 7.23047C74.5312 7.31901 74.5781 7.43099 74.5781 7.56641C74.5781 7.69661 74.5312 7.80729 74.4375 7.89844C74.3464 7.98958 74.2318 8.03516 74.0938 8.03516ZM74.4336 13H73.7383V8.90234H74.4336V13ZM77.8984 9.49609C77.8464 9.48047 77.7982 9.46875 77.7539 9.46094C77.7096 9.45312 77.6562 9.44922 77.5938 9.44922C77.263 9.44922 77.0026 9.58984 76.8125 9.87109C76.6224 10.1497 76.5273 10.5026 76.5273 10.9297V13H75.832V8.90234H76.5273V9.71484H76.543C76.6367 9.42578 76.7786 9.20703 76.9688 9.05859C77.1615 8.90755 77.3841 8.83203 77.6367 8.83203C77.7174 8.83203 77.7865 8.83594 77.8438 8.84375C77.9036 8.85156 77.9583 8.86328 78.0078 8.87891L77.8984 9.49609ZM84.6445 13H83.9453V10.6445C83.9453 10.1992 83.8763 9.8776 83.7383 9.67969C83.6003 9.48177 83.3698 9.38281 83.0469 9.38281C82.7708 9.38281 82.5365 9.50781 82.3438 9.75781C82.1536 10.0078 82.0586 10.3099 82.0586 10.6641V13H81.3633V10.5703C81.3633 10.1745 81.2865 9.8776 81.1328 9.67969C80.9818 9.48177 80.7539 9.38281 80.4492 9.38281C80.1654 9.38281 79.931 9.5013 79.7461 9.73828C79.5638 9.97526 79.4727 10.2852 79.4727 10.668V13H78.7773V8.90234H79.4727V9.55078H79.4883C79.6341 9.30339 79.8138 9.11719 80.0273 8.99219C80.2409 8.86719 80.487 8.80469 80.7656 8.80469C81.0469 8.80469 81.2904 8.88151 81.4961 9.03516C81.7044 9.1888 81.849 9.39323 81.9297 9.64844C82.0807 9.36719 82.2695 9.15625 82.4961 9.01562C82.7253 8.875 82.9896 8.80469 83.2891 8.80469C83.7396 8.80469 84.0781 8.94401 84.3047 9.22266C84.5312 9.4987 84.6445 9.91536 84.6445 10.4727V13ZM89.2305 8.90234L87.3203 13.7344C87.1693 14.1198 86.9766 14.4089 86.7422 14.6016C86.5078 14.7943 86.2305 14.8906 85.9102 14.8906C85.8242 14.8906 85.7435 14.8854 85.668 14.875C85.5951 14.8646 85.526 14.8503 85.4609 14.832L85.5938 14.25C85.6458 14.2682 85.694 14.2812 85.7383 14.2891C85.7852 14.2969 85.832 14.3008 85.8789 14.3008C86.0508 14.3008 86.1953 14.2552 86.3125 14.1641C86.4297 14.0729 86.5247 13.944 86.5977 13.7773L86.9297 12.9922L85.3242 8.90234H86.0938L87.1797 12.0078C87.1875 12.0339 87.1979 12.0755 87.2109 12.1328C87.2266 12.1875 87.2448 12.2565 87.2656 12.3398H87.2891C87.2969 12.3034 87.3073 12.2591 87.3203 12.207C87.3359 12.1523 87.3542 12.0885 87.375 12.0156L88.5156 8.90234H89.2305Z" fill="black" fill-opacity="0.8956"/>
<path d="M41.1489 16.6123C41.1489 16.3559 41.2412 16.1507 41.4259 15.9764C41.6105 15.802 41.8258 15.72 42.0823 15.72C42.3489 15.72 42.5746 15.8123 42.7489 15.9866C42.9233 16.161 43.0156 16.3764 43.0156 16.6123C43.0156 16.8584 42.9233 17.0738 42.7387 17.2379C42.5541 17.4123 42.3387 17.4943 42.072 17.4943C41.8053 17.4943 41.59 17.4123 41.4053 17.2379C41.2412 17.0636 41.1489 16.8584 41.1489 16.6123ZM42.8412 25.002H41.313V18.4892H42.8412V25.002Z" fill="black" fill-opacity="0.8956"/>
<path d="M47.4975 23.8887C47.7231 23.8887 47.9795 23.8374 48.2565 23.7348C48.5334 23.6323 48.7795 23.4887 49.0154 23.3143V24.74C48.7693 24.8836 48.4924 24.9861 48.1847 25.0579C47.877 25.1297 47.5282 25.1707 47.159 25.1707C46.2052 25.1707 45.4257 24.863 44.8205 24.2579C44.2154 23.6528 43.918 22.8733 43.918 21.94C43.918 20.8938 44.2257 20.0323 44.8411 19.3553C45.4564 18.6784 46.318 18.34 47.4462 18.34C47.7334 18.34 48.0206 18.381 48.318 18.4528C48.6154 18.5246 48.8411 18.6169 49.0154 18.7092V20.1759C48.7795 20.0015 48.5334 19.8682 48.2872 19.7759C48.0411 19.6836 47.7847 19.6323 47.5282 19.6323C46.9231 19.6323 46.4411 19.8271 46.0616 20.2169C45.6923 20.6066 45.5077 21.14 45.5077 21.8066C45.5077 22.463 45.6821 22.9759 46.0411 23.3451C46.4 23.7143 46.8821 23.8887 47.4975 23.8887Z" fill="black" fill-opacity="0.8956"/>
<path d="M53.3738 18.39C53.4969 18.39 53.6097 18.4003 53.702 18.4105C53.7943 18.431 53.8866 18.4516 53.9482 18.4721V20.0208C53.8661 19.9592 53.7533 19.908 53.5995 19.8567C53.4456 19.8054 53.261 19.7746 53.0354 19.7746C52.6559 19.7746 52.3379 19.9285 52.0815 20.2464C51.8251 20.5644 51.6918 21.0464 51.6918 21.7131V25.0054H50.1636V18.4926H51.6918V19.5182H51.7123C51.8559 19.1592 52.061 18.8823 52.3482 18.6874C52.6354 18.4926 52.9738 18.39 53.3738 18.39Z" fill="black" fill-opacity="0.8956"/>
<path d="M54.0308 21.8477C54.0308 20.7707 54.3385 19.9195 54.9436 19.2836C55.5487 18.6579 56.4 18.34 57.4769 18.34C58.4923 18.34 59.2923 18.6477 59.8667 19.2528C60.441 19.8579 60.7282 20.6784 60.7282 21.7041C60.7282 22.7605 60.4205 23.6015 59.8154 24.2271C59.2102 24.8528 58.3795 25.1605 57.3333 25.1605C56.3282 25.1605 55.5179 24.863 54.9333 24.2682C54.3282 23.6836 54.0308 22.8733 54.0308 21.8477ZM55.6308 21.7964C55.6308 22.4733 55.7846 22.9964 56.0923 23.3553C56.4 23.7143 56.841 23.8887 57.4154 23.8887C57.9692 23.8887 58.4 23.7143 58.6872 23.3553C58.9743 22.9964 59.1282 22.463 59.1282 21.7554C59.1282 21.0579 58.9743 20.5246 58.6769 20.1656C58.3795 19.8066 57.9487 19.6323 57.4051 19.6323C56.841 19.6323 56.4102 19.8169 56.0923 20.1964C55.7846 20.5759 55.6308 21.0989 55.6308 21.7964Z" fill="black" fill-opacity="0.8956"/>
<path d="M63.0053 20.2069C63.0053 20.4223 63.0771 20.5966 63.2104 20.7197C63.354 20.8428 63.6617 20.9966 64.1335 21.1915C64.7489 21.4377 65.1796 21.7146 65.4258 22.0223C65.6719 22.33 65.795 22.6992 65.795 23.13C65.795 23.7454 65.5591 24.2377 65.0873 24.6069C64.6155 24.9761 63.9796 25.1607 63.1796 25.1607C62.913 25.1607 62.6155 25.13 62.2873 25.0582C61.9591 24.9966 61.6822 24.9043 61.4565 24.812V23.3043C61.7335 23.4992 62.0309 23.653 62.3591 23.7659C62.6771 23.8787 62.9745 23.9402 63.2309 23.9402C63.5796 23.9402 63.836 23.8889 64.0001 23.7966C64.1642 23.7043 64.2463 23.5402 64.2463 23.3043C64.2463 23.0889 64.1642 22.9146 63.9899 22.771C63.8155 22.6274 63.4976 22.453 63.0155 22.2684C62.4514 22.0325 62.0514 21.7659 61.8155 21.4684C61.5796 21.171 61.4565 20.7915 61.4565 20.3402C61.4565 19.7556 61.6924 19.2735 62.154 18.8941C62.6155 18.5146 63.2206 18.33 63.9694 18.33C64.195 18.33 64.4514 18.3505 64.7386 18.4018C65.0258 18.453 65.2617 18.5146 65.4463 18.5966V20.053C65.2412 19.9197 65.0053 19.8069 64.7386 19.7043C64.4719 19.612 64.195 19.5607 63.9386 19.5607C63.6514 19.5607 63.4155 19.6223 63.2617 19.7351C63.0873 19.8479 63.0053 20.012 63.0053 20.2069Z" fill="black" fill-opacity="0.8956"/>
<path d="M66.4717 21.8477C66.4717 20.7707 66.7794 19.9195 67.3845 19.2836C67.9896 18.6579 68.8409 18.34 69.9178 18.34C70.9332 18.34 71.7332 18.6477 72.3076 19.2528C72.8819 19.8579 73.1691 20.6784 73.1691 21.7041C73.1691 22.7605 72.8614 23.6015 72.2563 24.2271C71.6512 24.8528 70.8204 25.1605 69.7742 25.1605C68.7691 25.1605 67.9589 24.863 67.3742 24.2682C66.7691 23.6836 66.4717 22.8733 66.4717 21.8477ZM68.0614 21.7964C68.0614 22.4733 68.2153 22.9964 68.523 23.3554C68.8307 23.7143 69.2717 23.8887 69.846 23.8887C70.3999 23.8887 70.8307 23.7143 71.1178 23.3554C71.405 22.9964 71.5589 22.463 71.5589 21.7554C71.5589 21.0579 71.405 20.5246 71.1076 20.1656C70.8101 19.8066 70.3794 19.6323 69.8358 19.6323C69.2717 19.6323 68.8409 19.8169 68.523 20.1964C68.2153 20.5759 68.0614 21.0989 68.0614 21.7964Z" fill="black" fill-opacity="0.8956"/>
<path d="M78.2258 19.7523V23.0959C78.2258 23.7933 78.3899 24.3062 78.7079 24.6549C79.0258 25.0036 79.5181 25.1677 80.1643 25.1677C80.3797 25.1677 80.6053 25.1472 80.8309 25.0959C81.0566 25.0446 81.2207 25.0036 81.313 24.9421V23.6703C81.2207 23.7318 81.1079 23.7831 80.9848 23.8241C80.8617 23.8651 80.7489 23.8857 80.6668 23.8857C80.3591 23.8857 80.1232 23.8036 79.9797 23.6395C79.8361 23.4754 79.7643 23.1882 79.7643 22.7882V19.7421H81.3232V18.4908H79.7745V16.5626L78.2361 17.0344V18.501H75.9489V17.7113C75.9489 17.3215 76.0309 17.0241 76.2053 16.819C76.3796 16.6139 76.6258 16.5215 76.9438 16.5215C77.1079 16.5215 77.2514 16.5421 77.3848 16.5831C77.5079 16.6241 77.6002 16.6651 77.6514 16.6959V15.3728C77.5386 15.3318 77.4155 15.3113 77.272 15.2908C77.1284 15.2703 76.9643 15.26 76.7797 15.26C76.0822 15.26 75.5079 15.4754 75.0668 15.9164C74.6258 16.3574 74.4002 16.9113 74.4002 17.5985V18.501H73.313V19.7523H74.4002V25.0139H75.9489V19.7523H78.2258V19.7523Z" fill="black" fill-opacity="0.8956"/>
<path d="M39.8359 15.92V25.0072H38.2564V17.8893H38.2359L35.4154 25.0072H34.3692L31.4769 17.8893H31.4564V25.0072H30V15.92H32.2564L34.8718 22.6585H34.9128L37.6718 15.92H39.8359Z" fill="black" fill-opacity="0.8956"/>
<rect x="0.5" y="0.5" width="96" height="31" rx="3.5" stroke="url(#paint0_linear_1602_28087)"/>
<defs>
<linearGradient id="paint0_linear_1602_28087" x1="48.5" y1="1" x2="48.5" y2="31" gradientUnits="userSpaceOnUse">
<stop offset="0.905762" stop-opacity="0.0578"/>
<stop offset="1" stop-opacity="0.1622"/>
</linearGradient>
</defs>
</svg>
