<svg width="116" height="34" viewBox="0 0 116 34" fill="none" xmlns="http://www.w3.org/2000/svg">
<rect x="1" y="1" width="114" height="32" rx="4" fill="#FDFDFD"/>
<rect x="0.5" y="0.5" width="115" height="33" rx="4.5" stroke="black" stroke-opacity="0.0578"/>
<g clip-path="url(#clip0_976_1868)">
<g clip-path="url(#clip1_976_1868)">
<path d="M8.28125 11C8.28125 10.5858 8.61704 10.25 9.03125 10.25H24.9687C25.383 10.25 25.7188 10.5858 25.7188 11V22.3438C25.7188 24.0524 24.3336 25.4375 22.625 25.4375H11.375C9.66637 25.4375 8.28125 24.0524 8.28125 22.3438V11Z" fill="url(#paint0_linear_976_1868)"/>
<mask id="mask0_976_1868" style="mask-type:alpha" maskUnits="userSpaceOnUse" x="8" y="10" width="18" height="16">
<path d="M8.28125 11C8.28125 10.5858 8.61704 10.25 9.03125 10.25H24.9687C25.383 10.25 25.7188 10.5858 25.7188 11V22.3438C25.7188 24.0524 24.3336 25.4375 22.625 25.4375H11.375C9.66637 25.4375 8.28125 24.0524 8.28125 22.3438V11Z" fill="url(#paint1_linear_976_1868)"/>
</mask>
<g mask="url(#mask0_976_1868)">
<g filter="url(#filter0_dd_976_1868)">
<path d="M12.7812 10.8125V8.5625H21.2187V10.8125" stroke="url(#paint2_linear_976_1868)" stroke-width="1.125" stroke-linecap="round"/>
</g>
</g>
<g filter="url(#filter1_dd_976_1868)">
<path d="M16.719 14.1875H13.344V17.5625H16.719V14.1875Z" fill="#F25022"/>
<path d="M20.6562 14.1875H17.2812V17.5625H20.6562V14.1875Z" fill="#7FBA00"/>
<path d="M20.6562 18.125H17.2812V21.5H20.6562V18.125Z" fill="#FFB900"/>
<path d="M16.7188 18.125H13.3438V21.5H16.7188V18.125Z" fill="#00A4EF"/>
</g>
<path d="M12.7812 10.8125V9.125C12.7812 8.81434 13.0331 8.5625 13.3438 8.5625H20.6563C20.9669 8.5625 21.2188 8.81434 21.2188 9.125V10.8125" stroke="url(#paint3_linear_976_1868)" stroke-width="1.125" stroke-linecap="round"/>
<rect x="13.3438" y="8" width="7.3125" height="1.125" fill="url(#paint4_linear_976_1868)"/>
<mask id="mask1_976_1868" style="mask-type:alpha" maskUnits="userSpaceOnUse" x="13" y="8" width="8" height="2">
<rect x="13.3438" y="8" width="7.3125" height="1.125" fill="url(#paint5_linear_976_1868)"/>
</mask>
<g mask="url(#mask1_976_1868)">
<g filter="url(#filter2_dd_976_1868)">
<rect x="11.7189" y="8.56274" width="1.625" height="2.8125" fill="#C4C4C4"/>
</g>
</g>
</g>
</g>
<path d="M39.2275 16H37.96V11.0854C37.96 10.8634 37.9653 10.6217 37.9761 10.3604C37.9904 10.0954 38.0083 9.81429 38.0298 9.51709H37.9976C37.9546 9.72119 37.9134 9.89665 37.874 10.0435C37.8382 10.1867 37.8024 10.3013 37.7666 10.3872L35.5054 16H34.6245L32.3525 10.4355C32.3239 10.3568 32.2881 10.2404 32.2451 10.0864C32.2057 9.93245 32.1628 9.74268 32.1162 9.51709H32.084C32.1055 9.7749 32.1198 10.0488 32.127 10.3389C32.1341 10.6253 32.1377 10.9279 32.1377 11.2466V16H30.9561V8.29785H32.7607L34.7642 13.3037C34.8429 13.4935 34.9074 13.6689 34.9575 13.8301C35.0112 13.9876 35.0524 14.1344 35.0811 14.2705H35.1133C35.1777 14.0664 35.2386 13.882 35.2959 13.7173C35.3532 13.5526 35.4069 13.4093 35.457 13.2876L37.4873 8.29785H39.2275V16ZM41.6177 9.43652C41.3885 9.43652 41.1987 9.36312 41.0483 9.21631C40.8979 9.0695 40.8228 8.88867 40.8228 8.67383C40.8228 8.45182 40.8979 8.26921 41.0483 8.12598C41.1987 7.98275 41.3885 7.91113 41.6177 7.91113C41.8504 7.91113 42.042 7.98275 42.1924 8.12598C42.3428 8.26921 42.418 8.45182 42.418 8.67383C42.418 8.89225 42.3428 9.07487 42.1924 9.22168C42.042 9.36491 41.8504 9.43652 41.6177 9.43652ZM42.2354 16H40.9839V10.5H42.2354V16ZM47.9824 15.6616C47.7103 15.8263 47.4399 15.9445 47.1714 16.0161C46.9028 16.0913 46.611 16.1289 46.2959 16.1289C45.4508 16.1289 44.7741 15.8818 44.2656 15.3877C43.7607 14.8936 43.5083 14.2222 43.5083 13.3735C43.5083 12.4604 43.7697 11.7318 44.2925 11.1875C44.8188 10.6432 45.5278 10.3711 46.4194 10.3711C46.731 10.3711 47.0138 10.4051 47.2681 10.4731C47.5259 10.5376 47.7873 10.645 48.0522 10.7954L47.5635 11.6655C47.3773 11.5617 47.1947 11.4865 47.0156 11.4399C46.8366 11.3898 46.6414 11.3647 46.4302 11.3647C45.9038 11.3647 45.4974 11.5384 45.2109 11.8857C44.9245 12.2331 44.7812 12.6932 44.7812 13.2661C44.7812 13.8677 44.9352 14.3296 45.2432 14.6519C45.5547 14.9741 45.945 15.1353 46.4141 15.1353C46.5573 15.1353 46.722 15.1102 46.9082 15.0601C47.0944 15.0063 47.2824 14.9222 47.4722 14.8076L47.9824 15.6616ZM52.1021 11.5474C52.034 11.5295 51.9678 11.5169 51.9033 11.5098C51.8424 11.499 51.7708 11.4937 51.6885 11.4937C51.2409 11.4937 50.8971 11.6584 50.6572 11.9878C50.4173 12.3172 50.2974 12.7469 50.2974 13.2769V16H49.0459V10.5H50.2974V11.5581H50.3188C50.4478 11.1785 50.6375 10.8921 50.8882 10.6987C51.1388 10.5018 51.4342 10.4033 51.7744 10.4033C51.8711 10.4033 51.957 10.4087 52.0322 10.4194C52.111 10.4302 52.1862 10.4463 52.2578 10.4678L52.1021 11.5474ZM55.5557 16.1289C54.6963 16.1289 54.0142 15.8729 53.5093 15.3608C53.008 14.8452 52.7573 14.1559 52.7573 13.293C52.7609 12.3799 53.0223 11.6655 53.5415 11.1499C54.0607 10.6307 54.7679 10.3711 55.6631 10.3711C56.526 10.3675 57.1992 10.6217 57.6826 11.1338C58.1696 11.6423 58.4131 12.3315 58.4131 13.2017C58.4131 14.0968 58.1553 14.8094 57.6396 15.3394C57.1276 15.8657 56.4329 16.1289 55.5557 16.1289ZM55.6147 15.1353C56.1125 15.1353 56.4902 14.9723 56.748 14.6465C57.0094 14.3206 57.1401 13.8498 57.1401 13.2339C57.1401 12.6252 57.0094 12.1615 56.748 11.8428C56.4867 11.5241 56.1071 11.3647 55.6094 11.3647C55.1188 11.3647 54.7321 11.533 54.4492 11.8696C54.1699 12.2062 54.0303 12.6717 54.0303 13.2661C54.0303 13.8641 54.1699 14.326 54.4492 14.6519C54.7285 14.9741 55.117 15.1353 55.6147 15.1353ZM59.1543 15.5596L59.6968 14.6787C59.9116 14.8291 60.139 14.9508 60.3789 15.0439C60.6224 15.1335 60.8856 15.1782 61.1685 15.1782C61.4764 15.1782 61.7145 15.1227 61.8828 15.0117C62.0547 14.8971 62.1406 14.7271 62.1406 14.5015C62.1406 14.3224 62.069 14.1738 61.9258 14.0557C61.7861 13.9339 61.5462 13.8337 61.2061 13.7549C60.5186 13.5938 60.0352 13.3807 59.7559 13.1157C59.4801 12.8507 59.3423 12.5016 59.3423 12.0684C59.3423 11.5706 59.5356 11.1642 59.9224 10.8491C60.3091 10.5304 60.8158 10.3711 61.4424 10.3711C61.7539 10.3711 62.0511 10.4123 62.334 10.4946C62.6169 10.5734 62.8926 10.7005 63.1611 10.876L62.6562 11.7354C62.4199 11.585 62.2033 11.4775 62.0063 11.4131C61.8094 11.3486 61.6071 11.3164 61.3994 11.3164C61.1058 11.3164 60.8766 11.3719 60.7119 11.4829C60.5508 11.5903 60.4702 11.7407 60.4702 11.9341C60.4702 12.1382 60.5526 12.2904 60.7173 12.3906C60.8856 12.4873 61.1667 12.5822 61.5605 12.6753C62.1549 12.8185 62.59 13.0262 62.8657 13.2983C63.1414 13.5669 63.2793 13.9268 63.2793 14.3779C63.2793 14.9115 63.0841 15.3376 62.6938 15.6562C62.3071 15.9714 61.7826 16.1289 61.1201 16.1289C60.762 16.1289 60.4183 16.0824 60.0889 15.9893C59.763 15.8926 59.4515 15.7493 59.1543 15.5596ZM66.8779 16.1289C66.0186 16.1289 65.3364 15.8729 64.8315 15.3608C64.3302 14.8452 64.0796 14.1559 64.0796 13.293C64.0832 12.3799 64.3446 11.6655 64.8638 11.1499C65.383 10.6307 66.0902 10.3711 66.9854 10.3711C67.8483 10.3675 68.5215 10.6217 69.0049 11.1338C69.4919 11.6423 69.7354 12.3315 69.7354 13.2017C69.7354 14.0968 69.4775 14.8094 68.9619 15.3394C68.4499 15.8657 67.7552 16.1289 66.8779 16.1289ZM66.937 15.1353C67.4347 15.1353 67.8125 14.9723 68.0703 14.6465C68.3317 14.3206 68.4624 13.8498 68.4624 13.2339C68.4624 12.6252 68.3317 12.1615 68.0703 11.8428C67.8089 11.5241 67.4294 11.3647 66.9316 11.3647C66.4411 11.3647 66.0544 11.533 65.7715 11.8696C65.4922 12.2062 65.3525 12.6717 65.3525 13.2661C65.3525 13.8641 65.4922 14.326 65.7715 14.6519C66.0508 14.9741 66.4393 15.1353 66.937 15.1353ZM73.9839 8.84033C73.8836 8.80094 73.7923 8.77409 73.71 8.75977C73.6276 8.74186 73.5381 8.73291 73.4414 8.73291C73.1764 8.73291 72.9759 8.8099 72.8398 8.96387C72.7074 9.11426 72.6411 9.33268 72.6411 9.61914V10.5H73.9141V11.4775H72.6411V16H71.395V11.4775H70.4604V10.5H71.395V9.55469C71.395 8.99609 71.5741 8.55387 71.9321 8.22803C72.2938 7.8986 72.7718 7.73389 73.3662 7.73389C73.5524 7.73389 73.7135 7.74642 73.8496 7.77148C73.9857 7.79655 74.1271 7.83236 74.2739 7.87891L73.9839 8.84033ZM77.7974 15.9248C77.6362 15.9928 77.4679 16.043 77.2925 16.0752C77.117 16.1074 76.929 16.1235 76.7285 16.1235C76.2201 16.1235 75.828 15.9893 75.5522 15.7207C75.2801 15.4486 75.144 15.0439 75.144 14.5068V11.4775H74.2202V10.5H75.144V9.1626L76.3901 8.78662V10.5H77.7061V11.4775H76.3901V14.4048C76.3901 14.6733 76.4385 14.8667 76.5352 14.9849C76.6354 15.103 76.7894 15.1621 76.9971 15.1621C77.0973 15.1621 77.1922 15.1514 77.2817 15.1299C77.3748 15.1048 77.4572 15.0744 77.5288 15.0386L77.7974 15.9248ZM81.2939 15.4468L81.8633 14.4639C82.2106 14.6787 82.5347 14.8309 82.8354 14.9204C83.1362 15.0063 83.4728 15.0493 83.8452 15.0493C84.2892 15.0493 84.6383 14.9544 84.8926 14.7646C85.1504 14.5713 85.2793 14.2956 85.2793 13.9375C85.2793 13.6117 85.1719 13.3556 84.957 13.1694C84.7458 12.9797 84.3859 12.806 83.8774 12.6484C83.0933 12.4157 82.5168 12.1274 82.1479 11.7837C81.7791 11.4399 81.5947 10.9744 81.5947 10.3872C81.5947 9.74984 81.8328 9.22168 82.3091 8.80273C82.7853 8.38021 83.4316 8.16895 84.248 8.16895C84.6061 8.16895 84.9588 8.20833 85.3062 8.28711C85.6535 8.36589 85.9972 8.48763 86.3374 8.65234L85.8594 9.67285C85.5622 9.51888 85.2775 9.40967 85.0054 9.34521C84.7368 9.28076 84.4629 9.24854 84.1836 9.24854C83.7754 9.24854 83.4531 9.33805 83.2168 9.51709C82.984 9.69613 82.8677 9.94857 82.8677 10.2744C82.8677 10.5645 82.9751 10.7936 83.1899 10.9619C83.4048 11.1266 83.7736 11.2896 84.2964 11.4507C85.0985 11.6906 85.675 11.9896 86.0259 12.3477C86.3804 12.7057 86.5576 13.1981 86.5576 13.8247C86.5576 14.4979 86.3177 15.0511 85.8379 15.4844C85.3581 15.9141 84.6742 16.1289 83.7861 16.1289C83.3421 16.1289 82.9089 16.0734 82.4863 15.9624C82.0638 15.8478 81.6663 15.6759 81.2939 15.4468ZM90.4409 15.9248C90.2798 15.9928 90.1115 16.043 89.936 16.0752C89.7606 16.1074 89.5726 16.1235 89.3721 16.1235C88.8636 16.1235 88.4715 15.9893 88.1958 15.7207C87.9237 15.4486 87.7876 15.0439 87.7876 14.5068V11.4775H86.8638V10.5H87.7876V9.1626L89.0337 8.78662V10.5H90.3496V11.4775H89.0337V14.4048C89.0337 14.6733 89.082 14.8667 89.1787 14.9849C89.279 15.103 89.4329 15.1621 89.6406 15.1621C89.7409 15.1621 89.8358 15.1514 89.9253 15.1299C90.0184 15.1048 90.1007 15.0744 90.1724 15.0386L90.4409 15.9248ZM93.8623 16.1289C93.0029 16.1289 92.3208 15.8729 91.8159 15.3608C91.3146 14.8452 91.064 14.1559 91.064 13.293C91.0675 12.3799 91.3289 11.6655 91.8481 11.1499C92.3674 10.6307 93.0745 10.3711 93.9697 10.3711C94.8327 10.3675 95.5059 10.6217 95.9893 11.1338C96.4762 11.6423 96.7197 12.3315 96.7197 13.2017C96.7197 14.0968 96.4619 14.8094 95.9463 15.3394C95.4342 15.8657 94.7396 16.1289 93.8623 16.1289ZM93.9214 15.1353C94.4191 15.1353 94.7969 14.9723 95.0547 14.6465C95.3161 14.3206 95.4468 13.8498 95.4468 13.2339C95.4468 12.6252 95.3161 12.1615 95.0547 11.8428C94.7933 11.5241 94.4137 11.3647 93.916 11.3647C93.4255 11.3647 93.0387 11.533 92.7559 11.8696C92.4766 12.2062 92.3369 12.6717 92.3369 13.2661C92.3369 13.8641 92.4766 14.326 92.7559 14.6519C93.0352 14.9741 93.4237 15.1353 93.9214 15.1353ZM101.054 11.5474C100.986 11.5295 100.92 11.5169 100.855 11.5098C100.795 11.499 100.723 11.4937 100.641 11.4937C100.193 11.4937 99.8493 11.6584 99.6094 11.9878C99.3695 12.3172 99.2495 12.7469 99.2495 13.2769V16H97.998V10.5H99.2495V11.5581H99.271C99.3999 11.1785 99.5897 10.8921 99.8403 10.6987C100.091 10.5018 100.386 10.4033 100.727 10.4033C100.823 10.4033 100.909 10.4087 100.984 10.4194C101.063 10.4302 101.138 10.4463 101.21 10.4678L101.054 11.5474ZM106.721 13.5776H102.966C102.988 14.0968 103.138 14.4925 103.417 14.7646C103.697 15.0332 104.087 15.1675 104.588 15.1675C104.792 15.1675 105.025 15.1263 105.287 15.0439C105.548 14.9616 105.806 14.8291 106.06 14.6465L106.624 15.4253C106.284 15.6724 105.938 15.8514 105.587 15.9624C105.236 16.0734 104.85 16.1289 104.427 16.1289C103.571 16.1289 102.905 15.8836 102.429 15.3931C101.953 14.8989 101.713 14.2096 101.709 13.3252C101.709 12.4443 101.955 11.7318 102.445 11.1875C102.939 10.6432 103.571 10.3711 104.341 10.3711C105.079 10.3711 105.659 10.6038 106.082 11.0693C106.508 11.5312 106.721 12.1865 106.721 13.0352V13.5776ZM105.512 12.7129C105.512 12.2402 105.408 11.8857 105.201 11.6494C104.997 11.4095 104.707 11.2896 104.331 11.2896C103.976 11.2896 103.674 11.4185 103.423 11.6763C103.176 11.9305 103.024 12.276 102.966 12.7129H105.512Z" fill="black" fill-opacity="0.8956"/>
<path d="M33.4727 26H32.6865L31.1416 24.3184H31.1279V26H30.5674V20.8184H31.1279V24.103H31.1416L32.6113 22.5H33.3462L31.7227 24.1885L33.4727 26ZM36.5249 26H35.9644V25.4531H35.9507C35.8299 25.6628 35.6807 25.82 35.5029 25.9248C35.3275 26.0296 35.1224 26.082 34.8877 26.082C34.5596 26.082 34.2941 25.9863 34.0913 25.7949C33.8885 25.6035 33.7871 25.3494 33.7871 25.0327C33.7871 24.7342 33.8896 24.487 34.0947 24.291C34.2998 24.0951 34.5903 23.9697 34.9663 23.915L35.9644 23.7817V23.7031C35.9644 23.4092 35.896 23.2007 35.7593 23.0776C35.6226 22.9523 35.4403 22.8896 35.2124 22.8896C35.0301 22.8896 34.8547 22.9238 34.686 22.9922C34.5174 23.0605 34.359 23.1654 34.2109 23.3066L33.8828 22.9683C34.0788 22.7791 34.2873 22.6401 34.5083 22.5513C34.7293 22.4624 34.9754 22.418 35.2466 22.418C35.6704 22.418 35.9894 22.5273 36.2036 22.7461C36.4178 22.9626 36.5249 23.2884 36.5249 23.7236V26ZM35.9644 24.5781V24.2295L35.1201 24.3457C34.8626 24.3822 34.6689 24.4471 34.5391 24.5405C34.4092 24.634 34.3442 24.7809 34.3442 24.9814C34.3442 25.1911 34.4046 25.3517 34.5254 25.4634C34.6484 25.5728 34.7977 25.6274 34.9731 25.6274C35.2762 25.6274 35.5166 25.5283 35.6943 25.3301C35.8743 25.1318 35.9644 24.8812 35.9644 24.5781ZM40.7153 27.6099H40.1548V25.3984H40.1411C40.0203 25.6263 39.8597 25.7972 39.6592 25.9111C39.4609 26.0251 39.2228 26.082 38.9448 26.082C38.505 26.082 38.1519 25.9259 37.8853 25.6138C37.6209 25.2993 37.4888 24.8721 37.4888 24.332C37.4888 23.751 37.6346 23.2873 37.9263 22.9409C38.2179 22.5923 38.6099 22.418 39.1021 22.418C39.3413 22.418 39.5475 22.4658 39.7207 22.5615C39.8939 22.6549 40.034 22.7962 40.1411 22.9854H40.1548V22.5H40.7153V27.6099ZM40.1548 24.4243V23.915C40.1548 23.6279 40.0602 23.3853 39.8711 23.187C39.6842 22.9888 39.4461 22.8896 39.1567 22.8896C38.8195 22.8896 38.5529 23.015 38.3569 23.2656C38.161 23.514 38.063 23.8649 38.063 24.3184C38.063 24.7217 38.1576 25.0384 38.3467 25.2686C38.5358 25.4964 38.7796 25.6104 39.0781 25.6104C39.4062 25.6104 39.6672 25.4987 39.8608 25.2754C40.0568 25.0498 40.1548 24.7661 40.1548 24.4243ZM46.7002 26H46.1396V23.9902C46.1396 23.6029 46.0793 23.3226 45.9585 23.1494C45.84 22.9762 45.6395 22.8896 45.3569 22.8896C45.1177 22.8896 44.9137 22.999 44.7451 23.2178C44.5788 23.4365 44.4956 23.6986 44.4956 24.0039V26H43.9351V23.9219C43.9351 23.5778 43.869 23.3203 43.7368 23.1494C43.6047 22.9762 43.4053 22.8896 43.1387 22.8896C42.8926 22.8896 42.6898 22.9933 42.5303 23.2007C42.3708 23.4058 42.291 23.6735 42.291 24.0039V26H41.7305V22.5H42.291V23.0537H42.3047C42.43 22.8418 42.5827 22.6834 42.7627 22.5786C42.945 22.4715 43.1546 22.418 43.3916 22.418C43.6309 22.418 43.8394 22.4852 44.0171 22.6196C44.1948 22.7518 44.3167 22.9261 44.3828 23.1426C44.5127 22.901 44.6745 22.7199 44.8682 22.5991C45.0618 22.4784 45.2874 22.418 45.5449 22.418C45.93 22.418 46.2183 22.5365 46.4097 22.7734C46.6034 23.0104 46.7002 23.367 46.7002 23.8433V26ZM50.2378 26H49.6772V25.4531H49.6636C49.5428 25.6628 49.3936 25.82 49.2158 25.9248C49.0404 26.0296 48.8353 26.082 48.6006 26.082C48.2725 26.082 48.007 25.9863 47.8042 25.7949C47.6014 25.6035 47.5 25.3494 47.5 25.0327C47.5 24.7342 47.6025 24.487 47.8076 24.291C48.0127 24.0951 48.3032 23.9697 48.6792 23.915L49.6772 23.7817V23.7031C49.6772 23.4092 49.6089 23.2007 49.4722 23.0776C49.3354 22.9523 49.1532 22.8896 48.9253 22.8896C48.743 22.8896 48.5675 22.9238 48.3989 22.9922C48.2303 23.0605 48.0719 23.1654 47.9238 23.3066L47.5957 22.9683C47.7917 22.7791 48.0002 22.6401 48.2212 22.5513C48.4422 22.4624 48.6883 22.418 48.9595 22.418C49.3833 22.418 49.7023 22.5273 49.9165 22.7461C50.1307 22.9626 50.2378 23.2884 50.2378 23.7236V26ZM49.6772 24.5781V24.2295L48.833 24.3457C48.5755 24.3822 48.3818 24.4471 48.252 24.5405C48.1221 24.634 48.0571 24.7809 48.0571 24.9814C48.0571 25.1911 48.1175 25.3517 48.2383 25.4634C48.3613 25.5728 48.5106 25.6274 48.686 25.6274C48.9891 25.6274 49.2295 25.5283 49.4072 25.3301C49.5872 25.1318 49.6772 24.8812 49.6772 24.5781ZM54.2266 26H53.666V24.0039C53.666 23.6325 53.5977 23.3545 53.4609 23.1699C53.3265 22.9831 53.1237 22.8896 52.8525 22.8896C52.5723 22.8896 52.3398 22.9956 52.1553 23.2075C51.973 23.4172 51.8818 23.6826 51.8818 24.0039V26H51.3213V22.5H51.8818V23.0811H51.8955C52.0277 22.86 52.1895 22.6948 52.3809 22.5854C52.5723 22.4738 52.7933 22.418 53.0439 22.418C53.4268 22.418 53.7196 22.5422 53.9224 22.7905C54.1252 23.0366 54.2266 23.3932 54.2266 23.8604V26ZM56.9541 25.959C56.8584 25.9977 56.7638 26.0262 56.6704 26.0444C56.5793 26.0649 56.4756 26.0752 56.3594 26.0752C56.0814 26.0752 55.8626 25.9943 55.7031 25.8325C55.5459 25.6685 55.4673 25.4269 55.4673 25.1079V22.9785H54.8657V22.5H55.4673V21.6455L56.0278 21.4644V22.5H56.9097V22.9785H56.0278V25.043C56.0278 25.2435 56.0632 25.3882 56.1338 25.4771C56.2067 25.5659 56.3149 25.6104 56.4585 25.6104C56.5269 25.6104 56.5929 25.6024 56.6567 25.5864C56.7205 25.5705 56.7741 25.5522 56.8174 25.5317L56.9541 25.959ZM60.1362 26H59.5757V25.4531H59.562C59.4412 25.6628 59.292 25.82 59.1143 25.9248C58.9388 26.0296 58.7337 26.082 58.499 26.082C58.1709 26.082 57.9054 25.9863 57.7026 25.7949C57.4998 25.6035 57.3984 25.3494 57.3984 25.0327C57.3984 24.7342 57.501 24.487 57.7061 24.291C57.9111 24.0951 58.2017 23.9697 58.5776 23.915L59.5757 23.7817V23.7031C59.5757 23.4092 59.5073 23.2007 59.3706 23.0776C59.2339 22.9523 59.0516 22.8896 58.8237 22.8896C58.6414 22.8896 58.466 22.9238 58.2974 22.9922C58.1287 23.0605 57.9704 23.1654 57.8223 23.3066L57.4941 22.9683C57.6901 22.7791 57.8986 22.6401 58.1196 22.5513C58.3407 22.4624 58.5868 22.418 58.8579 22.418C59.2817 22.418 59.6007 22.5273 59.8149 22.7461C60.0291 22.9626 60.1362 23.2884 60.1362 23.7236V26ZM59.5757 24.5781V24.2295L58.7314 24.3457C58.474 24.3822 58.2803 24.4471 58.1504 24.5405C58.0205 24.634 57.9556 24.7809 57.9556 24.9814C57.9556 25.1911 58.016 25.3517 58.1367 25.4634C58.2598 25.5728 58.409 25.6274 58.5845 25.6274C58.8875 25.6274 59.1279 25.5283 59.3057 25.3301C59.4857 25.1318 59.5757 24.8812 59.5757 24.5781ZM65.9707 26H65.4102V25.4463H65.3965C65.2803 25.6582 65.1322 25.8177 64.9521 25.9248C64.7721 26.0296 64.5602 26.082 64.3164 26.082C63.8994 26.082 63.5861 25.9578 63.3765 25.7095C63.1691 25.4611 63.0654 25.0885 63.0654 24.5918V22.5H63.6226V24.5029C63.6226 24.8721 63.6932 25.1489 63.8345 25.3335C63.9757 25.5181 64.1877 25.6104 64.4702 25.6104C64.7437 25.6104 64.9681 25.5101 65.1436 25.3096C65.3213 25.1068 65.4102 24.8424 65.4102 24.5166V22.5H65.9707V26ZM68.8315 22.9785C68.7882 22.9648 68.7495 22.9557 68.7153 22.9512C68.6812 22.9443 68.6379 22.9409 68.5854 22.9409C68.3006 22.9409 68.0762 23.0628 67.9121 23.3066C67.748 23.5482 67.666 23.8512 67.666 24.2158V26H67.1055V22.5H67.666V23.1938H67.6797C67.7594 22.9478 67.8813 22.7609 68.0454 22.6333C68.2095 22.5034 68.3986 22.4385 68.6128 22.4385C68.6834 22.4385 68.7427 22.4419 68.7905 22.4487C68.8407 22.4556 68.8851 22.4658 68.9238 22.4795L68.8315 22.9785ZM72.0171 26H71.4565V25.4531H71.4429C71.3221 25.6628 71.1729 25.82 70.9951 25.9248C70.8197 26.0296 70.6146 26.082 70.3799 26.082C70.0518 26.082 69.7863 25.9863 69.5835 25.7949C69.3807 25.6035 69.2793 25.3494 69.2793 25.0327C69.2793 24.7342 69.3818 24.487 69.5869 24.291C69.792 24.0951 70.0825 23.9697 70.4585 23.915L71.4565 23.7817V23.7031C71.4565 23.4092 71.3882 23.2007 71.2515 23.0776C71.1147 22.9523 70.9325 22.8896 70.7046 22.8896C70.5223 22.8896 70.3468 22.9238 70.1782 22.9922C70.0096 23.0605 69.8512 23.1654 69.7031 23.3066L69.375 22.9683C69.571 22.7791 69.7795 22.6401 70.0005 22.5513C70.2215 22.4624 70.4676 22.418 70.7388 22.418C71.1626 22.418 71.4816 22.5273 71.6958 22.7461C71.91 22.9626 72.0171 23.2884 72.0171 23.7236V26ZM71.4565 24.5781V24.2295L70.6123 24.3457C70.3548 24.3822 70.1611 24.4471 70.0312 24.5405C69.9014 24.634 69.8364 24.7809 69.8364 24.9814C69.8364 25.1911 69.8968 25.3517 70.0176 25.4634C70.1406 25.5728 70.2899 25.6274 70.4653 25.6274C70.7684 25.6274 71.0088 25.5283 71.1865 25.3301C71.3665 25.1318 71.4565 24.8812 71.4565 24.5781ZM75.8862 22.5L74.2354 26.6665C74.1055 26.9946 73.9425 27.2396 73.7466 27.4014C73.5506 27.5654 73.3205 27.6475 73.0562 27.6475C72.9878 27.6475 72.9251 27.6429 72.8682 27.6338C72.8112 27.627 72.7565 27.6167 72.7041 27.603L72.8135 27.1245C72.8545 27.1382 72.8921 27.1473 72.9263 27.1519C72.9627 27.1587 72.998 27.1621 73.0322 27.1621C73.1826 27.1621 73.3068 27.1234 73.4048 27.0459C73.505 26.9684 73.5848 26.859 73.644 26.7178L73.9482 25.9932L72.5811 22.5H73.2031L74.1499 25.1934C74.1545 25.2093 74.1624 25.2401 74.1738 25.2856C74.1875 25.3312 74.2035 25.3893 74.2217 25.46H74.2422C74.249 25.4326 74.257 25.3973 74.2661 25.354C74.2775 25.3107 74.2923 25.2594 74.3105 25.2002L75.3052 22.5H75.8862ZM79.3965 26H78.6104L77.0654 24.3184H77.0518V26H76.4912V20.8184H77.0518V24.103H77.0654L78.5352 22.5H79.27L77.6465 24.1885L79.3965 26ZM82.4487 26H81.8882V25.4531H81.8745C81.7537 25.6628 81.6045 25.82 81.4268 25.9248C81.2513 26.0296 81.0462 26.082 80.8115 26.082C80.4834 26.082 80.2179 25.9863 80.0151 25.7949C79.8123 25.6035 79.7109 25.3494 79.7109 25.0327C79.7109 24.7342 79.8135 24.487 80.0186 24.291C80.2236 24.0951 80.5142 23.9697 80.8901 23.915L81.8882 23.7817V23.7031C81.8882 23.4092 81.8198 23.2007 81.6831 23.0776C81.5464 22.9523 81.3641 22.8896 81.1362 22.8896C80.9539 22.8896 80.7785 22.9238 80.6099 22.9922C80.4412 23.0605 80.2829 23.1654 80.1348 23.3066L79.8066 22.9683C80.0026 22.7791 80.2111 22.6401 80.4321 22.5513C80.6532 22.4624 80.8993 22.418 81.1704 22.418C81.5942 22.418 81.9132 22.5273 82.1274 22.7461C82.3416 22.9626 82.4487 23.2884 82.4487 23.7236V26ZM81.8882 24.5781V24.2295L81.0439 24.3457C80.7865 24.3822 80.5928 24.4471 80.4629 24.5405C80.333 24.634 80.2681 24.7809 80.2681 24.9814C80.2681 25.1911 80.3285 25.3517 80.4492 25.4634C80.5723 25.5728 80.7215 25.6274 80.897 25.6274C81.2 25.6274 81.4404 25.5283 81.6182 25.3301C81.7982 25.1318 81.8882 24.8812 81.8882 24.5781ZM85.9932 25.7915C85.8314 25.8918 85.6696 25.9647 85.5078 26.0103C85.346 26.0581 85.1694 26.082 84.978 26.082C84.4858 26.082 84.0814 25.9294 83.7646 25.624C83.4502 25.3187 83.293 24.8857 83.293 24.3252C83.293 23.7555 83.4513 23.2952 83.7681 22.9443C84.0871 22.5934 84.5246 22.418 85.0806 22.418C85.2606 22.418 85.4315 22.4396 85.5933 22.4829C85.7573 22.5262 85.9225 22.5968 86.0889 22.6948L85.853 23.105C85.7231 23.0321 85.5955 22.9785 85.4702 22.9443C85.3449 22.9102 85.2082 22.8931 85.0601 22.8931C84.675 22.8931 84.3799 23.0218 84.1748 23.2793C83.9697 23.5368 83.8672 23.8638 83.8672 24.2603C83.8672 24.6978 83.9743 25.0316 84.1885 25.2617C84.4049 25.4919 84.6841 25.6069 85.0259 25.6069C85.1375 25.6069 85.2537 25.5898 85.3745 25.5557C85.4976 25.5192 85.6206 25.4634 85.7437 25.3882L85.9932 25.7915ZM89.6709 26H89.1104V23.9834C89.1104 23.6188 89.042 23.3454 88.9053 23.1631C88.7708 22.9808 88.568 22.8896 88.2969 22.8896C88.0234 22.8896 87.7933 22.9956 87.6064 23.2075C87.4196 23.4172 87.3262 23.6872 87.3262 24.0176V26H86.7656V20.8184H87.3262V23.0811H87.3398C87.4743 22.86 87.6372 22.6948 87.8286 22.5854C88.02 22.4738 88.2399 22.418 88.4883 22.418C88.8825 22.418 89.1776 22.5365 89.3735 22.7734C89.5718 23.0104 89.6709 23.367 89.6709 23.8433V26ZM91.0176 21.6626C90.9036 21.6626 90.8079 21.625 90.7305 21.5498C90.653 21.4723 90.6143 21.3778 90.6143 21.2661C90.6143 21.1545 90.653 21.061 90.7305 20.9858C90.8079 20.9084 90.9036 20.8696 91.0176 20.8696C91.1315 20.8696 91.2272 20.9084 91.3047 20.9858C91.3822 21.061 91.4209 21.1545 91.4209 21.2661C91.4209 21.3778 91.3822 21.4723 91.3047 21.5498C91.2272 21.625 91.1315 21.6626 91.0176 21.6626ZM91.291 26H90.7305V22.5H91.291V26ZM95.2114 22.5L93.5605 26.6665C93.4307 26.9946 93.2677 27.2396 93.0718 27.4014C92.8758 27.5654 92.6457 27.6475 92.3813 27.6475C92.313 27.6475 92.2503 27.6429 92.1934 27.6338C92.1364 27.627 92.0817 27.6167 92.0293 27.603L92.1387 27.1245C92.1797 27.1382 92.2173 27.1473 92.2515 27.1519C92.2879 27.1587 92.3232 27.1621 92.3574 27.1621C92.5078 27.1621 92.632 27.1234 92.73 27.0459C92.8302 26.9684 92.91 26.859 92.9692 26.7178L93.2734 25.9932L91.9062 22.5H92.5283L93.4751 25.1934C93.4797 25.2093 93.4876 25.2401 93.499 25.2856C93.5127 25.3312 93.5286 25.3893 93.5469 25.46H93.5674C93.5742 25.4326 93.5822 25.3973 93.5913 25.354C93.6027 25.3107 93.6175 25.2594 93.6357 25.2002L94.6304 22.5H95.2114Z" fill="black" fill-opacity="0.6063"/>
<defs>
<filter id="filter0_dd_976_1868" x="11.0938" y="7.25" width="11.8125" height="5.625" filterUnits="userSpaceOnUse" color-interpolation-filters="sRGB">
<feFlood flood-opacity="0" result="BackgroundImageFix"/>
<feColorMatrix in="SourceAlpha" type="matrix" values="0 0 0 0 0 0 0 0 0 0 0 0 0 0 0 0 0 0 127 0" result="hardAlpha"/>
<feOffset dy="0.1875"/>
<feGaussianBlur stdDeviation="0.1875"/>
<feColorMatrix type="matrix" values="0 0 0 0 0 0 0 0 0 0 0 0 0 0 0 0 0 0 0.1 0"/>
<feBlend mode="normal" in2="BackgroundImageFix" result="effect1_dropShadow_976_1868"/>
<feColorMatrix in="SourceAlpha" type="matrix" values="0 0 0 0 0 0 0 0 0 0 0 0 0 0 0 0 0 0 127 0" result="hardAlpha"/>
<feOffset dy="0.375"/>
<feGaussianBlur stdDeviation="0.5625"/>
<feColorMatrix type="matrix" values="0 0 0 0 0 0 0 0 0 0 0 0 0 0 0 0 0 0 0.2 0"/>
<feBlend mode="normal" in2="effect1_dropShadow_976_1868" result="effect2_dropShadow_976_1868"/>
<feBlend mode="normal" in="SourceGraphic" in2="effect2_dropShadow_976_1868" result="shape"/>
</filter>
<filter id="filter1_dd_976_1868" x="12.2188" y="13.4375" width="9.5625" height="9.5625" filterUnits="userSpaceOnUse" color-interpolation-filters="sRGB">
<feFlood flood-opacity="0" result="BackgroundImageFix"/>
<feColorMatrix in="SourceAlpha" type="matrix" values="0 0 0 0 0 0 0 0 0 0 0 0 0 0 0 0 0 0 127 0" result="hardAlpha"/>
<feOffset dy="0.1875"/>
<feGaussianBlur stdDeviation="0.1875"/>
<feColorMatrix type="matrix" values="0 0 0 0 0 0 0 0 0 0 0 0 0 0 0 0 0 0 0.1 0"/>
<feBlend mode="normal" in2="BackgroundImageFix" result="effect1_dropShadow_976_1868"/>
<feColorMatrix in="SourceAlpha" type="matrix" values="0 0 0 0 0 0 0 0 0 0 0 0 0 0 0 0 0 0 127 0" result="hardAlpha"/>
<feOffset dy="0.375"/>
<feGaussianBlur stdDeviation="0.5625"/>
<feColorMatrix type="matrix" values="0 0 0 0 0 0 0 0 0 0 0 0 0 0 0 0 0 0 0.2 0"/>
<feBlend mode="normal" in2="effect1_dropShadow_976_1868" result="effect2_dropShadow_976_1868"/>
<feBlend mode="normal" in="SourceGraphic" in2="effect2_dropShadow_976_1868" result="shape"/>
</filter>
<filter id="filter2_dd_976_1868" x="10.5939" y="6.6875" width="12.8124" height="5.06274" filterUnits="userSpaceOnUse" color-interpolation-filters="sRGB">
<feFlood flood-opacity="0" result="BackgroundImageFix"/>
<feColorMatrix in="SourceAlpha" type="matrix" values="0 0 0 0 0 0 0 0 0 0 0 0 0 0 0 0 0 0 127 0" result="hardAlpha"/>
<feOffset dy="-0.75"/>
<feGaussianBlur stdDeviation="0.1875"/>
<feColorMatrix type="matrix" values="0 0 0 0 0 0 0 0 0 0 0 0 0 0 0 0 0 0 0.1 0"/>
<feBlend mode="normal" in2="BackgroundImageFix" result="effect1_dropShadow_976_1868"/>
<feColorMatrix in="SourceAlpha" type="matrix" values="0 0 0 0 0 0 0 0 0 0 0 0 0 0 0 0 0 0 127 0" result="hardAlpha"/>
<feOffset dy="-0.75"/>
<feGaussianBlur stdDeviation="0.5625"/>
<feColorMatrix type="matrix" values="0 0 0 0 0 0 0 0 0 0 0 0 0 0 0 0 0 0 0.2 0"/>
<feBlend mode="normal" in2="effect1_dropShadow_976_1868" result="effect2_dropShadow_976_1868"/>
<feBlend mode="normal" in="SourceGraphic" in2="effect2_dropShadow_976_1868" result="shape"/>
</filter>
<linearGradient id="paint0_linear_976_1868" x1="17" y1="10.25" x2="20.3514" y2="25.9624" gradientUnits="userSpaceOnUse">
<stop stop-color="#0669BC"/>
<stop offset="1" stop-color="#243A5F"/>
</linearGradient>
<linearGradient id="paint1_linear_976_1868" x1="17" y1="10.25" x2="20.3514" y2="25.9624" gradientUnits="userSpaceOnUse">
<stop stop-color="#0078D4"/>
<stop offset="1" stop-color="#114A8B"/>
</linearGradient>
<linearGradient id="paint2_linear_976_1868" x1="17" y1="8.5625" x2="17.1583" y2="10.9858" gradientUnits="userSpaceOnUse">
<stop stop-color="#28AFEA"/>
<stop offset="1" stop-color="#0078D4"/>
</linearGradient>
<linearGradient id="paint3_linear_976_1868" x1="17" y1="8.5625" x2="17.1583" y2="10.9858" gradientUnits="userSpaceOnUse">
<stop stop-color="#30DAFF"/>
<stop offset="1" stop-color="#0094D4"/>
</linearGradient>
<linearGradient id="paint4_linear_976_1868" x1="16.5938" y1="8" x2="16.5937" y2="9.125" gradientUnits="userSpaceOnUse">
<stop stop-color="#22BCFF"/>
<stop offset="1" stop-color="#0088F0"/>
</linearGradient>
<linearGradient id="paint5_linear_976_1868" x1="16.5938" y1="8" x2="16.5937" y2="9.125" gradientUnits="userSpaceOnUse">
<stop stop-color="#28AFEA"/>
<stop offset="1" stop-color="#3CCBF4"/>
</linearGradient>
<clipPath id="clip0_976_1868">
<rect width="18" height="18" fill="white" transform="translate(8 8)"/>
</clipPath>
<clipPath id="clip1_976_1868">
<rect width="18" height="18" fill="white" transform="translate(8 8)"/>
</clipPath>
</defs>
</svg>
