<svg width="114" height="32" viewBox="0 0 114 32" fill="none" xmlns="http://www.w3.org/2000/svg">
<rect x="0.5" y="0.5" width="113" height="31" rx="3.5" fill="black"/>
<path d="M15.5559 7H7V15.5608H15.5559V7Z" fill="#F25022"/>
<path d="M25.0001 7H16.4442V15.5608H25.0001V7Z" fill="#7FBA00"/>
<path d="M15.5559 16.4395H7V25.0002H15.5559V16.4395Z" fill="#00A4EF"/>
<path d="M25.0002 16.4395H16.4443V25.0002H25.0002V16.4395Z" fill="#FFB900"/>
<path d="M33.7344 12.7148C33.4635 12.8477 33.1979 12.944 32.9375 13.0039C32.6771 13.0638 32.3945 13.0938 32.0898 13.0938C31.2409 13.0938 30.5794 12.8385 30.1055 12.3281C29.6341 11.8177 29.3984 11.1419 29.3984 10.3008C29.3984 9.39193 29.6615 8.66536 30.1875 8.12109C30.7161 7.57682 31.4036 7.30469 32.25 7.30469C32.5208 7.30469 32.7734 7.32943 33.0078 7.37891C33.2422 7.42839 33.4805 7.50781 33.7227 7.61719L33.4609 8.20312C33.2604 8.11198 33.0638 8.04688 32.8711 8.00781C32.6784 7.96615 32.4714 7.94531 32.25 7.94531C31.612 7.94531 31.1016 8.15234 30.7188 8.56641C30.3385 8.98047 30.1484 9.54427 30.1484 10.2578C30.1484 10.9323 30.3294 11.4674 30.6914 11.8633C31.0534 12.2591 31.5378 12.457 32.1445 12.457C32.3659 12.457 32.5833 12.4323 32.7969 12.3828C33.013 12.3307 33.2305 12.2487 33.4492 12.1367L33.7344 12.7148ZM35.4336 13H34.7383V8.90234H35.4336V10.7812H35.4531L37.1328 8.90234H38.0352L36.1719 10.875L38.1797 13H37.2227L35.4531 11.0234H35.4336V13ZM41.8516 13H41.1602V12.3555H41.1445C41.0039 12.6003 40.8294 12.7852 40.6211 12.9102C40.4128 13.0352 40.1706 13.0977 39.8945 13.0977C39.5091 13.0977 39.1979 12.9857 38.9609 12.7617C38.724 12.5378 38.6055 12.2422 38.6055 11.875C38.6055 11.5182 38.7253 11.2253 38.9648 10.9961C39.2044 10.7669 39.5495 10.6198 40 10.5547L41.1641 10.3984V10.3047C41.1641 9.97396 41.0846 9.73568 40.9258 9.58984C40.7695 9.44401 40.5586 9.37109 40.293 9.37109C40.082 9.37109 39.8763 9.41146 39.6758 9.49219C39.4753 9.57292 39.2852 9.69401 39.1055 9.85547L38.7266 9.43359C38.9583 9.22005 39.2057 9.0625 39.4688 8.96094C39.7344 8.85677 40.0247 8.80469 40.3398 8.80469C40.8398 8.80469 41.2161 8.93359 41.4688 9.19141C41.724 9.44922 41.8516 9.83594 41.8516 10.3516V13ZM41.1641 11.3281V10.9336L40.1875 11.0664C39.888 11.1081 39.6641 11.1836 39.5156 11.293C39.3672 11.4023 39.293 11.5742 39.293 11.8086C39.293 12.0404 39.362 12.2201 39.5 12.3477C39.6406 12.4753 39.8151 12.5391 40.0234 12.5391C40.3672 12.5391 40.6432 12.4258 40.8516 12.1992C41.0599 11.9701 41.1641 11.6797 41.1641 11.3281ZM46.4297 13H45.7383V11.3789C45.5091 11.5091 45.2969 11.6029 45.1016 11.6602C44.9089 11.7174 44.7044 11.7461 44.4883 11.7461C43.9857 11.7461 43.6237 11.6393 43.4023 11.4258C43.1836 11.2122 43.0742 10.8555 43.0742 10.3555V8.90234H43.7656V10.2891C43.7656 10.5938 43.8281 10.8112 43.9531 10.9414C44.0781 11.0716 44.2839 11.1367 44.5703 11.1367C44.7812 11.1367 44.9753 11.1133 45.1523 11.0664C45.332 11.0169 45.5273 10.9336 45.7383 10.8164V8.90234H46.4297V13ZM50.7344 13H50.043V12.3555H50.0273C49.8867 12.6003 49.7122 12.7852 49.5039 12.9102C49.2956 13.0352 49.0534 13.0977 48.7773 13.0977C48.3919 13.0977 48.0807 12.9857 47.8438 12.7617C47.6068 12.5378 47.4883 12.2422 47.4883 11.875C47.4883 11.5182 47.6081 11.2253 47.8477 10.9961C48.0872 10.7669 48.4323 10.6198 48.8828 10.5547L50.0469 10.3984V10.3047C50.0469 9.97396 49.9674 9.73568 49.8086 9.58984C49.6523 9.44401 49.4414 9.37109 49.1758 9.37109C48.9648 9.37109 48.7591 9.41146 48.5586 9.49219C48.3581 9.57292 48.168 9.69401 47.9883 9.85547L47.6094 9.43359C47.8411 9.22005 48.0885 9.0625 48.3516 8.96094C48.6172 8.85677 48.9076 8.80469 49.2227 8.80469C49.7227 8.80469 50.099 8.93359 50.3516 9.19141C50.6068 9.44922 50.7344 9.83594 50.7344 10.3516V13ZM50.0469 11.3281V10.9336L49.0703 11.0664C48.7708 11.1081 48.5469 11.1836 48.3984 11.293C48.25 11.4023 48.1758 11.5742 48.1758 11.8086C48.1758 12.0404 48.2448 12.2201 48.3828 12.3477C48.5234 12.4753 48.6979 12.5391 48.9062 12.5391C49.25 12.5391 49.526 12.4258 49.7344 12.1992C49.9427 11.9701 50.0469 11.6797 50.0469 11.3281ZM53.4297 13H52.7344V9.48828H51.4922V8.90234H54.6719V9.48828H53.4297V13ZM55.4883 13V8.90234H56.1836V10.332H57.2812C57.724 10.332 58.0703 10.4466 58.3203 10.6758C58.5729 10.9049 58.6992 11.2318 58.6992 11.6562C58.6992 12.0859 58.569 12.418 58.3086 12.6523C58.0508 12.8841 57.6992 13 57.2539 13H55.4883ZM56.1836 12.4297H57.1719C57.4323 12.4297 57.6328 12.3659 57.7734 12.2383C57.9167 12.1081 57.9883 11.9206 57.9883 11.6758C57.9883 11.431 57.918 11.2422 57.7773 11.1094C57.6367 10.974 57.4362 10.9062 57.1758 10.9062H56.1836V12.4297ZM64.8359 12.7422C64.6406 12.8672 64.4453 12.957 64.25 13.0117C64.0547 13.069 63.8451 13.0977 63.6211 13.0977C63.0352 13.0977 62.5573 12.918 62.1875 12.5586C61.8177 12.1966 61.6328 11.6914 61.6328 11.043C61.6328 10.3711 61.8203 9.83073 62.1953 9.42188C62.5729 9.01042 63.0885 8.80469 63.7422 8.80469C63.9531 8.80469 64.1536 8.83073 64.3438 8.88281C64.5339 8.93229 64.7253 9.01302 64.918 9.125L64.625 9.63281C64.4766 9.54427 64.3307 9.48177 64.1875 9.44531C64.0443 9.40625 63.8906 9.38672 63.7266 9.38672C63.2812 9.38672 62.9388 9.53516 62.6992 9.83203C62.4622 10.1263 62.3438 10.5052 62.3438 10.9688C62.3438 11.4688 62.4674 11.8516 62.7148 12.1172C62.9648 12.3828 63.2865 12.5156 63.6797 12.5156C63.8125 12.5156 63.9492 12.4961 64.0898 12.457C64.2331 12.4154 64.3802 12.3464 64.5312 12.25L64.8359 12.7422ZM70.9141 12.7422C70.7188 12.8672 70.5234 12.957 70.3281 13.0117C70.1328 13.069 69.9232 13.0977 69.6992 13.0977C69.1133 13.0977 68.6354 12.918 68.2656 12.5586C67.8958 12.1966 67.7109 11.6914 67.7109 11.043C67.7109 10.3711 67.8984 9.83073 68.2734 9.42188C68.651 9.01042 69.1667 8.80469 69.8203 8.80469C70.0312 8.80469 70.2318 8.83073 70.4219 8.88281C70.612 8.93229 70.8034 9.01302 70.9961 9.125L70.7031 9.63281C70.5547 9.54427 70.4089 9.48177 70.2656 9.44531C70.1224 9.40625 69.9688 9.38672 69.8047 9.38672C69.3594 9.38672 69.0169 9.53516 68.7773 9.83203C68.5404 10.1263 68.4219 10.5052 68.4219 10.9688C68.4219 11.4688 68.5456 11.8516 68.793 12.1172C69.043 12.3828 69.3646 12.5156 69.7578 12.5156C69.8906 12.5156 70.0273 12.4961 70.168 12.457C70.3112 12.4154 70.4583 12.3464 70.6094 12.25L70.9141 12.7422ZM74.8125 13H74.1211V12.3555H74.1055C73.9648 12.6003 73.7904 12.7852 73.582 12.9102C73.3737 13.0352 73.1315 13.0977 72.8555 13.0977C72.4701 13.0977 72.1589 12.9857 71.9219 12.7617C71.6849 12.5378 71.5664 12.2422 71.5664 11.875C71.5664 11.5182 71.6862 11.2253 71.9258 10.9961C72.1654 10.7669 72.5104 10.6198 72.9609 10.5547L74.125 10.3984V10.3047C74.125 9.97396 74.0456 9.73568 73.8867 9.58984C73.7305 9.44401 73.5195 9.37109 73.2539 9.37109C73.043 9.37109 72.8372 9.41146 72.6367 9.49219C72.4362 9.57292 72.2461 9.69401 72.0664 9.85547L71.6875 9.43359C71.9193 9.22005 72.1667 9.0625 72.4297 8.96094C72.6953 8.85677 72.9857 8.80469 73.3008 8.80469C73.8008 8.80469 74.1771 8.93359 74.4297 9.19141C74.6849 9.44922 74.8125 9.83594 74.8125 10.3516V13ZM74.125 11.3281V10.9336L73.1484 11.0664C72.849 11.1081 72.625 11.1836 72.4766 11.293C72.3281 11.4023 72.2539 11.5742 72.2539 11.8086C72.2539 12.0404 72.3229 12.2201 72.4609 12.3477C72.6016 12.4753 72.776 12.5391 72.9844 12.5391C73.3281 12.5391 73.6042 12.4258 73.8125 12.1992C74.0208 11.9701 74.125 11.6797 74.125 11.3281ZM76.1055 13V8.90234H76.7734V12.0977C76.8047 12.0352 76.8385 11.9714 76.875 11.9062C76.9141 11.8411 76.9505 11.7826 76.9844 11.7305L78.875 8.90234H79.5859V13H78.918V9.80469C78.8841 9.86719 78.8477 9.93099 78.8086 9.99609C78.7721 10.0612 78.7383 10.1198 78.707 10.1719L76.8164 13H76.1055ZM78.9883 7.14844C78.9518 7.50781 78.8346 7.78125 78.6367 7.96875C78.4414 8.15365 78.1719 8.24609 77.8281 8.24609C77.487 8.24609 77.2174 8.15365 77.0195 7.96875C76.8216 7.78125 76.7044 7.50781 76.668 7.14844H77.2031C77.237 7.40104 77.306 7.58073 77.4102 7.6875C77.5169 7.79167 77.6562 7.84375 77.8281 7.84375C77.9974 7.84375 78.1354 7.79167 78.2422 7.6875C78.349 7.58073 78.4193 7.40104 78.4531 7.14844H78.9883ZM82.3438 13H81.6484V9.48828H80.4062V8.90234H83.5859V9.48828H82.3438V13ZM87.3516 13H86.6602V12.3555H86.6445C86.5039 12.6003 86.3294 12.7852 86.1211 12.9102C85.9128 13.0352 85.6706 13.0977 85.3945 13.0977C85.0091 13.0977 84.6979 12.9857 84.4609 12.7617C84.224 12.5378 84.1055 12.2422 84.1055 11.875C84.1055 11.5182 84.2253 11.2253 84.4648 10.9961C84.7044 10.7669 85.0495 10.6198 85.5 10.5547L86.6641 10.3984V10.3047C86.6641 9.97396 86.5846 9.73568 86.4258 9.58984C86.2695 9.44401 86.0586 9.37109 85.793 9.37109C85.582 9.37109 85.3763 9.41146 85.1758 9.49219C84.9753 9.57292 84.7852 9.69401 84.6055 9.85547L84.2266 9.43359C84.4583 9.22005 84.7057 9.0625 84.9688 8.96094C85.2344 8.85677 85.5247 8.80469 85.8398 8.80469C86.3398 8.80469 86.7161 8.93359 86.9688 9.19141C87.224 9.44922 87.3516 9.83594 87.3516 10.3516V13ZM86.6641 11.3281V10.9336L85.6875 11.0664C85.388 11.1081 85.1641 11.1836 85.0156 11.293C84.8672 11.4023 84.793 11.5742 84.793 11.8086C84.793 12.0404 84.862 12.2201 85 12.3477C85.1406 12.4753 85.3151 12.5391 85.5234 12.5391C85.8672 12.5391 86.1432 12.4258 86.3516 12.1992C86.5599 11.9701 86.6641 11.6797 86.6641 11.3281Z" fill="white"/>
<path d="M39.8989 25H38.4009V19.1094C38.4009 18.627 38.4305 18.0366 38.4897 17.3384H38.4644C38.3713 17.7362 38.2887 18.0218 38.2168 18.1953L35.5 25H34.459L31.7358 18.2461C31.6597 18.0472 31.5793 17.7446 31.4946 17.3384H31.4692C31.5031 17.7023 31.52 18.2969 31.52 19.1221V25H30.1235V15.8975H32.25L34.6431 21.9595C34.825 22.425 34.9435 22.772 34.9985 23.0005H35.0303C35.1868 22.5223 35.3138 22.1668 35.4111 21.9341L37.8486 15.8975H39.8989V25ZM46.9702 25H45.542V23.9844H45.5166C45.068 24.763 44.41 25.1523 43.5425 25.1523C42.9035 25.1523 42.402 24.9788 42.0381 24.6318C41.6784 24.2848 41.4985 23.8257 41.4985 23.2544C41.4985 22.0272 42.2052 21.312 43.6187 21.1089L45.5483 20.8359C45.5483 19.9092 45.1082 19.4458 44.228 19.4458C43.4536 19.4458 42.7554 19.7124 42.1333 20.2456V18.957C42.8188 18.5508 43.6102 18.3477 44.5073 18.3477C46.1493 18.3477 46.9702 19.1559 46.9702 20.7725V25ZM45.5483 21.8071L44.1836 21.9976C43.7604 22.0526 43.4409 22.1562 43.2251 22.3086C43.0135 22.4567 42.9077 22.7191 42.9077 23.0957C42.9077 23.3708 43.005 23.5972 43.1997 23.7749C43.3986 23.9484 43.6631 24.0352 43.9932 24.0352C44.4417 24.0352 44.812 23.8786 45.104 23.5654C45.4002 23.248 45.5483 22.8503 45.5483 22.3721V21.8071ZM54.6763 25H53.3433V20.2329C53.2586 20.4022 53.1296 20.637 52.9561 20.9375L50.2202 25H48.7729V18.5H50.125V23.1719C50.1715 23.0618 50.271 22.8714 50.4233 22.6006L53.1973 18.5H54.6763V25ZM54.251 15.3706C54.1833 16.0054 53.9209 16.5068 53.4639 16.875C53.0111 17.2389 52.4419 17.4209 51.7563 17.4209C51.0539 17.4209 50.4805 17.2389 50.0361 16.875C49.596 16.5068 49.3548 16.0054 49.3125 15.3706H50.5376C50.5968 16.1408 51.0094 16.5259 51.7754 16.5259C52.1139 16.5259 52.3932 16.4243 52.6133 16.2212C52.8376 16.0181 52.9751 15.7345 53.0259 15.3706H54.251ZM62.5093 25H60.6367L58.1104 21.8325H58.085V25H56.606V18.5H58.085V21.4897H58.1104L60.4971 18.5H62.2998L59.5957 21.5977L62.5093 25ZM64.9341 24.0415H64.9087V27.9897H63.436V18.5H64.9087V19.6426H64.9341C65.4377 18.7793 66.174 18.3477 67.1431 18.3477C67.9683 18.3477 68.6115 18.6375 69.0728 19.2173C69.534 19.797 69.7646 20.5757 69.7646 21.5532C69.7646 22.6366 69.5044 23.5041 68.9839 24.1558C68.4634 24.8075 67.7524 25.1333 66.8511 25.1333C66.0216 25.1333 65.3826 24.7694 64.9341 24.0415ZM64.896 21.4771V22.2832C64.896 22.7572 65.0462 23.1592 65.3467 23.4893C65.6514 23.8193 66.0365 23.9844 66.502 23.9844C67.0479 23.9844 67.4753 23.7728 67.7842 23.3496C68.0973 22.9222 68.2539 22.3276 68.2539 21.5659C68.2539 20.9269 68.1079 20.4276 67.8159 20.0679C67.5282 19.7039 67.1367 19.522 66.6416 19.522C66.1169 19.522 65.6937 19.7082 65.3721 20.0806C65.0547 20.453 64.896 20.9185 64.896 21.4771ZM74.1509 25.1523C73.1479 25.1523 72.346 24.8498 71.7451 24.2446C71.1484 23.6353 70.8501 22.8291 70.8501 21.8262C70.8501 20.7344 71.1611 19.8817 71.7832 19.2681C72.4095 18.6545 73.2516 18.3477 74.3096 18.3477C75.3252 18.3477 76.1165 18.646 76.6836 19.2427C77.2507 19.8394 77.5342 20.6667 77.5342 21.7246C77.5342 22.7614 77.2274 23.5929 76.6138 24.2192C76.0044 24.8413 75.1834 25.1523 74.1509 25.1523ZM74.2207 19.522C73.6452 19.522 73.1903 19.723 72.856 20.125C72.5216 20.527 72.3545 21.0814 72.3545 21.7881C72.3545 22.4694 72.5238 23.0068 72.8623 23.4004C73.2008 23.7897 73.6536 23.9844 74.2207 23.9844C74.8005 23.9844 75.2448 23.7918 75.5537 23.4067C75.8669 23.0216 76.0234 22.4736 76.0234 21.7627C76.0234 21.0475 75.8669 20.4953 75.5537 20.106C75.2448 19.7166 74.8005 19.522 74.2207 19.522ZM83.6914 24.7017C83.1709 25.0021 82.5552 25.1523 81.8442 25.1523C80.8794 25.1523 80.1007 24.8519 79.5083 24.251C78.9159 23.6458 78.6196 22.863 78.6196 21.9023C78.6196 20.8317 78.937 19.9727 79.5718 19.3252C80.2108 18.6735 81.0635 18.3477 82.1299 18.3477C82.7223 18.3477 83.245 18.4513 83.6978 18.6587V20.0298C83.245 19.6912 82.7625 19.522 82.2505 19.522C81.6284 19.522 81.1185 19.7336 80.7207 20.1567C80.3229 20.5757 80.124 21.1258 80.124 21.8071C80.124 22.48 80.3102 23.0111 80.6826 23.4004C81.0592 23.7897 81.5628 23.9844 82.1934 23.9844C82.7223 23.9844 83.2217 23.7961 83.6914 23.4194V24.7017ZM88.0396 25.1523C87.0366 25.1523 86.2347 24.8498 85.6338 24.2446C85.0371 23.6353 84.7388 22.8291 84.7388 21.8262C84.7388 20.7344 85.0498 19.8817 85.6719 19.2681C86.2982 18.6545 87.1403 18.3477 88.1982 18.3477C89.2139 18.3477 90.0052 18.646 90.5723 19.2427C91.1393 19.8394 91.4229 20.6667 91.4229 21.7246C91.4229 22.7614 91.116 23.5929 90.5024 24.2192C89.8931 24.8413 89.0721 25.1523 88.0396 25.1523ZM88.1094 19.522C87.5339 19.522 87.0789 19.723 86.7446 20.125C86.4103 20.527 86.2432 21.0814 86.2432 21.7881C86.2432 22.4694 86.4124 23.0068 86.751 23.4004C87.0895 23.7897 87.5423 23.9844 88.1094 23.9844C88.6891 23.9844 89.1335 23.7918 89.4424 23.4067C89.7555 23.0216 89.9121 22.4736 89.9121 21.7627C89.9121 21.0475 89.7555 20.4953 89.4424 20.106C89.1335 19.7166 88.6891 19.522 88.1094 19.522ZM97.3896 25.1143V28.0342H96.0312V25.1143H95.8154C94.8252 25.1143 94.0233 24.8096 93.4097 24.2002C92.8003 23.5908 92.4956 22.7931 92.4956 21.8071C92.4956 20.7703 92.8045 19.9409 93.4224 19.3188C94.0402 18.6968 94.8569 18.3857 95.8726 18.3857H96.0312V15.7261H97.3896V18.3857H97.5356C98.5597 18.3857 99.3807 18.6947 99.9985 19.3125C100.616 19.9303 100.925 20.7619 100.925 21.8071C100.925 22.7931 100.621 23.5908 100.011 24.2002C99.4061 24.8096 98.6105 25.1143 97.6245 25.1143H97.3896ZM97.3896 19.5029V24.0034H97.5103C98.09 24.0034 98.5534 23.8045 98.9004 23.4067C99.2474 23.009 99.4209 22.4694 99.4209 21.7881C99.4209 21.0729 99.2495 20.5143 98.9067 20.1123C98.5682 19.7061 98.1133 19.5029 97.542 19.5029H97.3896ZM96.0312 24.0034V19.5029H95.8979C95.3267 19.5029 94.8675 19.7061 94.5205 20.1123C94.1735 20.5186 94 21.0771 94 21.7881C94 22.4609 94.1735 22.9984 94.5205 23.4004C94.8675 23.8024 95.333 24.0034 95.917 24.0034H96.0312ZM106.638 19.6743H104.785V25H103.306V19.6743H101.439V18.5H106.638V19.6743Z" fill="white"/>
<rect x="0.5" y="0.5" width="113" height="31" rx="3.5" stroke="black"/>
</svg>
