<svg width="99" height="32" viewBox="0 0 99 32" fill="none" xmlns="http://www.w3.org/2000/svg">
<rect x="0.5" y="0.5" width="98" height="31" rx="3.5" fill="white" fill-opacity="0.7"/>
<path d="M15.5559 7H7V15.5608H15.5559V7Z" fill="#F25022"/>
<path d="M25.0001 7H16.4442V15.5608H25.0001V7Z" fill="#7FBA00"/>
<path d="M15.5559 16.4395H7V25.0002H15.5559V16.4395Z" fill="#00A4EF"/>
<path d="M25.0002 16.4395H16.4443V25.0002H25.0002V16.4395Z" fill="#FFB900"/>
<path d="M30.4766 10.9648V13H29.7656V7.39844H31.3438C31.9531 7.39844 32.4232 7.54688 32.7539 7.84375C33.0872 8.14062 33.2539 8.5638 33.2539 9.11328C33.2539 9.65755 33.069 10.1029 32.6992 10.4492C32.3294 10.793 31.8307 10.9648 31.2031 10.9648H30.4766ZM30.4766 8.02734V10.3359H31.1484C31.5885 10.3359 31.9245 10.2331 32.1562 10.0273C32.388 9.82161 32.5039 9.52865 32.5039 9.14844C32.5039 8.77344 32.3971 8.49349 32.1836 8.30859C31.9701 8.12109 31.6484 8.02734 31.2188 8.02734H30.4766ZM36.3438 9.49609C36.2917 9.48047 36.2435 9.46875 36.1992 9.46094C36.1549 9.45312 36.1016 9.44922 36.0391 9.44922C35.7083 9.44922 35.4479 9.58984 35.2578 9.87109C35.0677 10.1497 34.9727 10.5026 34.9727 10.9297V13H34.2773V8.90234H34.9727V9.71484H34.9883C35.082 9.42578 35.224 9.20703 35.4141 9.05859C35.6068 8.90755 35.8294 8.83203 36.082 8.83203C36.1628 8.83203 36.2318 8.83594 36.2891 8.84375C36.349 8.85156 36.4036 8.86328 36.4531 8.87891L36.3438 9.49609ZM37.5781 8.03516C37.4401 8.03516 37.3255 7.98958 37.2344 7.89844C37.1432 7.80729 37.0977 7.69661 37.0977 7.56641C37.0977 7.43099 37.1432 7.31901 37.2344 7.23047C37.3255 7.13932 37.4401 7.09375 37.5781 7.09375C37.7161 7.09375 37.8307 7.13932 37.9219 7.23047C38.0156 7.31901 38.0625 7.43099 38.0625 7.56641C38.0625 7.69661 38.0156 7.80729 37.9219 7.89844C37.8307 7.98958 37.7161 8.03516 37.5781 8.03516ZM37.918 13H37.2227V8.90234H37.918V13ZM42.1445 12.3125C41.9935 12.5729 41.8008 12.7695 41.5664 12.9023C41.3346 13.0326 41.0612 13.0977 40.7461 13.0977C40.2305 13.0977 39.8177 12.9141 39.5078 12.5469C39.2005 12.1797 39.0469 11.6797 39.0469 11.0469C39.0469 10.3672 39.2174 9.82422 39.5586 9.41797C39.8997 9.00911 40.3542 8.80469 40.9219 8.80469C41.2031 8.80469 41.4453 8.85938 41.6484 8.96875C41.8516 9.07812 42.0169 9.24349 42.1445 9.46484H42.1602V7.07812H42.8555V13H42.1602V12.3125H42.1445ZM39.7578 11.0117C39.7578 11.4805 39.8659 11.849 40.082 12.1172C40.2982 12.3854 40.5872 12.5195 40.9492 12.5195C41.3138 12.5195 41.6068 12.3893 41.8281 12.1289C42.0495 11.8685 42.1602 11.5391 42.1602 11.1406V10.5547C42.1602 10.2266 42.0521 9.94922 41.8359 9.72266C41.6224 9.49609 41.3516 9.38281 41.0234 9.38281C40.6302 9.38281 40.3203 9.52734 40.0938 9.81641C39.8698 10.1055 39.7578 10.5039 39.7578 11.0117ZM45.9453 13.0977C45.3333 13.0977 44.8451 12.9062 44.4805 12.5234C44.1185 12.138 43.9375 11.6276 43.9375 10.9922C43.9375 10.3073 44.125 9.77214 44.5 9.38672C44.875 9.0013 45.3867 8.80729 46.0352 8.80469C46.6497 8.80208 47.1302 8.99089 47.4766 9.37109C47.8255 9.7487 48 10.2682 48 10.9297C48 11.5885 47.8138 12.1146 47.4414 12.5078C47.069 12.901 46.5703 13.0977 45.9453 13.0977ZM45.9922 12.5195C46.4089 12.5195 46.7279 12.3841 46.9492 12.1133C47.1732 11.8398 47.2852 11.4531 47.2852 10.9531C47.2852 10.4479 47.1732 10.0599 46.9492 9.78906C46.7253 9.51823 46.4062 9.38281 45.9922 9.38281C45.5781 9.38281 45.25 9.52474 45.0078 9.80859C44.7682 10.0898 44.6484 10.4779 44.6484 10.9727C44.6484 11.4544 44.7695 11.8333 45.0117 12.1094C45.2539 12.3828 45.5807 12.5195 45.9922 12.5195ZM49.793 12.4609H49.7773V13H49.082V7.07812H49.7773V9.61719H49.793C49.9544 9.34635 50.1536 9.14323 50.3906 9.00781C50.6276 8.8724 50.901 8.80469 51.2109 8.80469C51.7344 8.80469 52.1445 8.98828 52.4414 9.35547C52.7383 9.72005 52.8867 10.2109 52.8867 10.8281C52.8867 11.5156 52.7188 12.0664 52.3828 12.4805C52.0495 12.8919 51.5951 13.0977 51.0195 13.0977C50.7487 13.0977 50.5104 13.0456 50.3047 12.9414C50.1016 12.8346 49.931 12.6745 49.793 12.4609ZM49.7734 10.7578V11.3125C49.7734 11.651 49.8815 11.9375 50.0977 12.1719C50.3138 12.4036 50.5898 12.5195 50.9258 12.5195C51.3138 12.5195 51.6185 12.3698 51.8398 12.0703C52.0612 11.7708 52.1719 11.3542 52.1719 10.8203C52.1719 10.3724 52.069 10.0208 51.8633 9.76562C51.6576 9.51042 51.3776 9.38281 51.0234 9.38281C50.6458 9.38281 50.3424 9.51432 50.1133 9.77734C49.8867 10.0378 49.7734 10.3646 49.7734 10.7578ZM54.3203 8.03516C54.1823 8.03516 54.0677 7.98958 53.9766 7.89844C53.8854 7.80729 53.8398 7.69661 53.8398 7.56641C53.8398 7.43099 53.8854 7.31901 53.9766 7.23047C54.0677 7.13932 54.1823 7.09375 54.3203 7.09375C54.4583 7.09375 54.5729 7.13932 54.6641 7.23047C54.7578 7.31901 54.8047 7.43099 54.8047 7.56641C54.8047 7.69661 54.7578 7.80729 54.6641 7.89844C54.5729 7.98958 54.4583 8.03516 54.3203 8.03516ZM54.6602 13H53.9648V8.90234H54.6602V13ZM58.0664 12.9492C57.9544 12.9961 57.8424 13.0299 57.7305 13.0508C57.6211 13.0742 57.4974 13.0859 57.3594 13.0859C57.0234 13.0859 56.7604 12.9896 56.5703 12.7969C56.3828 12.6042 56.2891 12.319 56.2891 11.9414V9.48047H55.5898V8.90234H56.2891V7.96484L56.9883 7.74219V8.90234H58.0117V9.48047H56.9883V11.8672C56.9883 12.099 57.0299 12.2656 57.1133 12.3672C57.1966 12.4688 57.3216 12.5195 57.4883 12.5195C57.5664 12.5195 57.6419 12.5104 57.7148 12.4922C57.7878 12.474 57.8503 12.4518 57.9023 12.4258L58.0664 12.9492ZM62.2656 11.1094H59.3828C59.3958 11.5625 59.5169 11.9115 59.7461 12.1562C59.9753 12.3984 60.2969 12.5195 60.7109 12.5195C60.8906 12.5195 61.0742 12.4922 61.2617 12.4375C61.4518 12.3802 61.6419 12.2878 61.832 12.1602L62.1484 12.6445C61.9115 12.8008 61.6732 12.9154 61.4336 12.9883C61.194 13.0612 60.931 13.0977 60.6445 13.0977C60.0247 13.0977 59.5417 12.9141 59.1953 12.5469C58.849 12.1771 58.6745 11.6615 58.6719 11C58.6693 10.3411 58.8438 9.8112 59.1953 9.41016C59.5495 9.00651 60.0078 8.80469 60.5703 8.80469C61.1068 8.80469 61.5234 8.97917 61.8203 9.32812C62.1172 9.67448 62.2656 10.1576 62.2656 10.7773V11.1094ZM61.5664 10.5625C61.5638 10.1849 61.4727 9.89193 61.293 9.68359C61.1159 9.47526 60.8711 9.37109 60.5586 9.37109C60.2513 9.37109 59.9909 9.47917 59.7773 9.69531C59.5664 9.90885 59.4375 10.1979 59.3906 10.5625H61.5664ZM65.8477 8.03516C65.7096 8.03516 65.5938 7.98958 65.5 7.89844C65.4089 7.80729 65.3633 7.69661 65.3633 7.56641C65.3633 7.43359 65.4089 7.32161 65.5 7.23047C65.5938 7.13932 65.7096 7.09375 65.8477 7.09375C65.9831 7.09375 66.0964 7.13932 66.1875 7.23047C66.2812 7.32161 66.3281 7.43359 66.3281 7.56641C66.3281 7.69661 66.2812 7.80729 66.1875 7.89844C66.0964 7.98958 65.9831 8.03516 65.8477 8.03516ZM66.1797 13.1328C66.1797 13.7474 66.0638 14.1927 65.832 14.4688C65.6003 14.7448 65.25 14.8828 64.7812 14.8828C64.6745 14.8828 64.5755 14.875 64.4844 14.8594C64.3906 14.8464 64.293 14.8242 64.1914 14.793L64.3398 14.2148C64.4206 14.2435 64.4948 14.2643 64.5625 14.2773C64.6302 14.2904 64.7005 14.2969 64.7734 14.2969C65.0339 14.2969 65.2174 14.2096 65.3242 14.0352C65.431 13.8633 65.4844 13.5768 65.4844 13.1758V8.90234H66.1797V13.1328ZM67.9375 8.03516C67.7995 8.03516 67.6849 7.98958 67.5938 7.89844C67.5026 7.80729 67.457 7.69661 67.457 7.56641C67.457 7.43099 67.5026 7.31901 67.5938 7.23047C67.6849 7.13932 67.7995 7.09375 67.9375 7.09375C68.0755 7.09375 68.1901 7.13932 68.2812 7.23047C68.375 7.31901 68.4219 7.43099 68.4219 7.56641C68.4219 7.69661 68.375 7.80729 68.2812 7.89844C68.1901 7.98958 68.0755 8.03516 67.9375 8.03516ZM68.2773 13H67.582V8.90234H68.2773V13ZM73.1133 13H72.418V10.6367C72.418 10.2174 72.3398 9.90365 72.1836 9.69531C72.0273 9.48698 71.7943 9.38281 71.4844 9.38281C71.1693 9.38281 70.9049 9.50391 70.6914 9.74609C70.4779 9.98568 70.3711 10.2969 70.3711 10.6797V13H69.6758V7.07812H70.3711V9.57812H70.3867C70.543 9.32031 70.7331 9.1276 70.957 9C71.181 8.86979 71.4375 8.80469 71.7266 8.80469C72.1875 8.80469 72.5339 8.94401 72.7656 9.22266C72.9974 9.5013 73.1133 9.91927 73.1133 10.4766V13ZM77.2852 12.4102H77.2695V14.8398H76.5742V8.90234H77.2695V9.61719H77.2852C77.4466 9.34635 77.6458 9.14323 77.8828 9.00781C78.1198 8.8724 78.3919 8.80469 78.6992 8.80469C79.2279 8.80469 79.6393 8.98828 79.9336 9.35547C80.2305 9.72266 80.3789 10.2135 80.3789 10.8281C80.3789 11.5156 80.2109 12.0664 79.875 12.4805C79.5417 12.8919 79.0872 13.0977 78.5117 13.0977C78.2461 13.0977 78.0104 13.0404 77.8047 12.9258C77.6016 12.8112 77.4284 12.6393 77.2852 12.4102ZM77.2656 10.7617V11.3086C77.2656 11.6471 77.3737 11.9336 77.5898 12.168C77.806 12.4023 78.082 12.5195 78.418 12.5195C78.806 12.5195 79.1107 12.3698 79.332 12.0703C79.5534 11.7708 79.6641 11.3542 79.6641 10.8203C79.6641 10.3698 79.5612 10.0182 79.3555 9.76562C79.1497 9.51042 78.8698 9.38281 78.5156 9.38281C78.138 9.38281 77.8346 9.51432 77.6055 9.77734C77.3789 10.0378 77.2656 10.3659 77.2656 10.7617ZM83.5234 9.49609C83.4714 9.48047 83.4232 9.46875 83.3789 9.46094C83.3346 9.45312 83.2812 9.44922 83.2188 9.44922C82.888 9.44922 82.6276 9.58984 82.4375 9.87109C82.2474 10.1497 82.1523 10.5026 82.1523 10.9297V13H81.457V8.90234H82.1523V9.71484H82.168C82.2617 9.42578 82.4036 9.20703 82.5938 9.05859C82.7865 8.90755 83.0091 8.83203 83.2617 8.83203C83.3424 8.83203 83.4115 8.83594 83.4688 8.84375C83.5286 8.85156 83.5833 8.86328 83.6328 8.87891L83.5234 9.49609ZM84.7578 8.03516C84.6198 8.03516 84.5052 7.98958 84.4141 7.89844C84.3229 7.80729 84.2773 7.69661 84.2773 7.56641C84.2773 7.43099 84.3229 7.31901 84.4141 7.23047C84.5052 7.13932 84.6198 7.09375 84.7578 7.09375C84.8958 7.09375 85.0104 7.13932 85.1016 7.23047C85.1953 7.31901 85.2422 7.43099 85.2422 7.56641C85.2422 7.69661 85.1953 7.80729 85.1016 7.89844C85.0104 7.98958 84.8958 8.03516 84.7578 8.03516ZM85.0977 13H84.4023V8.90234H85.0977V13Z" fill="black" fill-opacity="0.8956"/>
<path d="M39.8989 25H38.4009V19.1094C38.4009 18.627 38.4305 18.0366 38.4897 17.3384H38.4644C38.3713 17.7362 38.2887 18.0218 38.2168 18.1953L35.5 25H34.459L31.7358 18.2461C31.6597 18.0472 31.5793 17.7446 31.4946 17.3384H31.4692C31.5031 17.7023 31.52 18.2969 31.52 19.1221V25H30.1235V15.8975H32.25L34.6431 21.9595C34.825 22.425 34.9435 22.772 34.9985 23.0005H35.0303C35.1868 22.5223 35.3138 22.1668 35.4111 21.9341L37.8486 15.8975H39.8989V25ZM42.5286 17.1353C42.2874 17.1353 42.0801 17.057 41.9066 16.9004C41.7373 16.7438 41.6527 16.5449 41.6527 16.3037C41.6527 16.0625 41.7373 15.8615 41.9066 15.7007C42.0801 15.5399 42.2874 15.4595 42.5286 15.4595C42.7783 15.4595 42.9899 15.5399 43.1634 15.7007C43.3369 15.8615 43.4237 16.0625 43.4237 16.3037C43.4237 16.5322 43.3369 16.729 43.1634 16.894C42.9899 17.0549 42.7783 17.1353 42.5286 17.1353ZM43.2586 25H41.786V18.5H43.2586V25ZM49.6461 24.7017C49.1256 25.0021 48.5099 25.1523 47.799 25.1523C46.8341 25.1523 46.0555 24.8519 45.463 24.251C44.8706 23.6458 44.5744 22.863 44.5744 21.9023C44.5744 20.8317 44.8917 19.9727 45.5265 19.3252C46.1655 18.6735 47.0182 18.3477 48.0846 18.3477C48.6771 18.3477 49.1997 18.4513 49.6525 18.6587V20.0298C49.1997 19.6912 48.7173 19.522 48.2052 19.522C47.5831 19.522 47.0732 19.7336 46.6754 20.1567C46.2776 20.5757 46.0787 21.1258 46.0787 21.8071C46.0787 22.48 46.2649 23.0111 46.6373 23.4004C47.014 23.7897 47.5176 23.9844 48.1481 23.9844C48.6771 23.9844 49.1764 23.7961 49.6461 23.4194V24.7017ZM54.688 19.9028C54.5102 19.7632 54.2542 19.6934 53.9199 19.6934C53.484 19.6934 53.1201 19.8901 52.8281 20.2837C52.5361 20.6772 52.3901 21.2126 52.3901 21.8896V25H50.9174V18.5H52.3901V19.8394H52.4155C52.5594 19.3823 52.7794 19.0269 53.0756 18.7729C53.3761 18.5148 53.7104 18.3857 54.0786 18.3857C54.3452 18.3857 54.5483 18.4259 54.688 18.5063V19.9028ZM58.3015 25.1523C57.2986 25.1523 56.4967 24.8498 55.8958 24.2446C55.2991 23.6353 55.0008 22.8291 55.0008 21.8262C55.0008 20.7344 55.3118 19.8817 55.9339 19.2681C56.5602 18.6545 57.4023 18.3477 58.4602 18.3477C59.4759 18.3477 60.2672 18.646 60.8343 19.2427C61.4013 19.8394 61.6848 20.6667 61.6848 21.7246C61.6848 22.7614 61.378 23.5929 60.7644 24.2192C60.1551 24.8413 59.3341 25.1523 58.3015 25.1523ZM58.3714 19.522C57.7958 19.522 57.3409 19.723 57.0066 20.125C56.6723 20.527 56.5052 21.0814 56.5052 21.7881C56.5052 22.4694 56.6744 23.0068 57.013 23.4004C57.3515 23.7897 57.8043 23.9844 58.3714 23.9844C58.9511 23.9844 59.3955 23.7918 59.7044 23.4067C60.0175 23.0216 60.1741 22.4736 60.1741 21.7627C60.1741 21.0475 60.0175 20.4953 59.7044 20.106C59.3955 19.7166 58.9511 19.522 58.3714 19.522ZM62.588 24.7969V23.4321C63.1381 23.8511 63.7454 24.0605 64.4098 24.0605C65.2984 24.0605 65.7428 23.7982 65.7428 23.2734C65.7428 23.1253 65.7047 23.0005 65.6285 22.8989C65.5523 22.7931 65.4487 22.7 65.3175 22.6196C65.1905 22.5392 65.0382 22.4673 64.8605 22.4038C64.6869 22.3403 64.4923 22.2684 64.2765 22.188C64.0099 22.0822 63.7687 21.9701 63.5528 21.8516C63.3412 21.7331 63.1635 21.5998 63.0196 21.4517C62.88 21.2993 62.7742 21.1279 62.7022 20.9375C62.6303 20.7471 62.5943 20.5249 62.5943 20.271C62.5943 19.9578 62.6684 19.6828 62.8165 19.4458C62.9646 19.2046 63.1635 19.0036 63.4132 18.8428C63.6629 18.6777 63.9464 18.555 64.2638 18.4746C64.5812 18.39 64.9091 18.3477 65.2477 18.3477C65.8486 18.3477 66.386 18.4386 66.86 18.6206V19.9092C66.4029 19.596 65.8782 19.4395 65.2857 19.4395C65.0995 19.4395 64.9303 19.4585 64.7779 19.4966C64.6298 19.5347 64.5029 19.5876 64.3971 19.6553C64.2913 19.723 64.2088 19.8055 64.1495 19.9028C64.0903 19.9959 64.0606 20.0996 64.0606 20.2139C64.0606 20.3535 64.0903 20.472 64.1495 20.5693C64.2088 20.6667 64.2955 20.7534 64.4098 20.8296C64.5283 20.9015 64.6679 20.9692 64.8287 21.0327C64.9938 21.092 65.1821 21.1576 65.3937 21.2295C65.673 21.3438 65.9226 21.4601 66.1427 21.5786C66.367 21.6971 66.5574 21.8325 66.714 21.9849C66.8705 22.133 66.9911 22.3065 67.0758 22.5054C67.1604 22.7 67.2027 22.9328 67.2027 23.2036C67.2027 23.5337 67.1266 23.8215 66.9742 24.0669C66.8219 24.3123 66.6188 24.5155 66.3648 24.6763C66.1109 24.8371 65.8168 24.9556 65.4825 25.0317C65.1524 25.1121 64.8033 25.1523 64.4352 25.1523C63.7242 25.1523 63.1085 25.0339 62.588 24.7969ZM71.2924 25.1523C70.2895 25.1523 69.4876 24.8498 68.8866 24.2446C68.29 23.6353 67.9916 22.8291 67.9916 21.8262C67.9916 20.7344 68.3027 19.8817 68.9247 19.2681C69.551 18.6545 70.3932 18.3477 71.4511 18.3477C72.4667 18.3477 73.2581 18.646 73.8251 19.2427C74.3922 19.8394 74.6757 20.6667 74.6757 21.7246C74.6757 22.7614 74.3689 23.5929 73.7553 24.2192C73.1459 24.8413 72.325 25.1523 71.2924 25.1523ZM71.3622 19.522C70.7867 19.522 70.3318 19.723 69.9975 20.125C69.6632 20.527 69.496 21.0814 69.496 21.7881C69.496 22.4694 69.6653 23.0068 70.0038 23.4004C70.3424 23.7897 70.7952 23.9844 71.3622 23.9844C71.942 23.9844 72.3863 23.7918 72.6952 23.4067C73.0084 23.0216 73.165 22.4736 73.165 21.7627C73.165 21.0475 73.0084 20.4953 72.6952 20.106C72.3863 19.7166 71.942 19.522 71.3622 19.522ZM79.4446 16.5767C79.2457 16.4624 79.0193 16.4053 78.7654 16.4053C78.0502 16.4053 77.6926 16.8094 77.6926 17.6177V18.5H79.2034V19.6553H77.699V25H76.2263V19.6553H75.1155V18.5H76.2263V17.4463C76.2263 16.7607 76.4506 16.2212 76.8992 15.8276C77.3477 15.4299 77.9084 15.231 78.5813 15.231C78.9452 15.231 79.233 15.2712 79.4446 15.3516V16.5767ZM83.7247 24.9302C83.4369 25.0741 83.0582 25.146 82.5884 25.146C81.3274 25.146 80.6968 24.5409 80.6968 23.3306V19.6553H79.6114V18.5H80.6968V16.9956L82.1695 16.5767V18.5H83.7247V19.6553H82.1695V22.9053C82.1695 23.2904 82.2393 23.5654 82.379 23.7305C82.5186 23.8955 82.7514 23.978 83.0772 23.978C83.3269 23.978 83.5427 23.9061 83.7247 23.7622V24.9302ZM90.4677 25H88.995V23.9717H88.9696C88.5422 24.7588 87.8778 25.1523 86.9764 25.1523C85.4403 25.1523 84.6722 24.2298 84.6722 22.3848V18.5H86.1449V22.2324C86.1449 23.4004 86.5956 23.9844 87.497 23.9844C87.9328 23.9844 88.2904 23.8236 88.5697 23.502C88.8532 23.1803 88.995 22.7593 88.995 22.2388V18.5H90.4677V25Z" fill="black" fill-opacity="0.8956"/>
<rect x="0.5" y="0.5" width="98" height="31" rx="3.5" stroke="url(#paint0_linear_1639_29920)"/>
<defs>
<linearGradient id="paint0_linear_1639_29920" x1="49.5" y1="1" x2="49.5" y2="31" gradientUnits="userSpaceOnUse">
<stop offset="0.905762" stop-opacity="0.0578"/>
<stop offset="1" stop-opacity="0.1622"/>
</linearGradient>
</defs>
</svg>
