<svg width="129" height="32" viewBox="0 0 129 32" fill="none" xmlns="http://www.w3.org/2000/svg">
<rect x="0.5" y="0.5" width="128" height="31" rx="3.5" fill="white" fill-opacity="0.7"/>
<path d="M15.5559 7H7V15.5608H15.5559V7Z" fill="#F25022"/>
<path d="M25.0001 7H16.4442V15.5608H25.0001V7Z" fill="#7FBA00"/>
<path d="M15.5559 16.4395H7V25.0002H15.5559V16.4395Z" fill="#00A4EF"/>
<path d="M25.0002 16.4395H16.4443V25.0002H25.0002V16.4395Z" fill="#FFB900"/>
<path d="M30.4766 10.9648V13H29.7656V7.39844H31.3438C31.9531 7.39844 32.4232 7.54688 32.7539 7.84375C33.0872 8.14062 33.2539 8.5638 33.2539 9.11328C33.2539 9.65755 33.069 10.1029 32.6992 10.4492C32.3294 10.793 31.8307 10.9648 31.2031 10.9648H30.4766ZM30.4766 8.02734V10.3359H31.1484C31.5885 10.3359 31.9245 10.2331 32.1562 10.0273C32.388 9.82161 32.5039 9.52865 32.5039 9.14844C32.5039 8.77344 32.3971 8.49349 32.1836 8.30859C31.9701 8.12109 31.6484 8.02734 31.2188 8.02734H30.4766ZM36.3438 9.49609C36.2917 9.48047 36.2435 9.46875 36.1992 9.46094C36.1549 9.45312 36.1016 9.44922 36.0391 9.44922C35.7083 9.44922 35.4479 9.58984 35.2578 9.87109C35.0677 10.1497 34.9727 10.5026 34.9727 10.9297V13H34.2773V8.90234H34.9727V9.71484H34.9883C35.082 9.42578 35.224 9.20703 35.4141 9.05859C35.6068 8.90755 35.8294 8.83203 36.082 8.83203C36.1628 8.83203 36.2318 8.83594 36.2891 8.84375C36.349 8.85156 36.4036 8.86328 36.4531 8.87891L36.3438 9.49609ZM40.5469 11.1094H37.6641C37.6771 11.5625 37.7982 11.9115 38.0273 12.1562C38.2565 12.3984 38.5781 12.5195 38.9922 12.5195C39.1719 12.5195 39.3555 12.4922 39.543 12.4375C39.7331 12.3802 39.9232 12.2878 40.1133 12.1602L40.4297 12.6445C40.1927 12.8008 39.9544 12.9154 39.7148 12.9883C39.4753 13.0612 39.2122 13.0977 38.9258 13.0977C38.306 13.0977 37.8229 12.9141 37.4766 12.5469C37.1302 12.1771 36.9557 11.6615 36.9531 11C36.9505 10.3411 37.125 9.8112 37.4766 9.41016C37.8307 9.00651 38.2891 8.80469 38.8516 8.80469C39.388 8.80469 39.8047 8.97917 40.1016 9.32812C40.3984 9.67448 40.5469 10.1576 40.5469 10.7773V11.1094ZM39.8477 10.5625C39.8451 10.1849 39.7539 9.89193 39.5742 9.68359C39.3971 9.47526 39.1523 9.37109 38.8398 9.37109C38.5326 9.37109 38.2721 9.47917 38.0586 9.69531C37.8477 9.90885 37.7188 10.1979 37.6719 10.5625H39.8477ZM44.9297 13H44.2344V12.3477H44.2188C44.0807 12.5977 43.9049 12.7852 43.6914 12.9102C43.4805 13.0352 43.2331 13.0977 42.9492 13.0977C42.4622 13.0977 42.0964 12.9518 41.8516 12.6602C41.6094 12.3685 41.4883 11.9323 41.4883 11.3516V8.90234H42.1836V11.2461C42.1836 11.6706 42.2643 11.9896 42.4258 12.2031C42.5872 12.4141 42.8307 12.5195 43.1562 12.5195C43.4714 12.5195 43.7292 12.4036 43.9297 12.1719C44.1328 11.9401 44.2344 11.6354 44.2344 11.2578V8.90234H44.9297V13ZM49.1758 9.125L46.7773 12.418H49.1523V13H45.7656V12.7734L48.1758 9.48438H45.9922V8.90234H49.1758V9.125ZM55.9414 13H55.2422V10.6445C55.2422 10.1992 55.1732 9.8776 55.0352 9.67969C54.8971 9.48177 54.6667 9.38281 54.3438 9.38281C54.0677 9.38281 53.8333 9.50781 53.6406 9.75781C53.4505 10.0078 53.3555 10.3099 53.3555 10.6641V13H52.6602V10.5703C52.6602 10.1745 52.5833 9.8776 52.4297 9.67969C52.2786 9.48177 52.0508 9.38281 51.7461 9.38281C51.4622 9.38281 51.2279 9.5013 51.043 9.73828C50.8607 9.97526 50.7695 10.2852 50.7695 10.668V13H50.0742V8.90234H50.7695V9.55078H50.7852C50.931 9.30339 51.1107 9.11719 51.3242 8.99219C51.5378 8.86719 51.7839 8.80469 52.0625 8.80469C52.3438 8.80469 52.5872 8.88151 52.793 9.03516C53.0013 9.1888 53.1458 9.39323 53.2266 9.64844C53.3776 9.36719 53.5664 9.15625 53.793 9.01562C54.0221 8.875 54.2865 8.80469 54.5859 8.80469C55.0365 8.80469 55.375 8.94401 55.6016 9.22266C55.8281 9.4987 55.9414 9.91536 55.9414 10.4727V13ZM57.5625 8.03516C57.4245 8.03516 57.3099 7.98958 57.2188 7.89844C57.1276 7.80729 57.082 7.69661 57.082 7.56641C57.082 7.43099 57.1276 7.31901 57.2188 7.23047C57.3099 7.13932 57.4245 7.09375 57.5625 7.09375C57.7005 7.09375 57.8151 7.13932 57.9062 7.23047C58 7.31901 58.0469 7.43099 58.0469 7.56641C58.0469 7.69661 58 7.80729 57.9062 7.89844C57.8151 7.98958 57.7005 8.03516 57.5625 8.03516ZM57.9023 13H57.207V8.90234H57.9023V13ZM61.3086 12.9492C61.1966 12.9961 61.0846 13.0299 60.9727 13.0508C60.8633 13.0742 60.7396 13.0859 60.6016 13.0859C60.2656 13.0859 60.0026 12.9896 59.8125 12.7969C59.625 12.6042 59.5312 12.319 59.5312 11.9414V9.48047H58.832V8.90234H59.5312V7.96484L60.2305 7.74219V8.90234H61.2539V9.48047H60.2305V11.8672C60.2305 12.099 60.2721 12.2656 60.3555 12.3672C60.4388 12.4688 60.5638 12.5195 60.7305 12.5195C60.8086 12.5195 60.8841 12.5104 60.957 12.4922C61.0299 12.474 61.0924 12.4518 61.1445 12.4258L61.3086 12.9492ZM65.5078 11.1094H62.625C62.638 11.5625 62.7591 11.9115 62.9883 12.1562C63.2174 12.3984 63.5391 12.5195 63.9531 12.5195C64.1328 12.5195 64.3164 12.4922 64.5039 12.4375C64.694 12.3802 64.8841 12.2878 65.0742 12.1602L65.3906 12.6445C65.1536 12.8008 64.9154 12.9154 64.6758 12.9883C64.4362 13.0612 64.1732 13.0977 63.8867 13.0977C63.2669 13.0977 62.7839 12.9141 62.4375 12.5469C62.0911 12.1771 61.9167 11.6615 61.9141 11C61.9115 10.3411 62.0859 9.8112 62.4375 9.41016C62.7917 9.00651 63.25 8.80469 63.8125 8.80469C64.349 8.80469 64.7656 8.97917 65.0625 9.32812C65.3594 9.67448 65.5078 10.1576 65.5078 10.7773V11.1094ZM64.8086 10.5625C64.806 10.1849 64.7148 9.89193 64.5352 9.68359C64.3581 9.47526 64.1133 9.37109 63.8008 9.37109C63.4935 9.37109 63.2331 9.47917 63.0195 9.69531C62.8086 9.90885 62.6797 10.1979 62.6328 10.5625H64.8086ZM70.4688 13.0977C69.8568 13.0977 69.3685 12.9062 69.0039 12.5234C68.6419 12.138 68.4609 11.6276 68.4609 10.9922C68.4609 10.3073 68.6484 9.77214 69.0234 9.38672C69.3984 9.0013 69.9102 8.80729 70.5586 8.80469C71.1732 8.80208 71.6536 8.99089 72 9.37109C72.349 9.7487 72.5234 10.2682 72.5234 10.9297C72.5234 11.5885 72.3372 12.1146 71.9648 12.5078C71.5924 12.901 71.0938 13.0977 70.4688 13.0977ZM70.5156 12.5195C70.9323 12.5195 71.2513 12.3841 71.4727 12.1133C71.6966 11.8398 71.8086 11.4531 71.8086 10.9531C71.8086 10.4479 71.6966 10.0599 71.4727 9.78906C71.2487 9.51823 70.9297 9.38281 70.5156 9.38281C70.1016 9.38281 69.7734 9.52474 69.5312 9.80859C69.2917 10.0898 69.1719 10.4779 69.1719 10.9727C69.1719 11.4544 69.293 11.8333 69.5352 12.1094C69.7773 12.3828 70.1042 12.5195 70.5156 12.5195ZM76.4336 12.3125C76.2826 12.5729 76.0898 12.7695 75.8555 12.9023C75.6237 13.0326 75.3503 13.0977 75.0352 13.0977C74.5195 13.0977 74.1068 12.9141 73.7969 12.5469C73.4896 12.1797 73.3359 11.6797 73.3359 11.0469C73.3359 10.3672 73.5065 9.82422 73.8477 9.41797C74.1888 9.00911 74.6432 8.80469 75.2109 8.80469C75.4922 8.80469 75.7344 8.85938 75.9375 8.96875C76.1406 9.07812 76.306 9.24349 76.4336 9.46484H76.4492V7.07812H77.1445V13H76.4492V12.3125H76.4336ZM74.0469 11.0117C74.0469 11.4805 74.1549 11.849 74.3711 12.1172C74.5872 12.3854 74.8763 12.5195 75.2383 12.5195C75.6029 12.5195 75.8958 12.3893 76.1172 12.1289C76.3385 11.8685 76.4492 11.5391 76.4492 11.1406V10.5547C76.4492 10.2266 76.3411 9.94922 76.125 9.72266C75.9115 9.49609 75.6406 9.38281 75.3125 9.38281C74.9193 9.38281 74.6094 9.52734 74.3828 9.81641C74.1589 10.1055 74.0469 10.5039 74.0469 11.0117ZM84.1289 13H83.1758L81.4023 11.0234H81.3867V13H80.6914V7.07812H81.3867V10.7812H81.4023L83.0859 8.90234H83.9844L82.1211 10.875L84.1289 13ZM86.5859 13.0977C85.974 13.0977 85.4857 12.9062 85.1211 12.5234C84.7591 12.138 84.5781 11.6276 84.5781 10.9922C84.5781 10.3073 84.7656 9.77214 85.1406 9.38672C85.5156 9.0013 86.0273 8.80729 86.6758 8.80469C87.2904 8.80208 87.7708 8.99089 88.1172 9.37109C88.4661 9.7487 88.6406 10.2682 88.6406 10.9297C88.6406 11.5885 88.4544 12.1146 88.082 12.5078C87.7096 12.901 87.2109 13.0977 86.5859 13.0977ZM86.6328 12.5195C87.0495 12.5195 87.3685 12.3841 87.5898 12.1133C87.8138 11.8398 87.9258 11.4531 87.9258 10.9531C87.9258 10.4479 87.8138 10.0599 87.5898 9.78906C87.3659 9.51823 87.0469 9.38281 86.6328 9.38281C86.2188 9.38281 85.8906 9.52474 85.6484 9.80859C85.4089 10.0898 85.2891 10.4779 85.2891 10.9727C85.2891 11.4544 85.4102 11.8333 85.6523 12.1094C85.8945 12.3828 86.2214 12.5195 86.6328 12.5195ZM91.7891 9.49609C91.737 9.48047 91.6888 9.46875 91.6445 9.46094C91.6003 9.45312 91.5469 9.44922 91.4844 9.44922C91.1536 9.44922 90.8932 9.58984 90.7031 9.87109C90.513 10.1497 90.418 10.5026 90.418 10.9297V13H89.7227V8.90234H90.418V9.71484H90.4336C90.5273 9.42578 90.6693 9.20703 90.8594 9.05859C91.0521 8.90755 91.2747 8.83203 91.5273 8.83203C91.6081 8.83203 91.6771 8.83594 91.7344 8.84375C91.7943 8.85156 91.849 8.86328 91.8984 8.87891L91.7891 9.49609ZM93.3789 12.4102H93.3633V14.8398H92.668V8.90234H93.3633V9.61719H93.3789C93.5404 9.34635 93.7396 9.14323 93.9766 9.00781C94.2135 8.8724 94.4857 8.80469 94.793 8.80469C95.3216 8.80469 95.7331 8.98828 96.0273 9.35547C96.3242 9.72266 96.4727 10.2135 96.4727 10.8281C96.4727 11.5156 96.3047 12.0664 95.9688 12.4805C95.6354 12.8919 95.181 13.0977 94.6055 13.0977C94.3398 13.0977 94.1042 13.0404 93.8984 12.9258C93.6953 12.8112 93.5221 12.6393 93.3789 12.4102ZM93.3594 10.7617V11.3086C93.3594 11.6471 93.4674 11.9336 93.6836 12.168C93.8997 12.4023 94.1758 12.5195 94.5117 12.5195C94.8997 12.5195 95.2044 12.3698 95.4258 12.0703C95.6471 11.7708 95.7578 11.3542 95.7578 10.8203C95.7578 10.3698 95.6549 10.0182 95.4492 9.76562C95.2435 9.51042 94.9635 9.38281 94.6094 9.38281C94.2318 9.38281 93.9284 9.51432 93.6992 9.77734C93.4727 10.0378 93.3594 10.3659 93.3594 10.7617ZM99.2891 13.0977C98.6771 13.0977 98.1888 12.9062 97.8242 12.5234C97.4622 12.138 97.2812 11.6276 97.2812 10.9922C97.2812 10.3073 97.4688 9.77214 97.8438 9.38672C98.2188 9.0013 98.7305 8.80729 99.3789 8.80469C99.9935 8.80208 100.474 8.99089 100.82 9.37109C101.169 9.7487 101.344 10.2682 101.344 10.9297C101.344 11.5885 101.158 12.1146 100.785 12.5078C100.413 12.901 99.9141 13.0977 99.2891 13.0977ZM99.3359 12.5195C99.7526 12.5195 100.072 12.3841 100.293 12.1133C100.517 11.8398 100.629 11.4531 100.629 10.9531C100.629 10.4479 100.517 10.0599 100.293 9.78906C100.069 9.51823 99.75 9.38281 99.3359 9.38281C98.9219 9.38281 98.5938 9.52474 98.3516 9.80859C98.112 10.0898 97.9922 10.4779 97.9922 10.9727C97.9922 11.4544 98.1133 11.8333 98.3555 12.1094C98.5977 12.3828 98.9245 12.5195 99.3359 12.5195ZM104.492 9.49609C104.44 9.48047 104.392 9.46875 104.348 9.46094C104.303 9.45312 104.25 9.44922 104.188 9.44922C103.857 9.44922 103.596 9.58984 103.406 9.87109C103.216 10.1497 103.121 10.5026 103.121 10.9297V13H102.426V8.90234H103.121V9.71484H103.137C103.23 9.42578 103.372 9.20703 103.562 9.05859C103.755 8.90755 103.978 8.83203 104.23 8.83203C104.311 8.83203 104.38 8.83594 104.438 8.84375C104.497 8.85156 104.552 8.86328 104.602 8.87891L104.492 9.49609ZM108.32 13H107.629V12.3555H107.613C107.473 12.6003 107.298 12.7852 107.09 12.9102C106.882 13.0352 106.639 13.0977 106.363 13.0977C105.978 13.0977 105.667 12.9857 105.43 12.7617C105.193 12.5378 105.074 12.2422 105.074 11.875C105.074 11.5182 105.194 11.2253 105.434 10.9961C105.673 10.7669 106.018 10.6198 106.469 10.5547L107.633 10.3984V10.3047C107.633 9.97396 107.553 9.73568 107.395 9.58984C107.238 9.44401 107.027 9.37109 106.762 9.37109C106.551 9.37109 106.345 9.41146 106.145 9.49219C105.944 9.57292 105.754 9.69401 105.574 9.85547L105.195 9.43359C105.427 9.22005 105.674 9.0625 105.938 8.96094C106.203 8.85677 106.493 8.80469 106.809 8.80469C107.309 8.80469 107.685 8.93359 107.938 9.19141C108.193 9.44922 108.32 9.83594 108.32 10.3516V13ZM107.633 11.3281V10.9336L106.656 11.0664C106.357 11.1081 106.133 11.1836 105.984 11.293C105.836 11.4023 105.762 11.5742 105.762 11.8086C105.762 12.0404 105.831 12.2201 105.969 12.3477C106.109 12.4753 106.284 12.5391 106.492 12.5391C106.836 12.5391 107.112 12.4258 107.32 12.1992C107.529 11.9701 107.633 11.6797 107.633 11.3281ZM112.547 12.7422C112.352 12.8672 112.156 12.957 111.961 13.0117C111.766 13.069 111.556 13.0977 111.332 13.0977C110.746 13.0977 110.268 12.918 109.898 12.5586C109.529 12.1966 109.344 11.6914 109.344 11.043C109.344 10.3711 109.531 9.83073 109.906 9.42188C110.284 9.01042 110.799 8.80469 111.453 8.80469C111.664 8.80469 111.865 8.83073 112.055 8.88281C112.245 8.93229 112.436 9.01302 112.629 9.125L112.336 9.63281C112.188 9.54427 112.042 9.48177 111.898 9.44531C111.755 9.40625 111.602 9.38672 111.438 9.38672C110.992 9.38672 110.65 9.53516 110.41 9.83203C110.173 10.1263 110.055 10.5052 110.055 10.9688C110.055 11.4688 110.178 11.8516 110.426 12.1172C110.676 12.3828 110.997 12.5156 111.391 12.5156C111.523 12.5156 111.66 12.4961 111.801 12.457C111.944 12.4154 112.091 12.3464 112.242 12.25L112.547 12.7422ZM113.852 8.03516C113.714 8.03516 113.599 7.98958 113.508 7.89844C113.417 7.80729 113.371 7.69661 113.371 7.56641C113.371 7.43099 113.417 7.31901 113.508 7.23047C113.599 7.13932 113.714 7.09375 113.852 7.09375C113.99 7.09375 114.104 7.13932 114.195 7.23047C114.289 7.31901 114.336 7.43099 114.336 7.56641C114.336 7.69661 114.289 7.80729 114.195 7.89844C114.104 7.98958 113.99 8.03516 113.852 8.03516ZM114.191 13H113.496V8.90234H114.191V13ZM115.949 8.03516C115.811 8.03516 115.695 7.98958 115.602 7.89844C115.51 7.80729 115.465 7.69661 115.465 7.56641C115.465 7.43359 115.51 7.32161 115.602 7.23047C115.695 7.13932 115.811 7.09375 115.949 7.09375C116.085 7.09375 116.198 7.13932 116.289 7.23047C116.383 7.32161 116.43 7.43359 116.43 7.56641C116.43 7.69661 116.383 7.80729 116.289 7.89844C116.198 7.98958 116.085 8.03516 115.949 8.03516ZM116.281 13.1328C116.281 13.7474 116.165 14.1927 115.934 14.4688C115.702 14.7448 115.352 14.8828 114.883 14.8828C114.776 14.8828 114.677 14.875 114.586 14.8594C114.492 14.8464 114.395 14.8242 114.293 14.793L114.441 14.2148C114.522 14.2435 114.596 14.2643 114.664 14.2773C114.732 14.2904 114.802 14.2969 114.875 14.2969C115.135 14.2969 115.319 14.2096 115.426 14.0352C115.533 13.8633 115.586 13.5768 115.586 13.1758V8.90234H116.281V13.1328ZM121.008 11.1094H118.125C118.138 11.5625 118.259 11.9115 118.488 12.1562C118.717 12.3984 119.039 12.5195 119.453 12.5195C119.633 12.5195 119.816 12.4922 120.004 12.4375C120.194 12.3802 120.384 12.2878 120.574 12.1602L120.891 12.6445C120.654 12.8008 120.415 12.9154 120.176 12.9883C119.936 13.0612 119.673 13.0977 119.387 13.0977C118.767 13.0977 118.284 12.9141 117.938 12.5469C117.591 12.1771 117.417 11.6615 117.414 11C117.411 10.3411 117.586 9.8112 117.938 9.41016C118.292 9.00651 118.75 8.80469 119.312 8.80469C119.849 8.80469 120.266 8.97917 120.562 9.32812C120.859 9.67448 121.008 10.1576 121.008 10.7773V11.1094ZM120.309 10.5625C120.306 10.1849 120.215 9.89193 120.035 9.68359C119.858 9.47526 119.613 9.37109 119.301 9.37109C118.993 9.37109 118.733 9.47917 118.52 9.69531C118.309 9.90885 118.18 10.1979 118.133 10.5625H120.309Z" fill="black" fill-opacity="0.8956"/>
<path d="M41.1489 16.6123C41.1489 16.3559 41.2412 16.1507 41.4259 15.9764C41.6105 15.802 41.8258 15.72 42.0823 15.72C42.3489 15.72 42.5746 15.8123 42.7489 15.9866C42.9233 16.161 43.0156 16.3764 43.0156 16.6123C43.0156 16.8584 42.9233 17.0738 42.7387 17.2379C42.5541 17.4123 42.3387 17.4943 42.072 17.4943C41.8053 17.4943 41.59 17.4123 41.4053 17.2379C41.2412 17.0636 41.1489 16.8584 41.1489 16.6123ZM42.8412 25.002H41.313V18.4892H42.8412V25.002Z" fill="black" fill-opacity="0.8956"/>
<path d="M47.4975 23.8888C47.7231 23.8888 47.9795 23.8375 48.2565 23.735C48.5334 23.6324 48.7795 23.4888 49.0154 23.3144V24.7401C48.7693 24.8837 48.4924 24.9862 48.1847 25.058C47.877 25.1298 47.5282 25.1709 47.159 25.1709C46.2052 25.1709 45.4257 24.8632 44.8205 24.258C44.2154 23.6529 43.918 22.8734 43.918 21.9401C43.918 20.8939 44.2257 20.0324 44.8411 19.3555C45.4564 18.6785 46.318 18.3401 47.4462 18.3401C47.7334 18.3401 48.0206 18.3811 48.318 18.4529C48.6154 18.5247 48.8411 18.617 49.0154 18.7093V20.176C48.7795 20.0016 48.5334 19.8683 48.2872 19.776C48.0411 19.6837 47.7847 19.6324 47.5282 19.6324C46.9231 19.6324 46.4411 19.8273 46.0616 20.217C45.6923 20.6068 45.5077 21.1401 45.5077 21.8068C45.5077 22.4632 45.6821 22.976 46.0411 23.3452C46.4 23.7144 46.8821 23.8888 47.4975 23.8888Z" fill="black" fill-opacity="0.8956"/>
<path d="M53.3738 18.3899C53.4969 18.3899 53.6097 18.4001 53.702 18.4104C53.7943 18.4309 53.8866 18.4514 53.9482 18.4719V20.0207C53.8661 19.9591 53.7533 19.9078 53.5995 19.8566C53.4456 19.8053 53.261 19.7745 53.0354 19.7745C52.6559 19.7745 52.3379 19.9284 52.0815 20.2463C51.8251 20.5643 51.6918 21.0463 51.6918 21.713V25.0053H50.1636V18.4925H51.6918V19.5181H51.7123C51.8559 19.1591 52.061 18.8822 52.3482 18.6873C52.6354 18.4925 52.9738 18.3899 53.3738 18.3899Z" fill="black" fill-opacity="0.8956"/>
<path d="M54.0308 21.8478C54.0308 20.7709 54.3385 19.9196 54.9436 19.2837C55.5487 18.658 56.4 18.3401 57.4769 18.3401C58.4923 18.3401 59.2923 18.6478 59.8667 19.2529C60.441 19.858 60.7282 20.6785 60.7282 21.7042C60.7282 22.7606 60.4205 23.6016 59.8154 24.2273C59.2102 24.8529 58.3795 25.1606 57.3333 25.1606C56.3282 25.1606 55.5179 24.8632 54.9333 24.2683C54.3282 23.6837 54.0308 22.8734 54.0308 21.8478ZM55.6308 21.7965C55.6308 22.4734 55.7846 22.9965 56.0923 23.3555C56.4 23.7144 56.841 23.8888 57.4154 23.8888C57.9692 23.8888 58.4 23.7144 58.6872 23.3555C58.9743 22.9965 59.1282 22.4632 59.1282 21.7555C59.1282 21.058 58.9743 20.5247 58.6769 20.1657C58.3795 19.8068 57.9487 19.6324 57.4051 19.6324C56.841 19.6324 56.4102 19.817 56.0923 20.1965C55.7846 20.576 55.6308 21.0991 55.6308 21.7965Z" fill="black" fill-opacity="0.8956"/>
<path d="M63.0053 20.207C63.0053 20.4224 63.0771 20.5967 63.2104 20.7198C63.354 20.8429 63.6617 20.9968 64.1335 21.1916C64.7489 21.4378 65.1796 21.7147 65.4258 22.0224C65.6719 22.3301 65.795 22.6993 65.795 23.1301C65.795 23.7455 65.5591 24.2378 65.0873 24.607C64.6155 24.9762 63.9796 25.1609 63.1796 25.1609C62.913 25.1609 62.6155 25.1301 62.2873 25.0583C61.9591 24.9968 61.6822 24.9045 61.4565 24.8121V23.3044C61.7335 23.4993 62.0309 23.6532 62.3591 23.766C62.6771 23.8788 62.9745 23.9403 63.2309 23.9403C63.5796 23.9403 63.836 23.8891 64.0001 23.7968C64.1642 23.7044 64.2463 23.5403 64.2463 23.3044C64.2463 23.0891 64.1642 22.9147 63.9899 22.7711C63.8155 22.6275 63.4976 22.4532 63.0155 22.2685C62.4514 22.0327 62.0514 21.766 61.8155 21.4685C61.5796 21.1711 61.4565 20.7916 61.4565 20.3403C61.4565 19.7557 61.6924 19.2737 62.154 18.8942C62.6155 18.5147 63.2206 18.3301 63.9694 18.3301C64.195 18.3301 64.4514 18.3506 64.7386 18.4019C65.0258 18.4532 65.2617 18.5147 65.4463 18.5967V20.0532C65.2412 19.9198 65.0053 19.807 64.7386 19.7044C64.4719 19.6121 64.195 19.5608 63.9386 19.5608C63.6514 19.5608 63.4155 19.6224 63.2617 19.7352C63.0873 19.848 63.0053 20.0121 63.0053 20.207Z" fill="black" fill-opacity="0.8956"/>
<path d="M66.4717 21.8478C66.4717 20.7709 66.7794 19.9196 67.3845 19.2837C67.9896 18.658 68.8409 18.3401 69.9178 18.3401C70.9332 18.3401 71.7332 18.6478 72.3076 19.2529C72.8819 19.858 73.1691 20.6785 73.1691 21.7042C73.1691 22.7606 72.8614 23.6016 72.2563 24.2273C71.6512 24.8529 70.8204 25.1606 69.7742 25.1606C68.7691 25.1606 67.9589 24.8632 67.3742 24.2683C66.7691 23.6837 66.4717 22.8734 66.4717 21.8478ZM68.0614 21.7965C68.0614 22.4734 68.2153 22.9965 68.523 23.3555C68.8307 23.7144 69.2717 23.8888 69.846 23.8888C70.3999 23.8888 70.8307 23.7144 71.1178 23.3555C71.405 22.9965 71.5589 22.4632 71.5589 21.7555C71.5589 21.058 71.405 20.5247 71.1076 20.1657C70.8101 19.8068 70.3794 19.6324 69.8358 19.6324C69.2717 19.6324 68.8409 19.817 68.523 20.1965C68.2153 20.576 68.0614 21.0991 68.0614 21.7965Z" fill="black" fill-opacity="0.8956"/>
<path d="M78.2258 19.7523V23.0959C78.2258 23.7933 78.3899 24.3062 78.7079 24.6549C79.0258 25.0036 79.5181 25.1677 80.1643 25.1677C80.3797 25.1677 80.6053 25.1472 80.8309 25.0959C81.0566 25.0446 81.2207 25.0036 81.313 24.9421V23.6703C81.2207 23.7318 81.1079 23.7831 80.9848 23.8241C80.8617 23.8651 80.7489 23.8857 80.6668 23.8857C80.3591 23.8857 80.1232 23.8036 79.9797 23.6395C79.8361 23.4754 79.7643 23.1882 79.7643 22.7882V19.7421H81.3232V18.4908H79.7745V16.5626L78.2361 17.0344V18.501H75.9489V17.7113C75.9489 17.3215 76.0309 17.0241 76.2053 16.819C76.3796 16.6139 76.6258 16.5215 76.9438 16.5215C77.1079 16.5215 77.2514 16.5421 77.3848 16.5831C77.5079 16.6241 77.6002 16.6651 77.6514 16.6959V15.3728C77.5386 15.3318 77.4155 15.3113 77.272 15.2908C77.1284 15.2703 76.9643 15.26 76.7797 15.26C76.0822 15.26 75.5079 15.4754 75.0668 15.9164C74.6258 16.3574 74.4002 16.9113 74.4002 17.5985V18.501H73.313V19.7523H74.4002V25.0139H75.9489V19.7523H78.2258V19.7523Z" fill="black" fill-opacity="0.8956"/>
<path d="M39.8359 15.9199V25.0071H38.2564V17.8892H38.2359L35.4154 25.0071H34.3692L31.4769 17.8892H31.4564V25.0071H30V15.9199H32.2564L34.8718 22.6584H34.9128L37.6718 15.9199H39.8359Z" fill="black" fill-opacity="0.8956"/>
<rect x="0.5" y="0.5" width="128" height="31" rx="3.5" stroke="url(#paint0_linear_1602_28106)"/>
<defs>
<linearGradient id="paint0_linear_1602_28106" x1="64.5" y1="1" x2="64.5" y2="31" gradientUnits="userSpaceOnUse">
<stop offset="0.905762" stop-opacity="0.0578"/>
<stop offset="1" stop-opacity="0.1622"/>
</linearGradient>
</defs>
</svg>
