<svg width="118" height="34" viewBox="0 0 118 34" fill="none" xmlns="http://www.w3.org/2000/svg">
<rect x="1" y="1" width="116" height="32" rx="4" fill="#FDFDFD"/>
<rect x="0.5" y="0.5" width="117" height="33" rx="4.5" stroke="black" stroke-opacity="0.0578"/>
<g clip-path="url(#clip0_976_1891)">
<g clip-path="url(#clip1_976_1891)">
<path d="M8.28125 11C8.28125 10.5858 8.61704 10.25 9.03125 10.25H24.9687C25.383 10.25 25.7188 10.5858 25.7188 11V22.3438C25.7188 24.0524 24.3336 25.4375 22.625 25.4375H11.375C9.66637 25.4375 8.28125 24.0524 8.28125 22.3438V11Z" fill="url(#paint0_linear_976_1891)"/>
<mask id="mask0_976_1891" style="mask-type:alpha" maskUnits="userSpaceOnUse" x="8" y="10" width="18" height="16">
<path d="M8.28125 11C8.28125 10.5858 8.61704 10.25 9.03125 10.25H24.9687C25.383 10.25 25.7188 10.5858 25.7188 11V22.3438C25.7188 24.0524 24.3336 25.4375 22.625 25.4375H11.375C9.66637 25.4375 8.28125 24.0524 8.28125 22.3438V11Z" fill="url(#paint1_linear_976_1891)"/>
</mask>
<g mask="url(#mask0_976_1891)">
<g filter="url(#filter0_dd_976_1891)">
<path d="M12.7812 10.8125V8.5625H21.2187V10.8125" stroke="url(#paint2_linear_976_1891)" stroke-width="1.125" stroke-linecap="round"/>
</g>
</g>
<g filter="url(#filter1_dd_976_1891)">
<path d="M16.719 14.1875H13.344V17.5625H16.719V14.1875Z" fill="#F25022"/>
<path d="M20.6562 14.1875H17.2812V17.5625H20.6562V14.1875Z" fill="#7FBA00"/>
<path d="M20.6562 18.125H17.2812V21.5H20.6562V18.125Z" fill="#FFB900"/>
<path d="M16.7188 18.125H13.3438V21.5H16.7188V18.125Z" fill="#00A4EF"/>
</g>
<path d="M12.7812 10.8125V9.125C12.7812 8.81434 13.0331 8.5625 13.3438 8.5625H20.6563C20.9669 8.5625 21.2188 8.81434 21.2188 9.125V10.8125" stroke="url(#paint3_linear_976_1891)" stroke-width="1.125" stroke-linecap="round"/>
<rect x="13.3438" y="8" width="7.3125" height="1.125" fill="url(#paint4_linear_976_1891)"/>
<mask id="mask1_976_1891" style="mask-type:alpha" maskUnits="userSpaceOnUse" x="13" y="8" width="8" height="2">
<rect x="13.3438" y="8" width="7.3125" height="1.125" fill="url(#paint5_linear_976_1891)"/>
</mask>
<g mask="url(#mask1_976_1891)">
<g filter="url(#filter2_dd_976_1891)">
<rect x="11.7189" y="8.56274" width="1.625" height="2.8125" fill="#C4C4C4"/>
</g>
</g>
</g>
</g>
<path d="M39.2275 16H37.96V11.0854C37.96 10.8634 37.9653 10.6217 37.9761 10.3604C37.9904 10.0954 38.0083 9.81429 38.0298 9.51709H37.9976C37.9546 9.72119 37.9134 9.89665 37.874 10.0435C37.8382 10.1867 37.8024 10.3013 37.7666 10.3872L35.5054 16H34.6245L32.3525 10.4355C32.3239 10.3568 32.2881 10.2404 32.2451 10.0864C32.2057 9.93245 32.1628 9.74268 32.1162 9.51709H32.084C32.1055 9.7749 32.1198 10.0488 32.127 10.3389C32.1341 10.6253 32.1377 10.9279 32.1377 11.2466V16H30.9561V8.29785H32.7607L34.7642 13.3037C34.8429 13.4935 34.9074 13.6689 34.9575 13.8301C35.0112 13.9876 35.0524 14.1344 35.0811 14.2705H35.1133C35.1777 14.0664 35.2386 13.882 35.2959 13.7173C35.3532 13.5526 35.4069 13.4093 35.457 13.2876L37.4873 8.29785H39.2275V16ZM41.6177 9.43652C41.3885 9.43652 41.1987 9.36312 41.0483 9.21631C40.8979 9.0695 40.8228 8.88867 40.8228 8.67383C40.8228 8.45182 40.8979 8.26921 41.0483 8.12598C41.1987 7.98275 41.3885 7.91113 41.6177 7.91113C41.8504 7.91113 42.042 7.98275 42.1924 8.12598C42.3428 8.26921 42.418 8.45182 42.418 8.67383C42.418 8.89225 42.3428 9.07487 42.1924 9.22168C42.042 9.36491 41.8504 9.43652 41.6177 9.43652ZM42.2354 16H40.9839V10.5H42.2354V16ZM47.9824 15.6616C47.7103 15.8263 47.4399 15.9445 47.1714 16.0161C46.9028 16.0913 46.611 16.1289 46.2959 16.1289C45.4508 16.1289 44.7741 15.8818 44.2656 15.3877C43.7607 14.8936 43.5083 14.2222 43.5083 13.3735C43.5083 12.4604 43.7697 11.7318 44.2925 11.1875C44.8188 10.6432 45.5278 10.3711 46.4194 10.3711C46.731 10.3711 47.0138 10.4051 47.2681 10.4731C47.5259 10.5376 47.7873 10.645 48.0522 10.7954L47.5635 11.6655C47.3773 11.5617 47.1947 11.4865 47.0156 11.4399C46.8366 11.3898 46.6414 11.3647 46.4302 11.3647C45.9038 11.3647 45.4974 11.5384 45.2109 11.8857C44.9245 12.2331 44.7812 12.6932 44.7812 13.2661C44.7812 13.8677 44.9352 14.3296 45.2432 14.6519C45.5547 14.9741 45.945 15.1353 46.4141 15.1353C46.5573 15.1353 46.722 15.1102 46.9082 15.0601C47.0944 15.0063 47.2824 14.9222 47.4722 14.8076L47.9824 15.6616ZM52.1021 11.5474C52.034 11.5295 51.9678 11.5169 51.9033 11.5098C51.8424 11.499 51.7708 11.4937 51.6885 11.4937C51.2409 11.4937 50.8971 11.6584 50.6572 11.9878C50.4173 12.3172 50.2974 12.7469 50.2974 13.2769V16H49.0459V10.5H50.2974V11.5581H50.3188C50.4478 11.1785 50.6375 10.8921 50.8882 10.6987C51.1388 10.5018 51.4342 10.4033 51.7744 10.4033C51.8711 10.4033 51.957 10.4087 52.0322 10.4194C52.111 10.4302 52.1862 10.4463 52.2578 10.4678L52.1021 11.5474ZM55.5557 16.1289C54.6963 16.1289 54.0142 15.8729 53.5093 15.3608C53.008 14.8452 52.7573 14.1559 52.7573 13.293C52.7609 12.3799 53.0223 11.6655 53.5415 11.1499C54.0607 10.6307 54.7679 10.3711 55.6631 10.3711C56.526 10.3675 57.1992 10.6217 57.6826 11.1338C58.1696 11.6423 58.4131 12.3315 58.4131 13.2017C58.4131 14.0968 58.1553 14.8094 57.6396 15.3394C57.1276 15.8657 56.4329 16.1289 55.5557 16.1289ZM55.6147 15.1353C56.1125 15.1353 56.4902 14.9723 56.748 14.6465C57.0094 14.3206 57.1401 13.8498 57.1401 13.2339C57.1401 12.6252 57.0094 12.1615 56.748 11.8428C56.4867 11.5241 56.1071 11.3647 55.6094 11.3647C55.1188 11.3647 54.7321 11.533 54.4492 11.8696C54.1699 12.2062 54.0303 12.6717 54.0303 13.2661C54.0303 13.8641 54.1699 14.326 54.4492 14.6519C54.7285 14.9741 55.117 15.1353 55.6147 15.1353ZM59.1543 15.5596L59.6968 14.6787C59.9116 14.8291 60.139 14.9508 60.3789 15.0439C60.6224 15.1335 60.8856 15.1782 61.1685 15.1782C61.4764 15.1782 61.7145 15.1227 61.8828 15.0117C62.0547 14.8971 62.1406 14.7271 62.1406 14.5015C62.1406 14.3224 62.069 14.1738 61.9258 14.0557C61.7861 13.9339 61.5462 13.8337 61.2061 13.7549C60.5186 13.5938 60.0352 13.3807 59.7559 13.1157C59.4801 12.8507 59.3423 12.5016 59.3423 12.0684C59.3423 11.5706 59.5356 11.1642 59.9224 10.8491C60.3091 10.5304 60.8158 10.3711 61.4424 10.3711C61.7539 10.3711 62.0511 10.4123 62.334 10.4946C62.6169 10.5734 62.8926 10.7005 63.1611 10.876L62.6562 11.7354C62.4199 11.585 62.2033 11.4775 62.0063 11.4131C61.8094 11.3486 61.6071 11.3164 61.3994 11.3164C61.1058 11.3164 60.8766 11.3719 60.7119 11.4829C60.5508 11.5903 60.4702 11.7407 60.4702 11.9341C60.4702 12.1382 60.5526 12.2904 60.7173 12.3906C60.8856 12.4873 61.1667 12.5822 61.5605 12.6753C62.1549 12.8185 62.59 13.0262 62.8657 13.2983C63.1414 13.5669 63.2793 13.9268 63.2793 14.3779C63.2793 14.9115 63.0841 15.3376 62.6938 15.6562C62.3071 15.9714 61.7826 16.1289 61.1201 16.1289C60.762 16.1289 60.4183 16.0824 60.0889 15.9893C59.763 15.8926 59.4515 15.7493 59.1543 15.5596ZM66.8779 16.1289C66.0186 16.1289 65.3364 15.8729 64.8315 15.3608C64.3302 14.8452 64.0796 14.1559 64.0796 13.293C64.0832 12.3799 64.3446 11.6655 64.8638 11.1499C65.383 10.6307 66.0902 10.3711 66.9854 10.3711C67.8483 10.3675 68.5215 10.6217 69.0049 11.1338C69.4919 11.6423 69.7354 12.3315 69.7354 13.2017C69.7354 14.0968 69.4775 14.8094 68.9619 15.3394C68.4499 15.8657 67.7552 16.1289 66.8779 16.1289ZM66.937 15.1353C67.4347 15.1353 67.8125 14.9723 68.0703 14.6465C68.3317 14.3206 68.4624 13.8498 68.4624 13.2339C68.4624 12.6252 68.3317 12.1615 68.0703 11.8428C67.8089 11.5241 67.4294 11.3647 66.9316 11.3647C66.4411 11.3647 66.0544 11.533 65.7715 11.8696C65.4922 12.2062 65.3525 12.6717 65.3525 13.2661C65.3525 13.8641 65.4922 14.326 65.7715 14.6519C66.0508 14.9741 66.4393 15.1353 66.937 15.1353ZM73.9839 8.84033C73.8836 8.80094 73.7923 8.77409 73.71 8.75977C73.6276 8.74186 73.5381 8.73291 73.4414 8.73291C73.1764 8.73291 72.9759 8.8099 72.8398 8.96387C72.7074 9.11426 72.6411 9.33268 72.6411 9.61914V10.5H73.9141V11.4775H72.6411V16H71.395V11.4775H70.4604V10.5H71.395V9.55469C71.395 8.99609 71.5741 8.55387 71.9321 8.22803C72.2938 7.8986 72.7718 7.73389 73.3662 7.73389C73.5524 7.73389 73.7135 7.74642 73.8496 7.77148C73.9857 7.79655 74.1271 7.83236 74.2739 7.87891L73.9839 8.84033ZM77.7974 15.9248C77.6362 15.9928 77.4679 16.043 77.2925 16.0752C77.117 16.1074 76.929 16.1235 76.7285 16.1235C76.2201 16.1235 75.828 15.9893 75.5522 15.7207C75.2801 15.4486 75.144 15.0439 75.144 14.5068V11.4775H74.2202V10.5H75.144V9.1626L76.3901 8.78662V10.5H77.7061V11.4775H76.3901V14.4048C76.3901 14.6733 76.4385 14.8667 76.5352 14.9849C76.6354 15.103 76.7894 15.1621 76.9971 15.1621C77.0973 15.1621 77.1922 15.1514 77.2817 15.1299C77.3748 15.1048 77.4572 15.0744 77.5288 15.0386L77.7974 15.9248ZM81.2939 15.4468L81.8633 14.4639C82.2106 14.6787 82.5347 14.8309 82.8354 14.9204C83.1362 15.0063 83.4728 15.0493 83.8452 15.0493C84.2892 15.0493 84.6383 14.9544 84.8926 14.7646C85.1504 14.5713 85.2793 14.2956 85.2793 13.9375C85.2793 13.6117 85.1719 13.3556 84.957 13.1694C84.7458 12.9797 84.3859 12.806 83.8774 12.6484C83.0933 12.4157 82.5168 12.1274 82.1479 11.7837C81.7791 11.4399 81.5947 10.9744 81.5947 10.3872C81.5947 9.74984 81.8328 9.22168 82.3091 8.80273C82.7853 8.38021 83.4316 8.16895 84.248 8.16895C84.6061 8.16895 84.9588 8.20833 85.3062 8.28711C85.6535 8.36589 85.9972 8.48763 86.3374 8.65234L85.8594 9.67285C85.5622 9.51888 85.2775 9.40967 85.0054 9.34521C84.7368 9.28076 84.4629 9.24854 84.1836 9.24854C83.7754 9.24854 83.4531 9.33805 83.2168 9.51709C82.984 9.69613 82.8677 9.94857 82.8677 10.2744C82.8677 10.5645 82.9751 10.7936 83.1899 10.9619C83.4048 11.1266 83.7736 11.2896 84.2964 11.4507C85.0985 11.6906 85.675 11.9896 86.0259 12.3477C86.3804 12.7057 86.5576 13.1981 86.5576 13.8247C86.5576 14.4979 86.3177 15.0511 85.8379 15.4844C85.3581 15.9141 84.6742 16.1289 83.7861 16.1289C83.3421 16.1289 82.9089 16.0734 82.4863 15.9624C82.0638 15.8478 81.6663 15.6759 81.2939 15.4468ZM90.4409 15.9248C90.2798 15.9928 90.1115 16.043 89.936 16.0752C89.7606 16.1074 89.5726 16.1235 89.3721 16.1235C88.8636 16.1235 88.4715 15.9893 88.1958 15.7207C87.9237 15.4486 87.7876 15.0439 87.7876 14.5068V11.4775H86.8638V10.5H87.7876V9.1626L89.0337 8.78662V10.5H90.3496V11.4775H89.0337V14.4048C89.0337 14.6733 89.082 14.8667 89.1787 14.9849C89.279 15.103 89.4329 15.1621 89.6406 15.1621C89.7409 15.1621 89.8358 15.1514 89.9253 15.1299C90.0184 15.1048 90.1007 15.0744 90.1724 15.0386L90.4409 15.9248ZM93.8623 16.1289C93.0029 16.1289 92.3208 15.8729 91.8159 15.3608C91.3146 14.8452 91.064 14.1559 91.064 13.293C91.0675 12.3799 91.3289 11.6655 91.8481 11.1499C92.3674 10.6307 93.0745 10.3711 93.9697 10.3711C94.8327 10.3675 95.5059 10.6217 95.9893 11.1338C96.4762 11.6423 96.7197 12.3315 96.7197 13.2017C96.7197 14.0968 96.4619 14.8094 95.9463 15.3394C95.4342 15.8657 94.7396 16.1289 93.8623 16.1289ZM93.9214 15.1353C94.4191 15.1353 94.7969 14.9723 95.0547 14.6465C95.3161 14.3206 95.4468 13.8498 95.4468 13.2339C95.4468 12.6252 95.3161 12.1615 95.0547 11.8428C94.7933 11.5241 94.4137 11.3647 93.916 11.3647C93.4255 11.3647 93.0387 11.533 92.7559 11.8696C92.4766 12.2062 92.3369 12.6717 92.3369 13.2661C92.3369 13.8641 92.4766 14.326 92.7559 14.6519C93.0352 14.9741 93.4237 15.1353 93.9214 15.1353ZM101.054 11.5474C100.986 11.5295 100.92 11.5169 100.855 11.5098C100.795 11.499 100.723 11.4937 100.641 11.4937C100.193 11.4937 99.8493 11.6584 99.6094 11.9878C99.3695 12.3172 99.2495 12.7469 99.2495 13.2769V16H97.998V10.5H99.2495V11.5581H99.271C99.3999 11.1785 99.5897 10.8921 99.8403 10.6987C100.091 10.5018 100.386 10.4033 100.727 10.4033C100.823 10.4033 100.909 10.4087 100.984 10.4194C101.063 10.4302 101.138 10.4463 101.21 10.4678L101.054 11.5474ZM106.721 13.5776H102.966C102.988 14.0968 103.138 14.4925 103.417 14.7646C103.697 15.0332 104.087 15.1675 104.588 15.1675C104.792 15.1675 105.025 15.1263 105.287 15.0439C105.548 14.9616 105.806 14.8291 106.06 14.6465L106.624 15.4253C106.284 15.6724 105.938 15.8514 105.587 15.9624C105.236 16.0734 104.85 16.1289 104.427 16.1289C103.571 16.1289 102.905 15.8836 102.429 15.3931C101.953 14.8989 101.713 14.2096 101.709 13.3252C101.709 12.4443 101.955 11.7318 102.445 11.1875C102.939 10.6432 103.571 10.3711 104.341 10.3711C105.079 10.3711 105.659 10.6038 106.082 11.0693C106.508 11.5312 106.721 12.1865 106.721 13.0352V13.5776ZM105.512 12.7129C105.512 12.2402 105.408 11.8857 105.201 11.6494C104.997 11.4095 104.707 11.2896 104.331 11.2896C103.976 11.2896 103.674 11.4185 103.423 11.6763C103.176 11.9305 103.024 12.276 102.966 12.7129H105.512Z" fill="black" fill-opacity="0.8956"/>
<path d="M34.0503 25.6138C34.1961 25.6138 34.3294 25.583 34.4502 25.5215C34.5732 25.46 34.6781 25.3734 34.7646 25.2617C34.8535 25.1478 34.9219 25.0099 34.9697 24.8481C35.0199 24.6864 35.0449 24.5052 35.0449 24.3047C35.0449 24.1178 35.0176 23.9367 34.9629 23.7612C34.9082 23.5858 34.8307 23.4217 34.7305 23.269C34.6325 23.1141 34.514 22.9728 34.375 22.8452C34.236 22.7153 34.0822 22.6048 33.9136 22.5137C33.7472 22.4225 33.5672 22.3519 33.3735 22.3018C33.1821 22.2493 32.9839 22.2231 32.7788 22.2231V21.7959C33.0477 21.7959 33.3018 21.8301 33.541 21.8984C33.7826 21.9668 34.0036 22.0614 34.2041 22.1821C34.4069 22.3029 34.5881 22.4453 34.7476 22.6094C34.9093 22.7734 35.0461 22.95 35.1577 23.1392C35.2716 23.3283 35.3582 23.5265 35.4175 23.7339C35.4767 23.9412 35.5063 24.1486 35.5063 24.356C35.5063 24.6545 35.4619 24.9131 35.373 25.1318C35.2865 25.3483 35.1737 25.5283 35.0347 25.6719C34.8957 25.8154 34.7396 25.9225 34.5664 25.9932C34.3932 26.0615 34.2212 26.0957 34.0503 26.0957C33.8498 26.0957 33.6755 26.0649 33.5273 26.0034C33.3792 25.9442 33.2482 25.8656 33.1343 25.7676C33.0226 25.6696 32.9235 25.5579 32.8369 25.4326C32.7526 25.3073 32.674 25.1797 32.6011 25.0498C32.5304 24.9199 32.4609 24.7923 32.3926 24.667C32.3242 24.5417 32.2513 24.43 32.1738 24.332C32.0964 24.234 32.0098 24.1554 31.9141 24.0962C31.8184 24.0347 31.7056 24.0039 31.5757 24.0039C31.4595 24.0039 31.3581 24.0267 31.2715 24.0723C31.1872 24.1156 31.1165 24.1725 31.0596 24.2432C31.0049 24.3115 30.9639 24.3901 30.9365 24.479C30.9092 24.5656 30.8955 24.6522 30.8955 24.7388C30.8955 24.8481 30.9058 24.9495 30.9263 25.043C30.9468 25.1364 30.9787 25.2264 31.022 25.313C31.0675 25.3973 31.1257 25.4805 31.1963 25.5625C31.2692 25.6445 31.3569 25.73 31.4595 25.8188L31.1689 26.1846C31.0459 26.0934 30.9365 25.9932 30.8408 25.8838C30.7474 25.7744 30.6688 25.6605 30.605 25.542C30.5412 25.4212 30.4922 25.297 30.458 25.1694C30.4261 25.0418 30.4102 24.9142 30.4102 24.7866C30.4102 24.6317 30.4375 24.4801 30.4922 24.332C30.5469 24.1816 30.6243 24.0483 30.7246 23.9321C30.8271 23.8159 30.9502 23.7225 31.0938 23.6519C31.2373 23.5789 31.3979 23.5425 31.5757 23.5425C31.7511 23.5425 31.9049 23.5721 32.0371 23.6313C32.1693 23.6906 32.2866 23.7692 32.3892 23.8672C32.4917 23.9629 32.5828 24.0734 32.6626 24.1987C32.7446 24.3218 32.8221 24.4482 32.895 24.5781C32.9679 24.708 33.0409 24.8356 33.1138 24.9609C33.189 25.084 33.271 25.1945 33.3599 25.2925C33.4487 25.3882 33.549 25.4657 33.6606 25.5249C33.7723 25.5841 33.9022 25.6138 34.0503 25.6138ZM32.9155 22.2231H32.7788L31.6406 21.0474V21.0132L32.0063 20.6885L32.8472 21.7241L34.2861 20.0288L34.6519 20.3535V20.3877L32.9155 22.2231ZM36.689 26.0957C36.5067 26.0957 36.3449 26.0729 36.2036 26.0273C36.0646 25.9818 35.9427 25.9225 35.8379 25.8496C35.7354 25.7767 35.6476 25.6947 35.5747 25.6035C35.5018 25.5124 35.4403 25.4224 35.3901 25.3335C35.3423 25.2424 35.3035 25.1569 35.2739 25.0771C35.2466 24.9951 35.2249 24.9279 35.209 24.8755L35.5029 24.2705C35.5371 24.4756 35.5861 24.6613 35.6499 24.8276C35.716 24.9917 35.798 25.1318 35.896 25.248C35.994 25.3643 36.109 25.4543 36.2412 25.5181C36.3734 25.5819 36.5226 25.6138 36.689 25.6138C36.8348 25.6138 36.9681 25.583 37.0889 25.5215C37.2119 25.46 37.3167 25.3734 37.4033 25.2617C37.4922 25.1478 37.5605 25.0099 37.6084 24.8481C37.6585 24.6864 37.6836 24.5052 37.6836 24.3047C37.6836 24.0632 37.646 23.8307 37.5708 23.6074C37.4979 23.3841 37.3942 23.1813 37.2598 22.999C37.1253 22.8145 36.9624 22.6549 36.771 22.5205C36.5796 22.3861 36.3665 22.2869 36.1318 22.2231L36.1934 21.7959C36.3597 21.8278 36.5226 21.8825 36.6821 21.96C36.8439 22.0352 36.9966 22.1297 37.1401 22.2437C37.286 22.3576 37.4193 22.4897 37.54 22.6401C37.6631 22.7905 37.769 22.9557 37.8579 23.1357C37.9491 23.3135 38.0197 23.5049 38.0698 23.71C38.12 23.915 38.145 24.1304 38.145 24.356C38.145 24.6522 38.1017 24.9097 38.0151 25.1284C37.9308 25.3449 37.8192 25.5249 37.6802 25.6685C37.5412 25.812 37.3851 25.9191 37.2119 25.9897C37.0387 26.0604 36.8644 26.0957 36.689 26.0957ZM41.1255 22.2231C40.8908 22.2231 40.6709 22.2676 40.4658 22.3564C40.263 22.443 40.0853 22.5627 39.9326 22.7153C39.7822 22.868 39.6637 23.0469 39.5771 23.252C39.4906 23.457 39.4473 23.6769 39.4473 23.9116C39.4473 24.1463 39.4906 24.3674 39.5771 24.5747C39.6637 24.7798 39.7822 24.9598 39.9326 25.1147C40.0853 25.2674 40.263 25.3893 40.4658 25.4805C40.6709 25.5693 40.8908 25.6138 41.1255 25.6138C41.3602 25.6138 41.5789 25.5693 41.7817 25.4805C41.9868 25.3893 42.1646 25.2674 42.3149 25.1147C42.4676 24.9598 42.5872 24.7798 42.6738 24.5747C42.7604 24.3674 42.8037 24.1463 42.8037 23.9116C42.8037 23.6769 42.7604 23.457 42.6738 23.252C42.5872 23.0469 42.4676 22.868 42.3149 22.7153C42.1646 22.5627 41.9868 22.443 41.7817 22.3564C41.5789 22.2676 41.3602 22.2231 41.1255 22.2231ZM41.1255 26.0957C40.8293 26.0957 40.5501 26.0399 40.2881 25.9282C40.026 25.8143 39.797 25.6605 39.6011 25.4668C39.4074 25.2708 39.2536 25.043 39.1396 24.7832C39.0257 24.5212 38.9688 24.242 38.9688 23.9458C38.9688 23.6496 39.0257 23.3716 39.1396 23.1118C39.2536 22.8498 39.4074 22.6219 39.6011 22.4282C39.797 22.2323 40.026 22.0785 40.2881 21.9668C40.5501 21.8529 40.8293 21.7959 41.1255 21.7959C41.4217 21.7959 41.7008 21.8529 41.9629 21.9668C42.2249 22.0785 42.4528 22.2323 42.6465 22.4282C42.8424 22.6219 42.9974 22.8498 43.1113 23.1118C43.2253 23.3716 43.2822 23.6496 43.2822 23.9458C43.2822 24.242 43.2253 24.5212 43.1113 24.7832C42.9974 25.043 42.8424 25.2708 42.6465 25.4668C42.4528 25.6605 42.2249 25.8143 41.9629 25.9282C41.7008 26.0399 41.4217 26.0957 41.1255 26.0957ZM48.1016 26.0957C47.9375 26.0957 47.7871 26.0706 47.6504 26.0205C47.516 25.9727 47.3952 25.9134 47.2881 25.8428C47.181 25.7699 47.0887 25.6935 47.0112 25.6138C46.9338 25.5317 46.8722 25.4577 46.8267 25.3916C46.7811 25.4577 46.7207 25.5317 46.6455 25.6138C46.5703 25.6935 46.4792 25.7699 46.3721 25.8428C46.2673 25.9134 46.1465 25.9727 46.0098 26.0205C45.8753 26.0706 45.7249 26.0957 45.5586 26.0957C45.3877 26.0957 45.2157 26.0615 45.0425 25.9932C44.8693 25.9225 44.7132 25.8154 44.5742 25.6719C44.4352 25.5283 44.3213 25.3483 44.2324 25.1318C44.1458 24.9131 44.1025 24.6545 44.1025 24.356C44.1025 24.1486 44.1322 23.9412 44.1914 23.7339C44.2507 23.5265 44.3361 23.3283 44.4478 23.1392C44.5617 22.95 44.6984 22.7734 44.8579 22.6094C45.0197 22.4453 45.2008 22.3029 45.4014 22.1821C45.6042 22.0614 45.8252 21.9668 46.0645 21.8984C46.306 21.8301 46.5612 21.7959 46.8301 21.7959C47.099 21.7959 47.3519 21.8301 47.5889 21.8984C47.8281 21.9668 48.048 22.0614 48.2485 22.1821C48.4491 22.3029 48.6279 22.4453 48.7852 22.6094C48.9424 22.7734 49.0757 22.95 49.1851 23.1392C49.2944 23.3283 49.3776 23.5265 49.4346 23.7339C49.4938 23.9412 49.5234 24.1486 49.5234 24.356C49.5234 24.6545 49.4813 24.9131 49.397 25.1318C49.3149 25.3483 49.2056 25.5283 49.0688 25.6719C48.9344 25.8154 48.7817 25.9225 48.6108 25.9932C48.4422 26.0615 48.2725 26.0957 48.1016 26.0957ZM46.8301 22.2197C46.625 22.2197 46.4256 22.2459 46.2319 22.2983C46.0405 22.3485 45.8605 22.4202 45.6919 22.5137C45.5256 22.6048 45.3729 22.7142 45.2339 22.8418C45.0949 22.9694 44.9753 23.1107 44.875 23.2656C44.777 23.4206 44.7007 23.5858 44.646 23.7612C44.5913 23.9367 44.564 24.1178 44.564 24.3047C44.564 24.5052 44.5879 24.6864 44.6357 24.8481C44.6859 25.0099 44.7542 25.1478 44.8408 25.2617C44.9297 25.3734 45.0345 25.46 45.1553 25.5215C45.2783 25.583 45.4128 25.6138 45.5586 25.6138C45.6839 25.6138 45.7979 25.5967 45.9004 25.5625C46.0029 25.526 46.0952 25.4805 46.1772 25.4258C46.2593 25.3688 46.3322 25.305 46.396 25.2344C46.4598 25.1615 46.5145 25.0885 46.5601 25.0156C46.6079 24.9427 46.6478 24.8721 46.6797 24.8037C46.7139 24.7354 46.7412 24.6772 46.7617 24.6294H46.8984C46.9189 24.6795 46.9451 24.7388 46.9771 24.8071C47.009 24.8732 47.0488 24.9427 47.0967 25.0156C47.1445 25.0885 47.2004 25.1615 47.2642 25.2344C47.328 25.305 47.4009 25.3688 47.4829 25.4258C47.5649 25.4805 47.6572 25.526 47.7598 25.5625C47.8623 25.5967 47.9762 25.6138 48.1016 25.6138C48.2201 25.6138 48.3306 25.5944 48.4331 25.5557C48.5356 25.5146 48.6279 25.4565 48.71 25.3813C48.792 25.3039 48.8615 25.2104 48.9185 25.1011C48.9777 24.9917 49.0221 24.8675 49.0518 24.7285C48.9788 24.7946 48.8991 24.847 48.8125 24.8857C48.7259 24.9245 48.6279 24.9438 48.5186 24.9438C48.4001 24.9438 48.2884 24.9199 48.1836 24.8721C48.0788 24.8219 47.9865 24.7559 47.9067 24.6738C47.8293 24.5918 47.7677 24.4972 47.7222 24.3901C47.6766 24.2808 47.6538 24.1657 47.6538 24.0449C47.6538 23.9264 47.6777 23.8148 47.7256 23.71C47.7757 23.6029 47.8418 23.5094 47.9238 23.4297C48.0059 23.3499 48.1004 23.2873 48.2075 23.2417C48.3169 23.1938 48.4308 23.1699 48.5493 23.1699C48.5812 23.1699 48.6131 23.1733 48.645 23.1802C48.6792 23.1847 48.71 23.1904 48.7373 23.1973C48.6348 23.0537 48.5151 22.9227 48.3784 22.8042C48.2417 22.6834 48.0913 22.5798 47.9272 22.4932C47.7632 22.4066 47.5889 22.3394 47.4043 22.2915C47.2197 22.2437 47.0283 22.2197 46.8301 22.2197ZM48.1221 24.0278C48.1221 24.0939 48.1335 24.1543 48.1562 24.209C48.1813 24.2637 48.2144 24.3115 48.2554 24.3525C48.2964 24.3913 48.3454 24.422 48.4023 24.4448C48.4593 24.4676 48.5208 24.479 48.5869 24.479C48.6507 24.479 48.71 24.4676 48.7646 24.4448C48.8193 24.422 48.8672 24.3913 48.9082 24.3525C48.9492 24.3138 48.9811 24.2671 49.0039 24.2124C49.029 24.1577 49.0415 24.0985 49.0415 24.0347C49.0415 23.9731 49.0301 23.915 49.0073 23.8604C48.9845 23.8034 48.9526 23.7544 48.9116 23.7134C48.8706 23.6701 48.8228 23.6359 48.7681 23.6108C48.7134 23.5858 48.6541 23.5732 48.5903 23.5732C48.5265 23.5732 48.4661 23.5846 48.4092 23.6074C48.3522 23.6302 48.3021 23.6621 48.2588 23.7031C48.2178 23.7441 48.1847 23.7931 48.1597 23.8501C48.1346 23.9048 48.1221 23.964 48.1221 24.0278ZM45.8628 20.6611C45.8628 20.5267 45.897 20.4082 45.9653 20.3057C46.0337 20.2031 46.1226 20.1165 46.2319 20.0459C46.3413 19.9753 46.4632 19.9229 46.5977 19.8887C46.7321 19.8522 46.8665 19.834 47.001 19.834C47.1947 19.834 47.3735 19.8647 47.5376 19.9263C47.7039 19.9878 47.8464 20.071 47.9648 20.1758C48.0833 20.2806 48.1756 20.4036 48.2417 20.5449C48.3101 20.6839 48.3442 20.832 48.3442 20.9893C48.3442 21.1465 48.3044 21.2992 48.2246 21.4473C48.1471 21.5931 48.0378 21.723 47.8965 21.8369C47.7552 21.9486 47.5866 22.0386 47.3906 22.1069C47.1947 22.1753 46.9805 22.2095 46.748 22.2095C46.6068 22.2095 46.4632 22.1958 46.3174 22.1685C46.1715 22.1388 46.0348 22.1035 45.9072 22.0625C45.7796 22.0215 45.6646 21.9782 45.562 21.9326C45.4618 21.887 45.3843 21.8472 45.3296 21.813L45.5176 21.4302C45.5814 21.4712 45.6589 21.5133 45.75 21.5566C45.8434 21.5999 45.9437 21.6398 46.0508 21.6763C46.1602 21.7104 46.2729 21.7389 46.3892 21.7617C46.5076 21.7845 46.6227 21.7959 46.7344 21.7959C46.887 21.7959 47.0329 21.7765 47.1719 21.7378C47.3132 21.6968 47.4373 21.641 47.5444 21.5703C47.6515 21.4974 47.737 21.4119 47.8008 21.314C47.8646 21.216 47.8965 21.1077 47.8965 20.9893C47.8965 20.8913 47.8714 20.7979 47.8213 20.709C47.7734 20.6201 47.7085 20.5415 47.6265 20.4731C47.5444 20.4048 47.4487 20.3501 47.3394 20.3091C47.2323 20.2681 47.1195 20.2476 47.001 20.2476C46.8825 20.2476 46.7799 20.2601 46.6934 20.2852C46.609 20.3079 46.5384 20.3398 46.4814 20.3809C46.4268 20.4196 46.3857 20.464 46.3584 20.5142C46.3333 20.562 46.3208 20.611 46.3208 20.6611C46.3208 20.7227 46.3368 20.7728 46.3687 20.8115C46.4006 20.8503 46.4382 20.881 46.4814 20.9038C46.527 20.9243 46.5737 20.9391 46.6216 20.9482C46.6694 20.9551 46.7093 20.9585 46.7412 20.9585C46.7845 20.9585 46.8324 20.9539 46.8848 20.9448C46.9372 20.9334 46.9884 20.9186 47.0386 20.9004C47.0887 20.8822 47.1366 20.8605 47.1821 20.8354C47.23 20.8104 47.271 20.7819 47.3052 20.75L47.5342 21.0679C47.4886 21.1203 47.4351 21.1659 47.3735 21.2046C47.3143 21.2433 47.2493 21.2764 47.1787 21.3037C47.1081 21.3311 47.0352 21.3516 46.96 21.3652C46.8848 21.3789 46.8118 21.3857 46.7412 21.3857C46.625 21.3857 46.5133 21.3675 46.4062 21.3311C46.3014 21.2946 46.208 21.2445 46.126 21.1807C46.0462 21.1146 45.9824 21.0371 45.9346 20.9482C45.8867 20.8594 45.8628 20.7637 45.8628 20.6611ZM56.4619 20.9756H52.668V20.5757H56.4619V20.9756ZM56.4619 22.1958H52.668V21.7959H56.4619V22.1958ZM56.2637 26.0957C56.0996 26.0957 55.9492 26.0706 55.8125 26.0205C55.6781 25.9727 55.5573 25.9134 55.4502 25.8428C55.3431 25.7699 55.2508 25.6935 55.1733 25.6138C55.0959 25.5317 55.0343 25.4577 54.9888 25.3916C54.9432 25.4577 54.8828 25.5317 54.8076 25.6138C54.7324 25.6935 54.6413 25.7699 54.5342 25.8428C54.4294 25.9134 54.3086 25.9727 54.1719 26.0205C54.0374 26.0706 53.887 26.0957 53.7207 26.0957C53.5498 26.0957 53.3778 26.0615 53.2046 25.9932C53.0314 25.9225 52.8753 25.8154 52.7363 25.6719C52.5973 25.5283 52.4834 25.3483 52.3945 25.1318C52.3079 24.9131 52.2646 24.6545 52.2646 24.356C52.2646 24.1486 52.2943 23.9412 52.3535 23.7339C52.4128 23.5265 52.4982 23.3283 52.6099 23.1392C52.7238 22.95 52.8605 22.7734 53.02 22.6094C53.1818 22.4453 53.363 22.3029 53.5635 22.1821C53.7663 22.0614 53.9873 21.9668 54.2266 21.8984C54.4681 21.8301 54.7233 21.7959 54.9922 21.7959C55.2611 21.7959 55.514 21.8301 55.751 21.8984C55.9902 21.9668 56.2101 22.0614 56.4106 22.1821C56.6112 22.3029 56.79 22.4453 56.9473 22.6094C57.1045 22.7734 57.2378 22.95 57.3472 23.1392C57.4565 23.3283 57.5397 23.5265 57.5967 23.7339C57.6559 23.9412 57.6855 24.1486 57.6855 24.356C57.6855 24.6545 57.6434 24.9131 57.5591 25.1318C57.4771 25.3483 57.3677 25.5283 57.231 25.6719C57.0965 25.8154 56.9438 25.9225 56.7729 25.9932C56.6043 26.0615 56.4346 26.0957 56.2637 26.0957ZM54.9922 22.2197C54.7871 22.2197 54.5877 22.2459 54.394 22.2983C54.2026 22.3485 54.0226 22.4202 53.854 22.5137C53.6877 22.6048 53.535 22.7142 53.396 22.8418C53.257 22.9694 53.1374 23.1107 53.0371 23.2656C52.9391 23.4206 52.8628 23.5858 52.8081 23.7612C52.7534 23.9367 52.7261 24.1178 52.7261 24.3047C52.7261 24.5052 52.75 24.6864 52.7979 24.8481C52.848 25.0099 52.9163 25.1478 53.0029 25.2617C53.0918 25.3734 53.1966 25.46 53.3174 25.5215C53.4404 25.583 53.5749 25.6138 53.7207 25.6138C53.846 25.6138 53.96 25.5967 54.0625 25.5625C54.165 25.526 54.2573 25.4805 54.3394 25.4258C54.4214 25.3688 54.4943 25.305 54.5581 25.2344C54.6219 25.1615 54.6766 25.0885 54.7222 25.0156C54.77 24.9427 54.8099 24.8721 54.8418 24.8037C54.876 24.7354 54.9033 24.6772 54.9238 24.6294H55.0605C55.0811 24.6795 55.1073 24.7388 55.1392 24.8071C55.1711 24.8732 55.2109 24.9427 55.2588 25.0156C55.3066 25.0885 55.3625 25.1615 55.4263 25.2344C55.4901 25.305 55.563 25.3688 55.645 25.4258C55.7271 25.4805 55.8193 25.526 55.9219 25.5625C56.0244 25.5967 56.1383 25.6138 56.2637 25.6138C56.3822 25.6138 56.4927 25.5944 56.5952 25.5557C56.6978 25.5146 56.79 25.4565 56.8721 25.3813C56.9541 25.3039 57.0236 25.2104 57.0806 25.1011C57.1398 24.9917 57.1842 24.8675 57.2139 24.7285C57.141 24.7946 57.0612 24.847 56.9746 24.8857C56.888 24.9245 56.79 24.9438 56.6807 24.9438C56.5622 24.9438 56.4505 24.9199 56.3457 24.8721C56.2409 24.8219 56.1486 24.7559 56.0688 24.6738C55.9914 24.5918 55.9299 24.4972 55.8843 24.3901C55.8387 24.2808 55.8159 24.1657 55.8159 24.0449C55.8159 23.9264 55.8398 23.8148 55.8877 23.71C55.9378 23.6029 56.0039 23.5094 56.0859 23.4297C56.168 23.3499 56.2625 23.2873 56.3696 23.2417C56.479 23.1938 56.5929 23.1699 56.7114 23.1699C56.7433 23.1699 56.7752 23.1733 56.8071 23.1802C56.8413 23.1847 56.8721 23.1904 56.8994 23.1973C56.7969 23.0537 56.6772 22.9227 56.5405 22.8042C56.4038 22.6834 56.2534 22.5798 56.0894 22.4932C55.9253 22.4066 55.751 22.3394 55.5664 22.2915C55.3818 22.2437 55.1904 22.2197 54.9922 22.2197ZM56.2842 24.0278C56.2842 24.0939 56.2956 24.1543 56.3184 24.209C56.3434 24.2637 56.3765 24.3115 56.4175 24.3525C56.4585 24.3913 56.5075 24.422 56.5645 24.4448C56.6214 24.4676 56.6829 24.479 56.749 24.479C56.8128 24.479 56.8721 24.4676 56.9268 24.4448C56.9814 24.422 57.0293 24.3913 57.0703 24.3525C57.1113 24.3138 57.1432 24.2671 57.166 24.2124C57.1911 24.1577 57.2036 24.0985 57.2036 24.0347C57.2036 23.9731 57.1922 23.915 57.1694 23.8604C57.1466 23.8034 57.1147 23.7544 57.0737 23.7134C57.0327 23.6701 56.9849 23.6359 56.9302 23.6108C56.8755 23.5858 56.8162 23.5732 56.7524 23.5732C56.6886 23.5732 56.6283 23.5846 56.5713 23.6074C56.5143 23.6302 56.4642 23.6621 56.4209 23.7031C56.3799 23.7441 56.3468 23.7931 56.3218 23.8501C56.2967 23.9048 56.2842 23.964 56.2842 24.0278ZM56.9028 21.3857C56.9028 21.2559 56.8493 21.1556 56.7422 21.085C56.6374 21.012 56.4995 20.9756 56.3286 20.9756H54.623V20.5757H58.9229C59.1348 20.5757 59.3171 20.6019 59.4697 20.6543C59.6224 20.7044 59.7477 20.7728 59.8457 20.8594C59.946 20.9437 60.0189 21.0417 60.0645 21.1533C60.1123 21.2627 60.1362 21.3755 60.1362 21.4917C60.1362 21.633 60.1112 21.756 60.061 21.8608C60.0109 21.9657 59.9448 22.0534 59.8628 22.124C59.783 22.1924 59.693 22.2437 59.5928 22.2778C59.4925 22.312 59.3923 22.3291 59.292 22.3291C59.1917 22.3291 59.0915 22.312 58.9912 22.2778C58.891 22.2437 58.7998 22.1924 58.7178 22.124C58.638 22.0534 58.5731 21.9657 58.5229 21.8608C58.4728 21.756 58.4478 21.633 58.4478 21.4917C58.4478 21.4074 58.4603 21.3345 58.4854 21.2729C58.5104 21.2091 58.5389 21.1545 58.5708 21.1089C58.6073 21.0588 58.6483 21.0143 58.6938 20.9756H57.2446C57.3221 21.0918 57.3608 21.2285 57.3608 21.3857C57.3608 21.527 57.3312 21.6489 57.272 21.7515C57.2127 21.854 57.1341 21.9383 57.0361 22.0044C56.9404 22.0705 56.8311 22.1195 56.708 22.1514C56.585 22.181 56.4585 22.1958 56.3286 22.1958H54.623V21.7959H56.3286C56.5018 21.7959 56.6408 21.7606 56.7456 21.6899C56.8504 21.617 56.9028 21.5156 56.9028 21.3857ZM59.2886 21.9258C59.3433 21.9258 59.3957 21.9167 59.4458 21.8984C59.4982 21.8779 59.5438 21.8494 59.5825 21.813C59.6213 21.7765 59.652 21.7321 59.6748 21.6797C59.6999 21.625 59.7124 21.5623 59.7124 21.4917C59.7124 21.4165 59.6965 21.3504 59.6646 21.2935C59.6349 21.2365 59.5973 21.1886 59.5518 21.1499C59.5085 21.1089 59.4629 21.0781 59.415 21.0576C59.3695 21.0348 59.3296 21.0212 59.2954 21.0166C59.2612 21.0212 59.2202 21.0348 59.1724 21.0576C59.1268 21.0781 59.0812 21.1089 59.0356 21.1499C58.9924 21.1886 58.9548 21.2365 58.9229 21.2935C58.8932 21.3504 58.8784 21.4165 58.8784 21.4917C58.8784 21.5623 58.8887 21.625 58.9092 21.6797C58.932 21.7321 58.9616 21.7765 58.998 21.813C59.0368 21.8494 59.0812 21.8779 59.1313 21.8984C59.1815 21.9167 59.2339 21.9258 59.2886 21.9258ZM63.7661 25.6138C63.9119 25.6138 64.0452 25.583 64.166 25.5215C64.2891 25.46 64.3939 25.3734 64.4805 25.2617C64.5693 25.1478 64.6377 25.0099 64.6855 24.8481C64.7357 24.6864 64.7607 24.5052 64.7607 24.3047C64.7607 24.1178 64.7334 23.9367 64.6787 23.7612C64.624 23.5835 64.5465 23.4172 64.4463 23.2622C64.3483 23.105 64.2298 22.9614 64.0908 22.8315C63.9518 22.6994 63.798 22.5866 63.6294 22.4932C63.4631 22.3997 63.283 22.3268 63.0894 22.2744C62.8979 22.222 62.6997 22.1958 62.4946 22.1958V21.7959C62.7635 21.7959 63.0176 21.8301 63.2568 21.8984C63.4984 21.9668 63.7194 22.0614 63.9199 22.1821C64.1227 22.3029 64.3039 22.4453 64.4634 22.6094C64.6252 22.7734 64.7619 22.95 64.8735 23.1392C64.9875 23.3283 65.0741 23.5265 65.1333 23.7339C65.1925 23.9412 65.2222 24.1486 65.2222 24.356C65.2222 24.6545 65.1777 24.9131 65.0889 25.1318C65.0023 25.3483 64.8895 25.5283 64.7505 25.6719C64.6115 25.8154 64.4554 25.9225 64.2822 25.9932C64.109 26.0615 63.937 26.0957 63.7661 26.0957C63.5656 26.0957 63.3913 26.0649 63.2432 26.0034C63.0951 25.9442 62.964 25.8656 62.8501 25.7676C62.7384 25.6696 62.6393 25.5579 62.5527 25.4326C62.4684 25.3073 62.3898 25.1797 62.3169 25.0498C62.2463 24.9199 62.1768 24.7923 62.1084 24.667C62.04 24.5417 61.9671 24.43 61.8896 24.332C61.8122 24.234 61.7256 24.1554 61.6299 24.0962C61.5342 24.0347 61.4214 24.0039 61.2915 24.0039C61.1753 24.0039 61.0739 24.0267 60.9873 24.0723C60.903 24.1156 60.8324 24.1725 60.7754 24.2432C60.7207 24.3115 60.6797 24.3901 60.6523 24.479C60.625 24.5656 60.6113 24.6522 60.6113 24.7388C60.6113 24.8481 60.6216 24.9495 60.6421 25.043C60.6626 25.1364 60.6945 25.2264 60.7378 25.313C60.7834 25.3973 60.8415 25.4805 60.9121 25.5625C60.985 25.6445 61.0728 25.73 61.1753 25.8188L60.8848 26.1846C60.7617 26.0934 60.6523 25.9932 60.5566 25.8838C60.4632 25.7744 60.3846 25.6605 60.3208 25.542C60.257 25.4212 60.208 25.297 60.1738 25.1694C60.1419 25.0418 60.126 24.9142 60.126 24.7866C60.126 24.6317 60.1533 24.4801 60.208 24.332C60.2627 24.1816 60.3402 24.0483 60.4404 23.9321C60.543 23.8159 60.666 23.7225 60.8096 23.6519C60.9531 23.5789 61.1138 23.5425 61.2915 23.5425C61.467 23.5425 61.6208 23.5721 61.7529 23.6313C61.8851 23.6906 62.0024 23.7692 62.105 23.8672C62.2075 23.9629 62.2987 24.0734 62.3784 24.1987C62.4604 24.3218 62.5379 24.4482 62.6108 24.5781C62.6838 24.708 62.7567 24.8356 62.8296 24.9609C62.9048 25.084 62.9868 25.1945 63.0757 25.2925C63.1646 25.3882 63.2648 25.4657 63.3765 25.5249C63.4881 25.5841 63.618 25.6138 63.7661 25.6138ZM62.2861 21.2661C62.2132 21.2661 62.1506 21.2923 62.0981 21.3447C62.0457 21.3971 62.0195 21.4598 62.0195 21.5327C62.0195 21.6011 62.0423 21.6626 62.0879 21.7173C62.1335 21.7697 62.1995 21.7959 62.2861 21.7959H62.4946V22.1958H62.293C62.2041 22.1958 62.1164 22.1833 62.0298 22.1582C61.9432 22.1309 61.8669 22.091 61.8008 22.0386C61.7347 21.9862 61.6812 21.9189 61.6401 21.8369C61.5991 21.7549 61.5786 21.658 61.5786 21.5464C61.5786 21.4644 61.5934 21.3926 61.623 21.3311C61.6527 21.2695 61.6868 21.2194 61.7256 21.1807C61.7712 21.1328 61.8201 21.0929 61.8726 21.061C61.8179 21.0291 61.7689 20.9881 61.7256 20.938C61.6868 20.897 61.6527 20.8457 61.623 20.7842C61.5934 20.7204 61.5786 20.6452 61.5786 20.5586C61.5786 20.4538 61.598 20.3626 61.6367 20.2852C61.6777 20.2054 61.7313 20.1393 61.7974 20.0869C61.8657 20.0345 61.9421 19.9958 62.0264 19.9707C62.113 19.9456 62.203 19.9331 62.2964 19.9331H65.1948V20.333H62.2861C62.1995 20.333 62.1335 20.3592 62.0879 20.4116C62.0423 20.4618 62.0195 20.5233 62.0195 20.5962C62.0195 20.6646 62.0446 20.7272 62.0947 20.7842C62.1471 20.8389 62.2109 20.8662 62.2861 20.8662H64.3882V21.2661H62.2861ZM67.7651 23.3169C67.8289 23.3169 67.8905 23.3044 67.9497 23.2793C68.009 23.2542 68.0602 23.2201 68.1035 23.1768C68.1468 23.1335 68.181 23.0822 68.2061 23.0229C68.2334 22.9637 68.2471 22.8999 68.2471 22.8315C68.2471 22.7609 68.2334 22.6971 68.2061 22.6401C68.1787 22.5809 68.14 22.5308 68.0898 22.4897C68.0397 22.4465 67.9805 22.4134 67.9121 22.3906C67.846 22.3656 67.7731 22.353 67.6934 22.353C67.6478 22.353 67.5999 22.3564 67.5498 22.3633C67.502 22.3701 67.453 22.3826 67.4028 22.4009C67.3299 22.5422 67.2935 22.6789 67.2935 22.811C67.2935 22.8885 67.306 22.958 67.3311 23.0195C67.3584 23.0811 67.3937 23.1346 67.437 23.1802C67.4803 23.2235 67.5304 23.2576 67.5874 23.2827C67.6444 23.3055 67.7036 23.3169 67.7651 23.3169ZM72.7793 21.2046C72.8363 21.2046 72.8898 21.1955 72.9399 21.1772C72.9924 21.1567 73.0379 21.1283 73.0767 21.0918C73.1177 21.0553 73.1496 21.0109 73.1724 20.9585C73.1974 20.9061 73.21 20.8468 73.21 20.7808C73.21 20.7329 73.2008 20.6839 73.1826 20.6338C73.1667 20.5837 73.1405 20.5358 73.104 20.4902C73.0675 20.4447 73.022 20.4036 72.9673 20.3672C72.9149 20.3307 72.8522 20.3022 72.7793 20.2817C72.7041 20.3022 72.6392 20.3307 72.5845 20.3672C72.5298 20.4036 72.4842 20.4447 72.4478 20.4902C72.4136 20.5358 72.3885 20.5837 72.3726 20.6338C72.3566 20.6839 72.3486 20.7329 72.3486 20.7808C72.3486 20.8468 72.36 20.9061 72.3828 20.9585C72.4079 21.0109 72.4398 21.0553 72.4785 21.0918C72.5195 21.1283 72.5651 21.1567 72.6152 21.1772C72.6676 21.1955 72.7223 21.2046 72.7793 21.2046ZM71.1011 21.1089C71.0646 21.0474 71.0122 20.9733 70.9438 20.8867C70.8778 20.8001 70.7946 20.717 70.6943 20.6372C70.5964 20.5575 70.4824 20.4891 70.3525 20.4321C70.2249 20.3752 70.0814 20.3467 69.9219 20.3467C69.7783 20.3467 69.6473 20.3604 69.5288 20.3877C69.4103 20.415 69.3089 20.4538 69.2246 20.5039C69.1426 20.554 69.0788 20.6156 69.0332 20.6885C68.9876 20.7591 68.9648 20.84 68.9648 20.9312C68.9648 21.0542 69.0047 21.1545 69.0845 21.2319C69.1665 21.3071 69.2736 21.3755 69.4058 21.437C69.5379 21.4985 69.686 21.5623 69.8501 21.6284C70.0164 21.6922 70.1851 21.7743 70.356 21.8745C70.4425 21.9269 70.5348 21.9896 70.6328 22.0625C70.7331 22.1331 70.8322 22.2152 70.9302 22.3086C71.0282 22.402 71.1216 22.5068 71.2104 22.623C71.3016 22.737 71.3813 22.8634 71.4497 23.0024C71.5203 23.1414 71.5762 23.293 71.6172 23.457C71.6582 23.6188 71.6787 23.7931 71.6787 23.98C71.6787 24.2534 71.6377 24.4961 71.5557 24.708C71.4759 24.9176 71.3654 25.1011 71.2241 25.2583C71.0851 25.4155 70.9222 25.5477 70.7354 25.6548C70.5508 25.7596 70.3537 25.8451 70.144 25.9111C69.9344 25.9772 69.7179 26.0239 69.4946 26.0513C69.2736 26.0809 69.0583 26.0957 68.8486 26.0957C68.6686 26.0957 68.4738 26.0809 68.2642 26.0513C68.0545 26.0216 67.8449 25.9738 67.6353 25.9077C67.4256 25.8394 67.2228 25.7493 67.0269 25.6377C66.8309 25.526 66.6577 25.3882 66.5073 25.2241C66.3569 25.0601 66.2362 24.8675 66.145 24.6465C66.0562 24.4232 66.0117 24.1668 66.0117 23.8774C66.0117 23.6154 66.0584 23.367 66.1519 23.1323C66.2453 22.8976 66.3706 22.6914 66.5278 22.5137C66.6851 22.3359 66.8674 22.1958 67.0747 22.0933C67.2843 21.9884 67.5054 21.936 67.7378 21.936C67.9019 21.936 68.0443 21.9634 68.165 22.0181C68.2858 22.0728 68.3861 22.1445 68.4658 22.2334C68.5456 22.32 68.6048 22.4191 68.6436 22.5308C68.6846 22.6424 68.7051 22.7541 68.7051 22.8657C68.7051 22.9751 68.6823 23.0833 68.6367 23.1904C68.5934 23.2952 68.5308 23.3898 68.4487 23.4741C68.3667 23.5584 68.2676 23.6268 68.1514 23.6792C68.0374 23.7293 67.911 23.7544 67.772 23.7544C67.6398 23.7544 67.519 23.7327 67.4097 23.6895C67.3003 23.6439 67.2057 23.5824 67.126 23.5049C67.0462 23.4274 66.9836 23.3385 66.938 23.2383C66.8947 23.138 66.873 23.0309 66.873 22.917C66.873 22.8851 66.8753 22.8521 66.8799 22.8179C66.8844 22.7837 66.889 22.7518 66.8936 22.7222C66.7477 22.8589 66.6372 23.0161 66.562 23.1938C66.4868 23.3716 66.4492 23.5869 66.4492 23.8398C66.4492 24.054 66.4834 24.2466 66.5518 24.4175C66.6201 24.5884 66.7124 24.7399 66.8286 24.8721C66.9471 25.002 67.085 25.1147 67.2422 25.2104C67.3994 25.3039 67.5669 25.3802 67.7446 25.4395C67.9224 25.4987 68.1047 25.5431 68.2915 25.5728C68.4806 25.6001 68.6663 25.6138 68.8486 25.6138C69.0355 25.6138 69.2235 25.6001 69.4126 25.5728C69.604 25.5454 69.7874 25.5033 69.9629 25.4463C70.1406 25.387 70.3058 25.3141 70.4585 25.2275C70.6112 25.1387 70.7445 25.0339 70.8584 24.9131C70.9723 24.79 71.0623 24.651 71.1284 24.4961C71.1945 24.3389 71.2275 24.1634 71.2275 23.9697C71.2275 23.7601 71.1934 23.5664 71.125 23.3887C71.0589 23.2087 70.9735 23.0469 70.8687 22.9033C70.7661 22.7598 70.651 22.6344 70.5234 22.5273C70.3981 22.418 70.2773 22.328 70.1611 22.2573C70.0358 22.1821 69.9082 22.1172 69.7783 22.0625C69.6507 22.0055 69.5254 21.952 69.4023 21.9019C69.2816 21.8494 69.1665 21.7959 69.0571 21.7412C68.95 21.6865 68.8555 21.6227 68.7734 21.5498C68.6937 21.4769 68.6299 21.3914 68.582 21.2935C68.5365 21.1932 68.5137 21.0724 68.5137 20.9312C68.5137 20.7716 68.5456 20.6281 68.6094 20.5005C68.6755 20.3729 68.7689 20.2646 68.8896 20.1758C69.0104 20.0846 69.1562 20.0151 69.3271 19.9673C69.5003 19.9172 69.6929 19.8921 69.9048 19.8921C70.0734 19.8921 70.2284 19.9149 70.3696 19.9604C70.5109 20.0037 70.6351 20.0573 70.7422 20.1211C70.8516 20.1826 70.9427 20.2487 71.0156 20.3193C71.0885 20.3877 71.141 20.4469 71.1729 20.4971C71.2093 20.4492 71.2594 20.3957 71.3232 20.3364C71.3893 20.2749 71.4679 20.2157 71.5591 20.1587C71.6525 20.0994 71.7573 20.047 71.8735 20.0015C71.9897 19.9536 72.1185 19.9194 72.2598 19.8989C72.1846 19.8237 72.1276 19.744 72.0889 19.6597C72.0524 19.5754 72.0342 19.4819 72.0342 19.3794C72.0342 19.286 72.0524 19.196 72.0889 19.1094C72.1276 19.0205 72.1834 18.9419 72.2563 18.8735C72.3293 18.8052 72.4181 18.7505 72.5229 18.7095C72.63 18.6685 72.7508 18.6479 72.8853 18.6479C73.0083 18.6479 73.1154 18.6685 73.2065 18.7095C73.3 18.7482 73.3797 18.7949 73.4458 18.8496C73.5119 18.9043 73.5643 18.9601 73.603 19.0171C73.644 19.0741 73.6737 19.1196 73.6919 19.1538L73.3535 19.3794C73.2943 19.2928 73.2236 19.2233 73.1416 19.1709C73.0618 19.1162 72.9764 19.0889 72.8853 19.0889C72.8306 19.0889 72.7793 19.098 72.7314 19.1162C72.6836 19.1322 72.6414 19.1549 72.605 19.1846C72.5708 19.2119 72.5435 19.2461 72.5229 19.2871C72.5024 19.3258 72.4922 19.3669 72.4922 19.4102C72.4922 19.5036 72.5207 19.5822 72.5776 19.646C72.6346 19.7075 72.7052 19.7645 72.7896 19.8169C72.8761 19.8693 72.9684 19.9229 73.0664 19.9775C73.1667 20.0299 73.259 20.0926 73.3433 20.1655C73.4299 20.2384 73.5016 20.3262 73.5586 20.4287C73.6156 20.529 73.644 20.6543 73.644 20.8047C73.644 20.9209 73.6224 21.0303 73.5791 21.1328C73.5381 21.2331 73.4788 21.3197 73.4014 21.3926C73.3262 21.4655 73.235 21.5236 73.1279 21.5669C73.0231 21.6079 72.9069 21.6284 72.7793 21.6284C72.6494 21.6284 72.5309 21.6068 72.4238 21.5635C72.319 21.5179 72.229 21.4587 72.1538 21.3857C72.0809 21.3105 72.0239 21.224 71.9829 21.126C71.9419 21.028 71.9214 20.9243 71.9214 20.8149C71.9214 20.742 71.9362 20.6646 71.9658 20.5825C71.9954 20.4982 72.0365 20.4264 72.0889 20.3672V20.3433C71.9727 20.3843 71.869 20.4378 71.7778 20.5039C71.6867 20.57 71.6058 20.6395 71.5352 20.7124C71.4668 20.783 71.4076 20.8548 71.3574 20.9277C71.3073 20.9984 71.2674 21.0588 71.2378 21.1089H71.1011ZM77.3252 26.0957C77.1611 26.0957 77.0107 26.0706 76.874 26.0205C76.7396 25.9727 76.6188 25.9134 76.5117 25.8428C76.4046 25.7699 76.3123 25.6935 76.2349 25.6138C76.1574 25.5317 76.0959 25.4577 76.0503 25.3916C76.0047 25.4577 75.9443 25.5317 75.8691 25.6138C75.7939 25.6935 75.7028 25.7699 75.5957 25.8428C75.4909 25.9134 75.3701 25.9727 75.2334 26.0205C75.099 26.0706 74.9486 26.0957 74.7822 26.0957C74.6113 26.0957 74.4393 26.0615 74.2661 25.9932C74.0929 25.9225 73.9368 25.8154 73.7979 25.6719C73.6589 25.5283 73.5449 25.3483 73.4561 25.1318C73.3695 24.9131 73.3262 24.6545 73.3262 24.356C73.3262 24.1486 73.3558 23.9412 73.415 23.7339C73.4743 23.5265 73.5597 23.3283 73.6714 23.1392C73.7853 22.95 73.922 22.7734 74.0815 22.6094C74.2433 22.4453 74.4245 22.3029 74.625 22.1821C74.8278 22.0614 75.0488 21.9668 75.2881 21.8984C75.5296 21.8301 75.7848 21.7959 76.0537 21.7959C76.3226 21.7959 76.5755 21.8301 76.8125 21.8984C77.0518 21.9668 77.2716 22.0614 77.4722 22.1821C77.6727 22.3029 77.8516 22.4453 78.0088 22.6094C78.166 22.7734 78.2993 22.95 78.4087 23.1392C78.5181 23.3283 78.6012 23.5265 78.6582 23.7339C78.7174 23.9412 78.7471 24.1486 78.7471 24.356C78.7471 24.6545 78.7049 24.9131 78.6206 25.1318C78.5386 25.3483 78.4292 25.5283 78.2925 25.6719C78.158 25.8154 78.0054 25.9225 77.8345 25.9932C77.6659 26.0615 77.4961 26.0957 77.3252 26.0957ZM76.0537 22.2197C75.8486 22.2197 75.6493 22.2459 75.4556 22.2983C75.2642 22.3485 75.0841 22.4202 74.9155 22.5137C74.7492 22.6048 74.5965 22.7142 74.4575 22.8418C74.3185 22.9694 74.1989 23.1107 74.0986 23.2656C74.0007 23.4206 73.9243 23.5858 73.8696 23.7612C73.8149 23.9367 73.7876 24.1178 73.7876 24.3047C73.7876 24.5052 73.8115 24.6864 73.8594 24.8481C73.9095 25.0099 73.9779 25.1478 74.0645 25.2617C74.1533 25.3734 74.2581 25.46 74.3789 25.5215C74.502 25.583 74.6364 25.6138 74.7822 25.6138C74.9076 25.6138 75.0215 25.5967 75.124 25.5625C75.2266 25.526 75.3188 25.4805 75.4009 25.4258C75.4829 25.3688 75.5558 25.305 75.6196 25.2344C75.6834 25.1615 75.7381 25.0885 75.7837 25.0156C75.8315 24.9427 75.8714 24.8721 75.9033 24.8037C75.9375 24.7354 75.9648 24.6772 75.9854 24.6294H76.1221C76.1426 24.6795 76.1688 24.7388 76.2007 24.8071C76.2326 24.8732 76.2725 24.9427 76.3203 25.0156C76.3682 25.0885 76.424 25.1615 76.4878 25.2344C76.5516 25.305 76.6245 25.3688 76.7065 25.4258C76.7886 25.4805 76.8809 25.526 76.9834 25.5625C77.0859 25.5967 77.1999 25.6138 77.3252 25.6138C77.4437 25.6138 77.5542 25.5944 77.6567 25.5557C77.7593 25.5146 77.8516 25.4565 77.9336 25.3813C78.0156 25.3039 78.0851 25.2104 78.1421 25.1011C78.2013 24.9917 78.2458 24.8675 78.2754 24.7285C78.2025 24.7946 78.1227 24.847 78.0361 24.8857C77.9495 24.9245 77.8516 24.9438 77.7422 24.9438C77.6237 24.9438 77.512 24.9199 77.4072 24.8721C77.3024 24.8219 77.2101 24.7559 77.1304 24.6738C77.0529 24.5918 76.9914 24.4972 76.9458 24.3901C76.9002 24.2808 76.8774 24.1657 76.8774 24.0449C76.8774 23.9264 76.9014 23.8148 76.9492 23.71C76.9993 23.6029 77.0654 23.5094 77.1475 23.4297C77.2295 23.3499 77.3241 23.2873 77.4312 23.2417C77.5405 23.1938 77.6545 23.1699 77.7729 23.1699C77.8049 23.1699 77.8368 23.1733 77.8687 23.1802C77.9028 23.1847 77.9336 23.1904 77.9609 23.1973C77.8584 23.0537 77.7388 22.9227 77.6021 22.8042C77.4653 22.6834 77.3149 22.5798 77.1509 22.4932C76.9868 22.4066 76.8125 22.3394 76.6279 22.2915C76.4434 22.2437 76.252 22.2197 76.0537 22.2197ZM77.3457 24.0278C77.3457 24.0939 77.3571 24.1543 77.3799 24.209C77.4049 24.2637 77.438 24.3115 77.479 24.3525C77.52 24.3913 77.569 24.422 77.626 24.4448C77.6829 24.4676 77.7445 24.479 77.8105 24.479C77.8743 24.479 77.9336 24.4676 77.9883 24.4448C78.043 24.422 78.0908 24.3913 78.1318 24.3525C78.1729 24.3138 78.2048 24.2671 78.2275 24.2124C78.2526 24.1577 78.2651 24.0985 78.2651 24.0347C78.2651 23.9731 78.2537 23.915 78.231 23.8604C78.2082 23.8034 78.1763 23.7544 78.1353 23.7134C78.0942 23.6701 78.0464 23.6359 77.9917 23.6108C77.937 23.5858 77.8778 23.5732 77.814 23.5732C77.7502 23.5732 77.6898 23.5846 77.6328 23.6074C77.5758 23.6302 77.5257 23.6621 77.4824 23.7031C77.4414 23.7441 77.4084 23.7931 77.3833 23.8501C77.3582 23.9048 77.3457 23.964 77.3457 24.0278ZM75.1411 21.2661C75.0682 21.2661 75.0055 21.2923 74.9531 21.3447C74.9007 21.3971 74.8745 21.4598 74.8745 21.5327C74.8745 21.6011 74.8973 21.6626 74.9429 21.7173C74.9884 21.7697 75.0545 21.7959 75.1411 21.7959H75.3496V22.1958H75.1479C75.0591 22.1958 74.9714 22.1833 74.8848 22.1582C74.7982 22.1309 74.7218 22.091 74.6558 22.0386C74.5897 21.9862 74.5361 21.9189 74.4951 21.8369C74.4541 21.7549 74.4336 21.658 74.4336 21.5464C74.4336 21.4644 74.4484 21.3926 74.478 21.3311C74.5076 21.2695 74.5418 21.2194 74.5806 21.1807C74.6261 21.1328 74.6751 21.0929 74.7275 21.061C74.6729 21.0291 74.6239 20.9881 74.5806 20.938C74.5418 20.897 74.5076 20.8457 74.478 20.7842C74.4484 20.7204 74.4336 20.6452 74.4336 20.5586C74.4336 20.4538 74.453 20.3626 74.4917 20.2852C74.5327 20.2054 74.5863 20.1393 74.6523 20.0869C74.7207 20.0345 74.797 19.9958 74.8813 19.9707C74.9679 19.9456 75.0579 19.9331 75.1514 19.9331H78.0498V20.333H75.1411C75.0545 20.333 74.9884 20.3592 74.9429 20.4116C74.8973 20.4618 74.8745 20.5233 74.8745 20.5962C74.8745 20.6646 74.8996 20.7272 74.9497 20.7842C75.0021 20.8389 75.0659 20.8662 75.1411 20.8662H77.2432V21.2661H75.1411ZM76.0503 22.1958H75.1548V21.7959H76.0503V22.1958ZM85.7915 25.6138C85.9373 25.6138 86.0706 25.583 86.1914 25.5215C86.3145 25.46 86.4193 25.3734 86.5059 25.2617C86.5947 25.1478 86.6631 25.0099 86.7109 24.8481C86.7611 24.6864 86.7861 24.5052 86.7861 24.3047C86.7861 24.1178 86.7588 23.9355 86.7041 23.7578C86.6494 23.5801 86.5719 23.4137 86.4717 23.2588C86.3737 23.1016 86.2552 22.958 86.1162 22.8281C85.9772 22.6982 85.8234 22.5866 85.6548 22.4932C85.4884 22.3997 85.3084 22.3268 85.1147 22.2744C84.9233 22.222 84.7251 22.1958 84.52 22.1958V21.7959C84.7889 21.7959 85.043 21.8301 85.2822 21.8984C85.5238 21.9668 85.7448 22.0614 85.9453 22.1821C86.1481 22.3029 86.3293 22.4453 86.4888 22.6094C86.6506 22.7734 86.7873 22.95 86.8989 23.1392C87.0129 23.3283 87.0994 23.5265 87.1587 23.7339C87.2179 23.9412 87.2476 24.1486 87.2476 24.356C87.2476 24.6545 87.2031 24.9131 87.1143 25.1318C87.0277 25.3483 86.9149 25.5283 86.7759 25.6719C86.6369 25.8154 86.4808 25.9225 86.3076 25.9932C86.1344 26.0615 85.9624 26.0957 85.7915 26.0957C85.6047 26.0957 85.4417 26.0706 85.3027 26.0205C85.1637 25.9727 85.0441 25.9134 84.9438 25.8428C84.8436 25.7699 84.7593 25.6935 84.6909 25.6138C84.6226 25.5317 84.5656 25.4577 84.52 25.3916C84.4744 25.4577 84.4141 25.5317 84.3389 25.6138C84.2637 25.6935 84.1737 25.7699 84.0688 25.8428C83.964 25.9134 83.8444 25.9727 83.71 26.0205C83.5778 26.0706 83.4297 26.0957 83.2656 26.0957C83.0241 26.0957 82.8156 26.0547 82.6401 25.9727C82.467 25.8906 82.3234 25.7835 82.2095 25.6514C82.0955 25.5192 82.0112 25.3722 81.9565 25.2104C81.9019 25.0487 81.8745 24.8869 81.8745 24.7251C81.8745 24.5929 81.8905 24.4653 81.9224 24.3423C81.9565 24.217 82.001 24.0996 82.0557 23.9902C82.1126 23.8786 82.1776 23.7749 82.2505 23.6792C82.3234 23.5835 82.3997 23.498 82.4795 23.4229H81.3857V23.0093H82.9888L83.1255 23.3716V23.4331C83.0161 23.5037 82.9124 23.5846 82.8145 23.6758C82.7188 23.7669 82.6356 23.8649 82.5649 23.9697C82.4943 24.0745 82.4385 24.1851 82.3975 24.3013C82.3564 24.4152 82.3359 24.5326 82.3359 24.6533C82.3359 24.7536 82.3519 24.8607 82.3838 24.9746C82.4157 25.0863 82.467 25.1899 82.5376 25.2856C82.6105 25.3791 82.7051 25.4577 82.8213 25.5215C82.9375 25.583 83.0799 25.6138 83.2485 25.6138C83.3739 25.6138 83.4878 25.5967 83.5903 25.5625C83.6929 25.526 83.7852 25.4805 83.8672 25.4258C83.9492 25.3688 84.0221 25.305 84.0859 25.2344C84.1497 25.1615 84.2044 25.0885 84.25 25.0156C84.2979 24.9427 84.3377 24.8721 84.3696 24.8037C84.4038 24.7354 84.4312 24.6772 84.4517 24.6294H84.5884C84.6089 24.6795 84.6351 24.7388 84.667 24.8071C84.6989 24.8732 84.7388 24.9427 84.7866 25.0156C84.8345 25.0885 84.8903 25.1615 84.9541 25.2344C85.0179 25.305 85.0908 25.3688 85.1729 25.4258C85.2549 25.4805 85.3472 25.526 85.4497 25.5625C85.5522 25.5967 85.6662 25.6138 85.7915 25.6138ZM85.3232 20.9756H81.5293V20.5757H85.3232V20.9756ZM85.6753 22.1958H83.6108V21.7959H85.6753V22.1958ZM87.1724 21.3857C87.1724 21.2559 87.1188 21.1556 87.0117 21.085C86.9069 21.012 86.769 20.9756 86.5981 20.9756H84.9849V20.5757H86.2803C86.2074 20.5028 86.1527 20.4253 86.1162 20.3433C86.082 20.2612 86.0649 20.1689 86.0649 20.0664C86.0649 19.973 86.0832 19.883 86.1196 19.7964C86.1584 19.7075 86.2142 19.6289 86.2871 19.5605C86.36 19.4922 86.4489 19.4375 86.5537 19.3965C86.6608 19.3555 86.7816 19.335 86.916 19.335C87.0391 19.335 87.1462 19.3555 87.2373 19.3965C87.3307 19.4352 87.4105 19.4819 87.4766 19.5366C87.5426 19.5913 87.5951 19.6471 87.6338 19.7041C87.6748 19.7611 87.7044 19.8066 87.7227 19.8408L87.3843 20.0664C87.325 19.9798 87.2544 19.9103 87.1724 19.8579C87.0926 19.8032 87.0072 19.7759 86.916 19.7759C86.8613 19.7759 86.8101 19.785 86.7622 19.8032C86.7144 19.8192 86.6722 19.842 86.6357 19.8716C86.6016 19.8989 86.5742 19.9331 86.5537 19.9741C86.5332 20.0129 86.5229 20.0539 86.5229 20.0972C86.5229 20.1906 86.5514 20.2681 86.6084 20.3296C86.6654 20.3911 86.736 20.4469 86.8203 20.4971C86.9069 20.5449 86.9992 20.5928 87.0972 20.6406C87.1951 20.6885 87.2852 20.7466 87.3672 20.8149C87.4766 20.9084 87.5472 21.0063 87.5791 21.1089C87.6133 21.2091 87.6304 21.3014 87.6304 21.3857C87.6304 21.527 87.6007 21.6489 87.5415 21.7515C87.4823 21.854 87.4036 21.9383 87.3057 22.0044C87.21 22.0705 87.1006 22.1195 86.9775 22.1514C86.8545 22.181 86.728 22.1958 86.5981 22.1958H85.6787V21.7959H86.5981C86.7713 21.7959 86.9103 21.7606 87.0151 21.6899C87.12 21.617 87.1724 21.5156 87.1724 21.3857ZM90.3647 26.0957C90.0685 26.0957 89.7894 26.0399 89.5273 25.9282C89.2653 25.8143 89.0363 25.6605 88.8403 25.4668C88.6466 25.2708 88.4928 25.043 88.3789 24.7832C88.265 24.5212 88.208 24.242 88.208 23.9458C88.208 23.6496 88.265 23.3716 88.3789 23.1118C88.4928 22.8498 88.6466 22.6219 88.8403 22.4282C89.0363 22.2323 89.2653 22.0785 89.5273 21.9668C89.7894 21.8529 90.0685 21.7959 90.3647 21.7959C90.661 21.7959 90.9401 21.8529 91.2021 21.9668C91.4642 22.0785 91.6921 22.2323 91.8857 22.4282C92.0817 22.6219 92.2367 22.8498 92.3506 23.1118C92.4645 23.3716 92.5215 23.6496 92.5215 23.9458C92.5215 24.0028 92.5192 24.0597 92.5146 24.1167C92.5101 24.1714 92.5033 24.2249 92.4941 24.2773C92.5283 24.4801 92.5785 24.6647 92.6445 24.8311C92.7106 24.9951 92.7915 25.1353 92.8872 25.2515C92.9852 25.3677 93.0991 25.4577 93.229 25.5215C93.3612 25.583 93.5116 25.6138 93.6802 25.6138C93.826 25.6138 93.9593 25.583 94.0801 25.5215C94.2031 25.46 94.3079 25.3734 94.3945 25.2617C94.4834 25.1478 94.5518 25.0099 94.5996 24.8481C94.6497 24.6864 94.6748 24.5052 94.6748 24.3047C94.6748 24.0632 94.6372 23.8307 94.562 23.6074C94.4891 23.3841 94.3854 23.1813 94.251 22.999C94.1165 22.8145 93.9536 22.6549 93.7622 22.5205C93.5708 22.3861 93.3577 22.2869 93.123 22.2231L93.1846 21.7959C93.3464 21.8278 93.5059 21.8813 93.6631 21.9565C93.8226 22.0295 93.973 22.1217 94.1143 22.2334C94.2578 22.3428 94.39 22.4704 94.5107 22.6162C94.6338 22.762 94.7397 22.9227 94.8286 23.0981C94.9198 23.2713 94.9915 23.4582 95.0439 23.6587C95.0986 23.8569 95.1283 24.0654 95.1328 24.2842C95.167 24.487 95.2171 24.6704 95.2832 24.8345C95.3493 24.9985 95.4313 25.1387 95.5293 25.2549C95.6273 25.3688 95.7412 25.4577 95.8711 25.5215C96.0033 25.583 96.1525 25.6138 96.3188 25.6138C96.4647 25.6138 96.598 25.583 96.7188 25.5215C96.8418 25.46 96.9466 25.3734 97.0332 25.2617C97.1221 25.1478 97.1904 25.0099 97.2383 24.8481C97.2884 24.6864 97.3135 24.5052 97.3135 24.3047C97.3135 24.0632 97.2759 23.8307 97.2007 23.6074C97.1278 23.3841 97.0241 23.1813 96.8896 22.999C96.7552 22.8145 96.5923 22.6549 96.4009 22.5205C96.2095 22.3861 95.9964 22.2869 95.7617 22.2231L95.8232 21.7959C95.9896 21.8278 96.1525 21.8825 96.312 21.96C96.4738 22.0352 96.6265 22.1297 96.77 22.2437C96.9159 22.3576 97.0492 22.4897 97.1699 22.6401C97.293 22.7905 97.3989 22.9557 97.4878 23.1357C97.5789 23.3135 97.6496 23.5049 97.6997 23.71C97.7498 23.915 97.7749 24.1304 97.7749 24.356C97.7749 24.6522 97.7316 24.9097 97.645 25.1284C97.5607 25.3449 97.4491 25.5249 97.3101 25.6685C97.1711 25.812 97.015 25.9191 96.8418 25.9897C96.6686 26.0604 96.4943 26.0957 96.3188 26.0957C96.1183 26.0957 95.9429 26.0684 95.7925 26.0137C95.6444 25.959 95.5156 25.8895 95.4062 25.8052C95.2992 25.7209 95.2091 25.6274 95.1362 25.5249C95.0656 25.4201 95.0086 25.3198 94.9653 25.2241C94.8993 25.3722 94.8184 25.501 94.7227 25.6104C94.6292 25.7197 94.5256 25.8109 94.4116 25.8838C94.3 25.9544 94.1815 26.0068 94.0562 26.041C93.9308 26.0775 93.8055 26.0957 93.6802 26.0957C93.5184 26.0957 93.3737 26.0775 93.2461 26.041C93.1185 26.0046 93.0046 25.9567 92.9043 25.8975C92.804 25.8382 92.7174 25.7699 92.6445 25.6924C92.5716 25.6149 92.509 25.5363 92.4565 25.4565C92.4041 25.3768 92.3597 25.2982 92.3232 25.2207C92.2891 25.141 92.2617 25.0692 92.2412 25.0054C92.1478 25.1694 92.035 25.3187 91.9028 25.4531C91.7707 25.5853 91.6237 25.6992 91.4619 25.7949C91.3024 25.8906 91.1292 25.9647 90.9424 26.0171C90.7578 26.0695 90.5653 26.0957 90.3647 26.0957ZM90.3647 22.1958C90.1278 22.1958 89.9056 22.2414 89.6982 22.3325C89.4932 22.4214 89.3143 22.5433 89.1616 22.6982C89.009 22.8532 88.8882 23.0355 88.7993 23.2451C88.7127 23.4525 88.6694 23.6746 88.6694 23.9116C88.6694 24.1486 88.7127 24.3708 88.7993 24.5781C88.8882 24.7832 89.009 24.9632 89.1616 25.1182C89.3143 25.2708 89.4932 25.3916 89.6982 25.4805C89.9056 25.5693 90.1278 25.6138 90.3647 25.6138C90.6017 25.6138 90.8228 25.5693 91.0278 25.4805C91.2352 25.3916 91.4152 25.2708 91.5679 25.1182C91.7205 24.9632 91.8402 24.7832 91.9268 24.5781C92.0156 24.3708 92.0601 24.1486 92.0601 23.9116C92.0601 23.6746 92.0156 23.4525 91.9268 23.2451C91.8402 23.0355 91.7205 22.8532 91.5679 22.6982C91.4152 22.5433 91.2352 22.4214 91.0278 22.3325C90.8228 22.2414 90.6017 22.1958 90.3647 22.1958ZM93.2598 22.2231H93.123L91.9849 21.0474V21.0132L92.3506 20.6885L93.1914 21.7241L94.6304 20.0288L94.9961 20.3535V20.3877L93.2598 22.2231ZM100.755 22.2231C100.521 22.2231 100.301 22.2676 100.096 22.3564C99.8929 22.443 99.7152 22.5627 99.5625 22.7153C99.4121 22.868 99.2936 23.0469 99.207 23.252C99.1204 23.457 99.0771 23.6769 99.0771 23.9116C99.0771 24.1463 99.1204 24.3674 99.207 24.5747C99.2936 24.7798 99.4121 24.9598 99.5625 25.1147C99.7152 25.2674 99.8929 25.3893 100.096 25.4805C100.301 25.5693 100.521 25.6138 100.755 25.6138C100.99 25.6138 101.209 25.5693 101.412 25.4805C101.617 25.3893 101.794 25.2674 101.945 25.1147C102.097 24.9598 102.217 24.7798 102.304 24.5747C102.39 24.3674 102.434 24.1463 102.434 23.9116C102.434 23.6769 102.39 23.457 102.304 23.252C102.217 23.0469 102.097 22.868 101.945 22.7153C101.794 22.5627 101.617 22.443 101.412 22.3564C101.209 22.2676 100.99 22.2231 100.755 22.2231ZM100.755 26.0957C100.459 26.0957 100.18 26.0399 99.918 25.9282C99.6559 25.8143 99.4269 25.6605 99.231 25.4668C99.0373 25.2708 98.8835 25.043 98.7695 24.7832C98.6556 24.5212 98.5986 24.242 98.5986 23.9458C98.5986 23.6496 98.6556 23.3716 98.7695 23.1118C98.8835 22.8498 99.0373 22.6219 99.231 22.4282C99.4269 22.2323 99.6559 22.0785 99.918 21.9668C100.18 21.8529 100.459 21.7959 100.755 21.7959C101.052 21.7959 101.331 21.8529 101.593 21.9668C101.855 22.0785 102.083 22.2323 102.276 22.4282C102.472 22.6219 102.627 22.8498 102.741 23.1118C102.855 23.3716 102.912 23.6496 102.912 23.9458C102.912 24.242 102.855 24.5212 102.741 24.7832C102.627 25.043 102.472 25.2708 102.276 25.4668C102.083 25.6605 101.855 25.8143 101.593 25.9282C101.331 26.0399 101.052 26.0957 100.755 26.0957ZM107.731 26.0957C107.567 26.0957 107.417 26.0706 107.28 26.0205C107.146 25.9727 107.025 25.9134 106.918 25.8428C106.811 25.7699 106.719 25.6935 106.641 25.6138C106.564 25.5317 106.502 25.4577 106.457 25.3916C106.411 25.4577 106.351 25.5317 106.275 25.6138C106.2 25.6935 106.109 25.7699 106.002 25.8428C105.897 25.9134 105.776 25.9727 105.64 26.0205C105.505 26.0706 105.355 26.0957 105.188 26.0957C105.018 26.0957 104.846 26.0615 104.672 25.9932C104.499 25.9225 104.343 25.8154 104.204 25.6719C104.065 25.5283 103.951 25.3483 103.862 25.1318C103.776 24.9131 103.732 24.6545 103.732 24.356C103.732 24.1486 103.762 23.9412 103.821 23.7339C103.881 23.5265 103.966 23.3283 104.078 23.1392C104.192 22.95 104.328 22.7734 104.488 22.6094C104.65 22.4453 104.831 22.3029 105.031 22.1821C105.234 22.0614 105.455 21.9668 105.694 21.8984C105.936 21.8301 106.191 21.7959 106.46 21.7959C106.729 21.7959 106.982 21.8301 107.219 21.8984C107.458 21.9668 107.678 22.0614 107.878 22.1821C108.079 22.3029 108.258 22.4453 108.415 22.6094C108.572 22.7734 108.706 22.95 108.815 23.1392C108.924 23.3283 109.007 23.5265 109.064 23.7339C109.124 23.9412 109.153 24.1486 109.153 24.356C109.153 24.6545 109.111 24.9131 109.027 25.1318C108.945 25.3483 108.835 25.5283 108.699 25.6719C108.564 25.8154 108.412 25.9225 108.241 25.9932C108.072 26.0615 107.902 26.0957 107.731 26.0957ZM106.46 22.2197C106.255 22.2197 106.056 22.2459 105.862 22.2983C105.67 22.3485 105.49 22.4202 105.322 22.5137C105.155 22.6048 105.003 22.7142 104.864 22.8418C104.725 22.9694 104.605 23.1107 104.505 23.2656C104.407 23.4206 104.331 23.5858 104.276 23.7612C104.221 23.9367 104.194 24.1178 104.194 24.3047C104.194 24.5052 104.218 24.6864 104.266 24.8481C104.316 25.0099 104.384 25.1478 104.471 25.2617C104.56 25.3734 104.664 25.46 104.785 25.5215C104.908 25.583 105.043 25.6138 105.188 25.6138C105.314 25.6138 105.428 25.5967 105.53 25.5625C105.633 25.526 105.725 25.4805 105.807 25.4258C105.889 25.3688 105.962 25.305 106.026 25.2344C106.09 25.1615 106.144 25.0885 106.19 25.0156C106.238 24.9427 106.278 24.8721 106.31 24.8037C106.344 24.7354 106.371 24.6772 106.392 24.6294H106.528C106.549 24.6795 106.575 24.7388 106.607 24.8071C106.639 24.8732 106.679 24.9427 106.727 25.0156C106.774 25.0885 106.83 25.1615 106.894 25.2344C106.958 25.305 107.031 25.3688 107.113 25.4258C107.195 25.4805 107.287 25.526 107.39 25.5625C107.492 25.5967 107.606 25.6138 107.731 25.6138C107.85 25.6138 107.96 25.5944 108.063 25.5557C108.166 25.5146 108.258 25.4565 108.34 25.3813C108.422 25.3039 108.491 25.2104 108.548 25.1011C108.608 24.9917 108.652 24.8675 108.682 24.7285C108.609 24.7946 108.529 24.847 108.442 24.8857C108.356 24.9245 108.258 24.9438 108.148 24.9438C108.03 24.9438 107.918 24.9199 107.813 24.8721C107.709 24.8219 107.616 24.7559 107.537 24.6738C107.459 24.5918 107.398 24.4972 107.352 24.3901C107.306 24.2808 107.284 24.1657 107.284 24.0449C107.284 23.9264 107.308 23.8148 107.355 23.71C107.406 23.6029 107.472 23.5094 107.554 23.4297C107.636 23.3499 107.73 23.2873 107.837 23.2417C107.947 23.1938 108.061 23.1699 108.179 23.1699C108.211 23.1699 108.243 23.1733 108.275 23.1802C108.309 23.1847 108.34 23.1904 108.367 23.1973C108.265 23.0537 108.145 22.9227 108.008 22.8042C107.872 22.6834 107.721 22.5798 107.557 22.4932C107.393 22.4066 107.219 22.3394 107.034 22.2915C106.85 22.2437 106.658 22.2197 106.46 22.2197ZM107.752 24.0278C107.752 24.0939 107.763 24.1543 107.786 24.209C107.811 24.2637 107.844 24.3115 107.885 24.3525C107.926 24.3913 107.975 24.422 108.032 24.4448C108.089 24.4676 108.151 24.479 108.217 24.479C108.281 24.479 108.34 24.4676 108.395 24.4448C108.449 24.422 108.497 24.3913 108.538 24.3525C108.579 24.3138 108.611 24.2671 108.634 24.2124C108.659 24.1577 108.671 24.0985 108.671 24.0347C108.671 23.9731 108.66 23.915 108.637 23.8604C108.614 23.8034 108.583 23.7544 108.542 23.7134C108.5 23.6701 108.453 23.6359 108.398 23.6108C108.343 23.5858 108.284 23.5732 108.22 23.5732C108.156 23.5732 108.096 23.5846 108.039 23.6074C107.982 23.6302 107.932 23.6621 107.889 23.7031C107.848 23.7441 107.815 23.7931 107.79 23.8501C107.764 23.9048 107.752 23.964 107.752 24.0278ZM105.493 20.6611C105.493 20.5267 105.527 20.4082 105.595 20.3057C105.664 20.2031 105.752 20.1165 105.862 20.0459C105.971 19.9753 106.093 19.9229 106.228 19.8887C106.362 19.8522 106.496 19.834 106.631 19.834C106.825 19.834 107.003 19.8647 107.167 19.9263C107.334 19.9878 107.476 20.071 107.595 20.1758C107.713 20.2806 107.806 20.4036 107.872 20.5449C107.94 20.6839 107.974 20.832 107.974 20.9893C107.974 21.1465 107.934 21.2992 107.854 21.4473C107.777 21.5931 107.668 21.723 107.526 21.8369C107.385 21.9486 107.216 22.0386 107.021 22.1069C106.825 22.1753 106.61 22.2095 106.378 22.2095C106.237 22.2095 106.093 22.1958 105.947 22.1685C105.801 22.1388 105.665 22.1035 105.537 22.0625C105.41 22.0215 105.294 21.9782 105.192 21.9326C105.092 21.887 105.014 21.8472 104.959 21.813L105.147 21.4302C105.211 21.4712 105.289 21.5133 105.38 21.5566C105.473 21.5999 105.574 21.6398 105.681 21.6763C105.79 21.7104 105.903 21.7389 106.019 21.7617C106.138 21.7845 106.253 21.7959 106.364 21.7959C106.517 21.7959 106.663 21.7765 106.802 21.7378C106.943 21.6968 107.067 21.641 107.174 21.5703C107.281 21.4974 107.367 21.4119 107.431 21.314C107.494 21.216 107.526 21.1077 107.526 20.9893C107.526 20.8913 107.501 20.7979 107.451 20.709C107.403 20.6201 107.338 20.5415 107.256 20.4731C107.174 20.4048 107.079 20.3501 106.969 20.3091C106.862 20.2681 106.749 20.2476 106.631 20.2476C106.512 20.2476 106.41 20.2601 106.323 20.2852C106.239 20.3079 106.168 20.3398 106.111 20.3809C106.057 20.4196 106.016 20.464 105.988 20.5142C105.963 20.562 105.951 20.611 105.951 20.6611C105.951 20.7227 105.967 20.7728 105.999 20.8115C106.03 20.8503 106.068 20.881 106.111 20.9038C106.157 20.9243 106.204 20.9391 106.251 20.9482C106.299 20.9551 106.339 20.9585 106.371 20.9585C106.414 20.9585 106.462 20.9539 106.515 20.9448C106.567 20.9334 106.618 20.9186 106.668 20.9004C106.719 20.8822 106.766 20.8605 106.812 20.8354C106.86 20.8104 106.901 20.7819 106.935 20.75L107.164 21.0679C107.118 21.1203 107.065 21.1659 107.003 21.2046C106.944 21.2433 106.879 21.2764 106.809 21.3037C106.738 21.3311 106.665 21.3516 106.59 21.3652C106.515 21.3789 106.442 21.3857 106.371 21.3857C106.255 21.3857 106.143 21.3675 106.036 21.3311C105.931 21.2946 105.838 21.2445 105.756 21.1807C105.676 21.1146 105.612 21.0371 105.564 20.9482C105.517 20.8594 105.493 20.7637 105.493 20.6611Z" fill="black" fill-opacity="0.6063"/>
<defs>
<filter id="filter0_dd_976_1891" x="11.0938" y="7.25" width="11.8125" height="5.625" filterUnits="userSpaceOnUse" color-interpolation-filters="sRGB">
<feFlood flood-opacity="0" result="BackgroundImageFix"/>
<feColorMatrix in="SourceAlpha" type="matrix" values="0 0 0 0 0 0 0 0 0 0 0 0 0 0 0 0 0 0 127 0" result="hardAlpha"/>
<feOffset dy="0.1875"/>
<feGaussianBlur stdDeviation="0.1875"/>
<feColorMatrix type="matrix" values="0 0 0 0 0 0 0 0 0 0 0 0 0 0 0 0 0 0 0.1 0"/>
<feBlend mode="normal" in2="BackgroundImageFix" result="effect1_dropShadow_976_1891"/>
<feColorMatrix in="SourceAlpha" type="matrix" values="0 0 0 0 0 0 0 0 0 0 0 0 0 0 0 0 0 0 127 0" result="hardAlpha"/>
<feOffset dy="0.375"/>
<feGaussianBlur stdDeviation="0.5625"/>
<feColorMatrix type="matrix" values="0 0 0 0 0 0 0 0 0 0 0 0 0 0 0 0 0 0 0.2 0"/>
<feBlend mode="normal" in2="effect1_dropShadow_976_1891" result="effect2_dropShadow_976_1891"/>
<feBlend mode="normal" in="SourceGraphic" in2="effect2_dropShadow_976_1891" result="shape"/>
</filter>
<filter id="filter1_dd_976_1891" x="12.2188" y="13.4375" width="9.5625" height="9.5625" filterUnits="userSpaceOnUse" color-interpolation-filters="sRGB">
<feFlood flood-opacity="0" result="BackgroundImageFix"/>
<feColorMatrix in="SourceAlpha" type="matrix" values="0 0 0 0 0 0 0 0 0 0 0 0 0 0 0 0 0 0 127 0" result="hardAlpha"/>
<feOffset dy="0.1875"/>
<feGaussianBlur stdDeviation="0.1875"/>
<feColorMatrix type="matrix" values="0 0 0 0 0 0 0 0 0 0 0 0 0 0 0 0 0 0 0.1 0"/>
<feBlend mode="normal" in2="BackgroundImageFix" result="effect1_dropShadow_976_1891"/>
<feColorMatrix in="SourceAlpha" type="matrix" values="0 0 0 0 0 0 0 0 0 0 0 0 0 0 0 0 0 0 127 0" result="hardAlpha"/>
<feOffset dy="0.375"/>
<feGaussianBlur stdDeviation="0.5625"/>
<feColorMatrix type="matrix" values="0 0 0 0 0 0 0 0 0 0 0 0 0 0 0 0 0 0 0.2 0"/>
<feBlend mode="normal" in2="effect1_dropShadow_976_1891" result="effect2_dropShadow_976_1891"/>
<feBlend mode="normal" in="SourceGraphic" in2="effect2_dropShadow_976_1891" result="shape"/>
</filter>
<filter id="filter2_dd_976_1891" x="10.5939" y="6.6875" width="12.8124" height="5.06274" filterUnits="userSpaceOnUse" color-interpolation-filters="sRGB">
<feFlood flood-opacity="0" result="BackgroundImageFix"/>
<feColorMatrix in="SourceAlpha" type="matrix" values="0 0 0 0 0 0 0 0 0 0 0 0 0 0 0 0 0 0 127 0" result="hardAlpha"/>
<feOffset dy="-0.75"/>
<feGaussianBlur stdDeviation="0.1875"/>
<feColorMatrix type="matrix" values="0 0 0 0 0 0 0 0 0 0 0 0 0 0 0 0 0 0 0.1 0"/>
<feBlend mode="normal" in2="BackgroundImageFix" result="effect1_dropShadow_976_1891"/>
<feColorMatrix in="SourceAlpha" type="matrix" values="0 0 0 0 0 0 0 0 0 0 0 0 0 0 0 0 0 0 127 0" result="hardAlpha"/>
<feOffset dy="-0.75"/>
<feGaussianBlur stdDeviation="0.5625"/>
<feColorMatrix type="matrix" values="0 0 0 0 0 0 0 0 0 0 0 0 0 0 0 0 0 0 0.2 0"/>
<feBlend mode="normal" in2="effect1_dropShadow_976_1891" result="effect2_dropShadow_976_1891"/>
<feBlend mode="normal" in="SourceGraphic" in2="effect2_dropShadow_976_1891" result="shape"/>
</filter>
<linearGradient id="paint0_linear_976_1891" x1="17" y1="10.25" x2="20.3514" y2="25.9624" gradientUnits="userSpaceOnUse">
<stop stop-color="#0669BC"/>
<stop offset="1" stop-color="#243A5F"/>
</linearGradient>
<linearGradient id="paint1_linear_976_1891" x1="17" y1="10.25" x2="20.3514" y2="25.9624" gradientUnits="userSpaceOnUse">
<stop stop-color="#0078D4"/>
<stop offset="1" stop-color="#114A8B"/>
</linearGradient>
<linearGradient id="paint2_linear_976_1891" x1="17" y1="8.5625" x2="17.1583" y2="10.9858" gradientUnits="userSpaceOnUse">
<stop stop-color="#28AFEA"/>
<stop offset="1" stop-color="#0078D4"/>
</linearGradient>
<linearGradient id="paint3_linear_976_1891" x1="17" y1="8.5625" x2="17.1583" y2="10.9858" gradientUnits="userSpaceOnUse">
<stop stop-color="#30DAFF"/>
<stop offset="1" stop-color="#0094D4"/>
</linearGradient>
<linearGradient id="paint4_linear_976_1891" x1="16.5938" y1="8" x2="16.5937" y2="9.125" gradientUnits="userSpaceOnUse">
<stop stop-color="#22BCFF"/>
<stop offset="1" stop-color="#0088F0"/>
</linearGradient>
<linearGradient id="paint5_linear_976_1891" x1="16.5938" y1="8" x2="16.5937" y2="9.125" gradientUnits="userSpaceOnUse">
<stop stop-color="#28AFEA"/>
<stop offset="1" stop-color="#3CCBF4"/>
</linearGradient>
<clipPath id="clip0_976_1891">
<rect width="18" height="18" fill="white" transform="translate(8 8)"/>
</clipPath>
<clipPath id="clip1_976_1891">
<rect width="18" height="18" fill="white" transform="translate(8 8)"/>
</clipPath>
</defs>
</svg>
