<svg width="116" height="34" viewBox="0 0 116 34" fill="none" xmlns="http://www.w3.org/2000/svg">
<rect x="1" y="1" width="114" height="32" rx="4" fill="#202020"/>
<rect x="0.5" y="0.5" width="115" height="33" rx="4.5" stroke="black" stroke-opacity="0.1"/>
<g clip-path="url(#clip0_976_1894)">
<g clip-path="url(#clip1_976_1894)">
<path d="M8.28125 11C8.28125 10.5858 8.61704 10.25 9.03125 10.25H24.9687C25.383 10.25 25.7188 10.5858 25.7188 11V22.3438C25.7188 24.0524 24.3336 25.4375 22.625 25.4375H11.375C9.66637 25.4375 8.28125 24.0524 8.28125 22.3438V11Z" fill="url(#paint0_linear_976_1894)"/>
<mask id="mask0_976_1894" style="mask-type:alpha" maskUnits="userSpaceOnUse" x="8" y="10" width="18" height="16">
<path d="M8.28125 11C8.28125 10.5858 8.61704 10.25 9.03125 10.25H24.9687C25.383 10.25 25.7188 10.5858 25.7188 11V22.3438C25.7188 24.0524 24.3336 25.4375 22.625 25.4375H11.375C9.66637 25.4375 8.28125 24.0524 8.28125 22.3438V11Z" fill="url(#paint1_linear_976_1894)"/>
</mask>
<g mask="url(#mask0_976_1894)">
<g filter="url(#filter0_dd_976_1894)">
<path d="M12.7812 10.8125V8.5625H21.2187V10.8125" stroke="url(#paint2_linear_976_1894)" stroke-width="1.125" stroke-linecap="round"/>
</g>
</g>
<g filter="url(#filter1_dd_976_1894)">
<path d="M16.719 14.1875H13.344V17.5625H16.719V14.1875Z" fill="#F25022"/>
<path d="M20.6562 14.1875H17.2812V17.5625H20.6562V14.1875Z" fill="#7FBA00"/>
<path d="M20.6562 18.125H17.2812V21.5H20.6562V18.125Z" fill="#FFB900"/>
<path d="M16.7188 18.125H13.3438V21.5H16.7188V18.125Z" fill="#00A4EF"/>
</g>
<path d="M12.7812 10.8125V9.125C12.7812 8.81434 13.0331 8.5625 13.3438 8.5625H20.6563C20.9669 8.5625 21.2188 8.81434 21.2188 9.125V10.8125" stroke="url(#paint3_linear_976_1894)" stroke-width="1.125" stroke-linecap="round"/>
<rect x="13.3438" y="8" width="7.3125" height="1.125" fill="url(#paint4_linear_976_1894)"/>
<mask id="mask1_976_1894" style="mask-type:alpha" maskUnits="userSpaceOnUse" x="13" y="8" width="8" height="2">
<rect x="13.3438" y="8" width="7.3125" height="1.125" fill="url(#paint5_linear_976_1894)"/>
</mask>
<g mask="url(#mask1_976_1894)">
<g filter="url(#filter2_dd_976_1894)">
<rect x="11.7189" y="8.56274" width="1.625" height="2.8125" fill="#C4C4C4"/>
</g>
</g>
</g>
</g>
<path d="M31.876 13.07C31.5027 13.07 31.2087 12.9837 30.994 12.811C30.784 12.6337 30.6347 12.3957 30.546 12.097C30.462 11.7983 30.42 11.4693 30.42 11.11C30.42 10.7133 30.4597 10.3867 30.539 10.13C30.623 9.86867 30.7397 9.66333 30.889 9.514C31.043 9.36 31.225 9.25267 31.435 9.192C31.6497 9.12667 31.8853 9.094 32.142 9.094C32.5153 9.094 32.8187 9.15 33.052 9.262C33.29 9.36933 33.465 9.52333 33.577 9.724C33.689 9.92467 33.745 10.165 33.745 10.445V13H33.129V10.501C33.129 10.2117 33.0567 9.99233 32.912 9.843C32.7673 9.689 32.5177 9.612 32.163 9.612C31.9483 9.612 31.7547 9.65167 31.582 9.731C31.414 9.81033 31.281 9.95733 31.183 10.172C31.0897 10.3867 31.043 10.7017 31.043 11.117C31.043 11.3877 31.0687 11.6327 31.12 11.852C31.176 12.0667 31.2717 12.237 31.407 12.363C31.5423 12.489 31.7313 12.552 31.974 12.552C32.044 12.552 32.1093 12.5473 32.17 12.538C32.2307 12.5287 32.289 12.5147 32.345 12.496L32.408 12.979C32.3333 13.0117 32.247 13.035 32.149 13.049C32.0557 13.063 31.9647 13.07 31.876 13.07ZM35.9655 13V10.277C35.9655 10.0483 35.9118 9.88033 35.8045 9.773C35.7018 9.66567 35.5268 9.612 35.2795 9.612C35.1115 9.612 34.9528 9.63533 34.8035 9.682C34.6588 9.724 34.5188 9.78467 34.3835 9.864V9.304C34.4768 9.25733 34.6098 9.21067 34.7825 9.164C34.9551 9.11733 35.1605 9.094 35.3985 9.094C35.6411 9.094 35.8511 9.129 36.0285 9.199C36.2058 9.269 36.3435 9.38567 36.4415 9.549C36.5395 9.70767 36.5885 9.92 36.5885 10.186V13H35.9655ZM38.4942 13.07C38.3122 13.07 38.1349 13.0513 37.9622 13.014C37.7942 12.9767 37.6146 12.9067 37.4232 12.804L37.6192 12.328C37.7219 12.3887 37.8386 12.4423 37.9692 12.489C38.0999 12.531 38.2516 12.552 38.4242 12.552C38.7696 12.552 39.0379 12.426 39.2292 12.174C39.4252 11.9173 39.5232 11.5487 39.5232 11.068C39.5232 10.5967 39.4229 10.2373 39.2222 9.99C39.0262 9.738 38.7229 9.612 38.3122 9.612C38.1629 9.612 38.0112 9.62833 37.8572 9.661C37.7032 9.69367 37.5679 9.74267 37.4512 9.808V9.283C37.5866 9.213 37.7336 9.164 37.8922 9.136C38.0556 9.108 38.2189 9.094 38.3822 9.094C38.8022 9.094 39.1429 9.178 39.4042 9.346C39.6656 9.50933 39.8569 9.738 39.9782 10.032C40.0996 10.326 40.1602 10.6713 40.1602 11.068C40.1602 11.684 40.0202 12.1717 39.7402 12.531C39.4649 12.8903 39.0496 13.07 38.4942 13.07ZM42.4925 13.07C42.2172 13.07 41.9792 13.0233 41.7785 12.93C41.5825 12.832 41.4309 12.685 41.3235 12.489C41.2209 12.293 41.1695 12.0387 41.1695 11.726V9.164H41.7925V11.691C41.7925 11.971 41.8625 12.1833 42.0025 12.328C42.1472 12.4727 42.3549 12.545 42.6255 12.545C42.9522 12.545 43.2042 12.44 43.3815 12.23C43.5635 12.02 43.6545 11.7377 43.6545 11.383V9.164H44.2775V13H43.7595L43.7315 12.433H43.6965C43.6125 12.6197 43.4655 12.7737 43.2555 12.895C43.0502 13.0117 42.7959 13.07 42.4925 13.07ZM43.1245 8.758C43.0918 8.70667 43.0662 8.64133 43.0475 8.562C43.0242 8.478 43.0125 8.39633 43.0125 8.317C43.0125 8.219 43.0335 8.128 43.0755 8.044C43.1175 7.95533 43.1922 7.883 43.2995 7.827C43.4068 7.771 43.5562 7.743 43.7475 7.743H44.7065V8.226H43.9085C43.8152 8.226 43.7405 8.24467 43.6845 8.282C43.6285 8.31467 43.6005 8.373 43.6005 8.457C43.6005 8.48967 43.6075 8.52467 43.6215 8.562C43.6308 8.59933 43.6448 8.63667 43.6635 8.674L43.1245 8.758ZM45.6655 9.864V8.492C45.6655 8.212 45.5978 8.01133 45.4625 7.89C45.3318 7.76867 45.1638 7.708 44.9585 7.708V7.442L45.4765 7.218H47.3455V7.708H45.9245L45.9175 7.736C46.0202 7.806 46.1065 7.91333 46.1765 8.058C46.2512 8.198 46.2885 8.38233 46.2885 8.611V9.864H45.6655ZM46.4285 13.07C46.3025 13.07 46.1812 13.049 46.0645 13.007C45.9478 12.965 45.8522 12.8903 45.7775 12.783C45.7028 12.6757 45.6655 12.5263 45.6655 12.335V9.164H46.2885V12.258C46.2885 12.3653 46.3118 12.4423 46.3585 12.489C46.4052 12.5357 46.4798 12.559 46.5825 12.559C46.6245 12.559 46.6688 12.5543 46.7155 12.545C46.7622 12.5357 46.8065 12.524 46.8485 12.51L46.9325 12.965C46.8438 13.007 46.7575 13.035 46.6735 13.049C46.5895 13.063 46.5078 13.07 46.4285 13.07ZM47.6718 13V9.164H48.2948V10.823H48.3158L49.9118 9.164H50.6398V9.185L48.2948 11.558V13H47.6718ZM50.0518 13V11.649C50.0518 11.3737 49.9678 11.159 49.7998 11.005C49.6318 10.851 49.3542 10.774 48.9668 10.774L49.3308 10.319C49.6248 10.319 49.8698 10.3727 50.0658 10.48C50.2665 10.5827 50.4182 10.732 50.5208 10.928C50.6235 11.124 50.6748 11.3597 50.6748 11.635V13H50.0518ZM53.9712 13V10.445C53.9712 10.1417 53.9012 9.927 53.7612 9.801C53.6259 9.67033 53.3972 9.605 53.0752 9.605C52.8419 9.605 52.6179 9.63767 52.4032 9.703C52.1932 9.76367 51.9926 9.85 51.8012 9.962V9.381C51.9366 9.311 52.1186 9.24567 52.3472 9.185C52.5806 9.12433 52.8419 9.094 53.1312 9.094C53.3786 9.094 53.5932 9.122 53.7752 9.178C53.9572 9.22933 54.1066 9.30867 54.2232 9.416C54.3446 9.52333 54.4356 9.661 54.4962 9.829C54.5569 9.99233 54.5872 10.186 54.5872 10.41V13H53.9712ZM52.7672 13.07C52.3566 13.07 52.0416 12.9767 51.8222 12.79C51.6076 12.5987 51.5002 12.3257 51.5002 11.971C51.5002 11.5837 51.6402 11.285 51.9202 11.075C52.2049 10.865 52.6646 10.7413 53.2992 10.704L54.0972 10.655V11.173L53.3832 11.222C52.9072 11.2547 52.5782 11.3293 52.3962 11.446C52.2189 11.5627 52.1302 11.733 52.1302 11.957C52.1302 12.167 52.1956 12.321 52.3262 12.419C52.4616 12.517 52.6482 12.566 52.8862 12.566C52.9656 12.566 53.0379 12.5613 53.1032 12.552C53.1686 12.538 53.2316 12.5217 53.2922 12.503L53.3902 12.972C53.3016 13.0047 53.2036 13.028 53.0962 13.042C52.9936 13.0607 52.8839 13.07 52.7672 13.07ZM57.0323 13.07C56.6589 13.07 56.3649 12.9837 56.1503 12.811C55.9403 12.6337 55.7909 12.3957 55.7023 12.097C55.6183 11.7983 55.5763 11.4693 55.5763 11.11C55.5763 10.7133 55.6159 10.3867 55.6953 10.13C55.7793 9.86867 55.8959 9.66333 56.0453 9.514C56.1993 9.36 56.3813 9.25267 56.5913 9.192C56.8059 9.12667 57.0416 9.094 57.2983 9.094C57.6716 9.094 57.9749 9.15 58.2083 9.262C58.4463 9.36933 58.6213 9.52333 58.7333 9.724C58.8453 9.92467 58.9013 10.165 58.9013 10.445V13H58.2853V10.501C58.2853 10.2117 58.2129 9.99233 58.0683 9.843C57.9236 9.689 57.6739 9.612 57.3193 9.612C57.1046 9.612 56.9109 9.65167 56.7383 9.731C56.5703 9.81033 56.4373 9.95733 56.3393 10.172C56.2459 10.3867 56.1993 10.7017 56.1993 11.117C56.1993 11.3877 56.2249 11.6327 56.2763 11.852C56.3323 12.0667 56.4279 12.237 56.5633 12.363C56.6986 12.489 56.8876 12.552 57.1303 12.552C57.2003 12.552 57.2656 12.5473 57.3263 12.538C57.3869 12.5287 57.4453 12.5147 57.5013 12.496L57.5643 12.979C57.4896 13.0117 57.4033 13.035 57.3053 13.049C57.2119 13.063 57.1209 13.07 57.0323 13.07ZM60.4987 13V11.292H59.9667V10.802H61.0937V12.496H61.1847C61.3947 12.496 61.5697 12.4493 61.7097 12.356C61.8497 12.2627 61.9547 12.111 62.0247 11.901C62.0947 11.691 62.1297 11.4133 62.1297 11.068C62.1297 10.7227 62.0901 10.4427 62.0107 10.228C61.9361 10.0133 61.8124 9.857 61.6397 9.759C61.4717 9.661 61.2431 9.612 60.9537 9.612C60.7344 9.612 60.5221 9.64233 60.3167 9.703C60.1161 9.759 59.9224 9.84767 59.7357 9.969V9.388C59.8757 9.304 60.0601 9.234 60.2887 9.178C60.5174 9.122 60.7647 9.094 61.0307 9.094C61.4554 9.094 61.7937 9.17333 62.0457 9.332C62.3024 9.486 62.4867 9.71 62.5987 10.004C62.7107 10.298 62.7667 10.655 62.7667 11.075C62.7667 11.481 62.7107 11.8287 62.5987 12.118C62.4914 12.4027 62.3141 12.622 62.0667 12.776C61.8241 12.9253 61.4974 13 61.0867 13H60.4987ZM64.8473 13V10.277C64.8473 10.0483 64.7936 9.88033 64.6863 9.773C64.5836 9.66567 64.4086 9.612 64.1613 9.612C63.9933 9.612 63.8346 9.63533 63.6853 9.682C63.5406 9.724 63.4006 9.78467 63.2653 9.864V9.304C63.3586 9.25733 63.4916 9.21067 63.6643 9.164C63.837 9.11733 64.0423 9.094 64.2803 9.094C64.523 9.094 64.733 9.129 64.9103 9.199C65.0876 9.269 65.2253 9.38567 65.3233 9.549C65.4213 9.70767 65.4703 9.92 65.4703 10.186V13H64.8473ZM66.5711 13V11.67C66.5711 11.376 66.6364 11.1637 66.7671 11.033C66.8977 10.8977 67.0634 10.8043 67.2641 10.753L67.2711 10.732L66.5011 10.438V10.207C66.5011 10.0157 66.5641 9.836 66.6901 9.668C66.8161 9.49533 66.9957 9.35767 67.2291 9.255C67.4671 9.14767 67.7494 9.094 68.0761 9.094C68.3607 9.094 68.6244 9.14067 68.8671 9.234C69.1097 9.32267 69.3034 9.465 69.4481 9.661C69.5974 9.85233 69.6721 10.1043 69.6721 10.417V13H69.0491V10.48C69.0491 10.1673 68.9534 9.94567 68.7621 9.815C68.5754 9.67967 68.3444 9.612 68.0691 9.612C67.7844 9.612 67.5581 9.67267 67.3901 9.794C67.2221 9.91067 67.1381 10.06 67.1381 10.242L67.8941 10.62L67.8381 10.956C67.6654 10.956 67.5137 11.0143 67.3831 11.131C67.2571 11.243 67.1941 11.4227 67.1941 11.67V13H66.5711Z" fill="white" fill-opacity="0.786"/>
<path d="M39.2275 25H37.96V20.0854C37.96 19.8634 37.9653 19.6217 37.9761 19.3604C37.9904 19.0954 38.0083 18.8143 38.0298 18.5171H37.9976C37.9546 18.7212 37.9134 18.8966 37.874 19.0435C37.8382 19.1867 37.8024 19.3013 37.7666 19.3872L35.5054 25H34.6245L32.3525 19.4355C32.3239 19.3568 32.2881 19.2404 32.2451 19.0864C32.2057 18.9325 32.1628 18.7427 32.1162 18.5171H32.084C32.1055 18.7749 32.1198 19.0488 32.127 19.3389C32.1341 19.6253 32.1377 19.9279 32.1377 20.2466V25H30.9561V17.2979H32.7607L34.7642 22.3037C34.8429 22.4935 34.9074 22.6689 34.9575 22.8301C35.0112 22.9876 35.0524 23.1344 35.0811 23.2705H35.1133C35.1777 23.0664 35.2386 22.882 35.2959 22.7173C35.3532 22.5526 35.4069 22.4093 35.457 22.2876L37.4873 17.2979H39.2275V25ZM41.6177 18.4365C41.3885 18.4365 41.1987 18.3631 41.0483 18.2163C40.8979 18.0695 40.8228 17.8887 40.8228 17.6738C40.8228 17.4518 40.8979 17.2692 41.0483 17.126C41.1987 16.9827 41.3885 16.9111 41.6177 16.9111C41.8504 16.9111 42.042 16.9827 42.1924 17.126C42.3428 17.2692 42.418 17.4518 42.418 17.6738C42.418 17.8923 42.3428 18.0749 42.1924 18.2217C42.042 18.3649 41.8504 18.4365 41.6177 18.4365ZM42.2354 25H40.9839V19.5H42.2354V25ZM47.9824 24.6616C47.7103 24.8263 47.4399 24.9445 47.1714 25.0161C46.9028 25.0913 46.611 25.1289 46.2959 25.1289C45.4508 25.1289 44.7741 24.8818 44.2656 24.3877C43.7607 23.8936 43.5083 23.2222 43.5083 22.3735C43.5083 21.4604 43.7697 20.7318 44.2925 20.1875C44.8188 19.6432 45.5278 19.3711 46.4194 19.3711C46.731 19.3711 47.0138 19.4051 47.2681 19.4731C47.5259 19.5376 47.7873 19.645 48.0522 19.7954L47.5635 20.6655C47.3773 20.5617 47.1947 20.4865 47.0156 20.4399C46.8366 20.3898 46.6414 20.3647 46.4302 20.3647C45.9038 20.3647 45.4974 20.5384 45.2109 20.8857C44.9245 21.2331 44.7812 21.6932 44.7812 22.2661C44.7812 22.8677 44.9352 23.3296 45.2432 23.6519C45.5547 23.9741 45.945 24.1353 46.4141 24.1353C46.5573 24.1353 46.722 24.1102 46.9082 24.0601C47.0944 24.0063 47.2824 23.9222 47.4722 23.8076L47.9824 24.6616ZM52.1021 20.5474C52.034 20.5295 51.9678 20.5169 51.9033 20.5098C51.8424 20.499 51.7708 20.4937 51.6885 20.4937C51.2409 20.4937 50.8971 20.6584 50.6572 20.9878C50.4173 21.3172 50.2974 21.7469 50.2974 22.2769V25H49.0459V19.5H50.2974V20.5581H50.3188C50.4478 20.1785 50.6375 19.8921 50.8882 19.6987C51.1388 19.5018 51.4342 19.4033 51.7744 19.4033C51.8711 19.4033 51.957 19.4087 52.0322 19.4194C52.111 19.4302 52.1862 19.4463 52.2578 19.4678L52.1021 20.5474ZM55.5557 25.1289C54.6963 25.1289 54.0142 24.8729 53.5093 24.3608C53.008 23.8452 52.7573 23.1559 52.7573 22.293C52.7609 21.3799 53.0223 20.6655 53.5415 20.1499C54.0607 19.6307 54.7679 19.3711 55.6631 19.3711C56.526 19.3675 57.1992 19.6217 57.6826 20.1338C58.1696 20.6423 58.4131 21.3315 58.4131 22.2017C58.4131 23.0968 58.1553 23.8094 57.6396 24.3394C57.1276 24.8657 56.4329 25.1289 55.5557 25.1289ZM55.6147 24.1353C56.1125 24.1353 56.4902 23.9723 56.748 23.6465C57.0094 23.3206 57.1401 22.8498 57.1401 22.2339C57.1401 21.6252 57.0094 21.1615 56.748 20.8428C56.4867 20.5241 56.1071 20.3647 55.6094 20.3647C55.1188 20.3647 54.7321 20.533 54.4492 20.8696C54.1699 21.2062 54.0303 21.6717 54.0303 22.2661C54.0303 22.8641 54.1699 23.326 54.4492 23.6519C54.7285 23.9741 55.117 24.1353 55.6147 24.1353ZM59.1543 24.5596L59.6968 23.6787C59.9116 23.8291 60.139 23.9508 60.3789 24.0439C60.6224 24.1335 60.8856 24.1782 61.1685 24.1782C61.4764 24.1782 61.7145 24.1227 61.8828 24.0117C62.0547 23.8971 62.1406 23.7271 62.1406 23.5015C62.1406 23.3224 62.069 23.1738 61.9258 23.0557C61.7861 22.9339 61.5462 22.8337 61.2061 22.7549C60.5186 22.5938 60.0352 22.3807 59.7559 22.1157C59.4801 21.8507 59.3423 21.5016 59.3423 21.0684C59.3423 20.5706 59.5356 20.1642 59.9224 19.8491C60.3091 19.5304 60.8158 19.3711 61.4424 19.3711C61.7539 19.3711 62.0511 19.4123 62.334 19.4946C62.6169 19.5734 62.8926 19.7005 63.1611 19.876L62.6562 20.7354C62.4199 20.585 62.2033 20.4775 62.0063 20.4131C61.8094 20.3486 61.6071 20.3164 61.3994 20.3164C61.1058 20.3164 60.8766 20.3719 60.7119 20.4829C60.5508 20.5903 60.4702 20.7407 60.4702 20.9341C60.4702 21.1382 60.5526 21.2904 60.7173 21.3906C60.8856 21.4873 61.1667 21.5822 61.5605 21.6753C62.1549 21.8185 62.59 22.0262 62.8657 22.2983C63.1414 22.5669 63.2793 22.9268 63.2793 23.3779C63.2793 23.9115 63.0841 24.3376 62.6938 24.6562C62.3071 24.9714 61.7826 25.1289 61.1201 25.1289C60.762 25.1289 60.4183 25.0824 60.0889 24.9893C59.763 24.8926 59.4515 24.7493 59.1543 24.5596ZM66.8779 25.1289C66.0186 25.1289 65.3364 24.8729 64.8315 24.3608C64.3302 23.8452 64.0796 23.1559 64.0796 22.293C64.0832 21.3799 64.3446 20.6655 64.8638 20.1499C65.383 19.6307 66.0902 19.3711 66.9854 19.3711C67.8483 19.3675 68.5215 19.6217 69.0049 20.1338C69.4919 20.6423 69.7354 21.3315 69.7354 22.2017C69.7354 23.0968 69.4775 23.8094 68.9619 24.3394C68.4499 24.8657 67.7552 25.1289 66.8779 25.1289ZM66.937 24.1353C67.4347 24.1353 67.8125 23.9723 68.0703 23.6465C68.3317 23.3206 68.4624 22.8498 68.4624 22.2339C68.4624 21.6252 68.3317 21.1615 68.0703 20.8428C67.8089 20.5241 67.4294 20.3647 66.9316 20.3647C66.4411 20.3647 66.0544 20.533 65.7715 20.8696C65.4922 21.2062 65.3525 21.6717 65.3525 22.2661C65.3525 22.8641 65.4922 23.326 65.7715 23.6519C66.0508 23.9741 66.4393 24.1353 66.937 24.1353ZM73.9839 17.8403C73.8836 17.8009 73.7923 17.7741 73.71 17.7598C73.6276 17.7419 73.5381 17.7329 73.4414 17.7329C73.1764 17.7329 72.9759 17.8099 72.8398 17.9639C72.7074 18.1143 72.6411 18.3327 72.6411 18.6191V19.5H73.9141V20.4775H72.6411V25H71.395V20.4775H70.4604V19.5H71.395V18.5547C71.395 17.9961 71.5741 17.5539 71.9321 17.228C72.2938 16.8986 72.7718 16.7339 73.3662 16.7339C73.5524 16.7339 73.7135 16.7464 73.8496 16.7715C73.9857 16.7965 74.1271 16.8324 74.2739 16.8789L73.9839 17.8403ZM77.7974 24.9248C77.6362 24.9928 77.4679 25.043 77.2925 25.0752C77.117 25.1074 76.929 25.1235 76.7285 25.1235C76.2201 25.1235 75.828 24.9893 75.5522 24.7207C75.2801 24.4486 75.144 24.0439 75.144 23.5068V20.4775H74.2202V19.5H75.144V18.1626L76.3901 17.7866V19.5H77.7061V20.4775H76.3901V23.4048C76.3901 23.6733 76.4385 23.8667 76.5352 23.9849C76.6354 24.103 76.7894 24.1621 76.9971 24.1621C77.0973 24.1621 77.1922 24.1514 77.2817 24.1299C77.3748 24.1048 77.4572 24.0744 77.5288 24.0386L77.7974 24.9248ZM81.2939 24.4468L81.8633 23.4639C82.2106 23.6787 82.5347 23.8309 82.8354 23.9204C83.1362 24.0063 83.4728 24.0493 83.8452 24.0493C84.2892 24.0493 84.6383 23.9544 84.8926 23.7646C85.1504 23.5713 85.2793 23.2956 85.2793 22.9375C85.2793 22.6117 85.1719 22.3556 84.957 22.1694C84.7458 21.9797 84.3859 21.806 83.8774 21.6484C83.0933 21.4157 82.5168 21.1274 82.1479 20.7837C81.7791 20.4399 81.5947 19.9744 81.5947 19.3872C81.5947 18.7498 81.8328 18.2217 82.3091 17.8027C82.7853 17.3802 83.4316 17.1689 84.248 17.1689C84.6061 17.1689 84.9588 17.2083 85.3062 17.2871C85.6535 17.3659 85.9972 17.4876 86.3374 17.6523L85.8594 18.6729C85.5622 18.5189 85.2775 18.4097 85.0054 18.3452C84.7368 18.2808 84.4629 18.2485 84.1836 18.2485C83.7754 18.2485 83.4531 18.3381 83.2168 18.5171C82.984 18.6961 82.8677 18.9486 82.8677 19.2744C82.8677 19.5645 82.9751 19.7936 83.1899 19.9619C83.4048 20.1266 83.7736 20.2896 84.2964 20.4507C85.0985 20.6906 85.675 20.9896 86.0259 21.3477C86.3804 21.7057 86.5576 22.1981 86.5576 22.8247C86.5576 23.4979 86.3177 24.0511 85.8379 24.4844C85.3581 24.9141 84.6742 25.1289 83.7861 25.1289C83.3421 25.1289 82.9089 25.0734 82.4863 24.9624C82.0638 24.8478 81.6663 24.6759 81.2939 24.4468ZM90.4409 24.9248C90.2798 24.9928 90.1115 25.043 89.936 25.0752C89.7606 25.1074 89.5726 25.1235 89.3721 25.1235C88.8636 25.1235 88.4715 24.9893 88.1958 24.7207C87.9237 24.4486 87.7876 24.0439 87.7876 23.5068V20.4775H86.8638V19.5H87.7876V18.1626L89.0337 17.7866V19.5H90.3496V20.4775H89.0337V23.4048C89.0337 23.6733 89.082 23.8667 89.1787 23.9849C89.279 24.103 89.4329 24.1621 89.6406 24.1621C89.7409 24.1621 89.8358 24.1514 89.9253 24.1299C90.0184 24.1048 90.1007 24.0744 90.1724 24.0386L90.4409 24.9248ZM93.8623 25.1289C93.0029 25.1289 92.3208 24.8729 91.8159 24.3608C91.3146 23.8452 91.064 23.1559 91.064 22.293C91.0675 21.3799 91.3289 20.6655 91.8481 20.1499C92.3674 19.6307 93.0745 19.3711 93.9697 19.3711C94.8327 19.3675 95.5059 19.6217 95.9893 20.1338C96.4762 20.6423 96.7197 21.3315 96.7197 22.2017C96.7197 23.0968 96.4619 23.8094 95.9463 24.3394C95.4342 24.8657 94.7396 25.1289 93.8623 25.1289ZM93.9214 24.1353C94.4191 24.1353 94.7969 23.9723 95.0547 23.6465C95.3161 23.3206 95.4468 22.8498 95.4468 22.2339C95.4468 21.6252 95.3161 21.1615 95.0547 20.8428C94.7933 20.5241 94.4137 20.3647 93.916 20.3647C93.4255 20.3647 93.0387 20.533 92.7559 20.8696C92.4766 21.2062 92.3369 21.6717 92.3369 22.2661C92.3369 22.8641 92.4766 23.326 92.7559 23.6519C93.0352 23.9741 93.4237 24.1353 93.9214 24.1353ZM101.054 20.5474C100.986 20.5295 100.92 20.5169 100.855 20.5098C100.795 20.499 100.723 20.4937 100.641 20.4937C100.193 20.4937 99.8493 20.6584 99.6094 20.9878C99.3695 21.3172 99.2495 21.7469 99.2495 22.2769V25H97.998V19.5H99.2495V20.5581H99.271C99.3999 20.1785 99.5897 19.8921 99.8403 19.6987C100.091 19.5018 100.386 19.4033 100.727 19.4033C100.823 19.4033 100.909 19.4087 100.984 19.4194C101.063 19.4302 101.138 19.4463 101.21 19.4678L101.054 20.5474ZM106.721 22.5776H102.966C102.988 23.0968 103.138 23.4925 103.417 23.7646C103.697 24.0332 104.087 24.1675 104.588 24.1675C104.792 24.1675 105.025 24.1263 105.287 24.0439C105.548 23.9616 105.806 23.8291 106.06 23.6465L106.624 24.4253C106.284 24.6724 105.938 24.8514 105.587 24.9624C105.236 25.0734 104.85 25.1289 104.427 25.1289C103.571 25.1289 102.905 24.8836 102.429 24.3931C101.953 23.8989 101.713 23.2096 101.709 22.3252C101.709 21.4443 101.955 20.7318 102.445 20.1875C102.939 19.6432 103.571 19.3711 104.341 19.3711C105.079 19.3711 105.659 19.6038 106.082 20.0693C106.508 20.5312 106.721 21.1865 106.721 22.0352V22.5776ZM105.512 21.7129C105.512 21.2402 105.408 20.8857 105.201 20.6494C104.997 20.4095 104.707 20.2896 104.331 20.2896C103.976 20.2896 103.674 20.4185 103.423 20.6763C103.176 20.9305 103.024 21.276 102.966 21.7129H105.512Z" fill="white"/>
<defs>
<filter id="filter0_dd_976_1894" x="11.0938" y="7.25" width="11.8125" height="5.625" filterUnits="userSpaceOnUse" color-interpolation-filters="sRGB">
<feFlood flood-opacity="0" result="BackgroundImageFix"/>
<feColorMatrix in="SourceAlpha" type="matrix" values="0 0 0 0 0 0 0 0 0 0 0 0 0 0 0 0 0 0 127 0" result="hardAlpha"/>
<feOffset dy="0.1875"/>
<feGaussianBlur stdDeviation="0.1875"/>
<feColorMatrix type="matrix" values="0 0 0 0 0 0 0 0 0 0 0 0 0 0 0 0 0 0 0.1 0"/>
<feBlend mode="normal" in2="BackgroundImageFix" result="effect1_dropShadow_976_1894"/>
<feColorMatrix in="SourceAlpha" type="matrix" values="0 0 0 0 0 0 0 0 0 0 0 0 0 0 0 0 0 0 127 0" result="hardAlpha"/>
<feOffset dy="0.375"/>
<feGaussianBlur stdDeviation="0.5625"/>
<feColorMatrix type="matrix" values="0 0 0 0 0 0 0 0 0 0 0 0 0 0 0 0 0 0 0.2 0"/>
<feBlend mode="normal" in2="effect1_dropShadow_976_1894" result="effect2_dropShadow_976_1894"/>
<feBlend mode="normal" in="SourceGraphic" in2="effect2_dropShadow_976_1894" result="shape"/>
</filter>
<filter id="filter1_dd_976_1894" x="12.2188" y="13.4375" width="9.5625" height="9.5625" filterUnits="userSpaceOnUse" color-interpolation-filters="sRGB">
<feFlood flood-opacity="0" result="BackgroundImageFix"/>
<feColorMatrix in="SourceAlpha" type="matrix" values="0 0 0 0 0 0 0 0 0 0 0 0 0 0 0 0 0 0 127 0" result="hardAlpha"/>
<feOffset dy="0.1875"/>
<feGaussianBlur stdDeviation="0.1875"/>
<feColorMatrix type="matrix" values="0 0 0 0 1 0 0 0 0 1 0 0 0 0 1 0 0 0 0.6 0"/>
<feBlend mode="normal" in2="BackgroundImageFix" result="effect1_dropShadow_976_1894"/>
<feColorMatrix in="SourceAlpha" type="matrix" values="0 0 0 0 0 0 0 0 0 0 0 0 0 0 0 0 0 0 127 0" result="hardAlpha"/>
<feOffset dy="0.375"/>
<feGaussianBlur stdDeviation="0.5625"/>
<feColorMatrix type="matrix" values="0 0 0 0 1 0 0 0 0 1 0 0 0 0 1 0 0 0 0.6 0"/>
<feBlend mode="normal" in2="effect1_dropShadow_976_1894" result="effect2_dropShadow_976_1894"/>
<feBlend mode="normal" in="SourceGraphic" in2="effect2_dropShadow_976_1894" result="shape"/>
</filter>
<filter id="filter2_dd_976_1894" x="10.5939" y="6.6875" width="12.8124" height="5.06274" filterUnits="userSpaceOnUse" color-interpolation-filters="sRGB">
<feFlood flood-opacity="0" result="BackgroundImageFix"/>
<feColorMatrix in="SourceAlpha" type="matrix" values="0 0 0 0 0 0 0 0 0 0 0 0 0 0 0 0 0 0 127 0" result="hardAlpha"/>
<feOffset dy="-0.75"/>
<feGaussianBlur stdDeviation="0.1875"/>
<feColorMatrix type="matrix" values="0 0 0 0 0 0 0 0 0 0 0 0 0 0 0 0 0 0 0.1 0"/>
<feBlend mode="normal" in2="BackgroundImageFix" result="effect1_dropShadow_976_1894"/>
<feColorMatrix in="SourceAlpha" type="matrix" values="0 0 0 0 0 0 0 0 0 0 0 0 0 0 0 0 0 0 127 0" result="hardAlpha"/>
<feOffset dy="-0.75"/>
<feGaussianBlur stdDeviation="0.5625"/>
<feColorMatrix type="matrix" values="0 0 0 0 0 0 0 0 0 0 0 0 0 0 0 0 0 0 0.2 0"/>
<feBlend mode="normal" in2="effect1_dropShadow_976_1894" result="effect2_dropShadow_976_1894"/>
<feBlend mode="normal" in="SourceGraphic" in2="effect2_dropShadow_976_1894" result="shape"/>
</filter>
<linearGradient id="paint0_linear_976_1894" x1="12.2443" y1="8.00639" x2="15.9039" y2="24.8132" gradientUnits="userSpaceOnUse">
<stop offset="0.270833" stop-color="white"/>
<stop offset="1" stop-color="#DFDFDF"/>
</linearGradient>
<linearGradient id="paint1_linear_976_1894" x1="17" y1="10.25" x2="20.3514" y2="25.9624" gradientUnits="userSpaceOnUse">
<stop stop-color="#0078D4"/>
<stop offset="1" stop-color="#114A8B"/>
</linearGradient>
<linearGradient id="paint2_linear_976_1894" x1="17" y1="8.5625" x2="17.1583" y2="10.9858" gradientUnits="userSpaceOnUse">
<stop stop-color="#28AFEA"/>
<stop offset="1" stop-color="#0078D4"/>
</linearGradient>
<linearGradient id="paint3_linear_976_1894" x1="17" y1="8.5625" x2="17.1583" y2="10.9858" gradientUnits="userSpaceOnUse">
<stop stop-color="#30DAFF"/>
<stop offset="1" stop-color="#0094D4"/>
</linearGradient>
<linearGradient id="paint4_linear_976_1894" x1="16.5938" y1="8" x2="16.5937" y2="9.125" gradientUnits="userSpaceOnUse">
<stop stop-color="#22BCFF"/>
<stop offset="1" stop-color="#0088F0"/>
</linearGradient>
<linearGradient id="paint5_linear_976_1894" x1="16.5938" y1="8" x2="16.5937" y2="9.125" gradientUnits="userSpaceOnUse">
<stop stop-color="#28AFEA"/>
<stop offset="1" stop-color="#3CCBF4"/>
</linearGradient>
<clipPath id="clip0_976_1894">
<rect width="18" height="18" fill="white" transform="translate(8 8)"/>
</clipPath>
<clipPath id="clip1_976_1894">
<rect width="18" height="18" fill="white" transform="translate(8 8)"/>
</clipPath>
</defs>
</svg>
