<svg width="90" height="32" viewBox="0 0 90 32" fill="none" xmlns="http://www.w3.org/2000/svg">
<rect x="0.5" y="0.5" width="89" height="31" rx="3.5" fill="white" fill-opacity="0.7"/>
<path d="M15.5559 7H7V15.5608H15.5559V7Z" fill="#F25022"/>
<path d="M25.0001 7H16.4442V15.5608H25.0001V7Z" fill="#7FBA00"/>
<path d="M15.5559 16.4395H7V25.0002H15.5559V16.4395Z" fill="#00A4EF"/>
<path d="M25.0002 16.4395H16.4443V25.0002H25.0002V16.4395Z" fill="#FFB900"/>
<path d="M30.88 13.08C30.5653 13.08 30.272 13.0507 30 12.992C29.7333 12.928 29.5067 12.8533 29.32 12.768L29.528 12.192C29.64 12.2347 29.768 12.28 29.912 12.328C30.056 12.376 30.2107 12.416 30.376 12.448C30.5467 12.4747 30.72 12.488 30.896 12.488C31.1787 12.488 31.4133 12.4347 31.6 12.328C31.7867 12.2213 31.88 12.0667 31.88 11.864C31.88 11.7413 31.8453 11.6373 31.776 11.552C31.712 11.4613 31.6107 11.3787 31.472 11.304C31.3333 11.2293 31.1547 11.1573 30.936 11.088C30.6 10.9813 30.3147 10.8693 30.08 10.752C29.8507 10.6293 29.6747 10.4853 29.552 10.32C29.4347 10.1493 29.376 9.93867 29.376 9.688C29.376 9.464 29.4347 9.26667 29.552 9.096C29.6747 8.92 29.8613 8.784 30.112 8.688C30.368 8.58667 30.6933 8.536 31.088 8.536C31.344 8.536 31.584 8.56 31.808 8.608C32.0373 8.65067 32.216 8.712 32.344 8.792V9.392C32.2533 9.34933 32.1387 9.30667 32 9.264C31.8667 9.22133 31.72 9.18667 31.56 9.16C31.4 9.13333 31.2347 9.12 31.064 9.12C30.7067 9.12 30.4533 9.176 30.304 9.288C30.16 9.39467 30.088 9.51733 30.088 9.656C30.088 9.77333 30.12 9.872 30.184 9.952C30.2533 10.032 30.368 10.1093 30.528 10.184C30.6933 10.2587 30.9147 10.344 31.192 10.44C31.448 10.5253 31.6827 10.624 31.896 10.736C32.1093 10.848 32.2773 10.9893 32.4 11.16C32.528 11.3253 32.592 11.5387 32.592 11.8C32.592 12.024 32.536 12.2347 32.424 12.432C32.3173 12.624 32.1387 12.7813 31.888 12.904C31.6373 13.0213 31.3013 13.08 30.88 13.08ZM31.5689 7.92C31.3449 7.92 31.1662 7.888 31.0329 7.824C30.8995 7.76 30.8035 7.67733 30.7449 7.576C30.6809 7.47467 30.6489 7.368 30.6489 7.256C30.6489 7.176 30.6622 7.09067 30.6889 7C30.7102 6.904 30.7395 6.82667 30.7769 6.768L31.3769 6.872C31.3662 6.89333 31.3555 6.93067 31.3449 6.984C31.3342 7.032 31.3289 7.07733 31.3289 7.12C31.3289 7.18933 31.3502 7.25067 31.3929 7.304C31.4355 7.352 31.5075 7.376 31.6089 7.376H33.6329V7.92H31.5689ZM35.3143 13.08C34.6849 13.08 34.2343 12.936 33.9622 12.648C33.6902 12.36 33.5543 11.9493 33.5543 11.416V8.616H34.2663V11.424C34.2663 11.7813 34.3516 12.048 34.5223 12.224C34.6929 12.4 34.9569 12.488 35.3143 12.488C35.6769 12.488 35.9436 12.4 36.1143 12.224C36.2903 12.048 36.3783 11.7813 36.3783 11.424V8.616H37.0903V11.416C37.0903 11.9493 36.9516 12.36 36.6743 12.648C36.4023 12.936 35.9489 13.08 35.3143 13.08ZM38.9104 13V11.048H38.3024V10.488H39.5904V12.424H39.6944C39.9344 12.424 40.1344 12.3707 40.2944 12.264C40.4544 12.1573 40.5744 11.984 40.6544 11.744C40.7344 11.504 40.7744 11.1867 40.7744 10.792C40.7744 10.3973 40.729 10.0773 40.6384 9.832C40.553 9.58667 40.4117 9.408 40.2144 9.296C40.0224 9.184 39.761 9.128 39.4304 9.128C39.1797 9.128 38.937 9.16267 38.7024 9.232C38.473 9.296 38.2517 9.39733 38.0384 9.536V8.872C38.1984 8.776 38.409 8.696 38.6704 8.632C38.9317 8.568 39.2144 8.536 39.5184 8.536C40.0037 8.536 40.3904 8.62667 40.6784 8.808C40.9717 8.984 41.1824 9.24 41.3104 9.576C41.4384 9.912 41.5024 10.32 41.5024 10.8C41.5024 11.264 41.4384 11.6613 41.3104 11.992C41.1877 12.3173 40.985 12.568 40.7024 12.744C40.425 12.9147 40.0517 13 39.5824 13H38.9104ZM43.8802 13V9.888C43.8802 9.62667 43.8189 9.43467 43.6962 9.312C43.5789 9.18933 43.3789 9.128 43.0962 9.128C42.9042 9.128 42.7229 9.15467 42.5522 9.208C42.3869 9.256 42.2269 9.32533 42.0722 9.416V8.776C42.1789 8.72267 42.3309 8.66933 42.5282 8.616C42.7255 8.56267 42.9602 8.536 43.2322 8.536C43.5095 8.536 43.7495 8.576 43.9522 8.656C44.1549 8.736 44.3122 8.86933 44.4242 9.056C44.5362 9.23733 44.5922 9.48 44.5922 9.784V13H43.8802ZM45.8502 13V11.48C45.8502 11.144 45.9249 10.9013 46.0742 10.752C46.2235 10.5973 46.4129 10.4907 46.6422 10.432L46.6502 10.408L45.7702 10.072V9.808C45.7702 9.58933 45.8422 9.384 45.9862 9.192C46.1302 8.99467 46.3355 8.83733 46.6022 8.72C46.8742 8.59733 47.1969 8.536 47.5702 8.536C47.8955 8.536 48.1969 8.58933 48.4742 8.696C48.7515 8.79733 48.9729 8.96 49.1382 9.184C49.3089 9.40267 49.3942 9.69067 49.3942 10.048V13H48.6822V10.12C48.6822 9.76267 48.5729 9.50933 48.3542 9.36C48.1409 9.20533 47.8769 9.128 47.5622 9.128C47.2369 9.128 46.9782 9.19733 46.7862 9.336C46.5942 9.46933 46.4982 9.64 46.4982 9.848L47.3622 10.28L47.2982 10.664C47.1009 10.664 46.9275 10.7307 46.7782 10.864C46.6342 10.992 46.5622 11.1973 46.5622 11.48V13H45.8502Z" fill="black" fill-opacity="0.8956"/>
<path d="M41.1489 16.6123C41.1489 16.3559 41.2412 16.1507 41.4259 15.9764C41.6105 15.802 41.8258 15.72 42.0823 15.72C42.3489 15.72 42.5746 15.8123 42.7489 15.9866C42.9233 16.161 43.0156 16.3764 43.0156 16.6123C43.0156 16.8584 42.9233 17.0738 42.7387 17.2379C42.5541 17.4123 42.3387 17.4943 42.072 17.4943C41.8053 17.4943 41.59 17.4123 41.4053 17.2379C41.2412 17.0636 41.1489 16.8584 41.1489 16.6123ZM42.8412 25.002H41.313V18.4892H42.8412V25.002Z" fill="black" fill-opacity="0.8956"/>
<path d="M47.4975 23.8888C47.7231 23.8888 47.9795 23.8375 48.2565 23.735C48.5334 23.6324 48.7795 23.4888 49.0154 23.3144V24.7401C48.7693 24.8837 48.4924 24.9862 48.1847 25.058C47.877 25.1298 47.5282 25.1709 47.159 25.1709C46.2052 25.1709 45.4257 24.8632 44.8205 24.258C44.2154 23.6529 43.918 22.8734 43.918 21.9401C43.918 20.8939 44.2257 20.0324 44.8411 19.3555C45.4564 18.6785 46.318 18.3401 47.4462 18.3401C47.7334 18.3401 48.0206 18.3811 48.318 18.4529C48.6154 18.5247 48.8411 18.617 49.0154 18.7093V20.176C48.7795 20.0016 48.5334 19.8683 48.2872 19.776C48.0411 19.6837 47.7847 19.6324 47.5282 19.6324C46.9231 19.6324 46.4411 19.8273 46.0616 20.217C45.6923 20.6068 45.5077 21.1401 45.5077 21.8068C45.5077 22.4632 45.6821 22.976 46.0411 23.3452C46.4 23.7144 46.8821 23.8888 47.4975 23.8888Z" fill="black" fill-opacity="0.8956"/>
<path d="M53.3738 18.3899C53.4969 18.3899 53.6097 18.4001 53.702 18.4104C53.7943 18.4309 53.8866 18.4514 53.9482 18.4719V20.0207C53.8661 19.9591 53.7533 19.9078 53.5995 19.8566C53.4456 19.8053 53.261 19.7745 53.0354 19.7745C52.6559 19.7745 52.3379 19.9284 52.0815 20.2463C51.8251 20.5643 51.6918 21.0463 51.6918 21.713V25.0053H50.1636V18.4925H51.6918V19.5181H51.7123C51.8559 19.1591 52.061 18.8822 52.3482 18.6873C52.6354 18.4925 52.9738 18.3899 53.3738 18.3899Z" fill="black" fill-opacity="0.8956"/>
<path d="M54.0308 21.8478C54.0308 20.7709 54.3385 19.9196 54.9436 19.2837C55.5487 18.658 56.4 18.3401 57.4769 18.3401C58.4923 18.3401 59.2923 18.6478 59.8667 19.2529C60.441 19.858 60.7282 20.6785 60.7282 21.7042C60.7282 22.7606 60.4205 23.6016 59.8154 24.2273C59.2102 24.8529 58.3795 25.1606 57.3333 25.1606C56.3282 25.1606 55.5179 24.8632 54.9333 24.2683C54.3282 23.6837 54.0308 22.8734 54.0308 21.8478ZM55.6308 21.7965C55.6308 22.4734 55.7846 22.9965 56.0923 23.3555C56.4 23.7144 56.841 23.8888 57.4154 23.8888C57.9692 23.8888 58.4 23.7144 58.6872 23.3555C58.9743 22.9965 59.1282 22.4632 59.1282 21.7555C59.1282 21.058 58.9743 20.5247 58.6769 20.1657C58.3795 19.8068 57.9487 19.6324 57.4051 19.6324C56.841 19.6324 56.4102 19.817 56.0923 20.1965C55.7846 20.576 55.6308 21.0991 55.6308 21.7965Z" fill="black" fill-opacity="0.8956"/>
<path d="M63.0053 20.207C63.0053 20.4224 63.0771 20.5967 63.2104 20.7198C63.354 20.8429 63.6617 20.9968 64.1335 21.1916C64.7489 21.4378 65.1796 21.7147 65.4258 22.0224C65.6719 22.3301 65.795 22.6993 65.795 23.1301C65.795 23.7455 65.5591 24.2378 65.0873 24.607C64.6155 24.9762 63.9796 25.1609 63.1796 25.1609C62.913 25.1609 62.6155 25.1301 62.2873 25.0583C61.9591 24.9968 61.6822 24.9045 61.4565 24.8121V23.3044C61.7335 23.4993 62.0309 23.6532 62.3591 23.766C62.6771 23.8788 62.9745 23.9403 63.2309 23.9403C63.5796 23.9403 63.836 23.8891 64.0001 23.7968C64.1642 23.7044 64.2463 23.5403 64.2463 23.3044C64.2463 23.0891 64.1642 22.9147 63.9899 22.7711C63.8155 22.6275 63.4976 22.4532 63.0155 22.2685C62.4514 22.0327 62.0514 21.766 61.8155 21.4685C61.5796 21.1711 61.4565 20.7916 61.4565 20.3403C61.4565 19.7557 61.6924 19.2737 62.154 18.8942C62.6155 18.5147 63.2206 18.3301 63.9694 18.3301C64.195 18.3301 64.4514 18.3506 64.7386 18.4019C65.0258 18.4532 65.2617 18.5147 65.4463 18.5967V20.0532C65.2412 19.9198 65.0053 19.807 64.7386 19.7044C64.4719 19.6121 64.195 19.5608 63.9386 19.5608C63.6514 19.5608 63.4155 19.6224 63.2617 19.7352C63.0873 19.848 63.0053 20.0121 63.0053 20.207Z" fill="black" fill-opacity="0.8956"/>
<path d="M66.4717 21.8478C66.4717 20.7709 66.7794 19.9196 67.3845 19.2837C67.9896 18.658 68.8409 18.3401 69.9178 18.3401C70.9332 18.3401 71.7332 18.6478 72.3076 19.2529C72.8819 19.858 73.1691 20.6785 73.1691 21.7042C73.1691 22.7606 72.8614 23.6016 72.2563 24.2273C71.6512 24.8529 70.8204 25.1606 69.7742 25.1606C68.7691 25.1606 67.9589 24.8632 67.3742 24.2683C66.7691 23.6837 66.4717 22.8734 66.4717 21.8478ZM68.0614 21.7965C68.0614 22.4734 68.2153 22.9965 68.523 23.3555C68.8307 23.7144 69.2717 23.8888 69.846 23.8888C70.3999 23.8888 70.8307 23.7144 71.1178 23.3555C71.405 22.9965 71.5589 22.4632 71.5589 21.7555C71.5589 21.058 71.405 20.5247 71.1076 20.1657C70.8101 19.8068 70.3794 19.6324 69.8358 19.6324C69.2717 19.6324 68.8409 19.817 68.523 20.1965C68.2153 20.576 68.0614 21.0991 68.0614 21.7965Z" fill="black" fill-opacity="0.8956"/>
<path d="M78.2258 19.7523V23.0959C78.2258 23.7933 78.3899 24.3062 78.7079 24.6549C79.0258 25.0036 79.5181 25.1677 80.1643 25.1677C80.3797 25.1677 80.6053 25.1472 80.8309 25.0959C81.0566 25.0446 81.2207 25.0036 81.313 24.9421V23.6703C81.2207 23.7318 81.1079 23.7831 80.9848 23.8241C80.8617 23.8651 80.7489 23.8857 80.6668 23.8857C80.3591 23.8857 80.1232 23.8036 79.9797 23.6395C79.8361 23.4754 79.7643 23.1882 79.7643 22.7882V19.7421H81.3232V18.4908H79.7745V16.5626L78.2361 17.0344V18.501H75.9489V17.7113C75.9489 17.3215 76.0309 17.0241 76.2053 16.819C76.3796 16.6139 76.6258 16.5215 76.9438 16.5215C77.1079 16.5215 77.2514 16.5421 77.3848 16.5831C77.5079 16.6241 77.6002 16.6651 77.6514 16.6959V15.3728C77.5386 15.3318 77.4155 15.3113 77.272 15.2908C77.1284 15.2703 76.9643 15.26 76.7797 15.26C76.0822 15.26 75.5079 15.4754 75.0668 15.9164C74.6258 16.3574 74.4002 16.9113 74.4002 17.5985V18.501H73.313V19.7523H74.4002V25.0139H75.9489V19.7523H78.2258V19.7523Z" fill="black" fill-opacity="0.8956"/>
<path d="M39.8359 15.9199V25.0071H38.2564V17.8892H38.2359L35.4154 25.0071H34.3692L31.4769 17.8892H31.4564V25.0071H30V15.9199H32.2564L34.8718 22.6584H34.9128L37.6718 15.9199H39.8359Z" fill="black" fill-opacity="0.8956"/>
<rect x="0.5" y="0.5" width="89" height="31" rx="3.5" stroke="url(#paint0_linear_1602_28334)"/>
<defs>
<linearGradient id="paint0_linear_1602_28334" x1="45" y1="1" x2="45" y2="31" gradientUnits="userSpaceOnUse">
<stop offset="0.905762" stop-opacity="0.0578"/>
<stop offset="1" stop-opacity="0.1622"/>
</linearGradient>
</defs>
</svg>
