<svg width="129" height="34" viewBox="0 0 129 34" fill="none" xmlns="http://www.w3.org/2000/svg">
<rect x="1" y="1" width="127" height="32" rx="4" fill="#FDFDFD"/>
<rect x="0.5" y="0.5" width="128" height="33" rx="4.5" stroke="black" stroke-opacity="0.0578"/>
<g clip-path="url(#clip0_976_1895)">
<g clip-path="url(#clip1_976_1895)">
<path d="M8.28125 11C8.28125 10.5858 8.61704 10.25 9.03125 10.25H24.9687C25.383 10.25 25.7188 10.5858 25.7188 11V22.3438C25.7188 24.0524 24.3336 25.4375 22.625 25.4375H11.375C9.66637 25.4375 8.28125 24.0524 8.28125 22.3438V11Z" fill="url(#paint0_linear_976_1895)"/>
<mask id="mask0_976_1895" style="mask-type:alpha" maskUnits="userSpaceOnUse" x="8" y="10" width="18" height="16">
<path d="M8.28125 11C8.28125 10.5858 8.61704 10.25 9.03125 10.25H24.9687C25.383 10.25 25.7188 10.5858 25.7188 11V22.3438C25.7188 24.0524 24.3336 25.4375 22.625 25.4375H11.375C9.66637 25.4375 8.28125 24.0524 8.28125 22.3438V11Z" fill="url(#paint1_linear_976_1895)"/>
</mask>
<g mask="url(#mask0_976_1895)">
<g filter="url(#filter0_dd_976_1895)">
<path d="M12.7812 10.8125V8.5625H21.2187V10.8125" stroke="url(#paint2_linear_976_1895)" stroke-width="1.125" stroke-linecap="round"/>
</g>
</g>
<g filter="url(#filter1_dd_976_1895)">
<path d="M16.719 14.1875H13.344V17.5625H16.719V14.1875Z" fill="#F25022"/>
<path d="M20.6562 14.1875H17.2812V17.5625H20.6562V14.1875Z" fill="#7FBA00"/>
<path d="M20.6562 18.125H17.2812V21.5H20.6562V18.125Z" fill="#FFB900"/>
<path d="M16.7188 18.125H13.3438V21.5H16.7188V18.125Z" fill="#00A4EF"/>
</g>
<path d="M12.7812 10.8125V9.125C12.7812 8.81434 13.0331 8.5625 13.3438 8.5625H20.6563C20.9669 8.5625 21.2188 8.81434 21.2188 9.125V10.8125" stroke="url(#paint3_linear_976_1895)" stroke-width="1.125" stroke-linecap="round"/>
<rect x="13.3438" y="8" width="7.3125" height="1.125" fill="url(#paint4_linear_976_1895)"/>
<mask id="mask1_976_1895" style="mask-type:alpha" maskUnits="userSpaceOnUse" x="13" y="8" width="8" height="2">
<rect x="13.3438" y="8" width="7.3125" height="1.125" fill="url(#paint5_linear_976_1895)"/>
</mask>
<g mask="url(#mask1_976_1895)">
<g filter="url(#filter2_dd_976_1895)">
<rect x="11.7189" y="8.56274" width="1.625" height="2.8125" fill="#C4C4C4"/>
</g>
</g>
</g>
</g>
<path d="M39.2275 16H37.96V11.0854C37.96 10.8634 37.9653 10.6217 37.9761 10.3604C37.9904 10.0954 38.0083 9.81429 38.0298 9.51709H37.9976C37.9546 9.72119 37.9134 9.89665 37.874 10.0435C37.8382 10.1867 37.8024 10.3013 37.7666 10.3872L35.5054 16H34.6245L32.3525 10.4355C32.3239 10.3568 32.2881 10.2404 32.2451 10.0864C32.2057 9.93245 32.1628 9.74268 32.1162 9.51709H32.084C32.1055 9.7749 32.1198 10.0488 32.127 10.3389C32.1341 10.6253 32.1377 10.9279 32.1377 11.2466V16H30.9561V8.29785H32.7607L34.7642 13.3037C34.8429 13.4935 34.9074 13.6689 34.9575 13.8301C35.0112 13.9876 35.0524 14.1344 35.0811 14.2705H35.1133C35.1777 14.0664 35.2386 13.882 35.2959 13.7173C35.3532 13.5526 35.4069 13.4093 35.457 13.2876L37.4873 8.29785H39.2275V16ZM41.6177 9.43652C41.3885 9.43652 41.1987 9.36312 41.0483 9.21631C40.8979 9.0695 40.8228 8.88867 40.8228 8.67383C40.8228 8.45182 40.8979 8.26921 41.0483 8.12598C41.1987 7.98275 41.3885 7.91113 41.6177 7.91113C41.8504 7.91113 42.042 7.98275 42.1924 8.12598C42.3428 8.26921 42.418 8.45182 42.418 8.67383C42.418 8.89225 42.3428 9.07487 42.1924 9.22168C42.042 9.36491 41.8504 9.43652 41.6177 9.43652ZM42.2354 16H40.9839V10.5H42.2354V16ZM47.9824 15.6616C47.7103 15.8263 47.4399 15.9445 47.1714 16.0161C46.9028 16.0913 46.611 16.1289 46.2959 16.1289C45.4508 16.1289 44.7741 15.8818 44.2656 15.3877C43.7607 14.8936 43.5083 14.2222 43.5083 13.3735C43.5083 12.4604 43.7697 11.7318 44.2925 11.1875C44.8188 10.6432 45.5278 10.3711 46.4194 10.3711C46.731 10.3711 47.0138 10.4051 47.2681 10.4731C47.5259 10.5376 47.7873 10.645 48.0522 10.7954L47.5635 11.6655C47.3773 11.5617 47.1947 11.4865 47.0156 11.4399C46.8366 11.3898 46.6414 11.3647 46.4302 11.3647C45.9038 11.3647 45.4974 11.5384 45.2109 11.8857C44.9245 12.2331 44.7812 12.6932 44.7812 13.2661C44.7812 13.8677 44.9352 14.3296 45.2432 14.6519C45.5547 14.9741 45.945 15.1353 46.4141 15.1353C46.5573 15.1353 46.722 15.1102 46.9082 15.0601C47.0944 15.0063 47.2824 14.9222 47.4722 14.8076L47.9824 15.6616ZM52.1021 11.5474C52.034 11.5295 51.9678 11.5169 51.9033 11.5098C51.8424 11.499 51.7708 11.4937 51.6885 11.4937C51.2409 11.4937 50.8971 11.6584 50.6572 11.9878C50.4173 12.3172 50.2974 12.7469 50.2974 13.2769V16H49.0459V10.5H50.2974V11.5581H50.3188C50.4478 11.1785 50.6375 10.8921 50.8882 10.6987C51.1388 10.5018 51.4342 10.4033 51.7744 10.4033C51.8711 10.4033 51.957 10.4087 52.0322 10.4194C52.111 10.4302 52.1862 10.4463 52.2578 10.4678L52.1021 11.5474ZM55.5557 16.1289C54.6963 16.1289 54.0142 15.8729 53.5093 15.3608C53.008 14.8452 52.7573 14.1559 52.7573 13.293C52.7609 12.3799 53.0223 11.6655 53.5415 11.1499C54.0607 10.6307 54.7679 10.3711 55.6631 10.3711C56.526 10.3675 57.1992 10.6217 57.6826 11.1338C58.1696 11.6423 58.4131 12.3315 58.4131 13.2017C58.4131 14.0968 58.1553 14.8094 57.6396 15.3394C57.1276 15.8657 56.4329 16.1289 55.5557 16.1289ZM55.6147 15.1353C56.1125 15.1353 56.4902 14.9723 56.748 14.6465C57.0094 14.3206 57.1401 13.8498 57.1401 13.2339C57.1401 12.6252 57.0094 12.1615 56.748 11.8428C56.4867 11.5241 56.1071 11.3647 55.6094 11.3647C55.1188 11.3647 54.7321 11.533 54.4492 11.8696C54.1699 12.2062 54.0303 12.6717 54.0303 13.2661C54.0303 13.8641 54.1699 14.326 54.4492 14.6519C54.7285 14.9741 55.117 15.1353 55.6147 15.1353ZM59.1543 15.5596L59.6968 14.6787C59.9116 14.8291 60.139 14.9508 60.3789 15.0439C60.6224 15.1335 60.8856 15.1782 61.1685 15.1782C61.4764 15.1782 61.7145 15.1227 61.8828 15.0117C62.0547 14.8971 62.1406 14.7271 62.1406 14.5015C62.1406 14.3224 62.069 14.1738 61.9258 14.0557C61.7861 13.9339 61.5462 13.8337 61.2061 13.7549C60.5186 13.5938 60.0352 13.3807 59.7559 13.1157C59.4801 12.8507 59.3423 12.5016 59.3423 12.0684C59.3423 11.5706 59.5356 11.1642 59.9224 10.8491C60.3091 10.5304 60.8158 10.3711 61.4424 10.3711C61.7539 10.3711 62.0511 10.4123 62.334 10.4946C62.6169 10.5734 62.8926 10.7005 63.1611 10.876L62.6562 11.7354C62.4199 11.585 62.2033 11.4775 62.0063 11.4131C61.8094 11.3486 61.6071 11.3164 61.3994 11.3164C61.1058 11.3164 60.8766 11.3719 60.7119 11.4829C60.5508 11.5903 60.4702 11.7407 60.4702 11.9341C60.4702 12.1382 60.5526 12.2904 60.7173 12.3906C60.8856 12.4873 61.1667 12.5822 61.5605 12.6753C62.1549 12.8185 62.59 13.0262 62.8657 13.2983C63.1414 13.5669 63.2793 13.9268 63.2793 14.3779C63.2793 14.9115 63.0841 15.3376 62.6938 15.6562C62.3071 15.9714 61.7826 16.1289 61.1201 16.1289C60.762 16.1289 60.4183 16.0824 60.0889 15.9893C59.763 15.8926 59.4515 15.7493 59.1543 15.5596ZM66.8779 16.1289C66.0186 16.1289 65.3364 15.8729 64.8315 15.3608C64.3302 14.8452 64.0796 14.1559 64.0796 13.293C64.0832 12.3799 64.3446 11.6655 64.8638 11.1499C65.383 10.6307 66.0902 10.3711 66.9854 10.3711C67.8483 10.3675 68.5215 10.6217 69.0049 11.1338C69.4919 11.6423 69.7354 12.3315 69.7354 13.2017C69.7354 14.0968 69.4775 14.8094 68.9619 15.3394C68.4499 15.8657 67.7552 16.1289 66.8779 16.1289ZM66.937 15.1353C67.4347 15.1353 67.8125 14.9723 68.0703 14.6465C68.3317 14.3206 68.4624 13.8498 68.4624 13.2339C68.4624 12.6252 68.3317 12.1615 68.0703 11.8428C67.8089 11.5241 67.4294 11.3647 66.9316 11.3647C66.4411 11.3647 66.0544 11.533 65.7715 11.8696C65.4922 12.2062 65.3525 12.6717 65.3525 13.2661C65.3525 13.8641 65.4922 14.326 65.7715 14.6519C66.0508 14.9741 66.4393 15.1353 66.937 15.1353ZM73.9839 8.84033C73.8836 8.80094 73.7923 8.77409 73.71 8.75977C73.6276 8.74186 73.5381 8.73291 73.4414 8.73291C73.1764 8.73291 72.9759 8.8099 72.8398 8.96387C72.7074 9.11426 72.6411 9.33268 72.6411 9.61914V10.5H73.9141V11.4775H72.6411V16H71.395V11.4775H70.4604V10.5H71.395V9.55469C71.395 8.99609 71.5741 8.55387 71.9321 8.22803C72.2938 7.8986 72.7718 7.73389 73.3662 7.73389C73.5524 7.73389 73.7135 7.74642 73.8496 7.77148C73.9857 7.79655 74.1271 7.83236 74.2739 7.87891L73.9839 8.84033ZM77.7974 15.9248C77.6362 15.9928 77.4679 16.043 77.2925 16.0752C77.117 16.1074 76.929 16.1235 76.7285 16.1235C76.2201 16.1235 75.828 15.9893 75.5522 15.7207C75.2801 15.4486 75.144 15.0439 75.144 14.5068V11.4775H74.2202V10.5H75.144V9.1626L76.3901 8.78662V10.5H77.7061V11.4775H76.3901V14.4048C76.3901 14.6733 76.4385 14.8667 76.5352 14.9849C76.6354 15.103 76.7894 15.1621 76.9971 15.1621C77.0973 15.1621 77.1922 15.1514 77.2817 15.1299C77.3748 15.1048 77.4572 15.0744 77.5288 15.0386L77.7974 15.9248ZM81.2939 15.4468L81.8633 14.4639C82.2106 14.6787 82.5347 14.8309 82.8354 14.9204C83.1362 15.0063 83.4728 15.0493 83.8452 15.0493C84.2892 15.0493 84.6383 14.9544 84.8926 14.7646C85.1504 14.5713 85.2793 14.2956 85.2793 13.9375C85.2793 13.6117 85.1719 13.3556 84.957 13.1694C84.7458 12.9797 84.3859 12.806 83.8774 12.6484C83.0933 12.4157 82.5168 12.1274 82.1479 11.7837C81.7791 11.4399 81.5947 10.9744 81.5947 10.3872C81.5947 9.74984 81.8328 9.22168 82.3091 8.80273C82.7853 8.38021 83.4316 8.16895 84.248 8.16895C84.6061 8.16895 84.9588 8.20833 85.3062 8.28711C85.6535 8.36589 85.9972 8.48763 86.3374 8.65234L85.8594 9.67285C85.5622 9.51888 85.2775 9.40967 85.0054 9.34521C84.7368 9.28076 84.4629 9.24854 84.1836 9.24854C83.7754 9.24854 83.4531 9.33805 83.2168 9.51709C82.984 9.69613 82.8677 9.94857 82.8677 10.2744C82.8677 10.5645 82.9751 10.7936 83.1899 10.9619C83.4048 11.1266 83.7736 11.2896 84.2964 11.4507C85.0985 11.6906 85.675 11.9896 86.0259 12.3477C86.3804 12.7057 86.5576 13.1981 86.5576 13.8247C86.5576 14.4979 86.3177 15.0511 85.8379 15.4844C85.3581 15.9141 84.6742 16.1289 83.7861 16.1289C83.3421 16.1289 82.9089 16.0734 82.4863 15.9624C82.0638 15.8478 81.6663 15.6759 81.2939 15.4468ZM90.4409 15.9248C90.2798 15.9928 90.1115 16.043 89.936 16.0752C89.7606 16.1074 89.5726 16.1235 89.3721 16.1235C88.8636 16.1235 88.4715 15.9893 88.1958 15.7207C87.9237 15.4486 87.7876 15.0439 87.7876 14.5068V11.4775H86.8638V10.5H87.7876V9.1626L89.0337 8.78662V10.5H90.3496V11.4775H89.0337V14.4048C89.0337 14.6733 89.082 14.8667 89.1787 14.9849C89.279 15.103 89.4329 15.1621 89.6406 15.1621C89.7409 15.1621 89.8358 15.1514 89.9253 15.1299C90.0184 15.1048 90.1007 15.0744 90.1724 15.0386L90.4409 15.9248ZM93.8623 16.1289C93.0029 16.1289 92.3208 15.8729 91.8159 15.3608C91.3146 14.8452 91.064 14.1559 91.064 13.293C91.0675 12.3799 91.3289 11.6655 91.8481 11.1499C92.3674 10.6307 93.0745 10.3711 93.9697 10.3711C94.8327 10.3675 95.5059 10.6217 95.9893 11.1338C96.4762 11.6423 96.7197 12.3315 96.7197 13.2017C96.7197 14.0968 96.4619 14.8094 95.9463 15.3394C95.4342 15.8657 94.7396 16.1289 93.8623 16.1289ZM93.9214 15.1353C94.4191 15.1353 94.7969 14.9723 95.0547 14.6465C95.3161 14.3206 95.4468 13.8498 95.4468 13.2339C95.4468 12.6252 95.3161 12.1615 95.0547 11.8428C94.7933 11.5241 94.4137 11.3647 93.916 11.3647C93.4255 11.3647 93.0387 11.533 92.7559 11.8696C92.4766 12.2062 92.3369 12.6717 92.3369 13.2661C92.3369 13.8641 92.4766 14.326 92.7559 14.6519C93.0352 14.9741 93.4237 15.1353 93.9214 15.1353ZM101.054 11.5474C100.986 11.5295 100.92 11.5169 100.855 11.5098C100.795 11.499 100.723 11.4937 100.641 11.4937C100.193 11.4937 99.8493 11.6584 99.6094 11.9878C99.3695 12.3172 99.2495 12.7469 99.2495 13.2769V16H97.998V10.5H99.2495V11.5581H99.271C99.3999 11.1785 99.5897 10.8921 99.8403 10.6987C100.091 10.5018 100.386 10.4033 100.727 10.4033C100.823 10.4033 100.909 10.4087 100.984 10.4194C101.063 10.4302 101.138 10.4463 101.21 10.4678L101.054 11.5474ZM106.721 13.5776H102.966C102.988 14.0968 103.138 14.4925 103.417 14.7646C103.697 15.0332 104.087 15.1675 104.588 15.1675C104.792 15.1675 105.025 15.1263 105.287 15.0439C105.548 14.9616 105.806 14.8291 106.06 14.6465L106.624 15.4253C106.284 15.6724 105.938 15.8514 105.587 15.9624C105.236 16.0734 104.85 16.1289 104.427 16.1289C103.571 16.1289 102.905 15.8836 102.429 15.3931C101.953 14.8989 101.713 14.2096 101.709 13.3252C101.709 12.4443 101.955 11.7318 102.445 11.1875C102.939 10.6432 103.571 10.3711 104.341 10.3711C105.079 10.3711 105.659 10.6038 106.082 11.0693C106.508 11.5312 106.721 12.1865 106.721 13.0352V13.5776ZM105.512 12.7129C105.512 12.2402 105.408 11.8857 105.201 11.6494C104.997 11.4095 104.707 11.2896 104.331 11.2896C103.976 11.2896 103.674 11.4185 103.423 11.6763C103.176 11.9305 103.024 12.276 102.966 12.7129H105.512Z" fill="black" fill-opacity="0.8956"/>
<path d="M108.149 12.6265H107.654V11.0986H108.149V12.6265ZM111.69 15.4053C111.561 15.6309 111.395 15.8006 111.195 15.9146C110.997 16.0262 110.761 16.082 110.487 16.082C110.048 16.082 109.695 15.9259 109.431 15.6138C109.169 15.2993 109.038 14.8721 109.038 14.332C109.038 13.7533 109.184 13.2896 109.476 12.9409C109.767 12.5923 110.156 12.418 110.641 12.418C110.883 12.418 111.09 12.4658 111.263 12.5615C111.439 12.6549 111.581 12.7962 111.69 12.9854H111.704V10.8184H112.265V16H111.704V15.4053H111.69ZM109.612 14.3047C109.612 14.708 109.706 15.027 109.893 15.2617C110.082 15.4941 110.335 15.6104 110.651 15.6104C110.966 15.6104 111.22 15.4976 111.414 15.272C111.607 15.0464 111.704 14.7616 111.704 14.4175V13.9014C111.704 13.6188 111.61 13.3796 111.42 13.1836C111.234 12.9876 110.998 12.8896 110.713 12.8896C110.371 12.8896 110.102 13.015 109.906 13.2656C109.71 13.5163 109.612 13.8626 109.612 14.3047ZM115.877 16H115.317V15.4531H115.303C115.182 15.6628 115.033 15.82 114.855 15.9248C114.68 16.0296 114.475 16.082 114.24 16.082C113.912 16.082 113.647 15.9863 113.444 15.7949C113.241 15.6035 113.14 15.3494 113.14 15.0327C113.14 14.7342 113.242 14.487 113.447 14.291C113.652 14.0951 113.943 13.9697 114.319 13.915L115.317 13.7817V13.7031C115.317 13.4092 115.249 13.2007 115.112 13.0776C114.975 12.9523 114.793 12.8896 114.565 12.8896C114.383 12.8896 114.207 12.9238 114.039 12.9922C113.87 13.0605 113.712 13.1654 113.563 13.3066L113.235 12.9683C113.431 12.7791 113.64 12.6401 113.861 12.5513C114.082 12.4624 114.328 12.418 114.599 12.418C115.023 12.418 115.342 12.5273 115.556 12.7461C115.77 12.9626 115.877 13.2884 115.877 13.7236V16ZM115.317 14.5781V14.2295L114.473 14.3457C114.215 14.3822 114.021 14.4471 113.892 14.5405C113.762 14.634 113.697 14.7809 113.697 14.9814C113.697 15.1911 113.757 15.3517 113.878 15.4634C114.001 15.5728 114.15 15.6274 114.326 15.6274C114.629 15.6274 114.869 15.5283 115.047 15.3301C115.227 15.1318 115.317 14.8812 115.317 14.5781ZM119.866 16H119.306V14.0039C119.306 13.6325 119.237 13.3545 119.101 13.1699C118.966 12.9831 118.763 12.8896 118.492 12.8896C118.212 12.8896 117.979 12.9956 117.795 13.2075C117.613 13.4172 117.521 13.6826 117.521 14.0039V16H116.961V12.5H117.521V13.0811H117.535C117.667 12.86 117.829 12.6948 118.021 12.5854C118.212 12.4738 118.433 12.418 118.684 12.418C119.066 12.418 119.359 12.5422 119.562 12.7905C119.765 13.0366 119.866 13.3932 119.866 13.8604V16Z" fill="black" fill-opacity="0.6063"/>
<path d="M30.8545 21.6626C30.7406 21.6626 30.6449 21.625 30.5674 21.5498C30.4899 21.4723 30.4512 21.3778 30.4512 21.2661C30.4512 21.1545 30.4899 21.061 30.5674 20.9858C30.6449 20.9084 30.7406 20.8696 30.8545 20.8696C30.9684 20.8696 31.0641 20.9084 31.1416 20.9858C31.2191 21.061 31.2578 21.1545 31.2578 21.2661C31.2578 21.3778 31.2191 21.4723 31.1416 21.5498C31.0641 21.625 30.9684 21.6626 30.8545 21.6626ZM31.1279 26H30.5674V22.5H31.1279V26ZM35.168 26H34.6074V24.0039C34.6074 23.6325 34.5391 23.3545 34.4023 23.1699C34.2679 22.9831 34.0651 22.8896 33.7939 22.8896C33.5137 22.8896 33.2812 22.9956 33.0967 23.2075C32.9144 23.4172 32.8232 23.6826 32.8232 24.0039V26H32.2627V22.5H32.8232V23.0811H32.8369C32.9691 22.86 33.1309 22.6948 33.3223 22.5854C33.5137 22.4738 33.7347 22.418 33.9854 22.418C34.3682 22.418 34.661 22.5422 34.8638 22.7905C35.0666 23.0366 35.168 23.3932 35.168 23.8604V26ZM38.6406 25.4053C38.5107 25.6309 38.3455 25.8006 38.145 25.9146C37.9468 26.0262 37.7109 26.082 37.4375 26.082C36.9977 26.082 36.6457 25.9259 36.3813 25.6138C36.1193 25.2993 35.9883 24.8721 35.9883 24.332C35.9883 23.7533 36.1341 23.2896 36.4258 22.9409C36.7174 22.5923 37.106 22.418 37.5913 22.418C37.8328 22.418 38.0402 22.4658 38.2134 22.5615C38.3888 22.6549 38.5312 22.7962 38.6406 22.9854H38.6543V20.8184H39.2148V26H38.6543V25.4053H38.6406ZM36.5625 24.3047C36.5625 24.708 36.6559 25.027 36.8428 25.2617C37.0319 25.4941 37.2848 25.6104 37.6016 25.6104C37.916 25.6104 38.1701 25.4976 38.3638 25.272C38.5575 25.0464 38.6543 24.7616 38.6543 24.4175V23.9014C38.6543 23.6188 38.5597 23.3796 38.3706 23.1836C38.1838 22.9876 37.9479 22.8896 37.6631 22.8896C37.3213 22.8896 37.0524 23.015 36.8564 23.2656C36.6605 23.5163 36.5625 23.8626 36.5625 24.3047ZM40.6367 21.6626C40.5228 21.6626 40.4271 21.625 40.3496 21.5498C40.2721 21.4723 40.2334 21.3778 40.2334 21.2661C40.2334 21.1545 40.2721 21.061 40.3496 20.9858C40.4271 20.9084 40.5228 20.8696 40.6367 20.8696C40.7507 20.8696 40.8464 20.9084 40.9238 20.9858C41.0013 21.061 41.04 21.1545 41.04 21.2661C41.04 21.3778 41.0013 21.4723 40.9238 21.5498C40.8464 21.625 40.7507 21.6626 40.6367 21.6626ZM40.9102 26H40.3496V22.5H40.9102V26ZM43.771 22.9785C43.7277 22.9648 43.689 22.9557 43.6548 22.9512C43.6206 22.9443 43.5773 22.9409 43.5249 22.9409C43.2401 22.9409 43.0156 23.0628 42.8516 23.3066C42.6875 23.5482 42.6055 23.8512 42.6055 24.2158V26H42.0449V22.5H42.6055V23.1938H42.6191C42.6989 22.9478 42.8208 22.7609 42.9849 22.6333C43.1489 22.5034 43.3381 22.4385 43.5522 22.4385C43.6229 22.4385 43.6821 22.4419 43.73 22.4487C43.7801 22.4556 43.8245 22.4658 43.8633 22.4795L43.771 22.9785ZM44.7656 21.6626C44.6517 21.6626 44.556 21.625 44.4785 21.5498C44.401 21.4723 44.3623 21.3778 44.3623 21.2661C44.3623 21.1545 44.401 21.061 44.4785 20.9858C44.556 20.9084 44.6517 20.8696 44.7656 20.8696C44.8796 20.8696 44.9753 20.9084 45.0527 20.9858C45.1302 21.061 45.1689 21.1545 45.1689 21.2661C45.1689 21.3778 45.1302 21.4723 45.0527 21.5498C44.9753 21.625 44.8796 21.6626 44.7656 21.6626ZM45.0391 26H44.4785V22.5H45.0391V26ZM49.0791 26H48.5186V24.0039C48.5186 23.6325 48.4502 23.3545 48.3135 23.1699C48.179 22.9831 47.9762 22.8896 47.7051 22.8896C47.4248 22.8896 47.1924 22.9956 47.0078 23.2075C46.8255 23.4172 46.7344 23.6826 46.7344 24.0039V26H46.1738V22.5H46.7344V23.0811H46.748C46.8802 22.86 47.042 22.6948 47.2334 22.5854C47.4248 22.4738 47.6458 22.418 47.8965 22.418C48.2793 22.418 48.5721 22.5422 48.7749 22.7905C48.9777 23.0366 49.0791 23.3932 49.0791 23.8604V26Z" fill="black" fill-opacity="0.6063"/>
<defs>
<filter id="filter0_dd_976_1895" x="11.0938" y="7.25" width="11.8125" height="5.625" filterUnits="userSpaceOnUse" color-interpolation-filters="sRGB">
<feFlood flood-opacity="0" result="BackgroundImageFix"/>
<feColorMatrix in="SourceAlpha" type="matrix" values="0 0 0 0 0 0 0 0 0 0 0 0 0 0 0 0 0 0 127 0" result="hardAlpha"/>
<feOffset dy="0.1875"/>
<feGaussianBlur stdDeviation="0.1875"/>
<feColorMatrix type="matrix" values="0 0 0 0 0 0 0 0 0 0 0 0 0 0 0 0 0 0 0.1 0"/>
<feBlend mode="normal" in2="BackgroundImageFix" result="effect1_dropShadow_976_1895"/>
<feColorMatrix in="SourceAlpha" type="matrix" values="0 0 0 0 0 0 0 0 0 0 0 0 0 0 0 0 0 0 127 0" result="hardAlpha"/>
<feOffset dy="0.375"/>
<feGaussianBlur stdDeviation="0.5625"/>
<feColorMatrix type="matrix" values="0 0 0 0 0 0 0 0 0 0 0 0 0 0 0 0 0 0 0.2 0"/>
<feBlend mode="normal" in2="effect1_dropShadow_976_1895" result="effect2_dropShadow_976_1895"/>
<feBlend mode="normal" in="SourceGraphic" in2="effect2_dropShadow_976_1895" result="shape"/>
</filter>
<filter id="filter1_dd_976_1895" x="12.2188" y="13.4375" width="9.5625" height="9.5625" filterUnits="userSpaceOnUse" color-interpolation-filters="sRGB">
<feFlood flood-opacity="0" result="BackgroundImageFix"/>
<feColorMatrix in="SourceAlpha" type="matrix" values="0 0 0 0 0 0 0 0 0 0 0 0 0 0 0 0 0 0 127 0" result="hardAlpha"/>
<feOffset dy="0.1875"/>
<feGaussianBlur stdDeviation="0.1875"/>
<feColorMatrix type="matrix" values="0 0 0 0 0 0 0 0 0 0 0 0 0 0 0 0 0 0 0.1 0"/>
<feBlend mode="normal" in2="BackgroundImageFix" result="effect1_dropShadow_976_1895"/>
<feColorMatrix in="SourceAlpha" type="matrix" values="0 0 0 0 0 0 0 0 0 0 0 0 0 0 0 0 0 0 127 0" result="hardAlpha"/>
<feOffset dy="0.375"/>
<feGaussianBlur stdDeviation="0.5625"/>
<feColorMatrix type="matrix" values="0 0 0 0 0 0 0 0 0 0 0 0 0 0 0 0 0 0 0.2 0"/>
<feBlend mode="normal" in2="effect1_dropShadow_976_1895" result="effect2_dropShadow_976_1895"/>
<feBlend mode="normal" in="SourceGraphic" in2="effect2_dropShadow_976_1895" result="shape"/>
</filter>
<filter id="filter2_dd_976_1895" x="10.5939" y="6.6875" width="12.8124" height="5.06274" filterUnits="userSpaceOnUse" color-interpolation-filters="sRGB">
<feFlood flood-opacity="0" result="BackgroundImageFix"/>
<feColorMatrix in="SourceAlpha" type="matrix" values="0 0 0 0 0 0 0 0 0 0 0 0 0 0 0 0 0 0 127 0" result="hardAlpha"/>
<feOffset dy="-0.75"/>
<feGaussianBlur stdDeviation="0.1875"/>
<feColorMatrix type="matrix" values="0 0 0 0 0 0 0 0 0 0 0 0 0 0 0 0 0 0 0.1 0"/>
<feBlend mode="normal" in2="BackgroundImageFix" result="effect1_dropShadow_976_1895"/>
<feColorMatrix in="SourceAlpha" type="matrix" values="0 0 0 0 0 0 0 0 0 0 0 0 0 0 0 0 0 0 127 0" result="hardAlpha"/>
<feOffset dy="-0.75"/>
<feGaussianBlur stdDeviation="0.5625"/>
<feColorMatrix type="matrix" values="0 0 0 0 0 0 0 0 0 0 0 0 0 0 0 0 0 0 0.2 0"/>
<feBlend mode="normal" in2="effect1_dropShadow_976_1895" result="effect2_dropShadow_976_1895"/>
<feBlend mode="normal" in="SourceGraphic" in2="effect2_dropShadow_976_1895" result="shape"/>
</filter>
<linearGradient id="paint0_linear_976_1895" x1="17" y1="10.25" x2="20.3514" y2="25.9624" gradientUnits="userSpaceOnUse">
<stop stop-color="#0669BC"/>
<stop offset="1" stop-color="#243A5F"/>
</linearGradient>
<linearGradient id="paint1_linear_976_1895" x1="17" y1="10.25" x2="20.3514" y2="25.9624" gradientUnits="userSpaceOnUse">
<stop stop-color="#0078D4"/>
<stop offset="1" stop-color="#114A8B"/>
</linearGradient>
<linearGradient id="paint2_linear_976_1895" x1="17" y1="8.5625" x2="17.1583" y2="10.9858" gradientUnits="userSpaceOnUse">
<stop stop-color="#28AFEA"/>
<stop offset="1" stop-color="#0078D4"/>
</linearGradient>
<linearGradient id="paint3_linear_976_1895" x1="17" y1="8.5625" x2="17.1583" y2="10.9858" gradientUnits="userSpaceOnUse">
<stop stop-color="#30DAFF"/>
<stop offset="1" stop-color="#0094D4"/>
</linearGradient>
<linearGradient id="paint4_linear_976_1895" x1="16.5938" y1="8" x2="16.5937" y2="9.125" gradientUnits="userSpaceOnUse">
<stop stop-color="#22BCFF"/>
<stop offset="1" stop-color="#0088F0"/>
</linearGradient>
<linearGradient id="paint5_linear_976_1895" x1="16.5938" y1="8" x2="16.5937" y2="9.125" gradientUnits="userSpaceOnUse">
<stop stop-color="#28AFEA"/>
<stop offset="1" stop-color="#3CCBF4"/>
</linearGradient>
<clipPath id="clip0_976_1895">
<rect width="18" height="18" fill="white" transform="translate(8 8)"/>
</clipPath>
<clipPath id="clip1_976_1895">
<rect width="18" height="18" fill="white" transform="translate(8 8)"/>
</clipPath>
</defs>
</svg>
