<svg width="113" height="32" viewBox="0 0 113 32" fill="none" xmlns="http://www.w3.org/2000/svg">
<rect x="1.49751" y="0.5" width="111.002" height="31" rx="3.5" fill="black"/>
<path d="M16.5575 7H7.99751V15.5607H16.5575V7Z" fill="#F25022"/>
<path d="M25.9996 7H17.4396V15.5607H25.9996V7Z" fill="#7FBA00"/>
<path d="M16.5575 16.4395H7.99751V25.0001H16.5575V16.4395Z" fill="#00A4EF"/>
<path d="M25.9997 16.4395H17.4397V25.0001H25.9997V16.4395Z" fill="#FFB900"/>
<path d="M33.623 25.0002H32.9316V24.3557H32.916C32.7754 24.6005 32.6009 24.7854 32.3926 24.9104C32.1842 25.0354 31.942 25.0979 31.666 25.0979C31.2806 25.0979 30.9694 24.9859 30.7324 24.762C30.4954 24.538 30.3769 24.2424 30.3769 23.8752C30.3769 23.5185 30.4967 23.2255 30.7363 22.9963C30.9759 22.7672 31.321 22.62 31.7715 22.5549L32.9355 22.3987V22.3049C32.9355 21.9742 32.8561 21.7359 32.6973 21.5901C32.541 21.4443 32.3301 21.3713 32.0644 21.3713C31.8535 21.3713 31.6478 21.4117 31.4473 21.4924C31.2467 21.5732 31.0566 21.6943 30.8769 21.8557L30.498 21.4338C30.7298 21.2203 30.9772 21.0627 31.2402 20.9612C31.5059 20.857 31.7962 20.8049 32.1113 20.8049C32.6113 20.8049 32.9876 20.9338 33.2402 21.1917C33.4954 21.4495 33.623 21.8362 33.623 22.3518V25.0002ZM32.9355 23.3284V22.9338L31.959 23.0667C31.6595 23.1083 31.4355 23.1838 31.2871 23.2932C31.1387 23.4026 31.0644 23.5745 31.0644 23.8088C31.0644 24.0406 31.1335 24.2203 31.2715 24.3479C31.4121 24.4755 31.5866 24.5393 31.7949 24.5393C32.1387 24.5393 32.4147 24.426 32.623 24.1995C32.8314 23.9703 32.9355 23.6799 32.9355 23.3284ZM34.916 25.0002V19.0784H35.6113V25.0002H34.916ZM36.9629 25.0002V20.9026H37.6582V25.0002H36.9629ZM42.4473 25.0002H41.7519V22.6643C41.7519 22.2372 41.6738 21.9169 41.5176 21.7034C41.3613 21.4898 41.1282 21.3831 40.8184 21.3831C40.4954 21.3831 40.2285 21.5042 40.0176 21.7463C39.8092 21.9859 39.7051 22.2906 39.7051 22.6604V25.0002H39.0098V20.9026H39.7051V21.5823H39.7207C39.8743 21.3219 40.0631 21.1278 40.2871 21.0002C40.5111 20.87 40.7702 20.8049 41.0644 20.8049C41.5124 20.8049 41.8548 20.9495 42.0918 21.2385C42.3288 21.5276 42.4473 21.9456 42.4473 22.4924V25.0002Z" fill="white"/>
<path d="M39.8989 17.0002H38.4009V11.1096C38.4009 10.6272 38.4305 10.0369 38.4897 9.33862H38.4644C38.3713 9.73641 38.2887 10.0221 38.2168 10.1956L35.5 17.0002H34.459L31.7358 10.2463C31.6597 10.0474 31.5793 9.74487 31.4946 9.33862H31.4692C31.5031 9.70256 31.52 10.2971 31.52 11.1223V17.0002H30.1235V7.89771H32.25L34.6431 13.9597C34.825 14.4252 34.9435 14.7722 34.9985 15.0007H35.0303C35.1868 14.5225 35.3138 14.1671 35.4111 13.9343L37.8486 7.89771H39.8989V17.0002ZM42.5286 9.1355C42.2874 9.1355 42.0801 9.05721 41.9066 8.90063C41.7373 8.74406 41.6527 8.54517 41.6527 8.30396C41.6527 8.06274 41.7373 7.86174 41.9066 7.70093C42.0801 7.54012 42.2874 7.45972 42.5286 7.45972C42.7783 7.45972 42.9899 7.54012 43.1634 7.70093C43.3369 7.86174 43.4237 8.06274 43.4237 8.30396C43.4237 8.53247 43.3369 8.72925 43.1634 8.89429C42.9899 9.05509 42.7783 9.1355 42.5286 9.1355ZM43.2586 17.0002H41.786V10.5002H43.2586V17.0002ZM49.6461 16.7019C49.1256 17.0024 48.5099 17.1526 47.799 17.1526C46.8341 17.1526 46.0555 16.8521 45.463 16.2512C44.8706 15.6461 44.5744 14.8632 44.5744 13.9026C44.5744 12.8319 44.8917 11.9729 45.5265 11.3254C46.1655 10.6737 47.0182 10.3479 48.0846 10.3479C48.6771 10.3479 49.1997 10.4516 49.6525 10.6589V12.03C49.1997 11.6915 48.7173 11.5222 48.2052 11.5222C47.5831 11.5222 47.0732 11.7338 46.6754 12.157C46.2776 12.5759 46.0787 13.1261 46.0787 13.8074C46.0787 14.4802 46.2649 15.0113 46.6373 15.4006C47.014 15.79 47.5176 15.9846 48.1481 15.9846C48.6771 15.9846 49.1764 15.7963 49.6461 15.4197V16.7019ZM54.688 11.9031C54.5102 11.7634 54.2542 11.6936 53.9199 11.6936C53.484 11.6936 53.1201 11.8904 52.8281 12.2839C52.5361 12.6775 52.3901 13.2128 52.3901 13.8899V17.0002H50.9174V10.5002H52.3901V11.8396H52.4155C52.5594 11.3826 52.7794 11.0271 53.0756 10.7732C53.3761 10.5151 53.7104 10.386 54.0786 10.386C54.3452 10.386 54.5483 10.4262 54.688 10.5066V11.9031ZM58.3015 17.1526C57.2986 17.1526 56.4967 16.85 55.8958 16.2449C55.2991 15.6355 55.0008 14.8293 55.0008 13.8264C55.0008 12.7346 55.3118 11.8819 55.9339 11.2683C56.5602 10.6547 57.4023 10.3479 58.4602 10.3479C59.4759 10.3479 60.2672 10.6462 60.8343 11.2429C61.4013 11.8396 61.6848 12.6669 61.6848 13.7249C61.6848 14.7616 61.378 15.5932 60.7644 16.2195C60.1551 16.8416 59.3341 17.1526 58.3015 17.1526ZM58.3714 11.5222C57.7958 11.5222 57.3409 11.7232 57.0066 12.1252C56.6723 12.5273 56.5052 13.0816 56.5052 13.7883C56.5052 14.4696 56.6744 15.0071 57.013 15.4006C57.3515 15.79 57.8043 15.9846 58.3714 15.9846C58.9511 15.9846 59.3955 15.7921 59.7044 15.407C60.0175 15.0219 60.1741 14.4739 60.1741 13.7629C60.1741 13.0478 60.0175 12.4955 59.7044 12.1062C59.3955 11.7169 58.9511 11.5222 58.3714 11.5222ZM62.588 16.7971V15.4324C63.1381 15.8513 63.7454 16.0608 64.4098 16.0608C65.2984 16.0608 65.7428 15.7984 65.7428 15.2737C65.7428 15.1256 65.7047 15.0007 65.6285 14.8992C65.5523 14.7934 65.4487 14.7003 65.3175 14.6199C65.1905 14.5395 65.0382 14.4675 64.8605 14.4041C64.6869 14.3406 64.4923 14.2686 64.2765 14.1882C64.0099 14.0824 63.7687 13.9703 63.5528 13.8518C63.3412 13.7333 63.1635 13.6 63.0196 13.4519C62.88 13.2996 62.7742 13.1282 62.7022 12.9377C62.6303 12.7473 62.5943 12.5251 62.5943 12.2712C62.5943 11.9581 62.6684 11.683 62.8165 11.446C62.9646 11.2048 63.1635 11.0038 63.4132 10.843C63.6629 10.678 63.9464 10.5553 64.2638 10.4749C64.5812 10.3902 64.9091 10.3479 65.2477 10.3479C65.8486 10.3479 66.386 10.4389 66.86 10.6208V11.9094C66.4029 11.5963 65.8782 11.4397 65.2857 11.4397C65.0995 11.4397 64.9303 11.4587 64.7779 11.4968C64.6298 11.5349 64.5029 11.5878 64.3971 11.6555C64.2913 11.7232 64.2088 11.8057 64.1495 11.9031C64.0903 11.9962 64.0606 12.0999 64.0606 12.2141C64.0606 12.3538 64.0903 12.4722 64.1495 12.5696C64.2088 12.6669 64.2955 12.7537 64.4098 12.8298C64.5283 12.9018 64.6679 12.9695 64.8287 13.033C64.9938 13.0922 65.1821 13.1578 65.3937 13.2297C65.673 13.344 65.9226 13.4604 66.1427 13.5789C66.367 13.6973 66.5574 13.8328 66.714 13.9851C66.8705 14.1332 66.9911 14.3067 67.0758 14.5056C67.1604 14.7003 67.2027 14.933 67.2027 15.2039C67.2027 15.5339 67.1266 15.8217 66.9742 16.0671C66.8219 16.3126 66.6188 16.5157 66.3648 16.6765C66.1109 16.8373 65.8168 16.9558 65.4825 17.032C65.1524 17.1124 64.8033 17.1526 64.4352 17.1526C63.7242 17.1526 63.1085 17.0341 62.588 16.7971ZM71.2924 17.1526C70.2895 17.1526 69.4876 16.85 68.8866 16.2449C68.29 15.6355 67.9916 14.8293 67.9916 13.8264C67.9916 12.7346 68.3027 11.8819 68.9247 11.2683C69.551 10.6547 70.3932 10.3479 71.4511 10.3479C72.4667 10.3479 73.2581 10.6462 73.8251 11.2429C74.3922 11.8396 74.6757 12.6669 74.6757 13.7249C74.6757 14.7616 74.3689 15.5932 73.7553 16.2195C73.1459 16.8416 72.325 17.1526 71.2924 17.1526ZM71.3622 11.5222C70.7867 11.5222 70.3318 11.7232 69.9975 12.1252C69.6632 12.5273 69.496 13.0816 69.496 13.7883C69.496 14.4696 69.6653 15.0071 70.0038 15.4006C70.3424 15.79 70.7952 15.9846 71.3622 15.9846C71.942 15.9846 72.3863 15.7921 72.6952 15.407C73.0084 15.0219 73.165 14.4739 73.165 13.7629C73.165 13.0478 73.0084 12.4955 72.6952 12.1062C72.3863 11.7169 71.942 11.5222 71.3622 11.5222ZM79.4446 8.5769C79.2457 8.46265 79.0193 8.40552 78.7654 8.40552C78.0502 8.40552 77.6926 8.80965 77.6926 9.61792V10.5002H79.2034V11.6555H77.699V17.0002H76.2263V11.6555H75.1155V10.5002H76.2263V9.44653C76.2263 8.76099 76.4506 8.22144 76.8992 7.82788C77.3477 7.43009 77.9084 7.2312 78.5813 7.2312C78.9452 7.2312 79.233 7.2714 79.4446 7.35181V8.5769ZM83.7247 16.9304C83.4369 17.0743 83.0582 17.1462 82.5884 17.1462C81.3274 17.1462 80.6968 16.5411 80.6968 15.3308V11.6555H79.6114V10.5002H80.6968V8.99585L82.1695 8.5769V10.5002H83.7247V11.6555H82.1695V14.9055C82.1695 15.2906 82.2393 15.5657 82.379 15.7307C82.5186 15.8958 82.7514 15.9783 83.0772 15.9783C83.3269 15.9783 83.5427 15.9063 83.7247 15.7625V16.9304ZM86.5512 7.71997L85.5165 10.5447H84.5453L85.2626 7.71997H86.5512ZM91.3708 16.9304C91.083 17.0743 90.7043 17.1462 90.2346 17.1462C88.9735 17.1462 88.343 16.5411 88.343 15.3308V11.6555H87.2575V10.5002H88.343V8.99585L89.8156 8.5769V10.5002H91.3708V11.6555H89.8156V14.9055C89.8156 15.2906 89.8854 15.5657 90.0251 15.7307C90.1647 15.8958 90.3975 15.9783 90.7233 15.9783C90.973 15.9783 91.1888 15.9063 91.3708 15.7625V16.9304ZM97.4346 17.0002H96.0064V15.9846H95.981C95.5324 16.7633 94.8744 17.1526 94.0069 17.1526C93.3679 17.1526 92.8664 16.9791 92.5025 16.6321C92.1428 16.2851 91.9629 15.8259 91.9629 15.2546C91.9629 14.0274 92.6696 13.3123 94.083 13.1091L96.0127 12.8362C96.0127 11.9094 95.5726 11.446 94.6924 11.446C93.918 11.446 93.2197 11.7126 92.5977 12.2458V10.9573C93.2832 10.551 94.0746 10.3479 94.9717 10.3479C96.6136 10.3479 97.4346 11.1562 97.4346 12.7727V17.0002ZM96.0127 13.8074L94.648 13.9978C94.2248 14.0528 93.9053 14.1565 93.6895 14.3088C93.4779 14.4569 93.3721 14.7193 93.3721 15.0959C93.3721 15.371 93.4694 15.5974 93.6641 15.7751C93.863 15.9486 94.1275 16.0354 94.4575 16.0354C94.9061 16.0354 95.2764 15.8788 95.5684 15.5657C95.8646 15.2483 96.0127 14.8505 96.0127 14.3723V13.8074ZM104.831 17.0002H103.359V13.3376C103.359 12.1231 102.929 11.5159 102.07 11.5159C101.622 11.5159 101.251 11.6851 100.959 12.0237C100.667 12.358 100.521 12.7812 100.521 13.2932V17.0002H99.0423V10.5002H100.521V11.5793H100.547C101.033 10.7584 101.736 10.3479 102.654 10.3479C103.361 10.3479 103.9 10.5785 104.273 11.0398C104.645 11.4968 104.831 12.1591 104.831 13.0266V17.0002Z" fill="white"/>
<rect x="1.49751" y="0.5" width="111.002" height="31" rx="3.5" stroke="black"/>
</svg>
