<svg width="112" height="32" viewBox="0 0 112 32" fill="none" xmlns="http://www.w3.org/2000/svg">
<rect x="0.5" y="0.5" width="111" height="31" rx="3.5" fill="white"/>
<path d="M15.56 7H7V15.5607H15.56V7Z" fill="#F25022"/>
<path d="M25.0021 7H16.4421V15.5607H25.0021V7Z" fill="#7FBA00"/>
<path d="M15.56 16.4395H7V25.0001H15.56V16.4395Z" fill="#00A4EF"/>
<path d="M25.0022 16.4395H16.4422V25.0001H25.0022V16.4395Z" fill="#FFB900"/>
<path d="M32.6255 25.0002H31.9341V24.3557H31.9185C31.7779 24.6005 31.6034 24.7854 31.3951 24.9104C31.1867 25.0354 30.9445 25.0979 30.6685 25.0979C30.2831 25.0979 29.9719 24.9859 29.7349 24.762C29.4979 24.538 29.3794 24.2424 29.3794 23.8752C29.3794 23.5185 29.4992 23.2255 29.7388 22.9963C29.9784 22.7672 30.3234 22.62 30.774 22.5549L31.938 22.3987V22.3049C31.938 21.9742 31.8586 21.7359 31.6997 21.5901C31.5435 21.4443 31.3326 21.3713 31.0669 21.3713C30.856 21.3713 30.6503 21.4117 30.4497 21.4924C30.2492 21.5732 30.0591 21.6943 29.8794 21.8557L29.5005 21.4338C29.7323 21.2203 29.9797 21.0627 30.2427 20.9612C30.5083 20.857 30.7987 20.8049 31.1138 20.8049C31.6138 20.8049 31.9901 20.9338 32.2427 21.1917C32.4979 21.4495 32.6255 21.8362 32.6255 22.3518V25.0002ZM31.938 23.3284V22.9338L30.9615 23.0667C30.662 23.1083 30.438 23.1838 30.2896 23.2932C30.1412 23.4026 30.0669 23.5745 30.0669 23.8088C30.0669 24.0406 30.1359 24.2203 30.274 24.3479C30.4146 24.4755 30.5891 24.5393 30.7974 24.5393C31.1412 24.5393 31.4172 24.426 31.6255 24.1995C31.8339 23.9703 31.938 23.6799 31.938 23.3284ZM33.9185 25.0002V19.0784H34.6138V25.0002H33.9185ZM35.9654 25.0002V20.9026H36.6607V25.0002H35.9654ZM41.4497 25.0002H40.7544V22.6643C40.7544 22.2372 40.6763 21.9169 40.5201 21.7034C40.3638 21.4898 40.1307 21.3831 39.8208 21.3831C39.4979 21.3831 39.231 21.5042 39.0201 21.7463C38.8117 21.9859 38.7076 22.2906 38.7076 22.6604V25.0002H38.0122V20.9026H38.7076V21.5823H38.7232C38.8768 21.3219 39.0656 21.1278 39.2896 21.0002C39.5135 20.87 39.7727 20.8049 40.0669 20.8049C40.5148 20.8049 40.8573 20.9495 41.0943 21.2385C41.3313 21.5276 41.4497 21.9456 41.4497 22.4924V25.0002Z" fill="black" fill-opacity="0.8956"/>
<path d="M38.8989 17.0002H37.4009V11.1096C37.4009 10.6272 37.4305 10.0369 37.4897 9.33862H37.4644C37.3713 9.73641 37.2887 10.0221 37.2168 10.1956L34.5 17.0002H33.459L30.7358 10.2463C30.6597 10.0474 30.5793 9.74487 30.4946 9.33862H30.4692C30.5031 9.70256 30.52 10.2971 30.52 11.1223V17.0002H29.1235V7.89771H31.25L33.6431 13.9597C33.825 14.4252 33.9435 14.7722 33.9985 15.0007H34.0303C34.1868 14.5225 34.3138 14.1671 34.4111 13.9343L36.8486 7.89771H38.8989V17.0002ZM41.5286 9.1355C41.2874 9.1355 41.0801 9.05721 40.9066 8.90063C40.7373 8.74406 40.6527 8.54517 40.6527 8.30396C40.6527 8.06274 40.7373 7.86174 40.9066 7.70093C41.0801 7.54012 41.2874 7.45972 41.5286 7.45972C41.7783 7.45972 41.9899 7.54012 42.1634 7.70093C42.3369 7.86174 42.4237 8.06274 42.4237 8.30396C42.4237 8.53247 42.3369 8.72925 42.1634 8.89429C41.9899 9.05509 41.7783 9.1355 41.5286 9.1355ZM42.2586 17.0002H40.786V10.5002H42.2586V17.0002ZM48.6461 16.7019C48.1256 17.0024 47.5099 17.1526 46.799 17.1526C45.8341 17.1526 45.0555 16.8521 44.463 16.2512C43.8706 15.6461 43.5744 14.8632 43.5744 13.9026C43.5744 12.8319 43.8917 11.9729 44.5265 11.3254C45.1655 10.6737 46.0182 10.3479 47.0846 10.3479C47.6771 10.3479 48.1997 10.4516 48.6525 10.6589V12.03C48.1997 11.6915 47.7173 11.5222 47.2052 11.5222C46.5831 11.5222 46.0732 11.7338 45.6754 12.157C45.2776 12.5759 45.0787 13.1261 45.0787 13.8074C45.0787 14.4802 45.2649 15.0113 45.6373 15.4006C46.014 15.79 46.5176 15.9846 47.1481 15.9846C47.6771 15.9846 48.1764 15.7963 48.6461 15.4197V16.7019ZM53.688 11.9031C53.5102 11.7634 53.2542 11.6936 52.9199 11.6936C52.484 11.6936 52.1201 11.8904 51.8281 12.2839C51.5361 12.6775 51.3901 13.2128 51.3901 13.8899V17.0002H49.9174V10.5002H51.3901V11.8396H51.4155C51.5594 11.3826 51.7794 11.0271 52.0756 10.7732C52.3761 10.5151 52.7104 10.386 53.0786 10.386C53.3452 10.386 53.5483 10.4262 53.688 10.5066V11.9031ZM57.3015 17.1526C56.2986 17.1526 55.4967 16.85 54.8958 16.2449C54.2991 15.6355 54.0008 14.8293 54.0008 13.8264C54.0008 12.7346 54.3118 11.8819 54.9339 11.2683C55.5602 10.6547 56.4023 10.3479 57.4602 10.3479C58.4759 10.3479 59.2672 10.6462 59.8343 11.2429C60.4013 11.8396 60.6848 12.6669 60.6848 13.7249C60.6848 14.7616 60.378 15.5932 59.7644 16.2195C59.1551 16.8416 58.3341 17.1526 57.3015 17.1526ZM57.3714 11.5222C56.7958 11.5222 56.3409 11.7232 56.0066 12.1252C55.6723 12.5273 55.5052 13.0816 55.5052 13.7883C55.5052 14.4696 55.6744 15.0071 56.013 15.4006C56.3515 15.79 56.8043 15.9846 57.3714 15.9846C57.9511 15.9846 58.3955 15.7921 58.7044 15.407C59.0175 15.0219 59.1741 14.4739 59.1741 13.7629C59.1741 13.0478 59.0175 12.4955 58.7044 12.1062C58.3955 11.7169 57.9511 11.5222 57.3714 11.5222ZM61.588 16.7971V15.4324C62.1381 15.8513 62.7454 16.0608 63.4098 16.0608C64.2984 16.0608 64.7428 15.7984 64.7428 15.2737C64.7428 15.1256 64.7047 15.0007 64.6285 14.8992C64.5523 14.7934 64.4487 14.7003 64.3175 14.6199C64.1905 14.5395 64.0382 14.4675 63.8605 14.4041C63.6869 14.3406 63.4923 14.2686 63.2765 14.1882C63.0099 14.0824 62.7687 13.9703 62.5528 13.8518C62.3412 13.7333 62.1635 13.6 62.0196 13.4519C61.88 13.2996 61.7742 13.1282 61.7022 12.9377C61.6303 12.7473 61.5943 12.5251 61.5943 12.2712C61.5943 11.9581 61.6684 11.683 61.8165 11.446C61.9646 11.2048 62.1635 11.0038 62.4132 10.843C62.6629 10.678 62.9464 10.5553 63.2638 10.4749C63.5812 10.3902 63.9091 10.3479 64.2477 10.3479C64.8486 10.3479 65.386 10.4389 65.86 10.6208V11.9094C65.4029 11.5963 64.8782 11.4397 64.2857 11.4397C64.0995 11.4397 63.9303 11.4587 63.7779 11.4968C63.6298 11.5349 63.5029 11.5878 63.3971 11.6555C63.2913 11.7232 63.2088 11.8057 63.1495 11.9031C63.0903 11.9962 63.0606 12.0999 63.0606 12.2141C63.0606 12.3538 63.0903 12.4722 63.1495 12.5696C63.2088 12.6669 63.2955 12.7537 63.4098 12.8298C63.5283 12.9018 63.6679 12.9695 63.8287 13.033C63.9938 13.0922 64.1821 13.1578 64.3937 13.2297C64.673 13.344 64.9226 13.4604 65.1427 13.5789C65.367 13.6973 65.5574 13.8328 65.714 13.9851C65.8705 14.1332 65.9911 14.3067 66.0758 14.5056C66.1604 14.7003 66.2027 14.933 66.2027 15.2039C66.2027 15.5339 66.1266 15.8217 65.9742 16.0671C65.8219 16.3126 65.6188 16.5157 65.3648 16.6765C65.1109 16.8373 64.8168 16.9558 64.4825 17.032C64.1524 17.1124 63.8033 17.1526 63.4352 17.1526C62.7242 17.1526 62.1085 17.0341 61.588 16.7971ZM70.2924 17.1526C69.2895 17.1526 68.4876 16.85 67.8866 16.2449C67.29 15.6355 66.9916 14.8293 66.9916 13.8264C66.9916 12.7346 67.3027 11.8819 67.9247 11.2683C68.551 10.6547 69.3932 10.3479 70.4511 10.3479C71.4667 10.3479 72.2581 10.6462 72.8251 11.2429C73.3922 11.8396 73.6757 12.6669 73.6757 13.7249C73.6757 14.7616 73.3689 15.5932 72.7553 16.2195C72.1459 16.8416 71.325 17.1526 70.2924 17.1526ZM70.3622 11.5222C69.7867 11.5222 69.3318 11.7232 68.9975 12.1252C68.6632 12.5273 68.496 13.0816 68.496 13.7883C68.496 14.4696 68.6653 15.0071 69.0038 15.4006C69.3424 15.79 69.7952 15.9846 70.3622 15.9846C70.942 15.9846 71.3863 15.7921 71.6952 15.407C72.0084 15.0219 72.165 14.4739 72.165 13.7629C72.165 13.0478 72.0084 12.4955 71.6952 12.1062C71.3863 11.7169 70.942 11.5222 70.3622 11.5222ZM78.4446 8.5769C78.2457 8.46265 78.0193 8.40552 77.7654 8.40552C77.0502 8.40552 76.6926 8.80965 76.6926 9.61792V10.5002H78.2034V11.6555H76.699V17.0002H75.2263V11.6555H74.1155V10.5002H75.2263V9.44653C75.2263 8.76099 75.4506 8.22144 75.8992 7.82788C76.3477 7.43009 76.9084 7.2312 77.5813 7.2312C77.9452 7.2312 78.233 7.2714 78.4446 7.35181V8.5769ZM82.7247 16.9304C82.4369 17.0743 82.0582 17.1462 81.5884 17.1462C80.3274 17.1462 79.6968 16.5411 79.6968 15.3308V11.6555H78.6114V10.5002H79.6968V8.99585L81.1695 8.5769V10.5002H82.7247V11.6555H81.1695V14.9055C81.1695 15.2906 81.2393 15.5657 81.379 15.7307C81.5186 15.8958 81.7514 15.9783 82.0772 15.9783C82.3269 15.9783 82.5427 15.9063 82.7247 15.7625V16.9304ZM85.5512 7.71997L84.5165 10.5447H83.5453L84.2626 7.71997H85.5512ZM90.3708 16.9304C90.083 17.0743 89.7043 17.1462 89.2346 17.1462C87.9735 17.1462 87.343 16.5411 87.343 15.3308V11.6555H86.2575V10.5002H87.343V8.99585L88.8156 8.5769V10.5002H90.3708V11.6555H88.8156V14.9055C88.8156 15.2906 88.8854 15.5657 89.0251 15.7307C89.1647 15.8958 89.3975 15.9783 89.7233 15.9783C89.973 15.9783 90.1888 15.9063 90.3708 15.7625V16.9304ZM96.4346 17.0002H95.0064V15.9846H94.981C94.5324 16.7633 93.8744 17.1526 93.0069 17.1526C92.3679 17.1526 91.8664 16.9791 91.5025 16.6321C91.1428 16.2851 90.9629 15.8259 90.9629 15.2546C90.9629 14.0274 91.6696 13.3123 93.083 13.1091L95.0127 12.8362C95.0127 11.9094 94.5726 11.446 93.6924 11.446C92.918 11.446 92.2197 11.7126 91.5977 12.2458V10.9573C92.2832 10.551 93.0746 10.3479 93.9717 10.3479C95.6136 10.3479 96.4346 11.1562 96.4346 12.7727V17.0002ZM95.0127 13.8074L93.648 13.9978C93.2248 14.0528 92.9053 14.1565 92.6895 14.3088C92.4779 14.4569 92.3721 14.7193 92.3721 15.0959C92.3721 15.371 92.4694 15.5974 92.6641 15.7751C92.863 15.9486 93.1275 16.0354 93.4575 16.0354C93.9061 16.0354 94.2764 15.8788 94.5684 15.5657C94.8646 15.2483 95.0127 14.8505 95.0127 14.3723V13.8074ZM103.831 17.0002H102.359V13.3376C102.359 12.1231 101.929 11.5159 101.07 11.5159C100.622 11.5159 100.251 11.6851 99.9593 12.0237C99.6673 12.358 99.5213 12.7812 99.5213 13.2932V17.0002H98.0423V10.5002H99.5213V11.5793H99.5467C100.033 10.7584 100.736 10.3479 101.654 10.3479C102.361 10.3479 102.9 10.5785 103.273 11.0398C103.645 11.4968 103.831 12.1591 103.831 13.0266V17.0002Z" fill="black" fill-opacity="0.8956"/>
<rect x="0.5" y="0.5" width="111" height="31" rx="3.5" stroke="url(#paint0_linear_1640_30158)"/>
<defs>
<linearGradient id="paint0_linear_1640_30158" x1="56" y1="1" x2="56" y2="31" gradientUnits="userSpaceOnUse">
<stop offset="0.905762" stop-opacity="0.0578"/>
<stop offset="1" stop-opacity="0.1622"/>
</linearGradient>
</defs>
</svg>
