<svg width="131" height="32" viewBox="0 0 131 32" fill="none" xmlns="http://www.w3.org/2000/svg">
<rect x="0.5" y="0.5" width="130" height="31" rx="3.5" fill="black"/>
<path d="M15.5559 7H7V15.5608H15.5559V7Z" fill="#F25022"/>
<path d="M25.0001 7H16.4442V15.5608H25.0001V7Z" fill="#7FBA00"/>
<path d="M15.5559 16.4395H7V25.0002H15.5559V16.4395Z" fill="#00A4EF"/>
<path d="M25.0002 16.4395H16.4443V25.0002H25.0002V16.4395Z" fill="#FFB900"/>
<path d="M32.0312 13.0938C31.237 13.0938 30.599 12.832 30.1172 12.3086C29.638 11.7852 29.3984 11.1042 29.3984 10.2656C29.3984 9.36719 29.6432 8.64974 30.1328 8.11328C30.6224 7.57422 31.2865 7.30469 32.125 7.30469C32.901 7.30469 33.526 7.5651 34 8.08594C34.4766 8.60677 34.7148 9.28906 34.7148 10.1328C34.7148 11.0443 34.4701 11.7656 33.9805 12.2969C33.4935 12.8281 32.8438 13.0938 32.0312 13.0938ZM32.0352 12.457C32.6341 12.457 33.1055 12.2617 33.4492 11.8711C33.793 11.4779 33.9648 10.9271 33.9648 10.2188C33.9648 9.49479 33.7969 8.9349 33.4609 8.53906C33.1276 8.14323 32.6667 7.94531 32.0781 7.94531C31.5052 7.94531 31.0404 8.15365 30.6836 8.57031C30.3268 8.98438 30.1484 9.52995 30.1484 10.207C30.1484 10.8841 30.3216 11.4284 30.668 11.8398C31.0169 12.2513 31.4727 12.457 32.0352 12.457ZM37.1875 13H36.4922V9.48828H35.25V8.90234H38.4297V9.48828H37.1875V13ZM39.957 12.4102H39.9414V14.8398H39.2461V8.90234H39.9414V9.61719H39.957C40.1185 9.34635 40.3177 9.14323 40.5547 9.00781C40.7917 8.8724 41.0638 8.80469 41.3711 8.80469C41.8997 8.80469 42.3112 8.98828 42.6055 9.35547C42.9023 9.72266 43.0508 10.2135 43.0508 10.8281C43.0508 11.5156 42.8828 12.0664 42.5469 12.4805C42.2135 12.8919 41.7591 13.0977 41.1836 13.0977C40.918 13.0977 40.6823 13.0404 40.4766 12.9258C40.2734 12.8112 40.1003 12.6393 39.957 12.4102ZM39.9375 10.7617V11.3086C39.9375 11.6471 40.0456 11.9336 40.2617 12.168C40.4779 12.4023 40.7539 12.5195 41.0898 12.5195C41.4779 12.5195 41.7826 12.3698 42.0039 12.0703C42.2253 11.7708 42.3359 11.3542 42.3359 10.8203C42.3359 10.3698 42.2331 10.0182 42.0273 9.76562C41.8216 9.51042 41.5417 9.38281 41.1875 9.38281C40.8099 9.38281 40.5065 9.51432 40.2773 9.77734C40.0508 10.0378 39.9375 10.3659 39.9375 10.7617ZM44.1289 13V8.90234H44.7969V12.0977C44.8281 12.0352 44.862 11.9714 44.8984 11.9062C44.9375 11.8411 44.974 11.7826 45.0078 11.7305L46.8984 8.90234H47.6094V13H46.9414V9.80469C46.9076 9.86719 46.8711 9.93099 46.832 9.99609C46.7956 10.0612 46.7617 10.1198 46.7305 10.1719L44.8398 13H44.1289ZM48.9648 13V8.90234H49.8555L50.9922 11.5859C51.0234 11.6615 51.0573 11.7487 51.0938 11.8477C51.1328 11.944 51.1667 12.0339 51.1953 12.1172H51.2031C51.2318 12.0339 51.2643 11.944 51.3008 11.8477C51.3372 11.7487 51.3711 11.6615 51.4023 11.5859L52.5391 8.90234H53.4453V13H52.8125V9.62891H52.8047C52.7526 9.76432 52.6979 9.90495 52.6406 10.0508C52.5859 10.194 52.543 10.3021 52.5117 10.375L51.3984 13H50.9844L49.8711 10.375C49.8424 10.3021 49.7995 10.194 49.7422 10.0508C49.6849 9.90495 49.6302 9.76432 49.5781 9.62891H49.5703V13H48.9648ZM57.75 13H57.0586V12.3555H57.043C56.9023 12.6003 56.7279 12.7852 56.5195 12.9102C56.3112 13.0352 56.069 13.0977 55.793 13.0977C55.4076 13.0977 55.0964 12.9857 54.8594 12.7617C54.6224 12.5378 54.5039 12.2422 54.5039 11.875C54.5039 11.5182 54.6237 11.2253 54.8633 10.9961C55.1029 10.7669 55.4479 10.6198 55.8984 10.5547L57.0625 10.3984V10.3047C57.0625 9.97396 56.9831 9.73568 56.8242 9.58984C56.668 9.44401 56.457 9.37109 56.1914 9.37109C55.9805 9.37109 55.7747 9.41146 55.5742 9.49219C55.3737 9.57292 55.1836 9.69401 55.0039 9.85547L54.625 9.43359C54.8568 9.22005 55.1042 9.0625 55.3672 8.96094C55.6328 8.85677 55.9232 8.80469 56.2383 8.80469C56.7383 8.80469 57.1146 8.93359 57.3672 9.19141C57.6224 9.44922 57.75 9.83594 57.75 10.3516V13ZM57.0625 11.3281V10.9336L56.0859 11.0664C55.7865 11.1081 55.5625 11.1836 55.4141 11.293C55.2656 11.4023 55.1914 11.5742 55.1914 11.8086C55.1914 12.0404 55.2604 12.2201 55.3984 12.3477C55.5391 12.4753 55.7135 12.5391 55.9219 12.5391C56.2656 12.5391 56.5417 12.4258 56.75 12.1992C56.9583 11.9701 57.0625 11.6797 57.0625 11.3281ZM60.4453 13H59.75V9.48828H58.5078V8.90234H61.6875V9.48828H60.4453V13ZM62.5039 13V8.90234H63.1719V12.0977C63.2031 12.0352 63.237 11.9714 63.2734 11.9062C63.3125 11.8411 63.349 11.7826 63.3828 11.7305L65.2734 8.90234H65.9844V13H65.3164V9.80469C65.2826 9.86719 65.2461 9.93099 65.207 9.99609C65.1706 10.0612 65.1367 10.1198 65.1055 10.1719L63.2148 13H62.5039ZM69.5352 13V8.90234H71.3516C71.763 8.90234 72.0846 8.99089 72.3164 9.16797C72.5508 9.34505 72.668 9.58984 72.668 9.90234C72.668 10.1628 72.6016 10.375 72.4688 10.5391C72.3359 10.7005 72.1393 10.8099 71.8789 10.8672C72.1914 10.9062 72.4258 11.0052 72.582 11.1641C72.7409 11.3229 72.8203 11.5404 72.8203 11.8164C72.8203 12.1523 72.6914 12.4336 72.4336 12.6602C72.1784 12.8867 71.8568 13 71.4688 13H69.5352ZM70.2266 9.46875V10.6133H71.1836C71.444 10.6133 71.6393 10.5625 71.7695 10.4609C71.8997 10.3594 71.9648 10.207 71.9648 10.0039C71.9648 9.82422 71.9062 9.6901 71.7891 9.60156C71.6719 9.51302 71.4961 9.46875 71.2617 9.46875H70.2266ZM70.2266 11.1797V12.4297H71.3359C71.5964 12.4297 71.7917 12.3763 71.9219 12.2695C72.0547 12.1628 72.1211 12.0026 72.1211 11.7891C72.1211 11.5859 72.0469 11.4336 71.8984 11.332C71.7526 11.2305 71.5339 11.1797 71.2422 11.1797H70.2266ZM74.3047 8.03516C74.1667 8.03516 74.0521 7.98958 73.9609 7.89844C73.8698 7.80729 73.8242 7.69661 73.8242 7.56641C73.8242 7.43099 73.8698 7.31901 73.9609 7.23047C74.0521 7.13932 74.1667 7.09375 74.3047 7.09375C74.4427 7.09375 74.5573 7.13932 74.6484 7.23047C74.7422 7.31901 74.7891 7.43099 74.7891 7.56641C74.7891 7.69661 74.7422 7.80729 74.6484 7.89844C74.5573 7.98958 74.4427 8.03516 74.3047 8.03516ZM74.6445 13H73.9492V8.90234H74.6445V13ZM75.4766 14.0664V12.4258H75.8594C76.0234 12.1445 76.1497 11.7812 76.2383 11.3359C76.3268 10.8906 76.3711 10.3932 76.3711 9.84375V8.90234H79.082V12.4258H79.6914V14.0664H79.0938V13H76.0742V14.0664H75.4766ZM78.3867 12.4258V9.47266H77.0117V9.88672C77.0117 10.4102 76.974 10.8919 76.8984 11.332C76.8229 11.7721 76.7135 12.1367 76.5703 12.4258H78.3867ZM83.5352 13H82.8398V8.90234H83.5352V10.7812H83.5547L85.2344 8.90234H86.1367L84.2734 10.875L86.2812 13H85.3242L83.5547 11.0234H83.5352V13ZM88.6719 13.0977C88.0599 13.0977 87.5716 12.9062 87.207 12.5234C86.8451 12.138 86.6641 11.6276 86.6641 10.9922C86.6641 10.3073 86.8516 9.77214 87.2266 9.38672C87.6016 9.0013 88.1133 8.80729 88.7617 8.80469C89.3763 8.80208 89.8568 8.99089 90.2031 9.37109C90.5521 9.7487 90.7266 10.2682 90.7266 10.9297C90.7266 11.5885 90.5404 12.1146 90.168 12.5078C89.7956 12.901 89.2969 13.0977 88.6719 13.0977ZM88.7188 12.5195C89.1354 12.5195 89.4544 12.3841 89.6758 12.1133C89.8997 11.8398 90.0117 11.4531 90.0117 10.9531C90.0117 10.4479 89.8997 10.0599 89.6758 9.78906C89.4518 9.51823 89.1328 9.38281 88.7188 9.38281C88.3047 9.38281 87.9766 9.52474 87.7344 9.80859C87.4948 10.0898 87.375 10.4779 87.375 10.9727C87.375 11.4544 87.4961 11.8333 87.7383 12.1094C87.9805 12.3828 88.3073 12.5195 88.7188 12.5195ZM92.5195 12.4102H92.5039V14.8398H91.8086V8.90234H92.5039V9.61719H92.5195C92.681 9.34635 92.8802 9.14323 93.1172 9.00781C93.3542 8.8724 93.6263 8.80469 93.9336 8.80469C94.4622 8.80469 94.8737 8.98828 95.168 9.35547C95.4648 9.72266 95.6133 10.2135 95.6133 10.8281C95.6133 11.5156 95.4453 12.0664 95.1094 12.4805C94.776 12.8919 94.3216 13.0977 93.7461 13.0977C93.4805 13.0977 93.2448 13.0404 93.0391 12.9258C92.8359 12.8112 92.6628 12.6393 92.5195 12.4102ZM92.5 10.7617V11.3086C92.5 11.6471 92.6081 11.9336 92.8242 12.168C93.0404 12.4023 93.3164 12.5195 93.6523 12.5195C94.0404 12.5195 94.3451 12.3698 94.5664 12.0703C94.7878 11.7708 94.8984 11.3542 94.8984 10.8203C94.8984 10.3698 94.7956 10.0182 94.5898 9.76562C94.3841 9.51042 94.1042 9.38281 93.75 9.38281C93.3724 9.38281 93.069 9.51432 92.8398 9.77734C92.6133 10.0378 92.5 10.3659 92.5 10.7617ZM99.4336 13V9.48047H97.3867V13H96.6914V8.90234H100.129V13H99.4336ZM103.219 13.0977C102.607 13.0977 102.118 12.9062 101.754 12.5234C101.392 12.138 101.211 11.6276 101.211 10.9922C101.211 10.3073 101.398 9.77214 101.773 9.38672C102.148 9.0013 102.66 8.80729 103.309 8.80469C103.923 8.80208 104.404 8.99089 104.75 9.37109C105.099 9.7487 105.273 10.2682 105.273 10.9297C105.273 11.5885 105.087 12.1146 104.715 12.5078C104.342 12.901 103.844 13.0977 103.219 13.0977ZM103.266 12.5195C103.682 12.5195 104.001 12.3841 104.223 12.1133C104.447 11.8398 104.559 11.4531 104.559 10.9531C104.559 10.4479 104.447 10.0599 104.223 9.78906C103.999 9.51823 103.68 9.38281 103.266 9.38281C102.852 9.38281 102.523 9.52474 102.281 9.80859C102.042 10.0898 101.922 10.4779 101.922 10.9727C101.922 11.4544 102.043 11.8333 102.285 12.1094C102.527 12.3828 102.854 12.5195 103.266 12.5195ZM107.066 12.4102H107.051V14.8398H106.355V8.90234H107.051V9.61719H107.066C107.228 9.34635 107.427 9.14323 107.664 9.00781C107.901 8.8724 108.173 8.80469 108.48 8.80469C109.009 8.80469 109.421 8.98828 109.715 9.35547C110.012 9.72266 110.16 10.2135 110.16 10.8281C110.16 11.5156 109.992 12.0664 109.656 12.4805C109.323 12.8919 108.868 13.0977 108.293 13.0977C108.027 13.0977 107.792 13.0404 107.586 12.9258C107.383 12.8112 107.21 12.6393 107.066 12.4102ZM107.047 10.7617V11.3086C107.047 11.6471 107.155 11.9336 107.371 12.168C107.587 12.4023 107.863 12.5195 108.199 12.5195C108.587 12.5195 108.892 12.3698 109.113 12.0703C109.335 11.7708 109.445 11.3542 109.445 10.8203C109.445 10.3698 109.342 10.0182 109.137 9.76562C108.931 9.51042 108.651 9.38281 108.297 9.38281C107.919 9.38281 107.616 9.51432 107.387 9.77734C107.16 10.0378 107.047 10.3659 107.047 10.7617ZM114.141 13H113.449V12.3555H113.434C113.293 12.6003 113.118 12.7852 112.91 12.9102C112.702 13.0352 112.46 13.0977 112.184 13.0977C111.798 13.0977 111.487 12.9857 111.25 12.7617C111.013 12.5378 110.895 12.2422 110.895 11.875C110.895 11.5182 111.014 11.2253 111.254 10.9961C111.493 10.7669 111.839 10.6198 112.289 10.5547L113.453 10.3984V10.3047C113.453 9.97396 113.374 9.73568 113.215 9.58984C113.059 9.44401 112.848 9.37109 112.582 9.37109C112.371 9.37109 112.165 9.41146 111.965 9.49219C111.764 9.57292 111.574 9.69401 111.395 9.85547L111.016 9.43359C111.247 9.22005 111.495 9.0625 111.758 8.96094C112.023 8.85677 112.314 8.80469 112.629 8.80469C113.129 8.80469 113.505 8.93359 113.758 9.19141C114.013 9.44922 114.141 9.83594 114.141 10.3516V13ZM113.453 11.3281V10.9336L112.477 11.0664C112.177 11.1081 111.953 11.1836 111.805 11.293C111.656 11.4023 111.582 11.5742 111.582 11.8086C111.582 12.0404 111.651 12.2201 111.789 12.3477C111.93 12.4753 112.104 12.5391 112.312 12.5391C112.656 12.5391 112.932 12.4258 113.141 12.1992C113.349 11.9701 113.453 11.6797 113.453 11.3281ZM118.883 14.0664V13H115.434V8.90234H116.129V12.4258H118.176V8.90234H118.871V12.4258H119.48V14.0664H118.883ZM120.789 8.03516C120.651 8.03516 120.536 7.98958 120.445 7.89844C120.354 7.80729 120.309 7.69661 120.309 7.56641C120.309 7.43099 120.354 7.31901 120.445 7.23047C120.536 7.13932 120.651 7.09375 120.789 7.09375C120.927 7.09375 121.042 7.13932 121.133 7.23047C121.227 7.31901 121.273 7.43099 121.273 7.56641C121.273 7.69661 121.227 7.80729 121.133 7.89844C121.042 7.98958 120.927 8.03516 120.789 8.03516ZM121.129 13H120.434V8.90234H121.129V13ZM122.527 13V8.90234H123.223V13H122.527ZM123.613 8.17188C123.501 8.17188 123.405 8.13411 123.324 8.05859C123.246 7.98307 123.207 7.88672 123.207 7.76953C123.207 7.65755 123.245 7.5638 123.32 7.48828C123.398 7.41276 123.493 7.375 123.605 7.375C123.72 7.375 123.816 7.41406 123.895 7.49219C123.975 7.56771 124.016 7.66016 124.016 7.76953C124.016 7.88151 123.977 7.97656 123.898 8.05469C123.823 8.13281 123.728 8.17188 123.613 8.17188ZM122.086 8.17188C121.969 8.17188 121.871 8.13281 121.793 8.05469C121.712 7.97396 121.672 7.87891 121.672 7.76953C121.672 7.65755 121.711 7.5638 121.789 7.48828C121.867 7.41276 121.962 7.375 122.074 7.375C122.189 7.375 122.286 7.41406 122.367 7.49219C122.448 7.56771 122.488 7.66016 122.488 7.76953C122.488 7.88151 122.448 7.97656 122.367 8.05469C122.289 8.13281 122.195 8.17188 122.086 8.17188Z" fill="white"/>
<path d="M39.8989 25H38.4009V19.1094C38.4009 18.627 38.4305 18.0366 38.4897 17.3384H38.4644C38.3713 17.7362 38.2887 18.0218 38.2168 18.1953L35.5 25H34.459L31.7358 18.2461C31.6597 18.0472 31.5793 17.7446 31.4946 17.3384H31.4692C31.5031 17.7023 31.52 18.2969 31.52 19.1221V25H30.1235V15.8975H32.25L34.6431 21.9595C34.825 22.425 34.9435 22.772 34.9985 23.0005H35.0303C35.1868 22.5223 35.3138 22.1668 35.4111 21.9341L37.8486 15.8975H39.8989V25ZM46.9702 25H45.542V23.9844H45.5166C45.068 24.763 44.41 25.1523 43.5425 25.1523C42.9035 25.1523 42.402 24.9788 42.0381 24.6318C41.6784 24.2848 41.4985 23.8257 41.4985 23.2544C41.4985 22.0272 42.2052 21.312 43.6187 21.1089L45.5483 20.8359C45.5483 19.9092 45.1082 19.4458 44.228 19.4458C43.4536 19.4458 42.7554 19.7124 42.1333 20.2456V18.957C42.8188 18.5508 43.6102 18.3477 44.5073 18.3477C46.1493 18.3477 46.9702 19.1559 46.9702 20.7725V25ZM45.5483 21.8071L44.1836 21.9976C43.7604 22.0526 43.4409 22.1562 43.2251 22.3086C43.0135 22.4567 42.9077 22.7191 42.9077 23.0957C42.9077 23.3708 43.005 23.5972 43.1997 23.7749C43.3986 23.9484 43.6631 24.0352 43.9932 24.0352C44.4417 24.0352 44.812 23.8786 45.104 23.5654C45.4002 23.248 45.5483 22.8503 45.5483 22.3721V21.8071ZM54.6763 25H53.3433V20.2329C53.2586 20.4022 53.1296 20.637 52.9561 20.9375L50.2202 25H48.7729V18.5H50.125V23.1719C50.1715 23.0618 50.271 22.8714 50.4233 22.6006L53.1973 18.5H54.6763V25ZM54.251 15.3706C54.1833 16.0054 53.9209 16.5068 53.4639 16.875C53.0111 17.2389 52.4419 17.4209 51.7563 17.4209C51.0539 17.4209 50.4805 17.2389 50.0361 16.875C49.596 16.5068 49.3548 16.0054 49.3125 15.3706H50.5376C50.5968 16.1408 51.0094 16.5259 51.7754 16.5259C52.1139 16.5259 52.3932 16.4243 52.6133 16.2212C52.8376 16.0181 52.9751 15.7345 53.0259 15.3706H54.251ZM62.5093 25H60.6367L58.1104 21.8325H58.085V25H56.606V18.5H58.085V21.4897H58.1104L60.4971 18.5H62.2998L59.5957 21.5977L62.5093 25ZM64.9341 24.0415H64.9087V27.9897H63.436V18.5H64.9087V19.6426H64.9341C65.4377 18.7793 66.174 18.3477 67.1431 18.3477C67.9683 18.3477 68.6115 18.6375 69.0728 19.2173C69.534 19.797 69.7646 20.5757 69.7646 21.5532C69.7646 22.6366 69.5044 23.5041 68.9839 24.1558C68.4634 24.8075 67.7524 25.1333 66.8511 25.1333C66.0216 25.1333 65.3826 24.7694 64.9341 24.0415ZM64.896 21.4771V22.2832C64.896 22.7572 65.0462 23.1592 65.3467 23.4893C65.6514 23.8193 66.0365 23.9844 66.502 23.9844C67.0479 23.9844 67.4753 23.7728 67.7842 23.3496C68.0973 22.9222 68.2539 22.3276 68.2539 21.5659C68.2539 20.9269 68.1079 20.4276 67.8159 20.0679C67.5282 19.7039 67.1367 19.522 66.6416 19.522C66.1169 19.522 65.6937 19.7082 65.3721 20.0806C65.0547 20.453 64.896 20.9185 64.896 21.4771ZM74.1509 25.1523C73.1479 25.1523 72.346 24.8498 71.7451 24.2446C71.1484 23.6353 70.8501 22.8291 70.8501 21.8262C70.8501 20.7344 71.1611 19.8817 71.7832 19.2681C72.4095 18.6545 73.2516 18.3477 74.3096 18.3477C75.3252 18.3477 76.1165 18.646 76.6836 19.2427C77.2507 19.8394 77.5342 20.6667 77.5342 21.7246C77.5342 22.7614 77.2274 23.5929 76.6138 24.2192C76.0044 24.8413 75.1834 25.1523 74.1509 25.1523ZM74.2207 19.522C73.6452 19.522 73.1903 19.723 72.856 20.125C72.5216 20.527 72.3545 21.0814 72.3545 21.7881C72.3545 22.4694 72.5238 23.0068 72.8623 23.4004C73.2008 23.7897 73.6536 23.9844 74.2207 23.9844C74.8005 23.9844 75.2448 23.7918 75.5537 23.4067C75.8669 23.0216 76.0234 22.4736 76.0234 21.7627C76.0234 21.0475 75.8669 20.4953 75.5537 20.106C75.2448 19.7166 74.8005 19.522 74.2207 19.522ZM83.6914 24.7017C83.1709 25.0021 82.5552 25.1523 81.8442 25.1523C80.8794 25.1523 80.1007 24.8519 79.5083 24.251C78.9159 23.6458 78.6196 22.863 78.6196 21.9023C78.6196 20.8317 78.937 19.9727 79.5718 19.3252C80.2108 18.6735 81.0635 18.3477 82.1299 18.3477C82.7223 18.3477 83.245 18.4513 83.6978 18.6587V20.0298C83.245 19.6912 82.7625 19.522 82.2505 19.522C81.6284 19.522 81.1185 19.7336 80.7207 20.1567C80.3229 20.5757 80.124 21.1258 80.124 21.8071C80.124 22.48 80.3102 23.0111 80.6826 23.4004C81.0592 23.7897 81.5628 23.9844 82.1934 23.9844C82.7223 23.9844 83.2217 23.7961 83.6914 23.4194V24.7017ZM88.0396 25.1523C87.0366 25.1523 86.2347 24.8498 85.6338 24.2446C85.0371 23.6353 84.7388 22.8291 84.7388 21.8262C84.7388 20.7344 85.0498 19.8817 85.6719 19.2681C86.2982 18.6545 87.1403 18.3477 88.1982 18.3477C89.2139 18.3477 90.0052 18.646 90.5723 19.2427C91.1393 19.8394 91.4229 20.6667 91.4229 21.7246C91.4229 22.7614 91.116 23.5929 90.5024 24.2192C89.8931 24.8413 89.0721 25.1523 88.0396 25.1523ZM88.1094 19.522C87.5339 19.522 87.0789 19.723 86.7446 20.125C86.4103 20.527 86.2432 21.0814 86.2432 21.7881C86.2432 22.4694 86.4124 23.0068 86.751 23.4004C87.0895 23.7897 87.5423 23.9844 88.1094 23.9844C88.6891 23.9844 89.1335 23.7918 89.4424 23.4067C89.7555 23.0216 89.9121 22.4736 89.9121 21.7627C89.9121 21.0475 89.7555 20.4953 89.4424 20.106C89.1335 19.7166 88.6891 19.522 88.1094 19.522ZM97.3896 25.1143V28.0342H96.0312V25.1143H95.8154C94.8252 25.1143 94.0233 24.8096 93.4097 24.2002C92.8003 23.5908 92.4956 22.7931 92.4956 21.8071C92.4956 20.7703 92.8045 19.9409 93.4224 19.3188C94.0402 18.6968 94.8569 18.3857 95.8726 18.3857H96.0312V15.7261H97.3896V18.3857H97.5356C98.5597 18.3857 99.3807 18.6947 99.9985 19.3125C100.616 19.9303 100.925 20.7619 100.925 21.8071C100.925 22.7931 100.621 23.5908 100.011 24.2002C99.4061 24.8096 98.6105 25.1143 97.6245 25.1143H97.3896ZM97.3896 19.5029V24.0034H97.5103C98.09 24.0034 98.5534 23.8045 98.9004 23.4067C99.2474 23.009 99.4209 22.4694 99.4209 21.7881C99.4209 21.0729 99.2495 20.5143 98.9067 20.1123C98.5682 19.7061 98.1133 19.5029 97.542 19.5029H97.3896ZM96.0312 24.0034V19.5029H95.8979C95.3267 19.5029 94.8675 19.7061 94.5205 20.1123C94.1735 20.5186 94 21.0771 94 21.7881C94 22.4609 94.1735 22.9984 94.5205 23.4004C94.8675 23.8024 95.333 24.0034 95.917 24.0034H96.0312ZM106.638 19.6743H104.785V25H103.306V19.6743H101.439V18.5H106.638V19.6743Z" fill="white"/>
<rect x="0.5" y="0.5" width="130" height="31" rx="3.5" stroke="black"/>
</svg>
