<svg width="116" height="34" viewBox="0 0 116 34" fill="none" xmlns="http://www.w3.org/2000/svg">
<rect x="1" y="1" width="114" height="32" rx="4" fill="#202020"/>
<rect x="0.5" y="0.5" width="115" height="33" rx="4.5" stroke="black" stroke-opacity="0.1"/>
<g clip-path="url(#clip0_976_1904)">
<g clip-path="url(#clip1_976_1904)">
<path d="M8.28125 11C8.28125 10.5858 8.61704 10.25 9.03125 10.25H24.9687C25.383 10.25 25.7188 10.5858 25.7188 11V22.3438C25.7188 24.0524 24.3336 25.4375 22.625 25.4375H11.375C9.66637 25.4375 8.28125 24.0524 8.28125 22.3438V11Z" fill="url(#paint0_linear_976_1904)"/>
<mask id="mask0_976_1904" style="mask-type:alpha" maskUnits="userSpaceOnUse" x="8" y="10" width="18" height="16">
<path d="M8.28125 11C8.28125 10.5858 8.61704 10.25 9.03125 10.25H24.9687C25.383 10.25 25.7188 10.5858 25.7188 11V22.3438C25.7188 24.0524 24.3336 25.4375 22.625 25.4375H11.375C9.66637 25.4375 8.28125 24.0524 8.28125 22.3438V11Z" fill="url(#paint1_linear_976_1904)"/>
</mask>
<g mask="url(#mask0_976_1904)">
<g filter="url(#filter0_dd_976_1904)">
<path d="M12.7812 10.8125V8.5625H21.2187V10.8125" stroke="url(#paint2_linear_976_1904)" stroke-width="1.125" stroke-linecap="round"/>
</g>
</g>
<g filter="url(#filter1_dd_976_1904)">
<path d="M16.719 14.1875H13.344V17.5625H16.719V14.1875Z" fill="#F25022"/>
<path d="M20.6562 14.1875H17.2812V17.5625H20.6562V14.1875Z" fill="#7FBA00"/>
<path d="M20.6562 18.125H17.2812V21.5H20.6562V18.125Z" fill="#FFB900"/>
<path d="M16.7188 18.125H13.3438V21.5H16.7188V18.125Z" fill="#00A4EF"/>
</g>
<path d="M12.7812 10.8125V9.125C12.7812 8.81434 13.0331 8.5625 13.3438 8.5625H20.6563C20.9669 8.5625 21.2188 8.81434 21.2188 9.125V10.8125" stroke="url(#paint3_linear_976_1904)" stroke-width="1.125" stroke-linecap="round"/>
<rect x="13.3438" y="8" width="7.3125" height="1.125" fill="url(#paint4_linear_976_1904)"/>
<mask id="mask1_976_1904" style="mask-type:alpha" maskUnits="userSpaceOnUse" x="13" y="8" width="8" height="2">
<rect x="13.3438" y="8" width="7.3125" height="1.125" fill="url(#paint5_linear_976_1904)"/>
</mask>
<g mask="url(#mask1_976_1904)">
<g filter="url(#filter2_dd_976_1904)">
<rect x="11.7189" y="8.56274" width="1.625" height="2.8125" fill="#C4C4C4"/>
</g>
</g>
</g>
</g>
<path d="M39.2275 16H37.96V11.0854C37.96 10.8634 37.9653 10.6217 37.9761 10.3604C37.9904 10.0954 38.0083 9.81429 38.0298 9.51709H37.9976C37.9546 9.72119 37.9134 9.89665 37.874 10.0435C37.8382 10.1867 37.8024 10.3013 37.7666 10.3872L35.5054 16H34.6245L32.3525 10.4355C32.3239 10.3568 32.2881 10.2404 32.2451 10.0864C32.2057 9.93245 32.1628 9.74268 32.1162 9.51709H32.084C32.1055 9.7749 32.1198 10.0488 32.127 10.3389C32.1341 10.6253 32.1377 10.9279 32.1377 11.2466V16H30.9561V8.29785H32.7607L34.7642 13.3037C34.8429 13.4935 34.9074 13.6689 34.9575 13.8301C35.0112 13.9876 35.0524 14.1344 35.0811 14.2705H35.1133C35.1777 14.0664 35.2386 13.882 35.2959 13.7173C35.3532 13.5526 35.4069 13.4093 35.457 13.2876L37.4873 8.29785H39.2275V16ZM41.6177 9.43652C41.3885 9.43652 41.1987 9.36312 41.0483 9.21631C40.8979 9.0695 40.8228 8.88867 40.8228 8.67383C40.8228 8.45182 40.8979 8.26921 41.0483 8.12598C41.1987 7.98275 41.3885 7.91113 41.6177 7.91113C41.8504 7.91113 42.042 7.98275 42.1924 8.12598C42.3428 8.26921 42.418 8.45182 42.418 8.67383C42.418 8.89225 42.3428 9.07487 42.1924 9.22168C42.042 9.36491 41.8504 9.43652 41.6177 9.43652ZM42.2354 16H40.9839V10.5H42.2354V16ZM47.9824 15.6616C47.7103 15.8263 47.4399 15.9445 47.1714 16.0161C46.9028 16.0913 46.611 16.1289 46.2959 16.1289C45.4508 16.1289 44.7741 15.8818 44.2656 15.3877C43.7607 14.8936 43.5083 14.2222 43.5083 13.3735C43.5083 12.4604 43.7697 11.7318 44.2925 11.1875C44.8188 10.6432 45.5278 10.3711 46.4194 10.3711C46.731 10.3711 47.0138 10.4051 47.2681 10.4731C47.5259 10.5376 47.7873 10.645 48.0522 10.7954L47.5635 11.6655C47.3773 11.5617 47.1947 11.4865 47.0156 11.4399C46.8366 11.3898 46.6414 11.3647 46.4302 11.3647C45.9038 11.3647 45.4974 11.5384 45.2109 11.8857C44.9245 12.2331 44.7812 12.6932 44.7812 13.2661C44.7812 13.8677 44.9352 14.3296 45.2432 14.6519C45.5547 14.9741 45.945 15.1353 46.4141 15.1353C46.5573 15.1353 46.722 15.1102 46.9082 15.0601C47.0944 15.0063 47.2824 14.9222 47.4722 14.8076L47.9824 15.6616ZM52.1021 11.5474C52.034 11.5295 51.9678 11.5169 51.9033 11.5098C51.8424 11.499 51.7708 11.4937 51.6885 11.4937C51.2409 11.4937 50.8971 11.6584 50.6572 11.9878C50.4173 12.3172 50.2974 12.7469 50.2974 13.2769V16H49.0459V10.5H50.2974V11.5581H50.3188C50.4478 11.1785 50.6375 10.8921 50.8882 10.6987C51.1388 10.5018 51.4342 10.4033 51.7744 10.4033C51.8711 10.4033 51.957 10.4087 52.0322 10.4194C52.111 10.4302 52.1862 10.4463 52.2578 10.4678L52.1021 11.5474ZM55.5557 16.1289C54.6963 16.1289 54.0142 15.8729 53.5093 15.3608C53.008 14.8452 52.7573 14.1559 52.7573 13.293C52.7609 12.3799 53.0223 11.6655 53.5415 11.1499C54.0607 10.6307 54.7679 10.3711 55.6631 10.3711C56.526 10.3675 57.1992 10.6217 57.6826 11.1338C58.1696 11.6423 58.4131 12.3315 58.4131 13.2017C58.4131 14.0968 58.1553 14.8094 57.6396 15.3394C57.1276 15.8657 56.4329 16.1289 55.5557 16.1289ZM55.6147 15.1353C56.1125 15.1353 56.4902 14.9723 56.748 14.6465C57.0094 14.3206 57.1401 13.8498 57.1401 13.2339C57.1401 12.6252 57.0094 12.1615 56.748 11.8428C56.4867 11.5241 56.1071 11.3647 55.6094 11.3647C55.1188 11.3647 54.7321 11.533 54.4492 11.8696C54.1699 12.2062 54.0303 12.6717 54.0303 13.2661C54.0303 13.8641 54.1699 14.326 54.4492 14.6519C54.7285 14.9741 55.117 15.1353 55.6147 15.1353ZM59.1543 15.5596L59.6968 14.6787C59.9116 14.8291 60.139 14.9508 60.3789 15.0439C60.6224 15.1335 60.8856 15.1782 61.1685 15.1782C61.4764 15.1782 61.7145 15.1227 61.8828 15.0117C62.0547 14.8971 62.1406 14.7271 62.1406 14.5015C62.1406 14.3224 62.069 14.1738 61.9258 14.0557C61.7861 13.9339 61.5462 13.8337 61.2061 13.7549C60.5186 13.5938 60.0352 13.3807 59.7559 13.1157C59.4801 12.8507 59.3423 12.5016 59.3423 12.0684C59.3423 11.5706 59.5356 11.1642 59.9224 10.8491C60.3091 10.5304 60.8158 10.3711 61.4424 10.3711C61.7539 10.3711 62.0511 10.4123 62.334 10.4946C62.6169 10.5734 62.8926 10.7005 63.1611 10.876L62.6562 11.7354C62.4199 11.585 62.2033 11.4775 62.0063 11.4131C61.8094 11.3486 61.6071 11.3164 61.3994 11.3164C61.1058 11.3164 60.8766 11.3719 60.7119 11.4829C60.5508 11.5903 60.4702 11.7407 60.4702 11.9341C60.4702 12.1382 60.5526 12.2904 60.7173 12.3906C60.8856 12.4873 61.1667 12.5822 61.5605 12.6753C62.1549 12.8185 62.59 13.0262 62.8657 13.2983C63.1414 13.5669 63.2793 13.9268 63.2793 14.3779C63.2793 14.9115 63.0841 15.3376 62.6938 15.6562C62.3071 15.9714 61.7826 16.1289 61.1201 16.1289C60.762 16.1289 60.4183 16.0824 60.0889 15.9893C59.763 15.8926 59.4515 15.7493 59.1543 15.5596ZM66.8779 16.1289C66.0186 16.1289 65.3364 15.8729 64.8315 15.3608C64.3302 14.8452 64.0796 14.1559 64.0796 13.293C64.0832 12.3799 64.3446 11.6655 64.8638 11.1499C65.383 10.6307 66.0902 10.3711 66.9854 10.3711C67.8483 10.3675 68.5215 10.6217 69.0049 11.1338C69.4919 11.6423 69.7354 12.3315 69.7354 13.2017C69.7354 14.0968 69.4775 14.8094 68.9619 15.3394C68.4499 15.8657 67.7552 16.1289 66.8779 16.1289ZM66.937 15.1353C67.4347 15.1353 67.8125 14.9723 68.0703 14.6465C68.3317 14.3206 68.4624 13.8498 68.4624 13.2339C68.4624 12.6252 68.3317 12.1615 68.0703 11.8428C67.8089 11.5241 67.4294 11.3647 66.9316 11.3647C66.4411 11.3647 66.0544 11.533 65.7715 11.8696C65.4922 12.2062 65.3525 12.6717 65.3525 13.2661C65.3525 13.8641 65.4922 14.326 65.7715 14.6519C66.0508 14.9741 66.4393 15.1353 66.937 15.1353ZM73.9839 8.84033C73.8836 8.80094 73.7923 8.77409 73.71 8.75977C73.6276 8.74186 73.5381 8.73291 73.4414 8.73291C73.1764 8.73291 72.9759 8.8099 72.8398 8.96387C72.7074 9.11426 72.6411 9.33268 72.6411 9.61914V10.5H73.9141V11.4775H72.6411V16H71.395V11.4775H70.4604V10.5H71.395V9.55469C71.395 8.99609 71.5741 8.55387 71.9321 8.22803C72.2938 7.8986 72.7718 7.73389 73.3662 7.73389C73.5524 7.73389 73.7135 7.74642 73.8496 7.77148C73.9857 7.79655 74.1271 7.83236 74.2739 7.87891L73.9839 8.84033ZM77.7974 15.9248C77.6362 15.9928 77.4679 16.043 77.2925 16.0752C77.117 16.1074 76.929 16.1235 76.7285 16.1235C76.2201 16.1235 75.828 15.9893 75.5522 15.7207C75.2801 15.4486 75.144 15.0439 75.144 14.5068V11.4775H74.2202V10.5H75.144V9.1626L76.3901 8.78662V10.5H77.7061V11.4775H76.3901V14.4048C76.3901 14.6733 76.4385 14.8667 76.5352 14.9849C76.6354 15.103 76.7894 15.1621 76.9971 15.1621C77.0973 15.1621 77.1922 15.1514 77.2817 15.1299C77.3748 15.1048 77.4572 15.0744 77.5288 15.0386L77.7974 15.9248ZM81.2939 15.4468L81.8633 14.4639C82.2106 14.6787 82.5347 14.8309 82.8354 14.9204C83.1362 15.0063 83.4728 15.0493 83.8452 15.0493C84.2892 15.0493 84.6383 14.9544 84.8926 14.7646C85.1504 14.5713 85.2793 14.2956 85.2793 13.9375C85.2793 13.6117 85.1719 13.3556 84.957 13.1694C84.7458 12.9797 84.3859 12.806 83.8774 12.6484C83.0933 12.4157 82.5168 12.1274 82.1479 11.7837C81.7791 11.4399 81.5947 10.9744 81.5947 10.3872C81.5947 9.74984 81.8328 9.22168 82.3091 8.80273C82.7853 8.38021 83.4316 8.16895 84.248 8.16895C84.6061 8.16895 84.9588 8.20833 85.3062 8.28711C85.6535 8.36589 85.9972 8.48763 86.3374 8.65234L85.8594 9.67285C85.5622 9.51888 85.2775 9.40967 85.0054 9.34521C84.7368 9.28076 84.4629 9.24854 84.1836 9.24854C83.7754 9.24854 83.4531 9.33805 83.2168 9.51709C82.984 9.69613 82.8677 9.94857 82.8677 10.2744C82.8677 10.5645 82.9751 10.7936 83.1899 10.9619C83.4048 11.1266 83.7736 11.2896 84.2964 11.4507C85.0985 11.6906 85.675 11.9896 86.0259 12.3477C86.3804 12.7057 86.5576 13.1981 86.5576 13.8247C86.5576 14.4979 86.3177 15.0511 85.8379 15.4844C85.3581 15.9141 84.6742 16.1289 83.7861 16.1289C83.3421 16.1289 82.9089 16.0734 82.4863 15.9624C82.0638 15.8478 81.6663 15.6759 81.2939 15.4468ZM90.4409 15.9248C90.2798 15.9928 90.1115 16.043 89.936 16.0752C89.7606 16.1074 89.5726 16.1235 89.3721 16.1235C88.8636 16.1235 88.4715 15.9893 88.1958 15.7207C87.9237 15.4486 87.7876 15.0439 87.7876 14.5068V11.4775H86.8638V10.5H87.7876V9.1626L89.0337 8.78662V10.5H90.3496V11.4775H89.0337V14.4048C89.0337 14.6733 89.082 14.8667 89.1787 14.9849C89.279 15.103 89.4329 15.1621 89.6406 15.1621C89.7409 15.1621 89.8358 15.1514 89.9253 15.1299C90.0184 15.1048 90.1007 15.0744 90.1724 15.0386L90.4409 15.9248ZM93.8623 16.1289C93.0029 16.1289 92.3208 15.8729 91.8159 15.3608C91.3146 14.8452 91.064 14.1559 91.064 13.293C91.0675 12.3799 91.3289 11.6655 91.8481 11.1499C92.3674 10.6307 93.0745 10.3711 93.9697 10.3711C94.8327 10.3675 95.5059 10.6217 95.9893 11.1338C96.4762 11.6423 96.7197 12.3315 96.7197 13.2017C96.7197 14.0968 96.4619 14.8094 95.9463 15.3394C95.4342 15.8657 94.7396 16.1289 93.8623 16.1289ZM93.9214 15.1353C94.4191 15.1353 94.7969 14.9723 95.0547 14.6465C95.3161 14.3206 95.4468 13.8498 95.4468 13.2339C95.4468 12.6252 95.3161 12.1615 95.0547 11.8428C94.7933 11.5241 94.4137 11.3647 93.916 11.3647C93.4255 11.3647 93.0387 11.533 92.7559 11.8696C92.4766 12.2062 92.3369 12.6717 92.3369 13.2661C92.3369 13.8641 92.4766 14.326 92.7559 14.6519C93.0352 14.9741 93.4237 15.1353 93.9214 15.1353ZM101.054 11.5474C100.986 11.5295 100.92 11.5169 100.855 11.5098C100.795 11.499 100.723 11.4937 100.641 11.4937C100.193 11.4937 99.8493 11.6584 99.6094 11.9878C99.3695 12.3172 99.2495 12.7469 99.2495 13.2769V16H97.998V10.5H99.2495V11.5581H99.271C99.3999 11.1785 99.5897 10.8921 99.8403 10.6987C100.091 10.5018 100.386 10.4033 100.727 10.4033C100.823 10.4033 100.909 10.4087 100.984 10.4194C101.063 10.4302 101.138 10.4463 101.21 10.4678L101.054 11.5474ZM106.721 13.5776H102.966C102.988 14.0968 103.138 14.4925 103.417 14.7646C103.697 15.0332 104.087 15.1675 104.588 15.1675C104.792 15.1675 105.025 15.1263 105.287 15.0439C105.548 14.9616 105.806 14.8291 106.06 14.6465L106.624 15.4253C106.284 15.6724 105.938 15.8514 105.587 15.9624C105.236 16.0734 104.85 16.1289 104.427 16.1289C103.571 16.1289 102.905 15.8836 102.429 15.3931C101.953 14.8989 101.713 14.2096 101.709 13.3252C101.709 12.4443 101.955 11.7318 102.445 11.1875C102.939 10.6432 103.571 10.3711 104.341 10.3711C105.079 10.3711 105.659 10.6038 106.082 11.0693C106.508 11.5312 106.721 12.1865 106.721 13.0352V13.5776ZM105.512 12.7129C105.512 12.2402 105.408 11.8857 105.201 11.6494C104.997 11.4095 104.707 11.2896 104.331 11.2896C103.976 11.2896 103.674 11.4185 103.423 11.6763C103.176 11.9305 103.024 12.276 102.966 12.7129H105.512Z" fill="white"/>
<path d="M32.0303 26.082C31.513 26.082 31.0994 25.9191 30.7896 25.5933C30.4819 25.2651 30.3281 24.8311 30.3281 24.291C30.3281 23.7054 30.4876 23.2474 30.8066 22.917C31.1257 22.5866 31.5609 22.4202 32.1123 22.418C32.6341 22.4157 33.0409 22.5763 33.3325 22.8999C33.6265 23.2235 33.7734 23.6689 33.7734 24.2363C33.7734 24.7969 33.6151 25.2446 33.2983 25.5796C32.9839 25.9146 32.5612 26.082 32.0303 26.082ZM32.0713 25.6104C32.4336 25.6104 32.7116 25.493 32.9053 25.2583C33.1012 25.0213 33.1992 24.6875 33.1992 24.2568C33.1992 23.8171 33.1012 23.4798 32.9053 23.2451C32.7093 23.0081 32.4313 22.8896 32.0713 22.8896C31.7113 22.8896 31.4264 23.0127 31.2168 23.2588C31.0072 23.5049 30.9023 23.8421 30.9023 24.2705C30.9023 24.6852 31.0083 25.0122 31.2202 25.2515C31.4321 25.4907 31.7158 25.6104 32.0713 25.6104ZM36.395 22.9785C36.3517 22.9648 36.313 22.9557 36.2788 22.9512C36.2446 22.9443 36.2013 22.9409 36.1489 22.9409C35.8641 22.9409 35.6396 23.0628 35.4756 23.3066C35.3115 23.5482 35.2295 23.8512 35.2295 24.2158V26H34.6689V22.5H35.2295V23.1938H35.2432C35.3229 22.9478 35.4448 22.7609 35.6089 22.6333C35.7729 22.5034 35.9621 22.4385 36.1763 22.4385C36.2469 22.4385 36.3062 22.4419 36.354 22.4487C36.4041 22.4556 36.4486 22.4658 36.4873 22.4795L36.395 22.9785ZM40.2095 27.6099H39.6489V25.3984H39.6353C39.5145 25.6263 39.3538 25.7972 39.1533 25.9111C38.9551 26.0251 38.717 26.082 38.439 26.082C37.9992 26.082 37.646 25.9259 37.3794 25.6138C37.1151 25.2993 36.9829 24.8721 36.9829 24.332C36.9829 23.751 37.1287 23.2873 37.4204 22.9409C37.7121 22.5923 38.104 22.418 38.5962 22.418C38.8354 22.418 39.0417 22.4658 39.2148 22.5615C39.388 22.6549 39.5282 22.7962 39.6353 22.9854H39.6489V22.5H40.2095V27.6099ZM39.6489 24.4243V23.915C39.6489 23.6279 39.5544 23.3853 39.3652 23.187C39.1784 22.9888 38.9403 22.8896 38.6509 22.8896C38.3136 22.8896 38.047 23.015 37.8511 23.2656C37.6551 23.514 37.5571 23.8649 37.5571 24.3184C37.5571 24.7217 37.6517 25.0384 37.8408 25.2686C38.0299 25.4964 38.2738 25.6104 38.5723 25.6104C38.9004 25.6104 39.1613 25.4987 39.355 25.2754C39.5509 25.0498 39.6489 24.7661 39.6489 24.4243ZM43.7026 26H43.1421V25.4531H43.1284C43.0076 25.6628 42.8584 25.82 42.6807 25.9248C42.5052 26.0296 42.3001 26.082 42.0654 26.082C41.7373 26.082 41.4718 25.9863 41.269 25.7949C41.0662 25.6035 40.9648 25.3494 40.9648 25.0327C40.9648 24.7342 41.0674 24.487 41.2725 24.291C41.4775 24.0951 41.7681 23.9697 42.144 23.915L43.1421 23.7817V23.7031C43.1421 23.4092 43.0737 23.2007 42.937 23.0776C42.8003 22.9523 42.618 22.8896 42.3901 22.8896C42.2078 22.8896 42.0324 22.9238 41.8638 22.9922C41.6951 23.0605 41.5368 23.1654 41.3887 23.3066L41.0605 22.9683C41.2565 22.7791 41.465 22.6401 41.686 22.5513C41.9071 22.4624 42.1532 22.418 42.4243 22.418C42.8481 22.418 43.1672 22.5273 43.3813 22.7461C43.5955 22.9626 43.7026 23.2884 43.7026 23.7236V26ZM43.1421 24.5781V24.2295L42.2979 24.3457C42.0404 24.3822 41.8467 24.4471 41.7168 24.5405C41.5869 24.634 41.522 24.7809 41.522 24.9814C41.522 25.1911 41.5824 25.3517 41.7031 25.4634C41.8262 25.5728 41.9754 25.6274 42.1509 25.6274C42.4539 25.6274 42.6943 25.5283 42.8721 25.3301C43.0521 25.1318 43.1421 24.8812 43.1421 24.5781ZM44.7861 26V20.8184H45.3467V26H44.7861ZM46.7686 21.6626C46.6546 21.6626 46.5589 21.625 46.4814 21.5498C46.404 21.4723 46.3652 21.3778 46.3652 21.2661C46.3652 21.1545 46.404 21.061 46.4814 20.9858C46.5589 20.9084 46.6546 20.8696 46.7686 20.8696C46.8825 20.8696 46.9782 20.9084 47.0557 20.9858C47.1331 21.061 47.1719 21.1545 47.1719 21.2661C47.1719 21.3778 47.1331 21.4723 47.0557 21.5498C46.9782 21.625 46.8825 21.6626 46.7686 21.6626ZM47.042 26H46.4814V22.5H47.042V26ZM52.8833 22.5L51.2324 26.6665C51.1025 26.9946 50.9396 27.2396 50.7437 27.4014C50.5477 27.5654 50.3175 27.6475 50.0532 27.6475C49.9849 27.6475 49.9222 27.6429 49.8652 27.6338C49.8083 27.627 49.7536 27.6167 49.7012 27.603L49.8105 27.1245C49.8516 27.1382 49.8892 27.1473 49.9233 27.1519C49.9598 27.1587 49.9951 27.1621 50.0293 27.1621C50.1797 27.1621 50.3039 27.1234 50.4019 27.0459C50.5021 26.9684 50.5819 26.859 50.6411 26.7178L50.9453 25.9932L49.5781 22.5H50.2002L51.147 25.1934C51.1515 25.2093 51.1595 25.2401 51.1709 25.2856C51.1846 25.3312 51.2005 25.3893 51.2188 25.46H51.2393C51.2461 25.4326 51.2541 25.3973 51.2632 25.354C51.2746 25.3107 51.2894 25.2594 51.3076 25.2002L52.3022 22.5H52.8833ZM56.3184 26H55.7578V25.4463H55.7441C55.6279 25.6582 55.4798 25.8177 55.2998 25.9248C55.1198 26.0296 54.9079 26.082 54.6641 26.082C54.2471 26.082 53.9338 25.9578 53.7241 25.7095C53.5168 25.4611 53.4131 25.0885 53.4131 24.5918V22.5H53.9702V24.5029C53.9702 24.8721 54.0409 25.1489 54.1821 25.3335C54.3234 25.5181 54.5353 25.6104 54.8179 25.6104C55.0913 25.6104 55.3158 25.5101 55.4912 25.3096C55.6689 25.1068 55.7578 24.8424 55.7578 24.5166V22.5H56.3184V26ZM60.3584 26H59.5723L58.0273 24.3184H58.0137V26H57.4531V20.8184H58.0137V24.103H58.0273L59.4971 22.5H60.2319L58.6084 24.1885L60.3584 26ZM60.9326 26V20.8184H61.4932V26H60.9326ZM65.106 26H64.5454V25.4531H64.5317C64.411 25.6628 64.2617 25.82 64.084 25.9248C63.9085 26.0296 63.7035 26.082 63.4688 26.082C63.1406 26.082 62.8752 25.9863 62.6724 25.7949C62.4696 25.6035 62.3682 25.3494 62.3682 25.0327C62.3682 24.7342 62.4707 24.487 62.6758 24.291C62.8809 24.0951 63.1714 23.9697 63.5474 23.915L64.5454 23.7817V23.7031C64.5454 23.4092 64.4771 23.2007 64.3403 23.0776C64.2036 22.9523 64.0213 22.8896 63.7935 22.8896C63.6112 22.8896 63.4357 22.9238 63.2671 22.9922C63.0985 23.0605 62.9401 23.1654 62.792 23.3066L62.4639 22.9683C62.6598 22.7791 62.8683 22.6401 63.0894 22.5513C63.3104 22.4624 63.5565 22.418 63.8276 22.418C64.2515 22.418 64.5705 22.5273 64.7847 22.7461C64.9989 22.9626 65.106 23.2884 65.106 23.7236V26ZM64.5454 24.5781V24.2295L63.7012 24.3457C63.4437 24.3822 63.25 24.4471 63.1201 24.5405C62.9902 24.634 62.9253 24.7809 62.9253 24.9814C62.9253 25.1911 62.9857 25.3517 63.1064 25.4634C63.2295 25.5728 63.3787 25.6274 63.5542 25.6274C63.8573 25.6274 64.0977 25.5283 64.2754 25.3301C64.4554 25.1318 64.5454 24.8812 64.5454 24.5781ZM66.7637 25.5488H66.75V26H66.1895V20.8184H66.75V23.1152H66.7637C66.9027 22.8828 67.0724 22.7085 67.2729 22.5923C67.4757 22.4761 67.7093 22.418 67.9736 22.418C68.4225 22.418 68.7734 22.5752 69.0264 22.8896C69.2816 23.2018 69.4092 23.6211 69.4092 24.1475C69.4092 24.7331 69.2668 25.2025 68.9819 25.5557C68.6971 25.9066 68.3075 26.082 67.813 26.082C67.5828 26.082 67.38 26.0376 67.2046 25.9487C67.0291 25.8599 66.8822 25.7266 66.7637 25.5488ZM66.75 24.0825V24.5713C66.75 24.8607 66.8434 25.1068 67.0303 25.3096C67.2194 25.5101 67.4587 25.6104 67.748 25.6104C68.0876 25.6104 68.353 25.4805 68.5444 25.2207C68.7381 24.9609 68.835 24.5998 68.835 24.1372C68.835 23.7476 68.745 23.4422 68.5649 23.2212C68.3849 23.0002 68.1411 22.8896 67.8335 22.8896C67.5076 22.8896 67.2456 23.0036 67.0474 23.2314C66.8491 23.457 66.75 23.7407 66.75 24.0825ZM73.6885 26.082C73.1712 26.082 72.7576 25.9191 72.4478 25.5933C72.1401 25.2651 71.9863 24.8311 71.9863 24.291C71.9863 23.7054 72.1458 23.2474 72.4648 22.917C72.7839 22.5866 73.2191 22.4202 73.7705 22.418C74.2923 22.4157 74.6991 22.5763 74.9907 22.8999C75.2847 23.2235 75.4316 23.6689 75.4316 24.2363C75.4316 24.7969 75.2733 25.2446 74.9565 25.5796C74.6421 25.9146 74.2194 26.082 73.6885 26.082ZM73.7295 25.6104C74.0918 25.6104 74.3698 25.493 74.5635 25.2583C74.7594 25.0213 74.8574 24.6875 74.8574 24.2568C74.8574 23.8171 74.7594 23.4798 74.5635 23.2451C74.3675 23.0081 74.0895 22.8896 73.7295 22.8896C73.3695 22.8896 73.0846 23.0127 72.875 23.2588C72.6654 23.5049 72.5605 23.8421 72.5605 24.2705C72.5605 24.6852 72.6665 25.0122 72.8784 25.2515C73.0903 25.4907 73.374 25.6104 73.7295 25.6104ZM76.3271 26V20.8184H76.8877V26H76.3271ZM78.3096 21.6626C78.1956 21.6626 78.0999 21.625 78.0225 21.5498C77.945 21.4723 77.9062 21.3778 77.9062 21.2661C77.9062 21.1545 77.945 21.061 78.0225 20.9858C78.0999 20.9084 78.1956 20.8696 78.3096 20.8696C78.4235 20.8696 78.5192 20.9084 78.5967 20.9858C78.6742 21.061 78.7129 21.1545 78.7129 21.2661C78.7129 21.3778 78.6742 21.4723 78.5967 21.5498C78.5192 21.625 78.4235 21.6626 78.3096 21.6626ZM78.583 26H78.0225V22.5H78.583V26ZM82.623 26H82.0625V24.0039C82.0625 23.6325 81.9941 23.3545 81.8574 23.1699C81.723 22.9831 81.5202 22.8896 81.249 22.8896C80.9688 22.8896 80.7363 22.9956 80.5518 23.2075C80.3695 23.4172 80.2783 23.6826 80.2783 24.0039V26H79.7178V22.5H80.2783V23.0811H80.292C80.4242 22.86 80.5859 22.6948 80.7773 22.5854C80.9688 22.4738 81.1898 22.418 81.4404 22.418C81.8232 22.418 82.116 22.5422 82.3188 22.7905C82.5216 23.0366 82.623 23.3932 82.623 23.8604V26ZM86.6699 25.812C86.6699 26.425 86.5127 26.8841 86.1982 27.1895C85.8861 27.4948 85.4577 27.6475 84.9131 27.6475C84.6738 27.6475 84.4505 27.6247 84.2432 27.5791C84.0381 27.5335 83.8262 27.4595 83.6074 27.3569L83.8125 26.9263C83.9948 27.0106 84.1725 27.0721 84.3457 27.1108C84.5212 27.1496 84.708 27.1689 84.9062 27.1689C85.2799 27.1689 85.5739 27.063 85.7881 26.8511C86.0023 26.6392 86.1094 26.3179 86.1094 25.8872V25.4121H86.0957C85.9635 25.6354 85.7972 25.8029 85.5967 25.9146C85.3962 26.0262 85.1615 26.082 84.8926 26.082C84.4574 26.082 84.1064 25.9271 83.8398 25.6172C83.5755 25.305 83.4434 24.8869 83.4434 24.3628C83.4434 23.7886 83.5892 23.3215 83.8809 22.9614C84.1748 22.5991 84.5633 22.418 85.0464 22.418C85.2834 22.418 85.4884 22.4658 85.6616 22.5615C85.8371 22.6549 85.9818 22.7962 86.0957 22.9854H86.1094V22.5H86.6699V25.812ZM86.1094 24.4175V23.9014C86.1094 23.6234 86.0148 23.3853 85.8257 23.187C85.6388 22.9888 85.4053 22.8896 85.125 22.8896C84.7809 22.8896 84.5098 23.0081 84.3115 23.2451C84.1156 23.4821 84.0176 23.8421 84.0176 24.3252C84.0176 24.7399 84.1087 25.0578 84.291 25.2788C84.4733 25.4998 84.7251 25.6104 85.0464 25.6104C85.3608 25.6104 85.616 25.4987 85.812 25.2754C86.0103 25.0521 86.1094 24.7661 86.1094 24.4175Z" fill="white" fill-opacity="0.786"/>
<defs>
<filter id="filter0_dd_976_1904" x="11.0938" y="7.25" width="11.8125" height="5.625" filterUnits="userSpaceOnUse" color-interpolation-filters="sRGB">
<feFlood flood-opacity="0" result="BackgroundImageFix"/>
<feColorMatrix in="SourceAlpha" type="matrix" values="0 0 0 0 0 0 0 0 0 0 0 0 0 0 0 0 0 0 127 0" result="hardAlpha"/>
<feOffset dy="0.1875"/>
<feGaussianBlur stdDeviation="0.1875"/>
<feColorMatrix type="matrix" values="0 0 0 0 0 0 0 0 0 0 0 0 0 0 0 0 0 0 0.1 0"/>
<feBlend mode="normal" in2="BackgroundImageFix" result="effect1_dropShadow_976_1904"/>
<feColorMatrix in="SourceAlpha" type="matrix" values="0 0 0 0 0 0 0 0 0 0 0 0 0 0 0 0 0 0 127 0" result="hardAlpha"/>
<feOffset dy="0.375"/>
<feGaussianBlur stdDeviation="0.5625"/>
<feColorMatrix type="matrix" values="0 0 0 0 0 0 0 0 0 0 0 0 0 0 0 0 0 0 0.2 0"/>
<feBlend mode="normal" in2="effect1_dropShadow_976_1904" result="effect2_dropShadow_976_1904"/>
<feBlend mode="normal" in="SourceGraphic" in2="effect2_dropShadow_976_1904" result="shape"/>
</filter>
<filter id="filter1_dd_976_1904" x="12.2188" y="13.4375" width="9.5625" height="9.5625" filterUnits="userSpaceOnUse" color-interpolation-filters="sRGB">
<feFlood flood-opacity="0" result="BackgroundImageFix"/>
<feColorMatrix in="SourceAlpha" type="matrix" values="0 0 0 0 0 0 0 0 0 0 0 0 0 0 0 0 0 0 127 0" result="hardAlpha"/>
<feOffset dy="0.1875"/>
<feGaussianBlur stdDeviation="0.1875"/>
<feColorMatrix type="matrix" values="0 0 0 0 1 0 0 0 0 1 0 0 0 0 1 0 0 0 0.6 0"/>
<feBlend mode="normal" in2="BackgroundImageFix" result="effect1_dropShadow_976_1904"/>
<feColorMatrix in="SourceAlpha" type="matrix" values="0 0 0 0 0 0 0 0 0 0 0 0 0 0 0 0 0 0 127 0" result="hardAlpha"/>
<feOffset dy="0.375"/>
<feGaussianBlur stdDeviation="0.5625"/>
<feColorMatrix type="matrix" values="0 0 0 0 1 0 0 0 0 1 0 0 0 0 1 0 0 0 0.6 0"/>
<feBlend mode="normal" in2="effect1_dropShadow_976_1904" result="effect2_dropShadow_976_1904"/>
<feBlend mode="normal" in="SourceGraphic" in2="effect2_dropShadow_976_1904" result="shape"/>
</filter>
<filter id="filter2_dd_976_1904" x="10.5939" y="6.6875" width="12.8124" height="5.06274" filterUnits="userSpaceOnUse" color-interpolation-filters="sRGB">
<feFlood flood-opacity="0" result="BackgroundImageFix"/>
<feColorMatrix in="SourceAlpha" type="matrix" values="0 0 0 0 0 0 0 0 0 0 0 0 0 0 0 0 0 0 127 0" result="hardAlpha"/>
<feOffset dy="-0.75"/>
<feGaussianBlur stdDeviation="0.1875"/>
<feColorMatrix type="matrix" values="0 0 0 0 0 0 0 0 0 0 0 0 0 0 0 0 0 0 0.1 0"/>
<feBlend mode="normal" in2="BackgroundImageFix" result="effect1_dropShadow_976_1904"/>
<feColorMatrix in="SourceAlpha" type="matrix" values="0 0 0 0 0 0 0 0 0 0 0 0 0 0 0 0 0 0 127 0" result="hardAlpha"/>
<feOffset dy="-0.75"/>
<feGaussianBlur stdDeviation="0.5625"/>
<feColorMatrix type="matrix" values="0 0 0 0 0 0 0 0 0 0 0 0 0 0 0 0 0 0 0.2 0"/>
<feBlend mode="normal" in2="effect1_dropShadow_976_1904" result="effect2_dropShadow_976_1904"/>
<feBlend mode="normal" in="SourceGraphic" in2="effect2_dropShadow_976_1904" result="shape"/>
</filter>
<linearGradient id="paint0_linear_976_1904" x1="12.2443" y1="8.00639" x2="15.9039" y2="24.8132" gradientUnits="userSpaceOnUse">
<stop offset="0.270833" stop-color="white"/>
<stop offset="1" stop-color="#DFDFDF"/>
</linearGradient>
<linearGradient id="paint1_linear_976_1904" x1="17" y1="10.25" x2="20.3514" y2="25.9624" gradientUnits="userSpaceOnUse">
<stop stop-color="#0078D4"/>
<stop offset="1" stop-color="#114A8B"/>
</linearGradient>
<linearGradient id="paint2_linear_976_1904" x1="17" y1="8.5625" x2="17.1583" y2="10.9858" gradientUnits="userSpaceOnUse">
<stop stop-color="#28AFEA"/>
<stop offset="1" stop-color="#0078D4"/>
</linearGradient>
<linearGradient id="paint3_linear_976_1904" x1="17" y1="8.5625" x2="17.1583" y2="10.9858" gradientUnits="userSpaceOnUse">
<stop stop-color="#30DAFF"/>
<stop offset="1" stop-color="#0094D4"/>
</linearGradient>
<linearGradient id="paint4_linear_976_1904" x1="16.5938" y1="8" x2="16.5937" y2="9.125" gradientUnits="userSpaceOnUse">
<stop stop-color="#22BCFF"/>
<stop offset="1" stop-color="#0088F0"/>
</linearGradient>
<linearGradient id="paint5_linear_976_1904" x1="16.5938" y1="8" x2="16.5937" y2="9.125" gradientUnits="userSpaceOnUse">
<stop stop-color="#28AFEA"/>
<stop offset="1" stop-color="#3CCBF4"/>
</linearGradient>
<clipPath id="clip0_976_1904">
<rect width="18" height="18" fill="white" transform="translate(8 8)"/>
</clipPath>
<clipPath id="clip1_976_1904">
<rect width="18" height="18" fill="white" transform="translate(8 8)"/>
</clipPath>
</defs>
</svg>
