<svg width="116" height="34" viewBox="0 0 116 34" fill="none" xmlns="http://www.w3.org/2000/svg">
<rect x="1" y="1" width="114" height="32" rx="4" fill="#FDFDFD"/>
<rect x="0.5" y="0.5" width="115" height="33" rx="4.5" stroke="black" stroke-opacity="0.0578"/>
<g clip-path="url(#clip0_976_1905)">
<g clip-path="url(#clip1_976_1905)">
<path d="M8.28125 11C8.28125 10.5858 8.61704 10.25 9.03125 10.25H24.9687C25.383 10.25 25.7188 10.5858 25.7188 11V22.3438C25.7188 24.0524 24.3336 25.4375 22.625 25.4375H11.375C9.66637 25.4375 8.28125 24.0524 8.28125 22.3438V11Z" fill="url(#paint0_linear_976_1905)"/>
<mask id="mask0_976_1905" style="mask-type:alpha" maskUnits="userSpaceOnUse" x="8" y="10" width="18" height="16">
<path d="M8.28125 11C8.28125 10.5858 8.61704 10.25 9.03125 10.25H24.9687C25.383 10.25 25.7188 10.5858 25.7188 11V22.3438C25.7188 24.0524 24.3336 25.4375 22.625 25.4375H11.375C9.66637 25.4375 8.28125 24.0524 8.28125 22.3438V11Z" fill="url(#paint1_linear_976_1905)"/>
</mask>
<g mask="url(#mask0_976_1905)">
<g filter="url(#filter0_dd_976_1905)">
<path d="M12.7812 10.8125V8.5625H21.2187V10.8125" stroke="url(#paint2_linear_976_1905)" stroke-width="1.125" stroke-linecap="round"/>
</g>
</g>
<g filter="url(#filter1_dd_976_1905)">
<path d="M16.719 14.1875H13.344V17.5625H16.719V14.1875Z" fill="#F25022"/>
<path d="M20.6562 14.1875H17.2812V17.5625H20.6562V14.1875Z" fill="#7FBA00"/>
<path d="M20.6562 18.125H17.2812V21.5H20.6562V18.125Z" fill="#FFB900"/>
<path d="M16.7188 18.125H13.3438V21.5H16.7188V18.125Z" fill="#00A4EF"/>
</g>
<path d="M12.7812 10.8125V9.125C12.7812 8.81434 13.0331 8.5625 13.3438 8.5625H20.6563C20.9669 8.5625 21.2188 8.81434 21.2188 9.125V10.8125" stroke="url(#paint3_linear_976_1905)" stroke-width="1.125" stroke-linecap="round"/>
<rect x="13.3438" y="8" width="7.3125" height="1.125" fill="url(#paint4_linear_976_1905)"/>
<mask id="mask1_976_1905" style="mask-type:alpha" maskUnits="userSpaceOnUse" x="13" y="8" width="8" height="2">
<rect x="13.3438" y="8" width="7.3125" height="1.125" fill="url(#paint5_linear_976_1905)"/>
</mask>
<g mask="url(#mask1_976_1905)">
<g filter="url(#filter2_dd_976_1905)">
<rect x="11.7189" y="8.56274" width="1.625" height="2.8125" fill="#C4C4C4"/>
</g>
</g>
</g>
</g>
<path d="M33.5342 8.61816H32.1191V13H31.5449V8.61816H30.1333V8.09863H33.5342V8.61816ZM36.7163 13H36.1558V12.4531H36.1421C36.0213 12.6628 35.8721 12.82 35.6943 12.9248C35.5189 13.0296 35.3138 13.082 35.0791 13.082C34.751 13.082 34.4855 12.9863 34.2827 12.7949C34.0799 12.6035 33.9785 12.3494 33.9785 12.0327C33.9785 11.7342 34.0811 11.487 34.2861 11.291C34.4912 11.0951 34.7817 10.9697 35.1577 10.915L36.1558 10.7817V10.7031C36.1558 10.4092 36.0874 10.2007 35.9507 10.0776C35.814 9.95231 35.6317 9.88965 35.4038 9.88965C35.2215 9.88965 35.0461 9.92383 34.8774 9.99219C34.7088 10.0605 34.5505 10.1654 34.4023 10.3066L34.0742 9.96826C34.2702 9.77913 34.4787 9.64014 34.6997 9.55127C34.9207 9.4624 35.1668 9.41797 35.438 9.41797C35.8618 9.41797 36.1808 9.52734 36.395 9.74609C36.6092 9.96257 36.7163 10.2884 36.7163 10.7236V13ZM36.1558 11.5781V11.2295L35.3115 11.3457C35.054 11.3822 34.8604 11.4471 34.7305 11.5405C34.6006 11.634 34.5356 11.7809 34.5356 11.9814C34.5356 12.1911 34.596 12.3517 34.7168 12.4634C34.8398 12.5728 34.9891 12.6274 35.1646 12.6274C35.4676 12.6274 35.708 12.5283 35.8857 12.3301C36.0658 12.1318 36.1558 11.8812 36.1558 11.5781ZM35.6499 8.83691H35.2808V8.44385C35.4084 8.44385 35.5041 8.4222 35.5679 8.37891C35.6317 8.33561 35.6636 8.27067 35.6636 8.18408C35.6636 8.11117 35.6362 8.05762 35.5815 8.02344C35.5291 7.98698 35.4494 7.96875 35.3423 7.96875C35.3241 7.96875 35.2979 7.97103 35.2637 7.97559C35.2318 7.98014 35.193 7.98698 35.1475 7.99609L35.0688 7.66455C35.1372 7.64404 35.201 7.63151 35.2603 7.62695C35.3195 7.62012 35.373 7.6167 35.4209 7.6167C35.6214 7.6167 35.7855 7.66455 35.9131 7.76025C36.043 7.85596 36.1079 7.9847 36.1079 8.14648C36.1079 8.28548 36.0635 8.40283 35.9746 8.49854C35.888 8.59424 35.7798 8.65007 35.6499 8.66602V8.83691ZM38.0869 8.6626C37.973 8.6626 37.8773 8.625 37.7998 8.5498C37.7223 8.47233 37.6836 8.37777 37.6836 8.26611C37.6836 8.15446 37.7223 8.06104 37.7998 7.98584C37.8773 7.90837 37.973 7.86963 38.0869 7.86963C38.2008 7.86963 38.2965 7.90837 38.374 7.98584C38.4515 8.06104 38.4902 8.15446 38.4902 8.26611C38.4902 8.37777 38.4515 8.47233 38.374 8.5498C38.2965 8.625 38.2008 8.6626 38.0869 8.6626ZM38.3604 13H37.7998V9.5H38.3604V13ZM43.9727 9.5L42.7969 11.2705L43.9521 13H43.2993L42.6123 11.8652C42.5895 11.8288 42.5656 11.7889 42.5405 11.7456C42.5155 11.7023 42.4881 11.6533 42.4585 11.5986H42.4448C42.438 11.6077 42.4209 11.6351 42.3936 11.6807C42.3685 11.7262 42.332 11.7878 42.2842 11.8652L41.5835 13H40.9375L42.1304 11.2842L40.9888 9.5H41.6416L42.3184 10.6963C42.3434 10.7419 42.3674 10.7874 42.3901 10.833C42.4152 10.8786 42.4403 10.9242 42.4653 10.9697H42.479C42.5063 10.9242 42.5337 10.8786 42.561 10.833C42.5884 10.7874 42.6157 10.7419 42.6431 10.6963L43.354 9.5H43.9727ZM47.459 13H46.8984V12.4463H46.8848C46.7686 12.6582 46.6204 12.8177 46.4404 12.9248C46.2604 13.0296 46.0485 13.082 45.8047 13.082C45.3877 13.082 45.0744 12.9578 44.8647 12.7095C44.6574 12.4611 44.5537 12.0885 44.5537 11.5918V9.5H45.1108V11.5029C45.1108 11.8721 45.1815 12.1489 45.3228 12.3335C45.464 12.5181 45.6759 12.6104 45.9585 12.6104C46.2319 12.6104 46.4564 12.5101 46.6318 12.3096C46.8096 12.1068 46.8984 11.8424 46.8984 11.5166V9.5H47.459V13ZM50.0566 13.082C49.5394 13.082 49.1258 12.9191 48.8159 12.5933C48.5083 12.2651 48.3545 11.8311 48.3545 11.291C48.3545 10.7054 48.514 10.2474 48.833 9.91699C49.152 9.58659 49.5872 9.42025 50.1387 9.41797C50.6605 9.41569 51.0672 9.57633 51.3589 9.8999C51.6528 10.2235 51.7998 10.6689 51.7998 11.2363C51.7998 11.7969 51.6414 12.2446 51.3247 12.5796C51.0103 12.9146 50.5876 13.082 50.0566 13.082ZM50.0977 12.6104C50.46 12.6104 50.738 12.493 50.9316 12.2583C51.1276 12.0213 51.2256 11.6875 51.2256 11.2568C51.2256 10.8171 51.1276 10.4798 50.9316 10.2451C50.7357 10.0081 50.4577 9.88965 50.0977 9.88965C49.7376 9.88965 49.4528 10.0127 49.2432 10.2588C49.0335 10.5049 48.9287 10.8421 48.9287 11.2705C48.9287 11.6852 49.0347 12.0122 49.2466 12.2515C49.4585 12.4907 49.7422 12.6104 50.0977 12.6104ZM50.6377 8.83691L50.0771 8.33105L49.5098 8.83691H49.1235L49.8618 7.98242H50.313L51.0513 8.83691H50.6377ZM50.8257 8.31738L51.4409 7.47656H52.0151L51.2598 8.31738H50.8257ZM55.6006 13H55.04V11.0039C55.04 10.6325 54.9717 10.3545 54.835 10.1699C54.7005 9.98307 54.4977 9.88965 54.2266 9.88965C53.9463 9.88965 53.7139 9.99561 53.5293 10.2075C53.347 10.4172 53.2559 10.6826 53.2559 11.0039V13H52.6953V9.5H53.2559V10.0811H53.2695C53.4017 9.86003 53.5635 9.69482 53.7549 9.58545C53.9463 9.4738 54.1673 9.41797 54.418 9.41797C54.8008 9.41797 55.0936 9.54215 55.2964 9.79053C55.4992 10.0366 55.6006 10.3932 55.6006 10.8604V13ZM59.6475 12.812C59.6475 13.425 59.4902 13.8841 59.1758 14.1895C58.8636 14.4948 58.4352 14.6475 57.8906 14.6475C57.6514 14.6475 57.4281 14.6247 57.2207 14.5791C57.0156 14.5335 56.8037 14.4595 56.585 14.3569L56.79 13.9263C56.9723 14.0106 57.1501 14.0721 57.3232 14.1108C57.4987 14.1496 57.6855 14.1689 57.8838 14.1689C58.2575 14.1689 58.5514 14.063 58.7656 13.8511C58.9798 13.6392 59.0869 13.3179 59.0869 12.8872V12.4121H59.0732C58.9411 12.6354 58.7747 12.8029 58.5742 12.9146C58.3737 13.0262 58.139 13.082 57.8701 13.082C57.4349 13.082 57.084 12.9271 56.8174 12.6172C56.5531 12.305 56.4209 11.8869 56.4209 11.3628C56.4209 10.7886 56.5667 10.3215 56.8584 9.96143C57.1523 9.59912 57.5409 9.41797 58.0239 9.41797C58.2609 9.41797 58.466 9.46582 58.6392 9.56152C58.8146 9.65495 58.9593 9.79622 59.0732 9.98535H59.0869V9.5H59.6475V12.812ZM59.0869 11.4175V10.9014C59.0869 10.6234 58.9924 10.3853 58.8032 10.187C58.6164 9.98877 58.3828 9.88965 58.1025 9.88965C57.7585 9.88965 57.4873 10.0081 57.2891 10.2451C57.0931 10.4821 56.9951 10.8421 56.9951 11.3252C56.9951 11.7399 57.0863 12.0578 57.2686 12.2788C57.4508 12.4998 57.7026 12.6104 58.0239 12.6104C58.3384 12.6104 58.5936 12.4987 58.7896 12.2754C58.9878 12.0521 59.0869 11.7661 59.0869 11.4175ZM64.3711 12.959C64.2754 12.9977 64.1808 13.0262 64.0874 13.0444C63.9963 13.0649 63.8926 13.0752 63.7764 13.0752C63.4984 13.0752 63.2796 12.9943 63.1201 12.8325C62.9629 12.6685 62.8843 12.4269 62.8843 12.1079V9.97852H62.2827V9.5H62.8843V8.64551L63.4448 8.46436V9.5H64.3267V9.97852H63.4448V12.043C63.4448 12.2435 63.4801 12.3882 63.5508 12.4771C63.6237 12.5659 63.7319 12.6104 63.8755 12.6104C63.9438 12.6104 64.0099 12.6024 64.0737 12.5864C64.1375 12.5705 64.1911 12.5522 64.2344 12.5317L64.3711 12.959ZM67.9053 13H67.3447V12.4463H67.3311C67.2148 12.6582 67.0667 12.8177 66.8867 12.9248C66.7067 13.0296 66.4948 13.082 66.251 13.082C65.834 13.082 65.5207 12.9578 65.311 12.7095C65.1037 12.4611 65 12.0885 65 11.5918V9.5H65.5571V11.5029C65.5571 11.8721 65.6278 12.1489 65.769 12.3335C65.9103 12.5181 66.1222 12.6104 66.4048 12.6104C66.6782 12.6104 66.9027 12.5101 67.0781 12.3096C67.2559 12.1068 67.3447 11.8424 67.3447 11.5166V9.5H67.7617C67.8962 9.5 68.0078 9.46012 68.0967 9.38037C68.1878 9.29834 68.2334 9.20036 68.2334 9.08643C68.2334 9.00212 68.2277 8.9235 68.2163 8.85059C68.2049 8.77539 68.1878 8.70475 68.165 8.63867H68.623C68.6458 8.70247 68.6618 8.77311 68.6709 8.85059C68.6823 8.92806 68.688 9.01237 68.688 9.10352C68.688 9.3291 68.623 9.50911 68.4932 9.64355C68.3633 9.77572 68.1673 9.8623 67.9053 9.90332V13ZM66.8936 8.83691H66.4595L65.564 7.71582H66.1382L66.8936 8.83691Z" fill="black" fill-opacity="0.6063"/>
<path d="M39.2275 25H37.96V20.0854C37.96 19.8634 37.9653 19.6217 37.9761 19.3604C37.9904 19.0954 38.0083 18.8143 38.0298 18.5171H37.9976C37.9546 18.7212 37.9134 18.8966 37.874 19.0435C37.8382 19.1867 37.8024 19.3013 37.7666 19.3872L35.5054 25H34.6245L32.3525 19.4355C32.3239 19.3568 32.2881 19.2404 32.2451 19.0864C32.2057 18.9325 32.1628 18.7427 32.1162 18.5171H32.084C32.1055 18.7749 32.1198 19.0488 32.127 19.3389C32.1341 19.6253 32.1377 19.9279 32.1377 20.2466V25H30.9561V17.2979H32.7607L34.7642 22.3037C34.8429 22.4935 34.9074 22.6689 34.9575 22.8301C35.0112 22.9876 35.0524 23.1344 35.0811 23.2705H35.1133C35.1777 23.0664 35.2386 22.882 35.2959 22.7173C35.3532 22.5526 35.4069 22.4093 35.457 22.2876L37.4873 17.2979H39.2275V25ZM41.6177 18.4365C41.3885 18.4365 41.1987 18.3631 41.0483 18.2163C40.8979 18.0695 40.8228 17.8887 40.8228 17.6738C40.8228 17.4518 40.8979 17.2692 41.0483 17.126C41.1987 16.9827 41.3885 16.9111 41.6177 16.9111C41.8504 16.9111 42.042 16.9827 42.1924 17.126C42.3428 17.2692 42.418 17.4518 42.418 17.6738C42.418 17.8923 42.3428 18.0749 42.1924 18.2217C42.042 18.3649 41.8504 18.4365 41.6177 18.4365ZM42.2354 25H40.9839V19.5H42.2354V25ZM47.9824 24.6616C47.7103 24.8263 47.4399 24.9445 47.1714 25.0161C46.9028 25.0913 46.611 25.1289 46.2959 25.1289C45.4508 25.1289 44.7741 24.8818 44.2656 24.3877C43.7607 23.8936 43.5083 23.2222 43.5083 22.3735C43.5083 21.4604 43.7697 20.7318 44.2925 20.1875C44.8188 19.6432 45.5278 19.3711 46.4194 19.3711C46.731 19.3711 47.0138 19.4051 47.2681 19.4731C47.5259 19.5376 47.7873 19.645 48.0522 19.7954L47.5635 20.6655C47.3773 20.5617 47.1947 20.4865 47.0156 20.4399C46.8366 20.3898 46.6414 20.3647 46.4302 20.3647C45.9038 20.3647 45.4974 20.5384 45.2109 20.8857C44.9245 21.2331 44.7812 21.6932 44.7812 22.2661C44.7812 22.8677 44.9352 23.3296 45.2432 23.6519C45.5547 23.9741 45.945 24.1353 46.4141 24.1353C46.5573 24.1353 46.722 24.1102 46.9082 24.0601C47.0944 24.0063 47.2824 23.9222 47.4722 23.8076L47.9824 24.6616ZM52.1021 20.5474C52.034 20.5295 51.9678 20.5169 51.9033 20.5098C51.8424 20.499 51.7708 20.4937 51.6885 20.4937C51.2409 20.4937 50.8971 20.6584 50.6572 20.9878C50.4173 21.3172 50.2974 21.7469 50.2974 22.2769V25H49.0459V19.5H50.2974V20.5581H50.3188C50.4478 20.1785 50.6375 19.8921 50.8882 19.6987C51.1388 19.5018 51.4342 19.4033 51.7744 19.4033C51.8711 19.4033 51.957 19.4087 52.0322 19.4194C52.111 19.4302 52.1862 19.4463 52.2578 19.4678L52.1021 20.5474ZM55.5557 25.1289C54.6963 25.1289 54.0142 24.8729 53.5093 24.3608C53.008 23.8452 52.7573 23.1559 52.7573 22.293C52.7609 21.3799 53.0223 20.6655 53.5415 20.1499C54.0607 19.6307 54.7679 19.3711 55.6631 19.3711C56.526 19.3675 57.1992 19.6217 57.6826 20.1338C58.1696 20.6423 58.4131 21.3315 58.4131 22.2017C58.4131 23.0968 58.1553 23.8094 57.6396 24.3394C57.1276 24.8657 56.4329 25.1289 55.5557 25.1289ZM55.6147 24.1353C56.1125 24.1353 56.4902 23.9723 56.748 23.6465C57.0094 23.3206 57.1401 22.8498 57.1401 22.2339C57.1401 21.6252 57.0094 21.1615 56.748 20.8428C56.4867 20.5241 56.1071 20.3647 55.6094 20.3647C55.1188 20.3647 54.7321 20.533 54.4492 20.8696C54.1699 21.2062 54.0303 21.6717 54.0303 22.2661C54.0303 22.8641 54.1699 23.326 54.4492 23.6519C54.7285 23.9741 55.117 24.1353 55.6147 24.1353ZM59.1543 24.5596L59.6968 23.6787C59.9116 23.8291 60.139 23.9508 60.3789 24.0439C60.6224 24.1335 60.8856 24.1782 61.1685 24.1782C61.4764 24.1782 61.7145 24.1227 61.8828 24.0117C62.0547 23.8971 62.1406 23.7271 62.1406 23.5015C62.1406 23.3224 62.069 23.1738 61.9258 23.0557C61.7861 22.9339 61.5462 22.8337 61.2061 22.7549C60.5186 22.5938 60.0352 22.3807 59.7559 22.1157C59.4801 21.8507 59.3423 21.5016 59.3423 21.0684C59.3423 20.5706 59.5356 20.1642 59.9224 19.8491C60.3091 19.5304 60.8158 19.3711 61.4424 19.3711C61.7539 19.3711 62.0511 19.4123 62.334 19.4946C62.6169 19.5734 62.8926 19.7005 63.1611 19.876L62.6562 20.7354C62.4199 20.585 62.2033 20.4775 62.0063 20.4131C61.8094 20.3486 61.6071 20.3164 61.3994 20.3164C61.1058 20.3164 60.8766 20.3719 60.7119 20.4829C60.5508 20.5903 60.4702 20.7407 60.4702 20.9341C60.4702 21.1382 60.5526 21.2904 60.7173 21.3906C60.8856 21.4873 61.1667 21.5822 61.5605 21.6753C62.1549 21.8185 62.59 22.0262 62.8657 22.2983C63.1414 22.5669 63.2793 22.9268 63.2793 23.3779C63.2793 23.9115 63.0841 24.3376 62.6938 24.6562C62.3071 24.9714 61.7826 25.1289 61.1201 25.1289C60.762 25.1289 60.4183 25.0824 60.0889 24.9893C59.763 24.8926 59.4515 24.7493 59.1543 24.5596ZM66.8779 25.1289C66.0186 25.1289 65.3364 24.8729 64.8315 24.3608C64.3302 23.8452 64.0796 23.1559 64.0796 22.293C64.0832 21.3799 64.3446 20.6655 64.8638 20.1499C65.383 19.6307 66.0902 19.3711 66.9854 19.3711C67.8483 19.3675 68.5215 19.6217 69.0049 20.1338C69.4919 20.6423 69.7354 21.3315 69.7354 22.2017C69.7354 23.0968 69.4775 23.8094 68.9619 24.3394C68.4499 24.8657 67.7552 25.1289 66.8779 25.1289ZM66.937 24.1353C67.4347 24.1353 67.8125 23.9723 68.0703 23.6465C68.3317 23.3206 68.4624 22.8498 68.4624 22.2339C68.4624 21.6252 68.3317 21.1615 68.0703 20.8428C67.8089 20.5241 67.4294 20.3647 66.9316 20.3647C66.4411 20.3647 66.0544 20.533 65.7715 20.8696C65.4922 21.2062 65.3525 21.6717 65.3525 22.2661C65.3525 22.8641 65.4922 23.326 65.7715 23.6519C66.0508 23.9741 66.4393 24.1353 66.937 24.1353ZM73.9839 17.8403C73.8836 17.8009 73.7923 17.7741 73.71 17.7598C73.6276 17.7419 73.5381 17.7329 73.4414 17.7329C73.1764 17.7329 72.9759 17.8099 72.8398 17.9639C72.7074 18.1143 72.6411 18.3327 72.6411 18.6191V19.5H73.9141V20.4775H72.6411V25H71.395V20.4775H70.4604V19.5H71.395V18.5547C71.395 17.9961 71.5741 17.5539 71.9321 17.228C72.2938 16.8986 72.7718 16.7339 73.3662 16.7339C73.5524 16.7339 73.7135 16.7464 73.8496 16.7715C73.9857 16.7965 74.1271 16.8324 74.2739 16.8789L73.9839 17.8403ZM77.7974 24.9248C77.6362 24.9928 77.4679 25.043 77.2925 25.0752C77.117 25.1074 76.929 25.1235 76.7285 25.1235C76.2201 25.1235 75.828 24.9893 75.5522 24.7207C75.2801 24.4486 75.144 24.0439 75.144 23.5068V20.4775H74.2202V19.5H75.144V18.1626L76.3901 17.7866V19.5H77.7061V20.4775H76.3901V23.4048C76.3901 23.6733 76.4385 23.8667 76.5352 23.9849C76.6354 24.103 76.7894 24.1621 76.9971 24.1621C77.0973 24.1621 77.1922 24.1514 77.2817 24.1299C77.3748 24.1048 77.4572 24.0744 77.5288 24.0386L77.7974 24.9248ZM81.2939 24.4468L81.8633 23.4639C82.2106 23.6787 82.5347 23.8309 82.8354 23.9204C83.1362 24.0063 83.4728 24.0493 83.8452 24.0493C84.2892 24.0493 84.6383 23.9544 84.8926 23.7646C85.1504 23.5713 85.2793 23.2956 85.2793 22.9375C85.2793 22.6117 85.1719 22.3556 84.957 22.1694C84.7458 21.9797 84.3859 21.806 83.8774 21.6484C83.0933 21.4157 82.5168 21.1274 82.1479 20.7837C81.7791 20.4399 81.5947 19.9744 81.5947 19.3872C81.5947 18.7498 81.8328 18.2217 82.3091 17.8027C82.7853 17.3802 83.4316 17.1689 84.248 17.1689C84.6061 17.1689 84.9588 17.2083 85.3062 17.2871C85.6535 17.3659 85.9972 17.4876 86.3374 17.6523L85.8594 18.6729C85.5622 18.5189 85.2775 18.4097 85.0054 18.3452C84.7368 18.2808 84.4629 18.2485 84.1836 18.2485C83.7754 18.2485 83.4531 18.3381 83.2168 18.5171C82.984 18.6961 82.8677 18.9486 82.8677 19.2744C82.8677 19.5645 82.9751 19.7936 83.1899 19.9619C83.4048 20.1266 83.7736 20.2896 84.2964 20.4507C85.0985 20.6906 85.675 20.9896 86.0259 21.3477C86.3804 21.7057 86.5576 22.1981 86.5576 22.8247C86.5576 23.4979 86.3177 24.0511 85.8379 24.4844C85.3581 24.9141 84.6742 25.1289 83.7861 25.1289C83.3421 25.1289 82.9089 25.0734 82.4863 24.9624C82.0638 24.8478 81.6663 24.6759 81.2939 24.4468ZM90.4409 24.9248C90.2798 24.9928 90.1115 25.043 89.936 25.0752C89.7606 25.1074 89.5726 25.1235 89.3721 25.1235C88.8636 25.1235 88.4715 24.9893 88.1958 24.7207C87.9237 24.4486 87.7876 24.0439 87.7876 23.5068V20.4775H86.8638V19.5H87.7876V18.1626L89.0337 17.7866V19.5H90.3496V20.4775H89.0337V23.4048C89.0337 23.6733 89.082 23.8667 89.1787 23.9849C89.279 24.103 89.4329 24.1621 89.6406 24.1621C89.7409 24.1621 89.8358 24.1514 89.9253 24.1299C90.0184 24.1048 90.1007 24.0744 90.1724 24.0386L90.4409 24.9248ZM93.8623 25.1289C93.0029 25.1289 92.3208 24.8729 91.8159 24.3608C91.3146 23.8452 91.064 23.1559 91.064 22.293C91.0675 21.3799 91.3289 20.6655 91.8481 20.1499C92.3674 19.6307 93.0745 19.3711 93.9697 19.3711C94.8327 19.3675 95.5059 19.6217 95.9893 20.1338C96.4762 20.6423 96.7197 21.3315 96.7197 22.2017C96.7197 23.0968 96.4619 23.8094 95.9463 24.3394C95.4342 24.8657 94.7396 25.1289 93.8623 25.1289ZM93.9214 24.1353C94.4191 24.1353 94.7969 23.9723 95.0547 23.6465C95.3161 23.3206 95.4468 22.8498 95.4468 22.2339C95.4468 21.6252 95.3161 21.1615 95.0547 20.8428C94.7933 20.5241 94.4137 20.3647 93.916 20.3647C93.4255 20.3647 93.0387 20.533 92.7559 20.8696C92.4766 21.2062 92.3369 21.6717 92.3369 22.2661C92.3369 22.8641 92.4766 23.326 92.7559 23.6519C93.0352 23.9741 93.4237 24.1353 93.9214 24.1353ZM101.054 20.5474C100.986 20.5295 100.92 20.5169 100.855 20.5098C100.795 20.499 100.723 20.4937 100.641 20.4937C100.193 20.4937 99.8493 20.6584 99.6094 20.9878C99.3695 21.3172 99.2495 21.7469 99.2495 22.2769V25H97.998V19.5H99.2495V20.5581H99.271C99.3999 20.1785 99.5897 19.8921 99.8403 19.6987C100.091 19.5018 100.386 19.4033 100.727 19.4033C100.823 19.4033 100.909 19.4087 100.984 19.4194C101.063 19.4302 101.138 19.4463 101.21 19.4678L101.054 20.5474ZM106.721 22.5776H102.966C102.988 23.0968 103.138 23.4925 103.417 23.7646C103.697 24.0332 104.087 24.1675 104.588 24.1675C104.792 24.1675 105.025 24.1263 105.287 24.0439C105.548 23.9616 105.806 23.8291 106.06 23.6465L106.624 24.4253C106.284 24.6724 105.938 24.8514 105.587 24.9624C105.236 25.0734 104.85 25.1289 104.427 25.1289C103.571 25.1289 102.905 24.8836 102.429 24.3931C101.953 23.8989 101.713 23.2096 101.709 22.3252C101.709 21.4443 101.955 20.7318 102.445 20.1875C102.939 19.6432 103.571 19.3711 104.341 19.3711C105.079 19.3711 105.659 19.6038 106.082 20.0693C106.508 20.5312 106.721 21.1865 106.721 22.0352V22.5776ZM105.512 21.7129C105.512 21.2402 105.408 20.8857 105.201 20.6494C104.997 20.4095 104.707 20.2896 104.331 20.2896C103.976 20.2896 103.674 20.4185 103.423 20.6763C103.176 20.9305 103.024 21.276 102.966 21.7129H105.512Z" fill="black" fill-opacity="0.8956"/>
<defs>
<filter id="filter0_dd_976_1905" x="11.0938" y="7.25" width="11.8125" height="5.625" filterUnits="userSpaceOnUse" color-interpolation-filters="sRGB">
<feFlood flood-opacity="0" result="BackgroundImageFix"/>
<feColorMatrix in="SourceAlpha" type="matrix" values="0 0 0 0 0 0 0 0 0 0 0 0 0 0 0 0 0 0 127 0" result="hardAlpha"/>
<feOffset dy="0.1875"/>
<feGaussianBlur stdDeviation="0.1875"/>
<feColorMatrix type="matrix" values="0 0 0 0 0 0 0 0 0 0 0 0 0 0 0 0 0 0 0.1 0"/>
<feBlend mode="normal" in2="BackgroundImageFix" result="effect1_dropShadow_976_1905"/>
<feColorMatrix in="SourceAlpha" type="matrix" values="0 0 0 0 0 0 0 0 0 0 0 0 0 0 0 0 0 0 127 0" result="hardAlpha"/>
<feOffset dy="0.375"/>
<feGaussianBlur stdDeviation="0.5625"/>
<feColorMatrix type="matrix" values="0 0 0 0 0 0 0 0 0 0 0 0 0 0 0 0 0 0 0.2 0"/>
<feBlend mode="normal" in2="effect1_dropShadow_976_1905" result="effect2_dropShadow_976_1905"/>
<feBlend mode="normal" in="SourceGraphic" in2="effect2_dropShadow_976_1905" result="shape"/>
</filter>
<filter id="filter1_dd_976_1905" x="12.2188" y="13.4375" width="9.5625" height="9.5625" filterUnits="userSpaceOnUse" color-interpolation-filters="sRGB">
<feFlood flood-opacity="0" result="BackgroundImageFix"/>
<feColorMatrix in="SourceAlpha" type="matrix" values="0 0 0 0 0 0 0 0 0 0 0 0 0 0 0 0 0 0 127 0" result="hardAlpha"/>
<feOffset dy="0.1875"/>
<feGaussianBlur stdDeviation="0.1875"/>
<feColorMatrix type="matrix" values="0 0 0 0 0 0 0 0 0 0 0 0 0 0 0 0 0 0 0.1 0"/>
<feBlend mode="normal" in2="BackgroundImageFix" result="effect1_dropShadow_976_1905"/>
<feColorMatrix in="SourceAlpha" type="matrix" values="0 0 0 0 0 0 0 0 0 0 0 0 0 0 0 0 0 0 127 0" result="hardAlpha"/>
<feOffset dy="0.375"/>
<feGaussianBlur stdDeviation="0.5625"/>
<feColorMatrix type="matrix" values="0 0 0 0 0 0 0 0 0 0 0 0 0 0 0 0 0 0 0.2 0"/>
<feBlend mode="normal" in2="effect1_dropShadow_976_1905" result="effect2_dropShadow_976_1905"/>
<feBlend mode="normal" in="SourceGraphic" in2="effect2_dropShadow_976_1905" result="shape"/>
</filter>
<filter id="filter2_dd_976_1905" x="10.5939" y="6.6875" width="12.8124" height="5.06274" filterUnits="userSpaceOnUse" color-interpolation-filters="sRGB">
<feFlood flood-opacity="0" result="BackgroundImageFix"/>
<feColorMatrix in="SourceAlpha" type="matrix" values="0 0 0 0 0 0 0 0 0 0 0 0 0 0 0 0 0 0 127 0" result="hardAlpha"/>
<feOffset dy="-0.75"/>
<feGaussianBlur stdDeviation="0.1875"/>
<feColorMatrix type="matrix" values="0 0 0 0 0 0 0 0 0 0 0 0 0 0 0 0 0 0 0.1 0"/>
<feBlend mode="normal" in2="BackgroundImageFix" result="effect1_dropShadow_976_1905"/>
<feColorMatrix in="SourceAlpha" type="matrix" values="0 0 0 0 0 0 0 0 0 0 0 0 0 0 0 0 0 0 127 0" result="hardAlpha"/>
<feOffset dy="-0.75"/>
<feGaussianBlur stdDeviation="0.5625"/>
<feColorMatrix type="matrix" values="0 0 0 0 0 0 0 0 0 0 0 0 0 0 0 0 0 0 0.2 0"/>
<feBlend mode="normal" in2="effect1_dropShadow_976_1905" result="effect2_dropShadow_976_1905"/>
<feBlend mode="normal" in="SourceGraphic" in2="effect2_dropShadow_976_1905" result="shape"/>
</filter>
<linearGradient id="paint0_linear_976_1905" x1="17" y1="10.25" x2="20.3514" y2="25.9624" gradientUnits="userSpaceOnUse">
<stop stop-color="#0669BC"/>
<stop offset="1" stop-color="#243A5F"/>
</linearGradient>
<linearGradient id="paint1_linear_976_1905" x1="17" y1="10.25" x2="20.3514" y2="25.9624" gradientUnits="userSpaceOnUse">
<stop stop-color="#0078D4"/>
<stop offset="1" stop-color="#114A8B"/>
</linearGradient>
<linearGradient id="paint2_linear_976_1905" x1="17" y1="8.5625" x2="17.1583" y2="10.9858" gradientUnits="userSpaceOnUse">
<stop stop-color="#28AFEA"/>
<stop offset="1" stop-color="#0078D4"/>
</linearGradient>
<linearGradient id="paint3_linear_976_1905" x1="17" y1="8.5625" x2="17.1583" y2="10.9858" gradientUnits="userSpaceOnUse">
<stop stop-color="#30DAFF"/>
<stop offset="1" stop-color="#0094D4"/>
</linearGradient>
<linearGradient id="paint4_linear_976_1905" x1="16.5938" y1="8" x2="16.5937" y2="9.125" gradientUnits="userSpaceOnUse">
<stop stop-color="#22BCFF"/>
<stop offset="1" stop-color="#0088F0"/>
</linearGradient>
<linearGradient id="paint5_linear_976_1905" x1="16.5938" y1="8" x2="16.5937" y2="9.125" gradientUnits="userSpaceOnUse">
<stop stop-color="#28AFEA"/>
<stop offset="1" stop-color="#3CCBF4"/>
</linearGradient>
<clipPath id="clip0_976_1905">
<rect width="18" height="18" fill="white" transform="translate(8 8)"/>
</clipPath>
<clipPath id="clip1_976_1905">
<rect width="18" height="18" fill="white" transform="translate(8 8)"/>
</clipPath>
</defs>
</svg>
