<svg width="104" height="32" viewBox="0 0 104 32" fill="none" xmlns="http://www.w3.org/2000/svg">
<rect x="0.5" y="0.5" width="103" height="31" rx="3.5" fill="black"/>
<path d="M15.5559 7H7V15.5608H15.5559V7Z" fill="#F25022"/>
<path d="M25.0001 7H16.4442V15.5608H25.0001V7Z" fill="#7FBA00"/>
<path d="M15.5559 16.4395H7V25.0002H15.5559V16.4395Z" fill="#00A4EF"/>
<path d="M25.0002 16.4395H16.4443V25.0002H25.0002V16.4395Z" fill="#FFB900"/>
<path d="M34.3281 13H33.4805L30.6523 8.625C30.6133 8.5625 30.5768 8.5013 30.543 8.44141C30.5117 8.38151 30.4844 8.32161 30.4609 8.26172H30.4375C30.4479 8.32422 30.4557 8.42057 30.4609 8.55078C30.4661 8.68099 30.4688 8.84505 30.4688 9.04297V13H29.7656V7.39844H30.6641L33.4141 11.6992C33.4714 11.7904 33.5195 11.8685 33.5586 11.9336C33.5977 11.9961 33.6263 12.0456 33.6445 12.082H33.6602C33.6471 12.0039 33.6367 11.8971 33.6289 11.7617C33.6237 11.6237 33.6211 11.4583 33.6211 11.2656V7.39844H34.3281V13ZM39.207 13H38.5117V10.6367C38.5117 10.2174 38.4336 9.90365 38.2773 9.69531C38.1211 9.48698 37.888 9.38281 37.5781 9.38281C37.263 9.38281 36.9987 9.50391 36.7852 9.74609C36.5716 9.98568 36.4648 10.2969 36.4648 10.6797V13H35.7695V7.07812H36.4648V9.57812H36.4805C36.6367 9.32031 36.8268 9.1276 37.0508 9C37.2747 8.86979 37.5312 8.80469 37.8203 8.80469C38.2812 8.80469 38.6276 8.94401 38.8594 9.22266C39.0911 9.5013 39.207 9.91927 39.207 10.4766V13ZM43.4219 13H42.7305V12.3555H42.7148C42.5742 12.6003 42.3997 12.7852 42.1914 12.9102C41.9831 13.0352 41.7409 13.0977 41.4648 13.0977C41.0794 13.0977 40.7682 12.9857 40.5312 12.7617C40.2943 12.5378 40.1758 12.2422 40.1758 11.875C40.1758 11.5182 40.2956 11.2253 40.5352 10.9961C40.7747 10.7669 41.1198 10.6198 41.5703 10.5547L42.7344 10.3984V10.3047C42.7344 9.97396 42.6549 9.73568 42.4961 9.58984C42.3398 9.44401 42.1289 9.37109 41.8633 9.37109C41.6523 9.37109 41.4466 9.41146 41.2461 9.49219C41.0456 9.57292 40.8555 9.69401 40.6758 9.85547L40.2969 9.43359C40.5286 9.22005 40.776 9.0625 41.0391 8.96094C41.3047 8.85677 41.5951 8.80469 41.9102 8.80469C42.4102 8.80469 42.7865 8.93359 43.0391 9.19141C43.2943 9.44922 43.4219 9.83594 43.4219 10.3516V13ZM42.7344 11.3281V10.9336L41.7578 11.0664C41.4583 11.1081 41.2344 11.1836 41.0859 11.293C40.9375 11.4023 40.8633 11.5742 40.8633 11.8086C40.8633 12.0404 40.9323 12.2201 41.0703 12.3477C41.2109 12.4753 41.3854 12.5391 41.5938 12.5391C41.9375 12.5391 42.2135 12.4258 42.4219 12.1992C42.6302 11.9701 42.7344 11.6797 42.7344 11.3281ZM41.2812 8.17188H40.8047L41.6523 6.875H42.2148L43.0664 8.17188H42.5586L41.918 7.28906L41.2812 8.17188ZM41.8828 14.2578C41.7708 14.2578 41.6745 14.2188 41.5938 14.1406C41.5156 14.0625 41.4766 13.9674 41.4766 13.8555C41.4766 13.7461 41.5169 13.6536 41.5977 13.5781C41.6784 13.5052 41.7734 13.4688 41.8828 13.4688C41.9948 13.4688 42.0898 13.5052 42.168 13.5781C42.2487 13.6536 42.2891 13.7474 42.2891 13.8594C42.2891 13.9688 42.2487 14.0625 42.168 14.1406C42.0898 14.2188 41.9948 14.2578 41.8828 14.2578ZM48.1523 13H47.457V10.6641C47.457 10.237 47.3789 9.91667 47.2227 9.70312C47.0664 9.48958 46.8333 9.38281 46.5234 9.38281C46.2005 9.38281 45.9336 9.50391 45.7227 9.74609C45.5143 9.98568 45.4102 10.2904 45.4102 10.6602V13H44.7148V8.90234H45.4102V9.58203H45.4258C45.5794 9.32161 45.7682 9.1276 45.9922 9C46.2161 8.86979 46.4753 8.80469 46.7695 8.80469C47.2174 8.80469 47.5599 8.94922 47.7969 9.23828C48.0339 9.52734 48.1523 9.94531 48.1523 10.4922V13ZM51.25 12.6953L51.5742 12.1719C51.7461 12.2865 51.9167 12.3737 52.0859 12.4336C52.2552 12.4935 52.4414 12.5234 52.6445 12.5234C52.918 12.5234 53.1263 12.474 53.2695 12.375C53.4128 12.2734 53.4844 12.1224 53.4844 11.9219C53.4844 11.7552 53.4206 11.6172 53.293 11.5078C53.168 11.3958 52.9701 11.3047 52.6992 11.2344C52.1914 11.1068 51.8424 10.944 51.6523 10.7461C51.4622 10.5456 51.3672 10.2969 51.3672 10C51.3672 9.65625 51.4974 9.37109 51.7578 9.14453C52.0208 8.91797 52.3789 8.80469 52.832 8.80469C53.0508 8.80469 53.2578 8.83333 53.4531 8.89062C53.651 8.94531 53.8503 9.03776 54.0508 9.16797L53.75 9.68359C53.5677 9.56901 53.4036 9.48958 53.2578 9.44531C53.112 9.39844 52.9635 9.375 52.8125 9.375C52.5547 9.375 52.3568 9.42318 52.2188 9.51953C52.0807 9.61589 52.0117 9.75521 52.0117 9.9375C52.0117 10.1146 52.0794 10.25 52.2148 10.3438C52.3503 10.4349 52.5755 10.5208 52.8906 10.6016C53.3099 10.7135 53.6224 10.8698 53.8281 11.0703C54.0365 11.2682 54.1406 11.5326 54.1406 11.8633C54.1406 12.2409 54.0039 12.5417 53.7305 12.7656C53.4596 12.987 53.0898 13.0977 52.6211 13.0977C52.3659 13.0977 52.1224 13.0638 51.8906 12.9961C51.6615 12.9258 51.4479 12.8255 51.25 12.6953ZM58.1094 13H57.418V12.3555H57.4023C57.2617 12.6003 57.0872 12.7852 56.8789 12.9102C56.6706 13.0352 56.4284 13.0977 56.1523 13.0977C55.7669 13.0977 55.4557 12.9857 55.2188 12.7617C54.9818 12.5378 54.8633 12.2422 54.8633 11.875C54.8633 11.5182 54.9831 11.2253 55.2227 10.9961C55.4622 10.7669 55.8073 10.6198 56.2578 10.5547L57.4219 10.3984V10.3047C57.4219 9.97396 57.3424 9.73568 57.1836 9.58984C57.0273 9.44401 56.8164 9.37109 56.5508 9.37109C56.3398 9.37109 56.1341 9.41146 55.9336 9.49219C55.7331 9.57292 55.543 9.69401 55.3633 9.85547L54.9844 9.43359C55.2161 9.22005 55.4635 9.0625 55.7266 8.96094C55.9922 8.85677 56.2826 8.80469 56.5977 8.80469C57.0977 8.80469 57.474 8.93359 57.7266 9.19141C57.9818 9.44922 58.1094 9.83594 58.1094 10.3516V13ZM57.4219 11.3281V10.9336L56.4453 11.0664C56.1458 11.1081 55.9219 11.1836 55.7734 11.293C55.625 11.4023 55.5508 11.5742 55.5508 11.8086C55.5508 12.0404 55.6198 12.2201 55.7578 12.3477C55.8984 12.4753 56.0729 12.5391 56.2812 12.5391C56.625 12.5391 56.901 12.4258 57.1094 12.1992C57.3177 11.9701 57.4219 11.6797 57.4219 11.3281ZM56.8281 8.17188H56.3945V7.71875C56.5404 7.71875 56.6497 7.69401 56.7227 7.64453C56.7982 7.59505 56.8359 7.52214 56.8359 7.42578C56.8359 7.34245 56.8047 7.28125 56.7422 7.24219C56.6823 7.20312 56.5924 7.18359 56.4727 7.18359C56.4492 7.18359 56.418 7.1862 56.3789 7.19141C56.3398 7.19661 56.2943 7.20443 56.2422 7.21484L56.1523 6.83203C56.2357 6.80859 56.3125 6.79427 56.3828 6.78906C56.4531 6.78125 56.5143 6.77734 56.5664 6.77734C56.8008 6.77734 56.9909 6.83203 57.1367 6.94141C57.2826 7.05078 57.3555 7.19792 57.3555 7.38281C57.3555 7.54167 57.3047 7.67578 57.2031 7.78516C57.1042 7.89453 56.9792 7.95833 56.8281 7.97656V8.17188ZM62.8398 13H62.1445V10.6641C62.1445 10.237 62.0664 9.91667 61.9102 9.70312C61.7539 9.48958 61.5208 9.38281 61.2109 9.38281C60.888 9.38281 60.6211 9.50391 60.4102 9.74609C60.2018 9.98568 60.0977 10.2904 60.0977 10.6602V13H59.4023V8.90234H60.0977V9.58203H60.1133C60.2669 9.32161 60.4557 9.1276 60.6797 9C60.9036 8.86979 61.1628 8.80469 61.457 8.80469C61.9049 8.80469 62.2474 8.94922 62.4844 9.23828C62.7214 9.52734 62.8398 9.94531 62.8398 10.4922V13ZM67.0117 12.4102H66.9961V14.8398H66.3008V8.90234H66.9961V9.61719H67.0117C67.1732 9.34635 67.3724 9.14323 67.6094 9.00781C67.8464 8.8724 68.1185 8.80469 68.4258 8.80469C68.9544 8.80469 69.3659 8.98828 69.6602 9.35547C69.957 9.72266 70.1055 10.2135 70.1055 10.8281C70.1055 11.5156 69.9375 12.0664 69.6016 12.4805C69.2682 12.8919 68.8138 13.0977 68.2383 13.0977C67.9727 13.0977 67.737 13.0404 67.5312 12.9258C67.3281 12.8112 67.1549 12.6393 67.0117 12.4102ZM66.9922 10.7617V11.3086C66.9922 11.6471 67.1003 11.9336 67.3164 12.168C67.5326 12.4023 67.8086 12.5195 68.1445 12.5195C68.5326 12.5195 68.8372 12.3698 69.0586 12.0703C69.2799 11.7708 69.3906 11.3542 69.3906 10.8203C69.3906 10.3698 69.2878 10.0182 69.082 9.76562C68.8763 9.51042 68.5964 9.38281 68.2422 9.38281C67.8646 9.38281 67.5612 9.51432 67.332 9.77734C67.1055 10.0378 66.9922 10.3659 66.9922 10.7617ZM74.6211 13H73.9258V10.6367C73.9258 10.2174 73.8477 9.90365 73.6914 9.69531C73.5352 9.48698 73.3021 9.38281 72.9922 9.38281C72.6771 9.38281 72.4128 9.50391 72.1992 9.74609C71.9857 9.98568 71.8789 10.2969 71.8789 10.6797V13H71.1836V7.07812H71.8789V9.57812H71.8945C72.0508 9.32031 72.2409 9.1276 72.4648 9C72.6888 8.86979 72.9453 8.80469 73.2344 8.80469C73.6953 8.80469 74.0417 8.94401 74.2734 9.22266C74.5052 9.5013 74.6211 9.91927 74.6211 10.4766V13ZM78.8359 13H78.1445V12.3555H78.1289C77.9883 12.6003 77.8138 12.7852 77.6055 12.9102C77.3971 13.0352 77.1549 13.0977 76.8789 13.0977C76.4935 13.0977 76.1823 12.9857 75.9453 12.7617C75.7083 12.5378 75.5898 12.2422 75.5898 11.875C75.5898 11.5182 75.7096 11.2253 75.9492 10.9961C76.1888 10.7669 76.5339 10.6198 76.9844 10.5547L78.1484 10.3984V10.3047C78.1484 9.97396 78.069 9.73568 77.9102 9.58984C77.7539 9.44401 77.543 9.37109 77.2773 9.37109C77.0664 9.37109 76.8607 9.41146 76.6602 9.49219C76.4596 9.57292 76.2695 9.69401 76.0898 9.85547L75.7109 9.43359C75.9427 9.22005 76.1901 9.0625 76.4531 8.96094C76.7188 8.85677 77.0091 8.80469 77.3242 8.80469C77.8242 8.80469 78.2005 8.93359 78.4531 9.19141C78.7083 9.44922 78.8359 9.83594 78.8359 10.3516V13ZM78.1484 11.3281V10.9336L77.1719 11.0664C76.8724 11.1081 76.6484 11.1836 76.5 11.293C76.3516 11.4023 76.2773 11.5742 76.2773 11.8086C76.2773 12.0404 76.3464 12.2201 76.4844 12.3477C76.625 12.4753 76.7995 12.5391 77.0078 12.5391C77.3516 12.5391 77.6276 12.4258 77.8359 12.1992C78.0443 11.9701 78.1484 11.6797 78.1484 11.3281ZM78.3008 7.58594V7.13281C78.4492 7.13281 78.5599 7.10938 78.6328 7.0625C78.7057 7.01302 78.7422 6.9401 78.7422 6.84375C78.7422 6.76302 78.7109 6.70182 78.6484 6.66016C78.5885 6.61849 78.4974 6.59766 78.375 6.59766C78.3411 6.59766 78.3047 6.60026 78.2656 6.60547C78.2292 6.60807 78.1901 6.61589 78.1484 6.62891L78.0664 6.23047C78.168 6.21484 78.2448 6.20573 78.2969 6.20312C78.3516 6.19792 78.4102 6.19531 78.4727 6.19531C78.707 6.19531 78.8958 6.25 79.0391 6.35938C79.1823 6.46615 79.2539 6.61458 79.2539 6.80469C79.2539 6.96094 79.2057 7.09375 79.1094 7.20312C79.013 7.3099 78.888 7.3724 78.7344 7.39062V7.58594H78.3008ZM76.2148 8.17969L77.0547 7.125H77.6172L78.457 8.17969H77.9609L77.3242 7.52734L76.6836 8.17969H76.2148ZM85.9961 13H85.2969V10.6445C85.2969 10.1992 85.2279 9.8776 85.0898 9.67969C84.9518 9.48177 84.7214 9.38281 84.3984 9.38281C84.1224 9.38281 83.888 9.50781 83.6953 9.75781C83.5052 10.0078 83.4102 10.3099 83.4102 10.6641V13H82.7148V10.5703C82.7148 10.1745 82.638 9.8776 82.4844 9.67969C82.3333 9.48177 82.1055 9.38281 81.8008 9.38281C81.5169 9.38281 81.2826 9.5013 81.0977 9.73828C80.9154 9.97526 80.8242 10.2852 80.8242 10.668V13H80.1289V8.90234H80.8242V9.55078H80.8398C80.9857 9.30339 81.1654 9.11719 81.3789 8.99219C81.5924 8.86719 81.8385 8.80469 82.1172 8.80469C82.3984 8.80469 82.6419 8.88151 82.8477 9.03516C83.056 9.1888 83.2005 9.39323 83.2812 9.64844C83.4323 9.36719 83.6211 9.15625 83.8477 9.01562C84.0768 8.875 84.3411 8.80469 84.6406 8.80469C85.0911 8.80469 85.4297 8.94401 85.6562 9.22266C85.8828 9.4987 85.9961 9.91536 85.9961 10.4727V13ZM91.4648 12.9492C91.3529 12.9961 91.2409 13.0299 91.1289 13.0508C91.0195 13.0742 90.8958 13.0859 90.7578 13.0859C90.4219 13.0859 90.1589 12.9896 89.9688 12.7969C89.7812 12.6042 89.6875 12.319 89.6875 11.9414V9.48047H88.9883V8.90234H89.6875V7.96484L90.3867 7.74219V8.90234H91.4102V9.48047H90.3867V11.8672C90.3867 12.099 90.4284 12.2656 90.5117 12.3672C90.5951 12.4688 90.7201 12.5195 90.8867 12.5195C90.9648 12.5195 91.0404 12.5104 91.1133 12.4922C91.1862 12.474 91.2487 12.4518 91.3008 12.4258L91.4648 12.9492ZM95.6953 13H95V12.3477H94.9844C94.8464 12.5977 94.6706 12.7852 94.457 12.9102C94.2461 13.0352 93.9987 13.0977 93.7148 13.0977C93.2279 13.0977 92.862 12.9518 92.6172 12.6602C92.375 12.3685 92.2539 11.9323 92.2539 11.3516V8.90234H92.9453V11.2461C92.9453 11.6706 93.026 11.9896 93.1875 12.2031C93.3516 12.4141 93.5964 12.5195 93.9219 12.5195C94.237 12.5195 94.4948 12.4036 94.6953 12.1719C94.8984 11.9375 95 11.6328 95 11.2578V8.90234H95.5234C95.6875 8.90234 95.8216 8.85547 95.9258 8.76172C96.0299 8.66536 96.082 8.54688 96.082 8.40625C96.082 8.3125 96.0755 8.22266 96.0625 8.13672C96.0495 8.05078 96.0299 7.96875 96.0039 7.89062H96.5508C96.5768 7.96354 96.5951 8.04557 96.6055 8.13672C96.6185 8.22526 96.625 8.32292 96.625 8.42969C96.625 8.69792 96.5469 8.91146 96.3906 9.07031C96.2344 9.22656 96.0026 9.32682 95.6953 9.37109V13ZM94.5234 8.17188H93.9883L92.9453 6.89062H93.6445L94.5234 8.17188Z" fill="white"/>
<path d="M41.1489 16.6123C41.1489 16.3559 41.2412 16.1507 41.4259 15.9764C41.6105 15.802 41.8258 15.72 42.0823 15.72C42.3489 15.72 42.5746 15.8123 42.7489 15.9866C42.9233 16.161 43.0156 16.3764 43.0156 16.6123C43.0156 16.8584 42.9233 17.0738 42.7387 17.2379C42.5541 17.4123 42.3387 17.4943 42.072 17.4943C41.8053 17.4943 41.59 17.4123 41.4053 17.2379C41.2412 17.0636 41.1489 16.8584 41.1489 16.6123ZM42.8412 25.002H41.313V18.4892H42.8412V25.002Z" fill="white"/>
<path d="M47.4975 23.8888C47.7231 23.8888 47.9795 23.8375 48.2565 23.735C48.5334 23.6324 48.7795 23.4888 49.0154 23.3144V24.7401C48.7693 24.8837 48.4924 24.9862 48.1847 25.058C47.877 25.1298 47.5282 25.1709 47.159 25.1709C46.2052 25.1709 45.4257 24.8632 44.8205 24.258C44.2154 23.6529 43.918 22.8734 43.918 21.9401C43.918 20.8939 44.2257 20.0324 44.8411 19.3555C45.4564 18.6785 46.318 18.3401 47.4462 18.3401C47.7334 18.3401 48.0206 18.3811 48.318 18.4529C48.6154 18.5247 48.8411 18.617 49.0154 18.7093V20.176C48.7795 20.0016 48.5334 19.8683 48.2872 19.776C48.0411 19.6837 47.7847 19.6324 47.5282 19.6324C46.9231 19.6324 46.4411 19.8273 46.0616 20.217C45.6923 20.6068 45.5077 21.1401 45.5077 21.8068C45.5077 22.4632 45.6821 22.976 46.0411 23.3452C46.4 23.7144 46.8821 23.8888 47.4975 23.8888Z" fill="white"/>
<path d="M53.3738 18.3899C53.4969 18.3899 53.6097 18.4001 53.702 18.4104C53.7943 18.4309 53.8866 18.4514 53.9482 18.4719V20.0207C53.8661 19.9591 53.7533 19.9078 53.5995 19.8566C53.4456 19.8053 53.261 19.7745 53.0354 19.7745C52.6559 19.7745 52.3379 19.9284 52.0815 20.2463C51.8251 20.5643 51.6918 21.0463 51.6918 21.713V25.0053H50.1636V18.4925H51.6918V19.5181H51.7123C51.8559 19.1591 52.061 18.8822 52.3482 18.6873C52.6354 18.4925 52.9738 18.3899 53.3738 18.3899Z" fill="white"/>
<path d="M54.0308 21.8478C54.0308 20.7709 54.3385 19.9196 54.9436 19.2837C55.5487 18.658 56.4 18.3401 57.4769 18.3401C58.4923 18.3401 59.2923 18.6478 59.8667 19.2529C60.441 19.858 60.7282 20.6785 60.7282 21.7042C60.7282 22.7606 60.4205 23.6016 59.8154 24.2273C59.2102 24.8529 58.3795 25.1606 57.3333 25.1606C56.3282 25.1606 55.5179 24.8632 54.9333 24.2683C54.3282 23.6837 54.0308 22.8734 54.0308 21.8478ZM55.6308 21.7965C55.6308 22.4734 55.7846 22.9965 56.0923 23.3555C56.4 23.7144 56.841 23.8888 57.4154 23.8888C57.9692 23.8888 58.4 23.7144 58.6872 23.3555C58.9743 22.9965 59.1282 22.4632 59.1282 21.7555C59.1282 21.058 58.9743 20.5247 58.6769 20.1657C58.3795 19.8068 57.9487 19.6324 57.4051 19.6324C56.841 19.6324 56.4102 19.817 56.0923 20.1965C55.7846 20.576 55.6308 21.0991 55.6308 21.7965Z" fill="white"/>
<path d="M63.0053 20.207C63.0053 20.4224 63.0771 20.5967 63.2104 20.7198C63.354 20.8429 63.6617 20.9968 64.1335 21.1916C64.7489 21.4378 65.1796 21.7147 65.4258 22.0224C65.6719 22.3301 65.795 22.6993 65.795 23.1301C65.795 23.7455 65.5591 24.2378 65.0873 24.607C64.6155 24.9762 63.9796 25.1609 63.1796 25.1609C62.913 25.1609 62.6155 25.1301 62.2873 25.0583C61.9591 24.9968 61.6822 24.9045 61.4565 24.8121V23.3044C61.7335 23.4993 62.0309 23.6532 62.3591 23.766C62.6771 23.8788 62.9745 23.9403 63.2309 23.9403C63.5796 23.9403 63.836 23.8891 64.0001 23.7968C64.1642 23.7044 64.2463 23.5403 64.2463 23.3044C64.2463 23.0891 64.1642 22.9147 63.9899 22.7711C63.8155 22.6275 63.4976 22.4532 63.0155 22.2685C62.4514 22.0327 62.0514 21.766 61.8155 21.4685C61.5796 21.1711 61.4565 20.7916 61.4565 20.3403C61.4565 19.7557 61.6924 19.2737 62.154 18.8942C62.6155 18.5147 63.2206 18.3301 63.9694 18.3301C64.195 18.3301 64.4514 18.3506 64.7386 18.4019C65.0258 18.4532 65.2617 18.5147 65.4463 18.5967V20.0532C65.2412 19.9198 65.0053 19.807 64.7386 19.7044C64.4719 19.6121 64.195 19.5608 63.9386 19.5608C63.6514 19.5608 63.4155 19.6224 63.2617 19.7352C63.0873 19.848 63.0053 20.0121 63.0053 20.207Z" fill="white"/>
<path d="M66.4717 21.8478C66.4717 20.7709 66.7794 19.9196 67.3845 19.2837C67.9896 18.658 68.8409 18.3401 69.9178 18.3401C70.9332 18.3401 71.7332 18.6478 72.3076 19.2529C72.8819 19.858 73.1691 20.6785 73.1691 21.7042C73.1691 22.7606 72.8614 23.6016 72.2563 24.2273C71.6512 24.8529 70.8204 25.1606 69.7742 25.1606C68.7691 25.1606 67.9589 24.8632 67.3742 24.2683C66.7691 23.6837 66.4717 22.8734 66.4717 21.8478ZM68.0614 21.7965C68.0614 22.4734 68.2153 22.9965 68.523 23.3555C68.8307 23.7144 69.2717 23.8888 69.846 23.8888C70.3999 23.8888 70.8307 23.7144 71.1178 23.3555C71.405 22.9965 71.5589 22.4632 71.5589 21.7555C71.5589 21.058 71.405 20.5247 71.1076 20.1657C70.8101 19.8068 70.3794 19.6324 69.8358 19.6324C69.2717 19.6324 68.8409 19.817 68.523 20.1965C68.2153 20.576 68.0614 21.0991 68.0614 21.7965Z" fill="white"/>
<path d="M78.2258 19.7523V23.0959C78.2258 23.7933 78.3899 24.3062 78.7079 24.6549C79.0258 25.0036 79.5181 25.1677 80.1643 25.1677C80.3797 25.1677 80.6053 25.1472 80.8309 25.0959C81.0566 25.0446 81.2207 25.0036 81.313 24.9421V23.6703C81.2207 23.7318 81.1079 23.7831 80.9848 23.8241C80.8617 23.8651 80.7489 23.8857 80.6668 23.8857C80.3591 23.8857 80.1232 23.8036 79.9797 23.6395C79.8361 23.4754 79.7643 23.1882 79.7643 22.7882V19.7421H81.3232V18.4908H79.7745V16.5626L78.2361 17.0344V18.501H75.9489V17.7113C75.9489 17.3215 76.0309 17.0241 76.2053 16.819C76.3796 16.6139 76.6258 16.5215 76.9438 16.5215C77.1079 16.5215 77.2514 16.5421 77.3848 16.5831C77.5079 16.6241 77.6002 16.6651 77.6514 16.6959V15.3728C77.5386 15.3318 77.4155 15.3113 77.272 15.2908C77.1284 15.2703 76.9643 15.26 76.7797 15.26C76.0822 15.26 75.5079 15.4754 75.0668 15.9164C74.6258 16.3574 74.4002 16.9113 74.4002 17.5985V18.501H73.313V19.7523H74.4002V25.0139H75.9489V19.7523H78.2258V19.7523Z" fill="white"/>
<path d="M39.8359 15.9199V25.0071H38.2564V17.8892H38.2359L35.4154 25.0071H34.3692L31.4769 17.8892H31.4564V25.0071H30V15.9199H32.2564L34.8718 22.6584H34.9128L37.6718 15.9199H39.8359Z" fill="white"/>
<rect x="0.5" y="0.5" width="103" height="31" rx="3.5" stroke="black"/>
</svg>
