<svg width="109" height="32" viewBox="0 0 109 32" fill="none" xmlns="http://www.w3.org/2000/svg">
<rect x="0.5" y="0.5" width="108" height="31" rx="3.5" fill="white"/>
<path d="M15.56 7H7V15.5607H15.56V7Z" fill="#F25022"/>
<path d="M25.0021 7H16.4421V15.5607H25.0021V7Z" fill="#7FBA00"/>
<path d="M15.56 16.4395H7V25.0001H15.56V16.4395Z" fill="#00A4EF"/>
<path d="M25.0022 16.4395H16.4422V25.0001H25.0022V16.4395Z" fill="#FFB900"/>
<path d="M31.9845 21.7042V22.2562H36.5285V21.7042H31.9845ZM34.6645 20.5762C35.0805 20.8642 35.5525 21.2882 35.7685 21.5922L36.1925 21.2562C35.9765 20.9602 35.4885 20.5442 35.0805 20.2802L34.6645 20.5762ZM34.4165 21.9922L33.9285 22.0802C34.2965 23.7362 35.0085 25.0082 36.2325 25.6322C36.3125 25.4802 36.4885 25.2562 36.6245 25.1442C35.4485 24.6242 34.7445 23.4562 34.4165 21.9922ZM29.4965 18.9202V19.4642H36.5285V18.9202H29.4965ZM31.3845 18.2802V20.1202H31.9845V18.2802H31.3845ZM34.0565 18.2802V20.0802H34.6485V18.2802H34.0565ZM33.8565 20.2402V21.4242C33.8565 22.5522 33.6485 24.1122 31.7605 25.2722C31.9045 25.3762 32.1045 25.5362 32.2085 25.6642C34.1845 24.4322 34.4245 22.7362 34.4245 21.4242V20.2402H33.8565ZM29.7445 20.4722C30.9765 21.3042 31.2085 22.2642 31.2085 23.3202C31.2085 24.1282 31.1445 24.6962 30.9445 24.9362C30.8805 25.0162 30.8085 25.0562 30.6965 25.0642C30.5205 25.0882 30.2245 25.0882 29.8565 25.0642C29.9685 25.2162 30.0325 25.4322 30.0405 25.5922C30.3685 25.6082 30.6645 25.6082 30.9285 25.5602C31.1045 25.5362 31.2565 25.4562 31.3525 25.3362C31.6805 24.9602 31.7685 24.2642 31.7685 23.3522C31.7685 22.2002 31.5765 21.0962 30.1445 20.1602L29.7445 20.4722ZM31.1365 22.3042C30.7525 22.8642 29.9685 23.4722 29.3045 23.7602C29.4405 23.8722 29.5925 24.0642 29.6725 24.2082C30.3365 23.8402 31.1365 23.1602 31.5525 22.5522L31.1365 22.3042ZM31.5925 20.2882C31.1045 20.8482 30.2085 21.4642 29.3205 21.8402C29.4405 21.9362 29.6005 22.1122 29.6885 22.2322C30.5845 21.8162 31.5205 21.2082 32.0885 20.5522L31.5925 20.2882ZM41.0885 19.3842V19.9682H44.0405V19.3842H41.0885ZM37.3765 18.7842V19.3442H41.2885V18.7842H37.3765ZM38.3125 20.4082V20.9602H40.3925V20.4082H38.3125ZM38.3125 22.0722V22.6162H40.3925V22.0722H38.3125ZM43.8645 19.3842V19.5282C43.5205 22.3362 42.3285 24.2162 40.7445 25.0402C40.8805 25.1522 41.0485 25.3762 41.1445 25.5282C42.8565 24.5362 44.0805 22.6562 44.4645 19.4722L44.0805 19.3682L43.9685 19.3842H43.8645ZM41.8165 20.0002L41.2405 20.1122C41.7365 22.6242 42.6565 24.5762 44.3925 25.5602C44.4885 25.4002 44.6805 25.1762 44.8165 25.0562C43.1685 24.2082 42.2405 22.3122 41.8165 20.0002ZM38.0005 19.0002V24.1922H38.5765V19.0002H38.0005ZM40.1445 19.0002V25.6242H40.7205V19.0002H40.1445ZM37.2165 24.0162L37.3285 24.6162C38.1605 24.4882 39.3125 24.3042 40.4085 24.1282L40.3765 23.5762C39.2085 23.7522 38.0005 23.9202 37.2165 24.0162Z" fill="black" fill-opacity="0.8956"/>
<path d="M35.904 6.50924C35.839 9.00524 35.839 14.1142 32.706 16.8442C33.265 17.1692 33.798 17.6242 34.162 18.0922C37.321 14.9982 37.516 9.48624 37.594 6.50924H35.904ZM31.068 12.0862C31.965 13.0872 32.966 14.4912 33.408 15.3882L34.539 13.9322C34.071 13.0612 33.057 11.7612 32.095 10.7862L31.068 12.0862ZM37.36 8.03024L35.982 8.74524C36.307 11.8652 36.996 16.0252 39.453 18.1572C39.713 17.6632 40.324 16.8962 40.688 16.5582C38.335 14.8292 37.659 10.9812 37.36 8.03024ZM31.029 6.44424C30.899 11.0982 30.379 14.9722 28.325 17.0912C28.741 17.3382 29.599 17.9232 29.872 18.1832C31.952 15.6872 32.55 11.5662 32.771 6.49624L31.029 6.44424ZM55.479 17.0002H53.981V11.1096C53.981 10.6272 54.0106 10.0369 54.0698 9.33862H54.0444C53.9513 9.73641 53.8688 10.0221 53.7969 10.1956L51.0801 17.0002H50.0391L47.3159 10.2463C47.2397 10.0474 47.1593 9.74487 47.0747 9.33862H47.0493C47.0832 9.70256 47.1001 10.2971 47.1001 11.1223V17.0002H45.7036V7.89771H47.8301L50.2231 13.9597C50.4051 14.4252 50.5236 14.7722 50.5786 15.0007H50.6104C50.7669 14.5225 50.8939 14.1671 50.9912 13.9343L53.4287 7.89771H55.479V17.0002ZM58.3037 9.1355C58.0625 9.1355 57.8551 9.05721 57.6816 8.90063C57.5124 8.74406 57.4277 8.54517 57.4277 8.30396C57.4277 8.06274 57.5124 7.86174 57.6816 7.70093C57.8551 7.54012 58.0625 7.45972 58.3037 7.45972C58.5534 7.45972 58.765 7.54012 58.9385 7.70093C59.112 7.86174 59.1987 8.06274 59.1987 8.30396C59.1987 8.53247 59.112 8.72925 58.9385 8.89429C58.765 9.05509 58.5534 9.1355 58.3037 9.1355ZM59.0337 17.0002H57.561V10.5002H59.0337V17.0002ZM65.6162 16.7019C65.0957 17.0024 64.48 17.1526 63.769 17.1526C62.8042 17.1526 62.0256 16.8521 61.4331 16.2512C60.8407 15.6461 60.5444 14.8632 60.5444 13.9026C60.5444 12.8319 60.8618 11.9729 61.4966 11.3254C62.1356 10.6737 62.9883 10.3479 64.0547 10.3479C64.6471 10.3479 65.1698 10.4516 65.6226 10.6589V12.03C65.1698 11.6915 64.6873 11.5222 64.1753 11.5222C63.5532 11.5222 63.0433 11.7338 62.6455 12.157C62.2477 12.5759 62.0488 13.1261 62.0488 13.8074C62.0488 14.4802 62.235 15.0113 62.6074 15.4006C62.984 15.79 63.4876 15.9846 64.1182 15.9846C64.6471 15.9846 65.1465 15.7963 65.6162 15.4197V16.7019ZM70.853 11.9031C70.6753 11.7634 70.4193 11.6936 70.085 11.6936C69.6491 11.6936 69.2852 11.8904 68.9932 12.2839C68.7012 12.6775 68.5552 13.2128 68.5552 13.8899V17.0002H67.0825V10.5002H68.5552V11.8396H68.5806C68.7244 11.3826 68.9445 11.0271 69.2407 10.7732C69.5412 10.5151 69.8755 10.386 70.2437 10.386C70.5103 10.386 70.7134 10.4262 70.853 10.5066V11.9031ZM74.6616 17.1526C73.6587 17.1526 72.8568 16.85 72.2559 16.2449C71.6592 15.6355 71.3608 14.8293 71.3608 13.8264C71.3608 12.7346 71.6719 11.8819 72.2939 11.2683C72.9202 10.6547 73.7624 10.3479 74.8203 10.3479C75.8359 10.3479 76.6273 10.6462 77.1943 11.2429C77.7614 11.8396 78.0449 12.6669 78.0449 13.7249C78.0449 14.7616 77.7381 15.5932 77.1245 16.2195C76.5151 16.8416 75.6942 17.1526 74.6616 17.1526ZM74.7314 11.5222C74.1559 11.5222 73.701 11.7232 73.3667 12.1252C73.0324 12.5273 72.8652 13.0816 72.8652 13.7883C72.8652 14.4696 73.0345 15.0071 73.373 15.4006C73.7116 15.79 74.1644 15.9846 74.7314 15.9846C75.3112 15.9846 75.7555 15.7921 76.0645 15.407C76.3776 15.0219 76.5342 14.4739 76.5342 13.7629C76.5342 13.0478 76.3776 12.4955 76.0645 12.1062C75.7555 11.7169 75.3112 11.5222 74.7314 11.5222ZM79.1431 16.7971V15.4324C79.6932 15.8513 80.3005 16.0608 80.9648 16.0608C81.8535 16.0608 82.2979 15.7984 82.2979 15.2737C82.2979 15.1256 82.2598 15.0007 82.1836 14.8992C82.1074 14.7934 82.0037 14.7003 81.8726 14.6199C81.7456 14.5395 81.5933 14.4675 81.4155 14.4041C81.242 14.3406 81.0474 14.2686 80.8315 14.1882C80.5649 14.0824 80.3237 13.9703 80.1079 13.8518C79.8963 13.7333 79.7186 13.6 79.5747 13.4519C79.4351 13.2996 79.3293 13.1282 79.2573 12.9377C79.1854 12.7473 79.1494 12.5251 79.1494 12.2712C79.1494 11.9581 79.2235 11.683 79.3716 11.446C79.5197 11.2048 79.7186 11.0038 79.9683 10.843C80.2179 10.678 80.5015 10.5553 80.8188 10.4749C81.1362 10.3902 81.4642 10.3479 81.8027 10.3479C82.4036 10.3479 82.9411 10.4389 83.415 10.6208V11.9094C82.958 11.5963 82.4333 11.4397 81.8408 11.4397C81.6546 11.4397 81.4854 11.4587 81.333 11.4968C81.1849 11.5349 81.0579 11.5878 80.9521 11.6555C80.8464 11.7232 80.7638 11.8057 80.7046 11.9031C80.6453 11.9962 80.6157 12.0999 80.6157 12.2141C80.6157 12.3538 80.6453 12.4722 80.7046 12.5696C80.7638 12.6669 80.8506 12.7537 80.9648 12.8298C81.0833 12.9018 81.223 12.9695 81.3838 13.033C81.5488 13.0922 81.7371 13.1578 81.9487 13.2297C82.228 13.344 82.4777 13.4604 82.6978 13.5789C82.922 13.6973 83.1125 13.8328 83.269 13.9851C83.4256 14.1332 83.5462 14.3067 83.6309 14.5056C83.7155 14.7003 83.7578 14.933 83.7578 15.2039C83.7578 15.5339 83.6816 15.8217 83.5293 16.0671C83.377 16.3126 83.1738 16.5157 82.9199 16.6765C82.666 16.8373 82.3719 16.9558 82.0376 17.032C81.7075 17.1124 81.3584 17.1526 80.9902 17.1526C80.2793 17.1526 79.6636 17.0341 79.1431 16.7971ZM88.0425 17.1526C87.0396 17.1526 86.2376 16.85 85.6367 16.2449C85.04 15.6355 84.7417 14.8293 84.7417 13.8264C84.7417 12.7346 85.0527 11.8819 85.6748 11.2683C86.3011 10.6547 87.1432 10.3479 88.2012 10.3479C89.2168 10.3479 90.0081 10.6462 90.5752 11.2429C91.1423 11.8396 91.4258 12.6669 91.4258 13.7249C91.4258 14.7616 91.119 15.5932 90.5054 16.2195C89.896 16.8416 89.075 17.1526 88.0425 17.1526ZM88.1123 11.5222C87.5368 11.5222 87.0819 11.7232 86.7476 12.1252C86.4132 12.5273 86.2461 13.0816 86.2461 13.7883C86.2461 14.4696 86.4154 15.0071 86.7539 15.4006C87.0924 15.79 87.5452 15.9846 88.1123 15.9846C88.6921 15.9846 89.1364 15.7921 89.4453 15.407C89.7585 15.0219 89.915 14.4739 89.915 13.7629C89.915 13.0478 89.7585 12.4955 89.4453 12.1062C89.1364 11.7169 88.6921 11.5222 88.1123 11.5222ZM96.3896 8.5769C96.1908 8.46265 95.9644 8.40552 95.7104 8.40552C94.9953 8.40552 94.6377 8.80965 94.6377 9.61792V10.5002H96.1484V11.6555H94.644V17.0002H93.1714V11.6555H92.0605V10.5002H93.1714V9.44653C93.1714 8.76099 93.3957 8.22144 93.8442 7.82788C94.2928 7.43009 94.8535 7.2312 95.5264 7.2312C95.8903 7.2312 96.1781 7.2714 96.3896 7.35181V8.5769ZM100.865 16.9304C100.577 17.0743 100.198 17.1462 99.7285 17.1462C98.4674 17.1462 97.8369 16.5411 97.8369 15.3308V11.6555H96.7515V10.5002H97.8369V8.99585L99.3096 8.5769V10.5002H100.865V11.6555H99.3096V14.9055C99.3096 15.2906 99.3794 15.5657 99.519 15.7307C99.6587 15.8958 99.8914 15.9783 100.217 15.9783C100.467 15.9783 100.683 15.9063 100.865 15.7625V16.9304Z" fill="black" fill-opacity="0.8956"/>
<rect x="0.5" y="0.5" width="108" height="31" rx="3.5" stroke="url(#paint0_linear_1640_30180)"/>
<defs>
<linearGradient id="paint0_linear_1640_30180" x1="54.5" y1="1" x2="54.5" y2="31" gradientUnits="userSpaceOnUse">
<stop offset="0.905762" stop-opacity="0.0578"/>
<stop offset="1" stop-opacity="0.1622"/>
</linearGradient>
</defs>
</svg>
