<svg width="107" height="32" viewBox="0 0 107 32" fill="none" xmlns="http://www.w3.org/2000/svg">
<rect x="0.5" y="0.5" width="106" height="31" rx="3.5" fill="white" fill-opacity="0.7"/>
<path d="M15.56 7H7V15.5607H15.56V7Z" fill="#F25022"/>
<path d="M25.0021 7H16.4421V15.5607H25.0021V7Z" fill="#7FBA00"/>
<path d="M15.56 16.4395H7V25.0001H15.56V16.4395Z" fill="#00A4EF"/>
<path d="M25.0022 16.4395H16.4422V25.0001H25.0022V16.4395Z" fill="#FFB900"/>
<path d="M33.0885 19.3842V19.9682H36.0405V19.3842H33.0885ZM29.3765 18.7842V19.3442H33.2885V18.7842H29.3765ZM30.3125 20.4082V20.9602H32.3925V20.4082H30.3125ZM30.3125 22.0722V22.6162H32.3925V22.0722H30.3125ZM35.8645 19.3842V19.5282C35.5205 22.3362 34.3285 24.2162 32.7445 25.0402C32.8805 25.1522 33.0485 25.3762 33.1445 25.5282C34.8565 24.5362 36.0805 22.6562 36.4645 19.4722L36.0805 19.3682L35.9685 19.3842H35.8645ZM33.8165 20.0002L33.2405 20.1122C33.7365 22.6242 34.6565 24.5762 36.3925 25.5602C36.4885 25.4002 36.6805 25.1762 36.8165 25.0562C35.1685 24.2082 34.2405 22.3122 33.8165 20.0002ZM30.0005 19.0002V24.1922H30.5765V19.0002H30.0005ZM32.1445 19.0002V25.6242H32.7205V19.0002H32.1445ZM29.2165 24.0162L29.3285 24.6162C30.1605 24.4882 31.3125 24.3042 32.4085 24.1282L32.3765 23.5762C31.2085 23.7522 30.0005 23.9202 29.2165 24.0162ZM40.8485 20.0642H43.4965V20.7202H40.8485V20.0642ZM40.8485 18.9842H43.4965V19.6322H40.8485V18.9842ZM40.2725 18.5282V21.1762H44.0965V18.5282H40.2725ZM39.7765 21.7282V22.2322H44.4805V21.7282H39.7765ZM39.5925 22.9202V23.4482H44.6245V22.9202H39.5925ZM42.8245 22.1682V24.9682C42.8245 25.0722 42.7925 25.1042 42.6645 25.1122C42.5445 25.1202 42.1445 25.1202 41.6885 25.1042C41.7685 25.2642 41.8645 25.4882 41.8885 25.6482C42.4885 25.6482 42.8725 25.6482 43.1125 25.5522C43.3525 25.4642 43.4245 25.3042 43.4245 24.9842V22.1682H42.8245ZM40.2885 23.8562C40.6485 24.2082 41.0805 24.7042 41.2725 25.0242L41.7285 24.6882C41.5205 24.3762 41.0805 23.9042 40.7125 23.5682L40.2885 23.8562ZM39.1525 20.0642C38.6725 20.8962 37.8965 21.7202 37.1685 22.2482C37.2725 22.3842 37.4405 22.7042 37.4885 22.8242C38.2805 22.2002 39.1365 21.2322 39.6805 20.2802L39.1525 20.0642ZM39.0005 18.3042C38.6565 18.8722 37.9365 19.5362 37.2965 19.9522C37.4005 20.0722 37.5525 20.3042 37.6165 20.4402C38.3285 19.9682 39.0965 19.2162 39.5765 18.5282L39.0005 18.3042ZM38.4325 21.4802V25.6402H39.0165V20.9282L38.9925 20.9122L38.4325 21.4802Z" fill="black" fill-opacity="0.8956"/>
<path d="M36.502 13.1002V14.4132H39.83V13.1002H36.502ZM35.852 11.2672V16.6622L37.295 17.2602V11.2672H35.852ZM34.461 13.7372L33.304 14.1402C34.201 17.2732 35.839 18.0142 38.166 18.0142H40.155C40.207 17.6112 40.415 16.9352 40.597 16.6102C40.103 16.6102 38.673 16.6232 38.296 16.6102C36.541 16.6102 35.111 16.1162 34.461 13.7372ZM34.227 5.96324C33.902 7.86124 33.187 9.53824 32.017 10.5522C32.342 10.7862 32.914 11.3322 33.122 11.6182C34.422 10.3962 35.267 8.44624 35.709 6.19724L34.227 5.96324ZM37.698 5.96324C37.438 7.99124 36.762 9.68124 35.488 10.6692C35.826 10.8772 36.463 11.3322 36.71 11.5922C38.01 10.3962 38.816 8.51124 39.167 6.14524L37.698 5.96324ZM34.084 8.88824C34.643 9.30424 35.397 9.90224 35.748 10.2792L36.45 9.07024C36.086 8.71924 35.319 8.17324 34.773 7.80924L34.084 8.88824ZM37.347 8.92724C38.166 9.68124 39.193 10.7602 39.661 11.4492L40.701 10.4222C40.207 9.75924 39.128 8.73224 38.322 8.03024L37.347 8.92724ZM33.278 12.1252C33.161 14.3222 32.719 16.1032 31.497 17.1432C31.822 17.3642 32.446 17.8842 32.667 18.1572C34.019 16.8572 34.591 14.8422 34.786 12.2422L33.278 12.1252ZM31.107 8.75824C30.431 10.0452 29.3 11.3062 28.195 12.1122C28.455 12.4502 28.871 13.2302 29.014 13.5682C30.288 12.5152 31.64 10.8512 32.485 9.26524L31.107 8.75824ZM30.873 5.96324C30.34 6.82124 29.248 7.91324 28.312 8.56324C28.559 8.84924 28.936 9.39524 29.131 9.70724C30.223 8.90124 31.445 7.64024 32.251 6.50924L30.873 5.96324ZM30.041 11.5662V18.1962H31.497V10.3052L31.367 10.2402L30.041 11.5662ZM55.089 17.0002H53.591V11.1096C53.591 10.6272 53.6206 10.0369 53.6798 9.33862H53.6544C53.5613 9.73641 53.4788 10.0221 53.4069 10.1956L50.6901 17.0002H49.6491L46.9259 10.2463C46.8497 10.0474 46.7693 9.74487 46.6847 9.33862H46.6593C46.6932 9.70256 46.7101 10.2971 46.7101 11.1223V17.0002H45.3136V7.89771H47.4401L49.8331 13.9597C50.0151 14.4252 50.1336 14.7722 50.1886 15.0007H50.2204C50.3769 14.5225 50.5039 14.1671 50.6012 13.9343L53.0387 7.89771H55.089V17.0002ZM57.7187 9.1355C57.4775 9.1355 57.2701 9.05721 57.0966 8.90063C56.9274 8.74406 56.8427 8.54517 56.8427 8.30396C56.8427 8.06274 56.9274 7.86174 57.0966 7.70093C57.2701 7.54012 57.4775 7.45972 57.7187 7.45972C57.9684 7.45972 58.18 7.54012 58.3535 7.70093C58.527 7.86174 58.6137 8.06274 58.6137 8.30396C58.6137 8.53247 58.527 8.72925 58.3535 8.89429C58.18 9.05509 57.9684 9.1355 57.7187 9.1355ZM58.4487 17.0002H56.976V10.5002H58.4487V17.0002ZM64.8362 16.7019C64.3157 17.0024 63.7 17.1526 62.989 17.1526C62.0242 17.1526 61.2456 16.8521 60.6531 16.2512C60.0607 15.6461 59.7644 14.8632 59.7644 13.9026C59.7644 12.8319 60.0818 11.9729 60.7166 11.3254C61.3556 10.6737 62.2083 10.3479 63.2747 10.3479C63.8671 10.3479 64.3898 10.4516 64.8426 10.6589V12.03C64.3898 11.6915 63.9073 11.5222 63.3953 11.5222C62.7732 11.5222 62.2633 11.7338 61.8655 12.157C61.4677 12.5759 61.2688 13.1261 61.2688 13.8074C61.2688 14.4802 61.455 15.0113 61.8274 15.4006C62.204 15.79 62.7076 15.9846 63.3382 15.9846C63.8671 15.9846 64.3665 15.7963 64.8362 15.4197V16.7019ZM69.878 11.9031C69.7003 11.7634 69.4443 11.6936 69.11 11.6936C68.6741 11.6936 68.3102 11.8904 68.0182 12.2839C67.7262 12.6775 67.5802 13.2128 67.5802 13.8899V17.0002H66.1075V10.5002H67.5802V11.8396H67.6056C67.7494 11.3826 67.9695 11.0271 68.2657 10.7732C68.5662 10.5151 68.9005 10.386 69.2687 10.386C69.5353 10.386 69.7384 10.4262 69.878 10.5066V11.9031ZM73.4916 17.1526C72.4887 17.1526 71.6868 16.85 71.0859 16.2449C70.4892 15.6355 70.1908 14.8293 70.1908 13.8264C70.1908 12.7346 70.5019 11.8819 71.1239 11.2683C71.7502 10.6547 72.5924 10.3479 73.6503 10.3479C74.6659 10.3479 75.4573 10.6462 76.0243 11.2429C76.5914 11.8396 76.8749 12.6669 76.8749 13.7249C76.8749 14.7616 76.5681 15.5932 75.9545 16.2195C75.3451 16.8416 74.5242 17.1526 73.4916 17.1526ZM73.5614 11.5222C72.9859 11.5222 72.531 11.7232 72.1967 12.1252C71.8624 12.5273 71.6952 13.0816 71.6952 13.7883C71.6952 14.4696 71.8645 15.0071 72.203 15.4006C72.5416 15.79 72.9944 15.9846 73.5614 15.9846C74.1412 15.9846 74.5855 15.7921 74.8945 15.407C75.2076 15.0219 75.3642 14.4739 75.3642 13.7629C75.3642 13.0478 75.2076 12.4955 74.8945 12.1062C74.5855 11.7169 74.1412 11.5222 73.5614 11.5222ZM77.7781 16.7971V15.4324C78.3282 15.8513 78.9355 16.0608 79.5998 16.0608C80.4885 16.0608 80.9328 15.7984 80.9328 15.2737C80.9328 15.1256 80.8948 15.0007 80.8186 14.8992C80.7424 14.7934 80.6387 14.7003 80.5076 14.6199C80.3806 14.5395 80.2283 14.4675 80.0505 14.4041C79.877 14.3406 79.6824 14.2686 79.4665 14.1882C79.1999 14.0824 78.9587 13.9703 78.7429 13.8518C78.5313 13.7333 78.3536 13.6 78.2097 13.4519C78.0701 13.2996 77.9643 13.1282 77.8923 12.9377C77.8204 12.7473 77.7844 12.5251 77.7844 12.2712C77.7844 11.9581 77.8585 11.683 78.0066 11.446C78.1547 11.2048 78.3536 11.0038 78.6033 10.843C78.8529 10.678 79.1365 10.5553 79.4538 10.4749C79.7712 10.3902 80.0992 10.3479 80.4377 10.3479C81.0386 10.3479 81.5761 10.4389 82.05 10.6208V11.9094C81.593 11.5963 81.0683 11.4397 80.4758 11.4397C80.2896 11.4397 80.1203 11.4587 79.968 11.4968C79.8199 11.5349 79.6929 11.5878 79.5871 11.6555C79.4814 11.7232 79.3988 11.8057 79.3396 11.9031C79.2803 11.9962 79.2507 12.0999 79.2507 12.2141C79.2507 12.3538 79.2803 12.4722 79.3396 12.5696C79.3988 12.6669 79.4856 12.7537 79.5998 12.8298C79.7183 12.9018 79.858 12.9695 80.0188 13.033C80.1838 13.0922 80.3721 13.1578 80.5837 13.2297C80.863 13.344 81.1127 13.4604 81.3328 13.5789C81.557 13.6973 81.7475 13.8328 81.904 13.9851C82.0606 14.1332 82.1812 14.3067 82.2659 14.5056C82.3505 14.7003 82.3928 14.933 82.3928 15.2039C82.3928 15.5339 82.3166 15.8217 82.1643 16.0671C82.012 16.3126 81.8088 16.5157 81.5549 16.6765C81.301 16.8373 81.0069 16.9558 80.6726 17.032C80.3425 17.1124 79.9934 17.1526 79.6252 17.1526C78.9143 17.1526 78.2986 17.0341 77.7781 16.7971ZM86.4825 17.1526C85.4795 17.1526 84.6776 16.85 84.0767 16.2449C83.48 15.6355 83.1817 14.8293 83.1817 13.8264C83.1817 12.7346 83.4927 11.8819 84.1148 11.2683C84.7411 10.6547 85.5832 10.3479 86.6412 10.3479C87.6568 10.3479 88.4481 10.6462 89.0152 11.2429C89.5823 11.8396 89.8658 12.6669 89.8658 13.7249C89.8658 14.7616 89.559 15.5932 88.9454 16.2195C88.336 16.8416 87.515 17.1526 86.4825 17.1526ZM86.5523 11.5222C85.9768 11.5222 85.5219 11.7232 85.1876 12.1252C84.8532 12.5273 84.6861 13.0816 84.6861 13.7883C84.6861 14.4696 84.8554 15.0071 85.1939 15.4006C85.5324 15.79 85.9852 15.9846 86.5523 15.9846C87.1321 15.9846 87.5764 15.7921 87.8853 15.407C88.1985 15.0219 88.355 14.4739 88.355 13.7629C88.355 13.0478 88.1985 12.4955 87.8853 12.1062C87.5764 11.7169 87.1321 11.5222 86.5523 11.5222ZM94.6346 8.5769C94.4358 8.46265 94.2094 8.40552 93.9554 8.40552C93.2403 8.40552 92.8827 8.80965 92.8827 9.61792V10.5002H94.3934V11.6555H92.889V17.0002H91.4164V11.6555H90.3055V10.5002H91.4164V9.44653C91.4164 8.76099 91.6407 8.22144 92.0892 7.82788C92.5378 7.43009 93.0985 7.2312 93.7714 7.2312C94.1353 7.2312 94.4231 7.2714 94.6346 7.35181V8.5769ZM98.9147 16.9304C98.627 17.0743 98.2482 17.1462 97.7785 17.1462C96.5175 17.1462 95.8869 16.5411 95.8869 15.3308V11.6555H94.8015V10.5002H95.8869V8.99585L97.3596 8.5769V10.5002H98.9147V11.6555H97.3596V14.9055C97.3596 15.2906 97.4294 15.5657 97.569 15.7307C97.7087 15.8958 97.9414 15.9783 98.2673 15.9783C98.517 15.9783 98.7328 15.9063 98.9147 15.7625V16.9304Z" fill="black" fill-opacity="0.8956"/>
<rect x="0.5" y="0.5" width="106" height="31" rx="3.5" stroke="url(#paint0_linear_1640_30202)"/>
<defs>
<linearGradient id="paint0_linear_1640_30202" x1="53.5" y1="1" x2="53.5" y2="31" gradientUnits="userSpaceOnUse">
<stop offset="0.905762" stop-opacity="0.0578"/>
<stop offset="1" stop-opacity="0.1622"/>
</linearGradient>
</defs>
</svg>
