<svg width="108" height="32" viewBox="0 0 108 32" fill="none" xmlns="http://www.w3.org/2000/svg">
<rect x="1.49751" y="0.5" width="106.002" height="31" rx="3.5" fill="black"/>
<path d="M16.5575 7H7.99751V15.5607H16.5575V7Z" fill="#F25022"/>
<path d="M25.9996 7H17.4396V15.5607H25.9996V7Z" fill="#7FBA00"/>
<path d="M16.5575 16.4395H7.99751V25.0001H16.5575V16.4395Z" fill="#00A4EF"/>
<path d="M25.9997 16.4395H17.4397V25.0001H25.9997V16.4395Z" fill="#FFB900"/>
<path d="M34.086 19.3842V19.9682H37.038V19.3842H34.086ZM30.374 18.7842V19.3442H34.286V18.7842H30.374ZM31.31 20.4082V20.9602H33.39V20.4082H31.31ZM31.31 22.0722V22.6162H33.39V22.0722H31.31ZM36.862 19.3842V19.5282C36.518 22.3362 35.326 24.2162 33.742 25.0402C33.878 25.1522 34.046 25.3762 34.142 25.5282C35.854 24.5362 37.078 22.6562 37.462 19.4722L37.078 19.3682L36.966 19.3842H36.862ZM34.814 20.0002L34.238 20.1122C34.734 22.6242 35.654 24.5762 37.39 25.5602C37.486 25.4002 37.678 25.1762 37.814 25.0562C36.166 24.2082 35.238 22.3122 34.814 20.0002ZM30.998 19.0002V24.1922H31.574V19.0002H30.998ZM33.142 19.0002V25.6242H33.718V19.0002H33.142ZM30.214 24.0162L30.326 24.6162C31.158 24.4882 32.31 24.3042 33.406 24.1282L33.374 23.5762C32.206 23.7522 30.998 23.9202 30.214 24.0162ZM41.846 20.0642H44.494V20.7202H41.846V20.0642ZM41.846 18.9842H44.494V19.6322H41.846V18.9842ZM41.27 18.5282V21.1762H45.094V18.5282H41.27ZM40.774 21.7282V22.2322H45.478V21.7282H40.774ZM40.59 22.9202V23.4482H45.622V22.9202H40.59ZM43.822 22.1682V24.9682C43.822 25.0722 43.79 25.1042 43.662 25.1122C43.542 25.1202 43.142 25.1202 42.686 25.1042C42.766 25.2642 42.862 25.4882 42.886 25.6482C43.486 25.6482 43.87 25.6482 44.11 25.5522C44.35 25.4642 44.422 25.3042 44.422 24.9842V22.1682H43.822ZM41.286 23.8562C41.646 24.2082 42.078 24.7042 42.27 25.0242L42.726 24.6882C42.518 24.3762 42.078 23.9042 41.71 23.5682L41.286 23.8562ZM40.15 20.0642C39.67 20.8962 38.894 21.7202 38.166 22.2482C38.27 22.3842 38.438 22.7042 38.486 22.8242C39.278 22.2002 40.134 21.2322 40.678 20.2802L40.15 20.0642ZM39.998 18.3042C39.654 18.8722 38.934 19.5362 38.294 19.9522C38.398 20.0722 38.55 20.3042 38.614 20.4402C39.326 19.9682 40.094 19.2162 40.574 18.5282L39.998 18.3042ZM39.43 21.4802V25.6402H40.014V20.9282L39.99 20.9122L39.43 21.4802Z" fill="white"/>
<path d="M37.502 13.1002V14.4132H40.83V13.1002H37.502ZM36.852 11.2672V16.6622L38.295 17.2602V11.2672H36.852ZM35.461 13.7372L34.304 14.1402C35.201 17.2732 36.839 18.0142 39.166 18.0142H41.155C41.207 17.6112 41.415 16.9352 41.597 16.6102C41.103 16.6102 39.673 16.6232 39.296 16.6102C37.541 16.6102 36.111 16.1162 35.461 13.7372ZM35.227 5.96324C34.902 7.86124 34.187 9.53824 33.017 10.5522C33.342 10.7862 33.914 11.3322 34.122 11.6182C35.422 10.3962 36.267 8.44624 36.709 6.19724L35.227 5.96324ZM38.698 5.96324C38.438 7.99124 37.762 9.68124 36.488 10.6692C36.826 10.8772 37.463 11.3322 37.71 11.5922C39.01 10.3962 39.816 8.51124 40.167 6.14524L38.698 5.96324ZM35.084 8.88824C35.643 9.30424 36.397 9.90224 36.748 10.2792L37.45 9.07024C37.086 8.71924 36.319 8.17324 35.773 7.80924L35.084 8.88824ZM38.347 8.92724C39.166 9.68124 40.193 10.7602 40.661 11.4492L41.701 10.4222C41.207 9.75924 40.128 8.73224 39.322 8.03024L38.347 8.92724ZM34.278 12.1252C34.161 14.3222 33.719 16.1032 32.497 17.1432C32.822 17.3642 33.446 17.8842 33.667 18.1572C35.019 16.8572 35.591 14.8422 35.786 12.2422L34.278 12.1252ZM32.107 8.75824C31.431 10.0452 30.3 11.3062 29.195 12.1122C29.455 12.4502 29.871 13.2302 30.014 13.5682C31.288 12.5152 32.64 10.8512 33.485 9.26524L32.107 8.75824ZM31.873 5.96324C31.34 6.82124 30.248 7.91324 29.312 8.56324C29.559 8.84924 29.936 9.39524 30.131 9.70724C31.223 8.90124 32.445 7.64024 33.251 6.50924L31.873 5.96324ZM31.041 11.5662V18.1962H32.497V10.3052L32.367 10.2402L31.041 11.5662ZM56.089 17.0002H54.591V11.1096C54.591 10.6272 54.6206 10.0369 54.6798 9.33862H54.6544C54.5613 9.73641 54.4788 10.0221 54.4069 10.1956L51.6901 17.0002H50.6491L47.9259 10.2463C47.8497 10.0474 47.7693 9.74487 47.6847 9.33862H47.6593C47.6932 9.70256 47.7101 10.2971 47.7101 11.1223V17.0002H46.3136V7.89771H48.4401L50.8331 13.9597C51.0151 14.4252 51.1336 14.7722 51.1886 15.0007H51.2204C51.3769 14.5225 51.5039 14.1671 51.6012 13.9343L54.0387 7.89771H56.089V17.0002ZM58.7187 9.1355C58.4775 9.1355 58.2701 9.05721 58.0966 8.90063C57.9274 8.74406 57.8427 8.54517 57.8427 8.30396C57.8427 8.06274 57.9274 7.86174 58.0966 7.70093C58.2701 7.54012 58.4775 7.45972 58.7187 7.45972C58.9684 7.45972 59.18 7.54012 59.3535 7.70093C59.527 7.86174 59.6137 8.06274 59.6137 8.30396C59.6137 8.53247 59.527 8.72925 59.3535 8.89429C59.18 9.05509 58.9684 9.1355 58.7187 9.1355ZM59.4487 17.0002H57.976V10.5002H59.4487V17.0002ZM65.8362 16.7019C65.3157 17.0024 64.7 17.1526 63.989 17.1526C63.0242 17.1526 62.2456 16.8521 61.6531 16.2512C61.0607 15.6461 60.7644 14.8632 60.7644 13.9026C60.7644 12.8319 61.0818 11.9729 61.7166 11.3254C62.3556 10.6737 63.2083 10.3479 64.2747 10.3479C64.8671 10.3479 65.3898 10.4516 65.8426 10.6589V12.03C65.3898 11.6915 64.9073 11.5222 64.3953 11.5222C63.7732 11.5222 63.2633 11.7338 62.8655 12.157C62.4677 12.5759 62.2688 13.1261 62.2688 13.8074C62.2688 14.4802 62.455 15.0113 62.8274 15.4006C63.204 15.79 63.7076 15.9846 64.3382 15.9846C64.8671 15.9846 65.3665 15.7963 65.8362 15.4197V16.7019ZM70.878 11.9031C70.7003 11.7634 70.4443 11.6936 70.11 11.6936C69.6741 11.6936 69.3102 11.8904 69.0182 12.2839C68.7262 12.6775 68.5802 13.2128 68.5802 13.8899V17.0002H67.1075V10.5002H68.5802V11.8396H68.6056C68.7494 11.3826 68.9695 11.0271 69.2657 10.7732C69.5662 10.5151 69.9005 10.386 70.2687 10.386C70.5353 10.386 70.7384 10.4262 70.878 10.5066V11.9031ZM74.4916 17.1526C73.4887 17.1526 72.6868 16.85 72.0859 16.2449C71.4892 15.6355 71.1908 14.8293 71.1908 13.8264C71.1908 12.7346 71.5019 11.8819 72.1239 11.2683C72.7502 10.6547 73.5924 10.3479 74.6503 10.3479C75.6659 10.3479 76.4573 10.6462 77.0243 11.2429C77.5914 11.8396 77.8749 12.6669 77.8749 13.7249C77.8749 14.7616 77.5681 15.5932 76.9545 16.2195C76.3451 16.8416 75.5242 17.1526 74.4916 17.1526ZM74.5614 11.5222C73.9859 11.5222 73.531 11.7232 73.1967 12.1252C72.8624 12.5273 72.6952 13.0816 72.6952 13.7883C72.6952 14.4696 72.8645 15.0071 73.203 15.4006C73.5416 15.79 73.9944 15.9846 74.5614 15.9846C75.1412 15.9846 75.5855 15.7921 75.8945 15.407C76.2076 15.0219 76.3642 14.4739 76.3642 13.7629C76.3642 13.0478 76.2076 12.4955 75.8945 12.1062C75.5855 11.7169 75.1412 11.5222 74.5614 11.5222ZM78.7781 16.7971V15.4324C79.3282 15.8513 79.9355 16.0608 80.5998 16.0608C81.4885 16.0608 81.9328 15.7984 81.9328 15.2737C81.9328 15.1256 81.8948 15.0007 81.8186 14.8992C81.7424 14.7934 81.6387 14.7003 81.5076 14.6199C81.3806 14.5395 81.2283 14.4675 81.0505 14.4041C80.877 14.3406 80.6824 14.2686 80.4665 14.1882C80.1999 14.0824 79.9587 13.9703 79.7429 13.8518C79.5313 13.7333 79.3536 13.6 79.2097 13.4519C79.0701 13.2996 78.9643 13.1282 78.8923 12.9377C78.8204 12.7473 78.7844 12.5251 78.7844 12.2712C78.7844 11.9581 78.8585 11.683 79.0066 11.446C79.1547 11.2048 79.3536 11.0038 79.6033 10.843C79.8529 10.678 80.1365 10.5553 80.4538 10.4749C80.7712 10.3902 81.0992 10.3479 81.4377 10.3479C82.0386 10.3479 82.5761 10.4389 83.05 10.6208V11.9094C82.593 11.5963 82.0683 11.4397 81.4758 11.4397C81.2896 11.4397 81.1203 11.4587 80.968 11.4968C80.8199 11.5349 80.6929 11.5878 80.5871 11.6555C80.4814 11.7232 80.3988 11.8057 80.3396 11.9031C80.2803 11.9962 80.2507 12.0999 80.2507 12.2141C80.2507 12.3538 80.2803 12.4722 80.3396 12.5696C80.3988 12.6669 80.4856 12.7537 80.5998 12.8298C80.7183 12.9018 80.858 12.9695 81.0188 13.033C81.1838 13.0922 81.3721 13.1578 81.5837 13.2297C81.863 13.344 82.1127 13.4604 82.3328 13.5789C82.557 13.6973 82.7475 13.8328 82.904 13.9851C83.0606 14.1332 83.1812 14.3067 83.2659 14.5056C83.3505 14.7003 83.3928 14.933 83.3928 15.2039C83.3928 15.5339 83.3166 15.8217 83.1643 16.0671C83.012 16.3126 82.8088 16.5157 82.5549 16.6765C82.301 16.8373 82.0069 16.9558 81.6726 17.032C81.3425 17.1124 80.9934 17.1526 80.6252 17.1526C79.9143 17.1526 79.2986 17.0341 78.7781 16.7971ZM87.4825 17.1526C86.4795 17.1526 85.6776 16.85 85.0767 16.2449C84.48 15.6355 84.1817 14.8293 84.1817 13.8264C84.1817 12.7346 84.4927 11.8819 85.1148 11.2683C85.7411 10.6547 86.5832 10.3479 87.6412 10.3479C88.6568 10.3479 89.4481 10.6462 90.0152 11.2429C90.5823 11.8396 90.8658 12.6669 90.8658 13.7249C90.8658 14.7616 90.559 15.5932 89.9454 16.2195C89.336 16.8416 88.515 17.1526 87.4825 17.1526ZM87.5523 11.5222C86.9768 11.5222 86.5219 11.7232 86.1876 12.1252C85.8532 12.5273 85.6861 13.0816 85.6861 13.7883C85.6861 14.4696 85.8554 15.0071 86.1939 15.4006C86.5324 15.79 86.9852 15.9846 87.5523 15.9846C88.1321 15.9846 88.5764 15.7921 88.8853 15.407C89.1985 15.0219 89.355 14.4739 89.355 13.7629C89.355 13.0478 89.1985 12.4955 88.8853 12.1062C88.5764 11.7169 88.1321 11.5222 87.5523 11.5222ZM95.6346 8.5769C95.4358 8.46265 95.2094 8.40552 94.9554 8.40552C94.2403 8.40552 93.8827 8.80965 93.8827 9.61792V10.5002H95.3934V11.6555H93.889V17.0002H92.4164V11.6555H91.3055V10.5002H92.4164V9.44653C92.4164 8.76099 92.6407 8.22144 93.0892 7.82788C93.5378 7.43009 94.0985 7.2312 94.7714 7.2312C95.1353 7.2312 95.4231 7.2714 95.6346 7.35181V8.5769ZM99.9147 16.9304C99.627 17.0743 99.2482 17.1462 98.7785 17.1462C97.5175 17.1462 96.8869 16.5411 96.8869 15.3308V11.6555H95.8015V10.5002H96.8869V8.99585L98.3596 8.5769V10.5002H99.9147V11.6555H98.3596V14.9055C98.3596 15.2906 98.4294 15.5657 98.569 15.7307C98.7087 15.8958 98.9414 15.9783 99.2673 15.9783C99.517 15.9783 99.7328 15.9063 99.9147 15.7625V16.9304Z" fill="white"/>
<rect x="1.49751" y="0.5" width="106.002" height="31" rx="3.5" stroke="black"/>
</svg>
